<?xml version="1.0"?>
<svg xmlns="http://www.w3.org/2000/svg" xmlns:xlink="http://www.w3.org/1999/xlink" viewBox="0 0 305.000000 188.000000" width="152.500000mm" height="94.000000mm" version="1.1">
<a xlink:href="flute-0x7fe6e3900c50.svg">
<rect x="1.000000" y="1.000000" width="304.000000" height="187.000000" rx="0" ry="0" style="stroke:none;fill:#cccccc;"/>
<rect x="0.000000" y="0.000000" width="304.000000" height="187.000000" rx="0" ry="0" style="stroke:none;fill:#ffffff;"/>
</a>
<text x="10.000000" y="7.000000" font-family="Arial" font-size="7"></text>
<a xlink:href="env1-0x7fe6e38a2420.svg">
<rect x="45.000000" y="25.000000" width="129.000000" height="24.000000" rx="0" ry="0" style="stroke:none;fill:#cccccc;"/>
<rect x="44.000000" y="24.000000" width="129.000000" height="24.000000" rx="0" ry="0" style="stroke:none;fill:#003366;"/>
</a>
<a xlink:href="env1-0x7fe6e38a2420.svg">
<text x="108.500000" y="38.000000" font-family="Arial" font-size="7" text-anchor="middle" fill="#FFFFFF">env1(((hslide...: _,0.0f : &gt;)</text>
</a>
<circle cx="46.000000" cy="26.000000" r="1"/>
<a xlink:href="breath-0x7fe6e38c04b0.svg">
<rect x="25.000000" y="57.000000" width="129.000000" height="24.000000" rx="0" ry="0" style="stroke:none;fill:#cccccc;"/>
<rect x="24.000000" y="56.000000" width="129.000000" height="24.000000" rx="0" ry="0" style="stroke:none;fill:#003366;"/>
</a>
<a xlink:href="breath-0x7fe6e38c04b0.svg">
<text x="88.500000" y="70.000000" font-family="Arial" font-size="7" text-anchor="middle" fill="#FFFFFF">breath(((hsli...: _,0.0f : &gt;)</text>
</a>
<circle cx="26.000000" cy="58.000000" r="1"/>
<rect x="76.600000" y="99.000000" width="25.800000" height="24.000000" rx="0" ry="0" style="stroke:none;fill:#cccccc;"/>
<rect x="75.600000" y="98.000000" width="25.800000" height="24.000000" rx="0" ry="0" style="stroke:none;fill:#f44800;"/>
<text x="88.500000" y="112.000000" font-family="Arial" font-size="7" text-anchor="middle" fill="#FFFFFF">0.01</text>
<circle cx="77.600000" cy="100.000000" r="1"/>
<line x1="66.600000" y1="89.000000" x2="66.600000" y2="131.000000"  style="stroke: black; stroke-linecap:round; stroke-width:0.25; stroke-dasharray:3,3;"/>
<line x1="66.600000" y1="131.000000" x2="110.400000" y2="131.000000"  style="stroke: black; stroke-linecap:round; stroke-width:0.25; stroke-dasharray:3,3;"/>
<line x1="110.400000" y1="131.000000" x2="110.400000" y2="89.000000"  style="stroke: black; stroke-linecap:round; stroke-width:0.25; stroke-dasharray:3,3;"/>
<line x1="66.600000" y1="89.000000" x2="71.600000" y2="89.000000"  style="stroke: black; stroke-linecap:round; stroke-width:0.25; stroke-dasharray:3,3;"/>
<line x1="107.075000" y1="89.000000" x2="110.400000" y2="89.000000"  style="stroke: black; stroke-linecap:round; stroke-width:0.25; stroke-dasharray:3,3;"/>
<text x="71.600000" y="91.000000" font-family="Arial" font-size="7">breathAmp</text>
<rect x="170.000000" y="83.000000" width="24.000000" height="24.000000" rx="0" ry="0" style="stroke:none;fill:#cccccc;"/>
<rect x="169.000000" y="82.000000" width="24.000000" height="24.000000" rx="0" ry="0" style="stroke:none;fill:#4B71A1;"/>
<text x="181.000000" y="96.000000" font-family="Arial" font-size="7" text-anchor="middle" fill="#FFFFFF">*</text>
<circle cx="171.000000" cy="84.000000" r="1"/>
<line x1="166.000000" y1="89.000000" x2="169.000000" y2="90.000000"  transform="rotate(0.000000,169.000000,90.000000)" style="stroke: black; stroke-width:0.25;"/>
<line x1="166.000000" y1="91.000000" x2="169.000000" y2="90.000000"  transform="rotate(0.000000,169.000000,90.000000)" style="stroke: black; stroke-width:0.25;"/>
<line x1="166.000000" y1="97.000000" x2="169.000000" y2="98.000000"  transform="rotate(0.000000,169.000000,98.000000)" style="stroke: black; stroke-width:0.25;"/>
<line x1="166.000000" y1="99.000000" x2="169.000000" y2="98.000000"  transform="rotate(0.000000,169.000000,98.000000)" style="stroke: black; stroke-width:0.25;"/>
<rect x="210.000000" y="67.000000" width="24.000000" height="24.000000" rx="0" ry="0" style="stroke:none;fill:#cccccc;"/>
<rect x="209.000000" y="66.000000" width="24.000000" height="24.000000" rx="0" ry="0" style="stroke:none;fill:#4B71A1;"/>
<text x="221.000000" y="80.000000" font-family="Arial" font-size="7" text-anchor="middle" fill="#FFFFFF">+</text>
<circle cx="211.000000" cy="68.000000" r="1"/>
<line x1="206.000000" y1="73.000000" x2="209.000000" y2="74.000000"  transform="rotate(0.000000,209.000000,74.000000)" style="stroke: black; stroke-width:0.25;"/>
<line x1="206.000000" y1="75.000000" x2="209.000000" y2="74.000000"  transform="rotate(0.000000,209.000000,74.000000)" style="stroke: black; stroke-width:0.25;"/>
<line x1="206.000000" y1="81.000000" x2="209.000000" y2="82.000000"  transform="rotate(0.000000,209.000000,82.000000)" style="stroke: black; stroke-width:0.25;"/>
<line x1="206.000000" y1="83.000000" x2="209.000000" y2="82.000000"  transform="rotate(0.000000,209.000000,82.000000)" style="stroke: black; stroke-width:0.25;"/>
<a xlink:href="vibrato-0x7fe6e38e1210.svg">
<rect x="65.000000" y="141.000000" width="129.000000" height="24.000000" rx="0" ry="0" style="stroke:none;fill:#cccccc;"/>
<rect x="64.000000" y="140.000000" width="129.000000" height="24.000000" rx="0" ry="0" style="stroke:none;fill:#003366;"/>
</a>
<a xlink:href="vibrato-0x7fe6e38e1210.svg">
<text x="128.500000" y="154.000000" font-family="Arial" font-size="7" text-anchor="middle" fill="#FFFFFF">vibrato(((hsl...: _,0.0f : &gt;)</text>
</a>
<circle cx="66.000000" cy="142.000000" r="1"/>
<rect x="250.000000" y="83.000000" width="24.000000" height="24.000000" rx="0" ry="0" style="stroke:none;fill:#cccccc;"/>
<rect x="249.000000" y="82.000000" width="24.000000" height="24.000000" rx="0" ry="0" style="stroke:none;fill:#4B71A1;"/>
<text x="261.000000" y="96.000000" font-family="Arial" font-size="7" text-anchor="middle" fill="#FFFFFF">+</text>
<circle cx="251.000000" cy="84.000000" r="1"/>
<line x1="246.000000" y1="89.000000" x2="249.000000" y2="90.000000"  transform="rotate(0.000000,249.000000,90.000000)" style="stroke: black; stroke-width:0.25;"/>
<line x1="246.000000" y1="91.000000" x2="249.000000" y2="90.000000"  transform="rotate(0.000000,249.000000,90.000000)" style="stroke: black; stroke-width:0.25;"/>
<line x1="246.000000" y1="97.000000" x2="249.000000" y2="98.000000"  transform="rotate(0.000000,249.000000,98.000000)" style="stroke: black; stroke-width:0.25;"/>
<line x1="246.000000" y1="99.000000" x2="249.000000" y2="98.000000"  transform="rotate(0.000000,249.000000,98.000000)" style="stroke: black; stroke-width:0.25;"/>
<line x1="15.000000" y1="15.000000" x2="15.000000" y2="173.000000"  style="stroke: black; stroke-linecap:round; stroke-width:0.25; stroke-dasharray:3,3;"/>
<line x1="15.000000" y1="173.000000" x2="290.000000" y2="173.000000"  style="stroke: black; stroke-linecap:round; stroke-width:0.25; stroke-dasharray:3,3;"/>
<line x1="290.000000" y1="173.000000" x2="290.000000" y2="15.000000"  style="stroke: black; stroke-linecap:round; stroke-width:0.25; stroke-dasharray:3,3;"/>
<line x1="15.000000" y1="15.000000" x2="20.000000" y2="15.000000"  style="stroke: black; stroke-linecap:round; stroke-width:0.25; stroke-dasharray:3,3;"/>
<line x1="119.975000" y1="15.000000" x2="290.000000" y2="15.000000"  style="stroke: black; stroke-linecap:round; stroke-width:0.25; stroke-dasharray:3,3;"/>
<text x="20.000000" y="17.000000" font-family="Arial" font-size="7">flow(((hslide...: _,0.0f : &gt;)</text>
<line x1="292.000000" y1="93.000000" x2="295.000000" y2="94.000000"  transform="rotate(0.000000,295.000000,94.000000)" style="stroke: black; stroke-width:0.25;"/>
<line x1="292.000000" y1="95.000000" x2="295.000000" y2="94.000000"  transform="rotate(0.000000,295.000000,94.000000)" style="stroke: black; stroke-width:0.25;"/>
<line x1="101.400000" y1="110.000000" x2="105.400000" y2="110.000000"  style="stroke:black; stroke-linecap:round; stroke-width:0.25;"/>
<line x1="105.400000" y1="110.000000" x2="115.400000" y2="110.000000"  style="stroke:black; stroke-linecap:round; stroke-width:0.25;"/>
<line x1="115.400000" y1="110.000000" x2="157.000000" y2="110.000000"  style="stroke:black; stroke-linecap:round; stroke-width:0.25;"/>
<line x1="153.000000" y1="68.000000" x2="157.000000" y2="68.000000"  style="stroke:black; stroke-linecap:round; stroke-width:0.25;"/>
<line x1="157.000000" y1="68.000000" x2="165.000000" y2="68.000000"  style="stroke:black; stroke-linecap:round; stroke-width:0.25;"/>
<line x1="157.000000" y1="98.000000" x2="165.000000" y2="98.000000"  style="stroke:black; stroke-linecap:round; stroke-width:0.25;"/>
<line x1="157.000000" y1="110.000000" x2="157.000000" y2="98.000000"  style="stroke:black; stroke-linecap:round; stroke-width:0.25;"/>
<line x1="157.000000" y1="110.000000" x2="157.000000" y2="110.000000"  style="stroke:black; stroke-linecap:round; stroke-width:0.25;"/>
<line x1="165.000000" y1="68.000000" x2="165.000000" y2="90.000000"  style="stroke:black; stroke-linecap:round; stroke-width:0.25;"/>
<line x1="165.000000" y1="90.000000" x2="165.000000" y2="90.000000"  style="stroke:black; stroke-linecap:round; stroke-width:0.25;"/>
<line x1="165.000000" y1="90.000000" x2="169.000000" y2="90.000000"  style="stroke:black; stroke-linecap:round; stroke-width:0.25;"/>
<line x1="165.000000" y1="98.000000" x2="169.000000" y2="98.000000"  style="stroke:black; stroke-linecap:round; stroke-width:0.25;"/>
<line x1="173.000000" y1="36.000000" x2="177.000000" y2="36.000000"  style="stroke:black; stroke-linecap:round; stroke-width:0.25;"/>
<line x1="177.000000" y1="36.000000" x2="197.000000" y2="36.000000"  style="stroke:black; stroke-linecap:round; stroke-width:0.25;"/>
<line x1="193.000000" y1="94.000000" x2="197.000000" y2="94.000000"  style="stroke:black; stroke-linecap:round; stroke-width:0.25;"/>
<line x1="193.000000" y1="152.000000" x2="197.000000" y2="152.000000"  style="stroke:black; stroke-linecap:round; stroke-width:0.25;"/>
<line x1="197.000000" y1="36.000000" x2="205.000000" y2="36.000000"  style="stroke:black; stroke-linecap:round; stroke-width:0.25;"/>
<line x1="197.000000" y1="82.000000" x2="205.000000" y2="82.000000"  style="stroke:black; stroke-linecap:round; stroke-width:0.25;"/>
<line x1="197.000000" y1="94.000000" x2="197.000000" y2="82.000000"  style="stroke:black; stroke-linecap:round; stroke-width:0.25;"/>
<line x1="197.000000" y1="94.000000" x2="197.000000" y2="94.000000"  style="stroke:black; stroke-linecap:round; stroke-width:0.25;"/>
<line x1="197.000000" y1="152.000000" x2="237.000000" y2="152.000000"  style="stroke:black; stroke-linecap:round; stroke-width:0.25;"/>
<line x1="205.000000" y1="36.000000" x2="205.000000" y2="74.000000"  style="stroke:black; stroke-linecap:round; stroke-width:0.25;"/>
<line x1="205.000000" y1="74.000000" x2="205.000000" y2="74.000000"  style="stroke:black; stroke-linecap:round; stroke-width:0.25;"/>
<line x1="205.000000" y1="74.000000" x2="209.000000" y2="74.000000"  style="stroke:black; stroke-linecap:round; stroke-width:0.25;"/>
<line x1="205.000000" y1="82.000000" x2="209.000000" y2="82.000000"  style="stroke:black; stroke-linecap:round; stroke-width:0.25;"/>
<line x1="233.000000" y1="78.000000" x2="237.000000" y2="78.000000"  style="stroke:black; stroke-linecap:round; stroke-width:0.25;"/>
<line x1="237.000000" y1="78.000000" x2="245.000000" y2="78.000000"  style="stroke:black; stroke-linecap:round; stroke-width:0.25;"/>
<line x1="237.000000" y1="98.000000" x2="245.000000" y2="98.000000"  style="stroke:black; stroke-linecap:round; stroke-width:0.25;"/>
<line x1="237.000000" y1="152.000000" x2="237.000000" y2="98.000000"  style="stroke:black; stroke-linecap:round; stroke-width:0.25;"/>
<line x1="237.000000" y1="152.000000" x2="237.000000" y2="152.000000"  style="stroke:black; stroke-linecap:round; stroke-width:0.25;"/>
<line x1="245.000000" y1="78.000000" x2="245.000000" y2="90.000000"  style="stroke:black; stroke-linecap:round; stroke-width:0.25;"/>
<line x1="245.000000" y1="90.000000" x2="245.000000" y2="90.000000"  style="stroke:black; stroke-linecap:round; stroke-width:0.25;"/>
<line x1="245.000000" y1="90.000000" x2="249.000000" y2="90.000000"  style="stroke:black; stroke-linecap:round; stroke-width:0.25;"/>
<line x1="245.000000" y1="98.000000" x2="249.000000" y2="98.000000"  style="stroke:black; stroke-linecap:round; stroke-width:0.25;"/>
<line x1="273.000000" y1="94.000000" x2="277.000000" y2="94.000000"  style="stroke:black; stroke-linecap:round; stroke-width:0.25;"/>
<line x1="277.000000" y1="94.000000" x2="277.000000" y2="94.000000"  style="stroke:black; stroke-linecap:round; stroke-width:0.25;"/>
<line x1="277.000000" y1="94.000000" x2="281.000000" y2="94.000000"  style="stroke:black; stroke-linecap:round; stroke-width:0.25;"/>
<line x1="281.000000" y1="94.000000" x2="285.000000" y2="94.000000"  style="stroke:black; stroke-linecap:round; stroke-width:0.25;"/>
<line x1="285.000000" y1="94.000000" x2="295.000000" y2="94.000000"  style="stroke:black; stroke-linecap:round; stroke-width:0.25;"/>
</svg>
