<?xml version="1.0"?>
<svg xmlns="http://www.w3.org/2000/svg" xmlns:xlink="http://www.w3.org/1999/xlink" viewBox="0 0 219.000000 80.000000" width="109.500000mm" height="40.000000mm" version="1.1">
<rect x="1.000000" y="1.000000" width="218.000000" height="79.000000" rx="0" ry="0" style="stroke:none;fill:#cccccc;"/>
<rect x="0.000000" y="0.000000" width="218.000000" height="79.000000" rx="0" ry="0" style="stroke:none;fill:#ffffff;"/>
<text x="10.000000" y="7.000000" font-family="Arial" font-size="7"></text>
<a xlink:href="flute-0x7f8d75897790.svg">
<rect x="25.000000" y="29.000000" width="25.800000" height="24.000000" rx="0" ry="0" style="stroke:none;fill:#cccccc;"/>
<rect x="24.000000" y="28.000000" width="25.800000" height="24.000000" rx="0" ry="0" style="stroke:none;fill:#003366;"/>
</a>
<a xlink:href="flute-0x7f8d75897790.svg">
<text x="36.900000" y="42.000000" font-family="Arial" font-size="7" text-anchor="middle" fill="#FFFFFF">flute</text>
</a>
<circle cx="26.000000" cy="30.000000" r="1"/>
<a xlink:href="echo-0x7f8d750513a0.svg">
<rect x="58.800000" y="29.000000" width="25.800000" height="24.000000" rx="0" ry="0" style="stroke:none;fill:#cccccc;"/>
<rect x="57.800000" y="28.000000" width="25.800000" height="24.000000" rx="0" ry="0" style="stroke:none;fill:#003366;"/>
</a>
<a xlink:href="echo-0x7f8d750513a0.svg">
<text x="70.700000" y="42.000000" font-family="Arial" font-size="7" text-anchor="middle" fill="#FFFFFF">echo</text>
</a>
<circle cx="59.800000" cy="30.000000" r="1"/>
<line x1="54.800000" y1="39.000000" x2="57.800000" y2="40.000000"  transform="rotate(0.000000,57.800000,40.000000)" style="stroke: black; stroke-width:0.25;"/>
<line x1="54.800000" y1="41.000000" x2="57.800000" y2="40.000000"  transform="rotate(0.000000,57.800000,40.000000)" style="stroke: black; stroke-width:0.25;"/>
<a xlink:href="instrReverbFlute-0x7f8d755a73d0.svg">
<rect x="110.600000" y="25.000000" width="77.400000" height="32.000000" rx="0" ry="0" style="stroke:none;fill:#cccccc;"/>
<rect x="109.600000" y="24.000000" width="77.400000" height="32.000000" rx="0" ry="0" style="stroke:none;fill:#003366;"/>
</a>
<a xlink:href="instrReverbFlute-0x7f8d755a73d0.svg">
<text x="148.300000" y="42.000000" font-family="Arial" font-size="7" text-anchor="middle" fill="#FFFFFF">instrReverbFlute</text>
</a>
<circle cx="111.600000" cy="26.000000" r="1"/>
<line x1="106.600000" y1="27.000000" x2="109.600000" y2="28.000000"  transform="rotate(0.000000,109.600000,28.000000)" style="stroke: black; stroke-width:0.25;"/>
<line x1="106.600000" y1="29.000000" x2="109.600000" y2="28.000000"  transform="rotate(0.000000,109.600000,28.000000)" style="stroke: black; stroke-width:0.25;"/>
<line x1="106.600000" y1="35.000000" x2="109.600000" y2="36.000000"  transform="rotate(0.000000,109.600000,36.000000)" style="stroke: black; stroke-width:0.25;"/>
<line x1="106.600000" y1="37.000000" x2="109.600000" y2="36.000000"  transform="rotate(0.000000,109.600000,36.000000)" style="stroke: black; stroke-width:0.25;"/>
<line x1="106.600000" y1="43.000000" x2="109.600000" y2="44.000000"  transform="rotate(0.000000,109.600000,44.000000)" style="stroke: black; stroke-width:0.25;"/>
<line x1="106.600000" y1="45.000000" x2="109.600000" y2="44.000000"  transform="rotate(0.000000,109.600000,44.000000)" style="stroke: black; stroke-width:0.25;"/>
<line x1="106.600000" y1="51.000000" x2="109.600000" y2="52.000000"  transform="rotate(0.000000,109.600000,52.000000)" style="stroke: black; stroke-width:0.25;"/>
<line x1="106.600000" y1="53.000000" x2="109.600000" y2="52.000000"  transform="rotate(0.000000,109.600000,52.000000)" style="stroke: black; stroke-width:0.25;"/>
<line x1="15.000000" y1="15.000000" x2="15.000000" y2="65.000000"  style="stroke: black; stroke-linecap:round; stroke-width:0.25; stroke-dasharray:3,3;"/>
<line x1="15.000000" y1="65.000000" x2="204.000000" y2="65.000000"  style="stroke: black; stroke-linecap:round; stroke-width:0.25; stroke-dasharray:3,3;"/>
<line x1="204.000000" y1="65.000000" x2="204.000000" y2="15.000000"  style="stroke: black; stroke-linecap:round; stroke-width:0.25; stroke-dasharray:3,3;"/>
<line x1="15.000000" y1="15.000000" x2="20.000000" y2="15.000000"  style="stroke: black; stroke-linecap:round; stroke-width:0.25; stroke-dasharray:3,3;"/>
<line x1="49.025000" y1="15.000000" x2="204.000000" y2="15.000000"  style="stroke: black; stroke-linecap:round; stroke-width:0.25; stroke-dasharray:3,3;"/>
<text x="20.000000" y="17.000000" font-family="Arial" font-size="7">process</text>
<line x1="206.000000" y1="35.000000" x2="209.000000" y2="36.000000"  transform="rotate(0.000000,209.000000,36.000000)" style="stroke: black; stroke-width:0.25;"/>
<line x1="206.000000" y1="37.000000" x2="209.000000" y2="36.000000"  transform="rotate(0.000000,209.000000,36.000000)" style="stroke: black; stroke-width:0.25;"/>
<line x1="206.000000" y1="43.000000" x2="209.000000" y2="44.000000"  transform="rotate(0.000000,209.000000,44.000000)" style="stroke: black; stroke-width:0.25;"/>
<line x1="206.000000" y1="45.000000" x2="209.000000" y2="44.000000"  transform="rotate(0.000000,209.000000,44.000000)" style="stroke: black; stroke-width:0.25;"/>
<line x1="49.800000" y1="40.000000" x2="53.800000" y2="40.000000"  style="stroke:black; stroke-linecap:round; stroke-width:0.25;"/>
<line x1="53.800000" y1="40.000000" x2="53.800000" y2="40.000000"  style="stroke:black; stroke-linecap:round; stroke-width:0.25;"/>
<line x1="53.800000" y1="40.000000" x2="57.800000" y2="40.000000"  style="stroke:black; stroke-linecap:round; stroke-width:0.25;"/>
<line x1="83.600000" y1="40.000000" x2="87.600000" y2="40.000000"  style="stroke:black; stroke-linecap:round; stroke-width:0.25;"/>
<line x1="87.600000" y1="40.000000" x2="105.600000" y2="28.000000"  style="stroke:black; stroke-linecap:round; stroke-width:0.25;"/>
<line x1="87.600000" y1="40.000000" x2="105.600000" y2="36.000000"  style="stroke:black; stroke-linecap:round; stroke-width:0.25;"/>
<line x1="87.600000" y1="40.000000" x2="105.600000" y2="44.000000"  style="stroke:black; stroke-linecap:round; stroke-width:0.25;"/>
<line x1="87.600000" y1="40.000000" x2="105.600000" y2="52.000000"  style="stroke:black; stroke-linecap:round; stroke-width:0.25;"/>
<line x1="105.600000" y1="28.000000" x2="109.600000" y2="28.000000"  style="stroke:black; stroke-linecap:round; stroke-width:0.25;"/>
<line x1="105.600000" y1="36.000000" x2="109.600000" y2="36.000000"  style="stroke:black; stroke-linecap:round; stroke-width:0.25;"/>
<line x1="105.600000" y1="44.000000" x2="109.600000" y2="44.000000"  style="stroke:black; stroke-linecap:round; stroke-width:0.25;"/>
<line x1="105.600000" y1="52.000000" x2="109.600000" y2="52.000000"  style="stroke:black; stroke-linecap:round; stroke-width:0.25;"/>
<line x1="187.000000" y1="36.000000" x2="191.000000" y2="36.000000"  style="stroke:black; stroke-linecap:round; stroke-width:0.25;"/>
<line x1="187.000000" y1="44.000000" x2="191.000000" y2="44.000000"  style="stroke:black; stroke-linecap:round; stroke-width:0.25;"/>
<line x1="191.000000" y1="36.000000" x2="191.000000" y2="36.000000"  style="stroke:black; stroke-linecap:round; stroke-width:0.25;"/>
<line x1="191.000000" y1="36.000000" x2="195.000000" y2="36.000000"  style="stroke:black; stroke-linecap:round; stroke-width:0.25;"/>
<line x1="191.000000" y1="44.000000" x2="191.000000" y2="44.000000"  style="stroke:black; stroke-linecap:round; stroke-width:0.25;"/>
<line x1="191.000000" y1="44.000000" x2="195.000000" y2="44.000000"  style="stroke:black; stroke-linecap:round; stroke-width:0.25;"/>
<line x1="195.000000" y1="36.000000" x2="199.000000" y2="36.000000"  style="stroke:black; stroke-linecap:round; stroke-width:0.25;"/>
<line x1="195.000000" y1="44.000000" x2="199.000000" y2="44.000000"  style="stroke:black; stroke-linecap:round; stroke-width:0.25;"/>
<line x1="199.000000" y1="36.000000" x2="209.000000" y2="36.000000"  style="stroke:black; stroke-linecap:round; stroke-width:0.25;"/>
<line x1="199.000000" y1="44.000000" x2="209.000000" y2="44.000000"  style="stroke:black; stroke-linecap:round; stroke-width:0.25;"/>
</svg>
