<?xml version="1.0"?>
<svg xmlns="http://www.w3.org/2000/svg" xmlns:xlink="http://www.w3.org/1999/xlink" viewBox="0 0 393.500000 144.000000" width="196.750000mm" height="72.000000mm" version="1.1">
<a xlink:href="zita-0x7f9063bdd9f0.svg">
<rect x="1.000000" y="1.000000" width="392.500000" height="143.000000" rx="0" ry="0" style="stroke:none;fill:#cccccc;"/>
<rect x="0.000000" y="0.000000" width="392.500000" height="143.000000" rx="0" ry="0" style="stroke:none;fill:#ffffff;"/>
</a>
<text x="10.000000" y="7.000000" font-family="Arial" font-size="7"></text>
<a xlink:href="allpass-0x7f9063b58390.svg">
<rect x="133.350000" y="77.000000" width="77.400000" height="32.000000" rx="0" ry="0" style="stroke:none;fill:#cccccc;"/>
<rect x="132.350000" y="76.000000" width="77.400000" height="32.000000" rx="0" ry="0" style="stroke:none;fill:#003366;"/>
</a>
<a xlink:href="allpass-0x7f9063b58390.svg">
<text x="171.050000" y="94.000000" font-family="Arial" font-size="7" text-anchor="middle" fill="#FFFFFF">allpass_combs(4)</text>
</a>
<circle cx="134.350000" cy="78.000000" r="1"/>
<line x1="129.350000" y1="79.000000" x2="132.350000" y2="80.000000"  transform="rotate(0.000000,132.350000,80.000000)" style="stroke: black; stroke-width:0.25;"/>
<line x1="129.350000" y1="81.000000" x2="132.350000" y2="80.000000"  transform="rotate(0.000000,132.350000,80.000000)" style="stroke: black; stroke-width:0.25;"/>
<line x1="129.350000" y1="87.000000" x2="132.350000" y2="88.000000"  transform="rotate(0.000000,132.350000,88.000000)" style="stroke: black; stroke-width:0.25;"/>
<line x1="129.350000" y1="89.000000" x2="132.350000" y2="88.000000"  transform="rotate(0.000000,132.350000,88.000000)" style="stroke: black; stroke-width:0.25;"/>
<line x1="129.350000" y1="95.000000" x2="132.350000" y2="96.000000"  transform="rotate(0.000000,132.350000,96.000000)" style="stroke: black; stroke-width:0.25;"/>
<line x1="129.350000" y1="97.000000" x2="132.350000" y2="96.000000"  transform="rotate(0.000000,132.350000,96.000000)" style="stroke: black; stroke-width:0.25;"/>
<line x1="129.350000" y1="103.000000" x2="132.350000" y2="104.000000"  transform="rotate(0.000000,132.350000,104.000000)" style="stroke: black; stroke-width:0.25;"/>
<line x1="129.350000" y1="105.000000" x2="132.350000" y2="104.000000"  transform="rotate(0.000000,132.350000,104.000000)" style="stroke: black; stroke-width:0.25;"/>
<a xlink:href="feedbackmatrix-0x7f906399aed0.svg">
<rect x="218.750000" y="77.000000" width="77.400000" height="32.000000" rx="0" ry="0" style="stroke:none;fill:#cccccc;"/>
<rect x="217.750000" y="76.000000" width="77.400000" height="32.000000" rx="0" ry="0" style="stroke:none;fill:#003366;"/>
</a>
<a xlink:href="feedbackmatrix-0x7f906399aed0.svg">
<text x="256.450000" y="94.000000" font-family="Arial" font-size="7" text-anchor="middle" fill="#FFFFFF">feedbackmatrix(4)</text>
</a>
<circle cx="219.750000" cy="78.000000" r="1"/>
<line x1="214.750000" y1="79.000000" x2="217.750000" y2="80.000000"  transform="rotate(0.000000,217.750000,80.000000)" style="stroke: black; stroke-width:0.25;"/>
<line x1="214.750000" y1="81.000000" x2="217.750000" y2="80.000000"  transform="rotate(0.000000,217.750000,80.000000)" style="stroke: black; stroke-width:0.25;"/>
<line x1="214.750000" y1="87.000000" x2="217.750000" y2="88.000000"  transform="rotate(0.000000,217.750000,88.000000)" style="stroke: black; stroke-width:0.25;"/>
<line x1="214.750000" y1="89.000000" x2="217.750000" y2="88.000000"  transform="rotate(0.000000,217.750000,88.000000)" style="stroke: black; stroke-width:0.25;"/>
<line x1="214.750000" y1="95.000000" x2="217.750000" y2="96.000000"  transform="rotate(0.000000,217.750000,96.000000)" style="stroke: black; stroke-width:0.25;"/>
<line x1="214.750000" y1="97.000000" x2="217.750000" y2="96.000000"  transform="rotate(0.000000,217.750000,96.000000)" style="stroke: black; stroke-width:0.25;"/>
<line x1="214.750000" y1="103.000000" x2="217.750000" y2="104.000000"  transform="rotate(0.000000,217.750000,104.000000)" style="stroke: black; stroke-width:0.25;"/>
<line x1="214.750000" y1="105.000000" x2="217.750000" y2="104.000000"  transform="rotate(0.000000,217.750000,104.000000)" style="stroke: black; stroke-width:0.25;"/>
<a xlink:href="delayfilters-0x7f9063bd3020.svg">
<rect x="169.500000" y="25.000000" width="129.000000" height="32.000000" rx="0" ry="0" style="stroke:none;fill:#cccccc;"/>
<rect x="168.500000" y="24.000000" width="129.000000" height="32.000000" rx="0" ry="0" style="stroke:none;fill:#003366;"/>
</a>
<a xlink:href="delayfilters-0x7f9063bd3020.svg">
<text x="233.000000" y="42.000000" font-family="Arial" font-size="7" text-anchor="middle" fill="#FFFFFF">delayfilters(....5f,_ : max))</text>
</a>
<circle cx="295.500000" cy="54.000000" r="1"/>
<line x1="300.500000" y1="51.000000" x2="297.500000" y2="52.000000"  transform="rotate(0.000000,297.500000,52.000000)" style="stroke: black; stroke-width:0.25;"/>
<line x1="300.500000" y1="53.000000" x2="297.500000" y2="52.000000"  transform="rotate(0.000000,297.500000,52.000000)" style="stroke: black; stroke-width:0.25;"/>
<line x1="300.500000" y1="43.000000" x2="297.500000" y2="44.000000"  transform="rotate(0.000000,297.500000,44.000000)" style="stroke: black; stroke-width:0.25;"/>
<line x1="300.500000" y1="45.000000" x2="297.500000" y2="44.000000"  transform="rotate(0.000000,297.500000,44.000000)" style="stroke: black; stroke-width:0.25;"/>
<line x1="300.500000" y1="35.000000" x2="297.500000" y2="36.000000"  transform="rotate(0.000000,297.500000,36.000000)" style="stroke: black; stroke-width:0.25;"/>
<line x1="300.500000" y1="37.000000" x2="297.500000" y2="36.000000"  transform="rotate(0.000000,297.500000,36.000000)" style="stroke: black; stroke-width:0.25;"/>
<line x1="300.500000" y1="27.000000" x2="297.500000" y2="28.000000"  transform="rotate(0.000000,297.500000,28.000000)" style="stroke: black; stroke-width:0.25;"/>
<line x1="300.500000" y1="29.000000" x2="297.500000" y2="28.000000"  transform="rotate(0.000000,297.500000,28.000000)" style="stroke: black; stroke-width:0.25;"/>
<a xlink:href="fbdelaylines-0x7f9063bdd440.svg">
<rect x="97.000000" y="25.000000" width="64.500000" height="32.000000" rx="0" ry="0" style="stroke:none;fill:#cccccc;"/>
<rect x="96.000000" y="24.000000" width="64.500000" height="32.000000" rx="0" ry="0" style="stroke:none;fill:#003366;"/>
</a>
<a xlink:href="fbdelaylines-0x7f9063bdd440.svg">
<text x="128.250000" y="42.000000" font-family="Arial" font-size="7" text-anchor="middle" fill="#FFFFFF">fbdelaylines(4)</text>
</a>
<circle cx="158.500000" cy="54.000000" r="1"/>
<line x1="163.500000" y1="51.000000" x2="160.500000" y2="52.000000"  transform="rotate(0.000000,160.500000,52.000000)" style="stroke: black; stroke-width:0.25;"/>
<line x1="163.500000" y1="53.000000" x2="160.500000" y2="52.000000"  transform="rotate(0.000000,160.500000,52.000000)" style="stroke: black; stroke-width:0.25;"/>
<line x1="163.500000" y1="43.000000" x2="160.500000" y2="44.000000"  transform="rotate(0.000000,160.500000,44.000000)" style="stroke: black; stroke-width:0.25;"/>
<line x1="163.500000" y1="45.000000" x2="160.500000" y2="44.000000"  transform="rotate(0.000000,160.500000,44.000000)" style="stroke: black; stroke-width:0.25;"/>
<line x1="163.500000" y1="35.000000" x2="160.500000" y2="36.000000"  transform="rotate(0.000000,160.500000,36.000000)" style="stroke: black; stroke-width:0.25;"/>
<line x1="163.500000" y1="37.000000" x2="160.500000" y2="36.000000"  transform="rotate(0.000000,160.500000,36.000000)" style="stroke: black; stroke-width:0.25;"/>
<line x1="163.500000" y1="27.000000" x2="160.500000" y2="28.000000"  transform="rotate(0.000000,160.500000,28.000000)" style="stroke: black; stroke-width:0.25;"/>
<line x1="163.500000" y1="29.000000" x2="160.500000" y2="28.000000"  transform="rotate(0.000000,160.500000,28.000000)" style="stroke: black; stroke-width:0.25;"/>
<line x1="299.500000" y1="80.000000" x2="299.500000" y2="76.000000"  style="stroke:black; stroke-linecap:round; stroke-width:0.25;"/>
<line x1="299.500000" y1="76.000000" x2="303.500000" y2="76.000000"  style="stroke:black; stroke-linecap:round; stroke-width:0.25;"/>
<line x1="303.500000" y1="76.000000" x2="303.500000" y2="80.000000"  style="stroke:black; stroke-linecap:round; stroke-width:0.25;"/>
<line x1="307.500000" y1="88.000000" x2="307.500000" y2="84.000000"  style="stroke:black; stroke-linecap:round; stroke-width:0.25;"/>
<line x1="307.500000" y1="84.000000" x2="311.500000" y2="84.000000"  style="stroke:black; stroke-linecap:round; stroke-width:0.25;"/>
<line x1="311.500000" y1="84.000000" x2="311.500000" y2="88.000000"  style="stroke:black; stroke-linecap:round; stroke-width:0.25;"/>
<line x1="315.500000" y1="96.000000" x2="315.500000" y2="92.000000"  style="stroke:black; stroke-linecap:round; stroke-width:0.25;"/>
<line x1="315.500000" y1="92.000000" x2="319.500000" y2="92.000000"  style="stroke:black; stroke-linecap:round; stroke-width:0.25;"/>
<line x1="319.500000" y1="92.000000" x2="319.500000" y2="96.000000"  style="stroke:black; stroke-linecap:round; stroke-width:0.25;"/>
<line x1="323.500000" y1="104.000000" x2="323.500000" y2="100.000000"  style="stroke:black; stroke-linecap:round; stroke-width:0.25;"/>
<line x1="323.500000" y1="100.000000" x2="327.500000" y2="100.000000"  style="stroke:black; stroke-linecap:round; stroke-width:0.25;"/>
<line x1="327.500000" y1="100.000000" x2="327.500000" y2="104.000000"  style="stroke:black; stroke-linecap:round; stroke-width:0.25;"/>
<line x1="15.000000" y1="15.000000" x2="15.000000" y2="129.000000"  style="stroke: black; stroke-linecap:round; stroke-width:0.25; stroke-dasharray:3,3;"/>
<line x1="15.000000" y1="129.000000" x2="378.500000" y2="129.000000"  style="stroke: black; stroke-linecap:round; stroke-width:0.25; stroke-dasharray:3,3;"/>
<line x1="378.500000" y1="129.000000" x2="378.500000" y2="15.000000"  style="stroke: black; stroke-linecap:round; stroke-width:0.25; stroke-dasharray:3,3;"/>
<line x1="15.000000" y1="15.000000" x2="20.000000" y2="15.000000"  style="stroke: black; stroke-linecap:round; stroke-width:0.25; stroke-dasharray:3,3;"/>
<line x1="152.225000" y1="15.000000" x2="378.500000" y2="15.000000"  style="stroke: black; stroke-linecap:round; stroke-width:0.25; stroke-dasharray:3,3;"/>
<text x="20.000000" y="17.000000" font-family="Arial" font-size="7">zita_rev_fdn4...0.5f,_ : max)(4.8e+04f)</text>
<line x1="380.500000" y1="59.000000" x2="383.500000" y2="60.000000"  transform="rotate(0.000000,383.500000,60.000000)" style="stroke: black; stroke-width:0.25;"/>
<line x1="380.500000" y1="61.000000" x2="383.500000" y2="60.000000"  transform="rotate(0.000000,383.500000,60.000000)" style="stroke: black; stroke-width:0.25;"/>
<line x1="380.500000" y1="67.000000" x2="383.500000" y2="68.000000"  transform="rotate(0.000000,383.500000,68.000000)" style="stroke: black; stroke-width:0.25;"/>
<line x1="380.500000" y1="69.000000" x2="383.500000" y2="68.000000"  transform="rotate(0.000000,383.500000,68.000000)" style="stroke: black; stroke-width:0.25;"/>
<line x1="380.500000" y1="75.000000" x2="383.500000" y2="76.000000"  transform="rotate(0.000000,383.500000,76.000000)" style="stroke: black; stroke-width:0.25;"/>
<line x1="380.500000" y1="77.000000" x2="383.500000" y2="76.000000"  transform="rotate(0.000000,383.500000,76.000000)" style="stroke: black; stroke-width:0.25;"/>
<line x1="380.500000" y1="83.000000" x2="383.500000" y2="84.000000"  transform="rotate(0.000000,383.500000,84.000000)" style="stroke: black; stroke-width:0.25;"/>
<line x1="380.500000" y1="85.000000" x2="383.500000" y2="84.000000"  transform="rotate(0.000000,383.500000,84.000000)" style="stroke: black; stroke-width:0.25;"/>
<line x1="10.000000" y1="60.000000" x2="20.000000" y2="60.000000"  style="stroke:black; stroke-linecap:round; stroke-width:0.25;"/>
<line x1="10.000000" y1="68.000000" x2="20.000000" y2="68.000000"  style="stroke:black; stroke-linecap:round; stroke-width:0.25;"/>
<line x1="10.000000" y1="76.000000" x2="20.000000" y2="76.000000"  style="stroke:black; stroke-linecap:round; stroke-width:0.25;"/>
<line x1="10.000000" y1="84.000000" x2="20.000000" y2="84.000000"  style="stroke:black; stroke-linecap:round; stroke-width:0.25;"/>
<line x1="20.000000" y1="60.000000" x2="24.000000" y2="60.000000"  style="stroke:black; stroke-linecap:round; stroke-width:0.25;"/>
<line x1="20.000000" y1="68.000000" x2="24.000000" y2="68.000000"  style="stroke:black; stroke-linecap:round; stroke-width:0.25;"/>
<line x1="20.000000" y1="76.000000" x2="24.000000" y2="76.000000"  style="stroke:black; stroke-linecap:round; stroke-width:0.25;"/>
<line x1="20.000000" y1="84.000000" x2="24.000000" y2="84.000000"  style="stroke:black; stroke-linecap:round; stroke-width:0.25;"/>
<line x1="24.000000" y1="60.000000" x2="28.000000" y2="60.000000"  style="stroke:black; stroke-linecap:round; stroke-width:0.25;"/>
<line x1="24.000000" y1="68.000000" x2="28.000000" y2="68.000000"  style="stroke:black; stroke-linecap:round; stroke-width:0.25;"/>
<line x1="24.000000" y1="76.000000" x2="28.000000" y2="76.000000"  style="stroke:black; stroke-linecap:round; stroke-width:0.25;"/>
<line x1="24.000000" y1="84.000000" x2="28.000000" y2="84.000000"  style="stroke:black; stroke-linecap:round; stroke-width:0.25;"/>
<line x1="28.000000" y1="60.000000" x2="60.000000" y2="60.000000"  style="stroke:black; stroke-linecap:round; stroke-width:0.25;"/>
<line x1="28.000000" y1="68.000000" x2="52.000000" y2="68.000000"  style="stroke:black; stroke-linecap:round; stroke-width:0.25;"/>
<line x1="28.000000" y1="76.000000" x2="44.000000" y2="76.000000"  style="stroke:black; stroke-linecap:round; stroke-width:0.25;"/>
<line x1="28.000000" y1="84.000000" x2="36.000000" y2="84.000000"  style="stroke:black; stroke-linecap:round; stroke-width:0.25;"/>
<line x1="36.000000" y1="84.000000" x2="36.000000" y2="120.000000"  style="stroke:black; stroke-linecap:round; stroke-width:0.25;"/>
<line x1="36.000000" y1="120.000000" x2="60.000000" y2="120.000000"  style="stroke:black; stroke-linecap:round; stroke-width:0.25;"/>
<line x1="44.000000" y1="76.000000" x2="44.000000" y2="112.000000"  style="stroke:black; stroke-linecap:round; stroke-width:0.25;"/>
<line x1="44.000000" y1="112.000000" x2="60.000000" y2="112.000000"  style="stroke:black; stroke-linecap:round; stroke-width:0.25;"/>
<line x1="52.000000" y1="68.000000" x2="52.000000" y2="104.000000"  style="stroke:black; stroke-linecap:round; stroke-width:0.25;"/>
<line x1="52.000000" y1="104.000000" x2="60.000000" y2="104.000000"  style="stroke:black; stroke-linecap:round; stroke-width:0.25;"/>
<line x1="60.000000" y1="60.000000" x2="60.000000" y2="96.000000"  style="stroke:black; stroke-linecap:round; stroke-width:0.25;"/>
<line x1="60.000000" y1="96.000000" x2="60.000000" y2="96.000000"  style="stroke:black; stroke-linecap:round; stroke-width:0.25;"/>
<line x1="60.000000" y1="96.000000" x2="92.000000" y2="96.000000"  style="stroke:black; stroke-linecap:round; stroke-width:0.25;"/>
<line x1="60.000000" y1="104.000000" x2="92.000000" y2="104.000000"  style="stroke:black; stroke-linecap:round; stroke-width:0.25;"/>
<line x1="60.000000" y1="112.000000" x2="92.000000" y2="112.000000"  style="stroke:black; stroke-linecap:round; stroke-width:0.25;"/>
<line x1="60.000000" y1="120.000000" x2="92.000000" y2="120.000000"  style="stroke:black; stroke-linecap:round; stroke-width:0.25;"/>
<line x1="68.000000" y1="28.000000" x2="68.000000" y2="88.000000"  style="stroke:black; stroke-linecap:round; stroke-width:0.25;"/>
<line x1="68.000000" y1="88.000000" x2="92.000000" y2="88.000000"  style="stroke:black; stroke-linecap:round; stroke-width:0.25;"/>
<line x1="76.000000" y1="36.000000" x2="76.000000" y2="80.000000"  style="stroke:black; stroke-linecap:round; stroke-width:0.25;"/>
<line x1="76.000000" y1="80.000000" x2="92.000000" y2="80.000000"  style="stroke:black; stroke-linecap:round; stroke-width:0.25;"/>
<line x1="84.000000" y1="44.000000" x2="84.000000" y2="72.000000"  style="stroke:black; stroke-linecap:round; stroke-width:0.25;"/>
<line x1="84.000000" y1="72.000000" x2="92.000000" y2="72.000000"  style="stroke:black; stroke-linecap:round; stroke-width:0.25;"/>
<line x1="92.000000" y1="28.000000" x2="68.000000" y2="28.000000"  style="stroke:black; stroke-linecap:round; stroke-width:0.25;"/>
<line x1="92.000000" y1="36.000000" x2="76.000000" y2="36.000000"  style="stroke:black; stroke-linecap:round; stroke-width:0.25;"/>
<line x1="92.000000" y1="44.000000" x2="84.000000" y2="44.000000"  style="stroke:black; stroke-linecap:round; stroke-width:0.25;"/>
<line x1="92.000000" y1="52.000000" x2="92.000000" y2="52.000000"  style="stroke:black; stroke-linecap:round; stroke-width:0.25;"/>
<line x1="92.000000" y1="52.000000" x2="92.000000" y2="64.000000"  style="stroke:black; stroke-linecap:round; stroke-width:0.25;"/>
<line x1="92.000000" y1="64.000000" x2="92.000000" y2="64.000000"  style="stroke:black; stroke-linecap:round; stroke-width:0.25;"/>
<line x1="92.000000" y1="64.000000" x2="94.350000" y2="64.000000"  style="stroke:black; stroke-linecap:round; stroke-width:0.25;"/>
<line x1="92.000000" y1="72.000000" x2="94.350000" y2="72.000000"  style="stroke:black; stroke-linecap:round; stroke-width:0.25;"/>
<line x1="92.000000" y1="80.000000" x2="94.350000" y2="80.000000"  style="stroke:black; stroke-linecap:round; stroke-width:0.25;"/>
<line x1="92.000000" y1="88.000000" x2="94.350000" y2="88.000000"  style="stroke:black; stroke-linecap:round; stroke-width:0.25;"/>
<line x1="92.000000" y1="96.000000" x2="94.350000" y2="96.000000"  style="stroke:black; stroke-linecap:round; stroke-width:0.25;"/>
<line x1="92.000000" y1="104.000000" x2="94.350000" y2="104.000000"  style="stroke:black; stroke-linecap:round; stroke-width:0.25;"/>
<line x1="92.000000" y1="112.000000" x2="94.350000" y2="112.000000"  style="stroke:black; stroke-linecap:round; stroke-width:0.25;"/>
<line x1="92.000000" y1="120.000000" x2="94.350000" y2="120.000000"  style="stroke:black; stroke-linecap:round; stroke-width:0.25;"/>
<line x1="94.350000" y1="64.000000" x2="98.350000" y2="64.000000"  style="stroke:black; stroke-linecap:round; stroke-width:0.25;"/>
<line x1="94.350000" y1="72.000000" x2="98.350000" y2="72.000000"  style="stroke:black; stroke-linecap:round; stroke-width:0.25;"/>
<line x1="94.350000" y1="80.000000" x2="98.350000" y2="80.000000"  style="stroke:black; stroke-linecap:round; stroke-width:0.25;"/>
<line x1="94.350000" y1="88.000000" x2="98.350000" y2="88.000000"  style="stroke:black; stroke-linecap:round; stroke-width:0.25;"/>
<line x1="94.350000" y1="96.000000" x2="98.350000" y2="96.000000"  style="stroke:black; stroke-linecap:round; stroke-width:0.25;"/>
<line x1="94.350000" y1="104.000000" x2="98.350000" y2="104.000000"  style="stroke:black; stroke-linecap:round; stroke-width:0.25;"/>
<line x1="94.350000" y1="112.000000" x2="98.350000" y2="112.000000"  style="stroke:black; stroke-linecap:round; stroke-width:0.25;"/>
<line x1="94.350000" y1="120.000000" x2="98.350000" y2="120.000000"  style="stroke:black; stroke-linecap:round; stroke-width:0.25;"/>
<line x1="96.000000" y1="28.000000" x2="92.000000" y2="28.000000"  style="stroke:black; stroke-linecap:round; stroke-width:0.25;"/>
<line x1="96.000000" y1="36.000000" x2="92.000000" y2="36.000000"  style="stroke:black; stroke-linecap:round; stroke-width:0.25;"/>
<line x1="96.000000" y1="44.000000" x2="92.000000" y2="44.000000"  style="stroke:black; stroke-linecap:round; stroke-width:0.25;"/>
<line x1="96.000000" y1="52.000000" x2="92.000000" y2="52.000000"  style="stroke:black; stroke-linecap:round; stroke-width:0.25;"/>
<line x1="98.350000" y1="64.000000" x2="102.350000" y2="64.000000"  style="stroke:black; stroke-linecap:round; stroke-width:0.25;"/>
<line x1="98.350000" y1="72.000000" x2="102.350000" y2="72.000000"  style="stroke:black; stroke-linecap:round; stroke-width:0.25;"/>
<line x1="98.350000" y1="80.000000" x2="102.350000" y2="80.000000"  style="stroke:black; stroke-linecap:round; stroke-width:0.25;"/>
<line x1="98.350000" y1="88.000000" x2="102.350000" y2="88.000000"  style="stroke:black; stroke-linecap:round; stroke-width:0.25;"/>
<line x1="98.350000" y1="96.000000" x2="102.350000" y2="96.000000"  style="stroke:black; stroke-linecap:round; stroke-width:0.25;"/>
<line x1="98.350000" y1="104.000000" x2="102.350000" y2="104.000000"  style="stroke:black; stroke-linecap:round; stroke-width:0.25;"/>
<line x1="98.350000" y1="112.000000" x2="102.350000" y2="112.000000"  style="stroke:black; stroke-linecap:round; stroke-width:0.25;"/>
<line x1="98.350000" y1="120.000000" x2="102.350000" y2="120.000000"  style="stroke:black; stroke-linecap:round; stroke-width:0.25;"/>
<line x1="102.350000" y1="64.000000" x2="128.350000" y2="80.000000"  style="stroke:black; stroke-linecap:round; stroke-width:0.25;"/>
<line x1="102.350000" y1="72.000000" x2="128.350000" y2="88.000000"  style="stroke:black; stroke-linecap:round; stroke-width:0.25;"/>
<line x1="102.350000" y1="80.000000" x2="128.350000" y2="96.000000"  style="stroke:black; stroke-linecap:round; stroke-width:0.25;"/>
<line x1="102.350000" y1="88.000000" x2="128.350000" y2="104.000000"  style="stroke:black; stroke-linecap:round; stroke-width:0.25;"/>
<line x1="102.350000" y1="96.000000" x2="128.350000" y2="80.000000"  style="stroke:black; stroke-linecap:round; stroke-width:0.25;"/>
<line x1="102.350000" y1="104.000000" x2="128.350000" y2="88.000000"  style="stroke:black; stroke-linecap:round; stroke-width:0.25;"/>
<line x1="102.350000" y1="112.000000" x2="128.350000" y2="96.000000"  style="stroke:black; stroke-linecap:round; stroke-width:0.25;"/>
<line x1="102.350000" y1="120.000000" x2="128.350000" y2="104.000000"  style="stroke:black; stroke-linecap:round; stroke-width:0.25;"/>
<line x1="128.350000" y1="80.000000" x2="132.350000" y2="80.000000"  style="stroke:black; stroke-linecap:round; stroke-width:0.25;"/>
<line x1="128.350000" y1="88.000000" x2="132.350000" y2="88.000000"  style="stroke:black; stroke-linecap:round; stroke-width:0.25;"/>
<line x1="128.350000" y1="96.000000" x2="132.350000" y2="96.000000"  style="stroke:black; stroke-linecap:round; stroke-width:0.25;"/>
<line x1="128.350000" y1="104.000000" x2="132.350000" y2="104.000000"  style="stroke:black; stroke-linecap:round; stroke-width:0.25;"/>
<line x1="164.500000" y1="28.000000" x2="160.500000" y2="28.000000"  style="stroke:black; stroke-linecap:round; stroke-width:0.25;"/>
<line x1="164.500000" y1="28.000000" x2="164.500000" y2="28.000000"  style="stroke:black; stroke-linecap:round; stroke-width:0.25;"/>
<line x1="164.500000" y1="36.000000" x2="160.500000" y2="36.000000"  style="stroke:black; stroke-linecap:round; stroke-width:0.25;"/>
<line x1="164.500000" y1="36.000000" x2="164.500000" y2="36.000000"  style="stroke:black; stroke-linecap:round; stroke-width:0.25;"/>
<line x1="164.500000" y1="44.000000" x2="160.500000" y2="44.000000"  style="stroke:black; stroke-linecap:round; stroke-width:0.25;"/>
<line x1="164.500000" y1="44.000000" x2="164.500000" y2="44.000000"  style="stroke:black; stroke-linecap:round; stroke-width:0.25;"/>
<line x1="164.500000" y1="52.000000" x2="160.500000" y2="52.000000"  style="stroke:black; stroke-linecap:round; stroke-width:0.25;"/>
<line x1="164.500000" y1="52.000000" x2="164.500000" y2="52.000000"  style="stroke:black; stroke-linecap:round; stroke-width:0.25;"/>
<line x1="168.500000" y1="28.000000" x2="164.500000" y2="28.000000"  style="stroke:black; stroke-linecap:round; stroke-width:0.25;"/>
<line x1="168.500000" y1="36.000000" x2="164.500000" y2="36.000000"  style="stroke:black; stroke-linecap:round; stroke-width:0.25;"/>
<line x1="168.500000" y1="44.000000" x2="164.500000" y2="44.000000"  style="stroke:black; stroke-linecap:round; stroke-width:0.25;"/>
<line x1="168.500000" y1="52.000000" x2="164.500000" y2="52.000000"  style="stroke:black; stroke-linecap:round; stroke-width:0.25;"/>
<line x1="209.750000" y1="80.000000" x2="213.750000" y2="80.000000"  style="stroke:black; stroke-linecap:round; stroke-width:0.25;"/>
<line x1="209.750000" y1="88.000000" x2="213.750000" y2="88.000000"  style="stroke:black; stroke-linecap:round; stroke-width:0.25;"/>
<line x1="209.750000" y1="96.000000" x2="213.750000" y2="96.000000"  style="stroke:black; stroke-linecap:round; stroke-width:0.25;"/>
<line x1="209.750000" y1="104.000000" x2="213.750000" y2="104.000000"  style="stroke:black; stroke-linecap:round; stroke-width:0.25;"/>
<line x1="213.750000" y1="80.000000" x2="213.750000" y2="80.000000"  style="stroke:black; stroke-linecap:round; stroke-width:0.25;"/>
<line x1="213.750000" y1="80.000000" x2="217.750000" y2="80.000000"  style="stroke:black; stroke-linecap:round; stroke-width:0.25;"/>
<line x1="213.750000" y1="88.000000" x2="213.750000" y2="88.000000"  style="stroke:black; stroke-linecap:round; stroke-width:0.25;"/>
<line x1="213.750000" y1="88.000000" x2="217.750000" y2="88.000000"  style="stroke:black; stroke-linecap:round; stroke-width:0.25;"/>
<line x1="213.750000" y1="96.000000" x2="213.750000" y2="96.000000"  style="stroke:black; stroke-linecap:round; stroke-width:0.25;"/>
<line x1="213.750000" y1="96.000000" x2="217.750000" y2="96.000000"  style="stroke:black; stroke-linecap:round; stroke-width:0.25;"/>
<line x1="213.750000" y1="104.000000" x2="213.750000" y2="104.000000"  style="stroke:black; stroke-linecap:round; stroke-width:0.25;"/>
<line x1="213.750000" y1="104.000000" x2="217.750000" y2="104.000000"  style="stroke:black; stroke-linecap:round; stroke-width:0.25;"/>
<line x1="295.150000" y1="80.000000" x2="299.150000" y2="80.000000"  style="stroke:black; stroke-linecap:round; stroke-width:0.25;"/>
<line x1="295.150000" y1="88.000000" x2="299.150000" y2="88.000000"  style="stroke:black; stroke-linecap:round; stroke-width:0.25;"/>
<line x1="295.150000" y1="96.000000" x2="299.150000" y2="96.000000"  style="stroke:black; stroke-linecap:round; stroke-width:0.25;"/>
<line x1="295.150000" y1="104.000000" x2="299.150000" y2="104.000000"  style="stroke:black; stroke-linecap:round; stroke-width:0.25;"/>
<line x1="299.150000" y1="80.000000" x2="301.500000" y2="80.000000"  style="stroke:black; stroke-linecap:round; stroke-width:0.25;"/>
<line x1="299.150000" y1="88.000000" x2="301.500000" y2="88.000000"  style="stroke:black; stroke-linecap:round; stroke-width:0.25;"/>
<line x1="299.150000" y1="96.000000" x2="301.500000" y2="96.000000"  style="stroke:black; stroke-linecap:round; stroke-width:0.25;"/>
<line x1="299.150000" y1="104.000000" x2="301.500000" y2="104.000000"  style="stroke:black; stroke-linecap:round; stroke-width:0.25;"/>
<line x1="301.500000" y1="28.000000" x2="297.500000" y2="28.000000"  style="stroke:black; stroke-linecap:round; stroke-width:0.25;"/>
<line x1="301.500000" y1="36.000000" x2="297.500000" y2="36.000000"  style="stroke:black; stroke-linecap:round; stroke-width:0.25;"/>
<line x1="301.500000" y1="44.000000" x2="297.500000" y2="44.000000"  style="stroke:black; stroke-linecap:round; stroke-width:0.25;"/>
<line x1="301.500000" y1="52.000000" x2="297.500000" y2="52.000000"  style="stroke:black; stroke-linecap:round; stroke-width:0.25;"/>
<line x1="301.500000" y1="52.000000" x2="301.500000" y2="52.000000"  style="stroke:black; stroke-linecap:round; stroke-width:0.25;"/>
<line x1="301.500000" y1="76.000000" x2="301.500000" y2="52.000000"  style="stroke:black; stroke-linecap:round; stroke-width:0.25;"/>
<line x1="301.500000" y1="80.000000" x2="303.500000" y2="80.000000"  style="stroke:black; stroke-linecap:round; stroke-width:0.25;"/>
<line x1="301.500000" y1="88.000000" x2="311.500000" y2="88.000000"  style="stroke:black; stroke-linecap:round; stroke-width:0.25;"/>
<line x1="301.500000" y1="96.000000" x2="319.500000" y2="96.000000"  style="stroke:black; stroke-linecap:round; stroke-width:0.25;"/>
<line x1="301.500000" y1="104.000000" x2="327.500000" y2="104.000000"  style="stroke:black; stroke-linecap:round; stroke-width:0.25;"/>
<line x1="303.500000" y1="80.000000" x2="333.500000" y2="80.000000"  style="stroke:black; stroke-linecap:round; stroke-width:0.25;"/>
<line x1="309.500000" y1="44.000000" x2="301.500000" y2="44.000000"  style="stroke:black; stroke-linecap:round; stroke-width:0.25;"/>
<line x1="309.500000" y1="84.000000" x2="309.500000" y2="44.000000"  style="stroke:black; stroke-linecap:round; stroke-width:0.25;"/>
<line x1="311.500000" y1="88.000000" x2="333.500000" y2="88.000000"  style="stroke:black; stroke-linecap:round; stroke-width:0.25;"/>
<line x1="317.500000" y1="36.000000" x2="301.500000" y2="36.000000"  style="stroke:black; stroke-linecap:round; stroke-width:0.25;"/>
<line x1="317.500000" y1="92.000000" x2="317.500000" y2="36.000000"  style="stroke:black; stroke-linecap:round; stroke-width:0.25;"/>
<line x1="319.500000" y1="96.000000" x2="333.500000" y2="96.000000"  style="stroke:black; stroke-linecap:round; stroke-width:0.25;"/>
<line x1="325.500000" y1="28.000000" x2="301.500000" y2="28.000000"  style="stroke:black; stroke-linecap:round; stroke-width:0.25;"/>
<line x1="325.500000" y1="100.000000" x2="325.500000" y2="28.000000"  style="stroke:black; stroke-linecap:round; stroke-width:0.25;"/>
<line x1="327.500000" y1="104.000000" x2="333.500000" y2="104.000000"  style="stroke:black; stroke-linecap:round; stroke-width:0.25;"/>
<line x1="333.500000" y1="60.000000" x2="365.500000" y2="60.000000"  style="stroke:black; stroke-linecap:round; stroke-width:0.25;"/>
<line x1="333.500000" y1="80.000000" x2="333.500000" y2="60.000000"  style="stroke:black; stroke-linecap:round; stroke-width:0.25;"/>
<line x1="333.500000" y1="80.000000" x2="333.500000" y2="80.000000"  style="stroke:black; stroke-linecap:round; stroke-width:0.25;"/>
<line x1="333.500000" y1="88.000000" x2="341.500000" y2="88.000000"  style="stroke:black; stroke-linecap:round; stroke-width:0.25;"/>
<line x1="333.500000" y1="96.000000" x2="349.500000" y2="96.000000"  style="stroke:black; stroke-linecap:round; stroke-width:0.25;"/>
<line x1="333.500000" y1="104.000000" x2="357.500000" y2="104.000000"  style="stroke:black; stroke-linecap:round; stroke-width:0.25;"/>
<line x1="341.500000" y1="68.000000" x2="365.500000" y2="68.000000"  style="stroke:black; stroke-linecap:round; stroke-width:0.25;"/>
<line x1="341.500000" y1="88.000000" x2="341.500000" y2="68.000000"  style="stroke:black; stroke-linecap:round; stroke-width:0.25;"/>
<line x1="349.500000" y1="76.000000" x2="365.500000" y2="76.000000"  style="stroke:black; stroke-linecap:round; stroke-width:0.25;"/>
<line x1="349.500000" y1="96.000000" x2="349.500000" y2="76.000000"  style="stroke:black; stroke-linecap:round; stroke-width:0.25;"/>
<line x1="357.500000" y1="84.000000" x2="365.500000" y2="84.000000"  style="stroke:black; stroke-linecap:round; stroke-width:0.25;"/>
<line x1="357.500000" y1="104.000000" x2="357.500000" y2="84.000000"  style="stroke:black; stroke-linecap:round; stroke-width:0.25;"/>
<line x1="365.500000" y1="60.000000" x2="369.500000" y2="60.000000"  style="stroke:black; stroke-linecap:round; stroke-width:0.25;"/>
<line x1="365.500000" y1="68.000000" x2="369.500000" y2="68.000000"  style="stroke:black; stroke-linecap:round; stroke-width:0.25;"/>
<line x1="365.500000" y1="76.000000" x2="369.500000" y2="76.000000"  style="stroke:black; stroke-linecap:round; stroke-width:0.25;"/>
<line x1="365.500000" y1="84.000000" x2="369.500000" y2="84.000000"  style="stroke:black; stroke-linecap:round; stroke-width:0.25;"/>
<line x1="369.500000" y1="60.000000" x2="373.500000" y2="60.000000"  style="stroke:black; stroke-linecap:round; stroke-width:0.25;"/>
<line x1="369.500000" y1="68.000000" x2="373.500000" y2="68.000000"  style="stroke:black; stroke-linecap:round; stroke-width:0.25;"/>
<line x1="369.500000" y1="76.000000" x2="373.500000" y2="76.000000"  style="stroke:black; stroke-linecap:round; stroke-width:0.25;"/>
<line x1="369.500000" y1="84.000000" x2="373.500000" y2="84.000000"  style="stroke:black; stroke-linecap:round; stroke-width:0.25;"/>
<line x1="373.500000" y1="60.000000" x2="383.500000" y2="60.000000"  style="stroke:black; stroke-linecap:round; stroke-width:0.25;"/>
<line x1="373.500000" y1="68.000000" x2="383.500000" y2="68.000000"  style="stroke:black; stroke-linecap:round; stroke-width:0.25;"/>
<line x1="373.500000" y1="76.000000" x2="383.500000" y2="76.000000"  style="stroke:black; stroke-linecap:round; stroke-width:0.25;"/>
<line x1="373.500000" y1="84.000000" x2="383.500000" y2="84.000000"  style="stroke:black; stroke-linecap:round; stroke-width:0.25;"/>
</svg>
