<?xml version="1.0"?>
<svg xmlns="http://www.w3.org/2000/svg" xmlns:xlink="http://www.w3.org/1999/xlink" viewBox="0 0 260.500000 252.000000" width="130.250000mm" height="126.000000mm" version="1.1">
<a xlink:href="hand-0x7fd863223ea0.svg">
<rect x="1.000000" y="1.000000" width="259.500000" height="251.000000" rx="0" ry="0" style="stroke:none;fill:#cccccc;"/>
<rect x="0.000000" y="0.000000" width="259.500000" height="251.000000" rx="0" ry="0" style="stroke:none;fill:#ffffff;"/>
</a>
<text x="10.000000" y="7.000000" font-family="Arial" font-size="7"></text>
<rect x="33.000000" y="115.000000" width="25.800000" height="24.000000" rx="0" ry="0" style="stroke:none;fill:#cccccc;"/>
<rect x="32.000000" y="114.000000" width="25.800000" height="24.000000" rx="0" ry="0" style="stroke:none;fill:#47945E;"/>
<text x="44.900000" y="128.000000" font-family="Arial" font-size="7" text-anchor="middle" fill="#FFFFFF">input</text>
<circle cx="34.000000" cy="116.000000" r="1"/>
<line x1="29.000000" y1="125.000000" x2="32.000000" y2="126.000000"  transform="rotate(0.000000,32.000000,126.000000)" style="stroke: black; stroke-width:0.25;"/>
<line x1="29.000000" y1="127.000000" x2="32.000000" y2="126.000000"  transform="rotate(0.000000,32.000000,126.000000)" style="stroke: black; stroke-width:0.25;"/>
<rect x="76.800000" y="25.000000" width="24.000000" height="24.000000" rx="0" ry="0" style="stroke:none;fill:#cccccc;"/>
<rect x="75.800000" y="24.000000" width="24.000000" height="24.000000" rx="0" ry="0" style="stroke:none;fill:#f44800;"/>
<text x="87.800000" y="38.000000" font-family="Arial" font-size="7" text-anchor="middle" fill="#FFFFFF">15</text>
<circle cx="77.800000" cy="26.000000" r="1"/>
<rect x="76.800000" y="67.000000" width="24.000000" height="24.000000" rx="0" ry="0" style="stroke:none;fill:#cccccc;"/>
<rect x="75.800000" y="66.000000" width="24.000000" height="24.000000" rx="0" ry="0" style="stroke:none;fill:#f44800;"/>
<text x="87.800000" y="80.000000" font-family="Arial" font-size="7" text-anchor="middle" fill="#FFFFFF">1</text>
<circle cx="77.800000" cy="68.000000" r="1"/>
<line x1="66.800000" y1="57.000000" x2="66.800000" y2="99.000000"  style="stroke: black; stroke-linecap:round; stroke-width:0.25; stroke-dasharray:3,3;"/>
<line x1="66.800000" y1="99.000000" x2="108.800000" y2="99.000000"  style="stroke: black; stroke-linecap:round; stroke-width:0.25; stroke-dasharray:3,3;"/>
<line x1="108.800000" y1="99.000000" x2="108.800000" y2="57.000000"  style="stroke: black; stroke-linecap:round; stroke-width:0.25; stroke-dasharray:3,3;"/>
<line x1="66.800000" y1="57.000000" x2="71.800000" y2="57.000000"  style="stroke: black; stroke-linecap:round; stroke-width:0.25; stroke-dasharray:3,3;"/>
<line x1="91.150000" y1="57.000000" x2="108.800000" y2="57.000000"  style="stroke: black; stroke-linecap:round; stroke-width:0.25; stroke-dasharray:3,3;"/>
<text x="71.800000" y="59.000000" font-family="Arial" font-size="7">gain</text>
<rect x="126.800000" y="51.000000" width="24.000000" height="24.000000" rx="0" ry="0" style="stroke:none;fill:#cccccc;"/>
<rect x="125.800000" y="50.000000" width="24.000000" height="24.000000" rx="0" ry="0" style="stroke:none;fill:#4B71A1;"/>
<text x="137.800000" y="64.000000" font-family="Arial" font-size="7" text-anchor="middle" fill="#FFFFFF">+</text>
<circle cx="127.800000" cy="52.000000" r="1"/>
<line x1="122.800000" y1="57.000000" x2="125.800000" y2="58.000000"  transform="rotate(0.000000,125.800000,58.000000)" style="stroke: black; stroke-width:0.25;"/>
<line x1="122.800000" y1="59.000000" x2="125.800000" y2="58.000000"  transform="rotate(0.000000,125.800000,58.000000)" style="stroke: black; stroke-width:0.25;"/>
<line x1="122.800000" y1="65.000000" x2="125.800000" y2="66.000000"  transform="rotate(0.000000,125.800000,66.000000)" style="stroke: black; stroke-width:0.25;"/>
<line x1="122.800000" y1="67.000000" x2="125.800000" y2="66.000000"  transform="rotate(0.000000,125.800000,66.000000)" style="stroke: black; stroke-width:0.25;"/>
<rect x="96.800000" y="109.000000" width="24.000000" height="24.000000" rx="0" ry="0" style="stroke:none;fill:#cccccc;"/>
<rect x="95.800000" y="108.000000" width="24.000000" height="24.000000" rx="0" ry="0" style="stroke:none;fill:#f44800;"/>
<text x="107.800000" y="122.000000" font-family="Arial" font-size="7" text-anchor="middle" fill="#FFFFFF">0</text>
<circle cx="97.800000" cy="110.000000" r="1"/>
<a xlink:href="windex-0x7fd863119060.svg">
<rect x="95.900000" y="141.000000" width="25.800000" height="24.000000" rx="0" ry="0" style="stroke:none;fill:#cccccc;"/>
<rect x="94.900000" y="140.000000" width="25.800000" height="24.000000" rx="0" ry="0" style="stroke:none;fill:#003366;"/>
</a>
<a xlink:href="windex-0x7fd863119060.svg">
<text x="107.800000" y="154.000000" font-family="Arial" font-size="7" text-anchor="middle" fill="#FFFFFF">windex</text>
</a>
<circle cx="96.900000" cy="142.000000" r="1"/>
<rect x="95.900000" y="173.000000" width="25.800000" height="24.000000" rx="0" ry="0" style="stroke:none;fill:#cccccc;"/>
<rect x="94.900000" y="172.000000" width="25.800000" height="24.000000" rx="0" ry="0" style="stroke:none;fill:#47945E;"/>
<text x="107.800000" y="186.000000" font-family="Arial" font-size="7" text-anchor="middle" fill="#FFFFFF">input</text>
<circle cx="96.900000" cy="174.000000" r="1"/>
<a xlink:href="rindex-0x7fd86305c470.svg">
<rect x="95.900000" y="205.000000" width="25.800000" height="24.000000" rx="0" ry="0" style="stroke:none;fill:#cccccc;"/>
<rect x="94.900000" y="204.000000" width="25.800000" height="24.000000" rx="0" ry="0" style="stroke:none;fill:#003366;"/>
</a>
<a xlink:href="rindex-0x7fd86305c470.svg">
<text x="107.800000" y="218.000000" font-family="Arial" font-size="7" text-anchor="middle" fill="#FFFFFF">rindex</text>
</a>
<circle cx="96.900000" cy="206.000000" r="1"/>
<rect x="190.800000" y="107.000000" width="38.700000" height="40.000000" rx="0" ry="0" style="stroke:none;fill:#cccccc;"/>
<rect x="189.800000" y="106.000000" width="38.700000" height="40.000000" rx="0" ry="0" style="stroke:none;fill:#4B71A1;"/>
<text x="209.150000" y="128.000000" font-family="Arial" font-size="7" text-anchor="middle" fill="#FFFFFF">rwtable</text>
<circle cx="191.800000" cy="108.000000" r="1"/>
<line x1="186.800000" y1="109.000000" x2="189.800000" y2="110.000000"  transform="rotate(0.000000,189.800000,110.000000)" style="stroke: black; stroke-width:0.25;"/>
<line x1="186.800000" y1="111.000000" x2="189.800000" y2="110.000000"  transform="rotate(0.000000,189.800000,110.000000)" style="stroke: black; stroke-width:0.25;"/>
<line x1="186.800000" y1="117.000000" x2="189.800000" y2="118.000000"  transform="rotate(0.000000,189.800000,118.000000)" style="stroke: black; stroke-width:0.25;"/>
<line x1="186.800000" y1="119.000000" x2="189.800000" y2="118.000000"  transform="rotate(0.000000,189.800000,118.000000)" style="stroke: black; stroke-width:0.25;"/>
<line x1="186.800000" y1="125.000000" x2="189.800000" y2="126.000000"  transform="rotate(0.000000,189.800000,126.000000)" style="stroke: black; stroke-width:0.25;"/>
<line x1="186.800000" y1="127.000000" x2="189.800000" y2="126.000000"  transform="rotate(0.000000,189.800000,126.000000)" style="stroke: black; stroke-width:0.25;"/>
<line x1="186.800000" y1="133.000000" x2="189.800000" y2="134.000000"  transform="rotate(0.000000,189.800000,134.000000)" style="stroke: black; stroke-width:0.25;"/>
<line x1="186.800000" y1="135.000000" x2="189.800000" y2="134.000000"  transform="rotate(0.000000,189.800000,134.000000)" style="stroke: black; stroke-width:0.25;"/>
<line x1="186.800000" y1="141.000000" x2="189.800000" y2="142.000000"  transform="rotate(0.000000,189.800000,142.000000)" style="stroke: black; stroke-width:0.25;"/>
<line x1="186.800000" y1="143.000000" x2="189.800000" y2="142.000000"  transform="rotate(0.000000,189.800000,142.000000)" style="stroke: black; stroke-width:0.25;"/>
<line x1="15.000000" y1="15.000000" x2="15.000000" y2="237.000000"  style="stroke: black; stroke-linecap:round; stroke-width:0.25; stroke-dasharray:3,3;"/>
<line x1="15.000000" y1="237.000000" x2="245.500000" y2="237.000000"  style="stroke: black; stroke-linecap:round; stroke-width:0.25; stroke-dasharray:3,3;"/>
<line x1="245.500000" y1="237.000000" x2="245.500000" y2="15.000000"  style="stroke: black; stroke-linecap:round; stroke-width:0.25; stroke-dasharray:3,3;"/>
<line x1="15.000000" y1="15.000000" x2="20.000000" y2="15.000000"  style="stroke: black; stroke-linecap:round; stroke-width:0.25; stroke-dasharray:3,3;"/>
<line x1="152.225000" y1="15.000000" x2="245.500000" y2="15.000000"  style="stroke: black; stroke-linecap:round; stroke-width:0.25; stroke-dasharray:3,3;"/>
<text x="20.000000" y="17.000000" font-family="Arial" font-size="7">automat(hslid... : max : int)(15)(0.0f)</text>
<line x1="247.500000" y1="125.000000" x2="250.500000" y2="126.000000"  transform="rotate(0.000000,250.500000,126.000000)" style="stroke: black; stroke-width:0.25;"/>
<line x1="247.500000" y1="127.000000" x2="250.500000" y2="126.000000"  transform="rotate(0.000000,250.500000,126.000000)" style="stroke: black; stroke-width:0.25;"/>
<line x1="10.000000" y1="126.000000" x2="20.000000" y2="126.000000"  style="stroke:black; stroke-linecap:round; stroke-width:0.25;"/>
<line x1="20.000000" y1="126.000000" x2="24.000000" y2="126.000000"  style="stroke:black; stroke-linecap:round; stroke-width:0.25;"/>
<line x1="24.000000" y1="126.000000" x2="28.000000" y2="126.000000"  style="stroke:black; stroke-linecap:round; stroke-width:0.25;"/>
<line x1="28.000000" y1="126.000000" x2="28.000000" y2="126.000000"  style="stroke:black; stroke-linecap:round; stroke-width:0.25;"/>
<line x1="28.000000" y1="126.000000" x2="32.000000" y2="126.000000"  style="stroke:black; stroke-linecap:round; stroke-width:0.25;"/>
<line x1="99.800000" y1="36.000000" x2="103.800000" y2="36.000000"  style="stroke:black; stroke-linecap:round; stroke-width:0.25;"/>
<line x1="99.800000" y1="78.000000" x2="103.800000" y2="78.000000"  style="stroke:black; stroke-linecap:round; stroke-width:0.25;"/>
<line x1="103.800000" y1="36.000000" x2="113.800000" y2="36.000000"  style="stroke:black; stroke-linecap:round; stroke-width:0.25;"/>
<line x1="103.800000" y1="78.000000" x2="113.800000" y2="78.000000"  style="stroke:black; stroke-linecap:round; stroke-width:0.25;"/>
<line x1="113.800000" y1="36.000000" x2="121.800000" y2="36.000000"  style="stroke:black; stroke-linecap:round; stroke-width:0.25;"/>
<line x1="113.800000" y1="66.000000" x2="121.800000" y2="66.000000"  style="stroke:black; stroke-linecap:round; stroke-width:0.25;"/>
<line x1="113.800000" y1="78.000000" x2="113.800000" y2="66.000000"  style="stroke:black; stroke-linecap:round; stroke-width:0.25;"/>
<line x1="113.800000" y1="78.000000" x2="113.800000" y2="78.000000"  style="stroke:black; stroke-linecap:round; stroke-width:0.25;"/>
<line x1="119.800000" y1="120.000000" x2="123.800000" y2="120.000000"  style="stroke:black; stroke-linecap:round; stroke-width:0.25;"/>
<line x1="120.700000" y1="152.000000" x2="124.700000" y2="152.000000"  style="stroke:black; stroke-linecap:round; stroke-width:0.25;"/>
<line x1="120.700000" y1="184.000000" x2="124.700000" y2="184.000000"  style="stroke:black; stroke-linecap:round; stroke-width:0.25;"/>
<line x1="120.700000" y1="216.000000" x2="124.700000" y2="216.000000"  style="stroke:black; stroke-linecap:round; stroke-width:0.25;"/>
<line x1="121.800000" y1="36.000000" x2="121.800000" y2="58.000000"  style="stroke:black; stroke-linecap:round; stroke-width:0.25;"/>
<line x1="121.800000" y1="58.000000" x2="121.800000" y2="58.000000"  style="stroke:black; stroke-linecap:round; stroke-width:0.25;"/>
<line x1="121.800000" y1="58.000000" x2="125.800000" y2="58.000000"  style="stroke:black; stroke-linecap:round; stroke-width:0.25;"/>
<line x1="121.800000" y1="66.000000" x2="125.800000" y2="66.000000"  style="stroke:black; stroke-linecap:round; stroke-width:0.25;"/>
<line x1="123.800000" y1="120.000000" x2="124.700000" y2="120.000000"  style="stroke:black; stroke-linecap:round; stroke-width:0.25;"/>
<line x1="124.700000" y1="152.000000" x2="153.800000" y2="152.000000"  style="stroke:black; stroke-linecap:round; stroke-width:0.25;"/>
<line x1="124.700000" y1="184.000000" x2="153.800000" y2="184.000000"  style="stroke:black; stroke-linecap:round; stroke-width:0.25;"/>
<line x1="124.700000" y1="216.000000" x2="153.800000" y2="216.000000"  style="stroke:black; stroke-linecap:round; stroke-width:0.25;"/>
<line x1="124.700000" y1="120.000000" x2="153.800000" y2="120.000000"  style="stroke:black; stroke-linecap:round; stroke-width:0.25;"/>
<line x1="149.800000" y1="62.000000" x2="153.800000" y2="62.000000"  style="stroke:black; stroke-linecap:round; stroke-width:0.25;"/>
<line x1="153.800000" y1="62.000000" x2="185.800000" y2="62.000000"  style="stroke:black; stroke-linecap:round; stroke-width:0.25;"/>
<line x1="153.800000" y1="118.000000" x2="185.800000" y2="118.000000"  style="stroke:black; stroke-linecap:round; stroke-width:0.25;"/>
<line x1="153.800000" y1="120.000000" x2="153.800000" y2="118.000000"  style="stroke:black; stroke-linecap:round; stroke-width:0.25;"/>
<line x1="153.800000" y1="120.000000" x2="153.800000" y2="120.000000"  style="stroke:black; stroke-linecap:round; stroke-width:0.25;"/>
<line x1="153.800000" y1="152.000000" x2="161.800000" y2="152.000000"  style="stroke:black; stroke-linecap:round; stroke-width:0.25;"/>
<line x1="153.800000" y1="184.000000" x2="169.800000" y2="184.000000"  style="stroke:black; stroke-linecap:round; stroke-width:0.25;"/>
<line x1="153.800000" y1="216.000000" x2="177.800000" y2="216.000000"  style="stroke:black; stroke-linecap:round; stroke-width:0.25;"/>
<line x1="161.800000" y1="126.000000" x2="185.800000" y2="126.000000"  style="stroke:black; stroke-linecap:round; stroke-width:0.25;"/>
<line x1="161.800000" y1="152.000000" x2="161.800000" y2="126.000000"  style="stroke:black; stroke-linecap:round; stroke-width:0.25;"/>
<line x1="169.800000" y1="134.000000" x2="185.800000" y2="134.000000"  style="stroke:black; stroke-linecap:round; stroke-width:0.25;"/>
<line x1="169.800000" y1="184.000000" x2="169.800000" y2="134.000000"  style="stroke:black; stroke-linecap:round; stroke-width:0.25;"/>
<line x1="177.800000" y1="142.000000" x2="185.800000" y2="142.000000"  style="stroke:black; stroke-linecap:round; stroke-width:0.25;"/>
<line x1="177.800000" y1="216.000000" x2="177.800000" y2="142.000000"  style="stroke:black; stroke-linecap:round; stroke-width:0.25;"/>
<line x1="185.800000" y1="62.000000" x2="185.800000" y2="110.000000"  style="stroke:black; stroke-linecap:round; stroke-width:0.25;"/>
<line x1="185.800000" y1="110.000000" x2="185.800000" y2="110.000000"  style="stroke:black; stroke-linecap:round; stroke-width:0.25;"/>
<line x1="185.800000" y1="110.000000" x2="189.800000" y2="110.000000"  style="stroke:black; stroke-linecap:round; stroke-width:0.25;"/>
<line x1="185.800000" y1="118.000000" x2="189.800000" y2="118.000000"  style="stroke:black; stroke-linecap:round; stroke-width:0.25;"/>
<line x1="185.800000" y1="126.000000" x2="189.800000" y2="126.000000"  style="stroke:black; stroke-linecap:round; stroke-width:0.25;"/>
<line x1="185.800000" y1="134.000000" x2="189.800000" y2="134.000000"  style="stroke:black; stroke-linecap:round; stroke-width:0.25;"/>
<line x1="185.800000" y1="142.000000" x2="189.800000" y2="142.000000"  style="stroke:black; stroke-linecap:round; stroke-width:0.25;"/>
<line x1="228.500000" y1="126.000000" x2="232.500000" y2="126.000000"  style="stroke:black; stroke-linecap:round; stroke-width:0.25;"/>
<line x1="232.500000" y1="126.000000" x2="232.500000" y2="126.000000"  style="stroke:black; stroke-linecap:round; stroke-width:0.25;"/>
<line x1="232.500000" y1="126.000000" x2="236.500000" y2="126.000000"  style="stroke:black; stroke-linecap:round; stroke-width:0.25;"/>
<line x1="236.500000" y1="126.000000" x2="240.500000" y2="126.000000"  style="stroke:black; stroke-linecap:round; stroke-width:0.25;"/>
<line x1="240.500000" y1="126.000000" x2="250.500000" y2="126.000000"  style="stroke:black; stroke-linecap:round; stroke-width:0.25;"/>
</svg>
