<?xml version="1.0"?>
<svg xmlns="http://www.w3.org/2000/svg" xmlns:xlink="http://www.w3.org/1999/xlink" viewBox="0 0 664.700000 360.000000" width="332.350000mm" height="180.000000mm" version="1.1">
<rect x="1.000000" y="1.000000" width="663.700000" height="359.000000" rx="0" ry="0" style="stroke:none;fill:#cccccc;"/>
<rect x="0.000000" y="0.000000" width="663.700000" height="359.000000" rx="0" ry="0" style="stroke:none;fill:#ffffff;"/>
<text x="10.000000" y="7.000000" font-family="Arial" font-size="7"></text>
<a xlink:href="tunedBar-0x7fd863db9240.svg">
<rect x="25.000000" y="25.000000" width="51.600000" height="24.000000" rx="0" ry="0" style="stroke:none;fill:#cccccc;"/>
<rect x="24.000000" y="24.000000" width="51.600000" height="24.000000" rx="0" ry="0" style="stroke:none;fill:#003366;"/>
</a>
<a xlink:href="tunedBar-0x7fd863db9240.svg">
<text x="49.800000" y="38.000000" font-family="Arial" font-size="7" text-anchor="middle" fill="#FFFFFF">tunedBar(0)</text>
</a>
<circle cx="26.000000" cy="26.000000" r="1"/>
<a xlink:href="tunedBar-0x7fd863dd2780.svg">
<rect x="25.000000" y="57.000000" width="51.600000" height="24.000000" rx="0" ry="0" style="stroke:none;fill:#cccccc;"/>
<rect x="24.000000" y="56.000000" width="51.600000" height="24.000000" rx="0" ry="0" style="stroke:none;fill:#003366;"/>
</a>
<a xlink:href="tunedBar-0x7fd863dd2780.svg">
<text x="49.800000" y="70.000000" font-family="Arial" font-size="7" text-anchor="middle" fill="#FFFFFF">tunedBar(1)</text>
</a>
<circle cx="26.000000" cy="58.000000" r="1"/>
<a xlink:href="tunedBar-0x7fd863bbf8c0.svg">
<rect x="25.000000" y="89.000000" width="51.600000" height="24.000000" rx="0" ry="0" style="stroke:none;fill:#cccccc;"/>
<rect x="24.000000" y="88.000000" width="51.600000" height="24.000000" rx="0" ry="0" style="stroke:none;fill:#003366;"/>
</a>
<a xlink:href="tunedBar-0x7fd863bbf8c0.svg">
<text x="49.800000" y="102.000000" font-family="Arial" font-size="7" text-anchor="middle" fill="#FFFFFF">tunedBar(2)</text>
</a>
<circle cx="26.000000" cy="90.000000" r="1"/>
<a xlink:href="tunedBar-0x7fd863ef2c50.svg">
<rect x="25.000000" y="121.000000" width="51.600000" height="24.000000" rx="0" ry="0" style="stroke:none;fill:#cccccc;"/>
<rect x="24.000000" y="120.000000" width="51.600000" height="24.000000" rx="0" ry="0" style="stroke:none;fill:#003366;"/>
</a>
<a xlink:href="tunedBar-0x7fd863ef2c50.svg">
<text x="49.800000" y="134.000000" font-family="Arial" font-size="7" text-anchor="middle" fill="#FFFFFF">tunedBar(3)</text>
</a>
<circle cx="26.000000" cy="122.000000" r="1"/>
<a xlink:href="tunedBar-0x7fd863df54c0.svg">
<rect x="25.000000" y="153.000000" width="51.600000" height="24.000000" rx="0" ry="0" style="stroke:none;fill:#cccccc;"/>
<rect x="24.000000" y="152.000000" width="51.600000" height="24.000000" rx="0" ry="0" style="stroke:none;fill:#003366;"/>
</a>
<a xlink:href="tunedBar-0x7fd863df54c0.svg">
<text x="49.800000" y="166.000000" font-family="Arial" font-size="7" text-anchor="middle" fill="#FFFFFF">tunedBar(4)</text>
</a>
<circle cx="26.000000" cy="154.000000" r="1"/>
<a xlink:href="tunedBar-0x7fd863f10c50.svg">
<rect x="25.000000" y="185.000000" width="51.600000" height="24.000000" rx="0" ry="0" style="stroke:none;fill:#cccccc;"/>
<rect x="24.000000" y="184.000000" width="51.600000" height="24.000000" rx="0" ry="0" style="stroke:none;fill:#003366;"/>
</a>
<a xlink:href="tunedBar-0x7fd863f10c50.svg">
<text x="49.800000" y="198.000000" font-family="Arial" font-size="7" text-anchor="middle" fill="#FFFFFF">tunedBar(5)</text>
</a>
<circle cx="26.000000" cy="186.000000" r="1"/>
<a xlink:href="tunedBar-0x7fd863f28d30.svg">
<rect x="25.000000" y="217.000000" width="51.600000" height="24.000000" rx="0" ry="0" style="stroke:none;fill:#cccccc;"/>
<rect x="24.000000" y="216.000000" width="51.600000" height="24.000000" rx="0" ry="0" style="stroke:none;fill:#003366;"/>
</a>
<a xlink:href="tunedBar-0x7fd863f28d30.svg">
<text x="49.800000" y="230.000000" font-family="Arial" font-size="7" text-anchor="middle" fill="#FFFFFF">tunedBar(6)</text>
</a>
<circle cx="26.000000" cy="218.000000" r="1"/>
<a xlink:href="tunedBar-0x7fd864832d10.svg">
<rect x="25.000000" y="249.000000" width="51.600000" height="24.000000" rx="0" ry="0" style="stroke:none;fill:#cccccc;"/>
<rect x="24.000000" y="248.000000" width="51.600000" height="24.000000" rx="0" ry="0" style="stroke:none;fill:#003366;"/>
</a>
<a xlink:href="tunedBar-0x7fd864832d10.svg">
<text x="49.800000" y="262.000000" font-family="Arial" font-size="7" text-anchor="middle" fill="#FFFFFF">tunedBar(7)</text>
</a>
<circle cx="26.000000" cy="250.000000" r="1"/>
<a xlink:href="tunedBar-0x7fd863f2f590.svg">
<rect x="25.000000" y="281.000000" width="51.600000" height="24.000000" rx="0" ry="0" style="stroke:none;fill:#cccccc;"/>
<rect x="24.000000" y="280.000000" width="51.600000" height="24.000000" rx="0" ry="0" style="stroke:none;fill:#003366;"/>
</a>
<a xlink:href="tunedBar-0x7fd863f2f590.svg">
<text x="49.800000" y="294.000000" font-family="Arial" font-size="7" text-anchor="middle" fill="#FFFFFF">tunedBar(8)</text>
</a>
<circle cx="26.000000" cy="282.000000" r="1"/>
<a xlink:href="tunedBar-0x7fd863f42240.svg">
<rect x="25.000000" y="313.000000" width="51.600000" height="24.000000" rx="0" ry="0" style="stroke:none;fill:#cccccc;"/>
<rect x="24.000000" y="312.000000" width="51.600000" height="24.000000" rx="0" ry="0" style="stroke:none;fill:#003366;"/>
</a>
<a xlink:href="tunedBar-0x7fd863f42240.svg">
<text x="49.800000" y="326.000000" font-family="Arial" font-size="7" text-anchor="middle" fill="#FFFFFF">tunedBar(9)</text>
</a>
<circle cx="26.000000" cy="314.000000" r="1"/>
<a xlink:href="drywet-0x7fd86393a1c0.svg">
<rect x="234.600000" y="169.000000" width="167.700000" height="24.000000" rx="0" ry="0" style="stroke:none;fill:#cccccc;"/>
<rect x="233.600000" y="168.000000" width="167.700000" height="24.000000" rx="0" ry="0" style="stroke:none;fill:#003366;"/>
</a>
<a xlink:href="drywet-0x7fd86393a1c0.svg">
<text x="317.450000" y="182.000000" font-family="Arial" font-size="7" text-anchor="middle" fill="#FFFFFF">drywet(_)(+~((_,22050 : @),0.8f : *))</text>
</a>
<circle cx="235.600000" cy="170.000000" r="1"/>
<line x1="230.600000" y1="175.000000" x2="233.600000" y2="176.000000"  transform="rotate(0.000000,233.600000,176.000000)" style="stroke: black; stroke-width:0.25;"/>
<line x1="230.600000" y1="177.000000" x2="233.600000" y2="176.000000"  transform="rotate(0.000000,233.600000,176.000000)" style="stroke: black; stroke-width:0.25;"/>
<line x1="230.600000" y1="183.000000" x2="233.600000" y2="184.000000"  transform="rotate(0.000000,233.600000,184.000000)" style="stroke: black; stroke-width:0.25;"/>
<line x1="230.600000" y1="185.000000" x2="233.600000" y2="184.000000"  transform="rotate(0.000000,233.600000,184.000000)" style="stroke: black; stroke-width:0.25;"/>
<a xlink:href="instrReverbChime-0x7fd86493cdd0.svg">
<rect x="448.300000" y="165.000000" width="77.400000" height="32.000000" rx="0" ry="0" style="stroke:none;fill:#cccccc;"/>
<rect x="447.300000" y="164.000000" width="77.400000" height="32.000000" rx="0" ry="0" style="stroke:none;fill:#003366;"/>
</a>
<a xlink:href="instrReverbChime-0x7fd86493cdd0.svg">
<text x="486.000000" y="182.000000" font-family="Arial" font-size="7" text-anchor="middle" fill="#FFFFFF">instrReverbChime</text>
</a>
<circle cx="449.300000" cy="166.000000" r="1"/>
<line x1="444.300000" y1="167.000000" x2="447.300000" y2="168.000000"  transform="rotate(0.000000,447.300000,168.000000)" style="stroke: black; stroke-width:0.25;"/>
<line x1="444.300000" y1="169.000000" x2="447.300000" y2="168.000000"  transform="rotate(0.000000,447.300000,168.000000)" style="stroke: black; stroke-width:0.25;"/>
<line x1="444.300000" y1="175.000000" x2="447.300000" y2="176.000000"  transform="rotate(0.000000,447.300000,176.000000)" style="stroke: black; stroke-width:0.25;"/>
<line x1="444.300000" y1="177.000000" x2="447.300000" y2="176.000000"  transform="rotate(0.000000,447.300000,176.000000)" style="stroke: black; stroke-width:0.25;"/>
<line x1="444.300000" y1="183.000000" x2="447.300000" y2="184.000000"  transform="rotate(0.000000,447.300000,184.000000)" style="stroke: black; stroke-width:0.25;"/>
<line x1="444.300000" y1="185.000000" x2="447.300000" y2="184.000000"  transform="rotate(0.000000,447.300000,184.000000)" style="stroke: black; stroke-width:0.25;"/>
<line x1="444.300000" y1="191.000000" x2="447.300000" y2="192.000000"  transform="rotate(0.000000,447.300000,192.000000)" style="stroke: black; stroke-width:0.25;"/>
<line x1="444.300000" y1="193.000000" x2="447.300000" y2="192.000000"  transform="rotate(0.000000,447.300000,192.000000)" style="stroke: black; stroke-width:0.25;"/>
<rect x="551.700000" y="143.000000" width="24.000000" height="24.000000" rx="0" ry="0" style="stroke:none;fill:#cccccc;"/>
<rect x="550.700000" y="142.000000" width="24.000000" height="24.000000" rx="0" ry="0" style="stroke:none;fill:#f44800;"/>
<text x="562.700000" y="156.000000" font-family="Arial" font-size="7" text-anchor="middle" fill="#FFFFFF">2</text>
<circle cx="552.700000" cy="144.000000" r="1"/>
<line x1="541.700000" y1="133.000000" x2="541.700000" y2="175.000000"  style="stroke: black; stroke-linecap:round; stroke-width:0.25; stroke-dasharray:3,3;"/>
<line x1="541.700000" y1="175.000000" x2="583.700000" y2="175.000000"  style="stroke: black; stroke-linecap:round; stroke-width:0.25; stroke-dasharray:3,3;"/>
<line x1="583.700000" y1="175.000000" x2="583.700000" y2="133.000000"  style="stroke: black; stroke-linecap:round; stroke-width:0.25; stroke-dasharray:3,3;"/>
<line x1="541.700000" y1="133.000000" x2="546.700000" y2="133.000000"  style="stroke: black; stroke-linecap:round; stroke-width:0.25; stroke-dasharray:3,3;"/>
<line x1="572.500000" y1="133.000000" x2="583.700000" y2="133.000000"  style="stroke: black; stroke-linecap:round; stroke-width:0.25; stroke-dasharray:3,3;"/>
<text x="546.700000" y="135.000000" font-family="Arial" font-size="7">preset</text>
<rect x="601.700000" y="139.000000" width="24.000000" height="24.000000" rx="0" ry="0" style="stroke:none;fill:#cccccc;"/>
<rect x="600.700000" y="138.000000" width="24.000000" height="24.000000" rx="0" ry="0" style="stroke:none;fill:#4B71A1;"/>
<text x="612.700000" y="152.000000" font-family="Arial" font-size="7" text-anchor="middle" fill="#FFFFFF">*</text>
<circle cx="602.700000" cy="140.000000" r="1"/>
<line x1="597.700000" y1="145.000000" x2="600.700000" y2="146.000000"  transform="rotate(0.000000,600.700000,146.000000)" style="stroke: black; stroke-width:0.25;"/>
<line x1="597.700000" y1="147.000000" x2="600.700000" y2="146.000000"  transform="rotate(0.000000,600.700000,146.000000)" style="stroke: black; stroke-width:0.25;"/>
<line x1="597.700000" y1="153.000000" x2="600.700000" y2="154.000000"  transform="rotate(0.000000,600.700000,154.000000)" style="stroke: black; stroke-width:0.25;"/>
<line x1="597.700000" y1="155.000000" x2="600.700000" y2="154.000000"  transform="rotate(0.000000,600.700000,154.000000)" style="stroke: black; stroke-width:0.25;"/>
<rect x="551.700000" y="203.000000" width="24.000000" height="24.000000" rx="0" ry="0" style="stroke:none;fill:#cccccc;"/>
<rect x="550.700000" y="202.000000" width="24.000000" height="24.000000" rx="0" ry="0" style="stroke:none;fill:#f44800;"/>
<text x="562.700000" y="216.000000" font-family="Arial" font-size="7" text-anchor="middle" fill="#FFFFFF">2</text>
<circle cx="552.700000" cy="204.000000" r="1"/>
<line x1="541.700000" y1="193.000000" x2="541.700000" y2="235.000000"  style="stroke: black; stroke-linecap:round; stroke-width:0.25; stroke-dasharray:3,3;"/>
<line x1="541.700000" y1="235.000000" x2="583.700000" y2="235.000000"  style="stroke: black; stroke-linecap:round; stroke-width:0.25; stroke-dasharray:3,3;"/>
<line x1="583.700000" y1="235.000000" x2="583.700000" y2="193.000000"  style="stroke: black; stroke-linecap:round; stroke-width:0.25; stroke-dasharray:3,3;"/>
<line x1="541.700000" y1="193.000000" x2="546.700000" y2="193.000000"  style="stroke: black; stroke-linecap:round; stroke-width:0.25; stroke-dasharray:3,3;"/>
<line x1="572.500000" y1="193.000000" x2="583.700000" y2="193.000000"  style="stroke: black; stroke-linecap:round; stroke-width:0.25; stroke-dasharray:3,3;"/>
<text x="546.700000" y="195.000000" font-family="Arial" font-size="7">preset</text>
<rect x="601.700000" y="199.000000" width="24.000000" height="24.000000" rx="0" ry="0" style="stroke:none;fill:#cccccc;"/>
<rect x="600.700000" y="198.000000" width="24.000000" height="24.000000" rx="0" ry="0" style="stroke:none;fill:#4B71A1;"/>
<text x="612.700000" y="212.000000" font-family="Arial" font-size="7" text-anchor="middle" fill="#FFFFFF">*</text>
<circle cx="602.700000" cy="200.000000" r="1"/>
<line x1="597.700000" y1="205.000000" x2="600.700000" y2="206.000000"  transform="rotate(0.000000,600.700000,206.000000)" style="stroke: black; stroke-width:0.25;"/>
<line x1="597.700000" y1="207.000000" x2="600.700000" y2="206.000000"  transform="rotate(0.000000,600.700000,206.000000)" style="stroke: black; stroke-width:0.25;"/>
<line x1="597.700000" y1="213.000000" x2="600.700000" y2="214.000000"  transform="rotate(0.000000,600.700000,214.000000)" style="stroke: black; stroke-width:0.25;"/>
<line x1="597.700000" y1="215.000000" x2="600.700000" y2="214.000000"  transform="rotate(0.000000,600.700000,214.000000)" style="stroke: black; stroke-width:0.25;"/>
<line x1="15.000000" y1="15.000000" x2="15.000000" y2="345.000000"  style="stroke: black; stroke-linecap:round; stroke-width:0.25; stroke-dasharray:3,3;"/>
<line x1="15.000000" y1="345.000000" x2="649.700000" y2="345.000000"  style="stroke: black; stroke-linecap:round; stroke-width:0.25; stroke-dasharray:3,3;"/>
<line x1="649.700000" y1="345.000000" x2="649.700000" y2="15.000000"  style="stroke: black; stroke-linecap:round; stroke-width:0.25; stroke-dasharray:3,3;"/>
<line x1="15.000000" y1="15.000000" x2="20.000000" y2="15.000000"  style="stroke: black; stroke-linecap:round; stroke-width:0.25; stroke-dasharray:3,3;"/>
<line x1="49.025000" y1="15.000000" x2="649.700000" y2="15.000000"  style="stroke: black; stroke-linecap:round; stroke-width:0.25; stroke-dasharray:3,3;"/>
<text x="20.000000" y="17.000000" font-family="Arial" font-size="7">process</text>
<line x1="651.700000" y1="175.000000" x2="654.700000" y2="176.000000"  transform="rotate(0.000000,654.700000,176.000000)" style="stroke: black; stroke-width:0.25;"/>
<line x1="651.700000" y1="177.000000" x2="654.700000" y2="176.000000"  transform="rotate(0.000000,654.700000,176.000000)" style="stroke: black; stroke-width:0.25;"/>
<line x1="651.700000" y1="183.000000" x2="654.700000" y2="184.000000"  transform="rotate(0.000000,654.700000,184.000000)" style="stroke: black; stroke-width:0.25;"/>
<line x1="651.700000" y1="185.000000" x2="654.700000" y2="184.000000"  transform="rotate(0.000000,654.700000,184.000000)" style="stroke: black; stroke-width:0.25;"/>
<line x1="75.600000" y1="36.000000" x2="79.600000" y2="36.000000"  style="stroke:black; stroke-linecap:round; stroke-width:0.25;"/>
<line x1="75.600000" y1="68.000000" x2="79.600000" y2="68.000000"  style="stroke:black; stroke-linecap:round; stroke-width:0.25;"/>
<line x1="75.600000" y1="100.000000" x2="79.600000" y2="100.000000"  style="stroke:black; stroke-linecap:round; stroke-width:0.25;"/>
<line x1="75.600000" y1="132.000000" x2="79.600000" y2="132.000000"  style="stroke:black; stroke-linecap:round; stroke-width:0.25;"/>
<line x1="75.600000" y1="164.000000" x2="79.600000" y2="164.000000"  style="stroke:black; stroke-linecap:round; stroke-width:0.25;"/>
<line x1="75.600000" y1="196.000000" x2="79.600000" y2="196.000000"  style="stroke:black; stroke-linecap:round; stroke-width:0.25;"/>
<line x1="75.600000" y1="228.000000" x2="79.600000" y2="228.000000"  style="stroke:black; stroke-linecap:round; stroke-width:0.25;"/>
<line x1="75.600000" y1="260.000000" x2="79.600000" y2="260.000000"  style="stroke:black; stroke-linecap:round; stroke-width:0.25;"/>
<line x1="75.600000" y1="292.000000" x2="79.600000" y2="292.000000"  style="stroke:black; stroke-linecap:round; stroke-width:0.25;"/>
<line x1="75.600000" y1="324.000000" x2="79.600000" y2="324.000000"  style="stroke:black; stroke-linecap:round; stroke-width:0.25;"/>
<line x1="79.600000" y1="36.000000" x2="189.600000" y2="180.000000"  style="stroke:black; stroke-linecap:round; stroke-width:0.25;"/>
<line x1="79.600000" y1="68.000000" x2="189.600000" y2="180.000000"  style="stroke:black; stroke-linecap:round; stroke-width:0.25;"/>
<line x1="79.600000" y1="100.000000" x2="189.600000" y2="180.000000"  style="stroke:black; stroke-linecap:round; stroke-width:0.25;"/>
<line x1="79.600000" y1="132.000000" x2="189.600000" y2="180.000000"  style="stroke:black; stroke-linecap:round; stroke-width:0.25;"/>
<line x1="79.600000" y1="164.000000" x2="189.600000" y2="180.000000"  style="stroke:black; stroke-linecap:round; stroke-width:0.25;"/>
<line x1="79.600000" y1="196.000000" x2="189.600000" y2="180.000000"  style="stroke:black; stroke-linecap:round; stroke-width:0.25;"/>
<line x1="79.600000" y1="228.000000" x2="189.600000" y2="180.000000"  style="stroke:black; stroke-linecap:round; stroke-width:0.25;"/>
<line x1="79.600000" y1="260.000000" x2="189.600000" y2="180.000000"  style="stroke:black; stroke-linecap:round; stroke-width:0.25;"/>
<line x1="79.600000" y1="292.000000" x2="189.600000" y2="180.000000"  style="stroke:black; stroke-linecap:round; stroke-width:0.25;"/>
<line x1="79.600000" y1="324.000000" x2="189.600000" y2="180.000000"  style="stroke:black; stroke-linecap:round; stroke-width:0.25;"/>
<line x1="189.600000" y1="180.000000" x2="193.600000" y2="180.000000"  style="stroke:black; stroke-linecap:round; stroke-width:0.25;"/>
<line x1="193.600000" y1="180.000000" x2="197.600000" y2="180.000000"  style="stroke:black; stroke-linecap:round; stroke-width:0.25;"/>
<line x1="197.600000" y1="180.000000" x2="229.600000" y2="176.000000"  style="stroke:black; stroke-linecap:round; stroke-width:0.25;"/>
<line x1="197.600000" y1="180.000000" x2="229.600000" y2="184.000000"  style="stroke:black; stroke-linecap:round; stroke-width:0.25;"/>
<line x1="229.600000" y1="176.000000" x2="233.600000" y2="176.000000"  style="stroke:black; stroke-linecap:round; stroke-width:0.25;"/>
<line x1="229.600000" y1="184.000000" x2="233.600000" y2="184.000000"  style="stroke:black; stroke-linecap:round; stroke-width:0.25;"/>
<line x1="401.300000" y1="180.000000" x2="405.300000" y2="180.000000"  style="stroke:black; stroke-linecap:round; stroke-width:0.25;"/>
<line x1="405.300000" y1="180.000000" x2="443.300000" y2="168.000000"  style="stroke:black; stroke-linecap:round; stroke-width:0.25;"/>
<line x1="405.300000" y1="180.000000" x2="443.300000" y2="176.000000"  style="stroke:black; stroke-linecap:round; stroke-width:0.25;"/>
<line x1="405.300000" y1="180.000000" x2="443.300000" y2="184.000000"  style="stroke:black; stroke-linecap:round; stroke-width:0.25;"/>
<line x1="405.300000" y1="180.000000" x2="443.300000" y2="192.000000"  style="stroke:black; stroke-linecap:round; stroke-width:0.25;"/>
<line x1="443.300000" y1="168.000000" x2="447.300000" y2="168.000000"  style="stroke:black; stroke-linecap:round; stroke-width:0.25;"/>
<line x1="443.300000" y1="176.000000" x2="447.300000" y2="176.000000"  style="stroke:black; stroke-linecap:round; stroke-width:0.25;"/>
<line x1="443.300000" y1="184.000000" x2="447.300000" y2="184.000000"  style="stroke:black; stroke-linecap:round; stroke-width:0.25;"/>
<line x1="443.300000" y1="192.000000" x2="447.300000" y2="192.000000"  style="stroke:black; stroke-linecap:round; stroke-width:0.25;"/>
<line x1="524.700000" y1="176.000000" x2="528.700000" y2="176.000000"  style="stroke:black; stroke-linecap:round; stroke-width:0.25;"/>
<line x1="524.700000" y1="184.000000" x2="528.700000" y2="184.000000"  style="stroke:black; stroke-linecap:round; stroke-width:0.25;"/>
<line x1="528.700000" y1="124.000000" x2="536.700000" y2="124.000000"  style="stroke:black; stroke-linecap:round; stroke-width:0.25;"/>
<line x1="528.700000" y1="176.000000" x2="528.700000" y2="124.000000"  style="stroke:black; stroke-linecap:round; stroke-width:0.25;"/>
<line x1="528.700000" y1="176.000000" x2="528.700000" y2="176.000000"  style="stroke:black; stroke-linecap:round; stroke-width:0.25;"/>
<line x1="528.700000" y1="184.000000" x2="536.700000" y2="184.000000"  style="stroke:black; stroke-linecap:round; stroke-width:0.25;"/>
<line x1="536.700000" y1="124.000000" x2="562.700000" y2="124.000000"  style="stroke:black; stroke-linecap:round; stroke-width:0.25;"/>
<line x1="536.700000" y1="184.000000" x2="562.700000" y2="184.000000"  style="stroke:black; stroke-linecap:round; stroke-width:0.25;"/>
<line x1="562.700000" y1="124.000000" x2="588.700000" y2="124.000000"  style="stroke:black; stroke-linecap:round; stroke-width:0.25;"/>
<line x1="562.700000" y1="184.000000" x2="588.700000" y2="184.000000"  style="stroke:black; stroke-linecap:round; stroke-width:0.25;"/>
<line x1="574.700000" y1="154.000000" x2="578.700000" y2="154.000000"  style="stroke:black; stroke-linecap:round; stroke-width:0.25;"/>
<line x1="574.700000" y1="214.000000" x2="578.700000" y2="214.000000"  style="stroke:black; stroke-linecap:round; stroke-width:0.25;"/>
<line x1="578.700000" y1="154.000000" x2="588.700000" y2="154.000000"  style="stroke:black; stroke-linecap:round; stroke-width:0.25;"/>
<line x1="578.700000" y1="214.000000" x2="588.700000" y2="214.000000"  style="stroke:black; stroke-linecap:round; stroke-width:0.25;"/>
<line x1="588.700000" y1="124.000000" x2="596.700000" y2="124.000000"  style="stroke:black; stroke-linecap:round; stroke-width:0.25;"/>
<line x1="588.700000" y1="154.000000" x2="596.700000" y2="154.000000"  style="stroke:black; stroke-linecap:round; stroke-width:0.25;"/>
<line x1="588.700000" y1="184.000000" x2="596.700000" y2="184.000000"  style="stroke:black; stroke-linecap:round; stroke-width:0.25;"/>
<line x1="588.700000" y1="214.000000" x2="596.700000" y2="214.000000"  style="stroke:black; stroke-linecap:round; stroke-width:0.25;"/>
<line x1="596.700000" y1="124.000000" x2="596.700000" y2="146.000000"  style="stroke:black; stroke-linecap:round; stroke-width:0.25;"/>
<line x1="596.700000" y1="146.000000" x2="596.700000" y2="146.000000"  style="stroke:black; stroke-linecap:round; stroke-width:0.25;"/>
<line x1="596.700000" y1="146.000000" x2="600.700000" y2="146.000000"  style="stroke:black; stroke-linecap:round; stroke-width:0.25;"/>
<line x1="596.700000" y1="154.000000" x2="600.700000" y2="154.000000"  style="stroke:black; stroke-linecap:round; stroke-width:0.25;"/>
<line x1="596.700000" y1="184.000000" x2="596.700000" y2="206.000000"  style="stroke:black; stroke-linecap:round; stroke-width:0.25;"/>
<line x1="596.700000" y1="206.000000" x2="596.700000" y2="206.000000"  style="stroke:black; stroke-linecap:round; stroke-width:0.25;"/>
<line x1="596.700000" y1="206.000000" x2="600.700000" y2="206.000000"  style="stroke:black; stroke-linecap:round; stroke-width:0.25;"/>
<line x1="596.700000" y1="214.000000" x2="600.700000" y2="214.000000"  style="stroke:black; stroke-linecap:round; stroke-width:0.25;"/>
<line x1="624.700000" y1="150.000000" x2="628.700000" y2="150.000000"  style="stroke:black; stroke-linecap:round; stroke-width:0.25;"/>
<line x1="624.700000" y1="210.000000" x2="628.700000" y2="210.000000"  style="stroke:black; stroke-linecap:round; stroke-width:0.25;"/>
<line x1="628.700000" y1="150.000000" x2="636.700000" y2="150.000000"  style="stroke:black; stroke-linecap:round; stroke-width:0.25;"/>
<line x1="628.700000" y1="184.000000" x2="636.700000" y2="184.000000"  style="stroke:black; stroke-linecap:round; stroke-width:0.25;"/>
<line x1="628.700000" y1="210.000000" x2="628.700000" y2="184.000000"  style="stroke:black; stroke-linecap:round; stroke-width:0.25;"/>
<line x1="628.700000" y1="210.000000" x2="628.700000" y2="210.000000"  style="stroke:black; stroke-linecap:round; stroke-width:0.25;"/>
<line x1="636.700000" y1="150.000000" x2="636.700000" y2="176.000000"  style="stroke:black; stroke-linecap:round; stroke-width:0.25;"/>
<line x1="636.700000" y1="176.000000" x2="636.700000" y2="176.000000"  style="stroke:black; stroke-linecap:round; stroke-width:0.25;"/>
<line x1="636.700000" y1="176.000000" x2="640.700000" y2="176.000000"  style="stroke:black; stroke-linecap:round; stroke-width:0.25;"/>
<line x1="636.700000" y1="184.000000" x2="640.700000" y2="184.000000"  style="stroke:black; stroke-linecap:round; stroke-width:0.25;"/>
<line x1="640.700000" y1="176.000000" x2="644.700000" y2="176.000000"  style="stroke:black; stroke-linecap:round; stroke-width:0.25;"/>
<line x1="640.700000" y1="184.000000" x2="644.700000" y2="184.000000"  style="stroke:black; stroke-linecap:round; stroke-width:0.25;"/>
<line x1="644.700000" y1="176.000000" x2="654.700000" y2="176.000000"  style="stroke:black; stroke-linecap:round; stroke-width:0.25;"/>
<line x1="644.700000" y1="184.000000" x2="654.700000" y2="184.000000"  style="stroke:black; stroke-linecap:round; stroke-width:0.25;"/>
</svg>
