<?xml version="1.0"?>
<svg xmlns="http://www.w3.org/2000/svg" xmlns:xlink="http://www.w3.org/1999/xlink" viewBox="0 0 455.300000 388.000000" width="227.650000mm" height="194.000000mm" version="1.1">
<a xlink:href="env-0x7f9474834d40.svg">
<rect x="1.000000" y="1.000000" width="454.300000" height="387.000000" rx="0" ry="0" style="stroke:none;fill:#cccccc;"/>
<rect x="0.000000" y="0.000000" width="454.300000" height="387.000000" rx="0" ry="0" style="stroke:none;fill:#ffffff;"/>
</a>
<text x="10.000000" y="7.000000" font-family="Arial" font-size="7"></text>
<rect x="132.650000" y="25.000000" width="24.000000" height="24.000000" rx="0" ry="0" style="stroke:none;fill:#cccccc;"/>
<rect x="131.650000" y="24.000000" width="24.000000" height="24.000000" rx="0" ry="0" style="stroke:none;fill:#47945E;"/>
<text x="143.650000" y="38.000000" font-family="Arial" font-size="7" text-anchor="middle" fill="#FFFFFF">p2</text>
<circle cx="133.650000" cy="26.000000" r="1"/>
<rect x="132.650000" y="57.000000" width="24.000000" height="24.000000" rx="0" ry="0" style="stroke:none;fill:#cccccc;"/>
<rect x="131.650000" y="56.000000" width="24.000000" height="24.000000" rx="0" ry="0" style="stroke:none;fill:#f44800;"/>
<text x="143.650000" y="70.000000" font-family="Arial" font-size="7" text-anchor="middle" fill="#FFFFFF">0</text>
<circle cx="133.650000" cy="58.000000" r="1"/>
<rect x="172.650000" y="41.000000" width="24.000000" height="24.000000" rx="0" ry="0" style="stroke:none;fill:#cccccc;"/>
<rect x="171.650000" y="40.000000" width="24.000000" height="24.000000" rx="0" ry="0" style="stroke:none;fill:#4B71A1;"/>
<text x="183.650000" y="54.000000" font-family="Arial" font-size="7" text-anchor="middle" fill="#FFFFFF">==</text>
<circle cx="173.650000" cy="42.000000" r="1"/>
<line x1="168.650000" y1="47.000000" x2="171.650000" y2="48.000000"  transform="rotate(0.000000,171.650000,48.000000)" style="stroke: black; stroke-width:0.25;"/>
<line x1="168.650000" y1="49.000000" x2="171.650000" y2="48.000000"  transform="rotate(0.000000,171.650000,48.000000)" style="stroke: black; stroke-width:0.25;"/>
<line x1="168.650000" y1="55.000000" x2="171.650000" y2="56.000000"  transform="rotate(0.000000,171.650000,56.000000)" style="stroke: black; stroke-width:0.25;"/>
<line x1="168.650000" y1="57.000000" x2="171.650000" y2="56.000000"  transform="rotate(0.000000,171.650000,56.000000)" style="stroke: black; stroke-width:0.25;"/>
<rect x="35.000000" y="99.000000" width="219.300000" height="24.000000" rx="0" ry="0" style="stroke:none;fill:#cccccc;"/>
<rect x="34.000000" y="98.000000" width="219.300000" height="24.000000" rx="0" ry="0" style="stroke:none;fill:#477881;"/>
<text x="143.650000" y="112.000000" font-family="Arial" font-size="7" text-anchor="middle" fill="#FFFFFF">hslider(h:/ON/OFF Slider, 0.0f, 0.0f, 1.0f, 1.0f)</text>
<circle cx="36.000000" cy="100.000000" r="1"/>
<line x1="25.000000" y1="89.000000" x2="25.000000" y2="131.000000"  style="stroke: black; stroke-linecap:round; stroke-width:0.25; stroke-dasharray:3,3;"/>
<line x1="25.000000" y1="131.000000" x2="262.300000" y2="131.000000"  style="stroke: black; stroke-linecap:round; stroke-width:0.25; stroke-dasharray:3,3;"/>
<line x1="262.300000" y1="131.000000" x2="262.300000" y2="89.000000"  style="stroke: black; stroke-linecap:round; stroke-width:0.25; stroke-dasharray:3,3;"/>
<line x1="25.000000" y1="89.000000" x2="30.000000" y2="89.000000"  style="stroke: black; stroke-linecap:round; stroke-width:0.25; stroke-dasharray:3,3;"/>
<line x1="39.675000" y1="89.000000" x2="262.300000" y2="89.000000"  style="stroke: black; stroke-linecap:round; stroke-width:0.25; stroke-dasharray:3,3;"/>
<text x="30.000000" y="91.000000" font-family="Arial" font-size="7">t</text>
<rect x="132.650000" y="141.000000" width="24.000000" height="24.000000" rx="0" ry="0" style="stroke:none;fill:#cccccc;"/>
<rect x="131.650000" y="140.000000" width="24.000000" height="24.000000" rx="0" ry="0" style="stroke:none;fill:#f44800;"/>
<text x="143.650000" y="154.000000" font-family="Arial" font-size="7" text-anchor="middle" fill="#FFFFFF">0</text>
<circle cx="133.650000" cy="142.000000" r="1"/>
<rect x="280.300000" y="115.000000" width="24.000000" height="24.000000" rx="0" ry="0" style="stroke:none;fill:#cccccc;"/>
<rect x="279.300000" y="114.000000" width="24.000000" height="24.000000" rx="0" ry="0" style="stroke:none;fill:#4B71A1;"/>
<text x="291.300000" y="128.000000" font-family="Arial" font-size="7" text-anchor="middle" fill="#FFFFFF">&gt;</text>
<circle cx="281.300000" cy="116.000000" r="1"/>
<line x1="276.300000" y1="121.000000" x2="279.300000" y2="122.000000"  transform="rotate(0.000000,279.300000,122.000000)" style="stroke: black; stroke-width:0.25;"/>
<line x1="276.300000" y1="123.000000" x2="279.300000" y2="122.000000"  transform="rotate(0.000000,279.300000,122.000000)" style="stroke: black; stroke-width:0.25;"/>
<line x1="276.300000" y1="129.000000" x2="279.300000" y2="130.000000"  transform="rotate(0.000000,279.300000,130.000000)" style="stroke: black; stroke-width:0.25;"/>
<line x1="276.300000" y1="131.000000" x2="279.300000" y2="130.000000"  transform="rotate(0.000000,279.300000,130.000000)" style="stroke: black; stroke-width:0.25;"/>
<rect x="320.300000" y="83.000000" width="24.000000" height="24.000000" rx="0" ry="0" style="stroke:none;fill:#cccccc;"/>
<rect x="319.300000" y="82.000000" width="24.000000" height="24.000000" rx="0" ry="0" style="stroke:none;fill:#4B71A1;"/>
<text x="331.300000" y="96.000000" font-family="Arial" font-size="7" text-anchor="middle" fill="#FFFFFF">&amp;</text>
<circle cx="321.300000" cy="84.000000" r="1"/>
<line x1="316.300000" y1="89.000000" x2="319.300000" y2="90.000000"  transform="rotate(0.000000,319.300000,90.000000)" style="stroke: black; stroke-width:0.25;"/>
<line x1="316.300000" y1="91.000000" x2="319.300000" y2="90.000000"  transform="rotate(0.000000,319.300000,90.000000)" style="stroke: black; stroke-width:0.25;"/>
<line x1="316.300000" y1="97.000000" x2="319.300000" y2="98.000000"  transform="rotate(0.000000,319.300000,98.000000)" style="stroke: black; stroke-width:0.25;"/>
<line x1="316.300000" y1="99.000000" x2="319.300000" y2="98.000000"  transform="rotate(0.000000,319.300000,98.000000)" style="stroke: black; stroke-width:0.25;"/>
<rect x="152.650000" y="173.000000" width="24.000000" height="24.000000" rx="0" ry="0" style="stroke:none;fill:#cccccc;"/>
<rect x="151.650000" y="172.000000" width="24.000000" height="24.000000" rx="0" ry="0" style="stroke:none;fill:#47945E;"/>
<text x="163.650000" y="186.000000" font-family="Arial" font-size="7" text-anchor="middle" fill="#FFFFFF">y</text>
<circle cx="153.650000" cy="174.000000" r="1"/>
<rect x="152.650000" y="215.000000" width="24.000000" height="24.000000" rx="0" ry="0" style="stroke:none;fill:#cccccc;"/>
<rect x="151.650000" y="214.000000" width="24.000000" height="24.000000" rx="0" ry="0" style="stroke:none;fill:#f44800;"/>
<text x="163.650000" y="228.000000" font-family="Arial" font-size="7" text-anchor="middle" fill="#FFFFFF">1</text>
<circle cx="153.650000" cy="216.000000" r="1"/>
<line x1="142.650000" y1="205.000000" x2="142.650000" y2="247.000000"  style="stroke: black; stroke-linecap:round; stroke-width:0.25; stroke-dasharray:3,3;"/>
<line x1="142.650000" y1="247.000000" x2="184.650000" y2="247.000000"  style="stroke: black; stroke-linecap:round; stroke-width:0.25; stroke-dasharray:3,3;"/>
<line x1="184.650000" y1="247.000000" x2="184.650000" y2="205.000000"  style="stroke: black; stroke-linecap:round; stroke-width:0.25; stroke-dasharray:3,3;"/>
<line x1="142.650000" y1="205.000000" x2="147.650000" y2="205.000000"  style="stroke: black; stroke-linecap:round; stroke-width:0.25; stroke-dasharray:3,3;"/>
<line x1="157.325000" y1="205.000000" x2="184.650000" y2="205.000000"  style="stroke: black; stroke-linecap:round; stroke-width:0.25; stroke-dasharray:3,3;"/>
<text x="147.650000" y="207.000000" font-family="Arial" font-size="7">a</text>
<rect x="202.650000" y="199.000000" width="24.000000" height="24.000000" rx="0" ry="0" style="stroke:none;fill:#cccccc;"/>
<rect x="201.650000" y="198.000000" width="24.000000" height="24.000000" rx="0" ry="0" style="stroke:none;fill:#4B71A1;"/>
<text x="213.650000" y="212.000000" font-family="Arial" font-size="7" text-anchor="middle" fill="#FFFFFF">&lt;</text>
<circle cx="203.650000" cy="200.000000" r="1"/>
<line x1="198.650000" y1="205.000000" x2="201.650000" y2="206.000000"  transform="rotate(0.000000,201.650000,206.000000)" style="stroke: black; stroke-width:0.25;"/>
<line x1="198.650000" y1="207.000000" x2="201.650000" y2="206.000000"  transform="rotate(0.000000,201.650000,206.000000)" style="stroke: black; stroke-width:0.25;"/>
<line x1="198.650000" y1="213.000000" x2="201.650000" y2="214.000000"  transform="rotate(0.000000,201.650000,214.000000)" style="stroke: black; stroke-width:0.25;"/>
<line x1="198.650000" y1="215.000000" x2="201.650000" y2="214.000000"  transform="rotate(0.000000,201.650000,214.000000)" style="stroke: black; stroke-width:0.25;"/>
<rect x="360.300000" y="125.000000" width="24.000000" height="24.000000" rx="0" ry="0" style="stroke:none;fill:#cccccc;"/>
<rect x="359.300000" y="124.000000" width="24.000000" height="24.000000" rx="0" ry="0" style="stroke:none;fill:#4B71A1;"/>
<text x="371.300000" y="138.000000" font-family="Arial" font-size="7" text-anchor="middle" fill="#FFFFFF">&amp;</text>
<circle cx="361.300000" cy="126.000000" r="1"/>
<line x1="356.300000" y1="131.000000" x2="359.300000" y2="132.000000"  transform="rotate(0.000000,359.300000,132.000000)" style="stroke: black; stroke-width:0.25;"/>
<line x1="356.300000" y1="133.000000" x2="359.300000" y2="132.000000"  transform="rotate(0.000000,359.300000,132.000000)" style="stroke: black; stroke-width:0.25;"/>
<line x1="356.300000" y1="139.000000" x2="359.300000" y2="140.000000"  transform="rotate(0.000000,359.300000,140.000000)" style="stroke: black; stroke-width:0.25;"/>
<line x1="356.300000" y1="141.000000" x2="359.300000" y2="140.000000"  transform="rotate(0.000000,359.300000,140.000000)" style="stroke: black; stroke-width:0.25;"/>
<rect x="172.650000" y="257.000000" width="24.000000" height="24.000000" rx="0" ry="0" style="stroke:none;fill:#cccccc;"/>
<rect x="171.650000" y="256.000000" width="24.000000" height="24.000000" rx="0" ry="0" style="stroke:none;fill:#47945E;"/>
<text x="183.650000" y="270.000000" font-family="Arial" font-size="7" text-anchor="middle" fill="#FFFFFF">cnt</text>
<circle cx="173.650000" cy="258.000000" r="1"/>
<rect x="151.750000" y="299.000000" width="25.800000" height="24.000000" rx="0" ry="0" style="stroke:none;fill:#cccccc;"/>
<rect x="150.750000" y="298.000000" width="25.800000" height="24.000000" rx="0" ry="0" style="stroke:none;fill:#f44800;"/>
<text x="163.650000" y="312.000000" font-family="Arial" font-size="7" text-anchor="middle" fill="#FFFFFF">0.25</text>
<circle cx="152.750000" cy="300.000000" r="1"/>
<line x1="141.750000" y1="289.000000" x2="141.750000" y2="331.000000"  style="stroke: black; stroke-linecap:round; stroke-width:0.25; stroke-dasharray:3,3;"/>
<line x1="141.750000" y1="331.000000" x2="185.550000" y2="331.000000"  style="stroke: black; stroke-linecap:round; stroke-width:0.25; stroke-dasharray:3,3;"/>
<line x1="185.550000" y1="331.000000" x2="185.550000" y2="289.000000"  style="stroke: black; stroke-linecap:round; stroke-width:0.25; stroke-dasharray:3,3;"/>
<line x1="141.750000" y1="289.000000" x2="146.750000" y2="289.000000"  style="stroke: black; stroke-linecap:round; stroke-width:0.25; stroke-dasharray:3,3;"/>
<line x1="156.425000" y1="289.000000" x2="185.550000" y2="289.000000"  style="stroke: black; stroke-linecap:round; stroke-width:0.25; stroke-dasharray:3,3;"/>
<text x="146.750000" y="291.000000" font-family="Arial" font-size="7">b</text>
<a xlink:href="samplingfreq-0x7f9474911500.svg">
<rect x="138.850000" y="341.000000" width="51.600000" height="24.000000" rx="0" ry="0" style="stroke:none;fill:#cccccc;"/>
<rect x="137.850000" y="340.000000" width="51.600000" height="24.000000" rx="0" ry="0" style="stroke:none;fill:#003366;"/>
</a>
<a xlink:href="samplingfreq-0x7f9474911500.svg">
<text x="163.650000" y="354.000000" font-family="Arial" font-size="7" text-anchor="middle" fill="#FFFFFF">samplingfreq</text>
</a>
<circle cx="139.850000" cy="342.000000" r="1"/>
<rect x="206.450000" y="315.000000" width="24.000000" height="24.000000" rx="0" ry="0" style="stroke:none;fill:#cccccc;"/>
<rect x="205.450000" y="314.000000" width="24.000000" height="24.000000" rx="0" ry="0" style="stroke:none;fill:#4B71A1;"/>
<text x="217.450000" y="328.000000" font-family="Arial" font-size="7" text-anchor="middle" fill="#FFFFFF">*</text>
<circle cx="207.450000" cy="316.000000" r="1"/>
<line x1="202.450000" y1="321.000000" x2="205.450000" y2="322.000000"  transform="rotate(0.000000,205.450000,322.000000)" style="stroke: black; stroke-width:0.25;"/>
<line x1="202.450000" y1="323.000000" x2="205.450000" y2="322.000000"  transform="rotate(0.000000,205.450000,322.000000)" style="stroke: black; stroke-width:0.25;"/>
<line x1="202.450000" y1="329.000000" x2="205.450000" y2="330.000000"  transform="rotate(0.000000,205.450000,330.000000)" style="stroke: black; stroke-width:0.25;"/>
<line x1="202.450000" y1="331.000000" x2="205.450000" y2="330.000000"  transform="rotate(0.000000,205.450000,330.000000)" style="stroke: black; stroke-width:0.25;"/>
<rect x="246.450000" y="299.000000" width="24.000000" height="24.000000" rx="0" ry="0" style="stroke:none;fill:#cccccc;"/>
<rect x="245.450000" y="298.000000" width="24.000000" height="24.000000" rx="0" ry="0" style="stroke:none;fill:#4B71A1;"/>
<text x="257.450000" y="312.000000" font-family="Arial" font-size="7" text-anchor="middle" fill="#FFFFFF">&gt;</text>
<circle cx="247.450000" cy="300.000000" r="1"/>
<line x1="242.450000" y1="305.000000" x2="245.450000" y2="306.000000"  transform="rotate(0.000000,245.450000,306.000000)" style="stroke: black; stroke-width:0.25;"/>
<line x1="242.450000" y1="307.000000" x2="245.450000" y2="306.000000"  transform="rotate(0.000000,245.450000,306.000000)" style="stroke: black; stroke-width:0.25;"/>
<line x1="242.450000" y1="313.000000" x2="245.450000" y2="314.000000"  transform="rotate(0.000000,245.450000,314.000000)" style="stroke: black; stroke-width:0.25;"/>
<line x1="242.450000" y1="315.000000" x2="245.450000" y2="314.000000"  transform="rotate(0.000000,245.450000,314.000000)" style="stroke: black; stroke-width:0.25;"/>
<rect x="400.300000" y="183.000000" width="24.000000" height="24.000000" rx="0" ry="0" style="stroke:none;fill:#cccccc;"/>
<rect x="399.300000" y="182.000000" width="24.000000" height="24.000000" rx="0" ry="0" style="stroke:none;fill:#4B71A1;"/>
<text x="411.300000" y="196.000000" font-family="Arial" font-size="7" text-anchor="middle" fill="#FFFFFF">&amp;</text>
<circle cx="401.300000" cy="184.000000" r="1"/>
<line x1="396.300000" y1="189.000000" x2="399.300000" y2="190.000000"  transform="rotate(0.000000,399.300000,190.000000)" style="stroke: black; stroke-width:0.25;"/>
<line x1="396.300000" y1="191.000000" x2="399.300000" y2="190.000000"  transform="rotate(0.000000,399.300000,190.000000)" style="stroke: black; stroke-width:0.25;"/>
<line x1="396.300000" y1="197.000000" x2="399.300000" y2="198.000000"  transform="rotate(0.000000,399.300000,198.000000)" style="stroke: black; stroke-width:0.25;"/>
<line x1="396.300000" y1="199.000000" x2="399.300000" y2="198.000000"  transform="rotate(0.000000,399.300000,198.000000)" style="stroke: black; stroke-width:0.25;"/>
<line x1="15.000000" y1="15.000000" x2="15.000000" y2="373.000000"  style="stroke: black; stroke-linecap:round; stroke-width:0.25; stroke-dasharray:3,3;"/>
<line x1="15.000000" y1="373.000000" x2="440.300000" y2="373.000000"  style="stroke: black; stroke-linecap:round; stroke-width:0.25; stroke-dasharray:3,3;"/>
<line x1="440.300000" y1="373.000000" x2="440.300000" y2="15.000000"  style="stroke: black; stroke-linecap:round; stroke-width:0.25; stroke-dasharray:3,3;"/>
<line x1="15.000000" y1="15.000000" x2="20.000000" y2="15.000000"  style="stroke: black; stroke-linecap:round; stroke-width:0.25; stroke-dasharray:3,3;"/>
<line x1="32.900000" y1="15.000000" x2="440.300000" y2="15.000000"  style="stroke: black; stroke-linecap:round; stroke-width:0.25; stroke-dasharray:3,3;"/>
<text x="20.000000" y="17.000000" font-family="Arial" font-size="7">p1</text>
<line x1="442.300000" y1="193.000000" x2="445.300000" y2="194.000000"  transform="rotate(0.000000,445.300000,194.000000)" style="stroke: black; stroke-width:0.25;"/>
<line x1="442.300000" y1="195.000000" x2="445.300000" y2="194.000000"  transform="rotate(0.000000,445.300000,194.000000)" style="stroke: black; stroke-width:0.25;"/>
<line x1="155.650000" y1="36.000000" x2="159.650000" y2="36.000000"  style="stroke:black; stroke-linecap:round; stroke-width:0.25;"/>
<line x1="155.650000" y1="68.000000" x2="159.650000" y2="68.000000"  style="stroke:black; stroke-linecap:round; stroke-width:0.25;"/>
<line x1="155.650000" y1="152.000000" x2="159.650000" y2="152.000000"  style="stroke:black; stroke-linecap:round; stroke-width:0.25;"/>
<line x1="159.650000" y1="36.000000" x2="167.650000" y2="36.000000"  style="stroke:black; stroke-linecap:round; stroke-width:0.25;"/>
<line x1="159.650000" y1="56.000000" x2="167.650000" y2="56.000000"  style="stroke:black; stroke-linecap:round; stroke-width:0.25;"/>
<line x1="159.650000" y1="68.000000" x2="159.650000" y2="56.000000"  style="stroke:black; stroke-linecap:round; stroke-width:0.25;"/>
<line x1="159.650000" y1="68.000000" x2="159.650000" y2="68.000000"  style="stroke:black; stroke-linecap:round; stroke-width:0.25;"/>
<line x1="159.650000" y1="152.000000" x2="267.300000" y2="152.000000"  style="stroke:black; stroke-linecap:round; stroke-width:0.25;"/>
<line x1="167.650000" y1="36.000000" x2="167.650000" y2="48.000000"  style="stroke:black; stroke-linecap:round; stroke-width:0.25;"/>
<line x1="167.650000" y1="48.000000" x2="167.650000" y2="48.000000"  style="stroke:black; stroke-linecap:round; stroke-width:0.25;"/>
<line x1="167.650000" y1="48.000000" x2="171.650000" y2="48.000000"  style="stroke:black; stroke-linecap:round; stroke-width:0.25;"/>
<line x1="167.650000" y1="56.000000" x2="171.650000" y2="56.000000"  style="stroke:black; stroke-linecap:round; stroke-width:0.25;"/>
<line x1="175.650000" y1="184.000000" x2="179.650000" y2="184.000000"  style="stroke:black; stroke-linecap:round; stroke-width:0.25;"/>
<line x1="175.650000" y1="226.000000" x2="179.650000" y2="226.000000"  style="stroke:black; stroke-linecap:round; stroke-width:0.25;"/>
<line x1="176.550000" y1="310.000000" x2="180.550000" y2="310.000000"  style="stroke:black; stroke-linecap:round; stroke-width:0.25;"/>
<line x1="179.650000" y1="184.000000" x2="189.650000" y2="184.000000"  style="stroke:black; stroke-linecap:round; stroke-width:0.25;"/>
<line x1="179.650000" y1="226.000000" x2="189.650000" y2="226.000000"  style="stroke:black; stroke-linecap:round; stroke-width:0.25;"/>
<line x1="180.550000" y1="310.000000" x2="190.550000" y2="310.000000"  style="stroke:black; stroke-linecap:round; stroke-width:0.25;"/>
<line x1="189.450000" y1="352.000000" x2="193.450000" y2="352.000000"  style="stroke:black; stroke-linecap:round; stroke-width:0.25;"/>
<line x1="189.650000" y1="184.000000" x2="197.650000" y2="184.000000"  style="stroke:black; stroke-linecap:round; stroke-width:0.25;"/>
<line x1="189.650000" y1="214.000000" x2="197.650000" y2="214.000000"  style="stroke:black; stroke-linecap:round; stroke-width:0.25;"/>
<line x1="189.650000" y1="226.000000" x2="189.650000" y2="214.000000"  style="stroke:black; stroke-linecap:round; stroke-width:0.25;"/>
<line x1="189.650000" y1="226.000000" x2="189.650000" y2="226.000000"  style="stroke:black; stroke-linecap:round; stroke-width:0.25;"/>
<line x1="190.550000" y1="310.000000" x2="193.450000" y2="310.000000"  style="stroke:black; stroke-linecap:round; stroke-width:0.25;"/>
<line x1="193.450000" y1="310.000000" x2="201.450000" y2="310.000000"  style="stroke:black; stroke-linecap:round; stroke-width:0.25;"/>
<line x1="193.450000" y1="330.000000" x2="201.450000" y2="330.000000"  style="stroke:black; stroke-linecap:round; stroke-width:0.25;"/>
<line x1="193.450000" y1="352.000000" x2="193.450000" y2="330.000000"  style="stroke:black; stroke-linecap:round; stroke-width:0.25;"/>
<line x1="193.450000" y1="352.000000" x2="193.450000" y2="352.000000"  style="stroke:black; stroke-linecap:round; stroke-width:0.25;"/>
<line x1="195.650000" y1="52.000000" x2="199.650000" y2="52.000000"  style="stroke:black; stroke-linecap:round; stroke-width:0.25;"/>
<line x1="195.650000" y1="268.000000" x2="199.650000" y2="268.000000"  style="stroke:black; stroke-linecap:round; stroke-width:0.25;"/>
<line x1="197.650000" y1="184.000000" x2="197.650000" y2="206.000000"  style="stroke:black; stroke-linecap:round; stroke-width:0.25;"/>
<line x1="197.650000" y1="206.000000" x2="197.650000" y2="206.000000"  style="stroke:black; stroke-linecap:round; stroke-width:0.25;"/>
<line x1="197.650000" y1="206.000000" x2="201.650000" y2="206.000000"  style="stroke:black; stroke-linecap:round; stroke-width:0.25;"/>
<line x1="197.650000" y1="214.000000" x2="201.650000" y2="214.000000"  style="stroke:black; stroke-linecap:round; stroke-width:0.25;"/>
<line x1="199.650000" y1="52.000000" x2="307.300000" y2="52.000000"  style="stroke:black; stroke-linecap:round; stroke-width:0.25;"/>
<line x1="199.650000" y1="268.000000" x2="233.450000" y2="268.000000"  style="stroke:black; stroke-linecap:round; stroke-width:0.25;"/>
<line x1="201.450000" y1="310.000000" x2="201.450000" y2="322.000000"  style="stroke:black; stroke-linecap:round; stroke-width:0.25;"/>
<line x1="201.450000" y1="322.000000" x2="201.450000" y2="322.000000"  style="stroke:black; stroke-linecap:round; stroke-width:0.25;"/>
<line x1="201.450000" y1="322.000000" x2="205.450000" y2="322.000000"  style="stroke:black; stroke-linecap:round; stroke-width:0.25;"/>
<line x1="201.450000" y1="330.000000" x2="205.450000" y2="330.000000"  style="stroke:black; stroke-linecap:round; stroke-width:0.25;"/>
<line x1="225.650000" y1="210.000000" x2="229.650000" y2="210.000000"  style="stroke:black; stroke-linecap:round; stroke-width:0.25;"/>
<line x1="229.450000" y1="326.000000" x2="233.450000" y2="326.000000"  style="stroke:black; stroke-linecap:round; stroke-width:0.25;"/>
<line x1="229.650000" y1="210.000000" x2="347.300000" y2="210.000000"  style="stroke:black; stroke-linecap:round; stroke-width:0.25;"/>
<line x1="233.450000" y1="314.000000" x2="241.450000" y2="314.000000"  style="stroke:black; stroke-linecap:round; stroke-width:0.25;"/>
<line x1="233.450000" y1="326.000000" x2="233.450000" y2="314.000000"  style="stroke:black; stroke-linecap:round; stroke-width:0.25;"/>
<line x1="233.450000" y1="326.000000" x2="233.450000" y2="326.000000"  style="stroke:black; stroke-linecap:round; stroke-width:0.25;"/>
<line x1="233.450000" y1="268.000000" x2="241.450000" y2="268.000000"  style="stroke:black; stroke-linecap:round; stroke-width:0.25;"/>
<line x1="241.450000" y1="306.000000" x2="245.450000" y2="306.000000"  style="stroke:black; stroke-linecap:round; stroke-width:0.25;"/>
<line x1="241.450000" y1="314.000000" x2="245.450000" y2="314.000000"  style="stroke:black; stroke-linecap:round; stroke-width:0.25;"/>
<line x1="241.450000" y1="268.000000" x2="241.450000" y2="306.000000"  style="stroke:black; stroke-linecap:round; stroke-width:0.25;"/>
<line x1="241.450000" y1="306.000000" x2="241.450000" y2="306.000000"  style="stroke:black; stroke-linecap:round; stroke-width:0.25;"/>
<line x1="253.300000" y1="110.000000" x2="257.300000" y2="110.000000"  style="stroke:black; stroke-linecap:round; stroke-width:0.25;"/>
<line x1="257.300000" y1="110.000000" x2="267.300000" y2="110.000000"  style="stroke:black; stroke-linecap:round; stroke-width:0.25;"/>
<line x1="267.300000" y1="110.000000" x2="275.300000" y2="110.000000"  style="stroke:black; stroke-linecap:round; stroke-width:0.25;"/>
<line x1="267.300000" y1="130.000000" x2="275.300000" y2="130.000000"  style="stroke:black; stroke-linecap:round; stroke-width:0.25;"/>
<line x1="267.300000" y1="152.000000" x2="267.300000" y2="130.000000"  style="stroke:black; stroke-linecap:round; stroke-width:0.25;"/>
<line x1="267.300000" y1="152.000000" x2="267.300000" y2="152.000000"  style="stroke:black; stroke-linecap:round; stroke-width:0.25;"/>
<line x1="269.450000" y1="310.000000" x2="273.450000" y2="310.000000"  style="stroke:black; stroke-linecap:round; stroke-width:0.25;"/>
<line x1="273.450000" y1="310.000000" x2="387.300000" y2="310.000000"  style="stroke:black; stroke-linecap:round; stroke-width:0.25;"/>
<line x1="275.300000" y1="110.000000" x2="275.300000" y2="122.000000"  style="stroke:black; stroke-linecap:round; stroke-width:0.25;"/>
<line x1="275.300000" y1="122.000000" x2="275.300000" y2="122.000000"  style="stroke:black; stroke-linecap:round; stroke-width:0.25;"/>
<line x1="275.300000" y1="122.000000" x2="279.300000" y2="122.000000"  style="stroke:black; stroke-linecap:round; stroke-width:0.25;"/>
<line x1="275.300000" y1="130.000000" x2="279.300000" y2="130.000000"  style="stroke:black; stroke-linecap:round; stroke-width:0.25;"/>
<line x1="303.300000" y1="126.000000" x2="307.300000" y2="126.000000"  style="stroke:black; stroke-linecap:round; stroke-width:0.25;"/>
<line x1="307.300000" y1="52.000000" x2="315.300000" y2="52.000000"  style="stroke:black; stroke-linecap:round; stroke-width:0.25;"/>
<line x1="307.300000" y1="98.000000" x2="315.300000" y2="98.000000"  style="stroke:black; stroke-linecap:round; stroke-width:0.25;"/>
<line x1="307.300000" y1="126.000000" x2="307.300000" y2="98.000000"  style="stroke:black; stroke-linecap:round; stroke-width:0.25;"/>
<line x1="307.300000" y1="126.000000" x2="307.300000" y2="126.000000"  style="stroke:black; stroke-linecap:round; stroke-width:0.25;"/>
<line x1="315.300000" y1="52.000000" x2="315.300000" y2="90.000000"  style="stroke:black; stroke-linecap:round; stroke-width:0.25;"/>
<line x1="315.300000" y1="90.000000" x2="315.300000" y2="90.000000"  style="stroke:black; stroke-linecap:round; stroke-width:0.25;"/>
<line x1="315.300000" y1="90.000000" x2="319.300000" y2="90.000000"  style="stroke:black; stroke-linecap:round; stroke-width:0.25;"/>
<line x1="315.300000" y1="98.000000" x2="319.300000" y2="98.000000"  style="stroke:black; stroke-linecap:round; stroke-width:0.25;"/>
<line x1="343.300000" y1="94.000000" x2="347.300000" y2="94.000000"  style="stroke:black; stroke-linecap:round; stroke-width:0.25;"/>
<line x1="347.300000" y1="94.000000" x2="355.300000" y2="94.000000"  style="stroke:black; stroke-linecap:round; stroke-width:0.25;"/>
<line x1="347.300000" y1="140.000000" x2="355.300000" y2="140.000000"  style="stroke:black; stroke-linecap:round; stroke-width:0.25;"/>
<line x1="347.300000" y1="210.000000" x2="347.300000" y2="140.000000"  style="stroke:black; stroke-linecap:round; stroke-width:0.25;"/>
<line x1="347.300000" y1="210.000000" x2="347.300000" y2="210.000000"  style="stroke:black; stroke-linecap:round; stroke-width:0.25;"/>
<line x1="355.300000" y1="94.000000" x2="355.300000" y2="132.000000"  style="stroke:black; stroke-linecap:round; stroke-width:0.25;"/>
<line x1="355.300000" y1="132.000000" x2="355.300000" y2="132.000000"  style="stroke:black; stroke-linecap:round; stroke-width:0.25;"/>
<line x1="355.300000" y1="132.000000" x2="359.300000" y2="132.000000"  style="stroke:black; stroke-linecap:round; stroke-width:0.25;"/>
<line x1="355.300000" y1="140.000000" x2="359.300000" y2="140.000000"  style="stroke:black; stroke-linecap:round; stroke-width:0.25;"/>
<line x1="383.300000" y1="136.000000" x2="387.300000" y2="136.000000"  style="stroke:black; stroke-linecap:round; stroke-width:0.25;"/>
<line x1="387.300000" y1="198.000000" x2="395.300000" y2="198.000000"  style="stroke:black; stroke-linecap:round; stroke-width:0.25;"/>
<line x1="387.300000" y1="310.000000" x2="387.300000" y2="198.000000"  style="stroke:black; stroke-linecap:round; stroke-width:0.25;"/>
<line x1="387.300000" y1="310.000000" x2="387.300000" y2="310.000000"  style="stroke:black; stroke-linecap:round; stroke-width:0.25;"/>
<line x1="387.300000" y1="136.000000" x2="395.300000" y2="136.000000"  style="stroke:black; stroke-linecap:round; stroke-width:0.25;"/>
<line x1="395.300000" y1="136.000000" x2="395.300000" y2="190.000000"  style="stroke:black; stroke-linecap:round; stroke-width:0.25;"/>
<line x1="395.300000" y1="190.000000" x2="395.300000" y2="190.000000"  style="stroke:black; stroke-linecap:round; stroke-width:0.25;"/>
<line x1="395.300000" y1="190.000000" x2="399.300000" y2="190.000000"  style="stroke:black; stroke-linecap:round; stroke-width:0.25;"/>
<line x1="395.300000" y1="198.000000" x2="399.300000" y2="198.000000"  style="stroke:black; stroke-linecap:round; stroke-width:0.25;"/>
<line x1="423.300000" y1="194.000000" x2="427.300000" y2="194.000000"  style="stroke:black; stroke-linecap:round; stroke-width:0.25;"/>
<line x1="427.300000" y1="194.000000" x2="427.300000" y2="194.000000"  style="stroke:black; stroke-linecap:round; stroke-width:0.25;"/>
<line x1="427.300000" y1="194.000000" x2="431.300000" y2="194.000000"  style="stroke:black; stroke-linecap:round; stroke-width:0.25;"/>
<line x1="431.300000" y1="194.000000" x2="435.300000" y2="194.000000"  style="stroke:black; stroke-linecap:round; stroke-width:0.25;"/>
<line x1="435.300000" y1="194.000000" x2="445.300000" y2="194.000000"  style="stroke:black; stroke-linecap:round; stroke-width:0.25;"/>
</svg>
