<?xml version="1.0"?>
<svg xmlns="http://www.w3.org/2000/svg" xmlns:xlink="http://www.w3.org/1999/xlink" viewBox="0 0 208.500000 112.000000" width="104.250000mm" height="56.000000mm" version="1.1">
<a xlink:href="countfrom-0x7fb0798803a0.svg">
<rect x="1.000000" y="1.000000" width="207.500000" height="111.000000" rx="0" ry="0" style="stroke:none;fill:#cccccc;"/>
<rect x="0.000000" y="0.000000" width="207.500000" height="111.000000" rx="0" ry="0" style="stroke:none;fill:#ffffff;"/>
</a>
<text x="10.000000" y="7.000000" font-family="Arial" font-size="7"></text>
<a xlink:href="clock-0x7fb079873d90.svg">
<rect x="33.000000" y="25.000000" width="25.800000" height="24.000000" rx="0" ry="0" style="stroke:none;fill:#cccccc;"/>
<rect x="32.000000" y="24.000000" width="25.800000" height="24.000000" rx="0" ry="0" style="stroke:none;fill:#003366;"/>
</a>
<a xlink:href="clock-0x7fb079873d90.svg">
<text x="44.900000" y="38.000000" font-family="Arial" font-size="7" text-anchor="middle" fill="#FFFFFF">clock</text>
</a>
<circle cx="34.000000" cy="26.000000" r="1"/>
<rect x="66.800000" y="25.000000" width="24.000000" height="24.000000" rx="0" ry="0" style="stroke:none;fill:#cccccc;"/>
<rect x="65.800000" y="24.000000" width="24.000000" height="24.000000" rx="0" ry="0" style="stroke:none;fill:#4B71A1;"/>
<text x="77.800000" y="38.000000" font-family="Arial" font-size="7" text-anchor="middle" fill="#FFFFFF">int</text>
<circle cx="67.800000" cy="26.000000" r="1"/>
<line x1="62.800000" y1="35.000000" x2="65.800000" y2="36.000000"  transform="rotate(0.000000,65.800000,36.000000)" style="stroke: black; stroke-width:0.25;"/>
<line x1="62.800000" y1="37.000000" x2="65.800000" y2="36.000000"  transform="rotate(0.000000,65.800000,36.000000)" style="stroke: black; stroke-width:0.25;"/>
<rect x="98.800000" y="25.000000" width="24.000000" height="24.000000" rx="0" ry="0" style="stroke:none;fill:#cccccc;"/>
<rect x="97.800000" y="24.000000" width="24.000000" height="24.000000" rx="0" ry="0" style="stroke:none;fill:#4B71A1;"/>
<text x="109.800000" y="38.000000" font-family="Arial" font-size="7" text-anchor="middle" fill="#FFFFFF">mem</text>
<circle cx="99.800000" cy="26.000000" r="1"/>
<line x1="94.800000" y1="35.000000" x2="97.800000" y2="36.000000"  transform="rotate(0.000000,97.800000,36.000000)" style="stroke: black; stroke-width:0.25;"/>
<line x1="94.800000" y1="37.000000" x2="97.800000" y2="36.000000"  transform="rotate(0.000000,97.800000,36.000000)" style="stroke: black; stroke-width:0.25;"/>
<rect x="65.900000" y="65.000000" width="24.000000" height="24.000000" rx="0" ry="0" style="stroke:none;fill:#cccccc;"/>
<rect x="64.900000" y="64.000000" width="24.000000" height="24.000000" rx="0" ry="0" style="stroke:none;fill:#f44800;"/>
<text x="76.900000" y="78.000000" font-family="Arial" font-size="7" text-anchor="middle" fill="#FFFFFF">0</text>
<circle cx="66.900000" cy="66.000000" r="1"/>
<rect x="138.800000" y="45.000000" width="38.700000" height="24.000000" rx="0" ry="0" style="stroke:none;fill:#cccccc;"/>
<rect x="137.800000" y="44.000000" width="38.700000" height="24.000000" rx="0" ry="0" style="stroke:none;fill:#4B71A1;"/>
<text x="157.150000" y="58.000000" font-family="Arial" font-size="7" text-anchor="middle" fill="#FFFFFF">select2</text>
<circle cx="139.800000" cy="46.000000" r="1"/>
<line x1="134.800000" y1="47.000000" x2="137.800000" y2="48.000000"  transform="rotate(0.000000,137.800000,48.000000)" style="stroke: black; stroke-width:0.25;"/>
<line x1="134.800000" y1="49.000000" x2="137.800000" y2="48.000000"  transform="rotate(0.000000,137.800000,48.000000)" style="stroke: black; stroke-width:0.25;"/>
<line x1="134.800000" y1="55.000000" x2="137.800000" y2="56.000000"  transform="rotate(0.000000,137.800000,56.000000)" style="stroke: black; stroke-width:0.25;"/>
<line x1="134.800000" y1="57.000000" x2="137.800000" y2="56.000000"  transform="rotate(0.000000,137.800000,56.000000)" style="stroke: black; stroke-width:0.25;"/>
<line x1="134.800000" y1="63.000000" x2="137.800000" y2="64.000000"  transform="rotate(0.000000,137.800000,64.000000)" style="stroke: black; stroke-width:0.25;"/>
<line x1="134.800000" y1="65.000000" x2="137.800000" y2="64.000000"  transform="rotate(0.000000,137.800000,64.000000)" style="stroke: black; stroke-width:0.25;"/>
<line x1="15.000000" y1="15.000000" x2="15.000000" y2="97.000000"  style="stroke: black; stroke-linecap:round; stroke-width:0.25; stroke-dasharray:3,3;"/>
<line x1="15.000000" y1="97.000000" x2="193.500000" y2="97.000000"  style="stroke: black; stroke-linecap:round; stroke-width:0.25; stroke-dasharray:3,3;"/>
<line x1="193.500000" y1="97.000000" x2="193.500000" y2="15.000000"  style="stroke: black; stroke-linecap:round; stroke-width:0.25; stroke-dasharray:3,3;"/>
<line x1="15.000000" y1="15.000000" x2="20.000000" y2="15.000000"  style="stroke: black; stroke-linecap:round; stroke-width:0.25; stroke-dasharray:3,3;"/>
<line x1="139.325000" y1="15.000000" x2="193.500000" y2="15.000000"  style="stroke: black; stroke-linecap:round; stroke-width:0.25; stroke-dasharray:3,3;"/>
<text x="20.000000" y="17.000000" font-family="Arial" font-size="7">if((_,((60,(1... : int : mem)(0)(_)</text>
<line x1="195.500000" y1="55.000000" x2="198.500000" y2="56.000000"  transform="rotate(0.000000,198.500000,56.000000)" style="stroke: black; stroke-width:0.25;"/>
<line x1="195.500000" y1="57.000000" x2="198.500000" y2="56.000000"  transform="rotate(0.000000,198.500000,56.000000)" style="stroke: black; stroke-width:0.25;"/>
<line x1="10.000000" y1="56.000000" x2="20.000000" y2="56.000000"  style="stroke:black; stroke-linecap:round; stroke-width:0.25;"/>
<line x1="20.000000" y1="56.000000" x2="24.000000" y2="56.000000"  style="stroke:black; stroke-linecap:round; stroke-width:0.25;"/>
<line x1="24.000000" y1="56.000000" x2="28.000000" y2="56.000000"  style="stroke:black; stroke-linecap:round; stroke-width:0.25;"/>
<line x1="28.000000" y1="56.000000" x2="28.000000" y2="56.000000"  style="stroke:black; stroke-linecap:round; stroke-width:0.25;"/>
<line x1="28.000000" y1="56.000000" x2="60.900000" y2="56.000000"  style="stroke:black; stroke-linecap:round; stroke-width:0.25;"/>
<line x1="57.800000" y1="36.000000" x2="61.800000" y2="36.000000"  style="stroke:black; stroke-linecap:round; stroke-width:0.25;"/>
<line x1="60.900000" y1="56.000000" x2="76.900000" y2="56.000000"  style="stroke:black; stroke-linecap:round; stroke-width:0.25;"/>
<line x1="61.800000" y1="36.000000" x2="61.800000" y2="36.000000"  style="stroke:black; stroke-linecap:round; stroke-width:0.25;"/>
<line x1="61.800000" y1="36.000000" x2="65.800000" y2="36.000000"  style="stroke:black; stroke-linecap:round; stroke-width:0.25;"/>
<line x1="76.900000" y1="56.000000" x2="92.900000" y2="56.000000"  style="stroke:black; stroke-linecap:round; stroke-width:0.25;"/>
<line x1="88.900000" y1="76.000000" x2="92.900000" y2="76.000000"  style="stroke:black; stroke-linecap:round; stroke-width:0.25;"/>
<line x1="89.800000" y1="36.000000" x2="93.800000" y2="36.000000"  style="stroke:black; stroke-linecap:round; stroke-width:0.25;"/>
<line x1="92.900000" y1="56.000000" x2="125.800000" y2="56.000000"  style="stroke:black; stroke-linecap:round; stroke-width:0.25;"/>
<line x1="92.900000" y1="76.000000" x2="125.800000" y2="76.000000"  style="stroke:black; stroke-linecap:round; stroke-width:0.25;"/>
<line x1="93.800000" y1="36.000000" x2="93.800000" y2="36.000000"  style="stroke:black; stroke-linecap:round; stroke-width:0.25;"/>
<line x1="93.800000" y1="36.000000" x2="97.800000" y2="36.000000"  style="stroke:black; stroke-linecap:round; stroke-width:0.25;"/>
<line x1="121.800000" y1="36.000000" x2="125.800000" y2="36.000000"  style="stroke:black; stroke-linecap:round; stroke-width:0.25;"/>
<line x1="125.800000" y1="36.000000" x2="133.800000" y2="36.000000"  style="stroke:black; stroke-linecap:round; stroke-width:0.25;"/>
<line x1="125.800000" y1="56.000000" x2="133.800000" y2="56.000000"  style="stroke:black; stroke-linecap:round; stroke-width:0.25;"/>
<line x1="125.800000" y1="64.000000" x2="133.800000" y2="64.000000"  style="stroke:black; stroke-linecap:round; stroke-width:0.25;"/>
<line x1="125.800000" y1="76.000000" x2="125.800000" y2="64.000000"  style="stroke:black; stroke-linecap:round; stroke-width:0.25;"/>
<line x1="125.800000" y1="76.000000" x2="125.800000" y2="76.000000"  style="stroke:black; stroke-linecap:round; stroke-width:0.25;"/>
<line x1="133.800000" y1="36.000000" x2="133.800000" y2="48.000000"  style="stroke:black; stroke-linecap:round; stroke-width:0.25;"/>
<line x1="133.800000" y1="48.000000" x2="133.800000" y2="48.000000"  style="stroke:black; stroke-linecap:round; stroke-width:0.25;"/>
<line x1="133.800000" y1="48.000000" x2="137.800000" y2="48.000000"  style="stroke:black; stroke-linecap:round; stroke-width:0.25;"/>
<line x1="133.800000" y1="56.000000" x2="137.800000" y2="56.000000"  style="stroke:black; stroke-linecap:round; stroke-width:0.25;"/>
<line x1="133.800000" y1="64.000000" x2="137.800000" y2="64.000000"  style="stroke:black; stroke-linecap:round; stroke-width:0.25;"/>
<line x1="176.500000" y1="56.000000" x2="180.500000" y2="56.000000"  style="stroke:black; stroke-linecap:round; stroke-width:0.25;"/>
<line x1="180.500000" y1="56.000000" x2="180.500000" y2="56.000000"  style="stroke:black; stroke-linecap:round; stroke-width:0.25;"/>
<line x1="180.500000" y1="56.000000" x2="184.500000" y2="56.000000"  style="stroke:black; stroke-linecap:round; stroke-width:0.25;"/>
<line x1="184.500000" y1="56.000000" x2="188.500000" y2="56.000000"  style="stroke:black; stroke-linecap:round; stroke-width:0.25;"/>
<line x1="188.500000" y1="56.000000" x2="198.500000" y2="56.000000"  style="stroke:black; stroke-linecap:round; stroke-width:0.25;"/>
</svg>
