<?xml version="1.0"?>
<svg xmlns="http://www.w3.org/2000/svg" xmlns:xlink="http://www.w3.org/1999/xlink" viewBox="0 0 277.800000 108.000000" width="138.900000mm" height="54.000000mm" version="1.1">
<a xlink:href="automat-0x7fb078694f70.svg">
<rect x="1.000000" y="1.000000" width="276.800000" height="107.000000" rx="0" ry="0" style="stroke:none;fill:#cccccc;"/>
<rect x="0.000000" y="0.000000" width="276.800000" height="107.000000" rx="0" ry="0" style="stroke:none;fill:#ffffff;"/>
</a>
<text x="10.000000" y="7.000000" font-family="Arial" font-size="7"></text>
<a xlink:href="clock-0x7fb07867a460.svg">
<rect x="25.000000" y="43.000000" width="25.800000" height="24.000000" rx="0" ry="0" style="stroke:none;fill:#cccccc;"/>
<rect x="24.000000" y="42.000000" width="25.800000" height="24.000000" rx="0" ry="0" style="stroke:none;fill:#003366;"/>
</a>
<a xlink:href="clock-0x7fb07867a460.svg">
<text x="36.900000" y="56.000000" font-family="Arial" font-size="7" text-anchor="middle" fill="#FFFFFF">clock</text>
</a>
<circle cx="26.000000" cy="44.000000" r="1"/>
<rect x="58.800000" y="43.000000" width="24.000000" height="24.000000" rx="0" ry="0" style="stroke:none;fill:#cccccc;"/>
<rect x="57.800000" y="42.000000" width="24.000000" height="24.000000" rx="0" ry="0" style="stroke:none;fill:#4B71A1;"/>
<text x="69.800000" y="56.000000" font-family="Arial" font-size="7" text-anchor="middle" fill="#FFFFFF">int</text>
<circle cx="59.800000" cy="44.000000" r="1"/>
<line x1="54.800000" y1="53.000000" x2="57.800000" y2="54.000000"  transform="rotate(0.000000,57.800000,54.000000)" style="stroke: black; stroke-width:0.25;"/>
<line x1="54.800000" y1="55.000000" x2="57.800000" y2="54.000000"  transform="rotate(0.000000,57.800000,54.000000)" style="stroke: black; stroke-width:0.25;"/>
<rect x="106.800000" y="47.000000" width="24.000000" height="24.000000" rx="0" ry="0" style="stroke:none;fill:#cccccc;"/>
<rect x="105.800000" y="46.000000" width="24.000000" height="24.000000" rx="0" ry="0" style="stroke:none;fill:#4B71A1;"/>
<text x="117.800000" y="60.000000" font-family="Arial" font-size="7" text-anchor="middle" fill="#FFFFFF">+</text>
<circle cx="107.800000" cy="48.000000" r="1"/>
<line x1="102.800000" y1="53.000000" x2="105.800000" y2="54.000000"  transform="rotate(0.000000,105.800000,54.000000)" style="stroke: black; stroke-width:0.25;"/>
<line x1="102.800000" y1="55.000000" x2="105.800000" y2="54.000000"  transform="rotate(0.000000,105.800000,54.000000)" style="stroke: black; stroke-width:0.25;"/>
<line x1="102.800000" y1="61.000000" x2="105.800000" y2="62.000000"  transform="rotate(0.000000,105.800000,62.000000)" style="stroke: black; stroke-width:0.25;"/>
<line x1="102.800000" y1="63.000000" x2="105.800000" y2="62.000000"  transform="rotate(0.000000,105.800000,62.000000)" style="stroke: black; stroke-width:0.25;"/>
<rect x="156.800000" y="51.000000" width="24.000000" height="24.000000" rx="0" ry="0" style="stroke:none;fill:#cccccc;"/>
<rect x="155.800000" y="50.000000" width="24.000000" height="24.000000" rx="0" ry="0" style="stroke:none;fill:#f44800;"/>
<text x="167.800000" y="64.000000" font-family="Arial" font-size="7" text-anchor="middle" fill="#FFFFFF">15</text>
<circle cx="157.800000" cy="52.000000" r="1"/>
<line x1="146.800000" y1="41.000000" x2="146.800000" y2="83.000000"  style="stroke: black; stroke-linecap:round; stroke-width:0.25; stroke-dasharray:3,3;"/>
<line x1="146.800000" y1="83.000000" x2="188.800000" y2="83.000000"  style="stroke: black; stroke-linecap:round; stroke-width:0.25; stroke-dasharray:3,3;"/>
<line x1="188.800000" y1="83.000000" x2="188.800000" y2="41.000000"  style="stroke: black; stroke-linecap:round; stroke-width:0.25; stroke-dasharray:3,3;"/>
<line x1="146.800000" y1="41.000000" x2="151.800000" y2="41.000000"  style="stroke: black; stroke-linecap:round; stroke-width:0.25; stroke-dasharray:3,3;"/>
<line x1="167.925000" y1="41.000000" x2="188.800000" y2="41.000000"  style="stroke: black; stroke-linecap:round; stroke-width:0.25; stroke-dasharray:3,3;"/>
<text x="151.800000" y="43.000000" font-family="Arial" font-size="7">CCY</text>
<rect x="206.800000" y="47.000000" width="24.000000" height="24.000000" rx="0" ry="0" style="stroke:none;fill:#cccccc;"/>
<rect x="205.800000" y="46.000000" width="24.000000" height="24.000000" rx="0" ry="0" style="stroke:none;fill:#4B71A1;"/>
<text x="217.800000" y="60.000000" font-family="Arial" font-size="7" text-anchor="middle" fill="#FFFFFF">%</text>
<circle cx="207.800000" cy="48.000000" r="1"/>
<line x1="202.800000" y1="53.000000" x2="205.800000" y2="54.000000"  transform="rotate(0.000000,205.800000,54.000000)" style="stroke: black; stroke-width:0.25;"/>
<line x1="202.800000" y1="55.000000" x2="205.800000" y2="54.000000"  transform="rotate(0.000000,205.800000,54.000000)" style="stroke: black; stroke-width:0.25;"/>
<line x1="202.800000" y1="61.000000" x2="205.800000" y2="62.000000"  transform="rotate(0.000000,205.800000,62.000000)" style="stroke: black; stroke-width:0.25;"/>
<line x1="202.800000" y1="63.000000" x2="205.800000" y2="62.000000"  transform="rotate(0.000000,205.800000,62.000000)" style="stroke: black; stroke-width:0.25;"/>
<line x1="231.800000" y1="58.000000" x2="231.800000" y2="54.000000"  style="stroke:black; stroke-linecap:round; stroke-width:0.25;"/>
<line x1="231.800000" y1="54.000000" x2="235.800000" y2="54.000000"  style="stroke:black; stroke-linecap:round; stroke-width:0.25;"/>
<line x1="235.800000" y1="54.000000" x2="235.800000" y2="58.000000"  style="stroke:black; stroke-linecap:round; stroke-width:0.25;"/>
<line x1="15.000000" y1="15.000000" x2="15.000000" y2="93.000000"  style="stroke: black; stroke-linecap:round; stroke-width:0.25; stroke-dasharray:3,3;"/>
<line x1="15.000000" y1="93.000000" x2="262.800000" y2="93.000000"  style="stroke: black; stroke-linecap:round; stroke-width:0.25; stroke-dasharray:3,3;"/>
<line x1="262.800000" y1="93.000000" x2="262.800000" y2="15.000000"  style="stroke: black; stroke-linecap:round; stroke-width:0.25; stroke-dasharray:3,3;"/>
<line x1="15.000000" y1="15.000000" x2="20.000000" y2="15.000000"  style="stroke: black; stroke-linecap:round; stroke-width:0.25; stroke-dasharray:3,3;"/>
<line x1="45.800000" y1="15.000000" x2="262.800000" y2="15.000000"  style="stroke: black; stroke-linecap:round; stroke-width:0.25; stroke-dasharray:3,3;"/>
<text x="20.000000" y="17.000000" font-family="Arial" font-size="7">rindex</text>
<line x1="264.800000" y1="53.000000" x2="267.800000" y2="54.000000"  transform="rotate(0.000000,267.800000,54.000000)" style="stroke: black; stroke-width:0.25;"/>
<line x1="264.800000" y1="55.000000" x2="267.800000" y2="54.000000"  transform="rotate(0.000000,267.800000,54.000000)" style="stroke: black; stroke-width:0.25;"/>
<line x1="49.800000" y1="54.000000" x2="53.800000" y2="54.000000"  style="stroke:black; stroke-linecap:round; stroke-width:0.25;"/>
<line x1="53.800000" y1="54.000000" x2="53.800000" y2="54.000000"  style="stroke:black; stroke-linecap:round; stroke-width:0.25;"/>
<line x1="53.800000" y1="54.000000" x2="57.800000" y2="54.000000"  style="stroke:black; stroke-linecap:round; stroke-width:0.25;"/>
<line x1="81.800000" y1="54.000000" x2="85.800000" y2="54.000000"  style="stroke:black; stroke-linecap:round; stroke-width:0.25;"/>
<line x1="85.800000" y1="54.000000" x2="93.800000" y2="54.000000"  style="stroke:black; stroke-linecap:round; stroke-width:0.25;"/>
<line x1="93.800000" y1="54.000000" x2="93.800000" y2="62.000000"  style="stroke:black; stroke-linecap:round; stroke-width:0.25;"/>
<line x1="93.800000" y1="62.000000" x2="93.800000" y2="62.000000"  style="stroke:black; stroke-linecap:round; stroke-width:0.25;"/>
<line x1="93.800000" y1="62.000000" x2="101.800000" y2="62.000000"  style="stroke:black; stroke-linecap:round; stroke-width:0.25;"/>
<line x1="101.800000" y1="54.000000" x2="105.800000" y2="54.000000"  style="stroke:black; stroke-linecap:round; stroke-width:0.25;"/>
<line x1="101.800000" y1="62.000000" x2="105.800000" y2="62.000000"  style="stroke:black; stroke-linecap:round; stroke-width:0.25;"/>
<line x1="101.800000" y1="24.000000" x2="101.800000" y2="24.000000"  style="stroke:black; stroke-linecap:round; stroke-width:0.25;"/>
<line x1="101.800000" y1="24.000000" x2="101.800000" y2="54.000000"  style="stroke:black; stroke-linecap:round; stroke-width:0.25;"/>
<line x1="101.800000" y1="54.000000" x2="101.800000" y2="54.000000"  style="stroke:black; stroke-linecap:round; stroke-width:0.25;"/>
<line x1="129.800000" y1="58.000000" x2="133.800000" y2="58.000000"  style="stroke:black; stroke-linecap:round; stroke-width:0.25;"/>
<line x1="133.800000" y1="32.000000" x2="141.800000" y2="32.000000"  style="stroke:black; stroke-linecap:round; stroke-width:0.25;"/>
<line x1="133.800000" y1="58.000000" x2="133.800000" y2="32.000000"  style="stroke:black; stroke-linecap:round; stroke-width:0.25;"/>
<line x1="133.800000" y1="58.000000" x2="133.800000" y2="58.000000"  style="stroke:black; stroke-linecap:round; stroke-width:0.25;"/>
<line x1="141.800000" y1="32.000000" x2="167.800000" y2="32.000000"  style="stroke:black; stroke-linecap:round; stroke-width:0.25;"/>
<line x1="167.800000" y1="24.000000" x2="101.800000" y2="24.000000"  style="stroke:black; stroke-linecap:round; stroke-width:0.25;"/>
<line x1="167.800000" y1="32.000000" x2="193.800000" y2="32.000000"  style="stroke:black; stroke-linecap:round; stroke-width:0.25;"/>
<line x1="179.800000" y1="62.000000" x2="183.800000" y2="62.000000"  style="stroke:black; stroke-linecap:round; stroke-width:0.25;"/>
<line x1="183.800000" y1="62.000000" x2="193.800000" y2="62.000000"  style="stroke:black; stroke-linecap:round; stroke-width:0.25;"/>
<line x1="193.800000" y1="32.000000" x2="201.800000" y2="32.000000"  style="stroke:black; stroke-linecap:round; stroke-width:0.25;"/>
<line x1="193.800000" y1="62.000000" x2="201.800000" y2="62.000000"  style="stroke:black; stroke-linecap:round; stroke-width:0.25;"/>
<line x1="201.800000" y1="32.000000" x2="201.800000" y2="54.000000"  style="stroke:black; stroke-linecap:round; stroke-width:0.25;"/>
<line x1="201.800000" y1="54.000000" x2="201.800000" y2="54.000000"  style="stroke:black; stroke-linecap:round; stroke-width:0.25;"/>
<line x1="201.800000" y1="54.000000" x2="205.800000" y2="54.000000"  style="stroke:black; stroke-linecap:round; stroke-width:0.25;"/>
<line x1="201.800000" y1="62.000000" x2="205.800000" y2="62.000000"  style="stroke:black; stroke-linecap:round; stroke-width:0.25;"/>
<line x1="229.800000" y1="58.000000" x2="233.800000" y2="58.000000"  style="stroke:black; stroke-linecap:round; stroke-width:0.25;"/>
<line x1="233.800000" y1="24.000000" x2="167.800000" y2="24.000000"  style="stroke:black; stroke-linecap:round; stroke-width:0.25;"/>
<line x1="233.800000" y1="24.000000" x2="233.800000" y2="24.000000"  style="stroke:black; stroke-linecap:round; stroke-width:0.25;"/>
<line x1="233.800000" y1="54.000000" x2="233.800000" y2="24.000000"  style="stroke:black; stroke-linecap:round; stroke-width:0.25;"/>
<line x1="233.800000" y1="58.000000" x2="235.800000" y2="58.000000"  style="stroke:black; stroke-linecap:round; stroke-width:0.25;"/>
<line x1="235.800000" y1="58.000000" x2="241.800000" y2="58.000000"  style="stroke:black; stroke-linecap:round; stroke-width:0.25;"/>
<line x1="241.800000" y1="54.000000" x2="249.800000" y2="54.000000"  style="stroke:black; stroke-linecap:round; stroke-width:0.25;"/>
<line x1="241.800000" y1="58.000000" x2="241.800000" y2="54.000000"  style="stroke:black; stroke-linecap:round; stroke-width:0.25;"/>
<line x1="241.800000" y1="58.000000" x2="241.800000" y2="58.000000"  style="stroke:black; stroke-linecap:round; stroke-width:0.25;"/>
<line x1="249.800000" y1="54.000000" x2="253.800000" y2="54.000000"  style="stroke:black; stroke-linecap:round; stroke-width:0.25;"/>
<line x1="253.800000" y1="54.000000" x2="257.800000" y2="54.000000"  style="stroke:black; stroke-linecap:round; stroke-width:0.25;"/>
<line x1="257.800000" y1="54.000000" x2="267.800000" y2="54.000000"  style="stroke:black; stroke-linecap:round; stroke-width:0.25;"/>
</svg>
