<?xml version="1.0"?>
<svg xmlns="http://www.w3.org/2000/svg" xmlns:xlink="http://www.w3.org/1999/xlink" viewBox="0 0 194.300000 136.000000" width="97.150000mm" height="68.000000mm" version="1.1">
<a xlink:href="vibrato-0x7fde6d60cba0.svg">
<rect x="1.000000" y="1.000000" width="193.300000" height="135.000000" rx="0" ry="0" style="stroke:none;fill:#cccccc;"/>
<rect x="0.000000" y="0.000000" width="193.300000" height="135.000000" rx="0" ry="0" style="stroke:none;fill:#ffffff;"/>
</a>
<text x="10.000000" y="7.000000" font-family="Arial" font-size="7"></text>
<a xlink:href="tablesize-0x7fde6b4561d0.svg">
<rect x="47.450000" y="25.000000" width="38.700000" height="24.000000" rx="0" ry="0" style="stroke:none;fill:#cccccc;"/>
<rect x="46.450000" y="24.000000" width="38.700000" height="24.000000" rx="0" ry="0" style="stroke:none;fill:#003366;"/>
</a>
<a xlink:href="tablesize-0x7fde6b4561d0.svg">
<text x="65.800000" y="38.000000" font-family="Arial" font-size="7" text-anchor="middle" fill="#FFFFFF">tablesize</text>
</a>
<circle cx="48.450000" cy="26.000000" r="1"/>
<a xlink:href="sinwaveform-0x7fde6c34d700.svg">
<rect x="41.000000" y="57.000000" width="51.600000" height="24.000000" rx="0" ry="0" style="stroke:none;fill:#cccccc;"/>
<rect x="40.000000" y="56.000000" width="51.600000" height="24.000000" rx="0" ry="0" style="stroke:none;fill:#003366;"/>
</a>
<a xlink:href="sinwaveform-0x7fde6c34d700.svg">
<text x="65.800000" y="70.000000" font-family="Arial" font-size="7" text-anchor="middle" fill="#FFFFFF">sinwaveform</text>
</a>
<circle cx="42.000000" cy="58.000000" r="1"/>
<a xlink:href="phase-0x7fde6c349fc0.svg">
<rect x="25.000000" y="89.000000" width="51.600000" height="24.000000" rx="0" ry="0" style="stroke:none;fill:#cccccc;"/>
<rect x="24.000000" y="88.000000" width="51.600000" height="24.000000" rx="0" ry="0" style="stroke:none;fill:#003366;"/>
</a>
<a xlink:href="phase-0x7fde6c349fc0.svg">
<text x="49.800000" y="102.000000" font-family="Arial" font-size="7" text-anchor="middle" fill="#FFFFFF">phase(2.5f)</text>
</a>
<circle cx="26.000000" cy="90.000000" r="1"/>
<rect x="84.600000" y="89.000000" width="24.000000" height="24.000000" rx="0" ry="0" style="stroke:none;fill:#cccccc;"/>
<rect x="83.600000" y="88.000000" width="24.000000" height="24.000000" rx="0" ry="0" style="stroke:none;fill:#4B71A1;"/>
<text x="95.600000" y="102.000000" font-family="Arial" font-size="7" text-anchor="middle" fill="#FFFFFF">int</text>
<circle cx="85.600000" cy="90.000000" r="1"/>
<line x1="80.600000" y1="99.000000" x2="83.600000" y2="100.000000"  transform="rotate(0.000000,83.600000,100.000000)" style="stroke: black; stroke-width:0.25;"/>
<line x1="80.600000" y1="101.000000" x2="83.600000" y2="100.000000"  transform="rotate(0.000000,83.600000,100.000000)" style="stroke: black; stroke-width:0.25;"/>
<rect x="124.600000" y="57.000000" width="38.700000" height="24.000000" rx="0" ry="0" style="stroke:none;fill:#cccccc;"/>
<rect x="123.600000" y="56.000000" width="38.700000" height="24.000000" rx="0" ry="0" style="stroke:none;fill:#4B71A1;"/>
<text x="142.950000" y="70.000000" font-family="Arial" font-size="7" text-anchor="middle" fill="#FFFFFF">rdtable</text>
<circle cx="125.600000" cy="58.000000" r="1"/>
<line x1="120.600000" y1="59.000000" x2="123.600000" y2="60.000000"  transform="rotate(0.000000,123.600000,60.000000)" style="stroke: black; stroke-width:0.25;"/>
<line x1="120.600000" y1="61.000000" x2="123.600000" y2="60.000000"  transform="rotate(0.000000,123.600000,60.000000)" style="stroke: black; stroke-width:0.25;"/>
<line x1="120.600000" y1="67.000000" x2="123.600000" y2="68.000000"  transform="rotate(0.000000,123.600000,68.000000)" style="stroke: black; stroke-width:0.25;"/>
<line x1="120.600000" y1="69.000000" x2="123.600000" y2="68.000000"  transform="rotate(0.000000,123.600000,68.000000)" style="stroke: black; stroke-width:0.25;"/>
<line x1="120.600000" y1="75.000000" x2="123.600000" y2="76.000000"  transform="rotate(0.000000,123.600000,76.000000)" style="stroke: black; stroke-width:0.25;"/>
<line x1="120.600000" y1="77.000000" x2="123.600000" y2="76.000000"  transform="rotate(0.000000,123.600000,76.000000)" style="stroke: black; stroke-width:0.25;"/>
<line x1="15.000000" y1="15.000000" x2="15.000000" y2="121.000000"  style="stroke: black; stroke-linecap:round; stroke-width:0.25; stroke-dasharray:3,3;"/>
<line x1="15.000000" y1="121.000000" x2="179.300000" y2="121.000000"  style="stroke: black; stroke-linecap:round; stroke-width:0.25; stroke-dasharray:3,3;"/>
<line x1="179.300000" y1="121.000000" x2="179.300000" y2="15.000000"  style="stroke: black; stroke-linecap:round; stroke-width:0.25; stroke-dasharray:3,3;"/>
<line x1="15.000000" y1="15.000000" x2="20.000000" y2="15.000000"  style="stroke: black; stroke-linecap:round; stroke-width:0.25; stroke-dasharray:3,3;"/>
<line x1="55.475000" y1="15.000000" x2="179.300000" y2="15.000000"  style="stroke: black; stroke-linecap:round; stroke-width:0.25; stroke-dasharray:3,3;"/>
<text x="20.000000" y="17.000000" font-family="Arial" font-size="7">osc(2.5f)</text>
<line x1="181.300000" y1="67.000000" x2="184.300000" y2="68.000000"  transform="rotate(0.000000,184.300000,68.000000)" style="stroke: black; stroke-width:0.25;"/>
<line x1="181.300000" y1="69.000000" x2="184.300000" y2="68.000000"  transform="rotate(0.000000,184.300000,68.000000)" style="stroke: black; stroke-width:0.25;"/>
<line x1="75.600000" y1="100.000000" x2="79.600000" y2="100.000000"  style="stroke:black; stroke-linecap:round; stroke-width:0.25;"/>
<line x1="79.600000" y1="100.000000" x2="79.600000" y2="100.000000"  style="stroke:black; stroke-linecap:round; stroke-width:0.25;"/>
<line x1="79.600000" y1="100.000000" x2="83.600000" y2="100.000000"  style="stroke:black; stroke-linecap:round; stroke-width:0.25;"/>
<line x1="85.150000" y1="36.000000" x2="89.150000" y2="36.000000"  style="stroke:black; stroke-linecap:round; stroke-width:0.25;"/>
<line x1="89.150000" y1="36.000000" x2="111.600000" y2="36.000000"  style="stroke:black; stroke-linecap:round; stroke-width:0.25;"/>
<line x1="91.600000" y1="68.000000" x2="95.600000" y2="68.000000"  style="stroke:black; stroke-linecap:round; stroke-width:0.25;"/>
<line x1="95.600000" y1="68.000000" x2="111.600000" y2="68.000000"  style="stroke:black; stroke-linecap:round; stroke-width:0.25;"/>
<line x1="107.600000" y1="100.000000" x2="111.600000" y2="100.000000"  style="stroke:black; stroke-linecap:round; stroke-width:0.25;"/>
<line x1="111.600000" y1="68.000000" x2="119.600000" y2="68.000000"  style="stroke:black; stroke-linecap:round; stroke-width:0.25;"/>
<line x1="111.600000" y1="76.000000" x2="119.600000" y2="76.000000"  style="stroke:black; stroke-linecap:round; stroke-width:0.25;"/>
<line x1="111.600000" y1="100.000000" x2="111.600000" y2="76.000000"  style="stroke:black; stroke-linecap:round; stroke-width:0.25;"/>
<line x1="111.600000" y1="100.000000" x2="111.600000" y2="100.000000"  style="stroke:black; stroke-linecap:round; stroke-width:0.25;"/>
<line x1="111.600000" y1="36.000000" x2="119.600000" y2="36.000000"  style="stroke:black; stroke-linecap:round; stroke-width:0.25;"/>
<line x1="119.600000" y1="60.000000" x2="123.600000" y2="60.000000"  style="stroke:black; stroke-linecap:round; stroke-width:0.25;"/>
<line x1="119.600000" y1="68.000000" x2="123.600000" y2="68.000000"  style="stroke:black; stroke-linecap:round; stroke-width:0.25;"/>
<line x1="119.600000" y1="76.000000" x2="123.600000" y2="76.000000"  style="stroke:black; stroke-linecap:round; stroke-width:0.25;"/>
<line x1="119.600000" y1="36.000000" x2="119.600000" y2="60.000000"  style="stroke:black; stroke-linecap:round; stroke-width:0.25;"/>
<line x1="119.600000" y1="60.000000" x2="119.600000" y2="60.000000"  style="stroke:black; stroke-linecap:round; stroke-width:0.25;"/>
<line x1="162.300000" y1="68.000000" x2="166.300000" y2="68.000000"  style="stroke:black; stroke-linecap:round; stroke-width:0.25;"/>
<line x1="166.300000" y1="68.000000" x2="166.300000" y2="68.000000"  style="stroke:black; stroke-linecap:round; stroke-width:0.25;"/>
<line x1="166.300000" y1="68.000000" x2="170.300000" y2="68.000000"  style="stroke:black; stroke-linecap:round; stroke-width:0.25;"/>
<line x1="170.300000" y1="68.000000" x2="174.300000" y2="68.000000"  style="stroke:black; stroke-linecap:round; stroke-width:0.25;"/>
<line x1="174.300000" y1="68.000000" x2="184.300000" y2="68.000000"  style="stroke:black; stroke-linecap:round; stroke-width:0.25;"/>
</svg>
