<?xml version="1.0"?>
<svg xmlns="http://www.w3.org/2000/svg" xmlns:xlink="http://www.w3.org/1999/xlink" viewBox="0 0 260.700000 604.000000" width="130.350000mm" height="302.000000mm" version="1.1">
<rect x="1.000000" y="1.000000" width="259.700000" height="603.000000" rx="0" ry="0" style="stroke:none;fill:#cccccc;"/>
<rect x="0.000000" y="0.000000" width="259.700000" height="603.000000" rx="0" ry="0" style="stroke:none;fill:#ffffff;"/>
<text x="10.000000" y="7.000000" font-family="Arial" font-size="7"></text>
<a xlink:href="flute-0x7ffa1794e4c0.svg">
<rect x="35.000000" y="35.000000" width="38.700000" height="24.000000" rx="0" ry="0" style="stroke:none;fill:#cccccc;"/>
<rect x="34.000000" y="34.000000" width="38.700000" height="24.000000" rx="0" ry="0" style="stroke:none;fill:#003366;"/>
</a>
<a xlink:href="flute-0x7ffa1794e4c0.svg">
<text x="53.350000" y="48.000000" font-family="Arial" font-size="7" text-anchor="middle" fill="#FFFFFF">flute(0)</text>
</a>
<circle cx="36.000000" cy="36.000000" r="1"/>
<a xlink:href="flute-0x7ffa17ad5bb0.svg">
<rect x="35.000000" y="67.000000" width="38.700000" height="24.000000" rx="0" ry="0" style="stroke:none;fill:#cccccc;"/>
<rect x="34.000000" y="66.000000" width="38.700000" height="24.000000" rx="0" ry="0" style="stroke:none;fill:#003366;"/>
</a>
<a xlink:href="flute-0x7ffa17ad5bb0.svg">
<text x="53.350000" y="80.000000" font-family="Arial" font-size="7" text-anchor="middle" fill="#FFFFFF">flute(1)</text>
</a>
<circle cx="36.000000" cy="68.000000" r="1"/>
<a xlink:href="flute-0x7ffa17c60140.svg">
<rect x="35.000000" y="99.000000" width="38.700000" height="24.000000" rx="0" ry="0" style="stroke:none;fill:#cccccc;"/>
<rect x="34.000000" y="98.000000" width="38.700000" height="24.000000" rx="0" ry="0" style="stroke:none;fill:#003366;"/>
</a>
<a xlink:href="flute-0x7ffa17c60140.svg">
<text x="53.350000" y="112.000000" font-family="Arial" font-size="7" text-anchor="middle" fill="#FFFFFF">flute(2)</text>
</a>
<circle cx="36.000000" cy="100.000000" r="1"/>
<a xlink:href="flute-0x7ffa17de69a0.svg">
<rect x="35.000000" y="131.000000" width="38.700000" height="24.000000" rx="0" ry="0" style="stroke:none;fill:#cccccc;"/>
<rect x="34.000000" y="130.000000" width="38.700000" height="24.000000" rx="0" ry="0" style="stroke:none;fill:#003366;"/>
</a>
<a xlink:href="flute-0x7ffa17de69a0.svg">
<text x="53.350000" y="144.000000" font-family="Arial" font-size="7" text-anchor="middle" fill="#FFFFFF">flute(3)</text>
</a>
<circle cx="36.000000" cy="132.000000" r="1"/>
<a xlink:href="flute-0x7ffa17f703c0.svg">
<rect x="35.000000" y="163.000000" width="38.700000" height="24.000000" rx="0" ry="0" style="stroke:none;fill:#cccccc;"/>
<rect x="34.000000" y="162.000000" width="38.700000" height="24.000000" rx="0" ry="0" style="stroke:none;fill:#003366;"/>
</a>
<a xlink:href="flute-0x7ffa17f703c0.svg">
<text x="53.350000" y="176.000000" font-family="Arial" font-size="7" text-anchor="middle" fill="#FFFFFF">flute(4)</text>
</a>
<circle cx="36.000000" cy="164.000000" r="1"/>
<a xlink:href="flute-0x7ffa180f8390.svg">
<rect x="35.000000" y="195.000000" width="38.700000" height="24.000000" rx="0" ry="0" style="stroke:none;fill:#cccccc;"/>
<rect x="34.000000" y="194.000000" width="38.700000" height="24.000000" rx="0" ry="0" style="stroke:none;fill:#003366;"/>
</a>
<a xlink:href="flute-0x7ffa180f8390.svg">
<text x="53.350000" y="208.000000" font-family="Arial" font-size="7" text-anchor="middle" fill="#FFFFFF">flute(5)</text>
</a>
<circle cx="36.000000" cy="196.000000" r="1"/>
<a xlink:href="flute-0x7ffa18281e80.svg">
<rect x="35.000000" y="227.000000" width="38.700000" height="24.000000" rx="0" ry="0" style="stroke:none;fill:#cccccc;"/>
<rect x="34.000000" y="226.000000" width="38.700000" height="24.000000" rx="0" ry="0" style="stroke:none;fill:#003366;"/>
</a>
<a xlink:href="flute-0x7ffa18281e80.svg">
<text x="53.350000" y="240.000000" font-family="Arial" font-size="7" text-anchor="middle" fill="#FFFFFF">flute(6)</text>
</a>
<circle cx="36.000000" cy="228.000000" r="1"/>
<a xlink:href="flute-0x7ffa1831a1f0.svg">
<rect x="35.000000" y="259.000000" width="38.700000" height="24.000000" rx="0" ry="0" style="stroke:none;fill:#cccccc;"/>
<rect x="34.000000" y="258.000000" width="38.700000" height="24.000000" rx="0" ry="0" style="stroke:none;fill:#003366;"/>
</a>
<a xlink:href="flute-0x7ffa1831a1f0.svg">
<text x="53.350000" y="272.000000" font-family="Arial" font-size="7" text-anchor="middle" fill="#FFFFFF">flute(7)</text>
</a>
<circle cx="36.000000" cy="260.000000" r="1"/>
<a xlink:href="flute-0x7ffa1849fec0.svg">
<rect x="35.000000" y="291.000000" width="38.700000" height="24.000000" rx="0" ry="0" style="stroke:none;fill:#cccccc;"/>
<rect x="34.000000" y="290.000000" width="38.700000" height="24.000000" rx="0" ry="0" style="stroke:none;fill:#003366;"/>
</a>
<a xlink:href="flute-0x7ffa1849fec0.svg">
<text x="53.350000" y="304.000000" font-family="Arial" font-size="7" text-anchor="middle" fill="#FFFFFF">flute(8)</text>
</a>
<circle cx="36.000000" cy="292.000000" r="1"/>
<a xlink:href="flute-0x7ffa18612610.svg">
<rect x="35.000000" y="323.000000" width="38.700000" height="24.000000" rx="0" ry="0" style="stroke:none;fill:#cccccc;"/>
<rect x="34.000000" y="322.000000" width="38.700000" height="24.000000" rx="0" ry="0" style="stroke:none;fill:#003366;"/>
</a>
<a xlink:href="flute-0x7ffa18612610.svg">
<text x="53.350000" y="336.000000" font-family="Arial" font-size="7" text-anchor="middle" fill="#FFFFFF">flute(9)</text>
</a>
<circle cx="36.000000" cy="324.000000" r="1"/>
<a xlink:href="flute-0x7ffa18798ac0.svg">
<rect x="35.000000" y="355.000000" width="38.700000" height="24.000000" rx="0" ry="0" style="stroke:none;fill:#cccccc;"/>
<rect x="34.000000" y="354.000000" width="38.700000" height="24.000000" rx="0" ry="0" style="stroke:none;fill:#003366;"/>
</a>
<a xlink:href="flute-0x7ffa18798ac0.svg">
<text x="53.350000" y="368.000000" font-family="Arial" font-size="7" text-anchor="middle" fill="#FFFFFF">flute(10)</text>
</a>
<circle cx="36.000000" cy="356.000000" r="1"/>
<a xlink:href="flute-0x7ffa19174470.svg">
<rect x="35.000000" y="387.000000" width="38.700000" height="24.000000" rx="0" ry="0" style="stroke:none;fill:#cccccc;"/>
<rect x="34.000000" y="386.000000" width="38.700000" height="24.000000" rx="0" ry="0" style="stroke:none;fill:#003366;"/>
</a>
<a xlink:href="flute-0x7ffa19174470.svg">
<text x="53.350000" y="400.000000" font-family="Arial" font-size="7" text-anchor="middle" fill="#FFFFFF">flute(11)</text>
</a>
<circle cx="36.000000" cy="388.000000" r="1"/>
<a xlink:href="flute-0x7ffa193d2b50.svg">
<rect x="35.000000" y="419.000000" width="38.700000" height="24.000000" rx="0" ry="0" style="stroke:none;fill:#cccccc;"/>
<rect x="34.000000" y="418.000000" width="38.700000" height="24.000000" rx="0" ry="0" style="stroke:none;fill:#003366;"/>
</a>
<a xlink:href="flute-0x7ffa193d2b50.svg">
<text x="53.350000" y="432.000000" font-family="Arial" font-size="7" text-anchor="middle" fill="#FFFFFF">flute(12)</text>
</a>
<circle cx="36.000000" cy="420.000000" r="1"/>
<a xlink:href="flute-0x7ffa1955d210.svg">
<rect x="35.000000" y="451.000000" width="38.700000" height="24.000000" rx="0" ry="0" style="stroke:none;fill:#cccccc;"/>
<rect x="34.000000" y="450.000000" width="38.700000" height="24.000000" rx="0" ry="0" style="stroke:none;fill:#003366;"/>
</a>
<a xlink:href="flute-0x7ffa1955d210.svg">
<text x="53.350000" y="464.000000" font-family="Arial" font-size="7" text-anchor="middle" fill="#FFFFFF">flute(13)</text>
</a>
<circle cx="36.000000" cy="452.000000" r="1"/>
<a xlink:href="flute-0x7ffa196d2770.svg">
<rect x="35.000000" y="483.000000" width="38.700000" height="24.000000" rx="0" ry="0" style="stroke:none;fill:#cccccc;"/>
<rect x="34.000000" y="482.000000" width="38.700000" height="24.000000" rx="0" ry="0" style="stroke:none;fill:#003366;"/>
</a>
<a xlink:href="flute-0x7ffa196d2770.svg">
<text x="53.350000" y="496.000000" font-family="Arial" font-size="7" text-anchor="middle" fill="#FFFFFF">flute(14)</text>
</a>
<circle cx="36.000000" cy="484.000000" r="1"/>
<a xlink:href="flute-0x7ffa198513f0.svg">
<rect x="35.000000" y="515.000000" width="38.700000" height="24.000000" rx="0" ry="0" style="stroke:none;fill:#cccccc;"/>
<rect x="34.000000" y="514.000000" width="38.700000" height="24.000000" rx="0" ry="0" style="stroke:none;fill:#003366;"/>
</a>
<a xlink:href="flute-0x7ffa198513f0.svg">
<text x="53.350000" y="528.000000" font-family="Arial" font-size="7" text-anchor="middle" fill="#FFFFFF">flute(15)</text>
</a>
<circle cx="36.000000" cy="516.000000" r="1"/>
<a xlink:href="flute-0x7ffa19047190.svg">
<rect x="35.000000" y="547.000000" width="38.700000" height="24.000000" rx="0" ry="0" style="stroke:none;fill:#cccccc;"/>
<rect x="34.000000" y="546.000000" width="38.700000" height="24.000000" rx="0" ry="0" style="stroke:none;fill:#003366;"/>
</a>
<a xlink:href="flute-0x7ffa19047190.svg">
<text x="53.350000" y="560.000000" font-family="Arial" font-size="7" text-anchor="middle" fill="#FFFFFF">flute(16)</text>
</a>
<circle cx="36.000000" cy="548.000000" r="1"/>
<line x1="25.000000" y1="25.000000" x2="25.000000" y2="579.000000"  style="stroke: black; stroke-linecap:round; stroke-width:0.25; stroke-dasharray:3,3;"/>
<line x1="25.000000" y1="579.000000" x2="227.700000" y2="579.000000"  style="stroke: black; stroke-linecap:round; stroke-width:0.25; stroke-dasharray:3,3;"/>
<line x1="227.700000" y1="579.000000" x2="227.700000" y2="25.000000"  style="stroke: black; stroke-linecap:round; stroke-width:0.25; stroke-dasharray:3,3;"/>
<line x1="25.000000" y1="25.000000" x2="30.000000" y2="25.000000"  style="stroke: black; stroke-linecap:round; stroke-width:0.25; stroke-dasharray:3,3;"/>
<line x1="97.725000" y1="25.000000" x2="227.700000" y2="25.000000"  style="stroke: black; stroke-linecap:round; stroke-width:0.25; stroke-dasharray:3,3;"/>
<text x="30.000000" y="27.000000" font-family="Arial" font-size="7">vgroup(C Maj Flute)</text>
<line x1="15.000000" y1="15.000000" x2="15.000000" y2="589.000000"  style="stroke: black; stroke-linecap:round; stroke-width:0.25; stroke-dasharray:3,3;"/>
<line x1="15.000000" y1="589.000000" x2="245.700000" y2="589.000000"  style="stroke: black; stroke-linecap:round; stroke-width:0.25; stroke-dasharray:3,3;"/>
<line x1="245.700000" y1="589.000000" x2="245.700000" y2="15.000000"  style="stroke: black; stroke-linecap:round; stroke-width:0.25; stroke-dasharray:3,3;"/>
<line x1="15.000000" y1="15.000000" x2="20.000000" y2="15.000000"  style="stroke: black; stroke-linecap:round; stroke-width:0.25; stroke-dasharray:3,3;"/>
<line x1="49.025000" y1="15.000000" x2="245.700000" y2="15.000000"  style="stroke: black; stroke-linecap:round; stroke-width:0.25; stroke-dasharray:3,3;"/>
<text x="20.000000" y="17.000000" font-family="Arial" font-size="7">process</text>
<line x1="247.700000" y1="301.000000" x2="250.700000" y2="302.000000"  transform="rotate(0.000000,250.700000,302.000000)" style="stroke: black; stroke-width:0.25;"/>
<line x1="247.700000" y1="303.000000" x2="250.700000" y2="302.000000"  transform="rotate(0.000000,250.700000,302.000000)" style="stroke: black; stroke-width:0.25;"/>
<line x1="72.700000" y1="46.000000" x2="76.700000" y2="46.000000"  style="stroke:black; stroke-linecap:round; stroke-width:0.25;"/>
<line x1="72.700000" y1="78.000000" x2="76.700000" y2="78.000000"  style="stroke:black; stroke-linecap:round; stroke-width:0.25;"/>
<line x1="72.700000" y1="110.000000" x2="76.700000" y2="110.000000"  style="stroke:black; stroke-linecap:round; stroke-width:0.25;"/>
<line x1="72.700000" y1="142.000000" x2="76.700000" y2="142.000000"  style="stroke:black; stroke-linecap:round; stroke-width:0.25;"/>
<line x1="72.700000" y1="174.000000" x2="76.700000" y2="174.000000"  style="stroke:black; stroke-linecap:round; stroke-width:0.25;"/>
<line x1="72.700000" y1="206.000000" x2="76.700000" y2="206.000000"  style="stroke:black; stroke-linecap:round; stroke-width:0.25;"/>
<line x1="72.700000" y1="238.000000" x2="76.700000" y2="238.000000"  style="stroke:black; stroke-linecap:round; stroke-width:0.25;"/>
<line x1="72.700000" y1="270.000000" x2="76.700000" y2="270.000000"  style="stroke:black; stroke-linecap:round; stroke-width:0.25;"/>
<line x1="72.700000" y1="302.000000" x2="76.700000" y2="302.000000"  style="stroke:black; stroke-linecap:round; stroke-width:0.25;"/>
<line x1="72.700000" y1="334.000000" x2="76.700000" y2="334.000000"  style="stroke:black; stroke-linecap:round; stroke-width:0.25;"/>
<line x1="72.700000" y1="366.000000" x2="76.700000" y2="366.000000"  style="stroke:black; stroke-linecap:round; stroke-width:0.25;"/>
<line x1="72.700000" y1="398.000000" x2="76.700000" y2="398.000000"  style="stroke:black; stroke-linecap:round; stroke-width:0.25;"/>
<line x1="72.700000" y1="430.000000" x2="76.700000" y2="430.000000"  style="stroke:black; stroke-linecap:round; stroke-width:0.25;"/>
<line x1="72.700000" y1="462.000000" x2="76.700000" y2="462.000000"  style="stroke:black; stroke-linecap:round; stroke-width:0.25;"/>
<line x1="72.700000" y1="494.000000" x2="76.700000" y2="494.000000"  style="stroke:black; stroke-linecap:round; stroke-width:0.25;"/>
<line x1="72.700000" y1="526.000000" x2="76.700000" y2="526.000000"  style="stroke:black; stroke-linecap:round; stroke-width:0.25;"/>
<line x1="72.700000" y1="558.000000" x2="76.700000" y2="558.000000"  style="stroke:black; stroke-linecap:round; stroke-width:0.25;"/>
<line x1="76.700000" y1="46.000000" x2="214.700000" y2="302.000000"  style="stroke:black; stroke-linecap:round; stroke-width:0.25;"/>
<line x1="76.700000" y1="78.000000" x2="214.700000" y2="302.000000"  style="stroke:black; stroke-linecap:round; stroke-width:0.25;"/>
<line x1="76.700000" y1="110.000000" x2="214.700000" y2="302.000000"  style="stroke:black; stroke-linecap:round; stroke-width:0.25;"/>
<line x1="76.700000" y1="142.000000" x2="214.700000" y2="302.000000"  style="stroke:black; stroke-linecap:round; stroke-width:0.25;"/>
<line x1="76.700000" y1="174.000000" x2="214.700000" y2="302.000000"  style="stroke:black; stroke-linecap:round; stroke-width:0.25;"/>
<line x1="76.700000" y1="206.000000" x2="214.700000" y2="302.000000"  style="stroke:black; stroke-linecap:round; stroke-width:0.25;"/>
<line x1="76.700000" y1="238.000000" x2="214.700000" y2="302.000000"  style="stroke:black; stroke-linecap:round; stroke-width:0.25;"/>
<line x1="76.700000" y1="270.000000" x2="214.700000" y2="302.000000"  style="stroke:black; stroke-linecap:round; stroke-width:0.25;"/>
<line x1="76.700000" y1="302.000000" x2="214.700000" y2="302.000000"  style="stroke:black; stroke-linecap:round; stroke-width:0.25;"/>
<line x1="76.700000" y1="334.000000" x2="214.700000" y2="302.000000"  style="stroke:black; stroke-linecap:round; stroke-width:0.25;"/>
<line x1="76.700000" y1="366.000000" x2="214.700000" y2="302.000000"  style="stroke:black; stroke-linecap:round; stroke-width:0.25;"/>
<line x1="76.700000" y1="398.000000" x2="214.700000" y2="302.000000"  style="stroke:black; stroke-linecap:round; stroke-width:0.25;"/>
<line x1="76.700000" y1="430.000000" x2="214.700000" y2="302.000000"  style="stroke:black; stroke-linecap:round; stroke-width:0.25;"/>
<line x1="76.700000" y1="462.000000" x2="214.700000" y2="302.000000"  style="stroke:black; stroke-linecap:round; stroke-width:0.25;"/>
<line x1="76.700000" y1="494.000000" x2="214.700000" y2="302.000000"  style="stroke:black; stroke-linecap:round; stroke-width:0.25;"/>
<line x1="76.700000" y1="526.000000" x2="214.700000" y2="302.000000"  style="stroke:black; stroke-linecap:round; stroke-width:0.25;"/>
<line x1="76.700000" y1="558.000000" x2="214.700000" y2="302.000000"  style="stroke:black; stroke-linecap:round; stroke-width:0.25;"/>
<line x1="214.700000" y1="302.000000" x2="218.700000" y2="302.000000"  style="stroke:black; stroke-linecap:round; stroke-width:0.25;"/>
<line x1="218.700000" y1="302.000000" x2="222.700000" y2="302.000000"  style="stroke:black; stroke-linecap:round; stroke-width:0.25;"/>
<line x1="222.700000" y1="302.000000" x2="232.700000" y2="302.000000"  style="stroke:black; stroke-linecap:round; stroke-width:0.25;"/>
<line x1="232.700000" y1="302.000000" x2="232.700000" y2="302.000000"  style="stroke:black; stroke-linecap:round; stroke-width:0.25;"/>
<line x1="232.700000" y1="302.000000" x2="236.700000" y2="302.000000"  style="stroke:black; stroke-linecap:round; stroke-width:0.25;"/>
<line x1="236.700000" y1="302.000000" x2="240.700000" y2="302.000000"  style="stroke:black; stroke-linecap:round; stroke-width:0.25;"/>
<line x1="240.700000" y1="302.000000" x2="250.700000" y2="302.000000"  style="stroke:black; stroke-linecap:round; stroke-width:0.25;"/>
</svg>
