<?xml version="1.0"?>
<svg xmlns="http://www.w3.org/2000/svg" xmlns:xlink="http://www.w3.org/1999/xlink" viewBox="0 0 343.200000 240.000000" width="171.600000mm" height="120.000000mm" version="1.1">
<a xlink:href="boreDelay-0x7f8b428e5e20.svg">
<rect x="1.000000" y="1.000000" width="342.200000" height="239.000000" rx="0" ry="0" style="stroke:none;fill:#cccccc;"/>
<rect x="0.000000" y="0.000000" width="342.200000" height="239.000000" rx="0" ry="0" style="stroke:none;fill:#ffffff;"/>
</a>
<text x="10.000000" y="7.000000" font-family="Arial" font-size="7"></text>
<rect x="136.600000" y="25.000000" width="24.000000" height="24.000000" rx="0" ry="0" style="stroke:none;fill:#cccccc;"/>
<rect x="135.600000" y="24.000000" width="24.000000" height="24.000000" rx="0" ry="0" style="stroke:none;fill:#47945E;"/>
<text x="147.600000" y="38.000000" font-family="Arial" font-size="7" text-anchor="middle" fill="#FFFFFF">x</text>
<circle cx="137.600000" cy="26.000000" r="1"/>
<a xlink:href="boreDelayLength-0x7f8b42899300.svg">
<rect x="25.000000" y="57.000000" width="103.200000" height="24.000000" rx="0" ry="0" style="stroke:none;fill:#cccccc;"/>
<rect x="24.000000" y="56.000000" width="103.200000" height="24.000000" rx="0" ry="0" style="stroke:none;fill:#003366;"/>
</a>
<a xlink:href="boreDelayLength-0x7f8b42899300.svg">
<text x="75.600000" y="70.000000" font-family="Arial" font-size="7" text-anchor="middle" fill="#FFFFFF">boreDelayLength(184.99f)</text>
</a>
<circle cx="26.000000" cy="58.000000" r="1"/>
<rect x="136.200000" y="57.000000" width="24.000000" height="24.000000" rx="0" ry="0" style="stroke:none;fill:#cccccc;"/>
<rect x="135.200000" y="56.000000" width="24.000000" height="24.000000" rx="0" ry="0" style="stroke:none;fill:#4B71A1;"/>
<text x="147.200000" y="70.000000" font-family="Arial" font-size="7" text-anchor="middle" fill="#FFFFFF">int</text>
<circle cx="137.200000" cy="58.000000" r="1"/>
<line x1="132.200000" y1="67.000000" x2="135.200000" y2="68.000000"  transform="rotate(0.000000,135.200000,68.000000)" style="stroke: black; stroke-width:0.25;"/>
<line x1="132.200000" y1="69.000000" x2="135.200000" y2="68.000000"  transform="rotate(0.000000,135.200000,68.000000)" style="stroke: black; stroke-width:0.25;"/>
<rect x="80.600000" y="99.000000" width="24.000000" height="24.000000" rx="0" ry="0" style="stroke:none;fill:#cccccc;"/>
<rect x="79.600000" y="98.000000" width="24.000000" height="24.000000" rx="0" ry="0" style="stroke:none;fill:#f44800;"/>
<text x="91.600000" y="112.000000" font-family="Arial" font-size="7" text-anchor="middle" fill="#FFFFFF">1</text>
<circle cx="81.600000" cy="100.000000" r="1"/>
<line x1="70.600000" y1="89.000000" x2="70.600000" y2="131.000000"  style="stroke: black; stroke-linecap:round; stroke-width:0.25; stroke-dasharray:3,3;"/>
<line x1="70.600000" y1="131.000000" x2="112.600000" y2="131.000000"  style="stroke: black; stroke-linecap:round; stroke-width:0.25; stroke-dasharray:3,3;"/>
<line x1="112.600000" y1="131.000000" x2="112.600000" y2="89.000000"  style="stroke: black; stroke-linecap:round; stroke-width:0.25; stroke-dasharray:3,3;"/>
<line x1="70.600000" y1="89.000000" x2="75.600000" y2="89.000000"  style="stroke: black; stroke-linecap:round; stroke-width:0.25; stroke-dasharray:3,3;"/>
<line x1="112.600000" y1="89.000000" x2="112.600000" y2="89.000000"  style="stroke: black; stroke-linecap:round; stroke-width:0.25; stroke-dasharray:3,3;"/>
<text x="75.600000" y="91.000000" font-family="Arial" font-size="7">env1Release</text>
<rect x="176.200000" y="83.000000" width="24.000000" height="24.000000" rx="0" ry="0" style="stroke:none;fill:#cccccc;"/>
<rect x="175.200000" y="82.000000" width="24.000000" height="24.000000" rx="0" ry="0" style="stroke:none;fill:#4B71A1;"/>
<text x="187.200000" y="96.000000" font-family="Arial" font-size="7" text-anchor="middle" fill="#FFFFFF">+</text>
<circle cx="177.200000" cy="84.000000" r="1"/>
<line x1="172.200000" y1="89.000000" x2="175.200000" y2="90.000000"  transform="rotate(0.000000,175.200000,90.000000)" style="stroke: black; stroke-width:0.25;"/>
<line x1="172.200000" y1="91.000000" x2="175.200000" y2="90.000000"  transform="rotate(0.000000,175.200000,90.000000)" style="stroke: black; stroke-width:0.25;"/>
<line x1="172.200000" y1="97.000000" x2="175.200000" y2="98.000000"  transform="rotate(0.000000,175.200000,98.000000)" style="stroke: black; stroke-width:0.25;"/>
<line x1="172.200000" y1="99.000000" x2="175.200000" y2="98.000000"  transform="rotate(0.000000,175.200000,98.000000)" style="stroke: black; stroke-width:0.25;"/>
<rect x="208.200000" y="83.000000" width="24.000000" height="24.000000" rx="0" ry="0" style="stroke:none;fill:#cccccc;"/>
<rect x="207.200000" y="82.000000" width="24.000000" height="24.000000" rx="0" ry="0" style="stroke:none;fill:#4B71A1;"/>
<text x="219.200000" y="96.000000" font-family="Arial" font-size="7" text-anchor="middle" fill="#FFFFFF">int</text>
<circle cx="209.200000" cy="84.000000" r="1"/>
<line x1="204.200000" y1="93.000000" x2="207.200000" y2="94.000000"  transform="rotate(0.000000,207.200000,94.000000)" style="stroke: black; stroke-width:0.25;"/>
<line x1="204.200000" y1="95.000000" x2="207.200000" y2="94.000000"  transform="rotate(0.000000,207.200000,94.000000)" style="stroke: black; stroke-width:0.25;"/>
<rect x="95.700000" y="141.000000" width="25.800000" height="24.000000" rx="0" ry="0" style="stroke:none;fill:#cccccc;"/>
<rect x="94.700000" y="140.000000" width="25.800000" height="24.000000" rx="0" ry="0" style="stroke:none;fill:#f44800;"/>
<text x="107.600000" y="154.000000" font-family="Arial" font-size="7" text-anchor="middle" fill="#FFFFFF">4096</text>
<circle cx="96.700000" cy="142.000000" r="1"/>
<rect x="96.600000" y="183.000000" width="24.000000" height="24.000000" rx="0" ry="0" style="stroke:none;fill:#cccccc;"/>
<rect x="95.600000" y="182.000000" width="24.000000" height="24.000000" rx="0" ry="0" style="stroke:none;fill:#f44800;"/>
<text x="107.600000" y="196.000000" font-family="Arial" font-size="7" text-anchor="middle" fill="#FFFFFF">1</text>
<circle cx="97.600000" cy="184.000000" r="1"/>
<line x1="86.600000" y1="173.000000" x2="86.600000" y2="215.000000"  style="stroke: black; stroke-linecap:round; stroke-width:0.25; stroke-dasharray:3,3;"/>
<line x1="86.600000" y1="215.000000" x2="128.600000" y2="215.000000"  style="stroke: black; stroke-linecap:round; stroke-width:0.25; stroke-dasharray:3,3;"/>
<line x1="128.600000" y1="215.000000" x2="128.600000" y2="173.000000"  style="stroke: black; stroke-linecap:round; stroke-width:0.25; stroke-dasharray:3,3;"/>
<line x1="86.600000" y1="173.000000" x2="91.600000" y2="173.000000"  style="stroke: black; stroke-linecap:round; stroke-width:0.25; stroke-dasharray:3,3;"/>
<line x1="128.600000" y1="173.000000" x2="128.600000" y2="173.000000"  style="stroke: black; stroke-linecap:round; stroke-width:0.25; stroke-dasharray:3,3;"/>
<text x="91.600000" y="175.000000" font-family="Arial" font-size="7">env1Release</text>
<rect x="146.600000" y="167.000000" width="24.000000" height="24.000000" rx="0" ry="0" style="stroke:none;fill:#cccccc;"/>
<rect x="145.600000" y="166.000000" width="24.000000" height="24.000000" rx="0" ry="0" style="stroke:none;fill:#4B71A1;"/>
<text x="157.600000" y="180.000000" font-family="Arial" font-size="7" text-anchor="middle" fill="#FFFFFF">-</text>
<circle cx="147.600000" cy="168.000000" r="1"/>
<line x1="142.600000" y1="173.000000" x2="145.600000" y2="174.000000"  transform="rotate(0.000000,145.600000,174.000000)" style="stroke: black; stroke-width:0.25;"/>
<line x1="142.600000" y1="175.000000" x2="145.600000" y2="174.000000"  transform="rotate(0.000000,145.600000,174.000000)" style="stroke: black; stroke-width:0.25;"/>
<line x1="142.600000" y1="181.000000" x2="145.600000" y2="182.000000"  transform="rotate(0.000000,145.600000,182.000000)" style="stroke: black; stroke-width:0.25;"/>
<line x1="142.600000" y1="183.000000" x2="145.600000" y2="182.000000"  transform="rotate(0.000000,145.600000,182.000000)" style="stroke: black; stroke-width:0.25;"/>
<rect x="248.200000" y="125.000000" width="24.000000" height="24.000000" rx="0" ry="0" style="stroke:none;fill:#cccccc;"/>
<rect x="247.200000" y="124.000000" width="24.000000" height="24.000000" rx="0" ry="0" style="stroke:none;fill:#4B71A1;"/>
<text x="259.200000" y="138.000000" font-family="Arial" font-size="7" text-anchor="middle" fill="#FFFFFF">&amp;</text>
<circle cx="249.200000" cy="126.000000" r="1"/>
<line x1="244.200000" y1="131.000000" x2="247.200000" y2="132.000000"  transform="rotate(0.000000,247.200000,132.000000)" style="stroke: black; stroke-width:0.25;"/>
<line x1="244.200000" y1="133.000000" x2="247.200000" y2="132.000000"  transform="rotate(0.000000,247.200000,132.000000)" style="stroke: black; stroke-width:0.25;"/>
<line x1="244.200000" y1="139.000000" x2="247.200000" y2="140.000000"  transform="rotate(0.000000,247.200000,140.000000)" style="stroke: black; stroke-width:0.25;"/>
<line x1="244.200000" y1="141.000000" x2="247.200000" y2="140.000000"  transform="rotate(0.000000,247.200000,140.000000)" style="stroke: black; stroke-width:0.25;"/>
<rect x="288.200000" y="109.000000" width="24.000000" height="24.000000" rx="0" ry="0" style="stroke:none;fill:#cccccc;"/>
<rect x="287.200000" y="108.000000" width="24.000000" height="24.000000" rx="0" ry="0" style="stroke:none;fill:#4B71A1;"/>
<text x="299.200000" y="122.000000" font-family="Arial" font-size="7" text-anchor="middle" fill="#FFFFFF">@</text>
<circle cx="289.200000" cy="110.000000" r="1"/>
<line x1="284.200000" y1="115.000000" x2="287.200000" y2="116.000000"  transform="rotate(0.000000,287.200000,116.000000)" style="stroke: black; stroke-width:0.25;"/>
<line x1="284.200000" y1="117.000000" x2="287.200000" y2="116.000000"  transform="rotate(0.000000,287.200000,116.000000)" style="stroke: black; stroke-width:0.25;"/>
<line x1="284.200000" y1="123.000000" x2="287.200000" y2="124.000000"  transform="rotate(0.000000,287.200000,124.000000)" style="stroke: black; stroke-width:0.25;"/>
<line x1="284.200000" y1="125.000000" x2="287.200000" y2="124.000000"  transform="rotate(0.000000,287.200000,124.000000)" style="stroke: black; stroke-width:0.25;"/>
<line x1="15.000000" y1="15.000000" x2="15.000000" y2="225.000000"  style="stroke: black; stroke-linecap:round; stroke-width:0.25; stroke-dasharray:3,3;"/>
<line x1="15.000000" y1="225.000000" x2="328.200000" y2="225.000000"  style="stroke: black; stroke-linecap:round; stroke-width:0.25; stroke-dasharray:3,3;"/>
<line x1="328.200000" y1="225.000000" x2="328.200000" y2="15.000000"  style="stroke: black; stroke-linecap:round; stroke-width:0.25; stroke-dasharray:3,3;"/>
<line x1="15.000000" y1="15.000000" x2="20.000000" y2="15.000000"  style="stroke: black; stroke-linecap:round; stroke-width:0.25; stroke-dasharray:3,3;"/>
<line x1="139.325000" y1="15.000000" x2="328.200000" y2="15.000000"  style="stroke: black; stroke-linecap:round; stroke-width:0.25; stroke-dasharray:3,3;"/>
<text x="20.000000" y="17.000000" font-family="Arial" font-size="7">delay(4096)((...: int),1 : +)(x280)</text>
<line x1="330.200000" y1="119.000000" x2="333.200000" y2="120.000000"  transform="rotate(0.000000,333.200000,120.000000)" style="stroke: black; stroke-width:0.25;"/>
<line x1="330.200000" y1="121.000000" x2="333.200000" y2="120.000000"  transform="rotate(0.000000,333.200000,120.000000)" style="stroke: black; stroke-width:0.25;"/>
<line x1="103.600000" y1="110.000000" x2="107.600000" y2="110.000000"  style="stroke:black; stroke-linecap:round; stroke-width:0.25;"/>
<line x1="107.600000" y1="110.000000" x2="117.600000" y2="110.000000"  style="stroke:black; stroke-linecap:round; stroke-width:0.25;"/>
<line x1="117.600000" y1="110.000000" x2="163.200000" y2="110.000000"  style="stroke:black; stroke-linecap:round; stroke-width:0.25;"/>
<line x1="119.600000" y1="194.000000" x2="123.600000" y2="194.000000"  style="stroke:black; stroke-linecap:round; stroke-width:0.25;"/>
<line x1="120.500000" y1="152.000000" x2="124.500000" y2="152.000000"  style="stroke:black; stroke-linecap:round; stroke-width:0.25;"/>
<line x1="123.600000" y1="194.000000" x2="133.600000" y2="194.000000"  style="stroke:black; stroke-linecap:round; stroke-width:0.25;"/>
<line x1="124.500000" y1="152.000000" x2="133.600000" y2="152.000000"  style="stroke:black; stroke-linecap:round; stroke-width:0.25;"/>
<line x1="127.200000" y1="68.000000" x2="131.200000" y2="68.000000"  style="stroke:black; stroke-linecap:round; stroke-width:0.25;"/>
<line x1="131.200000" y1="68.000000" x2="131.200000" y2="68.000000"  style="stroke:black; stroke-linecap:round; stroke-width:0.25;"/>
<line x1="131.200000" y1="68.000000" x2="135.200000" y2="68.000000"  style="stroke:black; stroke-linecap:round; stroke-width:0.25;"/>
<line x1="133.600000" y1="152.000000" x2="141.600000" y2="152.000000"  style="stroke:black; stroke-linecap:round; stroke-width:0.25;"/>
<line x1="133.600000" y1="182.000000" x2="141.600000" y2="182.000000"  style="stroke:black; stroke-linecap:round; stroke-width:0.25;"/>
<line x1="133.600000" y1="194.000000" x2="133.600000" y2="182.000000"  style="stroke:black; stroke-linecap:round; stroke-width:0.25;"/>
<line x1="133.600000" y1="194.000000" x2="133.600000" y2="194.000000"  style="stroke:black; stroke-linecap:round; stroke-width:0.25;"/>
<line x1="141.600000" y1="152.000000" x2="141.600000" y2="174.000000"  style="stroke:black; stroke-linecap:round; stroke-width:0.25;"/>
<line x1="141.600000" y1="174.000000" x2="141.600000" y2="174.000000"  style="stroke:black; stroke-linecap:round; stroke-width:0.25;"/>
<line x1="141.600000" y1="174.000000" x2="145.600000" y2="174.000000"  style="stroke:black; stroke-linecap:round; stroke-width:0.25;"/>
<line x1="141.600000" y1="182.000000" x2="145.600000" y2="182.000000"  style="stroke:black; stroke-linecap:round; stroke-width:0.25;"/>
<line x1="159.200000" y1="68.000000" x2="163.200000" y2="68.000000"  style="stroke:black; stroke-linecap:round; stroke-width:0.25;"/>
<line x1="159.600000" y1="36.000000" x2="163.600000" y2="36.000000"  style="stroke:black; stroke-linecap:round; stroke-width:0.25;"/>
<line x1="163.200000" y1="68.000000" x2="171.200000" y2="68.000000"  style="stroke:black; stroke-linecap:round; stroke-width:0.25;"/>
<line x1="163.200000" y1="98.000000" x2="171.200000" y2="98.000000"  style="stroke:black; stroke-linecap:round; stroke-width:0.25;"/>
<line x1="163.200000" y1="110.000000" x2="163.200000" y2="98.000000"  style="stroke:black; stroke-linecap:round; stroke-width:0.25;"/>
<line x1="163.200000" y1="110.000000" x2="163.200000" y2="110.000000"  style="stroke:black; stroke-linecap:round; stroke-width:0.25;"/>
<line x1="163.600000" y1="36.000000" x2="275.200000" y2="36.000000"  style="stroke:black; stroke-linecap:round; stroke-width:0.25;"/>
<line x1="169.600000" y1="178.000000" x2="173.600000" y2="178.000000"  style="stroke:black; stroke-linecap:round; stroke-width:0.25;"/>
<line x1="171.200000" y1="68.000000" x2="171.200000" y2="90.000000"  style="stroke:black; stroke-linecap:round; stroke-width:0.25;"/>
<line x1="171.200000" y1="90.000000" x2="171.200000" y2="90.000000"  style="stroke:black; stroke-linecap:round; stroke-width:0.25;"/>
<line x1="171.200000" y1="90.000000" x2="175.200000" y2="90.000000"  style="stroke:black; stroke-linecap:round; stroke-width:0.25;"/>
<line x1="171.200000" y1="98.000000" x2="175.200000" y2="98.000000"  style="stroke:black; stroke-linecap:round; stroke-width:0.25;"/>
<line x1="173.600000" y1="178.000000" x2="235.200000" y2="178.000000"  style="stroke:black; stroke-linecap:round; stroke-width:0.25;"/>
<line x1="199.200000" y1="94.000000" x2="203.200000" y2="94.000000"  style="stroke:black; stroke-linecap:round; stroke-width:0.25;"/>
<line x1="203.200000" y1="94.000000" x2="203.200000" y2="94.000000"  style="stroke:black; stroke-linecap:round; stroke-width:0.25;"/>
<line x1="203.200000" y1="94.000000" x2="207.200000" y2="94.000000"  style="stroke:black; stroke-linecap:round; stroke-width:0.25;"/>
<line x1="231.200000" y1="94.000000" x2="235.200000" y2="94.000000"  style="stroke:black; stroke-linecap:round; stroke-width:0.25;"/>
<line x1="235.200000" y1="94.000000" x2="243.200000" y2="94.000000"  style="stroke:black; stroke-linecap:round; stroke-width:0.25;"/>
<line x1="235.200000" y1="140.000000" x2="243.200000" y2="140.000000"  style="stroke:black; stroke-linecap:round; stroke-width:0.25;"/>
<line x1="235.200000" y1="178.000000" x2="235.200000" y2="140.000000"  style="stroke:black; stroke-linecap:round; stroke-width:0.25;"/>
<line x1="235.200000" y1="178.000000" x2="235.200000" y2="178.000000"  style="stroke:black; stroke-linecap:round; stroke-width:0.25;"/>
<line x1="243.200000" y1="94.000000" x2="243.200000" y2="132.000000"  style="stroke:black; stroke-linecap:round; stroke-width:0.25;"/>
<line x1="243.200000" y1="132.000000" x2="243.200000" y2="132.000000"  style="stroke:black; stroke-linecap:round; stroke-width:0.25;"/>
<line x1="243.200000" y1="132.000000" x2="247.200000" y2="132.000000"  style="stroke:black; stroke-linecap:round; stroke-width:0.25;"/>
<line x1="243.200000" y1="140.000000" x2="247.200000" y2="140.000000"  style="stroke:black; stroke-linecap:round; stroke-width:0.25;"/>
<line x1="271.200000" y1="136.000000" x2="275.200000" y2="136.000000"  style="stroke:black; stroke-linecap:round; stroke-width:0.25;"/>
<line x1="275.200000" y1="36.000000" x2="283.200000" y2="36.000000"  style="stroke:black; stroke-linecap:round; stroke-width:0.25;"/>
<line x1="275.200000" y1="124.000000" x2="283.200000" y2="124.000000"  style="stroke:black; stroke-linecap:round; stroke-width:0.25;"/>
<line x1="275.200000" y1="136.000000" x2="275.200000" y2="124.000000"  style="stroke:black; stroke-linecap:round; stroke-width:0.25;"/>
<line x1="275.200000" y1="136.000000" x2="275.200000" y2="136.000000"  style="stroke:black; stroke-linecap:round; stroke-width:0.25;"/>
<line x1="283.200000" y1="36.000000" x2="283.200000" y2="116.000000"  style="stroke:black; stroke-linecap:round; stroke-width:0.25;"/>
<line x1="283.200000" y1="116.000000" x2="283.200000" y2="116.000000"  style="stroke:black; stroke-linecap:round; stroke-width:0.25;"/>
<line x1="283.200000" y1="116.000000" x2="287.200000" y2="116.000000"  style="stroke:black; stroke-linecap:round; stroke-width:0.25;"/>
<line x1="283.200000" y1="124.000000" x2="287.200000" y2="124.000000"  style="stroke:black; stroke-linecap:round; stroke-width:0.25;"/>
<line x1="311.200000" y1="120.000000" x2="315.200000" y2="120.000000"  style="stroke:black; stroke-linecap:round; stroke-width:0.25;"/>
<line x1="315.200000" y1="120.000000" x2="315.200000" y2="120.000000"  style="stroke:black; stroke-linecap:round; stroke-width:0.25;"/>
<line x1="315.200000" y1="120.000000" x2="319.200000" y2="120.000000"  style="stroke:black; stroke-linecap:round; stroke-width:0.25;"/>
<line x1="319.200000" y1="120.000000" x2="323.200000" y2="120.000000"  style="stroke:black; stroke-linecap:round; stroke-width:0.25;"/>
<line x1="323.200000" y1="120.000000" x2="333.200000" y2="120.000000"  style="stroke:black; stroke-linecap:round; stroke-width:0.25;"/>
</svg>
