<?xml version="1.0"?>
<svg xmlns="http://www.w3.org/2000/svg" xmlns:xlink="http://www.w3.org/1999/xlink" viewBox="0 0 285.000000 100.000000" width="142.500000mm" height="50.000000mm" version="1.1">
<a xlink:href="filtered-0x7ff504071170.svg">
<rect x="1.000000" y="1.000000" width="284.000000" height="99.000000" rx="0" ry="0" style="stroke:none;fill:#cccccc;"/>
<rect x="0.000000" y="0.000000" width="284.000000" height="99.000000" rx="0" ry="0" style="stroke:none;fill:#ffffff;"/>
</a>
<text x="10.000000" y="7.000000" font-family="Arial" font-size="7"></text>
<a xlink:href="noiseburst-0x7ff504065f60.svg">
<rect x="25.000000" y="39.000000" width="129.000000" height="24.000000" rx="0" ry="0" style="stroke:none;fill:#cccccc;"/>
<rect x="24.000000" y="38.000000" width="129.000000" height="24.000000" rx="0" ry="0" style="stroke:none;fill:#003366;"/>
</a>
<a xlink:href="noiseburst-0x7ff504065f60.svg">
<text x="88.500000" y="52.000000" font-family="Arial" font-size="7" text-anchor="middle" fill="#FFFFFF">noiseburst(18...,369.98f : /)</text>
</a>
<circle cx="26.000000" cy="40.000000" r="1"/>
<rect x="180.000000" y="43.000000" width="24.000000" height="24.000000" rx="0" ry="0" style="stroke:none;fill:#cccccc;"/>
<rect x="179.000000" y="42.000000" width="24.000000" height="24.000000" rx="0" ry="0" style="stroke:none;fill:#f44800;"/>
<text x="191.000000" y="56.000000" font-family="Arial" font-size="7" text-anchor="middle" fill="#FFFFFF">1</text>
<circle cx="181.000000" cy="44.000000" r="1"/>
<line x1="170.000000" y1="33.000000" x2="170.000000" y2="75.000000"  style="stroke: black; stroke-linecap:round; stroke-width:0.25; stroke-dasharray:3,3;"/>
<line x1="170.000000" y1="75.000000" x2="212.000000" y2="75.000000"  style="stroke: black; stroke-linecap:round; stroke-width:0.25; stroke-dasharray:3,3;"/>
<line x1="212.000000" y1="75.000000" x2="212.000000" y2="33.000000"  style="stroke: black; stroke-linecap:round; stroke-width:0.25; stroke-dasharray:3,3;"/>
<line x1="170.000000" y1="33.000000" x2="175.000000" y2="33.000000"  style="stroke: black; stroke-linecap:round; stroke-width:0.25; stroke-dasharray:3,3;"/>
<line x1="194.350000" y1="33.000000" x2="212.000000" y2="33.000000"  style="stroke: black; stroke-linecap:round; stroke-width:0.25; stroke-dasharray:3,3;"/>
<text x="175.000000" y="35.000000" font-family="Arial" font-size="7">gain</text>
<rect x="230.000000" y="39.000000" width="24.000000" height="24.000000" rx="0" ry="0" style="stroke:none;fill:#cccccc;"/>
<rect x="229.000000" y="38.000000" width="24.000000" height="24.000000" rx="0" ry="0" style="stroke:none;fill:#4B71A1;"/>
<text x="241.000000" y="52.000000" font-family="Arial" font-size="7" text-anchor="middle" fill="#FFFFFF">*</text>
<circle cx="231.000000" cy="40.000000" r="1"/>
<line x1="226.000000" y1="45.000000" x2="229.000000" y2="46.000000"  transform="rotate(0.000000,229.000000,46.000000)" style="stroke: black; stroke-width:0.25;"/>
<line x1="226.000000" y1="47.000000" x2="229.000000" y2="46.000000"  transform="rotate(0.000000,229.000000,46.000000)" style="stroke: black; stroke-width:0.25;"/>
<line x1="226.000000" y1="53.000000" x2="229.000000" y2="54.000000"  transform="rotate(0.000000,229.000000,54.000000)" style="stroke: black; stroke-width:0.25;"/>
<line x1="226.000000" y1="55.000000" x2="229.000000" y2="54.000000"  transform="rotate(0.000000,229.000000,54.000000)" style="stroke: black; stroke-width:0.25;"/>
<line x1="15.000000" y1="15.000000" x2="15.000000" y2="85.000000"  style="stroke: black; stroke-linecap:round; stroke-width:0.25; stroke-dasharray:3,3;"/>
<line x1="15.000000" y1="85.000000" x2="270.000000" y2="85.000000"  style="stroke: black; stroke-linecap:round; stroke-width:0.25; stroke-dasharray:3,3;"/>
<line x1="270.000000" y1="85.000000" x2="270.000000" y2="15.000000"  style="stroke: black; stroke-linecap:round; stroke-width:0.25; stroke-dasharray:3,3;"/>
<line x1="15.000000" y1="15.000000" x2="20.000000" y2="15.000000"  style="stroke: black; stroke-linecap:round; stroke-width:0.25; stroke-dasharray:3,3;"/>
<line x1="119.975000" y1="15.000000" x2="270.000000" y2="15.000000"  style="stroke: black; stroke-linecap:round; stroke-width:0.25; stroke-dasharray:3,3;"/>
<text x="20.000000" y="17.000000" font-family="Arial" font-size="7">excitation(18...,369.98f : /)</text>
<line x1="272.000000" y1="49.000000" x2="275.000000" y2="50.000000"  transform="rotate(0.000000,275.000000,50.000000)" style="stroke: black; stroke-width:0.25;"/>
<line x1="272.000000" y1="51.000000" x2="275.000000" y2="50.000000"  transform="rotate(0.000000,275.000000,50.000000)" style="stroke: black; stroke-width:0.25;"/>
<line x1="153.000000" y1="50.000000" x2="157.000000" y2="50.000000"  style="stroke:black; stroke-linecap:round; stroke-width:0.25;"/>
<line x1="157.000000" y1="24.000000" x2="165.000000" y2="24.000000"  style="stroke:black; stroke-linecap:round; stroke-width:0.25;"/>
<line x1="157.000000" y1="50.000000" x2="157.000000" y2="24.000000"  style="stroke:black; stroke-linecap:round; stroke-width:0.25;"/>
<line x1="157.000000" y1="50.000000" x2="157.000000" y2="50.000000"  style="stroke:black; stroke-linecap:round; stroke-width:0.25;"/>
<line x1="165.000000" y1="24.000000" x2="191.000000" y2="24.000000"  style="stroke:black; stroke-linecap:round; stroke-width:0.25;"/>
<line x1="191.000000" y1="24.000000" x2="217.000000" y2="24.000000"  style="stroke:black; stroke-linecap:round; stroke-width:0.25;"/>
<line x1="203.000000" y1="54.000000" x2="207.000000" y2="54.000000"  style="stroke:black; stroke-linecap:round; stroke-width:0.25;"/>
<line x1="207.000000" y1="54.000000" x2="217.000000" y2="54.000000"  style="stroke:black; stroke-linecap:round; stroke-width:0.25;"/>
<line x1="217.000000" y1="24.000000" x2="225.000000" y2="24.000000"  style="stroke:black; stroke-linecap:round; stroke-width:0.25;"/>
<line x1="217.000000" y1="54.000000" x2="225.000000" y2="54.000000"  style="stroke:black; stroke-linecap:round; stroke-width:0.25;"/>
<line x1="225.000000" y1="24.000000" x2="225.000000" y2="46.000000"  style="stroke:black; stroke-linecap:round; stroke-width:0.25;"/>
<line x1="225.000000" y1="46.000000" x2="225.000000" y2="46.000000"  style="stroke:black; stroke-linecap:round; stroke-width:0.25;"/>
<line x1="225.000000" y1="46.000000" x2="229.000000" y2="46.000000"  style="stroke:black; stroke-linecap:round; stroke-width:0.25;"/>
<line x1="225.000000" y1="54.000000" x2="229.000000" y2="54.000000"  style="stroke:black; stroke-linecap:round; stroke-width:0.25;"/>
<line x1="253.000000" y1="50.000000" x2="257.000000" y2="50.000000"  style="stroke:black; stroke-linecap:round; stroke-width:0.25;"/>
<line x1="257.000000" y1="50.000000" x2="257.000000" y2="50.000000"  style="stroke:black; stroke-linecap:round; stroke-width:0.25;"/>
<line x1="257.000000" y1="50.000000" x2="261.000000" y2="50.000000"  style="stroke:black; stroke-linecap:round; stroke-width:0.25;"/>
<line x1="261.000000" y1="50.000000" x2="265.000000" y2="50.000000"  style="stroke:black; stroke-linecap:round; stroke-width:0.25;"/>
<line x1="265.000000" y1="50.000000" x2="275.000000" y2="50.000000"  style="stroke:black; stroke-linecap:round; stroke-width:0.25;"/>
</svg>
