<?xml version="1.0"?>
<svg xmlns="http://www.w3.org/2000/svg" xmlns:xlink="http://www.w3.org/1999/xlink" viewBox="0 0 422.800000 104.000000" width="211.400000mm" height="52.000000mm" version="1.1">
<a xlink:href="timeToRenew-0x7fb1124a9ce0.svg">
<rect x="1.000000" y="1.000000" width="421.800000" height="103.000000" rx="0" ry="0" style="stroke:none;fill:#cccccc;"/>
<rect x="0.000000" y="0.000000" width="421.800000" height="103.000000" rx="0" ry="0" style="stroke:none;fill:#ffffff;"/>
</a>
<text x="10.000000" y="7.000000" font-family="Arial" font-size="7"></text>
<rect x="41.000000" y="25.000000" width="25.800000" height="24.000000" rx="0" ry="0" style="stroke:none;fill:#cccccc;"/>
<rect x="40.000000" y="24.000000" width="25.800000" height="24.000000" rx="0" ry="0" style="stroke:none;fill:#47945E;"/>
<text x="52.900000" y="38.000000" font-family="Arial" font-size="7" text-anchor="middle" fill="#FFFFFF">input</text>
<circle cx="42.000000" cy="26.000000" r="1"/>
<rect x="25.000000" y="57.000000" width="25.800000" height="24.000000" rx="0" ry="0" style="stroke:none;fill:#cccccc;"/>
<rect x="24.000000" y="56.000000" width="25.800000" height="24.000000" rx="0" ry="0" style="stroke:none;fill:#47945E;"/>
<text x="36.900000" y="70.000000" font-family="Arial" font-size="7" text-anchor="middle" fill="#FFFFFF">input</text>
<circle cx="26.000000" cy="58.000000" r="1"/>
<rect x="58.800000" y="57.000000" width="24.000000" height="24.000000" rx="0" ry="0" style="stroke:none;fill:#cccccc;"/>
<rect x="57.800000" y="56.000000" width="24.000000" height="24.000000" rx="0" ry="0" style="stroke:none;fill:#4B71A1;"/>
<text x="69.800000" y="70.000000" font-family="Arial" font-size="7" text-anchor="middle" fill="#FFFFFF">mem</text>
<circle cx="59.800000" cy="58.000000" r="1"/>
<line x1="54.800000" y1="67.000000" x2="57.800000" y2="68.000000"  transform="rotate(0.000000,57.800000,68.000000)" style="stroke: black; stroke-width:0.25;"/>
<line x1="54.800000" y1="69.000000" x2="57.800000" y2="68.000000"  transform="rotate(0.000000,57.800000,68.000000)" style="stroke: black; stroke-width:0.25;"/>
<rect x="98.800000" y="41.000000" width="24.000000" height="24.000000" rx="0" ry="0" style="stroke:none;fill:#cccccc;"/>
<rect x="97.800000" y="40.000000" width="24.000000" height="24.000000" rx="0" ry="0" style="stroke:none;fill:#4B71A1;"/>
<text x="109.800000" y="54.000000" font-family="Arial" font-size="7" text-anchor="middle" fill="#FFFFFF">-</text>
<circle cx="99.800000" cy="42.000000" r="1"/>
<line x1="94.800000" y1="47.000000" x2="97.800000" y2="48.000000"  transform="rotate(0.000000,97.800000,48.000000)" style="stroke: black; stroke-width:0.25;"/>
<line x1="94.800000" y1="49.000000" x2="97.800000" y2="48.000000"  transform="rotate(0.000000,97.800000,48.000000)" style="stroke: black; stroke-width:0.25;"/>
<line x1="94.800000" y1="55.000000" x2="97.800000" y2="56.000000"  transform="rotate(0.000000,97.800000,56.000000)" style="stroke: black; stroke-width:0.25;"/>
<line x1="94.800000" y1="57.000000" x2="97.800000" y2="56.000000"  transform="rotate(0.000000,97.800000,56.000000)" style="stroke: black; stroke-width:0.25;"/>
<rect x="130.800000" y="41.000000" width="24.000000" height="24.000000" rx="0" ry="0" style="stroke:none;fill:#cccccc;"/>
<rect x="129.800000" y="40.000000" width="24.000000" height="24.000000" rx="0" ry="0" style="stroke:none;fill:#4B71A1;"/>
<text x="141.800000" y="54.000000" font-family="Arial" font-size="7" text-anchor="middle" fill="#FFFFFF">abs</text>
<circle cx="131.800000" cy="42.000000" r="1"/>
<line x1="126.800000" y1="51.000000" x2="129.800000" y2="52.000000"  transform="rotate(0.000000,129.800000,52.000000)" style="stroke: black; stroke-width:0.25;"/>
<line x1="126.800000" y1="53.000000" x2="129.800000" y2="52.000000"  transform="rotate(0.000000,129.800000,52.000000)" style="stroke: black; stroke-width:0.25;"/>
<a xlink:href="countfrom-0x7fb112484c40.svg">
<rect x="162.800000" y="41.000000" width="129.000000" height="24.000000" rx="0" ry="0" style="stroke:none;fill:#cccccc;"/>
<rect x="161.800000" y="40.000000" width="129.000000" height="24.000000" rx="0" ry="0" style="stroke:none;fill:#003366;"/>
</a>
<a xlink:href="countfrom-0x7fb112484c40.svg">
<text x="226.300000" y="54.000000" font-family="Arial" font-size="7" text-anchor="middle" fill="#FFFFFF">countfrom((_,... : int : mem)</text>
</a>
<circle cx="163.800000" cy="42.000000" r="1"/>
<line x1="158.800000" y1="51.000000" x2="161.800000" y2="52.000000"  transform="rotate(0.000000,161.800000,52.000000)" style="stroke: black; stroke-width:0.25;"/>
<line x1="158.800000" y1="53.000000" x2="161.800000" y2="52.000000"  transform="rotate(0.000000,161.800000,52.000000)" style="stroke: black; stroke-width:0.25;"/>
<rect x="317.800000" y="45.000000" width="24.000000" height="24.000000" rx="0" ry="0" style="stroke:none;fill:#cccccc;"/>
<rect x="316.800000" y="44.000000" width="24.000000" height="24.000000" rx="0" ry="0" style="stroke:none;fill:#f44800;"/>
<text x="328.800000" y="58.000000" font-family="Arial" font-size="7" text-anchor="middle" fill="#FFFFFF">0</text>
<circle cx="318.800000" cy="46.000000" r="1"/>
<line x1="307.800000" y1="35.000000" x2="307.800000" y2="77.000000"  style="stroke: black; stroke-linecap:round; stroke-width:0.25; stroke-dasharray:3,3;"/>
<line x1="307.800000" y1="77.000000" x2="349.800000" y2="77.000000"  style="stroke: black; stroke-linecap:round; stroke-width:0.25; stroke-dasharray:3,3;"/>
<line x1="349.800000" y1="77.000000" x2="349.800000" y2="35.000000"  style="stroke: black; stroke-linecap:round; stroke-width:0.25; stroke-dasharray:3,3;"/>
<line x1="307.800000" y1="35.000000" x2="312.800000" y2="35.000000"  style="stroke: black; stroke-linecap:round; stroke-width:0.25; stroke-dasharray:3,3;"/>
<line x1="325.700000" y1="35.000000" x2="349.800000" y2="35.000000"  style="stroke: black; stroke-linecap:round; stroke-width:0.25; stroke-dasharray:3,3;"/>
<text x="312.800000" y="37.000000" font-family="Arial" font-size="7">b1</text>
<rect x="367.800000" y="41.000000" width="24.000000" height="24.000000" rx="0" ry="0" style="stroke:none;fill:#cccccc;"/>
<rect x="366.800000" y="40.000000" width="24.000000" height="24.000000" rx="0" ry="0" style="stroke:none;fill:#4B71A1;"/>
<text x="378.800000" y="54.000000" font-family="Arial" font-size="7" text-anchor="middle" fill="#FFFFFF">&gt;</text>
<circle cx="368.800000" cy="42.000000" r="1"/>
<line x1="363.800000" y1="47.000000" x2="366.800000" y2="48.000000"  transform="rotate(0.000000,366.800000,48.000000)" style="stroke: black; stroke-width:0.25;"/>
<line x1="363.800000" y1="49.000000" x2="366.800000" y2="48.000000"  transform="rotate(0.000000,366.800000,48.000000)" style="stroke: black; stroke-width:0.25;"/>
<line x1="363.800000" y1="55.000000" x2="366.800000" y2="56.000000"  transform="rotate(0.000000,366.800000,56.000000)" style="stroke: black; stroke-width:0.25;"/>
<line x1="363.800000" y1="57.000000" x2="366.800000" y2="56.000000"  transform="rotate(0.000000,366.800000,56.000000)" style="stroke: black; stroke-width:0.25;"/>
<line x1="15.000000" y1="15.000000" x2="15.000000" y2="89.000000"  style="stroke: black; stroke-linecap:round; stroke-width:0.25; stroke-dasharray:3,3;"/>
<line x1="15.000000" y1="89.000000" x2="407.800000" y2="89.000000"  style="stroke: black; stroke-linecap:round; stroke-width:0.25; stroke-dasharray:3,3;"/>
<line x1="407.800000" y1="89.000000" x2="407.800000" y2="15.000000"  style="stroke: black; stroke-linecap:round; stroke-width:0.25; stroke-dasharray:3,3;"/>
<line x1="15.000000" y1="15.000000" x2="20.000000" y2="15.000000"  style="stroke: black; stroke-linecap:round; stroke-width:0.25; stroke-dasharray:3,3;"/>
<line x1="68.375000" y1="15.000000" x2="407.800000" y2="15.000000"  style="stroke: black; stroke-linecap:round; stroke-width:0.25; stroke-dasharray:3,3;"/>
<text x="20.000000" y="17.000000" font-family="Arial" font-size="7">inputHasMoved</text>
<line x1="409.800000" y1="51.000000" x2="412.800000" y2="52.000000"  transform="rotate(0.000000,412.800000,52.000000)" style="stroke: black; stroke-width:0.25;"/>
<line x1="409.800000" y1="53.000000" x2="412.800000" y2="52.000000"  transform="rotate(0.000000,412.800000,52.000000)" style="stroke: black; stroke-width:0.25;"/>
<line x1="49.800000" y1="68.000000" x2="53.800000" y2="68.000000"  style="stroke:black; stroke-linecap:round; stroke-width:0.25;"/>
<line x1="53.800000" y1="68.000000" x2="53.800000" y2="68.000000"  style="stroke:black; stroke-linecap:round; stroke-width:0.25;"/>
<line x1="53.800000" y1="68.000000" x2="57.800000" y2="68.000000"  style="stroke:black; stroke-linecap:round; stroke-width:0.25;"/>
<line x1="65.800000" y1="36.000000" x2="69.800000" y2="36.000000"  style="stroke:black; stroke-linecap:round; stroke-width:0.25;"/>
<line x1="69.800000" y1="36.000000" x2="85.800000" y2="36.000000"  style="stroke:black; stroke-linecap:round; stroke-width:0.25;"/>
<line x1="81.800000" y1="68.000000" x2="85.800000" y2="68.000000"  style="stroke:black; stroke-linecap:round; stroke-width:0.25;"/>
<line x1="85.800000" y1="36.000000" x2="93.800000" y2="36.000000"  style="stroke:black; stroke-linecap:round; stroke-width:0.25;"/>
<line x1="85.800000" y1="56.000000" x2="93.800000" y2="56.000000"  style="stroke:black; stroke-linecap:round; stroke-width:0.25;"/>
<line x1="85.800000" y1="68.000000" x2="85.800000" y2="56.000000"  style="stroke:black; stroke-linecap:round; stroke-width:0.25;"/>
<line x1="85.800000" y1="68.000000" x2="85.800000" y2="68.000000"  style="stroke:black; stroke-linecap:round; stroke-width:0.25;"/>
<line x1="93.800000" y1="36.000000" x2="93.800000" y2="48.000000"  style="stroke:black; stroke-linecap:round; stroke-width:0.25;"/>
<line x1="93.800000" y1="48.000000" x2="93.800000" y2="48.000000"  style="stroke:black; stroke-linecap:round; stroke-width:0.25;"/>
<line x1="93.800000" y1="48.000000" x2="97.800000" y2="48.000000"  style="stroke:black; stroke-linecap:round; stroke-width:0.25;"/>
<line x1="93.800000" y1="56.000000" x2="97.800000" y2="56.000000"  style="stroke:black; stroke-linecap:round; stroke-width:0.25;"/>
<line x1="121.800000" y1="52.000000" x2="125.800000" y2="52.000000"  style="stroke:black; stroke-linecap:round; stroke-width:0.25;"/>
<line x1="125.800000" y1="52.000000" x2="125.800000" y2="52.000000"  style="stroke:black; stroke-linecap:round; stroke-width:0.25;"/>
<line x1="125.800000" y1="52.000000" x2="129.800000" y2="52.000000"  style="stroke:black; stroke-linecap:round; stroke-width:0.25;"/>
<line x1="153.800000" y1="52.000000" x2="157.800000" y2="52.000000"  style="stroke:black; stroke-linecap:round; stroke-width:0.25;"/>
<line x1="157.800000" y1="52.000000" x2="157.800000" y2="52.000000"  style="stroke:black; stroke-linecap:round; stroke-width:0.25;"/>
<line x1="157.800000" y1="52.000000" x2="161.800000" y2="52.000000"  style="stroke:black; stroke-linecap:round; stroke-width:0.25;"/>
<line x1="290.800000" y1="52.000000" x2="294.800000" y2="52.000000"  style="stroke:black; stroke-linecap:round; stroke-width:0.25;"/>
<line x1="294.800000" y1="26.000000" x2="302.800000" y2="26.000000"  style="stroke:black; stroke-linecap:round; stroke-width:0.25;"/>
<line x1="294.800000" y1="52.000000" x2="294.800000" y2="26.000000"  style="stroke:black; stroke-linecap:round; stroke-width:0.25;"/>
<line x1="294.800000" y1="52.000000" x2="294.800000" y2="52.000000"  style="stroke:black; stroke-linecap:round; stroke-width:0.25;"/>
<line x1="302.800000" y1="26.000000" x2="328.800000" y2="26.000000"  style="stroke:black; stroke-linecap:round; stroke-width:0.25;"/>
<line x1="328.800000" y1="26.000000" x2="354.800000" y2="26.000000"  style="stroke:black; stroke-linecap:round; stroke-width:0.25;"/>
<line x1="340.800000" y1="56.000000" x2="344.800000" y2="56.000000"  style="stroke:black; stroke-linecap:round; stroke-width:0.25;"/>
<line x1="344.800000" y1="56.000000" x2="354.800000" y2="56.000000"  style="stroke:black; stroke-linecap:round; stroke-width:0.25;"/>
<line x1="354.800000" y1="26.000000" x2="362.800000" y2="26.000000"  style="stroke:black; stroke-linecap:round; stroke-width:0.25;"/>
<line x1="354.800000" y1="56.000000" x2="362.800000" y2="56.000000"  style="stroke:black; stroke-linecap:round; stroke-width:0.25;"/>
<line x1="362.800000" y1="26.000000" x2="362.800000" y2="48.000000"  style="stroke:black; stroke-linecap:round; stroke-width:0.25;"/>
<line x1="362.800000" y1="48.000000" x2="362.800000" y2="48.000000"  style="stroke:black; stroke-linecap:round; stroke-width:0.25;"/>
<line x1="362.800000" y1="48.000000" x2="366.800000" y2="48.000000"  style="stroke:black; stroke-linecap:round; stroke-width:0.25;"/>
<line x1="362.800000" y1="56.000000" x2="366.800000" y2="56.000000"  style="stroke:black; stroke-linecap:round; stroke-width:0.25;"/>
<line x1="390.800000" y1="52.000000" x2="394.800000" y2="52.000000"  style="stroke:black; stroke-linecap:round; stroke-width:0.25;"/>
<line x1="394.800000" y1="52.000000" x2="394.800000" y2="52.000000"  style="stroke:black; stroke-linecap:round; stroke-width:0.25;"/>
<line x1="394.800000" y1="52.000000" x2="398.800000" y2="52.000000"  style="stroke:black; stroke-linecap:round; stroke-width:0.25;"/>
<line x1="398.800000" y1="52.000000" x2="402.800000" y2="52.000000"  style="stroke:black; stroke-linecap:round; stroke-width:0.25;"/>
<line x1="402.800000" y1="52.000000" x2="412.800000" y2="52.000000"  style="stroke:black; stroke-linecap:round; stroke-width:0.25;"/>
</svg>
