<?xml version="1.0"?>
<svg xmlns="http://www.w3.org/2000/svg" xmlns:xlink="http://www.w3.org/1999/xlink" viewBox="0 0 330.800000 104.000000" width="165.400000mm" height="52.000000mm" version="1.1">
<a xlink:href="string-0x7f880ac3c000.svg">
<rect x="1.000000" y="1.000000" width="329.800000" height="103.000000" rx="0" ry="0" style="stroke:none;fill:#cccccc;"/>
<rect x="0.000000" y="0.000000" width="329.800000" height="103.000000" rx="0" ry="0" style="stroke:none;fill:#ffffff;"/>
</a>
<text x="10.000000" y="7.000000" font-family="Arial" font-size="7"></text>
<a xlink:href="upfront-0x7f880ac316e0.svg">
<rect x="33.000000" y="41.000000" width="38.700000" height="24.000000" rx="0" ry="0" style="stroke:none;fill:#cccccc;"/>
<rect x="32.000000" y="40.000000" width="38.700000" height="24.000000" rx="0" ry="0" style="stroke:none;fill:#003366;"/>
</a>
<a xlink:href="upfront-0x7f880ac316e0.svg">
<text x="51.350000" y="54.000000" font-family="Arial" font-size="7" text-anchor="middle" fill="#FFFFFF">upfront</text>
</a>
<circle cx="34.000000" cy="42.000000" r="1"/>
<line x1="29.000000" y1="51.000000" x2="32.000000" y2="52.000000"  transform="rotate(0.000000,32.000000,52.000000)" style="stroke: black; stroke-width:0.25;"/>
<line x1="29.000000" y1="53.000000" x2="32.000000" y2="52.000000"  transform="rotate(0.000000,32.000000,52.000000)" style="stroke: black; stroke-width:0.25;"/>
<rect x="141.750000" y="57.000000" width="24.000000" height="24.000000" rx="0" ry="0" style="stroke:none;fill:#cccccc;"/>
<rect x="140.750000" y="56.000000" width="24.000000" height="24.000000" rx="0" ry="0" style="stroke:none;fill:#4B71A1;"/>
<text x="152.750000" y="70.000000" font-family="Arial" font-size="7" text-anchor="middle" fill="#FFFFFF">+</text>
<circle cx="142.750000" cy="58.000000" r="1"/>
<line x1="137.750000" y1="63.000000" x2="140.750000" y2="64.000000"  transform="rotate(0.000000,140.750000,64.000000)" style="stroke: black; stroke-width:0.25;"/>
<line x1="137.750000" y1="65.000000" x2="140.750000" y2="64.000000"  transform="rotate(0.000000,140.750000,64.000000)" style="stroke: black; stroke-width:0.25;"/>
<line x1="137.750000" y1="71.000000" x2="140.750000" y2="72.000000"  transform="rotate(0.000000,140.750000,72.000000)" style="stroke: black; stroke-width:0.25;"/>
<line x1="137.750000" y1="73.000000" x2="140.750000" y2="72.000000"  transform="rotate(0.000000,140.750000,72.000000)" style="stroke: black; stroke-width:0.25;"/>
<a xlink:href="decay-0x7f880ac334d0.svg">
<rect x="95.700000" y="25.000000" width="116.100000" height="24.000000" rx="0" ry="0" style="stroke:none;fill:#cccccc;"/>
<rect x="94.700000" y="24.000000" width="116.100000" height="24.000000" rx="0" ry="0" style="stroke:none;fill:#003366;"/>
</a>
<a xlink:href="decay-0x7f880ac334d0.svg">
<text x="152.750000" y="38.000000" font-family="Arial" font-size="7" text-anchor="middle" fill="#FFFFFF">decay(337.12301738808014f)</text>
</a>
<circle cx="208.800000" cy="46.000000" r="1"/>
<line x1="213.800000" y1="35.000000" x2="210.800000" y2="36.000000"  transform="rotate(0.000000,210.800000,36.000000)" style="stroke: black; stroke-width:0.25;"/>
<line x1="213.800000" y1="37.000000" x2="210.800000" y2="36.000000"  transform="rotate(0.000000,210.800000,36.000000)" style="stroke: black; stroke-width:0.25;"/>
<line x1="212.800000" y1="68.000000" x2="212.800000" y2="64.000000"  style="stroke:black; stroke-linecap:round; stroke-width:0.25;"/>
<line x1="212.800000" y1="64.000000" x2="216.800000" y2="64.000000"  style="stroke:black; stroke-linecap:round; stroke-width:0.25;"/>
<line x1="216.800000" y1="64.000000" x2="216.800000" y2="68.000000"  style="stroke:black; stroke-linecap:round; stroke-width:0.25;"/>
<rect x="235.800000" y="45.000000" width="24.000000" height="24.000000" rx="0" ry="0" style="stroke:none;fill:#cccccc;"/>
<rect x="234.800000" y="44.000000" width="24.000000" height="24.000000" rx="0" ry="0" style="stroke:none;fill:#f44800;"/>
<text x="246.800000" y="58.000000" font-family="Arial" font-size="7" text-anchor="middle" fill="#FFFFFF">0</text>
<circle cx="236.800000" cy="46.000000" r="1"/>
<rect x="275.800000" y="41.000000" width="24.000000" height="24.000000" rx="0" ry="0" style="stroke:none;fill:#cccccc;"/>
<rect x="274.800000" y="40.000000" width="24.000000" height="24.000000" rx="0" ry="0" style="stroke:none;fill:#4B71A1;"/>
<text x="286.800000" y="54.000000" font-family="Arial" font-size="7" text-anchor="middle" fill="#FFFFFF">&gt;</text>
<circle cx="276.800000" cy="42.000000" r="1"/>
<line x1="271.800000" y1="47.000000" x2="274.800000" y2="48.000000"  transform="rotate(0.000000,274.800000,48.000000)" style="stroke: black; stroke-width:0.25;"/>
<line x1="271.800000" y1="49.000000" x2="274.800000" y2="48.000000"  transform="rotate(0.000000,274.800000,48.000000)" style="stroke: black; stroke-width:0.25;"/>
<line x1="271.800000" y1="55.000000" x2="274.800000" y2="56.000000"  transform="rotate(0.000000,274.800000,56.000000)" style="stroke: black; stroke-width:0.25;"/>
<line x1="271.800000" y1="57.000000" x2="274.800000" y2="56.000000"  transform="rotate(0.000000,274.800000,56.000000)" style="stroke: black; stroke-width:0.25;"/>
<line x1="15.000000" y1="15.000000" x2="15.000000" y2="89.000000"  style="stroke: black; stroke-linecap:round; stroke-width:0.25; stroke-dasharray:3,3;"/>
<line x1="15.000000" y1="89.000000" x2="315.800000" y2="89.000000"  style="stroke: black; stroke-linecap:round; stroke-width:0.25; stroke-dasharray:3,3;"/>
<line x1="315.800000" y1="89.000000" x2="315.800000" y2="15.000000"  style="stroke: black; stroke-linecap:round; stroke-width:0.25; stroke-dasharray:3,3;"/>
<line x1="15.000000" y1="15.000000" x2="20.000000" y2="15.000000"  style="stroke: black; stroke-linecap:round; stroke-width:0.25; stroke-dasharray:3,3;"/>
<line x1="116.750000" y1="15.000000" x2="315.800000" y2="15.000000"  style="stroke: black; stroke-linecap:round; stroke-width:0.25; stroke-dasharray:3,3;"/>
<text x="20.000000" y="17.000000" font-family="Arial" font-size="7">trigger(337.12301738808014f)</text>
<line x1="317.800000" y1="51.000000" x2="320.800000" y2="52.000000"  transform="rotate(0.000000,320.800000,52.000000)" style="stroke: black; stroke-width:0.25;"/>
<line x1="317.800000" y1="53.000000" x2="320.800000" y2="52.000000"  transform="rotate(0.000000,320.800000,52.000000)" style="stroke: black; stroke-width:0.25;"/>
<line x1="10.000000" y1="52.000000" x2="20.000000" y2="52.000000"  style="stroke:black; stroke-linecap:round; stroke-width:0.25;"/>
<line x1="20.000000" y1="52.000000" x2="24.000000" y2="52.000000"  style="stroke:black; stroke-linecap:round; stroke-width:0.25;"/>
<line x1="24.000000" y1="52.000000" x2="28.000000" y2="52.000000"  style="stroke:black; stroke-linecap:round; stroke-width:0.25;"/>
<line x1="28.000000" y1="52.000000" x2="28.000000" y2="52.000000"  style="stroke:black; stroke-linecap:round; stroke-width:0.25;"/>
<line x1="28.000000" y1="52.000000" x2="32.000000" y2="52.000000"  style="stroke:black; stroke-linecap:round; stroke-width:0.25;"/>
<line x1="70.700000" y1="52.000000" x2="74.700000" y2="52.000000"  style="stroke:black; stroke-linecap:round; stroke-width:0.25;"/>
<line x1="74.700000" y1="52.000000" x2="82.700000" y2="52.000000"  style="stroke:black; stroke-linecap:round; stroke-width:0.25;"/>
<line x1="82.700000" y1="52.000000" x2="82.700000" y2="72.000000"  style="stroke:black; stroke-linecap:round; stroke-width:0.25;"/>
<line x1="82.700000" y1="72.000000" x2="82.700000" y2="72.000000"  style="stroke:black; stroke-linecap:round; stroke-width:0.25;"/>
<line x1="82.700000" y1="72.000000" x2="90.700000" y2="72.000000"  style="stroke:black; stroke-linecap:round; stroke-width:0.25;"/>
<line x1="90.700000" y1="36.000000" x2="90.700000" y2="36.000000"  style="stroke:black; stroke-linecap:round; stroke-width:0.25;"/>
<line x1="90.700000" y1="36.000000" x2="90.700000" y2="64.000000"  style="stroke:black; stroke-linecap:round; stroke-width:0.25;"/>
<line x1="90.700000" y1="64.000000" x2="90.700000" y2="64.000000"  style="stroke:black; stroke-linecap:round; stroke-width:0.25;"/>
<line x1="90.700000" y1="64.000000" x2="136.750000" y2="64.000000"  style="stroke:black; stroke-linecap:round; stroke-width:0.25;"/>
<line x1="90.700000" y1="72.000000" x2="136.750000" y2="72.000000"  style="stroke:black; stroke-linecap:round; stroke-width:0.25;"/>
<line x1="94.700000" y1="36.000000" x2="90.700000" y2="36.000000"  style="stroke:black; stroke-linecap:round; stroke-width:0.25;"/>
<line x1="136.750000" y1="64.000000" x2="140.750000" y2="64.000000"  style="stroke:black; stroke-linecap:round; stroke-width:0.25;"/>
<line x1="136.750000" y1="72.000000" x2="140.750000" y2="72.000000"  style="stroke:black; stroke-linecap:round; stroke-width:0.25;"/>
<line x1="164.750000" y1="68.000000" x2="168.750000" y2="68.000000"  style="stroke:black; stroke-linecap:round; stroke-width:0.25;"/>
<line x1="168.750000" y1="68.000000" x2="214.800000" y2="68.000000"  style="stroke:black; stroke-linecap:round; stroke-width:0.25;"/>
<line x1="214.800000" y1="36.000000" x2="210.800000" y2="36.000000"  style="stroke:black; stroke-linecap:round; stroke-width:0.25;"/>
<line x1="214.800000" y1="36.000000" x2="214.800000" y2="36.000000"  style="stroke:black; stroke-linecap:round; stroke-width:0.25;"/>
<line x1="214.800000" y1="64.000000" x2="214.800000" y2="36.000000"  style="stroke:black; stroke-linecap:round; stroke-width:0.25;"/>
<line x1="214.800000" y1="68.000000" x2="216.800000" y2="68.000000"  style="stroke:black; stroke-linecap:round; stroke-width:0.25;"/>
<line x1="216.800000" y1="68.000000" x2="222.800000" y2="68.000000"  style="stroke:black; stroke-linecap:round; stroke-width:0.25;"/>
<line x1="222.800000" y1="36.000000" x2="230.800000" y2="36.000000"  style="stroke:black; stroke-linecap:round; stroke-width:0.25;"/>
<line x1="222.800000" y1="68.000000" x2="222.800000" y2="36.000000"  style="stroke:black; stroke-linecap:round; stroke-width:0.25;"/>
<line x1="222.800000" y1="68.000000" x2="222.800000" y2="68.000000"  style="stroke:black; stroke-linecap:round; stroke-width:0.25;"/>
<line x1="230.800000" y1="36.000000" x2="246.800000" y2="36.000000"  style="stroke:black; stroke-linecap:round; stroke-width:0.25;"/>
<line x1="246.800000" y1="36.000000" x2="262.800000" y2="36.000000"  style="stroke:black; stroke-linecap:round; stroke-width:0.25;"/>
<line x1="258.800000" y1="56.000000" x2="262.800000" y2="56.000000"  style="stroke:black; stroke-linecap:round; stroke-width:0.25;"/>
<line x1="262.800000" y1="36.000000" x2="270.800000" y2="36.000000"  style="stroke:black; stroke-linecap:round; stroke-width:0.25;"/>
<line x1="262.800000" y1="56.000000" x2="270.800000" y2="56.000000"  style="stroke:black; stroke-linecap:round; stroke-width:0.25;"/>
<line x1="270.800000" y1="36.000000" x2="270.800000" y2="48.000000"  style="stroke:black; stroke-linecap:round; stroke-width:0.25;"/>
<line x1="270.800000" y1="48.000000" x2="270.800000" y2="48.000000"  style="stroke:black; stroke-linecap:round; stroke-width:0.25;"/>
<line x1="270.800000" y1="48.000000" x2="274.800000" y2="48.000000"  style="stroke:black; stroke-linecap:round; stroke-width:0.25;"/>
<line x1="270.800000" y1="56.000000" x2="274.800000" y2="56.000000"  style="stroke:black; stroke-linecap:round; stroke-width:0.25;"/>
<line x1="298.800000" y1="52.000000" x2="302.800000" y2="52.000000"  style="stroke:black; stroke-linecap:round; stroke-width:0.25;"/>
<line x1="302.800000" y1="52.000000" x2="302.800000" y2="52.000000"  style="stroke:black; stroke-linecap:round; stroke-width:0.25;"/>
<line x1="302.800000" y1="52.000000" x2="306.800000" y2="52.000000"  style="stroke:black; stroke-linecap:round; stroke-width:0.25;"/>
<line x1="306.800000" y1="52.000000" x2="310.800000" y2="52.000000"  style="stroke:black; stroke-linecap:round; stroke-width:0.25;"/>
<line x1="310.800000" y1="52.000000" x2="320.800000" y2="52.000000"  style="stroke:black; stroke-linecap:round; stroke-width:0.25;"/>
</svg>
