<?xml version="1.0"?>
<svg xmlns="http://www.w3.org/2000/svg" xmlns:xlink="http://www.w3.org/1999/xlink" viewBox="0 0 755.500000 100.000000" width="377.750000mm" height="50.000000mm" version="1.1">
<a xlink:href="position-0x7fd34598d6b0.svg">
<rect x="1.000000" y="1.000000" width="754.500000" height="99.000000" rx="0" ry="0" style="stroke:none;fill:#cccccc;"/>
<rect x="0.000000" y="0.000000" width="754.500000" height="99.000000" rx="0" ry="0" style="stroke:none;fill:#ffffff;"/>
</a>
<text x="10.000000" y="7.000000" font-family="Arial" font-size="7"></text>
<rect x="25.000000" y="39.000000" width="219.300000" height="24.000000" rx="0" ry="0" style="stroke:none;fill:#cccccc;"/>
<rect x="24.000000" y="38.000000" width="219.300000" height="24.000000" rx="0" ry="0" style="stroke:none;fill:#477881;"/>
<text x="133.650000" y="52.000000" font-family="Arial" font-size="7" text-anchor="middle" fill="#FFFFFF">hslider(Instrument Hand, 12.0f, 0.0f, 24.0f, 1.0f)</text>
<circle cx="26.000000" cy="40.000000" r="1"/>
<a xlink:href="smooth-0x7fd345935370.svg">
<rect x="252.300000" y="39.000000" width="64.500000" height="24.000000" rx="0" ry="0" style="stroke:none;fill:#cccccc;"/>
<rect x="251.300000" y="38.000000" width="64.500000" height="24.000000" rx="0" ry="0" style="stroke:none;fill:#003366;"/>
</a>
<a xlink:href="smooth-0x7fd345935370.svg">
<text x="283.550000" y="52.000000" font-family="Arial" font-size="7" text-anchor="middle" fill="#FFFFFF">smooth(0.999f)</text>
</a>
<circle cx="253.300000" cy="40.000000" r="1"/>
<line x1="248.300000" y1="49.000000" x2="251.300000" y2="50.000000"  transform="rotate(0.000000,251.300000,50.000000)" style="stroke: black; stroke-width:0.25;"/>
<line x1="248.300000" y1="51.000000" x2="251.300000" y2="50.000000"  transform="rotate(0.000000,251.300000,50.000000)" style="stroke: black; stroke-width:0.25;"/>
<rect x="342.800000" y="35.000000" width="24.000000" height="24.000000" rx="0" ry="0" style="stroke:none;fill:#cccccc;"/>
<rect x="341.800000" y="34.000000" width="24.000000" height="24.000000" rx="0" ry="0" style="stroke:none;fill:#f44800;"/>
<text x="353.800000" y="48.000000" font-family="Arial" font-size="7" text-anchor="middle" fill="#FFFFFF">24</text>
<circle cx="343.800000" cy="36.000000" r="1"/>
<line x1="332.800000" y1="25.000000" x2="332.800000" y2="67.000000"  style="stroke: black; stroke-linecap:round; stroke-width:0.25; stroke-dasharray:3,3;"/>
<line x1="332.800000" y1="67.000000" x2="374.800000" y2="67.000000"  style="stroke: black; stroke-linecap:round; stroke-width:0.25; stroke-dasharray:3,3;"/>
<line x1="374.800000" y1="67.000000" x2="374.800000" y2="25.000000"  style="stroke: black; stroke-linecap:round; stroke-width:0.25; stroke-dasharray:3,3;"/>
<line x1="332.800000" y1="25.000000" x2="337.800000" y2="25.000000"  style="stroke: black; stroke-linecap:round; stroke-width:0.25; stroke-dasharray:3,3;"/>
<line x1="347.475000" y1="25.000000" x2="374.800000" y2="25.000000"  style="stroke: black; stroke-linecap:round; stroke-width:0.25; stroke-dasharray:3,3;"/>
<text x="337.800000" y="27.000000" font-family="Arial" font-size="7">N</text>
<rect x="392.800000" y="39.000000" width="24.000000" height="24.000000" rx="0" ry="0" style="stroke:none;fill:#cccccc;"/>
<rect x="391.800000" y="38.000000" width="24.000000" height="24.000000" rx="0" ry="0" style="stroke:none;fill:#4B71A1;"/>
<text x="403.800000" y="52.000000" font-family="Arial" font-size="7" text-anchor="middle" fill="#FFFFFF">min</text>
<circle cx="393.800000" cy="40.000000" r="1"/>
<line x1="388.800000" y1="45.000000" x2="391.800000" y2="46.000000"  transform="rotate(0.000000,391.800000,46.000000)" style="stroke: black; stroke-width:0.25;"/>
<line x1="388.800000" y1="47.000000" x2="391.800000" y2="46.000000"  transform="rotate(0.000000,391.800000,46.000000)" style="stroke: black; stroke-width:0.25;"/>
<line x1="388.800000" y1="53.000000" x2="391.800000" y2="54.000000"  transform="rotate(0.000000,391.800000,54.000000)" style="stroke: black; stroke-width:0.25;"/>
<line x1="388.800000" y1="55.000000" x2="391.800000" y2="54.000000"  transform="rotate(0.000000,391.800000,54.000000)" style="stroke: black; stroke-width:0.25;"/>
<rect x="442.800000" y="35.000000" width="24.000000" height="24.000000" rx="0" ry="0" style="stroke:none;fill:#cccccc;"/>
<rect x="441.800000" y="34.000000" width="24.000000" height="24.000000" rx="0" ry="0" style="stroke:none;fill:#f44800;"/>
<text x="453.800000" y="48.000000" font-family="Arial" font-size="7" text-anchor="middle" fill="#FFFFFF">0</text>
<circle cx="443.800000" cy="36.000000" r="1"/>
<line x1="432.800000" y1="25.000000" x2="432.800000" y2="67.000000"  style="stroke: black; stroke-linecap:round; stroke-width:0.25; stroke-dasharray:3,3;"/>
<line x1="432.800000" y1="67.000000" x2="474.800000" y2="67.000000"  style="stroke: black; stroke-linecap:round; stroke-width:0.25; stroke-dasharray:3,3;"/>
<line x1="474.800000" y1="67.000000" x2="474.800000" y2="25.000000"  style="stroke: black; stroke-linecap:round; stroke-width:0.25; stroke-dasharray:3,3;"/>
<line x1="432.800000" y1="25.000000" x2="437.800000" y2="25.000000"  style="stroke: black; stroke-linecap:round; stroke-width:0.25; stroke-dasharray:3,3;"/>
<line x1="450.700000" y1="25.000000" x2="474.800000" y2="25.000000"  style="stroke: black; stroke-linecap:round; stroke-width:0.25; stroke-dasharray:3,3;"/>
<text x="437.800000" y="27.000000" font-family="Arial" font-size="7">b1</text>
<rect x="492.800000" y="39.000000" width="24.000000" height="24.000000" rx="0" ry="0" style="stroke:none;fill:#cccccc;"/>
<rect x="491.800000" y="38.000000" width="24.000000" height="24.000000" rx="0" ry="0" style="stroke:none;fill:#4B71A1;"/>
<text x="503.800000" y="52.000000" font-family="Arial" font-size="7" text-anchor="middle" fill="#FFFFFF">max</text>
<circle cx="493.800000" cy="40.000000" r="1"/>
<line x1="488.800000" y1="45.000000" x2="491.800000" y2="46.000000"  transform="rotate(0.000000,491.800000,46.000000)" style="stroke: black; stroke-width:0.25;"/>
<line x1="488.800000" y1="47.000000" x2="491.800000" y2="46.000000"  transform="rotate(0.000000,491.800000,46.000000)" style="stroke: black; stroke-width:0.25;"/>
<line x1="488.800000" y1="53.000000" x2="491.800000" y2="54.000000"  transform="rotate(0.000000,491.800000,54.000000)" style="stroke: black; stroke-width:0.25;"/>
<line x1="488.800000" y1="55.000000" x2="491.800000" y2="54.000000"  transform="rotate(0.000000,491.800000,54.000000)" style="stroke: black; stroke-width:0.25;"/>
<rect x="524.800000" y="39.000000" width="24.000000" height="24.000000" rx="0" ry="0" style="stroke:none;fill:#cccccc;"/>
<rect x="523.800000" y="38.000000" width="24.000000" height="24.000000" rx="0" ry="0" style="stroke:none;fill:#4B71A1;"/>
<text x="535.800000" y="52.000000" font-family="Arial" font-size="7" text-anchor="middle" fill="#FFFFFF">int</text>
<circle cx="525.800000" cy="40.000000" r="1"/>
<line x1="520.800000" y1="49.000000" x2="523.800000" y2="50.000000"  transform="rotate(0.000000,523.800000,50.000000)" style="stroke: black; stroke-width:0.25;"/>
<line x1="520.800000" y1="51.000000" x2="523.800000" y2="50.000000"  transform="rotate(0.000000,523.800000,50.000000)" style="stroke: black; stroke-width:0.25;"/>
<a xlink:href="automat-0x7fd34598cdb0.svg">
<rect x="556.800000" y="39.000000" width="167.700000" height="24.000000" rx="0" ry="0" style="stroke:none;fill:#cccccc;"/>
<rect x="555.800000" y="38.000000" width="167.700000" height="24.000000" rx="0" ry="0" style="stroke:none;fill:#003366;"/>
</a>
<a xlink:href="automat-0x7fd34598cdb0.svg">
<text x="639.650000" y="52.000000" font-family="Arial" font-size="7" text-anchor="middle" fill="#FFFFFF">automat(hslid... : max : int)(15)(0.0f)</text>
</a>
<circle cx="557.800000" cy="40.000000" r="1"/>
<line x1="552.800000" y1="49.000000" x2="555.800000" y2="50.000000"  transform="rotate(0.000000,555.800000,50.000000)" style="stroke: black; stroke-width:0.25;"/>
<line x1="552.800000" y1="51.000000" x2="555.800000" y2="50.000000"  transform="rotate(0.000000,555.800000,50.000000)" style="stroke: black; stroke-width:0.25;"/>
<line x1="15.000000" y1="15.000000" x2="15.000000" y2="85.000000"  style="stroke: black; stroke-linecap:round; stroke-width:0.25; stroke-dasharray:3,3;"/>
<line x1="15.000000" y1="85.000000" x2="740.500000" y2="85.000000"  style="stroke: black; stroke-linecap:round; stroke-width:0.25; stroke-dasharray:3,3;"/>
<line x1="740.500000" y1="85.000000" x2="740.500000" y2="15.000000"  style="stroke: black; stroke-linecap:round; stroke-width:0.25; stroke-dasharray:3,3;"/>
<line x1="15.000000" y1="15.000000" x2="20.000000" y2="15.000000"  style="stroke: black; stroke-linecap:round; stroke-width:0.25; stroke-dasharray:3,3;"/>
<line x1="39.350000" y1="15.000000" x2="740.500000" y2="15.000000"  style="stroke: black; stroke-linecap:round; stroke-width:0.25; stroke-dasharray:3,3;"/>
<text x="20.000000" y="17.000000" font-family="Arial" font-size="7">hand</text>
<line x1="742.500000" y1="49.000000" x2="745.500000" y2="50.000000"  transform="rotate(0.000000,745.500000,50.000000)" style="stroke: black; stroke-width:0.25;"/>
<line x1="742.500000" y1="51.000000" x2="745.500000" y2="50.000000"  transform="rotate(0.000000,745.500000,50.000000)" style="stroke: black; stroke-width:0.25;"/>
<line x1="243.300000" y1="50.000000" x2="247.300000" y2="50.000000"  style="stroke:black; stroke-linecap:round; stroke-width:0.25;"/>
<line x1="247.300000" y1="50.000000" x2="247.300000" y2="50.000000"  style="stroke:black; stroke-linecap:round; stroke-width:0.25;"/>
<line x1="247.300000" y1="50.000000" x2="251.300000" y2="50.000000"  style="stroke:black; stroke-linecap:round; stroke-width:0.25;"/>
<line x1="315.800000" y1="50.000000" x2="319.800000" y2="50.000000"  style="stroke:black; stroke-linecap:round; stroke-width:0.25;"/>
<line x1="319.800000" y1="50.000000" x2="327.800000" y2="50.000000"  style="stroke:black; stroke-linecap:round; stroke-width:0.25;"/>
<line x1="327.800000" y1="50.000000" x2="327.800000" y2="76.000000"  style="stroke:black; stroke-linecap:round; stroke-width:0.25;"/>
<line x1="327.800000" y1="76.000000" x2="327.800000" y2="76.000000"  style="stroke:black; stroke-linecap:round; stroke-width:0.25;"/>
<line x1="327.800000" y1="76.000000" x2="353.800000" y2="76.000000"  style="stroke:black; stroke-linecap:round; stroke-width:0.25;"/>
<line x1="353.800000" y1="76.000000" x2="379.800000" y2="76.000000"  style="stroke:black; stroke-linecap:round; stroke-width:0.25;"/>
<line x1="365.800000" y1="46.000000" x2="369.800000" y2="46.000000"  style="stroke:black; stroke-linecap:round; stroke-width:0.25;"/>
<line x1="369.800000" y1="46.000000" x2="379.800000" y2="46.000000"  style="stroke:black; stroke-linecap:round; stroke-width:0.25;"/>
<line x1="379.800000" y1="46.000000" x2="387.800000" y2="46.000000"  style="stroke:black; stroke-linecap:round; stroke-width:0.25;"/>
<line x1="379.800000" y1="54.000000" x2="387.800000" y2="54.000000"  style="stroke:black; stroke-linecap:round; stroke-width:0.25;"/>
<line x1="379.800000" y1="76.000000" x2="379.800000" y2="54.000000"  style="stroke:black; stroke-linecap:round; stroke-width:0.25;"/>
<line x1="379.800000" y1="76.000000" x2="379.800000" y2="76.000000"  style="stroke:black; stroke-linecap:round; stroke-width:0.25;"/>
<line x1="387.800000" y1="46.000000" x2="391.800000" y2="46.000000"  style="stroke:black; stroke-linecap:round; stroke-width:0.25;"/>
<line x1="387.800000" y1="54.000000" x2="391.800000" y2="54.000000"  style="stroke:black; stroke-linecap:round; stroke-width:0.25;"/>
<line x1="415.800000" y1="50.000000" x2="419.800000" y2="50.000000"  style="stroke:black; stroke-linecap:round; stroke-width:0.25;"/>
<line x1="419.800000" y1="50.000000" x2="427.800000" y2="50.000000"  style="stroke:black; stroke-linecap:round; stroke-width:0.25;"/>
<line x1="427.800000" y1="50.000000" x2="427.800000" y2="76.000000"  style="stroke:black; stroke-linecap:round; stroke-width:0.25;"/>
<line x1="427.800000" y1="76.000000" x2="427.800000" y2="76.000000"  style="stroke:black; stroke-linecap:round; stroke-width:0.25;"/>
<line x1="427.800000" y1="76.000000" x2="453.800000" y2="76.000000"  style="stroke:black; stroke-linecap:round; stroke-width:0.25;"/>
<line x1="453.800000" y1="76.000000" x2="479.800000" y2="76.000000"  style="stroke:black; stroke-linecap:round; stroke-width:0.25;"/>
<line x1="465.800000" y1="46.000000" x2="469.800000" y2="46.000000"  style="stroke:black; stroke-linecap:round; stroke-width:0.25;"/>
<line x1="469.800000" y1="46.000000" x2="479.800000" y2="46.000000"  style="stroke:black; stroke-linecap:round; stroke-width:0.25;"/>
<line x1="479.800000" y1="46.000000" x2="487.800000" y2="46.000000"  style="stroke:black; stroke-linecap:round; stroke-width:0.25;"/>
<line x1="479.800000" y1="54.000000" x2="487.800000" y2="54.000000"  style="stroke:black; stroke-linecap:round; stroke-width:0.25;"/>
<line x1="479.800000" y1="76.000000" x2="479.800000" y2="54.000000"  style="stroke:black; stroke-linecap:round; stroke-width:0.25;"/>
<line x1="479.800000" y1="76.000000" x2="479.800000" y2="76.000000"  style="stroke:black; stroke-linecap:round; stroke-width:0.25;"/>
<line x1="487.800000" y1="46.000000" x2="491.800000" y2="46.000000"  style="stroke:black; stroke-linecap:round; stroke-width:0.25;"/>
<line x1="487.800000" y1="54.000000" x2="491.800000" y2="54.000000"  style="stroke:black; stroke-linecap:round; stroke-width:0.25;"/>
<line x1="515.800000" y1="50.000000" x2="519.800000" y2="50.000000"  style="stroke:black; stroke-linecap:round; stroke-width:0.25;"/>
<line x1="519.800000" y1="50.000000" x2="519.800000" y2="50.000000"  style="stroke:black; stroke-linecap:round; stroke-width:0.25;"/>
<line x1="519.800000" y1="50.000000" x2="523.800000" y2="50.000000"  style="stroke:black; stroke-linecap:round; stroke-width:0.25;"/>
<line x1="547.800000" y1="50.000000" x2="551.800000" y2="50.000000"  style="stroke:black; stroke-linecap:round; stroke-width:0.25;"/>
<line x1="551.800000" y1="50.000000" x2="551.800000" y2="50.000000"  style="stroke:black; stroke-linecap:round; stroke-width:0.25;"/>
<line x1="551.800000" y1="50.000000" x2="555.800000" y2="50.000000"  style="stroke:black; stroke-linecap:round; stroke-width:0.25;"/>
<line x1="723.500000" y1="50.000000" x2="727.500000" y2="50.000000"  style="stroke:black; stroke-linecap:round; stroke-width:0.25;"/>
<line x1="727.500000" y1="50.000000" x2="727.500000" y2="50.000000"  style="stroke:black; stroke-linecap:round; stroke-width:0.25;"/>
<line x1="727.500000" y1="50.000000" x2="731.500000" y2="50.000000"  style="stroke:black; stroke-linecap:round; stroke-width:0.25;"/>
<line x1="731.500000" y1="50.000000" x2="735.500000" y2="50.000000"  style="stroke:black; stroke-linecap:round; stroke-width:0.25;"/>
<line x1="735.500000" y1="50.000000" x2="745.500000" y2="50.000000"  style="stroke:black; stroke-linecap:round; stroke-width:0.25;"/>
</svg>
