<?xml version="1.0"?>
<svg xmlns="http://www.w3.org/2000/svg" xmlns:xlink="http://www.w3.org/1999/xlink" viewBox="0 0 692.200000 288.000000" width="346.100000mm" height="144.000000mm" version="1.1">
<a xlink:href="tunedBar-0x7fd346b4eff0.svg">
<rect x="1.000000" y="1.000000" width="691.200000" height="287.000000" rx="0" ry="0" style="stroke:none;fill:#cccccc;"/>
<rect x="0.000000" y="0.000000" width="691.200000" height="287.000000" rx="0" ry="0" style="stroke:none;fill:#ffffff;"/>
</a>
<text x="10.000000" y="7.000000" font-family="Arial" font-size="7"></text>
<rect x="33.000000" y="133.000000" width="24.000000" height="24.000000" rx="0" ry="0" style="stroke:none;fill:#cccccc;"/>
<rect x="32.000000" y="132.000000" width="24.000000" height="24.000000" rx="0" ry="0" style="stroke:none;fill:#4B71A1;"/>
<text x="44.000000" y="146.000000" font-family="Arial" font-size="7" text-anchor="middle" fill="#FFFFFF">+</text>
<circle cx="34.000000" cy="134.000000" r="1"/>
<line x1="29.000000" y1="139.000000" x2="32.000000" y2="140.000000"  transform="rotate(0.000000,32.000000,140.000000)" style="stroke: black; stroke-width:0.25;"/>
<line x1="29.000000" y1="141.000000" x2="32.000000" y2="140.000000"  transform="rotate(0.000000,32.000000,140.000000)" style="stroke: black; stroke-width:0.25;"/>
<line x1="29.000000" y1="147.000000" x2="32.000000" y2="148.000000"  transform="rotate(0.000000,32.000000,148.000000)" style="stroke: black; stroke-width:0.25;"/>
<line x1="29.000000" y1="149.000000" x2="32.000000" y2="148.000000"  transform="rotate(0.000000,32.000000,148.000000)" style="stroke: black; stroke-width:0.25;"/>
<rect x="83.000000" y="43.000000" width="24.000000" height="24.000000" rx="0" ry="0" style="stroke:none;fill:#cccccc;"/>
<rect x="82.000000" y="42.000000" width="24.000000" height="24.000000" rx="0" ry="0" style="stroke:none;fill:#f44800;"/>
<text x="94.000000" y="56.000000" font-family="Arial" font-size="7" text-anchor="middle" fill="#FFFFFF">1</text>
<circle cx="84.000000" cy="44.000000" r="1"/>
<line x1="73.000000" y1="33.000000" x2="73.000000" y2="75.000000"  style="stroke: black; stroke-linecap:round; stroke-width:0.25; stroke-dasharray:3,3;"/>
<line x1="73.000000" y1="75.000000" x2="115.000000" y2="75.000000"  style="stroke: black; stroke-linecap:round; stroke-width:0.25; stroke-dasharray:3,3;"/>
<line x1="115.000000" y1="75.000000" x2="115.000000" y2="33.000000"  style="stroke: black; stroke-linecap:round; stroke-width:0.25; stroke-dasharray:3,3;"/>
<line x1="73.000000" y1="33.000000" x2="78.000000" y2="33.000000"  style="stroke: black; stroke-linecap:round; stroke-width:0.25; stroke-dasharray:3,3;"/>
<line x1="103.800000" y1="33.000000" x2="115.000000" y2="33.000000"  style="stroke: black; stroke-linecap:round; stroke-width:0.25; stroke-dasharray:3,3;"/>
<text x="78.000000" y="35.000000" font-family="Arial" font-size="7">select</text>
<rect x="83.000000" y="95.000000" width="24.000000" height="24.000000" rx="0" ry="0" style="stroke:none;fill:#cccccc;"/>
<rect x="82.000000" y="94.000000" width="24.000000" height="24.000000" rx="0" ry="0" style="stroke:none;fill:#f44800;"/>
<text x="94.000000" y="108.000000" font-family="Arial" font-size="7" text-anchor="middle" fill="#FFFFFF">0.8</text>
<circle cx="84.000000" cy="96.000000" r="1"/>
<line x1="73.000000" y1="85.000000" x2="73.000000" y2="127.000000"  style="stroke: black; stroke-linecap:round; stroke-width:0.25; stroke-dasharray:3,3;"/>
<line x1="73.000000" y1="127.000000" x2="115.000000" y2="127.000000"  style="stroke: black; stroke-linecap:round; stroke-width:0.25; stroke-dasharray:3,3;"/>
<line x1="115.000000" y1="127.000000" x2="115.000000" y2="85.000000"  style="stroke: black; stroke-linecap:round; stroke-width:0.25; stroke-dasharray:3,3;"/>
<line x1="73.000000" y1="85.000000" x2="78.000000" y2="85.000000"  style="stroke: black; stroke-linecap:round; stroke-width:0.25; stroke-dasharray:3,3;"/>
<line x1="97.350000" y1="85.000000" x2="115.000000" y2="85.000000"  style="stroke: black; stroke-linecap:round; stroke-width:0.25; stroke-dasharray:3,3;"/>
<text x="78.000000" y="87.000000" font-family="Arial" font-size="7">gain</text>
<rect x="133.000000" y="69.000000" width="24.000000" height="24.000000" rx="0" ry="0" style="stroke:none;fill:#cccccc;"/>
<rect x="132.000000" y="68.000000" width="24.000000" height="24.000000" rx="0" ry="0" style="stroke:none;fill:#4B71A1;"/>
<text x="144.000000" y="82.000000" font-family="Arial" font-size="7" text-anchor="middle" fill="#FFFFFF">*</text>
<circle cx="134.000000" cy="70.000000" r="1"/>
<line x1="129.000000" y1="75.000000" x2="132.000000" y2="76.000000"  transform="rotate(0.000000,132.000000,76.000000)" style="stroke: black; stroke-width:0.25;"/>
<line x1="129.000000" y1="77.000000" x2="132.000000" y2="76.000000"  transform="rotate(0.000000,132.000000,76.000000)" style="stroke: black; stroke-width:0.25;"/>
<line x1="129.000000" y1="83.000000" x2="132.000000" y2="84.000000"  transform="rotate(0.000000,132.000000,84.000000)" style="stroke: black; stroke-width:0.25;"/>
<line x1="129.000000" y1="85.000000" x2="132.000000" y2="84.000000"  transform="rotate(0.000000,132.000000,84.000000)" style="stroke: black; stroke-width:0.25;"/>
<a xlink:href="gate-0x7fd3463bd300.svg">
<rect x="95.650000" y="137.000000" width="38.700000" height="24.000000" rx="0" ry="0" style="stroke:none;fill:#cccccc;"/>
<rect x="94.650000" y="136.000000" width="38.700000" height="24.000000" rx="0" ry="0" style="stroke:none;fill:#003366;"/>
</a>
<a xlink:href="gate-0x7fd3463bd300.svg">
<text x="114.000000" y="150.000000" font-family="Arial" font-size="7" text-anchor="middle" fill="#FFFFFF">gate(6)</text>
</a>
<circle cx="96.650000" cy="138.000000" r="1"/>
<rect x="173.000000" y="85.000000" width="24.000000" height="24.000000" rx="0" ry="0" style="stroke:none;fill:#cccccc;"/>
<rect x="172.000000" y="84.000000" width="24.000000" height="24.000000" rx="0" ry="0" style="stroke:none;fill:#4B71A1;"/>
<text x="184.000000" y="98.000000" font-family="Arial" font-size="7" text-anchor="middle" fill="#FFFFFF">*</text>
<circle cx="174.000000" cy="86.000000" r="1"/>
<line x1="169.000000" y1="91.000000" x2="172.000000" y2="92.000000"  transform="rotate(0.000000,172.000000,92.000000)" style="stroke: black; stroke-width:0.25;"/>
<line x1="169.000000" y1="93.000000" x2="172.000000" y2="92.000000"  transform="rotate(0.000000,172.000000,92.000000)" style="stroke: black; stroke-width:0.25;"/>
<line x1="169.000000" y1="99.000000" x2="172.000000" y2="100.000000"  transform="rotate(0.000000,172.000000,100.000000)" style="stroke: black; stroke-width:0.25;"/>
<line x1="169.000000" y1="101.000000" x2="172.000000" y2="100.000000"  transform="rotate(0.000000,172.000000,100.000000)" style="stroke: black; stroke-width:0.25;"/>
<rect x="123.000000" y="179.000000" width="24.000000" height="24.000000" rx="0" ry="0" style="stroke:none;fill:#cccccc;"/>
<rect x="122.000000" y="178.000000" width="24.000000" height="24.000000" rx="0" ry="0" style="stroke:none;fill:#f44800;"/>
<text x="134.000000" y="192.000000" font-family="Arial" font-size="7" text-anchor="middle" fill="#FFFFFF">4</text>
<circle cx="124.000000" cy="180.000000" r="1"/>
<line x1="113.000000" y1="169.000000" x2="113.000000" y2="211.000000"  style="stroke: black; stroke-linecap:round; stroke-width:0.25; stroke-dasharray:3,3;"/>
<line x1="113.000000" y1="211.000000" x2="155.000000" y2="211.000000"  style="stroke: black; stroke-linecap:round; stroke-width:0.25; stroke-dasharray:3,3;"/>
<line x1="155.000000" y1="211.000000" x2="155.000000" y2="169.000000"  style="stroke: black; stroke-linecap:round; stroke-width:0.25; stroke-dasharray:3,3;"/>
<line x1="113.000000" y1="169.000000" x2="118.000000" y2="169.000000"  style="stroke: black; stroke-linecap:round; stroke-width:0.25; stroke-dasharray:3,3;"/>
<line x1="143.800000" y1="169.000000" x2="155.000000" y2="169.000000"  style="stroke: black; stroke-linecap:round; stroke-width:0.25; stroke-dasharray:3,3;"/>
<text x="118.000000" y="171.000000" font-family="Arial" font-size="7">nModes</text>
<rect x="213.000000" y="111.000000" width="24.000000" height="24.000000" rx="0" ry="0" style="stroke:none;fill:#cccccc;"/>
<rect x="212.000000" y="110.000000" width="24.000000" height="24.000000" rx="0" ry="0" style="stroke:none;fill:#4B71A1;"/>
<text x="224.000000" y="124.000000" font-family="Arial" font-size="7" text-anchor="middle" fill="#FFFFFF">/</text>
<circle cx="214.000000" cy="112.000000" r="1"/>
<line x1="209.000000" y1="117.000000" x2="212.000000" y2="118.000000"  transform="rotate(0.000000,212.000000,118.000000)" style="stroke: black; stroke-width:0.25;"/>
<line x1="209.000000" y1="119.000000" x2="212.000000" y2="118.000000"  transform="rotate(0.000000,212.000000,118.000000)" style="stroke: black; stroke-width:0.25;"/>
<line x1="209.000000" y1="125.000000" x2="212.000000" y2="126.000000"  transform="rotate(0.000000,212.000000,126.000000)" style="stroke: black; stroke-width:0.25;"/>
<line x1="209.000000" y1="127.000000" x2="212.000000" y2="126.000000"  transform="rotate(0.000000,212.000000,126.000000)" style="stroke: black; stroke-width:0.25;"/>
<rect x="143.000000" y="231.000000" width="24.000000" height="24.000000" rx="0" ry="0" style="stroke:none;fill:#cccccc;"/>
<rect x="142.000000" y="230.000000" width="24.000000" height="24.000000" rx="0" ry="0" style="stroke:none;fill:#f44800;"/>
<text x="154.000000" y="244.000000" font-family="Arial" font-size="7" text-anchor="middle" fill="#FFFFFF">1</text>
<circle cx="144.000000" cy="232.000000" r="1"/>
<line x1="133.000000" y1="221.000000" x2="133.000000" y2="263.000000"  style="stroke: black; stroke-linecap:round; stroke-width:0.25; stroke-dasharray:3,3;"/>
<line x1="133.000000" y1="263.000000" x2="175.000000" y2="263.000000"  style="stroke: black; stroke-linecap:round; stroke-width:0.25; stroke-dasharray:3,3;"/>
<line x1="175.000000" y1="263.000000" x2="175.000000" y2="221.000000"  style="stroke: black; stroke-linecap:round; stroke-width:0.25; stroke-dasharray:3,3;"/>
<line x1="133.000000" y1="221.000000" x2="138.000000" y2="221.000000"  style="stroke: black; stroke-linecap:round; stroke-width:0.25; stroke-dasharray:3,3;"/>
<line x1="163.800000" y1="221.000000" x2="175.000000" y2="221.000000"  style="stroke: black; stroke-linecap:round; stroke-width:0.25; stroke-dasharray:3,3;"/>
<text x="138.000000" y="223.000000" font-family="Arial" font-size="7">select</text>
<rect x="253.000000" y="137.000000" width="24.000000" height="24.000000" rx="0" ry="0" style="stroke:none;fill:#cccccc;"/>
<rect x="252.000000" y="136.000000" width="24.000000" height="24.000000" rx="0" ry="0" style="stroke:none;fill:#4B71A1;"/>
<text x="264.000000" y="150.000000" font-family="Arial" font-size="7" text-anchor="middle" fill="#FFFFFF">*</text>
<circle cx="254.000000" cy="138.000000" r="1"/>
<line x1="249.000000" y1="143.000000" x2="252.000000" y2="144.000000"  transform="rotate(0.000000,252.000000,144.000000)" style="stroke: black; stroke-width:0.25;"/>
<line x1="249.000000" y1="145.000000" x2="252.000000" y2="144.000000"  transform="rotate(0.000000,252.000000,144.000000)" style="stroke: black; stroke-width:0.25;"/>
<line x1="249.000000" y1="151.000000" x2="252.000000" y2="152.000000"  transform="rotate(0.000000,252.000000,152.000000)" style="stroke: black; stroke-width:0.25;"/>
<line x1="249.000000" y1="153.000000" x2="252.000000" y2="152.000000"  transform="rotate(0.000000,252.000000,152.000000)" style="stroke: black; stroke-width:0.25;"/>
<rect x="293.000000" y="133.000000" width="24.000000" height="24.000000" rx="0" ry="0" style="stroke:none;fill:#cccccc;"/>
<rect x="292.000000" y="132.000000" width="24.000000" height="24.000000" rx="0" ry="0" style="stroke:none;fill:#4B71A1;"/>
<text x="304.000000" y="146.000000" font-family="Arial" font-size="7" text-anchor="middle" fill="#FFFFFF">+</text>
<circle cx="294.000000" cy="134.000000" r="1"/>
<line x1="289.000000" y1="139.000000" x2="292.000000" y2="140.000000"  transform="rotate(0.000000,292.000000,140.000000)" style="stroke: black; stroke-width:0.25;"/>
<line x1="289.000000" y1="141.000000" x2="292.000000" y2="140.000000"  transform="rotate(0.000000,292.000000,140.000000)" style="stroke: black; stroke-width:0.25;"/>
<line x1="289.000000" y1="147.000000" x2="292.000000" y2="148.000000"  transform="rotate(0.000000,292.000000,148.000000)" style="stroke: black; stroke-width:0.25;"/>
<line x1="289.000000" y1="149.000000" x2="292.000000" y2="148.000000"  transform="rotate(0.000000,292.000000,148.000000)" style="stroke: black; stroke-width:0.25;"/>
<a xlink:href="delayLine-0x7fd346985030.svg">
<rect x="325.000000" y="133.000000" width="90.300000" height="24.000000" rx="0" ry="0" style="stroke:none;fill:#cccccc;"/>
<rect x="324.000000" y="132.000000" width="90.300000" height="24.000000" rx="0" ry="0" style="stroke:none;fill:#003366;"/>
</a>
<a xlink:href="delayLine-0x7fd346985030.svg">
<text x="369.150000" y="146.000000" font-family="Arial" font-size="7" text-anchor="middle" fill="#FFFFFF">delayLine(2)(184.99f)</text>
</a>
<circle cx="326.000000" cy="134.000000" r="1"/>
<line x1="321.000000" y1="143.000000" x2="324.000000" y2="144.000000"  transform="rotate(0.000000,324.000000,144.000000)" style="stroke: black; stroke-width:0.25;"/>
<line x1="321.000000" y1="145.000000" x2="324.000000" y2="144.000000"  transform="rotate(0.000000,324.000000,144.000000)" style="stroke: black; stroke-width:0.25;"/>
<rect x="431.300000" y="121.000000" width="25.800000" height="24.000000" rx="0" ry="0" style="stroke:none;fill:#cccccc;"/>
<rect x="430.300000" y="120.000000" width="25.800000" height="24.000000" rx="0" ry="0" style="stroke:none;fill:#f44800;"/>
<text x="443.200000" y="134.000000" font-family="Arial" font-size="7" text-anchor="middle" fill="#FFFFFF">0.999</text>
<circle cx="432.300000" cy="122.000000" r="1"/>
<rect x="432.200000" y="153.000000" width="24.000000" height="24.000000" rx="0" ry="0" style="stroke:none;fill:#cccccc;"/>
<rect x="431.200000" y="152.000000" width="24.000000" height="24.000000" rx="0" ry="0" style="stroke:none;fill:#f44800;"/>
<text x="443.200000" y="166.000000" font-family="Arial" font-size="7" text-anchor="middle" fill="#FFFFFF">3</text>
<circle cx="433.200000" cy="154.000000" r="1"/>
<rect x="473.100000" y="137.000000" width="24.000000" height="24.000000" rx="0" ry="0" style="stroke:none;fill:#cccccc;"/>
<rect x="472.100000" y="136.000000" width="24.000000" height="24.000000" rx="0" ry="0" style="stroke:none;fill:#4B71A1;"/>
<text x="484.100000" y="150.000000" font-family="Arial" font-size="7" text-anchor="middle" fill="#FFFFFF">pow</text>
<circle cx="474.100000" cy="138.000000" r="1"/>
<line x1="469.100000" y1="143.000000" x2="472.100000" y2="144.000000"  transform="rotate(0.000000,472.100000,144.000000)" style="stroke: black; stroke-width:0.25;"/>
<line x1="469.100000" y1="145.000000" x2="472.100000" y2="144.000000"  transform="rotate(0.000000,472.100000,144.000000)" style="stroke: black; stroke-width:0.25;"/>
<line x1="469.100000" y1="151.000000" x2="472.100000" y2="152.000000"  transform="rotate(0.000000,472.100000,152.000000)" style="stroke: black; stroke-width:0.25;"/>
<line x1="469.100000" y1="153.000000" x2="472.100000" y2="152.000000"  transform="rotate(0.000000,472.100000,152.000000)" style="stroke: black; stroke-width:0.25;"/>
<rect x="513.100000" y="133.000000" width="24.000000" height="24.000000" rx="0" ry="0" style="stroke:none;fill:#cccccc;"/>
<rect x="512.100000" y="132.000000" width="24.000000" height="24.000000" rx="0" ry="0" style="stroke:none;fill:#4B71A1;"/>
<text x="524.100000" y="146.000000" font-family="Arial" font-size="7" text-anchor="middle" fill="#FFFFFF">*</text>
<circle cx="514.100000" cy="134.000000" r="1"/>
<line x1="509.100000" y1="139.000000" x2="512.100000" y2="140.000000"  transform="rotate(0.000000,512.100000,140.000000)" style="stroke: black; stroke-width:0.25;"/>
<line x1="509.100000" y1="141.000000" x2="512.100000" y2="140.000000"  transform="rotate(0.000000,512.100000,140.000000)" style="stroke: black; stroke-width:0.25;"/>
<line x1="509.100000" y1="147.000000" x2="512.100000" y2="148.000000"  transform="rotate(0.000000,512.100000,148.000000)" style="stroke: black; stroke-width:0.25;"/>
<line x1="509.100000" y1="149.000000" x2="512.100000" y2="148.000000"  transform="rotate(0.000000,512.100000,148.000000)" style="stroke: black; stroke-width:0.25;"/>
<a xlink:href="bandPassFilter-0x7fd34698d210.svg">
<rect x="545.100000" y="133.000000" width="116.100000" height="24.000000" rx="0" ry="0" style="stroke:none;fill:#cccccc;"/>
<rect x="544.100000" y="132.000000" width="116.100000" height="24.000000" rx="0" ry="0" style="stroke:none;fill:#003366;"/>
</a>
<a xlink:href="bandPassFilter-0x7fd34698d210.svg">
<text x="602.150000" y="146.000000" font-family="Arial" font-size="7" text-anchor="middle" fill="#FFFFFF">bandPassFilter(2)(184.99f)</text>
</a>
<circle cx="546.100000" cy="134.000000" r="1"/>
<line x1="541.100000" y1="143.000000" x2="544.100000" y2="144.000000"  transform="rotate(0.000000,544.100000,144.000000)" style="stroke: black; stroke-width:0.25;"/>
<line x1="541.100000" y1="145.000000" x2="544.100000" y2="144.000000"  transform="rotate(0.000000,544.100000,144.000000)" style="stroke: black; stroke-width:0.25;"/>
<line x1="15.000000" y1="15.000000" x2="15.000000" y2="273.000000"  style="stroke: black; stroke-linecap:round; stroke-width:0.25; stroke-dasharray:3,3;"/>
<line x1="15.000000" y1="273.000000" x2="677.200000" y2="273.000000"  style="stroke: black; stroke-linecap:round; stroke-width:0.25; stroke-dasharray:3,3;"/>
<line x1="677.200000" y1="273.000000" x2="677.200000" y2="15.000000"  style="stroke: black; stroke-linecap:round; stroke-width:0.25; stroke-dasharray:3,3;"/>
<line x1="15.000000" y1="15.000000" x2="20.000000" y2="15.000000"  style="stroke: black; stroke-linecap:round; stroke-width:0.25; stroke-dasharray:3,3;"/>
<line x1="119.975000" y1="15.000000" x2="677.200000" y2="15.000000"  style="stroke: black; stroke-linecap:round; stroke-width:0.25; stroke-dasharray:3,3;"/>
<text x="20.000000" y="17.000000" font-family="Arial" font-size="7">resonance(2)(..., lenv = {}])</text>
<line x1="679.200000" y1="143.000000" x2="682.200000" y2="144.000000"  transform="rotate(0.000000,682.200000,144.000000)" style="stroke: black; stroke-width:0.25;"/>
<line x1="679.200000" y1="145.000000" x2="682.200000" y2="144.000000"  transform="rotate(0.000000,682.200000,144.000000)" style="stroke: black; stroke-width:0.25;"/>
<line x1="10.000000" y1="140.000000" x2="20.000000" y2="140.000000"  style="stroke:black; stroke-linecap:round; stroke-width:0.25;"/>
<line x1="10.000000" y1="148.000000" x2="20.000000" y2="148.000000"  style="stroke:black; stroke-linecap:round; stroke-width:0.25;"/>
<line x1="20.000000" y1="140.000000" x2="24.000000" y2="140.000000"  style="stroke:black; stroke-linecap:round; stroke-width:0.25;"/>
<line x1="20.000000" y1="148.000000" x2="24.000000" y2="148.000000"  style="stroke:black; stroke-linecap:round; stroke-width:0.25;"/>
<line x1="24.000000" y1="140.000000" x2="28.000000" y2="140.000000"  style="stroke:black; stroke-linecap:round; stroke-width:0.25;"/>
<line x1="24.000000" y1="148.000000" x2="28.000000" y2="148.000000"  style="stroke:black; stroke-linecap:round; stroke-width:0.25;"/>
<line x1="28.000000" y1="140.000000" x2="28.000000" y2="140.000000"  style="stroke:black; stroke-linecap:round; stroke-width:0.25;"/>
<line x1="28.000000" y1="140.000000" x2="32.000000" y2="140.000000"  style="stroke:black; stroke-linecap:round; stroke-width:0.25;"/>
<line x1="28.000000" y1="148.000000" x2="28.000000" y2="148.000000"  style="stroke:black; stroke-linecap:round; stroke-width:0.25;"/>
<line x1="28.000000" y1="148.000000" x2="32.000000" y2="148.000000"  style="stroke:black; stroke-linecap:round; stroke-width:0.25;"/>
<line x1="56.000000" y1="144.000000" x2="60.000000" y2="144.000000"  style="stroke:black; stroke-linecap:round; stroke-width:0.25;"/>
<line x1="60.000000" y1="24.000000" x2="68.000000" y2="24.000000"  style="stroke:black; stroke-linecap:round; stroke-width:0.25;"/>
<line x1="60.000000" y1="144.000000" x2="60.000000" y2="24.000000"  style="stroke:black; stroke-linecap:round; stroke-width:0.25;"/>
<line x1="60.000000" y1="144.000000" x2="60.000000" y2="144.000000"  style="stroke:black; stroke-linecap:round; stroke-width:0.25;"/>
<line x1="68.000000" y1="24.000000" x2="174.000000" y2="24.000000"  style="stroke:black; stroke-linecap:round; stroke-width:0.25;"/>
<line x1="106.000000" y1="54.000000" x2="110.000000" y2="54.000000"  style="stroke:black; stroke-linecap:round; stroke-width:0.25;"/>
<line x1="106.000000" y1="106.000000" x2="110.000000" y2="106.000000"  style="stroke:black; stroke-linecap:round; stroke-width:0.25;"/>
<line x1="110.000000" y1="54.000000" x2="120.000000" y2="54.000000"  style="stroke:black; stroke-linecap:round; stroke-width:0.25;"/>
<line x1="110.000000" y1="106.000000" x2="120.000000" y2="106.000000"  style="stroke:black; stroke-linecap:round; stroke-width:0.25;"/>
<line x1="120.000000" y1="54.000000" x2="128.000000" y2="54.000000"  style="stroke:black; stroke-linecap:round; stroke-width:0.25;"/>
<line x1="120.000000" y1="84.000000" x2="128.000000" y2="84.000000"  style="stroke:black; stroke-linecap:round; stroke-width:0.25;"/>
<line x1="120.000000" y1="106.000000" x2="120.000000" y2="84.000000"  style="stroke:black; stroke-linecap:round; stroke-width:0.25;"/>
<line x1="120.000000" y1="106.000000" x2="120.000000" y2="106.000000"  style="stroke:black; stroke-linecap:round; stroke-width:0.25;"/>
<line x1="128.000000" y1="54.000000" x2="128.000000" y2="76.000000"  style="stroke:black; stroke-linecap:round; stroke-width:0.25;"/>
<line x1="128.000000" y1="76.000000" x2="128.000000" y2="76.000000"  style="stroke:black; stroke-linecap:round; stroke-width:0.25;"/>
<line x1="128.000000" y1="76.000000" x2="132.000000" y2="76.000000"  style="stroke:black; stroke-linecap:round; stroke-width:0.25;"/>
<line x1="128.000000" y1="84.000000" x2="132.000000" y2="84.000000"  style="stroke:black; stroke-linecap:round; stroke-width:0.25;"/>
<line x1="133.350000" y1="148.000000" x2="137.350000" y2="148.000000"  style="stroke:black; stroke-linecap:round; stroke-width:0.25;"/>
<line x1="137.350000" y1="148.000000" x2="160.000000" y2="148.000000"  style="stroke:black; stroke-linecap:round; stroke-width:0.25;"/>
<line x1="146.000000" y1="190.000000" x2="150.000000" y2="190.000000"  style="stroke:black; stroke-linecap:round; stroke-width:0.25;"/>
<line x1="150.000000" y1="190.000000" x2="160.000000" y2="190.000000"  style="stroke:black; stroke-linecap:round; stroke-width:0.25;"/>
<line x1="156.000000" y1="80.000000" x2="160.000000" y2="80.000000"  style="stroke:black; stroke-linecap:round; stroke-width:0.25;"/>
<line x1="160.000000" y1="80.000000" x2="168.000000" y2="80.000000"  style="stroke:black; stroke-linecap:round; stroke-width:0.25;"/>
<line x1="160.000000" y1="100.000000" x2="168.000000" y2="100.000000"  style="stroke:black; stroke-linecap:round; stroke-width:0.25;"/>
<line x1="160.000000" y1="148.000000" x2="160.000000" y2="100.000000"  style="stroke:black; stroke-linecap:round; stroke-width:0.25;"/>
<line x1="160.000000" y1="148.000000" x2="160.000000" y2="148.000000"  style="stroke:black; stroke-linecap:round; stroke-width:0.25;"/>
<line x1="160.000000" y1="190.000000" x2="200.000000" y2="190.000000"  style="stroke:black; stroke-linecap:round; stroke-width:0.25;"/>
<line x1="166.000000" y1="242.000000" x2="170.000000" y2="242.000000"  style="stroke:black; stroke-linecap:round; stroke-width:0.25;"/>
<line x1="168.000000" y1="80.000000" x2="168.000000" y2="92.000000"  style="stroke:black; stroke-linecap:round; stroke-width:0.25;"/>
<line x1="168.000000" y1="92.000000" x2="168.000000" y2="92.000000"  style="stroke:black; stroke-linecap:round; stroke-width:0.25;"/>
<line x1="168.000000" y1="92.000000" x2="172.000000" y2="92.000000"  style="stroke:black; stroke-linecap:round; stroke-width:0.25;"/>
<line x1="168.000000" y1="100.000000" x2="172.000000" y2="100.000000"  style="stroke:black; stroke-linecap:round; stroke-width:0.25;"/>
<line x1="170.000000" y1="242.000000" x2="180.000000" y2="242.000000"  style="stroke:black; stroke-linecap:round; stroke-width:0.25;"/>
<line x1="174.000000" y1="24.000000" x2="280.000000" y2="24.000000"  style="stroke:black; stroke-linecap:round; stroke-width:0.25;"/>
<line x1="180.000000" y1="242.000000" x2="240.000000" y2="242.000000"  style="stroke:black; stroke-linecap:round; stroke-width:0.25;"/>
<line x1="196.000000" y1="96.000000" x2="200.000000" y2="96.000000"  style="stroke:black; stroke-linecap:round; stroke-width:0.25;"/>
<line x1="200.000000" y1="96.000000" x2="208.000000" y2="96.000000"  style="stroke:black; stroke-linecap:round; stroke-width:0.25;"/>
<line x1="200.000000" y1="126.000000" x2="208.000000" y2="126.000000"  style="stroke:black; stroke-linecap:round; stroke-width:0.25;"/>
<line x1="200.000000" y1="190.000000" x2="200.000000" y2="126.000000"  style="stroke:black; stroke-linecap:round; stroke-width:0.25;"/>
<line x1="200.000000" y1="190.000000" x2="200.000000" y2="190.000000"  style="stroke:black; stroke-linecap:round; stroke-width:0.25;"/>
<line x1="208.000000" y1="96.000000" x2="208.000000" y2="118.000000"  style="stroke:black; stroke-linecap:round; stroke-width:0.25;"/>
<line x1="208.000000" y1="118.000000" x2="208.000000" y2="118.000000"  style="stroke:black; stroke-linecap:round; stroke-width:0.25;"/>
<line x1="208.000000" y1="118.000000" x2="212.000000" y2="118.000000"  style="stroke:black; stroke-linecap:round; stroke-width:0.25;"/>
<line x1="208.000000" y1="126.000000" x2="212.000000" y2="126.000000"  style="stroke:black; stroke-linecap:round; stroke-width:0.25;"/>
<line x1="236.000000" y1="122.000000" x2="240.000000" y2="122.000000"  style="stroke:black; stroke-linecap:round; stroke-width:0.25;"/>
<line x1="240.000000" y1="122.000000" x2="248.000000" y2="122.000000"  style="stroke:black; stroke-linecap:round; stroke-width:0.25;"/>
<line x1="240.000000" y1="152.000000" x2="248.000000" y2="152.000000"  style="stroke:black; stroke-linecap:round; stroke-width:0.25;"/>
<line x1="240.000000" y1="242.000000" x2="240.000000" y2="152.000000"  style="stroke:black; stroke-linecap:round; stroke-width:0.25;"/>
<line x1="240.000000" y1="242.000000" x2="240.000000" y2="242.000000"  style="stroke:black; stroke-linecap:round; stroke-width:0.25;"/>
<line x1="248.000000" y1="122.000000" x2="248.000000" y2="144.000000"  style="stroke:black; stroke-linecap:round; stroke-width:0.25;"/>
<line x1="248.000000" y1="144.000000" x2="248.000000" y2="144.000000"  style="stroke:black; stroke-linecap:round; stroke-width:0.25;"/>
<line x1="248.000000" y1="144.000000" x2="252.000000" y2="144.000000"  style="stroke:black; stroke-linecap:round; stroke-width:0.25;"/>
<line x1="248.000000" y1="152.000000" x2="252.000000" y2="152.000000"  style="stroke:black; stroke-linecap:round; stroke-width:0.25;"/>
<line x1="276.000000" y1="148.000000" x2="280.000000" y2="148.000000"  style="stroke:black; stroke-linecap:round; stroke-width:0.25;"/>
<line x1="280.000000" y1="24.000000" x2="288.000000" y2="24.000000"  style="stroke:black; stroke-linecap:round; stroke-width:0.25;"/>
<line x1="280.000000" y1="148.000000" x2="288.000000" y2="148.000000"  style="stroke:black; stroke-linecap:round; stroke-width:0.25;"/>
<line x1="288.000000" y1="24.000000" x2="288.000000" y2="140.000000"  style="stroke:black; stroke-linecap:round; stroke-width:0.25;"/>
<line x1="288.000000" y1="140.000000" x2="288.000000" y2="140.000000"  style="stroke:black; stroke-linecap:round; stroke-width:0.25;"/>
<line x1="288.000000" y1="140.000000" x2="292.000000" y2="140.000000"  style="stroke:black; stroke-linecap:round; stroke-width:0.25;"/>
<line x1="288.000000" y1="148.000000" x2="292.000000" y2="148.000000"  style="stroke:black; stroke-linecap:round; stroke-width:0.25;"/>
<line x1="316.000000" y1="144.000000" x2="320.000000" y2="144.000000"  style="stroke:black; stroke-linecap:round; stroke-width:0.25;"/>
<line x1="320.000000" y1="144.000000" x2="320.000000" y2="144.000000"  style="stroke:black; stroke-linecap:round; stroke-width:0.25;"/>
<line x1="320.000000" y1="144.000000" x2="324.000000" y2="144.000000"  style="stroke:black; stroke-linecap:round; stroke-width:0.25;"/>
<line x1="414.300000" y1="144.000000" x2="418.300000" y2="144.000000"  style="stroke:black; stroke-linecap:round; stroke-width:0.25;"/>
<line x1="418.300000" y1="112.000000" x2="426.300000" y2="112.000000"  style="stroke:black; stroke-linecap:round; stroke-width:0.25;"/>
<line x1="418.300000" y1="144.000000" x2="418.300000" y2="112.000000"  style="stroke:black; stroke-linecap:round; stroke-width:0.25;"/>
<line x1="418.300000" y1="144.000000" x2="418.300000" y2="144.000000"  style="stroke:black; stroke-linecap:round; stroke-width:0.25;"/>
<line x1="426.300000" y1="112.000000" x2="463.200000" y2="112.000000"  style="stroke:black; stroke-linecap:round; stroke-width:0.25;"/>
<line x1="455.200000" y1="164.000000" x2="459.200000" y2="164.000000"  style="stroke:black; stroke-linecap:round; stroke-width:0.25;"/>
<line x1="456.100000" y1="132.000000" x2="460.100000" y2="132.000000"  style="stroke:black; stroke-linecap:round; stroke-width:0.25;"/>
<line x1="459.200000" y1="164.000000" x2="460.100000" y2="164.000000"  style="stroke:black; stroke-linecap:round; stroke-width:0.25;"/>
<line x1="460.100000" y1="152.000000" x2="468.100000" y2="152.000000"  style="stroke:black; stroke-linecap:round; stroke-width:0.25;"/>
<line x1="460.100000" y1="164.000000" x2="460.100000" y2="152.000000"  style="stroke:black; stroke-linecap:round; stroke-width:0.25;"/>
<line x1="460.100000" y1="164.000000" x2="460.100000" y2="164.000000"  style="stroke:black; stroke-linecap:round; stroke-width:0.25;"/>
<line x1="460.100000" y1="132.000000" x2="468.100000" y2="132.000000"  style="stroke:black; stroke-linecap:round; stroke-width:0.25;"/>
<line x1="463.200000" y1="112.000000" x2="500.100000" y2="112.000000"  style="stroke:black; stroke-linecap:round; stroke-width:0.25;"/>
<line x1="468.100000" y1="132.000000" x2="468.100000" y2="144.000000"  style="stroke:black; stroke-linecap:round; stroke-width:0.25;"/>
<line x1="468.100000" y1="144.000000" x2="468.100000" y2="144.000000"  style="stroke:black; stroke-linecap:round; stroke-width:0.25;"/>
<line x1="468.100000" y1="144.000000" x2="472.100000" y2="144.000000"  style="stroke:black; stroke-linecap:round; stroke-width:0.25;"/>
<line x1="468.100000" y1="152.000000" x2="472.100000" y2="152.000000"  style="stroke:black; stroke-linecap:round; stroke-width:0.25;"/>
<line x1="496.100000" y1="148.000000" x2="500.100000" y2="148.000000"  style="stroke:black; stroke-linecap:round; stroke-width:0.25;"/>
<line x1="500.100000" y1="112.000000" x2="508.100000" y2="112.000000"  style="stroke:black; stroke-linecap:round; stroke-width:0.25;"/>
<line x1="500.100000" y1="148.000000" x2="508.100000" y2="148.000000"  style="stroke:black; stroke-linecap:round; stroke-width:0.25;"/>
<line x1="508.100000" y1="112.000000" x2="508.100000" y2="140.000000"  style="stroke:black; stroke-linecap:round; stroke-width:0.25;"/>
<line x1="508.100000" y1="140.000000" x2="508.100000" y2="140.000000"  style="stroke:black; stroke-linecap:round; stroke-width:0.25;"/>
<line x1="508.100000" y1="140.000000" x2="512.100000" y2="140.000000"  style="stroke:black; stroke-linecap:round; stroke-width:0.25;"/>
<line x1="508.100000" y1="148.000000" x2="512.100000" y2="148.000000"  style="stroke:black; stroke-linecap:round; stroke-width:0.25;"/>
<line x1="536.100000" y1="144.000000" x2="540.100000" y2="144.000000"  style="stroke:black; stroke-linecap:round; stroke-width:0.25;"/>
<line x1="540.100000" y1="144.000000" x2="540.100000" y2="144.000000"  style="stroke:black; stroke-linecap:round; stroke-width:0.25;"/>
<line x1="540.100000" y1="144.000000" x2="544.100000" y2="144.000000"  style="stroke:black; stroke-linecap:round; stroke-width:0.25;"/>
<line x1="660.200000" y1="144.000000" x2="664.200000" y2="144.000000"  style="stroke:black; stroke-linecap:round; stroke-width:0.25;"/>
<line x1="664.200000" y1="144.000000" x2="664.200000" y2="144.000000"  style="stroke:black; stroke-linecap:round; stroke-width:0.25;"/>
<line x1="664.200000" y1="144.000000" x2="668.200000" y2="144.000000"  style="stroke:black; stroke-linecap:round; stroke-width:0.25;"/>
<line x1="668.200000" y1="144.000000" x2="672.200000" y2="144.000000"  style="stroke:black; stroke-linecap:round; stroke-width:0.25;"/>
<line x1="672.200000" y1="144.000000" x2="682.200000" y2="144.000000"  style="stroke:black; stroke-linecap:round; stroke-width:0.25;"/>
</svg>
