<?xml version="1.0"?>
<svg xmlns="http://www.w3.org/2000/svg" xmlns:xlink="http://www.w3.org/1999/xlink" viewBox="0 0 622.100000 104.000000" width="311.050000mm" height="52.000000mm" version="1.1">
<a xlink:href="decay-0x7fdd648fbc80.svg">
<rect x="1.000000" y="1.000000" width="621.100000" height="103.000000" rx="0" ry="0" style="stroke:none;fill:#cccccc;"/>
<rect x="0.000000" y="0.000000" width="621.100000" height="103.000000" rx="0" ry="0" style="stroke:none;fill:#ffffff;"/>
</a>
<text x="10.000000" y="7.000000" font-family="Arial" font-size="7"></text>
<rect x="25.000000" y="25.000000" width="258.000000" height="24.000000" rx="0" ry="0" style="stroke:none;fill:#cccccc;"/>
<rect x="24.000000" y="24.000000" width="258.000000" height="24.000000" rx="0" ry="0" style="stroke:none;fill:#477881;"/>
<text x="153.000000" y="38.000000" font-family="Arial" font-size="7" text-anchor="middle" fill="#FFFFFF">hslider(h:Envelope/Note Duration, 0.3f, 0.1f, 0.6f, 0.01f)</text>
<circle cx="26.000000" cy="26.000000" r="1"/>
<rect x="141.100000" y="57.000000" width="25.800000" height="24.000000" rx="0" ry="0" style="stroke:none;fill:#cccccc;"/>
<rect x="140.100000" y="56.000000" width="25.800000" height="24.000000" rx="0" ry="0" style="stroke:none;fill:#f44800;"/>
<text x="153.000000" y="70.000000" font-family="Arial" font-size="7" text-anchor="middle" fill="#FFFFFF">44100</text>
<circle cx="142.100000" cy="58.000000" r="1"/>
<rect x="299.000000" y="41.000000" width="24.000000" height="24.000000" rx="0" ry="0" style="stroke:none;fill:#cccccc;"/>
<rect x="298.000000" y="40.000000" width="24.000000" height="24.000000" rx="0" ry="0" style="stroke:none;fill:#4B71A1;"/>
<text x="310.000000" y="54.000000" font-family="Arial" font-size="7" text-anchor="middle" fill="#FFFFFF">*</text>
<circle cx="300.000000" cy="42.000000" r="1"/>
<line x1="295.000000" y1="47.000000" x2="298.000000" y2="48.000000"  transform="rotate(0.000000,298.000000,48.000000)" style="stroke: black; stroke-width:0.25;"/>
<line x1="295.000000" y1="49.000000" x2="298.000000" y2="48.000000"  transform="rotate(0.000000,298.000000,48.000000)" style="stroke: black; stroke-width:0.25;"/>
<line x1="295.000000" y1="55.000000" x2="298.000000" y2="56.000000"  transform="rotate(0.000000,298.000000,56.000000)" style="stroke: black; stroke-width:0.25;"/>
<line x1="295.000000" y1="57.000000" x2="298.000000" y2="56.000000"  transform="rotate(0.000000,298.000000,56.000000)" style="stroke: black; stroke-width:0.25;"/>
<a xlink:href="smooth-0x7fdd648220a0.svg">
<rect x="331.000000" y="41.000000" width="64.500000" height="24.000000" rx="0" ry="0" style="stroke:none;fill:#cccccc;"/>
<rect x="330.000000" y="40.000000" width="64.500000" height="24.000000" rx="0" ry="0" style="stroke:none;fill:#003366;"/>
</a>
<a xlink:href="smooth-0x7fdd648220a0.svg">
<text x="362.250000" y="54.000000" font-family="Arial" font-size="7" text-anchor="middle" fill="#FFFFFF">smooth(0.99f)</text>
</a>
<circle cx="332.000000" cy="42.000000" r="1"/>
<line x1="327.000000" y1="51.000000" x2="330.000000" y2="52.000000"  transform="rotate(0.000000,330.000000,52.000000)" style="stroke: black; stroke-width:0.25;"/>
<line x1="327.000000" y1="53.000000" x2="330.000000" y2="52.000000"  transform="rotate(0.000000,330.000000,52.000000)" style="stroke: black; stroke-width:0.25;"/>
<rect x="411.500000" y="37.000000" width="25.800000" height="24.000000" rx="0" ry="0" style="stroke:none;fill:#cccccc;"/>
<rect x="410.500000" y="36.000000" width="25.800000" height="24.000000" rx="0" ry="0" style="stroke:none;fill:#f44800;"/>
<text x="423.400000" y="50.000000" font-family="Arial" font-size="7" text-anchor="middle" fill="#FFFFFF">26460</text>
<circle cx="412.500000" cy="38.000000" r="1"/>
<rect x="453.300000" y="41.000000" width="24.000000" height="24.000000" rx="0" ry="0" style="stroke:none;fill:#cccccc;"/>
<rect x="452.300000" y="40.000000" width="24.000000" height="24.000000" rx="0" ry="0" style="stroke:none;fill:#4B71A1;"/>
<text x="464.300000" y="54.000000" font-family="Arial" font-size="7" text-anchor="middle" fill="#FFFFFF">min</text>
<circle cx="454.300000" cy="42.000000" r="1"/>
<line x1="449.300000" y1="47.000000" x2="452.300000" y2="48.000000"  transform="rotate(0.000000,452.300000,48.000000)" style="stroke: black; stroke-width:0.25;"/>
<line x1="449.300000" y1="49.000000" x2="452.300000" y2="48.000000"  transform="rotate(0.000000,452.300000,48.000000)" style="stroke: black; stroke-width:0.25;"/>
<line x1="449.300000" y1="55.000000" x2="452.300000" y2="56.000000"  transform="rotate(0.000000,452.300000,56.000000)" style="stroke: black; stroke-width:0.25;"/>
<line x1="449.300000" y1="57.000000" x2="452.300000" y2="56.000000"  transform="rotate(0.000000,452.300000,56.000000)" style="stroke: black; stroke-width:0.25;"/>
<rect x="493.300000" y="37.000000" width="25.800000" height="24.000000" rx="0" ry="0" style="stroke:none;fill:#cccccc;"/>
<rect x="492.300000" y="36.000000" width="25.800000" height="24.000000" rx="0" ry="0" style="stroke:none;fill:#f44800;"/>
<text x="505.200000" y="50.000000" font-family="Arial" font-size="7" text-anchor="middle" fill="#FFFFFF">4410</text>
<circle cx="494.300000" cy="38.000000" r="1"/>
<rect x="535.100000" y="41.000000" width="24.000000" height="24.000000" rx="0" ry="0" style="stroke:none;fill:#cccccc;"/>
<rect x="534.100000" y="40.000000" width="24.000000" height="24.000000" rx="0" ry="0" style="stroke:none;fill:#4B71A1;"/>
<text x="546.100000" y="54.000000" font-family="Arial" font-size="7" text-anchor="middle" fill="#FFFFFF">max</text>
<circle cx="536.100000" cy="42.000000" r="1"/>
<line x1="531.100000" y1="47.000000" x2="534.100000" y2="48.000000"  transform="rotate(0.000000,534.100000,48.000000)" style="stroke: black; stroke-width:0.25;"/>
<line x1="531.100000" y1="49.000000" x2="534.100000" y2="48.000000"  transform="rotate(0.000000,534.100000,48.000000)" style="stroke: black; stroke-width:0.25;"/>
<line x1="531.100000" y1="55.000000" x2="534.100000" y2="56.000000"  transform="rotate(0.000000,534.100000,56.000000)" style="stroke: black; stroke-width:0.25;"/>
<line x1="531.100000" y1="57.000000" x2="534.100000" y2="56.000000"  transform="rotate(0.000000,534.100000,56.000000)" style="stroke: black; stroke-width:0.25;"/>
<rect x="567.100000" y="41.000000" width="24.000000" height="24.000000" rx="0" ry="0" style="stroke:none;fill:#cccccc;"/>
<rect x="566.100000" y="40.000000" width="24.000000" height="24.000000" rx="0" ry="0" style="stroke:none;fill:#4B71A1;"/>
<text x="578.100000" y="54.000000" font-family="Arial" font-size="7" text-anchor="middle" fill="#FFFFFF">int</text>
<circle cx="568.100000" cy="42.000000" r="1"/>
<line x1="563.100000" y1="51.000000" x2="566.100000" y2="52.000000"  transform="rotate(0.000000,566.100000,52.000000)" style="stroke: black; stroke-width:0.25;"/>
<line x1="563.100000" y1="53.000000" x2="566.100000" y2="52.000000"  transform="rotate(0.000000,566.100000,52.000000)" style="stroke: black; stroke-width:0.25;"/>
<line x1="15.000000" y1="15.000000" x2="15.000000" y2="89.000000"  style="stroke: black; stroke-linecap:round; stroke-width:0.25; stroke-dasharray:3,3;"/>
<line x1="15.000000" y1="89.000000" x2="607.100000" y2="89.000000"  style="stroke: black; stroke-linecap:round; stroke-width:0.25; stroke-dasharray:3,3;"/>
<line x1="607.100000" y1="89.000000" x2="607.100000" y2="15.000000"  style="stroke: black; stroke-linecap:round; stroke-width:0.25; stroke-dasharray:3,3;"/>
<line x1="15.000000" y1="15.000000" x2="20.000000" y2="15.000000"  style="stroke: black; stroke-linecap:round; stroke-width:0.25; stroke-dasharray:3,3;"/>
<line x1="49.025000" y1="15.000000" x2="607.100000" y2="15.000000"  style="stroke: black; stroke-linecap:round; stroke-width:0.25; stroke-dasharray:3,3;"/>
<text x="20.000000" y="17.000000" font-family="Arial" font-size="7">envSize</text>
<line x1="609.100000" y1="51.000000" x2="612.100000" y2="52.000000"  transform="rotate(0.000000,612.100000,52.000000)" style="stroke: black; stroke-width:0.25;"/>
<line x1="609.100000" y1="53.000000" x2="612.100000" y2="52.000000"  transform="rotate(0.000000,612.100000,52.000000)" style="stroke: black; stroke-width:0.25;"/>
<line x1="165.900000" y1="68.000000" x2="169.900000" y2="68.000000"  style="stroke:black; stroke-linecap:round; stroke-width:0.25;"/>
<line x1="169.900000" y1="68.000000" x2="286.000000" y2="68.000000"  style="stroke:black; stroke-linecap:round; stroke-width:0.25;"/>
<line x1="282.000000" y1="36.000000" x2="286.000000" y2="36.000000"  style="stroke:black; stroke-linecap:round; stroke-width:0.25;"/>
<line x1="286.000000" y1="36.000000" x2="294.000000" y2="36.000000"  style="stroke:black; stroke-linecap:round; stroke-width:0.25;"/>
<line x1="286.000000" y1="56.000000" x2="294.000000" y2="56.000000"  style="stroke:black; stroke-linecap:round; stroke-width:0.25;"/>
<line x1="286.000000" y1="68.000000" x2="286.000000" y2="56.000000"  style="stroke:black; stroke-linecap:round; stroke-width:0.25;"/>
<line x1="286.000000" y1="68.000000" x2="286.000000" y2="68.000000"  style="stroke:black; stroke-linecap:round; stroke-width:0.25;"/>
<line x1="294.000000" y1="36.000000" x2="294.000000" y2="48.000000"  style="stroke:black; stroke-linecap:round; stroke-width:0.25;"/>
<line x1="294.000000" y1="48.000000" x2="294.000000" y2="48.000000"  style="stroke:black; stroke-linecap:round; stroke-width:0.25;"/>
<line x1="294.000000" y1="48.000000" x2="298.000000" y2="48.000000"  style="stroke:black; stroke-linecap:round; stroke-width:0.25;"/>
<line x1="294.000000" y1="56.000000" x2="298.000000" y2="56.000000"  style="stroke:black; stroke-linecap:round; stroke-width:0.25;"/>
<line x1="322.000000" y1="52.000000" x2="326.000000" y2="52.000000"  style="stroke:black; stroke-linecap:round; stroke-width:0.25;"/>
<line x1="326.000000" y1="52.000000" x2="326.000000" y2="52.000000"  style="stroke:black; stroke-linecap:round; stroke-width:0.25;"/>
<line x1="326.000000" y1="52.000000" x2="330.000000" y2="52.000000"  style="stroke:black; stroke-linecap:round; stroke-width:0.25;"/>
<line x1="394.500000" y1="52.000000" x2="398.500000" y2="52.000000"  style="stroke:black; stroke-linecap:round; stroke-width:0.25;"/>
<line x1="398.500000" y1="52.000000" x2="406.500000" y2="52.000000"  style="stroke:black; stroke-linecap:round; stroke-width:0.25;"/>
<line x1="406.500000" y1="52.000000" x2="406.500000" y2="68.000000"  style="stroke:black; stroke-linecap:round; stroke-width:0.25;"/>
<line x1="406.500000" y1="68.000000" x2="406.500000" y2="68.000000"  style="stroke:black; stroke-linecap:round; stroke-width:0.25;"/>
<line x1="406.500000" y1="68.000000" x2="423.400000" y2="68.000000"  style="stroke:black; stroke-linecap:round; stroke-width:0.25;"/>
<line x1="423.400000" y1="68.000000" x2="440.300000" y2="68.000000"  style="stroke:black; stroke-linecap:round; stroke-width:0.25;"/>
<line x1="436.300000" y1="48.000000" x2="440.300000" y2="48.000000"  style="stroke:black; stroke-linecap:round; stroke-width:0.25;"/>
<line x1="440.300000" y1="56.000000" x2="448.300000" y2="56.000000"  style="stroke:black; stroke-linecap:round; stroke-width:0.25;"/>
<line x1="440.300000" y1="68.000000" x2="440.300000" y2="56.000000"  style="stroke:black; stroke-linecap:round; stroke-width:0.25;"/>
<line x1="440.300000" y1="68.000000" x2="440.300000" y2="68.000000"  style="stroke:black; stroke-linecap:round; stroke-width:0.25;"/>
<line x1="440.300000" y1="48.000000" x2="448.300000" y2="48.000000"  style="stroke:black; stroke-linecap:round; stroke-width:0.25;"/>
<line x1="448.300000" y1="48.000000" x2="452.300000" y2="48.000000"  style="stroke:black; stroke-linecap:round; stroke-width:0.25;"/>
<line x1="448.300000" y1="56.000000" x2="452.300000" y2="56.000000"  style="stroke:black; stroke-linecap:round; stroke-width:0.25;"/>
<line x1="476.300000" y1="52.000000" x2="480.300000" y2="52.000000"  style="stroke:black; stroke-linecap:round; stroke-width:0.25;"/>
<line x1="480.300000" y1="52.000000" x2="488.300000" y2="52.000000"  style="stroke:black; stroke-linecap:round; stroke-width:0.25;"/>
<line x1="488.300000" y1="52.000000" x2="488.300000" y2="68.000000"  style="stroke:black; stroke-linecap:round; stroke-width:0.25;"/>
<line x1="488.300000" y1="68.000000" x2="488.300000" y2="68.000000"  style="stroke:black; stroke-linecap:round; stroke-width:0.25;"/>
<line x1="488.300000" y1="68.000000" x2="505.200000" y2="68.000000"  style="stroke:black; stroke-linecap:round; stroke-width:0.25;"/>
<line x1="505.200000" y1="68.000000" x2="522.100000" y2="68.000000"  style="stroke:black; stroke-linecap:round; stroke-width:0.25;"/>
<line x1="518.100000" y1="48.000000" x2="522.100000" y2="48.000000"  style="stroke:black; stroke-linecap:round; stroke-width:0.25;"/>
<line x1="522.100000" y1="48.000000" x2="530.100000" y2="48.000000"  style="stroke:black; stroke-linecap:round; stroke-width:0.25;"/>
<line x1="522.100000" y1="56.000000" x2="530.100000" y2="56.000000"  style="stroke:black; stroke-linecap:round; stroke-width:0.25;"/>
<line x1="522.100000" y1="68.000000" x2="522.100000" y2="56.000000"  style="stroke:black; stroke-linecap:round; stroke-width:0.25;"/>
<line x1="522.100000" y1="68.000000" x2="522.100000" y2="68.000000"  style="stroke:black; stroke-linecap:round; stroke-width:0.25;"/>
<line x1="530.100000" y1="48.000000" x2="534.100000" y2="48.000000"  style="stroke:black; stroke-linecap:round; stroke-width:0.25;"/>
<line x1="530.100000" y1="56.000000" x2="534.100000" y2="56.000000"  style="stroke:black; stroke-linecap:round; stroke-width:0.25;"/>
<line x1="558.100000" y1="52.000000" x2="562.100000" y2="52.000000"  style="stroke:black; stroke-linecap:round; stroke-width:0.25;"/>
<line x1="562.100000" y1="52.000000" x2="562.100000" y2="52.000000"  style="stroke:black; stroke-linecap:round; stroke-width:0.25;"/>
<line x1="562.100000" y1="52.000000" x2="566.100000" y2="52.000000"  style="stroke:black; stroke-linecap:round; stroke-width:0.25;"/>
<line x1="590.100000" y1="52.000000" x2="594.100000" y2="52.000000"  style="stroke:black; stroke-linecap:round; stroke-width:0.25;"/>
<line x1="594.100000" y1="52.000000" x2="594.100000" y2="52.000000"  style="stroke:black; stroke-linecap:round; stroke-width:0.25;"/>
<line x1="594.100000" y1="52.000000" x2="598.100000" y2="52.000000"  style="stroke:black; stroke-linecap:round; stroke-width:0.25;"/>
<line x1="598.100000" y1="52.000000" x2="602.100000" y2="52.000000"  style="stroke:black; stroke-linecap:round; stroke-width:0.25;"/>
<line x1="602.100000" y1="52.000000" x2="612.100000" y2="52.000000"  style="stroke:black; stroke-linecap:round; stroke-width:0.25;"/>
</svg>
