<?xml version="1.0"?>
<svg xmlns="http://www.w3.org/2000/svg" xmlns:xlink="http://www.w3.org/1999/xlink" viewBox="0 0 780.000000 80.000000" width="390.000000mm" height="40.000000mm" version="1.1">
<a xlink:href="process.svg">
<rect x="1.000000" y="1.000000" width="779.000000" height="79.000000" rx="0" ry="0" style="stroke:none;fill:#cccccc;"/>
<rect x="0.000000" y="0.000000" width="779.000000" height="79.000000" rx="0" ry="0" style="stroke:none;fill:#ffffff;"/>
</a>
<text x="10.000000" y="7.000000" font-family="Arial" font-size="7"></text>
<rect x="25.000000" y="29.000000" width="283.800000" height="24.000000" rx="0" ry="0" style="stroke:none;fill:#cccccc;"/>
<rect x="24.000000" y="28.000000" width="283.800000" height="24.000000" rx="0" ry="0" style="stroke:none;fill:#477881;"/>
<text x="165.900000" y="42.000000" font-family="Arial" font-size="7" text-anchor="middle" fill="#FFFFFF">hslider(v:Instrument/Instrument Hand, 1e+01f, 0.0f, 2e+01f, 1.0f)</text>
<circle cx="26.000000" cy="30.000000" r="1"/>
<a xlink:href="automat-0x7fdd648d9e30.svg">
<rect x="316.800000" y="29.000000" width="167.700000" height="24.000000" rx="0" ry="0" style="stroke:none;fill:#cccccc;"/>
<rect x="315.800000" y="28.000000" width="167.700000" height="24.000000" rx="0" ry="0" style="stroke:none;fill:#003366;"/>
</a>
<a xlink:href="automat-0x7fdd648d9e30.svg">
<text x="399.650000" y="42.000000" font-family="Arial" font-size="7" text-anchor="middle" fill="#FFFFFF">automat(hslid... : max : int)(15)(0.0f)</text>
</a>
<circle cx="317.800000" cy="30.000000" r="1"/>
<line x1="312.800000" y1="39.000000" x2="315.800000" y2="40.000000"  transform="rotate(0.000000,315.800000,40.000000)" style="stroke: black; stroke-width:0.25;"/>
<line x1="312.800000" y1="41.000000" x2="315.800000" y2="40.000000"  transform="rotate(0.000000,315.800000,40.000000)" style="stroke: black; stroke-width:0.25;"/>
<a xlink:href="smooth-0x7fdd64811530.svg">
<rect x="492.500000" y="29.000000" width="64.500000" height="24.000000" rx="0" ry="0" style="stroke:none;fill:#cccccc;"/>
<rect x="491.500000" y="28.000000" width="64.500000" height="24.000000" rx="0" ry="0" style="stroke:none;fill:#003366;"/>
</a>
<a xlink:href="smooth-0x7fdd64811530.svg">
<text x="523.750000" y="42.000000" font-family="Arial" font-size="7" text-anchor="middle" fill="#FFFFFF">smooth(0.999f)</text>
</a>
<circle cx="493.500000" cy="30.000000" r="1"/>
<line x1="488.500000" y1="39.000000" x2="491.500000" y2="40.000000"  transform="rotate(0.000000,491.500000,40.000000)" style="stroke: black; stroke-width:0.25;"/>
<line x1="488.500000" y1="41.000000" x2="491.500000" y2="40.000000"  transform="rotate(0.000000,491.500000,40.000000)" style="stroke: black; stroke-width:0.25;"/>
<rect x="573.000000" y="25.000000" width="24.000000" height="24.000000" rx="0" ry="0" style="stroke:none;fill:#cccccc;"/>
<rect x="572.000000" y="24.000000" width="24.000000" height="24.000000" rx="0" ry="0" style="stroke:none;fill:#f44800;"/>
<text x="584.000000" y="38.000000" font-family="Arial" font-size="7" text-anchor="middle" fill="#FFFFFF">20</text>
<circle cx="574.000000" cy="26.000000" r="1"/>
<rect x="613.000000" y="29.000000" width="24.000000" height="24.000000" rx="0" ry="0" style="stroke:none;fill:#cccccc;"/>
<rect x="612.000000" y="28.000000" width="24.000000" height="24.000000" rx="0" ry="0" style="stroke:none;fill:#4B71A1;"/>
<text x="624.000000" y="42.000000" font-family="Arial" font-size="7" text-anchor="middle" fill="#FFFFFF">min</text>
<circle cx="614.000000" cy="30.000000" r="1"/>
<line x1="609.000000" y1="35.000000" x2="612.000000" y2="36.000000"  transform="rotate(0.000000,612.000000,36.000000)" style="stroke: black; stroke-width:0.25;"/>
<line x1="609.000000" y1="37.000000" x2="612.000000" y2="36.000000"  transform="rotate(0.000000,612.000000,36.000000)" style="stroke: black; stroke-width:0.25;"/>
<line x1="609.000000" y1="43.000000" x2="612.000000" y2="44.000000"  transform="rotate(0.000000,612.000000,44.000000)" style="stroke: black; stroke-width:0.25;"/>
<line x1="609.000000" y1="45.000000" x2="612.000000" y2="44.000000"  transform="rotate(0.000000,612.000000,44.000000)" style="stroke: black; stroke-width:0.25;"/>
<rect x="653.000000" y="25.000000" width="24.000000" height="24.000000" rx="0" ry="0" style="stroke:none;fill:#cccccc;"/>
<rect x="652.000000" y="24.000000" width="24.000000" height="24.000000" rx="0" ry="0" style="stroke:none;fill:#f44800;"/>
<text x="664.000000" y="38.000000" font-family="Arial" font-size="7" text-anchor="middle" fill="#FFFFFF">0</text>
<circle cx="654.000000" cy="26.000000" r="1"/>
<rect x="693.000000" y="29.000000" width="24.000000" height="24.000000" rx="0" ry="0" style="stroke:none;fill:#cccccc;"/>
<rect x="692.000000" y="28.000000" width="24.000000" height="24.000000" rx="0" ry="0" style="stroke:none;fill:#4B71A1;"/>
<text x="704.000000" y="42.000000" font-family="Arial" font-size="7" text-anchor="middle" fill="#FFFFFF">max</text>
<circle cx="694.000000" cy="30.000000" r="1"/>
<line x1="689.000000" y1="35.000000" x2="692.000000" y2="36.000000"  transform="rotate(0.000000,692.000000,36.000000)" style="stroke: black; stroke-width:0.25;"/>
<line x1="689.000000" y1="37.000000" x2="692.000000" y2="36.000000"  transform="rotate(0.000000,692.000000,36.000000)" style="stroke: black; stroke-width:0.25;"/>
<line x1="689.000000" y1="43.000000" x2="692.000000" y2="44.000000"  transform="rotate(0.000000,692.000000,44.000000)" style="stroke: black; stroke-width:0.25;"/>
<line x1="689.000000" y1="45.000000" x2="692.000000" y2="44.000000"  transform="rotate(0.000000,692.000000,44.000000)" style="stroke: black; stroke-width:0.25;"/>
<rect x="725.000000" y="29.000000" width="24.000000" height="24.000000" rx="0" ry="0" style="stroke:none;fill:#cccccc;"/>
<rect x="724.000000" y="28.000000" width="24.000000" height="24.000000" rx="0" ry="0" style="stroke:none;fill:#4B71A1;"/>
<text x="736.000000" y="42.000000" font-family="Arial" font-size="7" text-anchor="middle" fill="#FFFFFF">int</text>
<circle cx="726.000000" cy="30.000000" r="1"/>
<line x1="721.000000" y1="39.000000" x2="724.000000" y2="40.000000"  transform="rotate(0.000000,724.000000,40.000000)" style="stroke: black; stroke-width:0.25;"/>
<line x1="721.000000" y1="41.000000" x2="724.000000" y2="40.000000"  transform="rotate(0.000000,724.000000,40.000000)" style="stroke: black; stroke-width:0.25;"/>
<line x1="15.000000" y1="15.000000" x2="15.000000" y2="65.000000"  style="stroke: black; stroke-linecap:round; stroke-width:0.25; stroke-dasharray:3,3;"/>
<line x1="15.000000" y1="65.000000" x2="765.000000" y2="65.000000"  style="stroke: black; stroke-linecap:round; stroke-width:0.25; stroke-dasharray:3,3;"/>
<line x1="765.000000" y1="65.000000" x2="765.000000" y2="15.000000"  style="stroke: black; stroke-linecap:round; stroke-width:0.25; stroke-dasharray:3,3;"/>
<line x1="15.000000" y1="15.000000" x2="20.000000" y2="15.000000"  style="stroke: black; stroke-linecap:round; stroke-width:0.25; stroke-dasharray:3,3;"/>
<line x1="39.350000" y1="15.000000" x2="765.000000" y2="15.000000"  style="stroke: black; stroke-linecap:round; stroke-width:0.25; stroke-dasharray:3,3;"/>
<text x="20.000000" y="17.000000" font-family="Arial" font-size="7">hand</text>
<line x1="767.000000" y1="39.000000" x2="770.000000" y2="40.000000"  transform="rotate(0.000000,770.000000,40.000000)" style="stroke: black; stroke-width:0.25;"/>
<line x1="767.000000" y1="41.000000" x2="770.000000" y2="40.000000"  transform="rotate(0.000000,770.000000,40.000000)" style="stroke: black; stroke-width:0.25;"/>
<line x1="307.800000" y1="40.000000" x2="311.800000" y2="40.000000"  style="stroke:black; stroke-linecap:round; stroke-width:0.25;"/>
<line x1="311.800000" y1="40.000000" x2="311.800000" y2="40.000000"  style="stroke:black; stroke-linecap:round; stroke-width:0.25;"/>
<line x1="311.800000" y1="40.000000" x2="315.800000" y2="40.000000"  style="stroke:black; stroke-linecap:round; stroke-width:0.25;"/>
<line x1="483.500000" y1="40.000000" x2="487.500000" y2="40.000000"  style="stroke:black; stroke-linecap:round; stroke-width:0.25;"/>
<line x1="487.500000" y1="40.000000" x2="487.500000" y2="40.000000"  style="stroke:black; stroke-linecap:round; stroke-width:0.25;"/>
<line x1="487.500000" y1="40.000000" x2="491.500000" y2="40.000000"  style="stroke:black; stroke-linecap:round; stroke-width:0.25;"/>
<line x1="556.000000" y1="40.000000" x2="560.000000" y2="40.000000"  style="stroke:black; stroke-linecap:round; stroke-width:0.25;"/>
<line x1="560.000000" y1="40.000000" x2="568.000000" y2="40.000000"  style="stroke:black; stroke-linecap:round; stroke-width:0.25;"/>
<line x1="568.000000" y1="40.000000" x2="568.000000" y2="56.000000"  style="stroke:black; stroke-linecap:round; stroke-width:0.25;"/>
<line x1="568.000000" y1="56.000000" x2="568.000000" y2="56.000000"  style="stroke:black; stroke-linecap:round; stroke-width:0.25;"/>
<line x1="568.000000" y1="56.000000" x2="584.000000" y2="56.000000"  style="stroke:black; stroke-linecap:round; stroke-width:0.25;"/>
<line x1="584.000000" y1="56.000000" x2="600.000000" y2="56.000000"  style="stroke:black; stroke-linecap:round; stroke-width:0.25;"/>
<line x1="596.000000" y1="36.000000" x2="600.000000" y2="36.000000"  style="stroke:black; stroke-linecap:round; stroke-width:0.25;"/>
<line x1="600.000000" y1="36.000000" x2="608.000000" y2="36.000000"  style="stroke:black; stroke-linecap:round; stroke-width:0.25;"/>
<line x1="600.000000" y1="44.000000" x2="608.000000" y2="44.000000"  style="stroke:black; stroke-linecap:round; stroke-width:0.25;"/>
<line x1="600.000000" y1="56.000000" x2="600.000000" y2="44.000000"  style="stroke:black; stroke-linecap:round; stroke-width:0.25;"/>
<line x1="600.000000" y1="56.000000" x2="600.000000" y2="56.000000"  style="stroke:black; stroke-linecap:round; stroke-width:0.25;"/>
<line x1="608.000000" y1="36.000000" x2="612.000000" y2="36.000000"  style="stroke:black; stroke-linecap:round; stroke-width:0.25;"/>
<line x1="608.000000" y1="44.000000" x2="612.000000" y2="44.000000"  style="stroke:black; stroke-linecap:round; stroke-width:0.25;"/>
<line x1="636.000000" y1="40.000000" x2="640.000000" y2="40.000000"  style="stroke:black; stroke-linecap:round; stroke-width:0.25;"/>
<line x1="640.000000" y1="40.000000" x2="648.000000" y2="40.000000"  style="stroke:black; stroke-linecap:round; stroke-width:0.25;"/>
<line x1="648.000000" y1="40.000000" x2="648.000000" y2="56.000000"  style="stroke:black; stroke-linecap:round; stroke-width:0.25;"/>
<line x1="648.000000" y1="56.000000" x2="648.000000" y2="56.000000"  style="stroke:black; stroke-linecap:round; stroke-width:0.25;"/>
<line x1="648.000000" y1="56.000000" x2="664.000000" y2="56.000000"  style="stroke:black; stroke-linecap:round; stroke-width:0.25;"/>
<line x1="664.000000" y1="56.000000" x2="680.000000" y2="56.000000"  style="stroke:black; stroke-linecap:round; stroke-width:0.25;"/>
<line x1="676.000000" y1="36.000000" x2="680.000000" y2="36.000000"  style="stroke:black; stroke-linecap:round; stroke-width:0.25;"/>
<line x1="680.000000" y1="36.000000" x2="688.000000" y2="36.000000"  style="stroke:black; stroke-linecap:round; stroke-width:0.25;"/>
<line x1="680.000000" y1="44.000000" x2="688.000000" y2="44.000000"  style="stroke:black; stroke-linecap:round; stroke-width:0.25;"/>
<line x1="680.000000" y1="56.000000" x2="680.000000" y2="44.000000"  style="stroke:black; stroke-linecap:round; stroke-width:0.25;"/>
<line x1="680.000000" y1="56.000000" x2="680.000000" y2="56.000000"  style="stroke:black; stroke-linecap:round; stroke-width:0.25;"/>
<line x1="688.000000" y1="36.000000" x2="692.000000" y2="36.000000"  style="stroke:black; stroke-linecap:round; stroke-width:0.25;"/>
<line x1="688.000000" y1="44.000000" x2="692.000000" y2="44.000000"  style="stroke:black; stroke-linecap:round; stroke-width:0.25;"/>
<line x1="716.000000" y1="40.000000" x2="720.000000" y2="40.000000"  style="stroke:black; stroke-linecap:round; stroke-width:0.25;"/>
<line x1="720.000000" y1="40.000000" x2="720.000000" y2="40.000000"  style="stroke:black; stroke-linecap:round; stroke-width:0.25;"/>
<line x1="720.000000" y1="40.000000" x2="724.000000" y2="40.000000"  style="stroke:black; stroke-linecap:round; stroke-width:0.25;"/>
<line x1="748.000000" y1="40.000000" x2="752.000000" y2="40.000000"  style="stroke:black; stroke-linecap:round; stroke-width:0.25;"/>
<line x1="752.000000" y1="40.000000" x2="752.000000" y2="40.000000"  style="stroke:black; stroke-linecap:round; stroke-width:0.25;"/>
<line x1="752.000000" y1="40.000000" x2="756.000000" y2="40.000000"  style="stroke:black; stroke-linecap:round; stroke-width:0.25;"/>
<line x1="756.000000" y1="40.000000" x2="760.000000" y2="40.000000"  style="stroke:black; stroke-linecap:round; stroke-width:0.25;"/>
<line x1="760.000000" y1="40.000000" x2="770.000000" y2="40.000000"  style="stroke:black; stroke-linecap:round; stroke-width:0.25;"/>
</svg>
