<?xml version="1.0"?>
<svg xmlns="http://www.w3.org/2000/svg" xmlns:xlink="http://www.w3.org/1999/xlink" viewBox="0 0 504.600000 136.000000" width="252.300000mm" height="68.000000mm" version="1.1">
<a xlink:href="process.svg">
<rect x="1.000000" y="1.000000" width="503.600000" height="135.000000" rx="0" ry="0" style="stroke:none;fill:#cccccc;"/>
<rect x="0.000000" y="0.000000" width="503.600000" height="135.000000" rx="0" ry="0" style="stroke:none;fill:#ffffff;"/>
</a>
<text x="10.000000" y="7.000000" font-family="Arial" font-size="7"></text>
<rect x="85.500000" y="25.000000" width="24.000000" height="24.000000" rx="0" ry="0" style="stroke:none;fill:#cccccc;"/>
<rect x="84.500000" y="24.000000" width="24.000000" height="24.000000" rx="0" ry="0" style="stroke:none;fill:#f44800;"/>
<text x="96.500000" y="38.000000" font-family="Arial" font-size="7" text-anchor="middle" fill="#FFFFFF">1</text>
<circle cx="86.500000" cy="26.000000" r="1"/>
<a xlink:href="osc-0x7fdd648da510.svg">
<rect x="33.000000" y="57.000000" width="129.000000" height="24.000000" rx="0" ry="0" style="stroke:none;fill:#cccccc;"/>
<rect x="32.000000" y="56.000000" width="129.000000" height="24.000000" rx="0" ry="0" style="stroke:none;fill:#003366;"/>
</a>
<a xlink:href="osc-0x7fdd648da510.svg">
<text x="96.500000" y="70.000000" font-family="Arial" font-size="7" text-anchor="middle" fill="#FFFFFF">osc((closure[...0,1 : +) : *)</text>
</a>
<circle cx="34.000000" cy="58.000000" r="1"/>
<line x1="29.000000" y1="67.000000" x2="32.000000" y2="68.000000"  transform="rotate(0.000000,32.000000,68.000000)" style="stroke: black; stroke-width:0.25;"/>
<line x1="29.000000" y1="69.000000" x2="32.000000" y2="68.000000"  transform="rotate(0.000000,32.000000,68.000000)" style="stroke: black; stroke-width:0.25;"/>
<rect x="178.000000" y="41.000000" width="24.000000" height="24.000000" rx="0" ry="0" style="stroke:none;fill:#cccccc;"/>
<rect x="177.000000" y="40.000000" width="24.000000" height="24.000000" rx="0" ry="0" style="stroke:none;fill:#4B71A1;"/>
<text x="189.000000" y="54.000000" font-family="Arial" font-size="7" text-anchor="middle" fill="#FFFFFF">*</text>
<circle cx="179.000000" cy="42.000000" r="1"/>
<line x1="174.000000" y1="47.000000" x2="177.000000" y2="48.000000"  transform="rotate(0.000000,177.000000,48.000000)" style="stroke: black; stroke-width:0.25;"/>
<line x1="174.000000" y1="49.000000" x2="177.000000" y2="48.000000"  transform="rotate(0.000000,177.000000,48.000000)" style="stroke: black; stroke-width:0.25;"/>
<line x1="174.000000" y1="55.000000" x2="177.000000" y2="56.000000"  transform="rotate(0.000000,177.000000,56.000000)" style="stroke: black; stroke-width:0.25;"/>
<line x1="174.000000" y1="57.000000" x2="177.000000" y2="56.000000"  transform="rotate(0.000000,177.000000,56.000000)" style="stroke: black; stroke-width:0.25;"/>
<rect x="105.500000" y="89.000000" width="24.000000" height="24.000000" rx="0" ry="0" style="stroke:none;fill:#cccccc;"/>
<rect x="104.500000" y="88.000000" width="24.000000" height="24.000000" rx="0" ry="0" style="stroke:none;fill:#f44800;"/>
<text x="116.500000" y="102.000000" font-family="Arial" font-size="7" text-anchor="middle" fill="#FFFFFF">0.3</text>
<circle cx="106.500000" cy="90.000000" r="1"/>
<rect x="218.000000" y="57.000000" width="24.000000" height="24.000000" rx="0" ry="0" style="stroke:none;fill:#cccccc;"/>
<rect x="217.000000" y="56.000000" width="24.000000" height="24.000000" rx="0" ry="0" style="stroke:none;fill:#4B71A1;"/>
<text x="229.000000" y="70.000000" font-family="Arial" font-size="7" text-anchor="middle" fill="#FFFFFF">*</text>
<circle cx="219.000000" cy="58.000000" r="1"/>
<line x1="214.000000" y1="63.000000" x2="217.000000" y2="64.000000"  transform="rotate(0.000000,217.000000,64.000000)" style="stroke: black; stroke-width:0.25;"/>
<line x1="214.000000" y1="65.000000" x2="217.000000" y2="64.000000"  transform="rotate(0.000000,217.000000,64.000000)" style="stroke: black; stroke-width:0.25;"/>
<line x1="214.000000" y1="71.000000" x2="217.000000" y2="72.000000"  transform="rotate(0.000000,217.000000,72.000000)" style="stroke: black; stroke-width:0.25;"/>
<line x1="214.000000" y1="73.000000" x2="217.000000" y2="72.000000"  transform="rotate(0.000000,217.000000,72.000000)" style="stroke: black; stroke-width:0.25;"/>
<rect x="294.000000" y="49.000000" width="25.800000" height="24.000000" rx="0" ry="0" style="stroke:none;fill:#cccccc;"/>
<rect x="293.000000" y="48.000000" width="25.800000" height="24.000000" rx="0" ry="0" style="stroke:none;fill:#f44800;"/>
<text x="305.900000" y="62.000000" font-family="Arial" font-size="7" text-anchor="middle" fill="#FFFFFF">4410</text>
<circle cx="295.000000" cy="50.000000" r="1"/>
<rect x="294.900000" y="81.000000" width="24.000000" height="24.000000" rx="0" ry="0" style="stroke:none;fill:#cccccc;"/>
<rect x="293.900000" y="80.000000" width="24.000000" height="24.000000" rx="0" ry="0" style="stroke:none;fill:#f44800;"/>
<text x="305.900000" y="94.000000" font-family="Arial" font-size="7" text-anchor="middle" fill="#FFFFFF">0</text>
<circle cx="295.900000" cy="82.000000" r="1"/>
<rect x="335.800000" y="65.000000" width="24.000000" height="24.000000" rx="0" ry="0" style="stroke:none;fill:#cccccc;"/>
<rect x="334.800000" y="64.000000" width="24.000000" height="24.000000" rx="0" ry="0" style="stroke:none;fill:#4B71A1;"/>
<text x="346.800000" y="78.000000" font-family="Arial" font-size="7" text-anchor="middle" fill="#FFFFFF">*</text>
<circle cx="336.800000" cy="66.000000" r="1"/>
<line x1="331.800000" y1="71.000000" x2="334.800000" y2="72.000000"  transform="rotate(0.000000,334.800000,72.000000)" style="stroke: black; stroke-width:0.25;"/>
<line x1="331.800000" y1="73.000000" x2="334.800000" y2="72.000000"  transform="rotate(0.000000,334.800000,72.000000)" style="stroke: black; stroke-width:0.25;"/>
<line x1="331.800000" y1="79.000000" x2="334.800000" y2="80.000000"  transform="rotate(0.000000,334.800000,80.000000)" style="stroke: black; stroke-width:0.25;"/>
<line x1="331.800000" y1="81.000000" x2="334.800000" y2="80.000000"  transform="rotate(0.000000,334.800000,80.000000)" style="stroke: black; stroke-width:0.25;"/>
<rect x="367.800000" y="65.000000" width="24.000000" height="24.000000" rx="0" ry="0" style="stroke:none;fill:#cccccc;"/>
<rect x="366.800000" y="64.000000" width="24.000000" height="24.000000" rx="0" ry="0" style="stroke:none;fill:#4B71A1;"/>
<text x="378.800000" y="78.000000" font-family="Arial" font-size="7" text-anchor="middle" fill="#FFFFFF">int</text>
<circle cx="368.800000" cy="66.000000" r="1"/>
<line x1="363.800000" y1="75.000000" x2="366.800000" y2="76.000000"  transform="rotate(0.000000,366.800000,76.000000)" style="stroke: black; stroke-width:0.25;"/>
<line x1="363.800000" y1="77.000000" x2="366.800000" y2="76.000000"  transform="rotate(0.000000,366.800000,76.000000)" style="stroke: black; stroke-width:0.25;"/>
<rect x="407.800000" y="61.000000" width="24.000000" height="24.000000" rx="0" ry="0" style="stroke:none;fill:#cccccc;"/>
<rect x="406.800000" y="60.000000" width="24.000000" height="24.000000" rx="0" ry="0" style="stroke:none;fill:#4B71A1;"/>
<text x="418.800000" y="74.000000" font-family="Arial" font-size="7" text-anchor="middle" fill="#FFFFFF">@</text>
<circle cx="408.800000" cy="62.000000" r="1"/>
<line x1="403.800000" y1="67.000000" x2="406.800000" y2="68.000000"  transform="rotate(0.000000,406.800000,68.000000)" style="stroke: black; stroke-width:0.25;"/>
<line x1="403.800000" y1="69.000000" x2="406.800000" y2="68.000000"  transform="rotate(0.000000,406.800000,68.000000)" style="stroke: black; stroke-width:0.25;"/>
<line x1="403.800000" y1="75.000000" x2="406.800000" y2="76.000000"  transform="rotate(0.000000,406.800000,76.000000)" style="stroke: black; stroke-width:0.25;"/>
<line x1="403.800000" y1="77.000000" x2="406.800000" y2="76.000000"  transform="rotate(0.000000,406.800000,76.000000)" style="stroke: black; stroke-width:0.25;"/>
<a xlink:href="drywet-0x7fdd648dfeb0.svg">
<rect x="447.800000" y="57.000000" width="25.800000" height="24.000000" rx="0" ry="0" style="stroke:none;fill:#cccccc;"/>
<rect x="446.800000" y="56.000000" width="25.800000" height="24.000000" rx="0" ry="0" style="stroke:none;fill:#003366;"/>
</a>
<a xlink:href="drywet-0x7fdd648dfeb0.svg">
<text x="459.700000" y="70.000000" font-family="Arial" font-size="7" text-anchor="middle" fill="#FFFFFF">drywet</text>
</a>
<circle cx="448.800000" cy="58.000000" r="1"/>
<line x1="443.800000" y1="63.000000" x2="446.800000" y2="64.000000"  transform="rotate(0.000000,446.800000,64.000000)" style="stroke: black; stroke-width:0.25;"/>
<line x1="443.800000" y1="65.000000" x2="446.800000" y2="64.000000"  transform="rotate(0.000000,446.800000,64.000000)" style="stroke: black; stroke-width:0.25;"/>
<line x1="443.800000" y1="71.000000" x2="446.800000" y2="72.000000"  transform="rotate(0.000000,446.800000,72.000000)" style="stroke: black; stroke-width:0.25;"/>
<line x1="443.800000" y1="73.000000" x2="446.800000" y2="72.000000"  transform="rotate(0.000000,446.800000,72.000000)" style="stroke: black; stroke-width:0.25;"/>
<line x1="15.000000" y1="15.000000" x2="15.000000" y2="121.000000"  style="stroke: black; stroke-linecap:round; stroke-width:0.25; stroke-dasharray:3,3;"/>
<line x1="15.000000" y1="121.000000" x2="489.600000" y2="121.000000"  style="stroke: black; stroke-linecap:round; stroke-width:0.25; stroke-dasharray:3,3;"/>
<line x1="489.600000" y1="121.000000" x2="489.600000" y2="15.000000"  style="stroke: black; stroke-linecap:round; stroke-width:0.25; stroke-dasharray:3,3;"/>
<line x1="15.000000" y1="15.000000" x2="20.000000" y2="15.000000"  style="stroke: black; stroke-linecap:round; stroke-width:0.25; stroke-dasharray:3,3;"/>
<line x1="58.700000" y1="15.000000" x2="489.600000" y2="15.000000"  style="stroke: black; stroke-linecap:round; stroke-width:0.25; stroke-dasharray:3,3;"/>
<text x="20.000000" y="17.000000" font-family="Arial" font-size="7">partial(0)</text>
<line x1="491.600000" y1="67.000000" x2="494.600000" y2="68.000000"  transform="rotate(0.000000,494.600000,68.000000)" style="stroke: black; stroke-width:0.25;"/>
<line x1="491.600000" y1="69.000000" x2="494.600000" y2="68.000000"  transform="rotate(0.000000,494.600000,68.000000)" style="stroke: black; stroke-width:0.25;"/>
<line x1="10.000000" y1="68.000000" x2="20.000000" y2="68.000000"  style="stroke:black; stroke-linecap:round; stroke-width:0.25;"/>
<line x1="20.000000" y1="68.000000" x2="24.000000" y2="68.000000"  style="stroke:black; stroke-linecap:round; stroke-width:0.25;"/>
<line x1="24.000000" y1="68.000000" x2="28.000000" y2="68.000000"  style="stroke:black; stroke-linecap:round; stroke-width:0.25;"/>
<line x1="28.000000" y1="68.000000" x2="28.000000" y2="68.000000"  style="stroke:black; stroke-linecap:round; stroke-width:0.25;"/>
<line x1="28.000000" y1="68.000000" x2="32.000000" y2="68.000000"  style="stroke:black; stroke-linecap:round; stroke-width:0.25;"/>
<line x1="108.500000" y1="36.000000" x2="112.500000" y2="36.000000"  style="stroke:black; stroke-linecap:round; stroke-width:0.25;"/>
<line x1="112.500000" y1="36.000000" x2="165.000000" y2="36.000000"  style="stroke:black; stroke-linecap:round; stroke-width:0.25;"/>
<line x1="128.500000" y1="100.000000" x2="132.500000" y2="100.000000"  style="stroke:black; stroke-linecap:round; stroke-width:0.25;"/>
<line x1="132.500000" y1="100.000000" x2="205.000000" y2="100.000000"  style="stroke:black; stroke-linecap:round; stroke-width:0.25;"/>
<line x1="161.000000" y1="68.000000" x2="165.000000" y2="68.000000"  style="stroke:black; stroke-linecap:round; stroke-width:0.25;"/>
<line x1="165.000000" y1="36.000000" x2="173.000000" y2="36.000000"  style="stroke:black; stroke-linecap:round; stroke-width:0.25;"/>
<line x1="165.000000" y1="56.000000" x2="173.000000" y2="56.000000"  style="stroke:black; stroke-linecap:round; stroke-width:0.25;"/>
<line x1="165.000000" y1="68.000000" x2="165.000000" y2="56.000000"  style="stroke:black; stroke-linecap:round; stroke-width:0.25;"/>
<line x1="165.000000" y1="68.000000" x2="165.000000" y2="68.000000"  style="stroke:black; stroke-linecap:round; stroke-width:0.25;"/>
<line x1="173.000000" y1="36.000000" x2="173.000000" y2="48.000000"  style="stroke:black; stroke-linecap:round; stroke-width:0.25;"/>
<line x1="173.000000" y1="48.000000" x2="173.000000" y2="48.000000"  style="stroke:black; stroke-linecap:round; stroke-width:0.25;"/>
<line x1="173.000000" y1="48.000000" x2="177.000000" y2="48.000000"  style="stroke:black; stroke-linecap:round; stroke-width:0.25;"/>
<line x1="173.000000" y1="56.000000" x2="177.000000" y2="56.000000"  style="stroke:black; stroke-linecap:round; stroke-width:0.25;"/>
<line x1="201.000000" y1="52.000000" x2="205.000000" y2="52.000000"  style="stroke:black; stroke-linecap:round; stroke-width:0.25;"/>
<line x1="205.000000" y1="52.000000" x2="213.000000" y2="52.000000"  style="stroke:black; stroke-linecap:round; stroke-width:0.25;"/>
<line x1="205.000000" y1="72.000000" x2="213.000000" y2="72.000000"  style="stroke:black; stroke-linecap:round; stroke-width:0.25;"/>
<line x1="205.000000" y1="100.000000" x2="205.000000" y2="72.000000"  style="stroke:black; stroke-linecap:round; stroke-width:0.25;"/>
<line x1="205.000000" y1="100.000000" x2="205.000000" y2="100.000000"  style="stroke:black; stroke-linecap:round; stroke-width:0.25;"/>
<line x1="213.000000" y1="52.000000" x2="213.000000" y2="64.000000"  style="stroke:black; stroke-linecap:round; stroke-width:0.25;"/>
<line x1="213.000000" y1="64.000000" x2="213.000000" y2="64.000000"  style="stroke:black; stroke-linecap:round; stroke-width:0.25;"/>
<line x1="213.000000" y1="64.000000" x2="217.000000" y2="64.000000"  style="stroke:black; stroke-linecap:round; stroke-width:0.25;"/>
<line x1="213.000000" y1="72.000000" x2="217.000000" y2="72.000000"  style="stroke:black; stroke-linecap:round; stroke-width:0.25;"/>
<line x1="241.000000" y1="68.000000" x2="245.000000" y2="68.000000"  style="stroke:black; stroke-linecap:round; stroke-width:0.25;"/>
<line x1="245.000000" y1="68.000000" x2="289.000000" y2="32.000000"  style="stroke:black; stroke-linecap:round; stroke-width:0.25;"/>
<line x1="245.000000" y1="68.000000" x2="289.000000" y2="40.000000"  style="stroke:black; stroke-linecap:round; stroke-width:0.25;"/>
<line x1="289.000000" y1="32.000000" x2="361.900000" y2="32.000000"  style="stroke:black; stroke-linecap:round; stroke-width:0.25;"/>
<line x1="289.000000" y1="40.000000" x2="341.900000" y2="40.000000"  style="stroke:black; stroke-linecap:round; stroke-width:0.25;"/>
<line x1="317.900000" y1="92.000000" x2="321.900000" y2="92.000000"  style="stroke:black; stroke-linecap:round; stroke-width:0.25;"/>
<line x1="318.800000" y1="60.000000" x2="322.800000" y2="60.000000"  style="stroke:black; stroke-linecap:round; stroke-width:0.25;"/>
<line x1="321.900000" y1="92.000000" x2="322.800000" y2="92.000000"  style="stroke:black; stroke-linecap:round; stroke-width:0.25;"/>
<line x1="322.800000" y1="80.000000" x2="330.800000" y2="80.000000"  style="stroke:black; stroke-linecap:round; stroke-width:0.25;"/>
<line x1="322.800000" y1="92.000000" x2="322.800000" y2="80.000000"  style="stroke:black; stroke-linecap:round; stroke-width:0.25;"/>
<line x1="322.800000" y1="92.000000" x2="322.800000" y2="92.000000"  style="stroke:black; stroke-linecap:round; stroke-width:0.25;"/>
<line x1="322.800000" y1="60.000000" x2="330.800000" y2="60.000000"  style="stroke:black; stroke-linecap:round; stroke-width:0.25;"/>
<line x1="330.800000" y1="60.000000" x2="330.800000" y2="72.000000"  style="stroke:black; stroke-linecap:round; stroke-width:0.25;"/>
<line x1="330.800000" y1="72.000000" x2="330.800000" y2="72.000000"  style="stroke:black; stroke-linecap:round; stroke-width:0.25;"/>
<line x1="330.800000" y1="72.000000" x2="334.800000" y2="72.000000"  style="stroke:black; stroke-linecap:round; stroke-width:0.25;"/>
<line x1="330.800000" y1="80.000000" x2="334.800000" y2="80.000000"  style="stroke:black; stroke-linecap:round; stroke-width:0.25;"/>
<line x1="341.900000" y1="40.000000" x2="394.800000" y2="40.000000"  style="stroke:black; stroke-linecap:round; stroke-width:0.25;"/>
<line x1="358.800000" y1="76.000000" x2="362.800000" y2="76.000000"  style="stroke:black; stroke-linecap:round; stroke-width:0.25;"/>
<line x1="361.900000" y1="32.000000" x2="434.800000" y2="32.000000"  style="stroke:black; stroke-linecap:round; stroke-width:0.25;"/>
<line x1="362.800000" y1="76.000000" x2="362.800000" y2="76.000000"  style="stroke:black; stroke-linecap:round; stroke-width:0.25;"/>
<line x1="362.800000" y1="76.000000" x2="366.800000" y2="76.000000"  style="stroke:black; stroke-linecap:round; stroke-width:0.25;"/>
<line x1="390.800000" y1="76.000000" x2="394.800000" y2="76.000000"  style="stroke:black; stroke-linecap:round; stroke-width:0.25;"/>
<line x1="394.800000" y1="40.000000" x2="402.800000" y2="40.000000"  style="stroke:black; stroke-linecap:round; stroke-width:0.25;"/>
<line x1="394.800000" y1="76.000000" x2="402.800000" y2="76.000000"  style="stroke:black; stroke-linecap:round; stroke-width:0.25;"/>
<line x1="402.800000" y1="40.000000" x2="402.800000" y2="68.000000"  style="stroke:black; stroke-linecap:round; stroke-width:0.25;"/>
<line x1="402.800000" y1="68.000000" x2="402.800000" y2="68.000000"  style="stroke:black; stroke-linecap:round; stroke-width:0.25;"/>
<line x1="402.800000" y1="68.000000" x2="406.800000" y2="68.000000"  style="stroke:black; stroke-linecap:round; stroke-width:0.25;"/>
<line x1="402.800000" y1="76.000000" x2="406.800000" y2="76.000000"  style="stroke:black; stroke-linecap:round; stroke-width:0.25;"/>
<line x1="430.800000" y1="72.000000" x2="434.800000" y2="72.000000"  style="stroke:black; stroke-linecap:round; stroke-width:0.25;"/>
<line x1="434.800000" y1="32.000000" x2="442.800000" y2="32.000000"  style="stroke:black; stroke-linecap:round; stroke-width:0.25;"/>
<line x1="434.800000" y1="72.000000" x2="442.800000" y2="72.000000"  style="stroke:black; stroke-linecap:round; stroke-width:0.25;"/>
<line x1="442.800000" y1="32.000000" x2="442.800000" y2="64.000000"  style="stroke:black; stroke-linecap:round; stroke-width:0.25;"/>
<line x1="442.800000" y1="64.000000" x2="442.800000" y2="64.000000"  style="stroke:black; stroke-linecap:round; stroke-width:0.25;"/>
<line x1="442.800000" y1="64.000000" x2="446.800000" y2="64.000000"  style="stroke:black; stroke-linecap:round; stroke-width:0.25;"/>
<line x1="442.800000" y1="72.000000" x2="446.800000" y2="72.000000"  style="stroke:black; stroke-linecap:round; stroke-width:0.25;"/>
<line x1="472.600000" y1="68.000000" x2="476.600000" y2="68.000000"  style="stroke:black; stroke-linecap:round; stroke-width:0.25;"/>
<line x1="476.600000" y1="68.000000" x2="476.600000" y2="68.000000"  style="stroke:black; stroke-linecap:round; stroke-width:0.25;"/>
<line x1="476.600000" y1="68.000000" x2="480.600000" y2="68.000000"  style="stroke:black; stroke-linecap:round; stroke-width:0.25;"/>
<line x1="480.600000" y1="68.000000" x2="484.600000" y2="68.000000"  style="stroke:black; stroke-linecap:round; stroke-width:0.25;"/>
<line x1="484.600000" y1="68.000000" x2="494.600000" y2="68.000000"  style="stroke:black; stroke-linecap:round; stroke-width:0.25;"/>
</svg>
