<?xml version="1.0"?>
<svg xmlns="http://www.w3.org/2000/svg" xmlns:xlink="http://www.w3.org/1999/xlink" viewBox="0 0 869.500000 212.000000" width="434.750000mm" height="106.000000mm" version="1.1">
<a xlink:href="process.svg">
<rect x="1.000000" y="1.000000" width="868.500000" height="211.000000" rx="0" ry="0" style="stroke:none;fill:#cccccc;"/>
<rect x="0.000000" y="0.000000" width="868.500000" height="211.000000" rx="0" ry="0" style="stroke:none;fill:#ffffff;"/>
</a>
<text x="10.000000" y="7.000000" font-family="Arial" font-size="7"></text>
<rect x="43.000000" y="131.000000" width="25.800000" height="24.000000" rx="0" ry="0" style="stroke:none;fill:#cccccc;"/>
<rect x="42.000000" y="130.000000" width="25.800000" height="24.000000" rx="0" ry="0" style="stroke:none;fill:#f44800;"/>
<text x="54.900000" y="144.000000" font-family="Arial" font-size="7" text-anchor="middle" fill="#FFFFFF">0.85</text>
<circle cx="44.000000" cy="132.000000" r="1"/>
<rect x="84.800000" y="127.000000" width="24.000000" height="24.000000" rx="0" ry="0" style="stroke:none;fill:#cccccc;"/>
<rect x="83.800000" y="126.000000" width="24.000000" height="24.000000" rx="0" ry="0" style="stroke:none;fill:#4B71A1;"/>
<text x="95.800000" y="140.000000" font-family="Arial" font-size="7" text-anchor="middle" fill="#FFFFFF">*</text>
<circle cx="85.800000" cy="128.000000" r="1"/>
<line x1="80.800000" y1="133.000000" x2="83.800000" y2="134.000000"  transform="rotate(0.000000,83.800000,134.000000)" style="stroke: black; stroke-width:0.25;"/>
<line x1="80.800000" y1="135.000000" x2="83.800000" y2="134.000000"  transform="rotate(0.000000,83.800000,134.000000)" style="stroke: black; stroke-width:0.25;"/>
<line x1="80.800000" y1="141.000000" x2="83.800000" y2="142.000000"  transform="rotate(0.000000,83.800000,142.000000)" style="stroke: black; stroke-width:0.25;"/>
<line x1="80.800000" y1="143.000000" x2="83.800000" y2="142.000000"  transform="rotate(0.000000,83.800000,142.000000)" style="stroke: black; stroke-width:0.25;"/>
<line x1="33.000000" y1="113.000000" x2="33.000000" y2="163.000000"  style="stroke: black; stroke-linecap:round; stroke-width:0.25; stroke-dasharray:3,3;"/>
<line x1="33.000000" y1="163.000000" x2="116.800000" y2="163.000000"  style="stroke: black; stroke-linecap:round; stroke-width:0.25; stroke-dasharray:3,3;"/>
<line x1="116.800000" y1="163.000000" x2="116.800000" y2="113.000000"  style="stroke: black; stroke-linecap:round; stroke-width:0.25; stroke-dasharray:3,3;"/>
<line x1="33.000000" y1="113.000000" x2="38.000000" y2="113.000000"  style="stroke: black; stroke-linecap:round; stroke-width:0.25; stroke-dasharray:3,3;"/>
<line x1="83.150000" y1="113.000000" x2="116.800000" y2="113.000000"  style="stroke: black; stroke-linecap:round; stroke-width:0.25; stroke-dasharray:3,3;"/>
<text x="38.000000" y="115.000000" font-family="Arial" font-size="7">borePressure</text>
<a xlink:href="deltaPressure-0x7f821c29cfb0.svg">
<rect x="168.800000" y="123.000000" width="90.300000" height="24.000000" rx="0" ry="0" style="stroke:none;fill:#cccccc;"/>
<rect x="167.800000" y="122.000000" width="90.300000" height="24.000000" rx="0" ry="0" style="stroke:none;fill:#003366;"/>
</a>
<a xlink:href="deltaPressure-0x7f821c29cfb0.svg">
<text x="212.950000" y="136.000000" font-family="Arial" font-size="7" text-anchor="middle" fill="#FFFFFF">deltaPressure(0.37f)</text>
</a>
<circle cx="169.800000" cy="124.000000" r="1"/>
<line x1="164.800000" y1="133.000000" x2="167.800000" y2="134.000000"  transform="rotate(0.000000,167.800000,134.000000)" style="stroke: black; stroke-width:0.25;"/>
<line x1="164.800000" y1="135.000000" x2="167.800000" y2="134.000000"  transform="rotate(0.000000,167.800000,134.000000)" style="stroke: black; stroke-width:0.25;"/>
<a xlink:href="lipFilter-0x7f821c0931d0.svg">
<rect x="275.100000" y="123.000000" width="129.000000" height="24.000000" rx="0" ry="0" style="stroke:none;fill:#cccccc;"/>
<rect x="274.100000" y="122.000000" width="129.000000" height="24.000000" rx="0" ry="0" style="stroke:none;fill:#003366;"/>
</a>
<a xlink:href="lipFilter-0x7f821c0931d0.svg">
<text x="338.600000" y="136.000000" font-family="Arial" font-size="7" text-anchor="middle" fill="#FFFFFF">lipFilter(hsl...,0.999f : *))</text>
</a>
<circle cx="276.100000" cy="124.000000" r="1"/>
<line x1="271.100000" y1="133.000000" x2="274.100000" y2="134.000000"  transform="rotate(0.000000,274.100000,134.000000)" style="stroke: black; stroke-width:0.25;"/>
<line x1="271.100000" y1="135.000000" x2="274.100000" y2="134.000000"  transform="rotate(0.000000,274.100000,134.000000)" style="stroke: black; stroke-width:0.25;"/>
<a xlink:href="mouthPressure-0x7f821c07ae20.svg">
<rect x="445.100000" y="97.000000" width="90.300000" height="24.000000" rx="0" ry="0" style="stroke:none;fill:#cccccc;"/>
<rect x="444.100000" y="96.000000" width="90.300000" height="24.000000" rx="0" ry="0" style="stroke:none;fill:#003366;"/>
</a>
<a xlink:href="mouthPressure-0x7f821c07ae20.svg">
<text x="489.250000" y="110.000000" font-family="Arial" font-size="7" text-anchor="middle" fill="#FFFFFF">mouthPressure(0.37f)</text>
</a>
<circle cx="446.100000" cy="98.000000" r="1"/>
<rect x="551.400000" y="93.000000" width="24.000000" height="24.000000" rx="0" ry="0" style="stroke:none;fill:#cccccc;"/>
<rect x="550.400000" y="92.000000" width="24.000000" height="24.000000" rx="0" ry="0" style="stroke:none;fill:#4B71A1;"/>
<text x="562.400000" y="106.000000" font-family="Arial" font-size="7" text-anchor="middle" fill="#FFFFFF">*</text>
<circle cx="552.400000" cy="94.000000" r="1"/>
<line x1="547.400000" y1="99.000000" x2="550.400000" y2="100.000000"  transform="rotate(0.000000,550.400000,100.000000)" style="stroke: black; stroke-width:0.25;"/>
<line x1="547.400000" y1="101.000000" x2="550.400000" y2="100.000000"  transform="rotate(0.000000,550.400000,100.000000)" style="stroke: black; stroke-width:0.25;"/>
<line x1="547.400000" y1="107.000000" x2="550.400000" y2="108.000000"  transform="rotate(0.000000,550.400000,108.000000)" style="stroke: black; stroke-width:0.25;"/>
<line x1="547.400000" y1="109.000000" x2="550.400000" y2="108.000000"  transform="rotate(0.000000,550.400000,108.000000)" style="stroke: black; stroke-width:0.25;"/>
<rect x="478.250000" y="139.000000" width="24.000000" height="24.000000" rx="0" ry="0" style="stroke:none;fill:#cccccc;"/>
<rect x="477.250000" y="138.000000" width="24.000000" height="24.000000" rx="0" ry="0" style="stroke:none;fill:#f44800;"/>
<text x="489.250000" y="152.000000" font-family="Arial" font-size="7" text-anchor="middle" fill="#FFFFFF">1</text>
<circle cx="479.250000" cy="140.000000" r="1"/>
<line x1="468.250000" y1="129.000000" x2="468.250000" y2="171.000000"  style="stroke: black; stroke-linecap:round; stroke-width:0.25; stroke-dasharray:3,3;"/>
<line x1="468.250000" y1="171.000000" x2="510.250000" y2="171.000000"  style="stroke: black; stroke-linecap:round; stroke-width:0.25; stroke-dasharray:3,3;"/>
<line x1="510.250000" y1="171.000000" x2="510.250000" y2="129.000000"  style="stroke: black; stroke-linecap:round; stroke-width:0.25; stroke-dasharray:3,3;"/>
<line x1="468.250000" y1="129.000000" x2="473.250000" y2="129.000000"  style="stroke: black; stroke-linecap:round; stroke-width:0.25; stroke-dasharray:3,3;"/>
<line x1="486.150000" y1="129.000000" x2="510.250000" y2="129.000000"  style="stroke: black; stroke-linecap:round; stroke-width:0.25; stroke-dasharray:3,3;"/>
<text x="473.250000" y="131.000000" font-family="Arial" font-size="7">b0</text>
<rect x="528.250000" y="143.000000" width="24.000000" height="24.000000" rx="0" ry="0" style="stroke:none;fill:#cccccc;"/>
<rect x="527.250000" y="142.000000" width="24.000000" height="24.000000" rx="0" ry="0" style="stroke:none;fill:#4B71A1;"/>
<text x="539.250000" y="156.000000" font-family="Arial" font-size="7" text-anchor="middle" fill="#FFFFFF">-</text>
<circle cx="529.250000" cy="144.000000" r="1"/>
<line x1="524.250000" y1="149.000000" x2="527.250000" y2="150.000000"  transform="rotate(0.000000,527.250000,150.000000)" style="stroke: black; stroke-width:0.25;"/>
<line x1="524.250000" y1="151.000000" x2="527.250000" y2="150.000000"  transform="rotate(0.000000,527.250000,150.000000)" style="stroke: black; stroke-width:0.25;"/>
<line x1="524.250000" y1="157.000000" x2="527.250000" y2="158.000000"  transform="rotate(0.000000,527.250000,158.000000)" style="stroke: black; stroke-width:0.25;"/>
<line x1="524.250000" y1="159.000000" x2="527.250000" y2="158.000000"  transform="rotate(0.000000,527.250000,158.000000)" style="stroke: black; stroke-width:0.25;"/>
<rect x="599.400000" y="131.000000" width="24.000000" height="24.000000" rx="0" ry="0" style="stroke:none;fill:#cccccc;"/>
<rect x="598.400000" y="130.000000" width="24.000000" height="24.000000" rx="0" ry="0" style="stroke:none;fill:#4B71A1;"/>
<text x="610.400000" y="144.000000" font-family="Arial" font-size="7" text-anchor="middle" fill="#FFFFFF">*</text>
<circle cx="600.400000" cy="132.000000" r="1"/>
<line x1="595.400000" y1="137.000000" x2="598.400000" y2="138.000000"  transform="rotate(0.000000,598.400000,138.000000)" style="stroke: black; stroke-width:0.25;"/>
<line x1="595.400000" y1="139.000000" x2="598.400000" y2="138.000000"  transform="rotate(0.000000,598.400000,138.000000)" style="stroke: black; stroke-width:0.25;"/>
<line x1="595.400000" y1="145.000000" x2="598.400000" y2="146.000000"  transform="rotate(0.000000,598.400000,146.000000)" style="stroke: black; stroke-width:0.25;"/>
<line x1="595.400000" y1="147.000000" x2="598.400000" y2="146.000000"  transform="rotate(0.000000,598.400000,146.000000)" style="stroke: black; stroke-width:0.25;"/>
<rect x="666.400000" y="127.000000" width="24.000000" height="24.000000" rx="0" ry="0" style="stroke:none;fill:#cccccc;"/>
<rect x="665.400000" y="126.000000" width="24.000000" height="24.000000" rx="0" ry="0" style="stroke:none;fill:#4B71A1;"/>
<text x="677.400000" y="140.000000" font-family="Arial" font-size="7" text-anchor="middle" fill="#FFFFFF">+</text>
<circle cx="667.400000" cy="128.000000" r="1"/>
<line x1="662.400000" y1="133.000000" x2="665.400000" y2="134.000000"  transform="rotate(0.000000,665.400000,134.000000)" style="stroke: black; stroke-width:0.25;"/>
<line x1="662.400000" y1="135.000000" x2="665.400000" y2="134.000000"  transform="rotate(0.000000,665.400000,134.000000)" style="stroke: black; stroke-width:0.25;"/>
<line x1="662.400000" y1="141.000000" x2="665.400000" y2="142.000000"  transform="rotate(0.000000,665.400000,142.000000)" style="stroke: black; stroke-width:0.25;"/>
<line x1="662.400000" y1="143.000000" x2="665.400000" y2="142.000000"  transform="rotate(0.000000,665.400000,142.000000)" style="stroke: black; stroke-width:0.25;"/>
<a xlink:href="dcblocker-0x7f821c1f7a90.svg">
<rect x="698.400000" y="127.000000" width="38.700000" height="24.000000" rx="0" ry="0" style="stroke:none;fill:#cccccc;"/>
<rect x="697.400000" y="126.000000" width="38.700000" height="24.000000" rx="0" ry="0" style="stroke:none;fill:#003366;"/>
</a>
<a xlink:href="dcblocker-0x7f821c1f7a90.svg">
<text x="716.750000" y="140.000000" font-family="Arial" font-size="7" text-anchor="middle" fill="#FFFFFF">dcblocker</text>
</a>
<circle cx="699.400000" cy="128.000000" r="1"/>
<line x1="694.400000" y1="137.000000" x2="697.400000" y2="138.000000"  transform="rotate(0.000000,697.400000,138.000000)" style="stroke: black; stroke-width:0.25;"/>
<line x1="694.400000" y1="139.000000" x2="697.400000" y2="138.000000"  transform="rotate(0.000000,697.400000,138.000000)" style="stroke: black; stroke-width:0.25;"/>
<a xlink:href="boreDelay-0x7f8219ff2db0.svg">
<rect x="340.550000" y="57.000000" width="129.000000" height="24.000000" rx="0" ry="0" style="stroke:none;fill:#cccccc;"/>
<rect x="339.550000" y="56.000000" width="129.000000" height="24.000000" rx="0" ry="0" style="stroke:none;fill:#003366;"/>
</a>
<a xlink:href="boreDelay-0x7f8219ff2db0.svg">
<text x="404.050000" y="70.000000" font-family="Arial" font-size="7" text-anchor="middle" fill="#FFFFFF">boreDelay(hsl...,0.999f : *))</text>
</a>
<circle cx="466.550000" cy="78.000000" r="1"/>
<line x1="471.550000" y1="67.000000" x2="468.550000" y2="68.000000"  transform="rotate(0.000000,468.550000,68.000000)" style="stroke: black; stroke-width:0.25;"/>
<line x1="471.550000" y1="69.000000" x2="468.550000" y2="68.000000"  transform="rotate(0.000000,468.550000,68.000000)" style="stroke: black; stroke-width:0.25;"/>
<rect x="269.600000" y="25.000000" width="270.900000" height="24.000000" rx="0" ry="0" style="stroke:none;fill:#cccccc;"/>
<rect x="268.600000" y="24.000000" width="270.900000" height="24.000000" rx="0" ry="0" style="stroke:none;fill:#477881;"/>
<text x="404.050000" y="38.000000" font-family="Arial" font-size="7" text-anchor="middle" fill="#FFFFFF">hslider(h:Instrument/v:Gain/Volume 1, 0.5f, 0.0f, 1.0f, 0.01f)</text>
<circle cx="537.500000" cy="46.000000" r="1"/>
<rect x="229.600000" y="41.000000" width="24.000000" height="24.000000" rx="0" ry="0" style="stroke:none;fill:#cccccc;"/>
<rect x="228.600000" y="40.000000" width="24.000000" height="24.000000" rx="0" ry="0" style="stroke:none;fill:#4B71A1;"/>
<text x="240.600000" y="54.000000" font-family="Arial" font-size="7" text-anchor="middle" fill="#FFFFFF">*</text>
<circle cx="250.600000" cy="62.000000" r="1"/>
<line x1="255.600000" y1="55.000000" x2="252.600000" y2="56.000000"  transform="rotate(0.000000,252.600000,56.000000)" style="stroke: black; stroke-width:0.25;"/>
<line x1="255.600000" y1="57.000000" x2="252.600000" y2="56.000000"  transform="rotate(0.000000,252.600000,56.000000)" style="stroke: black; stroke-width:0.25;"/>
<line x1="255.600000" y1="47.000000" x2="252.600000" y2="48.000000"  transform="rotate(0.000000,252.600000,48.000000)" style="stroke: black; stroke-width:0.25;"/>
<line x1="255.600000" y1="49.000000" x2="252.600000" y2="48.000000"  transform="rotate(0.000000,252.600000,48.000000)" style="stroke: black; stroke-width:0.25;"/>
<line x1="738.100000" y1="138.000000" x2="738.100000" y2="134.000000"  style="stroke:black; stroke-linecap:round; stroke-width:0.25;"/>
<line x1="738.100000" y1="134.000000" x2="742.100000" y2="134.000000"  style="stroke:black; stroke-linecap:round; stroke-width:0.25;"/>
<line x1="742.100000" y1="134.000000" x2="742.100000" y2="138.000000"  style="stroke:black; stroke-linecap:round; stroke-width:0.25;"/>
<a xlink:href="lowpass-0x7f821c285bf0.svg">
<rect x="761.100000" y="95.000000" width="77.400000" height="24.000000" rx="0" ry="0" style="stroke:none;fill:#cccccc;"/>
<rect x="760.100000" y="94.000000" width="77.400000" height="24.000000" rx="0" ry="0" style="stroke:none;fill:#003366;"/>
</a>
<a xlink:href="lowpass-0x7f821c285bf0.svg">
<text x="798.800000" y="108.000000" font-family="Arial" font-size="7" text-anchor="middle" fill="#FFFFFF">lowpass(1)(1500)</text>
</a>
<circle cx="762.100000" cy="96.000000" r="1"/>
<line x1="757.100000" y1="105.000000" x2="760.100000" y2="106.000000"  transform="rotate(0.000000,760.100000,106.000000)" style="stroke: black; stroke-width:0.25;"/>
<line x1="757.100000" y1="107.000000" x2="760.100000" y2="106.000000"  transform="rotate(0.000000,760.100000,106.000000)" style="stroke: black; stroke-width:0.25;"/>
<line x1="15.000000" y1="15.000000" x2="15.000000" y2="197.000000"  style="stroke: black; stroke-linecap:round; stroke-width:0.25; stroke-dasharray:3,3;"/>
<line x1="15.000000" y1="197.000000" x2="854.500000" y2="197.000000"  style="stroke: black; stroke-linecap:round; stroke-width:0.25; stroke-dasharray:3,3;"/>
<line x1="854.500000" y1="197.000000" x2="854.500000" y2="15.000000"  style="stroke: black; stroke-linecap:round; stroke-width:0.25; stroke-dasharray:3,3;"/>
<line x1="15.000000" y1="15.000000" x2="20.000000" y2="15.000000"  style="stroke: black; stroke-linecap:round; stroke-width:0.25; stroke-dasharray:3,3;"/>
<line x1="52.250000" y1="15.000000" x2="854.500000" y2="15.000000"  style="stroke: black; stroke-linecap:round; stroke-width:0.25; stroke-dasharray:3,3;"/>
<text x="20.000000" y="17.000000" font-family="Arial" font-size="7">brass(0)</text>
<line x1="856.500000" y1="105.000000" x2="859.500000" y2="106.000000"  transform="rotate(0.000000,859.500000,106.000000)" style="stroke: black; stroke-width:0.25;"/>
<line x1="856.500000" y1="107.000000" x2="859.500000" y2="106.000000"  transform="rotate(0.000000,859.500000,106.000000)" style="stroke: black; stroke-width:0.25;"/>
<line x1="28.000000" y1="52.000000" x2="28.000000" y2="52.000000"  style="stroke:black; stroke-linecap:round; stroke-width:0.25;"/>
<line x1="28.000000" y1="52.000000" x2="28.000000" y2="122.000000"  style="stroke:black; stroke-linecap:round; stroke-width:0.25;"/>
<line x1="28.000000" y1="122.000000" x2="28.000000" y2="122.000000"  style="stroke:black; stroke-linecap:round; stroke-width:0.25;"/>
<line x1="28.000000" y1="122.000000" x2="38.000000" y2="122.000000"  style="stroke:black; stroke-linecap:round; stroke-width:0.25;"/>
<line x1="38.000000" y1="122.000000" x2="54.900000" y2="122.000000"  style="stroke:black; stroke-linecap:round; stroke-width:0.25;"/>
<line x1="54.900000" y1="122.000000" x2="71.800000" y2="122.000000"  style="stroke:black; stroke-linecap:round; stroke-width:0.25;"/>
<line x1="67.800000" y1="142.000000" x2="71.800000" y2="142.000000"  style="stroke:black; stroke-linecap:round; stroke-width:0.25;"/>
<line x1="71.800000" y1="122.000000" x2="79.800000" y2="122.000000"  style="stroke:black; stroke-linecap:round; stroke-width:0.25;"/>
<line x1="71.800000" y1="142.000000" x2="79.800000" y2="142.000000"  style="stroke:black; stroke-linecap:round; stroke-width:0.25;"/>
<line x1="79.800000" y1="122.000000" x2="79.800000" y2="134.000000"  style="stroke:black; stroke-linecap:round; stroke-width:0.25;"/>
<line x1="79.800000" y1="134.000000" x2="79.800000" y2="134.000000"  style="stroke:black; stroke-linecap:round; stroke-width:0.25;"/>
<line x1="79.800000" y1="134.000000" x2="83.800000" y2="134.000000"  style="stroke:black; stroke-linecap:round; stroke-width:0.25;"/>
<line x1="79.800000" y1="142.000000" x2="83.800000" y2="142.000000"  style="stroke:black; stroke-linecap:round; stroke-width:0.25;"/>
<line x1="107.800000" y1="138.000000" x2="111.800000" y2="138.000000"  style="stroke:black; stroke-linecap:round; stroke-width:0.25;"/>
<line x1="111.800000" y1="138.000000" x2="121.800000" y2="138.000000"  style="stroke:black; stroke-linecap:round; stroke-width:0.25;"/>
<line x1="121.800000" y1="138.000000" x2="163.800000" y2="134.000000"  style="stroke:black; stroke-linecap:round; stroke-width:0.25;"/>
<line x1="121.800000" y1="138.000000" x2="163.800000" y2="154.000000"  style="stroke:black; stroke-linecap:round; stroke-width:0.25;"/>
<line x1="163.800000" y1="134.000000" x2="167.800000" y2="134.000000"  style="stroke:black; stroke-linecap:round; stroke-width:0.25;"/>
<line x1="163.800000" y1="154.000000" x2="212.950000" y2="154.000000"  style="stroke:black; stroke-linecap:round; stroke-width:0.25;"/>
<line x1="212.950000" y1="154.000000" x2="262.100000" y2="154.000000"  style="stroke:black; stroke-linecap:round; stroke-width:0.25;"/>
<line x1="224.600000" y1="52.000000" x2="28.000000" y2="52.000000"  style="stroke:black; stroke-linecap:round; stroke-width:0.25;"/>
<line x1="228.600000" y1="52.000000" x2="224.600000" y2="52.000000"  style="stroke:black; stroke-linecap:round; stroke-width:0.25;"/>
<line x1="256.600000" y1="48.000000" x2="252.600000" y2="48.000000"  style="stroke:black; stroke-linecap:round; stroke-width:0.25;"/>
<line x1="256.600000" y1="56.000000" x2="252.600000" y2="56.000000"  style="stroke:black; stroke-linecap:round; stroke-width:0.25;"/>
<line x1="256.600000" y1="56.000000" x2="256.600000" y2="56.000000"  style="stroke:black; stroke-linecap:round; stroke-width:0.25;"/>
<line x1="256.600000" y1="68.000000" x2="256.600000" y2="56.000000"  style="stroke:black; stroke-linecap:round; stroke-width:0.25;"/>
<line x1="258.100000" y1="134.000000" x2="262.100000" y2="134.000000"  style="stroke:black; stroke-linecap:round; stroke-width:0.25;"/>
<line x1="262.100000" y1="134.000000" x2="270.100000" y2="134.000000"  style="stroke:black; stroke-linecap:round; stroke-width:0.25;"/>
<line x1="262.100000" y1="154.000000" x2="270.100000" y2="154.000000"  style="stroke:black; stroke-linecap:round; stroke-width:0.25;"/>
<line x1="264.600000" y1="36.000000" x2="264.600000" y2="36.000000"  style="stroke:black; stroke-linecap:round; stroke-width:0.25;"/>
<line x1="264.600000" y1="36.000000" x2="264.600000" y2="48.000000"  style="stroke:black; stroke-linecap:round; stroke-width:0.25;"/>
<line x1="264.600000" y1="48.000000" x2="256.600000" y2="48.000000"  style="stroke:black; stroke-linecap:round; stroke-width:0.25;"/>
<line x1="264.600000" y1="68.000000" x2="256.600000" y2="68.000000"  style="stroke:black; stroke-linecap:round; stroke-width:0.25;"/>
<line x1="268.600000" y1="36.000000" x2="264.600000" y2="36.000000"  style="stroke:black; stroke-linecap:round; stroke-width:0.25;"/>
<line x1="270.100000" y1="134.000000" x2="274.100000" y2="134.000000"  style="stroke:black; stroke-linecap:round; stroke-width:0.25;"/>
<line x1="270.100000" y1="154.000000" x2="270.100000" y2="188.000000"  style="stroke:black; stroke-linecap:round; stroke-width:0.25;"/>
<line x1="270.100000" y1="188.000000" x2="270.100000" y2="188.000000"  style="stroke:black; stroke-linecap:round; stroke-width:0.25;"/>
<line x1="270.100000" y1="188.000000" x2="424.250000" y2="188.000000"  style="stroke:black; stroke-linecap:round; stroke-width:0.25;"/>
<line x1="335.550000" y1="68.000000" x2="264.600000" y2="68.000000"  style="stroke:black; stroke-linecap:round; stroke-width:0.25;"/>
<line x1="339.550000" y1="68.000000" x2="335.550000" y2="68.000000"  style="stroke:black; stroke-linecap:round; stroke-width:0.25;"/>
<line x1="403.100000" y1="134.000000" x2="407.100000" y2="134.000000"  style="stroke:black; stroke-linecap:round; stroke-width:0.25;"/>
<line x1="407.100000" y1="134.000000" x2="440.100000" y2="88.000000"  style="stroke:black; stroke-linecap:round; stroke-width:0.25;"/>
<line x1="407.100000" y1="134.000000" x2="440.100000" y2="180.000000"  style="stroke:black; stroke-linecap:round; stroke-width:0.25;"/>
<line x1="424.250000" y1="188.000000" x2="578.400000" y2="188.000000"  style="stroke:black; stroke-linecap:round; stroke-width:0.25;"/>
<line x1="440.100000" y1="88.000000" x2="489.250000" y2="88.000000"  style="stroke:black; stroke-linecap:round; stroke-width:0.25;"/>
<line x1="440.100000" y1="180.000000" x2="463.250000" y2="180.000000"  style="stroke:black; stroke-linecap:round; stroke-width:0.25;"/>
<line x1="463.250000" y1="180.000000" x2="489.250000" y2="180.000000"  style="stroke:black; stroke-linecap:round; stroke-width:0.25;"/>
<line x1="472.550000" y1="68.000000" x2="468.550000" y2="68.000000"  style="stroke:black; stroke-linecap:round; stroke-width:0.25;"/>
<line x1="489.250000" y1="88.000000" x2="538.400000" y2="88.000000"  style="stroke:black; stroke-linecap:round; stroke-width:0.25;"/>
<line x1="489.250000" y1="180.000000" x2="515.250000" y2="180.000000"  style="stroke:black; stroke-linecap:round; stroke-width:0.25;"/>
<line x1="501.250000" y1="150.000000" x2="505.250000" y2="150.000000"  style="stroke:black; stroke-linecap:round; stroke-width:0.25;"/>
<line x1="505.250000" y1="150.000000" x2="515.250000" y2="150.000000"  style="stroke:black; stroke-linecap:round; stroke-width:0.25;"/>
<line x1="515.250000" y1="150.000000" x2="523.250000" y2="150.000000"  style="stroke:black; stroke-linecap:round; stroke-width:0.25;"/>
<line x1="515.250000" y1="158.000000" x2="523.250000" y2="158.000000"  style="stroke:black; stroke-linecap:round; stroke-width:0.25;"/>
<line x1="515.250000" y1="180.000000" x2="515.250000" y2="158.000000"  style="stroke:black; stroke-linecap:round; stroke-width:0.25;"/>
<line x1="515.250000" y1="180.000000" x2="515.250000" y2="180.000000"  style="stroke:black; stroke-linecap:round; stroke-width:0.25;"/>
<line x1="523.250000" y1="150.000000" x2="527.250000" y2="150.000000"  style="stroke:black; stroke-linecap:round; stroke-width:0.25;"/>
<line x1="523.250000" y1="158.000000" x2="527.250000" y2="158.000000"  style="stroke:black; stroke-linecap:round; stroke-width:0.25;"/>
<line x1="534.400000" y1="108.000000" x2="538.400000" y2="108.000000"  style="stroke:black; stroke-linecap:round; stroke-width:0.25;"/>
<line x1="538.400000" y1="88.000000" x2="546.400000" y2="88.000000"  style="stroke:black; stroke-linecap:round; stroke-width:0.25;"/>
<line x1="538.400000" y1="108.000000" x2="546.400000" y2="108.000000"  style="stroke:black; stroke-linecap:round; stroke-width:0.25;"/>
<line x1="543.500000" y1="68.000000" x2="472.550000" y2="68.000000"  style="stroke:black; stroke-linecap:round; stroke-width:0.25;"/>
<line x1="546.400000" y1="88.000000" x2="546.400000" y2="100.000000"  style="stroke:black; stroke-linecap:round; stroke-width:0.25;"/>
<line x1="546.400000" y1="100.000000" x2="546.400000" y2="100.000000"  style="stroke:black; stroke-linecap:round; stroke-width:0.25;"/>
<line x1="546.400000" y1="100.000000" x2="550.400000" y2="100.000000"  style="stroke:black; stroke-linecap:round; stroke-width:0.25;"/>
<line x1="546.400000" y1="108.000000" x2="550.400000" y2="108.000000"  style="stroke:black; stroke-linecap:round; stroke-width:0.25;"/>
<line x1="551.250000" y1="154.000000" x2="555.250000" y2="154.000000"  style="stroke:black; stroke-linecap:round; stroke-width:0.25;"/>
<line x1="555.250000" y1="154.000000" x2="578.400000" y2="154.000000"  style="stroke:black; stroke-linecap:round; stroke-width:0.25;"/>
<line x1="574.400000" y1="104.000000" x2="578.400000" y2="104.000000"  style="stroke:black; stroke-linecap:round; stroke-width:0.25;"/>
<line x1="578.400000" y1="104.000000" x2="594.400000" y2="104.000000"  style="stroke:black; stroke-linecap:round; stroke-width:0.25;"/>
<line x1="578.400000" y1="138.000000" x2="594.400000" y2="138.000000"  style="stroke:black; stroke-linecap:round; stroke-width:0.25;"/>
<line x1="578.400000" y1="154.000000" x2="578.400000" y2="138.000000"  style="stroke:black; stroke-linecap:round; stroke-width:0.25;"/>
<line x1="578.400000" y1="154.000000" x2="578.400000" y2="154.000000"  style="stroke:black; stroke-linecap:round; stroke-width:0.25;"/>
<line x1="578.400000" y1="188.000000" x2="586.400000" y2="188.000000"  style="stroke:black; stroke-linecap:round; stroke-width:0.25;"/>
<line x1="586.400000" y1="146.000000" x2="594.400000" y2="146.000000"  style="stroke:black; stroke-linecap:round; stroke-width:0.25;"/>
<line x1="586.400000" y1="188.000000" x2="586.400000" y2="146.000000"  style="stroke:black; stroke-linecap:round; stroke-width:0.25;"/>
<line x1="594.400000" y1="104.000000" x2="594.400000" y2="122.000000"  style="stroke:black; stroke-linecap:round; stroke-width:0.25;"/>
<line x1="594.400000" y1="122.000000" x2="594.400000" y2="122.000000"  style="stroke:black; stroke-linecap:round; stroke-width:0.25;"/>
<line x1="594.400000" y1="122.000000" x2="610.400000" y2="122.000000"  style="stroke:black; stroke-linecap:round; stroke-width:0.25;"/>
<line x1="594.400000" y1="138.000000" x2="598.400000" y2="138.000000"  style="stroke:black; stroke-linecap:round; stroke-width:0.25;"/>
<line x1="594.400000" y1="146.000000" x2="598.400000" y2="146.000000"  style="stroke:black; stroke-linecap:round; stroke-width:0.25;"/>
<line x1="610.400000" y1="122.000000" x2="626.400000" y2="122.000000"  style="stroke:black; stroke-linecap:round; stroke-width:0.25;"/>
<line x1="622.400000" y1="142.000000" x2="626.400000" y2="142.000000"  style="stroke:black; stroke-linecap:round; stroke-width:0.25;"/>
<line x1="626.400000" y1="122.000000" x2="661.400000" y2="134.000000"  style="stroke:black; stroke-linecap:round; stroke-width:0.25;"/>
<line x1="626.400000" y1="142.000000" x2="661.400000" y2="142.000000"  style="stroke:black; stroke-linecap:round; stroke-width:0.25;"/>
<line x1="661.400000" y1="134.000000" x2="665.400000" y2="134.000000"  style="stroke:black; stroke-linecap:round; stroke-width:0.25;"/>
<line x1="661.400000" y1="142.000000" x2="665.400000" y2="142.000000"  style="stroke:black; stroke-linecap:round; stroke-width:0.25;"/>
<line x1="689.400000" y1="138.000000" x2="693.400000" y2="138.000000"  style="stroke:black; stroke-linecap:round; stroke-width:0.25;"/>
<line x1="693.400000" y1="138.000000" x2="693.400000" y2="138.000000"  style="stroke:black; stroke-linecap:round; stroke-width:0.25;"/>
<line x1="693.400000" y1="138.000000" x2="697.400000" y2="138.000000"  style="stroke:black; stroke-linecap:round; stroke-width:0.25;"/>
<line x1="736.100000" y1="138.000000" x2="740.100000" y2="138.000000"  style="stroke:black; stroke-linecap:round; stroke-width:0.25;"/>
<line x1="740.100000" y1="68.000000" x2="543.500000" y2="68.000000"  style="stroke:black; stroke-linecap:round; stroke-width:0.25;"/>
<line x1="740.100000" y1="68.000000" x2="740.100000" y2="68.000000"  style="stroke:black; stroke-linecap:round; stroke-width:0.25;"/>
<line x1="740.100000" y1="134.000000" x2="740.100000" y2="68.000000"  style="stroke:black; stroke-linecap:round; stroke-width:0.25;"/>
<line x1="740.100000" y1="138.000000" x2="742.100000" y2="138.000000"  style="stroke:black; stroke-linecap:round; stroke-width:0.25;"/>
<line x1="742.100000" y1="138.000000" x2="748.100000" y2="138.000000"  style="stroke:black; stroke-linecap:round; stroke-width:0.25;"/>
<line x1="748.100000" y1="106.000000" x2="756.100000" y2="106.000000"  style="stroke:black; stroke-linecap:round; stroke-width:0.25;"/>
<line x1="748.100000" y1="138.000000" x2="748.100000" y2="106.000000"  style="stroke:black; stroke-linecap:round; stroke-width:0.25;"/>
<line x1="748.100000" y1="138.000000" x2="748.100000" y2="138.000000"  style="stroke:black; stroke-linecap:round; stroke-width:0.25;"/>
<line x1="756.100000" y1="106.000000" x2="760.100000" y2="106.000000"  style="stroke:black; stroke-linecap:round; stroke-width:0.25;"/>
<line x1="837.500000" y1="106.000000" x2="841.500000" y2="106.000000"  style="stroke:black; stroke-linecap:round; stroke-width:0.25;"/>
<line x1="841.500000" y1="106.000000" x2="841.500000" y2="106.000000"  style="stroke:black; stroke-linecap:round; stroke-width:0.25;"/>
<line x1="841.500000" y1="106.000000" x2="845.500000" y2="106.000000"  style="stroke:black; stroke-linecap:round; stroke-width:0.25;"/>
<line x1="845.500000" y1="106.000000" x2="849.500000" y2="106.000000"  style="stroke:black; stroke-linecap:round; stroke-width:0.25;"/>
<line x1="849.500000" y1="106.000000" x2="859.500000" y2="106.000000"  style="stroke:black; stroke-linecap:round; stroke-width:0.25;"/>
</svg>
