<?xml version="1.0"?>
<svg xmlns="http://www.w3.org/2000/svg" xmlns:xlink="http://www.w3.org/1999/xlink" viewBox="0 0 337.000000 208.000000" width="168.500000mm" height="104.000000mm" version="1.1">
<a xlink:href="pickposfilter-0x7f82d4845cd0.svg">
<rect x="1.000000" y="1.000000" width="336.000000" height="207.000000" rx="0" ry="0" style="stroke:none;fill:#cccccc;"/>
<rect x="0.000000" y="0.000000" width="336.000000" height="207.000000" rx="0" ry="0" style="stroke:none;fill:#ffffff;"/>
</a>
<text x="10.000000" y="7.000000" font-family="Arial" font-size="7"></text>
<rect x="33.000000" y="93.000000" width="24.000000" height="24.000000" rx="0" ry="0" style="stroke:none;fill:#cccccc;"/>
<rect x="32.000000" y="92.000000" width="24.000000" height="24.000000" rx="0" ry="0" style="stroke:none;fill:#47945E;"/>
<text x="44.000000" y="106.000000" font-family="Arial" font-size="7" text-anchor="middle" fill="#FFFFFF">x</text>
<circle cx="34.000000" cy="94.000000" r="1"/>
<line x1="29.000000" y1="103.000000" x2="32.000000" y2="104.000000"  transform="rotate(0.000000,32.000000,104.000000)" style="stroke: black; stroke-width:0.25;"/>
<line x1="29.000000" y1="105.000000" x2="32.000000" y2="104.000000"  transform="rotate(0.000000,32.000000,104.000000)" style="stroke: black; stroke-width:0.25;"/>
<rect x="153.500000" y="25.000000" width="24.000000" height="24.000000" rx="0" ry="0" style="stroke:none;fill:#cccccc;"/>
<rect x="152.500000" y="24.000000" width="24.000000" height="24.000000" rx="0" ry="0" style="stroke:none;fill:#47945E;"/>
<text x="164.500000" y="38.000000" font-family="Arial" font-size="7" text-anchor="middle" fill="#FFFFFF">x</text>
<circle cx="154.500000" cy="26.000000" r="1"/>
<a xlink:href="ppdel-0x7f82d2ec0430.svg">
<rect x="65.000000" y="57.000000" width="129.000000" height="24.000000" rx="0" ry="0" style="stroke:none;fill:#cccccc;"/>
<rect x="64.000000" y="56.000000" width="129.000000" height="24.000000" rx="0" ry="0" style="stroke:none;fill:#003366;"/>
</a>
<a xlink:href="ppdel-0x7f82d2ec0430.svg">
<text x="128.500000" y="70.000000" font-family="Arial" font-size="7" text-anchor="middle" fill="#FFFFFF">ppdel((115,2 ...,0.999f : *))</text>
</a>
<circle cx="66.000000" cy="58.000000" r="1"/>
<rect x="202.000000" y="57.000000" width="24.000000" height="24.000000" rx="0" ry="0" style="stroke:none;fill:#cccccc;"/>
<rect x="201.000000" y="56.000000" width="24.000000" height="24.000000" rx="0" ry="0" style="stroke:none;fill:#4B71A1;"/>
<text x="213.000000" y="70.000000" font-family="Arial" font-size="7" text-anchor="middle" fill="#FFFFFF">int</text>
<circle cx="203.000000" cy="58.000000" r="1"/>
<line x1="198.000000" y1="67.000000" x2="201.000000" y2="68.000000"  transform="rotate(0.000000,201.000000,68.000000)" style="stroke: black; stroke-width:0.25;"/>
<line x1="198.000000" y1="69.000000" x2="201.000000" y2="68.000000"  transform="rotate(0.000000,201.000000,68.000000)" style="stroke: black; stroke-width:0.25;"/>
<rect x="112.600000" y="99.000000" width="25.800000" height="24.000000" rx="0" ry="0" style="stroke:none;fill:#cccccc;"/>
<rect x="111.600000" y="98.000000" width="25.800000" height="24.000000" rx="0" ry="0" style="stroke:none;fill:#f44800;"/>
<text x="124.500000" y="112.000000" font-family="Arial" font-size="7" text-anchor="middle" fill="#FFFFFF">4096</text>
<circle cx="113.600000" cy="100.000000" r="1"/>
<line x1="102.600000" y1="89.000000" x2="102.600000" y2="131.000000"  style="stroke: black; stroke-linecap:round; stroke-width:0.25; stroke-dasharray:3,3;"/>
<line x1="102.600000" y1="131.000000" x2="146.400000" y2="131.000000"  style="stroke: black; stroke-linecap:round; stroke-width:0.25; stroke-dasharray:3,3;"/>
<line x1="146.400000" y1="131.000000" x2="146.400000" y2="89.000000"  style="stroke: black; stroke-linecap:round; stroke-width:0.25; stroke-dasharray:3,3;"/>
<line x1="102.600000" y1="89.000000" x2="107.600000" y2="89.000000"  style="stroke: black; stroke-linecap:round; stroke-width:0.25; stroke-dasharray:3,3;"/>
<line x1="126.950000" y1="89.000000" x2="146.400000" y2="89.000000"  style="stroke: black; stroke-linecap:round; stroke-width:0.25; stroke-dasharray:3,3;"/>
<text x="107.600000" y="91.000000" font-family="Arial" font-size="7">Pmax</text>
<rect x="113.500000" y="151.000000" width="24.000000" height="24.000000" rx="0" ry="0" style="stroke:none;fill:#cccccc;"/>
<rect x="112.500000" y="150.000000" width="24.000000" height="24.000000" rx="0" ry="0" style="stroke:none;fill:#f44800;"/>
<text x="124.500000" y="164.000000" font-family="Arial" font-size="7" text-anchor="middle" fill="#FFFFFF">1</text>
<circle cx="114.500000" cy="152.000000" r="1"/>
<line x1="103.500000" y1="141.000000" x2="103.500000" y2="183.000000"  style="stroke: black; stroke-linecap:round; stroke-width:0.25; stroke-dasharray:3,3;"/>
<line x1="103.500000" y1="183.000000" x2="145.500000" y2="183.000000"  style="stroke: black; stroke-linecap:round; stroke-width:0.25; stroke-dasharray:3,3;"/>
<line x1="145.500000" y1="183.000000" x2="145.500000" y2="141.000000"  style="stroke: black; stroke-linecap:round; stroke-width:0.25; stroke-dasharray:3,3;"/>
<line x1="103.500000" y1="141.000000" x2="108.500000" y2="141.000000"  style="stroke: black; stroke-linecap:round; stroke-width:0.25; stroke-dasharray:3,3;"/>
<line x1="127.850000" y1="141.000000" x2="145.500000" y2="141.000000"  style="stroke: black; stroke-linecap:round; stroke-width:0.25; stroke-dasharray:3,3;"/>
<text x="108.500000" y="143.000000" font-family="Arial" font-size="7">gain</text>
<rect x="164.400000" y="125.000000" width="24.000000" height="24.000000" rx="0" ry="0" style="stroke:none;fill:#cccccc;"/>
<rect x="163.400000" y="124.000000" width="24.000000" height="24.000000" rx="0" ry="0" style="stroke:none;fill:#4B71A1;"/>
<text x="175.400000" y="138.000000" font-family="Arial" font-size="7" text-anchor="middle" fill="#FFFFFF">-</text>
<circle cx="165.400000" cy="126.000000" r="1"/>
<line x1="160.400000" y1="131.000000" x2="163.400000" y2="132.000000"  transform="rotate(0.000000,163.400000,132.000000)" style="stroke: black; stroke-width:0.25;"/>
<line x1="160.400000" y1="133.000000" x2="163.400000" y2="132.000000"  transform="rotate(0.000000,163.400000,132.000000)" style="stroke: black; stroke-width:0.25;"/>
<line x1="160.400000" y1="139.000000" x2="163.400000" y2="140.000000"  transform="rotate(0.000000,163.400000,140.000000)" style="stroke: black; stroke-width:0.25;"/>
<line x1="160.400000" y1="141.000000" x2="163.400000" y2="140.000000"  transform="rotate(0.000000,163.400000,140.000000)" style="stroke: black; stroke-width:0.25;"/>
<rect x="242.000000" y="109.000000" width="24.000000" height="24.000000" rx="0" ry="0" style="stroke:none;fill:#cccccc;"/>
<rect x="241.000000" y="108.000000" width="24.000000" height="24.000000" rx="0" ry="0" style="stroke:none;fill:#4B71A1;"/>
<text x="253.000000" y="122.000000" font-family="Arial" font-size="7" text-anchor="middle" fill="#FFFFFF">&amp;</text>
<circle cx="243.000000" cy="110.000000" r="1"/>
<line x1="238.000000" y1="115.000000" x2="241.000000" y2="116.000000"  transform="rotate(0.000000,241.000000,116.000000)" style="stroke: black; stroke-width:0.25;"/>
<line x1="238.000000" y1="117.000000" x2="241.000000" y2="116.000000"  transform="rotate(0.000000,241.000000,116.000000)" style="stroke: black; stroke-width:0.25;"/>
<line x1="238.000000" y1="123.000000" x2="241.000000" y2="124.000000"  transform="rotate(0.000000,241.000000,124.000000)" style="stroke: black; stroke-width:0.25;"/>
<line x1="238.000000" y1="125.000000" x2="241.000000" y2="124.000000"  transform="rotate(0.000000,241.000000,124.000000)" style="stroke: black; stroke-width:0.25;"/>
<rect x="282.000000" y="93.000000" width="24.000000" height="24.000000" rx="0" ry="0" style="stroke:none;fill:#cccccc;"/>
<rect x="281.000000" y="92.000000" width="24.000000" height="24.000000" rx="0" ry="0" style="stroke:none;fill:#4B71A1;"/>
<text x="293.000000" y="106.000000" font-family="Arial" font-size="7" text-anchor="middle" fill="#FFFFFF">@</text>
<circle cx="283.000000" cy="94.000000" r="1"/>
<line x1="278.000000" y1="99.000000" x2="281.000000" y2="100.000000"  transform="rotate(0.000000,281.000000,100.000000)" style="stroke: black; stroke-width:0.25;"/>
<line x1="278.000000" y1="101.000000" x2="281.000000" y2="100.000000"  transform="rotate(0.000000,281.000000,100.000000)" style="stroke: black; stroke-width:0.25;"/>
<line x1="278.000000" y1="107.000000" x2="281.000000" y2="108.000000"  transform="rotate(0.000000,281.000000,108.000000)" style="stroke: black; stroke-width:0.25;"/>
<line x1="278.000000" y1="109.000000" x2="281.000000" y2="108.000000"  transform="rotate(0.000000,281.000000,108.000000)" style="stroke: black; stroke-width:0.25;"/>
<line x1="15.000000" y1="15.000000" x2="15.000000" y2="193.000000"  style="stroke: black; stroke-linecap:round; stroke-width:0.25; stroke-dasharray:3,3;"/>
<line x1="15.000000" y1="193.000000" x2="322.000000" y2="193.000000"  style="stroke: black; stroke-linecap:round; stroke-width:0.25; stroke-dasharray:3,3;"/>
<line x1="322.000000" y1="193.000000" x2="322.000000" y2="15.000000"  style="stroke: black; stroke-linecap:round; stroke-width:0.25; stroke-dasharray:3,3;"/>
<line x1="15.000000" y1="15.000000" x2="20.000000" y2="15.000000"  style="stroke: black; stroke-linecap:round; stroke-width:0.25; stroke-dasharray:3,3;"/>
<line x1="119.975000" y1="15.000000" x2="322.000000" y2="15.000000"  style="stroke: black; stroke-linecap:round; stroke-width:0.25; stroke-dasharray:3,3;"/>
<text x="20.000000" y="17.000000" font-family="Arial" font-size="7">delay(4096)(h...*)) : /) : *)</text>
<line x1="324.000000" y1="103.000000" x2="327.000000" y2="104.000000"  transform="rotate(0.000000,327.000000,104.000000)" style="stroke: black; stroke-width:0.25;"/>
<line x1="324.000000" y1="105.000000" x2="327.000000" y2="104.000000"  transform="rotate(0.000000,327.000000,104.000000)" style="stroke: black; stroke-width:0.25;"/>
<line x1="10.000000" y1="104.000000" x2="20.000000" y2="104.000000"  style="stroke:black; stroke-linecap:round; stroke-width:0.25;"/>
<line x1="20.000000" y1="104.000000" x2="24.000000" y2="104.000000"  style="stroke:black; stroke-linecap:round; stroke-width:0.25;"/>
<line x1="24.000000" y1="104.000000" x2="28.000000" y2="104.000000"  style="stroke:black; stroke-linecap:round; stroke-width:0.25;"/>
<line x1="28.000000" y1="104.000000" x2="28.000000" y2="104.000000"  style="stroke:black; stroke-linecap:round; stroke-width:0.25;"/>
<line x1="28.000000" y1="104.000000" x2="32.000000" y2="104.000000"  style="stroke:black; stroke-linecap:round; stroke-width:0.25;"/>
<line x1="136.500000" y1="162.000000" x2="140.500000" y2="162.000000"  style="stroke:black; stroke-linecap:round; stroke-width:0.25;"/>
<line x1="137.400000" y1="110.000000" x2="141.400000" y2="110.000000"  style="stroke:black; stroke-linecap:round; stroke-width:0.25;"/>
<line x1="140.500000" y1="162.000000" x2="150.500000" y2="162.000000"  style="stroke:black; stroke-linecap:round; stroke-width:0.25;"/>
<line x1="141.400000" y1="110.000000" x2="151.400000" y2="110.000000"  style="stroke:black; stroke-linecap:round; stroke-width:0.25;"/>
<line x1="150.500000" y1="162.000000" x2="151.400000" y2="162.000000"  style="stroke:black; stroke-linecap:round; stroke-width:0.25;"/>
<line x1="151.400000" y1="110.000000" x2="159.400000" y2="110.000000"  style="stroke:black; stroke-linecap:round; stroke-width:0.25;"/>
<line x1="151.400000" y1="140.000000" x2="159.400000" y2="140.000000"  style="stroke:black; stroke-linecap:round; stroke-width:0.25;"/>
<line x1="151.400000" y1="162.000000" x2="151.400000" y2="140.000000"  style="stroke:black; stroke-linecap:round; stroke-width:0.25;"/>
<line x1="151.400000" y1="162.000000" x2="151.400000" y2="162.000000"  style="stroke:black; stroke-linecap:round; stroke-width:0.25;"/>
<line x1="159.400000" y1="110.000000" x2="159.400000" y2="132.000000"  style="stroke:black; stroke-linecap:round; stroke-width:0.25;"/>
<line x1="159.400000" y1="132.000000" x2="159.400000" y2="132.000000"  style="stroke:black; stroke-linecap:round; stroke-width:0.25;"/>
<line x1="159.400000" y1="132.000000" x2="163.400000" y2="132.000000"  style="stroke:black; stroke-linecap:round; stroke-width:0.25;"/>
<line x1="159.400000" y1="140.000000" x2="163.400000" y2="140.000000"  style="stroke:black; stroke-linecap:round; stroke-width:0.25;"/>
<line x1="176.500000" y1="36.000000" x2="180.500000" y2="36.000000"  style="stroke:black; stroke-linecap:round; stroke-width:0.25;"/>
<line x1="180.500000" y1="36.000000" x2="269.000000" y2="36.000000"  style="stroke:black; stroke-linecap:round; stroke-width:0.25;"/>
<line x1="187.400000" y1="136.000000" x2="191.400000" y2="136.000000"  style="stroke:black; stroke-linecap:round; stroke-width:0.25;"/>
<line x1="191.400000" y1="136.000000" x2="229.000000" y2="136.000000"  style="stroke:black; stroke-linecap:round; stroke-width:0.25;"/>
<line x1="193.000000" y1="68.000000" x2="197.000000" y2="68.000000"  style="stroke:black; stroke-linecap:round; stroke-width:0.25;"/>
<line x1="197.000000" y1="68.000000" x2="197.000000" y2="68.000000"  style="stroke:black; stroke-linecap:round; stroke-width:0.25;"/>
<line x1="197.000000" y1="68.000000" x2="201.000000" y2="68.000000"  style="stroke:black; stroke-linecap:round; stroke-width:0.25;"/>
<line x1="225.000000" y1="68.000000" x2="229.000000" y2="68.000000"  style="stroke:black; stroke-linecap:round; stroke-width:0.25;"/>
<line x1="229.000000" y1="124.000000" x2="237.000000" y2="124.000000"  style="stroke:black; stroke-linecap:round; stroke-width:0.25;"/>
<line x1="229.000000" y1="136.000000" x2="229.000000" y2="124.000000"  style="stroke:black; stroke-linecap:round; stroke-width:0.25;"/>
<line x1="229.000000" y1="136.000000" x2="229.000000" y2="136.000000"  style="stroke:black; stroke-linecap:round; stroke-width:0.25;"/>
<line x1="229.000000" y1="68.000000" x2="237.000000" y2="68.000000"  style="stroke:black; stroke-linecap:round; stroke-width:0.25;"/>
<line x1="237.000000" y1="68.000000" x2="237.000000" y2="116.000000"  style="stroke:black; stroke-linecap:round; stroke-width:0.25;"/>
<line x1="237.000000" y1="116.000000" x2="237.000000" y2="116.000000"  style="stroke:black; stroke-linecap:round; stroke-width:0.25;"/>
<line x1="237.000000" y1="116.000000" x2="241.000000" y2="116.000000"  style="stroke:black; stroke-linecap:round; stroke-width:0.25;"/>
<line x1="237.000000" y1="124.000000" x2="241.000000" y2="124.000000"  style="stroke:black; stroke-linecap:round; stroke-width:0.25;"/>
<line x1="265.000000" y1="120.000000" x2="269.000000" y2="120.000000"  style="stroke:black; stroke-linecap:round; stroke-width:0.25;"/>
<line x1="269.000000" y1="36.000000" x2="277.000000" y2="36.000000"  style="stroke:black; stroke-linecap:round; stroke-width:0.25;"/>
<line x1="269.000000" y1="108.000000" x2="277.000000" y2="108.000000"  style="stroke:black; stroke-linecap:round; stroke-width:0.25;"/>
<line x1="269.000000" y1="120.000000" x2="269.000000" y2="108.000000"  style="stroke:black; stroke-linecap:round; stroke-width:0.25;"/>
<line x1="269.000000" y1="120.000000" x2="269.000000" y2="120.000000"  style="stroke:black; stroke-linecap:round; stroke-width:0.25;"/>
<line x1="277.000000" y1="36.000000" x2="277.000000" y2="100.000000"  style="stroke:black; stroke-linecap:round; stroke-width:0.25;"/>
<line x1="277.000000" y1="100.000000" x2="277.000000" y2="100.000000"  style="stroke:black; stroke-linecap:round; stroke-width:0.25;"/>
<line x1="277.000000" y1="100.000000" x2="281.000000" y2="100.000000"  style="stroke:black; stroke-linecap:round; stroke-width:0.25;"/>
<line x1="277.000000" y1="108.000000" x2="281.000000" y2="108.000000"  style="stroke:black; stroke-linecap:round; stroke-width:0.25;"/>
<line x1="305.000000" y1="104.000000" x2="309.000000" y2="104.000000"  style="stroke:black; stroke-linecap:round; stroke-width:0.25;"/>
<line x1="309.000000" y1="104.000000" x2="309.000000" y2="104.000000"  style="stroke:black; stroke-linecap:round; stroke-width:0.25;"/>
<line x1="309.000000" y1="104.000000" x2="313.000000" y2="104.000000"  style="stroke:black; stroke-linecap:round; stroke-width:0.25;"/>
<line x1="313.000000" y1="104.000000" x2="317.000000" y2="104.000000"  style="stroke:black; stroke-linecap:round; stroke-width:0.25;"/>
<line x1="317.000000" y1="104.000000" x2="327.000000" y2="104.000000"  style="stroke:black; stroke-linecap:round; stroke-width:0.25;"/>
</svg>
