<?xml version="1.0"?>
<svg xmlns="http://www.w3.org/2000/svg" xmlns:xlink="http://www.w3.org/1999/xlink" viewBox="0 0 336.200000 136.000000" width="168.100000mm" height="68.000000mm" version="1.1">
<a xlink:href="rho-0x7f82d4ad6e10.svg">
<rect x="1.000000" y="1.000000" width="335.200000" height="135.000000" rx="0" ry="0" style="stroke:none;fill:#cccccc;"/>
<rect x="0.000000" y="0.000000" width="335.200000" height="135.000000" rx="0" ry="0" style="stroke:none;fill:#ffffff;"/>
</a>
<text x="10.000000" y="7.000000" font-family="Arial" font-size="7"></text>
<rect x="76.850000" y="25.000000" width="24.000000" height="24.000000" rx="0" ry="0" style="stroke:none;fill:#cccccc;"/>
<rect x="75.850000" y="24.000000" width="24.000000" height="24.000000" rx="0" ry="0" style="stroke:none;fill:#f44800;"/>
<text x="87.850000" y="38.000000" font-family="Arial" font-size="7" text-anchor="middle" fill="#FFFFFF">145</text>
<circle cx="77.850000" cy="26.000000" r="1"/>
<rect x="76.850000" y="57.000000" width="24.000000" height="24.000000" rx="0" ry="0" style="stroke:none;fill:#cccccc;"/>
<rect x="75.850000" y="56.000000" width="24.000000" height="24.000000" rx="0" ry="0" style="stroke:none;fill:#f44800;"/>
<text x="87.850000" y="70.000000" font-family="Arial" font-size="7" text-anchor="middle" fill="#FFFFFF">2</text>
<circle cx="77.850000" cy="58.000000" r="1"/>
<rect x="116.850000" y="41.000000" width="24.000000" height="24.000000" rx="0" ry="0" style="stroke:none;fill:#cccccc;"/>
<rect x="115.850000" y="40.000000" width="24.000000" height="24.000000" rx="0" ry="0" style="stroke:none;fill:#4B71A1;"/>
<text x="127.850000" y="54.000000" font-family="Arial" font-size="7" text-anchor="middle" fill="#FFFFFF">*</text>
<circle cx="117.850000" cy="42.000000" r="1"/>
<line x1="112.850000" y1="47.000000" x2="115.850000" y2="48.000000"  transform="rotate(0.000000,115.850000,48.000000)" style="stroke: black; stroke-width:0.25;"/>
<line x1="112.850000" y1="49.000000" x2="115.850000" y2="48.000000"  transform="rotate(0.000000,115.850000,48.000000)" style="stroke: black; stroke-width:0.25;"/>
<line x1="112.850000" y1="55.000000" x2="115.850000" y2="56.000000"  transform="rotate(0.000000,115.850000,56.000000)" style="stroke: black; stroke-width:0.25;"/>
<line x1="112.850000" y1="57.000000" x2="115.850000" y2="56.000000"  transform="rotate(0.000000,115.850000,56.000000)" style="stroke: black; stroke-width:0.25;"/>
<rect x="25.000000" y="89.000000" width="167.700000" height="24.000000" rx="0" ry="0" style="stroke:none;fill:#cccccc;"/>
<rect x="24.000000" y="88.000000" width="167.700000" height="24.000000" rx="0" ry="0" style="stroke:none;fill:#477881;"/>
<text x="107.850000" y="102.000000" font-family="Arial" font-size="7" text-anchor="middle" fill="#FFFFFF">hslider(Hight, 3.0f, 1.0f, 6.0f, 0.1f)</text>
<circle cx="26.000000" cy="90.000000" r="1"/>
<rect x="208.700000" y="57.000000" width="24.000000" height="24.000000" rx="0" ry="0" style="stroke:none;fill:#cccccc;"/>
<rect x="207.700000" y="56.000000" width="24.000000" height="24.000000" rx="0" ry="0" style="stroke:none;fill:#4B71A1;"/>
<text x="219.700000" y="70.000000" font-family="Arial" font-size="7" text-anchor="middle" fill="#FFFFFF">*</text>
<circle cx="209.700000" cy="58.000000" r="1"/>
<line x1="204.700000" y1="63.000000" x2="207.700000" y2="64.000000"  transform="rotate(0.000000,207.700000,64.000000)" style="stroke: black; stroke-width:0.25;"/>
<line x1="204.700000" y1="65.000000" x2="207.700000" y2="64.000000"  transform="rotate(0.000000,207.700000,64.000000)" style="stroke: black; stroke-width:0.25;"/>
<line x1="204.700000" y1="71.000000" x2="207.700000" y2="72.000000"  transform="rotate(0.000000,207.700000,72.000000)" style="stroke: black; stroke-width:0.25;"/>
<line x1="204.700000" y1="73.000000" x2="207.700000" y2="72.000000"  transform="rotate(0.000000,207.700000,72.000000)" style="stroke: black; stroke-width:0.25;"/>
<a xlink:href="smooth-0x7f82d406ddc0.svg">
<rect x="240.700000" y="57.000000" width="64.500000" height="24.000000" rx="0" ry="0" style="stroke:none;fill:#cccccc;"/>
<rect x="239.700000" y="56.000000" width="64.500000" height="24.000000" rx="0" ry="0" style="stroke:none;fill:#003366;"/>
</a>
<a xlink:href="smooth-0x7f82d406ddc0.svg">
<text x="271.950000" y="70.000000" font-family="Arial" font-size="7" text-anchor="middle" fill="#FFFFFF">smooth(0.999f)</text>
</a>
<circle cx="241.700000" cy="58.000000" r="1"/>
<line x1="236.700000" y1="67.000000" x2="239.700000" y2="68.000000"  transform="rotate(0.000000,239.700000,68.000000)" style="stroke: black; stroke-width:0.25;"/>
<line x1="236.700000" y1="69.000000" x2="239.700000" y2="68.000000"  transform="rotate(0.000000,239.700000,68.000000)" style="stroke: black; stroke-width:0.25;"/>
<line x1="15.000000" y1="15.000000" x2="15.000000" y2="121.000000"  style="stroke: black; stroke-linecap:round; stroke-width:0.25; stroke-dasharray:3,3;"/>
<line x1="15.000000" y1="121.000000" x2="321.200000" y2="121.000000"  style="stroke: black; stroke-linecap:round; stroke-width:0.25; stroke-dasharray:3,3;"/>
<line x1="321.200000" y1="121.000000" x2="321.200000" y2="15.000000"  style="stroke: black; stroke-linecap:round; stroke-width:0.25; stroke-dasharray:3,3;"/>
<line x1="15.000000" y1="15.000000" x2="20.000000" y2="15.000000"  style="stroke: black; stroke-linecap:round; stroke-width:0.25; stroke-dasharray:3,3;"/>
<line x1="55.475000" y1="15.000000" x2="321.200000" y2="15.000000"  style="stroke: black; stroke-linecap:round; stroke-width:0.25; stroke-dasharray:3,3;"/>
<text x="20.000000" y="17.000000" font-family="Arial" font-size="7">octave(7)</text>
<line x1="323.200000" y1="67.000000" x2="326.200000" y2="68.000000"  transform="rotate(0.000000,326.200000,68.000000)" style="stroke: black; stroke-width:0.25;"/>
<line x1="323.200000" y1="69.000000" x2="326.200000" y2="68.000000"  transform="rotate(0.000000,326.200000,68.000000)" style="stroke: black; stroke-width:0.25;"/>
<line x1="99.850000" y1="36.000000" x2="103.850000" y2="36.000000"  style="stroke:black; stroke-linecap:round; stroke-width:0.25;"/>
<line x1="99.850000" y1="68.000000" x2="103.850000" y2="68.000000"  style="stroke:black; stroke-linecap:round; stroke-width:0.25;"/>
<line x1="103.850000" y1="36.000000" x2="111.850000" y2="36.000000"  style="stroke:black; stroke-linecap:round; stroke-width:0.25;"/>
<line x1="103.850000" y1="56.000000" x2="111.850000" y2="56.000000"  style="stroke:black; stroke-linecap:round; stroke-width:0.25;"/>
<line x1="103.850000" y1="68.000000" x2="103.850000" y2="56.000000"  style="stroke:black; stroke-linecap:round; stroke-width:0.25;"/>
<line x1="103.850000" y1="68.000000" x2="103.850000" y2="68.000000"  style="stroke:black; stroke-linecap:round; stroke-width:0.25;"/>
<line x1="111.850000" y1="36.000000" x2="111.850000" y2="48.000000"  style="stroke:black; stroke-linecap:round; stroke-width:0.25;"/>
<line x1="111.850000" y1="48.000000" x2="111.850000" y2="48.000000"  style="stroke:black; stroke-linecap:round; stroke-width:0.25;"/>
<line x1="111.850000" y1="48.000000" x2="115.850000" y2="48.000000"  style="stroke:black; stroke-linecap:round; stroke-width:0.25;"/>
<line x1="111.850000" y1="56.000000" x2="115.850000" y2="56.000000"  style="stroke:black; stroke-linecap:round; stroke-width:0.25;"/>
<line x1="139.850000" y1="52.000000" x2="143.850000" y2="52.000000"  style="stroke:black; stroke-linecap:round; stroke-width:0.25;"/>
<line x1="143.850000" y1="52.000000" x2="195.700000" y2="52.000000"  style="stroke:black; stroke-linecap:round; stroke-width:0.25;"/>
<line x1="191.700000" y1="100.000000" x2="195.700000" y2="100.000000"  style="stroke:black; stroke-linecap:round; stroke-width:0.25;"/>
<line x1="195.700000" y1="52.000000" x2="203.700000" y2="52.000000"  style="stroke:black; stroke-linecap:round; stroke-width:0.25;"/>
<line x1="195.700000" y1="72.000000" x2="203.700000" y2="72.000000"  style="stroke:black; stroke-linecap:round; stroke-width:0.25;"/>
<line x1="195.700000" y1="100.000000" x2="195.700000" y2="72.000000"  style="stroke:black; stroke-linecap:round; stroke-width:0.25;"/>
<line x1="195.700000" y1="100.000000" x2="195.700000" y2="100.000000"  style="stroke:black; stroke-linecap:round; stroke-width:0.25;"/>
<line x1="203.700000" y1="52.000000" x2="203.700000" y2="64.000000"  style="stroke:black; stroke-linecap:round; stroke-width:0.25;"/>
<line x1="203.700000" y1="64.000000" x2="203.700000" y2="64.000000"  style="stroke:black; stroke-linecap:round; stroke-width:0.25;"/>
<line x1="203.700000" y1="64.000000" x2="207.700000" y2="64.000000"  style="stroke:black; stroke-linecap:round; stroke-width:0.25;"/>
<line x1="203.700000" y1="72.000000" x2="207.700000" y2="72.000000"  style="stroke:black; stroke-linecap:round; stroke-width:0.25;"/>
<line x1="231.700000" y1="68.000000" x2="235.700000" y2="68.000000"  style="stroke:black; stroke-linecap:round; stroke-width:0.25;"/>
<line x1="235.700000" y1="68.000000" x2="235.700000" y2="68.000000"  style="stroke:black; stroke-linecap:round; stroke-width:0.25;"/>
<line x1="235.700000" y1="68.000000" x2="239.700000" y2="68.000000"  style="stroke:black; stroke-linecap:round; stroke-width:0.25;"/>
<line x1="304.200000" y1="68.000000" x2="308.200000" y2="68.000000"  style="stroke:black; stroke-linecap:round; stroke-width:0.25;"/>
<line x1="308.200000" y1="68.000000" x2="308.200000" y2="68.000000"  style="stroke:black; stroke-linecap:round; stroke-width:0.25;"/>
<line x1="308.200000" y1="68.000000" x2="312.200000" y2="68.000000"  style="stroke:black; stroke-linecap:round; stroke-width:0.25;"/>
<line x1="312.200000" y1="68.000000" x2="316.200000" y2="68.000000"  style="stroke:black; stroke-linecap:round; stroke-width:0.25;"/>
<line x1="316.200000" y1="68.000000" x2="326.200000" y2="68.000000"  style="stroke:black; stroke-linecap:round; stroke-width:0.25;"/>
</svg>
