<?xml version="1.0"?>
<svg xmlns="http://www.w3.org/2000/svg" xmlns:xlink="http://www.w3.org/1999/xlink" viewBox="0 0 237.600000 520.000000" width="118.800000mm" height="260.000000mm" version="1.1">
<rect x="1.000000" y="1.000000" width="236.600000" height="519.000000" rx="0" ry="0" style="stroke:none;fill:#cccccc;"/>
<rect x="0.000000" y="0.000000" width="236.600000" height="519.000000" rx="0" ry="0" style="stroke:none;fill:#ffffff;"/>
<text x="10.000000" y="7.000000" font-family="Arial" font-size="7"></text>
<a xlink:href="NLFeks-0x7ff633c55a10.svg">
<rect x="31.450000" y="25.000000" width="38.700000" height="24.000000" rx="0" ry="0" style="stroke:none;fill:#cccccc;"/>
<rect x="30.450000" y="24.000000" width="38.700000" height="24.000000" rx="0" ry="0" style="stroke:none;fill:#003366;"/>
</a>
<a xlink:href="NLFeks-0x7ff633c55a10.svg">
<text x="49.800000" y="38.000000" font-family="Arial" font-size="7" text-anchor="middle" fill="#FFFFFF">NLFeks(0)</text>
</a>
<circle cx="32.450000" cy="26.000000" r="1"/>
<a xlink:href="NLFeks-0x7ff63404f8e0.svg">
<rect x="31.450000" y="57.000000" width="38.700000" height="24.000000" rx="0" ry="0" style="stroke:none;fill:#cccccc;"/>
<rect x="30.450000" y="56.000000" width="38.700000" height="24.000000" rx="0" ry="0" style="stroke:none;fill:#003366;"/>
</a>
<a xlink:href="NLFeks-0x7ff63404f8e0.svg">
<text x="49.800000" y="70.000000" font-family="Arial" font-size="7" text-anchor="middle" fill="#FFFFFF">NLFeks(1)</text>
</a>
<circle cx="32.450000" cy="58.000000" r="1"/>
<a xlink:href="NLFeks-0x7ff634114fb0.svg">
<rect x="31.450000" y="89.000000" width="38.700000" height="24.000000" rx="0" ry="0" style="stroke:none;fill:#cccccc;"/>
<rect x="30.450000" y="88.000000" width="38.700000" height="24.000000" rx="0" ry="0" style="stroke:none;fill:#003366;"/>
</a>
<a xlink:href="NLFeks-0x7ff634114fb0.svg">
<text x="49.800000" y="102.000000" font-family="Arial" font-size="7" text-anchor="middle" fill="#FFFFFF">NLFeks(2)</text>
</a>
<circle cx="32.450000" cy="90.000000" r="1"/>
<a xlink:href="NLFeks-0x7ff63420b9a0.svg">
<rect x="31.450000" y="121.000000" width="38.700000" height="24.000000" rx="0" ry="0" style="stroke:none;fill:#cccccc;"/>
<rect x="30.450000" y="120.000000" width="38.700000" height="24.000000" rx="0" ry="0" style="stroke:none;fill:#003366;"/>
</a>
<a xlink:href="NLFeks-0x7ff63420b9a0.svg">
<text x="49.800000" y="134.000000" font-family="Arial" font-size="7" text-anchor="middle" fill="#FFFFFF">NLFeks(3)</text>
</a>
<circle cx="32.450000" cy="122.000000" r="1"/>
<a xlink:href="NLFeks-0x7ff6343052f0.svg">
<rect x="31.450000" y="153.000000" width="38.700000" height="24.000000" rx="0" ry="0" style="stroke:none;fill:#cccccc;"/>
<rect x="30.450000" y="152.000000" width="38.700000" height="24.000000" rx="0" ry="0" style="stroke:none;fill:#003366;"/>
</a>
<a xlink:href="NLFeks-0x7ff6343052f0.svg">
<text x="49.800000" y="166.000000" font-family="Arial" font-size="7" text-anchor="middle" fill="#FFFFFF">NLFeks(4)</text>
</a>
<circle cx="32.450000" cy="154.000000" r="1"/>
<a xlink:href="NLFeks-0x7ff63438f4d0.svg">
<rect x="31.450000" y="185.000000" width="38.700000" height="24.000000" rx="0" ry="0" style="stroke:none;fill:#cccccc;"/>
<rect x="30.450000" y="184.000000" width="38.700000" height="24.000000" rx="0" ry="0" style="stroke:none;fill:#003366;"/>
</a>
<a xlink:href="NLFeks-0x7ff63438f4d0.svg">
<text x="49.800000" y="198.000000" font-family="Arial" font-size="7" text-anchor="middle" fill="#FFFFFF">NLFeks(5)</text>
</a>
<circle cx="32.450000" cy="186.000000" r="1"/>
<a xlink:href="NLFeks-0x7ff633f3f3c0.svg">
<rect x="31.450000" y="217.000000" width="38.700000" height="24.000000" rx="0" ry="0" style="stroke:none;fill:#cccccc;"/>
<rect x="30.450000" y="216.000000" width="38.700000" height="24.000000" rx="0" ry="0" style="stroke:none;fill:#003366;"/>
</a>
<a xlink:href="NLFeks-0x7ff633f3f3c0.svg">
<text x="49.800000" y="230.000000" font-family="Arial" font-size="7" text-anchor="middle" fill="#FFFFFF">NLFeks(6)</text>
</a>
<circle cx="32.450000" cy="218.000000" r="1"/>
<a xlink:href="NLFeks-0x7ff6346687b0.svg">
<rect x="31.450000" y="249.000000" width="38.700000" height="24.000000" rx="0" ry="0" style="stroke:none;fill:#cccccc;"/>
<rect x="30.450000" y="248.000000" width="38.700000" height="24.000000" rx="0" ry="0" style="stroke:none;fill:#003366;"/>
</a>
<a xlink:href="NLFeks-0x7ff6346687b0.svg">
<text x="49.800000" y="262.000000" font-family="Arial" font-size="7" text-anchor="middle" fill="#FFFFFF">NLFeks(7)</text>
</a>
<circle cx="32.450000" cy="250.000000" r="1"/>
<a xlink:href="NLFeks-0x7ff63443c770.svg">
<rect x="31.450000" y="281.000000" width="38.700000" height="24.000000" rx="0" ry="0" style="stroke:none;fill:#cccccc;"/>
<rect x="30.450000" y="280.000000" width="38.700000" height="24.000000" rx="0" ry="0" style="stroke:none;fill:#003366;"/>
</a>
<a xlink:href="NLFeks-0x7ff63443c770.svg">
<text x="49.800000" y="294.000000" font-family="Arial" font-size="7" text-anchor="middle" fill="#FFFFFF">NLFeks(8)</text>
</a>
<circle cx="32.450000" cy="282.000000" r="1"/>
<a xlink:href="NLFeks-0x7ff6344f27b0.svg">
<rect x="31.450000" y="313.000000" width="38.700000" height="24.000000" rx="0" ry="0" style="stroke:none;fill:#cccccc;"/>
<rect x="30.450000" y="312.000000" width="38.700000" height="24.000000" rx="0" ry="0" style="stroke:none;fill:#003366;"/>
</a>
<a xlink:href="NLFeks-0x7ff6344f27b0.svg">
<text x="49.800000" y="326.000000" font-family="Arial" font-size="7" text-anchor="middle" fill="#FFFFFF">NLFeks(9)</text>
</a>
<circle cx="32.450000" cy="314.000000" r="1"/>
<a xlink:href="NLFeks-0x7ff6349f22e0.svg">
<rect x="25.000000" y="345.000000" width="51.600000" height="24.000000" rx="0" ry="0" style="stroke:none;fill:#cccccc;"/>
<rect x="24.000000" y="344.000000" width="51.600000" height="24.000000" rx="0" ry="0" style="stroke:none;fill:#003366;"/>
</a>
<a xlink:href="NLFeks-0x7ff6349f22e0.svg">
<text x="49.800000" y="358.000000" font-family="Arial" font-size="7" text-anchor="middle" fill="#FFFFFF">NLFeks(10)</text>
</a>
<circle cx="26.000000" cy="346.000000" r="1"/>
<a xlink:href="NLFeks-0x7ff6347dbd80.svg">
<rect x="25.000000" y="377.000000" width="51.600000" height="24.000000" rx="0" ry="0" style="stroke:none;fill:#cccccc;"/>
<rect x="24.000000" y="376.000000" width="51.600000" height="24.000000" rx="0" ry="0" style="stroke:none;fill:#003366;"/>
</a>
<a xlink:href="NLFeks-0x7ff6347dbd80.svg">
<text x="49.800000" y="390.000000" font-family="Arial" font-size="7" text-anchor="middle" fill="#FFFFFF">NLFeks(11)</text>
</a>
<circle cx="26.000000" cy="378.000000" r="1"/>
<a xlink:href="NLFeks-0x7ff634a90c30.svg">
<rect x="25.000000" y="409.000000" width="51.600000" height="24.000000" rx="0" ry="0" style="stroke:none;fill:#cccccc;"/>
<rect x="24.000000" y="408.000000" width="51.600000" height="24.000000" rx="0" ry="0" style="stroke:none;fill:#003366;"/>
</a>
<a xlink:href="NLFeks-0x7ff634a90c30.svg">
<text x="49.800000" y="422.000000" font-family="Arial" font-size="7" text-anchor="middle" fill="#FFFFFF">NLFeks(12)</text>
</a>
<circle cx="26.000000" cy="410.000000" r="1"/>
<a xlink:href="NLFeks-0x7ff634c5f2e0.svg">
<rect x="25.000000" y="441.000000" width="51.600000" height="24.000000" rx="0" ry="0" style="stroke:none;fill:#cccccc;"/>
<rect x="24.000000" y="440.000000" width="51.600000" height="24.000000" rx="0" ry="0" style="stroke:none;fill:#003366;"/>
</a>
<a xlink:href="NLFeks-0x7ff634c5f2e0.svg">
<text x="49.800000" y="454.000000" font-family="Arial" font-size="7" text-anchor="middle" fill="#FFFFFF">NLFeks(13)</text>
</a>
<circle cx="26.000000" cy="442.000000" r="1"/>
<a xlink:href="NLFeks-0x7ff6345e21b0.svg">
<rect x="25.000000" y="473.000000" width="51.600000" height="24.000000" rx="0" ry="0" style="stroke:none;fill:#cccccc;"/>
<rect x="24.000000" y="472.000000" width="51.600000" height="24.000000" rx="0" ry="0" style="stroke:none;fill:#003366;"/>
</a>
<a xlink:href="NLFeks-0x7ff6345e21b0.svg">
<text x="49.800000" y="486.000000" font-family="Arial" font-size="7" text-anchor="middle" fill="#FFFFFF">NLFeks(14)</text>
</a>
<circle cx="26.000000" cy="474.000000" r="1"/>
<line x1="15.000000" y1="15.000000" x2="15.000000" y2="505.000000"  style="stroke: black; stroke-linecap:round; stroke-width:0.25; stroke-dasharray:3,3;"/>
<line x1="15.000000" y1="505.000000" x2="222.600000" y2="505.000000"  style="stroke: black; stroke-linecap:round; stroke-width:0.25; stroke-dasharray:3,3;"/>
<line x1="222.600000" y1="505.000000" x2="222.600000" y2="15.000000"  style="stroke: black; stroke-linecap:round; stroke-width:0.25; stroke-dasharray:3,3;"/>
<line x1="15.000000" y1="15.000000" x2="20.000000" y2="15.000000"  style="stroke: black; stroke-linecap:round; stroke-width:0.25; stroke-dasharray:3,3;"/>
<line x1="49.025000" y1="15.000000" x2="222.600000" y2="15.000000"  style="stroke: black; stroke-linecap:round; stroke-width:0.25; stroke-dasharray:3,3;"/>
<text x="20.000000" y="17.000000" font-family="Arial" font-size="7">process</text>
<line x1="224.600000" y1="259.000000" x2="227.600000" y2="260.000000"  transform="rotate(0.000000,227.600000,260.000000)" style="stroke: black; stroke-width:0.25;"/>
<line x1="224.600000" y1="261.000000" x2="227.600000" y2="260.000000"  transform="rotate(0.000000,227.600000,260.000000)" style="stroke: black; stroke-width:0.25;"/>
<line x1="69.150000" y1="36.000000" x2="73.150000" y2="36.000000"  style="stroke:black; stroke-linecap:round; stroke-width:0.25;"/>
<line x1="69.150000" y1="68.000000" x2="73.150000" y2="68.000000"  style="stroke:black; stroke-linecap:round; stroke-width:0.25;"/>
<line x1="69.150000" y1="100.000000" x2="73.150000" y2="100.000000"  style="stroke:black; stroke-linecap:round; stroke-width:0.25;"/>
<line x1="69.150000" y1="132.000000" x2="73.150000" y2="132.000000"  style="stroke:black; stroke-linecap:round; stroke-width:0.25;"/>
<line x1="69.150000" y1="164.000000" x2="73.150000" y2="164.000000"  style="stroke:black; stroke-linecap:round; stroke-width:0.25;"/>
<line x1="69.150000" y1="196.000000" x2="73.150000" y2="196.000000"  style="stroke:black; stroke-linecap:round; stroke-width:0.25;"/>
<line x1="69.150000" y1="228.000000" x2="73.150000" y2="228.000000"  style="stroke:black; stroke-linecap:round; stroke-width:0.25;"/>
<line x1="69.150000" y1="260.000000" x2="73.150000" y2="260.000000"  style="stroke:black; stroke-linecap:round; stroke-width:0.25;"/>
<line x1="69.150000" y1="292.000000" x2="73.150000" y2="292.000000"  style="stroke:black; stroke-linecap:round; stroke-width:0.25;"/>
<line x1="69.150000" y1="324.000000" x2="73.150000" y2="324.000000"  style="stroke:black; stroke-linecap:round; stroke-width:0.25;"/>
<line x1="73.150000" y1="36.000000" x2="79.600000" y2="36.000000"  style="stroke:black; stroke-linecap:round; stroke-width:0.25;"/>
<line x1="73.150000" y1="68.000000" x2="79.600000" y2="68.000000"  style="stroke:black; stroke-linecap:round; stroke-width:0.25;"/>
<line x1="73.150000" y1="100.000000" x2="79.600000" y2="100.000000"  style="stroke:black; stroke-linecap:round; stroke-width:0.25;"/>
<line x1="73.150000" y1="132.000000" x2="79.600000" y2="132.000000"  style="stroke:black; stroke-linecap:round; stroke-width:0.25;"/>
<line x1="73.150000" y1="164.000000" x2="79.600000" y2="164.000000"  style="stroke:black; stroke-linecap:round; stroke-width:0.25;"/>
<line x1="73.150000" y1="196.000000" x2="79.600000" y2="196.000000"  style="stroke:black; stroke-linecap:round; stroke-width:0.25;"/>
<line x1="73.150000" y1="228.000000" x2="79.600000" y2="228.000000"  style="stroke:black; stroke-linecap:round; stroke-width:0.25;"/>
<line x1="73.150000" y1="260.000000" x2="79.600000" y2="260.000000"  style="stroke:black; stroke-linecap:round; stroke-width:0.25;"/>
<line x1="73.150000" y1="292.000000" x2="79.600000" y2="292.000000"  style="stroke:black; stroke-linecap:round; stroke-width:0.25;"/>
<line x1="73.150000" y1="324.000000" x2="79.600000" y2="324.000000"  style="stroke:black; stroke-linecap:round; stroke-width:0.25;"/>
<line x1="75.600000" y1="356.000000" x2="79.600000" y2="356.000000"  style="stroke:black; stroke-linecap:round; stroke-width:0.25;"/>
<line x1="75.600000" y1="388.000000" x2="79.600000" y2="388.000000"  style="stroke:black; stroke-linecap:round; stroke-width:0.25;"/>
<line x1="75.600000" y1="420.000000" x2="79.600000" y2="420.000000"  style="stroke:black; stroke-linecap:round; stroke-width:0.25;"/>
<line x1="75.600000" y1="452.000000" x2="79.600000" y2="452.000000"  style="stroke:black; stroke-linecap:round; stroke-width:0.25;"/>
<line x1="75.600000" y1="484.000000" x2="79.600000" y2="484.000000"  style="stroke:black; stroke-linecap:round; stroke-width:0.25;"/>
<line x1="79.600000" y1="36.000000" x2="201.600000" y2="260.000000"  style="stroke:black; stroke-linecap:round; stroke-width:0.25;"/>
<line x1="79.600000" y1="68.000000" x2="201.600000" y2="260.000000"  style="stroke:black; stroke-linecap:round; stroke-width:0.25;"/>
<line x1="79.600000" y1="100.000000" x2="201.600000" y2="260.000000"  style="stroke:black; stroke-linecap:round; stroke-width:0.25;"/>
<line x1="79.600000" y1="132.000000" x2="201.600000" y2="260.000000"  style="stroke:black; stroke-linecap:round; stroke-width:0.25;"/>
<line x1="79.600000" y1="164.000000" x2="201.600000" y2="260.000000"  style="stroke:black; stroke-linecap:round; stroke-width:0.25;"/>
<line x1="79.600000" y1="196.000000" x2="201.600000" y2="260.000000"  style="stroke:black; stroke-linecap:round; stroke-width:0.25;"/>
<line x1="79.600000" y1="228.000000" x2="201.600000" y2="260.000000"  style="stroke:black; stroke-linecap:round; stroke-width:0.25;"/>
<line x1="79.600000" y1="260.000000" x2="201.600000" y2="260.000000"  style="stroke:black; stroke-linecap:round; stroke-width:0.25;"/>
<line x1="79.600000" y1="292.000000" x2="201.600000" y2="260.000000"  style="stroke:black; stroke-linecap:round; stroke-width:0.25;"/>
<line x1="79.600000" y1="324.000000" x2="201.600000" y2="260.000000"  style="stroke:black; stroke-linecap:round; stroke-width:0.25;"/>
<line x1="79.600000" y1="356.000000" x2="201.600000" y2="260.000000"  style="stroke:black; stroke-linecap:round; stroke-width:0.25;"/>
<line x1="79.600000" y1="388.000000" x2="201.600000" y2="260.000000"  style="stroke:black; stroke-linecap:round; stroke-width:0.25;"/>
<line x1="79.600000" y1="420.000000" x2="201.600000" y2="260.000000"  style="stroke:black; stroke-linecap:round; stroke-width:0.25;"/>
<line x1="79.600000" y1="452.000000" x2="201.600000" y2="260.000000"  style="stroke:black; stroke-linecap:round; stroke-width:0.25;"/>
<line x1="79.600000" y1="484.000000" x2="201.600000" y2="260.000000"  style="stroke:black; stroke-linecap:round; stroke-width:0.25;"/>
<line x1="201.600000" y1="260.000000" x2="205.600000" y2="260.000000"  style="stroke:black; stroke-linecap:round; stroke-width:0.25;"/>
<line x1="205.600000" y1="260.000000" x2="209.600000" y2="260.000000"  style="stroke:black; stroke-linecap:round; stroke-width:0.25;"/>
<line x1="209.600000" y1="260.000000" x2="209.600000" y2="260.000000"  style="stroke:black; stroke-linecap:round; stroke-width:0.25;"/>
<line x1="209.600000" y1="260.000000" x2="213.600000" y2="260.000000"  style="stroke:black; stroke-linecap:round; stroke-width:0.25;"/>
<line x1="213.600000" y1="260.000000" x2="217.600000" y2="260.000000"  style="stroke:black; stroke-linecap:round; stroke-width:0.25;"/>
<line x1="217.600000" y1="260.000000" x2="227.600000" y2="260.000000"  style="stroke:black; stroke-linecap:round; stroke-width:0.25;"/>
</svg>
