<?xml version="1.0"?>
<svg xmlns="http://www.w3.org/2000/svg" xmlns:xlink="http://www.w3.org/1999/xlink" viewBox="0 0 572.600000 164.000000" width="286.300000mm" height="82.000000mm" version="1.1">
<a xlink:href="process.svg">
<rect x="1.000000" y="1.000000" width="571.600000" height="163.000000" rx="0" ry="0" style="stroke:none;fill:#cccccc;"/>
<rect x="0.000000" y="0.000000" width="571.600000" height="163.000000" rx="0" ry="0" style="stroke:none;fill:#ffffff;"/>
</a>
<text x="10.000000" y="7.000000" font-family="Arial" font-size="7"></text>
<a xlink:href="BP-0x7fa8fce16ea0.svg">
<rect x="33.000000" y="71.000000" width="25.800000" height="24.000000" rx="0" ry="0" style="stroke:none;fill:#cccccc;"/>
<rect x="32.000000" y="70.000000" width="25.800000" height="24.000000" rx="0" ry="0" style="stroke:none;fill:#003366;"/>
</a>
<a xlink:href="BP-0x7fa8fce16ea0.svg">
<text x="44.900000" y="84.000000" font-family="Arial" font-size="7" text-anchor="middle" fill="#FFFFFF">BP(1)</text>
</a>
<circle cx="34.000000" cy="72.000000" r="1"/>
<line x1="29.000000" y1="81.000000" x2="32.000000" y2="82.000000"  transform="rotate(0.000000,32.000000,82.000000)" style="stroke: black; stroke-width:0.25;"/>
<line x1="29.000000" y1="83.000000" x2="32.000000" y2="82.000000"  transform="rotate(0.000000,32.000000,82.000000)" style="stroke: black; stroke-width:0.25;"/>
<a xlink:href="EQ-0x7fa8fce17550.svg">
<rect x="66.800000" y="71.000000" width="25.800000" height="24.000000" rx="0" ry="0" style="stroke:none;fill:#cccccc;"/>
<rect x="65.800000" y="70.000000" width="25.800000" height="24.000000" rx="0" ry="0" style="stroke:none;fill:#003366;"/>
</a>
<a xlink:href="EQ-0x7fa8fce17550.svg">
<text x="78.700000" y="84.000000" font-family="Arial" font-size="7" text-anchor="middle" fill="#FFFFFF">EQ(1)</text>
</a>
<circle cx="67.800000" cy="72.000000" r="1"/>
<line x1="62.800000" y1="81.000000" x2="65.800000" y2="82.000000"  transform="rotate(0.000000,65.800000,82.000000)" style="stroke: black; stroke-width:0.25;"/>
<line x1="62.800000" y1="83.000000" x2="65.800000" y2="82.000000"  transform="rotate(0.000000,65.800000,82.000000)" style="stroke: black; stroke-width:0.25;"/>
<rect x="138.600000" y="33.000000" width="24.000000" height="24.000000" rx="0" ry="0" style="stroke:none;fill:#cccccc;"/>
<rect x="137.600000" y="32.000000" width="24.000000" height="24.000000" rx="0" ry="0" style="stroke:none;fill:#f44800;"/>
<text x="149.600000" y="46.000000" font-family="Arial" font-size="7" text-anchor="middle" fill="#FFFFFF">10</text>
<circle cx="139.600000" cy="34.000000" r="1"/>
<rect x="117.700000" y="65.000000" width="25.800000" height="24.000000" rx="0" ry="0" style="stroke:none;fill:#cccccc;"/>
<rect x="116.700000" y="64.000000" width="25.800000" height="24.000000" rx="0" ry="0" style="stroke:none;fill:#f44800;"/>
<text x="129.600000" y="78.000000" font-family="Arial" font-size="7" text-anchor="middle" fill="#FFFFFF">12000</text>
<circle cx="118.700000" cy="66.000000" r="1"/>
<rect x="118.600000" y="107.000000" width="24.000000" height="24.000000" rx="0" ry="0" style="stroke:none;fill:#cccccc;"/>
<rect x="117.600000" y="106.000000" width="24.000000" height="24.000000" rx="0" ry="0" style="stroke:none;fill:#f44800;"/>
<text x="129.600000" y="120.000000" font-family="Arial" font-size="7" text-anchor="middle" fill="#FFFFFF">1</text>
<circle cx="119.600000" cy="108.000000" r="1"/>
<line x1="108.600000" y1="97.000000" x2="108.600000" y2="139.000000"  style="stroke: black; stroke-linecap:round; stroke-width:0.25; stroke-dasharray:3,3;"/>
<line x1="108.600000" y1="139.000000" x2="150.600000" y2="139.000000"  style="stroke: black; stroke-linecap:round; stroke-width:0.25; stroke-dasharray:3,3;"/>
<line x1="150.600000" y1="139.000000" x2="150.600000" y2="97.000000"  style="stroke: black; stroke-linecap:round; stroke-width:0.25; stroke-dasharray:3,3;"/>
<line x1="108.600000" y1="97.000000" x2="113.600000" y2="97.000000"  style="stroke: black; stroke-linecap:round; stroke-width:0.25; stroke-dasharray:3,3;"/>
<line x1="126.500000" y1="97.000000" x2="150.600000" y2="97.000000"  style="stroke: black; stroke-linecap:round; stroke-width:0.25; stroke-dasharray:3,3;"/>
<text x="113.600000" y="99.000000" font-family="Arial" font-size="7">b1</text>
<rect x="168.600000" y="91.000000" width="24.000000" height="24.000000" rx="0" ry="0" style="stroke:none;fill:#cccccc;"/>
<rect x="167.600000" y="90.000000" width="24.000000" height="24.000000" rx="0" ry="0" style="stroke:none;fill:#4B71A1;"/>
<text x="179.600000" y="104.000000" font-family="Arial" font-size="7" text-anchor="middle" fill="#FFFFFF">*</text>
<circle cx="169.600000" cy="92.000000" r="1"/>
<line x1="164.600000" y1="97.000000" x2="167.600000" y2="98.000000"  transform="rotate(0.000000,167.600000,98.000000)" style="stroke: black; stroke-width:0.25;"/>
<line x1="164.600000" y1="99.000000" x2="167.600000" y2="98.000000"  transform="rotate(0.000000,167.600000,98.000000)" style="stroke: black; stroke-width:0.25;"/>
<line x1="164.600000" y1="105.000000" x2="167.600000" y2="106.000000"  transform="rotate(0.000000,167.600000,106.000000)" style="stroke: black; stroke-width:0.25;"/>
<line x1="164.600000" y1="107.000000" x2="167.600000" y2="106.000000"  transform="rotate(0.000000,167.600000,106.000000)" style="stroke: black; stroke-width:0.25;"/>
<rect x="208.600000" y="75.000000" width="24.000000" height="24.000000" rx="0" ry="0" style="stroke:none;fill:#cccccc;"/>
<rect x="207.600000" y="74.000000" width="24.000000" height="24.000000" rx="0" ry="0" style="stroke:none;fill:#4B71A1;"/>
<text x="219.600000" y="88.000000" font-family="Arial" font-size="7" text-anchor="middle" fill="#FFFFFF">+</text>
<circle cx="209.600000" cy="76.000000" r="1"/>
<line x1="204.600000" y1="81.000000" x2="207.600000" y2="82.000000"  transform="rotate(0.000000,207.600000,82.000000)" style="stroke: black; stroke-width:0.25;"/>
<line x1="204.600000" y1="83.000000" x2="207.600000" y2="82.000000"  transform="rotate(0.000000,207.600000,82.000000)" style="stroke: black; stroke-width:0.25;"/>
<line x1="204.600000" y1="89.000000" x2="207.600000" y2="90.000000"  transform="rotate(0.000000,207.600000,90.000000)" style="stroke: black; stroke-width:0.25;"/>
<line x1="204.600000" y1="91.000000" x2="207.600000" y2="90.000000"  transform="rotate(0.000000,207.600000,90.000000)" style="stroke: black; stroke-width:0.25;"/>
<rect x="248.600000" y="71.000000" width="24.000000" height="24.000000" rx="0" ry="0" style="stroke:none;fill:#cccccc;"/>
<rect x="247.600000" y="70.000000" width="24.000000" height="24.000000" rx="0" ry="0" style="stroke:none;fill:#4B71A1;"/>
<text x="259.600000" y="84.000000" font-family="Arial" font-size="7" text-anchor="middle" fill="#FFFFFF">@</text>
<circle cx="249.600000" cy="72.000000" r="1"/>
<line x1="244.600000" y1="77.000000" x2="247.600000" y2="78.000000"  transform="rotate(0.000000,247.600000,78.000000)" style="stroke: black; stroke-width:0.25;"/>
<line x1="244.600000" y1="79.000000" x2="247.600000" y2="78.000000"  transform="rotate(0.000000,247.600000,78.000000)" style="stroke: black; stroke-width:0.25;"/>
<line x1="244.600000" y1="85.000000" x2="247.600000" y2="86.000000"  transform="rotate(0.000000,247.600000,86.000000)" style="stroke: black; stroke-width:0.25;"/>
<line x1="244.600000" y1="87.000000" x2="247.600000" y2="86.000000"  transform="rotate(0.000000,247.600000,86.000000)" style="stroke: black; stroke-width:0.25;"/>
<a xlink:href="Reson-0x7fa8fce16170.svg">
<rect x="342.250000" y="51.000000" width="38.700000" height="24.000000" rx="0" ry="0" style="stroke:none;fill:#cccccc;"/>
<rect x="341.250000" y="50.000000" width="38.700000" height="24.000000" rx="0" ry="0" style="stroke:none;fill:#003366;"/>
</a>
<a xlink:href="Reson-0x7fa8fce16170.svg">
<text x="360.600000" y="64.000000" font-family="Arial" font-size="7" text-anchor="middle" fill="#FFFFFF">Reson(0)</text>
</a>
<circle cx="343.250000" cy="52.000000" r="1"/>
<line x1="338.250000" y1="61.000000" x2="341.250000" y2="62.000000"  transform="rotate(0.000000,341.250000,62.000000)" style="stroke: black; stroke-width:0.25;"/>
<line x1="338.250000" y1="63.000000" x2="341.250000" y2="62.000000"  transform="rotate(0.000000,341.250000,62.000000)" style="stroke: black; stroke-width:0.25;"/>
<rect x="329.600000" y="91.000000" width="24.000000" height="24.000000" rx="0" ry="0" style="stroke:none;fill:#cccccc;"/>
<rect x="328.600000" y="90.000000" width="24.000000" height="24.000000" rx="0" ry="0" style="stroke:none;fill:#f44800;"/>
<text x="340.600000" y="104.000000" font-family="Arial" font-size="7" text-anchor="middle" fill="#FFFFFF">1.5</text>
<circle cx="330.600000" cy="92.000000" r="1"/>
<rect x="369.600000" y="87.000000" width="24.000000" height="24.000000" rx="0" ry="0" style="stroke:none;fill:#cccccc;"/>
<rect x="368.600000" y="86.000000" width="24.000000" height="24.000000" rx="0" ry="0" style="stroke:none;fill:#4B71A1;"/>
<text x="380.600000" y="100.000000" font-family="Arial" font-size="7" text-anchor="middle" fill="#FFFFFF">*</text>
<circle cx="370.600000" cy="88.000000" r="1"/>
<line x1="365.600000" y1="93.000000" x2="368.600000" y2="94.000000"  transform="rotate(0.000000,368.600000,94.000000)" style="stroke: black; stroke-width:0.25;"/>
<line x1="365.600000" y1="95.000000" x2="368.600000" y2="94.000000"  transform="rotate(0.000000,368.600000,94.000000)" style="stroke: black; stroke-width:0.25;"/>
<line x1="365.600000" y1="101.000000" x2="368.600000" y2="102.000000"  transform="rotate(0.000000,368.600000,102.000000)" style="stroke: black; stroke-width:0.25;"/>
<line x1="365.600000" y1="103.000000" x2="368.600000" y2="102.000000"  transform="rotate(0.000000,368.600000,102.000000)" style="stroke: black; stroke-width:0.25;"/>
<a xlink:href="Env-0x7fa8fca8d190.svg">
<rect x="437.600000" y="59.000000" width="24.000000" height="24.000000" rx="0" ry="0" style="stroke:none;fill:#cccccc;"/>
<rect x="436.600000" y="58.000000" width="24.000000" height="24.000000" rx="0" ry="0" style="stroke:none;fill:#003366;"/>
</a>
<a xlink:href="Env-0x7fa8fca8d190.svg">
<text x="448.600000" y="72.000000" font-family="Arial" font-size="7" text-anchor="middle" fill="#FFFFFF">Env</text>
</a>
<circle cx="438.600000" cy="60.000000" r="1"/>
<rect x="477.600000" y="55.000000" width="24.000000" height="24.000000" rx="0" ry="0" style="stroke:none;fill:#cccccc;"/>
<rect x="476.600000" y="54.000000" width="24.000000" height="24.000000" rx="0" ry="0" style="stroke:none;fill:#4B71A1;"/>
<text x="488.600000" y="68.000000" font-family="Arial" font-size="7" text-anchor="middle" fill="#FFFFFF">*</text>
<circle cx="478.600000" cy="56.000000" r="1"/>
<line x1="473.600000" y1="61.000000" x2="476.600000" y2="62.000000"  transform="rotate(0.000000,476.600000,62.000000)" style="stroke: black; stroke-width:0.25;"/>
<line x1="473.600000" y1="63.000000" x2="476.600000" y2="62.000000"  transform="rotate(0.000000,476.600000,62.000000)" style="stroke: black; stroke-width:0.25;"/>
<line x1="473.600000" y1="69.000000" x2="476.600000" y2="70.000000"  transform="rotate(0.000000,476.600000,70.000000)" style="stroke: black; stroke-width:0.25;"/>
<line x1="473.600000" y1="71.000000" x2="476.600000" y2="70.000000"  transform="rotate(0.000000,476.600000,70.000000)" style="stroke: black; stroke-width:0.25;"/>
<a xlink:href="gain-0x7fa8fcb19950.svg">
<rect x="450.250000" y="91.000000" width="38.700000" height="24.000000" rx="0" ry="0" style="stroke:none;fill:#cccccc;"/>
<rect x="449.250000" y="90.000000" width="38.700000" height="24.000000" rx="0" ry="0" style="stroke:none;fill:#003366;"/>
</a>
<a xlink:href="gain-0x7fa8fcb19950.svg">
<text x="468.600000" y="104.000000" font-family="Arial" font-size="7" text-anchor="middle" fill="#FFFFFF">gain(1)</text>
</a>
<circle cx="451.250000" cy="92.000000" r="1"/>
<rect x="517.600000" y="71.000000" width="24.000000" height="24.000000" rx="0" ry="0" style="stroke:none;fill:#cccccc;"/>
<rect x="516.600000" y="70.000000" width="24.000000" height="24.000000" rx="0" ry="0" style="stroke:none;fill:#4B71A1;"/>
<text x="528.600000" y="84.000000" font-family="Arial" font-size="7" text-anchor="middle" fill="#FFFFFF">*</text>
<circle cx="518.600000" cy="72.000000" r="1"/>
<line x1="513.600000" y1="77.000000" x2="516.600000" y2="78.000000"  transform="rotate(0.000000,516.600000,78.000000)" style="stroke: black; stroke-width:0.25;"/>
<line x1="513.600000" y1="79.000000" x2="516.600000" y2="78.000000"  transform="rotate(0.000000,516.600000,78.000000)" style="stroke: black; stroke-width:0.25;"/>
<line x1="513.600000" y1="85.000000" x2="516.600000" y2="86.000000"  transform="rotate(0.000000,516.600000,86.000000)" style="stroke: black; stroke-width:0.25;"/>
<line x1="513.600000" y1="87.000000" x2="516.600000" y2="86.000000"  transform="rotate(0.000000,516.600000,86.000000)" style="stroke: black; stroke-width:0.25;"/>
<line x1="15.000000" y1="15.000000" x2="15.000000" y2="149.000000"  style="stroke: black; stroke-linecap:round; stroke-width:0.25; stroke-dasharray:3,3;"/>
<line x1="15.000000" y1="149.000000" x2="557.600000" y2="149.000000"  style="stroke: black; stroke-linecap:round; stroke-width:0.25; stroke-dasharray:3,3;"/>
<line x1="557.600000" y1="149.000000" x2="557.600000" y2="15.000000"  style="stroke: black; stroke-linecap:round; stroke-width:0.25; stroke-dasharray:3,3;"/>
<line x1="15.000000" y1="15.000000" x2="20.000000" y2="15.000000"  style="stroke: black; stroke-linecap:round; stroke-width:0.25; stroke-dasharray:3,3;"/>
<line x1="58.700000" y1="15.000000" x2="557.600000" y2="15.000000"  style="stroke: black; stroke-linecap:round; stroke-width:0.25; stroke-dasharray:3,3;"/>
<text x="20.000000" y="17.000000" font-family="Arial" font-size="7">whistle(1)</text>
<line x1="559.600000" y1="81.000000" x2="562.600000" y2="82.000000"  transform="rotate(0.000000,562.600000,82.000000)" style="stroke: black; stroke-width:0.25;"/>
<line x1="559.600000" y1="83.000000" x2="562.600000" y2="82.000000"  transform="rotate(0.000000,562.600000,82.000000)" style="stroke: black; stroke-width:0.25;"/>
<line x1="10.000000" y1="82.000000" x2="20.000000" y2="82.000000"  style="stroke:black; stroke-linecap:round; stroke-width:0.25;"/>
<line x1="20.000000" y1="82.000000" x2="24.000000" y2="82.000000"  style="stroke:black; stroke-linecap:round; stroke-width:0.25;"/>
<line x1="24.000000" y1="82.000000" x2="28.000000" y2="82.000000"  style="stroke:black; stroke-linecap:round; stroke-width:0.25;"/>
<line x1="28.000000" y1="82.000000" x2="28.000000" y2="82.000000"  style="stroke:black; stroke-linecap:round; stroke-width:0.25;"/>
<line x1="28.000000" y1="82.000000" x2="32.000000" y2="82.000000"  style="stroke:black; stroke-linecap:round; stroke-width:0.25;"/>
<line x1="57.800000" y1="82.000000" x2="61.800000" y2="82.000000"  style="stroke:black; stroke-linecap:round; stroke-width:0.25;"/>
<line x1="61.800000" y1="82.000000" x2="61.800000" y2="82.000000"  style="stroke:black; stroke-linecap:round; stroke-width:0.25;"/>
<line x1="61.800000" y1="82.000000" x2="65.800000" y2="82.000000"  style="stroke:black; stroke-linecap:round; stroke-width:0.25;"/>
<line x1="91.600000" y1="82.000000" x2="95.600000" y2="82.000000"  style="stroke:black; stroke-linecap:round; stroke-width:0.25;"/>
<line x1="95.600000" y1="24.000000" x2="103.600000" y2="24.000000"  style="stroke:black; stroke-linecap:round; stroke-width:0.25;"/>
<line x1="95.600000" y1="82.000000" x2="95.600000" y2="24.000000"  style="stroke:black; stroke-linecap:round; stroke-width:0.25;"/>
<line x1="95.600000" y1="82.000000" x2="95.600000" y2="82.000000"  style="stroke:black; stroke-linecap:round; stroke-width:0.25;"/>
<line x1="103.600000" y1="24.000000" x2="169.600000" y2="24.000000"  style="stroke:black; stroke-linecap:round; stroke-width:0.25;"/>
<line x1="141.600000" y1="118.000000" x2="145.600000" y2="118.000000"  style="stroke:black; stroke-linecap:round; stroke-width:0.25;"/>
<line x1="142.500000" y1="76.000000" x2="146.500000" y2="76.000000"  style="stroke:black; stroke-linecap:round; stroke-width:0.25;"/>
<line x1="145.600000" y1="118.000000" x2="155.600000" y2="118.000000"  style="stroke:black; stroke-linecap:round; stroke-width:0.25;"/>
<line x1="146.500000" y1="76.000000" x2="155.600000" y2="76.000000"  style="stroke:black; stroke-linecap:round; stroke-width:0.25;"/>
<line x1="155.600000" y1="76.000000" x2="163.600000" y2="76.000000"  style="stroke:black; stroke-linecap:round; stroke-width:0.25;"/>
<line x1="155.600000" y1="106.000000" x2="163.600000" y2="106.000000"  style="stroke:black; stroke-linecap:round; stroke-width:0.25;"/>
<line x1="155.600000" y1="118.000000" x2="155.600000" y2="106.000000"  style="stroke:black; stroke-linecap:round; stroke-width:0.25;"/>
<line x1="155.600000" y1="118.000000" x2="155.600000" y2="118.000000"  style="stroke:black; stroke-linecap:round; stroke-width:0.25;"/>
<line x1="161.600000" y1="44.000000" x2="165.600000" y2="44.000000"  style="stroke:black; stroke-linecap:round; stroke-width:0.25;"/>
<line x1="163.600000" y1="76.000000" x2="163.600000" y2="98.000000"  style="stroke:black; stroke-linecap:round; stroke-width:0.25;"/>
<line x1="163.600000" y1="98.000000" x2="163.600000" y2="98.000000"  style="stroke:black; stroke-linecap:round; stroke-width:0.25;"/>
<line x1="163.600000" y1="98.000000" x2="167.600000" y2="98.000000"  style="stroke:black; stroke-linecap:round; stroke-width:0.25;"/>
<line x1="163.600000" y1="106.000000" x2="167.600000" y2="106.000000"  style="stroke:black; stroke-linecap:round; stroke-width:0.25;"/>
<line x1="165.600000" y1="44.000000" x2="195.600000" y2="44.000000"  style="stroke:black; stroke-linecap:round; stroke-width:0.25;"/>
<line x1="169.600000" y1="24.000000" x2="235.600000" y2="24.000000"  style="stroke:black; stroke-linecap:round; stroke-width:0.25;"/>
<line x1="191.600000" y1="102.000000" x2="195.600000" y2="102.000000"  style="stroke:black; stroke-linecap:round; stroke-width:0.25;"/>
<line x1="195.600000" y1="44.000000" x2="203.600000" y2="44.000000"  style="stroke:black; stroke-linecap:round; stroke-width:0.25;"/>
<line x1="195.600000" y1="90.000000" x2="203.600000" y2="90.000000"  style="stroke:black; stroke-linecap:round; stroke-width:0.25;"/>
<line x1="195.600000" y1="102.000000" x2="195.600000" y2="90.000000"  style="stroke:black; stroke-linecap:round; stroke-width:0.25;"/>
<line x1="195.600000" y1="102.000000" x2="195.600000" y2="102.000000"  style="stroke:black; stroke-linecap:round; stroke-width:0.25;"/>
<line x1="203.600000" y1="44.000000" x2="203.600000" y2="82.000000"  style="stroke:black; stroke-linecap:round; stroke-width:0.25;"/>
<line x1="203.600000" y1="82.000000" x2="203.600000" y2="82.000000"  style="stroke:black; stroke-linecap:round; stroke-width:0.25;"/>
<line x1="203.600000" y1="82.000000" x2="207.600000" y2="82.000000"  style="stroke:black; stroke-linecap:round; stroke-width:0.25;"/>
<line x1="203.600000" y1="90.000000" x2="207.600000" y2="90.000000"  style="stroke:black; stroke-linecap:round; stroke-width:0.25;"/>
<line x1="231.600000" y1="86.000000" x2="235.600000" y2="86.000000"  style="stroke:black; stroke-linecap:round; stroke-width:0.25;"/>
<line x1="235.600000" y1="24.000000" x2="243.600000" y2="24.000000"  style="stroke:black; stroke-linecap:round; stroke-width:0.25;"/>
<line x1="235.600000" y1="86.000000" x2="243.600000" y2="86.000000"  style="stroke:black; stroke-linecap:round; stroke-width:0.25;"/>
<line x1="243.600000" y1="24.000000" x2="243.600000" y2="78.000000"  style="stroke:black; stroke-linecap:round; stroke-width:0.25;"/>
<line x1="243.600000" y1="78.000000" x2="243.600000" y2="78.000000"  style="stroke:black; stroke-linecap:round; stroke-width:0.25;"/>
<line x1="243.600000" y1="78.000000" x2="247.600000" y2="78.000000"  style="stroke:black; stroke-linecap:round; stroke-width:0.25;"/>
<line x1="243.600000" y1="86.000000" x2="247.600000" y2="86.000000"  style="stroke:black; stroke-linecap:round; stroke-width:0.25;"/>
<line x1="271.600000" y1="82.000000" x2="275.600000" y2="82.000000"  style="stroke:black; stroke-linecap:round; stroke-width:0.25;"/>
<line x1="275.600000" y1="82.000000" x2="324.600000" y2="62.000000"  style="stroke:black; stroke-linecap:round; stroke-width:0.25;"/>
<line x1="275.600000" y1="82.000000" x2="324.600000" y2="82.000000"  style="stroke:black; stroke-linecap:round; stroke-width:0.25;"/>
<line x1="324.600000" y1="62.000000" x2="337.250000" y2="62.000000"  style="stroke:black; stroke-linecap:round; stroke-width:0.25;"/>
<line x1="324.600000" y1="82.000000" x2="340.600000" y2="82.000000"  style="stroke:black; stroke-linecap:round; stroke-width:0.25;"/>
<line x1="337.250000" y1="62.000000" x2="341.250000" y2="62.000000"  style="stroke:black; stroke-linecap:round; stroke-width:0.25;"/>
<line x1="340.600000" y1="82.000000" x2="356.600000" y2="82.000000"  style="stroke:black; stroke-linecap:round; stroke-width:0.25;"/>
<line x1="352.600000" y1="102.000000" x2="356.600000" y2="102.000000"  style="stroke:black; stroke-linecap:round; stroke-width:0.25;"/>
<line x1="356.600000" y1="82.000000" x2="364.600000" y2="82.000000"  style="stroke:black; stroke-linecap:round; stroke-width:0.25;"/>
<line x1="356.600000" y1="102.000000" x2="364.600000" y2="102.000000"  style="stroke:black; stroke-linecap:round; stroke-width:0.25;"/>
<line x1="364.600000" y1="82.000000" x2="364.600000" y2="94.000000"  style="stroke:black; stroke-linecap:round; stroke-width:0.25;"/>
<line x1="364.600000" y1="94.000000" x2="364.600000" y2="94.000000"  style="stroke:black; stroke-linecap:round; stroke-width:0.25;"/>
<line x1="364.600000" y1="94.000000" x2="368.600000" y2="94.000000"  style="stroke:black; stroke-linecap:round; stroke-width:0.25;"/>
<line x1="364.600000" y1="102.000000" x2="368.600000" y2="102.000000"  style="stroke:black; stroke-linecap:round; stroke-width:0.25;"/>
<line x1="379.950000" y1="62.000000" x2="383.950000" y2="62.000000"  style="stroke:black; stroke-linecap:round; stroke-width:0.25;"/>
<line x1="383.950000" y1="62.000000" x2="396.600000" y2="62.000000"  style="stroke:black; stroke-linecap:round; stroke-width:0.25;"/>
<line x1="392.600000" y1="98.000000" x2="396.600000" y2="98.000000"  style="stroke:black; stroke-linecap:round; stroke-width:0.25;"/>
<line x1="396.600000" y1="62.000000" x2="432.600000" y2="50.000000"  style="stroke:black; stroke-linecap:round; stroke-width:0.25;"/>
<line x1="396.600000" y1="98.000000" x2="432.600000" y2="50.000000"  style="stroke:black; stroke-linecap:round; stroke-width:0.25;"/>
<line x1="432.600000" y1="50.000000" x2="448.600000" y2="50.000000"  style="stroke:black; stroke-linecap:round; stroke-width:0.25;"/>
<line x1="448.600000" y1="50.000000" x2="464.600000" y2="50.000000"  style="stroke:black; stroke-linecap:round; stroke-width:0.25;"/>
<line x1="460.600000" y1="70.000000" x2="464.600000" y2="70.000000"  style="stroke:black; stroke-linecap:round; stroke-width:0.25;"/>
<line x1="464.600000" y1="50.000000" x2="472.600000" y2="50.000000"  style="stroke:black; stroke-linecap:round; stroke-width:0.25;"/>
<line x1="464.600000" y1="70.000000" x2="472.600000" y2="70.000000"  style="stroke:black; stroke-linecap:round; stroke-width:0.25;"/>
<line x1="472.600000" y1="50.000000" x2="472.600000" y2="62.000000"  style="stroke:black; stroke-linecap:round; stroke-width:0.25;"/>
<line x1="472.600000" y1="62.000000" x2="472.600000" y2="62.000000"  style="stroke:black; stroke-linecap:round; stroke-width:0.25;"/>
<line x1="472.600000" y1="62.000000" x2="476.600000" y2="62.000000"  style="stroke:black; stroke-linecap:round; stroke-width:0.25;"/>
<line x1="472.600000" y1="70.000000" x2="476.600000" y2="70.000000"  style="stroke:black; stroke-linecap:round; stroke-width:0.25;"/>
<line x1="487.950000" y1="102.000000" x2="491.950000" y2="102.000000"  style="stroke:black; stroke-linecap:round; stroke-width:0.25;"/>
<line x1="491.950000" y1="102.000000" x2="504.600000" y2="102.000000"  style="stroke:black; stroke-linecap:round; stroke-width:0.25;"/>
<line x1="500.600000" y1="66.000000" x2="504.600000" y2="66.000000"  style="stroke:black; stroke-linecap:round; stroke-width:0.25;"/>
<line x1="504.600000" y1="86.000000" x2="512.600000" y2="86.000000"  style="stroke:black; stroke-linecap:round; stroke-width:0.25;"/>
<line x1="504.600000" y1="102.000000" x2="504.600000" y2="86.000000"  style="stroke:black; stroke-linecap:round; stroke-width:0.25;"/>
<line x1="504.600000" y1="102.000000" x2="504.600000" y2="102.000000"  style="stroke:black; stroke-linecap:round; stroke-width:0.25;"/>
<line x1="504.600000" y1="66.000000" x2="512.600000" y2="66.000000"  style="stroke:black; stroke-linecap:round; stroke-width:0.25;"/>
<line x1="512.600000" y1="66.000000" x2="512.600000" y2="78.000000"  style="stroke:black; stroke-linecap:round; stroke-width:0.25;"/>
<line x1="512.600000" y1="78.000000" x2="512.600000" y2="78.000000"  style="stroke:black; stroke-linecap:round; stroke-width:0.25;"/>
<line x1="512.600000" y1="78.000000" x2="516.600000" y2="78.000000"  style="stroke:black; stroke-linecap:round; stroke-width:0.25;"/>
<line x1="512.600000" y1="86.000000" x2="516.600000" y2="86.000000"  style="stroke:black; stroke-linecap:round; stroke-width:0.25;"/>
<line x1="540.600000" y1="82.000000" x2="544.600000" y2="82.000000"  style="stroke:black; stroke-linecap:round; stroke-width:0.25;"/>
<line x1="544.600000" y1="82.000000" x2="544.600000" y2="82.000000"  style="stroke:black; stroke-linecap:round; stroke-width:0.25;"/>
<line x1="544.600000" y1="82.000000" x2="548.600000" y2="82.000000"  style="stroke:black; stroke-linecap:round; stroke-width:0.25;"/>
<line x1="548.600000" y1="82.000000" x2="552.600000" y2="82.000000"  style="stroke:black; stroke-linecap:round; stroke-width:0.25;"/>
<line x1="552.600000" y1="82.000000" x2="562.600000" y2="82.000000"  style="stroke:black; stroke-linecap:round; stroke-width:0.25;"/>
</svg>
