<?xml version="1.0"?>
<svg xmlns="http://www.w3.org/2000/svg" xmlns:xlink="http://www.w3.org/1999/xlink" viewBox="0 0 549.400000 144.000000" width="274.700000mm" height="72.000000mm" version="1.1">
<a xlink:href="process.svg">
<rect x="1.000000" y="1.000000" width="548.400000" height="143.000000" rx="0" ry="0" style="stroke:none;fill:#cccccc;"/>
<rect x="0.000000" y="0.000000" width="548.400000" height="143.000000" rx="0" ry="0" style="stroke:none;fill:#ffffff;"/>
</a>
<text x="10.000000" y="7.000000" font-family="Arial" font-size="7"></text>
<a xlink:href="BP-0x7fa8fce180e0.svg">
<rect x="33.000000" y="61.000000" width="25.800000" height="24.000000" rx="0" ry="0" style="stroke:none;fill:#cccccc;"/>
<rect x="32.000000" y="60.000000" width="25.800000" height="24.000000" rx="0" ry="0" style="stroke:none;fill:#003366;"/>
</a>
<a xlink:href="BP-0x7fa8fce180e0.svg">
<text x="44.900000" y="74.000000" font-family="Arial" font-size="7" text-anchor="middle" fill="#FFFFFF">BP(2)</text>
</a>
<circle cx="34.000000" cy="62.000000" r="1"/>
<line x1="29.000000" y1="71.000000" x2="32.000000" y2="72.000000"  transform="rotate(0.000000,32.000000,72.000000)" style="stroke: black; stroke-width:0.25;"/>
<line x1="29.000000" y1="73.000000" x2="32.000000" y2="72.000000"  transform="rotate(0.000000,32.000000,72.000000)" style="stroke: black; stroke-width:0.25;"/>
<a xlink:href="EQ-0x7fa8fce18790.svg">
<rect x="66.800000" y="61.000000" width="25.800000" height="24.000000" rx="0" ry="0" style="stroke:none;fill:#cccccc;"/>
<rect x="65.800000" y="60.000000" width="25.800000" height="24.000000" rx="0" ry="0" style="stroke:none;fill:#003366;"/>
</a>
<a xlink:href="EQ-0x7fa8fce18790.svg">
<text x="78.700000" y="74.000000" font-family="Arial" font-size="7" text-anchor="middle" fill="#FFFFFF">EQ(2)</text>
</a>
<circle cx="67.800000" cy="62.000000" r="1"/>
<line x1="62.800000" y1="71.000000" x2="65.800000" y2="72.000000"  transform="rotate(0.000000,65.800000,72.000000)" style="stroke: black; stroke-width:0.25;"/>
<line x1="62.800000" y1="73.000000" x2="65.800000" y2="72.000000"  transform="rotate(0.000000,65.800000,72.000000)" style="stroke: black; stroke-width:0.25;"/>
<rect x="129.500000" y="33.000000" width="24.000000" height="24.000000" rx="0" ry="0" style="stroke:none;fill:#cccccc;"/>
<rect x="128.500000" y="32.000000" width="24.000000" height="24.000000" rx="0" ry="0" style="stroke:none;fill:#f44800;"/>
<text x="140.500000" y="46.000000" font-family="Arial" font-size="7" text-anchor="middle" fill="#FFFFFF">10</text>
<circle cx="130.500000" cy="34.000000" r="1"/>
<rect x="108.600000" y="65.000000" width="25.800000" height="24.000000" rx="0" ry="0" style="stroke:none;fill:#cccccc;"/>
<rect x="107.600000" y="64.000000" width="25.800000" height="24.000000" rx="0" ry="0" style="stroke:none;fill:#f44800;"/>
<text x="120.500000" y="78.000000" font-family="Arial" font-size="7" text-anchor="middle" fill="#FFFFFF">12000</text>
<circle cx="109.600000" cy="66.000000" r="1"/>
<rect x="109.500000" y="97.000000" width="24.000000" height="24.000000" rx="0" ry="0" style="stroke:none;fill:#cccccc;"/>
<rect x="108.500000" y="96.000000" width="24.000000" height="24.000000" rx="0" ry="0" style="stroke:none;fill:#f44800;"/>
<text x="120.500000" y="110.000000" font-family="Arial" font-size="7" text-anchor="middle" fill="#FFFFFF">2</text>
<circle cx="110.500000" cy="98.000000" r="1"/>
<rect x="150.400000" y="81.000000" width="24.000000" height="24.000000" rx="0" ry="0" style="stroke:none;fill:#cccccc;"/>
<rect x="149.400000" y="80.000000" width="24.000000" height="24.000000" rx="0" ry="0" style="stroke:none;fill:#4B71A1;"/>
<text x="161.400000" y="94.000000" font-family="Arial" font-size="7" text-anchor="middle" fill="#FFFFFF">*</text>
<circle cx="151.400000" cy="82.000000" r="1"/>
<line x1="146.400000" y1="87.000000" x2="149.400000" y2="88.000000"  transform="rotate(0.000000,149.400000,88.000000)" style="stroke: black; stroke-width:0.25;"/>
<line x1="146.400000" y1="89.000000" x2="149.400000" y2="88.000000"  transform="rotate(0.000000,149.400000,88.000000)" style="stroke: black; stroke-width:0.25;"/>
<line x1="146.400000" y1="95.000000" x2="149.400000" y2="96.000000"  transform="rotate(0.000000,149.400000,96.000000)" style="stroke: black; stroke-width:0.25;"/>
<line x1="146.400000" y1="97.000000" x2="149.400000" y2="96.000000"  transform="rotate(0.000000,149.400000,96.000000)" style="stroke: black; stroke-width:0.25;"/>
<rect x="190.400000" y="65.000000" width="24.000000" height="24.000000" rx="0" ry="0" style="stroke:none;fill:#cccccc;"/>
<rect x="189.400000" y="64.000000" width="24.000000" height="24.000000" rx="0" ry="0" style="stroke:none;fill:#4B71A1;"/>
<text x="201.400000" y="78.000000" font-family="Arial" font-size="7" text-anchor="middle" fill="#FFFFFF">+</text>
<circle cx="191.400000" cy="66.000000" r="1"/>
<line x1="186.400000" y1="71.000000" x2="189.400000" y2="72.000000"  transform="rotate(0.000000,189.400000,72.000000)" style="stroke: black; stroke-width:0.25;"/>
<line x1="186.400000" y1="73.000000" x2="189.400000" y2="72.000000"  transform="rotate(0.000000,189.400000,72.000000)" style="stroke: black; stroke-width:0.25;"/>
<line x1="186.400000" y1="79.000000" x2="189.400000" y2="80.000000"  transform="rotate(0.000000,189.400000,80.000000)" style="stroke: black; stroke-width:0.25;"/>
<line x1="186.400000" y1="81.000000" x2="189.400000" y2="80.000000"  transform="rotate(0.000000,189.400000,80.000000)" style="stroke: black; stroke-width:0.25;"/>
<rect x="230.400000" y="61.000000" width="24.000000" height="24.000000" rx="0" ry="0" style="stroke:none;fill:#cccccc;"/>
<rect x="229.400000" y="60.000000" width="24.000000" height="24.000000" rx="0" ry="0" style="stroke:none;fill:#4B71A1;"/>
<text x="241.400000" y="74.000000" font-family="Arial" font-size="7" text-anchor="middle" fill="#FFFFFF">@</text>
<circle cx="231.400000" cy="62.000000" r="1"/>
<line x1="226.400000" y1="67.000000" x2="229.400000" y2="68.000000"  transform="rotate(0.000000,229.400000,68.000000)" style="stroke: black; stroke-width:0.25;"/>
<line x1="226.400000" y1="69.000000" x2="229.400000" y2="68.000000"  transform="rotate(0.000000,229.400000,68.000000)" style="stroke: black; stroke-width:0.25;"/>
<line x1="226.400000" y1="75.000000" x2="229.400000" y2="76.000000"  transform="rotate(0.000000,229.400000,76.000000)" style="stroke: black; stroke-width:0.25;"/>
<line x1="226.400000" y1="77.000000" x2="229.400000" y2="76.000000"  transform="rotate(0.000000,229.400000,76.000000)" style="stroke: black; stroke-width:0.25;"/>
<a xlink:href="Reson-0x7fa8fce16170.svg">
<rect x="319.050000" y="41.000000" width="38.700000" height="24.000000" rx="0" ry="0" style="stroke:none;fill:#cccccc;"/>
<rect x="318.050000" y="40.000000" width="38.700000" height="24.000000" rx="0" ry="0" style="stroke:none;fill:#003366;"/>
</a>
<a xlink:href="Reson-0x7fa8fce16170.svg">
<text x="337.400000" y="54.000000" font-family="Arial" font-size="7" text-anchor="middle" fill="#FFFFFF">Reson(0)</text>
</a>
<circle cx="320.050000" cy="42.000000" r="1"/>
<line x1="315.050000" y1="51.000000" x2="318.050000" y2="52.000000"  transform="rotate(0.000000,318.050000,52.000000)" style="stroke: black; stroke-width:0.25;"/>
<line x1="315.050000" y1="53.000000" x2="318.050000" y2="52.000000"  transform="rotate(0.000000,318.050000,52.000000)" style="stroke: black; stroke-width:0.25;"/>
<rect x="306.400000" y="81.000000" width="24.000000" height="24.000000" rx="0" ry="0" style="stroke:none;fill:#cccccc;"/>
<rect x="305.400000" y="80.000000" width="24.000000" height="24.000000" rx="0" ry="0" style="stroke:none;fill:#f44800;"/>
<text x="317.400000" y="94.000000" font-family="Arial" font-size="7" text-anchor="middle" fill="#FFFFFF">1.5</text>
<circle cx="307.400000" cy="82.000000" r="1"/>
<rect x="346.400000" y="77.000000" width="24.000000" height="24.000000" rx="0" ry="0" style="stroke:none;fill:#cccccc;"/>
<rect x="345.400000" y="76.000000" width="24.000000" height="24.000000" rx="0" ry="0" style="stroke:none;fill:#4B71A1;"/>
<text x="357.400000" y="90.000000" font-family="Arial" font-size="7" text-anchor="middle" fill="#FFFFFF">*</text>
<circle cx="347.400000" cy="78.000000" r="1"/>
<line x1="342.400000" y1="83.000000" x2="345.400000" y2="84.000000"  transform="rotate(0.000000,345.400000,84.000000)" style="stroke: black; stroke-width:0.25;"/>
<line x1="342.400000" y1="85.000000" x2="345.400000" y2="84.000000"  transform="rotate(0.000000,345.400000,84.000000)" style="stroke: black; stroke-width:0.25;"/>
<line x1="342.400000" y1="91.000000" x2="345.400000" y2="92.000000"  transform="rotate(0.000000,345.400000,92.000000)" style="stroke: black; stroke-width:0.25;"/>
<line x1="342.400000" y1="93.000000" x2="345.400000" y2="92.000000"  transform="rotate(0.000000,345.400000,92.000000)" style="stroke: black; stroke-width:0.25;"/>
<a xlink:href="Env-0x7fa8fca8d190.svg">
<rect x="414.400000" y="49.000000" width="24.000000" height="24.000000" rx="0" ry="0" style="stroke:none;fill:#cccccc;"/>
<rect x="413.400000" y="48.000000" width="24.000000" height="24.000000" rx="0" ry="0" style="stroke:none;fill:#003366;"/>
</a>
<a xlink:href="Env-0x7fa8fca8d190.svg">
<text x="425.400000" y="62.000000" font-family="Arial" font-size="7" text-anchor="middle" fill="#FFFFFF">Env</text>
</a>
<circle cx="415.400000" cy="50.000000" r="1"/>
<rect x="454.400000" y="45.000000" width="24.000000" height="24.000000" rx="0" ry="0" style="stroke:none;fill:#cccccc;"/>
<rect x="453.400000" y="44.000000" width="24.000000" height="24.000000" rx="0" ry="0" style="stroke:none;fill:#4B71A1;"/>
<text x="465.400000" y="58.000000" font-family="Arial" font-size="7" text-anchor="middle" fill="#FFFFFF">*</text>
<circle cx="455.400000" cy="46.000000" r="1"/>
<line x1="450.400000" y1="51.000000" x2="453.400000" y2="52.000000"  transform="rotate(0.000000,453.400000,52.000000)" style="stroke: black; stroke-width:0.25;"/>
<line x1="450.400000" y1="53.000000" x2="453.400000" y2="52.000000"  transform="rotate(0.000000,453.400000,52.000000)" style="stroke: black; stroke-width:0.25;"/>
<line x1="450.400000" y1="59.000000" x2="453.400000" y2="60.000000"  transform="rotate(0.000000,453.400000,60.000000)" style="stroke: black; stroke-width:0.25;"/>
<line x1="450.400000" y1="61.000000" x2="453.400000" y2="60.000000"  transform="rotate(0.000000,453.400000,60.000000)" style="stroke: black; stroke-width:0.25;"/>
<a xlink:href="gain-0x7fa8fca916e0.svg">
<rect x="427.050000" y="81.000000" width="38.700000" height="24.000000" rx="0" ry="0" style="stroke:none;fill:#cccccc;"/>
<rect x="426.050000" y="80.000000" width="38.700000" height="24.000000" rx="0" ry="0" style="stroke:none;fill:#003366;"/>
</a>
<a xlink:href="gain-0x7fa8fca916e0.svg">
<text x="445.400000" y="94.000000" font-family="Arial" font-size="7" text-anchor="middle" fill="#FFFFFF">gain(2)</text>
</a>
<circle cx="428.050000" cy="82.000000" r="1"/>
<rect x="494.400000" y="61.000000" width="24.000000" height="24.000000" rx="0" ry="0" style="stroke:none;fill:#cccccc;"/>
<rect x="493.400000" y="60.000000" width="24.000000" height="24.000000" rx="0" ry="0" style="stroke:none;fill:#4B71A1;"/>
<text x="505.400000" y="74.000000" font-family="Arial" font-size="7" text-anchor="middle" fill="#FFFFFF">*</text>
<circle cx="495.400000" cy="62.000000" r="1"/>
<line x1="490.400000" y1="67.000000" x2="493.400000" y2="68.000000"  transform="rotate(0.000000,493.400000,68.000000)" style="stroke: black; stroke-width:0.25;"/>
<line x1="490.400000" y1="69.000000" x2="493.400000" y2="68.000000"  transform="rotate(0.000000,493.400000,68.000000)" style="stroke: black; stroke-width:0.25;"/>
<line x1="490.400000" y1="75.000000" x2="493.400000" y2="76.000000"  transform="rotate(0.000000,493.400000,76.000000)" style="stroke: black; stroke-width:0.25;"/>
<line x1="490.400000" y1="77.000000" x2="493.400000" y2="76.000000"  transform="rotate(0.000000,493.400000,76.000000)" style="stroke: black; stroke-width:0.25;"/>
<line x1="15.000000" y1="15.000000" x2="15.000000" y2="129.000000"  style="stroke: black; stroke-linecap:round; stroke-width:0.25; stroke-dasharray:3,3;"/>
<line x1="15.000000" y1="129.000000" x2="534.400000" y2="129.000000"  style="stroke: black; stroke-linecap:round; stroke-width:0.25; stroke-dasharray:3,3;"/>
<line x1="534.400000" y1="129.000000" x2="534.400000" y2="15.000000"  style="stroke: black; stroke-linecap:round; stroke-width:0.25; stroke-dasharray:3,3;"/>
<line x1="15.000000" y1="15.000000" x2="20.000000" y2="15.000000"  style="stroke: black; stroke-linecap:round; stroke-width:0.25; stroke-dasharray:3,3;"/>
<line x1="58.700000" y1="15.000000" x2="534.400000" y2="15.000000"  style="stroke: black; stroke-linecap:round; stroke-width:0.25; stroke-dasharray:3,3;"/>
<text x="20.000000" y="17.000000" font-family="Arial" font-size="7">whistle(2)</text>
<line x1="536.400000" y1="71.000000" x2="539.400000" y2="72.000000"  transform="rotate(0.000000,539.400000,72.000000)" style="stroke: black; stroke-width:0.25;"/>
<line x1="536.400000" y1="73.000000" x2="539.400000" y2="72.000000"  transform="rotate(0.000000,539.400000,72.000000)" style="stroke: black; stroke-width:0.25;"/>
<line x1="10.000000" y1="72.000000" x2="20.000000" y2="72.000000"  style="stroke:black; stroke-linecap:round; stroke-width:0.25;"/>
<line x1="20.000000" y1="72.000000" x2="24.000000" y2="72.000000"  style="stroke:black; stroke-linecap:round; stroke-width:0.25;"/>
<line x1="24.000000" y1="72.000000" x2="28.000000" y2="72.000000"  style="stroke:black; stroke-linecap:round; stroke-width:0.25;"/>
<line x1="28.000000" y1="72.000000" x2="28.000000" y2="72.000000"  style="stroke:black; stroke-linecap:round; stroke-width:0.25;"/>
<line x1="28.000000" y1="72.000000" x2="32.000000" y2="72.000000"  style="stroke:black; stroke-linecap:round; stroke-width:0.25;"/>
<line x1="57.800000" y1="72.000000" x2="61.800000" y2="72.000000"  style="stroke:black; stroke-linecap:round; stroke-width:0.25;"/>
<line x1="61.800000" y1="72.000000" x2="61.800000" y2="72.000000"  style="stroke:black; stroke-linecap:round; stroke-width:0.25;"/>
<line x1="61.800000" y1="72.000000" x2="65.800000" y2="72.000000"  style="stroke:black; stroke-linecap:round; stroke-width:0.25;"/>
<line x1="91.600000" y1="72.000000" x2="95.600000" y2="72.000000"  style="stroke:black; stroke-linecap:round; stroke-width:0.25;"/>
<line x1="95.600000" y1="24.000000" x2="103.600000" y2="24.000000"  style="stroke:black; stroke-linecap:round; stroke-width:0.25;"/>
<line x1="95.600000" y1="72.000000" x2="95.600000" y2="24.000000"  style="stroke:black; stroke-linecap:round; stroke-width:0.25;"/>
<line x1="95.600000" y1="72.000000" x2="95.600000" y2="72.000000"  style="stroke:black; stroke-linecap:round; stroke-width:0.25;"/>
<line x1="103.600000" y1="24.000000" x2="160.500000" y2="24.000000"  style="stroke:black; stroke-linecap:round; stroke-width:0.25;"/>
<line x1="132.500000" y1="108.000000" x2="136.500000" y2="108.000000"  style="stroke:black; stroke-linecap:round; stroke-width:0.25;"/>
<line x1="133.400000" y1="76.000000" x2="137.400000" y2="76.000000"  style="stroke:black; stroke-linecap:round; stroke-width:0.25;"/>
<line x1="136.500000" y1="108.000000" x2="137.400000" y2="108.000000"  style="stroke:black; stroke-linecap:round; stroke-width:0.25;"/>
<line x1="137.400000" y1="76.000000" x2="145.400000" y2="76.000000"  style="stroke:black; stroke-linecap:round; stroke-width:0.25;"/>
<line x1="137.400000" y1="96.000000" x2="145.400000" y2="96.000000"  style="stroke:black; stroke-linecap:round; stroke-width:0.25;"/>
<line x1="137.400000" y1="108.000000" x2="137.400000" y2="96.000000"  style="stroke:black; stroke-linecap:round; stroke-width:0.25;"/>
<line x1="137.400000" y1="108.000000" x2="137.400000" y2="108.000000"  style="stroke:black; stroke-linecap:round; stroke-width:0.25;"/>
<line x1="145.400000" y1="76.000000" x2="145.400000" y2="88.000000"  style="stroke:black; stroke-linecap:round; stroke-width:0.25;"/>
<line x1="145.400000" y1="88.000000" x2="145.400000" y2="88.000000"  style="stroke:black; stroke-linecap:round; stroke-width:0.25;"/>
<line x1="145.400000" y1="88.000000" x2="149.400000" y2="88.000000"  style="stroke:black; stroke-linecap:round; stroke-width:0.25;"/>
<line x1="145.400000" y1="96.000000" x2="149.400000" y2="96.000000"  style="stroke:black; stroke-linecap:round; stroke-width:0.25;"/>
<line x1="152.500000" y1="44.000000" x2="156.500000" y2="44.000000"  style="stroke:black; stroke-linecap:round; stroke-width:0.25;"/>
<line x1="156.500000" y1="44.000000" x2="177.400000" y2="44.000000"  style="stroke:black; stroke-linecap:round; stroke-width:0.25;"/>
<line x1="160.500000" y1="24.000000" x2="217.400000" y2="24.000000"  style="stroke:black; stroke-linecap:round; stroke-width:0.25;"/>
<line x1="173.400000" y1="92.000000" x2="177.400000" y2="92.000000"  style="stroke:black; stroke-linecap:round; stroke-width:0.25;"/>
<line x1="177.400000" y1="80.000000" x2="185.400000" y2="80.000000"  style="stroke:black; stroke-linecap:round; stroke-width:0.25;"/>
<line x1="177.400000" y1="92.000000" x2="177.400000" y2="80.000000"  style="stroke:black; stroke-linecap:round; stroke-width:0.25;"/>
<line x1="177.400000" y1="92.000000" x2="177.400000" y2="92.000000"  style="stroke:black; stroke-linecap:round; stroke-width:0.25;"/>
<line x1="177.400000" y1="44.000000" x2="185.400000" y2="44.000000"  style="stroke:black; stroke-linecap:round; stroke-width:0.25;"/>
<line x1="185.400000" y1="72.000000" x2="189.400000" y2="72.000000"  style="stroke:black; stroke-linecap:round; stroke-width:0.25;"/>
<line x1="185.400000" y1="80.000000" x2="189.400000" y2="80.000000"  style="stroke:black; stroke-linecap:round; stroke-width:0.25;"/>
<line x1="185.400000" y1="44.000000" x2="185.400000" y2="72.000000"  style="stroke:black; stroke-linecap:round; stroke-width:0.25;"/>
<line x1="185.400000" y1="72.000000" x2="185.400000" y2="72.000000"  style="stroke:black; stroke-linecap:round; stroke-width:0.25;"/>
<line x1="213.400000" y1="76.000000" x2="217.400000" y2="76.000000"  style="stroke:black; stroke-linecap:round; stroke-width:0.25;"/>
<line x1="217.400000" y1="76.000000" x2="225.400000" y2="76.000000"  style="stroke:black; stroke-linecap:round; stroke-width:0.25;"/>
<line x1="217.400000" y1="24.000000" x2="225.400000" y2="24.000000"  style="stroke:black; stroke-linecap:round; stroke-width:0.25;"/>
<line x1="225.400000" y1="68.000000" x2="229.400000" y2="68.000000"  style="stroke:black; stroke-linecap:round; stroke-width:0.25;"/>
<line x1="225.400000" y1="76.000000" x2="229.400000" y2="76.000000"  style="stroke:black; stroke-linecap:round; stroke-width:0.25;"/>
<line x1="225.400000" y1="24.000000" x2="225.400000" y2="68.000000"  style="stroke:black; stroke-linecap:round; stroke-width:0.25;"/>
<line x1="225.400000" y1="68.000000" x2="225.400000" y2="68.000000"  style="stroke:black; stroke-linecap:round; stroke-width:0.25;"/>
<line x1="253.400000" y1="72.000000" x2="257.400000" y2="72.000000"  style="stroke:black; stroke-linecap:round; stroke-width:0.25;"/>
<line x1="257.400000" y1="72.000000" x2="301.400000" y2="52.000000"  style="stroke:black; stroke-linecap:round; stroke-width:0.25;"/>
<line x1="257.400000" y1="72.000000" x2="301.400000" y2="72.000000"  style="stroke:black; stroke-linecap:round; stroke-width:0.25;"/>
<line x1="301.400000" y1="52.000000" x2="314.050000" y2="52.000000"  style="stroke:black; stroke-linecap:round; stroke-width:0.25;"/>
<line x1="301.400000" y1="72.000000" x2="317.400000" y2="72.000000"  style="stroke:black; stroke-linecap:round; stroke-width:0.25;"/>
<line x1="314.050000" y1="52.000000" x2="318.050000" y2="52.000000"  style="stroke:black; stroke-linecap:round; stroke-width:0.25;"/>
<line x1="317.400000" y1="72.000000" x2="333.400000" y2="72.000000"  style="stroke:black; stroke-linecap:round; stroke-width:0.25;"/>
<line x1="329.400000" y1="92.000000" x2="333.400000" y2="92.000000"  style="stroke:black; stroke-linecap:round; stroke-width:0.25;"/>
<line x1="333.400000" y1="72.000000" x2="341.400000" y2="72.000000"  style="stroke:black; stroke-linecap:round; stroke-width:0.25;"/>
<line x1="333.400000" y1="92.000000" x2="341.400000" y2="92.000000"  style="stroke:black; stroke-linecap:round; stroke-width:0.25;"/>
<line x1="341.400000" y1="72.000000" x2="341.400000" y2="84.000000"  style="stroke:black; stroke-linecap:round; stroke-width:0.25;"/>
<line x1="341.400000" y1="84.000000" x2="341.400000" y2="84.000000"  style="stroke:black; stroke-linecap:round; stroke-width:0.25;"/>
<line x1="341.400000" y1="84.000000" x2="345.400000" y2="84.000000"  style="stroke:black; stroke-linecap:round; stroke-width:0.25;"/>
<line x1="341.400000" y1="92.000000" x2="345.400000" y2="92.000000"  style="stroke:black; stroke-linecap:round; stroke-width:0.25;"/>
<line x1="356.750000" y1="52.000000" x2="360.750000" y2="52.000000"  style="stroke:black; stroke-linecap:round; stroke-width:0.25;"/>
<line x1="360.750000" y1="52.000000" x2="373.400000" y2="52.000000"  style="stroke:black; stroke-linecap:round; stroke-width:0.25;"/>
<line x1="369.400000" y1="88.000000" x2="373.400000" y2="88.000000"  style="stroke:black; stroke-linecap:round; stroke-width:0.25;"/>
<line x1="373.400000" y1="52.000000" x2="409.400000" y2="40.000000"  style="stroke:black; stroke-linecap:round; stroke-width:0.25;"/>
<line x1="373.400000" y1="88.000000" x2="409.400000" y2="40.000000"  style="stroke:black; stroke-linecap:round; stroke-width:0.25;"/>
<line x1="409.400000" y1="40.000000" x2="425.400000" y2="40.000000"  style="stroke:black; stroke-linecap:round; stroke-width:0.25;"/>
<line x1="425.400000" y1="40.000000" x2="441.400000" y2="40.000000"  style="stroke:black; stroke-linecap:round; stroke-width:0.25;"/>
<line x1="437.400000" y1="60.000000" x2="441.400000" y2="60.000000"  style="stroke:black; stroke-linecap:round; stroke-width:0.25;"/>
<line x1="441.400000" y1="40.000000" x2="449.400000" y2="40.000000"  style="stroke:black; stroke-linecap:round; stroke-width:0.25;"/>
<line x1="441.400000" y1="60.000000" x2="449.400000" y2="60.000000"  style="stroke:black; stroke-linecap:round; stroke-width:0.25;"/>
<line x1="449.400000" y1="40.000000" x2="449.400000" y2="52.000000"  style="stroke:black; stroke-linecap:round; stroke-width:0.25;"/>
<line x1="449.400000" y1="52.000000" x2="449.400000" y2="52.000000"  style="stroke:black; stroke-linecap:round; stroke-width:0.25;"/>
<line x1="449.400000" y1="52.000000" x2="453.400000" y2="52.000000"  style="stroke:black; stroke-linecap:round; stroke-width:0.25;"/>
<line x1="449.400000" y1="60.000000" x2="453.400000" y2="60.000000"  style="stroke:black; stroke-linecap:round; stroke-width:0.25;"/>
<line x1="464.750000" y1="92.000000" x2="468.750000" y2="92.000000"  style="stroke:black; stroke-linecap:round; stroke-width:0.25;"/>
<line x1="468.750000" y1="92.000000" x2="481.400000" y2="92.000000"  style="stroke:black; stroke-linecap:round; stroke-width:0.25;"/>
<line x1="477.400000" y1="56.000000" x2="481.400000" y2="56.000000"  style="stroke:black; stroke-linecap:round; stroke-width:0.25;"/>
<line x1="481.400000" y1="76.000000" x2="489.400000" y2="76.000000"  style="stroke:black; stroke-linecap:round; stroke-width:0.25;"/>
<line x1="481.400000" y1="92.000000" x2="481.400000" y2="76.000000"  style="stroke:black; stroke-linecap:round; stroke-width:0.25;"/>
<line x1="481.400000" y1="92.000000" x2="481.400000" y2="92.000000"  style="stroke:black; stroke-linecap:round; stroke-width:0.25;"/>
<line x1="481.400000" y1="56.000000" x2="489.400000" y2="56.000000"  style="stroke:black; stroke-linecap:round; stroke-width:0.25;"/>
<line x1="489.400000" y1="56.000000" x2="489.400000" y2="68.000000"  style="stroke:black; stroke-linecap:round; stroke-width:0.25;"/>
<line x1="489.400000" y1="68.000000" x2="489.400000" y2="68.000000"  style="stroke:black; stroke-linecap:round; stroke-width:0.25;"/>
<line x1="489.400000" y1="68.000000" x2="493.400000" y2="68.000000"  style="stroke:black; stroke-linecap:round; stroke-width:0.25;"/>
<line x1="489.400000" y1="76.000000" x2="493.400000" y2="76.000000"  style="stroke:black; stroke-linecap:round; stroke-width:0.25;"/>
<line x1="517.400000" y1="72.000000" x2="521.400000" y2="72.000000"  style="stroke:black; stroke-linecap:round; stroke-width:0.25;"/>
<line x1="521.400000" y1="72.000000" x2="521.400000" y2="72.000000"  style="stroke:black; stroke-linecap:round; stroke-width:0.25;"/>
<line x1="521.400000" y1="72.000000" x2="525.400000" y2="72.000000"  style="stroke:black; stroke-linecap:round; stroke-width:0.25;"/>
<line x1="525.400000" y1="72.000000" x2="529.400000" y2="72.000000"  style="stroke:black; stroke-linecap:round; stroke-width:0.25;"/>
<line x1="529.400000" y1="72.000000" x2="539.400000" y2="72.000000"  style="stroke:black; stroke-linecap:round; stroke-width:0.25;"/>
</svg>
