<?xml version="1.0"?>
<svg xmlns="http://www.w3.org/2000/svg" xmlns:xlink="http://www.w3.org/1999/xlink" viewBox="0 0 386.900000 92.000000" width="193.450000mm" height="46.000000mm" version="1.1">
<a xlink:href="harpe-0x7fc90b51e280.svg">
<rect x="1.000000" y="1.000000" width="385.900000" height="91.000000" rx="0" ry="0" style="stroke:none;fill:#cccccc;"/>
<rect x="0.000000" y="0.000000" width="385.900000" height="91.000000" rx="0" ry="0" style="stroke:none;fill:#ffffff;"/>
</a>
<text x="10.000000" y="7.000000" font-family="Arial" font-size="7"></text>
<rect x="35.000000" y="35.000000" width="167.700000" height="24.000000" rx="0" ry="0" style="stroke:none;fill:#cccccc;"/>
<rect x="34.000000" y="34.000000" width="167.700000" height="24.000000" rx="0" ry="0" style="stroke:none;fill:#477881;"/>
<text x="117.850000" y="48.000000" font-family="Arial" font-size="7" text-anchor="middle" fill="#FFFFFF">vslider(note, 0.0f, 0.0f, 11.0f, 1.0f)</text>
<circle cx="36.000000" cy="36.000000" r="1"/>
<rect x="210.700000" y="35.000000" width="24.000000" height="24.000000" rx="0" ry="0" style="stroke:none;fill:#cccccc;"/>
<rect x="209.700000" y="34.000000" width="24.000000" height="24.000000" rx="0" ry="0" style="stroke:none;fill:#4B71A1;"/>
<text x="221.700000" y="48.000000" font-family="Arial" font-size="7" text-anchor="middle" fill="#FFFFFF">int</text>
<circle cx="211.700000" cy="36.000000" r="1"/>
<line x1="206.700000" y1="45.000000" x2="209.700000" y2="46.000000"  transform="rotate(0.000000,209.700000,46.000000)" style="stroke: black; stroke-width:0.25;"/>
<line x1="206.700000" y1="47.000000" x2="209.700000" y2="46.000000"  transform="rotate(0.000000,209.700000,46.000000)" style="stroke: black; stroke-width:0.25;"/>
<a xlink:href="automat-0x7fc90b3f4130.svg">
<rect x="242.700000" y="35.000000" width="103.200000" height="24.000000" rx="0" ry="0" style="stroke:none;fill:#cccccc;"/>
<rect x="241.700000" y="34.000000" width="103.200000" height="24.000000" rx="0" ry="0" style="stroke:none;fill:#003366;"/>
</a>
<a xlink:href="automat-0x7fc90b3f4130.svg">
<text x="293.300000" y="48.000000" font-family="Arial" font-size="7" text-anchor="middle" fill="#FFFFFF">automat(360)(15)(0.0f)</text>
</a>
<circle cx="243.700000" cy="36.000000" r="1"/>
<line x1="238.700000" y1="45.000000" x2="241.700000" y2="46.000000"  transform="rotate(0.000000,241.700000,46.000000)" style="stroke: black; stroke-width:0.25;"/>
<line x1="238.700000" y1="47.000000" x2="241.700000" y2="46.000000"  transform="rotate(0.000000,241.700000,46.000000)" style="stroke: black; stroke-width:0.25;"/>
<line x1="25.000000" y1="25.000000" x2="25.000000" y2="67.000000"  style="stroke: black; stroke-linecap:round; stroke-width:0.25; stroke-dasharray:3,3;"/>
<line x1="25.000000" y1="67.000000" x2="353.900000" y2="67.000000"  style="stroke: black; stroke-linecap:round; stroke-width:0.25; stroke-dasharray:3,3;"/>
<line x1="353.900000" y1="67.000000" x2="353.900000" y2="25.000000"  style="stroke: black; stroke-linecap:round; stroke-width:0.25; stroke-dasharray:3,3;"/>
<line x1="25.000000" y1="25.000000" x2="30.000000" y2="25.000000"  style="stroke: black; stroke-linecap:round; stroke-width:0.25; stroke-dasharray:3,3;"/>
<line x1="81.600000" y1="25.000000" x2="353.900000" y2="25.000000"  style="stroke: black; stroke-linecap:round; stroke-width:0.25; stroke-dasharray:3,3;"/>
<text x="30.000000" y="27.000000" font-family="Arial" font-size="7">vgroup(loop72)</text>
<line x1="15.000000" y1="15.000000" x2="15.000000" y2="77.000000"  style="stroke: black; stroke-linecap:round; stroke-width:0.25; stroke-dasharray:3,3;"/>
<line x1="15.000000" y1="77.000000" x2="371.900000" y2="77.000000"  style="stroke: black; stroke-linecap:round; stroke-width:0.25; stroke-dasharray:3,3;"/>
<line x1="371.900000" y1="77.000000" x2="371.900000" y2="15.000000"  style="stroke: black; stroke-linecap:round; stroke-width:0.25; stroke-dasharray:3,3;"/>
<line x1="15.000000" y1="15.000000" x2="20.000000" y2="15.000000"  style="stroke: black; stroke-linecap:round; stroke-width:0.25; stroke-dasharray:3,3;"/>
<line x1="39.350000" y1="15.000000" x2="371.900000" y2="15.000000"  style="stroke: black; stroke-linecap:round; stroke-width:0.25; stroke-dasharray:3,3;"/>
<text x="20.000000" y="17.000000" font-family="Arial" font-size="7">hand</text>
<line x1="373.900000" y1="45.000000" x2="376.900000" y2="46.000000"  transform="rotate(0.000000,376.900000,46.000000)" style="stroke: black; stroke-width:0.25;"/>
<line x1="373.900000" y1="47.000000" x2="376.900000" y2="46.000000"  transform="rotate(0.000000,376.900000,46.000000)" style="stroke: black; stroke-width:0.25;"/>
<line x1="201.700000" y1="46.000000" x2="205.700000" y2="46.000000"  style="stroke:black; stroke-linecap:round; stroke-width:0.25;"/>
<line x1="205.700000" y1="46.000000" x2="205.700000" y2="46.000000"  style="stroke:black; stroke-linecap:round; stroke-width:0.25;"/>
<line x1="205.700000" y1="46.000000" x2="209.700000" y2="46.000000"  style="stroke:black; stroke-linecap:round; stroke-width:0.25;"/>
<line x1="233.700000" y1="46.000000" x2="237.700000" y2="46.000000"  style="stroke:black; stroke-linecap:round; stroke-width:0.25;"/>
<line x1="237.700000" y1="46.000000" x2="237.700000" y2="46.000000"  style="stroke:black; stroke-linecap:round; stroke-width:0.25;"/>
<line x1="237.700000" y1="46.000000" x2="241.700000" y2="46.000000"  style="stroke:black; stroke-linecap:round; stroke-width:0.25;"/>
<line x1="344.900000" y1="46.000000" x2="348.900000" y2="46.000000"  style="stroke:black; stroke-linecap:round; stroke-width:0.25;"/>
<line x1="348.900000" y1="46.000000" x2="358.900000" y2="46.000000"  style="stroke:black; stroke-linecap:round; stroke-width:0.25;"/>
<line x1="358.900000" y1="46.000000" x2="358.900000" y2="46.000000"  style="stroke:black; stroke-linecap:round; stroke-width:0.25;"/>
<line x1="358.900000" y1="46.000000" x2="362.900000" y2="46.000000"  style="stroke:black; stroke-linecap:round; stroke-width:0.25;"/>
<line x1="362.900000" y1="46.000000" x2="366.900000" y2="46.000000"  style="stroke:black; stroke-linecap:round; stroke-width:0.25;"/>
<line x1="366.900000" y1="46.000000" x2="376.900000" y2="46.000000"  style="stroke:black; stroke-linecap:round; stroke-width:0.25;"/>
</svg>
