<?xml version="1.0"?>
<svg xmlns="http://www.w3.org/2000/svg" xmlns:xlink="http://www.w3.org/1999/xlink" viewBox="0 0 247.800000 152.000000" width="123.900000mm" height="76.000000mm" version="1.1">
<a xlink:href="harpe-0x7fc90b51e280.svg">
<rect x="1.000000" y="1.000000" width="246.800000" height="151.000000" rx="0" ry="0" style="stroke:none;fill:#cccccc;"/>
<rect x="0.000000" y="0.000000" width="246.800000" height="151.000000" rx="0" ry="0" style="stroke:none;fill:#ffffff;"/>
</a>
<text x="10.000000" y="7.000000" font-family="Arial" font-size="7"></text>
<rect x="71.000000" y="33.000000" width="24.000000" height="24.000000" rx="0" ry="0" style="stroke:none;fill:#cccccc;"/>
<rect x="70.000000" y="32.000000" width="24.000000" height="24.000000" rx="0" ry="0" style="stroke:none;fill:#f44800;"/>
<text x="82.000000" y="46.000000" font-family="Arial" font-size="7" text-anchor="middle" fill="#FFFFFF">1</text>
<circle cx="72.000000" cy="34.000000" r="1"/>
<rect x="71.000000" y="65.000000" width="24.000000" height="24.000000" rx="0" ry="0" style="stroke:none;fill:#cccccc;"/>
<rect x="70.000000" y="64.000000" width="24.000000" height="24.000000" rx="0" ry="0" style="stroke:none;fill:#f44800;"/>
<text x="82.000000" y="78.000000" font-family="Arial" font-size="7" text-anchor="middle" fill="#FFFFFF">0.5</text>
<circle cx="72.000000" cy="66.000000" r="1"/>
<rect x="111.000000" y="49.000000" width="24.000000" height="24.000000" rx="0" ry="0" style="stroke:none;fill:#cccccc;"/>
<rect x="110.000000" y="48.000000" width="24.000000" height="24.000000" rx="0" ry="0" style="stroke:none;fill:#4B71A1;"/>
<text x="122.000000" y="62.000000" font-family="Arial" font-size="7" text-anchor="middle" fill="#FFFFFF">-</text>
<circle cx="112.000000" cy="50.000000" r="1"/>
<line x1="107.000000" y1="55.000000" x2="110.000000" y2="56.000000"  transform="rotate(0.000000,110.000000,56.000000)" style="stroke: black; stroke-width:0.25;"/>
<line x1="107.000000" y1="57.000000" x2="110.000000" y2="56.000000"  transform="rotate(0.000000,110.000000,56.000000)" style="stroke: black; stroke-width:0.25;"/>
<line x1="107.000000" y1="63.000000" x2="110.000000" y2="64.000000"  transform="rotate(0.000000,110.000000,64.000000)" style="stroke: black; stroke-width:0.25;"/>
<line x1="107.000000" y1="65.000000" x2="110.000000" y2="64.000000"  transform="rotate(0.000000,110.000000,64.000000)" style="stroke: black; stroke-width:0.25;"/>
<rect x="143.000000" y="49.000000" width="25.800000" height="24.000000" rx="0" ry="0" style="stroke:none;fill:#cccccc;"/>
<rect x="142.000000" y="48.000000" width="25.800000" height="24.000000" rx="0" ry="0" style="stroke:none;fill:#4B71A1;"/>
<text x="154.900000" y="62.000000" font-family="Arial" font-size="7" text-anchor="middle" fill="#FFFFFF">sqrt</text>
<circle cx="144.000000" cy="50.000000" r="1"/>
<line x1="139.000000" y1="59.000000" x2="142.000000" y2="60.000000"  transform="rotate(0.000000,142.000000,60.000000)" style="stroke: black; stroke-width:0.25;"/>
<line x1="139.000000" y1="61.000000" x2="142.000000" y2="60.000000"  transform="rotate(0.000000,142.000000,60.000000)" style="stroke: black; stroke-width:0.25;"/>
<rect x="184.800000" y="45.000000" width="24.000000" height="24.000000" rx="0" ry="0" style="stroke:none;fill:#cccccc;"/>
<rect x="183.800000" y="44.000000" width="24.000000" height="24.000000" rx="0" ry="0" style="stroke:none;fill:#4B71A1;"/>
<text x="195.800000" y="58.000000" font-family="Arial" font-size="7" text-anchor="middle" fill="#FFFFFF">*</text>
<circle cx="185.800000" cy="46.000000" r="1"/>
<line x1="180.800000" y1="51.000000" x2="183.800000" y2="52.000000"  transform="rotate(0.000000,183.800000,52.000000)" style="stroke: black; stroke-width:0.25;"/>
<line x1="180.800000" y1="53.000000" x2="183.800000" y2="52.000000"  transform="rotate(0.000000,183.800000,52.000000)" style="stroke: black; stroke-width:0.25;"/>
<line x1="180.800000" y1="59.000000" x2="183.800000" y2="60.000000"  transform="rotate(0.000000,183.800000,60.000000)" style="stroke: black; stroke-width:0.25;"/>
<line x1="180.800000" y1="61.000000" x2="183.800000" y2="60.000000"  transform="rotate(0.000000,183.800000,60.000000)" style="stroke: black; stroke-width:0.25;"/>
<rect x="91.000000" y="105.000000" width="24.000000" height="24.000000" rx="0" ry="0" style="stroke:none;fill:#cccccc;"/>
<rect x="90.000000" y="104.000000" width="24.000000" height="24.000000" rx="0" ry="0" style="stroke:none;fill:#f44800;"/>
<text x="102.000000" y="118.000000" font-family="Arial" font-size="7" text-anchor="middle" fill="#FFFFFF">0.5</text>
<circle cx="92.000000" cy="106.000000" r="1"/>
<rect x="123.000000" y="105.000000" width="25.800000" height="24.000000" rx="0" ry="0" style="stroke:none;fill:#cccccc;"/>
<rect x="122.000000" y="104.000000" width="25.800000" height="24.000000" rx="0" ry="0" style="stroke:none;fill:#4B71A1;"/>
<text x="134.900000" y="118.000000" font-family="Arial" font-size="7" text-anchor="middle" fill="#FFFFFF">sqrt</text>
<circle cx="124.000000" cy="106.000000" r="1"/>
<line x1="119.000000" y1="115.000000" x2="122.000000" y2="116.000000"  transform="rotate(0.000000,122.000000,116.000000)" style="stroke: black; stroke-width:0.25;"/>
<line x1="119.000000" y1="117.000000" x2="122.000000" y2="116.000000"  transform="rotate(0.000000,122.000000,116.000000)" style="stroke: black; stroke-width:0.25;"/>
<rect x="164.800000" y="101.000000" width="24.000000" height="24.000000" rx="0" ry="0" style="stroke:none;fill:#cccccc;"/>
<rect x="163.800000" y="100.000000" width="24.000000" height="24.000000" rx="0" ry="0" style="stroke:none;fill:#4B71A1;"/>
<text x="175.800000" y="114.000000" font-family="Arial" font-size="7" text-anchor="middle" fill="#FFFFFF">*</text>
<circle cx="165.800000" cy="102.000000" r="1"/>
<line x1="160.800000" y1="107.000000" x2="163.800000" y2="108.000000"  transform="rotate(0.000000,163.800000,108.000000)" style="stroke: black; stroke-width:0.25;"/>
<line x1="160.800000" y1="109.000000" x2="163.800000" y2="108.000000"  transform="rotate(0.000000,163.800000,108.000000)" style="stroke: black; stroke-width:0.25;"/>
<line x1="160.800000" y1="115.000000" x2="163.800000" y2="116.000000"  transform="rotate(0.000000,163.800000,116.000000)" style="stroke: black; stroke-width:0.25;"/>
<line x1="160.800000" y1="117.000000" x2="163.800000" y2="116.000000"  transform="rotate(0.000000,163.800000,116.000000)" style="stroke: black; stroke-width:0.25;"/>
<line x1="15.000000" y1="15.000000" x2="15.000000" y2="137.000000"  style="stroke: black; stroke-linecap:round; stroke-width:0.25; stroke-dasharray:3,3;"/>
<line x1="15.000000" y1="137.000000" x2="232.800000" y2="137.000000"  style="stroke: black; stroke-linecap:round; stroke-width:0.25; stroke-dasharray:3,3;"/>
<line x1="232.800000" y1="137.000000" x2="232.800000" y2="15.000000"  style="stroke: black; stroke-linecap:round; stroke-width:0.25; stroke-dasharray:3,3;"/>
<line x1="15.000000" y1="15.000000" x2="20.000000" y2="15.000000"  style="stroke: black; stroke-linecap:round; stroke-width:0.25; stroke-dasharray:3,3;"/>
<line x1="55.475000" y1="15.000000" x2="232.800000" y2="15.000000"  style="stroke: black; stroke-linecap:round; stroke-width:0.25; stroke-dasharray:3,3;"/>
<text x="20.000000" y="17.000000" font-family="Arial" font-size="7">pan(0.5f)</text>
<line x1="234.800000" y1="71.000000" x2="237.800000" y2="72.000000"  transform="rotate(0.000000,237.800000,72.000000)" style="stroke: black; stroke-width:0.25;"/>
<line x1="234.800000" y1="73.000000" x2="237.800000" y2="72.000000"  transform="rotate(0.000000,237.800000,72.000000)" style="stroke: black; stroke-width:0.25;"/>
<line x1="234.800000" y1="79.000000" x2="237.800000" y2="80.000000"  transform="rotate(0.000000,237.800000,80.000000)" style="stroke: black; stroke-width:0.25;"/>
<line x1="234.800000" y1="81.000000" x2="237.800000" y2="80.000000"  transform="rotate(0.000000,237.800000,80.000000)" style="stroke: black; stroke-width:0.25;"/>
<line x1="10.000000" y1="76.000000" x2="20.000000" y2="76.000000"  style="stroke:black; stroke-linecap:round; stroke-width:0.25;"/>
<line x1="20.000000" y1="76.000000" x2="24.000000" y2="76.000000"  style="stroke:black; stroke-linecap:round; stroke-width:0.25;"/>
<line x1="24.000000" y1="76.000000" x2="28.000000" y2="76.000000"  style="stroke:black; stroke-linecap:round; stroke-width:0.25;"/>
<line x1="28.000000" y1="76.000000" x2="28.000000" y2="76.000000"  style="stroke:black; stroke-linecap:round; stroke-width:0.25;"/>
<line x1="28.000000" y1="76.000000" x2="32.000000" y2="76.000000"  style="stroke:black; stroke-linecap:round; stroke-width:0.25;"/>
<line x1="32.000000" y1="76.000000" x2="36.000000" y2="76.000000"  style="stroke:black; stroke-linecap:round; stroke-width:0.25;"/>
<line x1="36.000000" y1="76.000000" x2="66.000000" y2="24.000000"  style="stroke:black; stroke-linecap:round; stroke-width:0.25;"/>
<line x1="36.000000" y1="76.000000" x2="66.000000" y2="96.000000"  style="stroke:black; stroke-linecap:round; stroke-width:0.25;"/>
<line x1="66.000000" y1="24.000000" x2="118.900000" y2="24.000000"  style="stroke:black; stroke-linecap:round; stroke-width:0.25;"/>
<line x1="66.000000" y1="96.000000" x2="86.000000" y2="96.000000"  style="stroke:black; stroke-linecap:round; stroke-width:0.25;"/>
<line x1="86.000000" y1="96.000000" x2="118.900000" y2="96.000000"  style="stroke:black; stroke-linecap:round; stroke-width:0.25;"/>
<line x1="94.000000" y1="44.000000" x2="98.000000" y2="44.000000"  style="stroke:black; stroke-linecap:round; stroke-width:0.25;"/>
<line x1="94.000000" y1="76.000000" x2="98.000000" y2="76.000000"  style="stroke:black; stroke-linecap:round; stroke-width:0.25;"/>
<line x1="98.000000" y1="44.000000" x2="106.000000" y2="44.000000"  style="stroke:black; stroke-linecap:round; stroke-width:0.25;"/>
<line x1="98.000000" y1="64.000000" x2="106.000000" y2="64.000000"  style="stroke:black; stroke-linecap:round; stroke-width:0.25;"/>
<line x1="98.000000" y1="76.000000" x2="98.000000" y2="64.000000"  style="stroke:black; stroke-linecap:round; stroke-width:0.25;"/>
<line x1="98.000000" y1="76.000000" x2="98.000000" y2="76.000000"  style="stroke:black; stroke-linecap:round; stroke-width:0.25;"/>
<line x1="106.000000" y1="44.000000" x2="106.000000" y2="56.000000"  style="stroke:black; stroke-linecap:round; stroke-width:0.25;"/>
<line x1="106.000000" y1="56.000000" x2="106.000000" y2="56.000000"  style="stroke:black; stroke-linecap:round; stroke-width:0.25;"/>
<line x1="106.000000" y1="56.000000" x2="110.000000" y2="56.000000"  style="stroke:black; stroke-linecap:round; stroke-width:0.25;"/>
<line x1="106.000000" y1="64.000000" x2="110.000000" y2="64.000000"  style="stroke:black; stroke-linecap:round; stroke-width:0.25;"/>
<line x1="114.000000" y1="116.000000" x2="118.000000" y2="116.000000"  style="stroke:black; stroke-linecap:round; stroke-width:0.25;"/>
<line x1="118.000000" y1="116.000000" x2="118.000000" y2="116.000000"  style="stroke:black; stroke-linecap:round; stroke-width:0.25;"/>
<line x1="118.000000" y1="116.000000" x2="122.000000" y2="116.000000"  style="stroke:black; stroke-linecap:round; stroke-width:0.25;"/>
<line x1="118.900000" y1="24.000000" x2="171.800000" y2="24.000000"  style="stroke:black; stroke-linecap:round; stroke-width:0.25;"/>
<line x1="118.900000" y1="96.000000" x2="151.800000" y2="96.000000"  style="stroke:black; stroke-linecap:round; stroke-width:0.25;"/>
<line x1="134.000000" y1="60.000000" x2="138.000000" y2="60.000000"  style="stroke:black; stroke-linecap:round; stroke-width:0.25;"/>
<line x1="138.000000" y1="60.000000" x2="138.000000" y2="60.000000"  style="stroke:black; stroke-linecap:round; stroke-width:0.25;"/>
<line x1="138.000000" y1="60.000000" x2="142.000000" y2="60.000000"  style="stroke:black; stroke-linecap:round; stroke-width:0.25;"/>
<line x1="147.800000" y1="116.000000" x2="151.800000" y2="116.000000"  style="stroke:black; stroke-linecap:round; stroke-width:0.25;"/>
<line x1="151.800000" y1="96.000000" x2="159.800000" y2="96.000000"  style="stroke:black; stroke-linecap:round; stroke-width:0.25;"/>
<line x1="151.800000" y1="116.000000" x2="159.800000" y2="116.000000"  style="stroke:black; stroke-linecap:round; stroke-width:0.25;"/>
<line x1="159.800000" y1="96.000000" x2="159.800000" y2="108.000000"  style="stroke:black; stroke-linecap:round; stroke-width:0.25;"/>
<line x1="159.800000" y1="108.000000" x2="159.800000" y2="108.000000"  style="stroke:black; stroke-linecap:round; stroke-width:0.25;"/>
<line x1="159.800000" y1="108.000000" x2="163.800000" y2="108.000000"  style="stroke:black; stroke-linecap:round; stroke-width:0.25;"/>
<line x1="159.800000" y1="116.000000" x2="163.800000" y2="116.000000"  style="stroke:black; stroke-linecap:round; stroke-width:0.25;"/>
<line x1="167.800000" y1="60.000000" x2="171.800000" y2="60.000000"  style="stroke:black; stroke-linecap:round; stroke-width:0.25;"/>
<line x1="171.800000" y1="24.000000" x2="179.800000" y2="24.000000"  style="stroke:black; stroke-linecap:round; stroke-width:0.25;"/>
<line x1="171.800000" y1="60.000000" x2="179.800000" y2="60.000000"  style="stroke:black; stroke-linecap:round; stroke-width:0.25;"/>
<line x1="179.800000" y1="24.000000" x2="179.800000" y2="52.000000"  style="stroke:black; stroke-linecap:round; stroke-width:0.25;"/>
<line x1="179.800000" y1="52.000000" x2="179.800000" y2="52.000000"  style="stroke:black; stroke-linecap:round; stroke-width:0.25;"/>
<line x1="179.800000" y1="52.000000" x2="183.800000" y2="52.000000"  style="stroke:black; stroke-linecap:round; stroke-width:0.25;"/>
<line x1="179.800000" y1="60.000000" x2="183.800000" y2="60.000000"  style="stroke:black; stroke-linecap:round; stroke-width:0.25;"/>
<line x1="187.800000" y1="112.000000" x2="191.800000" y2="112.000000"  style="stroke:black; stroke-linecap:round; stroke-width:0.25;"/>
<line x1="191.800000" y1="112.000000" x2="211.800000" y2="112.000000"  style="stroke:black; stroke-linecap:round; stroke-width:0.25;"/>
<line x1="207.800000" y1="56.000000" x2="211.800000" y2="56.000000"  style="stroke:black; stroke-linecap:round; stroke-width:0.25;"/>
<line x1="211.800000" y1="56.000000" x2="219.800000" y2="56.000000"  style="stroke:black; stroke-linecap:round; stroke-width:0.25;"/>
<line x1="211.800000" y1="80.000000" x2="219.800000" y2="80.000000"  style="stroke:black; stroke-linecap:round; stroke-width:0.25;"/>
<line x1="211.800000" y1="112.000000" x2="211.800000" y2="80.000000"  style="stroke:black; stroke-linecap:round; stroke-width:0.25;"/>
<line x1="211.800000" y1="112.000000" x2="211.800000" y2="112.000000"  style="stroke:black; stroke-linecap:round; stroke-width:0.25;"/>
<line x1="219.800000" y1="56.000000" x2="219.800000" y2="72.000000"  style="stroke:black; stroke-linecap:round; stroke-width:0.25;"/>
<line x1="219.800000" y1="72.000000" x2="219.800000" y2="72.000000"  style="stroke:black; stroke-linecap:round; stroke-width:0.25;"/>
<line x1="219.800000" y1="72.000000" x2="223.800000" y2="72.000000"  style="stroke:black; stroke-linecap:round; stroke-width:0.25;"/>
<line x1="219.800000" y1="80.000000" x2="223.800000" y2="80.000000"  style="stroke:black; stroke-linecap:round; stroke-width:0.25;"/>
<line x1="223.800000" y1="72.000000" x2="227.800000" y2="72.000000"  style="stroke:black; stroke-linecap:round; stroke-width:0.25;"/>
<line x1="223.800000" y1="80.000000" x2="227.800000" y2="80.000000"  style="stroke:black; stroke-linecap:round; stroke-width:0.25;"/>
<line x1="227.800000" y1="72.000000" x2="237.800000" y2="72.000000"  style="stroke:black; stroke-linecap:round; stroke-width:0.25;"/>
<line x1="227.800000" y1="80.000000" x2="237.800000" y2="80.000000"  style="stroke:black; stroke-linecap:round; stroke-width:0.25;"/>
</svg>
