<?xml version="1.0"?>
<svg xmlns="http://www.w3.org/2000/svg" xmlns:xlink="http://www.w3.org/1999/xlink" viewBox="0 0 262.500000 152.000000" width="131.250000mm" height="76.000000mm" version="1.1">
<a xlink:href="harpe-0x7fc90b51e280.svg">
<rect x="1.000000" y="1.000000" width="261.500000" height="151.000000" rx="0" ry="0" style="stroke:none;fill:#cccccc;"/>
<rect x="0.000000" y="0.000000" width="261.500000" height="151.000000" rx="0" ry="0" style="stroke:none;fill:#ffffff;"/>
</a>
<text x="10.000000" y="7.000000" font-family="Arial" font-size="7"></text>
<rect x="78.350000" y="33.000000" width="24.000000" height="24.000000" rx="0" ry="0" style="stroke:none;fill:#cccccc;"/>
<rect x="77.350000" y="32.000000" width="24.000000" height="24.000000" rx="0" ry="0" style="stroke:none;fill:#f44800;"/>
<text x="89.350000" y="46.000000" font-family="Arial" font-size="7" text-anchor="middle" fill="#FFFFFF">1</text>
<circle cx="79.350000" cy="34.000000" r="1"/>
<rect x="71.000000" y="65.000000" width="38.700000" height="24.000000" rx="0" ry="0" style="stroke:none;fill:#cccccc;"/>
<rect x="70.000000" y="64.000000" width="38.700000" height="24.000000" rx="0" ry="0" style="stroke:none;fill:#f44800;"/>
<text x="89.350000" y="78.000000" font-family="Arial" font-size="7" text-anchor="middle" fill="#FFFFFF">0.409091</text>
<circle cx="72.000000" cy="66.000000" r="1"/>
<rect x="125.700000" y="49.000000" width="24.000000" height="24.000000" rx="0" ry="0" style="stroke:none;fill:#cccccc;"/>
<rect x="124.700000" y="48.000000" width="24.000000" height="24.000000" rx="0" ry="0" style="stroke:none;fill:#4B71A1;"/>
<text x="136.700000" y="62.000000" font-family="Arial" font-size="7" text-anchor="middle" fill="#FFFFFF">-</text>
<circle cx="126.700000" cy="50.000000" r="1"/>
<line x1="121.700000" y1="55.000000" x2="124.700000" y2="56.000000"  transform="rotate(0.000000,124.700000,56.000000)" style="stroke: black; stroke-width:0.25;"/>
<line x1="121.700000" y1="57.000000" x2="124.700000" y2="56.000000"  transform="rotate(0.000000,124.700000,56.000000)" style="stroke: black; stroke-width:0.25;"/>
<line x1="121.700000" y1="63.000000" x2="124.700000" y2="64.000000"  transform="rotate(0.000000,124.700000,64.000000)" style="stroke: black; stroke-width:0.25;"/>
<line x1="121.700000" y1="65.000000" x2="124.700000" y2="64.000000"  transform="rotate(0.000000,124.700000,64.000000)" style="stroke: black; stroke-width:0.25;"/>
<rect x="157.700000" y="49.000000" width="25.800000" height="24.000000" rx="0" ry="0" style="stroke:none;fill:#cccccc;"/>
<rect x="156.700000" y="48.000000" width="25.800000" height="24.000000" rx="0" ry="0" style="stroke:none;fill:#4B71A1;"/>
<text x="169.600000" y="62.000000" font-family="Arial" font-size="7" text-anchor="middle" fill="#FFFFFF">sqrt</text>
<circle cx="158.700000" cy="50.000000" r="1"/>
<line x1="153.700000" y1="59.000000" x2="156.700000" y2="60.000000"  transform="rotate(0.000000,156.700000,60.000000)" style="stroke: black; stroke-width:0.25;"/>
<line x1="153.700000" y1="61.000000" x2="156.700000" y2="60.000000"  transform="rotate(0.000000,156.700000,60.000000)" style="stroke: black; stroke-width:0.25;"/>
<rect x="199.500000" y="45.000000" width="24.000000" height="24.000000" rx="0" ry="0" style="stroke:none;fill:#cccccc;"/>
<rect x="198.500000" y="44.000000" width="24.000000" height="24.000000" rx="0" ry="0" style="stroke:none;fill:#4B71A1;"/>
<text x="210.500000" y="58.000000" font-family="Arial" font-size="7" text-anchor="middle" fill="#FFFFFF">*</text>
<circle cx="200.500000" cy="46.000000" r="1"/>
<line x1="195.500000" y1="51.000000" x2="198.500000" y2="52.000000"  transform="rotate(0.000000,198.500000,52.000000)" style="stroke: black; stroke-width:0.25;"/>
<line x1="195.500000" y1="53.000000" x2="198.500000" y2="52.000000"  transform="rotate(0.000000,198.500000,52.000000)" style="stroke: black; stroke-width:0.25;"/>
<line x1="195.500000" y1="59.000000" x2="198.500000" y2="60.000000"  transform="rotate(0.000000,198.500000,60.000000)" style="stroke: black; stroke-width:0.25;"/>
<line x1="195.500000" y1="61.000000" x2="198.500000" y2="60.000000"  transform="rotate(0.000000,198.500000,60.000000)" style="stroke: black; stroke-width:0.25;"/>
<rect x="91.000000" y="105.000000" width="38.700000" height="24.000000" rx="0" ry="0" style="stroke:none;fill:#cccccc;"/>
<rect x="90.000000" y="104.000000" width="38.700000" height="24.000000" rx="0" ry="0" style="stroke:none;fill:#f44800;"/>
<text x="109.350000" y="118.000000" font-family="Arial" font-size="7" text-anchor="middle" fill="#FFFFFF">0.409091</text>
<circle cx="92.000000" cy="106.000000" r="1"/>
<rect x="137.700000" y="105.000000" width="25.800000" height="24.000000" rx="0" ry="0" style="stroke:none;fill:#cccccc;"/>
<rect x="136.700000" y="104.000000" width="25.800000" height="24.000000" rx="0" ry="0" style="stroke:none;fill:#4B71A1;"/>
<text x="149.600000" y="118.000000" font-family="Arial" font-size="7" text-anchor="middle" fill="#FFFFFF">sqrt</text>
<circle cx="138.700000" cy="106.000000" r="1"/>
<line x1="133.700000" y1="115.000000" x2="136.700000" y2="116.000000"  transform="rotate(0.000000,136.700000,116.000000)" style="stroke: black; stroke-width:0.25;"/>
<line x1="133.700000" y1="117.000000" x2="136.700000" y2="116.000000"  transform="rotate(0.000000,136.700000,116.000000)" style="stroke: black; stroke-width:0.25;"/>
<rect x="179.500000" y="101.000000" width="24.000000" height="24.000000" rx="0" ry="0" style="stroke:none;fill:#cccccc;"/>
<rect x="178.500000" y="100.000000" width="24.000000" height="24.000000" rx="0" ry="0" style="stroke:none;fill:#4B71A1;"/>
<text x="190.500000" y="114.000000" font-family="Arial" font-size="7" text-anchor="middle" fill="#FFFFFF">*</text>
<circle cx="180.500000" cy="102.000000" r="1"/>
<line x1="175.500000" y1="107.000000" x2="178.500000" y2="108.000000"  transform="rotate(0.000000,178.500000,108.000000)" style="stroke: black; stroke-width:0.25;"/>
<line x1="175.500000" y1="109.000000" x2="178.500000" y2="108.000000"  transform="rotate(0.000000,178.500000,108.000000)" style="stroke: black; stroke-width:0.25;"/>
<line x1="175.500000" y1="115.000000" x2="178.500000" y2="116.000000"  transform="rotate(0.000000,178.500000,116.000000)" style="stroke: black; stroke-width:0.25;"/>
<line x1="175.500000" y1="117.000000" x2="178.500000" y2="116.000000"  transform="rotate(0.000000,178.500000,116.000000)" style="stroke: black; stroke-width:0.25;"/>
<line x1="15.000000" y1="15.000000" x2="15.000000" y2="137.000000"  style="stroke: black; stroke-linecap:round; stroke-width:0.25; stroke-dasharray:3,3;"/>
<line x1="15.000000" y1="137.000000" x2="247.500000" y2="137.000000"  style="stroke: black; stroke-linecap:round; stroke-width:0.25; stroke-dasharray:3,3;"/>
<line x1="247.500000" y1="137.000000" x2="247.500000" y2="15.000000"  style="stroke: black; stroke-linecap:round; stroke-width:0.25; stroke-dasharray:3,3;"/>
<line x1="15.000000" y1="15.000000" x2="20.000000" y2="15.000000"  style="stroke: black; stroke-linecap:round; stroke-width:0.25; stroke-dasharray:3,3;"/>
<line x1="103.850000" y1="15.000000" x2="247.500000" y2="15.000000"  style="stroke: black; stroke-linecap:round; stroke-width:0.25; stroke-dasharray:3,3;"/>
<text x="20.000000" y="17.000000" font-family="Arial" font-size="7">pan(0.4090909090909091f)</text>
<line x1="249.500000" y1="71.000000" x2="252.500000" y2="72.000000"  transform="rotate(0.000000,252.500000,72.000000)" style="stroke: black; stroke-width:0.25;"/>
<line x1="249.500000" y1="73.000000" x2="252.500000" y2="72.000000"  transform="rotate(0.000000,252.500000,72.000000)" style="stroke: black; stroke-width:0.25;"/>
<line x1="249.500000" y1="79.000000" x2="252.500000" y2="80.000000"  transform="rotate(0.000000,252.500000,80.000000)" style="stroke: black; stroke-width:0.25;"/>
<line x1="249.500000" y1="81.000000" x2="252.500000" y2="80.000000"  transform="rotate(0.000000,252.500000,80.000000)" style="stroke: black; stroke-width:0.25;"/>
<line x1="10.000000" y1="76.000000" x2="20.000000" y2="76.000000"  style="stroke:black; stroke-linecap:round; stroke-width:0.25;"/>
<line x1="20.000000" y1="76.000000" x2="24.000000" y2="76.000000"  style="stroke:black; stroke-linecap:round; stroke-width:0.25;"/>
<line x1="24.000000" y1="76.000000" x2="28.000000" y2="76.000000"  style="stroke:black; stroke-linecap:round; stroke-width:0.25;"/>
<line x1="28.000000" y1="76.000000" x2="28.000000" y2="76.000000"  style="stroke:black; stroke-linecap:round; stroke-width:0.25;"/>
<line x1="28.000000" y1="76.000000" x2="32.000000" y2="76.000000"  style="stroke:black; stroke-linecap:round; stroke-width:0.25;"/>
<line x1="32.000000" y1="76.000000" x2="36.000000" y2="76.000000"  style="stroke:black; stroke-linecap:round; stroke-width:0.25;"/>
<line x1="36.000000" y1="76.000000" x2="66.000000" y2="24.000000"  style="stroke:black; stroke-linecap:round; stroke-width:0.25;"/>
<line x1="36.000000" y1="76.000000" x2="66.000000" y2="96.000000"  style="stroke:black; stroke-linecap:round; stroke-width:0.25;"/>
<line x1="66.000000" y1="24.000000" x2="126.250000" y2="24.000000"  style="stroke:black; stroke-linecap:round; stroke-width:0.25;"/>
<line x1="66.000000" y1="96.000000" x2="86.000000" y2="96.000000"  style="stroke:black; stroke-linecap:round; stroke-width:0.25;"/>
<line x1="86.000000" y1="96.000000" x2="126.250000" y2="96.000000"  style="stroke:black; stroke-linecap:round; stroke-width:0.25;"/>
<line x1="101.350000" y1="44.000000" x2="105.350000" y2="44.000000"  style="stroke:black; stroke-linecap:round; stroke-width:0.25;"/>
<line x1="105.350000" y1="44.000000" x2="112.700000" y2="44.000000"  style="stroke:black; stroke-linecap:round; stroke-width:0.25;"/>
<line x1="108.700000" y1="76.000000" x2="112.700000" y2="76.000000"  style="stroke:black; stroke-linecap:round; stroke-width:0.25;"/>
<line x1="112.700000" y1="44.000000" x2="120.700000" y2="44.000000"  style="stroke:black; stroke-linecap:round; stroke-width:0.25;"/>
<line x1="112.700000" y1="64.000000" x2="120.700000" y2="64.000000"  style="stroke:black; stroke-linecap:round; stroke-width:0.25;"/>
<line x1="112.700000" y1="76.000000" x2="112.700000" y2="64.000000"  style="stroke:black; stroke-linecap:round; stroke-width:0.25;"/>
<line x1="112.700000" y1="76.000000" x2="112.700000" y2="76.000000"  style="stroke:black; stroke-linecap:round; stroke-width:0.25;"/>
<line x1="120.700000" y1="44.000000" x2="120.700000" y2="56.000000"  style="stroke:black; stroke-linecap:round; stroke-width:0.25;"/>
<line x1="120.700000" y1="56.000000" x2="120.700000" y2="56.000000"  style="stroke:black; stroke-linecap:round; stroke-width:0.25;"/>
<line x1="120.700000" y1="56.000000" x2="124.700000" y2="56.000000"  style="stroke:black; stroke-linecap:round; stroke-width:0.25;"/>
<line x1="120.700000" y1="64.000000" x2="124.700000" y2="64.000000"  style="stroke:black; stroke-linecap:round; stroke-width:0.25;"/>
<line x1="126.250000" y1="24.000000" x2="186.500000" y2="24.000000"  style="stroke:black; stroke-linecap:round; stroke-width:0.25;"/>
<line x1="126.250000" y1="96.000000" x2="166.500000" y2="96.000000"  style="stroke:black; stroke-linecap:round; stroke-width:0.25;"/>
<line x1="128.700000" y1="116.000000" x2="132.700000" y2="116.000000"  style="stroke:black; stroke-linecap:round; stroke-width:0.25;"/>
<line x1="132.700000" y1="116.000000" x2="132.700000" y2="116.000000"  style="stroke:black; stroke-linecap:round; stroke-width:0.25;"/>
<line x1="132.700000" y1="116.000000" x2="136.700000" y2="116.000000"  style="stroke:black; stroke-linecap:round; stroke-width:0.25;"/>
<line x1="148.700000" y1="60.000000" x2="152.700000" y2="60.000000"  style="stroke:black; stroke-linecap:round; stroke-width:0.25;"/>
<line x1="152.700000" y1="60.000000" x2="152.700000" y2="60.000000"  style="stroke:black; stroke-linecap:round; stroke-width:0.25;"/>
<line x1="152.700000" y1="60.000000" x2="156.700000" y2="60.000000"  style="stroke:black; stroke-linecap:round; stroke-width:0.25;"/>
<line x1="162.500000" y1="116.000000" x2="166.500000" y2="116.000000"  style="stroke:black; stroke-linecap:round; stroke-width:0.25;"/>
<line x1="166.500000" y1="96.000000" x2="174.500000" y2="96.000000"  style="stroke:black; stroke-linecap:round; stroke-width:0.25;"/>
<line x1="166.500000" y1="116.000000" x2="174.500000" y2="116.000000"  style="stroke:black; stroke-linecap:round; stroke-width:0.25;"/>
<line x1="174.500000" y1="96.000000" x2="174.500000" y2="108.000000"  style="stroke:black; stroke-linecap:round; stroke-width:0.25;"/>
<line x1="174.500000" y1="108.000000" x2="174.500000" y2="108.000000"  style="stroke:black; stroke-linecap:round; stroke-width:0.25;"/>
<line x1="174.500000" y1="108.000000" x2="178.500000" y2="108.000000"  style="stroke:black; stroke-linecap:round; stroke-width:0.25;"/>
<line x1="174.500000" y1="116.000000" x2="178.500000" y2="116.000000"  style="stroke:black; stroke-linecap:round; stroke-width:0.25;"/>
<line x1="182.500000" y1="60.000000" x2="186.500000" y2="60.000000"  style="stroke:black; stroke-linecap:round; stroke-width:0.25;"/>
<line x1="186.500000" y1="24.000000" x2="194.500000" y2="24.000000"  style="stroke:black; stroke-linecap:round; stroke-width:0.25;"/>
<line x1="186.500000" y1="60.000000" x2="194.500000" y2="60.000000"  style="stroke:black; stroke-linecap:round; stroke-width:0.25;"/>
<line x1="194.500000" y1="24.000000" x2="194.500000" y2="52.000000"  style="stroke:black; stroke-linecap:round; stroke-width:0.25;"/>
<line x1="194.500000" y1="52.000000" x2="194.500000" y2="52.000000"  style="stroke:black; stroke-linecap:round; stroke-width:0.25;"/>
<line x1="194.500000" y1="52.000000" x2="198.500000" y2="52.000000"  style="stroke:black; stroke-linecap:round; stroke-width:0.25;"/>
<line x1="194.500000" y1="60.000000" x2="198.500000" y2="60.000000"  style="stroke:black; stroke-linecap:round; stroke-width:0.25;"/>
<line x1="202.500000" y1="112.000000" x2="206.500000" y2="112.000000"  style="stroke:black; stroke-linecap:round; stroke-width:0.25;"/>
<line x1="206.500000" y1="112.000000" x2="226.500000" y2="112.000000"  style="stroke:black; stroke-linecap:round; stroke-width:0.25;"/>
<line x1="222.500000" y1="56.000000" x2="226.500000" y2="56.000000"  style="stroke:black; stroke-linecap:round; stroke-width:0.25;"/>
<line x1="226.500000" y1="56.000000" x2="234.500000" y2="56.000000"  style="stroke:black; stroke-linecap:round; stroke-width:0.25;"/>
<line x1="226.500000" y1="80.000000" x2="234.500000" y2="80.000000"  style="stroke:black; stroke-linecap:round; stroke-width:0.25;"/>
<line x1="226.500000" y1="112.000000" x2="226.500000" y2="80.000000"  style="stroke:black; stroke-linecap:round; stroke-width:0.25;"/>
<line x1="226.500000" y1="112.000000" x2="226.500000" y2="112.000000"  style="stroke:black; stroke-linecap:round; stroke-width:0.25;"/>
<line x1="234.500000" y1="56.000000" x2="234.500000" y2="72.000000"  style="stroke:black; stroke-linecap:round; stroke-width:0.25;"/>
<line x1="234.500000" y1="72.000000" x2="234.500000" y2="72.000000"  style="stroke:black; stroke-linecap:round; stroke-width:0.25;"/>
<line x1="234.500000" y1="72.000000" x2="238.500000" y2="72.000000"  style="stroke:black; stroke-linecap:round; stroke-width:0.25;"/>
<line x1="234.500000" y1="80.000000" x2="238.500000" y2="80.000000"  style="stroke:black; stroke-linecap:round; stroke-width:0.25;"/>
<line x1="238.500000" y1="72.000000" x2="242.500000" y2="72.000000"  style="stroke:black; stroke-linecap:round; stroke-width:0.25;"/>
<line x1="238.500000" y1="80.000000" x2="242.500000" y2="80.000000"  style="stroke:black; stroke-linecap:round; stroke-width:0.25;"/>
<line x1="242.500000" y1="72.000000" x2="252.500000" y2="72.000000"  style="stroke:black; stroke-linecap:round; stroke-width:0.25;"/>
<line x1="242.500000" y1="80.000000" x2="252.500000" y2="80.000000"  style="stroke:black; stroke-linecap:round; stroke-width:0.25;"/>
</svg>
