<?xml version="1.0"?>
<svg xmlns="http://www.w3.org/2000/svg" xmlns:xlink="http://www.w3.org/1999/xlink" viewBox="0 0 254.700000 152.000000" width="127.350000mm" height="76.000000mm" version="1.1">
<a xlink:href="string-0x7fc90b3be570.svg">
<rect x="1.000000" y="1.000000" width="253.700000" height="151.000000" rx="0" ry="0" style="stroke:none;fill:#cccccc;"/>
<rect x="0.000000" y="0.000000" width="253.700000" height="151.000000" rx="0" ry="0" style="stroke:none;fill:#ffffff;"/>
</a>
<text x="10.000000" y="7.000000" font-family="Arial" font-size="7"></text>
<rect x="49.000000" y="85.000000" width="24.000000" height="24.000000" rx="0" ry="0" style="stroke:none;fill:#cccccc;"/>
<rect x="48.000000" y="84.000000" width="24.000000" height="24.000000" rx="0" ry="0" style="stroke:none;fill:#4B71A1;"/>
<text x="60.000000" y="98.000000" font-family="Arial" font-size="7" text-anchor="middle" fill="#FFFFFF">+</text>
<circle cx="50.000000" cy="86.000000" r="1"/>
<line x1="45.000000" y1="91.000000" x2="48.000000" y2="92.000000"  transform="rotate(0.000000,48.000000,92.000000)" style="stroke: black; stroke-width:0.25;"/>
<line x1="45.000000" y1="93.000000" x2="48.000000" y2="92.000000"  transform="rotate(0.000000,48.000000,92.000000)" style="stroke: black; stroke-width:0.25;"/>
<line x1="45.000000" y1="99.000000" x2="48.000000" y2="100.000000"  transform="rotate(0.000000,48.000000,100.000000)" style="stroke: black; stroke-width:0.25;"/>
<line x1="45.000000" y1="101.000000" x2="48.000000" y2="100.000000"  transform="rotate(0.000000,48.000000,100.000000)" style="stroke: black; stroke-width:0.25;"/>
<rect x="89.000000" y="73.000000" width="38.700000" height="24.000000" rx="0" ry="0" style="stroke:none;fill:#cccccc;"/>
<rect x="88.000000" y="72.000000" width="38.700000" height="24.000000" rx="0" ry="0" style="stroke:none;fill:#f44800;"/>
<text x="107.350000" y="86.000000" font-family="Arial" font-size="7" text-anchor="middle" fill="#FFFFFF">50.1136</text>
<circle cx="90.000000" cy="74.000000" r="1"/>
<rect x="96.350000" y="105.000000" width="24.000000" height="24.000000" rx="0" ry="0" style="stroke:none;fill:#cccccc;"/>
<rect x="95.350000" y="104.000000" width="24.000000" height="24.000000" rx="0" ry="0" style="stroke:none;fill:#f44800;"/>
<text x="107.350000" y="118.000000" font-family="Arial" font-size="7" text-anchor="middle" fill="#FFFFFF">1</text>
<circle cx="97.350000" cy="106.000000" r="1"/>
<rect x="143.700000" y="89.000000" width="24.000000" height="24.000000" rx="0" ry="0" style="stroke:none;fill:#cccccc;"/>
<rect x="142.700000" y="88.000000" width="24.000000" height="24.000000" rx="0" ry="0" style="stroke:none;fill:#4B71A1;"/>
<text x="154.700000" y="102.000000" font-family="Arial" font-size="7" text-anchor="middle" fill="#FFFFFF">-</text>
<circle cx="144.700000" cy="90.000000" r="1"/>
<line x1="139.700000" y1="95.000000" x2="142.700000" y2="96.000000"  transform="rotate(0.000000,142.700000,96.000000)" style="stroke: black; stroke-width:0.25;"/>
<line x1="139.700000" y1="97.000000" x2="142.700000" y2="96.000000"  transform="rotate(0.000000,142.700000,96.000000)" style="stroke: black; stroke-width:0.25;"/>
<line x1="139.700000" y1="103.000000" x2="142.700000" y2="104.000000"  transform="rotate(0.000000,142.700000,104.000000)" style="stroke: black; stroke-width:0.25;"/>
<line x1="139.700000" y1="105.000000" x2="142.700000" y2="104.000000"  transform="rotate(0.000000,142.700000,104.000000)" style="stroke: black; stroke-width:0.25;"/>
<rect x="183.700000" y="85.000000" width="24.000000" height="24.000000" rx="0" ry="0" style="stroke:none;fill:#cccccc;"/>
<rect x="182.700000" y="84.000000" width="24.000000" height="24.000000" rx="0" ry="0" style="stroke:none;fill:#4B71A1;"/>
<text x="194.700000" y="98.000000" font-family="Arial" font-size="7" text-anchor="middle" fill="#FFFFFF">@</text>
<circle cx="184.700000" cy="86.000000" r="1"/>
<line x1="179.700000" y1="91.000000" x2="182.700000" y2="92.000000"  transform="rotate(0.000000,182.700000,92.000000)" style="stroke: black; stroke-width:0.25;"/>
<line x1="179.700000" y1="93.000000" x2="182.700000" y2="92.000000"  transform="rotate(0.000000,182.700000,92.000000)" style="stroke: black; stroke-width:0.25;"/>
<line x1="179.700000" y1="99.000000" x2="182.700000" y2="100.000000"  transform="rotate(0.000000,182.700000,100.000000)" style="stroke: black; stroke-width:0.25;"/>
<line x1="179.700000" y1="101.000000" x2="182.700000" y2="100.000000"  transform="rotate(0.000000,182.700000,100.000000)" style="stroke: black; stroke-width:0.25;"/>
<a xlink:href="average-0x7fc90b3be080.svg">
<rect x="156.350000" y="29.000000" width="38.700000" height="24.000000" rx="0" ry="0" style="stroke:none;fill:#cccccc;"/>
<rect x="155.350000" y="28.000000" width="38.700000" height="24.000000" rx="0" ry="0" style="stroke:none;fill:#003366;"/>
</a>
<a xlink:href="average-0x7fc90b3be080.svg">
<text x="174.700000" y="42.000000" font-family="Arial" font-size="7" text-anchor="middle" fill="#FFFFFF">average</text>
</a>
<circle cx="192.050000" cy="50.000000" r="1"/>
<line x1="197.050000" y1="39.000000" x2="194.050000" y2="40.000000"  transform="rotate(0.000000,194.050000,40.000000)" style="stroke: black; stroke-width:0.25;"/>
<line x1="197.050000" y1="41.000000" x2="194.050000" y2="40.000000"  transform="rotate(0.000000,194.050000,40.000000)" style="stroke: black; stroke-width:0.25;"/>
<rect x="101.650000" y="25.000000" width="38.700000" height="24.000000" rx="0" ry="0" style="stroke:none;fill:#cccccc;"/>
<rect x="100.650000" y="24.000000" width="38.700000" height="24.000000" rx="0" ry="0" style="stroke:none;fill:#f44800;"/>
<text x="120.000000" y="38.000000" font-family="Arial" font-size="7" text-anchor="middle" fill="#FFFFFF">0.998039</text>
<circle cx="137.350000" cy="46.000000" r="1"/>
<rect x="61.650000" y="29.000000" width="24.000000" height="24.000000" rx="0" ry="0" style="stroke:none;fill:#cccccc;"/>
<rect x="60.650000" y="28.000000" width="24.000000" height="24.000000" rx="0" ry="0" style="stroke:none;fill:#4B71A1;"/>
<text x="72.650000" y="42.000000" font-family="Arial" font-size="7" text-anchor="middle" fill="#FFFFFF">*</text>
<circle cx="82.650000" cy="50.000000" r="1"/>
<line x1="87.650000" y1="43.000000" x2="84.650000" y2="44.000000"  transform="rotate(0.000000,84.650000,44.000000)" style="stroke: black; stroke-width:0.25;"/>
<line x1="87.650000" y1="45.000000" x2="84.650000" y2="44.000000"  transform="rotate(0.000000,84.650000,44.000000)" style="stroke: black; stroke-width:0.25;"/>
<line x1="87.650000" y1="35.000000" x2="84.650000" y2="36.000000"  transform="rotate(0.000000,84.650000,36.000000)" style="stroke: black; stroke-width:0.25;"/>
<line x1="87.650000" y1="37.000000" x2="84.650000" y2="36.000000"  transform="rotate(0.000000,84.650000,36.000000)" style="stroke: black; stroke-width:0.25;"/>
<line x1="208.700000" y1="96.000000" x2="208.700000" y2="92.000000"  style="stroke:black; stroke-linecap:round; stroke-width:0.25;"/>
<line x1="208.700000" y1="92.000000" x2="212.700000" y2="92.000000"  style="stroke:black; stroke-linecap:round; stroke-width:0.25;"/>
<line x1="212.700000" y1="92.000000" x2="212.700000" y2="96.000000"  style="stroke:black; stroke-linecap:round; stroke-width:0.25;"/>
<line x1="15.000000" y1="15.000000" x2="15.000000" y2="137.000000"  style="stroke: black; stroke-linecap:round; stroke-width:0.25; stroke-dasharray:3,3;"/>
<line x1="15.000000" y1="137.000000" x2="239.700000" y2="137.000000"  style="stroke: black; stroke-linecap:round; stroke-width:0.25; stroke-dasharray:3,3;"/>
<line x1="239.700000" y1="137.000000" x2="239.700000" y2="15.000000"  style="stroke: black; stroke-linecap:round; stroke-width:0.25; stroke-dasharray:3,3;"/>
<line x1="15.000000" y1="15.000000" x2="20.000000" y2="15.000000"  style="stroke: black; stroke-linecap:round; stroke-width:0.25; stroke-dasharray:3,3;"/>
<line x1="119.975000" y1="15.000000" x2="239.700000" y2="15.000000"  style="stroke: black; stroke-linecap:round; stroke-width:0.25; stroke-dasharray:3,3;"/>
<text x="20.000000" y="17.000000" font-family="Arial" font-size="7">resonator(50....94938307258f)</text>
<line x1="241.700000" y1="75.000000" x2="244.700000" y2="76.000000"  transform="rotate(0.000000,244.700000,76.000000)" style="stroke: black; stroke-width:0.25;"/>
<line x1="241.700000" y1="77.000000" x2="244.700000" y2="76.000000"  transform="rotate(0.000000,244.700000,76.000000)" style="stroke: black; stroke-width:0.25;"/>
<line x1="10.000000" y1="76.000000" x2="20.000000" y2="76.000000"  style="stroke:black; stroke-linecap:round; stroke-width:0.25;"/>
<line x1="20.000000" y1="76.000000" x2="24.000000" y2="76.000000"  style="stroke:black; stroke-linecap:round; stroke-width:0.25;"/>
<line x1="24.000000" y1="76.000000" x2="28.000000" y2="76.000000"  style="stroke:black; stroke-linecap:round; stroke-width:0.25;"/>
<line x1="28.000000" y1="76.000000" x2="36.000000" y2="76.000000"  style="stroke:black; stroke-linecap:round; stroke-width:0.25;"/>
<line x1="36.000000" y1="76.000000" x2="36.000000" y2="100.000000"  style="stroke:black; stroke-linecap:round; stroke-width:0.25;"/>
<line x1="36.000000" y1="100.000000" x2="36.000000" y2="100.000000"  style="stroke:black; stroke-linecap:round; stroke-width:0.25;"/>
<line x1="36.000000" y1="100.000000" x2="44.000000" y2="100.000000"  style="stroke:black; stroke-linecap:round; stroke-width:0.25;"/>
<line x1="44.000000" y1="40.000000" x2="44.000000" y2="40.000000"  style="stroke:black; stroke-linecap:round; stroke-width:0.25;"/>
<line x1="44.000000" y1="40.000000" x2="44.000000" y2="92.000000"  style="stroke:black; stroke-linecap:round; stroke-width:0.25;"/>
<line x1="44.000000" y1="92.000000" x2="44.000000" y2="92.000000"  style="stroke:black; stroke-linecap:round; stroke-width:0.25;"/>
<line x1="44.000000" y1="92.000000" x2="48.000000" y2="92.000000"  style="stroke:black; stroke-linecap:round; stroke-width:0.25;"/>
<line x1="44.000000" y1="100.000000" x2="48.000000" y2="100.000000"  style="stroke:black; stroke-linecap:round; stroke-width:0.25;"/>
<line x1="56.650000" y1="40.000000" x2="44.000000" y2="40.000000"  style="stroke:black; stroke-linecap:round; stroke-width:0.25;"/>
<line x1="60.650000" y1="40.000000" x2="56.650000" y2="40.000000"  style="stroke:black; stroke-linecap:round; stroke-width:0.25;"/>
<line x1="72.000000" y1="96.000000" x2="76.000000" y2="96.000000"  style="stroke:black; stroke-linecap:round; stroke-width:0.25;"/>
<line x1="76.000000" y1="64.000000" x2="84.000000" y2="64.000000"  style="stroke:black; stroke-linecap:round; stroke-width:0.25;"/>
<line x1="76.000000" y1="96.000000" x2="76.000000" y2="64.000000"  style="stroke:black; stroke-linecap:round; stroke-width:0.25;"/>
<line x1="76.000000" y1="96.000000" x2="76.000000" y2="96.000000"  style="stroke:black; stroke-linecap:round; stroke-width:0.25;"/>
<line x1="84.000000" y1="64.000000" x2="127.350000" y2="64.000000"  style="stroke:black; stroke-linecap:round; stroke-width:0.25;"/>
<line x1="88.650000" y1="36.000000" x2="84.650000" y2="36.000000"  style="stroke:black; stroke-linecap:round; stroke-width:0.25;"/>
<line x1="88.650000" y1="44.000000" x2="84.650000" y2="44.000000"  style="stroke:black; stroke-linecap:round; stroke-width:0.25;"/>
<line x1="88.650000" y1="44.000000" x2="88.650000" y2="44.000000"  style="stroke:black; stroke-linecap:round; stroke-width:0.25;"/>
<line x1="88.650000" y1="56.000000" x2="88.650000" y2="44.000000"  style="stroke:black; stroke-linecap:round; stroke-width:0.25;"/>
<line x1="96.650000" y1="36.000000" x2="88.650000" y2="36.000000"  style="stroke:black; stroke-linecap:round; stroke-width:0.25;"/>
<line x1="96.650000" y1="56.000000" x2="88.650000" y2="56.000000"  style="stroke:black; stroke-linecap:round; stroke-width:0.25;"/>
<line x1="100.650000" y1="36.000000" x2="96.650000" y2="36.000000"  style="stroke:black; stroke-linecap:round; stroke-width:0.25;"/>
<line x1="119.350000" y1="116.000000" x2="123.350000" y2="116.000000"  style="stroke:black; stroke-linecap:round; stroke-width:0.25;"/>
<line x1="120.000000" y1="56.000000" x2="96.650000" y2="56.000000"  style="stroke:black; stroke-linecap:round; stroke-width:0.25;"/>
<line x1="123.350000" y1="116.000000" x2="130.700000" y2="116.000000"  style="stroke:black; stroke-linecap:round; stroke-width:0.25;"/>
<line x1="126.700000" y1="84.000000" x2="130.700000" y2="84.000000"  style="stroke:black; stroke-linecap:round; stroke-width:0.25;"/>
<line x1="127.350000" y1="64.000000" x2="170.700000" y2="64.000000"  style="stroke:black; stroke-linecap:round; stroke-width:0.25;"/>
<line x1="130.700000" y1="84.000000" x2="138.700000" y2="84.000000"  style="stroke:black; stroke-linecap:round; stroke-width:0.25;"/>
<line x1="130.700000" y1="104.000000" x2="138.700000" y2="104.000000"  style="stroke:black; stroke-linecap:round; stroke-width:0.25;"/>
<line x1="130.700000" y1="116.000000" x2="130.700000" y2="104.000000"  style="stroke:black; stroke-linecap:round; stroke-width:0.25;"/>
<line x1="130.700000" y1="116.000000" x2="130.700000" y2="116.000000"  style="stroke:black; stroke-linecap:round; stroke-width:0.25;"/>
<line x1="138.700000" y1="84.000000" x2="138.700000" y2="96.000000"  style="stroke:black; stroke-linecap:round; stroke-width:0.25;"/>
<line x1="138.700000" y1="96.000000" x2="138.700000" y2="96.000000"  style="stroke:black; stroke-linecap:round; stroke-width:0.25;"/>
<line x1="138.700000" y1="96.000000" x2="142.700000" y2="96.000000"  style="stroke:black; stroke-linecap:round; stroke-width:0.25;"/>
<line x1="138.700000" y1="104.000000" x2="142.700000" y2="104.000000"  style="stroke:black; stroke-linecap:round; stroke-width:0.25;"/>
<line x1="143.350000" y1="56.000000" x2="120.000000" y2="56.000000"  style="stroke:black; stroke-linecap:round; stroke-width:0.25;"/>
<line x1="151.350000" y1="40.000000" x2="151.350000" y2="40.000000"  style="stroke:black; stroke-linecap:round; stroke-width:0.25;"/>
<line x1="151.350000" y1="40.000000" x2="151.350000" y2="56.000000"  style="stroke:black; stroke-linecap:round; stroke-width:0.25;"/>
<line x1="151.350000" y1="56.000000" x2="143.350000" y2="56.000000"  style="stroke:black; stroke-linecap:round; stroke-width:0.25;"/>
<line x1="155.350000" y1="40.000000" x2="151.350000" y2="40.000000"  style="stroke:black; stroke-linecap:round; stroke-width:0.25;"/>
<line x1="166.700000" y1="100.000000" x2="170.700000" y2="100.000000"  style="stroke:black; stroke-linecap:round; stroke-width:0.25;"/>
<line x1="170.700000" y1="64.000000" x2="178.700000" y2="64.000000"  style="stroke:black; stroke-linecap:round; stroke-width:0.25;"/>
<line x1="170.700000" y1="100.000000" x2="178.700000" y2="100.000000"  style="stroke:black; stroke-linecap:round; stroke-width:0.25;"/>
<line x1="178.700000" y1="64.000000" x2="178.700000" y2="92.000000"  style="stroke:black; stroke-linecap:round; stroke-width:0.25;"/>
<line x1="178.700000" y1="92.000000" x2="178.700000" y2="92.000000"  style="stroke:black; stroke-linecap:round; stroke-width:0.25;"/>
<line x1="178.700000" y1="92.000000" x2="182.700000" y2="92.000000"  style="stroke:black; stroke-linecap:round; stroke-width:0.25;"/>
<line x1="178.700000" y1="100.000000" x2="182.700000" y2="100.000000"  style="stroke:black; stroke-linecap:round; stroke-width:0.25;"/>
<line x1="198.050000" y1="40.000000" x2="194.050000" y2="40.000000"  style="stroke:black; stroke-linecap:round; stroke-width:0.25;"/>
<line x1="206.700000" y1="96.000000" x2="210.700000" y2="96.000000"  style="stroke:black; stroke-linecap:round; stroke-width:0.25;"/>
<line x1="210.700000" y1="40.000000" x2="198.050000" y2="40.000000"  style="stroke:black; stroke-linecap:round; stroke-width:0.25;"/>
<line x1="210.700000" y1="40.000000" x2="210.700000" y2="40.000000"  style="stroke:black; stroke-linecap:round; stroke-width:0.25;"/>
<line x1="210.700000" y1="92.000000" x2="210.700000" y2="40.000000"  style="stroke:black; stroke-linecap:round; stroke-width:0.25;"/>
<line x1="210.700000" y1="96.000000" x2="212.700000" y2="96.000000"  style="stroke:black; stroke-linecap:round; stroke-width:0.25;"/>
<line x1="212.700000" y1="96.000000" x2="218.700000" y2="96.000000"  style="stroke:black; stroke-linecap:round; stroke-width:0.25;"/>
<line x1="218.700000" y1="76.000000" x2="226.700000" y2="76.000000"  style="stroke:black; stroke-linecap:round; stroke-width:0.25;"/>
<line x1="218.700000" y1="96.000000" x2="218.700000" y2="76.000000"  style="stroke:black; stroke-linecap:round; stroke-width:0.25;"/>
<line x1="218.700000" y1="96.000000" x2="218.700000" y2="96.000000"  style="stroke:black; stroke-linecap:round; stroke-width:0.25;"/>
<line x1="226.700000" y1="76.000000" x2="230.700000" y2="76.000000"  style="stroke:black; stroke-linecap:round; stroke-width:0.25;"/>
<line x1="230.700000" y1="76.000000" x2="234.700000" y2="76.000000"  style="stroke:black; stroke-linecap:round; stroke-width:0.25;"/>
<line x1="234.700000" y1="76.000000" x2="244.700000" y2="76.000000"  style="stroke:black; stroke-linecap:round; stroke-width:0.25;"/>
</svg>
