<?xml version="1.0"?>
<svg xmlns="http://www.w3.org/2000/svg" xmlns:xlink="http://www.w3.org/1999/xlink" viewBox="0 0 637.700000 264.000000" width="318.850000mm" height="132.000000mm" version="1.1">
<a xlink:href="flanger-0x7fd0faa171c0.svg">
<rect x="1.000000" y="1.000000" width="636.700000" height="263.000000" rx="0" ry="0" style="stroke:none;fill:#cccccc;"/>
<rect x="0.000000" y="0.000000" width="636.700000" height="263.000000" rx="0" ry="0" style="stroke:none;fill:#ffffff;"/>
</a>
<text x="10.000000" y="7.000000" font-family="Arial" font-size="7"></text>
<rect x="107.000000" y="155.000000" width="24.000000" height="24.000000" rx="0" ry="0" style="stroke:none;fill:#cccccc;"/>
<rect x="106.000000" y="154.000000" width="24.000000" height="24.000000" rx="0" ry="0" style="stroke:none;fill:#4B71A1;"/>
<text x="118.000000" y="168.000000" font-family="Arial" font-size="7" text-anchor="middle" fill="#FFFFFF">-</text>
<circle cx="108.000000" cy="156.000000" r="1"/>
<line x1="103.000000" y1="161.000000" x2="106.000000" y2="162.000000"  transform="rotate(0.000000,106.000000,162.000000)" style="stroke: black; stroke-width:0.25;"/>
<line x1="103.000000" y1="163.000000" x2="106.000000" y2="162.000000"  transform="rotate(0.000000,106.000000,162.000000)" style="stroke: black; stroke-width:0.25;"/>
<line x1="103.000000" y1="169.000000" x2="106.000000" y2="170.000000"  transform="rotate(0.000000,106.000000,170.000000)" style="stroke: black; stroke-width:0.25;"/>
<line x1="103.000000" y1="171.000000" x2="106.000000" y2="170.000000"  transform="rotate(0.000000,106.000000,170.000000)" style="stroke: black; stroke-width:0.25;"/>
<a xlink:href="fdelay-0x7fd0f96e6730.svg">
<rect x="139.000000" y="155.000000" width="129.000000" height="24.000000" rx="0" ry="0" style="stroke:none;fill:#cccccc;"/>
<rect x="138.000000" y="154.000000" width="129.000000" height="24.000000" rx="0" ry="0" style="stroke:none;fill:#003366;"/>
</a>
<a xlink:href="fdelay-0x7fd0f96e6730.svg">
<text x="202.500000" y="168.000000" font-family="Arial" font-size="7" text-anchor="middle" fill="#FFFFFF">fdelay(2048)(...),2 : /) : +)</text>
</a>
<circle cx="140.000000" cy="156.000000" r="1"/>
<line x1="135.000000" y1="165.000000" x2="138.000000" y2="166.000000"  transform="rotate(0.000000,138.000000,166.000000)" style="stroke: black; stroke-width:0.25;"/>
<line x1="135.000000" y1="167.000000" x2="138.000000" y2="166.000000"  transform="rotate(0.000000,138.000000,166.000000)" style="stroke: black; stroke-width:0.25;"/>
<rect x="194.600000" y="105.000000" width="25.800000" height="24.000000" rx="0" ry="0" style="stroke:none;fill:#cccccc;"/>
<rect x="193.600000" y="104.000000" width="25.800000" height="24.000000" rx="0" ry="0" style="stroke:none;fill:#f44800;"/>
<text x="206.500000" y="118.000000" font-family="Arial" font-size="7" text-anchor="middle" fill="#FFFFFF">0.99</text>
<circle cx="217.400000" cy="126.000000" r="1"/>
<line x1="184.600000" y1="95.000000" x2="184.600000" y2="137.000000"  style="stroke: black; stroke-linecap:round; stroke-width:0.25; stroke-dasharray:3,3;"/>
<line x1="184.600000" y1="137.000000" x2="228.400000" y2="137.000000"  style="stroke: black; stroke-linecap:round; stroke-width:0.25; stroke-dasharray:3,3;"/>
<line x1="228.400000" y1="137.000000" x2="228.400000" y2="95.000000"  style="stroke: black; stroke-linecap:round; stroke-width:0.25; stroke-dasharray:3,3;"/>
<line x1="184.600000" y1="95.000000" x2="189.600000" y2="95.000000"  style="stroke: black; stroke-linecap:round; stroke-width:0.25; stroke-dasharray:3,3;"/>
<line x1="202.500000" y1="95.000000" x2="228.400000" y2="95.000000"  style="stroke: black; stroke-linecap:round; stroke-width:0.25; stroke-dasharray:3,3;"/>
<text x="189.600000" y="97.000000" font-family="Arial" font-size="7">fb</text>
<rect x="144.600000" y="109.000000" width="24.000000" height="24.000000" rx="0" ry="0" style="stroke:none;fill:#cccccc;"/>
<rect x="143.600000" y="108.000000" width="24.000000" height="24.000000" rx="0" ry="0" style="stroke:none;fill:#4B71A1;"/>
<text x="155.600000" y="122.000000" font-family="Arial" font-size="7" text-anchor="middle" fill="#FFFFFF">*</text>
<circle cx="165.600000" cy="130.000000" r="1"/>
<line x1="170.600000" y1="123.000000" x2="167.600000" y2="124.000000"  transform="rotate(0.000000,167.600000,124.000000)" style="stroke: black; stroke-width:0.25;"/>
<line x1="170.600000" y1="125.000000" x2="167.600000" y2="124.000000"  transform="rotate(0.000000,167.600000,124.000000)" style="stroke: black; stroke-width:0.25;"/>
<line x1="170.600000" y1="115.000000" x2="167.600000" y2="116.000000"  transform="rotate(0.000000,167.600000,116.000000)" style="stroke: black; stroke-width:0.25;"/>
<line x1="170.600000" y1="117.000000" x2="167.600000" y2="116.000000"  transform="rotate(0.000000,167.600000,116.000000)" style="stroke: black; stroke-width:0.25;"/>
<line x1="269.000000" y1="166.000000" x2="269.000000" y2="162.000000"  style="stroke:black; stroke-linecap:round; stroke-width:0.25;"/>
<line x1="269.000000" y1="162.000000" x2="273.000000" y2="162.000000"  style="stroke:black; stroke-linecap:round; stroke-width:0.25;"/>
<line x1="273.000000" y1="162.000000" x2="273.000000" y2="166.000000"  style="stroke:black; stroke-linecap:round; stroke-width:0.25;"/>
<rect x="330.000000" y="51.000000" width="24.000000" height="24.000000" rx="0" ry="0" style="stroke:none;fill:#cccccc;"/>
<rect x="329.000000" y="50.000000" width="24.000000" height="24.000000" rx="0" ry="0" style="stroke:none;fill:#f44800;"/>
<text x="341.000000" y="64.000000" font-family="Arial" font-size="7" text-anchor="middle" fill="#FFFFFF">0</text>
<circle cx="331.000000" cy="52.000000" r="1"/>
<line x1="320.000000" y1="41.000000" x2="320.000000" y2="83.000000"  style="stroke: black; stroke-linecap:round; stroke-width:0.25; stroke-dasharray:3,3;"/>
<line x1="320.000000" y1="83.000000" x2="362.000000" y2="83.000000"  style="stroke: black; stroke-linecap:round; stroke-width:0.25; stroke-dasharray:3,3;"/>
<line x1="362.000000" y1="83.000000" x2="362.000000" y2="41.000000"  style="stroke: black; stroke-linecap:round; stroke-width:0.25; stroke-dasharray:3,3;"/>
<line x1="320.000000" y1="41.000000" x2="325.000000" y2="41.000000"  style="stroke: black; stroke-linecap:round; stroke-width:0.25; stroke-dasharray:3,3;"/>
<line x1="350.800000" y1="41.000000" x2="362.000000" y2="41.000000"  style="stroke: black; stroke-linecap:round; stroke-width:0.25; stroke-dasharray:3,3;"/>
<text x="325.000000" y="43.000000" font-family="Arial" font-size="7">invert</text>
<rect x="330.000000" y="103.000000" width="24.000000" height="24.000000" rx="0" ry="0" style="stroke:none;fill:#cccccc;"/>
<rect x="329.000000" y="102.000000" width="24.000000" height="24.000000" rx="0" ry="0" style="stroke:none;fill:#f44800;"/>
<text x="341.000000" y="116.000000" font-family="Arial" font-size="7" text-anchor="middle" fill="#FFFFFF">1</text>
<circle cx="331.000000" cy="104.000000" r="1"/>
<line x1="320.000000" y1="93.000000" x2="320.000000" y2="135.000000"  style="stroke: black; stroke-linecap:round; stroke-width:0.25; stroke-dasharray:3,3;"/>
<line x1="320.000000" y1="135.000000" x2="362.000000" y2="135.000000"  style="stroke: black; stroke-linecap:round; stroke-width:0.25; stroke-dasharray:3,3;"/>
<line x1="362.000000" y1="135.000000" x2="362.000000" y2="93.000000"  style="stroke: black; stroke-linecap:round; stroke-width:0.25; stroke-dasharray:3,3;"/>
<line x1="320.000000" y1="93.000000" x2="325.000000" y2="93.000000"  style="stroke: black; stroke-linecap:round; stroke-width:0.25; stroke-dasharray:3,3;"/>
<line x1="347.575000" y1="93.000000" x2="362.000000" y2="93.000000"  style="stroke: black; stroke-linecap:round; stroke-width:0.25; stroke-dasharray:3,3;"/>
<text x="325.000000" y="95.000000" font-family="Arial" font-size="7">depth</text>
<rect x="310.000000" y="155.000000" width="24.000000" height="24.000000" rx="0" ry="0" style="stroke:none;fill:#cccccc;"/>
<rect x="309.000000" y="154.000000" width="24.000000" height="24.000000" rx="0" ry="0" style="stroke:none;fill:#f44800;"/>
<text x="321.000000" y="168.000000" font-family="Arial" font-size="7" text-anchor="middle" fill="#FFFFFF">0</text>
<circle cx="311.000000" cy="156.000000" r="1"/>
<line x1="300.000000" y1="145.000000" x2="300.000000" y2="187.000000"  style="stroke: black; stroke-linecap:round; stroke-width:0.25; stroke-dasharray:3,3;"/>
<line x1="300.000000" y1="187.000000" x2="342.000000" y2="187.000000"  style="stroke: black; stroke-linecap:round; stroke-width:0.25; stroke-dasharray:3,3;"/>
<line x1="342.000000" y1="187.000000" x2="342.000000" y2="145.000000"  style="stroke: black; stroke-linecap:round; stroke-width:0.25; stroke-dasharray:3,3;"/>
<line x1="300.000000" y1="145.000000" x2="305.000000" y2="145.000000"  style="stroke: black; stroke-linecap:round; stroke-width:0.25; stroke-dasharray:3,3;"/>
<line x1="330.800000" y1="145.000000" x2="342.000000" y2="145.000000"  style="stroke: black; stroke-linecap:round; stroke-width:0.25; stroke-dasharray:3,3;"/>
<text x="305.000000" y="147.000000" font-family="Arial" font-size="7">invert</text>
<rect x="310.000000" y="207.000000" width="24.000000" height="24.000000" rx="0" ry="0" style="stroke:none;fill:#cccccc;"/>
<rect x="309.000000" y="206.000000" width="24.000000" height="24.000000" rx="0" ry="0" style="stroke:none;fill:#f44800;"/>
<text x="321.000000" y="220.000000" font-family="Arial" font-size="7" text-anchor="middle" fill="#FFFFFF">1</text>
<circle cx="311.000000" cy="208.000000" r="1"/>
<line x1="300.000000" y1="197.000000" x2="300.000000" y2="239.000000"  style="stroke: black; stroke-linecap:round; stroke-width:0.25; stroke-dasharray:3,3;"/>
<line x1="300.000000" y1="239.000000" x2="342.000000" y2="239.000000"  style="stroke: black; stroke-linecap:round; stroke-width:0.25; stroke-dasharray:3,3;"/>
<line x1="342.000000" y1="239.000000" x2="342.000000" y2="197.000000"  style="stroke: black; stroke-linecap:round; stroke-width:0.25; stroke-dasharray:3,3;"/>
<line x1="300.000000" y1="197.000000" x2="305.000000" y2="197.000000"  style="stroke: black; stroke-linecap:round; stroke-width:0.25; stroke-dasharray:3,3;"/>
<line x1="327.575000" y1="197.000000" x2="342.000000" y2="197.000000"  style="stroke: black; stroke-linecap:round; stroke-width:0.25; stroke-dasharray:3,3;"/>
<text x="305.000000" y="199.000000" font-family="Arial" font-size="7">depth</text>
<rect x="360.000000" y="181.000000" width="24.000000" height="24.000000" rx="0" ry="0" style="stroke:none;fill:#cccccc;"/>
<rect x="359.000000" y="180.000000" width="24.000000" height="24.000000" rx="0" ry="0" style="stroke:none;fill:#4B71A1;"/>
<text x="371.000000" y="194.000000" font-family="Arial" font-size="7" text-anchor="middle" fill="#FFFFFF">-</text>
<circle cx="361.000000" cy="182.000000" r="1"/>
<line x1="356.000000" y1="187.000000" x2="359.000000" y2="188.000000"  transform="rotate(0.000000,359.000000,188.000000)" style="stroke: black; stroke-width:0.25;"/>
<line x1="356.000000" y1="189.000000" x2="359.000000" y2="188.000000"  transform="rotate(0.000000,359.000000,188.000000)" style="stroke: black; stroke-width:0.25;"/>
<line x1="356.000000" y1="195.000000" x2="359.000000" y2="196.000000"  transform="rotate(0.000000,359.000000,196.000000)" style="stroke: black; stroke-width:0.25;"/>
<line x1="356.000000" y1="197.000000" x2="359.000000" y2="196.000000"  transform="rotate(0.000000,359.000000,196.000000)" style="stroke: black; stroke-width:0.25;"/>
<rect x="408.000000" y="129.000000" width="38.700000" height="24.000000" rx="0" ry="0" style="stroke:none;fill:#cccccc;"/>
<rect x="407.000000" y="128.000000" width="38.700000" height="24.000000" rx="0" ry="0" style="stroke:none;fill:#4B71A1;"/>
<text x="426.350000" y="142.000000" font-family="Arial" font-size="7" text-anchor="middle" fill="#FFFFFF">select2</text>
<circle cx="409.000000" cy="130.000000" r="1"/>
<line x1="404.000000" y1="131.000000" x2="407.000000" y2="132.000000"  transform="rotate(0.000000,407.000000,132.000000)" style="stroke: black; stroke-width:0.25;"/>
<line x1="404.000000" y1="133.000000" x2="407.000000" y2="132.000000"  transform="rotate(0.000000,407.000000,132.000000)" style="stroke: black; stroke-width:0.25;"/>
<line x1="404.000000" y1="139.000000" x2="407.000000" y2="140.000000"  transform="rotate(0.000000,407.000000,140.000000)" style="stroke: black; stroke-width:0.25;"/>
<line x1="404.000000" y1="141.000000" x2="407.000000" y2="140.000000"  transform="rotate(0.000000,407.000000,140.000000)" style="stroke: black; stroke-width:0.25;"/>
<line x1="404.000000" y1="147.000000" x2="407.000000" y2="148.000000"  transform="rotate(0.000000,407.000000,148.000000)" style="stroke: black; stroke-width:0.25;"/>
<line x1="404.000000" y1="149.000000" x2="407.000000" y2="148.000000"  transform="rotate(0.000000,407.000000,148.000000)" style="stroke: black; stroke-width:0.25;"/>
<rect x="462.700000" y="125.000000" width="24.000000" height="24.000000" rx="0" ry="0" style="stroke:none;fill:#cccccc;"/>
<rect x="461.700000" y="124.000000" width="24.000000" height="24.000000" rx="0" ry="0" style="stroke:none;fill:#4B71A1;"/>
<text x="473.700000" y="138.000000" font-family="Arial" font-size="7" text-anchor="middle" fill="#FFFFFF">*</text>
<circle cx="463.700000" cy="126.000000" r="1"/>
<line x1="458.700000" y1="131.000000" x2="461.700000" y2="132.000000"  transform="rotate(0.000000,461.700000,132.000000)" style="stroke: black; stroke-width:0.25;"/>
<line x1="458.700000" y1="133.000000" x2="461.700000" y2="132.000000"  transform="rotate(0.000000,461.700000,132.000000)" style="stroke: black; stroke-width:0.25;"/>
<line x1="458.700000" y1="139.000000" x2="461.700000" y2="140.000000"  transform="rotate(0.000000,461.700000,140.000000)" style="stroke: black; stroke-width:0.25;"/>
<line x1="458.700000" y1="141.000000" x2="461.700000" y2="140.000000"  transform="rotate(0.000000,461.700000,140.000000)" style="stroke: black; stroke-width:0.25;"/>
<rect x="502.700000" y="121.000000" width="24.000000" height="24.000000" rx="0" ry="0" style="stroke:none;fill:#cccccc;"/>
<rect x="501.700000" y="120.000000" width="24.000000" height="24.000000" rx="0" ry="0" style="stroke:none;fill:#4B71A1;"/>
<text x="513.700000" y="134.000000" font-family="Arial" font-size="7" text-anchor="middle" fill="#FFFFFF">+</text>
<circle cx="503.700000" cy="122.000000" r="1"/>
<line x1="498.700000" y1="127.000000" x2="501.700000" y2="128.000000"  transform="rotate(0.000000,501.700000,128.000000)" style="stroke: black; stroke-width:0.25;"/>
<line x1="498.700000" y1="129.000000" x2="501.700000" y2="128.000000"  transform="rotate(0.000000,501.700000,128.000000)" style="stroke: black; stroke-width:0.25;"/>
<line x1="498.700000" y1="135.000000" x2="501.700000" y2="136.000000"  transform="rotate(0.000000,501.700000,136.000000)" style="stroke: black; stroke-width:0.25;"/>
<line x1="498.700000" y1="137.000000" x2="501.700000" y2="136.000000"  transform="rotate(0.000000,501.700000,136.000000)" style="stroke: black; stroke-width:0.25;"/>
<rect x="542.700000" y="125.000000" width="24.000000" height="24.000000" rx="0" ry="0" style="stroke:none;fill:#cccccc;"/>
<rect x="541.700000" y="124.000000" width="24.000000" height="24.000000" rx="0" ry="0" style="stroke:none;fill:#f44800;"/>
<text x="553.700000" y="138.000000" font-family="Arial" font-size="7" text-anchor="middle" fill="#FFFFFF">0.5</text>
<circle cx="543.700000" cy="126.000000" r="1"/>
<rect x="582.700000" y="121.000000" width="24.000000" height="24.000000" rx="0" ry="0" style="stroke:none;fill:#cccccc;"/>
<rect x="581.700000" y="120.000000" width="24.000000" height="24.000000" rx="0" ry="0" style="stroke:none;fill:#4B71A1;"/>
<text x="593.700000" y="134.000000" font-family="Arial" font-size="7" text-anchor="middle" fill="#FFFFFF">*</text>
<circle cx="583.700000" cy="122.000000" r="1"/>
<line x1="578.700000" y1="127.000000" x2="581.700000" y2="128.000000"  transform="rotate(0.000000,581.700000,128.000000)" style="stroke: black; stroke-width:0.25;"/>
<line x1="578.700000" y1="129.000000" x2="581.700000" y2="128.000000"  transform="rotate(0.000000,581.700000,128.000000)" style="stroke: black; stroke-width:0.25;"/>
<line x1="578.700000" y1="135.000000" x2="581.700000" y2="136.000000"  transform="rotate(0.000000,581.700000,136.000000)" style="stroke: black; stroke-width:0.25;"/>
<line x1="578.700000" y1="137.000000" x2="581.700000" y2="136.000000"  transform="rotate(0.000000,581.700000,136.000000)" style="stroke: black; stroke-width:0.25;"/>
<line x1="15.000000" y1="15.000000" x2="15.000000" y2="249.000000"  style="stroke: black; stroke-linecap:round; stroke-width:0.25; stroke-dasharray:3,3;"/>
<line x1="15.000000" y1="249.000000" x2="622.700000" y2="249.000000"  style="stroke: black; stroke-linecap:round; stroke-width:0.25; stroke-dasharray:3,3;"/>
<line x1="622.700000" y1="249.000000" x2="622.700000" y2="15.000000"  style="stroke: black; stroke-linecap:round; stroke-width:0.25; stroke-dasharray:3,3;"/>
<line x1="15.000000" y1="15.000000" x2="20.000000" y2="15.000000"  style="stroke: black; stroke-linecap:round; stroke-width:0.25; stroke-dasharray:3,3;"/>
<line x1="119.975000" y1="15.000000" x2="622.700000" y2="15.000000"  style="stroke: black; stroke-linecap:round; stroke-width:0.25; stroke-dasharray:3,3;"/>
<text x="20.000000" y="17.000000" font-family="Arial" font-size="7">flanger_mono(...(1)(0.99f)(0)</text>
<line x1="624.700000" y1="131.000000" x2="627.700000" y2="132.000000"  transform="rotate(0.000000,627.700000,132.000000)" style="stroke: black; stroke-width:0.25;"/>
<line x1="624.700000" y1="133.000000" x2="627.700000" y2="132.000000"  transform="rotate(0.000000,627.700000,132.000000)" style="stroke: black; stroke-width:0.25;"/>
<line x1="10.000000" y1="132.000000" x2="20.000000" y2="132.000000"  style="stroke:black; stroke-linecap:round; stroke-width:0.25;"/>
<line x1="20.000000" y1="132.000000" x2="24.000000" y2="132.000000"  style="stroke:black; stroke-linecap:round; stroke-width:0.25;"/>
<line x1="24.000000" y1="132.000000" x2="28.000000" y2="132.000000"  style="stroke:black; stroke-linecap:round; stroke-width:0.25;"/>
<line x1="28.000000" y1="132.000000" x2="28.000000" y2="132.000000"  style="stroke:black; stroke-linecap:round; stroke-width:0.25;"/>
<line x1="28.000000" y1="132.000000" x2="32.000000" y2="132.000000"  style="stroke:black; stroke-linecap:round; stroke-width:0.25;"/>
<line x1="32.000000" y1="132.000000" x2="36.000000" y2="132.000000"  style="stroke:black; stroke-linecap:round; stroke-width:0.25;"/>
<line x1="36.000000" y1="132.000000" x2="94.000000" y2="86.000000"  style="stroke:black; stroke-linecap:round; stroke-width:0.25;"/>
<line x1="36.000000" y1="132.000000" x2="94.000000" y2="170.000000"  style="stroke:black; stroke-linecap:round; stroke-width:0.25;"/>
<line x1="94.000000" y1="86.000000" x2="186.500000" y2="86.000000"  style="stroke:black; stroke-linecap:round; stroke-width:0.25;"/>
<line x1="94.000000" y1="170.000000" x2="102.000000" y2="170.000000"  style="stroke:black; stroke-linecap:round; stroke-width:0.25;"/>
<line x1="102.000000" y1="120.000000" x2="102.000000" y2="120.000000"  style="stroke:black; stroke-linecap:round; stroke-width:0.25;"/>
<line x1="102.000000" y1="120.000000" x2="102.000000" y2="162.000000"  style="stroke:black; stroke-linecap:round; stroke-width:0.25;"/>
<line x1="102.000000" y1="162.000000" x2="102.000000" y2="162.000000"  style="stroke:black; stroke-linecap:round; stroke-width:0.25;"/>
<line x1="102.000000" y1="162.000000" x2="106.000000" y2="162.000000"  style="stroke:black; stroke-linecap:round; stroke-width:0.25;"/>
<line x1="102.000000" y1="170.000000" x2="106.000000" y2="170.000000"  style="stroke:black; stroke-linecap:round; stroke-width:0.25;"/>
<line x1="130.000000" y1="166.000000" x2="134.000000" y2="166.000000"  style="stroke:black; stroke-linecap:round; stroke-width:0.25;"/>
<line x1="134.000000" y1="166.000000" x2="134.000000" y2="166.000000"  style="stroke:black; stroke-linecap:round; stroke-width:0.25;"/>
<line x1="134.000000" y1="166.000000" x2="138.000000" y2="166.000000"  style="stroke:black; stroke-linecap:round; stroke-width:0.25;"/>
<line x1="139.600000" y1="120.000000" x2="102.000000" y2="120.000000"  style="stroke:black; stroke-linecap:round; stroke-width:0.25;"/>
<line x1="143.600000" y1="120.000000" x2="139.600000" y2="120.000000"  style="stroke:black; stroke-linecap:round; stroke-width:0.25;"/>
<line x1="171.600000" y1="116.000000" x2="167.600000" y2="116.000000"  style="stroke:black; stroke-linecap:round; stroke-width:0.25;"/>
<line x1="171.600000" y1="124.000000" x2="167.600000" y2="124.000000"  style="stroke:black; stroke-linecap:round; stroke-width:0.25;"/>
<line x1="171.600000" y1="124.000000" x2="171.600000" y2="124.000000"  style="stroke:black; stroke-linecap:round; stroke-width:0.25;"/>
<line x1="171.600000" y1="146.000000" x2="171.600000" y2="124.000000"  style="stroke:black; stroke-linecap:round; stroke-width:0.25;"/>
<line x1="179.600000" y1="116.000000" x2="171.600000" y2="116.000000"  style="stroke:black; stroke-linecap:round; stroke-width:0.25;"/>
<line x1="179.600000" y1="146.000000" x2="171.600000" y2="146.000000"  style="stroke:black; stroke-linecap:round; stroke-width:0.25;"/>
<line x1="186.500000" y1="86.000000" x2="279.000000" y2="86.000000"  style="stroke:black; stroke-linecap:round; stroke-width:0.25;"/>
<line x1="189.600000" y1="116.000000" x2="179.600000" y2="116.000000"  style="stroke:black; stroke-linecap:round; stroke-width:0.25;"/>
<line x1="193.600000" y1="116.000000" x2="189.600000" y2="116.000000"  style="stroke:black; stroke-linecap:round; stroke-width:0.25;"/>
<line x1="206.500000" y1="146.000000" x2="179.600000" y2="146.000000"  style="stroke:black; stroke-linecap:round; stroke-width:0.25;"/>
<line x1="233.400000" y1="146.000000" x2="206.500000" y2="146.000000"  style="stroke:black; stroke-linecap:round; stroke-width:0.25;"/>
<line x1="267.000000" y1="166.000000" x2="271.000000" y2="166.000000"  style="stroke:black; stroke-linecap:round; stroke-width:0.25;"/>
<line x1="271.000000" y1="146.000000" x2="233.400000" y2="146.000000"  style="stroke:black; stroke-linecap:round; stroke-width:0.25;"/>
<line x1="271.000000" y1="146.000000" x2="271.000000" y2="146.000000"  style="stroke:black; stroke-linecap:round; stroke-width:0.25;"/>
<line x1="271.000000" y1="162.000000" x2="271.000000" y2="146.000000"  style="stroke:black; stroke-linecap:round; stroke-width:0.25;"/>
<line x1="271.000000" y1="166.000000" x2="273.000000" y2="166.000000"  style="stroke:black; stroke-linecap:round; stroke-width:0.25;"/>
<line x1="273.000000" y1="166.000000" x2="279.000000" y2="166.000000"  style="stroke:black; stroke-linecap:round; stroke-width:0.25;"/>
<line x1="279.000000" y1="24.000000" x2="295.000000" y2="24.000000"  style="stroke:black; stroke-linecap:round; stroke-width:0.25;"/>
<line x1="279.000000" y1="86.000000" x2="279.000000" y2="24.000000"  style="stroke:black; stroke-linecap:round; stroke-width:0.25;"/>
<line x1="279.000000" y1="86.000000" x2="279.000000" y2="86.000000"  style="stroke:black; stroke-linecap:round; stroke-width:0.25;"/>
<line x1="279.000000" y1="166.000000" x2="287.000000" y2="166.000000"  style="stroke:black; stroke-linecap:round; stroke-width:0.25;"/>
<line x1="287.000000" y1="32.000000" x2="295.000000" y2="32.000000"  style="stroke:black; stroke-linecap:round; stroke-width:0.25;"/>
<line x1="287.000000" y1="166.000000" x2="287.000000" y2="32.000000"  style="stroke:black; stroke-linecap:round; stroke-width:0.25;"/>
<line x1="295.000000" y1="24.000000" x2="392.350000" y2="24.000000"  style="stroke:black; stroke-linecap:round; stroke-width:0.25;"/>
<line x1="295.000000" y1="32.000000" x2="372.350000" y2="32.000000"  style="stroke:black; stroke-linecap:round; stroke-width:0.25;"/>
<line x1="333.000000" y1="166.000000" x2="337.000000" y2="166.000000"  style="stroke:black; stroke-linecap:round; stroke-width:0.25;"/>
<line x1="333.000000" y1="218.000000" x2="337.000000" y2="218.000000"  style="stroke:black; stroke-linecap:round; stroke-width:0.25;"/>
<line x1="337.000000" y1="166.000000" x2="347.000000" y2="166.000000"  style="stroke:black; stroke-linecap:round; stroke-width:0.25;"/>
<line x1="337.000000" y1="218.000000" x2="347.000000" y2="218.000000"  style="stroke:black; stroke-linecap:round; stroke-width:0.25;"/>
<line x1="347.000000" y1="166.000000" x2="355.000000" y2="166.000000"  style="stroke:black; stroke-linecap:round; stroke-width:0.25;"/>
<line x1="347.000000" y1="196.000000" x2="355.000000" y2="196.000000"  style="stroke:black; stroke-linecap:round; stroke-width:0.25;"/>
<line x1="347.000000" y1="218.000000" x2="347.000000" y2="196.000000"  style="stroke:black; stroke-linecap:round; stroke-width:0.25;"/>
<line x1="347.000000" y1="218.000000" x2="347.000000" y2="218.000000"  style="stroke:black; stroke-linecap:round; stroke-width:0.25;"/>
<line x1="353.000000" y1="62.000000" x2="357.000000" y2="62.000000"  style="stroke:black; stroke-linecap:round; stroke-width:0.25;"/>
<line x1="353.000000" y1="114.000000" x2="357.000000" y2="114.000000"  style="stroke:black; stroke-linecap:round; stroke-width:0.25;"/>
<line x1="355.000000" y1="166.000000" x2="355.000000" y2="188.000000"  style="stroke:black; stroke-linecap:round; stroke-width:0.25;"/>
<line x1="355.000000" y1="188.000000" x2="355.000000" y2="188.000000"  style="stroke:black; stroke-linecap:round; stroke-width:0.25;"/>
<line x1="355.000000" y1="188.000000" x2="359.000000" y2="188.000000"  style="stroke:black; stroke-linecap:round; stroke-width:0.25;"/>
<line x1="355.000000" y1="196.000000" x2="359.000000" y2="196.000000"  style="stroke:black; stroke-linecap:round; stroke-width:0.25;"/>
<line x1="357.000000" y1="62.000000" x2="367.000000" y2="62.000000"  style="stroke:black; stroke-linecap:round; stroke-width:0.25;"/>
<line x1="357.000000" y1="114.000000" x2="367.000000" y2="114.000000"  style="stroke:black; stroke-linecap:round; stroke-width:0.25;"/>
<line x1="367.000000" y1="62.000000" x2="387.000000" y2="62.000000"  style="stroke:black; stroke-linecap:round; stroke-width:0.25;"/>
<line x1="367.000000" y1="114.000000" x2="387.000000" y2="114.000000"  style="stroke:black; stroke-linecap:round; stroke-width:0.25;"/>
<line x1="372.350000" y1="32.000000" x2="449.700000" y2="32.000000"  style="stroke:black; stroke-linecap:round; stroke-width:0.25;"/>
<line x1="383.000000" y1="192.000000" x2="387.000000" y2="192.000000"  style="stroke:black; stroke-linecap:round; stroke-width:0.25;"/>
<line x1="387.000000" y1="62.000000" x2="403.000000" y2="62.000000"  style="stroke:black; stroke-linecap:round; stroke-width:0.25;"/>
<line x1="387.000000" y1="114.000000" x2="395.000000" y2="114.000000"  style="stroke:black; stroke-linecap:round; stroke-width:0.25;"/>
<line x1="387.000000" y1="148.000000" x2="403.000000" y2="148.000000"  style="stroke:black; stroke-linecap:round; stroke-width:0.25;"/>
<line x1="387.000000" y1="192.000000" x2="387.000000" y2="148.000000"  style="stroke:black; stroke-linecap:round; stroke-width:0.25;"/>
<line x1="387.000000" y1="192.000000" x2="387.000000" y2="192.000000"  style="stroke:black; stroke-linecap:round; stroke-width:0.25;"/>
<line x1="392.350000" y1="24.000000" x2="489.700000" y2="24.000000"  style="stroke:black; stroke-linecap:round; stroke-width:0.25;"/>
<line x1="395.000000" y1="114.000000" x2="395.000000" y2="140.000000"  style="stroke:black; stroke-linecap:round; stroke-width:0.25;"/>
<line x1="395.000000" y1="140.000000" x2="403.000000" y2="140.000000"  style="stroke:black; stroke-linecap:round; stroke-width:0.25;"/>
<line x1="403.000000" y1="62.000000" x2="403.000000" y2="132.000000"  style="stroke:black; stroke-linecap:round; stroke-width:0.25;"/>
<line x1="403.000000" y1="132.000000" x2="403.000000" y2="132.000000"  style="stroke:black; stroke-linecap:round; stroke-width:0.25;"/>
<line x1="403.000000" y1="132.000000" x2="407.000000" y2="132.000000"  style="stroke:black; stroke-linecap:round; stroke-width:0.25;"/>
<line x1="403.000000" y1="140.000000" x2="407.000000" y2="140.000000"  style="stroke:black; stroke-linecap:round; stroke-width:0.25;"/>
<line x1="403.000000" y1="148.000000" x2="407.000000" y2="148.000000"  style="stroke:black; stroke-linecap:round; stroke-width:0.25;"/>
<line x1="445.700000" y1="140.000000" x2="449.700000" y2="140.000000"  style="stroke:black; stroke-linecap:round; stroke-width:0.25;"/>
<line x1="449.700000" y1="140.000000" x2="457.700000" y2="140.000000"  style="stroke:black; stroke-linecap:round; stroke-width:0.25;"/>
<line x1="449.700000" y1="32.000000" x2="457.700000" y2="32.000000"  style="stroke:black; stroke-linecap:round; stroke-width:0.25;"/>
<line x1="457.700000" y1="132.000000" x2="461.700000" y2="132.000000"  style="stroke:black; stroke-linecap:round; stroke-width:0.25;"/>
<line x1="457.700000" y1="140.000000" x2="461.700000" y2="140.000000"  style="stroke:black; stroke-linecap:round; stroke-width:0.25;"/>
<line x1="457.700000" y1="32.000000" x2="457.700000" y2="132.000000"  style="stroke:black; stroke-linecap:round; stroke-width:0.25;"/>
<line x1="457.700000" y1="132.000000" x2="457.700000" y2="132.000000"  style="stroke:black; stroke-linecap:round; stroke-width:0.25;"/>
<line x1="485.700000" y1="136.000000" x2="489.700000" y2="136.000000"  style="stroke:black; stroke-linecap:round; stroke-width:0.25;"/>
<line x1="489.700000" y1="136.000000" x2="497.700000" y2="136.000000"  style="stroke:black; stroke-linecap:round; stroke-width:0.25;"/>
<line x1="489.700000" y1="24.000000" x2="497.700000" y2="24.000000"  style="stroke:black; stroke-linecap:round; stroke-width:0.25;"/>
<line x1="497.700000" y1="128.000000" x2="501.700000" y2="128.000000"  style="stroke:black; stroke-linecap:round; stroke-width:0.25;"/>
<line x1="497.700000" y1="136.000000" x2="501.700000" y2="136.000000"  style="stroke:black; stroke-linecap:round; stroke-width:0.25;"/>
<line x1="497.700000" y1="24.000000" x2="497.700000" y2="128.000000"  style="stroke:black; stroke-linecap:round; stroke-width:0.25;"/>
<line x1="497.700000" y1="128.000000" x2="497.700000" y2="128.000000"  style="stroke:black; stroke-linecap:round; stroke-width:0.25;"/>
<line x1="525.700000" y1="132.000000" x2="529.700000" y2="132.000000"  style="stroke:black; stroke-linecap:round; stroke-width:0.25;"/>
<line x1="529.700000" y1="116.000000" x2="537.700000" y2="116.000000"  style="stroke:black; stroke-linecap:round; stroke-width:0.25;"/>
<line x1="529.700000" y1="132.000000" x2="529.700000" y2="116.000000"  style="stroke:black; stroke-linecap:round; stroke-width:0.25;"/>
<line x1="529.700000" y1="132.000000" x2="529.700000" y2="132.000000"  style="stroke:black; stroke-linecap:round; stroke-width:0.25;"/>
<line x1="537.700000" y1="116.000000" x2="553.700000" y2="116.000000"  style="stroke:black; stroke-linecap:round; stroke-width:0.25;"/>
<line x1="553.700000" y1="116.000000" x2="569.700000" y2="116.000000"  style="stroke:black; stroke-linecap:round; stroke-width:0.25;"/>
<line x1="565.700000" y1="136.000000" x2="569.700000" y2="136.000000"  style="stroke:black; stroke-linecap:round; stroke-width:0.25;"/>
<line x1="569.700000" y1="116.000000" x2="577.700000" y2="116.000000"  style="stroke:black; stroke-linecap:round; stroke-width:0.25;"/>
<line x1="569.700000" y1="136.000000" x2="577.700000" y2="136.000000"  style="stroke:black; stroke-linecap:round; stroke-width:0.25;"/>
<line x1="577.700000" y1="116.000000" x2="577.700000" y2="128.000000"  style="stroke:black; stroke-linecap:round; stroke-width:0.25;"/>
<line x1="577.700000" y1="128.000000" x2="577.700000" y2="128.000000"  style="stroke:black; stroke-linecap:round; stroke-width:0.25;"/>
<line x1="577.700000" y1="128.000000" x2="581.700000" y2="128.000000"  style="stroke:black; stroke-linecap:round; stroke-width:0.25;"/>
<line x1="577.700000" y1="136.000000" x2="581.700000" y2="136.000000"  style="stroke:black; stroke-linecap:round; stroke-width:0.25;"/>
<line x1="605.700000" y1="132.000000" x2="609.700000" y2="132.000000"  style="stroke:black; stroke-linecap:round; stroke-width:0.25;"/>
<line x1="609.700000" y1="132.000000" x2="609.700000" y2="132.000000"  style="stroke:black; stroke-linecap:round; stroke-width:0.25;"/>
<line x1="609.700000" y1="132.000000" x2="613.700000" y2="132.000000"  style="stroke:black; stroke-linecap:round; stroke-width:0.25;"/>
<line x1="613.700000" y1="132.000000" x2="617.700000" y2="132.000000"  style="stroke:black; stroke-linecap:round; stroke-width:0.25;"/>
<line x1="617.700000" y1="132.000000" x2="627.700000" y2="132.000000"  style="stroke:black; stroke-linecap:round; stroke-width:0.25;"/>
</svg>
