<?xml version="1.0"?>
<svg xmlns="http://www.w3.org/2000/svg" xmlns:xlink="http://www.w3.org/1999/xlink" viewBox="0 0 457.100000 292.000000" width="228.550000mm" height="146.000000mm" version="1.1">
<a xlink:href="compression-0x7f87eb234680.svg">
<rect x="1.000000" y="1.000000" width="456.100000" height="291.000000" rx="0" ry="0" style="stroke:none;fill:#cccccc;"/>
<rect x="0.000000" y="0.000000" width="456.100000" height="291.000000" rx="0" ry="0" style="stroke:none;fill:#ffffff;"/>
</a>
<text x="10.000000" y="7.000000" font-family="Arial" font-size="7"></text>
<rect x="33.000000" y="135.000000" width="25.800000" height="24.000000" rx="0" ry="0" style="stroke:none;fill:#cccccc;"/>
<rect x="32.000000" y="134.000000" width="25.800000" height="24.000000" rx="0" ry="0" style="stroke:none;fill:#47945E;"/>
<text x="44.900000" y="148.000000" font-family="Arial" font-size="7" text-anchor="middle" fill="#FFFFFF">level</text>
<circle cx="34.000000" cy="136.000000" r="1"/>
<line x1="29.000000" y1="145.000000" x2="32.000000" y2="146.000000"  transform="rotate(0.000000,32.000000,146.000000)" style="stroke: black; stroke-width:0.25;"/>
<line x1="29.000000" y1="147.000000" x2="32.000000" y2="146.000000"  transform="rotate(0.000000,32.000000,146.000000)" style="stroke: black; stroke-width:0.25;"/>
<rect x="173.550000" y="25.000000" width="25.800000" height="24.000000" rx="0" ry="0" style="stroke:none;fill:#cccccc;"/>
<rect x="172.550000" y="24.000000" width="25.800000" height="24.000000" rx="0" ry="0" style="stroke:none;fill:#47945E;"/>
<text x="185.450000" y="38.000000" font-family="Arial" font-size="7" text-anchor="middle" fill="#FFFFFF">level</text>
<circle cx="174.550000" cy="26.000000" r="1"/>
<rect x="76.800000" y="67.000000" width="219.300000" height="24.000000" rx="0" ry="0" style="stroke:none;fill:#cccccc;"/>
<rect x="75.800000" y="66.000000" width="219.300000" height="24.000000" rx="0" ry="0" style="stroke:none;fill:#477881;"/>
<text x="185.450000" y="80.000000" font-family="Arial" font-size="7" text-anchor="middle" fill="#FFFFFF">vslider(Threshold, -2e+01f, -2e+01f, 2e+01f, 0.1f)</text>
<circle cx="77.800000" cy="68.000000" r="1"/>
<line x1="66.800000" y1="57.000000" x2="66.800000" y2="99.000000"  style="stroke: black; stroke-linecap:round; stroke-width:0.25; stroke-dasharray:3,3;"/>
<line x1="66.800000" y1="99.000000" x2="304.100000" y2="99.000000"  style="stroke: black; stroke-linecap:round; stroke-width:0.25; stroke-dasharray:3,3;"/>
<line x1="304.100000" y1="99.000000" x2="304.100000" y2="57.000000"  style="stroke: black; stroke-linecap:round; stroke-width:0.25; stroke-dasharray:3,3;"/>
<line x1="66.800000" y1="57.000000" x2="71.800000" y2="57.000000"  style="stroke: black; stroke-linecap:round; stroke-width:0.25; stroke-dasharray:3,3;"/>
<line x1="107.275000" y1="57.000000" x2="304.100000" y2="57.000000"  style="stroke: black; stroke-linecap:round; stroke-width:0.25; stroke-dasharray:3,3;"/>
<text x="71.800000" y="59.000000" font-family="Arial" font-size="7">threshold</text>
<rect x="322.100000" y="51.000000" width="24.000000" height="24.000000" rx="0" ry="0" style="stroke:none;fill:#cccccc;"/>
<rect x="321.100000" y="50.000000" width="24.000000" height="24.000000" rx="0" ry="0" style="stroke:none;fill:#4B71A1;"/>
<text x="333.100000" y="64.000000" font-family="Arial" font-size="7" text-anchor="middle" fill="#FFFFFF">-</text>
<circle cx="323.100000" cy="52.000000" r="1"/>
<line x1="318.100000" y1="57.000000" x2="321.100000" y2="58.000000"  transform="rotate(0.000000,321.100000,58.000000)" style="stroke: black; stroke-width:0.25;"/>
<line x1="318.100000" y1="59.000000" x2="321.100000" y2="58.000000"  transform="rotate(0.000000,321.100000,58.000000)" style="stroke: black; stroke-width:0.25;"/>
<line x1="318.100000" y1="65.000000" x2="321.100000" y2="66.000000"  transform="rotate(0.000000,321.100000,66.000000)" style="stroke: black; stroke-width:0.25;"/>
<line x1="318.100000" y1="67.000000" x2="321.100000" y2="66.000000"  transform="rotate(0.000000,321.100000,66.000000)" style="stroke: black; stroke-width:0.25;"/>
<rect x="194.450000" y="119.000000" width="24.000000" height="24.000000" rx="0" ry="0" style="stroke:none;fill:#cccccc;"/>
<rect x="193.450000" y="118.000000" width="24.000000" height="24.000000" rx="0" ry="0" style="stroke:none;fill:#f44800;"/>
<text x="205.450000" y="132.000000" font-family="Arial" font-size="7" text-anchor="middle" fill="#FFFFFF">0</text>
<circle cx="195.450000" cy="120.000000" r="1"/>
<line x1="184.450000" y1="109.000000" x2="184.450000" y2="151.000000"  style="stroke: black; stroke-linecap:round; stroke-width:0.25; stroke-dasharray:3,3;"/>
<line x1="184.450000" y1="151.000000" x2="226.450000" y2="151.000000"  style="stroke: black; stroke-linecap:round; stroke-width:0.25; stroke-dasharray:3,3;"/>
<line x1="226.450000" y1="151.000000" x2="226.450000" y2="109.000000"  style="stroke: black; stroke-linecap:round; stroke-width:0.25; stroke-dasharray:3,3;"/>
<line x1="184.450000" y1="109.000000" x2="189.450000" y2="109.000000"  style="stroke: black; stroke-linecap:round; stroke-width:0.25; stroke-dasharray:3,3;"/>
<line x1="226.450000" y1="109.000000" x2="226.450000" y2="109.000000"  style="stroke: black; stroke-linecap:round; stroke-width:0.25; stroke-dasharray:3,3;"/>
<text x="189.450000" y="111.000000" font-family="Arial" font-size="7">def_outgain</text>
<rect x="362.100000" y="77.000000" width="24.000000" height="24.000000" rx="0" ry="0" style="stroke:none;fill:#cccccc;"/>
<rect x="361.100000" y="76.000000" width="24.000000" height="24.000000" rx="0" ry="0" style="stroke:none;fill:#4B71A1;"/>
<text x="373.100000" y="90.000000" font-family="Arial" font-size="7" text-anchor="middle" fill="#FFFFFF">max</text>
<circle cx="363.100000" cy="78.000000" r="1"/>
<line x1="358.100000" y1="83.000000" x2="361.100000" y2="84.000000"  transform="rotate(0.000000,361.100000,84.000000)" style="stroke: black; stroke-width:0.25;"/>
<line x1="358.100000" y1="85.000000" x2="361.100000" y2="84.000000"  transform="rotate(0.000000,361.100000,84.000000)" style="stroke: black; stroke-width:0.25;"/>
<line x1="358.100000" y1="91.000000" x2="361.100000" y2="92.000000"  transform="rotate(0.000000,361.100000,92.000000)" style="stroke: black; stroke-width:0.25;"/>
<line x1="358.100000" y1="93.000000" x2="361.100000" y2="92.000000"  transform="rotate(0.000000,361.100000,92.000000)" style="stroke: black; stroke-width:0.25;"/>
<rect x="174.450000" y="161.000000" width="24.000000" height="24.000000" rx="0" ry="0" style="stroke:none;fill:#cccccc;"/>
<rect x="173.450000" y="160.000000" width="24.000000" height="24.000000" rx="0" ry="0" style="stroke:none;fill:#f44800;"/>
<text x="185.450000" y="174.000000" font-family="Arial" font-size="7" text-anchor="middle" fill="#FFFFFF">1</text>
<circle cx="175.450000" cy="162.000000" r="1"/>
<rect x="79.250000" y="203.000000" width="180.600000" height="24.000000" rx="0" ry="0" style="stroke:none;fill:#cccccc;"/>
<rect x="78.250000" y="202.000000" width="180.600000" height="24.000000" rx="0" ry="0" style="stroke:none;fill:#477881;"/>
<text x="168.550000" y="216.000000" font-family="Arial" font-size="7" text-anchor="middle" fill="#FFFFFF">vslider(Ratio, 2.0f, 1.0f, 2e+01f, 0.1f)</text>
<circle cx="80.250000" cy="204.000000" r="1"/>
<line x1="69.250000" y1="193.000000" x2="69.250000" y2="235.000000"  style="stroke: black; stroke-linecap:round; stroke-width:0.25; stroke-dasharray:3,3;"/>
<line x1="69.250000" y1="235.000000" x2="267.850000" y2="235.000000"  style="stroke: black; stroke-linecap:round; stroke-width:0.25; stroke-dasharray:3,3;"/>
<line x1="267.850000" y1="235.000000" x2="267.850000" y2="193.000000"  style="stroke: black; stroke-linecap:round; stroke-width:0.25; stroke-dasharray:3,3;"/>
<line x1="69.250000" y1="193.000000" x2="74.250000" y2="193.000000"  style="stroke: black; stroke-linecap:round; stroke-width:0.25; stroke-dasharray:3,3;"/>
<line x1="96.825000" y1="193.000000" x2="267.850000" y2="193.000000"  style="stroke: black; stroke-linecap:round; stroke-width:0.25; stroke-dasharray:3,3;"/>
<text x="74.250000" y="195.000000" font-family="Arial" font-size="7">ratio</text>
<rect x="277.850000" y="203.000000" width="25.800000" height="24.000000" rx="0" ry="0" style="stroke:none;fill:#cccccc;"/>
<rect x="276.850000" y="202.000000" width="25.800000" height="24.000000" rx="0" ry="0" style="stroke:none;fill:#4B71A1;"/>
<text x="289.750000" y="216.000000" font-family="Arial" font-size="7" text-anchor="middle" fill="#FFFFFF">float</text>
<circle cx="278.850000" cy="204.000000" r="1"/>
<line x1="273.850000" y1="213.000000" x2="276.850000" y2="214.000000"  transform="rotate(0.000000,276.850000,214.000000)" style="stroke: black; stroke-width:0.25;"/>
<line x1="273.850000" y1="215.000000" x2="276.850000" y2="214.000000"  transform="rotate(0.000000,276.850000,214.000000)" style="stroke: black; stroke-width:0.25;"/>
<rect x="319.650000" y="187.000000" width="24.000000" height="24.000000" rx="0" ry="0" style="stroke:none;fill:#cccccc;"/>
<rect x="318.650000" y="186.000000" width="24.000000" height="24.000000" rx="0" ry="0" style="stroke:none;fill:#4B71A1;"/>
<text x="330.650000" y="200.000000" font-family="Arial" font-size="7" text-anchor="middle" fill="#FFFFFF">/</text>
<circle cx="320.650000" cy="188.000000" r="1"/>
<line x1="315.650000" y1="193.000000" x2="318.650000" y2="194.000000"  transform="rotate(0.000000,318.650000,194.000000)" style="stroke: black; stroke-width:0.25;"/>
<line x1="315.650000" y1="195.000000" x2="318.650000" y2="194.000000"  transform="rotate(0.000000,318.650000,194.000000)" style="stroke: black; stroke-width:0.25;"/>
<line x1="315.650000" y1="201.000000" x2="318.650000" y2="202.000000"  transform="rotate(0.000000,318.650000,202.000000)" style="stroke: black; stroke-width:0.25;"/>
<line x1="315.650000" y1="203.000000" x2="318.650000" y2="202.000000"  transform="rotate(0.000000,318.650000,202.000000)" style="stroke: black; stroke-width:0.25;"/>
<rect x="194.450000" y="245.000000" width="24.000000" height="24.000000" rx="0" ry="0" style="stroke:none;fill:#cccccc;"/>
<rect x="193.450000" y="244.000000" width="24.000000" height="24.000000" rx="0" ry="0" style="stroke:none;fill:#f44800;"/>
<text x="205.450000" y="258.000000" font-family="Arial" font-size="7" text-anchor="middle" fill="#FFFFFF">1</text>
<circle cx="195.450000" cy="246.000000" r="1"/>
<rect x="359.650000" y="203.000000" width="24.000000" height="24.000000" rx="0" ry="0" style="stroke:none;fill:#cccccc;"/>
<rect x="358.650000" y="202.000000" width="24.000000" height="24.000000" rx="0" ry="0" style="stroke:none;fill:#4B71A1;"/>
<text x="370.650000" y="216.000000" font-family="Arial" font-size="7" text-anchor="middle" fill="#FFFFFF">-</text>
<circle cx="360.650000" cy="204.000000" r="1"/>
<line x1="355.650000" y1="209.000000" x2="358.650000" y2="210.000000"  transform="rotate(0.000000,358.650000,210.000000)" style="stroke: black; stroke-width:0.25;"/>
<line x1="355.650000" y1="211.000000" x2="358.650000" y2="210.000000"  transform="rotate(0.000000,358.650000,210.000000)" style="stroke: black; stroke-width:0.25;"/>
<line x1="355.650000" y1="217.000000" x2="358.650000" y2="218.000000"  transform="rotate(0.000000,358.650000,218.000000)" style="stroke: black; stroke-width:0.25;"/>
<line x1="355.650000" y1="219.000000" x2="358.650000" y2="218.000000"  transform="rotate(0.000000,358.650000,218.000000)" style="stroke: black; stroke-width:0.25;"/>
<rect x="402.100000" y="135.000000" width="24.000000" height="24.000000" rx="0" ry="0" style="stroke:none;fill:#cccccc;"/>
<rect x="401.100000" y="134.000000" width="24.000000" height="24.000000" rx="0" ry="0" style="stroke:none;fill:#4B71A1;"/>
<text x="413.100000" y="148.000000" font-family="Arial" font-size="7" text-anchor="middle" fill="#FFFFFF">*</text>
<circle cx="403.100000" cy="136.000000" r="1"/>
<line x1="398.100000" y1="141.000000" x2="401.100000" y2="142.000000"  transform="rotate(0.000000,401.100000,142.000000)" style="stroke: black; stroke-width:0.25;"/>
<line x1="398.100000" y1="143.000000" x2="401.100000" y2="142.000000"  transform="rotate(0.000000,401.100000,142.000000)" style="stroke: black; stroke-width:0.25;"/>
<line x1="398.100000" y1="149.000000" x2="401.100000" y2="150.000000"  transform="rotate(0.000000,401.100000,150.000000)" style="stroke: black; stroke-width:0.25;"/>
<line x1="398.100000" y1="151.000000" x2="401.100000" y2="150.000000"  transform="rotate(0.000000,401.100000,150.000000)" style="stroke: black; stroke-width:0.25;"/>
<line x1="15.000000" y1="15.000000" x2="15.000000" y2="277.000000"  style="stroke: black; stroke-linecap:round; stroke-width:0.25; stroke-dasharray:3,3;"/>
<line x1="15.000000" y1="277.000000" x2="442.100000" y2="277.000000"  style="stroke: black; stroke-linecap:round; stroke-width:0.25; stroke-dasharray:3,3;"/>
<line x1="442.100000" y1="277.000000" x2="442.100000" y2="15.000000"  style="stroke: black; stroke-linecap:round; stroke-width:0.25; stroke-dasharray:3,3;"/>
<line x1="15.000000" y1="15.000000" x2="20.000000" y2="15.000000"  style="stroke: black; stroke-linecap:round; stroke-width:0.25; stroke-dasharray:3,3;"/>
<line x1="119.975000" y1="15.000000" x2="442.100000" y2="15.000000"  style="stroke: black; stroke-linecap:round; stroke-width:0.25; stroke-dasharray:3,3;"/>
<text x="20.000000" y="17.000000" font-family="Arial" font-size="7">outminusin_db...e+01f, 0.1f))</text>
<line x1="444.100000" y1="145.000000" x2="447.100000" y2="146.000000"  transform="rotate(0.000000,447.100000,146.000000)" style="stroke: black; stroke-width:0.25;"/>
<line x1="444.100000" y1="147.000000" x2="447.100000" y2="146.000000"  transform="rotate(0.000000,447.100000,146.000000)" style="stroke: black; stroke-width:0.25;"/>
<line x1="10.000000" y1="146.000000" x2="20.000000" y2="146.000000"  style="stroke:black; stroke-linecap:round; stroke-width:0.25;"/>
<line x1="20.000000" y1="146.000000" x2="24.000000" y2="146.000000"  style="stroke:black; stroke-linecap:round; stroke-width:0.25;"/>
<line x1="24.000000" y1="146.000000" x2="28.000000" y2="146.000000"  style="stroke:black; stroke-linecap:round; stroke-width:0.25;"/>
<line x1="28.000000" y1="146.000000" x2="28.000000" y2="146.000000"  style="stroke:black; stroke-linecap:round; stroke-width:0.25;"/>
<line x1="28.000000" y1="146.000000" x2="32.000000" y2="146.000000"  style="stroke:black; stroke-linecap:round; stroke-width:0.25;"/>
<line x1="197.450000" y1="172.000000" x2="201.450000" y2="172.000000"  style="stroke:black; stroke-linecap:round; stroke-width:0.25;"/>
<line x1="198.350000" y1="36.000000" x2="202.350000" y2="36.000000"  style="stroke:black; stroke-linecap:round; stroke-width:0.25;"/>
<line x1="201.450000" y1="172.000000" x2="306.650000" y2="172.000000"  style="stroke:black; stroke-linecap:round; stroke-width:0.25;"/>
<line x1="202.350000" y1="36.000000" x2="309.100000" y2="36.000000"  style="stroke:black; stroke-linecap:round; stroke-width:0.25;"/>
<line x1="217.450000" y1="130.000000" x2="221.450000" y2="130.000000"  style="stroke:black; stroke-linecap:round; stroke-width:0.25;"/>
<line x1="217.450000" y1="256.000000" x2="221.450000" y2="256.000000"  style="stroke:black; stroke-linecap:round; stroke-width:0.25;"/>
<line x1="221.450000" y1="130.000000" x2="231.450000" y2="130.000000"  style="stroke:black; stroke-linecap:round; stroke-width:0.25;"/>
<line x1="221.450000" y1="256.000000" x2="346.650000" y2="256.000000"  style="stroke:black; stroke-linecap:round; stroke-width:0.25;"/>
<line x1="231.450000" y1="130.000000" x2="349.100000" y2="130.000000"  style="stroke:black; stroke-linecap:round; stroke-width:0.25;"/>
<line x1="258.850000" y1="214.000000" x2="262.850000" y2="214.000000"  style="stroke:black; stroke-linecap:round; stroke-width:0.25;"/>
<line x1="262.850000" y1="214.000000" x2="272.850000" y2="214.000000"  style="stroke:black; stroke-linecap:round; stroke-width:0.25;"/>
<line x1="272.850000" y1="214.000000" x2="272.850000" y2="214.000000"  style="stroke:black; stroke-linecap:round; stroke-width:0.25;"/>
<line x1="272.850000" y1="214.000000" x2="276.850000" y2="214.000000"  style="stroke:black; stroke-linecap:round; stroke-width:0.25;"/>
<line x1="295.100000" y1="78.000000" x2="299.100000" y2="78.000000"  style="stroke:black; stroke-linecap:round; stroke-width:0.25;"/>
<line x1="299.100000" y1="78.000000" x2="309.100000" y2="78.000000"  style="stroke:black; stroke-linecap:round; stroke-width:0.25;"/>
<line x1="302.650000" y1="214.000000" x2="306.650000" y2="214.000000"  style="stroke:black; stroke-linecap:round; stroke-width:0.25;"/>
<line x1="306.650000" y1="172.000000" x2="314.650000" y2="172.000000"  style="stroke:black; stroke-linecap:round; stroke-width:0.25;"/>
<line x1="306.650000" y1="202.000000" x2="314.650000" y2="202.000000"  style="stroke:black; stroke-linecap:round; stroke-width:0.25;"/>
<line x1="306.650000" y1="214.000000" x2="306.650000" y2="202.000000"  style="stroke:black; stroke-linecap:round; stroke-width:0.25;"/>
<line x1="306.650000" y1="214.000000" x2="306.650000" y2="214.000000"  style="stroke:black; stroke-linecap:round; stroke-width:0.25;"/>
<line x1="309.100000" y1="66.000000" x2="317.100000" y2="66.000000"  style="stroke:black; stroke-linecap:round; stroke-width:0.25;"/>
<line x1="309.100000" y1="78.000000" x2="309.100000" y2="66.000000"  style="stroke:black; stroke-linecap:round; stroke-width:0.25;"/>
<line x1="309.100000" y1="78.000000" x2="309.100000" y2="78.000000"  style="stroke:black; stroke-linecap:round; stroke-width:0.25;"/>
<line x1="309.100000" y1="36.000000" x2="317.100000" y2="36.000000"  style="stroke:black; stroke-linecap:round; stroke-width:0.25;"/>
<line x1="314.650000" y1="172.000000" x2="314.650000" y2="194.000000"  style="stroke:black; stroke-linecap:round; stroke-width:0.25;"/>
<line x1="314.650000" y1="194.000000" x2="314.650000" y2="194.000000"  style="stroke:black; stroke-linecap:round; stroke-width:0.25;"/>
<line x1="314.650000" y1="194.000000" x2="318.650000" y2="194.000000"  style="stroke:black; stroke-linecap:round; stroke-width:0.25;"/>
<line x1="314.650000" y1="202.000000" x2="318.650000" y2="202.000000"  style="stroke:black; stroke-linecap:round; stroke-width:0.25;"/>
<line x1="317.100000" y1="58.000000" x2="321.100000" y2="58.000000"  style="stroke:black; stroke-linecap:round; stroke-width:0.25;"/>
<line x1="317.100000" y1="66.000000" x2="321.100000" y2="66.000000"  style="stroke:black; stroke-linecap:round; stroke-width:0.25;"/>
<line x1="317.100000" y1="36.000000" x2="317.100000" y2="58.000000"  style="stroke:black; stroke-linecap:round; stroke-width:0.25;"/>
<line x1="317.100000" y1="58.000000" x2="317.100000" y2="58.000000"  style="stroke:black; stroke-linecap:round; stroke-width:0.25;"/>
<line x1="342.650000" y1="198.000000" x2="346.650000" y2="198.000000"  style="stroke:black; stroke-linecap:round; stroke-width:0.25;"/>
<line x1="345.100000" y1="62.000000" x2="349.100000" y2="62.000000"  style="stroke:black; stroke-linecap:round; stroke-width:0.25;"/>
<line x1="346.650000" y1="198.000000" x2="354.650000" y2="198.000000"  style="stroke:black; stroke-linecap:round; stroke-width:0.25;"/>
<line x1="346.650000" y1="218.000000" x2="354.650000" y2="218.000000"  style="stroke:black; stroke-linecap:round; stroke-width:0.25;"/>
<line x1="346.650000" y1="256.000000" x2="346.650000" y2="218.000000"  style="stroke:black; stroke-linecap:round; stroke-width:0.25;"/>
<line x1="346.650000" y1="256.000000" x2="346.650000" y2="256.000000"  style="stroke:black; stroke-linecap:round; stroke-width:0.25;"/>
<line x1="349.100000" y1="62.000000" x2="357.100000" y2="62.000000"  style="stroke:black; stroke-linecap:round; stroke-width:0.25;"/>
<line x1="349.100000" y1="92.000000" x2="357.100000" y2="92.000000"  style="stroke:black; stroke-linecap:round; stroke-width:0.25;"/>
<line x1="349.100000" y1="130.000000" x2="349.100000" y2="92.000000"  style="stroke:black; stroke-linecap:round; stroke-width:0.25;"/>
<line x1="349.100000" y1="130.000000" x2="349.100000" y2="130.000000"  style="stroke:black; stroke-linecap:round; stroke-width:0.25;"/>
<line x1="354.650000" y1="198.000000" x2="354.650000" y2="210.000000"  style="stroke:black; stroke-linecap:round; stroke-width:0.25;"/>
<line x1="354.650000" y1="210.000000" x2="354.650000" y2="210.000000"  style="stroke:black; stroke-linecap:round; stroke-width:0.25;"/>
<line x1="354.650000" y1="210.000000" x2="358.650000" y2="210.000000"  style="stroke:black; stroke-linecap:round; stroke-width:0.25;"/>
<line x1="354.650000" y1="218.000000" x2="358.650000" y2="218.000000"  style="stroke:black; stroke-linecap:round; stroke-width:0.25;"/>
<line x1="357.100000" y1="62.000000" x2="357.100000" y2="84.000000"  style="stroke:black; stroke-linecap:round; stroke-width:0.25;"/>
<line x1="357.100000" y1="84.000000" x2="357.100000" y2="84.000000"  style="stroke:black; stroke-linecap:round; stroke-width:0.25;"/>
<line x1="357.100000" y1="84.000000" x2="361.100000" y2="84.000000"  style="stroke:black; stroke-linecap:round; stroke-width:0.25;"/>
<line x1="357.100000" y1="92.000000" x2="361.100000" y2="92.000000"  style="stroke:black; stroke-linecap:round; stroke-width:0.25;"/>
<line x1="382.650000" y1="214.000000" x2="386.650000" y2="214.000000"  style="stroke:black; stroke-linecap:round; stroke-width:0.25;"/>
<line x1="385.100000" y1="88.000000" x2="389.100000" y2="88.000000"  style="stroke:black; stroke-linecap:round; stroke-width:0.25;"/>
<line x1="386.650000" y1="214.000000" x2="389.100000" y2="214.000000"  style="stroke:black; stroke-linecap:round; stroke-width:0.25;"/>
<line x1="389.100000" y1="88.000000" x2="397.100000" y2="88.000000"  style="stroke:black; stroke-linecap:round; stroke-width:0.25;"/>
<line x1="389.100000" y1="150.000000" x2="397.100000" y2="150.000000"  style="stroke:black; stroke-linecap:round; stroke-width:0.25;"/>
<line x1="389.100000" y1="214.000000" x2="389.100000" y2="150.000000"  style="stroke:black; stroke-linecap:round; stroke-width:0.25;"/>
<line x1="389.100000" y1="214.000000" x2="389.100000" y2="214.000000"  style="stroke:black; stroke-linecap:round; stroke-width:0.25;"/>
<line x1="397.100000" y1="88.000000" x2="397.100000" y2="142.000000"  style="stroke:black; stroke-linecap:round; stroke-width:0.25;"/>
<line x1="397.100000" y1="142.000000" x2="397.100000" y2="142.000000"  style="stroke:black; stroke-linecap:round; stroke-width:0.25;"/>
<line x1="397.100000" y1="142.000000" x2="401.100000" y2="142.000000"  style="stroke:black; stroke-linecap:round; stroke-width:0.25;"/>
<line x1="397.100000" y1="150.000000" x2="401.100000" y2="150.000000"  style="stroke:black; stroke-linecap:round; stroke-width:0.25;"/>
<line x1="425.100000" y1="146.000000" x2="429.100000" y2="146.000000"  style="stroke:black; stroke-linecap:round; stroke-width:0.25;"/>
<line x1="429.100000" y1="146.000000" x2="429.100000" y2="146.000000"  style="stroke:black; stroke-linecap:round; stroke-width:0.25;"/>
<line x1="429.100000" y1="146.000000" x2="433.100000" y2="146.000000"  style="stroke:black; stroke-linecap:round; stroke-width:0.25;"/>
<line x1="433.100000" y1="146.000000" x2="437.100000" y2="146.000000"  style="stroke:black; stroke-linecap:round; stroke-width:0.25;"/>
<line x1="437.100000" y1="146.000000" x2="447.100000" y2="146.000000"  style="stroke:black; stroke-linecap:round; stroke-width:0.25;"/>
</svg>
