<?xml version="1.0"?>
<svg xmlns="http://www.w3.org/2000/svg" xmlns:xlink="http://www.w3.org/1999/xlink" viewBox="0 0 261.400000 156.000000" width="130.700000mm" height="78.000000mm" version="1.1">
<a xlink:href="sampleAndhold-0x7f92de56ca50.svg">
<rect x="1.000000" y="1.000000" width="260.400000" height="155.000000" rx="0" ry="0" style="stroke:none;fill:#cccccc;"/>
<rect x="0.000000" y="0.000000" width="260.400000" height="155.000000" rx="0" ry="0" style="stroke:none;fill:#ffffff;"/>
</a>
<text x="10.000000" y="7.000000" font-family="Arial" font-size="7"></text>
<rect x="25.000000" y="67.000000" width="24.000000" height="24.000000" rx="0" ry="0" style="stroke:none;fill:#cccccc;"/>
<rect x="24.000000" y="66.000000" width="24.000000" height="24.000000" rx="0" ry="0" style="stroke:none;fill:#47945E;"/>
<text x="36.000000" y="80.000000" font-family="Arial" font-size="7" text-anchor="middle" fill="#FFFFFF">g</text>
<circle cx="26.000000" cy="68.000000" r="1"/>
<a xlink:href="upfront-0x7f92de569150.svg">
<rect x="57.000000" y="67.000000" width="38.700000" height="24.000000" rx="0" ry="0" style="stroke:none;fill:#cccccc;"/>
<rect x="56.000000" y="66.000000" width="38.700000" height="24.000000" rx="0" ry="0" style="stroke:none;fill:#003366;"/>
</a>
<a xlink:href="upfront-0x7f92de569150.svg">
<text x="75.350000" y="80.000000" font-family="Arial" font-size="7" text-anchor="middle" fill="#FFFFFF">upfront</text>
</a>
<circle cx="58.000000" cy="68.000000" r="1"/>
<line x1="53.000000" y1="77.000000" x2="56.000000" y2="78.000000"  transform="rotate(0.000000,56.000000,78.000000)" style="stroke: black; stroke-width:0.25;"/>
<line x1="53.000000" y1="79.000000" x2="56.000000" y2="78.000000"  transform="rotate(0.000000,56.000000,78.000000)" style="stroke: black; stroke-width:0.25;"/>
<a xlink:href="counter-0x7f92de56b2b0.svg">
<rect x="111.700000" y="25.000000" width="38.700000" height="24.000000" rx="0" ry="0" style="stroke:none;fill:#cccccc;"/>
<rect x="110.700000" y="24.000000" width="38.700000" height="24.000000" rx="0" ry="0" style="stroke:none;fill:#003366;"/>
</a>
<a xlink:href="counter-0x7f92de56b2b0.svg">
<text x="130.050000" y="38.000000" font-family="Arial" font-size="7" text-anchor="middle" fill="#FFFFFF">counter</text>
</a>
<circle cx="112.700000" cy="26.000000" r="1"/>
<line x1="107.700000" y1="35.000000" x2="110.700000" y2="36.000000"  transform="rotate(0.000000,110.700000,36.000000)" style="stroke: black; stroke-width:0.25;"/>
<line x1="107.700000" y1="37.000000" x2="110.700000" y2="36.000000"  transform="rotate(0.000000,110.700000,36.000000)" style="stroke: black; stroke-width:0.25;"/>
<rect x="119.050000" y="57.000000" width="24.000000" height="24.000000" rx="0" ry="0" style="stroke:none;fill:#cccccc;"/>
<rect x="118.050000" y="56.000000" width="24.000000" height="24.000000" rx="0" ry="0" style="stroke:none;fill:#f44800;"/>
<text x="130.050000" y="70.000000" font-family="Arial" font-size="7" text-anchor="middle" fill="#FFFFFF">3</text>
<circle cx="120.050000" cy="58.000000" r="1"/>
<rect x="166.400000" y="41.000000" width="24.000000" height="24.000000" rx="0" ry="0" style="stroke:none;fill:#cccccc;"/>
<rect x="165.400000" y="40.000000" width="24.000000" height="24.000000" rx="0" ry="0" style="stroke:none;fill:#4B71A1;"/>
<text x="177.400000" y="54.000000" font-family="Arial" font-size="7" text-anchor="middle" fill="#FFFFFF">-</text>
<circle cx="167.400000" cy="42.000000" r="1"/>
<line x1="162.400000" y1="47.000000" x2="165.400000" y2="48.000000"  transform="rotate(0.000000,165.400000,48.000000)" style="stroke: black; stroke-width:0.25;"/>
<line x1="162.400000" y1="49.000000" x2="165.400000" y2="48.000000"  transform="rotate(0.000000,165.400000,48.000000)" style="stroke: black; stroke-width:0.25;"/>
<line x1="162.400000" y1="55.000000" x2="165.400000" y2="56.000000"  transform="rotate(0.000000,165.400000,56.000000)" style="stroke: black; stroke-width:0.25;"/>
<line x1="162.400000" y1="57.000000" x2="165.400000" y2="56.000000"  transform="rotate(0.000000,165.400000,56.000000)" style="stroke: black; stroke-width:0.25;"/>
<rect x="139.050000" y="99.000000" width="24.000000" height="24.000000" rx="0" ry="0" style="stroke:none;fill:#cccccc;"/>
<rect x="138.050000" y="98.000000" width="24.000000" height="24.000000" rx="0" ry="0" style="stroke:none;fill:#f44800;"/>
<text x="150.050000" y="112.000000" font-family="Arial" font-size="7" text-anchor="middle" fill="#FFFFFF">0</text>
<circle cx="140.050000" cy="100.000000" r="1"/>
<line x1="129.050000" y1="89.000000" x2="129.050000" y2="131.000000"  style="stroke: black; stroke-linecap:round; stroke-width:0.25; stroke-dasharray:3,3;"/>
<line x1="129.050000" y1="131.000000" x2="171.050000" y2="131.000000"  style="stroke: black; stroke-linecap:round; stroke-width:0.25; stroke-dasharray:3,3;"/>
<line x1="171.050000" y1="131.000000" x2="171.050000" y2="89.000000"  style="stroke: black; stroke-linecap:round; stroke-width:0.25; stroke-dasharray:3,3;"/>
<line x1="129.050000" y1="89.000000" x2="134.050000" y2="89.000000"  style="stroke: black; stroke-linecap:round; stroke-width:0.25; stroke-dasharray:3,3;"/>
<line x1="171.050000" y1="89.000000" x2="171.050000" y2="89.000000"  style="stroke: black; stroke-linecap:round; stroke-width:0.25; stroke-dasharray:3,3;"/>
<text x="134.050000" y="91.000000" font-family="Arial" font-size="7">pressureEnvelope</text>
<rect x="206.400000" y="67.000000" width="24.000000" height="24.000000" rx="0" ry="0" style="stroke:none;fill:#cccccc;"/>
<rect x="205.400000" y="66.000000" width="24.000000" height="24.000000" rx="0" ry="0" style="stroke:none;fill:#4B71A1;"/>
<text x="217.400000" y="80.000000" font-family="Arial" font-size="7" text-anchor="middle" fill="#FFFFFF">&lt;=</text>
<circle cx="207.400000" cy="68.000000" r="1"/>
<line x1="202.400000" y1="73.000000" x2="205.400000" y2="74.000000"  transform="rotate(0.000000,205.400000,74.000000)" style="stroke: black; stroke-width:0.25;"/>
<line x1="202.400000" y1="75.000000" x2="205.400000" y2="74.000000"  transform="rotate(0.000000,205.400000,74.000000)" style="stroke: black; stroke-width:0.25;"/>
<line x1="202.400000" y1="81.000000" x2="205.400000" y2="82.000000"  transform="rotate(0.000000,205.400000,82.000000)" style="stroke: black; stroke-width:0.25;"/>
<line x1="202.400000" y1="83.000000" x2="205.400000" y2="82.000000"  transform="rotate(0.000000,205.400000,82.000000)" style="stroke: black; stroke-width:0.25;"/>
<line x1="15.000000" y1="15.000000" x2="15.000000" y2="141.000000"  style="stroke: black; stroke-linecap:round; stroke-width:0.25; stroke-dasharray:3,3;"/>
<line x1="15.000000" y1="141.000000" x2="246.400000" y2="141.000000"  style="stroke: black; stroke-linecap:round; stroke-width:0.25; stroke-dasharray:3,3;"/>
<line x1="246.400000" y1="141.000000" x2="246.400000" y2="15.000000"  style="stroke: black; stroke-linecap:round; stroke-width:0.25; stroke-dasharray:3,3;"/>
<line x1="15.000000" y1="15.000000" x2="20.000000" y2="15.000000"  style="stroke: black; stroke-linecap:round; stroke-width:0.25; stroke-dasharray:3,3;"/>
<line x1="65.150000" y1="15.000000" x2="246.400000" y2="15.000000"  style="stroke: black; stroke-linecap:round; stroke-width:0.25; stroke-dasharray:3,3;"/>
<text x="20.000000" y="17.000000" font-family="Arial" font-size="7">sahgate(x99)</text>
<line x1="248.400000" y1="77.000000" x2="251.400000" y2="78.000000"  transform="rotate(0.000000,251.400000,78.000000)" style="stroke: black; stroke-width:0.25;"/>
<line x1="248.400000" y1="79.000000" x2="251.400000" y2="78.000000"  transform="rotate(0.000000,251.400000,78.000000)" style="stroke: black; stroke-width:0.25;"/>
<line x1="48.000000" y1="78.000000" x2="52.000000" y2="78.000000"  style="stroke:black; stroke-linecap:round; stroke-width:0.25;"/>
<line x1="52.000000" y1="78.000000" x2="52.000000" y2="78.000000"  style="stroke:black; stroke-linecap:round; stroke-width:0.25;"/>
<line x1="52.000000" y1="78.000000" x2="56.000000" y2="78.000000"  style="stroke:black; stroke-linecap:round; stroke-width:0.25;"/>
<line x1="94.700000" y1="78.000000" x2="98.700000" y2="78.000000"  style="stroke:black; stroke-linecap:round; stroke-width:0.25;"/>
<line x1="98.700000" y1="36.000000" x2="106.700000" y2="36.000000"  style="stroke:black; stroke-linecap:round; stroke-width:0.25;"/>
<line x1="98.700000" y1="78.000000" x2="98.700000" y2="36.000000"  style="stroke:black; stroke-linecap:round; stroke-width:0.25;"/>
<line x1="98.700000" y1="78.000000" x2="98.700000" y2="78.000000"  style="stroke:black; stroke-linecap:round; stroke-width:0.25;"/>
<line x1="106.700000" y1="36.000000" x2="110.700000" y2="36.000000"  style="stroke:black; stroke-linecap:round; stroke-width:0.25;"/>
<line x1="142.050000" y1="68.000000" x2="146.050000" y2="68.000000"  style="stroke:black; stroke-linecap:round; stroke-width:0.25;"/>
<line x1="146.050000" y1="68.000000" x2="153.400000" y2="68.000000"  style="stroke:black; stroke-linecap:round; stroke-width:0.25;"/>
<line x1="149.400000" y1="36.000000" x2="153.400000" y2="36.000000"  style="stroke:black; stroke-linecap:round; stroke-width:0.25;"/>
<line x1="153.400000" y1="36.000000" x2="161.400000" y2="36.000000"  style="stroke:black; stroke-linecap:round; stroke-width:0.25;"/>
<line x1="153.400000" y1="56.000000" x2="161.400000" y2="56.000000"  style="stroke:black; stroke-linecap:round; stroke-width:0.25;"/>
<line x1="153.400000" y1="68.000000" x2="153.400000" y2="56.000000"  style="stroke:black; stroke-linecap:round; stroke-width:0.25;"/>
<line x1="153.400000" y1="68.000000" x2="153.400000" y2="68.000000"  style="stroke:black; stroke-linecap:round; stroke-width:0.25;"/>
<line x1="161.400000" y1="36.000000" x2="161.400000" y2="48.000000"  style="stroke:black; stroke-linecap:round; stroke-width:0.25;"/>
<line x1="161.400000" y1="48.000000" x2="161.400000" y2="48.000000"  style="stroke:black; stroke-linecap:round; stroke-width:0.25;"/>
<line x1="161.400000" y1="48.000000" x2="165.400000" y2="48.000000"  style="stroke:black; stroke-linecap:round; stroke-width:0.25;"/>
<line x1="161.400000" y1="56.000000" x2="165.400000" y2="56.000000"  style="stroke:black; stroke-linecap:round; stroke-width:0.25;"/>
<line x1="162.050000" y1="110.000000" x2="166.050000" y2="110.000000"  style="stroke:black; stroke-linecap:round; stroke-width:0.25;"/>
<line x1="166.050000" y1="110.000000" x2="176.050000" y2="110.000000"  style="stroke:black; stroke-linecap:round; stroke-width:0.25;"/>
<line x1="176.050000" y1="110.000000" x2="193.400000" y2="110.000000"  style="stroke:black; stroke-linecap:round; stroke-width:0.25;"/>
<line x1="189.400000" y1="52.000000" x2="193.400000" y2="52.000000"  style="stroke:black; stroke-linecap:round; stroke-width:0.25;"/>
<line x1="193.400000" y1="52.000000" x2="201.400000" y2="52.000000"  style="stroke:black; stroke-linecap:round; stroke-width:0.25;"/>
<line x1="193.400000" y1="82.000000" x2="201.400000" y2="82.000000"  style="stroke:black; stroke-linecap:round; stroke-width:0.25;"/>
<line x1="193.400000" y1="110.000000" x2="193.400000" y2="82.000000"  style="stroke:black; stroke-linecap:round; stroke-width:0.25;"/>
<line x1="193.400000" y1="110.000000" x2="193.400000" y2="110.000000"  style="stroke:black; stroke-linecap:round; stroke-width:0.25;"/>
<line x1="201.400000" y1="52.000000" x2="201.400000" y2="74.000000"  style="stroke:black; stroke-linecap:round; stroke-width:0.25;"/>
<line x1="201.400000" y1="74.000000" x2="201.400000" y2="74.000000"  style="stroke:black; stroke-linecap:round; stroke-width:0.25;"/>
<line x1="201.400000" y1="74.000000" x2="205.400000" y2="74.000000"  style="stroke:black; stroke-linecap:round; stroke-width:0.25;"/>
<line x1="201.400000" y1="82.000000" x2="205.400000" y2="82.000000"  style="stroke:black; stroke-linecap:round; stroke-width:0.25;"/>
<line x1="229.400000" y1="78.000000" x2="233.400000" y2="78.000000"  style="stroke:black; stroke-linecap:round; stroke-width:0.25;"/>
<line x1="233.400000" y1="78.000000" x2="233.400000" y2="78.000000"  style="stroke:black; stroke-linecap:round; stroke-width:0.25;"/>
<line x1="233.400000" y1="78.000000" x2="237.400000" y2="78.000000"  style="stroke:black; stroke-linecap:round; stroke-width:0.25;"/>
<line x1="237.400000" y1="78.000000" x2="241.400000" y2="78.000000"  style="stroke:black; stroke-linecap:round; stroke-width:0.25;"/>
<line x1="241.400000" y1="78.000000" x2="251.400000" y2="78.000000"  style="stroke:black; stroke-linecap:round; stroke-width:0.25;"/>
</svg>
