<?xml version="1.0"?>
<svg xmlns="http://www.w3.org/2000/svg" xmlns:xlink="http://www.w3.org/1999/xlink" viewBox="0 0 474.900000 208.000000" width="237.450000mm" height="104.000000mm" version="1.1">
<a xlink:href="c-0x7fae1b4e57f0.svg">
<rect x="1.000000" y="1.000000" width="473.900000" height="207.000000" rx="0" ry="0" style="stroke:none;fill:#cccccc;"/>
<rect x="0.000000" y="0.000000" width="473.900000" height="207.000000" rx="0" ry="0" style="stroke:none;fill:#ffffff;"/>
</a>
<text x="10.000000" y="7.000000" font-family="Arial" font-size="7"></text>
<rect x="35.000000" y="35.000000" width="206.400000" height="24.000000" rx="0" ry="0" style="stroke:none;fill:#cccccc;"/>
<rect x="34.000000" y="34.000000" width="206.400000" height="24.000000" rx="0" ry="0" style="stroke:none;fill:#477881;"/>
<text x="137.200000" y="48.000000" font-family="Arial" font-size="7" text-anchor="middle" fill="#FFFFFF">hslider(Modulation, 0.02f, 0.0f, 0.1f, 0.001f)</text>
<circle cx="36.000000" cy="36.000000" r="1"/>
<line x1="25.000000" y1="25.000000" x2="25.000000" y2="67.000000"  style="stroke: black; stroke-linecap:round; stroke-width:0.25; stroke-dasharray:3,3;"/>
<line x1="25.000000" y1="67.000000" x2="249.400000" y2="67.000000"  style="stroke: black; stroke-linecap:round; stroke-width:0.25; stroke-dasharray:3,3;"/>
<line x1="249.400000" y1="67.000000" x2="249.400000" y2="25.000000"  style="stroke: black; stroke-linecap:round; stroke-width:0.25; stroke-dasharray:3,3;"/>
<line x1="25.000000" y1="25.000000" x2="30.000000" y2="25.000000"  style="stroke: black; stroke-linecap:round; stroke-width:0.25; stroke-dasharray:3,3;"/>
<line x1="75.150000" y1="25.000000" x2="249.400000" y2="25.000000"  style="stroke: black; stroke-linecap:round; stroke-width:0.25; stroke-dasharray:3,3;"/>
<text x="30.000000" y="27.000000" font-family="Arial" font-size="7">nonLinearity</text>
<a xlink:href="smooth-0x7fae1d3965c0.svg">
<rect x="259.400000" y="35.000000" width="64.500000" height="24.000000" rx="0" ry="0" style="stroke:none;fill:#cccccc;"/>
<rect x="258.400000" y="34.000000" width="64.500000" height="24.000000" rx="0" ry="0" style="stroke:none;fill:#003366;"/>
</a>
<a xlink:href="smooth-0x7fae1d3965c0.svg">
<text x="290.650000" y="48.000000" font-family="Arial" font-size="7" text-anchor="middle" fill="#FFFFFF">smooth(0.999f)</text>
</a>
<circle cx="260.400000" cy="36.000000" r="1"/>
<line x1="255.400000" y1="45.000000" x2="258.400000" y2="46.000000"  transform="rotate(0.000000,258.400000,46.000000)" style="stroke: black; stroke-width:0.25;"/>
<line x1="255.400000" y1="47.000000" x2="258.400000" y2="46.000000"  transform="rotate(0.000000,258.400000,46.000000)" style="stroke: black; stroke-width:0.25;"/>
<rect x="155.100000" y="87.000000" width="38.700000" height="24.000000" rx="0" ry="0" style="stroke:none;fill:#cccccc;"/>
<rect x="154.100000" y="86.000000" width="38.700000" height="24.000000" rx="0" ry="0" style="stroke:none;fill:#f44800;"/>
<text x="173.450000" y="100.000000" font-family="Arial" font-size="7" text-anchor="middle" fill="#FFFFFF">3.14159</text>
<circle cx="156.100000" cy="88.000000" r="1"/>
<line x1="145.100000" y1="77.000000" x2="145.100000" y2="119.000000"  style="stroke: black; stroke-linecap:round; stroke-width:0.25; stroke-dasharray:3,3;"/>
<line x1="145.100000" y1="119.000000" x2="201.800000" y2="119.000000"  style="stroke: black; stroke-linecap:round; stroke-width:0.25; stroke-dasharray:3,3;"/>
<line x1="201.800000" y1="119.000000" x2="201.800000" y2="77.000000"  style="stroke: black; stroke-linecap:round; stroke-width:0.25; stroke-dasharray:3,3;"/>
<line x1="145.100000" y1="77.000000" x2="150.100000" y2="77.000000"  style="stroke: black; stroke-linecap:round; stroke-width:0.25; stroke-dasharray:3,3;"/>
<line x1="163.000000" y1="77.000000" x2="201.800000" y2="77.000000"  style="stroke: black; stroke-linecap:round; stroke-width:0.25; stroke-dasharray:3,3;"/>
<text x="150.100000" y="79.000000" font-family="Arial" font-size="7">PI</text>
<rect x="339.900000" y="61.000000" width="24.000000" height="24.000000" rx="0" ry="0" style="stroke:none;fill:#cccccc;"/>
<rect x="338.900000" y="60.000000" width="24.000000" height="24.000000" rx="0" ry="0" style="stroke:none;fill:#4B71A1;"/>
<text x="350.900000" y="74.000000" font-family="Arial" font-size="7" text-anchor="middle" fill="#FFFFFF">*</text>
<circle cx="340.900000" cy="62.000000" r="1"/>
<line x1="335.900000" y1="67.000000" x2="338.900000" y2="68.000000"  transform="rotate(0.000000,338.900000,68.000000)" style="stroke: black; stroke-width:0.25;"/>
<line x1="335.900000" y1="69.000000" x2="338.900000" y2="68.000000"  transform="rotate(0.000000,338.900000,68.000000)" style="stroke: black; stroke-width:0.25;"/>
<line x1="335.900000" y1="75.000000" x2="338.900000" y2="76.000000"  transform="rotate(0.000000,338.900000,76.000000)" style="stroke: black; stroke-width:0.25;"/>
<line x1="335.900000" y1="77.000000" x2="338.900000" y2="76.000000"  transform="rotate(0.000000,338.900000,76.000000)" style="stroke: black; stroke-width:0.25;"/>
<a xlink:href="osc-0x7fae1b4e42b0.svg">
<rect x="129.950000" y="129.000000" width="129.000000" height="24.000000" rx="0" ry="0" style="stroke:none;fill:#cccccc;"/>
<rect x="128.950000" y="128.000000" width="129.000000" height="24.000000" rx="0" ry="0" style="stroke:none;fill:#003366;"/>
</a>
<a xlink:href="osc-0x7fae1b4e42b0.svg">
<text x="193.450000" y="142.000000" font-family="Arial" font-size="7" text-anchor="middle" fill="#FFFFFF">osc(((3,4 : =...*)) : *) : +)</text>
</a>
<circle cx="130.950000" cy="130.000000" r="1"/>
<rect x="379.900000" y="77.000000" width="24.000000" height="24.000000" rx="0" ry="0" style="stroke:none;fill:#cccccc;"/>
<rect x="378.900000" y="76.000000" width="24.000000" height="24.000000" rx="0" ry="0" style="stroke:none;fill:#4B71A1;"/>
<text x="390.900000" y="90.000000" font-family="Arial" font-size="7" text-anchor="middle" fill="#FFFFFF">*</text>
<circle cx="380.900000" cy="78.000000" r="1"/>
<line x1="375.900000" y1="83.000000" x2="378.900000" y2="84.000000"  transform="rotate(0.000000,378.900000,84.000000)" style="stroke: black; stroke-width:0.25;"/>
<line x1="375.900000" y1="85.000000" x2="378.900000" y2="84.000000"  transform="rotate(0.000000,378.900000,84.000000)" style="stroke: black; stroke-width:0.25;"/>
<line x1="375.900000" y1="91.000000" x2="378.900000" y2="92.000000"  transform="rotate(0.000000,378.900000,92.000000)" style="stroke: black; stroke-width:0.25;"/>
<line x1="375.900000" y1="93.000000" x2="378.900000" y2="92.000000"  transform="rotate(0.000000,378.900000,92.000000)" style="stroke: black; stroke-width:0.25;"/>
<rect x="202.450000" y="161.000000" width="24.000000" height="24.000000" rx="0" ry="0" style="stroke:none;fill:#cccccc;"/>
<rect x="201.450000" y="160.000000" width="24.000000" height="24.000000" rx="0" ry="0" style="stroke:none;fill:#f44800;"/>
<text x="213.450000" y="174.000000" font-family="Arial" font-size="7" text-anchor="middle" fill="#FFFFFF">1</text>
<circle cx="203.450000" cy="162.000000" r="1"/>
<rect x="419.900000" y="93.000000" width="24.000000" height="24.000000" rx="0" ry="0" style="stroke:none;fill:#cccccc;"/>
<rect x="418.900000" y="92.000000" width="24.000000" height="24.000000" rx="0" ry="0" style="stroke:none;fill:#4B71A1;"/>
<text x="430.900000" y="106.000000" font-family="Arial" font-size="7" text-anchor="middle" fill="#FFFFFF">*</text>
<circle cx="420.900000" cy="94.000000" r="1"/>
<line x1="415.900000" y1="99.000000" x2="418.900000" y2="100.000000"  transform="rotate(0.000000,418.900000,100.000000)" style="stroke: black; stroke-width:0.25;"/>
<line x1="415.900000" y1="101.000000" x2="418.900000" y2="100.000000"  transform="rotate(0.000000,418.900000,100.000000)" style="stroke: black; stroke-width:0.25;"/>
<line x1="415.900000" y1="107.000000" x2="418.900000" y2="108.000000"  transform="rotate(0.000000,418.900000,108.000000)" style="stroke: black; stroke-width:0.25;"/>
<line x1="415.900000" y1="109.000000" x2="418.900000" y2="108.000000"  transform="rotate(0.000000,418.900000,108.000000)" style="stroke: black; stroke-width:0.25;"/>
<line x1="15.000000" y1="15.000000" x2="15.000000" y2="193.000000"  style="stroke: black; stroke-linecap:round; stroke-width:0.25; stroke-dasharray:3,3;"/>
<line x1="15.000000" y1="193.000000" x2="459.900000" y2="193.000000"  style="stroke: black; stroke-linecap:round; stroke-width:0.25; stroke-dasharray:3,3;"/>
<line x1="459.900000" y1="193.000000" x2="459.900000" y2="15.000000"  style="stroke: black; stroke-linecap:round; stroke-width:0.25; stroke-dasharray:3,3;"/>
<line x1="15.000000" y1="15.000000" x2="20.000000" y2="15.000000"  style="stroke: black; stroke-linecap:round; stroke-width:0.25; stroke-dasharray:3,3;"/>
<line x1="39.350000" y1="15.000000" x2="459.900000" y2="15.000000"  style="stroke: black; stroke-linecap:round; stroke-width:0.25; stroke-dasharray:3,3;"/>
<text x="20.000000" y="17.000000" font-family="Arial" font-size="7">tosc</text>
<line x1="461.900000" y1="103.000000" x2="464.900000" y2="104.000000"  transform="rotate(0.000000,464.900000,104.000000)" style="stroke: black; stroke-width:0.25;"/>
<line x1="461.900000" y1="105.000000" x2="464.900000" y2="104.000000"  transform="rotate(0.000000,464.900000,104.000000)" style="stroke: black; stroke-width:0.25;"/>
<line x1="192.800000" y1="98.000000" x2="196.800000" y2="98.000000"  style="stroke:black; stroke-linecap:round; stroke-width:0.25;"/>
<line x1="196.800000" y1="98.000000" x2="206.800000" y2="98.000000"  style="stroke:black; stroke-linecap:round; stroke-width:0.25;"/>
<line x1="206.800000" y1="98.000000" x2="326.900000" y2="98.000000"  style="stroke:black; stroke-linecap:round; stroke-width:0.25;"/>
<line x1="225.450000" y1="172.000000" x2="229.450000" y2="172.000000"  style="stroke:black; stroke-linecap:round; stroke-width:0.25;"/>
<line x1="229.450000" y1="172.000000" x2="406.900000" y2="172.000000"  style="stroke:black; stroke-linecap:round; stroke-width:0.25;"/>
<line x1="240.400000" y1="46.000000" x2="244.400000" y2="46.000000"  style="stroke:black; stroke-linecap:round; stroke-width:0.25;"/>
<line x1="244.400000" y1="46.000000" x2="254.400000" y2="46.000000"  style="stroke:black; stroke-linecap:round; stroke-width:0.25;"/>
<line x1="254.400000" y1="46.000000" x2="254.400000" y2="46.000000"  style="stroke:black; stroke-linecap:round; stroke-width:0.25;"/>
<line x1="254.400000" y1="46.000000" x2="258.400000" y2="46.000000"  style="stroke:black; stroke-linecap:round; stroke-width:0.25;"/>
<line x1="257.950000" y1="140.000000" x2="261.950000" y2="140.000000"  style="stroke:black; stroke-linecap:round; stroke-width:0.25;"/>
<line x1="261.950000" y1="140.000000" x2="366.900000" y2="140.000000"  style="stroke:black; stroke-linecap:round; stroke-width:0.25;"/>
<line x1="322.900000" y1="46.000000" x2="326.900000" y2="46.000000"  style="stroke:black; stroke-linecap:round; stroke-width:0.25;"/>
<line x1="326.900000" y1="46.000000" x2="334.900000" y2="46.000000"  style="stroke:black; stroke-linecap:round; stroke-width:0.25;"/>
<line x1="326.900000" y1="76.000000" x2="334.900000" y2="76.000000"  style="stroke:black; stroke-linecap:round; stroke-width:0.25;"/>
<line x1="326.900000" y1="98.000000" x2="326.900000" y2="76.000000"  style="stroke:black; stroke-linecap:round; stroke-width:0.25;"/>
<line x1="326.900000" y1="98.000000" x2="326.900000" y2="98.000000"  style="stroke:black; stroke-linecap:round; stroke-width:0.25;"/>
<line x1="334.900000" y1="46.000000" x2="334.900000" y2="68.000000"  style="stroke:black; stroke-linecap:round; stroke-width:0.25;"/>
<line x1="334.900000" y1="68.000000" x2="334.900000" y2="68.000000"  style="stroke:black; stroke-linecap:round; stroke-width:0.25;"/>
<line x1="334.900000" y1="68.000000" x2="338.900000" y2="68.000000"  style="stroke:black; stroke-linecap:round; stroke-width:0.25;"/>
<line x1="334.900000" y1="76.000000" x2="338.900000" y2="76.000000"  style="stroke:black; stroke-linecap:round; stroke-width:0.25;"/>
<line x1="362.900000" y1="72.000000" x2="366.900000" y2="72.000000"  style="stroke:black; stroke-linecap:round; stroke-width:0.25;"/>
<line x1="366.900000" y1="72.000000" x2="374.900000" y2="72.000000"  style="stroke:black; stroke-linecap:round; stroke-width:0.25;"/>
<line x1="366.900000" y1="92.000000" x2="374.900000" y2="92.000000"  style="stroke:black; stroke-linecap:round; stroke-width:0.25;"/>
<line x1="366.900000" y1="140.000000" x2="366.900000" y2="92.000000"  style="stroke:black; stroke-linecap:round; stroke-width:0.25;"/>
<line x1="366.900000" y1="140.000000" x2="366.900000" y2="140.000000"  style="stroke:black; stroke-linecap:round; stroke-width:0.25;"/>
<line x1="374.900000" y1="72.000000" x2="374.900000" y2="84.000000"  style="stroke:black; stroke-linecap:round; stroke-width:0.25;"/>
<line x1="374.900000" y1="84.000000" x2="374.900000" y2="84.000000"  style="stroke:black; stroke-linecap:round; stroke-width:0.25;"/>
<line x1="374.900000" y1="84.000000" x2="378.900000" y2="84.000000"  style="stroke:black; stroke-linecap:round; stroke-width:0.25;"/>
<line x1="374.900000" y1="92.000000" x2="378.900000" y2="92.000000"  style="stroke:black; stroke-linecap:round; stroke-width:0.25;"/>
<line x1="402.900000" y1="88.000000" x2="406.900000" y2="88.000000"  style="stroke:black; stroke-linecap:round; stroke-width:0.25;"/>
<line x1="406.900000" y1="88.000000" x2="414.900000" y2="88.000000"  style="stroke:black; stroke-linecap:round; stroke-width:0.25;"/>
<line x1="406.900000" y1="108.000000" x2="414.900000" y2="108.000000"  style="stroke:black; stroke-linecap:round; stroke-width:0.25;"/>
<line x1="406.900000" y1="172.000000" x2="406.900000" y2="108.000000"  style="stroke:black; stroke-linecap:round; stroke-width:0.25;"/>
<line x1="406.900000" y1="172.000000" x2="406.900000" y2="172.000000"  style="stroke:black; stroke-linecap:round; stroke-width:0.25;"/>
<line x1="414.900000" y1="88.000000" x2="414.900000" y2="100.000000"  style="stroke:black; stroke-linecap:round; stroke-width:0.25;"/>
<line x1="414.900000" y1="100.000000" x2="414.900000" y2="100.000000"  style="stroke:black; stroke-linecap:round; stroke-width:0.25;"/>
<line x1="414.900000" y1="100.000000" x2="418.900000" y2="100.000000"  style="stroke:black; stroke-linecap:round; stroke-width:0.25;"/>
<line x1="414.900000" y1="108.000000" x2="418.900000" y2="108.000000"  style="stroke:black; stroke-linecap:round; stroke-width:0.25;"/>
<line x1="442.900000" y1="104.000000" x2="446.900000" y2="104.000000"  style="stroke:black; stroke-linecap:round; stroke-width:0.25;"/>
<line x1="446.900000" y1="104.000000" x2="446.900000" y2="104.000000"  style="stroke:black; stroke-linecap:round; stroke-width:0.25;"/>
<line x1="446.900000" y1="104.000000" x2="450.900000" y2="104.000000"  style="stroke:black; stroke-linecap:round; stroke-width:0.25;"/>
<line x1="450.900000" y1="104.000000" x2="454.900000" y2="104.000000"  style="stroke:black; stroke-linecap:round; stroke-width:0.25;"/>
<line x1="454.900000" y1="104.000000" x2="464.900000" y2="104.000000"  style="stroke:black; stroke-linecap:round; stroke-width:0.25;"/>
</svg>
