<?xml version="1.0"?>
<svg xmlns="http://www.w3.org/2000/svg" xmlns:xlink="http://www.w3.org/1999/xlink" viewBox="0 0 412.600000 104.000000" width="206.300000mm" height="52.000000mm" version="1.1">
<a xlink:href="osc-0x7ffb127703a0.svg">
<rect x="1.000000" y="1.000000" width="411.600000" height="103.000000" rx="0" ry="0" style="stroke:none;fill:#cccccc;"/>
<rect x="0.000000" y="0.000000" width="411.600000" height="103.000000" rx="0" ry="0" style="stroke:none;fill:#ffffff;"/>
</a>
<text x="10.000000" y="7.000000" font-family="Arial" font-size="7"></text>
<rect x="54.800000" y="25.000000" width="25.800000" height="24.000000" rx="0" ry="0" style="stroke:none;fill:#cccccc;"/>
<rect x="53.800000" y="24.000000" width="25.800000" height="24.000000" rx="0" ry="0" style="stroke:none;fill:#47945E;"/>
<text x="66.700000" y="38.000000" font-family="Arial" font-size="7" text-anchor="middle" fill="#FFFFFF">freq</text>
<circle cx="55.800000" cy="26.000000" r="1"/>
<a xlink:href="samplingfreq-0x7ffb12751fa0.svg">
<rect x="25.000000" y="57.000000" width="51.600000" height="24.000000" rx="0" ry="0" style="stroke:none;fill:#cccccc;"/>
<rect x="24.000000" y="56.000000" width="51.600000" height="24.000000" rx="0" ry="0" style="stroke:none;fill:#003366;"/>
</a>
<a xlink:href="samplingfreq-0x7ffb12751fa0.svg">
<text x="49.800000" y="70.000000" font-family="Arial" font-size="7" text-anchor="middle" fill="#FFFFFF">samplingfreq</text>
</a>
<circle cx="26.000000" cy="58.000000" r="1"/>
<rect x="84.600000" y="57.000000" width="25.800000" height="24.000000" rx="0" ry="0" style="stroke:none;fill:#cccccc;"/>
<rect x="83.600000" y="56.000000" width="25.800000" height="24.000000" rx="0" ry="0" style="stroke:none;fill:#4B71A1;"/>
<text x="96.500000" y="70.000000" font-family="Arial" font-size="7" text-anchor="middle" fill="#FFFFFF">float</text>
<circle cx="85.600000" cy="58.000000" r="1"/>
<line x1="80.600000" y1="67.000000" x2="83.600000" y2="68.000000"  transform="rotate(0.000000,83.600000,68.000000)" style="stroke: black; stroke-width:0.25;"/>
<line x1="80.600000" y1="69.000000" x2="83.600000" y2="68.000000"  transform="rotate(0.000000,83.600000,68.000000)" style="stroke: black; stroke-width:0.25;"/>
<rect x="126.400000" y="41.000000" width="24.000000" height="24.000000" rx="0" ry="0" style="stroke:none;fill:#cccccc;"/>
<rect x="125.400000" y="40.000000" width="24.000000" height="24.000000" rx="0" ry="0" style="stroke:none;fill:#4B71A1;"/>
<text x="137.400000" y="54.000000" font-family="Arial" font-size="7" text-anchor="middle" fill="#FFFFFF">/</text>
<circle cx="127.400000" cy="42.000000" r="1"/>
<line x1="122.400000" y1="47.000000" x2="125.400000" y2="48.000000"  transform="rotate(0.000000,125.400000,48.000000)" style="stroke: black; stroke-width:0.25;"/>
<line x1="122.400000" y1="49.000000" x2="125.400000" y2="48.000000"  transform="rotate(0.000000,125.400000,48.000000)" style="stroke: black; stroke-width:0.25;"/>
<line x1="122.400000" y1="55.000000" x2="125.400000" y2="56.000000"  transform="rotate(0.000000,125.400000,56.000000)" style="stroke: black; stroke-width:0.25;"/>
<line x1="122.400000" y1="57.000000" x2="125.400000" y2="56.000000"  transform="rotate(0.000000,125.400000,56.000000)" style="stroke: black; stroke-width:0.25;"/>
<rect x="174.400000" y="45.000000" width="24.000000" height="24.000000" rx="0" ry="0" style="stroke:none;fill:#cccccc;"/>
<rect x="173.400000" y="44.000000" width="24.000000" height="24.000000" rx="0" ry="0" style="stroke:none;fill:#4B71A1;"/>
<text x="185.400000" y="58.000000" font-family="Arial" font-size="7" text-anchor="middle" fill="#FFFFFF">+</text>
<circle cx="175.400000" cy="46.000000" r="1"/>
<line x1="170.400000" y1="51.000000" x2="173.400000" y2="52.000000"  transform="rotate(0.000000,173.400000,52.000000)" style="stroke: black; stroke-width:0.25;"/>
<line x1="170.400000" y1="53.000000" x2="173.400000" y2="52.000000"  transform="rotate(0.000000,173.400000,52.000000)" style="stroke: black; stroke-width:0.25;"/>
<line x1="170.400000" y1="59.000000" x2="173.400000" y2="60.000000"  transform="rotate(0.000000,173.400000,60.000000)" style="stroke: black; stroke-width:0.25;"/>
<line x1="170.400000" y1="61.000000" x2="173.400000" y2="60.000000"  transform="rotate(0.000000,173.400000,60.000000)" style="stroke: black; stroke-width:0.25;"/>
<a xlink:href="decimal-0x7ffb1276c2b0.svg">
<rect x="206.400000" y="45.000000" width="38.700000" height="24.000000" rx="0" ry="0" style="stroke:none;fill:#cccccc;"/>
<rect x="205.400000" y="44.000000" width="38.700000" height="24.000000" rx="0" ry="0" style="stroke:none;fill:#003366;"/>
</a>
<a xlink:href="decimal-0x7ffb1276c2b0.svg">
<text x="224.750000" y="58.000000" font-family="Arial" font-size="7" text-anchor="middle" fill="#FFFFFF">decimal</text>
</a>
<circle cx="207.400000" cy="46.000000" r="1"/>
<line x1="202.400000" y1="55.000000" x2="205.400000" y2="56.000000"  transform="rotate(0.000000,205.400000,56.000000)" style="stroke: black; stroke-width:0.25;"/>
<line x1="202.400000" y1="57.000000" x2="205.400000" y2="56.000000"  transform="rotate(0.000000,205.400000,56.000000)" style="stroke: black; stroke-width:0.25;"/>
<line x1="246.100000" y1="56.000000" x2="246.100000" y2="52.000000"  style="stroke:black; stroke-linecap:round; stroke-width:0.25;"/>
<line x1="246.100000" y1="52.000000" x2="250.100000" y2="52.000000"  style="stroke:black; stroke-linecap:round; stroke-width:0.25;"/>
<line x1="250.100000" y1="52.000000" x2="250.100000" y2="56.000000"  style="stroke:black; stroke-linecap:round; stroke-width:0.25;"/>
<a xlink:href="tablesize-0x7ffb124402a0.svg">
<rect x="269.100000" y="45.000000" width="38.700000" height="24.000000" rx="0" ry="0" style="stroke:none;fill:#cccccc;"/>
<rect x="268.100000" y="44.000000" width="38.700000" height="24.000000" rx="0" ry="0" style="stroke:none;fill:#003366;"/>
</a>
<a xlink:href="tablesize-0x7ffb124402a0.svg">
<text x="287.450000" y="58.000000" font-family="Arial" font-size="7" text-anchor="middle" fill="#FFFFFF">tablesize</text>
</a>
<circle cx="270.100000" cy="46.000000" r="1"/>
<rect x="315.800000" y="45.000000" width="25.800000" height="24.000000" rx="0" ry="0" style="stroke:none;fill:#cccccc;"/>
<rect x="314.800000" y="44.000000" width="25.800000" height="24.000000" rx="0" ry="0" style="stroke:none;fill:#4B71A1;"/>
<text x="327.700000" y="58.000000" font-family="Arial" font-size="7" text-anchor="middle" fill="#FFFFFF">float</text>
<circle cx="316.800000" cy="46.000000" r="1"/>
<line x1="311.800000" y1="55.000000" x2="314.800000" y2="56.000000"  transform="rotate(0.000000,314.800000,56.000000)" style="stroke: black; stroke-width:0.25;"/>
<line x1="311.800000" y1="57.000000" x2="314.800000" y2="56.000000"  transform="rotate(0.000000,314.800000,56.000000)" style="stroke: black; stroke-width:0.25;"/>
<rect x="357.600000" y="41.000000" width="24.000000" height="24.000000" rx="0" ry="0" style="stroke:none;fill:#cccccc;"/>
<rect x="356.600000" y="40.000000" width="24.000000" height="24.000000" rx="0" ry="0" style="stroke:none;fill:#4B71A1;"/>
<text x="368.600000" y="54.000000" font-family="Arial" font-size="7" text-anchor="middle" fill="#FFFFFF">*</text>
<circle cx="358.600000" cy="42.000000" r="1"/>
<line x1="353.600000" y1="47.000000" x2="356.600000" y2="48.000000"  transform="rotate(0.000000,356.600000,48.000000)" style="stroke: black; stroke-width:0.25;"/>
<line x1="353.600000" y1="49.000000" x2="356.600000" y2="48.000000"  transform="rotate(0.000000,356.600000,48.000000)" style="stroke: black; stroke-width:0.25;"/>
<line x1="353.600000" y1="55.000000" x2="356.600000" y2="56.000000"  transform="rotate(0.000000,356.600000,56.000000)" style="stroke: black; stroke-width:0.25;"/>
<line x1="353.600000" y1="57.000000" x2="356.600000" y2="56.000000"  transform="rotate(0.000000,356.600000,56.000000)" style="stroke: black; stroke-width:0.25;"/>
<line x1="15.000000" y1="15.000000" x2="15.000000" y2="89.000000"  style="stroke: black; stroke-linecap:round; stroke-width:0.25; stroke-dasharray:3,3;"/>
<line x1="15.000000" y1="89.000000" x2="397.600000" y2="89.000000"  style="stroke: black; stroke-linecap:round; stroke-width:0.25; stroke-dasharray:3,3;"/>
<line x1="397.600000" y1="89.000000" x2="397.600000" y2="15.000000"  style="stroke: black; stroke-linecap:round; stroke-width:0.25; stroke-dasharray:3,3;"/>
<line x1="15.000000" y1="15.000000" x2="20.000000" y2="15.000000"  style="stroke: black; stroke-linecap:round; stroke-width:0.25; stroke-dasharray:3,3;"/>
<line x1="55.475000" y1="15.000000" x2="397.600000" y2="15.000000"  style="stroke: black; stroke-linecap:round; stroke-width:0.25; stroke-dasharray:3,3;"/>
<text x="20.000000" y="17.000000" font-family="Arial" font-size="7">phase(x7)</text>
<line x1="399.600000" y1="51.000000" x2="402.600000" y2="52.000000"  transform="rotate(0.000000,402.600000,52.000000)" style="stroke: black; stroke-width:0.25;"/>
<line x1="399.600000" y1="53.000000" x2="402.600000" y2="52.000000"  transform="rotate(0.000000,402.600000,52.000000)" style="stroke: black; stroke-width:0.25;"/>
<line x1="75.600000" y1="68.000000" x2="79.600000" y2="68.000000"  style="stroke:black; stroke-linecap:round; stroke-width:0.25;"/>
<line x1="79.600000" y1="36.000000" x2="83.600000" y2="36.000000"  style="stroke:black; stroke-linecap:round; stroke-width:0.25;"/>
<line x1="79.600000" y1="68.000000" x2="79.600000" y2="68.000000"  style="stroke:black; stroke-linecap:round; stroke-width:0.25;"/>
<line x1="79.600000" y1="68.000000" x2="83.600000" y2="68.000000"  style="stroke:black; stroke-linecap:round; stroke-width:0.25;"/>
<line x1="83.600000" y1="36.000000" x2="113.400000" y2="36.000000"  style="stroke:black; stroke-linecap:round; stroke-width:0.25;"/>
<line x1="109.400000" y1="68.000000" x2="113.400000" y2="68.000000"  style="stroke:black; stroke-linecap:round; stroke-width:0.25;"/>
<line x1="113.400000" y1="36.000000" x2="121.400000" y2="36.000000"  style="stroke:black; stroke-linecap:round; stroke-width:0.25;"/>
<line x1="113.400000" y1="56.000000" x2="121.400000" y2="56.000000"  style="stroke:black; stroke-linecap:round; stroke-width:0.25;"/>
<line x1="113.400000" y1="68.000000" x2="113.400000" y2="56.000000"  style="stroke:black; stroke-linecap:round; stroke-width:0.25;"/>
<line x1="113.400000" y1="68.000000" x2="113.400000" y2="68.000000"  style="stroke:black; stroke-linecap:round; stroke-width:0.25;"/>
<line x1="121.400000" y1="36.000000" x2="121.400000" y2="48.000000"  style="stroke:black; stroke-linecap:round; stroke-width:0.25;"/>
<line x1="121.400000" y1="48.000000" x2="121.400000" y2="48.000000"  style="stroke:black; stroke-linecap:round; stroke-width:0.25;"/>
<line x1="121.400000" y1="48.000000" x2="125.400000" y2="48.000000"  style="stroke:black; stroke-linecap:round; stroke-width:0.25;"/>
<line x1="121.400000" y1="56.000000" x2="125.400000" y2="56.000000"  style="stroke:black; stroke-linecap:round; stroke-width:0.25;"/>
<line x1="149.400000" y1="52.000000" x2="153.400000" y2="52.000000"  style="stroke:black; stroke-linecap:round; stroke-width:0.25;"/>
<line x1="153.400000" y1="52.000000" x2="161.400000" y2="52.000000"  style="stroke:black; stroke-linecap:round; stroke-width:0.25;"/>
<line x1="161.400000" y1="52.000000" x2="161.400000" y2="60.000000"  style="stroke:black; stroke-linecap:round; stroke-width:0.25;"/>
<line x1="161.400000" y1="60.000000" x2="161.400000" y2="60.000000"  style="stroke:black; stroke-linecap:round; stroke-width:0.25;"/>
<line x1="161.400000" y1="60.000000" x2="169.400000" y2="60.000000"  style="stroke:black; stroke-linecap:round; stroke-width:0.25;"/>
<line x1="169.400000" y1="36.000000" x2="169.400000" y2="36.000000"  style="stroke:black; stroke-linecap:round; stroke-width:0.25;"/>
<line x1="169.400000" y1="36.000000" x2="169.400000" y2="52.000000"  style="stroke:black; stroke-linecap:round; stroke-width:0.25;"/>
<line x1="169.400000" y1="52.000000" x2="169.400000" y2="52.000000"  style="stroke:black; stroke-linecap:round; stroke-width:0.25;"/>
<line x1="169.400000" y1="52.000000" x2="173.400000" y2="52.000000"  style="stroke:black; stroke-linecap:round; stroke-width:0.25;"/>
<line x1="169.400000" y1="60.000000" x2="173.400000" y2="60.000000"  style="stroke:black; stroke-linecap:round; stroke-width:0.25;"/>
<line x1="197.400000" y1="56.000000" x2="201.400000" y2="56.000000"  style="stroke:black; stroke-linecap:round; stroke-width:0.25;"/>
<line x1="201.400000" y1="56.000000" x2="201.400000" y2="56.000000"  style="stroke:black; stroke-linecap:round; stroke-width:0.25;"/>
<line x1="201.400000" y1="56.000000" x2="205.400000" y2="56.000000"  style="stroke:black; stroke-linecap:round; stroke-width:0.25;"/>
<line x1="208.750000" y1="36.000000" x2="169.400000" y2="36.000000"  style="stroke:black; stroke-linecap:round; stroke-width:0.25;"/>
<line x1="244.100000" y1="56.000000" x2="248.100000" y2="56.000000"  style="stroke:black; stroke-linecap:round; stroke-width:0.25;"/>
<line x1="248.100000" y1="36.000000" x2="208.750000" y2="36.000000"  style="stroke:black; stroke-linecap:round; stroke-width:0.25;"/>
<line x1="248.100000" y1="36.000000" x2="248.100000" y2="36.000000"  style="stroke:black; stroke-linecap:round; stroke-width:0.25;"/>
<line x1="248.100000" y1="52.000000" x2="248.100000" y2="36.000000"  style="stroke:black; stroke-linecap:round; stroke-width:0.25;"/>
<line x1="248.100000" y1="56.000000" x2="250.100000" y2="56.000000"  style="stroke:black; stroke-linecap:round; stroke-width:0.25;"/>
<line x1="250.100000" y1="56.000000" x2="256.100000" y2="56.000000"  style="stroke:black; stroke-linecap:round; stroke-width:0.25;"/>
<line x1="256.100000" y1="36.000000" x2="264.100000" y2="36.000000"  style="stroke:black; stroke-linecap:round; stroke-width:0.25;"/>
<line x1="256.100000" y1="56.000000" x2="256.100000" y2="36.000000"  style="stroke:black; stroke-linecap:round; stroke-width:0.25;"/>
<line x1="256.100000" y1="56.000000" x2="256.100000" y2="56.000000"  style="stroke:black; stroke-linecap:round; stroke-width:0.25;"/>
<line x1="264.100000" y1="36.000000" x2="304.350000" y2="36.000000"  style="stroke:black; stroke-linecap:round; stroke-width:0.25;"/>
<line x1="304.350000" y1="36.000000" x2="344.600000" y2="36.000000"  style="stroke:black; stroke-linecap:round; stroke-width:0.25;"/>
<line x1="306.800000" y1="56.000000" x2="310.800000" y2="56.000000"  style="stroke:black; stroke-linecap:round; stroke-width:0.25;"/>
<line x1="310.800000" y1="56.000000" x2="310.800000" y2="56.000000"  style="stroke:black; stroke-linecap:round; stroke-width:0.25;"/>
<line x1="310.800000" y1="56.000000" x2="314.800000" y2="56.000000"  style="stroke:black; stroke-linecap:round; stroke-width:0.25;"/>
<line x1="340.600000" y1="56.000000" x2="344.600000" y2="56.000000"  style="stroke:black; stroke-linecap:round; stroke-width:0.25;"/>
<line x1="344.600000" y1="36.000000" x2="352.600000" y2="36.000000"  style="stroke:black; stroke-linecap:round; stroke-width:0.25;"/>
<line x1="344.600000" y1="56.000000" x2="352.600000" y2="56.000000"  style="stroke:black; stroke-linecap:round; stroke-width:0.25;"/>
<line x1="352.600000" y1="36.000000" x2="352.600000" y2="48.000000"  style="stroke:black; stroke-linecap:round; stroke-width:0.25;"/>
<line x1="352.600000" y1="48.000000" x2="352.600000" y2="48.000000"  style="stroke:black; stroke-linecap:round; stroke-width:0.25;"/>
<line x1="352.600000" y1="48.000000" x2="356.600000" y2="48.000000"  style="stroke:black; stroke-linecap:round; stroke-width:0.25;"/>
<line x1="352.600000" y1="56.000000" x2="356.600000" y2="56.000000"  style="stroke:black; stroke-linecap:round; stroke-width:0.25;"/>
<line x1="380.600000" y1="52.000000" x2="384.600000" y2="52.000000"  style="stroke:black; stroke-linecap:round; stroke-width:0.25;"/>
<line x1="384.600000" y1="52.000000" x2="384.600000" y2="52.000000"  style="stroke:black; stroke-linecap:round; stroke-width:0.25;"/>
<line x1="384.600000" y1="52.000000" x2="388.600000" y2="52.000000"  style="stroke:black; stroke-linecap:round; stroke-width:0.25;"/>
<line x1="388.600000" y1="52.000000" x2="392.600000" y2="52.000000"  style="stroke:black; stroke-linecap:round; stroke-width:0.25;"/>
<line x1="392.600000" y1="52.000000" x2="402.600000" y2="52.000000"  style="stroke:black; stroke-linecap:round; stroke-width:0.25;"/>
</svg>
