<?xml version="1.0"?>
<svg xmlns="http://www.w3.org/2000/svg" xmlns:xlink="http://www.w3.org/1999/xlink" viewBox="0 0 418.100000 828.000000" width="209.050000mm" height="414.000000mm" version="1.1">
<rect x="1.000000" y="1.000000" width="417.100000" height="827.000000" rx="0" ry="0" style="stroke:none;fill:#cccccc;"/>
<rect x="0.000000" y="0.000000" width="417.100000" height="827.000000" rx="0" ry="0" style="stroke:none;fill:#ffffff;"/>
<text x="10.000000" y="7.000000" font-family="Arial" font-size="7"></text>
<a xlink:href="NFLeks-0x7fdb4d291d80.svg">
<rect x="41.450000" y="35.000000" width="38.700000" height="24.000000" rx="0" ry="0" style="stroke:none;fill:#cccccc;"/>
<rect x="40.450000" y="34.000000" width="38.700000" height="24.000000" rx="0" ry="0" style="stroke:none;fill:#003366;"/>
</a>
<a xlink:href="NFLeks-0x7fdb4d291d80.svg">
<text x="59.800000" y="48.000000" font-family="Arial" font-size="7" text-anchor="middle" fill="#FFFFFF">NFLeks(0)</text>
</a>
<circle cx="42.450000" cy="36.000000" r="1"/>
<a xlink:href="NFLeks-0x7fdb4d3792a0.svg">
<rect x="41.450000" y="67.000000" width="38.700000" height="24.000000" rx="0" ry="0" style="stroke:none;fill:#cccccc;"/>
<rect x="40.450000" y="66.000000" width="38.700000" height="24.000000" rx="0" ry="0" style="stroke:none;fill:#003366;"/>
</a>
<a xlink:href="NFLeks-0x7fdb4d3792a0.svg">
<text x="59.800000" y="80.000000" font-family="Arial" font-size="7" text-anchor="middle" fill="#FFFFFF">NFLeks(1)</text>
</a>
<circle cx="42.450000" cy="68.000000" r="1"/>
<a xlink:href="NFLeks-0x7fdb4d460780.svg">
<rect x="41.450000" y="99.000000" width="38.700000" height="24.000000" rx="0" ry="0" style="stroke:none;fill:#cccccc;"/>
<rect x="40.450000" y="98.000000" width="38.700000" height="24.000000" rx="0" ry="0" style="stroke:none;fill:#003366;"/>
</a>
<a xlink:href="NFLeks-0x7fdb4d460780.svg">
<text x="59.800000" y="112.000000" font-family="Arial" font-size="7" text-anchor="middle" fill="#FFFFFF">NFLeks(2)</text>
</a>
<circle cx="42.450000" cy="100.000000" r="1"/>
<a xlink:href="NFLeks-0x7fdb4d547ca0.svg">
<rect x="41.450000" y="131.000000" width="38.700000" height="24.000000" rx="0" ry="0" style="stroke:none;fill:#cccccc;"/>
<rect x="40.450000" y="130.000000" width="38.700000" height="24.000000" rx="0" ry="0" style="stroke:none;fill:#003366;"/>
</a>
<a xlink:href="NFLeks-0x7fdb4d547ca0.svg">
<text x="59.800000" y="144.000000" font-family="Arial" font-size="7" text-anchor="middle" fill="#FFFFFF">NFLeks(3)</text>
</a>
<circle cx="42.450000" cy="132.000000" r="1"/>
<a xlink:href="NFLeks-0x7fdb4d62f1c0.svg">
<rect x="41.450000" y="163.000000" width="38.700000" height="24.000000" rx="0" ry="0" style="stroke:none;fill:#cccccc;"/>
<rect x="40.450000" y="162.000000" width="38.700000" height="24.000000" rx="0" ry="0" style="stroke:none;fill:#003366;"/>
</a>
<a xlink:href="NFLeks-0x7fdb4d62f1c0.svg">
<text x="59.800000" y="176.000000" font-family="Arial" font-size="7" text-anchor="middle" fill="#FFFFFF">NFLeks(4)</text>
</a>
<circle cx="42.450000" cy="164.000000" r="1"/>
<a xlink:href="NFLeks-0x7fdb4d716770.svg">
<rect x="41.450000" y="195.000000" width="38.700000" height="24.000000" rx="0" ry="0" style="stroke:none;fill:#cccccc;"/>
<rect x="40.450000" y="194.000000" width="38.700000" height="24.000000" rx="0" ry="0" style="stroke:none;fill:#003366;"/>
</a>
<a xlink:href="NFLeks-0x7fdb4d716770.svg">
<text x="59.800000" y="208.000000" font-family="Arial" font-size="7" text-anchor="middle" fill="#FFFFFF">NFLeks(5)</text>
</a>
<circle cx="42.450000" cy="196.000000" r="1"/>
<a xlink:href="NFLeks-0x7fdb4d7f9e40.svg">
<rect x="41.450000" y="227.000000" width="38.700000" height="24.000000" rx="0" ry="0" style="stroke:none;fill:#cccccc;"/>
<rect x="40.450000" y="226.000000" width="38.700000" height="24.000000" rx="0" ry="0" style="stroke:none;fill:#003366;"/>
</a>
<a xlink:href="NFLeks-0x7fdb4d7f9e40.svg">
<text x="59.800000" y="240.000000" font-family="Arial" font-size="7" text-anchor="middle" fill="#FFFFFF">NFLeks(6)</text>
</a>
<circle cx="42.450000" cy="228.000000" r="1"/>
<a xlink:href="NFLeks-0x7fdb4d8e13f0.svg">
<rect x="41.450000" y="259.000000" width="38.700000" height="24.000000" rx="0" ry="0" style="stroke:none;fill:#cccccc;"/>
<rect x="40.450000" y="258.000000" width="38.700000" height="24.000000" rx="0" ry="0" style="stroke:none;fill:#003366;"/>
</a>
<a xlink:href="NFLeks-0x7fdb4d8e13f0.svg">
<text x="59.800000" y="272.000000" font-family="Arial" font-size="7" text-anchor="middle" fill="#FFFFFF">NFLeks(7)</text>
</a>
<circle cx="42.450000" cy="260.000000" r="1"/>
<a xlink:href="NFLeks-0x7fdb4d9c8910.svg">
<rect x="41.450000" y="291.000000" width="38.700000" height="24.000000" rx="0" ry="0" style="stroke:none;fill:#cccccc;"/>
<rect x="40.450000" y="290.000000" width="38.700000" height="24.000000" rx="0" ry="0" style="stroke:none;fill:#003366;"/>
</a>
<a xlink:href="NFLeks-0x7fdb4d9c8910.svg">
<text x="59.800000" y="304.000000" font-family="Arial" font-size="7" text-anchor="middle" fill="#FFFFFF">NFLeks(8)</text>
</a>
<circle cx="42.450000" cy="292.000000" r="1"/>
<a xlink:href="NFLeks-0x7fdb4daafec0.svg">
<rect x="41.450000" y="323.000000" width="38.700000" height="24.000000" rx="0" ry="0" style="stroke:none;fill:#cccccc;"/>
<rect x="40.450000" y="322.000000" width="38.700000" height="24.000000" rx="0" ry="0" style="stroke:none;fill:#003366;"/>
</a>
<a xlink:href="NFLeks-0x7fdb4daafec0.svg">
<text x="59.800000" y="336.000000" font-family="Arial" font-size="7" text-anchor="middle" fill="#FFFFFF">NFLeks(9)</text>
</a>
<circle cx="42.450000" cy="324.000000" r="1"/>
<a xlink:href="NFLeks-0x7fdb4db97520.svg">
<rect x="35.000000" y="355.000000" width="51.600000" height="24.000000" rx="0" ry="0" style="stroke:none;fill:#cccccc;"/>
<rect x="34.000000" y="354.000000" width="51.600000" height="24.000000" rx="0" ry="0" style="stroke:none;fill:#003366;"/>
</a>
<a xlink:href="NFLeks-0x7fdb4db97520.svg">
<text x="59.800000" y="368.000000" font-family="Arial" font-size="7" text-anchor="middle" fill="#FFFFFF">NFLeks(10)</text>
</a>
<circle cx="36.000000" cy="356.000000" r="1"/>
<a xlink:href="NFLeks-0x7fdb4dc7ea40.svg">
<rect x="35.000000" y="387.000000" width="51.600000" height="24.000000" rx="0" ry="0" style="stroke:none;fill:#cccccc;"/>
<rect x="34.000000" y="386.000000" width="51.600000" height="24.000000" rx="0" ry="0" style="stroke:none;fill:#003366;"/>
</a>
<a xlink:href="NFLeks-0x7fdb4dc7ea40.svg">
<text x="59.800000" y="400.000000" font-family="Arial" font-size="7" text-anchor="middle" fill="#FFFFFF">NFLeks(11)</text>
</a>
<circle cx="36.000000" cy="388.000000" r="1"/>
<a xlink:href="NFLeks-0x7fdb4dd65f50.svg">
<rect x="35.000000" y="419.000000" width="51.600000" height="24.000000" rx="0" ry="0" style="stroke:none;fill:#cccccc;"/>
<rect x="34.000000" y="418.000000" width="51.600000" height="24.000000" rx="0" ry="0" style="stroke:none;fill:#003366;"/>
</a>
<a xlink:href="NFLeks-0x7fdb4dd65f50.svg">
<text x="59.800000" y="432.000000" font-family="Arial" font-size="7" text-anchor="middle" fill="#FFFFFF">NFLeks(12)</text>
</a>
<circle cx="36.000000" cy="420.000000" r="1"/>
<a xlink:href="NFLeks-0x7fdb4de4d460.svg">
<rect x="35.000000" y="451.000000" width="51.600000" height="24.000000" rx="0" ry="0" style="stroke:none;fill:#cccccc;"/>
<rect x="34.000000" y="450.000000" width="51.600000" height="24.000000" rx="0" ry="0" style="stroke:none;fill:#003366;"/>
</a>
<a xlink:href="NFLeks-0x7fdb4de4d460.svg">
<text x="59.800000" y="464.000000" font-family="Arial" font-size="7" text-anchor="middle" fill="#FFFFFF">NFLeks(13)</text>
</a>
<circle cx="36.000000" cy="452.000000" r="1"/>
<a xlink:href="NFLeks-0x7fdb4df34980.svg">
<rect x="35.000000" y="483.000000" width="51.600000" height="24.000000" rx="0" ry="0" style="stroke:none;fill:#cccccc;"/>
<rect x="34.000000" y="482.000000" width="51.600000" height="24.000000" rx="0" ry="0" style="stroke:none;fill:#003366;"/>
</a>
<a xlink:href="NFLeks-0x7fdb4df34980.svg">
<text x="59.800000" y="496.000000" font-family="Arial" font-size="7" text-anchor="middle" fill="#FFFFFF">NFLeks(14)</text>
</a>
<circle cx="36.000000" cy="484.000000" r="1"/>
<a xlink:href="NFLeks-0x7fdb4e01bf40.svg">
<rect x="35.000000" y="515.000000" width="51.600000" height="24.000000" rx="0" ry="0" style="stroke:none;fill:#cccccc;"/>
<rect x="34.000000" y="514.000000" width="51.600000" height="24.000000" rx="0" ry="0" style="stroke:none;fill:#003366;"/>
</a>
<a xlink:href="NFLeks-0x7fdb4e01bf40.svg">
<text x="59.800000" y="528.000000" font-family="Arial" font-size="7" text-anchor="middle" fill="#FFFFFF">NFLeks(15)</text>
</a>
<circle cx="36.000000" cy="516.000000" r="1"/>
<a xlink:href="NFLeks-0x7fdb4e1036e0.svg">
<rect x="35.000000" y="547.000000" width="51.600000" height="24.000000" rx="0" ry="0" style="stroke:none;fill:#cccccc;"/>
<rect x="34.000000" y="546.000000" width="51.600000" height="24.000000" rx="0" ry="0" style="stroke:none;fill:#003366;"/>
</a>
<a xlink:href="NFLeks-0x7fdb4e1036e0.svg">
<text x="59.800000" y="560.000000" font-family="Arial" font-size="7" text-anchor="middle" fill="#FFFFFF">NFLeks(16)</text>
</a>
<circle cx="36.000000" cy="548.000000" r="1"/>
<a xlink:href="NFLeks-0x7fdb4e1e6d20.svg">
<rect x="35.000000" y="579.000000" width="51.600000" height="24.000000" rx="0" ry="0" style="stroke:none;fill:#cccccc;"/>
<rect x="34.000000" y="578.000000" width="51.600000" height="24.000000" rx="0" ry="0" style="stroke:none;fill:#003366;"/>
</a>
<a xlink:href="NFLeks-0x7fdb4e1e6d20.svg">
<text x="59.800000" y="592.000000" font-family="Arial" font-size="7" text-anchor="middle" fill="#FFFFFF">NFLeks(17)</text>
</a>
<circle cx="36.000000" cy="580.000000" r="1"/>
<a xlink:href="NFLeks-0x7fdb4e2ce240.svg">
<rect x="35.000000" y="611.000000" width="51.600000" height="24.000000" rx="0" ry="0" style="stroke:none;fill:#cccccc;"/>
<rect x="34.000000" y="610.000000" width="51.600000" height="24.000000" rx="0" ry="0" style="stroke:none;fill:#003366;"/>
</a>
<a xlink:href="NFLeks-0x7fdb4e2ce240.svg">
<text x="59.800000" y="624.000000" font-family="Arial" font-size="7" text-anchor="middle" fill="#FFFFFF">NFLeks(18)</text>
</a>
<circle cx="36.000000" cy="612.000000" r="1"/>
<a xlink:href="NFLeks-0x7fdb4e3b5930.svg">
<rect x="35.000000" y="643.000000" width="51.600000" height="24.000000" rx="0" ry="0" style="stroke:none;fill:#cccccc;"/>
<rect x="34.000000" y="642.000000" width="51.600000" height="24.000000" rx="0" ry="0" style="stroke:none;fill:#003366;"/>
</a>
<a xlink:href="NFLeks-0x7fdb4e3b5930.svg">
<text x="59.800000" y="656.000000" font-family="Arial" font-size="7" text-anchor="middle" fill="#FFFFFF">NFLeks(19)</text>
</a>
<circle cx="36.000000" cy="644.000000" r="1"/>
<a xlink:href="NFLeks-0x7fdb4e49d0d0.svg">
<rect x="35.000000" y="675.000000" width="51.600000" height="24.000000" rx="0" ry="0" style="stroke:none;fill:#cccccc;"/>
<rect x="34.000000" y="674.000000" width="51.600000" height="24.000000" rx="0" ry="0" style="stroke:none;fill:#003366;"/>
</a>
<a xlink:href="NFLeks-0x7fdb4e49d0d0.svg">
<text x="59.800000" y="688.000000" font-family="Arial" font-size="7" text-anchor="middle" fill="#FFFFFF">NFLeks(20)</text>
</a>
<circle cx="36.000000" cy="676.000000" r="1"/>
<a xlink:href="NFLeks-0x7fdb4e584680.svg">
<rect x="35.000000" y="707.000000" width="51.600000" height="24.000000" rx="0" ry="0" style="stroke:none;fill:#cccccc;"/>
<rect x="34.000000" y="706.000000" width="51.600000" height="24.000000" rx="0" ry="0" style="stroke:none;fill:#003366;"/>
</a>
<a xlink:href="NFLeks-0x7fdb4e584680.svg">
<text x="59.800000" y="720.000000" font-family="Arial" font-size="7" text-anchor="middle" fill="#FFFFFF">NFLeks(21)</text>
</a>
<circle cx="36.000000" cy="708.000000" r="1"/>
<a xlink:href="NFLeks-0x7fdb4e760000.svg">
<rect x="35.000000" y="739.000000" width="51.600000" height="24.000000" rx="0" ry="0" style="stroke:none;fill:#cccccc;"/>
<rect x="34.000000" y="738.000000" width="51.600000" height="24.000000" rx="0" ry="0" style="stroke:none;fill:#003366;"/>
</a>
<a xlink:href="NFLeks-0x7fdb4e760000.svg">
<text x="59.800000" y="752.000000" font-family="Arial" font-size="7" text-anchor="middle" fill="#FFFFFF">NFLeks(22)</text>
</a>
<circle cx="36.000000" cy="740.000000" r="1"/>
<a xlink:href="NFLeks-0x7fdb4e8475a0.svg">
<rect x="35.000000" y="771.000000" width="51.600000" height="24.000000" rx="0" ry="0" style="stroke:none;fill:#cccccc;"/>
<rect x="34.000000" y="770.000000" width="51.600000" height="24.000000" rx="0" ry="0" style="stroke:none;fill:#003366;"/>
</a>
<a xlink:href="NFLeks-0x7fdb4e8475a0.svg">
<text x="59.800000" y="784.000000" font-family="Arial" font-size="7" text-anchor="middle" fill="#FFFFFF">NFLeks(23)</text>
</a>
<circle cx="36.000000" cy="772.000000" r="1"/>
<a xlink:href="instrReverbHarp-0x7fdb4e96e230.svg">
<rect x="312.600000" y="403.000000" width="64.500000" height="24.000000" rx="0" ry="0" style="stroke:none;fill:#cccccc;"/>
<rect x="311.600000" y="402.000000" width="64.500000" height="24.000000" rx="0" ry="0" style="stroke:none;fill:#003366;"/>
</a>
<a xlink:href="instrReverbHarp-0x7fdb4e96e230.svg">
<text x="343.850000" y="416.000000" font-family="Arial" font-size="7" text-anchor="middle" fill="#FFFFFF">instrReverbHarp</text>
</a>
<circle cx="313.600000" cy="404.000000" r="1"/>
<line x1="308.600000" y1="409.000000" x2="311.600000" y2="410.000000"  transform="rotate(0.000000,311.600000,410.000000)" style="stroke: black; stroke-width:0.25;"/>
<line x1="308.600000" y1="411.000000" x2="311.600000" y2="410.000000"  transform="rotate(0.000000,311.600000,410.000000)" style="stroke: black; stroke-width:0.25;"/>
<line x1="308.600000" y1="417.000000" x2="311.600000" y2="418.000000"  transform="rotate(0.000000,311.600000,418.000000)" style="stroke: black; stroke-width:0.25;"/>
<line x1="308.600000" y1="419.000000" x2="311.600000" y2="418.000000"  transform="rotate(0.000000,311.600000,418.000000)" style="stroke: black; stroke-width:0.25;"/>
<line x1="25.000000" y1="25.000000" x2="25.000000" y2="803.000000"  style="stroke: black; stroke-linecap:round; stroke-width:0.25; stroke-dasharray:3,3;"/>
<line x1="25.000000" y1="803.000000" x2="385.100000" y2="803.000000"  style="stroke: black; stroke-linecap:round; stroke-width:0.25; stroke-dasharray:3,3;"/>
<line x1="385.100000" y1="803.000000" x2="385.100000" y2="25.000000"  style="stroke: black; stroke-linecap:round; stroke-width:0.25; stroke-dasharray:3,3;"/>
<line x1="25.000000" y1="25.000000" x2="30.000000" y2="25.000000"  style="stroke: black; stroke-linecap:round; stroke-width:0.25; stroke-dasharray:3,3;"/>
<line x1="123.525000" y1="25.000000" x2="385.100000" y2="25.000000"  style="stroke: black; stroke-linecap:round; stroke-width:0.25; stroke-dasharray:3,3;"/>
<text x="30.000000" y="27.000000" font-family="Arial" font-size="7">vgroup(Soft Harp - C Major)</text>
<line x1="15.000000" y1="15.000000" x2="15.000000" y2="813.000000"  style="stroke: black; stroke-linecap:round; stroke-width:0.25; stroke-dasharray:3,3;"/>
<line x1="15.000000" y1="813.000000" x2="403.100000" y2="813.000000"  style="stroke: black; stroke-linecap:round; stroke-width:0.25; stroke-dasharray:3,3;"/>
<line x1="403.100000" y1="813.000000" x2="403.100000" y2="15.000000"  style="stroke: black; stroke-linecap:round; stroke-width:0.25; stroke-dasharray:3,3;"/>
<line x1="15.000000" y1="15.000000" x2="20.000000" y2="15.000000"  style="stroke: black; stroke-linecap:round; stroke-width:0.25; stroke-dasharray:3,3;"/>
<line x1="49.025000" y1="15.000000" x2="403.100000" y2="15.000000"  style="stroke: black; stroke-linecap:round; stroke-width:0.25; stroke-dasharray:3,3;"/>
<text x="20.000000" y="17.000000" font-family="Arial" font-size="7">process</text>
<line x1="405.100000" y1="409.000000" x2="408.100000" y2="410.000000"  transform="rotate(0.000000,408.100000,410.000000)" style="stroke: black; stroke-width:0.25;"/>
<line x1="405.100000" y1="411.000000" x2="408.100000" y2="410.000000"  transform="rotate(0.000000,408.100000,410.000000)" style="stroke: black; stroke-width:0.25;"/>
<line x1="405.100000" y1="417.000000" x2="408.100000" y2="418.000000"  transform="rotate(0.000000,408.100000,418.000000)" style="stroke: black; stroke-width:0.25;"/>
<line x1="405.100000" y1="419.000000" x2="408.100000" y2="418.000000"  transform="rotate(0.000000,408.100000,418.000000)" style="stroke: black; stroke-width:0.25;"/>
<line x1="79.150000" y1="46.000000" x2="83.150000" y2="46.000000"  style="stroke:black; stroke-linecap:round; stroke-width:0.25;"/>
<line x1="79.150000" y1="78.000000" x2="83.150000" y2="78.000000"  style="stroke:black; stroke-linecap:round; stroke-width:0.25;"/>
<line x1="79.150000" y1="110.000000" x2="83.150000" y2="110.000000"  style="stroke:black; stroke-linecap:round; stroke-width:0.25;"/>
<line x1="79.150000" y1="142.000000" x2="83.150000" y2="142.000000"  style="stroke:black; stroke-linecap:round; stroke-width:0.25;"/>
<line x1="79.150000" y1="174.000000" x2="83.150000" y2="174.000000"  style="stroke:black; stroke-linecap:round; stroke-width:0.25;"/>
<line x1="79.150000" y1="206.000000" x2="83.150000" y2="206.000000"  style="stroke:black; stroke-linecap:round; stroke-width:0.25;"/>
<line x1="79.150000" y1="238.000000" x2="83.150000" y2="238.000000"  style="stroke:black; stroke-linecap:round; stroke-width:0.25;"/>
<line x1="79.150000" y1="270.000000" x2="83.150000" y2="270.000000"  style="stroke:black; stroke-linecap:round; stroke-width:0.25;"/>
<line x1="79.150000" y1="302.000000" x2="83.150000" y2="302.000000"  style="stroke:black; stroke-linecap:round; stroke-width:0.25;"/>
<line x1="79.150000" y1="334.000000" x2="83.150000" y2="334.000000"  style="stroke:black; stroke-linecap:round; stroke-width:0.25;"/>
<line x1="83.150000" y1="46.000000" x2="89.600000" y2="46.000000"  style="stroke:black; stroke-linecap:round; stroke-width:0.25;"/>
<line x1="83.150000" y1="78.000000" x2="89.600000" y2="78.000000"  style="stroke:black; stroke-linecap:round; stroke-width:0.25;"/>
<line x1="83.150000" y1="110.000000" x2="89.600000" y2="110.000000"  style="stroke:black; stroke-linecap:round; stroke-width:0.25;"/>
<line x1="83.150000" y1="142.000000" x2="89.600000" y2="142.000000"  style="stroke:black; stroke-linecap:round; stroke-width:0.25;"/>
<line x1="83.150000" y1="174.000000" x2="89.600000" y2="174.000000"  style="stroke:black; stroke-linecap:round; stroke-width:0.25;"/>
<line x1="83.150000" y1="206.000000" x2="89.600000" y2="206.000000"  style="stroke:black; stroke-linecap:round; stroke-width:0.25;"/>
<line x1="83.150000" y1="238.000000" x2="89.600000" y2="238.000000"  style="stroke:black; stroke-linecap:round; stroke-width:0.25;"/>
<line x1="83.150000" y1="270.000000" x2="89.600000" y2="270.000000"  style="stroke:black; stroke-linecap:round; stroke-width:0.25;"/>
<line x1="83.150000" y1="302.000000" x2="89.600000" y2="302.000000"  style="stroke:black; stroke-linecap:round; stroke-width:0.25;"/>
<line x1="83.150000" y1="334.000000" x2="89.600000" y2="334.000000"  style="stroke:black; stroke-linecap:round; stroke-width:0.25;"/>
<line x1="85.600000" y1="366.000000" x2="89.600000" y2="366.000000"  style="stroke:black; stroke-linecap:round; stroke-width:0.25;"/>
<line x1="85.600000" y1="398.000000" x2="89.600000" y2="398.000000"  style="stroke:black; stroke-linecap:round; stroke-width:0.25;"/>
<line x1="85.600000" y1="430.000000" x2="89.600000" y2="430.000000"  style="stroke:black; stroke-linecap:round; stroke-width:0.25;"/>
<line x1="85.600000" y1="462.000000" x2="89.600000" y2="462.000000"  style="stroke:black; stroke-linecap:round; stroke-width:0.25;"/>
<line x1="85.600000" y1="494.000000" x2="89.600000" y2="494.000000"  style="stroke:black; stroke-linecap:round; stroke-width:0.25;"/>
<line x1="85.600000" y1="526.000000" x2="89.600000" y2="526.000000"  style="stroke:black; stroke-linecap:round; stroke-width:0.25;"/>
<line x1="85.600000" y1="558.000000" x2="89.600000" y2="558.000000"  style="stroke:black; stroke-linecap:round; stroke-width:0.25;"/>
<line x1="85.600000" y1="590.000000" x2="89.600000" y2="590.000000"  style="stroke:black; stroke-linecap:round; stroke-width:0.25;"/>
<line x1="85.600000" y1="622.000000" x2="89.600000" y2="622.000000"  style="stroke:black; stroke-linecap:round; stroke-width:0.25;"/>
<line x1="85.600000" y1="654.000000" x2="89.600000" y2="654.000000"  style="stroke:black; stroke-linecap:round; stroke-width:0.25;"/>
<line x1="85.600000" y1="686.000000" x2="89.600000" y2="686.000000"  style="stroke:black; stroke-linecap:round; stroke-width:0.25;"/>
<line x1="85.600000" y1="718.000000" x2="89.600000" y2="718.000000"  style="stroke:black; stroke-linecap:round; stroke-width:0.25;"/>
<line x1="85.600000" y1="750.000000" x2="89.600000" y2="750.000000"  style="stroke:black; stroke-linecap:round; stroke-width:0.25;"/>
<line x1="85.600000" y1="782.000000" x2="89.600000" y2="782.000000"  style="stroke:black; stroke-linecap:round; stroke-width:0.25;"/>
<line x1="89.600000" y1="366.000000" x2="289.600000" y2="414.000000"  style="stroke:black; stroke-linecap:round; stroke-width:0.25;"/>
<line x1="89.600000" y1="398.000000" x2="289.600000" y2="414.000000"  style="stroke:black; stroke-linecap:round; stroke-width:0.25;"/>
<line x1="89.600000" y1="430.000000" x2="289.600000" y2="414.000000"  style="stroke:black; stroke-linecap:round; stroke-width:0.25;"/>
<line x1="89.600000" y1="462.000000" x2="289.600000" y2="414.000000"  style="stroke:black; stroke-linecap:round; stroke-width:0.25;"/>
<line x1="89.600000" y1="494.000000" x2="289.600000" y2="414.000000"  style="stroke:black; stroke-linecap:round; stroke-width:0.25;"/>
<line x1="89.600000" y1="526.000000" x2="289.600000" y2="414.000000"  style="stroke:black; stroke-linecap:round; stroke-width:0.25;"/>
<line x1="89.600000" y1="558.000000" x2="289.600000" y2="414.000000"  style="stroke:black; stroke-linecap:round; stroke-width:0.25;"/>
<line x1="89.600000" y1="590.000000" x2="289.600000" y2="414.000000"  style="stroke:black; stroke-linecap:round; stroke-width:0.25;"/>
<line x1="89.600000" y1="622.000000" x2="289.600000" y2="414.000000"  style="stroke:black; stroke-linecap:round; stroke-width:0.25;"/>
<line x1="89.600000" y1="654.000000" x2="289.600000" y2="414.000000"  style="stroke:black; stroke-linecap:round; stroke-width:0.25;"/>
<line x1="89.600000" y1="686.000000" x2="289.600000" y2="414.000000"  style="stroke:black; stroke-linecap:round; stroke-width:0.25;"/>
<line x1="89.600000" y1="718.000000" x2="289.600000" y2="414.000000"  style="stroke:black; stroke-linecap:round; stroke-width:0.25;"/>
<line x1="89.600000" y1="750.000000" x2="289.600000" y2="414.000000"  style="stroke:black; stroke-linecap:round; stroke-width:0.25;"/>
<line x1="89.600000" y1="782.000000" x2="289.600000" y2="414.000000"  style="stroke:black; stroke-linecap:round; stroke-width:0.25;"/>
<line x1="89.600000" y1="46.000000" x2="289.600000" y2="414.000000"  style="stroke:black; stroke-linecap:round; stroke-width:0.25;"/>
<line x1="89.600000" y1="78.000000" x2="289.600000" y2="414.000000"  style="stroke:black; stroke-linecap:round; stroke-width:0.25;"/>
<line x1="89.600000" y1="110.000000" x2="289.600000" y2="414.000000"  style="stroke:black; stroke-linecap:round; stroke-width:0.25;"/>
<line x1="89.600000" y1="142.000000" x2="289.600000" y2="414.000000"  style="stroke:black; stroke-linecap:round; stroke-width:0.25;"/>
<line x1="89.600000" y1="174.000000" x2="289.600000" y2="414.000000"  style="stroke:black; stroke-linecap:round; stroke-width:0.25;"/>
<line x1="89.600000" y1="206.000000" x2="289.600000" y2="414.000000"  style="stroke:black; stroke-linecap:round; stroke-width:0.25;"/>
<line x1="89.600000" y1="238.000000" x2="289.600000" y2="414.000000"  style="stroke:black; stroke-linecap:round; stroke-width:0.25;"/>
<line x1="89.600000" y1="270.000000" x2="289.600000" y2="414.000000"  style="stroke:black; stroke-linecap:round; stroke-width:0.25;"/>
<line x1="89.600000" y1="302.000000" x2="289.600000" y2="414.000000"  style="stroke:black; stroke-linecap:round; stroke-width:0.25;"/>
<line x1="89.600000" y1="334.000000" x2="289.600000" y2="414.000000"  style="stroke:black; stroke-linecap:round; stroke-width:0.25;"/>
<line x1="289.600000" y1="414.000000" x2="293.600000" y2="414.000000"  style="stroke:black; stroke-linecap:round; stroke-width:0.25;"/>
<line x1="293.600000" y1="414.000000" x2="297.600000" y2="414.000000"  style="stroke:black; stroke-linecap:round; stroke-width:0.25;"/>
<line x1="297.600000" y1="414.000000" x2="307.600000" y2="410.000000"  style="stroke:black; stroke-linecap:round; stroke-width:0.25;"/>
<line x1="297.600000" y1="414.000000" x2="307.600000" y2="418.000000"  style="stroke:black; stroke-linecap:round; stroke-width:0.25;"/>
<line x1="307.600000" y1="410.000000" x2="311.600000" y2="410.000000"  style="stroke:black; stroke-linecap:round; stroke-width:0.25;"/>
<line x1="307.600000" y1="418.000000" x2="311.600000" y2="418.000000"  style="stroke:black; stroke-linecap:round; stroke-width:0.25;"/>
<line x1="376.100000" y1="410.000000" x2="380.100000" y2="410.000000"  style="stroke:black; stroke-linecap:round; stroke-width:0.25;"/>
<line x1="376.100000" y1="418.000000" x2="380.100000" y2="418.000000"  style="stroke:black; stroke-linecap:round; stroke-width:0.25;"/>
<line x1="380.100000" y1="410.000000" x2="390.100000" y2="410.000000"  style="stroke:black; stroke-linecap:round; stroke-width:0.25;"/>
<line x1="380.100000" y1="418.000000" x2="390.100000" y2="418.000000"  style="stroke:black; stroke-linecap:round; stroke-width:0.25;"/>
<line x1="390.100000" y1="410.000000" x2="390.100000" y2="410.000000"  style="stroke:black; stroke-linecap:round; stroke-width:0.25;"/>
<line x1="390.100000" y1="410.000000" x2="394.100000" y2="410.000000"  style="stroke:black; stroke-linecap:round; stroke-width:0.25;"/>
<line x1="390.100000" y1="418.000000" x2="390.100000" y2="418.000000"  style="stroke:black; stroke-linecap:round; stroke-width:0.25;"/>
<line x1="390.100000" y1="418.000000" x2="394.100000" y2="418.000000"  style="stroke:black; stroke-linecap:round; stroke-width:0.25;"/>
<line x1="394.100000" y1="410.000000" x2="398.100000" y2="410.000000"  style="stroke:black; stroke-linecap:round; stroke-width:0.25;"/>
<line x1="394.100000" y1="418.000000" x2="398.100000" y2="418.000000"  style="stroke:black; stroke-linecap:round; stroke-width:0.25;"/>
<line x1="398.100000" y1="410.000000" x2="408.100000" y2="410.000000"  style="stroke:black; stroke-linecap:round; stroke-width:0.25;"/>
<line x1="398.100000" y1="418.000000" x2="408.100000" y2="418.000000"  style="stroke:black; stroke-linecap:round; stroke-width:0.25;"/>
</svg>
