<?xml version="1.0"?>
<svg xmlns="http://www.w3.org/2000/svg" xmlns:xlink="http://www.w3.org/1999/xlink" viewBox="0 0 363.700000 272.000000" width="181.850000mm" height="136.000000mm" version="1.1">
<a xlink:href="env-0x7fc83c916ac0.svg">
<rect x="1.000000" y="1.000000" width="362.700000" height="271.000000" rx="0" ry="0" style="stroke:none;fill:#cccccc;"/>
<rect x="0.000000" y="0.000000" width="362.700000" height="271.000000" rx="0" ry="0" style="stroke:none;fill:#ffffff;"/>
</a>
<text x="10.000000" y="7.000000" font-family="Arial" font-size="7"></text>
<rect x="106.850000" y="25.000000" width="24.000000" height="24.000000" rx="0" ry="0" style="stroke:none;fill:#cccccc;"/>
<rect x="105.850000" y="24.000000" width="24.000000" height="24.000000" rx="0" ry="0" style="stroke:none;fill:#47945E;"/>
<text x="117.850000" y="38.000000" font-family="Arial" font-size="7" text-anchor="middle" fill="#FFFFFF">p2</text>
<circle cx="107.850000" cy="26.000000" r="1"/>
<rect x="106.850000" y="57.000000" width="24.000000" height="24.000000" rx="0" ry="0" style="stroke:none;fill:#cccccc;"/>
<rect x="105.850000" y="56.000000" width="24.000000" height="24.000000" rx="0" ry="0" style="stroke:none;fill:#f44800;"/>
<text x="117.850000" y="70.000000" font-family="Arial" font-size="7" text-anchor="middle" fill="#FFFFFF">0</text>
<circle cx="107.850000" cy="58.000000" r="1"/>
<rect x="146.850000" y="41.000000" width="24.000000" height="24.000000" rx="0" ry="0" style="stroke:none;fill:#cccccc;"/>
<rect x="145.850000" y="40.000000" width="24.000000" height="24.000000" rx="0" ry="0" style="stroke:none;fill:#4B71A1;"/>
<text x="157.850000" y="54.000000" font-family="Arial" font-size="7" text-anchor="middle" fill="#FFFFFF">==</text>
<circle cx="147.850000" cy="42.000000" r="1"/>
<line x1="142.850000" y1="47.000000" x2="145.850000" y2="48.000000"  transform="rotate(0.000000,145.850000,48.000000)" style="stroke: black; stroke-width:0.25;"/>
<line x1="142.850000" y1="49.000000" x2="145.850000" y2="48.000000"  transform="rotate(0.000000,145.850000,48.000000)" style="stroke: black; stroke-width:0.25;"/>
<line x1="142.850000" y1="55.000000" x2="145.850000" y2="56.000000"  transform="rotate(0.000000,145.850000,56.000000)" style="stroke: black; stroke-width:0.25;"/>
<line x1="142.850000" y1="57.000000" x2="145.850000" y2="56.000000"  transform="rotate(0.000000,145.850000,56.000000)" style="stroke: black; stroke-width:0.25;"/>
<rect x="35.000000" y="99.000000" width="167.700000" height="24.000000" rx="0" ry="0" style="stroke:none;fill:#cccccc;"/>
<rect x="34.000000" y="98.000000" width="167.700000" height="24.000000" rx="0" ry="0" style="stroke:none;fill:#477881;"/>
<text x="117.850000" y="112.000000" font-family="Arial" font-size="7" text-anchor="middle" fill="#FFFFFF">hslider(ON/OFF, 0.0f, 0.0f, 1.0f, 1.0f)</text>
<circle cx="36.000000" cy="100.000000" r="1"/>
<line x1="25.000000" y1="89.000000" x2="25.000000" y2="131.000000"  style="stroke: black; stroke-linecap:round; stroke-width:0.25; stroke-dasharray:3,3;"/>
<line x1="25.000000" y1="131.000000" x2="210.700000" y2="131.000000"  style="stroke: black; stroke-linecap:round; stroke-width:0.25; stroke-dasharray:3,3;"/>
<line x1="210.700000" y1="131.000000" x2="210.700000" y2="89.000000"  style="stroke: black; stroke-linecap:round; stroke-width:0.25; stroke-dasharray:3,3;"/>
<line x1="25.000000" y1="89.000000" x2="30.000000" y2="89.000000"  style="stroke: black; stroke-linecap:round; stroke-width:0.25; stroke-dasharray:3,3;"/>
<line x1="49.350000" y1="89.000000" x2="210.700000" y2="89.000000"  style="stroke: black; stroke-linecap:round; stroke-width:0.25; stroke-dasharray:3,3;"/>
<text x="30.000000" y="91.000000" font-family="Arial" font-size="7">gate</text>
<rect x="106.850000" y="141.000000" width="24.000000" height="24.000000" rx="0" ry="0" style="stroke:none;fill:#cccccc;"/>
<rect x="105.850000" y="140.000000" width="24.000000" height="24.000000" rx="0" ry="0" style="stroke:none;fill:#f44800;"/>
<text x="117.850000" y="154.000000" font-family="Arial" font-size="7" text-anchor="middle" fill="#FFFFFF">0</text>
<circle cx="107.850000" cy="142.000000" r="1"/>
<rect x="228.700000" y="115.000000" width="24.000000" height="24.000000" rx="0" ry="0" style="stroke:none;fill:#cccccc;"/>
<rect x="227.700000" y="114.000000" width="24.000000" height="24.000000" rx="0" ry="0" style="stroke:none;fill:#4B71A1;"/>
<text x="239.700000" y="128.000000" font-family="Arial" font-size="7" text-anchor="middle" fill="#FFFFFF">&gt;</text>
<circle cx="229.700000" cy="116.000000" r="1"/>
<line x1="224.700000" y1="121.000000" x2="227.700000" y2="122.000000"  transform="rotate(0.000000,227.700000,122.000000)" style="stroke: black; stroke-width:0.25;"/>
<line x1="224.700000" y1="123.000000" x2="227.700000" y2="122.000000"  transform="rotate(0.000000,227.700000,122.000000)" style="stroke: black; stroke-width:0.25;"/>
<line x1="224.700000" y1="129.000000" x2="227.700000" y2="130.000000"  transform="rotate(0.000000,227.700000,130.000000)" style="stroke: black; stroke-width:0.25;"/>
<line x1="224.700000" y1="131.000000" x2="227.700000" y2="130.000000"  transform="rotate(0.000000,227.700000,130.000000)" style="stroke: black; stroke-width:0.25;"/>
<rect x="268.700000" y="83.000000" width="24.000000" height="24.000000" rx="0" ry="0" style="stroke:none;fill:#cccccc;"/>
<rect x="267.700000" y="82.000000" width="24.000000" height="24.000000" rx="0" ry="0" style="stroke:none;fill:#4B71A1;"/>
<text x="279.700000" y="96.000000" font-family="Arial" font-size="7" text-anchor="middle" fill="#FFFFFF">&amp;</text>
<circle cx="269.700000" cy="84.000000" r="1"/>
<line x1="264.700000" y1="89.000000" x2="267.700000" y2="90.000000"  transform="rotate(0.000000,267.700000,90.000000)" style="stroke: black; stroke-width:0.25;"/>
<line x1="264.700000" y1="91.000000" x2="267.700000" y2="90.000000"  transform="rotate(0.000000,267.700000,90.000000)" style="stroke: black; stroke-width:0.25;"/>
<line x1="264.700000" y1="97.000000" x2="267.700000" y2="98.000000"  transform="rotate(0.000000,267.700000,98.000000)" style="stroke: black; stroke-width:0.25;"/>
<line x1="264.700000" y1="99.000000" x2="267.700000" y2="98.000000"  transform="rotate(0.000000,267.700000,98.000000)" style="stroke: black; stroke-width:0.25;"/>
<rect x="126.850000" y="173.000000" width="24.000000" height="24.000000" rx="0" ry="0" style="stroke:none;fill:#cccccc;"/>
<rect x="125.850000" y="172.000000" width="24.000000" height="24.000000" rx="0" ry="0" style="stroke:none;fill:#47945E;"/>
<text x="137.850000" y="186.000000" font-family="Arial" font-size="7" text-anchor="middle" fill="#FFFFFF">y</text>
<circle cx="127.850000" cy="174.000000" r="1"/>
<rect x="126.850000" y="215.000000" width="24.000000" height="24.000000" rx="0" ry="0" style="stroke:none;fill:#cccccc;"/>
<rect x="125.850000" y="214.000000" width="24.000000" height="24.000000" rx="0" ry="0" style="stroke:none;fill:#f44800;"/>
<text x="137.850000" y="228.000000" font-family="Arial" font-size="7" text-anchor="middle" fill="#FFFFFF">1</text>
<circle cx="127.850000" cy="216.000000" r="1"/>
<line x1="116.850000" y1="205.000000" x2="116.850000" y2="247.000000"  style="stroke: black; stroke-linecap:round; stroke-width:0.25; stroke-dasharray:3,3;"/>
<line x1="116.850000" y1="247.000000" x2="158.850000" y2="247.000000"  style="stroke: black; stroke-linecap:round; stroke-width:0.25; stroke-dasharray:3,3;"/>
<line x1="158.850000" y1="247.000000" x2="158.850000" y2="205.000000"  style="stroke: black; stroke-linecap:round; stroke-width:0.25; stroke-dasharray:3,3;"/>
<line x1="116.850000" y1="205.000000" x2="121.850000" y2="205.000000"  style="stroke: black; stroke-linecap:round; stroke-width:0.25; stroke-dasharray:3,3;"/>
<line x1="141.200000" y1="205.000000" x2="158.850000" y2="205.000000"  style="stroke: black; stroke-linecap:round; stroke-width:0.25; stroke-dasharray:3,3;"/>
<text x="121.850000" y="207.000000" font-family="Arial" font-size="7">gain</text>
<rect x="176.850000" y="199.000000" width="24.000000" height="24.000000" rx="0" ry="0" style="stroke:none;fill:#cccccc;"/>
<rect x="175.850000" y="198.000000" width="24.000000" height="24.000000" rx="0" ry="0" style="stroke:none;fill:#4B71A1;"/>
<text x="187.850000" y="212.000000" font-family="Arial" font-size="7" text-anchor="middle" fill="#FFFFFF">&lt;</text>
<circle cx="177.850000" cy="200.000000" r="1"/>
<line x1="172.850000" y1="205.000000" x2="175.850000" y2="206.000000"  transform="rotate(0.000000,175.850000,206.000000)" style="stroke: black; stroke-width:0.25;"/>
<line x1="172.850000" y1="207.000000" x2="175.850000" y2="206.000000"  transform="rotate(0.000000,175.850000,206.000000)" style="stroke: black; stroke-width:0.25;"/>
<line x1="172.850000" y1="213.000000" x2="175.850000" y2="214.000000"  transform="rotate(0.000000,175.850000,214.000000)" style="stroke: black; stroke-width:0.25;"/>
<line x1="172.850000" y1="215.000000" x2="175.850000" y2="214.000000"  transform="rotate(0.000000,175.850000,214.000000)" style="stroke: black; stroke-width:0.25;"/>
<rect x="308.700000" y="125.000000" width="24.000000" height="24.000000" rx="0" ry="0" style="stroke:none;fill:#cccccc;"/>
<rect x="307.700000" y="124.000000" width="24.000000" height="24.000000" rx="0" ry="0" style="stroke:none;fill:#4B71A1;"/>
<text x="319.700000" y="138.000000" font-family="Arial" font-size="7" text-anchor="middle" fill="#FFFFFF">&amp;</text>
<circle cx="309.700000" cy="126.000000" r="1"/>
<line x1="304.700000" y1="131.000000" x2="307.700000" y2="132.000000"  transform="rotate(0.000000,307.700000,132.000000)" style="stroke: black; stroke-width:0.25;"/>
<line x1="304.700000" y1="133.000000" x2="307.700000" y2="132.000000"  transform="rotate(0.000000,307.700000,132.000000)" style="stroke: black; stroke-width:0.25;"/>
<line x1="304.700000" y1="139.000000" x2="307.700000" y2="140.000000"  transform="rotate(0.000000,307.700000,140.000000)" style="stroke: black; stroke-width:0.25;"/>
<line x1="304.700000" y1="141.000000" x2="307.700000" y2="140.000000"  transform="rotate(0.000000,307.700000,140.000000)" style="stroke: black; stroke-width:0.25;"/>
<line x1="15.000000" y1="15.000000" x2="15.000000" y2="257.000000"  style="stroke: black; stroke-linecap:round; stroke-width:0.25; stroke-dasharray:3,3;"/>
<line x1="15.000000" y1="257.000000" x2="348.700000" y2="257.000000"  style="stroke: black; stroke-linecap:round; stroke-width:0.25; stroke-dasharray:3,3;"/>
<line x1="348.700000" y1="257.000000" x2="348.700000" y2="15.000000"  style="stroke: black; stroke-linecap:round; stroke-width:0.25; stroke-dasharray:3,3;"/>
<line x1="15.000000" y1="15.000000" x2="20.000000" y2="15.000000"  style="stroke: black; stroke-linecap:round; stroke-width:0.25; stroke-dasharray:3,3;"/>
<line x1="32.900000" y1="15.000000" x2="348.700000" y2="15.000000"  style="stroke: black; stroke-linecap:round; stroke-width:0.25; stroke-dasharray:3,3;"/>
<text x="20.000000" y="17.000000" font-family="Arial" font-size="7">p1</text>
<line x1="350.700000" y1="135.000000" x2="353.700000" y2="136.000000"  transform="rotate(0.000000,353.700000,136.000000)" style="stroke: black; stroke-width:0.25;"/>
<line x1="350.700000" y1="137.000000" x2="353.700000" y2="136.000000"  transform="rotate(0.000000,353.700000,136.000000)" style="stroke: black; stroke-width:0.25;"/>
<line x1="129.850000" y1="36.000000" x2="133.850000" y2="36.000000"  style="stroke:black; stroke-linecap:round; stroke-width:0.25;"/>
<line x1="129.850000" y1="68.000000" x2="133.850000" y2="68.000000"  style="stroke:black; stroke-linecap:round; stroke-width:0.25;"/>
<line x1="129.850000" y1="152.000000" x2="133.850000" y2="152.000000"  style="stroke:black; stroke-linecap:round; stroke-width:0.25;"/>
<line x1="133.850000" y1="36.000000" x2="141.850000" y2="36.000000"  style="stroke:black; stroke-linecap:round; stroke-width:0.25;"/>
<line x1="133.850000" y1="56.000000" x2="141.850000" y2="56.000000"  style="stroke:black; stroke-linecap:round; stroke-width:0.25;"/>
<line x1="133.850000" y1="68.000000" x2="133.850000" y2="56.000000"  style="stroke:black; stroke-linecap:round; stroke-width:0.25;"/>
<line x1="133.850000" y1="68.000000" x2="133.850000" y2="68.000000"  style="stroke:black; stroke-linecap:round; stroke-width:0.25;"/>
<line x1="133.850000" y1="152.000000" x2="215.700000" y2="152.000000"  style="stroke:black; stroke-linecap:round; stroke-width:0.25;"/>
<line x1="141.850000" y1="36.000000" x2="141.850000" y2="48.000000"  style="stroke:black; stroke-linecap:round; stroke-width:0.25;"/>
<line x1="141.850000" y1="48.000000" x2="141.850000" y2="48.000000"  style="stroke:black; stroke-linecap:round; stroke-width:0.25;"/>
<line x1="141.850000" y1="48.000000" x2="145.850000" y2="48.000000"  style="stroke:black; stroke-linecap:round; stroke-width:0.25;"/>
<line x1="141.850000" y1="56.000000" x2="145.850000" y2="56.000000"  style="stroke:black; stroke-linecap:round; stroke-width:0.25;"/>
<line x1="149.850000" y1="184.000000" x2="153.850000" y2="184.000000"  style="stroke:black; stroke-linecap:round; stroke-width:0.25;"/>
<line x1="149.850000" y1="226.000000" x2="153.850000" y2="226.000000"  style="stroke:black; stroke-linecap:round; stroke-width:0.25;"/>
<line x1="153.850000" y1="184.000000" x2="163.850000" y2="184.000000"  style="stroke:black; stroke-linecap:round; stroke-width:0.25;"/>
<line x1="153.850000" y1="226.000000" x2="163.850000" y2="226.000000"  style="stroke:black; stroke-linecap:round; stroke-width:0.25;"/>
<line x1="163.850000" y1="184.000000" x2="171.850000" y2="184.000000"  style="stroke:black; stroke-linecap:round; stroke-width:0.25;"/>
<line x1="163.850000" y1="214.000000" x2="171.850000" y2="214.000000"  style="stroke:black; stroke-linecap:round; stroke-width:0.25;"/>
<line x1="163.850000" y1="226.000000" x2="163.850000" y2="214.000000"  style="stroke:black; stroke-linecap:round; stroke-width:0.25;"/>
<line x1="163.850000" y1="226.000000" x2="163.850000" y2="226.000000"  style="stroke:black; stroke-linecap:round; stroke-width:0.25;"/>
<line x1="169.850000" y1="52.000000" x2="173.850000" y2="52.000000"  style="stroke:black; stroke-linecap:round; stroke-width:0.25;"/>
<line x1="171.850000" y1="184.000000" x2="171.850000" y2="206.000000"  style="stroke:black; stroke-linecap:round; stroke-width:0.25;"/>
<line x1="171.850000" y1="206.000000" x2="171.850000" y2="206.000000"  style="stroke:black; stroke-linecap:round; stroke-width:0.25;"/>
<line x1="171.850000" y1="206.000000" x2="175.850000" y2="206.000000"  style="stroke:black; stroke-linecap:round; stroke-width:0.25;"/>
<line x1="171.850000" y1="214.000000" x2="175.850000" y2="214.000000"  style="stroke:black; stroke-linecap:round; stroke-width:0.25;"/>
<line x1="173.850000" y1="52.000000" x2="255.700000" y2="52.000000"  style="stroke:black; stroke-linecap:round; stroke-width:0.25;"/>
<line x1="199.850000" y1="210.000000" x2="203.850000" y2="210.000000"  style="stroke:black; stroke-linecap:round; stroke-width:0.25;"/>
<line x1="201.700000" y1="110.000000" x2="205.700000" y2="110.000000"  style="stroke:black; stroke-linecap:round; stroke-width:0.25;"/>
<line x1="203.850000" y1="210.000000" x2="295.700000" y2="210.000000"  style="stroke:black; stroke-linecap:round; stroke-width:0.25;"/>
<line x1="205.700000" y1="110.000000" x2="215.700000" y2="110.000000"  style="stroke:black; stroke-linecap:round; stroke-width:0.25;"/>
<line x1="215.700000" y1="110.000000" x2="223.700000" y2="110.000000"  style="stroke:black; stroke-linecap:round; stroke-width:0.25;"/>
<line x1="215.700000" y1="130.000000" x2="223.700000" y2="130.000000"  style="stroke:black; stroke-linecap:round; stroke-width:0.25;"/>
<line x1="215.700000" y1="152.000000" x2="215.700000" y2="130.000000"  style="stroke:black; stroke-linecap:round; stroke-width:0.25;"/>
<line x1="215.700000" y1="152.000000" x2="215.700000" y2="152.000000"  style="stroke:black; stroke-linecap:round; stroke-width:0.25;"/>
<line x1="223.700000" y1="110.000000" x2="223.700000" y2="122.000000"  style="stroke:black; stroke-linecap:round; stroke-width:0.25;"/>
<line x1="223.700000" y1="122.000000" x2="223.700000" y2="122.000000"  style="stroke:black; stroke-linecap:round; stroke-width:0.25;"/>
<line x1="223.700000" y1="122.000000" x2="227.700000" y2="122.000000"  style="stroke:black; stroke-linecap:round; stroke-width:0.25;"/>
<line x1="223.700000" y1="130.000000" x2="227.700000" y2="130.000000"  style="stroke:black; stroke-linecap:round; stroke-width:0.25;"/>
<line x1="251.700000" y1="126.000000" x2="255.700000" y2="126.000000"  style="stroke:black; stroke-linecap:round; stroke-width:0.25;"/>
<line x1="255.700000" y1="52.000000" x2="263.700000" y2="52.000000"  style="stroke:black; stroke-linecap:round; stroke-width:0.25;"/>
<line x1="255.700000" y1="98.000000" x2="263.700000" y2="98.000000"  style="stroke:black; stroke-linecap:round; stroke-width:0.25;"/>
<line x1="255.700000" y1="126.000000" x2="255.700000" y2="98.000000"  style="stroke:black; stroke-linecap:round; stroke-width:0.25;"/>
<line x1="255.700000" y1="126.000000" x2="255.700000" y2="126.000000"  style="stroke:black; stroke-linecap:round; stroke-width:0.25;"/>
<line x1="263.700000" y1="52.000000" x2="263.700000" y2="90.000000"  style="stroke:black; stroke-linecap:round; stroke-width:0.25;"/>
<line x1="263.700000" y1="90.000000" x2="263.700000" y2="90.000000"  style="stroke:black; stroke-linecap:round; stroke-width:0.25;"/>
<line x1="263.700000" y1="90.000000" x2="267.700000" y2="90.000000"  style="stroke:black; stroke-linecap:round; stroke-width:0.25;"/>
<line x1="263.700000" y1="98.000000" x2="267.700000" y2="98.000000"  style="stroke:black; stroke-linecap:round; stroke-width:0.25;"/>
<line x1="291.700000" y1="94.000000" x2="295.700000" y2="94.000000"  style="stroke:black; stroke-linecap:round; stroke-width:0.25;"/>
<line x1="295.700000" y1="94.000000" x2="303.700000" y2="94.000000"  style="stroke:black; stroke-linecap:round; stroke-width:0.25;"/>
<line x1="295.700000" y1="140.000000" x2="303.700000" y2="140.000000"  style="stroke:black; stroke-linecap:round; stroke-width:0.25;"/>
<line x1="295.700000" y1="210.000000" x2="295.700000" y2="140.000000"  style="stroke:black; stroke-linecap:round; stroke-width:0.25;"/>
<line x1="295.700000" y1="210.000000" x2="295.700000" y2="210.000000"  style="stroke:black; stroke-linecap:round; stroke-width:0.25;"/>
<line x1="303.700000" y1="94.000000" x2="303.700000" y2="132.000000"  style="stroke:black; stroke-linecap:round; stroke-width:0.25;"/>
<line x1="303.700000" y1="132.000000" x2="303.700000" y2="132.000000"  style="stroke:black; stroke-linecap:round; stroke-width:0.25;"/>
<line x1="303.700000" y1="132.000000" x2="307.700000" y2="132.000000"  style="stroke:black; stroke-linecap:round; stroke-width:0.25;"/>
<line x1="303.700000" y1="140.000000" x2="307.700000" y2="140.000000"  style="stroke:black; stroke-linecap:round; stroke-width:0.25;"/>
<line x1="331.700000" y1="136.000000" x2="335.700000" y2="136.000000"  style="stroke:black; stroke-linecap:round; stroke-width:0.25;"/>
<line x1="335.700000" y1="136.000000" x2="335.700000" y2="136.000000"  style="stroke:black; stroke-linecap:round; stroke-width:0.25;"/>
<line x1="335.700000" y1="136.000000" x2="339.700000" y2="136.000000"  style="stroke:black; stroke-linecap:round; stroke-width:0.25;"/>
<line x1="339.700000" y1="136.000000" x2="343.700000" y2="136.000000"  style="stroke:black; stroke-linecap:round; stroke-width:0.25;"/>
<line x1="343.700000" y1="136.000000" x2="353.700000" y2="136.000000"  style="stroke:black; stroke-linecap:round; stroke-width:0.25;"/>
</svg>
