<?xml version="1.0"?>
<svg xmlns="http://www.w3.org/2000/svg" xmlns:xlink="http://www.w3.org/1999/xlink" viewBox="0 0 658.600000 100.000000" width="329.300000mm" height="50.000000mm" version="1.1">
<a xlink:href="instrReverbHarp-0x7f880aa80a70.svg">
<rect x="1.000000" y="1.000000" width="657.600000" height="99.000000" rx="0" ry="0" style="stroke:none;fill:#cccccc;"/>
<rect x="0.000000" y="0.000000" width="657.600000" height="99.000000" rx="0" ry="0" style="stroke:none;fill:#ffffff;"/>
</a>
<text x="10.000000" y="7.000000" font-family="Arial" font-size="7"></text>
<rect x="25.000000" y="39.000000" width="348.300000" height="24.000000" rx="0" ry="0" style="stroke:none;fill:#cccccc;"/>
<rect x="24.000000" y="38.000000" width="348.300000" height="24.000000" rx="0" ry="0" style="stroke:none;fill:#477881;"/>
<text x="198.150000" y="52.000000" font-family="Arial" font-size="7" text-anchor="middle" fill="#FFFFFF">hslider(h:Reverb/ Reverberation Volume (InstrReverb), 0.2f, 0.05f, 1.0f, 0.01f)</text>
<circle cx="26.000000" cy="40.000000" r="1"/>
<a xlink:href="smooth-0x7f880a07b820.svg">
<rect x="381.300000" y="39.000000" width="64.500000" height="24.000000" rx="0" ry="0" style="stroke:none;fill:#cccccc;"/>
<rect x="380.300000" y="38.000000" width="64.500000" height="24.000000" rx="0" ry="0" style="stroke:none;fill:#003366;"/>
</a>
<a xlink:href="smooth-0x7f880a07b820.svg">
<text x="412.550000" y="52.000000" font-family="Arial" font-size="7" text-anchor="middle" fill="#FFFFFF">smooth(0.999f)</text>
</a>
<circle cx="382.300000" cy="40.000000" r="1"/>
<line x1="377.300000" y1="49.000000" x2="380.300000" y2="50.000000"  transform="rotate(0.000000,380.300000,50.000000)" style="stroke: black; stroke-width:0.25;"/>
<line x1="377.300000" y1="51.000000" x2="380.300000" y2="50.000000"  transform="rotate(0.000000,380.300000,50.000000)" style="stroke: black; stroke-width:0.25;"/>
<rect x="471.800000" y="35.000000" width="24.000000" height="24.000000" rx="0" ry="0" style="stroke:none;fill:#cccccc;"/>
<rect x="470.800000" y="34.000000" width="24.000000" height="24.000000" rx="0" ry="0" style="stroke:none;fill:#f44800;"/>
<text x="482.800000" y="48.000000" font-family="Arial" font-size="7" text-anchor="middle" fill="#FFFFFF">1</text>
<circle cx="472.800000" cy="36.000000" r="1"/>
<line x1="461.800000" y1="25.000000" x2="461.800000" y2="67.000000"  style="stroke: black; stroke-linecap:round; stroke-width:0.25; stroke-dasharray:3,3;"/>
<line x1="461.800000" y1="67.000000" x2="503.800000" y2="67.000000"  style="stroke: black; stroke-linecap:round; stroke-width:0.25; stroke-dasharray:3,3;"/>
<line x1="503.800000" y1="67.000000" x2="503.800000" y2="25.000000"  style="stroke: black; stroke-linecap:round; stroke-width:0.25; stroke-dasharray:3,3;"/>
<line x1="461.800000" y1="25.000000" x2="466.800000" y2="25.000000"  style="stroke: black; stroke-linecap:round; stroke-width:0.25; stroke-dasharray:3,3;"/>
<line x1="482.925000" y1="25.000000" x2="503.800000" y2="25.000000"  style="stroke: black; stroke-linecap:round; stroke-width:0.25; stroke-dasharray:3,3;"/>
<text x="466.800000" y="27.000000" font-family="Arial" font-size="7">lvl</text>
<rect x="521.800000" y="39.000000" width="24.000000" height="24.000000" rx="0" ry="0" style="stroke:none;fill:#cccccc;"/>
<rect x="520.800000" y="38.000000" width="24.000000" height="24.000000" rx="0" ry="0" style="stroke:none;fill:#4B71A1;"/>
<text x="532.800000" y="52.000000" font-family="Arial" font-size="7" text-anchor="middle" fill="#FFFFFF">min</text>
<circle cx="522.800000" cy="40.000000" r="1"/>
<line x1="517.800000" y1="45.000000" x2="520.800000" y2="46.000000"  transform="rotate(0.000000,520.800000,46.000000)" style="stroke: black; stroke-width:0.25;"/>
<line x1="517.800000" y1="47.000000" x2="520.800000" y2="46.000000"  transform="rotate(0.000000,520.800000,46.000000)" style="stroke: black; stroke-width:0.25;"/>
<line x1="517.800000" y1="53.000000" x2="520.800000" y2="54.000000"  transform="rotate(0.000000,520.800000,54.000000)" style="stroke: black; stroke-width:0.25;"/>
<line x1="517.800000" y1="55.000000" x2="520.800000" y2="54.000000"  transform="rotate(0.000000,520.800000,54.000000)" style="stroke: black; stroke-width:0.25;"/>
<rect x="561.800000" y="35.000000" width="25.800000" height="24.000000" rx="0" ry="0" style="stroke:none;fill:#cccccc;"/>
<rect x="560.800000" y="34.000000" width="25.800000" height="24.000000" rx="0" ry="0" style="stroke:none;fill:#f44800;"/>
<text x="573.700000" y="48.000000" font-family="Arial" font-size="7" text-anchor="middle" fill="#FFFFFF">0.05</text>
<circle cx="562.800000" cy="36.000000" r="1"/>
<rect x="603.600000" y="39.000000" width="24.000000" height="24.000000" rx="0" ry="0" style="stroke:none;fill:#cccccc;"/>
<rect x="602.600000" y="38.000000" width="24.000000" height="24.000000" rx="0" ry="0" style="stroke:none;fill:#4B71A1;"/>
<text x="614.600000" y="52.000000" font-family="Arial" font-size="7" text-anchor="middle" fill="#FFFFFF">max</text>
<circle cx="604.600000" cy="40.000000" r="1"/>
<line x1="599.600000" y1="45.000000" x2="602.600000" y2="46.000000"  transform="rotate(0.000000,602.600000,46.000000)" style="stroke: black; stroke-width:0.25;"/>
<line x1="599.600000" y1="47.000000" x2="602.600000" y2="46.000000"  transform="rotate(0.000000,602.600000,46.000000)" style="stroke: black; stroke-width:0.25;"/>
<line x1="599.600000" y1="53.000000" x2="602.600000" y2="54.000000"  transform="rotate(0.000000,602.600000,54.000000)" style="stroke: black; stroke-width:0.25;"/>
<line x1="599.600000" y1="55.000000" x2="602.600000" y2="54.000000"  transform="rotate(0.000000,602.600000,54.000000)" style="stroke: black; stroke-width:0.25;"/>
<line x1="15.000000" y1="15.000000" x2="15.000000" y2="85.000000"  style="stroke: black; stroke-linecap:round; stroke-width:0.25; stroke-dasharray:3,3;"/>
<line x1="15.000000" y1="85.000000" x2="643.600000" y2="85.000000"  style="stroke: black; stroke-linecap:round; stroke-width:0.25; stroke-dasharray:3,3;"/>
<line x1="643.600000" y1="85.000000" x2="643.600000" y2="15.000000"  style="stroke: black; stroke-linecap:round; stroke-width:0.25; stroke-dasharray:3,3;"/>
<line x1="15.000000" y1="15.000000" x2="20.000000" y2="15.000000"  style="stroke: black; stroke-linecap:round; stroke-width:0.25; stroke-dasharray:3,3;"/>
<line x1="58.700000" y1="15.000000" x2="643.600000" y2="15.000000"  style="stroke: black; stroke-linecap:round; stroke-width:0.25; stroke-dasharray:3,3;"/>
<text x="20.000000" y="17.000000" font-family="Arial" font-size="7">reverbGain</text>
<line x1="645.600000" y1="49.000000" x2="648.600000" y2="50.000000"  transform="rotate(0.000000,648.600000,50.000000)" style="stroke: black; stroke-width:0.25;"/>
<line x1="645.600000" y1="51.000000" x2="648.600000" y2="50.000000"  transform="rotate(0.000000,648.600000,50.000000)" style="stroke: black; stroke-width:0.25;"/>
<line x1="372.300000" y1="50.000000" x2="376.300000" y2="50.000000"  style="stroke:black; stroke-linecap:round; stroke-width:0.25;"/>
<line x1="376.300000" y1="50.000000" x2="376.300000" y2="50.000000"  style="stroke:black; stroke-linecap:round; stroke-width:0.25;"/>
<line x1="376.300000" y1="50.000000" x2="380.300000" y2="50.000000"  style="stroke:black; stroke-linecap:round; stroke-width:0.25;"/>
<line x1="444.800000" y1="50.000000" x2="448.800000" y2="50.000000"  style="stroke:black; stroke-linecap:round; stroke-width:0.25;"/>
<line x1="448.800000" y1="50.000000" x2="456.800000" y2="50.000000"  style="stroke:black; stroke-linecap:round; stroke-width:0.25;"/>
<line x1="456.800000" y1="50.000000" x2="456.800000" y2="76.000000"  style="stroke:black; stroke-linecap:round; stroke-width:0.25;"/>
<line x1="456.800000" y1="76.000000" x2="456.800000" y2="76.000000"  style="stroke:black; stroke-linecap:round; stroke-width:0.25;"/>
<line x1="456.800000" y1="76.000000" x2="482.800000" y2="76.000000"  style="stroke:black; stroke-linecap:round; stroke-width:0.25;"/>
<line x1="482.800000" y1="76.000000" x2="508.800000" y2="76.000000"  style="stroke:black; stroke-linecap:round; stroke-width:0.25;"/>
<line x1="494.800000" y1="46.000000" x2="498.800000" y2="46.000000"  style="stroke:black; stroke-linecap:round; stroke-width:0.25;"/>
<line x1="498.800000" y1="46.000000" x2="508.800000" y2="46.000000"  style="stroke:black; stroke-linecap:round; stroke-width:0.25;"/>
<line x1="508.800000" y1="46.000000" x2="516.800000" y2="46.000000"  style="stroke:black; stroke-linecap:round; stroke-width:0.25;"/>
<line x1="508.800000" y1="54.000000" x2="516.800000" y2="54.000000"  style="stroke:black; stroke-linecap:round; stroke-width:0.25;"/>
<line x1="508.800000" y1="76.000000" x2="508.800000" y2="54.000000"  style="stroke:black; stroke-linecap:round; stroke-width:0.25;"/>
<line x1="508.800000" y1="76.000000" x2="508.800000" y2="76.000000"  style="stroke:black; stroke-linecap:round; stroke-width:0.25;"/>
<line x1="516.800000" y1="46.000000" x2="520.800000" y2="46.000000"  style="stroke:black; stroke-linecap:round; stroke-width:0.25;"/>
<line x1="516.800000" y1="54.000000" x2="520.800000" y2="54.000000"  style="stroke:black; stroke-linecap:round; stroke-width:0.25;"/>
<line x1="544.800000" y1="50.000000" x2="548.800000" y2="50.000000"  style="stroke:black; stroke-linecap:round; stroke-width:0.25;"/>
<line x1="548.800000" y1="50.000000" x2="556.800000" y2="50.000000"  style="stroke:black; stroke-linecap:round; stroke-width:0.25;"/>
<line x1="556.800000" y1="50.000000" x2="556.800000" y2="66.000000"  style="stroke:black; stroke-linecap:round; stroke-width:0.25;"/>
<line x1="556.800000" y1="66.000000" x2="556.800000" y2="66.000000"  style="stroke:black; stroke-linecap:round; stroke-width:0.25;"/>
<line x1="556.800000" y1="66.000000" x2="573.700000" y2="66.000000"  style="stroke:black; stroke-linecap:round; stroke-width:0.25;"/>
<line x1="573.700000" y1="66.000000" x2="590.600000" y2="66.000000"  style="stroke:black; stroke-linecap:round; stroke-width:0.25;"/>
<line x1="586.600000" y1="46.000000" x2="590.600000" y2="46.000000"  style="stroke:black; stroke-linecap:round; stroke-width:0.25;"/>
<line x1="590.600000" y1="46.000000" x2="598.600000" y2="46.000000"  style="stroke:black; stroke-linecap:round; stroke-width:0.25;"/>
<line x1="590.600000" y1="54.000000" x2="598.600000" y2="54.000000"  style="stroke:black; stroke-linecap:round; stroke-width:0.25;"/>
<line x1="590.600000" y1="66.000000" x2="590.600000" y2="54.000000"  style="stroke:black; stroke-linecap:round; stroke-width:0.25;"/>
<line x1="590.600000" y1="66.000000" x2="590.600000" y2="66.000000"  style="stroke:black; stroke-linecap:round; stroke-width:0.25;"/>
<line x1="598.600000" y1="46.000000" x2="602.600000" y2="46.000000"  style="stroke:black; stroke-linecap:round; stroke-width:0.25;"/>
<line x1="598.600000" y1="54.000000" x2="602.600000" y2="54.000000"  style="stroke:black; stroke-linecap:round; stroke-width:0.25;"/>
<line x1="626.600000" y1="50.000000" x2="630.600000" y2="50.000000"  style="stroke:black; stroke-linecap:round; stroke-width:0.25;"/>
<line x1="630.600000" y1="50.000000" x2="630.600000" y2="50.000000"  style="stroke:black; stroke-linecap:round; stroke-width:0.25;"/>
<line x1="630.600000" y1="50.000000" x2="634.600000" y2="50.000000"  style="stroke:black; stroke-linecap:round; stroke-width:0.25;"/>
<line x1="634.600000" y1="50.000000" x2="638.600000" y2="50.000000"  style="stroke:black; stroke-linecap:round; stroke-width:0.25;"/>
<line x1="638.600000" y1="50.000000" x2="648.600000" y2="50.000000"  style="stroke:black; stroke-linecap:round; stroke-width:0.25;"/>
</svg>
