<?xml version="1.0"?>
<svg xmlns="http://www.w3.org/2000/svg" xmlns:xlink="http://www.w3.org/1999/xlink" viewBox="0 0 329.040000 120.000000" width="164.520000mm" height="60.000000mm" version="1.1">
<a xlink:href="modelChain-0x7faf7cfd4ad0.svg">
<rect x="1.000000" y="1.000000" width="328.040000" height="119.000000" rx="0" ry="0" style="stroke:none;fill:#cccccc;"/>
<rect x="0.000000" y="0.000000" width="328.040000" height="119.000000" rx="0" ry="0" style="stroke:none;fill:#ffffff;"/>
</a>
<text x="10.000000" y="7.000000" font-family="Arial" font-size="7"></text>
<rect x="97.040000" y="65.000000" width="24.000000" height="24.000000" rx="0" ry="0" style="stroke:none;fill:#cccccc;"/>
<rect x="96.040000" y="64.000000" width="24.000000" height="24.000000" rx="0" ry="0" style="stroke:none;fill:#4B71A1;"/>
<text x="108.040000" y="78.000000" font-family="Arial" font-size="7" text-anchor="middle" fill="#FFFFFF">+</text>
<circle cx="98.040000" cy="66.000000" r="1"/>
<line x1="93.040000" y1="71.000000" x2="96.040000" y2="72.000000"  transform="rotate(0.000000,96.040000,72.000000)" style="stroke: black; stroke-width:0.25;"/>
<line x1="93.040000" y1="73.000000" x2="96.040000" y2="72.000000"  transform="rotate(0.000000,96.040000,72.000000)" style="stroke: black; stroke-width:0.25;"/>
<line x1="93.040000" y1="79.000000" x2="96.040000" y2="80.000000"  transform="rotate(0.000000,96.040000,80.000000)" style="stroke: black; stroke-width:0.25;"/>
<line x1="93.040000" y1="81.000000" x2="96.040000" y2="80.000000"  transform="rotate(0.000000,96.040000,80.000000)" style="stroke: black; stroke-width:0.25;"/>
<a xlink:href="in-0x7faf7bf573f0.svg">
<rect x="137.040000" y="65.000000" width="129.000000" height="24.000000" rx="0" ry="0" style="stroke:none;fill:#cccccc;"/>
<rect x="136.040000" y="64.000000" width="129.000000" height="24.000000" rx="0" ry="0" style="stroke:none;fill:#003366;"/>
</a>
<a xlink:href="in-0x7faf7bf573f0.svg">
<text x="200.540000" y="78.000000" font-family="Arial" font-size="7" text-anchor="middle" fill="#FFFFFF">in((((button(... *) : *) : +)</text>
</a>
<circle cx="138.040000" cy="66.000000" r="1"/>
<line x1="133.040000" y1="67.000000" x2="136.040000" y2="68.000000"  transform="rotate(0.000000,136.040000,68.000000)" style="stroke: black; stroke-width:0.25;"/>
<line x1="133.040000" y1="69.000000" x2="136.040000" y2="68.000000"  transform="rotate(0.000000,136.040000,68.000000)" style="stroke: black; stroke-width:0.25;"/>
<line x1="133.040000" y1="75.000000" x2="136.040000" y2="76.000000"  transform="rotate(0.000000,136.040000,76.000000)" style="stroke: black; stroke-width:0.25;"/>
<line x1="133.040000" y1="77.000000" x2="136.040000" y2="76.000000"  transform="rotate(0.000000,136.040000,76.000000)" style="stroke: black; stroke-width:0.25;"/>
<line x1="133.040000" y1="83.000000" x2="136.040000" y2="84.000000"  transform="rotate(0.000000,136.040000,84.000000)" style="stroke: black; stroke-width:0.25;"/>
<line x1="133.040000" y1="85.000000" x2="136.040000" y2="84.000000"  transform="rotate(0.000000,136.040000,84.000000)" style="stroke: black; stroke-width:0.25;"/>
<a xlink:href="reedInteraction-0x7faf7ba15af0.svg">
<rect x="133.270000" y="25.000000" width="64.500000" height="24.000000" rx="0" ry="0" style="stroke:none;fill:#cccccc;"/>
<rect x="132.270000" y="24.000000" width="64.500000" height="24.000000" rx="0" ry="0" style="stroke:none;fill:#003366;"/>
</a>
<a xlink:href="reedInteraction-0x7faf7ba15af0.svg">
<text x="164.520000" y="38.000000" font-family="Arial" font-size="7" text-anchor="middle" fill="#FFFFFF">reedInteraction</text>
</a>
<circle cx="194.770000" cy="46.000000" r="1"/>
<line x1="199.770000" y1="35.000000" x2="196.770000" y2="36.000000"  transform="rotate(0.000000,196.770000,36.000000)" style="stroke: black; stroke-width:0.25;"/>
<line x1="199.770000" y1="37.000000" x2="196.770000" y2="36.000000"  transform="rotate(0.000000,196.770000,36.000000)" style="stroke: black; stroke-width:0.25;"/>
<line x1="267.040000" y1="68.000000" x2="267.040000" y2="64.000000"  style="stroke:black; stroke-linecap:round; stroke-width:0.25;"/>
<line x1="267.040000" y1="64.000000" x2="271.040000" y2="64.000000"  style="stroke:black; stroke-linecap:round; stroke-width:0.25;"/>
<line x1="271.040000" y1="64.000000" x2="271.040000" y2="68.000000"  style="stroke:black; stroke-linecap:round; stroke-width:0.25;"/>
<line x1="15.000000" y1="15.000000" x2="15.000000" y2="105.000000"  style="stroke: black; stroke-linecap:round; stroke-width:0.25; stroke-dasharray:3,3;"/>
<line x1="15.000000" y1="105.000000" x2="314.040000" y2="105.000000"  style="stroke: black; stroke-linecap:round; stroke-width:0.25; stroke-dasharray:3,3;"/>
<line x1="314.040000" y1="105.000000" x2="314.040000" y2="15.000000"  style="stroke: black; stroke-linecap:round; stroke-width:0.25; stroke-dasharray:3,3;"/>
<line x1="15.000000" y1="15.000000" x2="20.000000" y2="15.000000"  style="stroke: black; stroke-linecap:round; stroke-width:0.25; stroke-dasharray:3,3;"/>
<line x1="119.975000" y1="15.000000" x2="314.040000" y2="15.000000"  style="stroke: black; stroke-linecap:round; stroke-width:0.25; stroke-dasharray:3,3;"/>
<text x="20.000000" y="17.000000" font-family="Arial" font-size="7">clarinetMouth... *) : *) : +)</text>
<line x1="316.040000" y1="51.000000" x2="319.040000" y2="52.000000"  transform="rotate(0.000000,319.040000,52.000000)" style="stroke: black; stroke-width:0.25;"/>
<line x1="316.040000" y1="53.000000" x2="319.040000" y2="52.000000"  transform="rotate(0.000000,319.040000,52.000000)" style="stroke: black; stroke-width:0.25;"/>
<line x1="316.040000" y1="59.000000" x2="319.040000" y2="60.000000"  transform="rotate(0.000000,319.040000,60.000000)" style="stroke: black; stroke-width:0.25;"/>
<line x1="316.040000" y1="61.000000" x2="319.040000" y2="60.000000"  transform="rotate(0.000000,319.040000,60.000000)" style="stroke: black; stroke-width:0.25;"/>
<line x1="316.040000" y1="67.000000" x2="319.040000" y2="68.000000"  transform="rotate(0.000000,319.040000,68.000000)" style="stroke: black; stroke-width:0.25;"/>
<line x1="316.040000" y1="69.000000" x2="319.040000" y2="68.000000"  transform="rotate(0.000000,319.040000,68.000000)" style="stroke: black; stroke-width:0.25;"/>
<line x1="10.000000" y1="52.000000" x2="20.000000" y2="52.000000"  style="stroke:black; stroke-linecap:round; stroke-width:0.25;"/>
<line x1="10.000000" y1="60.000000" x2="20.000000" y2="60.000000"  style="stroke:black; stroke-linecap:round; stroke-width:0.25;"/>
<line x1="10.000000" y1="68.000000" x2="20.000000" y2="68.000000"  style="stroke:black; stroke-linecap:round; stroke-width:0.25;"/>
<line x1="20.000000" y1="52.000000" x2="24.000000" y2="52.000000"  style="stroke:black; stroke-linecap:round; stroke-width:0.25;"/>
<line x1="20.000000" y1="60.000000" x2="24.000000" y2="60.000000"  style="stroke:black; stroke-linecap:round; stroke-width:0.25;"/>
<line x1="20.000000" y1="68.000000" x2="24.000000" y2="68.000000"  style="stroke:black; stroke-linecap:round; stroke-width:0.25;"/>
<line x1="24.000000" y1="52.000000" x2="28.000000" y2="52.000000"  style="stroke:black; stroke-linecap:round; stroke-width:0.25;"/>
<line x1="24.000000" y1="60.000000" x2="28.000000" y2="60.000000"  style="stroke:black; stroke-linecap:round; stroke-width:0.25;"/>
<line x1="24.000000" y1="68.000000" x2="28.000000" y2="68.000000"  style="stroke:black; stroke-linecap:round; stroke-width:0.25;"/>
<line x1="28.000000" y1="52.000000" x2="52.000000" y2="52.000000"  style="stroke:black; stroke-linecap:round; stroke-width:0.25;"/>
<line x1="28.000000" y1="60.000000" x2="44.000000" y2="60.000000"  style="stroke:black; stroke-linecap:round; stroke-width:0.25;"/>
<line x1="28.000000" y1="68.000000" x2="36.000000" y2="68.000000"  style="stroke:black; stroke-linecap:round; stroke-width:0.25;"/>
<line x1="36.000000" y1="68.000000" x2="36.000000" y2="88.080000"  style="stroke:black; stroke-linecap:round; stroke-width:0.25;"/>
<line x1="36.000000" y1="88.080000" x2="52.000000" y2="88.080000"  style="stroke:black; stroke-linecap:round; stroke-width:0.25;"/>
<line x1="44.000000" y1="60.000000" x2="44.000000" y2="80.080000"  style="stroke:black; stroke-linecap:round; stroke-width:0.25;"/>
<line x1="44.000000" y1="80.080000" x2="52.000000" y2="80.080000"  style="stroke:black; stroke-linecap:round; stroke-width:0.25;"/>
<line x1="52.000000" y1="52.000000" x2="52.000000" y2="72.000000"  style="stroke:black; stroke-linecap:round; stroke-width:0.25;"/>
<line x1="52.000000" y1="72.000000" x2="52.000000" y2="72.000000"  style="stroke:black; stroke-linecap:round; stroke-width:0.25;"/>
<line x1="52.000000" y1="72.000000" x2="60.000000" y2="72.000000"  style="stroke:black; stroke-linecap:round; stroke-width:0.25;"/>
<line x1="52.000000" y1="80.080000" x2="60.000000" y2="80.080000"  style="stroke:black; stroke-linecap:round; stroke-width:0.25;"/>
<line x1="52.000000" y1="88.080000" x2="60.000000" y2="88.080000"  style="stroke:black; stroke-linecap:round; stroke-width:0.25;"/>
<line x1="60.000000" y1="36.000000" x2="60.000000" y2="36.000000"  style="stroke:black; stroke-linecap:round; stroke-width:0.25;"/>
<line x1="60.000000" y1="36.000000" x2="60.000000" y2="64.000000"  style="stroke:black; stroke-linecap:round; stroke-width:0.25;"/>
<line x1="60.000000" y1="64.000000" x2="60.000000" y2="64.000000"  style="stroke:black; stroke-linecap:round; stroke-width:0.25;"/>
<line x1="60.000000" y1="64.000000" x2="64.000000" y2="64.000000"  style="stroke:black; stroke-linecap:round; stroke-width:0.25;"/>
<line x1="60.000000" y1="72.000000" x2="64.000000" y2="72.000000"  style="stroke:black; stroke-linecap:round; stroke-width:0.25;"/>
<line x1="60.000000" y1="80.080000" x2="72.020000" y2="80.080000"  style="stroke:black; stroke-linecap:round; stroke-width:0.25;"/>
<line x1="60.000000" y1="88.080000" x2="72.020000" y2="88.080000"  style="stroke:black; stroke-linecap:round; stroke-width:0.25;"/>
<line x1="64.000000" y1="64.000000" x2="68.000000" y2="64.000000"  style="stroke:black; stroke-linecap:round; stroke-width:0.25;"/>
<line x1="64.000000" y1="72.000000" x2="68.000000" y2="72.000000"  style="stroke:black; stroke-linecap:round; stroke-width:0.25;"/>
<line x1="68.000000" y1="64.000000" x2="76.040000" y2="72.000000"  style="stroke:black; stroke-linecap:round; stroke-width:0.25;"/>
<line x1="68.000000" y1="72.000000" x2="76.040000" y2="64.000000"  style="stroke:black; stroke-linecap:round; stroke-width:0.25;"/>
<line x1="72.020000" y1="80.080000" x2="84.040000" y2="80.080000"  style="stroke:black; stroke-linecap:round; stroke-width:0.25;"/>
<line x1="72.020000" y1="88.080000" x2="84.040000" y2="88.080000"  style="stroke:black; stroke-linecap:round; stroke-width:0.25;"/>
<line x1="76.040000" y1="64.000000" x2="80.040000" y2="64.000000"  style="stroke:black; stroke-linecap:round; stroke-width:0.25;"/>
<line x1="76.040000" y1="72.000000" x2="80.040000" y2="72.000000"  style="stroke:black; stroke-linecap:round; stroke-width:0.25;"/>
<line x1="80.040000" y1="64.000000" x2="84.040000" y2="64.000000"  style="stroke:black; stroke-linecap:round; stroke-width:0.25;"/>
<line x1="80.040000" y1="72.000000" x2="84.040000" y2="72.000000"  style="stroke:black; stroke-linecap:round; stroke-width:0.25;"/>
<line x1="84.040000" y1="56.000000" x2="92.040000" y2="56.000000"  style="stroke:black; stroke-linecap:round; stroke-width:0.25;"/>
<line x1="84.040000" y1="64.000000" x2="84.040000" y2="56.000000"  style="stroke:black; stroke-linecap:round; stroke-width:0.25;"/>
<line x1="84.040000" y1="64.000000" x2="84.040000" y2="64.000000"  style="stroke:black; stroke-linecap:round; stroke-width:0.25;"/>
<line x1="84.040000" y1="72.000000" x2="92.040000" y2="72.000000"  style="stroke:black; stroke-linecap:round; stroke-width:0.25;"/>
<line x1="84.040000" y1="80.000000" x2="92.040000" y2="80.000000"  style="stroke:black; stroke-linecap:round; stroke-width:0.25;"/>
<line x1="84.040000" y1="80.080000" x2="84.040000" y2="80.000000"  style="stroke:black; stroke-linecap:round; stroke-width:0.25;"/>
<line x1="84.040000" y1="80.080000" x2="84.040000" y2="80.080000"  style="stroke:black; stroke-linecap:round; stroke-width:0.25;"/>
<line x1="84.040000" y1="88.080000" x2="92.040000" y2="88.080000"  style="stroke:black; stroke-linecap:round; stroke-width:0.25;"/>
<line x1="92.040000" y1="56.000000" x2="108.040000" y2="56.000000"  style="stroke:black; stroke-linecap:round; stroke-width:0.25;"/>
<line x1="92.040000" y1="72.000000" x2="96.040000" y2="72.000000"  style="stroke:black; stroke-linecap:round; stroke-width:0.25;"/>
<line x1="92.040000" y1="80.000000" x2="96.040000" y2="80.000000"  style="stroke:black; stroke-linecap:round; stroke-width:0.25;"/>
<line x1="92.040000" y1="88.080000" x2="92.040000" y2="96.000000"  style="stroke:black; stroke-linecap:round; stroke-width:0.25;"/>
<line x1="92.040000" y1="96.000000" x2="92.040000" y2="96.000000"  style="stroke:black; stroke-linecap:round; stroke-width:0.25;"/>
<line x1="92.040000" y1="96.000000" x2="108.040000" y2="96.000000"  style="stroke:black; stroke-linecap:round; stroke-width:0.25;"/>
<line x1="108.040000" y1="56.000000" x2="124.040000" y2="56.000000"  style="stroke:black; stroke-linecap:round; stroke-width:0.25;"/>
<line x1="108.040000" y1="96.000000" x2="124.040000" y2="96.000000"  style="stroke:black; stroke-linecap:round; stroke-width:0.25;"/>
<line x1="120.040000" y1="76.000000" x2="124.040000" y2="76.000000"  style="stroke:black; stroke-linecap:round; stroke-width:0.25;"/>
<line x1="124.040000" y1="56.000000" x2="132.040000" y2="56.000000"  style="stroke:black; stroke-linecap:round; stroke-width:0.25;"/>
<line x1="124.040000" y1="76.000000" x2="132.040000" y2="76.000000"  style="stroke:black; stroke-linecap:round; stroke-width:0.25;"/>
<line x1="124.040000" y1="84.000000" x2="132.040000" y2="84.000000"  style="stroke:black; stroke-linecap:round; stroke-width:0.25;"/>
<line x1="124.040000" y1="96.000000" x2="124.040000" y2="84.000000"  style="stroke:black; stroke-linecap:round; stroke-width:0.25;"/>
<line x1="124.040000" y1="96.000000" x2="124.040000" y2="96.000000"  style="stroke:black; stroke-linecap:round; stroke-width:0.25;"/>
<line x1="128.270000" y1="36.000000" x2="60.000000" y2="36.000000"  style="stroke:black; stroke-linecap:round; stroke-width:0.25;"/>
<line x1="132.040000" y1="56.000000" x2="132.040000" y2="68.000000"  style="stroke:black; stroke-linecap:round; stroke-width:0.25;"/>
<line x1="132.040000" y1="68.000000" x2="132.040000" y2="68.000000"  style="stroke:black; stroke-linecap:round; stroke-width:0.25;"/>
<line x1="132.040000" y1="68.000000" x2="136.040000" y2="68.000000"  style="stroke:black; stroke-linecap:round; stroke-width:0.25;"/>
<line x1="132.040000" y1="76.000000" x2="136.040000" y2="76.000000"  style="stroke:black; stroke-linecap:round; stroke-width:0.25;"/>
<line x1="132.040000" y1="84.000000" x2="136.040000" y2="84.000000"  style="stroke:black; stroke-linecap:round; stroke-width:0.25;"/>
<line x1="132.270000" y1="36.000000" x2="128.270000" y2="36.000000"  style="stroke:black; stroke-linecap:round; stroke-width:0.25;"/>
<line x1="200.770000" y1="36.000000" x2="196.770000" y2="36.000000"  style="stroke:black; stroke-linecap:round; stroke-width:0.25;"/>
<line x1="265.040000" y1="68.000000" x2="269.040000" y2="68.000000"  style="stroke:black; stroke-linecap:round; stroke-width:0.25;"/>
<line x1="265.040000" y1="76.000000" x2="269.040000" y2="76.000000"  style="stroke:black; stroke-linecap:round; stroke-width:0.25;"/>
<line x1="265.040000" y1="84.000000" x2="269.040000" y2="84.000000"  style="stroke:black; stroke-linecap:round; stroke-width:0.25;"/>
<line x1="269.040000" y1="36.000000" x2="200.770000" y2="36.000000"  style="stroke:black; stroke-linecap:round; stroke-width:0.25;"/>
<line x1="269.040000" y1="36.000000" x2="269.040000" y2="36.000000"  style="stroke:black; stroke-linecap:round; stroke-width:0.25;"/>
<line x1="269.040000" y1="64.000000" x2="269.040000" y2="36.000000"  style="stroke:black; stroke-linecap:round; stroke-width:0.25;"/>
<line x1="269.040000" y1="68.000000" x2="271.040000" y2="68.000000"  style="stroke:black; stroke-linecap:round; stroke-width:0.25;"/>
<line x1="269.040000" y1="76.000000" x2="277.040000" y2="76.000000"  style="stroke:black; stroke-linecap:round; stroke-width:0.25;"/>
<line x1="269.040000" y1="84.000000" x2="277.040000" y2="84.000000"  style="stroke:black; stroke-linecap:round; stroke-width:0.25;"/>
<line x1="271.040000" y1="68.000000" x2="277.040000" y2="68.000000"  style="stroke:black; stroke-linecap:round; stroke-width:0.25;"/>
<line x1="277.040000" y1="52.000000" x2="301.040000" y2="52.000000"  style="stroke:black; stroke-linecap:round; stroke-width:0.25;"/>
<line x1="277.040000" y1="68.000000" x2="277.040000" y2="52.000000"  style="stroke:black; stroke-linecap:round; stroke-width:0.25;"/>
<line x1="277.040000" y1="68.000000" x2="277.040000" y2="68.000000"  style="stroke:black; stroke-linecap:round; stroke-width:0.25;"/>
<line x1="277.040000" y1="76.000000" x2="285.040000" y2="76.000000"  style="stroke:black; stroke-linecap:round; stroke-width:0.25;"/>
<line x1="277.040000" y1="84.000000" x2="293.040000" y2="84.000000"  style="stroke:black; stroke-linecap:round; stroke-width:0.25;"/>
<line x1="285.040000" y1="60.000000" x2="301.040000" y2="60.000000"  style="stroke:black; stroke-linecap:round; stroke-width:0.25;"/>
<line x1="285.040000" y1="76.000000" x2="285.040000" y2="60.000000"  style="stroke:black; stroke-linecap:round; stroke-width:0.25;"/>
<line x1="293.040000" y1="68.000000" x2="301.040000" y2="68.000000"  style="stroke:black; stroke-linecap:round; stroke-width:0.25;"/>
<line x1="293.040000" y1="84.000000" x2="293.040000" y2="68.000000"  style="stroke:black; stroke-linecap:round; stroke-width:0.25;"/>
<line x1="301.040000" y1="52.000000" x2="305.040000" y2="52.000000"  style="stroke:black; stroke-linecap:round; stroke-width:0.25;"/>
<line x1="301.040000" y1="60.000000" x2="305.040000" y2="60.000000"  style="stroke:black; stroke-linecap:round; stroke-width:0.25;"/>
<line x1="301.040000" y1="68.000000" x2="305.040000" y2="68.000000"  style="stroke:black; stroke-linecap:round; stroke-width:0.25;"/>
<line x1="305.040000" y1="52.000000" x2="309.040000" y2="52.000000"  style="stroke:black; stroke-linecap:round; stroke-width:0.25;"/>
<line x1="305.040000" y1="60.000000" x2="309.040000" y2="60.000000"  style="stroke:black; stroke-linecap:round; stroke-width:0.25;"/>
<line x1="305.040000" y1="68.000000" x2="309.040000" y2="68.000000"  style="stroke:black; stroke-linecap:round; stroke-width:0.25;"/>
<line x1="309.040000" y1="52.000000" x2="319.040000" y2="52.000000"  style="stroke:black; stroke-linecap:round; stroke-width:0.25;"/>
<line x1="309.040000" y1="60.000000" x2="319.040000" y2="60.000000"  style="stroke:black; stroke-linecap:round; stroke-width:0.25;"/>
<line x1="309.040000" y1="68.000000" x2="319.040000" y2="68.000000"  style="stroke:black; stroke-linecap:round; stroke-width:0.25;"/>
</svg>
