<?xml version="1.0"?>
<svg xmlns="http://www.w3.org/2000/svg" xmlns:xlink="http://www.w3.org/1999/xlink" viewBox="0 0 280.400000 156.000000" width="140.200000mm" height="78.000000mm" version="1.1">
<rect x="1.000000" y="1.000000" width="279.400000" height="155.000000" rx="0" ry="0" style="stroke:none;fill:#cccccc;"/>
<rect x="0.000000" y="0.000000" width="279.400000" height="155.000000" rx="0" ry="0" style="stroke:none;fill:#ffffff;"/>
<text x="10.000000" y="7.000000" font-family="Arial" font-size="7"></text>
<a xlink:href="white-0x7f8cfad25970.svg">
<rect x="35.000000" y="51.000000" width="25.800000" height="24.000000" rx="0" ry="0" style="stroke:none;fill:#cccccc;"/>
<rect x="34.000000" y="50.000000" width="25.800000" height="24.000000" rx="0" ry="0" style="stroke:none;fill:#003366;"/>
</a>
<a xlink:href="white-0x7f8cfad25970.svg">
<text x="46.900000" y="64.000000" font-family="Arial" font-size="7" text-anchor="middle" fill="#FFFFFF">white</text>
</a>
<circle cx="36.000000" cy="52.000000" r="1"/>
<rect x="35.900000" y="83.000000" width="24.000000" height="24.000000" rx="0" ry="0" style="stroke:none;fill:#cccccc;"/>
<rect x="34.900000" y="82.000000" width="24.000000" height="24.000000" rx="0" ry="0" style="stroke:none;fill:#f44800;"/>
<text x="46.900000" y="96.000000" font-family="Arial" font-size="7" text-anchor="middle" fill="#FFFFFF">0.5</text>
<circle cx="36.900000" cy="84.000000" r="1"/>
<rect x="76.800000" y="67.000000" width="24.000000" height="24.000000" rx="0" ry="0" style="stroke:none;fill:#cccccc;"/>
<rect x="75.800000" y="66.000000" width="24.000000" height="24.000000" rx="0" ry="0" style="stroke:none;fill:#4B71A1;"/>
<text x="87.800000" y="80.000000" font-family="Arial" font-size="7" text-anchor="middle" fill="#FFFFFF">*</text>
<circle cx="77.800000" cy="68.000000" r="1"/>
<line x1="72.800000" y1="73.000000" x2="75.800000" y2="74.000000"  transform="rotate(0.000000,75.800000,74.000000)" style="stroke: black; stroke-width:0.25;"/>
<line x1="72.800000" y1="75.000000" x2="75.800000" y2="74.000000"  transform="rotate(0.000000,75.800000,74.000000)" style="stroke: black; stroke-width:0.25;"/>
<line x1="72.800000" y1="81.000000" x2="75.800000" y2="82.000000"  transform="rotate(0.000000,75.800000,82.000000)" style="stroke: black; stroke-width:0.25;"/>
<line x1="72.800000" y1="83.000000" x2="75.800000" y2="82.000000"  transform="rotate(0.000000,75.800000,82.000000)" style="stroke: black; stroke-width:0.25;"/>
<a xlink:href="whistle-0x7f8cfad9d110.svg">
<rect x="148.800000" y="35.000000" width="51.600000" height="24.000000" rx="0" ry="0" style="stroke:none;fill:#cccccc;"/>
<rect x="147.800000" y="34.000000" width="51.600000" height="24.000000" rx="0" ry="0" style="stroke:none;fill:#003366;"/>
</a>
<a xlink:href="whistle-0x7f8cfad9d110.svg">
<text x="173.600000" y="48.000000" font-family="Arial" font-size="7" text-anchor="middle" fill="#FFFFFF">whistle(0)</text>
</a>
<circle cx="149.800000" cy="36.000000" r="1"/>
<line x1="144.800000" y1="45.000000" x2="147.800000" y2="46.000000"  transform="rotate(0.000000,147.800000,46.000000)" style="stroke: black; stroke-width:0.25;"/>
<line x1="144.800000" y1="47.000000" x2="147.800000" y2="46.000000"  transform="rotate(0.000000,147.800000,46.000000)" style="stroke: black; stroke-width:0.25;"/>
<a xlink:href="whistle-0x7f8cfad9e350.svg">
<rect x="148.800000" y="67.000000" width="51.600000" height="24.000000" rx="0" ry="0" style="stroke:none;fill:#cccccc;"/>
<rect x="147.800000" y="66.000000" width="51.600000" height="24.000000" rx="0" ry="0" style="stroke:none;fill:#003366;"/>
</a>
<a xlink:href="whistle-0x7f8cfad9e350.svg">
<text x="173.600000" y="80.000000" font-family="Arial" font-size="7" text-anchor="middle" fill="#FFFFFF">whistle(1)</text>
</a>
<circle cx="149.800000" cy="68.000000" r="1"/>
<line x1="144.800000" y1="77.000000" x2="147.800000" y2="78.000000"  transform="rotate(0.000000,147.800000,78.000000)" style="stroke: black; stroke-width:0.25;"/>
<line x1="144.800000" y1="79.000000" x2="147.800000" y2="78.000000"  transform="rotate(0.000000,147.800000,78.000000)" style="stroke: black; stroke-width:0.25;"/>
<a xlink:href="whistle-0x7f8cfad9f590.svg">
<rect x="148.800000" y="99.000000" width="51.600000" height="24.000000" rx="0" ry="0" style="stroke:none;fill:#cccccc;"/>
<rect x="147.800000" y="98.000000" width="51.600000" height="24.000000" rx="0" ry="0" style="stroke:none;fill:#003366;"/>
</a>
<a xlink:href="whistle-0x7f8cfad9f590.svg">
<text x="173.600000" y="112.000000" font-family="Arial" font-size="7" text-anchor="middle" fill="#FFFFFF">whistle(2)</text>
</a>
<circle cx="149.800000" cy="100.000000" r="1"/>
<line x1="144.800000" y1="109.000000" x2="147.800000" y2="110.000000"  transform="rotate(0.000000,147.800000,110.000000)" style="stroke: black; stroke-width:0.25;"/>
<line x1="144.800000" y1="111.000000" x2="147.800000" y2="110.000000"  transform="rotate(0.000000,147.800000,110.000000)" style="stroke: black; stroke-width:0.25;"/>
<line x1="25.000000" y1="25.000000" x2="25.000000" y2="131.000000"  style="stroke: black; stroke-linecap:round; stroke-width:0.25; stroke-dasharray:3,3;"/>
<line x1="25.000000" y1="131.000000" x2="208.400000" y2="131.000000"  style="stroke: black; stroke-linecap:round; stroke-width:0.25; stroke-dasharray:3,3;"/>
<line x1="208.400000" y1="131.000000" x2="208.400000" y2="25.000000"  style="stroke: black; stroke-linecap:round; stroke-width:0.25; stroke-dasharray:3,3;"/>
<line x1="25.000000" y1="25.000000" x2="30.000000" y2="25.000000"  style="stroke: black; stroke-linecap:round; stroke-width:0.25; stroke-dasharray:3,3;"/>
<line x1="88.050000" y1="25.000000" x2="208.400000" y2="25.000000"  style="stroke: black; stroke-linecap:round; stroke-width:0.25; stroke-dasharray:3,3;"/>
<text x="30.000000" y="27.000000" font-family="Arial" font-size="7">vgroup(Whistles)</text>
<line x1="15.000000" y1="15.000000" x2="15.000000" y2="141.000000"  style="stroke: black; stroke-linecap:round; stroke-width:0.25; stroke-dasharray:3,3;"/>
<line x1="15.000000" y1="141.000000" x2="265.400000" y2="141.000000"  style="stroke: black; stroke-linecap:round; stroke-width:0.25; stroke-dasharray:3,3;"/>
<line x1="265.400000" y1="141.000000" x2="265.400000" y2="15.000000"  style="stroke: black; stroke-linecap:round; stroke-width:0.25; stroke-dasharray:3,3;"/>
<line x1="15.000000" y1="15.000000" x2="20.000000" y2="15.000000"  style="stroke: black; stroke-linecap:round; stroke-width:0.25; stroke-dasharray:3,3;"/>
<line x1="49.025000" y1="15.000000" x2="265.400000" y2="15.000000"  style="stroke: black; stroke-linecap:round; stroke-width:0.25; stroke-dasharray:3,3;"/>
<text x="20.000000" y="17.000000" font-family="Arial" font-size="7">process</text>
<line x1="267.400000" y1="77.000000" x2="270.400000" y2="78.000000"  transform="rotate(0.000000,270.400000,78.000000)" style="stroke: black; stroke-width:0.25;"/>
<line x1="267.400000" y1="79.000000" x2="270.400000" y2="78.000000"  transform="rotate(0.000000,270.400000,78.000000)" style="stroke: black; stroke-width:0.25;"/>
<line x1="58.900000" y1="94.000000" x2="62.900000" y2="94.000000"  style="stroke:black; stroke-linecap:round; stroke-width:0.25;"/>
<line x1="59.800000" y1="62.000000" x2="63.800000" y2="62.000000"  style="stroke:black; stroke-linecap:round; stroke-width:0.25;"/>
<line x1="62.900000" y1="94.000000" x2="63.800000" y2="94.000000"  style="stroke:black; stroke-linecap:round; stroke-width:0.25;"/>
<line x1="63.800000" y1="62.000000" x2="71.800000" y2="62.000000"  style="stroke:black; stroke-linecap:round; stroke-width:0.25;"/>
<line x1="63.800000" y1="82.000000" x2="71.800000" y2="82.000000"  style="stroke:black; stroke-linecap:round; stroke-width:0.25;"/>
<line x1="63.800000" y1="94.000000" x2="63.800000" y2="82.000000"  style="stroke:black; stroke-linecap:round; stroke-width:0.25;"/>
<line x1="63.800000" y1="94.000000" x2="63.800000" y2="94.000000"  style="stroke:black; stroke-linecap:round; stroke-width:0.25;"/>
<line x1="71.800000" y1="62.000000" x2="71.800000" y2="74.000000"  style="stroke:black; stroke-linecap:round; stroke-width:0.25;"/>
<line x1="71.800000" y1="74.000000" x2="71.800000" y2="74.000000"  style="stroke:black; stroke-linecap:round; stroke-width:0.25;"/>
<line x1="71.800000" y1="74.000000" x2="75.800000" y2="74.000000"  style="stroke:black; stroke-linecap:round; stroke-width:0.25;"/>
<line x1="71.800000" y1="82.000000" x2="75.800000" y2="82.000000"  style="stroke:black; stroke-linecap:round; stroke-width:0.25;"/>
<line x1="99.800000" y1="78.000000" x2="103.800000" y2="78.000000"  style="stroke:black; stroke-linecap:round; stroke-width:0.25;"/>
<line x1="103.800000" y1="78.000000" x2="143.800000" y2="46.000000"  style="stroke:black; stroke-linecap:round; stroke-width:0.25;"/>
<line x1="103.800000" y1="78.000000" x2="143.800000" y2="78.000000"  style="stroke:black; stroke-linecap:round; stroke-width:0.25;"/>
<line x1="103.800000" y1="78.000000" x2="143.800000" y2="110.000000"  style="stroke:black; stroke-linecap:round; stroke-width:0.25;"/>
<line x1="143.800000" y1="46.000000" x2="147.800000" y2="46.000000"  style="stroke:black; stroke-linecap:round; stroke-width:0.25;"/>
<line x1="143.800000" y1="78.000000" x2="147.800000" y2="78.000000"  style="stroke:black; stroke-linecap:round; stroke-width:0.25;"/>
<line x1="143.800000" y1="110.000000" x2="147.800000" y2="110.000000"  style="stroke:black; stroke-linecap:round; stroke-width:0.25;"/>
<line x1="199.400000" y1="46.000000" x2="203.400000" y2="46.000000"  style="stroke:black; stroke-linecap:round; stroke-width:0.25;"/>
<line x1="199.400000" y1="78.000000" x2="203.400000" y2="78.000000"  style="stroke:black; stroke-linecap:round; stroke-width:0.25;"/>
<line x1="199.400000" y1="110.000000" x2="203.400000" y2="110.000000"  style="stroke:black; stroke-linecap:round; stroke-width:0.25;"/>
<line x1="203.400000" y1="46.000000" x2="213.400000" y2="46.000000"  style="stroke:black; stroke-linecap:round; stroke-width:0.25;"/>
<line x1="203.400000" y1="78.000000" x2="213.400000" y2="78.000000"  style="stroke:black; stroke-linecap:round; stroke-width:0.25;"/>
<line x1="203.400000" y1="110.000000" x2="213.400000" y2="110.000000"  style="stroke:black; stroke-linecap:round; stroke-width:0.25;"/>
<line x1="213.400000" y1="46.000000" x2="244.400000" y2="78.000000"  style="stroke:black; stroke-linecap:round; stroke-width:0.25;"/>
<line x1="213.400000" y1="78.000000" x2="244.400000" y2="78.000000"  style="stroke:black; stroke-linecap:round; stroke-width:0.25;"/>
<line x1="213.400000" y1="110.000000" x2="244.400000" y2="78.000000"  style="stroke:black; stroke-linecap:round; stroke-width:0.25;"/>
<line x1="244.400000" y1="78.000000" x2="248.400000" y2="78.000000"  style="stroke:black; stroke-linecap:round; stroke-width:0.25;"/>
<line x1="248.400000" y1="78.000000" x2="252.400000" y2="78.000000"  style="stroke:black; stroke-linecap:round; stroke-width:0.25;"/>
<line x1="252.400000" y1="78.000000" x2="252.400000" y2="78.000000"  style="stroke:black; stroke-linecap:round; stroke-width:0.25;"/>
<line x1="252.400000" y1="78.000000" x2="256.400000" y2="78.000000"  style="stroke:black; stroke-linecap:round; stroke-width:0.25;"/>
<line x1="256.400000" y1="78.000000" x2="260.400000" y2="78.000000"  style="stroke:black; stroke-linecap:round; stroke-width:0.25;"/>
<line x1="260.400000" y1="78.000000" x2="270.400000" y2="78.000000"  style="stroke:black; stroke-linecap:round; stroke-width:0.25;"/>
</svg>
