<?xml version="1.0"?>
<svg xmlns="http://www.w3.org/2000/svg" xmlns:xlink="http://www.w3.org/1999/xlink" viewBox="0 0 306.800000 104.000000" width="153.400000mm" height="52.000000mm" version="1.1">
<a xlink:href="vibratoFreq-0x7fc98210fd80.svg">
<rect x="1.000000" y="1.000000" width="305.800000" height="103.000000" rx="0" ry="0" style="stroke:none;fill:#cccccc;"/>
<rect x="0.000000" y="0.000000" width="305.800000" height="103.000000" rx="0" ry="0" style="stroke:none;fill:#ffffff;"/>
</a>
<text x="10.000000" y="7.000000" font-family="Arial" font-size="7"></text>
<rect x="33.000000" y="41.000000" width="24.000000" height="24.000000" rx="0" ry="0" style="stroke:none;fill:#cccccc;"/>
<rect x="32.000000" y="40.000000" width="24.000000" height="24.000000" rx="0" ry="0" style="stroke:none;fill:#47945E;"/>
<text x="44.000000" y="54.000000" font-family="Arial" font-size="7" text-anchor="middle" fill="#FFFFFF">g</text>
<circle cx="34.000000" cy="42.000000" r="1"/>
<line x1="29.000000" y1="51.000000" x2="32.000000" y2="52.000000"  transform="rotate(0.000000,32.000000,52.000000)" style="stroke: black; stroke-width:0.25;"/>
<line x1="29.000000" y1="53.000000" x2="32.000000" y2="52.000000"  transform="rotate(0.000000,32.000000,52.000000)" style="stroke: black; stroke-width:0.25;"/>
<a xlink:href="noise-0x7fc980dc8730.svg">
<rect x="65.000000" y="41.000000" width="25.800000" height="24.000000" rx="0" ry="0" style="stroke:none;fill:#cccccc;"/>
<rect x="64.000000" y="40.000000" width="25.800000" height="24.000000" rx="0" ry="0" style="stroke:none;fill:#003366;"/>
</a>
<a xlink:href="noise-0x7fc980dc8730.svg">
<text x="76.900000" y="54.000000" font-family="Arial" font-size="7" text-anchor="middle" fill="#FFFFFF">noise</text>
</a>
<circle cx="66.000000" cy="42.000000" r="1"/>
<a xlink:href="sampleAndhold-0x7fc98210f830.svg">
<rect x="106.800000" y="25.000000" width="129.000000" height="24.000000" rx="0" ry="0" style="stroke:none;fill:#cccccc;"/>
<rect x="105.800000" y="24.000000" width="129.000000" height="24.000000" rx="0" ry="0" style="stroke:none;fill:#003366;"/>
</a>
<a xlink:href="sampleAndhold-0x7fc98210f830.svg">
<text x="170.300000" y="38.000000" font-family="Arial" font-size="7" text-anchor="middle" fill="#FFFFFF">sampleAndhold... : -),0 : &lt;=)</text>
</a>
<circle cx="107.800000" cy="26.000000" r="1"/>
<line x1="102.800000" y1="35.000000" x2="105.800000" y2="36.000000"  transform="rotate(0.000000,105.800000,36.000000)" style="stroke: black; stroke-width:0.25;"/>
<line x1="102.800000" y1="37.000000" x2="105.800000" y2="36.000000"  transform="rotate(0.000000,105.800000,36.000000)" style="stroke: black; stroke-width:0.25;"/>
<a xlink:href="vibratoSpeed-0x7fc980e43550.svg">
<rect x="145.500000" y="57.000000" width="51.600000" height="24.000000" rx="0" ry="0" style="stroke:none;fill:#cccccc;"/>
<rect x="144.500000" y="56.000000" width="51.600000" height="24.000000" rx="0" ry="0" style="stroke:none;fill:#003366;"/>
</a>
<a xlink:href="vibratoSpeed-0x7fc980e43550.svg">
<text x="170.300000" y="70.000000" font-family="Arial" font-size="7" text-anchor="middle" fill="#FFFFFF">vibratoSpeed</text>
</a>
<circle cx="146.500000" cy="58.000000" r="1"/>
<rect x="251.800000" y="41.000000" width="24.000000" height="24.000000" rx="0" ry="0" style="stroke:none;fill:#cccccc;"/>
<rect x="250.800000" y="40.000000" width="24.000000" height="24.000000" rx="0" ry="0" style="stroke:none;fill:#4B71A1;"/>
<text x="262.800000" y="54.000000" font-family="Arial" font-size="7" text-anchor="middle" fill="#FFFFFF">*</text>
<circle cx="252.800000" cy="42.000000" r="1"/>
<line x1="247.800000" y1="47.000000" x2="250.800000" y2="48.000000"  transform="rotate(0.000000,250.800000,48.000000)" style="stroke: black; stroke-width:0.25;"/>
<line x1="247.800000" y1="49.000000" x2="250.800000" y2="48.000000"  transform="rotate(0.000000,250.800000,48.000000)" style="stroke: black; stroke-width:0.25;"/>
<line x1="247.800000" y1="55.000000" x2="250.800000" y2="56.000000"  transform="rotate(0.000000,250.800000,56.000000)" style="stroke: black; stroke-width:0.25;"/>
<line x1="247.800000" y1="57.000000" x2="250.800000" y2="56.000000"  transform="rotate(0.000000,250.800000,56.000000)" style="stroke: black; stroke-width:0.25;"/>
<line x1="15.000000" y1="15.000000" x2="15.000000" y2="89.000000"  style="stroke: black; stroke-linecap:round; stroke-width:0.25; stroke-dasharray:3,3;"/>
<line x1="15.000000" y1="89.000000" x2="291.800000" y2="89.000000"  style="stroke: black; stroke-linecap:round; stroke-width:0.25; stroke-dasharray:3,3;"/>
<line x1="291.800000" y1="89.000000" x2="291.800000" y2="15.000000"  style="stroke: black; stroke-linecap:round; stroke-width:0.25; stroke-dasharray:3,3;"/>
<line x1="15.000000" y1="15.000000" x2="20.000000" y2="15.000000"  style="stroke: black; stroke-linecap:round; stroke-width:0.25; stroke-dasharray:3,3;"/>
<line x1="52.250000" y1="15.000000" x2="291.800000" y2="15.000000"  style="stroke: black; stroke-linecap:round; stroke-width:0.25; stroke-dasharray:3,3;"/>
<text x="20.000000" y="17.000000" font-family="Arial" font-size="7">randfreq</text>
<line x1="293.800000" y1="51.000000" x2="296.800000" y2="52.000000"  transform="rotate(0.000000,296.800000,52.000000)" style="stroke: black; stroke-width:0.25;"/>
<line x1="293.800000" y1="53.000000" x2="296.800000" y2="52.000000"  transform="rotate(0.000000,296.800000,52.000000)" style="stroke: black; stroke-width:0.25;"/>
<line x1="10.000000" y1="52.000000" x2="20.000000" y2="52.000000"  style="stroke:black; stroke-linecap:round; stroke-width:0.25;"/>
<line x1="20.000000" y1="52.000000" x2="24.000000" y2="52.000000"  style="stroke:black; stroke-linecap:round; stroke-width:0.25;"/>
<line x1="24.000000" y1="52.000000" x2="28.000000" y2="52.000000"  style="stroke:black; stroke-linecap:round; stroke-width:0.25;"/>
<line x1="28.000000" y1="52.000000" x2="28.000000" y2="52.000000"  style="stroke:black; stroke-linecap:round; stroke-width:0.25;"/>
<line x1="28.000000" y1="52.000000" x2="32.000000" y2="52.000000"  style="stroke:black; stroke-linecap:round; stroke-width:0.25;"/>
<line x1="89.800000" y1="52.000000" x2="93.800000" y2="52.000000"  style="stroke:black; stroke-linecap:round; stroke-width:0.25;"/>
<line x1="93.800000" y1="36.000000" x2="101.800000" y2="36.000000"  style="stroke:black; stroke-linecap:round; stroke-width:0.25;"/>
<line x1="93.800000" y1="52.000000" x2="93.800000" y2="36.000000"  style="stroke:black; stroke-linecap:round; stroke-width:0.25;"/>
<line x1="93.800000" y1="52.000000" x2="93.800000" y2="52.000000"  style="stroke:black; stroke-linecap:round; stroke-width:0.25;"/>
<line x1="101.800000" y1="36.000000" x2="105.800000" y2="36.000000"  style="stroke:black; stroke-linecap:round; stroke-width:0.25;"/>
<line x1="196.100000" y1="68.000000" x2="200.100000" y2="68.000000"  style="stroke:black; stroke-linecap:round; stroke-width:0.25;"/>
<line x1="200.100000" y1="68.000000" x2="238.800000" y2="68.000000"  style="stroke:black; stroke-linecap:round; stroke-width:0.25;"/>
<line x1="234.800000" y1="36.000000" x2="238.800000" y2="36.000000"  style="stroke:black; stroke-linecap:round; stroke-width:0.25;"/>
<line x1="238.800000" y1="36.000000" x2="246.800000" y2="36.000000"  style="stroke:black; stroke-linecap:round; stroke-width:0.25;"/>
<line x1="238.800000" y1="56.000000" x2="246.800000" y2="56.000000"  style="stroke:black; stroke-linecap:round; stroke-width:0.25;"/>
<line x1="238.800000" y1="68.000000" x2="238.800000" y2="56.000000"  style="stroke:black; stroke-linecap:round; stroke-width:0.25;"/>
<line x1="238.800000" y1="68.000000" x2="238.800000" y2="68.000000"  style="stroke:black; stroke-linecap:round; stroke-width:0.25;"/>
<line x1="246.800000" y1="36.000000" x2="246.800000" y2="48.000000"  style="stroke:black; stroke-linecap:round; stroke-width:0.25;"/>
<line x1="246.800000" y1="48.000000" x2="246.800000" y2="48.000000"  style="stroke:black; stroke-linecap:round; stroke-width:0.25;"/>
<line x1="246.800000" y1="48.000000" x2="250.800000" y2="48.000000"  style="stroke:black; stroke-linecap:round; stroke-width:0.25;"/>
<line x1="246.800000" y1="56.000000" x2="250.800000" y2="56.000000"  style="stroke:black; stroke-linecap:round; stroke-width:0.25;"/>
<line x1="274.800000" y1="52.000000" x2="278.800000" y2="52.000000"  style="stroke:black; stroke-linecap:round; stroke-width:0.25;"/>
<line x1="278.800000" y1="52.000000" x2="278.800000" y2="52.000000"  style="stroke:black; stroke-linecap:round; stroke-width:0.25;"/>
<line x1="278.800000" y1="52.000000" x2="282.800000" y2="52.000000"  style="stroke:black; stroke-linecap:round; stroke-width:0.25;"/>
<line x1="282.800000" y1="52.000000" x2="286.800000" y2="52.000000"  style="stroke:black; stroke-linecap:round; stroke-width:0.25;"/>
<line x1="286.800000" y1="52.000000" x2="296.800000" y2="52.000000"  style="stroke:black; stroke-linecap:round; stroke-width:0.25;"/>
</svg>
