<?xml version="1.0"?>
<svg xmlns="http://www.w3.org/2000/svg" xmlns:xlink="http://www.w3.org/1999/xlink" viewBox="0 0 522.500000 80.000000" width="261.250000mm" height="40.000000mm" version="1.1">
<a xlink:href="vibrato-0x7f94748381c0.svg">
<rect x="1.000000" y="1.000000" width="521.500000" height="79.000000" rx="0" ry="0" style="stroke:none;fill:#cccccc;"/>
<rect x="0.000000" y="0.000000" width="521.500000" height="79.000000" rx="0" ry="0" style="stroke:none;fill:#ffffff;"/>
</a>
<text x="10.000000" y="7.000000" font-family="Arial" font-size="7"></text>
<rect x="25.000000" y="29.000000" width="232.200000" height="24.000000" rx="0" ry="0" style="stroke:none;fill:#cccccc;"/>
<rect x="24.000000" y="28.000000" width="232.200000" height="24.000000" rx="0" ry="0" style="stroke:none;fill:#477881;"/>
<text x="140.100000" y="42.000000" font-family="Arial" font-size="7" text-anchor="middle" fill="#FFFFFF">hslider(Vibrato Intensity, 0.1f, 0.05f, 0.4f, 0.01f)</text>
<circle cx="26.000000" cy="30.000000" r="1"/>
<a xlink:href="smooth-0x7f9472c2e140.svg">
<rect x="265.200000" y="29.000000" width="64.500000" height="24.000000" rx="0" ry="0" style="stroke:none;fill:#cccccc;"/>
<rect x="264.200000" y="28.000000" width="64.500000" height="24.000000" rx="0" ry="0" style="stroke:none;fill:#003366;"/>
</a>
<a xlink:href="smooth-0x7f9472c2e140.svg">
<text x="296.450000" y="42.000000" font-family="Arial" font-size="7" text-anchor="middle" fill="#FFFFFF">smooth(0.999f)</text>
</a>
<circle cx="266.200000" cy="30.000000" r="1"/>
<line x1="261.200000" y1="39.000000" x2="264.200000" y2="40.000000"  transform="rotate(0.000000,264.200000,40.000000)" style="stroke: black; stroke-width:0.25;"/>
<line x1="261.200000" y1="41.000000" x2="264.200000" y2="40.000000"  transform="rotate(0.000000,264.200000,40.000000)" style="stroke: black; stroke-width:0.25;"/>
<rect x="345.700000" y="25.000000" width="24.000000" height="24.000000" rx="0" ry="0" style="stroke:none;fill:#cccccc;"/>
<rect x="344.700000" y="24.000000" width="24.000000" height="24.000000" rx="0" ry="0" style="stroke:none;fill:#f44800;"/>
<text x="356.700000" y="38.000000" font-family="Arial" font-size="7" text-anchor="middle" fill="#FFFFFF">0.5</text>
<circle cx="346.700000" cy="26.000000" r="1"/>
<rect x="385.700000" y="29.000000" width="24.000000" height="24.000000" rx="0" ry="0" style="stroke:none;fill:#cccccc;"/>
<rect x="384.700000" y="28.000000" width="24.000000" height="24.000000" rx="0" ry="0" style="stroke:none;fill:#4B71A1;"/>
<text x="396.700000" y="42.000000" font-family="Arial" font-size="7" text-anchor="middle" fill="#FFFFFF">min</text>
<circle cx="386.700000" cy="30.000000" r="1"/>
<line x1="381.700000" y1="35.000000" x2="384.700000" y2="36.000000"  transform="rotate(0.000000,384.700000,36.000000)" style="stroke: black; stroke-width:0.25;"/>
<line x1="381.700000" y1="37.000000" x2="384.700000" y2="36.000000"  transform="rotate(0.000000,384.700000,36.000000)" style="stroke: black; stroke-width:0.25;"/>
<line x1="381.700000" y1="43.000000" x2="384.700000" y2="44.000000"  transform="rotate(0.000000,384.700000,44.000000)" style="stroke: black; stroke-width:0.25;"/>
<line x1="381.700000" y1="45.000000" x2="384.700000" y2="44.000000"  transform="rotate(0.000000,384.700000,44.000000)" style="stroke: black; stroke-width:0.25;"/>
<rect x="425.700000" y="25.000000" width="25.800000" height="24.000000" rx="0" ry="0" style="stroke:none;fill:#cccccc;"/>
<rect x="424.700000" y="24.000000" width="25.800000" height="24.000000" rx="0" ry="0" style="stroke:none;fill:#f44800;"/>
<text x="437.600000" y="38.000000" font-family="Arial" font-size="7" text-anchor="middle" fill="#FFFFFF">0.05</text>
<circle cx="426.700000" cy="26.000000" r="1"/>
<rect x="467.500000" y="29.000000" width="24.000000" height="24.000000" rx="0" ry="0" style="stroke:none;fill:#cccccc;"/>
<rect x="466.500000" y="28.000000" width="24.000000" height="24.000000" rx="0" ry="0" style="stroke:none;fill:#4B71A1;"/>
<text x="478.500000" y="42.000000" font-family="Arial" font-size="7" text-anchor="middle" fill="#FFFFFF">max</text>
<circle cx="468.500000" cy="30.000000" r="1"/>
<line x1="463.500000" y1="35.000000" x2="466.500000" y2="36.000000"  transform="rotate(0.000000,466.500000,36.000000)" style="stroke: black; stroke-width:0.25;"/>
<line x1="463.500000" y1="37.000000" x2="466.500000" y2="36.000000"  transform="rotate(0.000000,466.500000,36.000000)" style="stroke: black; stroke-width:0.25;"/>
<line x1="463.500000" y1="43.000000" x2="466.500000" y2="44.000000"  transform="rotate(0.000000,466.500000,44.000000)" style="stroke: black; stroke-width:0.25;"/>
<line x1="463.500000" y1="45.000000" x2="466.500000" y2="44.000000"  transform="rotate(0.000000,466.500000,44.000000)" style="stroke: black; stroke-width:0.25;"/>
<line x1="15.000000" y1="15.000000" x2="15.000000" y2="65.000000"  style="stroke: black; stroke-linecap:round; stroke-width:0.25; stroke-dasharray:3,3;"/>
<line x1="15.000000" y1="65.000000" x2="507.500000" y2="65.000000"  style="stroke: black; stroke-linecap:round; stroke-width:0.25; stroke-dasharray:3,3;"/>
<line x1="507.500000" y1="65.000000" x2="507.500000" y2="15.000000"  style="stroke: black; stroke-linecap:round; stroke-width:0.25; stroke-dasharray:3,3;"/>
<line x1="15.000000" y1="15.000000" x2="20.000000" y2="15.000000"  style="stroke: black; stroke-linecap:round; stroke-width:0.25; stroke-dasharray:3,3;"/>
<line x1="61.925000" y1="15.000000" x2="507.500000" y2="15.000000"  style="stroke: black; stroke-linecap:round; stroke-width:0.25; stroke-dasharray:3,3;"/>
<text x="20.000000" y="17.000000" font-family="Arial" font-size="7">vibratoGain</text>
<line x1="509.500000" y1="39.000000" x2="512.500000" y2="40.000000"  transform="rotate(0.000000,512.500000,40.000000)" style="stroke: black; stroke-width:0.25;"/>
<line x1="509.500000" y1="41.000000" x2="512.500000" y2="40.000000"  transform="rotate(0.000000,512.500000,40.000000)" style="stroke: black; stroke-width:0.25;"/>
<line x1="256.200000" y1="40.000000" x2="260.200000" y2="40.000000"  style="stroke:black; stroke-linecap:round; stroke-width:0.25;"/>
<line x1="260.200000" y1="40.000000" x2="260.200000" y2="40.000000"  style="stroke:black; stroke-linecap:round; stroke-width:0.25;"/>
<line x1="260.200000" y1="40.000000" x2="264.200000" y2="40.000000"  style="stroke:black; stroke-linecap:round; stroke-width:0.25;"/>
<line x1="328.700000" y1="40.000000" x2="332.700000" y2="40.000000"  style="stroke:black; stroke-linecap:round; stroke-width:0.25;"/>
<line x1="332.700000" y1="40.000000" x2="340.700000" y2="40.000000"  style="stroke:black; stroke-linecap:round; stroke-width:0.25;"/>
<line x1="340.700000" y1="40.000000" x2="340.700000" y2="56.000000"  style="stroke:black; stroke-linecap:round; stroke-width:0.25;"/>
<line x1="340.700000" y1="56.000000" x2="340.700000" y2="56.000000"  style="stroke:black; stroke-linecap:round; stroke-width:0.25;"/>
<line x1="340.700000" y1="56.000000" x2="356.700000" y2="56.000000"  style="stroke:black; stroke-linecap:round; stroke-width:0.25;"/>
<line x1="356.700000" y1="56.000000" x2="372.700000" y2="56.000000"  style="stroke:black; stroke-linecap:round; stroke-width:0.25;"/>
<line x1="368.700000" y1="36.000000" x2="372.700000" y2="36.000000"  style="stroke:black; stroke-linecap:round; stroke-width:0.25;"/>
<line x1="372.700000" y1="36.000000" x2="380.700000" y2="36.000000"  style="stroke:black; stroke-linecap:round; stroke-width:0.25;"/>
<line x1="372.700000" y1="44.000000" x2="380.700000" y2="44.000000"  style="stroke:black; stroke-linecap:round; stroke-width:0.25;"/>
<line x1="372.700000" y1="56.000000" x2="372.700000" y2="44.000000"  style="stroke:black; stroke-linecap:round; stroke-width:0.25;"/>
<line x1="372.700000" y1="56.000000" x2="372.700000" y2="56.000000"  style="stroke:black; stroke-linecap:round; stroke-width:0.25;"/>
<line x1="380.700000" y1="36.000000" x2="384.700000" y2="36.000000"  style="stroke:black; stroke-linecap:round; stroke-width:0.25;"/>
<line x1="380.700000" y1="44.000000" x2="384.700000" y2="44.000000"  style="stroke:black; stroke-linecap:round; stroke-width:0.25;"/>
<line x1="408.700000" y1="40.000000" x2="412.700000" y2="40.000000"  style="stroke:black; stroke-linecap:round; stroke-width:0.25;"/>
<line x1="412.700000" y1="40.000000" x2="420.700000" y2="40.000000"  style="stroke:black; stroke-linecap:round; stroke-width:0.25;"/>
<line x1="420.700000" y1="40.000000" x2="420.700000" y2="56.000000"  style="stroke:black; stroke-linecap:round; stroke-width:0.25;"/>
<line x1="420.700000" y1="56.000000" x2="420.700000" y2="56.000000"  style="stroke:black; stroke-linecap:round; stroke-width:0.25;"/>
<line x1="420.700000" y1="56.000000" x2="437.600000" y2="56.000000"  style="stroke:black; stroke-linecap:round; stroke-width:0.25;"/>
<line x1="437.600000" y1="56.000000" x2="454.500000" y2="56.000000"  style="stroke:black; stroke-linecap:round; stroke-width:0.25;"/>
<line x1="450.500000" y1="36.000000" x2="454.500000" y2="36.000000"  style="stroke:black; stroke-linecap:round; stroke-width:0.25;"/>
<line x1="454.500000" y1="44.000000" x2="462.500000" y2="44.000000"  style="stroke:black; stroke-linecap:round; stroke-width:0.25;"/>
<line x1="454.500000" y1="56.000000" x2="454.500000" y2="44.000000"  style="stroke:black; stroke-linecap:round; stroke-width:0.25;"/>
<line x1="454.500000" y1="56.000000" x2="454.500000" y2="56.000000"  style="stroke:black; stroke-linecap:round; stroke-width:0.25;"/>
<line x1="454.500000" y1="36.000000" x2="462.500000" y2="36.000000"  style="stroke:black; stroke-linecap:round; stroke-width:0.25;"/>
<line x1="462.500000" y1="36.000000" x2="466.500000" y2="36.000000"  style="stroke:black; stroke-linecap:round; stroke-width:0.25;"/>
<line x1="462.500000" y1="44.000000" x2="466.500000" y2="44.000000"  style="stroke:black; stroke-linecap:round; stroke-width:0.25;"/>
<line x1="490.500000" y1="40.000000" x2="494.500000" y2="40.000000"  style="stroke:black; stroke-linecap:round; stroke-width:0.25;"/>
<line x1="494.500000" y1="40.000000" x2="494.500000" y2="40.000000"  style="stroke:black; stroke-linecap:round; stroke-width:0.25;"/>
<line x1="494.500000" y1="40.000000" x2="498.500000" y2="40.000000"  style="stroke:black; stroke-linecap:round; stroke-width:0.25;"/>
<line x1="498.500000" y1="40.000000" x2="502.500000" y2="40.000000"  style="stroke:black; stroke-linecap:round; stroke-width:0.25;"/>
<line x1="502.500000" y1="40.000000" x2="512.500000" y2="40.000000"  style="stroke:black; stroke-linecap:round; stroke-width:0.25;"/>
</svg>
