<?xml version="1.0"?>
<svg xmlns="http://www.w3.org/2000/svg" xmlns:xlink="http://www.w3.org/1999/xlink" viewBox="0 0 685.600000 156.000000" width="342.800000mm" height="78.000000mm" version="1.1">
<rect x="1.000000" y="1.000000" width="684.600000" height="155.000000" rx="0" ry="0" style="stroke:none;fill:#cccccc;"/>
<rect x="0.000000" y="0.000000" width="684.600000" height="155.000000" rx="0" ry="0" style="stroke:none;fill:#ffffff;"/>
<text x="10.000000" y="7.000000" font-family="Arial" font-size="7"></text>
<a xlink:href="oscil-0x7f9f25eb28f0.svg">
<rect x="35.000000" y="67.000000" width="25.800000" height="24.000000" rx="0" ry="0" style="stroke:none;fill:#cccccc;"/>
<rect x="34.000000" y="66.000000" width="25.800000" height="24.000000" rx="0" ry="0" style="stroke:none;fill:#003366;"/>
</a>
<a xlink:href="oscil-0x7f9f25eb28f0.svg">
<text x="46.900000" y="80.000000" font-family="Arial" font-size="7" text-anchor="middle" fill="#FFFFFF">oscil</text>
</a>
<circle cx="36.000000" cy="68.000000" r="1"/>
<a xlink:href="NLFM-0x7f9f25f277d0.svg">
<rect x="100.800000" y="51.000000" width="38.700000" height="24.000000" rx="0" ry="0" style="stroke:none;fill:#cccccc;"/>
<rect x="99.800000" y="50.000000" width="38.700000" height="24.000000" rx="0" ry="0" style="stroke:none;fill:#003366;"/>
</a>
<a xlink:href="NLFM-0x7f9f25f277d0.svg">
<text x="119.150000" y="64.000000" font-family="Arial" font-size="7" text-anchor="middle" fill="#FFFFFF">NLFM(0)</text>
</a>
<circle cx="101.800000" cy="52.000000" r="1"/>
<line x1="96.800000" y1="61.000000" x2="99.800000" y2="62.000000"  transform="rotate(0.000000,99.800000,62.000000)" style="stroke: black; stroke-width:0.25;"/>
<line x1="96.800000" y1="63.000000" x2="99.800000" y2="62.000000"  transform="rotate(0.000000,99.800000,62.000000)" style="stroke: black; stroke-width:0.25;"/>
<a xlink:href="NLFM-0x7f9f252204d0.svg">
<rect x="147.500000" y="51.000000" width="38.700000" height="24.000000" rx="0" ry="0" style="stroke:none;fill:#cccccc;"/>
<rect x="146.500000" y="50.000000" width="38.700000" height="24.000000" rx="0" ry="0" style="stroke:none;fill:#003366;"/>
</a>
<a xlink:href="NLFM-0x7f9f252204d0.svg">
<text x="165.850000" y="64.000000" font-family="Arial" font-size="7" text-anchor="middle" fill="#FFFFFF">NLFM(1)</text>
</a>
<circle cx="148.500000" cy="52.000000" r="1"/>
<line x1="143.500000" y1="61.000000" x2="146.500000" y2="62.000000"  transform="rotate(0.000000,146.500000,62.000000)" style="stroke: black; stroke-width:0.25;"/>
<line x1="143.500000" y1="63.000000" x2="146.500000" y2="62.000000"  transform="rotate(0.000000,146.500000,62.000000)" style="stroke: black; stroke-width:0.25;"/>
<a xlink:href="NLFM-0x7f9f25f80600.svg">
<rect x="194.200000" y="51.000000" width="38.700000" height="24.000000" rx="0" ry="0" style="stroke:none;fill:#cccccc;"/>
<rect x="193.200000" y="50.000000" width="38.700000" height="24.000000" rx="0" ry="0" style="stroke:none;fill:#003366;"/>
</a>
<a xlink:href="NLFM-0x7f9f25f80600.svg">
<text x="212.550000" y="64.000000" font-family="Arial" font-size="7" text-anchor="middle" fill="#FFFFFF">NLFM(2)</text>
</a>
<circle cx="195.200000" cy="52.000000" r="1"/>
<line x1="190.200000" y1="61.000000" x2="193.200000" y2="62.000000"  transform="rotate(0.000000,193.200000,62.000000)" style="stroke: black; stroke-width:0.25;"/>
<line x1="190.200000" y1="63.000000" x2="193.200000" y2="62.000000"  transform="rotate(0.000000,193.200000,62.000000)" style="stroke: black; stroke-width:0.25;"/>
<a xlink:href="NLFM3-0x7f9f25ff1530.svg">
<rect x="153.950000" y="83.000000" width="25.800000" height="24.000000" rx="0" ry="0" style="stroke:none;fill:#cccccc;"/>
<rect x="152.950000" y="82.000000" width="25.800000" height="24.000000" rx="0" ry="0" style="stroke:none;fill:#003366;"/>
</a>
<a xlink:href="NLFM3-0x7f9f25ff1530.svg">
<text x="165.850000" y="96.000000" font-family="Arial" font-size="7" text-anchor="middle" fill="#FFFFFF">NLFM3</text>
</a>
<circle cx="154.950000" cy="84.000000" r="1"/>
<line x1="149.950000" y1="93.000000" x2="152.950000" y2="94.000000"  transform="rotate(0.000000,152.950000,94.000000)" style="stroke: black; stroke-width:0.25;"/>
<line x1="149.950000" y1="95.000000" x2="152.950000" y2="94.000000"  transform="rotate(0.000000,152.950000,94.000000)" style="stroke: black; stroke-width:0.25;"/>
<a xlink:href="lowpass-0x7f9f22ebe790.svg">
<rect x="280.900000" y="35.000000" width="77.400000" height="24.000000" rx="0" ry="0" style="stroke:none;fill:#cccccc;"/>
<rect x="279.900000" y="34.000000" width="77.400000" height="24.000000" rx="0" ry="0" style="stroke:none;fill:#003366;"/>
</a>
<a xlink:href="lowpass-0x7f9f22ebe790.svg">
<text x="318.600000" y="48.000000" font-family="Arial" font-size="7" text-anchor="middle" fill="#FFFFFF">lowpass(1)(2000)</text>
</a>
<circle cx="281.900000" cy="36.000000" r="1"/>
<line x1="276.900000" y1="45.000000" x2="279.900000" y2="46.000000"  transform="rotate(0.000000,279.900000,46.000000)" style="stroke: black; stroke-width:0.25;"/>
<line x1="276.900000" y1="47.000000" x2="279.900000" y2="46.000000"  transform="rotate(0.000000,279.900000,46.000000)" style="stroke: black; stroke-width:0.25;"/>
<rect x="307.600000" y="67.000000" width="24.000000" height="24.000000" rx="0" ry="0" style="stroke:none;fill:#cccccc;"/>
<rect x="306.600000" y="66.000000" width="24.000000" height="24.000000" rx="0" ry="0" style="stroke:none;fill:#f44800;"/>
<text x="318.600000" y="80.000000" font-family="Arial" font-size="7" text-anchor="middle" fill="#FFFFFF">0.6</text>
<circle cx="308.600000" cy="68.000000" r="1"/>
<rect x="374.300000" y="51.000000" width="24.000000" height="24.000000" rx="0" ry="0" style="stroke:none;fill:#cccccc;"/>
<rect x="373.300000" y="50.000000" width="24.000000" height="24.000000" rx="0" ry="0" style="stroke:none;fill:#4B71A1;"/>
<text x="385.300000" y="64.000000" font-family="Arial" font-size="7" text-anchor="middle" fill="#FFFFFF">*</text>
<circle cx="375.300000" cy="52.000000" r="1"/>
<line x1="370.300000" y1="57.000000" x2="373.300000" y2="58.000000"  transform="rotate(0.000000,373.300000,58.000000)" style="stroke: black; stroke-width:0.25;"/>
<line x1="370.300000" y1="59.000000" x2="373.300000" y2="58.000000"  transform="rotate(0.000000,373.300000,58.000000)" style="stroke: black; stroke-width:0.25;"/>
<line x1="370.300000" y1="65.000000" x2="373.300000" y2="66.000000"  transform="rotate(0.000000,373.300000,66.000000)" style="stroke: black; stroke-width:0.25;"/>
<line x1="370.300000" y1="67.000000" x2="373.300000" y2="66.000000"  transform="rotate(0.000000,373.300000,66.000000)" style="stroke: black; stroke-width:0.25;"/>
<a xlink:href="vol-0x7f9f22ebfe50.svg">
<rect x="327.600000" y="99.000000" width="24.000000" height="24.000000" rx="0" ry="0" style="stroke:none;fill:#cccccc;"/>
<rect x="326.600000" y="98.000000" width="24.000000" height="24.000000" rx="0" ry="0" style="stroke:none;fill:#003366;"/>
</a>
<a xlink:href="vol-0x7f9f22ebfe50.svg">
<text x="338.600000" y="112.000000" font-family="Arial" font-size="7" text-anchor="middle" fill="#FFFFFF">vol</text>
</a>
<circle cx="328.600000" cy="100.000000" r="1"/>
<rect x="414.300000" y="67.000000" width="24.000000" height="24.000000" rx="0" ry="0" style="stroke:none;fill:#cccccc;"/>
<rect x="413.300000" y="66.000000" width="24.000000" height="24.000000" rx="0" ry="0" style="stroke:none;fill:#4B71A1;"/>
<text x="425.300000" y="80.000000" font-family="Arial" font-size="7" text-anchor="middle" fill="#FFFFFF">*</text>
<circle cx="415.300000" cy="68.000000" r="1"/>
<line x1="410.300000" y1="73.000000" x2="413.300000" y2="74.000000"  transform="rotate(0.000000,413.300000,74.000000)" style="stroke: black; stroke-width:0.25;"/>
<line x1="410.300000" y1="75.000000" x2="413.300000" y2="74.000000"  transform="rotate(0.000000,413.300000,74.000000)" style="stroke: black; stroke-width:0.25;"/>
<line x1="410.300000" y1="81.000000" x2="413.300000" y2="82.000000"  transform="rotate(0.000000,413.300000,82.000000)" style="stroke: black; stroke-width:0.25;"/>
<line x1="410.300000" y1="83.000000" x2="413.300000" y2="82.000000"  transform="rotate(0.000000,413.300000,82.000000)" style="stroke: black; stroke-width:0.25;"/>
<a xlink:href="instrReverbMod-0x7f9f260b5a30.svg">
<rect x="490.300000" y="67.000000" width="64.500000" height="24.000000" rx="0" ry="0" style="stroke:none;fill:#cccccc;"/>
<rect x="489.300000" y="66.000000" width="64.500000" height="24.000000" rx="0" ry="0" style="stroke:none;fill:#003366;"/>
</a>
<a xlink:href="instrReverbMod-0x7f9f260b5a30.svg">
<text x="521.550000" y="80.000000" font-family="Arial" font-size="7" text-anchor="middle" fill="#FFFFFF">instrReverbMod</text>
</a>
<circle cx="491.300000" cy="68.000000" r="1"/>
<line x1="486.300000" y1="73.000000" x2="489.300000" y2="74.000000"  transform="rotate(0.000000,489.300000,74.000000)" style="stroke: black; stroke-width:0.25;"/>
<line x1="486.300000" y1="75.000000" x2="489.300000" y2="74.000000"  transform="rotate(0.000000,489.300000,74.000000)" style="stroke: black; stroke-width:0.25;"/>
<line x1="486.300000" y1="81.000000" x2="489.300000" y2="82.000000"  transform="rotate(0.000000,489.300000,82.000000)" style="stroke: black; stroke-width:0.25;"/>
<line x1="486.300000" y1="83.000000" x2="489.300000" y2="82.000000"  transform="rotate(0.000000,489.300000,82.000000)" style="stroke: black; stroke-width:0.25;"/>
<a xlink:href="vool-0x7f9f25eb0da0.svg">
<rect x="570.800000" y="51.000000" width="25.800000" height="24.000000" rx="0" ry="0" style="stroke:none;fill:#cccccc;"/>
<rect x="569.800000" y="50.000000" width="25.800000" height="24.000000" rx="0" ry="0" style="stroke:none;fill:#003366;"/>
</a>
<a xlink:href="vool-0x7f9f25eb0da0.svg">
<text x="582.700000" y="64.000000" font-family="Arial" font-size="7" text-anchor="middle" fill="#FFFFFF">vool</text>
</a>
<circle cx="571.800000" cy="52.000000" r="1"/>
<rect x="612.600000" y="47.000000" width="24.000000" height="24.000000" rx="0" ry="0" style="stroke:none;fill:#cccccc;"/>
<rect x="611.600000" y="46.000000" width="24.000000" height="24.000000" rx="0" ry="0" style="stroke:none;fill:#4B71A1;"/>
<text x="623.600000" y="60.000000" font-family="Arial" font-size="7" text-anchor="middle" fill="#FFFFFF">*</text>
<circle cx="613.600000" cy="48.000000" r="1"/>
<line x1="608.600000" y1="53.000000" x2="611.600000" y2="54.000000"  transform="rotate(0.000000,611.600000,54.000000)" style="stroke: black; stroke-width:0.25;"/>
<line x1="608.600000" y1="55.000000" x2="611.600000" y2="54.000000"  transform="rotate(0.000000,611.600000,54.000000)" style="stroke: black; stroke-width:0.25;"/>
<line x1="608.600000" y1="61.000000" x2="611.600000" y2="62.000000"  transform="rotate(0.000000,611.600000,62.000000)" style="stroke: black; stroke-width:0.25;"/>
<line x1="608.600000" y1="63.000000" x2="611.600000" y2="62.000000"  transform="rotate(0.000000,611.600000,62.000000)" style="stroke: black; stroke-width:0.25;"/>
<a xlink:href="vool-0x7f9f25eb0da0.svg">
<rect x="570.800000" y="91.000000" width="25.800000" height="24.000000" rx="0" ry="0" style="stroke:none;fill:#cccccc;"/>
<rect x="569.800000" y="90.000000" width="25.800000" height="24.000000" rx="0" ry="0" style="stroke:none;fill:#003366;"/>
</a>
<a xlink:href="vool-0x7f9f25eb0da0.svg">
<text x="582.700000" y="104.000000" font-family="Arial" font-size="7" text-anchor="middle" fill="#FFFFFF">vool</text>
</a>
<circle cx="571.800000" cy="92.000000" r="1"/>
<rect x="612.600000" y="87.000000" width="24.000000" height="24.000000" rx="0" ry="0" style="stroke:none;fill:#cccccc;"/>
<rect x="611.600000" y="86.000000" width="24.000000" height="24.000000" rx="0" ry="0" style="stroke:none;fill:#4B71A1;"/>
<text x="623.600000" y="100.000000" font-family="Arial" font-size="7" text-anchor="middle" fill="#FFFFFF">*</text>
<circle cx="613.600000" cy="88.000000" r="1"/>
<line x1="608.600000" y1="93.000000" x2="611.600000" y2="94.000000"  transform="rotate(0.000000,611.600000,94.000000)" style="stroke: black; stroke-width:0.25;"/>
<line x1="608.600000" y1="95.000000" x2="611.600000" y2="94.000000"  transform="rotate(0.000000,611.600000,94.000000)" style="stroke: black; stroke-width:0.25;"/>
<line x1="608.600000" y1="101.000000" x2="611.600000" y2="102.000000"  transform="rotate(0.000000,611.600000,102.000000)" style="stroke: black; stroke-width:0.25;"/>
<line x1="608.600000" y1="103.000000" x2="611.600000" y2="102.000000"  transform="rotate(0.000000,611.600000,102.000000)" style="stroke: black; stroke-width:0.25;"/>
<line x1="25.000000" y1="25.000000" x2="25.000000" y2="131.000000"  style="stroke: black; stroke-linecap:round; stroke-width:0.25; stroke-dasharray:3,3;"/>
<line x1="25.000000" y1="131.000000" x2="644.600000" y2="131.000000"  style="stroke: black; stroke-linecap:round; stroke-width:0.25; stroke-dasharray:3,3;"/>
<line x1="644.600000" y1="131.000000" x2="644.600000" y2="25.000000"  style="stroke: black; stroke-linecap:round; stroke-width:0.25; stroke-dasharray:3,3;"/>
<line x1="25.000000" y1="25.000000" x2="30.000000" y2="25.000000"  style="stroke: black; stroke-linecap:round; stroke-width:0.25; stroke-dasharray:3,3;"/>
<line x1="97.725000" y1="25.000000" x2="644.600000" y2="25.000000"  style="stroke: black; stroke-linecap:round; stroke-width:0.25; stroke-dasharray:3,3;"/>
<text x="30.000000" y="27.000000" font-family="Arial" font-size="7">vgroup(Modulations)</text>
<line x1="15.000000" y1="15.000000" x2="15.000000" y2="141.000000"  style="stroke: black; stroke-linecap:round; stroke-width:0.25; stroke-dasharray:3,3;"/>
<line x1="15.000000" y1="141.000000" x2="670.600000" y2="141.000000"  style="stroke: black; stroke-linecap:round; stroke-width:0.25; stroke-dasharray:3,3;"/>
<line x1="670.600000" y1="141.000000" x2="670.600000" y2="15.000000"  style="stroke: black; stroke-linecap:round; stroke-width:0.25; stroke-dasharray:3,3;"/>
<line x1="15.000000" y1="15.000000" x2="20.000000" y2="15.000000"  style="stroke: black; stroke-linecap:round; stroke-width:0.25; stroke-dasharray:3,3;"/>
<line x1="49.025000" y1="15.000000" x2="670.600000" y2="15.000000"  style="stroke: black; stroke-linecap:round; stroke-width:0.25; stroke-dasharray:3,3;"/>
<text x="20.000000" y="17.000000" font-family="Arial" font-size="7">process</text>
<line x1="672.600000" y1="73.000000" x2="675.600000" y2="74.000000"  transform="rotate(0.000000,675.600000,74.000000)" style="stroke: black; stroke-width:0.25;"/>
<line x1="672.600000" y1="75.000000" x2="675.600000" y2="74.000000"  transform="rotate(0.000000,675.600000,74.000000)" style="stroke: black; stroke-width:0.25;"/>
<line x1="672.600000" y1="81.000000" x2="675.600000" y2="82.000000"  transform="rotate(0.000000,675.600000,82.000000)" style="stroke: black; stroke-width:0.25;"/>
<line x1="672.600000" y1="83.000000" x2="675.600000" y2="82.000000"  transform="rotate(0.000000,675.600000,82.000000)" style="stroke: black; stroke-width:0.25;"/>
<line x1="59.800000" y1="78.000000" x2="63.800000" y2="78.000000"  style="stroke:black; stroke-linecap:round; stroke-width:0.25;"/>
<line x1="63.800000" y1="78.000000" x2="95.800000" y2="94.000000"  style="stroke:black; stroke-linecap:round; stroke-width:0.25;"/>
<line x1="63.800000" y1="78.000000" x2="95.800000" y2="62.000000"  style="stroke:black; stroke-linecap:round; stroke-width:0.25;"/>
<line x1="95.800000" y1="94.000000" x2="148.950000" y2="94.000000"  style="stroke:black; stroke-linecap:round; stroke-width:0.25;"/>
<line x1="95.800000" y1="62.000000" x2="99.800000" y2="62.000000"  style="stroke:black; stroke-linecap:round; stroke-width:0.25;"/>
<line x1="138.500000" y1="62.000000" x2="142.500000" y2="62.000000"  style="stroke:black; stroke-linecap:round; stroke-width:0.25;"/>
<line x1="142.500000" y1="62.000000" x2="142.500000" y2="62.000000"  style="stroke:black; stroke-linecap:round; stroke-width:0.25;"/>
<line x1="142.500000" y1="62.000000" x2="146.500000" y2="62.000000"  style="stroke:black; stroke-linecap:round; stroke-width:0.25;"/>
<line x1="148.950000" y1="94.000000" x2="152.950000" y2="94.000000"  style="stroke:black; stroke-linecap:round; stroke-width:0.25;"/>
<line x1="178.750000" y1="94.000000" x2="182.750000" y2="94.000000"  style="stroke:black; stroke-linecap:round; stroke-width:0.25;"/>
<line x1="182.750000" y1="94.000000" x2="235.900000" y2="94.000000"  style="stroke:black; stroke-linecap:round; stroke-width:0.25;"/>
<line x1="185.200000" y1="62.000000" x2="189.200000" y2="62.000000"  style="stroke:black; stroke-linecap:round; stroke-width:0.25;"/>
<line x1="189.200000" y1="62.000000" x2="189.200000" y2="62.000000"  style="stroke:black; stroke-linecap:round; stroke-width:0.25;"/>
<line x1="189.200000" y1="62.000000" x2="193.200000" y2="62.000000"  style="stroke:black; stroke-linecap:round; stroke-width:0.25;"/>
<line x1="231.900000" y1="62.000000" x2="235.900000" y2="62.000000"  style="stroke:black; stroke-linecap:round; stroke-width:0.25;"/>
<line x1="235.900000" y1="62.000000" x2="275.900000" y2="46.000000"  style="stroke:black; stroke-linecap:round; stroke-width:0.25;"/>
<line x1="235.900000" y1="94.000000" x2="275.900000" y2="46.000000"  style="stroke:black; stroke-linecap:round; stroke-width:0.25;"/>
<line x1="275.900000" y1="46.000000" x2="279.900000" y2="46.000000"  style="stroke:black; stroke-linecap:round; stroke-width:0.25;"/>
<line x1="330.600000" y1="78.000000" x2="334.600000" y2="78.000000"  style="stroke:black; stroke-linecap:round; stroke-width:0.25;"/>
<line x1="334.600000" y1="78.000000" x2="361.300000" y2="78.000000"  style="stroke:black; stroke-linecap:round; stroke-width:0.25;"/>
<line x1="350.600000" y1="110.000000" x2="354.600000" y2="110.000000"  style="stroke:black; stroke-linecap:round; stroke-width:0.25;"/>
<line x1="354.600000" y1="110.000000" x2="401.300000" y2="110.000000"  style="stroke:black; stroke-linecap:round; stroke-width:0.25;"/>
<line x1="357.300000" y1="46.000000" x2="361.300000" y2="46.000000"  style="stroke:black; stroke-linecap:round; stroke-width:0.25;"/>
<line x1="361.300000" y1="46.000000" x2="369.300000" y2="46.000000"  style="stroke:black; stroke-linecap:round; stroke-width:0.25;"/>
<line x1="361.300000" y1="66.000000" x2="369.300000" y2="66.000000"  style="stroke:black; stroke-linecap:round; stroke-width:0.25;"/>
<line x1="361.300000" y1="78.000000" x2="361.300000" y2="66.000000"  style="stroke:black; stroke-linecap:round; stroke-width:0.25;"/>
<line x1="361.300000" y1="78.000000" x2="361.300000" y2="78.000000"  style="stroke:black; stroke-linecap:round; stroke-width:0.25;"/>
<line x1="369.300000" y1="46.000000" x2="369.300000" y2="58.000000"  style="stroke:black; stroke-linecap:round; stroke-width:0.25;"/>
<line x1="369.300000" y1="58.000000" x2="369.300000" y2="58.000000"  style="stroke:black; stroke-linecap:round; stroke-width:0.25;"/>
<line x1="369.300000" y1="58.000000" x2="373.300000" y2="58.000000"  style="stroke:black; stroke-linecap:round; stroke-width:0.25;"/>
<line x1="369.300000" y1="66.000000" x2="373.300000" y2="66.000000"  style="stroke:black; stroke-linecap:round; stroke-width:0.25;"/>
<line x1="397.300000" y1="62.000000" x2="401.300000" y2="62.000000"  style="stroke:black; stroke-linecap:round; stroke-width:0.25;"/>
<line x1="401.300000" y1="62.000000" x2="409.300000" y2="62.000000"  style="stroke:black; stroke-linecap:round; stroke-width:0.25;"/>
<line x1="401.300000" y1="82.000000" x2="409.300000" y2="82.000000"  style="stroke:black; stroke-linecap:round; stroke-width:0.25;"/>
<line x1="401.300000" y1="110.000000" x2="401.300000" y2="82.000000"  style="stroke:black; stroke-linecap:round; stroke-width:0.25;"/>
<line x1="401.300000" y1="110.000000" x2="401.300000" y2="110.000000"  style="stroke:black; stroke-linecap:round; stroke-width:0.25;"/>
<line x1="409.300000" y1="62.000000" x2="409.300000" y2="74.000000"  style="stroke:black; stroke-linecap:round; stroke-width:0.25;"/>
<line x1="409.300000" y1="74.000000" x2="409.300000" y2="74.000000"  style="stroke:black; stroke-linecap:round; stroke-width:0.25;"/>
<line x1="409.300000" y1="74.000000" x2="413.300000" y2="74.000000"  style="stroke:black; stroke-linecap:round; stroke-width:0.25;"/>
<line x1="409.300000" y1="82.000000" x2="413.300000" y2="82.000000"  style="stroke:black; stroke-linecap:round; stroke-width:0.25;"/>
<line x1="437.300000" y1="78.000000" x2="441.300000" y2="78.000000"  style="stroke:black; stroke-linecap:round; stroke-width:0.25;"/>
<line x1="441.300000" y1="78.000000" x2="485.300000" y2="74.000000"  style="stroke:black; stroke-linecap:round; stroke-width:0.25;"/>
<line x1="441.300000" y1="78.000000" x2="485.300000" y2="82.000000"  style="stroke:black; stroke-linecap:round; stroke-width:0.25;"/>
<line x1="485.300000" y1="74.000000" x2="489.300000" y2="74.000000"  style="stroke:black; stroke-linecap:round; stroke-width:0.25;"/>
<line x1="485.300000" y1="82.000000" x2="489.300000" y2="82.000000"  style="stroke:black; stroke-linecap:round; stroke-width:0.25;"/>
<line x1="553.800000" y1="74.000000" x2="557.800000" y2="74.000000"  style="stroke:black; stroke-linecap:round; stroke-width:0.25;"/>
<line x1="553.800000" y1="82.000000" x2="557.800000" y2="82.000000"  style="stroke:black; stroke-linecap:round; stroke-width:0.25;"/>
<line x1="557.800000" y1="42.000000" x2="565.800000" y2="42.000000"  style="stroke:black; stroke-linecap:round; stroke-width:0.25;"/>
<line x1="557.800000" y1="74.000000" x2="557.800000" y2="42.000000"  style="stroke:black; stroke-linecap:round; stroke-width:0.25;"/>
<line x1="557.800000" y1="74.000000" x2="557.800000" y2="74.000000"  style="stroke:black; stroke-linecap:round; stroke-width:0.25;"/>
<line x1="557.800000" y1="82.000000" x2="565.800000" y2="82.000000"  style="stroke:black; stroke-linecap:round; stroke-width:0.25;"/>
<line x1="565.800000" y1="42.000000" x2="582.700000" y2="42.000000"  style="stroke:black; stroke-linecap:round; stroke-width:0.25;"/>
<line x1="565.800000" y1="82.000000" x2="582.700000" y2="82.000000"  style="stroke:black; stroke-linecap:round; stroke-width:0.25;"/>
<line x1="582.700000" y1="42.000000" x2="599.600000" y2="42.000000"  style="stroke:black; stroke-linecap:round; stroke-width:0.25;"/>
<line x1="582.700000" y1="82.000000" x2="599.600000" y2="82.000000"  style="stroke:black; stroke-linecap:round; stroke-width:0.25;"/>
<line x1="595.600000" y1="62.000000" x2="599.600000" y2="62.000000"  style="stroke:black; stroke-linecap:round; stroke-width:0.25;"/>
<line x1="595.600000" y1="102.000000" x2="599.600000" y2="102.000000"  style="stroke:black; stroke-linecap:round; stroke-width:0.25;"/>
<line x1="599.600000" y1="42.000000" x2="607.600000" y2="42.000000"  style="stroke:black; stroke-linecap:round; stroke-width:0.25;"/>
<line x1="599.600000" y1="62.000000" x2="607.600000" y2="62.000000"  style="stroke:black; stroke-linecap:round; stroke-width:0.25;"/>
<line x1="599.600000" y1="82.000000" x2="607.600000" y2="82.000000"  style="stroke:black; stroke-linecap:round; stroke-width:0.25;"/>
<line x1="599.600000" y1="102.000000" x2="607.600000" y2="102.000000"  style="stroke:black; stroke-linecap:round; stroke-width:0.25;"/>
<line x1="607.600000" y1="42.000000" x2="607.600000" y2="54.000000"  style="stroke:black; stroke-linecap:round; stroke-width:0.25;"/>
<line x1="607.600000" y1="54.000000" x2="607.600000" y2="54.000000"  style="stroke:black; stroke-linecap:round; stroke-width:0.25;"/>
<line x1="607.600000" y1="54.000000" x2="611.600000" y2="54.000000"  style="stroke:black; stroke-linecap:round; stroke-width:0.25;"/>
<line x1="607.600000" y1="62.000000" x2="611.600000" y2="62.000000"  style="stroke:black; stroke-linecap:round; stroke-width:0.25;"/>
<line x1="607.600000" y1="82.000000" x2="607.600000" y2="94.000000"  style="stroke:black; stroke-linecap:round; stroke-width:0.25;"/>
<line x1="607.600000" y1="94.000000" x2="607.600000" y2="94.000000"  style="stroke:black; stroke-linecap:round; stroke-width:0.25;"/>
<line x1="607.600000" y1="94.000000" x2="611.600000" y2="94.000000"  style="stroke:black; stroke-linecap:round; stroke-width:0.25;"/>
<line x1="607.600000" y1="102.000000" x2="611.600000" y2="102.000000"  style="stroke:black; stroke-linecap:round; stroke-width:0.25;"/>
<line x1="635.600000" y1="58.000000" x2="639.600000" y2="58.000000"  style="stroke:black; stroke-linecap:round; stroke-width:0.25;"/>
<line x1="635.600000" y1="98.000000" x2="639.600000" y2="98.000000"  style="stroke:black; stroke-linecap:round; stroke-width:0.25;"/>
<line x1="639.600000" y1="58.000000" x2="649.600000" y2="58.000000"  style="stroke:black; stroke-linecap:round; stroke-width:0.25;"/>
<line x1="639.600000" y1="98.000000" x2="649.600000" y2="98.000000"  style="stroke:black; stroke-linecap:round; stroke-width:0.25;"/>
<line x1="649.600000" y1="58.000000" x2="657.600000" y2="58.000000"  style="stroke:black; stroke-linecap:round; stroke-width:0.25;"/>
<line x1="649.600000" y1="82.000000" x2="657.600000" y2="82.000000"  style="stroke:black; stroke-linecap:round; stroke-width:0.25;"/>
<line x1="649.600000" y1="98.000000" x2="649.600000" y2="82.000000"  style="stroke:black; stroke-linecap:round; stroke-width:0.25;"/>
<line x1="649.600000" y1="98.000000" x2="649.600000" y2="98.000000"  style="stroke:black; stroke-linecap:round; stroke-width:0.25;"/>
<line x1="657.600000" y1="58.000000" x2="657.600000" y2="74.000000"  style="stroke:black; stroke-linecap:round; stroke-width:0.25;"/>
<line x1="657.600000" y1="74.000000" x2="657.600000" y2="74.000000"  style="stroke:black; stroke-linecap:round; stroke-width:0.25;"/>
<line x1="657.600000" y1="74.000000" x2="661.600000" y2="74.000000"  style="stroke:black; stroke-linecap:round; stroke-width:0.25;"/>
<line x1="657.600000" y1="82.000000" x2="661.600000" y2="82.000000"  style="stroke:black; stroke-linecap:round; stroke-width:0.25;"/>
<line x1="661.600000" y1="74.000000" x2="665.600000" y2="74.000000"  style="stroke:black; stroke-linecap:round; stroke-width:0.25;"/>
<line x1="661.600000" y1="82.000000" x2="665.600000" y2="82.000000"  style="stroke:black; stroke-linecap:round; stroke-width:0.25;"/>
<line x1="665.600000" y1="74.000000" x2="675.600000" y2="74.000000"  style="stroke:black; stroke-linecap:round; stroke-width:0.25;"/>
<line x1="665.600000" y1="82.000000" x2="675.600000" y2="82.000000"  style="stroke:black; stroke-linecap:round; stroke-width:0.25;"/>
</svg>
