<?xml version="1.0"?>
<svg xmlns="http://www.w3.org/2000/svg" xmlns:xlink="http://www.w3.org/1999/xlink" viewBox="0 0 481.100000 240.000000" width="240.550000mm" height="120.000000mm" version="1.1">
<a xlink:href="tsig-0x7ffc4d063810.svg">
<rect x="1.000000" y="1.000000" width="480.100000" height="239.000000" rx="0" ry="0" style="stroke:none;fill:#cccccc;"/>
<rect x="0.000000" y="0.000000" width="480.100000" height="239.000000" rx="0" ry="0" style="stroke:none;fill:#ffffff;"/>
</a>
<text x="10.000000" y="7.000000" font-family="Arial" font-size="7"></text>
<rect x="35.000000" y="35.000000" width="245.100000" height="24.000000" rx="0" ry="0" style="stroke:none;fill:#cccccc;"/>
<rect x="34.000000" y="34.000000" width="245.100000" height="24.000000" rx="0" ry="0" style="stroke:none;fill:#477881;"/>
<text x="156.550000" y="48.000000" font-family="Arial" font-size="7" text-anchor="middle" fill="#FFFFFF">hslider(Modulation Intensity, 0.1f, 0.0f, 1.0f, 0.001f)</text>
<circle cx="36.000000" cy="36.000000" r="1"/>
<line x1="25.000000" y1="25.000000" x2="25.000000" y2="67.000000"  style="stroke: black; stroke-linecap:round; stroke-width:0.25; stroke-dasharray:3,3;"/>
<line x1="25.000000" y1="67.000000" x2="288.100000" y2="67.000000"  style="stroke: black; stroke-linecap:round; stroke-width:0.25; stroke-dasharray:3,3;"/>
<line x1="288.100000" y1="67.000000" x2="288.100000" y2="25.000000"  style="stroke: black; stroke-linecap:round; stroke-width:0.25; stroke-dasharray:3,3;"/>
<line x1="25.000000" y1="25.000000" x2="30.000000" y2="25.000000"  style="stroke: black; stroke-linecap:round; stroke-width:0.25; stroke-dasharray:3,3;"/>
<line x1="75.150000" y1="25.000000" x2="288.100000" y2="25.000000"  style="stroke: black; stroke-linecap:round; stroke-width:0.25; stroke-dasharray:3,3;"/>
<text x="30.000000" y="27.000000" font-family="Arial" font-size="7">nonlinearity</text>
<rect x="138.200000" y="87.000000" width="38.700000" height="24.000000" rx="0" ry="0" style="stroke:none;fill:#cccccc;"/>
<rect x="137.200000" y="86.000000" width="38.700000" height="24.000000" rx="0" ry="0" style="stroke:none;fill:#f44800;"/>
<text x="156.550000" y="100.000000" font-family="Arial" font-size="7" text-anchor="middle" fill="#FFFFFF">3.14159</text>
<circle cx="139.200000" cy="88.000000" r="1"/>
<line x1="128.200000" y1="77.000000" x2="128.200000" y2="119.000000"  style="stroke: black; stroke-linecap:round; stroke-width:0.25; stroke-dasharray:3,3;"/>
<line x1="128.200000" y1="119.000000" x2="184.900000" y2="119.000000"  style="stroke: black; stroke-linecap:round; stroke-width:0.25; stroke-dasharray:3,3;"/>
<line x1="184.900000" y1="119.000000" x2="184.900000" y2="77.000000"  style="stroke: black; stroke-linecap:round; stroke-width:0.25; stroke-dasharray:3,3;"/>
<line x1="128.200000" y1="77.000000" x2="133.200000" y2="77.000000"  style="stroke: black; stroke-linecap:round; stroke-width:0.25; stroke-dasharray:3,3;"/>
<line x1="146.100000" y1="77.000000" x2="184.900000" y2="77.000000"  style="stroke: black; stroke-linecap:round; stroke-width:0.25; stroke-dasharray:3,3;"/>
<text x="133.200000" y="79.000000" font-family="Arial" font-size="7">PI</text>
<rect x="306.100000" y="61.000000" width="24.000000" height="24.000000" rx="0" ry="0" style="stroke:none;fill:#cccccc;"/>
<rect x="305.100000" y="60.000000" width="24.000000" height="24.000000" rx="0" ry="0" style="stroke:none;fill:#4B71A1;"/>
<text x="317.100000" y="74.000000" font-family="Arial" font-size="7" text-anchor="middle" fill="#FFFFFF">*</text>
<circle cx="307.100000" cy="62.000000" r="1"/>
<line x1="302.100000" y1="67.000000" x2="305.100000" y2="68.000000"  transform="rotate(0.000000,305.100000,68.000000)" style="stroke: black; stroke-width:0.25;"/>
<line x1="302.100000" y1="69.000000" x2="305.100000" y2="68.000000"  transform="rotate(0.000000,305.100000,68.000000)" style="stroke: black; stroke-width:0.25;"/>
<line x1="302.100000" y1="75.000000" x2="305.100000" y2="76.000000"  transform="rotate(0.000000,305.100000,76.000000)" style="stroke: black; stroke-width:0.25;"/>
<line x1="302.100000" y1="77.000000" x2="305.100000" y2="76.000000"  transform="rotate(0.000000,305.100000,76.000000)" style="stroke: black; stroke-width:0.25;"/>
<rect x="165.550000" y="129.000000" width="24.000000" height="24.000000" rx="0" ry="0" style="stroke:none;fill:#cccccc;"/>
<rect x="164.550000" y="128.000000" width="24.000000" height="24.000000" rx="0" ry="0" style="stroke:none;fill:#47945E;"/>
<text x="176.550000" y="142.000000" font-family="Arial" font-size="7" text-anchor="middle" fill="#FFFFFF">x</text>
<circle cx="166.550000" cy="130.000000" r="1"/>
<rect x="346.100000" y="77.000000" width="24.000000" height="24.000000" rx="0" ry="0" style="stroke:none;fill:#cccccc;"/>
<rect x="345.100000" y="76.000000" width="24.000000" height="24.000000" rx="0" ry="0" style="stroke:none;fill:#4B71A1;"/>
<text x="357.100000" y="90.000000" font-family="Arial" font-size="7" text-anchor="middle" fill="#FFFFFF">*</text>
<circle cx="347.100000" cy="78.000000" r="1"/>
<line x1="342.100000" y1="83.000000" x2="345.100000" y2="84.000000"  transform="rotate(0.000000,345.100000,84.000000)" style="stroke: black; stroke-width:0.25;"/>
<line x1="342.100000" y1="85.000000" x2="345.100000" y2="84.000000"  transform="rotate(0.000000,345.100000,84.000000)" style="stroke: black; stroke-width:0.25;"/>
<line x1="342.100000" y1="91.000000" x2="345.100000" y2="92.000000"  transform="rotate(0.000000,345.100000,92.000000)" style="stroke: black; stroke-width:0.25;"/>
<line x1="342.100000" y1="93.000000" x2="345.100000" y2="92.000000"  transform="rotate(0.000000,345.100000,92.000000)" style="stroke: black; stroke-width:0.25;"/>
<rect x="185.550000" y="161.000000" width="24.000000" height="24.000000" rx="0" ry="0" style="stroke:none;fill:#cccccc;"/>
<rect x="184.550000" y="160.000000" width="24.000000" height="24.000000" rx="0" ry="0" style="stroke:none;fill:#47945E;"/>
<text x="196.550000" y="174.000000" font-family="Arial" font-size="7" text-anchor="middle" fill="#FFFFFF">x</text>
<circle cx="186.550000" cy="162.000000" r="1"/>
<rect x="386.100000" y="93.000000" width="24.000000" height="24.000000" rx="0" ry="0" style="stroke:none;fill:#cccccc;"/>
<rect x="385.100000" y="92.000000" width="24.000000" height="24.000000" rx="0" ry="0" style="stroke:none;fill:#4B71A1;"/>
<text x="397.100000" y="106.000000" font-family="Arial" font-size="7" text-anchor="middle" fill="#FFFFFF">*</text>
<circle cx="387.100000" cy="94.000000" r="1"/>
<line x1="382.100000" y1="99.000000" x2="385.100000" y2="100.000000"  transform="rotate(0.000000,385.100000,100.000000)" style="stroke: black; stroke-width:0.25;"/>
<line x1="382.100000" y1="101.000000" x2="385.100000" y2="100.000000"  transform="rotate(0.000000,385.100000,100.000000)" style="stroke: black; stroke-width:0.25;"/>
<line x1="382.100000" y1="107.000000" x2="385.100000" y2="108.000000"  transform="rotate(0.000000,385.100000,108.000000)" style="stroke: black; stroke-width:0.25;"/>
<line x1="382.100000" y1="109.000000" x2="385.100000" y2="108.000000"  transform="rotate(0.000000,385.100000,108.000000)" style="stroke: black; stroke-width:0.25;"/>
<a xlink:href="env-0x7ffc4d014bb0.svg">
<rect x="205.550000" y="193.000000" width="24.000000" height="24.000000" rx="0" ry="0" style="stroke:none;fill:#cccccc;"/>
<rect x="204.550000" y="192.000000" width="24.000000" height="24.000000" rx="0" ry="0" style="stroke:none;fill:#003366;"/>
</a>
<a xlink:href="env-0x7ffc4d014bb0.svg">
<text x="216.550000" y="206.000000" font-family="Arial" font-size="7" text-anchor="middle" fill="#FFFFFF">env</text>
</a>
<circle cx="206.550000" cy="194.000000" r="1"/>
<rect x="426.100000" y="109.000000" width="24.000000" height="24.000000" rx="0" ry="0" style="stroke:none;fill:#cccccc;"/>
<rect x="425.100000" y="108.000000" width="24.000000" height="24.000000" rx="0" ry="0" style="stroke:none;fill:#4B71A1;"/>
<text x="437.100000" y="122.000000" font-family="Arial" font-size="7" text-anchor="middle" fill="#FFFFFF">*</text>
<circle cx="427.100000" cy="110.000000" r="1"/>
<line x1="422.100000" y1="115.000000" x2="425.100000" y2="116.000000"  transform="rotate(0.000000,425.100000,116.000000)" style="stroke: black; stroke-width:0.25;"/>
<line x1="422.100000" y1="117.000000" x2="425.100000" y2="116.000000"  transform="rotate(0.000000,425.100000,116.000000)" style="stroke: black; stroke-width:0.25;"/>
<line x1="422.100000" y1="123.000000" x2="425.100000" y2="124.000000"  transform="rotate(0.000000,425.100000,124.000000)" style="stroke: black; stroke-width:0.25;"/>
<line x1="422.100000" y1="125.000000" x2="425.100000" y2="124.000000"  transform="rotate(0.000000,425.100000,124.000000)" style="stroke: black; stroke-width:0.25;"/>
<line x1="15.000000" y1="15.000000" x2="15.000000" y2="225.000000"  style="stroke: black; stroke-linecap:round; stroke-width:0.25; stroke-dasharray:3,3;"/>
<line x1="15.000000" y1="225.000000" x2="466.100000" y2="225.000000"  style="stroke: black; stroke-linecap:round; stroke-width:0.25; stroke-dasharray:3,3;"/>
<line x1="466.100000" y1="225.000000" x2="466.100000" y2="15.000000"  style="stroke: black; stroke-linecap:round; stroke-width:0.25; stroke-dasharray:3,3;"/>
<line x1="15.000000" y1="15.000000" x2="20.000000" y2="15.000000"  style="stroke: black; stroke-linecap:round; stroke-width:0.25; stroke-dasharray:3,3;"/>
<line x1="74.825000" y1="15.000000" x2="466.100000" y2="15.000000"  style="stroke: black; stroke-linecap:round; stroke-width:0.25; stroke-dasharray:3,3;"/>
<text x="20.000000" y="17.000000" font-family="Arial" font-size="7">tsigsquared(x7)</text>
<line x1="468.100000" y1="119.000000" x2="471.100000" y2="120.000000"  transform="rotate(0.000000,471.100000,120.000000)" style="stroke: black; stroke-width:0.25;"/>
<line x1="468.100000" y1="121.000000" x2="471.100000" y2="120.000000"  transform="rotate(0.000000,471.100000,120.000000)" style="stroke: black; stroke-width:0.25;"/>
<line x1="175.900000" y1="98.000000" x2="179.900000" y2="98.000000"  style="stroke:black; stroke-linecap:round; stroke-width:0.25;"/>
<line x1="179.900000" y1="98.000000" x2="189.900000" y2="98.000000"  style="stroke:black; stroke-linecap:round; stroke-width:0.25;"/>
<line x1="188.550000" y1="140.000000" x2="192.550000" y2="140.000000"  style="stroke:black; stroke-linecap:round; stroke-width:0.25;"/>
<line x1="189.900000" y1="98.000000" x2="293.100000" y2="98.000000"  style="stroke:black; stroke-linecap:round; stroke-width:0.25;"/>
<line x1="192.550000" y1="140.000000" x2="333.100000" y2="140.000000"  style="stroke:black; stroke-linecap:round; stroke-width:0.25;"/>
<line x1="208.550000" y1="172.000000" x2="212.550000" y2="172.000000"  style="stroke:black; stroke-linecap:round; stroke-width:0.25;"/>
<line x1="212.550000" y1="172.000000" x2="373.100000" y2="172.000000"  style="stroke:black; stroke-linecap:round; stroke-width:0.25;"/>
<line x1="228.550000" y1="204.000000" x2="232.550000" y2="204.000000"  style="stroke:black; stroke-linecap:round; stroke-width:0.25;"/>
<line x1="232.550000" y1="204.000000" x2="413.100000" y2="204.000000"  style="stroke:black; stroke-linecap:round; stroke-width:0.25;"/>
<line x1="279.100000" y1="46.000000" x2="283.100000" y2="46.000000"  style="stroke:black; stroke-linecap:round; stroke-width:0.25;"/>
<line x1="283.100000" y1="46.000000" x2="293.100000" y2="46.000000"  style="stroke:black; stroke-linecap:round; stroke-width:0.25;"/>
<line x1="293.100000" y1="46.000000" x2="301.100000" y2="46.000000"  style="stroke:black; stroke-linecap:round; stroke-width:0.25;"/>
<line x1="293.100000" y1="76.000000" x2="301.100000" y2="76.000000"  style="stroke:black; stroke-linecap:round; stroke-width:0.25;"/>
<line x1="293.100000" y1="98.000000" x2="293.100000" y2="76.000000"  style="stroke:black; stroke-linecap:round; stroke-width:0.25;"/>
<line x1="293.100000" y1="98.000000" x2="293.100000" y2="98.000000"  style="stroke:black; stroke-linecap:round; stroke-width:0.25;"/>
<line x1="301.100000" y1="46.000000" x2="301.100000" y2="68.000000"  style="stroke:black; stroke-linecap:round; stroke-width:0.25;"/>
<line x1="301.100000" y1="68.000000" x2="301.100000" y2="68.000000"  style="stroke:black; stroke-linecap:round; stroke-width:0.25;"/>
<line x1="301.100000" y1="68.000000" x2="305.100000" y2="68.000000"  style="stroke:black; stroke-linecap:round; stroke-width:0.25;"/>
<line x1="301.100000" y1="76.000000" x2="305.100000" y2="76.000000"  style="stroke:black; stroke-linecap:round; stroke-width:0.25;"/>
<line x1="329.100000" y1="72.000000" x2="333.100000" y2="72.000000"  style="stroke:black; stroke-linecap:round; stroke-width:0.25;"/>
<line x1="333.100000" y1="72.000000" x2="341.100000" y2="72.000000"  style="stroke:black; stroke-linecap:round; stroke-width:0.25;"/>
<line x1="333.100000" y1="92.000000" x2="341.100000" y2="92.000000"  style="stroke:black; stroke-linecap:round; stroke-width:0.25;"/>
<line x1="333.100000" y1="140.000000" x2="333.100000" y2="92.000000"  style="stroke:black; stroke-linecap:round; stroke-width:0.25;"/>
<line x1="333.100000" y1="140.000000" x2="333.100000" y2="140.000000"  style="stroke:black; stroke-linecap:round; stroke-width:0.25;"/>
<line x1="341.100000" y1="72.000000" x2="341.100000" y2="84.000000"  style="stroke:black; stroke-linecap:round; stroke-width:0.25;"/>
<line x1="341.100000" y1="84.000000" x2="341.100000" y2="84.000000"  style="stroke:black; stroke-linecap:round; stroke-width:0.25;"/>
<line x1="341.100000" y1="84.000000" x2="345.100000" y2="84.000000"  style="stroke:black; stroke-linecap:round; stroke-width:0.25;"/>
<line x1="341.100000" y1="92.000000" x2="345.100000" y2="92.000000"  style="stroke:black; stroke-linecap:round; stroke-width:0.25;"/>
<line x1="369.100000" y1="88.000000" x2="373.100000" y2="88.000000"  style="stroke:black; stroke-linecap:round; stroke-width:0.25;"/>
<line x1="373.100000" y1="88.000000" x2="381.100000" y2="88.000000"  style="stroke:black; stroke-linecap:round; stroke-width:0.25;"/>
<line x1="373.100000" y1="108.000000" x2="381.100000" y2="108.000000"  style="stroke:black; stroke-linecap:round; stroke-width:0.25;"/>
<line x1="373.100000" y1="172.000000" x2="373.100000" y2="108.000000"  style="stroke:black; stroke-linecap:round; stroke-width:0.25;"/>
<line x1="373.100000" y1="172.000000" x2="373.100000" y2="172.000000"  style="stroke:black; stroke-linecap:round; stroke-width:0.25;"/>
<line x1="381.100000" y1="88.000000" x2="381.100000" y2="100.000000"  style="stroke:black; stroke-linecap:round; stroke-width:0.25;"/>
<line x1="381.100000" y1="100.000000" x2="381.100000" y2="100.000000"  style="stroke:black; stroke-linecap:round; stroke-width:0.25;"/>
<line x1="381.100000" y1="100.000000" x2="385.100000" y2="100.000000"  style="stroke:black; stroke-linecap:round; stroke-width:0.25;"/>
<line x1="381.100000" y1="108.000000" x2="385.100000" y2="108.000000"  style="stroke:black; stroke-linecap:round; stroke-width:0.25;"/>
<line x1="409.100000" y1="104.000000" x2="413.100000" y2="104.000000"  style="stroke:black; stroke-linecap:round; stroke-width:0.25;"/>
<line x1="413.100000" y1="104.000000" x2="421.100000" y2="104.000000"  style="stroke:black; stroke-linecap:round; stroke-width:0.25;"/>
<line x1="413.100000" y1="124.000000" x2="421.100000" y2="124.000000"  style="stroke:black; stroke-linecap:round; stroke-width:0.25;"/>
<line x1="413.100000" y1="204.000000" x2="413.100000" y2="124.000000"  style="stroke:black; stroke-linecap:round; stroke-width:0.25;"/>
<line x1="413.100000" y1="204.000000" x2="413.100000" y2="204.000000"  style="stroke:black; stroke-linecap:round; stroke-width:0.25;"/>
<line x1="421.100000" y1="104.000000" x2="421.100000" y2="116.000000"  style="stroke:black; stroke-linecap:round; stroke-width:0.25;"/>
<line x1="421.100000" y1="116.000000" x2="421.100000" y2="116.000000"  style="stroke:black; stroke-linecap:round; stroke-width:0.25;"/>
<line x1="421.100000" y1="116.000000" x2="425.100000" y2="116.000000"  style="stroke:black; stroke-linecap:round; stroke-width:0.25;"/>
<line x1="421.100000" y1="124.000000" x2="425.100000" y2="124.000000"  style="stroke:black; stroke-linecap:round; stroke-width:0.25;"/>
<line x1="449.100000" y1="120.000000" x2="453.100000" y2="120.000000"  style="stroke:black; stroke-linecap:round; stroke-width:0.25;"/>
<line x1="453.100000" y1="120.000000" x2="453.100000" y2="120.000000"  style="stroke:black; stroke-linecap:round; stroke-width:0.25;"/>
<line x1="453.100000" y1="120.000000" x2="457.100000" y2="120.000000"  style="stroke:black; stroke-linecap:round; stroke-width:0.25;"/>
<line x1="457.100000" y1="120.000000" x2="461.100000" y2="120.000000"  style="stroke:black; stroke-linecap:round; stroke-width:0.25;"/>
<line x1="461.100000" y1="120.000000" x2="471.100000" y2="120.000000"  style="stroke:black; stroke-linecap:round; stroke-width:0.25;"/>
</svg>
