<?xml version="1.0"?>
<svg xmlns="http://www.w3.org/2000/svg" xmlns:xlink="http://www.w3.org/1999/xlink" viewBox="0 0 442.400000 408.000000" width="221.200000mm" height="204.000000mm" version="1.1">
<a xlink:href="c-0x7ffc4d064c50.svg">
<rect x="1.000000" y="1.000000" width="441.400000" height="407.000000" rx="0" ry="0" style="stroke:none;fill:#cccccc;"/>
<rect x="0.000000" y="0.000000" width="441.400000" height="407.000000" rx="0" ry="0" style="stroke:none;fill:#ffffff;"/>
</a>
<text x="10.000000" y="7.000000" font-family="Arial" font-size="7"></text>
<a xlink:href="tsignorm-0x7ffc4d0628d0.svg">
<rect x="132.400000" y="25.000000" width="51.600000" height="24.000000" rx="0" ry="0" style="stroke:none;fill:#cccccc;"/>
<rect x="131.400000" y="24.000000" width="51.600000" height="24.000000" rx="0" ry="0" style="stroke:none;fill:#003366;"/>
</a>
<a xlink:href="tsignorm-0x7ffc4d0628d0.svg">
<text x="157.200000" y="38.000000" font-family="Arial" font-size="7" text-anchor="middle" fill="#FFFFFF">tsignorm(x7)</text>
</a>
<circle cx="133.400000" cy="26.000000" r="1"/>
<rect x="35.000000" y="67.000000" width="206.400000" height="24.000000" rx="0" ry="0" style="stroke:none;fill:#cccccc;"/>
<rect x="34.000000" y="66.000000" width="206.400000" height="24.000000" rx="0" ry="0" style="stroke:none;fill:#477881;"/>
<text x="137.200000" y="80.000000" font-family="Arial" font-size="7" text-anchor="middle" fill="#FFFFFF">hslider(Modulation Type, 0.0f, 0.0f, 4.0f, 1.0f)</text>
<circle cx="36.000000" cy="68.000000" r="1"/>
<line x1="25.000000" y1="57.000000" x2="25.000000" y2="99.000000"  style="stroke: black; stroke-linecap:round; stroke-width:0.25; stroke-dasharray:3,3;"/>
<line x1="25.000000" y1="99.000000" x2="249.400000" y2="99.000000"  style="stroke: black; stroke-linecap:round; stroke-width:0.25; stroke-dasharray:3,3;"/>
<line x1="249.400000" y1="99.000000" x2="249.400000" y2="57.000000"  style="stroke: black; stroke-linecap:round; stroke-width:0.25; stroke-dasharray:3,3;"/>
<line x1="25.000000" y1="57.000000" x2="30.000000" y2="57.000000"  style="stroke: black; stroke-linecap:round; stroke-width:0.25; stroke-dasharray:3,3;"/>
<line x1="59.025000" y1="57.000000" x2="249.400000" y2="57.000000"  style="stroke: black; stroke-linecap:round; stroke-width:0.25; stroke-dasharray:3,3;"/>
<text x="30.000000" y="59.000000" font-family="Arial" font-size="7">typeMod</text>
<rect x="126.200000" y="109.000000" width="24.000000" height="24.000000" rx="0" ry="0" style="stroke:none;fill:#cccccc;"/>
<rect x="125.200000" y="108.000000" width="24.000000" height="24.000000" rx="0" ry="0" style="stroke:none;fill:#f44800;"/>
<text x="137.200000" y="122.000000" font-family="Arial" font-size="7" text-anchor="middle" fill="#FFFFFF">0</text>
<circle cx="127.200000" cy="110.000000" r="1"/>
<rect x="267.400000" y="83.000000" width="24.000000" height="24.000000" rx="0" ry="0" style="stroke:none;fill:#cccccc;"/>
<rect x="266.400000" y="82.000000" width="24.000000" height="24.000000" rx="0" ry="0" style="stroke:none;fill:#4B71A1;"/>
<text x="278.400000" y="96.000000" font-family="Arial" font-size="7" text-anchor="middle" fill="#FFFFFF">==</text>
<circle cx="268.400000" cy="84.000000" r="1"/>
<line x1="263.400000" y1="89.000000" x2="266.400000" y2="90.000000"  transform="rotate(0.000000,266.400000,90.000000)" style="stroke: black; stroke-width:0.25;"/>
<line x1="263.400000" y1="91.000000" x2="266.400000" y2="90.000000"  transform="rotate(0.000000,266.400000,90.000000)" style="stroke: black; stroke-width:0.25;"/>
<line x1="263.400000" y1="97.000000" x2="266.400000" y2="98.000000"  transform="rotate(0.000000,266.400000,98.000000)" style="stroke: black; stroke-width:0.25;"/>
<line x1="263.400000" y1="99.000000" x2="266.400000" y2="98.000000"  transform="rotate(0.000000,266.400000,98.000000)" style="stroke: black; stroke-width:0.25;"/>
<rect x="307.400000" y="67.000000" width="24.000000" height="24.000000" rx="0" ry="0" style="stroke:none;fill:#cccccc;"/>
<rect x="306.400000" y="66.000000" width="24.000000" height="24.000000" rx="0" ry="0" style="stroke:none;fill:#4B71A1;"/>
<text x="318.400000" y="80.000000" font-family="Arial" font-size="7" text-anchor="middle" fill="#FFFFFF">*</text>
<circle cx="308.400000" cy="68.000000" r="1"/>
<line x1="303.400000" y1="73.000000" x2="306.400000" y2="74.000000"  transform="rotate(0.000000,306.400000,74.000000)" style="stroke: black; stroke-width:0.25;"/>
<line x1="303.400000" y1="75.000000" x2="306.400000" y2="74.000000"  transform="rotate(0.000000,306.400000,74.000000)" style="stroke: black; stroke-width:0.25;"/>
<line x1="303.400000" y1="81.000000" x2="306.400000" y2="82.000000"  transform="rotate(0.000000,306.400000,82.000000)" style="stroke: black; stroke-width:0.25;"/>
<line x1="303.400000" y1="83.000000" x2="306.400000" y2="82.000000"  transform="rotate(0.000000,306.400000,82.000000)" style="stroke: black; stroke-width:0.25;"/>
<a xlink:href="tsigav-0x7ffc4d062e20.svg">
<rect x="132.400000" y="141.000000" width="51.600000" height="24.000000" rx="0" ry="0" style="stroke:none;fill:#cccccc;"/>
<rect x="131.400000" y="140.000000" width="51.600000" height="24.000000" rx="0" ry="0" style="stroke:none;fill:#003366;"/>
</a>
<a xlink:href="tsigav-0x7ffc4d062e20.svg">
<text x="157.200000" y="154.000000" font-family="Arial" font-size="7" text-anchor="middle" fill="#FFFFFF">tsigav(x7)</text>
</a>
<circle cx="133.400000" cy="142.000000" r="1"/>
<rect x="35.000000" y="183.000000" width="206.400000" height="24.000000" rx="0" ry="0" style="stroke:none;fill:#cccccc;"/>
<rect x="34.000000" y="182.000000" width="206.400000" height="24.000000" rx="0" ry="0" style="stroke:none;fill:#477881;"/>
<text x="137.200000" y="196.000000" font-family="Arial" font-size="7" text-anchor="middle" fill="#FFFFFF">hslider(Modulation Type, 0.0f, 0.0f, 4.0f, 1.0f)</text>
<circle cx="36.000000" cy="184.000000" r="1"/>
<line x1="25.000000" y1="173.000000" x2="25.000000" y2="215.000000"  style="stroke: black; stroke-linecap:round; stroke-width:0.25; stroke-dasharray:3,3;"/>
<line x1="25.000000" y1="215.000000" x2="249.400000" y2="215.000000"  style="stroke: black; stroke-linecap:round; stroke-width:0.25; stroke-dasharray:3,3;"/>
<line x1="249.400000" y1="215.000000" x2="249.400000" y2="173.000000"  style="stroke: black; stroke-linecap:round; stroke-width:0.25; stroke-dasharray:3,3;"/>
<line x1="25.000000" y1="173.000000" x2="30.000000" y2="173.000000"  style="stroke: black; stroke-linecap:round; stroke-width:0.25; stroke-dasharray:3,3;"/>
<line x1="59.025000" y1="173.000000" x2="249.400000" y2="173.000000"  style="stroke: black; stroke-linecap:round; stroke-width:0.25; stroke-dasharray:3,3;"/>
<text x="30.000000" y="175.000000" font-family="Arial" font-size="7">typeMod</text>
<rect x="126.200000" y="235.000000" width="24.000000" height="24.000000" rx="0" ry="0" style="stroke:none;fill:#cccccc;"/>
<rect x="125.200000" y="234.000000" width="24.000000" height="24.000000" rx="0" ry="0" style="stroke:none;fill:#f44800;"/>
<text x="137.200000" y="248.000000" font-family="Arial" font-size="7" text-anchor="middle" fill="#FFFFFF">1</text>
<circle cx="127.200000" cy="236.000000" r="1"/>
<line x1="116.200000" y1="225.000000" x2="116.200000" y2="267.000000"  style="stroke: black; stroke-linecap:round; stroke-width:0.25; stroke-dasharray:3,3;"/>
<line x1="116.200000" y1="267.000000" x2="158.200000" y2="267.000000"  style="stroke: black; stroke-linecap:round; stroke-width:0.25; stroke-dasharray:3,3;"/>
<line x1="158.200000" y1="267.000000" x2="158.200000" y2="225.000000"  style="stroke: black; stroke-linecap:round; stroke-width:0.25; stroke-dasharray:3,3;"/>
<line x1="116.200000" y1="225.000000" x2="121.200000" y2="225.000000"  style="stroke: black; stroke-linecap:round; stroke-width:0.25; stroke-dasharray:3,3;"/>
<line x1="130.875000" y1="225.000000" x2="158.200000" y2="225.000000"  style="stroke: black; stroke-linecap:round; stroke-width:0.25; stroke-dasharray:3,3;"/>
<text x="121.200000" y="227.000000" font-family="Arial" font-size="7">r</text>
<rect x="267.400000" y="209.000000" width="24.000000" height="24.000000" rx="0" ry="0" style="stroke:none;fill:#cccccc;"/>
<rect x="266.400000" y="208.000000" width="24.000000" height="24.000000" rx="0" ry="0" style="stroke:none;fill:#4B71A1;"/>
<text x="278.400000" y="222.000000" font-family="Arial" font-size="7" text-anchor="middle" fill="#FFFFFF">==</text>
<circle cx="268.400000" cy="210.000000" r="1"/>
<line x1="263.400000" y1="215.000000" x2="266.400000" y2="216.000000"  transform="rotate(0.000000,266.400000,216.000000)" style="stroke: black; stroke-width:0.25;"/>
<line x1="263.400000" y1="217.000000" x2="266.400000" y2="216.000000"  transform="rotate(0.000000,266.400000,216.000000)" style="stroke: black; stroke-width:0.25;"/>
<line x1="263.400000" y1="223.000000" x2="266.400000" y2="224.000000"  transform="rotate(0.000000,266.400000,224.000000)" style="stroke: black; stroke-width:0.25;"/>
<line x1="263.400000" y1="225.000000" x2="266.400000" y2="224.000000"  transform="rotate(0.000000,266.400000,224.000000)" style="stroke: black; stroke-width:0.25;"/>
<rect x="307.400000" y="193.000000" width="24.000000" height="24.000000" rx="0" ry="0" style="stroke:none;fill:#cccccc;"/>
<rect x="306.400000" y="192.000000" width="24.000000" height="24.000000" rx="0" ry="0" style="stroke:none;fill:#4B71A1;"/>
<text x="318.400000" y="206.000000" font-family="Arial" font-size="7" text-anchor="middle" fill="#FFFFFF">*</text>
<circle cx="308.400000" cy="194.000000" r="1"/>
<line x1="303.400000" y1="199.000000" x2="306.400000" y2="200.000000"  transform="rotate(0.000000,306.400000,200.000000)" style="stroke: black; stroke-width:0.25;"/>
<line x1="303.400000" y1="201.000000" x2="306.400000" y2="200.000000"  transform="rotate(0.000000,306.400000,200.000000)" style="stroke: black; stroke-width:0.25;"/>
<line x1="303.400000" y1="207.000000" x2="306.400000" y2="208.000000"  transform="rotate(0.000000,306.400000,208.000000)" style="stroke: black; stroke-width:0.25;"/>
<line x1="303.400000" y1="209.000000" x2="306.400000" y2="208.000000"  transform="rotate(0.000000,306.400000,208.000000)" style="stroke: black; stroke-width:0.25;"/>
<rect x="347.400000" y="135.000000" width="24.000000" height="24.000000" rx="0" ry="0" style="stroke:none;fill:#cccccc;"/>
<rect x="346.400000" y="134.000000" width="24.000000" height="24.000000" rx="0" ry="0" style="stroke:none;fill:#4B71A1;"/>
<text x="358.400000" y="148.000000" font-family="Arial" font-size="7" text-anchor="middle" fill="#FFFFFF">+</text>
<circle cx="348.400000" cy="136.000000" r="1"/>
<line x1="343.400000" y1="141.000000" x2="346.400000" y2="142.000000"  transform="rotate(0.000000,346.400000,142.000000)" style="stroke: black; stroke-width:0.25;"/>
<line x1="343.400000" y1="143.000000" x2="346.400000" y2="142.000000"  transform="rotate(0.000000,346.400000,142.000000)" style="stroke: black; stroke-width:0.25;"/>
<line x1="343.400000" y1="149.000000" x2="346.400000" y2="150.000000"  transform="rotate(0.000000,346.400000,150.000000)" style="stroke: black; stroke-width:0.25;"/>
<line x1="343.400000" y1="151.000000" x2="346.400000" y2="150.000000"  transform="rotate(0.000000,346.400000,150.000000)" style="stroke: black; stroke-width:0.25;"/>
<a xlink:href="tsigsquared-0x7ffc4d063440.svg">
<rect x="145.950000" y="277.000000" width="64.500000" height="24.000000" rx="0" ry="0" style="stroke:none;fill:#cccccc;"/>
<rect x="144.950000" y="276.000000" width="64.500000" height="24.000000" rx="0" ry="0" style="stroke:none;fill:#003366;"/>
</a>
<a xlink:href="tsigsquared-0x7ffc4d063440.svg">
<text x="177.200000" y="290.000000" font-family="Arial" font-size="7" text-anchor="middle" fill="#FFFFFF">tsigsquared(x7)</text>
</a>
<circle cx="146.950000" cy="278.000000" r="1"/>
<rect x="55.000000" y="319.000000" width="206.400000" height="24.000000" rx="0" ry="0" style="stroke:none;fill:#cccccc;"/>
<rect x="54.000000" y="318.000000" width="206.400000" height="24.000000" rx="0" ry="0" style="stroke:none;fill:#477881;"/>
<text x="157.200000" y="332.000000" font-family="Arial" font-size="7" text-anchor="middle" fill="#FFFFFF">hslider(Modulation Type, 0.0f, 0.0f, 4.0f, 1.0f)</text>
<circle cx="56.000000" cy="320.000000" r="1"/>
<line x1="45.000000" y1="309.000000" x2="45.000000" y2="351.000000"  style="stroke: black; stroke-linecap:round; stroke-width:0.25; stroke-dasharray:3,3;"/>
<line x1="45.000000" y1="351.000000" x2="269.400000" y2="351.000000"  style="stroke: black; stroke-linecap:round; stroke-width:0.25; stroke-dasharray:3,3;"/>
<line x1="269.400000" y1="351.000000" x2="269.400000" y2="309.000000"  style="stroke: black; stroke-linecap:round; stroke-width:0.25; stroke-dasharray:3,3;"/>
<line x1="45.000000" y1="309.000000" x2="50.000000" y2="309.000000"  style="stroke: black; stroke-linecap:round; stroke-width:0.25; stroke-dasharray:3,3;"/>
<line x1="79.025000" y1="309.000000" x2="269.400000" y2="309.000000"  style="stroke: black; stroke-linecap:round; stroke-width:0.25; stroke-dasharray:3,3;"/>
<text x="50.000000" y="311.000000" font-family="Arial" font-size="7">typeMod</text>
<rect x="146.200000" y="361.000000" width="24.000000" height="24.000000" rx="0" ry="0" style="stroke:none;fill:#cccccc;"/>
<rect x="145.200000" y="360.000000" width="24.000000" height="24.000000" rx="0" ry="0" style="stroke:none;fill:#f44800;"/>
<text x="157.200000" y="374.000000" font-family="Arial" font-size="7" text-anchor="middle" fill="#FFFFFF">2</text>
<circle cx="147.200000" cy="362.000000" r="1"/>
<rect x="287.400000" y="335.000000" width="24.000000" height="24.000000" rx="0" ry="0" style="stroke:none;fill:#cccccc;"/>
<rect x="286.400000" y="334.000000" width="24.000000" height="24.000000" rx="0" ry="0" style="stroke:none;fill:#4B71A1;"/>
<text x="298.400000" y="348.000000" font-family="Arial" font-size="7" text-anchor="middle" fill="#FFFFFF">==</text>
<circle cx="288.400000" cy="336.000000" r="1"/>
<line x1="283.400000" y1="341.000000" x2="286.400000" y2="342.000000"  transform="rotate(0.000000,286.400000,342.000000)" style="stroke: black; stroke-width:0.25;"/>
<line x1="283.400000" y1="343.000000" x2="286.400000" y2="342.000000"  transform="rotate(0.000000,286.400000,342.000000)" style="stroke: black; stroke-width:0.25;"/>
<line x1="283.400000" y1="349.000000" x2="286.400000" y2="350.000000"  transform="rotate(0.000000,286.400000,350.000000)" style="stroke: black; stroke-width:0.25;"/>
<line x1="283.400000" y1="351.000000" x2="286.400000" y2="350.000000"  transform="rotate(0.000000,286.400000,350.000000)" style="stroke: black; stroke-width:0.25;"/>
<rect x="327.400000" y="319.000000" width="24.000000" height="24.000000" rx="0" ry="0" style="stroke:none;fill:#cccccc;"/>
<rect x="326.400000" y="318.000000" width="24.000000" height="24.000000" rx="0" ry="0" style="stroke:none;fill:#4B71A1;"/>
<text x="338.400000" y="332.000000" font-family="Arial" font-size="7" text-anchor="middle" fill="#FFFFFF">*</text>
<circle cx="328.400000" cy="320.000000" r="1"/>
<line x1="323.400000" y1="325.000000" x2="326.400000" y2="326.000000"  transform="rotate(0.000000,326.400000,326.000000)" style="stroke: black; stroke-width:0.25;"/>
<line x1="323.400000" y1="327.000000" x2="326.400000" y2="326.000000"  transform="rotate(0.000000,326.400000,326.000000)" style="stroke: black; stroke-width:0.25;"/>
<line x1="323.400000" y1="333.000000" x2="326.400000" y2="334.000000"  transform="rotate(0.000000,326.400000,334.000000)" style="stroke: black; stroke-width:0.25;"/>
<line x1="323.400000" y1="335.000000" x2="326.400000" y2="334.000000"  transform="rotate(0.000000,326.400000,334.000000)" style="stroke: black; stroke-width:0.25;"/>
<rect x="387.400000" y="193.000000" width="24.000000" height="24.000000" rx="0" ry="0" style="stroke:none;fill:#cccccc;"/>
<rect x="386.400000" y="192.000000" width="24.000000" height="24.000000" rx="0" ry="0" style="stroke:none;fill:#4B71A1;"/>
<text x="398.400000" y="206.000000" font-family="Arial" font-size="7" text-anchor="middle" fill="#FFFFFF">+</text>
<circle cx="388.400000" cy="194.000000" r="1"/>
<line x1="383.400000" y1="199.000000" x2="386.400000" y2="200.000000"  transform="rotate(0.000000,386.400000,200.000000)" style="stroke: black; stroke-width:0.25;"/>
<line x1="383.400000" y1="201.000000" x2="386.400000" y2="200.000000"  transform="rotate(0.000000,386.400000,200.000000)" style="stroke: black; stroke-width:0.25;"/>
<line x1="383.400000" y1="207.000000" x2="386.400000" y2="208.000000"  transform="rotate(0.000000,386.400000,208.000000)" style="stroke: black; stroke-width:0.25;"/>
<line x1="383.400000" y1="209.000000" x2="386.400000" y2="208.000000"  transform="rotate(0.000000,386.400000,208.000000)" style="stroke: black; stroke-width:0.25;"/>
<line x1="15.000000" y1="15.000000" x2="15.000000" y2="393.000000"  style="stroke: black; stroke-linecap:round; stroke-width:0.25; stroke-dasharray:3,3;"/>
<line x1="15.000000" y1="393.000000" x2="427.400000" y2="393.000000"  style="stroke: black; stroke-linecap:round; stroke-width:0.25; stroke-dasharray:3,3;"/>
<line x1="427.400000" y1="393.000000" x2="427.400000" y2="15.000000"  style="stroke: black; stroke-linecap:round; stroke-width:0.25; stroke-dasharray:3,3;"/>
<line x1="15.000000" y1="15.000000" x2="20.000000" y2="15.000000"  style="stroke: black; stroke-linecap:round; stroke-width:0.25; stroke-dasharray:3,3;"/>
<line x1="52.250000" y1="15.000000" x2="427.400000" y2="15.000000"  style="stroke: black; stroke-linecap:round; stroke-width:0.25; stroke-dasharray:3,3;"/>
<text x="20.000000" y="17.000000" font-family="Arial" font-size="7">tsig(x7)</text>
<line x1="429.400000" y1="203.000000" x2="432.400000" y2="204.000000"  transform="rotate(0.000000,432.400000,204.000000)" style="stroke: black; stroke-width:0.25;"/>
<line x1="429.400000" y1="205.000000" x2="432.400000" y2="204.000000"  transform="rotate(0.000000,432.400000,204.000000)" style="stroke: black; stroke-width:0.25;"/>
<line x1="149.200000" y1="120.000000" x2="153.200000" y2="120.000000"  style="stroke:black; stroke-linecap:round; stroke-width:0.25;"/>
<line x1="149.200000" y1="246.000000" x2="153.200000" y2="246.000000"  style="stroke:black; stroke-linecap:round; stroke-width:0.25;"/>
<line x1="153.200000" y1="120.000000" x2="254.400000" y2="120.000000"  style="stroke:black; stroke-linecap:round; stroke-width:0.25;"/>
<line x1="153.200000" y1="246.000000" x2="163.200000" y2="246.000000"  style="stroke:black; stroke-linecap:round; stroke-width:0.25;"/>
<line x1="163.200000" y1="246.000000" x2="254.400000" y2="246.000000"  style="stroke:black; stroke-linecap:round; stroke-width:0.25;"/>
<line x1="169.200000" y1="372.000000" x2="173.200000" y2="372.000000"  style="stroke:black; stroke-linecap:round; stroke-width:0.25;"/>
<line x1="173.200000" y1="372.000000" x2="274.400000" y2="372.000000"  style="stroke:black; stroke-linecap:round; stroke-width:0.25;"/>
<line x1="183.000000" y1="36.000000" x2="187.000000" y2="36.000000"  style="stroke:black; stroke-linecap:round; stroke-width:0.25;"/>
<line x1="183.000000" y1="152.000000" x2="187.000000" y2="152.000000"  style="stroke:black; stroke-linecap:round; stroke-width:0.25;"/>
<line x1="187.000000" y1="36.000000" x2="294.400000" y2="36.000000"  style="stroke:black; stroke-linecap:round; stroke-width:0.25;"/>
<line x1="187.000000" y1="152.000000" x2="294.400000" y2="152.000000"  style="stroke:black; stroke-linecap:round; stroke-width:0.25;"/>
<line x1="209.450000" y1="288.000000" x2="213.450000" y2="288.000000"  style="stroke:black; stroke-linecap:round; stroke-width:0.25;"/>
<line x1="213.450000" y1="288.000000" x2="314.400000" y2="288.000000"  style="stroke:black; stroke-linecap:round; stroke-width:0.25;"/>
<line x1="240.400000" y1="78.000000" x2="244.400000" y2="78.000000"  style="stroke:black; stroke-linecap:round; stroke-width:0.25;"/>
<line x1="240.400000" y1="194.000000" x2="244.400000" y2="194.000000"  style="stroke:black; stroke-linecap:round; stroke-width:0.25;"/>
<line x1="244.400000" y1="78.000000" x2="254.400000" y2="78.000000"  style="stroke:black; stroke-linecap:round; stroke-width:0.25;"/>
<line x1="244.400000" y1="194.000000" x2="254.400000" y2="194.000000"  style="stroke:black; stroke-linecap:round; stroke-width:0.25;"/>
<line x1="254.400000" y1="78.000000" x2="262.400000" y2="78.000000"  style="stroke:black; stroke-linecap:round; stroke-width:0.25;"/>
<line x1="254.400000" y1="98.000000" x2="262.400000" y2="98.000000"  style="stroke:black; stroke-linecap:round; stroke-width:0.25;"/>
<line x1="254.400000" y1="120.000000" x2="254.400000" y2="98.000000"  style="stroke:black; stroke-linecap:round; stroke-width:0.25;"/>
<line x1="254.400000" y1="120.000000" x2="254.400000" y2="120.000000"  style="stroke:black; stroke-linecap:round; stroke-width:0.25;"/>
<line x1="254.400000" y1="194.000000" x2="262.400000" y2="194.000000"  style="stroke:black; stroke-linecap:round; stroke-width:0.25;"/>
<line x1="254.400000" y1="224.000000" x2="262.400000" y2="224.000000"  style="stroke:black; stroke-linecap:round; stroke-width:0.25;"/>
<line x1="254.400000" y1="246.000000" x2="254.400000" y2="224.000000"  style="stroke:black; stroke-linecap:round; stroke-width:0.25;"/>
<line x1="254.400000" y1="246.000000" x2="254.400000" y2="246.000000"  style="stroke:black; stroke-linecap:round; stroke-width:0.25;"/>
<line x1="260.400000" y1="330.000000" x2="264.400000" y2="330.000000"  style="stroke:black; stroke-linecap:round; stroke-width:0.25;"/>
<line x1="262.400000" y1="78.000000" x2="262.400000" y2="90.000000"  style="stroke:black; stroke-linecap:round; stroke-width:0.25;"/>
<line x1="262.400000" y1="90.000000" x2="262.400000" y2="90.000000"  style="stroke:black; stroke-linecap:round; stroke-width:0.25;"/>
<line x1="262.400000" y1="90.000000" x2="266.400000" y2="90.000000"  style="stroke:black; stroke-linecap:round; stroke-width:0.25;"/>
<line x1="262.400000" y1="98.000000" x2="266.400000" y2="98.000000"  style="stroke:black; stroke-linecap:round; stroke-width:0.25;"/>
<line x1="262.400000" y1="194.000000" x2="262.400000" y2="216.000000"  style="stroke:black; stroke-linecap:round; stroke-width:0.25;"/>
<line x1="262.400000" y1="216.000000" x2="262.400000" y2="216.000000"  style="stroke:black; stroke-linecap:round; stroke-width:0.25;"/>
<line x1="262.400000" y1="216.000000" x2="266.400000" y2="216.000000"  style="stroke:black; stroke-linecap:round; stroke-width:0.25;"/>
<line x1="262.400000" y1="224.000000" x2="266.400000" y2="224.000000"  style="stroke:black; stroke-linecap:round; stroke-width:0.25;"/>
<line x1="264.400000" y1="330.000000" x2="274.400000" y2="330.000000"  style="stroke:black; stroke-linecap:round; stroke-width:0.25;"/>
<line x1="274.400000" y1="330.000000" x2="282.400000" y2="330.000000"  style="stroke:black; stroke-linecap:round; stroke-width:0.25;"/>
<line x1="274.400000" y1="350.000000" x2="282.400000" y2="350.000000"  style="stroke:black; stroke-linecap:round; stroke-width:0.25;"/>
<line x1="274.400000" y1="372.000000" x2="274.400000" y2="350.000000"  style="stroke:black; stroke-linecap:round; stroke-width:0.25;"/>
<line x1="274.400000" y1="372.000000" x2="274.400000" y2="372.000000"  style="stroke:black; stroke-linecap:round; stroke-width:0.25;"/>
<line x1="282.400000" y1="330.000000" x2="282.400000" y2="342.000000"  style="stroke:black; stroke-linecap:round; stroke-width:0.25;"/>
<line x1="282.400000" y1="342.000000" x2="282.400000" y2="342.000000"  style="stroke:black; stroke-linecap:round; stroke-width:0.25;"/>
<line x1="282.400000" y1="342.000000" x2="286.400000" y2="342.000000"  style="stroke:black; stroke-linecap:round; stroke-width:0.25;"/>
<line x1="282.400000" y1="350.000000" x2="286.400000" y2="350.000000"  style="stroke:black; stroke-linecap:round; stroke-width:0.25;"/>
<line x1="290.400000" y1="94.000000" x2="294.400000" y2="94.000000"  style="stroke:black; stroke-linecap:round; stroke-width:0.25;"/>
<line x1="290.400000" y1="220.000000" x2="294.400000" y2="220.000000"  style="stroke:black; stroke-linecap:round; stroke-width:0.25;"/>
<line x1="294.400000" y1="36.000000" x2="302.400000" y2="36.000000"  style="stroke:black; stroke-linecap:round; stroke-width:0.25;"/>
<line x1="294.400000" y1="82.000000" x2="302.400000" y2="82.000000"  style="stroke:black; stroke-linecap:round; stroke-width:0.25;"/>
<line x1="294.400000" y1="94.000000" x2="294.400000" y2="82.000000"  style="stroke:black; stroke-linecap:round; stroke-width:0.25;"/>
<line x1="294.400000" y1="94.000000" x2="294.400000" y2="94.000000"  style="stroke:black; stroke-linecap:round; stroke-width:0.25;"/>
<line x1="294.400000" y1="152.000000" x2="302.400000" y2="152.000000"  style="stroke:black; stroke-linecap:round; stroke-width:0.25;"/>
<line x1="294.400000" y1="208.000000" x2="302.400000" y2="208.000000"  style="stroke:black; stroke-linecap:round; stroke-width:0.25;"/>
<line x1="294.400000" y1="220.000000" x2="294.400000" y2="208.000000"  style="stroke:black; stroke-linecap:round; stroke-width:0.25;"/>
<line x1="294.400000" y1="220.000000" x2="294.400000" y2="220.000000"  style="stroke:black; stroke-linecap:round; stroke-width:0.25;"/>
<line x1="302.400000" y1="36.000000" x2="302.400000" y2="74.000000"  style="stroke:black; stroke-linecap:round; stroke-width:0.25;"/>
<line x1="302.400000" y1="74.000000" x2="302.400000" y2="74.000000"  style="stroke:black; stroke-linecap:round; stroke-width:0.25;"/>
<line x1="302.400000" y1="74.000000" x2="306.400000" y2="74.000000"  style="stroke:black; stroke-linecap:round; stroke-width:0.25;"/>
<line x1="302.400000" y1="82.000000" x2="306.400000" y2="82.000000"  style="stroke:black; stroke-linecap:round; stroke-width:0.25;"/>
<line x1="302.400000" y1="152.000000" x2="302.400000" y2="200.000000"  style="stroke:black; stroke-linecap:round; stroke-width:0.25;"/>
<line x1="302.400000" y1="200.000000" x2="302.400000" y2="200.000000"  style="stroke:black; stroke-linecap:round; stroke-width:0.25;"/>
<line x1="302.400000" y1="200.000000" x2="306.400000" y2="200.000000"  style="stroke:black; stroke-linecap:round; stroke-width:0.25;"/>
<line x1="302.400000" y1="208.000000" x2="306.400000" y2="208.000000"  style="stroke:black; stroke-linecap:round; stroke-width:0.25;"/>
<line x1="310.400000" y1="346.000000" x2="314.400000" y2="346.000000"  style="stroke:black; stroke-linecap:round; stroke-width:0.25;"/>
<line x1="314.400000" y1="288.000000" x2="322.400000" y2="288.000000"  style="stroke:black; stroke-linecap:round; stroke-width:0.25;"/>
<line x1="314.400000" y1="334.000000" x2="322.400000" y2="334.000000"  style="stroke:black; stroke-linecap:round; stroke-width:0.25;"/>
<line x1="314.400000" y1="346.000000" x2="314.400000" y2="334.000000"  style="stroke:black; stroke-linecap:round; stroke-width:0.25;"/>
<line x1="314.400000" y1="346.000000" x2="314.400000" y2="346.000000"  style="stroke:black; stroke-linecap:round; stroke-width:0.25;"/>
<line x1="322.400000" y1="288.000000" x2="322.400000" y2="326.000000"  style="stroke:black; stroke-linecap:round; stroke-width:0.25;"/>
<line x1="322.400000" y1="326.000000" x2="322.400000" y2="326.000000"  style="stroke:black; stroke-linecap:round; stroke-width:0.25;"/>
<line x1="322.400000" y1="326.000000" x2="326.400000" y2="326.000000"  style="stroke:black; stroke-linecap:round; stroke-width:0.25;"/>
<line x1="322.400000" y1="334.000000" x2="326.400000" y2="334.000000"  style="stroke:black; stroke-linecap:round; stroke-width:0.25;"/>
<line x1="330.400000" y1="78.000000" x2="334.400000" y2="78.000000"  style="stroke:black; stroke-linecap:round; stroke-width:0.25;"/>
<line x1="330.400000" y1="204.000000" x2="334.400000" y2="204.000000"  style="stroke:black; stroke-linecap:round; stroke-width:0.25;"/>
<line x1="334.400000" y1="78.000000" x2="342.400000" y2="78.000000"  style="stroke:black; stroke-linecap:round; stroke-width:0.25;"/>
<line x1="334.400000" y1="150.000000" x2="342.400000" y2="150.000000"  style="stroke:black; stroke-linecap:round; stroke-width:0.25;"/>
<line x1="334.400000" y1="204.000000" x2="334.400000" y2="150.000000"  style="stroke:black; stroke-linecap:round; stroke-width:0.25;"/>
<line x1="334.400000" y1="204.000000" x2="334.400000" y2="204.000000"  style="stroke:black; stroke-linecap:round; stroke-width:0.25;"/>
<line x1="342.400000" y1="78.000000" x2="342.400000" y2="142.000000"  style="stroke:black; stroke-linecap:round; stroke-width:0.25;"/>
<line x1="342.400000" y1="142.000000" x2="342.400000" y2="142.000000"  style="stroke:black; stroke-linecap:round; stroke-width:0.25;"/>
<line x1="342.400000" y1="142.000000" x2="346.400000" y2="142.000000"  style="stroke:black; stroke-linecap:round; stroke-width:0.25;"/>
<line x1="342.400000" y1="150.000000" x2="346.400000" y2="150.000000"  style="stroke:black; stroke-linecap:round; stroke-width:0.25;"/>
<line x1="350.400000" y1="330.000000" x2="354.400000" y2="330.000000"  style="stroke:black; stroke-linecap:round; stroke-width:0.25;"/>
<line x1="354.400000" y1="330.000000" x2="374.400000" y2="330.000000"  style="stroke:black; stroke-linecap:round; stroke-width:0.25;"/>
<line x1="370.400000" y1="146.000000" x2="374.400000" y2="146.000000"  style="stroke:black; stroke-linecap:round; stroke-width:0.25;"/>
<line x1="374.400000" y1="146.000000" x2="382.400000" y2="146.000000"  style="stroke:black; stroke-linecap:round; stroke-width:0.25;"/>
<line x1="374.400000" y1="208.000000" x2="382.400000" y2="208.000000"  style="stroke:black; stroke-linecap:round; stroke-width:0.25;"/>
<line x1="374.400000" y1="330.000000" x2="374.400000" y2="208.000000"  style="stroke:black; stroke-linecap:round; stroke-width:0.25;"/>
<line x1="374.400000" y1="330.000000" x2="374.400000" y2="330.000000"  style="stroke:black; stroke-linecap:round; stroke-width:0.25;"/>
<line x1="382.400000" y1="146.000000" x2="382.400000" y2="200.000000"  style="stroke:black; stroke-linecap:round; stroke-width:0.25;"/>
<line x1="382.400000" y1="200.000000" x2="382.400000" y2="200.000000"  style="stroke:black; stroke-linecap:round; stroke-width:0.25;"/>
<line x1="382.400000" y1="200.000000" x2="386.400000" y2="200.000000"  style="stroke:black; stroke-linecap:round; stroke-width:0.25;"/>
<line x1="382.400000" y1="208.000000" x2="386.400000" y2="208.000000"  style="stroke:black; stroke-linecap:round; stroke-width:0.25;"/>
<line x1="410.400000" y1="204.000000" x2="414.400000" y2="204.000000"  style="stroke:black; stroke-linecap:round; stroke-width:0.25;"/>
<line x1="414.400000" y1="204.000000" x2="414.400000" y2="204.000000"  style="stroke:black; stroke-linecap:round; stroke-width:0.25;"/>
<line x1="414.400000" y1="204.000000" x2="418.400000" y2="204.000000"  style="stroke:black; stroke-linecap:round; stroke-width:0.25;"/>
<line x1="418.400000" y1="204.000000" x2="422.400000" y2="204.000000"  style="stroke:black; stroke-linecap:round; stroke-width:0.25;"/>
<line x1="422.400000" y1="204.000000" x2="432.400000" y2="204.000000"  style="stroke:black; stroke-linecap:round; stroke-width:0.25;"/>
</svg>
