<?xml version="1.0"?>
<svg xmlns="http://www.w3.org/2000/svg" xmlns:xlink="http://www.w3.org/1999/xlink" viewBox="0 0 292.500000 292.000000" width="146.250000mm" height="146.000000mm" version="1.1">
<a xlink:href="tsig-0x7ffd0ba47a50.svg">
<rect x="1.000000" y="1.000000" width="291.500000" height="291.000000" rx="0" ry="0" style="stroke:none;fill:#cccccc;"/>
<rect x="0.000000" y="0.000000" width="291.500000" height="291.000000" rx="0" ry="0" style="stroke:none;fill:#ffffff;"/>
</a>
<text x="10.000000" y="7.000000" font-family="Arial" font-size="7"></text>
<rect x="35.000000" y="35.000000" width="24.000000" height="24.000000" rx="0" ry="0" style="stroke:none;fill:#cccccc;"/>
<rect x="34.000000" y="34.000000" width="24.000000" height="24.000000" rx="0" ry="0" style="stroke:none;fill:#f44800;"/>
<text x="46.000000" y="48.000000" font-family="Arial" font-size="7" text-anchor="middle" fill="#FFFFFF">0.8</text>
<circle cx="36.000000" cy="36.000000" r="1"/>
<line x1="25.000000" y1="25.000000" x2="25.000000" y2="67.000000"  style="stroke: black; stroke-linecap:round; stroke-width:0.25; stroke-dasharray:3,3;"/>
<line x1="25.000000" y1="67.000000" x2="67.000000" y2="67.000000"  style="stroke: black; stroke-linecap:round; stroke-width:0.25; stroke-dasharray:3,3;"/>
<line x1="67.000000" y1="67.000000" x2="67.000000" y2="25.000000"  style="stroke: black; stroke-linecap:round; stroke-width:0.25; stroke-dasharray:3,3;"/>
<line x1="25.000000" y1="25.000000" x2="30.000000" y2="25.000000"  style="stroke: black; stroke-linecap:round; stroke-width:0.25; stroke-dasharray:3,3;"/>
<line x1="67.000000" y1="25.000000" x2="67.000000" y2="25.000000"  style="stroke: black; stroke-linecap:round; stroke-width:0.25; stroke-dasharray:3,3;"/>
<text x="30.000000" y="27.000000" font-family="Arial" font-size="7">nonlinearity</text>
<a xlink:href="smooth-0x7ffd0b9768c0.svg">
<rect x="77.000000" y="35.000000" width="64.500000" height="24.000000" rx="0" ry="0" style="stroke:none;fill:#cccccc;"/>
<rect x="76.000000" y="34.000000" width="64.500000" height="24.000000" rx="0" ry="0" style="stroke:none;fill:#003366;"/>
</a>
<a xlink:href="smooth-0x7ffd0b9768c0.svg">
<text x="108.250000" y="48.000000" font-family="Arial" font-size="7" text-anchor="middle" fill="#FFFFFF">smooth(0.999f)</text>
</a>
<circle cx="78.000000" cy="36.000000" r="1"/>
<line x1="73.000000" y1="45.000000" x2="76.000000" y2="46.000000"  transform="rotate(0.000000,76.000000,46.000000)" style="stroke: black; stroke-width:0.25;"/>
<line x1="73.000000" y1="47.000000" x2="76.000000" y2="46.000000"  transform="rotate(0.000000,76.000000,46.000000)" style="stroke: black; stroke-width:0.25;"/>
<rect x="63.900000" y="87.000000" width="38.700000" height="24.000000" rx="0" ry="0" style="stroke:none;fill:#cccccc;"/>
<rect x="62.900000" y="86.000000" width="38.700000" height="24.000000" rx="0" ry="0" style="stroke:none;fill:#f44800;"/>
<text x="82.250000" y="100.000000" font-family="Arial" font-size="7" text-anchor="middle" fill="#FFFFFF">3.14159</text>
<circle cx="64.900000" cy="88.000000" r="1"/>
<line x1="53.900000" y1="77.000000" x2="53.900000" y2="119.000000"  style="stroke: black; stroke-linecap:round; stroke-width:0.25; stroke-dasharray:3,3;"/>
<line x1="53.900000" y1="119.000000" x2="110.600000" y2="119.000000"  style="stroke: black; stroke-linecap:round; stroke-width:0.25; stroke-dasharray:3,3;"/>
<line x1="110.600000" y1="119.000000" x2="110.600000" y2="77.000000"  style="stroke: black; stroke-linecap:round; stroke-width:0.25; stroke-dasharray:3,3;"/>
<line x1="53.900000" y1="77.000000" x2="58.900000" y2="77.000000"  style="stroke: black; stroke-linecap:round; stroke-width:0.25; stroke-dasharray:3,3;"/>
<line x1="71.800000" y1="77.000000" x2="110.600000" y2="77.000000"  style="stroke: black; stroke-linecap:round; stroke-width:0.25; stroke-dasharray:3,3;"/>
<text x="58.900000" y="79.000000" font-family="Arial" font-size="7">PI</text>
<rect x="157.500000" y="61.000000" width="24.000000" height="24.000000" rx="0" ry="0" style="stroke:none;fill:#cccccc;"/>
<rect x="156.500000" y="60.000000" width="24.000000" height="24.000000" rx="0" ry="0" style="stroke:none;fill:#4B71A1;"/>
<text x="168.500000" y="74.000000" font-family="Arial" font-size="7" text-anchor="middle" fill="#FFFFFF">*</text>
<circle cx="158.500000" cy="62.000000" r="1"/>
<line x1="153.500000" y1="67.000000" x2="156.500000" y2="68.000000"  transform="rotate(0.000000,156.500000,68.000000)" style="stroke: black; stroke-width:0.25;"/>
<line x1="153.500000" y1="69.000000" x2="156.500000" y2="68.000000"  transform="rotate(0.000000,156.500000,68.000000)" style="stroke: black; stroke-width:0.25;"/>
<line x1="153.500000" y1="75.000000" x2="156.500000" y2="76.000000"  transform="rotate(0.000000,156.500000,76.000000)" style="stroke: black; stroke-width:0.25;"/>
<line x1="153.500000" y1="77.000000" x2="156.500000" y2="76.000000"  transform="rotate(0.000000,156.500000,76.000000)" style="stroke: black; stroke-width:0.25;"/>
<rect x="51.250000" y="129.000000" width="24.000000" height="24.000000" rx="0" ry="0" style="stroke:none;fill:#cccccc;"/>
<rect x="50.250000" y="128.000000" width="24.000000" height="24.000000" rx="0" ry="0" style="stroke:none;fill:#47945E;"/>
<text x="62.250000" y="142.000000" font-family="Arial" font-size="7" text-anchor="middle" fill="#FFFFFF">x</text>
<circle cx="52.250000" cy="130.000000" r="1"/>
<rect x="35.250000" y="161.000000" width="24.000000" height="24.000000" rx="0" ry="0" style="stroke:none;fill:#cccccc;"/>
<rect x="34.250000" y="160.000000" width="24.000000" height="24.000000" rx="0" ry="0" style="stroke:none;fill:#47945E;"/>
<text x="46.250000" y="174.000000" font-family="Arial" font-size="7" text-anchor="middle" fill="#FFFFFF">x</text>
<circle cx="36.250000" cy="162.000000" r="1"/>
<rect x="67.250000" y="161.000000" width="24.000000" height="24.000000" rx="0" ry="0" style="stroke:none;fill:#cccccc;"/>
<rect x="66.250000" y="160.000000" width="24.000000" height="24.000000" rx="0" ry="0" style="stroke:none;fill:#4B71A1;"/>
<text x="78.250000" y="174.000000" font-family="Arial" font-size="7" text-anchor="middle" fill="#FFFFFF">mem</text>
<circle cx="68.250000" cy="162.000000" r="1"/>
<line x1="63.250000" y1="171.000000" x2="66.250000" y2="172.000000"  transform="rotate(0.000000,66.250000,172.000000)" style="stroke: black; stroke-width:0.25;"/>
<line x1="63.250000" y1="173.000000" x2="66.250000" y2="172.000000"  transform="rotate(0.000000,66.250000,172.000000)" style="stroke: black; stroke-width:0.25;"/>
<rect x="107.250000" y="145.000000" width="24.000000" height="24.000000" rx="0" ry="0" style="stroke:none;fill:#cccccc;"/>
<rect x="106.250000" y="144.000000" width="24.000000" height="24.000000" rx="0" ry="0" style="stroke:none;fill:#4B71A1;"/>
<text x="118.250000" y="158.000000" font-family="Arial" font-size="7" text-anchor="middle" fill="#FFFFFF">+</text>
<circle cx="108.250000" cy="146.000000" r="1"/>
<line x1="103.250000" y1="151.000000" x2="106.250000" y2="152.000000"  transform="rotate(0.000000,106.250000,152.000000)" style="stroke: black; stroke-width:0.25;"/>
<line x1="103.250000" y1="153.000000" x2="106.250000" y2="152.000000"  transform="rotate(0.000000,106.250000,152.000000)" style="stroke: black; stroke-width:0.25;"/>
<line x1="103.250000" y1="159.000000" x2="106.250000" y2="160.000000"  transform="rotate(0.000000,106.250000,160.000000)" style="stroke: black; stroke-width:0.25;"/>
<line x1="103.250000" y1="161.000000" x2="106.250000" y2="160.000000"  transform="rotate(0.000000,106.250000,160.000000)" style="stroke: black; stroke-width:0.25;"/>
<rect x="71.250000" y="203.000000" width="24.000000" height="24.000000" rx="0" ry="0" style="stroke:none;fill:#cccccc;"/>
<rect x="70.250000" y="202.000000" width="24.000000" height="24.000000" rx="0" ry="0" style="stroke:none;fill:#f44800;"/>
<text x="82.250000" y="216.000000" font-family="Arial" font-size="7" text-anchor="middle" fill="#FFFFFF">2</text>
<circle cx="72.250000" cy="204.000000" r="1"/>
<line x1="61.250000" y1="193.000000" x2="61.250000" y2="235.000000"  style="stroke: black; stroke-linecap:round; stroke-width:0.25; stroke-dasharray:3,3;"/>
<line x1="61.250000" y1="235.000000" x2="103.250000" y2="235.000000"  style="stroke: black; stroke-linecap:round; stroke-width:0.25; stroke-dasharray:3,3;"/>
<line x1="103.250000" y1="235.000000" x2="103.250000" y2="193.000000"  style="stroke: black; stroke-linecap:round; stroke-width:0.25; stroke-dasharray:3,3;"/>
<line x1="61.250000" y1="193.000000" x2="66.250000" y2="193.000000"  style="stroke: black; stroke-linecap:round; stroke-width:0.25; stroke-dasharray:3,3;"/>
<line x1="75.925000" y1="193.000000" x2="103.250000" y2="193.000000"  style="stroke: black; stroke-linecap:round; stroke-width:0.25; stroke-dasharray:3,3;"/>
<text x="66.250000" y="195.000000" font-family="Arial" font-size="7">r</text>
<rect x="147.250000" y="171.000000" width="24.000000" height="24.000000" rx="0" ry="0" style="stroke:none;fill:#cccccc;"/>
<rect x="146.250000" y="170.000000" width="24.000000" height="24.000000" rx="0" ry="0" style="stroke:none;fill:#4B71A1;"/>
<text x="158.250000" y="184.000000" font-family="Arial" font-size="7" text-anchor="middle" fill="#FFFFFF">/</text>
<circle cx="148.250000" cy="172.000000" r="1"/>
<line x1="143.250000" y1="177.000000" x2="146.250000" y2="178.000000"  transform="rotate(0.000000,146.250000,178.000000)" style="stroke: black; stroke-width:0.25;"/>
<line x1="143.250000" y1="179.000000" x2="146.250000" y2="178.000000"  transform="rotate(0.000000,146.250000,178.000000)" style="stroke: black; stroke-width:0.25;"/>
<line x1="143.250000" y1="185.000000" x2="146.250000" y2="186.000000"  transform="rotate(0.000000,146.250000,186.000000)" style="stroke: black; stroke-width:0.25;"/>
<line x1="143.250000" y1="187.000000" x2="146.250000" y2="186.000000"  transform="rotate(0.000000,146.250000,186.000000)" style="stroke: black; stroke-width:0.25;"/>
<rect x="197.500000" y="119.000000" width="24.000000" height="24.000000" rx="0" ry="0" style="stroke:none;fill:#cccccc;"/>
<rect x="196.500000" y="118.000000" width="24.000000" height="24.000000" rx="0" ry="0" style="stroke:none;fill:#4B71A1;"/>
<text x="208.500000" y="132.000000" font-family="Arial" font-size="7" text-anchor="middle" fill="#FFFFFF">*</text>
<circle cx="198.500000" cy="120.000000" r="1"/>
<line x1="193.500000" y1="125.000000" x2="196.500000" y2="126.000000"  transform="rotate(0.000000,196.500000,126.000000)" style="stroke: black; stroke-width:0.25;"/>
<line x1="193.500000" y1="127.000000" x2="196.500000" y2="126.000000"  transform="rotate(0.000000,196.500000,126.000000)" style="stroke: black; stroke-width:0.25;"/>
<line x1="193.500000" y1="133.000000" x2="196.500000" y2="134.000000"  transform="rotate(0.000000,196.500000,134.000000)" style="stroke: black; stroke-width:0.25;"/>
<line x1="193.500000" y1="135.000000" x2="196.500000" y2="134.000000"  transform="rotate(0.000000,196.500000,134.000000)" style="stroke: black; stroke-width:0.25;"/>
<a xlink:href="env-0x7ffd09f51bc0.svg">
<rect x="111.250000" y="245.000000" width="24.000000" height="24.000000" rx="0" ry="0" style="stroke:none;fill:#cccccc;"/>
<rect x="110.250000" y="244.000000" width="24.000000" height="24.000000" rx="0" ry="0" style="stroke:none;fill:#003366;"/>
</a>
<a xlink:href="env-0x7ffd09f51bc0.svg">
<text x="122.250000" y="258.000000" font-family="Arial" font-size="7" text-anchor="middle" fill="#FFFFFF">env</text>
</a>
<circle cx="112.250000" cy="246.000000" r="1"/>
<rect x="237.500000" y="135.000000" width="24.000000" height="24.000000" rx="0" ry="0" style="stroke:none;fill:#cccccc;"/>
<rect x="236.500000" y="134.000000" width="24.000000" height="24.000000" rx="0" ry="0" style="stroke:none;fill:#4B71A1;"/>
<text x="248.500000" y="148.000000" font-family="Arial" font-size="7" text-anchor="middle" fill="#FFFFFF">*</text>
<circle cx="238.500000" cy="136.000000" r="1"/>
<line x1="233.500000" y1="141.000000" x2="236.500000" y2="142.000000"  transform="rotate(0.000000,236.500000,142.000000)" style="stroke: black; stroke-width:0.25;"/>
<line x1="233.500000" y1="143.000000" x2="236.500000" y2="142.000000"  transform="rotate(0.000000,236.500000,142.000000)" style="stroke: black; stroke-width:0.25;"/>
<line x1="233.500000" y1="149.000000" x2="236.500000" y2="150.000000"  transform="rotate(0.000000,236.500000,150.000000)" style="stroke: black; stroke-width:0.25;"/>
<line x1="233.500000" y1="151.000000" x2="236.500000" y2="150.000000"  transform="rotate(0.000000,236.500000,150.000000)" style="stroke: black; stroke-width:0.25;"/>
<line x1="15.000000" y1="15.000000" x2="15.000000" y2="277.000000"  style="stroke: black; stroke-linecap:round; stroke-width:0.25; stroke-dasharray:3,3;"/>
<line x1="15.000000" y1="277.000000" x2="277.500000" y2="277.000000"  style="stroke: black; stroke-linecap:round; stroke-width:0.25; stroke-dasharray:3,3;"/>
<line x1="277.500000" y1="277.000000" x2="277.500000" y2="15.000000"  style="stroke: black; stroke-linecap:round; stroke-width:0.25; stroke-dasharray:3,3;"/>
<line x1="15.000000" y1="15.000000" x2="20.000000" y2="15.000000"  style="stroke: black; stroke-linecap:round; stroke-width:0.25; stroke-dasharray:3,3;"/>
<line x1="58.700000" y1="15.000000" x2="277.500000" y2="15.000000"  style="stroke: black; stroke-linecap:round; stroke-width:0.25; stroke-dasharray:3,3;"/>
<text x="20.000000" y="17.000000" font-family="Arial" font-size="7">tsigav(x8)</text>
<line x1="279.500000" y1="145.000000" x2="282.500000" y2="146.000000"  transform="rotate(0.000000,282.500000,146.000000)" style="stroke: black; stroke-width:0.25;"/>
<line x1="279.500000" y1="147.000000" x2="282.500000" y2="146.000000"  transform="rotate(0.000000,282.500000,146.000000)" style="stroke: black; stroke-width:0.25;"/>
<line x1="58.000000" y1="46.000000" x2="62.000000" y2="46.000000"  style="stroke:black; stroke-linecap:round; stroke-width:0.25;"/>
<line x1="58.250000" y1="172.000000" x2="62.250000" y2="172.000000"  style="stroke:black; stroke-linecap:round; stroke-width:0.25;"/>
<line x1="62.000000" y1="46.000000" x2="72.000000" y2="46.000000"  style="stroke:black; stroke-linecap:round; stroke-width:0.25;"/>
<line x1="62.250000" y1="172.000000" x2="62.250000" y2="172.000000"  style="stroke:black; stroke-linecap:round; stroke-width:0.25;"/>
<line x1="62.250000" y1="172.000000" x2="66.250000" y2="172.000000"  style="stroke:black; stroke-linecap:round; stroke-width:0.25;"/>
<line x1="72.000000" y1="46.000000" x2="72.000000" y2="46.000000"  style="stroke:black; stroke-linecap:round; stroke-width:0.25;"/>
<line x1="72.000000" y1="46.000000" x2="76.000000" y2="46.000000"  style="stroke:black; stroke-linecap:round; stroke-width:0.25;"/>
<line x1="74.250000" y1="140.000000" x2="78.250000" y2="140.000000"  style="stroke:black; stroke-linecap:round; stroke-width:0.25;"/>
<line x1="78.250000" y1="140.000000" x2="94.250000" y2="140.000000"  style="stroke:black; stroke-linecap:round; stroke-width:0.25;"/>
<line x1="90.250000" y1="172.000000" x2="94.250000" y2="172.000000"  style="stroke:black; stroke-linecap:round; stroke-width:0.25;"/>
<line x1="94.250000" y1="140.000000" x2="102.250000" y2="140.000000"  style="stroke:black; stroke-linecap:round; stroke-width:0.25;"/>
<line x1="94.250000" y1="160.000000" x2="102.250000" y2="160.000000"  style="stroke:black; stroke-linecap:round; stroke-width:0.25;"/>
<line x1="94.250000" y1="172.000000" x2="94.250000" y2="160.000000"  style="stroke:black; stroke-linecap:round; stroke-width:0.25;"/>
<line x1="94.250000" y1="172.000000" x2="94.250000" y2="172.000000"  style="stroke:black; stroke-linecap:round; stroke-width:0.25;"/>
<line x1="94.250000" y1="214.000000" x2="98.250000" y2="214.000000"  style="stroke:black; stroke-linecap:round; stroke-width:0.25;"/>
<line x1="98.250000" y1="214.000000" x2="108.250000" y2="214.000000"  style="stroke:black; stroke-linecap:round; stroke-width:0.25;"/>
<line x1="101.600000" y1="98.000000" x2="105.600000" y2="98.000000"  style="stroke:black; stroke-linecap:round; stroke-width:0.25;"/>
<line x1="102.250000" y1="140.000000" x2="102.250000" y2="152.000000"  style="stroke:black; stroke-linecap:round; stroke-width:0.25;"/>
<line x1="102.250000" y1="152.000000" x2="102.250000" y2="152.000000"  style="stroke:black; stroke-linecap:round; stroke-width:0.25;"/>
<line x1="102.250000" y1="152.000000" x2="106.250000" y2="152.000000"  style="stroke:black; stroke-linecap:round; stroke-width:0.25;"/>
<line x1="102.250000" y1="160.000000" x2="106.250000" y2="160.000000"  style="stroke:black; stroke-linecap:round; stroke-width:0.25;"/>
<line x1="105.600000" y1="98.000000" x2="115.600000" y2="98.000000"  style="stroke:black; stroke-linecap:round; stroke-width:0.25;"/>
<line x1="108.250000" y1="214.000000" x2="134.250000" y2="214.000000"  style="stroke:black; stroke-linecap:round; stroke-width:0.25;"/>
<line x1="115.600000" y1="98.000000" x2="144.500000" y2="98.000000"  style="stroke:black; stroke-linecap:round; stroke-width:0.25;"/>
<line x1="130.250000" y1="156.000000" x2="134.250000" y2="156.000000"  style="stroke:black; stroke-linecap:round; stroke-width:0.25;"/>
<line x1="134.250000" y1="156.000000" x2="142.250000" y2="156.000000"  style="stroke:black; stroke-linecap:round; stroke-width:0.25;"/>
<line x1="134.250000" y1="186.000000" x2="142.250000" y2="186.000000"  style="stroke:black; stroke-linecap:round; stroke-width:0.25;"/>
<line x1="134.250000" y1="214.000000" x2="134.250000" y2="186.000000"  style="stroke:black; stroke-linecap:round; stroke-width:0.25;"/>
<line x1="134.250000" y1="214.000000" x2="134.250000" y2="214.000000"  style="stroke:black; stroke-linecap:round; stroke-width:0.25;"/>
<line x1="134.250000" y1="256.000000" x2="138.250000" y2="256.000000"  style="stroke:black; stroke-linecap:round; stroke-width:0.25;"/>
<line x1="138.250000" y1="256.000000" x2="224.500000" y2="256.000000"  style="stroke:black; stroke-linecap:round; stroke-width:0.25;"/>
<line x1="140.500000" y1="46.000000" x2="144.500000" y2="46.000000"  style="stroke:black; stroke-linecap:round; stroke-width:0.25;"/>
<line x1="142.250000" y1="156.000000" x2="142.250000" y2="178.000000"  style="stroke:black; stroke-linecap:round; stroke-width:0.25;"/>
<line x1="142.250000" y1="178.000000" x2="142.250000" y2="178.000000"  style="stroke:black; stroke-linecap:round; stroke-width:0.25;"/>
<line x1="142.250000" y1="178.000000" x2="146.250000" y2="178.000000"  style="stroke:black; stroke-linecap:round; stroke-width:0.25;"/>
<line x1="142.250000" y1="186.000000" x2="146.250000" y2="186.000000"  style="stroke:black; stroke-linecap:round; stroke-width:0.25;"/>
<line x1="144.500000" y1="46.000000" x2="152.500000" y2="46.000000"  style="stroke:black; stroke-linecap:round; stroke-width:0.25;"/>
<line x1="144.500000" y1="76.000000" x2="152.500000" y2="76.000000"  style="stroke:black; stroke-linecap:round; stroke-width:0.25;"/>
<line x1="144.500000" y1="98.000000" x2="144.500000" y2="76.000000"  style="stroke:black; stroke-linecap:round; stroke-width:0.25;"/>
<line x1="144.500000" y1="98.000000" x2="144.500000" y2="98.000000"  style="stroke:black; stroke-linecap:round; stroke-width:0.25;"/>
<line x1="152.500000" y1="46.000000" x2="152.500000" y2="68.000000"  style="stroke:black; stroke-linecap:round; stroke-width:0.25;"/>
<line x1="152.500000" y1="68.000000" x2="152.500000" y2="68.000000"  style="stroke:black; stroke-linecap:round; stroke-width:0.25;"/>
<line x1="152.500000" y1="68.000000" x2="156.500000" y2="68.000000"  style="stroke:black; stroke-linecap:round; stroke-width:0.25;"/>
<line x1="152.500000" y1="76.000000" x2="156.500000" y2="76.000000"  style="stroke:black; stroke-linecap:round; stroke-width:0.25;"/>
<line x1="170.250000" y1="182.000000" x2="174.250000" y2="182.000000"  style="stroke:black; stroke-linecap:round; stroke-width:0.25;"/>
<line x1="174.250000" y1="182.000000" x2="184.500000" y2="182.000000"  style="stroke:black; stroke-linecap:round; stroke-width:0.25;"/>
<line x1="180.500000" y1="72.000000" x2="184.500000" y2="72.000000"  style="stroke:black; stroke-linecap:round; stroke-width:0.25;"/>
<line x1="184.500000" y1="72.000000" x2="192.500000" y2="72.000000"  style="stroke:black; stroke-linecap:round; stroke-width:0.25;"/>
<line x1="184.500000" y1="134.000000" x2="192.500000" y2="134.000000"  style="stroke:black; stroke-linecap:round; stroke-width:0.25;"/>
<line x1="184.500000" y1="182.000000" x2="184.500000" y2="134.000000"  style="stroke:black; stroke-linecap:round; stroke-width:0.25;"/>
<line x1="184.500000" y1="182.000000" x2="184.500000" y2="182.000000"  style="stroke:black; stroke-linecap:round; stroke-width:0.25;"/>
<line x1="192.500000" y1="72.000000" x2="192.500000" y2="126.000000"  style="stroke:black; stroke-linecap:round; stroke-width:0.25;"/>
<line x1="192.500000" y1="126.000000" x2="192.500000" y2="126.000000"  style="stroke:black; stroke-linecap:round; stroke-width:0.25;"/>
<line x1="192.500000" y1="126.000000" x2="196.500000" y2="126.000000"  style="stroke:black; stroke-linecap:round; stroke-width:0.25;"/>
<line x1="192.500000" y1="134.000000" x2="196.500000" y2="134.000000"  style="stroke:black; stroke-linecap:round; stroke-width:0.25;"/>
<line x1="220.500000" y1="130.000000" x2="224.500000" y2="130.000000"  style="stroke:black; stroke-linecap:round; stroke-width:0.25;"/>
<line x1="224.500000" y1="130.000000" x2="232.500000" y2="130.000000"  style="stroke:black; stroke-linecap:round; stroke-width:0.25;"/>
<line x1="224.500000" y1="150.000000" x2="232.500000" y2="150.000000"  style="stroke:black; stroke-linecap:round; stroke-width:0.25;"/>
<line x1="224.500000" y1="256.000000" x2="224.500000" y2="150.000000"  style="stroke:black; stroke-linecap:round; stroke-width:0.25;"/>
<line x1="224.500000" y1="256.000000" x2="224.500000" y2="256.000000"  style="stroke:black; stroke-linecap:round; stroke-width:0.25;"/>
<line x1="232.500000" y1="130.000000" x2="232.500000" y2="142.000000"  style="stroke:black; stroke-linecap:round; stroke-width:0.25;"/>
<line x1="232.500000" y1="142.000000" x2="232.500000" y2="142.000000"  style="stroke:black; stroke-linecap:round; stroke-width:0.25;"/>
<line x1="232.500000" y1="142.000000" x2="236.500000" y2="142.000000"  style="stroke:black; stroke-linecap:round; stroke-width:0.25;"/>
<line x1="232.500000" y1="150.000000" x2="236.500000" y2="150.000000"  style="stroke:black; stroke-linecap:round; stroke-width:0.25;"/>
<line x1="260.500000" y1="146.000000" x2="264.500000" y2="146.000000"  style="stroke:black; stroke-linecap:round; stroke-width:0.25;"/>
<line x1="264.500000" y1="146.000000" x2="264.500000" y2="146.000000"  style="stroke:black; stroke-linecap:round; stroke-width:0.25;"/>
<line x1="264.500000" y1="146.000000" x2="268.500000" y2="146.000000"  style="stroke:black; stroke-linecap:round; stroke-width:0.25;"/>
<line x1="268.500000" y1="146.000000" x2="272.500000" y2="146.000000"  style="stroke:black; stroke-linecap:round; stroke-width:0.25;"/>
<line x1="272.500000" y1="146.000000" x2="282.500000" y2="146.000000"  style="stroke:black; stroke-linecap:round; stroke-width:0.25;"/>
</svg>
