<?xml version="1.0"?>
<svg xmlns="http://www.w3.org/2000/svg" xmlns:xlink="http://www.w3.org/1999/xlink" viewBox="0 0 516.300000 112.000000" width="258.150000mm" height="56.000000mm" version="1.1">
<a xlink:href="out-0x7fc5cd5c9760.svg">
<rect x="1.000000" y="1.000000" width="515.300000" height="111.000000" rx="0" ry="0" style="stroke:none;fill:#cccccc;"/>
<rect x="0.000000" y="0.000000" width="515.300000" height="111.000000" rx="0" ry="0" style="stroke:none;fill:#ffffff;"/>
</a>
<text x="10.000000" y="7.000000" font-family="Arial" font-size="7"></text>
<rect x="25.000000" y="45.000000" width="206.400000" height="24.000000" rx="0" ry="0" style="stroke:none;fill:#cccccc;"/>
<rect x="24.000000" y="44.000000" width="206.400000" height="24.000000" rx="0" ry="0" style="stroke:none;fill:#477881;"/>
<text x="127.200000" y="58.000000" font-family="Arial" font-size="7" text-anchor="middle" fill="#FFFFFF">vslider(level, -2e+01f, -7e+01f, 4e+01f, 0.1f)</text>
<circle cx="26.000000" cy="46.000000" r="1"/>
<rect x="254.750000" y="33.000000" width="24.000000" height="24.000000" rx="0" ry="0" style="stroke:none;fill:#cccccc;"/>
<rect x="253.750000" y="32.000000" width="24.000000" height="24.000000" rx="0" ry="0" style="stroke:none;fill:#f44800;"/>
<text x="265.750000" y="46.000000" font-family="Arial" font-size="7" text-anchor="middle" fill="#FFFFFF">6</text>
<circle cx="255.750000" cy="34.000000" r="1"/>
<a xlink:href="presence-0x7fc5cd5bd3b0.svg">
<rect x="247.400000" y="65.000000" width="38.700000" height="24.000000" rx="0" ry="0" style="stroke:none;fill:#cccccc;"/>
<rect x="246.400000" y="64.000000" width="38.700000" height="24.000000" rx="0" ry="0" style="stroke:none;fill:#003366;"/>
</a>
<a xlink:href="presence-0x7fc5cd5bd3b0.svg">
<text x="265.750000" y="78.000000" font-family="Arial" font-size="7" text-anchor="middle" fill="#FFFFFF">presence</text>
</a>
<circle cx="248.400000" cy="66.000000" r="1"/>
<rect x="302.100000" y="49.000000" width="24.000000" height="24.000000" rx="0" ry="0" style="stroke:none;fill:#cccccc;"/>
<rect x="301.100000" y="48.000000" width="24.000000" height="24.000000" rx="0" ry="0" style="stroke:none;fill:#4B71A1;"/>
<text x="313.100000" y="62.000000" font-family="Arial" font-size="7" text-anchor="middle" fill="#FFFFFF">*</text>
<circle cx="303.100000" cy="50.000000" r="1"/>
<line x1="298.100000" y1="55.000000" x2="301.100000" y2="56.000000"  transform="rotate(0.000000,301.100000,56.000000)" style="stroke: black; stroke-width:0.25;"/>
<line x1="298.100000" y1="57.000000" x2="301.100000" y2="56.000000"  transform="rotate(0.000000,301.100000,56.000000)" style="stroke: black; stroke-width:0.25;"/>
<line x1="298.100000" y1="63.000000" x2="301.100000" y2="64.000000"  transform="rotate(0.000000,301.100000,64.000000)" style="stroke: black; stroke-width:0.25;"/>
<line x1="298.100000" y1="65.000000" x2="301.100000" y2="64.000000"  transform="rotate(0.000000,301.100000,64.000000)" style="stroke: black; stroke-width:0.25;"/>
<rect x="342.100000" y="45.000000" width="24.000000" height="24.000000" rx="0" ry="0" style="stroke:none;fill:#cccccc;"/>
<rect x="341.100000" y="44.000000" width="24.000000" height="24.000000" rx="0" ry="0" style="stroke:none;fill:#4B71A1;"/>
<text x="353.100000" y="58.000000" font-family="Arial" font-size="7" text-anchor="middle" fill="#FFFFFF">+</text>
<circle cx="343.100000" cy="46.000000" r="1"/>
<line x1="338.100000" y1="51.000000" x2="341.100000" y2="52.000000"  transform="rotate(0.000000,341.100000,52.000000)" style="stroke: black; stroke-width:0.25;"/>
<line x1="338.100000" y1="53.000000" x2="341.100000" y2="52.000000"  transform="rotate(0.000000,341.100000,52.000000)" style="stroke: black; stroke-width:0.25;"/>
<line x1="338.100000" y1="59.000000" x2="341.100000" y2="60.000000"  transform="rotate(0.000000,341.100000,60.000000)" style="stroke: black; stroke-width:0.25;"/>
<line x1="338.100000" y1="61.000000" x2="341.100000" y2="60.000000"  transform="rotate(0.000000,341.100000,60.000000)" style="stroke: black; stroke-width:0.25;"/>
<a xlink:href="db2linear-0x7fc5cd5c4be0.svg">
<rect x="374.100000" y="45.000000" width="38.700000" height="24.000000" rx="0" ry="0" style="stroke:none;fill:#cccccc;"/>
<rect x="373.100000" y="44.000000" width="38.700000" height="24.000000" rx="0" ry="0" style="stroke:none;fill:#003366;"/>
</a>
<a xlink:href="db2linear-0x7fc5cd5c4be0.svg">
<text x="392.450000" y="58.000000" font-family="Arial" font-size="7" text-anchor="middle" fill="#FFFFFF">db2linear</text>
</a>
<circle cx="375.100000" cy="46.000000" r="1"/>
<line x1="370.100000" y1="55.000000" x2="373.100000" y2="56.000000"  transform="rotate(0.000000,373.100000,56.000000)" style="stroke: black; stroke-width:0.25;"/>
<line x1="370.100000" y1="57.000000" x2="373.100000" y2="56.000000"  transform="rotate(0.000000,373.100000,56.000000)" style="stroke: black; stroke-width:0.25;"/>
<a xlink:href="smooth-0x7fc5cd5bd160.svg">
<rect x="420.800000" y="45.000000" width="64.500000" height="24.000000" rx="0" ry="0" style="stroke:none;fill:#cccccc;"/>
<rect x="419.800000" y="44.000000" width="64.500000" height="24.000000" rx="0" ry="0" style="stroke:none;fill:#003366;"/>
</a>
<a xlink:href="smooth-0x7fc5cd5bd160.svg">
<text x="452.050000" y="58.000000" font-family="Arial" font-size="7" text-anchor="middle" fill="#FFFFFF">smooth(0.999f)</text>
</a>
<circle cx="421.800000" cy="46.000000" r="1"/>
<line x1="416.800000" y1="55.000000" x2="419.800000" y2="56.000000"  transform="rotate(0.000000,419.800000,56.000000)" style="stroke: black; stroke-width:0.25;"/>
<line x1="416.800000" y1="57.000000" x2="419.800000" y2="56.000000"  transform="rotate(0.000000,419.800000,56.000000)" style="stroke: black; stroke-width:0.25;"/>
<line x1="15.000000" y1="15.000000" x2="15.000000" y2="97.000000"  style="stroke: black; stroke-linecap:round; stroke-width:0.25; stroke-dasharray:3,3;"/>
<line x1="15.000000" y1="97.000000" x2="501.300000" y2="97.000000"  style="stroke: black; stroke-linecap:round; stroke-width:0.25; stroke-dasharray:3,3;"/>
<line x1="501.300000" y1="97.000000" x2="501.300000" y2="15.000000"  style="stroke: black; stroke-linecap:round; stroke-width:0.25; stroke-dasharray:3,3;"/>
<line x1="15.000000" y1="15.000000" x2="20.000000" y2="15.000000"  style="stroke: black; stroke-linecap:round; stroke-width:0.25; stroke-dasharray:3,3;"/>
<line x1="39.350000" y1="15.000000" x2="501.300000" y2="15.000000"  style="stroke: black; stroke-linecap:round; stroke-width:0.25; stroke-dasharray:3,3;"/>
<text x="20.000000" y="17.000000" font-family="Arial" font-size="7">gain</text>
<line x1="503.300000" y1="55.000000" x2="506.300000" y2="56.000000"  transform="rotate(0.000000,506.300000,56.000000)" style="stroke: black; stroke-width:0.25;"/>
<line x1="503.300000" y1="57.000000" x2="506.300000" y2="56.000000"  transform="rotate(0.000000,506.300000,56.000000)" style="stroke: black; stroke-width:0.25;"/>
<line x1="230.400000" y1="56.000000" x2="234.400000" y2="56.000000"  style="stroke:black; stroke-linecap:round; stroke-width:0.25;"/>
<line x1="234.400000" y1="24.000000" x2="242.400000" y2="24.000000"  style="stroke:black; stroke-linecap:round; stroke-width:0.25;"/>
<line x1="234.400000" y1="56.000000" x2="234.400000" y2="24.000000"  style="stroke:black; stroke-linecap:round; stroke-width:0.25;"/>
<line x1="234.400000" y1="56.000000" x2="234.400000" y2="56.000000"  style="stroke:black; stroke-linecap:round; stroke-width:0.25;"/>
<line x1="242.400000" y1="24.000000" x2="285.750000" y2="24.000000"  style="stroke:black; stroke-linecap:round; stroke-width:0.25;"/>
<line x1="277.750000" y1="44.000000" x2="281.750000" y2="44.000000"  style="stroke:black; stroke-linecap:round; stroke-width:0.25;"/>
<line x1="281.750000" y1="44.000000" x2="289.100000" y2="44.000000"  style="stroke:black; stroke-linecap:round; stroke-width:0.25;"/>
<line x1="285.100000" y1="76.000000" x2="289.100000" y2="76.000000"  style="stroke:black; stroke-linecap:round; stroke-width:0.25;"/>
<line x1="285.750000" y1="24.000000" x2="329.100000" y2="24.000000"  style="stroke:black; stroke-linecap:round; stroke-width:0.25;"/>
<line x1="289.100000" y1="64.000000" x2="297.100000" y2="64.000000"  style="stroke:black; stroke-linecap:round; stroke-width:0.25;"/>
<line x1="289.100000" y1="76.000000" x2="289.100000" y2="64.000000"  style="stroke:black; stroke-linecap:round; stroke-width:0.25;"/>
<line x1="289.100000" y1="76.000000" x2="289.100000" y2="76.000000"  style="stroke:black; stroke-linecap:round; stroke-width:0.25;"/>
<line x1="289.100000" y1="44.000000" x2="297.100000" y2="44.000000"  style="stroke:black; stroke-linecap:round; stroke-width:0.25;"/>
<line x1="297.100000" y1="56.000000" x2="301.100000" y2="56.000000"  style="stroke:black; stroke-linecap:round; stroke-width:0.25;"/>
<line x1="297.100000" y1="64.000000" x2="301.100000" y2="64.000000"  style="stroke:black; stroke-linecap:round; stroke-width:0.25;"/>
<line x1="297.100000" y1="44.000000" x2="297.100000" y2="56.000000"  style="stroke:black; stroke-linecap:round; stroke-width:0.25;"/>
<line x1="297.100000" y1="56.000000" x2="297.100000" y2="56.000000"  style="stroke:black; stroke-linecap:round; stroke-width:0.25;"/>
<line x1="325.100000" y1="60.000000" x2="329.100000" y2="60.000000"  style="stroke:black; stroke-linecap:round; stroke-width:0.25;"/>
<line x1="329.100000" y1="60.000000" x2="337.100000" y2="60.000000"  style="stroke:black; stroke-linecap:round; stroke-width:0.25;"/>
<line x1="329.100000" y1="24.000000" x2="337.100000" y2="24.000000"  style="stroke:black; stroke-linecap:round; stroke-width:0.25;"/>
<line x1="337.100000" y1="52.000000" x2="341.100000" y2="52.000000"  style="stroke:black; stroke-linecap:round; stroke-width:0.25;"/>
<line x1="337.100000" y1="60.000000" x2="341.100000" y2="60.000000"  style="stroke:black; stroke-linecap:round; stroke-width:0.25;"/>
<line x1="337.100000" y1="24.000000" x2="337.100000" y2="52.000000"  style="stroke:black; stroke-linecap:round; stroke-width:0.25;"/>
<line x1="337.100000" y1="52.000000" x2="337.100000" y2="52.000000"  style="stroke:black; stroke-linecap:round; stroke-width:0.25;"/>
<line x1="365.100000" y1="56.000000" x2="369.100000" y2="56.000000"  style="stroke:black; stroke-linecap:round; stroke-width:0.25;"/>
<line x1="369.100000" y1="56.000000" x2="369.100000" y2="56.000000"  style="stroke:black; stroke-linecap:round; stroke-width:0.25;"/>
<line x1="369.100000" y1="56.000000" x2="373.100000" y2="56.000000"  style="stroke:black; stroke-linecap:round; stroke-width:0.25;"/>
<line x1="411.800000" y1="56.000000" x2="415.800000" y2="56.000000"  style="stroke:black; stroke-linecap:round; stroke-width:0.25;"/>
<line x1="415.800000" y1="56.000000" x2="415.800000" y2="56.000000"  style="stroke:black; stroke-linecap:round; stroke-width:0.25;"/>
<line x1="415.800000" y1="56.000000" x2="419.800000" y2="56.000000"  style="stroke:black; stroke-linecap:round; stroke-width:0.25;"/>
<line x1="484.300000" y1="56.000000" x2="488.300000" y2="56.000000"  style="stroke:black; stroke-linecap:round; stroke-width:0.25;"/>
<line x1="488.300000" y1="56.000000" x2="488.300000" y2="56.000000"  style="stroke:black; stroke-linecap:round; stroke-width:0.25;"/>
<line x1="488.300000" y1="56.000000" x2="492.300000" y2="56.000000"  style="stroke:black; stroke-linecap:round; stroke-width:0.25;"/>
<line x1="492.300000" y1="56.000000" x2="496.300000" y2="56.000000"  style="stroke:black; stroke-linecap:round; stroke-width:0.25;"/>
<line x1="496.300000" y1="56.000000" x2="506.300000" y2="56.000000"  style="stroke:black; stroke-linecap:round; stroke-width:0.25;"/>
</svg>
