<?xml version="1.0"?>
<svg xmlns="http://www.w3.org/2000/svg" xmlns:xlink="http://www.w3.org/1999/xlink" viewBox="0 0 329.000000 400.000000" width="164.500000mm" height="200.000000mm" version="1.1">
<a xlink:href="if-0x7fc5cb5e8a90.svg">
<rect x="1.000000" y="1.000000" width="328.000000" height="399.000000" rx="0" ry="0" style="stroke:none;fill:#cccccc;"/>
<rect x="0.000000" y="0.000000" width="328.000000" height="399.000000" rx="0" ry="0" style="stroke:none;fill:#ffffff;"/>
</a>
<text x="10.000000" y="7.000000" font-family="Arial" font-size="7"></text>
<rect x="98.150000" y="25.000000" width="24.000000" height="24.000000" rx="0" ry="0" style="stroke:none;fill:#cccccc;"/>
<rect x="97.150000" y="24.000000" width="24.000000" height="24.000000" rx="0" ry="0" style="stroke:none;fill:#47945E;"/>
<text x="109.150000" y="38.000000" font-family="Arial" font-size="7" text-anchor="middle" fill="#FFFFFF">x</text>
<circle cx="99.150000" cy="26.000000" r="1"/>
<a xlink:href="modIndex-0x7fc5cb576980.svg">
<rect x="65.000000" y="57.000000" width="90.300000" height="24.000000" rx="0" ry="0" style="stroke:none;fill:#cccccc;"/>
<rect x="64.000000" y="56.000000" width="90.300000" height="24.000000" rx="0" ry="0" style="stroke:none;fill:#003366;"/>
</a>
<a xlink:href="modIndex-0x7fc5cb576980.svg">
<text x="109.150000" y="70.000000" font-family="Arial" font-size="7" text-anchor="middle" fill="#FFFFFF">modIndex_xp(502.068f)</text>
</a>
<circle cx="66.000000" cy="58.000000" r="1"/>
<rect x="171.300000" y="41.000000" width="24.000000" height="24.000000" rx="0" ry="0" style="stroke:none;fill:#cccccc;"/>
<rect x="170.300000" y="40.000000" width="24.000000" height="24.000000" rx="0" ry="0" style="stroke:none;fill:#4B71A1;"/>
<text x="182.300000" y="54.000000" font-family="Arial" font-size="7" text-anchor="middle" fill="#FFFFFF">&lt;</text>
<circle cx="172.300000" cy="42.000000" r="1"/>
<line x1="167.300000" y1="47.000000" x2="170.300000" y2="48.000000"  transform="rotate(0.000000,170.300000,48.000000)" style="stroke: black; stroke-width:0.25;"/>
<line x1="167.300000" y1="49.000000" x2="170.300000" y2="48.000000"  transform="rotate(0.000000,170.300000,48.000000)" style="stroke: black; stroke-width:0.25;"/>
<line x1="167.300000" y1="55.000000" x2="170.300000" y2="56.000000"  transform="rotate(0.000000,170.300000,56.000000)" style="stroke: black; stroke-width:0.25;"/>
<line x1="167.300000" y1="57.000000" x2="170.300000" y2="56.000000"  transform="rotate(0.000000,170.300000,56.000000)" style="stroke: black; stroke-width:0.25;"/>
<rect x="118.150000" y="99.000000" width="24.000000" height="24.000000" rx="0" ry="0" style="stroke:none;fill:#cccccc;"/>
<rect x="117.150000" y="98.000000" width="24.000000" height="24.000000" rx="0" ry="0" style="stroke:none;fill:#f44800;"/>
<text x="129.150000" y="112.000000" font-family="Arial" font-size="7" text-anchor="middle" fill="#FFFFFF">0</text>
<circle cx="119.150000" cy="100.000000" r="1"/>
<line x1="108.150000" y1="89.000000" x2="108.150000" y2="131.000000"  style="stroke: black; stroke-linecap:round; stroke-width:0.25; stroke-dasharray:3,3;"/>
<line x1="108.150000" y1="131.000000" x2="150.150000" y2="131.000000"  style="stroke: black; stroke-linecap:round; stroke-width:0.25; stroke-dasharray:3,3;"/>
<line x1="150.150000" y1="131.000000" x2="150.150000" y2="89.000000"  style="stroke: black; stroke-linecap:round; stroke-width:0.25; stroke-dasharray:3,3;"/>
<line x1="108.150000" y1="89.000000" x2="113.150000" y2="89.000000"  style="stroke: black; stroke-linecap:round; stroke-width:0.25; stroke-dasharray:3,3;"/>
<line x1="132.500000" y1="89.000000" x2="150.150000" y2="89.000000"  style="stroke: black; stroke-linecap:round; stroke-width:0.25; stroke-dasharray:3,3;"/>
<text x="113.150000" y="91.000000" font-family="Arial" font-size="7">eq2l</text>
<rect x="98.150000" y="141.000000" width="24.000000" height="24.000000" rx="0" ry="0" style="stroke:none;fill:#cccccc;"/>
<rect x="97.150000" y="140.000000" width="24.000000" height="24.000000" rx="0" ry="0" style="stroke:none;fill:#47945E;"/>
<text x="109.150000" y="154.000000" font-family="Arial" font-size="7" text-anchor="middle" fill="#FFFFFF">y0</text>
<circle cx="99.150000" cy="142.000000" r="1"/>
<rect x="38.150000" y="173.000000" width="24.000000" height="24.000000" rx="0" ry="0" style="stroke:none;fill:#cccccc;"/>
<rect x="37.150000" y="172.000000" width="24.000000" height="24.000000" rx="0" ry="0" style="stroke:none;fill:#47945E;"/>
<text x="49.150000" y="186.000000" font-family="Arial" font-size="7" text-anchor="middle" fill="#FFFFFF">x</text>
<circle cx="39.150000" cy="174.000000" r="1"/>
<rect x="38.150000" y="205.000000" width="24.000000" height="24.000000" rx="0" ry="0" style="stroke:none;fill:#cccccc;"/>
<rect x="37.150000" y="204.000000" width="24.000000" height="24.000000" rx="0" ry="0" style="stroke:none;fill:#47945E;"/>
<text x="49.150000" y="218.000000" font-family="Arial" font-size="7" text-anchor="middle" fill="#FFFFFF">x0</text>
<circle cx="39.150000" cy="206.000000" r="1"/>
<rect x="78.150000" y="189.000000" width="24.000000" height="24.000000" rx="0" ry="0" style="stroke:none;fill:#cccccc;"/>
<rect x="77.150000" y="188.000000" width="24.000000" height="24.000000" rx="0" ry="0" style="stroke:none;fill:#4B71A1;"/>
<text x="89.150000" y="202.000000" font-family="Arial" font-size="7" text-anchor="middle" fill="#FFFFFF">-</text>
<circle cx="79.150000" cy="190.000000" r="1"/>
<line x1="74.150000" y1="195.000000" x2="77.150000" y2="196.000000"  transform="rotate(0.000000,77.150000,196.000000)" style="stroke: black; stroke-width:0.25;"/>
<line x1="74.150000" y1="197.000000" x2="77.150000" y2="196.000000"  transform="rotate(0.000000,77.150000,196.000000)" style="stroke: black; stroke-width:0.25;"/>
<line x1="74.150000" y1="203.000000" x2="77.150000" y2="204.000000"  transform="rotate(0.000000,77.150000,204.000000)" style="stroke: black; stroke-width:0.25;"/>
<line x1="74.150000" y1="205.000000" x2="77.150000" y2="204.000000"  transform="rotate(0.000000,77.150000,204.000000)" style="stroke: black; stroke-width:0.25;"/>
<rect x="38.150000" y="247.000000" width="24.000000" height="24.000000" rx="0" ry="0" style="stroke:none;fill:#cccccc;"/>
<rect x="37.150000" y="246.000000" width="24.000000" height="24.000000" rx="0" ry="0" style="stroke:none;fill:#f44800;"/>
<text x="49.150000" y="260.000000" font-family="Arial" font-size="7" text-anchor="middle" fill="#FFFFFF">0</text>
<circle cx="39.150000" cy="248.000000" r="1"/>
<line x1="28.150000" y1="237.000000" x2="28.150000" y2="279.000000"  style="stroke: black; stroke-linecap:round; stroke-width:0.25; stroke-dasharray:3,3;"/>
<line x1="28.150000" y1="279.000000" x2="70.150000" y2="279.000000"  style="stroke: black; stroke-linecap:round; stroke-width:0.25; stroke-dasharray:3,3;"/>
<line x1="70.150000" y1="279.000000" x2="70.150000" y2="237.000000"  style="stroke: black; stroke-linecap:round; stroke-width:0.25; stroke-dasharray:3,3;"/>
<line x1="28.150000" y1="237.000000" x2="33.150000" y2="237.000000"  style="stroke: black; stroke-linecap:round; stroke-width:0.25; stroke-dasharray:3,3;"/>
<line x1="52.500000" y1="237.000000" x2="70.150000" y2="237.000000"  style="stroke: black; stroke-linecap:round; stroke-width:0.25; stroke-dasharray:3,3;"/>
<text x="33.150000" y="239.000000" font-family="Arial" font-size="7">eq2l</text>
<rect x="38.150000" y="289.000000" width="24.000000" height="24.000000" rx="0" ry="0" style="stroke:none;fill:#cccccc;"/>
<rect x="37.150000" y="288.000000" width="24.000000" height="24.000000" rx="0" ry="0" style="stroke:none;fill:#47945E;"/>
<text x="49.150000" y="302.000000" font-family="Arial" font-size="7" text-anchor="middle" fill="#FFFFFF">y0</text>
<circle cx="39.150000" cy="290.000000" r="1"/>
<rect x="88.150000" y="263.000000" width="24.000000" height="24.000000" rx="0" ry="0" style="stroke:none;fill:#cccccc;"/>
<rect x="87.150000" y="262.000000" width="24.000000" height="24.000000" rx="0" ry="0" style="stroke:none;fill:#4B71A1;"/>
<text x="99.150000" y="276.000000" font-family="Arial" font-size="7" text-anchor="middle" fill="#FFFFFF">-</text>
<circle cx="89.150000" cy="264.000000" r="1"/>
<line x1="84.150000" y1="269.000000" x2="87.150000" y2="270.000000"  transform="rotate(0.000000,87.150000,270.000000)" style="stroke: black; stroke-width:0.25;"/>
<line x1="84.150000" y1="271.000000" x2="87.150000" y2="270.000000"  transform="rotate(0.000000,87.150000,270.000000)" style="stroke: black; stroke-width:0.25;"/>
<line x1="84.150000" y1="277.000000" x2="87.150000" y2="278.000000"  transform="rotate(0.000000,87.150000,278.000000)" style="stroke: black; stroke-width:0.25;"/>
<line x1="84.150000" y1="279.000000" x2="87.150000" y2="278.000000"  transform="rotate(0.000000,87.150000,278.000000)" style="stroke: black; stroke-width:0.25;"/>
<rect x="128.150000" y="231.000000" width="24.000000" height="24.000000" rx="0" ry="0" style="stroke:none;fill:#cccccc;"/>
<rect x="127.150000" y="230.000000" width="24.000000" height="24.000000" rx="0" ry="0" style="stroke:none;fill:#4B71A1;"/>
<text x="139.150000" y="244.000000" font-family="Arial" font-size="7" text-anchor="middle" fill="#FFFFFF">*</text>
<circle cx="129.150000" cy="232.000000" r="1"/>
<line x1="124.150000" y1="237.000000" x2="127.150000" y2="238.000000"  transform="rotate(0.000000,127.150000,238.000000)" style="stroke: black; stroke-width:0.25;"/>
<line x1="124.150000" y1="239.000000" x2="127.150000" y2="238.000000"  transform="rotate(0.000000,127.150000,238.000000)" style="stroke: black; stroke-width:0.25;"/>
<line x1="124.150000" y1="245.000000" x2="127.150000" y2="246.000000"  transform="rotate(0.000000,127.150000,246.000000)" style="stroke: black; stroke-width:0.25;"/>
<line x1="124.150000" y1="247.000000" x2="127.150000" y2="246.000000"  transform="rotate(0.000000,127.150000,246.000000)" style="stroke: black; stroke-width:0.25;"/>
<a xlink:href="modIndex-0x7fc5cb576980.svg">
<rect x="25.000000" y="321.000000" width="90.300000" height="24.000000" rx="0" ry="0" style="stroke:none;fill:#cccccc;"/>
<rect x="24.000000" y="320.000000" width="90.300000" height="24.000000" rx="0" ry="0" style="stroke:none;fill:#003366;"/>
</a>
<a xlink:href="modIndex-0x7fc5cb576980.svg">
<text x="69.150000" y="334.000000" font-family="Arial" font-size="7" text-anchor="middle" fill="#FFFFFF">modIndex_xp(502.068f)</text>
</a>
<circle cx="26.000000" cy="322.000000" r="1"/>
<rect x="58.150000" y="353.000000" width="24.000000" height="24.000000" rx="0" ry="0" style="stroke:none;fill:#cccccc;"/>
<rect x="57.150000" y="352.000000" width="24.000000" height="24.000000" rx="0" ry="0" style="stroke:none;fill:#47945E;"/>
<text x="69.150000" y="366.000000" font-family="Arial" font-size="7" text-anchor="middle" fill="#FFFFFF">x0</text>
<circle cx="59.150000" cy="354.000000" r="1"/>
<rect x="131.300000" y="337.000000" width="24.000000" height="24.000000" rx="0" ry="0" style="stroke:none;fill:#cccccc;"/>
<rect x="130.300000" y="336.000000" width="24.000000" height="24.000000" rx="0" ry="0" style="stroke:none;fill:#4B71A1;"/>
<text x="142.300000" y="350.000000" font-family="Arial" font-size="7" text-anchor="middle" fill="#FFFFFF">-</text>
<circle cx="132.300000" cy="338.000000" r="1"/>
<line x1="127.300000" y1="343.000000" x2="130.300000" y2="344.000000"  transform="rotate(0.000000,130.300000,344.000000)" style="stroke: black; stroke-width:0.25;"/>
<line x1="127.300000" y1="345.000000" x2="130.300000" y2="344.000000"  transform="rotate(0.000000,130.300000,344.000000)" style="stroke: black; stroke-width:0.25;"/>
<line x1="127.300000" y1="351.000000" x2="130.300000" y2="352.000000"  transform="rotate(0.000000,130.300000,352.000000)" style="stroke: black; stroke-width:0.25;"/>
<line x1="127.300000" y1="353.000000" x2="130.300000" y2="352.000000"  transform="rotate(0.000000,130.300000,352.000000)" style="stroke: black; stroke-width:0.25;"/>
<rect x="171.300000" y="263.000000" width="24.000000" height="24.000000" rx="0" ry="0" style="stroke:none;fill:#cccccc;"/>
<rect x="170.300000" y="262.000000" width="24.000000" height="24.000000" rx="0" ry="0" style="stroke:none;fill:#4B71A1;"/>
<text x="182.300000" y="276.000000" font-family="Arial" font-size="7" text-anchor="middle" fill="#FFFFFF">/</text>
<circle cx="172.300000" cy="264.000000" r="1"/>
<line x1="167.300000" y1="269.000000" x2="170.300000" y2="270.000000"  transform="rotate(0.000000,170.300000,270.000000)" style="stroke: black; stroke-width:0.25;"/>
<line x1="167.300000" y1="271.000000" x2="170.300000" y2="270.000000"  transform="rotate(0.000000,170.300000,270.000000)" style="stroke: black; stroke-width:0.25;"/>
<line x1="167.300000" y1="277.000000" x2="170.300000" y2="278.000000"  transform="rotate(0.000000,170.300000,278.000000)" style="stroke: black; stroke-width:0.25;"/>
<line x1="167.300000" y1="279.000000" x2="170.300000" y2="278.000000"  transform="rotate(0.000000,170.300000,278.000000)" style="stroke: black; stroke-width:0.25;"/>
<rect x="211.300000" y="247.000000" width="24.000000" height="24.000000" rx="0" ry="0" style="stroke:none;fill:#cccccc;"/>
<rect x="210.300000" y="246.000000" width="24.000000" height="24.000000" rx="0" ry="0" style="stroke:none;fill:#4B71A1;"/>
<text x="222.300000" y="260.000000" font-family="Arial" font-size="7" text-anchor="middle" fill="#FFFFFF">+</text>
<circle cx="212.300000" cy="248.000000" r="1"/>
<line x1="207.300000" y1="253.000000" x2="210.300000" y2="254.000000"  transform="rotate(0.000000,210.300000,254.000000)" style="stroke: black; stroke-width:0.25;"/>
<line x1="207.300000" y1="255.000000" x2="210.300000" y2="254.000000"  transform="rotate(0.000000,210.300000,254.000000)" style="stroke: black; stroke-width:0.25;"/>
<line x1="207.300000" y1="261.000000" x2="210.300000" y2="262.000000"  transform="rotate(0.000000,210.300000,262.000000)" style="stroke: black; stroke-width:0.25;"/>
<line x1="207.300000" y1="263.000000" x2="210.300000" y2="262.000000"  transform="rotate(0.000000,210.300000,262.000000)" style="stroke: black; stroke-width:0.25;"/>
<rect x="259.300000" y="189.000000" width="38.700000" height="24.000000" rx="0" ry="0" style="stroke:none;fill:#cccccc;"/>
<rect x="258.300000" y="188.000000" width="38.700000" height="24.000000" rx="0" ry="0" style="stroke:none;fill:#4B71A1;"/>
<text x="277.650000" y="202.000000" font-family="Arial" font-size="7" text-anchor="middle" fill="#FFFFFF">select2</text>
<circle cx="260.300000" cy="190.000000" r="1"/>
<line x1="255.300000" y1="191.000000" x2="258.300000" y2="192.000000"  transform="rotate(0.000000,258.300000,192.000000)" style="stroke: black; stroke-width:0.25;"/>
<line x1="255.300000" y1="193.000000" x2="258.300000" y2="192.000000"  transform="rotate(0.000000,258.300000,192.000000)" style="stroke: black; stroke-width:0.25;"/>
<line x1="255.300000" y1="199.000000" x2="258.300000" y2="200.000000"  transform="rotate(0.000000,258.300000,200.000000)" style="stroke: black; stroke-width:0.25;"/>
<line x1="255.300000" y1="201.000000" x2="258.300000" y2="200.000000"  transform="rotate(0.000000,258.300000,200.000000)" style="stroke: black; stroke-width:0.25;"/>
<line x1="255.300000" y1="207.000000" x2="258.300000" y2="208.000000"  transform="rotate(0.000000,258.300000,208.000000)" style="stroke: black; stroke-width:0.25;"/>
<line x1="255.300000" y1="209.000000" x2="258.300000" y2="208.000000"  transform="rotate(0.000000,258.300000,208.000000)" style="stroke: black; stroke-width:0.25;"/>
<line x1="15.000000" y1="15.000000" x2="15.000000" y2="385.000000"  style="stroke: black; stroke-linecap:round; stroke-width:0.25; stroke-dasharray:3,3;"/>
<line x1="15.000000" y1="385.000000" x2="314.000000" y2="385.000000"  style="stroke: black; stroke-linecap:round; stroke-width:0.25; stroke-dasharray:3,3;"/>
<line x1="314.000000" y1="385.000000" x2="314.000000" y2="15.000000"  style="stroke: black; stroke-linecap:round; stroke-width:0.25; stroke-dasharray:3,3;"/>
<line x1="15.000000" y1="15.000000" x2="20.000000" y2="15.000000"  style="stroke: black; stroke-linecap:round; stroke-width:0.25; stroke-dasharray:3,3;"/>
<line x1="139.325000" y1="15.000000" x2="314.000000" y2="15.000000"  style="stroke: black; stroke-linecap:round; stroke-width:0.25; stroke-dasharray:3,3;"/>
<text x="20.000000" y="17.000000" font-family="Arial" font-size="7">if(x84,(((502... -) : /) : +)(0.0f)</text>
<line x1="316.000000" y1="199.000000" x2="319.000000" y2="200.000000"  transform="rotate(0.000000,319.000000,200.000000)" style="stroke: black; stroke-width:0.25;"/>
<line x1="316.000000" y1="201.000000" x2="319.000000" y2="200.000000"  transform="rotate(0.000000,319.000000,200.000000)" style="stroke: black; stroke-width:0.25;"/>
<line x1="61.150000" y1="184.000000" x2="65.150000" y2="184.000000"  style="stroke:black; stroke-linecap:round; stroke-width:0.25;"/>
<line x1="61.150000" y1="216.000000" x2="65.150000" y2="216.000000"  style="stroke:black; stroke-linecap:round; stroke-width:0.25;"/>
<line x1="61.150000" y1="258.000000" x2="65.150000" y2="258.000000"  style="stroke:black; stroke-linecap:round; stroke-width:0.25;"/>
<line x1="61.150000" y1="300.000000" x2="65.150000" y2="300.000000"  style="stroke:black; stroke-linecap:round; stroke-width:0.25;"/>
<line x1="65.150000" y1="184.000000" x2="73.150000" y2="184.000000"  style="stroke:black; stroke-linecap:round; stroke-width:0.25;"/>
<line x1="65.150000" y1="204.000000" x2="73.150000" y2="204.000000"  style="stroke:black; stroke-linecap:round; stroke-width:0.25;"/>
<line x1="65.150000" y1="216.000000" x2="65.150000" y2="204.000000"  style="stroke:black; stroke-linecap:round; stroke-width:0.25;"/>
<line x1="65.150000" y1="216.000000" x2="65.150000" y2="216.000000"  style="stroke:black; stroke-linecap:round; stroke-width:0.25;"/>
<line x1="65.150000" y1="258.000000" x2="75.150000" y2="258.000000"  style="stroke:black; stroke-linecap:round; stroke-width:0.25;"/>
<line x1="65.150000" y1="300.000000" x2="75.150000" y2="300.000000"  style="stroke:black; stroke-linecap:round; stroke-width:0.25;"/>
<line x1="73.150000" y1="184.000000" x2="73.150000" y2="196.000000"  style="stroke:black; stroke-linecap:round; stroke-width:0.25;"/>
<line x1="73.150000" y1="196.000000" x2="73.150000" y2="196.000000"  style="stroke:black; stroke-linecap:round; stroke-width:0.25;"/>
<line x1="73.150000" y1="196.000000" x2="77.150000" y2="196.000000"  style="stroke:black; stroke-linecap:round; stroke-width:0.25;"/>
<line x1="73.150000" y1="204.000000" x2="77.150000" y2="204.000000"  style="stroke:black; stroke-linecap:round; stroke-width:0.25;"/>
<line x1="75.150000" y1="258.000000" x2="83.150000" y2="258.000000"  style="stroke:black; stroke-linecap:round; stroke-width:0.25;"/>
<line x1="75.150000" y1="278.000000" x2="83.150000" y2="278.000000"  style="stroke:black; stroke-linecap:round; stroke-width:0.25;"/>
<line x1="75.150000" y1="300.000000" x2="75.150000" y2="278.000000"  style="stroke:black; stroke-linecap:round; stroke-width:0.25;"/>
<line x1="75.150000" y1="300.000000" x2="75.150000" y2="300.000000"  style="stroke:black; stroke-linecap:round; stroke-width:0.25;"/>
<line x1="81.150000" y1="364.000000" x2="85.150000" y2="364.000000"  style="stroke:black; stroke-linecap:round; stroke-width:0.25;"/>
<line x1="83.150000" y1="258.000000" x2="83.150000" y2="270.000000"  style="stroke:black; stroke-linecap:round; stroke-width:0.25;"/>
<line x1="83.150000" y1="270.000000" x2="83.150000" y2="270.000000"  style="stroke:black; stroke-linecap:round; stroke-width:0.25;"/>
<line x1="83.150000" y1="270.000000" x2="87.150000" y2="270.000000"  style="stroke:black; stroke-linecap:round; stroke-width:0.25;"/>
<line x1="83.150000" y1="278.000000" x2="87.150000" y2="278.000000"  style="stroke:black; stroke-linecap:round; stroke-width:0.25;"/>
<line x1="85.150000" y1="364.000000" x2="118.300000" y2="364.000000"  style="stroke:black; stroke-linecap:round; stroke-width:0.25;"/>
<line x1="101.150000" y1="200.000000" x2="105.150000" y2="200.000000"  style="stroke:black; stroke-linecap:round; stroke-width:0.25;"/>
<line x1="105.150000" y1="200.000000" x2="115.150000" y2="200.000000"  style="stroke:black; stroke-linecap:round; stroke-width:0.25;"/>
<line x1="111.150000" y1="274.000000" x2="115.150000" y2="274.000000"  style="stroke:black; stroke-linecap:round; stroke-width:0.25;"/>
<line x1="114.300000" y1="332.000000" x2="118.300000" y2="332.000000"  style="stroke:black; stroke-linecap:round; stroke-width:0.25;"/>
<line x1="115.150000" y1="200.000000" x2="123.150000" y2="200.000000"  style="stroke:black; stroke-linecap:round; stroke-width:0.25;"/>
<line x1="115.150000" y1="246.000000" x2="123.150000" y2="246.000000"  style="stroke:black; stroke-linecap:round; stroke-width:0.25;"/>
<line x1="115.150000" y1="274.000000" x2="115.150000" y2="246.000000"  style="stroke:black; stroke-linecap:round; stroke-width:0.25;"/>
<line x1="115.150000" y1="274.000000" x2="115.150000" y2="274.000000"  style="stroke:black; stroke-linecap:round; stroke-width:0.25;"/>
<line x1="118.300000" y1="332.000000" x2="126.300000" y2="332.000000"  style="stroke:black; stroke-linecap:round; stroke-width:0.25;"/>
<line x1="118.300000" y1="352.000000" x2="126.300000" y2="352.000000"  style="stroke:black; stroke-linecap:round; stroke-width:0.25;"/>
<line x1="118.300000" y1="364.000000" x2="118.300000" y2="352.000000"  style="stroke:black; stroke-linecap:round; stroke-width:0.25;"/>
<line x1="118.300000" y1="364.000000" x2="118.300000" y2="364.000000"  style="stroke:black; stroke-linecap:round; stroke-width:0.25;"/>
<line x1="121.150000" y1="36.000000" x2="125.150000" y2="36.000000"  style="stroke:black; stroke-linecap:round; stroke-width:0.25;"/>
<line x1="121.150000" y1="152.000000" x2="125.150000" y2="152.000000"  style="stroke:black; stroke-linecap:round; stroke-width:0.25;"/>
<line x1="123.150000" y1="200.000000" x2="123.150000" y2="238.000000"  style="stroke:black; stroke-linecap:round; stroke-width:0.25;"/>
<line x1="123.150000" y1="238.000000" x2="123.150000" y2="238.000000"  style="stroke:black; stroke-linecap:round; stroke-width:0.25;"/>
<line x1="123.150000" y1="238.000000" x2="127.150000" y2="238.000000"  style="stroke:black; stroke-linecap:round; stroke-width:0.25;"/>
<line x1="123.150000" y1="246.000000" x2="127.150000" y2="246.000000"  style="stroke:black; stroke-linecap:round; stroke-width:0.25;"/>
<line x1="125.150000" y1="36.000000" x2="158.300000" y2="36.000000"  style="stroke:black; stroke-linecap:round; stroke-width:0.25;"/>
<line x1="125.150000" y1="152.000000" x2="198.300000" y2="152.000000"  style="stroke:black; stroke-linecap:round; stroke-width:0.25;"/>
<line x1="126.300000" y1="332.000000" x2="126.300000" y2="344.000000"  style="stroke:black; stroke-linecap:round; stroke-width:0.25;"/>
<line x1="126.300000" y1="344.000000" x2="126.300000" y2="344.000000"  style="stroke:black; stroke-linecap:round; stroke-width:0.25;"/>
<line x1="126.300000" y1="344.000000" x2="130.300000" y2="344.000000"  style="stroke:black; stroke-linecap:round; stroke-width:0.25;"/>
<line x1="126.300000" y1="352.000000" x2="130.300000" y2="352.000000"  style="stroke:black; stroke-linecap:round; stroke-width:0.25;"/>
<line x1="141.150000" y1="110.000000" x2="145.150000" y2="110.000000"  style="stroke:black; stroke-linecap:round; stroke-width:0.25;"/>
<line x1="145.150000" y1="110.000000" x2="155.150000" y2="110.000000"  style="stroke:black; stroke-linecap:round; stroke-width:0.25;"/>
<line x1="151.150000" y1="242.000000" x2="155.150000" y2="242.000000"  style="stroke:black; stroke-linecap:round; stroke-width:0.25;"/>
<line x1="154.300000" y1="68.000000" x2="158.300000" y2="68.000000"  style="stroke:black; stroke-linecap:round; stroke-width:0.25;"/>
<line x1="154.300000" y1="348.000000" x2="158.300000" y2="348.000000"  style="stroke:black; stroke-linecap:round; stroke-width:0.25;"/>
<line x1="155.150000" y1="110.000000" x2="238.300000" y2="110.000000"  style="stroke:black; stroke-linecap:round; stroke-width:0.25;"/>
<line x1="155.150000" y1="242.000000" x2="158.300000" y2="242.000000"  style="stroke:black; stroke-linecap:round; stroke-width:0.25;"/>
<line x1="158.300000" y1="36.000000" x2="166.300000" y2="36.000000"  style="stroke:black; stroke-linecap:round; stroke-width:0.25;"/>
<line x1="158.300000" y1="56.000000" x2="166.300000" y2="56.000000"  style="stroke:black; stroke-linecap:round; stroke-width:0.25;"/>
<line x1="158.300000" y1="68.000000" x2="158.300000" y2="56.000000"  style="stroke:black; stroke-linecap:round; stroke-width:0.25;"/>
<line x1="158.300000" y1="68.000000" x2="158.300000" y2="68.000000"  style="stroke:black; stroke-linecap:round; stroke-width:0.25;"/>
<line x1="158.300000" y1="242.000000" x2="166.300000" y2="242.000000"  style="stroke:black; stroke-linecap:round; stroke-width:0.25;"/>
<line x1="158.300000" y1="278.000000" x2="166.300000" y2="278.000000"  style="stroke:black; stroke-linecap:round; stroke-width:0.25;"/>
<line x1="158.300000" y1="348.000000" x2="158.300000" y2="278.000000"  style="stroke:black; stroke-linecap:round; stroke-width:0.25;"/>
<line x1="158.300000" y1="348.000000" x2="158.300000" y2="348.000000"  style="stroke:black; stroke-linecap:round; stroke-width:0.25;"/>
<line x1="166.300000" y1="36.000000" x2="166.300000" y2="48.000000"  style="stroke:black; stroke-linecap:round; stroke-width:0.25;"/>
<line x1="166.300000" y1="48.000000" x2="166.300000" y2="48.000000"  style="stroke:black; stroke-linecap:round; stroke-width:0.25;"/>
<line x1="166.300000" y1="48.000000" x2="170.300000" y2="48.000000"  style="stroke:black; stroke-linecap:round; stroke-width:0.25;"/>
<line x1="166.300000" y1="56.000000" x2="170.300000" y2="56.000000"  style="stroke:black; stroke-linecap:round; stroke-width:0.25;"/>
<line x1="166.300000" y1="242.000000" x2="166.300000" y2="270.000000"  style="stroke:black; stroke-linecap:round; stroke-width:0.25;"/>
<line x1="166.300000" y1="270.000000" x2="166.300000" y2="270.000000"  style="stroke:black; stroke-linecap:round; stroke-width:0.25;"/>
<line x1="166.300000" y1="270.000000" x2="170.300000" y2="270.000000"  style="stroke:black; stroke-linecap:round; stroke-width:0.25;"/>
<line x1="166.300000" y1="278.000000" x2="170.300000" y2="278.000000"  style="stroke:black; stroke-linecap:round; stroke-width:0.25;"/>
<line x1="194.300000" y1="52.000000" x2="198.300000" y2="52.000000"  style="stroke:black; stroke-linecap:round; stroke-width:0.25;"/>
<line x1="194.300000" y1="274.000000" x2="198.300000" y2="274.000000"  style="stroke:black; stroke-linecap:round; stroke-width:0.25;"/>
<line x1="198.300000" y1="52.000000" x2="238.300000" y2="52.000000"  style="stroke:black; stroke-linecap:round; stroke-width:0.25;"/>
<line x1="198.300000" y1="152.000000" x2="206.300000" y2="152.000000"  style="stroke:black; stroke-linecap:round; stroke-width:0.25;"/>
<line x1="198.300000" y1="262.000000" x2="206.300000" y2="262.000000"  style="stroke:black; stroke-linecap:round; stroke-width:0.25;"/>
<line x1="198.300000" y1="274.000000" x2="198.300000" y2="262.000000"  style="stroke:black; stroke-linecap:round; stroke-width:0.25;"/>
<line x1="198.300000" y1="274.000000" x2="198.300000" y2="274.000000"  style="stroke:black; stroke-linecap:round; stroke-width:0.25;"/>
<line x1="206.300000" y1="152.000000" x2="206.300000" y2="254.000000"  style="stroke:black; stroke-linecap:round; stroke-width:0.25;"/>
<line x1="206.300000" y1="254.000000" x2="206.300000" y2="254.000000"  style="stroke:black; stroke-linecap:round; stroke-width:0.25;"/>
<line x1="206.300000" y1="254.000000" x2="210.300000" y2="254.000000"  style="stroke:black; stroke-linecap:round; stroke-width:0.25;"/>
<line x1="206.300000" y1="262.000000" x2="210.300000" y2="262.000000"  style="stroke:black; stroke-linecap:round; stroke-width:0.25;"/>
<line x1="234.300000" y1="258.000000" x2="238.300000" y2="258.000000"  style="stroke:black; stroke-linecap:round; stroke-width:0.25;"/>
<line x1="238.300000" y1="52.000000" x2="254.300000" y2="52.000000"  style="stroke:black; stroke-linecap:round; stroke-width:0.25;"/>
<line x1="238.300000" y1="110.000000" x2="246.300000" y2="110.000000"  style="stroke:black; stroke-linecap:round; stroke-width:0.25;"/>
<line x1="238.300000" y1="208.000000" x2="254.300000" y2="208.000000"  style="stroke:black; stroke-linecap:round; stroke-width:0.25;"/>
<line x1="238.300000" y1="258.000000" x2="238.300000" y2="208.000000"  style="stroke:black; stroke-linecap:round; stroke-width:0.25;"/>
<line x1="238.300000" y1="258.000000" x2="238.300000" y2="258.000000"  style="stroke:black; stroke-linecap:round; stroke-width:0.25;"/>
<line x1="246.300000" y1="110.000000" x2="246.300000" y2="200.000000"  style="stroke:black; stroke-linecap:round; stroke-width:0.25;"/>
<line x1="246.300000" y1="200.000000" x2="254.300000" y2="200.000000"  style="stroke:black; stroke-linecap:round; stroke-width:0.25;"/>
<line x1="254.300000" y1="52.000000" x2="254.300000" y2="192.000000"  style="stroke:black; stroke-linecap:round; stroke-width:0.25;"/>
<line x1="254.300000" y1="192.000000" x2="254.300000" y2="192.000000"  style="stroke:black; stroke-linecap:round; stroke-width:0.25;"/>
<line x1="254.300000" y1="192.000000" x2="258.300000" y2="192.000000"  style="stroke:black; stroke-linecap:round; stroke-width:0.25;"/>
<line x1="254.300000" y1="200.000000" x2="258.300000" y2="200.000000"  style="stroke:black; stroke-linecap:round; stroke-width:0.25;"/>
<line x1="254.300000" y1="208.000000" x2="258.300000" y2="208.000000"  style="stroke:black; stroke-linecap:round; stroke-width:0.25;"/>
<line x1="297.000000" y1="200.000000" x2="301.000000" y2="200.000000"  style="stroke:black; stroke-linecap:round; stroke-width:0.25;"/>
<line x1="301.000000" y1="200.000000" x2="301.000000" y2="200.000000"  style="stroke:black; stroke-linecap:round; stroke-width:0.25;"/>
<line x1="301.000000" y1="200.000000" x2="305.000000" y2="200.000000"  style="stroke:black; stroke-linecap:round; stroke-width:0.25;"/>
<line x1="305.000000" y1="200.000000" x2="309.000000" y2="200.000000"  style="stroke:black; stroke-linecap:round; stroke-width:0.25;"/>
<line x1="309.000000" y1="200.000000" x2="319.000000" y2="200.000000"  style="stroke:black; stroke-linecap:round; stroke-width:0.25;"/>
</svg>
