<?xml version="1.0"?>
<svg xmlns="http://www.w3.org/2000/svg" xmlns:xlink="http://www.w3.org/1999/xlink" viewBox="0 0 692.000000 256.000000" width="346.000000mm" height="128.000000mm" version="1.1">
<a xlink:href="A-0x7fc5cd5c8bd0.svg">
<rect x="1.000000" y="1.000000" width="691.000000" height="255.000000" rx="0" ry="0" style="stroke:none;fill:#cccccc;"/>
<rect x="0.000000" y="0.000000" width="691.000000" height="255.000000" rx="0" ry="0" style="stroke:none;fill:#ffffff;"/>
</a>
<text x="10.000000" y="7.000000" font-family="Arial" font-size="7"></text>
<a xlink:href="sub-0x7fc5cd5c7a20.svg">
<rect x="155.000000" y="189.000000" width="24.000000" height="24.000000" rx="0" ry="0" style="stroke:none;fill:#cccccc;"/>
<rect x="154.000000" y="188.000000" width="24.000000" height="24.000000" rx="0" ry="0" style="stroke:none;fill:#003366;"/>
</a>
<a xlink:href="sub-0x7fc5cd5c7a20.svg">
<text x="166.000000" y="202.000000" font-family="Arial" font-size="7" text-anchor="middle" fill="#FFFFFF">sub</text>
</a>
<circle cx="156.000000" cy="190.000000" r="1"/>
<line x1="151.000000" y1="195.000000" x2="154.000000" y2="196.000000"  transform="rotate(0.000000,154.000000,196.000000)" style="stroke: black; stroke-width:0.25;"/>
<line x1="151.000000" y1="197.000000" x2="154.000000" y2="196.000000"  transform="rotate(0.000000,154.000000,196.000000)" style="stroke: black; stroke-width:0.25;"/>
<line x1="151.000000" y1="203.000000" x2="154.000000" y2="204.000000"  transform="rotate(0.000000,154.000000,204.000000)" style="stroke: black; stroke-width:0.25;"/>
<line x1="151.000000" y1="205.000000" x2="154.000000" y2="204.000000"  transform="rotate(0.000000,154.000000,204.000000)" style="stroke: black; stroke-width:0.25;"/>
<a xlink:href="k1-0x7fc5cd58f090.svg">
<rect x="195.000000" y="149.000000" width="24.000000" height="24.000000" rx="0" ry="0" style="stroke:none;fill:#cccccc;"/>
<rect x="194.000000" y="148.000000" width="24.000000" height="24.000000" rx="0" ry="0" style="stroke:none;fill:#003366;"/>
</a>
<a xlink:href="k1-0x7fc5cd58f090.svg">
<text x="206.000000" y="162.000000" font-family="Arial" font-size="7" text-anchor="middle" fill="#FFFFFF">k1</text>
</a>
<circle cx="216.000000" cy="170.000000" r="1"/>
<rect x="215.000000" y="117.000000" width="24.000000" height="24.000000" rx="0" ry="0" style="stroke:none;fill:#cccccc;"/>
<rect x="214.000000" y="116.000000" width="24.000000" height="24.000000" rx="0" ry="0" style="stroke:none;fill:#f44800;"/>
<text x="226.000000" y="130.000000" font-family="Arial" font-size="7" text-anchor="middle" fill="#FFFFFF">1</text>
<circle cx="236.000000" cy="138.000000" r="1"/>
<a xlink:href="k2-0x7fc5cd58c920.svg">
<rect x="215.000000" y="85.000000" width="24.000000" height="24.000000" rx="0" ry="0" style="stroke:none;fill:#cccccc;"/>
<rect x="214.000000" y="84.000000" width="24.000000" height="24.000000" rx="0" ry="0" style="stroke:none;fill:#003366;"/>
</a>
<a xlink:href="k2-0x7fc5cd58c920.svg">
<text x="226.000000" y="98.000000" font-family="Arial" font-size="7" text-anchor="middle" fill="#FFFFFF">k2</text>
</a>
<circle cx="236.000000" cy="106.000000" r="1"/>
<rect x="175.000000" y="101.000000" width="24.000000" height="24.000000" rx="0" ry="0" style="stroke:none;fill:#cccccc;"/>
<rect x="174.000000" y="100.000000" width="24.000000" height="24.000000" rx="0" ry="0" style="stroke:none;fill:#4B71A1;"/>
<text x="186.000000" y="114.000000" font-family="Arial" font-size="7" text-anchor="middle" fill="#FFFFFF">+</text>
<circle cx="196.000000" cy="122.000000" r="1"/>
<line x1="201.000000" y1="115.000000" x2="198.000000" y2="116.000000"  transform="rotate(0.000000,198.000000,116.000000)" style="stroke: black; stroke-width:0.25;"/>
<line x1="201.000000" y1="117.000000" x2="198.000000" y2="116.000000"  transform="rotate(0.000000,198.000000,116.000000)" style="stroke: black; stroke-width:0.25;"/>
<line x1="201.000000" y1="107.000000" x2="198.000000" y2="108.000000"  transform="rotate(0.000000,198.000000,108.000000)" style="stroke: black; stroke-width:0.25;"/>
<line x1="201.000000" y1="109.000000" x2="198.000000" y2="108.000000"  transform="rotate(0.000000,198.000000,108.000000)" style="stroke: black; stroke-width:0.25;"/>
<rect x="135.000000" y="117.000000" width="24.000000" height="24.000000" rx="0" ry="0" style="stroke:none;fill:#cccccc;"/>
<rect x="134.000000" y="116.000000" width="24.000000" height="24.000000" rx="0" ry="0" style="stroke:none;fill:#4B71A1;"/>
<text x="146.000000" y="130.000000" font-family="Arial" font-size="7" text-anchor="middle" fill="#FFFFFF">*</text>
<circle cx="156.000000" cy="138.000000" r="1"/>
<line x1="161.000000" y1="131.000000" x2="158.000000" y2="132.000000"  transform="rotate(0.000000,158.000000,132.000000)" style="stroke: black; stroke-width:0.25;"/>
<line x1="161.000000" y1="133.000000" x2="158.000000" y2="132.000000"  transform="rotate(0.000000,158.000000,132.000000)" style="stroke: black; stroke-width:0.25;"/>
<line x1="161.000000" y1="123.000000" x2="158.000000" y2="124.000000"  transform="rotate(0.000000,158.000000,124.000000)" style="stroke: black; stroke-width:0.25;"/>
<line x1="161.000000" y1="125.000000" x2="158.000000" y2="124.000000"  transform="rotate(0.000000,158.000000,124.000000)" style="stroke: black; stroke-width:0.25;"/>
<rect x="95.000000" y="121.000000" width="24.000000" height="24.000000" rx="0" ry="0" style="stroke:none;fill:#cccccc;"/>
<rect x="94.000000" y="120.000000" width="24.000000" height="24.000000" rx="0" ry="0" style="stroke:none;fill:#4B71A1;"/>
<text x="106.000000" y="134.000000" font-family="Arial" font-size="7" text-anchor="middle" fill="#FFFFFF">*</text>
<circle cx="116.000000" cy="142.000000" r="1"/>
<line x1="121.000000" y1="135.000000" x2="118.000000" y2="136.000000"  transform="rotate(0.000000,118.000000,136.000000)" style="stroke: black; stroke-width:0.25;"/>
<line x1="121.000000" y1="137.000000" x2="118.000000" y2="136.000000"  transform="rotate(0.000000,118.000000,136.000000)" style="stroke: black; stroke-width:0.25;"/>
<line x1="121.000000" y1="127.000000" x2="118.000000" y2="128.000000"  transform="rotate(0.000000,118.000000,128.000000)" style="stroke: black; stroke-width:0.25;"/>
<line x1="121.000000" y1="129.000000" x2="118.000000" y2="128.000000"  transform="rotate(0.000000,118.000000,128.000000)" style="stroke: black; stroke-width:0.25;"/>
<rect x="215.000000" y="45.000000" width="24.000000" height="24.000000" rx="0" ry="0" style="stroke:none;fill:#cccccc;"/>
<rect x="214.000000" y="44.000000" width="24.000000" height="24.000000" rx="0" ry="0" style="stroke:none;fill:#f44800;"/>
<text x="226.000000" y="58.000000" font-family="Arial" font-size="7" text-anchor="middle" fill="#FFFFFF">1</text>
<circle cx="236.000000" cy="66.000000" r="1"/>
<rect x="175.000000" y="49.000000" width="24.000000" height="24.000000" rx="0" ry="0" style="stroke:none;fill:#cccccc;"/>
<rect x="174.000000" y="48.000000" width="24.000000" height="24.000000" rx="0" ry="0" style="stroke:none;fill:#4B71A1;"/>
<text x="186.000000" y="62.000000" font-family="Arial" font-size="7" text-anchor="middle" fill="#FFFFFF">@</text>
<circle cx="196.000000" cy="70.000000" r="1"/>
<line x1="201.000000" y1="63.000000" x2="198.000000" y2="64.000000"  transform="rotate(0.000000,198.000000,64.000000)" style="stroke: black; stroke-width:0.25;"/>
<line x1="201.000000" y1="65.000000" x2="198.000000" y2="64.000000"  transform="rotate(0.000000,198.000000,64.000000)" style="stroke: black; stroke-width:0.25;"/>
<line x1="201.000000" y1="55.000000" x2="198.000000" y2="56.000000"  transform="rotate(0.000000,198.000000,56.000000)" style="stroke: black; stroke-width:0.25;"/>
<line x1="201.000000" y1="57.000000" x2="198.000000" y2="56.000000"  transform="rotate(0.000000,198.000000,56.000000)" style="stroke: black; stroke-width:0.25;"/>
<a xlink:href="k2-0x7fc5cd58c920.svg">
<rect x="135.000000" y="45.000000" width="24.000000" height="24.000000" rx="0" ry="0" style="stroke:none;fill:#cccccc;"/>
<rect x="134.000000" y="44.000000" width="24.000000" height="24.000000" rx="0" ry="0" style="stroke:none;fill:#003366;"/>
</a>
<a xlink:href="k2-0x7fc5cd58c920.svg">
<text x="146.000000" y="58.000000" font-family="Arial" font-size="7" text-anchor="middle" fill="#FFFFFF">k2</text>
</a>
<circle cx="156.000000" cy="66.000000" r="1"/>
<rect x="95.000000" y="49.000000" width="24.000000" height="24.000000" rx="0" ry="0" style="stroke:none;fill:#cccccc;"/>
<rect x="94.000000" y="48.000000" width="24.000000" height="24.000000" rx="0" ry="0" style="stroke:none;fill:#4B71A1;"/>
<text x="106.000000" y="62.000000" font-family="Arial" font-size="7" text-anchor="middle" fill="#FFFFFF">*</text>
<circle cx="116.000000" cy="70.000000" r="1"/>
<line x1="121.000000" y1="63.000000" x2="118.000000" y2="64.000000"  transform="rotate(0.000000,118.000000,64.000000)" style="stroke: black; stroke-width:0.25;"/>
<line x1="121.000000" y1="65.000000" x2="118.000000" y2="64.000000"  transform="rotate(0.000000,118.000000,64.000000)" style="stroke: black; stroke-width:0.25;"/>
<line x1="121.000000" y1="55.000000" x2="118.000000" y2="56.000000"  transform="rotate(0.000000,118.000000,56.000000)" style="stroke: black; stroke-width:0.25;"/>
<line x1="121.000000" y1="57.000000" x2="118.000000" y2="56.000000"  transform="rotate(0.000000,118.000000,56.000000)" style="stroke: black; stroke-width:0.25;"/>
<line x1="286.000000" y1="200.000000" x2="286.000000" y2="196.000000"  style="stroke:black; stroke-linecap:round; stroke-width:0.25;"/>
<line x1="286.000000" y1="196.000000" x2="290.000000" y2="196.000000"  style="stroke:black; stroke-linecap:round; stroke-width:0.25;"/>
<line x1="290.000000" y1="196.000000" x2="290.000000" y2="200.000000"  style="stroke:black; stroke-linecap:round; stroke-width:0.25;"/>
<a xlink:href="k2-0x7fc5cd58c920.svg">
<rect x="453.000000" y="33.000000" width="24.000000" height="24.000000" rx="0" ry="0" style="stroke:none;fill:#cccccc;"/>
<rect x="452.000000" y="32.000000" width="24.000000" height="24.000000" rx="0" ry="0" style="stroke:none;fill:#003366;"/>
</a>
<a xlink:href="k2-0x7fc5cd58c920.svg">
<text x="464.000000" y="46.000000" font-family="Arial" font-size="7" text-anchor="middle" fill="#FFFFFF">k2</text>
</a>
<circle cx="454.000000" cy="34.000000" r="1"/>
<rect x="493.000000" y="29.000000" width="24.000000" height="24.000000" rx="0" ry="0" style="stroke:none;fill:#cccccc;"/>
<rect x="492.000000" y="28.000000" width="24.000000" height="24.000000" rx="0" ry="0" style="stroke:none;fill:#4B71A1;"/>
<text x="504.000000" y="42.000000" font-family="Arial" font-size="7" text-anchor="middle" fill="#FFFFFF">*</text>
<circle cx="494.000000" cy="30.000000" r="1"/>
<line x1="489.000000" y1="35.000000" x2="492.000000" y2="36.000000"  transform="rotate(0.000000,492.000000,36.000000)" style="stroke: black; stroke-width:0.25;"/>
<line x1="489.000000" y1="37.000000" x2="492.000000" y2="36.000000"  transform="rotate(0.000000,492.000000,36.000000)" style="stroke: black; stroke-width:0.25;"/>
<line x1="489.000000" y1="43.000000" x2="492.000000" y2="44.000000"  transform="rotate(0.000000,492.000000,44.000000)" style="stroke: black; stroke-width:0.25;"/>
<line x1="489.000000" y1="45.000000" x2="492.000000" y2="44.000000"  transform="rotate(0.000000,492.000000,44.000000)" style="stroke: black; stroke-width:0.25;"/>
<rect x="373.000000" y="105.000000" width="24.000000" height="24.000000" rx="0" ry="0" style="stroke:none;fill:#cccccc;"/>
<rect x="372.000000" y="104.000000" width="24.000000" height="24.000000" rx="0" ry="0" style="stroke:none;fill:#f44800;"/>
<text x="384.000000" y="118.000000" font-family="Arial" font-size="7" text-anchor="middle" fill="#FFFFFF">1</text>
<circle cx="374.000000" cy="106.000000" r="1"/>
<rect x="413.000000" y="101.000000" width="24.000000" height="24.000000" rx="0" ry="0" style="stroke:none;fill:#cccccc;"/>
<rect x="412.000000" y="100.000000" width="24.000000" height="24.000000" rx="0" ry="0" style="stroke:none;fill:#4B71A1;"/>
<text x="424.000000" y="114.000000" font-family="Arial" font-size="7" text-anchor="middle" fill="#FFFFFF">@</text>
<circle cx="414.000000" cy="102.000000" r="1"/>
<line x1="409.000000" y1="107.000000" x2="412.000000" y2="108.000000"  transform="rotate(0.000000,412.000000,108.000000)" style="stroke: black; stroke-width:0.25;"/>
<line x1="409.000000" y1="109.000000" x2="412.000000" y2="108.000000"  transform="rotate(0.000000,412.000000,108.000000)" style="stroke: black; stroke-width:0.25;"/>
<line x1="409.000000" y1="115.000000" x2="412.000000" y2="116.000000"  transform="rotate(0.000000,412.000000,116.000000)" style="stroke: black; stroke-width:0.25;"/>
<line x1="409.000000" y1="117.000000" x2="412.000000" y2="116.000000"  transform="rotate(0.000000,412.000000,116.000000)" style="stroke: black; stroke-width:0.25;"/>
<a xlink:href="k1-0x7fc5cd58f090.svg">
<rect x="473.000000" y="73.000000" width="24.000000" height="24.000000" rx="0" ry="0" style="stroke:none;fill:#cccccc;"/>
<rect x="472.000000" y="72.000000" width="24.000000" height="24.000000" rx="0" ry="0" style="stroke:none;fill:#003366;"/>
</a>
<a xlink:href="k1-0x7fc5cd58f090.svg">
<text x="484.000000" y="86.000000" font-family="Arial" font-size="7" text-anchor="middle" fill="#FFFFFF">k1</text>
</a>
<circle cx="474.000000" cy="74.000000" r="1"/>
<rect x="453.000000" y="105.000000" width="24.000000" height="24.000000" rx="0" ry="0" style="stroke:none;fill:#cccccc;"/>
<rect x="452.000000" y="104.000000" width="24.000000" height="24.000000" rx="0" ry="0" style="stroke:none;fill:#f44800;"/>
<text x="464.000000" y="118.000000" font-family="Arial" font-size="7" text-anchor="middle" fill="#FFFFFF">1</text>
<circle cx="454.000000" cy="106.000000" r="1"/>
<a xlink:href="k2-0x7fc5cd58c920.svg">
<rect x="453.000000" y="137.000000" width="24.000000" height="24.000000" rx="0" ry="0" style="stroke:none;fill:#cccccc;"/>
<rect x="452.000000" y="136.000000" width="24.000000" height="24.000000" rx="0" ry="0" style="stroke:none;fill:#003366;"/>
</a>
<a xlink:href="k2-0x7fc5cd58c920.svg">
<text x="464.000000" y="150.000000" font-family="Arial" font-size="7" text-anchor="middle" fill="#FFFFFF">k2</text>
</a>
<circle cx="454.000000" cy="138.000000" r="1"/>
<rect x="493.000000" y="121.000000" width="24.000000" height="24.000000" rx="0" ry="0" style="stroke:none;fill:#cccccc;"/>
<rect x="492.000000" y="120.000000" width="24.000000" height="24.000000" rx="0" ry="0" style="stroke:none;fill:#4B71A1;"/>
<text x="504.000000" y="134.000000" font-family="Arial" font-size="7" text-anchor="middle" fill="#FFFFFF">+</text>
<circle cx="494.000000" cy="122.000000" r="1"/>
<line x1="489.000000" y1="127.000000" x2="492.000000" y2="128.000000"  transform="rotate(0.000000,492.000000,128.000000)" style="stroke: black; stroke-width:0.25;"/>
<line x1="489.000000" y1="129.000000" x2="492.000000" y2="128.000000"  transform="rotate(0.000000,492.000000,128.000000)" style="stroke: black; stroke-width:0.25;"/>
<line x1="489.000000" y1="135.000000" x2="492.000000" y2="136.000000"  transform="rotate(0.000000,492.000000,136.000000)" style="stroke: black; stroke-width:0.25;"/>
<line x1="489.000000" y1="137.000000" x2="492.000000" y2="136.000000"  transform="rotate(0.000000,492.000000,136.000000)" style="stroke: black; stroke-width:0.25;"/>
<rect x="533.000000" y="105.000000" width="24.000000" height="24.000000" rx="0" ry="0" style="stroke:none;fill:#cccccc;"/>
<rect x="532.000000" y="104.000000" width="24.000000" height="24.000000" rx="0" ry="0" style="stroke:none;fill:#4B71A1;"/>
<text x="544.000000" y="118.000000" font-family="Arial" font-size="7" text-anchor="middle" fill="#FFFFFF">*</text>
<circle cx="534.000000" cy="106.000000" r="1"/>
<line x1="529.000000" y1="111.000000" x2="532.000000" y2="112.000000"  transform="rotate(0.000000,532.000000,112.000000)" style="stroke: black; stroke-width:0.25;"/>
<line x1="529.000000" y1="113.000000" x2="532.000000" y2="112.000000"  transform="rotate(0.000000,532.000000,112.000000)" style="stroke: black; stroke-width:0.25;"/>
<line x1="529.000000" y1="119.000000" x2="532.000000" y2="120.000000"  transform="rotate(0.000000,532.000000,120.000000)" style="stroke: black; stroke-width:0.25;"/>
<line x1="529.000000" y1="121.000000" x2="532.000000" y2="120.000000"  transform="rotate(0.000000,532.000000,120.000000)" style="stroke: black; stroke-width:0.25;"/>
<rect x="573.000000" y="101.000000" width="24.000000" height="24.000000" rx="0" ry="0" style="stroke:none;fill:#cccccc;"/>
<rect x="572.000000" y="100.000000" width="24.000000" height="24.000000" rx="0" ry="0" style="stroke:none;fill:#4B71A1;"/>
<text x="584.000000" y="114.000000" font-family="Arial" font-size="7" text-anchor="middle" fill="#FFFFFF">*</text>
<circle cx="574.000000" cy="102.000000" r="1"/>
<line x1="569.000000" y1="107.000000" x2="572.000000" y2="108.000000"  transform="rotate(0.000000,572.000000,108.000000)" style="stroke: black; stroke-width:0.25;"/>
<line x1="569.000000" y1="109.000000" x2="572.000000" y2="108.000000"  transform="rotate(0.000000,572.000000,108.000000)" style="stroke: black; stroke-width:0.25;"/>
<line x1="569.000000" y1="115.000000" x2="572.000000" y2="116.000000"  transform="rotate(0.000000,572.000000,116.000000)" style="stroke: black; stroke-width:0.25;"/>
<line x1="569.000000" y1="117.000000" x2="572.000000" y2="116.000000"  transform="rotate(0.000000,572.000000,116.000000)" style="stroke: black; stroke-width:0.25;"/>
<rect x="393.000000" y="177.000000" width="24.000000" height="24.000000" rx="0" ry="0" style="stroke:none;fill:#cccccc;"/>
<rect x="392.000000" y="176.000000" width="24.000000" height="24.000000" rx="0" ry="0" style="stroke:none;fill:#f44800;"/>
<text x="404.000000" y="190.000000" font-family="Arial" font-size="7" text-anchor="middle" fill="#FFFFFF">1</text>
<circle cx="394.000000" cy="178.000000" r="1"/>
<rect x="393.000000" y="209.000000" width="24.000000" height="24.000000" rx="0" ry="0" style="stroke:none;fill:#cccccc;"/>
<rect x="392.000000" y="208.000000" width="24.000000" height="24.000000" rx="0" ry="0" style="stroke:none;fill:#f44800;"/>
<text x="404.000000" y="222.000000" font-family="Arial" font-size="7" text-anchor="middle" fill="#FFFFFF">1</text>
<circle cx="394.000000" cy="210.000000" r="1"/>
<rect x="433.000000" y="193.000000" width="24.000000" height="24.000000" rx="0" ry="0" style="stroke:none;fill:#cccccc;"/>
<rect x="432.000000" y="192.000000" width="24.000000" height="24.000000" rx="0" ry="0" style="stroke:none;fill:#4B71A1;"/>
<text x="444.000000" y="206.000000" font-family="Arial" font-size="7" text-anchor="middle" fill="#FFFFFF">+</text>
<circle cx="434.000000" cy="194.000000" r="1"/>
<line x1="429.000000" y1="199.000000" x2="432.000000" y2="200.000000"  transform="rotate(0.000000,432.000000,200.000000)" style="stroke: black; stroke-width:0.25;"/>
<line x1="429.000000" y1="201.000000" x2="432.000000" y2="200.000000"  transform="rotate(0.000000,432.000000,200.000000)" style="stroke: black; stroke-width:0.25;"/>
<line x1="429.000000" y1="207.000000" x2="432.000000" y2="208.000000"  transform="rotate(0.000000,432.000000,208.000000)" style="stroke: black; stroke-width:0.25;"/>
<line x1="429.000000" y1="209.000000" x2="432.000000" y2="208.000000"  transform="rotate(0.000000,432.000000,208.000000)" style="stroke: black; stroke-width:0.25;"/>
<rect x="473.000000" y="189.000000" width="24.000000" height="24.000000" rx="0" ry="0" style="stroke:none;fill:#cccccc;"/>
<rect x="472.000000" y="188.000000" width="24.000000" height="24.000000" rx="0" ry="0" style="stroke:none;fill:#4B71A1;"/>
<text x="484.000000" y="202.000000" font-family="Arial" font-size="7" text-anchor="middle" fill="#FFFFFF">@</text>
<circle cx="474.000000" cy="190.000000" r="1"/>
<line x1="469.000000" y1="195.000000" x2="472.000000" y2="196.000000"  transform="rotate(0.000000,472.000000,196.000000)" style="stroke: black; stroke-width:0.25;"/>
<line x1="469.000000" y1="197.000000" x2="472.000000" y2="196.000000"  transform="rotate(0.000000,472.000000,196.000000)" style="stroke: black; stroke-width:0.25;"/>
<line x1="469.000000" y1="203.000000" x2="472.000000" y2="204.000000"  transform="rotate(0.000000,472.000000,204.000000)" style="stroke: black; stroke-width:0.25;"/>
<line x1="469.000000" y1="205.000000" x2="472.000000" y2="204.000000"  transform="rotate(0.000000,472.000000,204.000000)" style="stroke: black; stroke-width:0.25;"/>
<rect x="513.000000" y="193.000000" width="24.000000" height="24.000000" rx="0" ry="0" style="stroke:none;fill:#cccccc;"/>
<rect x="512.000000" y="192.000000" width="24.000000" height="24.000000" rx="0" ry="0" style="stroke:none;fill:#f44800;"/>
<text x="524.000000" y="206.000000" font-family="Arial" font-size="7" text-anchor="middle" fill="#FFFFFF">1</text>
<circle cx="514.000000" cy="194.000000" r="1"/>
<rect x="553.000000" y="189.000000" width="24.000000" height="24.000000" rx="0" ry="0" style="stroke:none;fill:#cccccc;"/>
<rect x="552.000000" y="188.000000" width="24.000000" height="24.000000" rx="0" ry="0" style="stroke:none;fill:#4B71A1;"/>
<text x="564.000000" y="202.000000" font-family="Arial" font-size="7" text-anchor="middle" fill="#FFFFFF">*</text>
<circle cx="554.000000" cy="190.000000" r="1"/>
<line x1="549.000000" y1="195.000000" x2="552.000000" y2="196.000000"  transform="rotate(0.000000,552.000000,196.000000)" style="stroke: black; stroke-width:0.25;"/>
<line x1="549.000000" y1="197.000000" x2="552.000000" y2="196.000000"  transform="rotate(0.000000,552.000000,196.000000)" style="stroke: black; stroke-width:0.25;"/>
<line x1="549.000000" y1="203.000000" x2="552.000000" y2="204.000000"  transform="rotate(0.000000,552.000000,204.000000)" style="stroke: black; stroke-width:0.25;"/>
<line x1="549.000000" y1="205.000000" x2="552.000000" y2="204.000000"  transform="rotate(0.000000,552.000000,204.000000)" style="stroke: black; stroke-width:0.25;"/>
<line x1="15.000000" y1="15.000000" x2="15.000000" y2="241.000000"  style="stroke: black; stroke-linecap:round; stroke-width:0.25; stroke-dasharray:3,3;"/>
<line x1="15.000000" y1="241.000000" x2="677.000000" y2="241.000000"  style="stroke: black; stroke-linecap:round; stroke-width:0.25; stroke-dasharray:3,3;"/>
<line x1="677.000000" y1="241.000000" x2="677.000000" y2="15.000000"  style="stroke: black; stroke-linecap:round; stroke-width:0.25; stroke-dasharray:3,3;"/>
<line x1="15.000000" y1="15.000000" x2="20.000000" y2="15.000000"  style="stroke: black; stroke-linecap:round; stroke-width:0.25; stroke-dasharray:3,3;"/>
<line x1="119.975000" y1="15.000000" x2="677.000000" y2="15.000000"  style="stroke: black; stroke-linecap:round; stroke-width:0.25; stroke-dasharray:3,3;"/>
<text x="20.000000" y="17.000000" font-family="Arial" font-size="7">tf2((1.0f,(((... /) : +) : /)</text>
<line x1="679.000000" y1="127.000000" x2="682.000000" y2="128.000000"  transform="rotate(0.000000,682.000000,128.000000)" style="stroke: black; stroke-width:0.25;"/>
<line x1="679.000000" y1="129.000000" x2="682.000000" y2="128.000000"  transform="rotate(0.000000,682.000000,128.000000)" style="stroke: black; stroke-width:0.25;"/>
<line x1="10.000000" y1="128.000000" x2="20.000000" y2="128.000000"  style="stroke:black; stroke-linecap:round; stroke-width:0.25;"/>
<line x1="20.000000" y1="128.000000" x2="24.000000" y2="128.000000"  style="stroke:black; stroke-linecap:round; stroke-width:0.25;"/>
<line x1="24.000000" y1="128.000000" x2="28.000000" y2="128.000000"  style="stroke:black; stroke-linecap:round; stroke-width:0.25;"/>
<line x1="28.000000" y1="128.000000" x2="36.000000" y2="128.000000"  style="stroke:black; stroke-linecap:round; stroke-width:0.25;"/>
<line x1="36.000000" y1="128.000000" x2="36.000000" y2="204.000000"  style="stroke:black; stroke-linecap:round; stroke-width:0.25;"/>
<line x1="36.000000" y1="204.000000" x2="36.000000" y2="204.000000"  style="stroke:black; stroke-linecap:round; stroke-width:0.25;"/>
<line x1="36.000000" y1="204.000000" x2="44.000000" y2="204.000000"  style="stroke:black; stroke-linecap:round; stroke-width:0.25;"/>
<line x1="44.000000" y1="112.000000" x2="44.000000" y2="112.000000"  style="stroke:black; stroke-linecap:round; stroke-width:0.25;"/>
<line x1="44.000000" y1="112.000000" x2="44.000000" y2="196.000000"  style="stroke:black; stroke-linecap:round; stroke-width:0.25;"/>
<line x1="44.000000" y1="196.000000" x2="44.000000" y2="196.000000"  style="stroke:black; stroke-linecap:round; stroke-width:0.25;"/>
<line x1="44.000000" y1="196.000000" x2="150.000000" y2="196.000000"  style="stroke:black; stroke-linecap:round; stroke-width:0.25;"/>
<line x1="44.000000" y1="204.000000" x2="150.000000" y2="204.000000"  style="stroke:black; stroke-linecap:round; stroke-width:0.25;"/>
<line x1="48.000000" y1="112.000000" x2="44.000000" y2="112.000000"  style="stroke:black; stroke-linecap:round; stroke-width:0.25;"/>
<line x1="52.000000" y1="112.000000" x2="48.000000" y2="112.000000"  style="stroke:black; stroke-linecap:round; stroke-width:0.25;"/>
<line x1="90.000000" y1="60.000000" x2="52.000000" y2="112.000000"  style="stroke:black; stroke-linecap:round; stroke-width:0.25;"/>
<line x1="90.000000" y1="132.000000" x2="52.000000" y2="112.000000"  style="stroke:black; stroke-linecap:round; stroke-width:0.25;"/>
<line x1="94.000000" y1="60.000000" x2="90.000000" y2="60.000000"  style="stroke:black; stroke-linecap:round; stroke-width:0.25;"/>
<line x1="94.000000" y1="132.000000" x2="90.000000" y2="132.000000"  style="stroke:black; stroke-linecap:round; stroke-width:0.25;"/>
<line x1="122.000000" y1="56.000000" x2="118.000000" y2="56.000000"  style="stroke:black; stroke-linecap:round; stroke-width:0.25;"/>
<line x1="122.000000" y1="64.000000" x2="118.000000" y2="64.000000"  style="stroke:black; stroke-linecap:round; stroke-width:0.25;"/>
<line x1="122.000000" y1="64.000000" x2="122.000000" y2="64.000000"  style="stroke:black; stroke-linecap:round; stroke-width:0.25;"/>
<line x1="122.000000" y1="76.000000" x2="122.000000" y2="64.000000"  style="stroke:black; stroke-linecap:round; stroke-width:0.25;"/>
<line x1="122.000000" y1="128.000000" x2="118.000000" y2="128.000000"  style="stroke:black; stroke-linecap:round; stroke-width:0.25;"/>
<line x1="122.000000" y1="136.000000" x2="118.000000" y2="136.000000"  style="stroke:black; stroke-linecap:round; stroke-width:0.25;"/>
<line x1="122.000000" y1="136.000000" x2="122.000000" y2="136.000000"  style="stroke:black; stroke-linecap:round; stroke-width:0.25;"/>
<line x1="122.000000" y1="180.000000" x2="122.000000" y2="136.000000"  style="stroke:black; stroke-linecap:round; stroke-width:0.25;"/>
<line x1="130.000000" y1="56.000000" x2="122.000000" y2="56.000000"  style="stroke:black; stroke-linecap:round; stroke-width:0.25;"/>
<line x1="130.000000" y1="76.000000" x2="122.000000" y2="76.000000"  style="stroke:black; stroke-linecap:round; stroke-width:0.25;"/>
<line x1="130.000000" y1="128.000000" x2="122.000000" y2="128.000000"  style="stroke:black; stroke-linecap:round; stroke-width:0.25;"/>
<line x1="130.000000" y1="180.000000" x2="122.000000" y2="180.000000"  style="stroke:black; stroke-linecap:round; stroke-width:0.25;"/>
<line x1="134.000000" y1="56.000000" x2="130.000000" y2="56.000000"  style="stroke:black; stroke-linecap:round; stroke-width:0.25;"/>
<line x1="134.000000" y1="128.000000" x2="130.000000" y2="128.000000"  style="stroke:black; stroke-linecap:round; stroke-width:0.25;"/>
<line x1="146.000000" y1="76.000000" x2="130.000000" y2="76.000000"  style="stroke:black; stroke-linecap:round; stroke-width:0.25;"/>
<line x1="150.000000" y1="196.000000" x2="154.000000" y2="196.000000"  style="stroke:black; stroke-linecap:round; stroke-width:0.25;"/>
<line x1="150.000000" y1="204.000000" x2="154.000000" y2="204.000000"  style="stroke:black; stroke-linecap:round; stroke-width:0.25;"/>
<line x1="162.000000" y1="76.000000" x2="146.000000" y2="76.000000"  style="stroke:black; stroke-linecap:round; stroke-width:0.25;"/>
<line x1="162.000000" y1="124.000000" x2="158.000000" y2="124.000000"  style="stroke:black; stroke-linecap:round; stroke-width:0.25;"/>
<line x1="162.000000" y1="132.000000" x2="158.000000" y2="132.000000"  style="stroke:black; stroke-linecap:round; stroke-width:0.25;"/>
<line x1="162.000000" y1="132.000000" x2="162.000000" y2="132.000000"  style="stroke:black; stroke-linecap:round; stroke-width:0.25;"/>
<line x1="162.000000" y1="160.000000" x2="162.000000" y2="132.000000"  style="stroke:black; stroke-linecap:round; stroke-width:0.25;"/>
<line x1="170.000000" y1="60.000000" x2="170.000000" y2="60.000000"  style="stroke:black; stroke-linecap:round; stroke-width:0.25;"/>
<line x1="170.000000" y1="60.000000" x2="170.000000" y2="76.000000"  style="stroke:black; stroke-linecap:round; stroke-width:0.25;"/>
<line x1="170.000000" y1="76.000000" x2="162.000000" y2="76.000000"  style="stroke:black; stroke-linecap:round; stroke-width:0.25;"/>
<line x1="170.000000" y1="112.000000" x2="170.000000" y2="112.000000"  style="stroke:black; stroke-linecap:round; stroke-width:0.25;"/>
<line x1="170.000000" y1="112.000000" x2="170.000000" y2="124.000000"  style="stroke:black; stroke-linecap:round; stroke-width:0.25;"/>
<line x1="170.000000" y1="124.000000" x2="162.000000" y2="124.000000"  style="stroke:black; stroke-linecap:round; stroke-width:0.25;"/>
<line x1="170.000000" y1="160.000000" x2="162.000000" y2="160.000000"  style="stroke:black; stroke-linecap:round; stroke-width:0.25;"/>
<line x1="174.000000" y1="60.000000" x2="170.000000" y2="60.000000"  style="stroke:black; stroke-linecap:round; stroke-width:0.25;"/>
<line x1="174.000000" y1="112.000000" x2="170.000000" y2="112.000000"  style="stroke:black; stroke-linecap:round; stroke-width:0.25;"/>
<line x1="178.000000" y1="200.000000" x2="182.000000" y2="200.000000"  style="stroke:black; stroke-linecap:round; stroke-width:0.25;"/>
<line x1="182.000000" y1="200.000000" x2="288.000000" y2="200.000000"  style="stroke:black; stroke-linecap:round; stroke-width:0.25;"/>
<line x1="186.000000" y1="180.000000" x2="130.000000" y2="180.000000"  style="stroke:black; stroke-linecap:round; stroke-width:0.25;"/>
<line x1="190.000000" y1="160.000000" x2="170.000000" y2="160.000000"  style="stroke:black; stroke-linecap:round; stroke-width:0.25;"/>
<line x1="194.000000" y1="160.000000" x2="190.000000" y2="160.000000"  style="stroke:black; stroke-linecap:round; stroke-width:0.25;"/>
<line x1="202.000000" y1="56.000000" x2="198.000000" y2="56.000000"  style="stroke:black; stroke-linecap:round; stroke-width:0.25;"/>
<line x1="202.000000" y1="64.000000" x2="198.000000" y2="64.000000"  style="stroke:black; stroke-linecap:round; stroke-width:0.25;"/>
<line x1="202.000000" y1="64.000000" x2="202.000000" y2="64.000000"  style="stroke:black; stroke-linecap:round; stroke-width:0.25;"/>
<line x1="202.000000" y1="76.000000" x2="202.000000" y2="64.000000"  style="stroke:black; stroke-linecap:round; stroke-width:0.25;"/>
<line x1="202.000000" y1="108.000000" x2="198.000000" y2="108.000000"  style="stroke:black; stroke-linecap:round; stroke-width:0.25;"/>
<line x1="202.000000" y1="116.000000" x2="198.000000" y2="116.000000"  style="stroke:black; stroke-linecap:round; stroke-width:0.25;"/>
<line x1="202.000000" y1="116.000000" x2="202.000000" y2="116.000000"  style="stroke:black; stroke-linecap:round; stroke-width:0.25;"/>
<line x1="202.000000" y1="128.000000" x2="202.000000" y2="116.000000"  style="stroke:black; stroke-linecap:round; stroke-width:0.25;"/>
<line x1="210.000000" y1="56.000000" x2="202.000000" y2="56.000000"  style="stroke:black; stroke-linecap:round; stroke-width:0.25;"/>
<line x1="210.000000" y1="76.000000" x2="202.000000" y2="76.000000"  style="stroke:black; stroke-linecap:round; stroke-width:0.25;"/>
<line x1="210.000000" y1="96.000000" x2="210.000000" y2="96.000000"  style="stroke:black; stroke-linecap:round; stroke-width:0.25;"/>
<line x1="210.000000" y1="96.000000" x2="210.000000" y2="108.000000"  style="stroke:black; stroke-linecap:round; stroke-width:0.25;"/>
<line x1="210.000000" y1="108.000000" x2="202.000000" y2="108.000000"  style="stroke:black; stroke-linecap:round; stroke-width:0.25;"/>
<line x1="210.000000" y1="128.000000" x2="202.000000" y2="128.000000"  style="stroke:black; stroke-linecap:round; stroke-width:0.25;"/>
<line x1="214.000000" y1="56.000000" x2="210.000000" y2="56.000000"  style="stroke:black; stroke-linecap:round; stroke-width:0.25;"/>
<line x1="214.000000" y1="96.000000" x2="210.000000" y2="96.000000"  style="stroke:black; stroke-linecap:round; stroke-width:0.25;"/>
<line x1="214.000000" y1="128.000000" x2="210.000000" y2="128.000000"  style="stroke:black; stroke-linecap:round; stroke-width:0.25;"/>
<line x1="226.000000" y1="76.000000" x2="210.000000" y2="76.000000"  style="stroke:black; stroke-linecap:round; stroke-width:0.25;"/>
<line x1="242.000000" y1="76.000000" x2="226.000000" y2="76.000000"  style="stroke:black; stroke-linecap:round; stroke-width:0.25;"/>
<line x1="242.000000" y1="180.000000" x2="186.000000" y2="180.000000"  style="stroke:black; stroke-linecap:round; stroke-width:0.25;"/>
<line x1="280.000000" y1="112.000000" x2="242.000000" y2="76.000000"  style="stroke:black; stroke-linecap:round; stroke-width:0.25;"/>
<line x1="280.000000" y1="112.000000" x2="242.000000" y2="180.000000"  style="stroke:black; stroke-linecap:round; stroke-width:0.25;"/>
<line x1="284.000000" y1="112.000000" x2="280.000000" y2="112.000000"  style="stroke:black; stroke-linecap:round; stroke-width:0.25;"/>
<line x1="288.000000" y1="112.000000" x2="284.000000" y2="112.000000"  style="stroke:black; stroke-linecap:round; stroke-width:0.25;"/>
<line x1="288.000000" y1="112.000000" x2="288.000000" y2="112.000000"  style="stroke:black; stroke-linecap:round; stroke-width:0.25;"/>
<line x1="288.000000" y1="196.000000" x2="288.000000" y2="112.000000"  style="stroke:black; stroke-linecap:round; stroke-width:0.25;"/>
<line x1="288.000000" y1="200.000000" x2="290.000000" y2="200.000000"  style="stroke:black; stroke-linecap:round; stroke-width:0.25;"/>
<line x1="290.000000" y1="200.000000" x2="296.000000" y2="200.000000"  style="stroke:black; stroke-linecap:round; stroke-width:0.25;"/>
<line x1="296.000000" y1="128.000000" x2="304.000000" y2="128.000000"  style="stroke:black; stroke-linecap:round; stroke-width:0.25;"/>
<line x1="296.000000" y1="200.000000" x2="296.000000" y2="128.000000"  style="stroke:black; stroke-linecap:round; stroke-width:0.25;"/>
<line x1="296.000000" y1="200.000000" x2="296.000000" y2="200.000000"  style="stroke:black; stroke-linecap:round; stroke-width:0.25;"/>
<line x1="304.000000" y1="128.000000" x2="308.000000" y2="128.000000"  style="stroke:black; stroke-linecap:round; stroke-width:0.25;"/>
<line x1="308.000000" y1="128.000000" x2="312.000000" y2="128.000000"  style="stroke:black; stroke-linecap:round; stroke-width:0.25;"/>
<line x1="312.000000" y1="128.000000" x2="368.000000" y2="24.000000"  style="stroke:black; stroke-linecap:round; stroke-width:0.25;"/>
<line x1="312.000000" y1="128.000000" x2="368.000000" y2="96.000000"  style="stroke:black; stroke-linecap:round; stroke-width:0.25;"/>
<line x1="312.000000" y1="128.000000" x2="368.000000" y2="168.000000"  style="stroke:black; stroke-linecap:round; stroke-width:0.25;"/>
<line x1="368.000000" y1="24.000000" x2="448.000000" y2="24.000000"  style="stroke:black; stroke-linecap:round; stroke-width:0.25;"/>
<line x1="368.000000" y1="96.000000" x2="384.000000" y2="96.000000"  style="stroke:black; stroke-linecap:round; stroke-width:0.25;"/>
<line x1="368.000000" y1="168.000000" x2="388.000000" y2="168.000000"  style="stroke:black; stroke-linecap:round; stroke-width:0.25;"/>
<line x1="384.000000" y1="96.000000" x2="400.000000" y2="96.000000"  style="stroke:black; stroke-linecap:round; stroke-width:0.25;"/>
<line x1="388.000000" y1="168.000000" x2="424.000000" y2="168.000000"  style="stroke:black; stroke-linecap:round; stroke-width:0.25;"/>
<line x1="396.000000" y1="116.000000" x2="400.000000" y2="116.000000"  style="stroke:black; stroke-linecap:round; stroke-width:0.25;"/>
<line x1="400.000000" y1="96.000000" x2="408.000000" y2="96.000000"  style="stroke:black; stroke-linecap:round; stroke-width:0.25;"/>
<line x1="400.000000" y1="116.000000" x2="408.000000" y2="116.000000"  style="stroke:black; stroke-linecap:round; stroke-width:0.25;"/>
<line x1="408.000000" y1="96.000000" x2="408.000000" y2="108.000000"  style="stroke:black; stroke-linecap:round; stroke-width:0.25;"/>
<line x1="408.000000" y1="108.000000" x2="408.000000" y2="108.000000"  style="stroke:black; stroke-linecap:round; stroke-width:0.25;"/>
<line x1="408.000000" y1="108.000000" x2="412.000000" y2="108.000000"  style="stroke:black; stroke-linecap:round; stroke-width:0.25;"/>
<line x1="408.000000" y1="116.000000" x2="412.000000" y2="116.000000"  style="stroke:black; stroke-linecap:round; stroke-width:0.25;"/>
<line x1="416.000000" y1="188.000000" x2="420.000000" y2="188.000000"  style="stroke:black; stroke-linecap:round; stroke-width:0.25;"/>
<line x1="416.000000" y1="220.000000" x2="420.000000" y2="220.000000"  style="stroke:black; stroke-linecap:round; stroke-width:0.25;"/>
<line x1="420.000000" y1="188.000000" x2="428.000000" y2="188.000000"  style="stroke:black; stroke-linecap:round; stroke-width:0.25;"/>
<line x1="420.000000" y1="208.000000" x2="428.000000" y2="208.000000"  style="stroke:black; stroke-linecap:round; stroke-width:0.25;"/>
<line x1="420.000000" y1="220.000000" x2="420.000000" y2="208.000000"  style="stroke:black; stroke-linecap:round; stroke-width:0.25;"/>
<line x1="420.000000" y1="220.000000" x2="420.000000" y2="220.000000"  style="stroke:black; stroke-linecap:round; stroke-width:0.25;"/>
<line x1="424.000000" y1="168.000000" x2="460.000000" y2="168.000000"  style="stroke:black; stroke-linecap:round; stroke-width:0.25;"/>
<line x1="428.000000" y1="188.000000" x2="428.000000" y2="200.000000"  style="stroke:black; stroke-linecap:round; stroke-width:0.25;"/>
<line x1="428.000000" y1="200.000000" x2="428.000000" y2="200.000000"  style="stroke:black; stroke-linecap:round; stroke-width:0.25;"/>
<line x1="428.000000" y1="200.000000" x2="432.000000" y2="200.000000"  style="stroke:black; stroke-linecap:round; stroke-width:0.25;"/>
<line x1="428.000000" y1="208.000000" x2="432.000000" y2="208.000000"  style="stroke:black; stroke-linecap:round; stroke-width:0.25;"/>
<line x1="436.000000" y1="112.000000" x2="440.000000" y2="112.000000"  style="stroke:black; stroke-linecap:round; stroke-width:0.25;"/>
<line x1="440.000000" y1="64.000000" x2="448.000000" y2="64.000000"  style="stroke:black; stroke-linecap:round; stroke-width:0.25;"/>
<line x1="440.000000" y1="112.000000" x2="440.000000" y2="64.000000"  style="stroke:black; stroke-linecap:round; stroke-width:0.25;"/>
<line x1="440.000000" y1="112.000000" x2="440.000000" y2="112.000000"  style="stroke:black; stroke-linecap:round; stroke-width:0.25;"/>
<line x1="448.000000" y1="24.000000" x2="464.000000" y2="24.000000"  style="stroke:black; stroke-linecap:round; stroke-width:0.25;"/>
<line x1="448.000000" y1="64.000000" x2="504.000000" y2="64.000000"  style="stroke:black; stroke-linecap:round; stroke-width:0.25;"/>
<line x1="456.000000" y1="204.000000" x2="460.000000" y2="204.000000"  style="stroke:black; stroke-linecap:round; stroke-width:0.25;"/>
<line x1="460.000000" y1="168.000000" x2="468.000000" y2="168.000000"  style="stroke:black; stroke-linecap:round; stroke-width:0.25;"/>
<line x1="460.000000" y1="204.000000" x2="468.000000" y2="204.000000"  style="stroke:black; stroke-linecap:round; stroke-width:0.25;"/>
<line x1="464.000000" y1="24.000000" x2="480.000000" y2="24.000000"  style="stroke:black; stroke-linecap:round; stroke-width:0.25;"/>
<line x1="468.000000" y1="168.000000" x2="468.000000" y2="196.000000"  style="stroke:black; stroke-linecap:round; stroke-width:0.25;"/>
<line x1="468.000000" y1="196.000000" x2="468.000000" y2="196.000000"  style="stroke:black; stroke-linecap:round; stroke-width:0.25;"/>
<line x1="468.000000" y1="196.000000" x2="472.000000" y2="196.000000"  style="stroke:black; stroke-linecap:round; stroke-width:0.25;"/>
<line x1="468.000000" y1="204.000000" x2="472.000000" y2="204.000000"  style="stroke:black; stroke-linecap:round; stroke-width:0.25;"/>
<line x1="476.000000" y1="44.000000" x2="480.000000" y2="44.000000"  style="stroke:black; stroke-linecap:round; stroke-width:0.25;"/>
<line x1="476.000000" y1="116.000000" x2="480.000000" y2="116.000000"  style="stroke:black; stroke-linecap:round; stroke-width:0.25;"/>
<line x1="476.000000" y1="148.000000" x2="480.000000" y2="148.000000"  style="stroke:black; stroke-linecap:round; stroke-width:0.25;"/>
<line x1="480.000000" y1="24.000000" x2="488.000000" y2="24.000000"  style="stroke:black; stroke-linecap:round; stroke-width:0.25;"/>
<line x1="480.000000" y1="44.000000" x2="488.000000" y2="44.000000"  style="stroke:black; stroke-linecap:round; stroke-width:0.25;"/>
<line x1="480.000000" y1="116.000000" x2="488.000000" y2="116.000000"  style="stroke:black; stroke-linecap:round; stroke-width:0.25;"/>
<line x1="480.000000" y1="136.000000" x2="488.000000" y2="136.000000"  style="stroke:black; stroke-linecap:round; stroke-width:0.25;"/>
<line x1="480.000000" y1="148.000000" x2="480.000000" y2="136.000000"  style="stroke:black; stroke-linecap:round; stroke-width:0.25;"/>
<line x1="480.000000" y1="148.000000" x2="480.000000" y2="148.000000"  style="stroke:black; stroke-linecap:round; stroke-width:0.25;"/>
<line x1="488.000000" y1="24.000000" x2="488.000000" y2="36.000000"  style="stroke:black; stroke-linecap:round; stroke-width:0.25;"/>
<line x1="488.000000" y1="36.000000" x2="488.000000" y2="36.000000"  style="stroke:black; stroke-linecap:round; stroke-width:0.25;"/>
<line x1="488.000000" y1="36.000000" x2="492.000000" y2="36.000000"  style="stroke:black; stroke-linecap:round; stroke-width:0.25;"/>
<line x1="488.000000" y1="44.000000" x2="492.000000" y2="44.000000"  style="stroke:black; stroke-linecap:round; stroke-width:0.25;"/>
<line x1="488.000000" y1="116.000000" x2="488.000000" y2="128.000000"  style="stroke:black; stroke-linecap:round; stroke-width:0.25;"/>
<line x1="488.000000" y1="128.000000" x2="488.000000" y2="128.000000"  style="stroke:black; stroke-linecap:round; stroke-width:0.25;"/>
<line x1="488.000000" y1="128.000000" x2="492.000000" y2="128.000000"  style="stroke:black; stroke-linecap:round; stroke-width:0.25;"/>
<line x1="488.000000" y1="136.000000" x2="492.000000" y2="136.000000"  style="stroke:black; stroke-linecap:round; stroke-width:0.25;"/>
<line x1="496.000000" y1="84.000000" x2="500.000000" y2="84.000000"  style="stroke:black; stroke-linecap:round; stroke-width:0.25;"/>
<line x1="496.000000" y1="200.000000" x2="500.000000" y2="200.000000"  style="stroke:black; stroke-linecap:round; stroke-width:0.25;"/>
<line x1="500.000000" y1="84.000000" x2="520.000000" y2="84.000000"  style="stroke:black; stroke-linecap:round; stroke-width:0.25;"/>
<line x1="500.000000" y1="184.000000" x2="508.000000" y2="184.000000"  style="stroke:black; stroke-linecap:round; stroke-width:0.25;"/>
<line x1="500.000000" y1="200.000000" x2="500.000000" y2="184.000000"  style="stroke:black; stroke-linecap:round; stroke-width:0.25;"/>
<line x1="500.000000" y1="200.000000" x2="500.000000" y2="200.000000"  style="stroke:black; stroke-linecap:round; stroke-width:0.25;"/>
<line x1="504.000000" y1="64.000000" x2="560.000000" y2="64.000000"  style="stroke:black; stroke-linecap:round; stroke-width:0.25;"/>
<line x1="508.000000" y1="184.000000" x2="524.000000" y2="184.000000"  style="stroke:black; stroke-linecap:round; stroke-width:0.25;"/>
<line x1="516.000000" y1="40.000000" x2="520.000000" y2="40.000000"  style="stroke:black; stroke-linecap:round; stroke-width:0.25;"/>
<line x1="516.000000" y1="132.000000" x2="520.000000" y2="132.000000"  style="stroke:black; stroke-linecap:round; stroke-width:0.25;"/>
<line x1="520.000000" y1="40.000000" x2="600.000000" y2="40.000000"  style="stroke:black; stroke-linecap:round; stroke-width:0.25;"/>
<line x1="520.000000" y1="84.000000" x2="528.000000" y2="84.000000"  style="stroke:black; stroke-linecap:round; stroke-width:0.25;"/>
<line x1="520.000000" y1="120.000000" x2="528.000000" y2="120.000000"  style="stroke:black; stroke-linecap:round; stroke-width:0.25;"/>
<line x1="520.000000" y1="132.000000" x2="520.000000" y2="120.000000"  style="stroke:black; stroke-linecap:round; stroke-width:0.25;"/>
<line x1="520.000000" y1="132.000000" x2="520.000000" y2="132.000000"  style="stroke:black; stroke-linecap:round; stroke-width:0.25;"/>
<line x1="524.000000" y1="184.000000" x2="540.000000" y2="184.000000"  style="stroke:black; stroke-linecap:round; stroke-width:0.25;"/>
<line x1="528.000000" y1="84.000000" x2="528.000000" y2="112.000000"  style="stroke:black; stroke-linecap:round; stroke-width:0.25;"/>
<line x1="528.000000" y1="112.000000" x2="528.000000" y2="112.000000"  style="stroke:black; stroke-linecap:round; stroke-width:0.25;"/>
<line x1="528.000000" y1="112.000000" x2="532.000000" y2="112.000000"  style="stroke:black; stroke-linecap:round; stroke-width:0.25;"/>
<line x1="528.000000" y1="120.000000" x2="532.000000" y2="120.000000"  style="stroke:black; stroke-linecap:round; stroke-width:0.25;"/>
<line x1="536.000000" y1="204.000000" x2="540.000000" y2="204.000000"  style="stroke:black; stroke-linecap:round; stroke-width:0.25;"/>
<line x1="540.000000" y1="184.000000" x2="548.000000" y2="184.000000"  style="stroke:black; stroke-linecap:round; stroke-width:0.25;"/>
<line x1="540.000000" y1="204.000000" x2="548.000000" y2="204.000000"  style="stroke:black; stroke-linecap:round; stroke-width:0.25;"/>
<line x1="548.000000" y1="184.000000" x2="548.000000" y2="196.000000"  style="stroke:black; stroke-linecap:round; stroke-width:0.25;"/>
<line x1="548.000000" y1="196.000000" x2="548.000000" y2="196.000000"  style="stroke:black; stroke-linecap:round; stroke-width:0.25;"/>
<line x1="548.000000" y1="196.000000" x2="552.000000" y2="196.000000"  style="stroke:black; stroke-linecap:round; stroke-width:0.25;"/>
<line x1="548.000000" y1="204.000000" x2="552.000000" y2="204.000000"  style="stroke:black; stroke-linecap:round; stroke-width:0.25;"/>
<line x1="556.000000" y1="116.000000" x2="560.000000" y2="116.000000"  style="stroke:black; stroke-linecap:round; stroke-width:0.25;"/>
<line x1="560.000000" y1="64.000000" x2="568.000000" y2="64.000000"  style="stroke:black; stroke-linecap:round; stroke-width:0.25;"/>
<line x1="560.000000" y1="116.000000" x2="568.000000" y2="116.000000"  style="stroke:black; stroke-linecap:round; stroke-width:0.25;"/>
<line x1="568.000000" y1="64.000000" x2="568.000000" y2="108.000000"  style="stroke:black; stroke-linecap:round; stroke-width:0.25;"/>
<line x1="568.000000" y1="108.000000" x2="568.000000" y2="108.000000"  style="stroke:black; stroke-linecap:round; stroke-width:0.25;"/>
<line x1="568.000000" y1="108.000000" x2="572.000000" y2="108.000000"  style="stroke:black; stroke-linecap:round; stroke-width:0.25;"/>
<line x1="568.000000" y1="116.000000" x2="572.000000" y2="116.000000"  style="stroke:black; stroke-linecap:round; stroke-width:0.25;"/>
<line x1="576.000000" y1="200.000000" x2="580.000000" y2="200.000000"  style="stroke:black; stroke-linecap:round; stroke-width:0.25;"/>
<line x1="580.000000" y1="200.000000" x2="600.000000" y2="200.000000"  style="stroke:black; stroke-linecap:round; stroke-width:0.25;"/>
<line x1="596.000000" y1="112.000000" x2="600.000000" y2="112.000000"  style="stroke:black; stroke-linecap:round; stroke-width:0.25;"/>
<line x1="600.000000" y1="40.000000" x2="656.000000" y2="128.000000"  style="stroke:black; stroke-linecap:round; stroke-width:0.25;"/>
<line x1="600.000000" y1="112.000000" x2="656.000000" y2="128.000000"  style="stroke:black; stroke-linecap:round; stroke-width:0.25;"/>
<line x1="600.000000" y1="200.000000" x2="656.000000" y2="128.000000"  style="stroke:black; stroke-linecap:round; stroke-width:0.25;"/>
<line x1="656.000000" y1="128.000000" x2="660.000000" y2="128.000000"  style="stroke:black; stroke-linecap:round; stroke-width:0.25;"/>
<line x1="660.000000" y1="128.000000" x2="664.000000" y2="128.000000"  style="stroke:black; stroke-linecap:round; stroke-width:0.25;"/>
<line x1="664.000000" y1="128.000000" x2="664.000000" y2="128.000000"  style="stroke:black; stroke-linecap:round; stroke-width:0.25;"/>
<line x1="664.000000" y1="128.000000" x2="668.000000" y2="128.000000"  style="stroke:black; stroke-linecap:round; stroke-width:0.25;"/>
<line x1="668.000000" y1="128.000000" x2="672.000000" y2="128.000000"  style="stroke:black; stroke-linecap:round; stroke-width:0.25;"/>
<line x1="672.000000" y1="128.000000" x2="682.000000" y2="128.000000"  style="stroke:black; stroke-linecap:round; stroke-width:0.25;"/>
</svg>
