<?xml version="1.0"?>
<svg xmlns="http://www.w3.org/2000/svg" xmlns:xlink="http://www.w3.org/1999/xlink" viewBox="0 0 257.800000 112.000000" width="128.900000mm" height="56.000000mm" version="1.1">
<a xlink:href="process.svg">
<rect x="1.000000" y="1.000000" width="256.800000" height="111.000000" rx="0" ry="0" style="stroke:none;fill:#cccccc;"/>
<rect x="0.000000" y="0.000000" width="256.800000" height="111.000000" rx="0" ry="0" style="stroke:none;fill:#ffffff;"/>
</a>
<text x="10.000000" y="7.000000" font-family="Arial" font-size="7"></text>
<a xlink:href="mute-0x7fb433c1a930.svg">
<rect x="43.000000" y="45.000000" width="25.800000" height="24.000000" rx="0" ry="0" style="stroke:none;fill:#cccccc;"/>
<rect x="42.000000" y="44.000000" width="25.800000" height="24.000000" rx="0" ry="0" style="stroke:none;fill:#003366;"/>
</a>
<a xlink:href="mute-0x7fb433c1a930.svg">
<text x="54.900000" y="58.000000" font-family="Arial" font-size="7" text-anchor="middle" fill="#FFFFFF">mute</text>
</a>
<circle cx="44.000000" cy="46.000000" r="1"/>
<line x1="39.000000" y1="55.000000" x2="42.000000" y2="56.000000"  transform="rotate(0.000000,42.000000,56.000000)" style="stroke: black; stroke-width:0.25;"/>
<line x1="39.000000" y1="57.000000" x2="42.000000" y2="56.000000"  transform="rotate(0.000000,42.000000,56.000000)" style="stroke: black; stroke-width:0.25;"/>
<a xlink:href="vol-0x7fb4350f6460.svg">
<rect x="86.800000" y="45.000000" width="24.000000" height="24.000000" rx="0" ry="0" style="stroke:none;fill:#cccccc;"/>
<rect x="85.800000" y="44.000000" width="24.000000" height="24.000000" rx="0" ry="0" style="stroke:none;fill:#003366;"/>
</a>
<a xlink:href="vol-0x7fb4350f6460.svg">
<text x="97.800000" y="58.000000" font-family="Arial" font-size="7" text-anchor="middle" fill="#FFFFFF">vol</text>
</a>
<circle cx="87.800000" cy="46.000000" r="1"/>
<line x1="82.800000" y1="55.000000" x2="85.800000" y2="56.000000"  transform="rotate(0.000000,85.800000,56.000000)" style="stroke: black; stroke-width:0.25;"/>
<line x1="82.800000" y1="57.000000" x2="85.800000" y2="56.000000"  transform="rotate(0.000000,85.800000,56.000000)" style="stroke: black; stroke-width:0.25;"/>
<a xlink:href="vum-0x7fb4350f7ed0.svg">
<rect x="118.800000" y="45.000000" width="24.000000" height="24.000000" rx="0" ry="0" style="stroke:none;fill:#cccccc;"/>
<rect x="117.800000" y="44.000000" width="24.000000" height="24.000000" rx="0" ry="0" style="stroke:none;fill:#003366;"/>
</a>
<a xlink:href="vum-0x7fb4350f7ed0.svg">
<text x="129.800000" y="58.000000" font-family="Arial" font-size="7" text-anchor="middle" fill="#FFFFFF">vum</text>
</a>
<circle cx="119.800000" cy="46.000000" r="1"/>
<line x1="114.800000" y1="55.000000" x2="117.800000" y2="56.000000"  transform="rotate(0.000000,117.800000,56.000000)" style="stroke: black; stroke-width:0.25;"/>
<line x1="114.800000" y1="57.000000" x2="117.800000" y2="56.000000"  transform="rotate(0.000000,117.800000,56.000000)" style="stroke: black; stroke-width:0.25;"/>
<a xlink:href="eql-0x7fb43536b820.svg">
<rect x="150.800000" y="45.000000" width="24.000000" height="24.000000" rx="0" ry="0" style="stroke:none;fill:#cccccc;"/>
<rect x="149.800000" y="44.000000" width="24.000000" height="24.000000" rx="0" ry="0" style="stroke:none;fill:#003366;"/>
</a>
<a xlink:href="eql-0x7fb43536b820.svg">
<text x="161.800000" y="58.000000" font-family="Arial" font-size="7" text-anchor="middle" fill="#FFFFFF">eql</text>
</a>
<circle cx="151.800000" cy="46.000000" r="1"/>
<line x1="146.800000" y1="55.000000" x2="149.800000" y2="56.000000"  transform="rotate(0.000000,149.800000,56.000000)" style="stroke: black; stroke-width:0.25;"/>
<line x1="146.800000" y1="57.000000" x2="149.800000" y2="56.000000"  transform="rotate(0.000000,149.800000,56.000000)" style="stroke: black; stroke-width:0.25;"/>
<line x1="76.800000" y1="35.000000" x2="76.800000" y2="77.000000"  style="stroke: black; stroke-linecap:round; stroke-width:0.25; stroke-dasharray:3,3;"/>
<line x1="76.800000" y1="77.000000" x2="182.800000" y2="77.000000"  style="stroke: black; stroke-linecap:round; stroke-width:0.25; stroke-dasharray:3,3;"/>
<line x1="182.800000" y1="77.000000" x2="182.800000" y2="35.000000"  style="stroke: black; stroke-linecap:round; stroke-width:0.25; stroke-dasharray:3,3;"/>
<line x1="76.800000" y1="35.000000" x2="81.800000" y2="35.000000"  style="stroke: black; stroke-linecap:round; stroke-width:0.25; stroke-dasharray:3,3;"/>
<line x1="120.500000" y1="35.000000" x2="182.800000" y2="35.000000"  style="stroke: black; stroke-linecap:round; stroke-width:0.25; stroke-dasharray:3,3;"/>
<text x="81.800000" y="37.000000" font-family="Arial" font-size="7">hgroup(In)</text>
<a xlink:href="pan-0x7fb43536ebe0.svg">
<rect x="192.800000" y="45.000000" width="24.000000" height="24.000000" rx="0" ry="0" style="stroke:none;fill:#cccccc;"/>
<rect x="191.800000" y="44.000000" width="24.000000" height="24.000000" rx="0" ry="0" style="stroke:none;fill:#003366;"/>
</a>
<a xlink:href="pan-0x7fb43536ebe0.svg">
<text x="203.800000" y="58.000000" font-family="Arial" font-size="7" text-anchor="middle" fill="#FFFFFF">pan</text>
</a>
<circle cx="193.800000" cy="46.000000" r="1"/>
<line x1="188.800000" y1="55.000000" x2="191.800000" y2="56.000000"  transform="rotate(0.000000,191.800000,56.000000)" style="stroke: black; stroke-width:0.25;"/>
<line x1="188.800000" y1="57.000000" x2="191.800000" y2="56.000000"  transform="rotate(0.000000,191.800000,56.000000)" style="stroke: black; stroke-width:0.25;"/>
<line x1="33.000000" y1="25.000000" x2="33.000000" y2="87.000000"  style="stroke: black; stroke-linecap:round; stroke-width:0.25; stroke-dasharray:3,3;"/>
<line x1="33.000000" y1="87.000000" x2="224.800000" y2="87.000000"  style="stroke: black; stroke-linecap:round; stroke-width:0.25; stroke-dasharray:3,3;"/>
<line x1="224.800000" y1="87.000000" x2="224.800000" y2="25.000000"  style="stroke: black; stroke-linecap:round; stroke-width:0.25; stroke-dasharray:3,3;"/>
<line x1="33.000000" y1="25.000000" x2="38.000000" y2="25.000000"  style="stroke: black; stroke-linecap:round; stroke-width:0.25; stroke-dasharray:3,3;"/>
<line x1="83.150000" y1="25.000000" x2="224.800000" y2="25.000000"  style="stroke: black; stroke-linecap:round; stroke-width:0.25; stroke-dasharray:3,3;"/>
<text x="38.000000" y="27.000000" font-family="Arial" font-size="7">vgroup(Ch 1)</text>
<line x1="15.000000" y1="15.000000" x2="15.000000" y2="97.000000"  style="stroke: black; stroke-linecap:round; stroke-width:0.25; stroke-dasharray:3,3;"/>
<line x1="15.000000" y1="97.000000" x2="242.800000" y2="97.000000"  style="stroke: black; stroke-linecap:round; stroke-width:0.25; stroke-dasharray:3,3;"/>
<line x1="242.800000" y1="97.000000" x2="242.800000" y2="15.000000"  style="stroke: black; stroke-linecap:round; stroke-width:0.25; stroke-dasharray:3,3;"/>
<line x1="15.000000" y1="15.000000" x2="20.000000" y2="15.000000"  style="stroke: black; stroke-linecap:round; stroke-width:0.25; stroke-dasharray:3,3;"/>
<line x1="49.025000" y1="15.000000" x2="242.800000" y2="15.000000"  style="stroke: black; stroke-linecap:round; stroke-width:0.25; stroke-dasharray:3,3;"/>
<text x="20.000000" y="17.000000" font-family="Arial" font-size="7">chan(1)</text>
<line x1="244.800000" y1="51.000000" x2="247.800000" y2="52.000000"  transform="rotate(0.000000,247.800000,52.000000)" style="stroke: black; stroke-width:0.25;"/>
<line x1="244.800000" y1="53.000000" x2="247.800000" y2="52.000000"  transform="rotate(0.000000,247.800000,52.000000)" style="stroke: black; stroke-width:0.25;"/>
<line x1="244.800000" y1="59.000000" x2="247.800000" y2="60.000000"  transform="rotate(0.000000,247.800000,60.000000)" style="stroke: black; stroke-width:0.25;"/>
<line x1="244.800000" y1="61.000000" x2="247.800000" y2="60.000000"  transform="rotate(0.000000,247.800000,60.000000)" style="stroke: black; stroke-width:0.25;"/>
<line x1="10.000000" y1="56.000000" x2="20.000000" y2="56.000000"  style="stroke:black; stroke-linecap:round; stroke-width:0.25;"/>
<line x1="20.000000" y1="56.000000" x2="24.000000" y2="56.000000"  style="stroke:black; stroke-linecap:round; stroke-width:0.25;"/>
<line x1="24.000000" y1="56.000000" x2="28.000000" y2="56.000000"  style="stroke:black; stroke-linecap:round; stroke-width:0.25;"/>
<line x1="28.000000" y1="56.000000" x2="28.000000" y2="56.000000"  style="stroke:black; stroke-linecap:round; stroke-width:0.25;"/>
<line x1="28.000000" y1="56.000000" x2="38.000000" y2="56.000000"  style="stroke:black; stroke-linecap:round; stroke-width:0.25;"/>
<line x1="38.000000" y1="56.000000" x2="42.000000" y2="56.000000"  style="stroke:black; stroke-linecap:round; stroke-width:0.25;"/>
<line x1="67.800000" y1="56.000000" x2="71.800000" y2="56.000000"  style="stroke:black; stroke-linecap:round; stroke-width:0.25;"/>
<line x1="71.800000" y1="56.000000" x2="71.800000" y2="56.000000"  style="stroke:black; stroke-linecap:round; stroke-width:0.25;"/>
<line x1="71.800000" y1="56.000000" x2="81.800000" y2="56.000000"  style="stroke:black; stroke-linecap:round; stroke-width:0.25;"/>
<line x1="81.800000" y1="56.000000" x2="85.800000" y2="56.000000"  style="stroke:black; stroke-linecap:round; stroke-width:0.25;"/>
<line x1="109.800000" y1="56.000000" x2="113.800000" y2="56.000000"  style="stroke:black; stroke-linecap:round; stroke-width:0.25;"/>
<line x1="113.800000" y1="56.000000" x2="113.800000" y2="56.000000"  style="stroke:black; stroke-linecap:round; stroke-width:0.25;"/>
<line x1="113.800000" y1="56.000000" x2="117.800000" y2="56.000000"  style="stroke:black; stroke-linecap:round; stroke-width:0.25;"/>
<line x1="141.800000" y1="56.000000" x2="145.800000" y2="56.000000"  style="stroke:black; stroke-linecap:round; stroke-width:0.25;"/>
<line x1="145.800000" y1="56.000000" x2="145.800000" y2="56.000000"  style="stroke:black; stroke-linecap:round; stroke-width:0.25;"/>
<line x1="145.800000" y1="56.000000" x2="149.800000" y2="56.000000"  style="stroke:black; stroke-linecap:round; stroke-width:0.25;"/>
<line x1="173.800000" y1="56.000000" x2="177.800000" y2="56.000000"  style="stroke:black; stroke-linecap:round; stroke-width:0.25;"/>
<line x1="177.800000" y1="56.000000" x2="187.800000" y2="56.000000"  style="stroke:black; stroke-linecap:round; stroke-width:0.25;"/>
<line x1="187.800000" y1="56.000000" x2="187.800000" y2="56.000000"  style="stroke:black; stroke-linecap:round; stroke-width:0.25;"/>
<line x1="187.800000" y1="56.000000" x2="191.800000" y2="56.000000"  style="stroke:black; stroke-linecap:round; stroke-width:0.25;"/>
<line x1="215.800000" y1="52.000000" x2="219.800000" y2="52.000000"  style="stroke:black; stroke-linecap:round; stroke-width:0.25;"/>
<line x1="215.800000" y1="60.000000" x2="219.800000" y2="60.000000"  style="stroke:black; stroke-linecap:round; stroke-width:0.25;"/>
<line x1="219.800000" y1="52.000000" x2="229.800000" y2="52.000000"  style="stroke:black; stroke-linecap:round; stroke-width:0.25;"/>
<line x1="219.800000" y1="60.000000" x2="229.800000" y2="60.000000"  style="stroke:black; stroke-linecap:round; stroke-width:0.25;"/>
<line x1="229.800000" y1="52.000000" x2="229.800000" y2="52.000000"  style="stroke:black; stroke-linecap:round; stroke-width:0.25;"/>
<line x1="229.800000" y1="52.000000" x2="233.800000" y2="52.000000"  style="stroke:black; stroke-linecap:round; stroke-width:0.25;"/>
<line x1="229.800000" y1="60.000000" x2="229.800000" y2="60.000000"  style="stroke:black; stroke-linecap:round; stroke-width:0.25;"/>
<line x1="229.800000" y1="60.000000" x2="233.800000" y2="60.000000"  style="stroke:black; stroke-linecap:round; stroke-width:0.25;"/>
<line x1="233.800000" y1="52.000000" x2="237.800000" y2="52.000000"  style="stroke:black; stroke-linecap:round; stroke-width:0.25;"/>
<line x1="233.800000" y1="60.000000" x2="237.800000" y2="60.000000"  style="stroke:black; stroke-linecap:round; stroke-width:0.25;"/>
<line x1="237.800000" y1="52.000000" x2="247.800000" y2="52.000000"  style="stroke:black; stroke-linecap:round; stroke-width:0.25;"/>
<line x1="237.800000" y1="60.000000" x2="247.800000" y2="60.000000"  style="stroke:black; stroke-linecap:round; stroke-width:0.25;"/>
</svg>
