<?xml version="1.0"?>
<svg xmlns="http://www.w3.org/2000/svg" xmlns:xlink="http://www.w3.org/1999/xlink" viewBox="0 0 241.800000 200.000000" width="120.900000mm" height="100.000000mm" version="1.1">
<a xlink:href="chan-0x7fb4354e80c0.svg">
<rect x="1.000000" y="1.000000" width="240.800000" height="199.000000" rx="0" ry="0" style="stroke:none;fill:#cccccc;"/>
<rect x="0.000000" y="0.000000" width="240.800000" height="199.000000" rx="0" ry="0" style="stroke:none;fill:#ffffff;"/>
</a>
<text x="10.000000" y="7.000000" font-family="Arial" font-size="7"></text>
<rect x="33.000000" y="89.000000" width="24.000000" height="24.000000" rx="0" ry="0" style="stroke:none;fill:#cccccc;"/>
<rect x="32.000000" y="88.000000" width="24.000000" height="24.000000" rx="0" ry="0" style="stroke:none;fill:#47945E;"/>
<text x="44.000000" y="102.000000" font-family="Arial" font-size="7" text-anchor="middle" fill="#FFFFFF">x</text>
<circle cx="34.000000" cy="90.000000" r="1"/>
<line x1="29.000000" y1="99.000000" x2="32.000000" y2="100.000000"  transform="rotate(0.000000,32.000000,100.000000)" style="stroke: black; stroke-width:0.25;"/>
<line x1="29.000000" y1="101.000000" x2="32.000000" y2="100.000000"  transform="rotate(0.000000,32.000000,100.000000)" style="stroke: black; stroke-width:0.25;"/>
<a xlink:href="c-0x7fb4350f0090.svg">
<rect x="85.000000" y="25.000000" width="24.000000" height="24.000000" rx="0" ry="0" style="stroke:none;fill:#cccccc;"/>
<rect x="84.000000" y="24.000000" width="24.000000" height="24.000000" rx="0" ry="0" style="stroke:none;fill:#003366;"/>
</a>
<a xlink:href="c-0x7fb4350f0090.svg">
<text x="96.000000" y="38.000000" font-family="Arial" font-size="7" text-anchor="middle" fill="#FFFFFF">c</text>
</a>
<circle cx="86.000000" cy="26.000000" r="1"/>
<rect x="117.000000" y="25.000000" width="25.800000" height="24.000000" rx="0" ry="0" style="stroke:none;fill:#cccccc;"/>
<rect x="116.000000" y="24.000000" width="25.800000" height="24.000000" rx="0" ry="0" style="stroke:none;fill:#4B71A1;"/>
<text x="128.900000" y="38.000000" font-family="Arial" font-size="7" text-anchor="middle" fill="#FFFFFF">sqrt</text>
<circle cx="118.000000" cy="26.000000" r="1"/>
<line x1="113.000000" y1="35.000000" x2="116.000000" y2="36.000000"  transform="rotate(0.000000,116.000000,36.000000)" style="stroke: black; stroke-width:0.25;"/>
<line x1="113.000000" y1="37.000000" x2="116.000000" y2="36.000000"  transform="rotate(0.000000,116.000000,36.000000)" style="stroke: black; stroke-width:0.25;"/>
<rect x="101.900000" y="57.000000" width="24.000000" height="24.000000" rx="0" ry="0" style="stroke:none;fill:#cccccc;"/>
<rect x="100.900000" y="56.000000" width="24.000000" height="24.000000" rx="0" ry="0" style="stroke:none;fill:#47945E;"/>
<text x="112.900000" y="70.000000" font-family="Arial" font-size="7" text-anchor="middle" fill="#FFFFFF">x</text>
<circle cx="102.900000" cy="58.000000" r="1"/>
<rect x="158.800000" y="41.000000" width="24.000000" height="24.000000" rx="0" ry="0" style="stroke:none;fill:#cccccc;"/>
<rect x="157.800000" y="40.000000" width="24.000000" height="24.000000" rx="0" ry="0" style="stroke:none;fill:#4B71A1;"/>
<text x="169.800000" y="54.000000" font-family="Arial" font-size="7" text-anchor="middle" fill="#FFFFFF">*</text>
<circle cx="159.800000" cy="42.000000" r="1"/>
<line x1="154.800000" y1="47.000000" x2="157.800000" y2="48.000000"  transform="rotate(0.000000,157.800000,48.000000)" style="stroke: black; stroke-width:0.25;"/>
<line x1="154.800000" y1="49.000000" x2="157.800000" y2="48.000000"  transform="rotate(0.000000,157.800000,48.000000)" style="stroke: black; stroke-width:0.25;"/>
<line x1="154.800000" y1="55.000000" x2="157.800000" y2="56.000000"  transform="rotate(0.000000,157.800000,56.000000)" style="stroke: black; stroke-width:0.25;"/>
<line x1="154.800000" y1="57.000000" x2="157.800000" y2="56.000000"  transform="rotate(0.000000,157.800000,56.000000)" style="stroke: black; stroke-width:0.25;"/>
<rect x="65.000000" y="89.000000" width="24.000000" height="24.000000" rx="0" ry="0" style="stroke:none;fill:#cccccc;"/>
<rect x="64.000000" y="88.000000" width="24.000000" height="24.000000" rx="0" ry="0" style="stroke:none;fill:#f44800;"/>
<text x="76.000000" y="102.000000" font-family="Arial" font-size="7" text-anchor="middle" fill="#FFFFFF">1</text>
<circle cx="66.000000" cy="90.000000" r="1"/>
<a xlink:href="c-0x7fb4350f0090.svg">
<rect x="65.000000" y="121.000000" width="24.000000" height="24.000000" rx="0" ry="0" style="stroke:none;fill:#cccccc;"/>
<rect x="64.000000" y="120.000000" width="24.000000" height="24.000000" rx="0" ry="0" style="stroke:none;fill:#003366;"/>
</a>
<a xlink:href="c-0x7fb4350f0090.svg">
<text x="76.000000" y="134.000000" font-family="Arial" font-size="7" text-anchor="middle" fill="#FFFFFF">c</text>
</a>
<circle cx="66.000000" cy="122.000000" r="1"/>
<rect x="105.000000" y="105.000000" width="24.000000" height="24.000000" rx="0" ry="0" style="stroke:none;fill:#cccccc;"/>
<rect x="104.000000" y="104.000000" width="24.000000" height="24.000000" rx="0" ry="0" style="stroke:none;fill:#4B71A1;"/>
<text x="116.000000" y="118.000000" font-family="Arial" font-size="7" text-anchor="middle" fill="#FFFFFF">-</text>
<circle cx="106.000000" cy="106.000000" r="1"/>
<line x1="101.000000" y1="111.000000" x2="104.000000" y2="112.000000"  transform="rotate(0.000000,104.000000,112.000000)" style="stroke: black; stroke-width:0.25;"/>
<line x1="101.000000" y1="113.000000" x2="104.000000" y2="112.000000"  transform="rotate(0.000000,104.000000,112.000000)" style="stroke: black; stroke-width:0.25;"/>
<line x1="101.000000" y1="119.000000" x2="104.000000" y2="120.000000"  transform="rotate(0.000000,104.000000,120.000000)" style="stroke: black; stroke-width:0.25;"/>
<line x1="101.000000" y1="121.000000" x2="104.000000" y2="120.000000"  transform="rotate(0.000000,104.000000,120.000000)" style="stroke: black; stroke-width:0.25;"/>
<rect x="137.000000" y="105.000000" width="25.800000" height="24.000000" rx="0" ry="0" style="stroke:none;fill:#cccccc;"/>
<rect x="136.000000" y="104.000000" width="25.800000" height="24.000000" rx="0" ry="0" style="stroke:none;fill:#4B71A1;"/>
<text x="148.900000" y="118.000000" font-family="Arial" font-size="7" text-anchor="middle" fill="#FFFFFF">sqrt</text>
<circle cx="138.000000" cy="106.000000" r="1"/>
<line x1="133.000000" y1="115.000000" x2="136.000000" y2="116.000000"  transform="rotate(0.000000,136.000000,116.000000)" style="stroke: black; stroke-width:0.25;"/>
<line x1="133.000000" y1="117.000000" x2="136.000000" y2="116.000000"  transform="rotate(0.000000,136.000000,116.000000)" style="stroke: black; stroke-width:0.25;"/>
<rect x="101.900000" y="153.000000" width="24.000000" height="24.000000" rx="0" ry="0" style="stroke:none;fill:#cccccc;"/>
<rect x="100.900000" y="152.000000" width="24.000000" height="24.000000" rx="0" ry="0" style="stroke:none;fill:#47945E;"/>
<text x="112.900000" y="166.000000" font-family="Arial" font-size="7" text-anchor="middle" fill="#FFFFFF">x</text>
<circle cx="102.900000" cy="154.000000" r="1"/>
<rect x="178.800000" y="121.000000" width="24.000000" height="24.000000" rx="0" ry="0" style="stroke:none;fill:#cccccc;"/>
<rect x="177.800000" y="120.000000" width="24.000000" height="24.000000" rx="0" ry="0" style="stroke:none;fill:#4B71A1;"/>
<text x="189.800000" y="134.000000" font-family="Arial" font-size="7" text-anchor="middle" fill="#FFFFFF">*</text>
<circle cx="179.800000" cy="122.000000" r="1"/>
<line x1="174.800000" y1="127.000000" x2="177.800000" y2="128.000000"  transform="rotate(0.000000,177.800000,128.000000)" style="stroke: black; stroke-width:0.25;"/>
<line x1="174.800000" y1="129.000000" x2="177.800000" y2="128.000000"  transform="rotate(0.000000,177.800000,128.000000)" style="stroke: black; stroke-width:0.25;"/>
<line x1="174.800000" y1="135.000000" x2="177.800000" y2="136.000000"  transform="rotate(0.000000,177.800000,136.000000)" style="stroke: black; stroke-width:0.25;"/>
<line x1="174.800000" y1="137.000000" x2="177.800000" y2="136.000000"  transform="rotate(0.000000,177.800000,136.000000)" style="stroke: black; stroke-width:0.25;"/>
<line x1="15.000000" y1="15.000000" x2="15.000000" y2="185.000000"  style="stroke: black; stroke-linecap:round; stroke-width:0.25; stroke-dasharray:3,3;"/>
<line x1="15.000000" y1="185.000000" x2="226.800000" y2="185.000000"  style="stroke: black; stroke-linecap:round; stroke-width:0.25; stroke-dasharray:3,3;"/>
<line x1="226.800000" y1="185.000000" x2="226.800000" y2="15.000000"  style="stroke: black; stroke-linecap:round; stroke-width:0.25; stroke-dasharray:3,3;"/>
<line x1="15.000000" y1="15.000000" x2="20.000000" y2="15.000000"  style="stroke: black; stroke-linecap:round; stroke-width:0.25; stroke-dasharray:3,3;"/>
<line x1="36.125000" y1="15.000000" x2="226.800000" y2="15.000000"  style="stroke: black; stroke-linecap:round; stroke-width:0.25; stroke-dasharray:3,3;"/>
<text x="20.000000" y="17.000000" font-family="Arial" font-size="7">pan</text>
<line x1="228.800000" y1="95.000000" x2="231.800000" y2="96.000000"  transform="rotate(0.000000,231.800000,96.000000)" style="stroke: black; stroke-width:0.25;"/>
<line x1="228.800000" y1="97.000000" x2="231.800000" y2="96.000000"  transform="rotate(0.000000,231.800000,96.000000)" style="stroke: black; stroke-width:0.25;"/>
<line x1="228.800000" y1="103.000000" x2="231.800000" y2="104.000000"  transform="rotate(0.000000,231.800000,104.000000)" style="stroke: black; stroke-width:0.25;"/>
<line x1="228.800000" y1="105.000000" x2="231.800000" y2="104.000000"  transform="rotate(0.000000,231.800000,104.000000)" style="stroke: black; stroke-width:0.25;"/>
<line x1="10.000000" y1="100.000000" x2="20.000000" y2="100.000000"  style="stroke:black; stroke-linecap:round; stroke-width:0.25;"/>
<line x1="20.000000" y1="100.000000" x2="24.000000" y2="100.000000"  style="stroke:black; stroke-linecap:round; stroke-width:0.25;"/>
<line x1="24.000000" y1="100.000000" x2="28.000000" y2="100.000000"  style="stroke:black; stroke-linecap:round; stroke-width:0.25;"/>
<line x1="28.000000" y1="100.000000" x2="28.000000" y2="100.000000"  style="stroke:black; stroke-linecap:round; stroke-width:0.25;"/>
<line x1="28.000000" y1="100.000000" x2="32.000000" y2="100.000000"  style="stroke:black; stroke-linecap:round; stroke-width:0.25;"/>
<line x1="88.000000" y1="100.000000" x2="92.000000" y2="100.000000"  style="stroke:black; stroke-linecap:round; stroke-width:0.25;"/>
<line x1="88.000000" y1="132.000000" x2="92.000000" y2="132.000000"  style="stroke:black; stroke-linecap:round; stroke-width:0.25;"/>
<line x1="92.000000" y1="100.000000" x2="100.000000" y2="100.000000"  style="stroke:black; stroke-linecap:round; stroke-width:0.25;"/>
<line x1="92.000000" y1="120.000000" x2="100.000000" y2="120.000000"  style="stroke:black; stroke-linecap:round; stroke-width:0.25;"/>
<line x1="92.000000" y1="132.000000" x2="92.000000" y2="120.000000"  style="stroke:black; stroke-linecap:round; stroke-width:0.25;"/>
<line x1="92.000000" y1="132.000000" x2="92.000000" y2="132.000000"  style="stroke:black; stroke-linecap:round; stroke-width:0.25;"/>
<line x1="100.000000" y1="100.000000" x2="100.000000" y2="112.000000"  style="stroke:black; stroke-linecap:round; stroke-width:0.25;"/>
<line x1="100.000000" y1="112.000000" x2="100.000000" y2="112.000000"  style="stroke:black; stroke-linecap:round; stroke-width:0.25;"/>
<line x1="100.000000" y1="112.000000" x2="104.000000" y2="112.000000"  style="stroke:black; stroke-linecap:round; stroke-width:0.25;"/>
<line x1="100.000000" y1="120.000000" x2="104.000000" y2="120.000000"  style="stroke:black; stroke-linecap:round; stroke-width:0.25;"/>
<line x1="108.000000" y1="36.000000" x2="112.000000" y2="36.000000"  style="stroke:black; stroke-linecap:round; stroke-width:0.25;"/>
<line x1="112.000000" y1="36.000000" x2="112.000000" y2="36.000000"  style="stroke:black; stroke-linecap:round; stroke-width:0.25;"/>
<line x1="112.000000" y1="36.000000" x2="116.000000" y2="36.000000"  style="stroke:black; stroke-linecap:round; stroke-width:0.25;"/>
<line x1="124.900000" y1="68.000000" x2="128.900000" y2="68.000000"  style="stroke:black; stroke-linecap:round; stroke-width:0.25;"/>
<line x1="124.900000" y1="164.000000" x2="128.900000" y2="164.000000"  style="stroke:black; stroke-linecap:round; stroke-width:0.25;"/>
<line x1="128.000000" y1="116.000000" x2="132.000000" y2="116.000000"  style="stroke:black; stroke-linecap:round; stroke-width:0.25;"/>
<line x1="128.900000" y1="68.000000" x2="145.800000" y2="68.000000"  style="stroke:black; stroke-linecap:round; stroke-width:0.25;"/>
<line x1="128.900000" y1="164.000000" x2="165.800000" y2="164.000000"  style="stroke:black; stroke-linecap:round; stroke-width:0.25;"/>
<line x1="132.000000" y1="116.000000" x2="132.000000" y2="116.000000"  style="stroke:black; stroke-linecap:round; stroke-width:0.25;"/>
<line x1="132.000000" y1="116.000000" x2="136.000000" y2="116.000000"  style="stroke:black; stroke-linecap:round; stroke-width:0.25;"/>
<line x1="141.800000" y1="36.000000" x2="145.800000" y2="36.000000"  style="stroke:black; stroke-linecap:round; stroke-width:0.25;"/>
<line x1="145.800000" y1="36.000000" x2="153.800000" y2="36.000000"  style="stroke:black; stroke-linecap:round; stroke-width:0.25;"/>
<line x1="145.800000" y1="56.000000" x2="153.800000" y2="56.000000"  style="stroke:black; stroke-linecap:round; stroke-width:0.25;"/>
<line x1="145.800000" y1="68.000000" x2="145.800000" y2="56.000000"  style="stroke:black; stroke-linecap:round; stroke-width:0.25;"/>
<line x1="145.800000" y1="68.000000" x2="145.800000" y2="68.000000"  style="stroke:black; stroke-linecap:round; stroke-width:0.25;"/>
<line x1="153.800000" y1="36.000000" x2="153.800000" y2="48.000000"  style="stroke:black; stroke-linecap:round; stroke-width:0.25;"/>
<line x1="153.800000" y1="48.000000" x2="153.800000" y2="48.000000"  style="stroke:black; stroke-linecap:round; stroke-width:0.25;"/>
<line x1="153.800000" y1="48.000000" x2="157.800000" y2="48.000000"  style="stroke:black; stroke-linecap:round; stroke-width:0.25;"/>
<line x1="153.800000" y1="56.000000" x2="157.800000" y2="56.000000"  style="stroke:black; stroke-linecap:round; stroke-width:0.25;"/>
<line x1="161.800000" y1="116.000000" x2="165.800000" y2="116.000000"  style="stroke:black; stroke-linecap:round; stroke-width:0.25;"/>
<line x1="165.800000" y1="116.000000" x2="173.800000" y2="116.000000"  style="stroke:black; stroke-linecap:round; stroke-width:0.25;"/>
<line x1="165.800000" y1="136.000000" x2="173.800000" y2="136.000000"  style="stroke:black; stroke-linecap:round; stroke-width:0.25;"/>
<line x1="165.800000" y1="164.000000" x2="165.800000" y2="136.000000"  style="stroke:black; stroke-linecap:round; stroke-width:0.25;"/>
<line x1="165.800000" y1="164.000000" x2="165.800000" y2="164.000000"  style="stroke:black; stroke-linecap:round; stroke-width:0.25;"/>
<line x1="173.800000" y1="116.000000" x2="173.800000" y2="128.000000"  style="stroke:black; stroke-linecap:round; stroke-width:0.25;"/>
<line x1="173.800000" y1="128.000000" x2="173.800000" y2="128.000000"  style="stroke:black; stroke-linecap:round; stroke-width:0.25;"/>
<line x1="173.800000" y1="128.000000" x2="177.800000" y2="128.000000"  style="stroke:black; stroke-linecap:round; stroke-width:0.25;"/>
<line x1="173.800000" y1="136.000000" x2="177.800000" y2="136.000000"  style="stroke:black; stroke-linecap:round; stroke-width:0.25;"/>
<line x1="181.800000" y1="52.000000" x2="185.800000" y2="52.000000"  style="stroke:black; stroke-linecap:round; stroke-width:0.25;"/>
<line x1="185.800000" y1="52.000000" x2="205.800000" y2="52.000000"  style="stroke:black; stroke-linecap:round; stroke-width:0.25;"/>
<line x1="201.800000" y1="132.000000" x2="205.800000" y2="132.000000"  style="stroke:black; stroke-linecap:round; stroke-width:0.25;"/>
<line x1="205.800000" y1="52.000000" x2="213.800000" y2="52.000000"  style="stroke:black; stroke-linecap:round; stroke-width:0.25;"/>
<line x1="205.800000" y1="104.000000" x2="213.800000" y2="104.000000"  style="stroke:black; stroke-linecap:round; stroke-width:0.25;"/>
<line x1="205.800000" y1="132.000000" x2="205.800000" y2="104.000000"  style="stroke:black; stroke-linecap:round; stroke-width:0.25;"/>
<line x1="205.800000" y1="132.000000" x2="205.800000" y2="132.000000"  style="stroke:black; stroke-linecap:round; stroke-width:0.25;"/>
<line x1="213.800000" y1="52.000000" x2="213.800000" y2="96.000000"  style="stroke:black; stroke-linecap:round; stroke-width:0.25;"/>
<line x1="213.800000" y1="96.000000" x2="213.800000" y2="96.000000"  style="stroke:black; stroke-linecap:round; stroke-width:0.25;"/>
<line x1="213.800000" y1="96.000000" x2="217.800000" y2="96.000000"  style="stroke:black; stroke-linecap:round; stroke-width:0.25;"/>
<line x1="213.800000" y1="104.000000" x2="217.800000" y2="104.000000"  style="stroke:black; stroke-linecap:round; stroke-width:0.25;"/>
<line x1="217.800000" y1="96.000000" x2="221.800000" y2="96.000000"  style="stroke:black; stroke-linecap:round; stroke-width:0.25;"/>
<line x1="217.800000" y1="104.000000" x2="221.800000" y2="104.000000"  style="stroke:black; stroke-linecap:round; stroke-width:0.25;"/>
<line x1="221.800000" y1="96.000000" x2="231.800000" y2="96.000000"  style="stroke:black; stroke-linecap:round; stroke-width:0.25;"/>
<line x1="221.800000" y1="104.000000" x2="231.800000" y2="104.000000"  style="stroke:black; stroke-linecap:round; stroke-width:0.25;"/>
</svg>
