<?xml version="1.0"?>
<svg xmlns="http://www.w3.org/2000/svg" xmlns:xlink="http://www.w3.org/1999/xlink" viewBox="0 0 336.200000 272.000000" width="168.100000mm" height="136.000000mm" version="1.1">
<a xlink:href="h-0x7f98ba7d3b20.svg">
<rect x="1.000000" y="1.000000" width="335.200000" height="271.000000" rx="0" ry="0" style="stroke:none;fill:#cccccc;"/>
<rect x="0.000000" y="0.000000" width="335.200000" height="271.000000" rx="0" ry="0" style="stroke:none;fill:#ffffff;"/>
</a>
<text x="10.000000" y="7.000000" font-family="Arial" font-size="7"></text>
<rect x="121.750000" y="25.000000" width="24.000000" height="24.000000" rx="0" ry="0" style="stroke:none;fill:#cccccc;"/>
<rect x="120.750000" y="24.000000" width="24.000000" height="24.000000" rx="0" ry="0" style="stroke:none;fill:#f44800;"/>
<text x="132.750000" y="38.000000" font-family="Arial" font-size="7" text-anchor="middle" fill="#FFFFFF">0</text>
<circle cx="122.750000" cy="26.000000" r="1"/>
<rect x="121.750000" y="67.000000" width="24.000000" height="24.000000" rx="0" ry="0" style="stroke:none;fill:#cccccc;"/>
<rect x="120.750000" y="66.000000" width="24.000000" height="24.000000" rx="0" ry="0" style="stroke:none;fill:#f44800;"/>
<text x="132.750000" y="80.000000" font-family="Arial" font-size="7" text-anchor="middle" fill="#FFFFFF">1</text>
<circle cx="122.750000" cy="68.000000" r="1"/>
<line x1="111.750000" y1="57.000000" x2="111.750000" y2="99.000000"  style="stroke: black; stroke-linecap:round; stroke-width:0.25; stroke-dasharray:3,3;"/>
<line x1="111.750000" y1="99.000000" x2="153.750000" y2="99.000000"  style="stroke: black; stroke-linecap:round; stroke-width:0.25; stroke-dasharray:3,3;"/>
<line x1="153.750000" y1="99.000000" x2="153.750000" y2="57.000000"  style="stroke: black; stroke-linecap:round; stroke-width:0.25; stroke-dasharray:3,3;"/>
<line x1="111.750000" y1="57.000000" x2="116.750000" y2="57.000000"  style="stroke: black; stroke-linecap:round; stroke-width:0.25; stroke-dasharray:3,3;"/>
<line x1="136.100000" y1="57.000000" x2="153.750000" y2="57.000000"  style="stroke: black; stroke-linecap:round; stroke-width:0.25; stroke-dasharray:3,3;"/>
<text x="116.750000" y="59.000000" font-family="Arial" font-size="7">gain</text>
<rect x="70.400000" y="109.000000" width="24.000000" height="24.000000" rx="0" ry="0" style="stroke:none;fill:#cccccc;"/>
<rect x="69.400000" y="108.000000" width="24.000000" height="24.000000" rx="0" ry="0" style="stroke:none;fill:#f44800;"/>
<text x="81.400000" y="122.000000" font-family="Arial" font-size="7" text-anchor="middle" fill="#FFFFFF">0</text>
<circle cx="71.400000" cy="110.000000" r="1"/>
<rect x="70.400000" y="141.000000" width="24.000000" height="24.000000" rx="0" ry="0" style="stroke:none;fill:#cccccc;"/>
<rect x="69.400000" y="140.000000" width="24.000000" height="24.000000" rx="0" ry="0" style="stroke:none;fill:#f44800;"/>
<text x="81.400000" y="154.000000" font-family="Arial" font-size="7" text-anchor="middle" fill="#FFFFFF">0</text>
<circle cx="71.400000" cy="142.000000" r="1"/>
<rect x="110.400000" y="125.000000" width="24.000000" height="24.000000" rx="0" ry="0" style="stroke:none;fill:#cccccc;"/>
<rect x="109.400000" y="124.000000" width="24.000000" height="24.000000" rx="0" ry="0" style="stroke:none;fill:#4B71A1;"/>
<text x="121.400000" y="138.000000" font-family="Arial" font-size="7" text-anchor="middle" fill="#FFFFFF">&lt;</text>
<circle cx="111.400000" cy="126.000000" r="1"/>
<line x1="106.400000" y1="131.000000" x2="109.400000" y2="132.000000"  transform="rotate(0.000000,109.400000,132.000000)" style="stroke: black; stroke-width:0.25;"/>
<line x1="106.400000" y1="133.000000" x2="109.400000" y2="132.000000"  transform="rotate(0.000000,109.400000,132.000000)" style="stroke: black; stroke-width:0.25;"/>
<line x1="106.400000" y1="139.000000" x2="109.400000" y2="140.000000"  transform="rotate(0.000000,109.400000,140.000000)" style="stroke: black; stroke-width:0.25;"/>
<line x1="106.400000" y1="141.000000" x2="109.400000" y2="140.000000"  transform="rotate(0.000000,109.400000,140.000000)" style="stroke: black; stroke-width:0.25;"/>
<rect x="90.400000" y="183.000000" width="24.000000" height="24.000000" rx="0" ry="0" style="stroke:none;fill:#cccccc;"/>
<rect x="89.400000" y="182.000000" width="24.000000" height="24.000000" rx="0" ry="0" style="stroke:none;fill:#f44800;"/>
<text x="101.400000" y="196.000000" font-family="Arial" font-size="7" text-anchor="middle" fill="#FFFFFF">1</text>
<circle cx="91.400000" cy="184.000000" r="1"/>
<line x1="80.400000" y1="173.000000" x2="80.400000" y2="215.000000"  style="stroke: black; stroke-linecap:round; stroke-width:0.25; stroke-dasharray:3,3;"/>
<line x1="80.400000" y1="215.000000" x2="122.400000" y2="215.000000"  style="stroke: black; stroke-linecap:round; stroke-width:0.25; stroke-dasharray:3,3;"/>
<line x1="122.400000" y1="215.000000" x2="122.400000" y2="173.000000"  style="stroke: black; stroke-linecap:round; stroke-width:0.25; stroke-dasharray:3,3;"/>
<line x1="80.400000" y1="173.000000" x2="85.400000" y2="173.000000"  style="stroke: black; stroke-linecap:round; stroke-width:0.25; stroke-dasharray:3,3;"/>
<line x1="104.750000" y1="173.000000" x2="122.400000" y2="173.000000"  style="stroke: black; stroke-linecap:round; stroke-width:0.25; stroke-dasharray:3,3;"/>
<text x="85.400000" y="175.000000" font-family="Arial" font-size="7">gain</text>
<a xlink:href="fac-0x7f98ba7b8d70.svg">
<rect x="25.000000" y="225.000000" width="154.800000" height="24.000000" rx="0" ry="0" style="stroke:none;fill:#cccccc;"/>
<rect x="24.000000" y="224.000000" width="154.800000" height="24.000000" rx="0" ry="0" style="stroke:none;fill:#003366;"/>
</a>
<a xlink:href="fac-0x7f98ba7b8d70.svg">
<text x="101.400000" y="238.000000" font-family="Arial" font-size="7" text-anchor="middle" fill="#FFFFFF">fac(((4,1.000...nt) : -) : +)(0)(0)</text>
</a>
<circle cx="26.000000" cy="226.000000" r="1"/>
<rect x="203.800000" y="167.000000" width="38.700000" height="24.000000" rx="0" ry="0" style="stroke:none;fill:#cccccc;"/>
<rect x="202.800000" y="166.000000" width="38.700000" height="24.000000" rx="0" ry="0" style="stroke:none;fill:#4B71A1;"/>
<text x="222.150000" y="180.000000" font-family="Arial" font-size="7" text-anchor="middle" fill="#FFFFFF">select2</text>
<circle cx="204.800000" cy="168.000000" r="1"/>
<line x1="199.800000" y1="169.000000" x2="202.800000" y2="170.000000"  transform="rotate(0.000000,202.800000,170.000000)" style="stroke: black; stroke-width:0.25;"/>
<line x1="199.800000" y1="171.000000" x2="202.800000" y2="170.000000"  transform="rotate(0.000000,202.800000,170.000000)" style="stroke: black; stroke-width:0.25;"/>
<line x1="199.800000" y1="177.000000" x2="202.800000" y2="178.000000"  transform="rotate(0.000000,202.800000,178.000000)" style="stroke: black; stroke-width:0.25;"/>
<line x1="199.800000" y1="179.000000" x2="202.800000" y2="178.000000"  transform="rotate(0.000000,202.800000,178.000000)" style="stroke: black; stroke-width:0.25;"/>
<line x1="199.800000" y1="185.000000" x2="202.800000" y2="186.000000"  transform="rotate(0.000000,202.800000,186.000000)" style="stroke: black; stroke-width:0.25;"/>
<line x1="199.800000" y1="187.000000" x2="202.800000" y2="186.000000"  transform="rotate(0.000000,202.800000,186.000000)" style="stroke: black; stroke-width:0.25;"/>
<rect x="266.500000" y="125.000000" width="38.700000" height="24.000000" rx="0" ry="0" style="stroke:none;fill:#cccccc;"/>
<rect x="265.500000" y="124.000000" width="38.700000" height="24.000000" rx="0" ry="0" style="stroke:none;fill:#4B71A1;"/>
<text x="284.850000" y="138.000000" font-family="Arial" font-size="7" text-anchor="middle" fill="#FFFFFF">select2</text>
<circle cx="267.500000" cy="126.000000" r="1"/>
<line x1="262.500000" y1="127.000000" x2="265.500000" y2="128.000000"  transform="rotate(0.000000,265.500000,128.000000)" style="stroke: black; stroke-width:0.25;"/>
<line x1="262.500000" y1="129.000000" x2="265.500000" y2="128.000000"  transform="rotate(0.000000,265.500000,128.000000)" style="stroke: black; stroke-width:0.25;"/>
<line x1="262.500000" y1="135.000000" x2="265.500000" y2="136.000000"  transform="rotate(0.000000,265.500000,136.000000)" style="stroke: black; stroke-width:0.25;"/>
<line x1="262.500000" y1="137.000000" x2="265.500000" y2="136.000000"  transform="rotate(0.000000,265.500000,136.000000)" style="stroke: black; stroke-width:0.25;"/>
<line x1="262.500000" y1="143.000000" x2="265.500000" y2="144.000000"  transform="rotate(0.000000,265.500000,144.000000)" style="stroke: black; stroke-width:0.25;"/>
<line x1="262.500000" y1="145.000000" x2="265.500000" y2="144.000000"  transform="rotate(0.000000,265.500000,144.000000)" style="stroke: black; stroke-width:0.25;"/>
<line x1="15.000000" y1="15.000000" x2="15.000000" y2="257.000000"  style="stroke: black; stroke-linecap:round; stroke-width:0.25; stroke-dasharray:3,3;"/>
<line x1="15.000000" y1="257.000000" x2="321.200000" y2="257.000000"  style="stroke: black; stroke-linecap:round; stroke-width:0.25; stroke-dasharray:3,3;"/>
<line x1="321.200000" y1="257.000000" x2="321.200000" y2="15.000000"  style="stroke: black; stroke-linecap:round; stroke-width:0.25; stroke-dasharray:3,3;"/>
<line x1="15.000000" y1="15.000000" x2="20.000000" y2="15.000000"  style="stroke: black; stroke-linecap:round; stroke-width:0.25; stroke-dasharray:3,3;"/>
<line x1="129.650000" y1="15.000000" x2="321.200000" y2="15.000000"  style="stroke: black; stroke-linecap:round; stroke-width:0.25; stroke-dasharray:3,3;"/>
<text x="20.000000" y="17.000000" font-family="Arial" font-size="7">facs1(4)(((4,...nt) : -) : +)(0)</text>
<line x1="323.200000" y1="135.000000" x2="326.200000" y2="136.000000"  transform="rotate(0.000000,326.200000,136.000000)" style="stroke: black; stroke-width:0.25;"/>
<line x1="323.200000" y1="137.000000" x2="326.200000" y2="136.000000"  transform="rotate(0.000000,326.200000,136.000000)" style="stroke: black; stroke-width:0.25;"/>
<line x1="93.400000" y1="120.000000" x2="97.400000" y2="120.000000"  style="stroke:black; stroke-linecap:round; stroke-width:0.25;"/>
<line x1="93.400000" y1="152.000000" x2="97.400000" y2="152.000000"  style="stroke:black; stroke-linecap:round; stroke-width:0.25;"/>
<line x1="97.400000" y1="120.000000" x2="105.400000" y2="120.000000"  style="stroke:black; stroke-linecap:round; stroke-width:0.25;"/>
<line x1="97.400000" y1="140.000000" x2="105.400000" y2="140.000000"  style="stroke:black; stroke-linecap:round; stroke-width:0.25;"/>
<line x1="97.400000" y1="152.000000" x2="97.400000" y2="140.000000"  style="stroke:black; stroke-linecap:round; stroke-width:0.25;"/>
<line x1="97.400000" y1="152.000000" x2="97.400000" y2="152.000000"  style="stroke:black; stroke-linecap:round; stroke-width:0.25;"/>
<line x1="105.400000" y1="120.000000" x2="105.400000" y2="132.000000"  style="stroke:black; stroke-linecap:round; stroke-width:0.25;"/>
<line x1="105.400000" y1="132.000000" x2="105.400000" y2="132.000000"  style="stroke:black; stroke-linecap:round; stroke-width:0.25;"/>
<line x1="105.400000" y1="132.000000" x2="109.400000" y2="132.000000"  style="stroke:black; stroke-linecap:round; stroke-width:0.25;"/>
<line x1="105.400000" y1="140.000000" x2="109.400000" y2="140.000000"  style="stroke:black; stroke-linecap:round; stroke-width:0.25;"/>
<line x1="113.400000" y1="194.000000" x2="117.400000" y2="194.000000"  style="stroke:black; stroke-linecap:round; stroke-width:0.25;"/>
<line x1="117.400000" y1="194.000000" x2="127.400000" y2="194.000000"  style="stroke:black; stroke-linecap:round; stroke-width:0.25;"/>
<line x1="127.400000" y1="194.000000" x2="182.800000" y2="194.000000"  style="stroke:black; stroke-linecap:round; stroke-width:0.25;"/>
<line x1="133.400000" y1="136.000000" x2="137.400000" y2="136.000000"  style="stroke:black; stroke-linecap:round; stroke-width:0.25;"/>
<line x1="137.400000" y1="136.000000" x2="182.800000" y2="136.000000"  style="stroke:black; stroke-linecap:round; stroke-width:0.25;"/>
<line x1="144.750000" y1="36.000000" x2="148.750000" y2="36.000000"  style="stroke:black; stroke-linecap:round; stroke-width:0.25;"/>
<line x1="144.750000" y1="78.000000" x2="148.750000" y2="78.000000"  style="stroke:black; stroke-linecap:round; stroke-width:0.25;"/>
<line x1="148.750000" y1="36.000000" x2="245.500000" y2="36.000000"  style="stroke:black; stroke-linecap:round; stroke-width:0.25;"/>
<line x1="148.750000" y1="78.000000" x2="158.750000" y2="78.000000"  style="stroke:black; stroke-linecap:round; stroke-width:0.25;"/>
<line x1="158.750000" y1="78.000000" x2="245.500000" y2="78.000000"  style="stroke:black; stroke-linecap:round; stroke-width:0.25;"/>
<line x1="178.800000" y1="236.000000" x2="182.800000" y2="236.000000"  style="stroke:black; stroke-linecap:round; stroke-width:0.25;"/>
<line x1="182.800000" y1="136.000000" x2="198.800000" y2="136.000000"  style="stroke:black; stroke-linecap:round; stroke-width:0.25;"/>
<line x1="182.800000" y1="178.000000" x2="198.800000" y2="178.000000"  style="stroke:black; stroke-linecap:round; stroke-width:0.25;"/>
<line x1="182.800000" y1="194.000000" x2="182.800000" y2="178.000000"  style="stroke:black; stroke-linecap:round; stroke-width:0.25;"/>
<line x1="182.800000" y1="194.000000" x2="182.800000" y2="194.000000"  style="stroke:black; stroke-linecap:round; stroke-width:0.25;"/>
<line x1="182.800000" y1="236.000000" x2="190.800000" y2="236.000000"  style="stroke:black; stroke-linecap:round; stroke-width:0.25;"/>
<line x1="190.800000" y1="186.000000" x2="198.800000" y2="186.000000"  style="stroke:black; stroke-linecap:round; stroke-width:0.25;"/>
<line x1="190.800000" y1="236.000000" x2="190.800000" y2="186.000000"  style="stroke:black; stroke-linecap:round; stroke-width:0.25;"/>
<line x1="198.800000" y1="136.000000" x2="198.800000" y2="170.000000"  style="stroke:black; stroke-linecap:round; stroke-width:0.25;"/>
<line x1="198.800000" y1="170.000000" x2="198.800000" y2="170.000000"  style="stroke:black; stroke-linecap:round; stroke-width:0.25;"/>
<line x1="198.800000" y1="170.000000" x2="202.800000" y2="170.000000"  style="stroke:black; stroke-linecap:round; stroke-width:0.25;"/>
<line x1="198.800000" y1="178.000000" x2="202.800000" y2="178.000000"  style="stroke:black; stroke-linecap:round; stroke-width:0.25;"/>
<line x1="198.800000" y1="186.000000" x2="202.800000" y2="186.000000"  style="stroke:black; stroke-linecap:round; stroke-width:0.25;"/>
<line x1="241.500000" y1="178.000000" x2="245.500000" y2="178.000000"  style="stroke:black; stroke-linecap:round; stroke-width:0.25;"/>
<line x1="245.500000" y1="144.000000" x2="261.500000" y2="144.000000"  style="stroke:black; stroke-linecap:round; stroke-width:0.25;"/>
<line x1="245.500000" y1="178.000000" x2="245.500000" y2="144.000000"  style="stroke:black; stroke-linecap:round; stroke-width:0.25;"/>
<line x1="245.500000" y1="178.000000" x2="245.500000" y2="178.000000"  style="stroke:black; stroke-linecap:round; stroke-width:0.25;"/>
<line x1="245.500000" y1="36.000000" x2="261.500000" y2="36.000000"  style="stroke:black; stroke-linecap:round; stroke-width:0.25;"/>
<line x1="245.500000" y1="78.000000" x2="253.500000" y2="78.000000"  style="stroke:black; stroke-linecap:round; stroke-width:0.25;"/>
<line x1="253.500000" y1="78.000000" x2="253.500000" y2="136.000000"  style="stroke:black; stroke-linecap:round; stroke-width:0.25;"/>
<line x1="253.500000" y1="136.000000" x2="261.500000" y2="136.000000"  style="stroke:black; stroke-linecap:round; stroke-width:0.25;"/>
<line x1="261.500000" y1="36.000000" x2="261.500000" y2="128.000000"  style="stroke:black; stroke-linecap:round; stroke-width:0.25;"/>
<line x1="261.500000" y1="128.000000" x2="261.500000" y2="128.000000"  style="stroke:black; stroke-linecap:round; stroke-width:0.25;"/>
<line x1="261.500000" y1="128.000000" x2="265.500000" y2="128.000000"  style="stroke:black; stroke-linecap:round; stroke-width:0.25;"/>
<line x1="261.500000" y1="136.000000" x2="265.500000" y2="136.000000"  style="stroke:black; stroke-linecap:round; stroke-width:0.25;"/>
<line x1="261.500000" y1="144.000000" x2="265.500000" y2="144.000000"  style="stroke:black; stroke-linecap:round; stroke-width:0.25;"/>
<line x1="304.200000" y1="136.000000" x2="308.200000" y2="136.000000"  style="stroke:black; stroke-linecap:round; stroke-width:0.25;"/>
<line x1="308.200000" y1="136.000000" x2="308.200000" y2="136.000000"  style="stroke:black; stroke-linecap:round; stroke-width:0.25;"/>
<line x1="308.200000" y1="136.000000" x2="312.200000" y2="136.000000"  style="stroke:black; stroke-linecap:round; stroke-width:0.25;"/>
<line x1="312.200000" y1="136.000000" x2="316.200000" y2="136.000000"  style="stroke:black; stroke-linecap:round; stroke-width:0.25;"/>
<line x1="316.200000" y1="136.000000" x2="326.200000" y2="136.000000"  style="stroke:black; stroke-linecap:round; stroke-width:0.25;"/>
</svg>
