<?xml version="1.0"?>
<svg xmlns="http://www.w3.org/2000/svg" xmlns:xlink="http://www.w3.org/1999/xlink" viewBox="0 0 510.900000 104.000000" width="255.450000mm" height="52.000000mm" version="1.1">
<a xlink:href="decay-0x7fcfc409c050.svg">
<rect x="1.000000" y="1.000000" width="509.900000" height="103.000000" rx="0" ry="0" style="stroke:none;fill:#cccccc;"/>
<rect x="0.000000" y="0.000000" width="509.900000" height="103.000000" rx="0" ry="0" style="stroke:none;fill:#ffffff;"/>
</a>
<text x="10.000000" y="7.000000" font-family="Arial" font-size="7"></text>
<rect x="25.000000" y="25.000000" width="219.300000" height="24.000000" rx="0" ry="0" style="stroke:none;fill:#cccccc;"/>
<rect x="24.000000" y="24.000000" width="219.300000" height="24.000000" rx="0" ry="0" style="stroke:none;fill:#477881;"/>
<text x="133.650000" y="38.000000" font-family="Arial" font-size="7" text-anchor="middle" fill="#FFFFFF">hslider(Note Duration, 0.166f, 0.1f, 0.2f, 0.01f)</text>
<circle cx="26.000000" cy="26.000000" r="1"/>
<rect x="121.750000" y="57.000000" width="25.800000" height="24.000000" rx="0" ry="0" style="stroke:none;fill:#cccccc;"/>
<rect x="120.750000" y="56.000000" width="25.800000" height="24.000000" rx="0" ry="0" style="stroke:none;fill:#f44800;"/>
<text x="133.650000" y="70.000000" font-family="Arial" font-size="7" text-anchor="middle" fill="#FFFFFF">44100</text>
<circle cx="122.750000" cy="58.000000" r="1"/>
<rect x="260.300000" y="41.000000" width="24.000000" height="24.000000" rx="0" ry="0" style="stroke:none;fill:#cccccc;"/>
<rect x="259.300000" y="40.000000" width="24.000000" height="24.000000" rx="0" ry="0" style="stroke:none;fill:#4B71A1;"/>
<text x="271.300000" y="54.000000" font-family="Arial" font-size="7" text-anchor="middle" fill="#FFFFFF">*</text>
<circle cx="261.300000" cy="42.000000" r="1"/>
<line x1="256.300000" y1="47.000000" x2="259.300000" y2="48.000000"  transform="rotate(0.000000,259.300000,48.000000)" style="stroke: black; stroke-width:0.25;"/>
<line x1="256.300000" y1="49.000000" x2="259.300000" y2="48.000000"  transform="rotate(0.000000,259.300000,48.000000)" style="stroke: black; stroke-width:0.25;"/>
<line x1="256.300000" y1="55.000000" x2="259.300000" y2="56.000000"  transform="rotate(0.000000,259.300000,56.000000)" style="stroke: black; stroke-width:0.25;"/>
<line x1="256.300000" y1="57.000000" x2="259.300000" y2="56.000000"  transform="rotate(0.000000,259.300000,56.000000)" style="stroke: black; stroke-width:0.25;"/>
<rect x="300.300000" y="37.000000" width="25.800000" height="24.000000" rx="0" ry="0" style="stroke:none;fill:#cccccc;"/>
<rect x="299.300000" y="36.000000" width="25.800000" height="24.000000" rx="0" ry="0" style="stroke:none;fill:#f44800;"/>
<text x="312.200000" y="50.000000" font-family="Arial" font-size="7" text-anchor="middle" fill="#FFFFFF">8820</text>
<circle cx="301.300000" cy="38.000000" r="1"/>
<rect x="342.100000" y="41.000000" width="24.000000" height="24.000000" rx="0" ry="0" style="stroke:none;fill:#cccccc;"/>
<rect x="341.100000" y="40.000000" width="24.000000" height="24.000000" rx="0" ry="0" style="stroke:none;fill:#4B71A1;"/>
<text x="353.100000" y="54.000000" font-family="Arial" font-size="7" text-anchor="middle" fill="#FFFFFF">min</text>
<circle cx="343.100000" cy="42.000000" r="1"/>
<line x1="338.100000" y1="47.000000" x2="341.100000" y2="48.000000"  transform="rotate(0.000000,341.100000,48.000000)" style="stroke: black; stroke-width:0.25;"/>
<line x1="338.100000" y1="49.000000" x2="341.100000" y2="48.000000"  transform="rotate(0.000000,341.100000,48.000000)" style="stroke: black; stroke-width:0.25;"/>
<line x1="338.100000" y1="55.000000" x2="341.100000" y2="56.000000"  transform="rotate(0.000000,341.100000,56.000000)" style="stroke: black; stroke-width:0.25;"/>
<line x1="338.100000" y1="57.000000" x2="341.100000" y2="56.000000"  transform="rotate(0.000000,341.100000,56.000000)" style="stroke: black; stroke-width:0.25;"/>
<rect x="382.100000" y="37.000000" width="25.800000" height="24.000000" rx="0" ry="0" style="stroke:none;fill:#cccccc;"/>
<rect x="381.100000" y="36.000000" width="25.800000" height="24.000000" rx="0" ry="0" style="stroke:none;fill:#f44800;"/>
<text x="394.000000" y="50.000000" font-family="Arial" font-size="7" text-anchor="middle" fill="#FFFFFF">4410</text>
<circle cx="383.100000" cy="38.000000" r="1"/>
<rect x="423.900000" y="41.000000" width="24.000000" height="24.000000" rx="0" ry="0" style="stroke:none;fill:#cccccc;"/>
<rect x="422.900000" y="40.000000" width="24.000000" height="24.000000" rx="0" ry="0" style="stroke:none;fill:#4B71A1;"/>
<text x="434.900000" y="54.000000" font-family="Arial" font-size="7" text-anchor="middle" fill="#FFFFFF">max</text>
<circle cx="424.900000" cy="42.000000" r="1"/>
<line x1="419.900000" y1="47.000000" x2="422.900000" y2="48.000000"  transform="rotate(0.000000,422.900000,48.000000)" style="stroke: black; stroke-width:0.25;"/>
<line x1="419.900000" y1="49.000000" x2="422.900000" y2="48.000000"  transform="rotate(0.000000,422.900000,48.000000)" style="stroke: black; stroke-width:0.25;"/>
<line x1="419.900000" y1="55.000000" x2="422.900000" y2="56.000000"  transform="rotate(0.000000,422.900000,56.000000)" style="stroke: black; stroke-width:0.25;"/>
<line x1="419.900000" y1="57.000000" x2="422.900000" y2="56.000000"  transform="rotate(0.000000,422.900000,56.000000)" style="stroke: black; stroke-width:0.25;"/>
<rect x="455.900000" y="41.000000" width="24.000000" height="24.000000" rx="0" ry="0" style="stroke:none;fill:#cccccc;"/>
<rect x="454.900000" y="40.000000" width="24.000000" height="24.000000" rx="0" ry="0" style="stroke:none;fill:#4B71A1;"/>
<text x="466.900000" y="54.000000" font-family="Arial" font-size="7" text-anchor="middle" fill="#FFFFFF">int</text>
<circle cx="456.900000" cy="42.000000" r="1"/>
<line x1="451.900000" y1="51.000000" x2="454.900000" y2="52.000000"  transform="rotate(0.000000,454.900000,52.000000)" style="stroke: black; stroke-width:0.25;"/>
<line x1="451.900000" y1="53.000000" x2="454.900000" y2="52.000000"  transform="rotate(0.000000,454.900000,52.000000)" style="stroke: black; stroke-width:0.25;"/>
<line x1="15.000000" y1="15.000000" x2="15.000000" y2="89.000000"  style="stroke: black; stroke-linecap:round; stroke-width:0.25; stroke-dasharray:3,3;"/>
<line x1="15.000000" y1="89.000000" x2="495.900000" y2="89.000000"  style="stroke: black; stroke-linecap:round; stroke-width:0.25; stroke-dasharray:3,3;"/>
<line x1="495.900000" y1="89.000000" x2="495.900000" y2="15.000000"  style="stroke: black; stroke-linecap:round; stroke-width:0.25; stroke-dasharray:3,3;"/>
<line x1="15.000000" y1="15.000000" x2="20.000000" y2="15.000000"  style="stroke: black; stroke-linecap:round; stroke-width:0.25; stroke-dasharray:3,3;"/>
<line x1="65.150000" y1="15.000000" x2="495.900000" y2="15.000000"  style="stroke: black; stroke-linecap:round; stroke-width:0.25; stroke-dasharray:3,3;"/>
<text x="20.000000" y="17.000000" font-family="Arial" font-size="7">noteDuration</text>
<line x1="497.900000" y1="51.000000" x2="500.900000" y2="52.000000"  transform="rotate(0.000000,500.900000,52.000000)" style="stroke: black; stroke-width:0.25;"/>
<line x1="497.900000" y1="53.000000" x2="500.900000" y2="52.000000"  transform="rotate(0.000000,500.900000,52.000000)" style="stroke: black; stroke-width:0.25;"/>
<line x1="146.550000" y1="68.000000" x2="150.550000" y2="68.000000"  style="stroke:black; stroke-linecap:round; stroke-width:0.25;"/>
<line x1="150.550000" y1="68.000000" x2="247.300000" y2="68.000000"  style="stroke:black; stroke-linecap:round; stroke-width:0.25;"/>
<line x1="243.300000" y1="36.000000" x2="247.300000" y2="36.000000"  style="stroke:black; stroke-linecap:round; stroke-width:0.25;"/>
<line x1="247.300000" y1="36.000000" x2="255.300000" y2="36.000000"  style="stroke:black; stroke-linecap:round; stroke-width:0.25;"/>
<line x1="247.300000" y1="56.000000" x2="255.300000" y2="56.000000"  style="stroke:black; stroke-linecap:round; stroke-width:0.25;"/>
<line x1="247.300000" y1="68.000000" x2="247.300000" y2="56.000000"  style="stroke:black; stroke-linecap:round; stroke-width:0.25;"/>
<line x1="247.300000" y1="68.000000" x2="247.300000" y2="68.000000"  style="stroke:black; stroke-linecap:round; stroke-width:0.25;"/>
<line x1="255.300000" y1="36.000000" x2="255.300000" y2="48.000000"  style="stroke:black; stroke-linecap:round; stroke-width:0.25;"/>
<line x1="255.300000" y1="48.000000" x2="255.300000" y2="48.000000"  style="stroke:black; stroke-linecap:round; stroke-width:0.25;"/>
<line x1="255.300000" y1="48.000000" x2="259.300000" y2="48.000000"  style="stroke:black; stroke-linecap:round; stroke-width:0.25;"/>
<line x1="255.300000" y1="56.000000" x2="259.300000" y2="56.000000"  style="stroke:black; stroke-linecap:round; stroke-width:0.25;"/>
<line x1="283.300000" y1="52.000000" x2="287.300000" y2="52.000000"  style="stroke:black; stroke-linecap:round; stroke-width:0.25;"/>
<line x1="287.300000" y1="52.000000" x2="295.300000" y2="52.000000"  style="stroke:black; stroke-linecap:round; stroke-width:0.25;"/>
<line x1="295.300000" y1="52.000000" x2="295.300000" y2="68.000000"  style="stroke:black; stroke-linecap:round; stroke-width:0.25;"/>
<line x1="295.300000" y1="68.000000" x2="295.300000" y2="68.000000"  style="stroke:black; stroke-linecap:round; stroke-width:0.25;"/>
<line x1="295.300000" y1="68.000000" x2="312.200000" y2="68.000000"  style="stroke:black; stroke-linecap:round; stroke-width:0.25;"/>
<line x1="312.200000" y1="68.000000" x2="329.100000" y2="68.000000"  style="stroke:black; stroke-linecap:round; stroke-width:0.25;"/>
<line x1="325.100000" y1="48.000000" x2="329.100000" y2="48.000000"  style="stroke:black; stroke-linecap:round; stroke-width:0.25;"/>
<line x1="329.100000" y1="56.000000" x2="337.100000" y2="56.000000"  style="stroke:black; stroke-linecap:round; stroke-width:0.25;"/>
<line x1="329.100000" y1="68.000000" x2="329.100000" y2="56.000000"  style="stroke:black; stroke-linecap:round; stroke-width:0.25;"/>
<line x1="329.100000" y1="68.000000" x2="329.100000" y2="68.000000"  style="stroke:black; stroke-linecap:round; stroke-width:0.25;"/>
<line x1="329.100000" y1="48.000000" x2="337.100000" y2="48.000000"  style="stroke:black; stroke-linecap:round; stroke-width:0.25;"/>
<line x1="337.100000" y1="48.000000" x2="341.100000" y2="48.000000"  style="stroke:black; stroke-linecap:round; stroke-width:0.25;"/>
<line x1="337.100000" y1="56.000000" x2="341.100000" y2="56.000000"  style="stroke:black; stroke-linecap:round; stroke-width:0.25;"/>
<line x1="365.100000" y1="52.000000" x2="369.100000" y2="52.000000"  style="stroke:black; stroke-linecap:round; stroke-width:0.25;"/>
<line x1="369.100000" y1="52.000000" x2="377.100000" y2="52.000000"  style="stroke:black; stroke-linecap:round; stroke-width:0.25;"/>
<line x1="377.100000" y1="52.000000" x2="377.100000" y2="68.000000"  style="stroke:black; stroke-linecap:round; stroke-width:0.25;"/>
<line x1="377.100000" y1="68.000000" x2="377.100000" y2="68.000000"  style="stroke:black; stroke-linecap:round; stroke-width:0.25;"/>
<line x1="377.100000" y1="68.000000" x2="394.000000" y2="68.000000"  style="stroke:black; stroke-linecap:round; stroke-width:0.25;"/>
<line x1="394.000000" y1="68.000000" x2="410.900000" y2="68.000000"  style="stroke:black; stroke-linecap:round; stroke-width:0.25;"/>
<line x1="406.900000" y1="48.000000" x2="410.900000" y2="48.000000"  style="stroke:black; stroke-linecap:round; stroke-width:0.25;"/>
<line x1="410.900000" y1="56.000000" x2="418.900000" y2="56.000000"  style="stroke:black; stroke-linecap:round; stroke-width:0.25;"/>
<line x1="410.900000" y1="68.000000" x2="410.900000" y2="56.000000"  style="stroke:black; stroke-linecap:round; stroke-width:0.25;"/>
<line x1="410.900000" y1="68.000000" x2="410.900000" y2="68.000000"  style="stroke:black; stroke-linecap:round; stroke-width:0.25;"/>
<line x1="410.900000" y1="48.000000" x2="418.900000" y2="48.000000"  style="stroke:black; stroke-linecap:round; stroke-width:0.25;"/>
<line x1="418.900000" y1="48.000000" x2="422.900000" y2="48.000000"  style="stroke:black; stroke-linecap:round; stroke-width:0.25;"/>
<line x1="418.900000" y1="56.000000" x2="422.900000" y2="56.000000"  style="stroke:black; stroke-linecap:round; stroke-width:0.25;"/>
<line x1="446.900000" y1="52.000000" x2="450.900000" y2="52.000000"  style="stroke:black; stroke-linecap:round; stroke-width:0.25;"/>
<line x1="450.900000" y1="52.000000" x2="450.900000" y2="52.000000"  style="stroke:black; stroke-linecap:round; stroke-width:0.25;"/>
<line x1="450.900000" y1="52.000000" x2="454.900000" y2="52.000000"  style="stroke:black; stroke-linecap:round; stroke-width:0.25;"/>
<line x1="478.900000" y1="52.000000" x2="482.900000" y2="52.000000"  style="stroke:black; stroke-linecap:round; stroke-width:0.25;"/>
<line x1="482.900000" y1="52.000000" x2="482.900000" y2="52.000000"  style="stroke:black; stroke-linecap:round; stroke-width:0.25;"/>
<line x1="482.900000" y1="52.000000" x2="486.900000" y2="52.000000"  style="stroke:black; stroke-linecap:round; stroke-width:0.25;"/>
<line x1="486.900000" y1="52.000000" x2="490.900000" y2="52.000000"  style="stroke:black; stroke-linecap:round; stroke-width:0.25;"/>
<line x1="490.900000" y1="52.000000" x2="500.900000" y2="52.000000"  style="stroke:black; stroke-linecap:round; stroke-width:0.25;"/>
</svg>
