<?xml version="1.0"?>
<svg xmlns="http://www.w3.org/2000/svg" xmlns:xlink="http://www.w3.org/1999/xlink" viewBox="0 0 428.000000 132.000000" width="214.000000mm" height="66.000000mm" version="1.1">
<a xlink:href="blow-0x7f82e4ca1f00.svg">
<rect x="1.000000" y="1.000000" width="427.000000" height="131.000000" rx="0" ry="0" style="stroke:none;fill:#cccccc;"/>
<rect x="0.000000" y="0.000000" width="427.000000" height="131.000000" rx="0" ry="0" style="stroke:none;fill:#ffffff;"/>
</a>
<text x="10.000000" y="7.000000" font-family="Arial" font-size="7"></text>
<rect x="33.000000" y="55.000000" width="24.000000" height="24.000000" rx="0" ry="0" style="stroke:none;fill:#cccccc;"/>
<rect x="32.000000" y="54.000000" width="24.000000" height="24.000000" rx="0" ry="0" style="stroke:none;fill:#47945E;"/>
<text x="44.000000" y="68.000000" font-family="Arial" font-size="7" text-anchor="middle" fill="#FFFFFF">x</text>
<circle cx="34.000000" cy="56.000000" r="1"/>
<line x1="29.000000" y1="65.000000" x2="32.000000" y2="66.000000"  transform="rotate(0.000000,32.000000,66.000000)" style="stroke: black; stroke-width:0.25;"/>
<line x1="29.000000" y1="67.000000" x2="32.000000" y2="66.000000"  transform="rotate(0.000000,32.000000,66.000000)" style="stroke: black; stroke-width:0.25;"/>
<rect x="65.000000" y="55.000000" width="24.000000" height="24.000000" rx="0" ry="0" style="stroke:none;fill:#cccccc;"/>
<rect x="64.000000" y="54.000000" width="24.000000" height="24.000000" rx="0" ry="0" style="stroke:none;fill:#47945E;"/>
<text x="76.000000" y="68.000000" font-family="Arial" font-size="7" text-anchor="middle" fill="#FFFFFF">x</text>
<circle cx="66.000000" cy="56.000000" r="1"/>
<rect x="138.000000" y="33.000000" width="24.000000" height="24.000000" rx="0" ry="0" style="stroke:none;fill:#cccccc;"/>
<rect x="137.000000" y="32.000000" width="24.000000" height="24.000000" rx="0" ry="0" style="stroke:none;fill:#4B71A1;"/>
<text x="149.000000" y="46.000000" font-family="Arial" font-size="7" text-anchor="middle" fill="#FFFFFF">*</text>
<circle cx="139.000000" cy="34.000000" r="1"/>
<line x1="134.000000" y1="39.000000" x2="137.000000" y2="40.000000"  transform="rotate(0.000000,137.000000,40.000000)" style="stroke: black; stroke-width:0.25;"/>
<line x1="134.000000" y1="41.000000" x2="137.000000" y2="40.000000"  transform="rotate(0.000000,137.000000,40.000000)" style="stroke: black; stroke-width:0.25;"/>
<line x1="134.000000" y1="47.000000" x2="137.000000" y2="48.000000"  transform="rotate(0.000000,137.000000,48.000000)" style="stroke: black; stroke-width:0.25;"/>
<line x1="134.000000" y1="49.000000" x2="137.000000" y2="48.000000"  transform="rotate(0.000000,137.000000,48.000000)" style="stroke: black; stroke-width:0.25;"/>
<rect x="138.000000" y="75.000000" width="24.000000" height="24.000000" rx="0" ry="0" style="stroke:none;fill:#cccccc;"/>
<rect x="137.000000" y="74.000000" width="24.000000" height="24.000000" rx="0" ry="0" style="stroke:none;fill:#f44800;"/>
<text x="149.000000" y="88.000000" font-family="Arial" font-size="7" text-anchor="middle" fill="#FFFFFF">1</text>
<circle cx="139.000000" cy="76.000000" r="1"/>
<line x1="128.000000" y1="65.000000" x2="128.000000" y2="107.000000"  style="stroke: black; stroke-linecap:round; stroke-width:0.25; stroke-dasharray:3,3;"/>
<line x1="128.000000" y1="107.000000" x2="170.000000" y2="107.000000"  style="stroke: black; stroke-linecap:round; stroke-width:0.25; stroke-dasharray:3,3;"/>
<line x1="170.000000" y1="107.000000" x2="170.000000" y2="65.000000"  style="stroke: black; stroke-linecap:round; stroke-width:0.25; stroke-dasharray:3,3;"/>
<line x1="128.000000" y1="65.000000" x2="133.000000" y2="65.000000"  style="stroke: black; stroke-linecap:round; stroke-width:0.25; stroke-dasharray:3,3;"/>
<line x1="145.900000" y1="65.000000" x2="170.000000" y2="65.000000"  style="stroke: black; stroke-linecap:round; stroke-width:0.25; stroke-dasharray:3,3;"/>
<text x="133.000000" y="67.000000" font-family="Arial" font-size="7">a0</text>
<rect x="188.000000" y="59.000000" width="24.000000" height="24.000000" rx="0" ry="0" style="stroke:none;fill:#cccccc;"/>
<rect x="187.000000" y="58.000000" width="24.000000" height="24.000000" rx="0" ry="0" style="stroke:none;fill:#4B71A1;"/>
<text x="199.000000" y="72.000000" font-family="Arial" font-size="7" text-anchor="middle" fill="#FFFFFF">-</text>
<circle cx="189.000000" cy="60.000000" r="1"/>
<line x1="184.000000" y1="65.000000" x2="187.000000" y2="66.000000"  transform="rotate(0.000000,187.000000,66.000000)" style="stroke: black; stroke-width:0.25;"/>
<line x1="184.000000" y1="67.000000" x2="187.000000" y2="66.000000"  transform="rotate(0.000000,187.000000,66.000000)" style="stroke: black; stroke-width:0.25;"/>
<line x1="184.000000" y1="73.000000" x2="187.000000" y2="74.000000"  transform="rotate(0.000000,187.000000,74.000000)" style="stroke: black; stroke-width:0.25;"/>
<line x1="184.000000" y1="75.000000" x2="187.000000" y2="74.000000"  transform="rotate(0.000000,187.000000,74.000000)" style="stroke: black; stroke-width:0.25;"/>
<rect x="228.000000" y="55.000000" width="24.000000" height="24.000000" rx="0" ry="0" style="stroke:none;fill:#cccccc;"/>
<rect x="227.000000" y="54.000000" width="24.000000" height="24.000000" rx="0" ry="0" style="stroke:none;fill:#4B71A1;"/>
<text x="239.000000" y="68.000000" font-family="Arial" font-size="7" text-anchor="middle" fill="#FFFFFF">*</text>
<circle cx="229.000000" cy="56.000000" r="1"/>
<line x1="224.000000" y1="61.000000" x2="227.000000" y2="62.000000"  transform="rotate(0.000000,227.000000,62.000000)" style="stroke: black; stroke-width:0.25;"/>
<line x1="224.000000" y1="63.000000" x2="227.000000" y2="62.000000"  transform="rotate(0.000000,227.000000,62.000000)" style="stroke: black; stroke-width:0.25;"/>
<line x1="224.000000" y1="69.000000" x2="227.000000" y2="70.000000"  transform="rotate(0.000000,227.000000,70.000000)" style="stroke: black; stroke-width:0.25;"/>
<line x1="224.000000" y1="71.000000" x2="227.000000" y2="70.000000"  transform="rotate(0.000000,227.000000,70.000000)" style="stroke: black; stroke-width:0.25;"/>
<a xlink:href="saturationPos-0x7f82e0edcd50.svg">
<rect x="260.000000" y="55.000000" width="64.500000" height="24.000000" rx="0" ry="0" style="stroke:none;fill:#cccccc;"/>
<rect x="259.000000" y="54.000000" width="64.500000" height="24.000000" rx="0" ry="0" style="stroke:none;fill:#003366;"/>
</a>
<a xlink:href="saturationPos-0x7f82e0edcd50.svg">
<text x="291.250000" y="68.000000" font-family="Arial" font-size="7" text-anchor="middle" fill="#FFFFFF">saturationPos</text>
</a>
<circle cx="261.000000" cy="56.000000" r="1"/>
<line x1="256.000000" y1="65.000000" x2="259.000000" y2="66.000000"  transform="rotate(0.000000,259.000000,66.000000)" style="stroke: black; stroke-width:0.25;"/>
<line x1="256.000000" y1="67.000000" x2="259.000000" y2="66.000000"  transform="rotate(0.000000,259.000000,66.000000)" style="stroke: black; stroke-width:0.25;"/>
<a xlink:href="saturationNeg-0x7f82e0edeec0.svg">
<rect x="332.500000" y="55.000000" width="64.500000" height="24.000000" rx="0" ry="0" style="stroke:none;fill:#cccccc;"/>
<rect x="331.500000" y="54.000000" width="64.500000" height="24.000000" rx="0" ry="0" style="stroke:none;fill:#003366;"/>
</a>
<a xlink:href="saturationNeg-0x7f82e0edeec0.svg">
<text x="363.750000" y="68.000000" font-family="Arial" font-size="7" text-anchor="middle" fill="#FFFFFF">saturationNeg</text>
</a>
<circle cx="333.500000" cy="56.000000" r="1"/>
<line x1="328.500000" y1="65.000000" x2="331.500000" y2="66.000000"  transform="rotate(0.000000,331.500000,66.000000)" style="stroke: black; stroke-width:0.25;"/>
<line x1="328.500000" y1="67.000000" x2="331.500000" y2="66.000000"  transform="rotate(0.000000,331.500000,66.000000)" style="stroke: black; stroke-width:0.25;"/>
<line x1="15.000000" y1="15.000000" x2="15.000000" y2="117.000000"  style="stroke: black; stroke-linecap:round; stroke-width:0.25; stroke-dasharray:3,3;"/>
<line x1="15.000000" y1="117.000000" x2="413.000000" y2="117.000000"  style="stroke: black; stroke-linecap:round; stroke-width:0.25; stroke-dasharray:3,3;"/>
<line x1="413.000000" y1="117.000000" x2="413.000000" y2="15.000000"  style="stroke: black; stroke-linecap:round; stroke-width:0.25; stroke-dasharray:3,3;"/>
<line x1="15.000000" y1="15.000000" x2="20.000000" y2="15.000000"  style="stroke: black; stroke-linecap:round; stroke-width:0.25; stroke-dasharray:3,3;"/>
<line x1="52.250000" y1="15.000000" x2="413.000000" y2="15.000000"  style="stroke: black; stroke-linecap:round; stroke-width:0.25; stroke-dasharray:3,3;"/>
<text x="20.000000" y="17.000000" font-family="Arial" font-size="7">jetTable</text>
<line x1="415.000000" y1="65.000000" x2="418.000000" y2="66.000000"  transform="rotate(0.000000,418.000000,66.000000)" style="stroke: black; stroke-width:0.25;"/>
<line x1="415.000000" y1="67.000000" x2="418.000000" y2="66.000000"  transform="rotate(0.000000,418.000000,66.000000)" style="stroke: black; stroke-width:0.25;"/>
<line x1="10.000000" y1="66.000000" x2="20.000000" y2="66.000000"  style="stroke:black; stroke-linecap:round; stroke-width:0.25;"/>
<line x1="20.000000" y1="66.000000" x2="24.000000" y2="66.000000"  style="stroke:black; stroke-linecap:round; stroke-width:0.25;"/>
<line x1="24.000000" y1="66.000000" x2="28.000000" y2="66.000000"  style="stroke:black; stroke-linecap:round; stroke-width:0.25;"/>
<line x1="28.000000" y1="66.000000" x2="28.000000" y2="66.000000"  style="stroke:black; stroke-linecap:round; stroke-width:0.25;"/>
<line x1="28.000000" y1="66.000000" x2="32.000000" y2="66.000000"  style="stroke:black; stroke-linecap:round; stroke-width:0.25;"/>
<line x1="88.000000" y1="66.000000" x2="92.000000" y2="66.000000"  style="stroke:black; stroke-linecap:round; stroke-width:0.25;"/>
<line x1="92.000000" y1="66.000000" x2="123.000000" y2="24.000000"  style="stroke:black; stroke-linecap:round; stroke-width:0.25;"/>
<line x1="92.000000" y1="66.000000" x2="123.000000" y2="40.000000"  style="stroke:black; stroke-linecap:round; stroke-width:0.25;"/>
<line x1="92.000000" y1="66.000000" x2="123.000000" y2="48.000000"  style="stroke:black; stroke-linecap:round; stroke-width:0.25;"/>
<line x1="123.000000" y1="24.000000" x2="169.000000" y2="24.000000"  style="stroke:black; stroke-linecap:round; stroke-width:0.25;"/>
<line x1="123.000000" y1="40.000000" x2="133.000000" y2="40.000000"  style="stroke:black; stroke-linecap:round; stroke-width:0.25;"/>
<line x1="123.000000" y1="48.000000" x2="133.000000" y2="48.000000"  style="stroke:black; stroke-linecap:round; stroke-width:0.25;"/>
<line x1="133.000000" y1="40.000000" x2="133.000000" y2="40.000000"  style="stroke:black; stroke-linecap:round; stroke-width:0.25;"/>
<line x1="133.000000" y1="40.000000" x2="137.000000" y2="40.000000"  style="stroke:black; stroke-linecap:round; stroke-width:0.25;"/>
<line x1="133.000000" y1="48.000000" x2="133.000000" y2="48.000000"  style="stroke:black; stroke-linecap:round; stroke-width:0.25;"/>
<line x1="133.000000" y1="48.000000" x2="137.000000" y2="48.000000"  style="stroke:black; stroke-linecap:round; stroke-width:0.25;"/>
<line x1="161.000000" y1="44.000000" x2="165.000000" y2="44.000000"  style="stroke:black; stroke-linecap:round; stroke-width:0.25;"/>
<line x1="161.000000" y1="86.000000" x2="165.000000" y2="86.000000"  style="stroke:black; stroke-linecap:round; stroke-width:0.25;"/>
<line x1="165.000000" y1="44.000000" x2="175.000000" y2="44.000000"  style="stroke:black; stroke-linecap:round; stroke-width:0.25;"/>
<line x1="165.000000" y1="86.000000" x2="175.000000" y2="86.000000"  style="stroke:black; stroke-linecap:round; stroke-width:0.25;"/>
<line x1="169.000000" y1="24.000000" x2="215.000000" y2="24.000000"  style="stroke:black; stroke-linecap:round; stroke-width:0.25;"/>
<line x1="175.000000" y1="44.000000" x2="183.000000" y2="44.000000"  style="stroke:black; stroke-linecap:round; stroke-width:0.25;"/>
<line x1="175.000000" y1="74.000000" x2="183.000000" y2="74.000000"  style="stroke:black; stroke-linecap:round; stroke-width:0.25;"/>
<line x1="175.000000" y1="86.000000" x2="175.000000" y2="74.000000"  style="stroke:black; stroke-linecap:round; stroke-width:0.25;"/>
<line x1="175.000000" y1="86.000000" x2="175.000000" y2="86.000000"  style="stroke:black; stroke-linecap:round; stroke-width:0.25;"/>
<line x1="183.000000" y1="44.000000" x2="183.000000" y2="66.000000"  style="stroke:black; stroke-linecap:round; stroke-width:0.25;"/>
<line x1="183.000000" y1="66.000000" x2="183.000000" y2="66.000000"  style="stroke:black; stroke-linecap:round; stroke-width:0.25;"/>
<line x1="183.000000" y1="66.000000" x2="187.000000" y2="66.000000"  style="stroke:black; stroke-linecap:round; stroke-width:0.25;"/>
<line x1="183.000000" y1="74.000000" x2="187.000000" y2="74.000000"  style="stroke:black; stroke-linecap:round; stroke-width:0.25;"/>
<line x1="211.000000" y1="70.000000" x2="215.000000" y2="70.000000"  style="stroke:black; stroke-linecap:round; stroke-width:0.25;"/>
<line x1="215.000000" y1="24.000000" x2="223.000000" y2="24.000000"  style="stroke:black; stroke-linecap:round; stroke-width:0.25;"/>
<line x1="215.000000" y1="70.000000" x2="223.000000" y2="70.000000"  style="stroke:black; stroke-linecap:round; stroke-width:0.25;"/>
<line x1="223.000000" y1="24.000000" x2="223.000000" y2="62.000000"  style="stroke:black; stroke-linecap:round; stroke-width:0.25;"/>
<line x1="223.000000" y1="62.000000" x2="223.000000" y2="62.000000"  style="stroke:black; stroke-linecap:round; stroke-width:0.25;"/>
<line x1="223.000000" y1="62.000000" x2="227.000000" y2="62.000000"  style="stroke:black; stroke-linecap:round; stroke-width:0.25;"/>
<line x1="223.000000" y1="70.000000" x2="227.000000" y2="70.000000"  style="stroke:black; stroke-linecap:round; stroke-width:0.25;"/>
<line x1="251.000000" y1="66.000000" x2="255.000000" y2="66.000000"  style="stroke:black; stroke-linecap:round; stroke-width:0.25;"/>
<line x1="255.000000" y1="66.000000" x2="255.000000" y2="66.000000"  style="stroke:black; stroke-linecap:round; stroke-width:0.25;"/>
<line x1="255.000000" y1="66.000000" x2="259.000000" y2="66.000000"  style="stroke:black; stroke-linecap:round; stroke-width:0.25;"/>
<line x1="323.500000" y1="66.000000" x2="327.500000" y2="66.000000"  style="stroke:black; stroke-linecap:round; stroke-width:0.25;"/>
<line x1="327.500000" y1="66.000000" x2="327.500000" y2="66.000000"  style="stroke:black; stroke-linecap:round; stroke-width:0.25;"/>
<line x1="327.500000" y1="66.000000" x2="331.500000" y2="66.000000"  style="stroke:black; stroke-linecap:round; stroke-width:0.25;"/>
<line x1="396.000000" y1="66.000000" x2="400.000000" y2="66.000000"  style="stroke:black; stroke-linecap:round; stroke-width:0.25;"/>
<line x1="400.000000" y1="66.000000" x2="400.000000" y2="66.000000"  style="stroke:black; stroke-linecap:round; stroke-width:0.25;"/>
<line x1="400.000000" y1="66.000000" x2="404.000000" y2="66.000000"  style="stroke:black; stroke-linecap:round; stroke-width:0.25;"/>
<line x1="404.000000" y1="66.000000" x2="408.000000" y2="66.000000"  style="stroke:black; stroke-linecap:round; stroke-width:0.25;"/>
<line x1="408.000000" y1="66.000000" x2="418.000000" y2="66.000000"  style="stroke:black; stroke-linecap:round; stroke-width:0.25;"/>
</svg>
