<?xml version="1.0"?>
<svg xmlns="http://www.w3.org/2000/svg" xmlns:xlink="http://www.w3.org/1999/xlink" viewBox="0 0 445.200000 380.000000" width="222.600000mm" height="190.000000mm" version="1.1">
<rect x="1.000000" y="1.000000" width="444.200000" height="379.000000" rx="0" ry="0" style="stroke:none;fill:#cccccc;"/>
<rect x="0.000000" y="0.000000" width="444.200000" height="379.000000" rx="0" ry="0" style="stroke:none;fill:#ffffff;"/>
<text x="10.000000" y="7.000000" font-family="Arial" font-size="7"></text>
<a xlink:href="blow-0x7ff10abb8c10.svg">
<rect x="35.000000" y="35.000000" width="38.700000" height="24.000000" rx="0" ry="0" style="stroke:none;fill:#cccccc;"/>
<rect x="34.000000" y="34.000000" width="38.700000" height="24.000000" rx="0" ry="0" style="stroke:none;fill:#003366;"/>
</a>
<a xlink:href="blow-0x7ff10abb8c10.svg">
<text x="53.350000" y="48.000000" font-family="Arial" font-size="7" text-anchor="middle" fill="#FFFFFF">blow(0)</text>
</a>
<circle cx="36.000000" cy="36.000000" r="1"/>
<a xlink:href="blow-0x7ff10aa16930.svg">
<rect x="35.000000" y="67.000000" width="38.700000" height="24.000000" rx="0" ry="0" style="stroke:none;fill:#cccccc;"/>
<rect x="34.000000" y="66.000000" width="38.700000" height="24.000000" rx="0" ry="0" style="stroke:none;fill:#003366;"/>
</a>
<a xlink:href="blow-0x7ff10aa16930.svg">
<text x="53.350000" y="80.000000" font-family="Arial" font-size="7" text-anchor="middle" fill="#FFFFFF">blow(1)</text>
</a>
<circle cx="36.000000" cy="68.000000" r="1"/>
<a xlink:href="blow-0x7ff10b01f130.svg">
<rect x="35.000000" y="99.000000" width="38.700000" height="24.000000" rx="0" ry="0" style="stroke:none;fill:#cccccc;"/>
<rect x="34.000000" y="98.000000" width="38.700000" height="24.000000" rx="0" ry="0" style="stroke:none;fill:#003366;"/>
</a>
<a xlink:href="blow-0x7ff10b01f130.svg">
<text x="53.350000" y="112.000000" font-family="Arial" font-size="7" text-anchor="middle" fill="#FFFFFF">blow(2)</text>
</a>
<circle cx="36.000000" cy="100.000000" r="1"/>
<a xlink:href="blow-0x7ff10b4a8bf0.svg">
<rect x="35.000000" y="131.000000" width="38.700000" height="24.000000" rx="0" ry="0" style="stroke:none;fill:#cccccc;"/>
<rect x="34.000000" y="130.000000" width="38.700000" height="24.000000" rx="0" ry="0" style="stroke:none;fill:#003366;"/>
</a>
<a xlink:href="blow-0x7ff10b4a8bf0.svg">
<text x="53.350000" y="144.000000" font-family="Arial" font-size="7" text-anchor="middle" fill="#FFFFFF">blow(3)</text>
</a>
<circle cx="36.000000" cy="132.000000" r="1"/>
<a xlink:href="blow-0x7ff10afe3840.svg">
<rect x="35.000000" y="163.000000" width="38.700000" height="24.000000" rx="0" ry="0" style="stroke:none;fill:#cccccc;"/>
<rect x="34.000000" y="162.000000" width="38.700000" height="24.000000" rx="0" ry="0" style="stroke:none;fill:#003366;"/>
</a>
<a xlink:href="blow-0x7ff10afe3840.svg">
<text x="53.350000" y="176.000000" font-family="Arial" font-size="7" text-anchor="middle" fill="#FFFFFF">blow(4)</text>
</a>
<circle cx="36.000000" cy="164.000000" r="1"/>
<a xlink:href="blow-0x7ff10b96f300.svg">
<rect x="35.000000" y="195.000000" width="38.700000" height="24.000000" rx="0" ry="0" style="stroke:none;fill:#cccccc;"/>
<rect x="34.000000" y="194.000000" width="38.700000" height="24.000000" rx="0" ry="0" style="stroke:none;fill:#003366;"/>
</a>
<a xlink:href="blow-0x7ff10b96f300.svg">
<text x="53.350000" y="208.000000" font-family="Arial" font-size="7" text-anchor="middle" fill="#FFFFFF">blow(5)</text>
</a>
<circle cx="36.000000" cy="196.000000" r="1"/>
<a xlink:href="blow-0x7ff10bbec6c0.svg">
<rect x="35.000000" y="227.000000" width="38.700000" height="24.000000" rx="0" ry="0" style="stroke:none;fill:#cccccc;"/>
<rect x="34.000000" y="226.000000" width="38.700000" height="24.000000" rx="0" ry="0" style="stroke:none;fill:#003366;"/>
</a>
<a xlink:href="blow-0x7ff10bbec6c0.svg">
<text x="53.350000" y="240.000000" font-family="Arial" font-size="7" text-anchor="middle" fill="#FFFFFF">blow(6)</text>
</a>
<circle cx="36.000000" cy="228.000000" r="1"/>
<a xlink:href="blow-0x7ff10bab8c10.svg">
<rect x="35.000000" y="259.000000" width="38.700000" height="24.000000" rx="0" ry="0" style="stroke:none;fill:#cccccc;"/>
<rect x="34.000000" y="258.000000" width="38.700000" height="24.000000" rx="0" ry="0" style="stroke:none;fill:#003366;"/>
</a>
<a xlink:href="blow-0x7ff10bab8c10.svg">
<text x="53.350000" y="272.000000" font-family="Arial" font-size="7" text-anchor="middle" fill="#FFFFFF">blow(7)</text>
</a>
<circle cx="36.000000" cy="260.000000" r="1"/>
<a xlink:href="blow-0x7ff10ca2b470.svg">
<rect x="35.000000" y="291.000000" width="38.700000" height="24.000000" rx="0" ry="0" style="stroke:none;fill:#cccccc;"/>
<rect x="34.000000" y="290.000000" width="38.700000" height="24.000000" rx="0" ry="0" style="stroke:none;fill:#003366;"/>
</a>
<a xlink:href="blow-0x7ff10ca2b470.svg">
<text x="53.350000" y="304.000000" font-family="Arial" font-size="7" text-anchor="middle" fill="#FFFFFF">blow(8)</text>
</a>
<circle cx="36.000000" cy="292.000000" r="1"/>
<a xlink:href="blow-0x7ff10c997de0.svg">
<rect x="35.000000" y="323.000000" width="38.700000" height="24.000000" rx="0" ry="0" style="stroke:none;fill:#cccccc;"/>
<rect x="34.000000" y="322.000000" width="38.700000" height="24.000000" rx="0" ry="0" style="stroke:none;fill:#003366;"/>
</a>
<a xlink:href="blow-0x7ff10c997de0.svg">
<text x="53.350000" y="336.000000" font-family="Arial" font-size="7" text-anchor="middle" fill="#FFFFFF">blow(9)</text>
</a>
<circle cx="36.000000" cy="324.000000" r="1"/>
<a xlink:href="instrReverblow-0x7ff10cd98a70.svg">
<rect x="231.700000" y="179.000000" width="64.500000" height="24.000000" rx="0" ry="0" style="stroke:none;fill:#cccccc;"/>
<rect x="230.700000" y="178.000000" width="64.500000" height="24.000000" rx="0" ry="0" style="stroke:none;fill:#003366;"/>
</a>
<a xlink:href="instrReverblow-0x7ff10cd98a70.svg">
<text x="262.950000" y="192.000000" font-family="Arial" font-size="7" text-anchor="middle" fill="#FFFFFF">instrReverblow</text>
</a>
<circle cx="232.700000" cy="180.000000" r="1"/>
<line x1="227.700000" y1="185.000000" x2="230.700000" y2="186.000000"  transform="rotate(0.000000,230.700000,186.000000)" style="stroke: black; stroke-width:0.25;"/>
<line x1="227.700000" y1="187.000000" x2="230.700000" y2="186.000000"  transform="rotate(0.000000,230.700000,186.000000)" style="stroke: black; stroke-width:0.25;"/>
<line x1="227.700000" y1="193.000000" x2="230.700000" y2="194.000000"  transform="rotate(0.000000,230.700000,194.000000)" style="stroke: black; stroke-width:0.25;"/>
<line x1="227.700000" y1="195.000000" x2="230.700000" y2="194.000000"  transform="rotate(0.000000,230.700000,194.000000)" style="stroke: black; stroke-width:0.25;"/>
<rect x="322.200000" y="153.000000" width="24.000000" height="24.000000" rx="0" ry="0" style="stroke:none;fill:#cccccc;"/>
<rect x="321.200000" y="152.000000" width="24.000000" height="24.000000" rx="0" ry="0" style="stroke:none;fill:#f44800;"/>
<text x="333.200000" y="166.000000" font-family="Arial" font-size="7" text-anchor="middle" fill="#FFFFFF">1</text>
<circle cx="323.200000" cy="154.000000" r="1"/>
<line x1="312.200000" y1="143.000000" x2="312.200000" y2="185.000000"  style="stroke: black; stroke-linecap:round; stroke-width:0.25; stroke-dasharray:3,3;"/>
<line x1="312.200000" y1="185.000000" x2="354.200000" y2="185.000000"  style="stroke: black; stroke-linecap:round; stroke-width:0.25; stroke-dasharray:3,3;"/>
<line x1="354.200000" y1="185.000000" x2="354.200000" y2="143.000000"  style="stroke: black; stroke-linecap:round; stroke-width:0.25; stroke-dasharray:3,3;"/>
<line x1="312.200000" y1="143.000000" x2="317.200000" y2="143.000000"  style="stroke: black; stroke-linecap:round; stroke-width:0.25; stroke-dasharray:3,3;"/>
<line x1="330.100000" y1="143.000000" x2="354.200000" y2="143.000000"  style="stroke: black; stroke-linecap:round; stroke-width:0.25; stroke-dasharray:3,3;"/>
<text x="317.200000" y="145.000000" font-family="Arial" font-size="7">a0</text>
<rect x="372.200000" y="149.000000" width="24.000000" height="24.000000" rx="0" ry="0" style="stroke:none;fill:#cccccc;"/>
<rect x="371.200000" y="148.000000" width="24.000000" height="24.000000" rx="0" ry="0" style="stroke:none;fill:#4B71A1;"/>
<text x="383.200000" y="162.000000" font-family="Arial" font-size="7" text-anchor="middle" fill="#FFFFFF">*</text>
<circle cx="373.200000" cy="150.000000" r="1"/>
<line x1="368.200000" y1="155.000000" x2="371.200000" y2="156.000000"  transform="rotate(0.000000,371.200000,156.000000)" style="stroke: black; stroke-width:0.25;"/>
<line x1="368.200000" y1="157.000000" x2="371.200000" y2="156.000000"  transform="rotate(0.000000,371.200000,156.000000)" style="stroke: black; stroke-width:0.25;"/>
<line x1="368.200000" y1="163.000000" x2="371.200000" y2="164.000000"  transform="rotate(0.000000,371.200000,164.000000)" style="stroke: black; stroke-width:0.25;"/>
<line x1="368.200000" y1="165.000000" x2="371.200000" y2="164.000000"  transform="rotate(0.000000,371.200000,164.000000)" style="stroke: black; stroke-width:0.25;"/>
<rect x="322.200000" y="213.000000" width="24.000000" height="24.000000" rx="0" ry="0" style="stroke:none;fill:#cccccc;"/>
<rect x="321.200000" y="212.000000" width="24.000000" height="24.000000" rx="0" ry="0" style="stroke:none;fill:#f44800;"/>
<text x="333.200000" y="226.000000" font-family="Arial" font-size="7" text-anchor="middle" fill="#FFFFFF">1</text>
<circle cx="323.200000" cy="214.000000" r="1"/>
<line x1="312.200000" y1="203.000000" x2="312.200000" y2="245.000000"  style="stroke: black; stroke-linecap:round; stroke-width:0.25; stroke-dasharray:3,3;"/>
<line x1="312.200000" y1="245.000000" x2="354.200000" y2="245.000000"  style="stroke: black; stroke-linecap:round; stroke-width:0.25; stroke-dasharray:3,3;"/>
<line x1="354.200000" y1="245.000000" x2="354.200000" y2="203.000000"  style="stroke: black; stroke-linecap:round; stroke-width:0.25; stroke-dasharray:3,3;"/>
<line x1="312.200000" y1="203.000000" x2="317.200000" y2="203.000000"  style="stroke: black; stroke-linecap:round; stroke-width:0.25; stroke-dasharray:3,3;"/>
<line x1="330.100000" y1="203.000000" x2="354.200000" y2="203.000000"  style="stroke: black; stroke-linecap:round; stroke-width:0.25; stroke-dasharray:3,3;"/>
<text x="317.200000" y="205.000000" font-family="Arial" font-size="7">a0</text>
<rect x="372.200000" y="209.000000" width="24.000000" height="24.000000" rx="0" ry="0" style="stroke:none;fill:#cccccc;"/>
<rect x="371.200000" y="208.000000" width="24.000000" height="24.000000" rx="0" ry="0" style="stroke:none;fill:#4B71A1;"/>
<text x="383.200000" y="222.000000" font-family="Arial" font-size="7" text-anchor="middle" fill="#FFFFFF">*</text>
<circle cx="373.200000" cy="210.000000" r="1"/>
<line x1="368.200000" y1="215.000000" x2="371.200000" y2="216.000000"  transform="rotate(0.000000,371.200000,216.000000)" style="stroke: black; stroke-width:0.25;"/>
<line x1="368.200000" y1="217.000000" x2="371.200000" y2="216.000000"  transform="rotate(0.000000,371.200000,216.000000)" style="stroke: black; stroke-width:0.25;"/>
<line x1="368.200000" y1="223.000000" x2="371.200000" y2="224.000000"  transform="rotate(0.000000,371.200000,224.000000)" style="stroke: black; stroke-width:0.25;"/>
<line x1="368.200000" y1="225.000000" x2="371.200000" y2="224.000000"  transform="rotate(0.000000,371.200000,224.000000)" style="stroke: black; stroke-width:0.25;"/>
<line x1="25.000000" y1="25.000000" x2="25.000000" y2="355.000000"  style="stroke: black; stroke-linecap:round; stroke-width:0.25; stroke-dasharray:3,3;"/>
<line x1="25.000000" y1="355.000000" x2="404.200000" y2="355.000000"  style="stroke: black; stroke-linecap:round; stroke-width:0.25; stroke-dasharray:3,3;"/>
<line x1="404.200000" y1="355.000000" x2="404.200000" y2="25.000000"  style="stroke: black; stroke-linecap:round; stroke-width:0.25; stroke-dasharray:3,3;"/>
<line x1="25.000000" y1="25.000000" x2="30.000000" y2="25.000000"  style="stroke: black; stroke-linecap:round; stroke-width:0.25; stroke-dasharray:3,3;"/>
<line x1="120.300000" y1="25.000000" x2="404.200000" y2="25.000000"  style="stroke: black; stroke-linecap:round; stroke-width:0.25; stroke-dasharray:3,3;"/>
<text x="30.000000" y="27.000000" font-family="Arial" font-size="7">vgroup(Blowhistle Bottles)</text>
<line x1="15.000000" y1="15.000000" x2="15.000000" y2="365.000000"  style="stroke: black; stroke-linecap:round; stroke-width:0.25; stroke-dasharray:3,3;"/>
<line x1="15.000000" y1="365.000000" x2="430.200000" y2="365.000000"  style="stroke: black; stroke-linecap:round; stroke-width:0.25; stroke-dasharray:3,3;"/>
<line x1="430.200000" y1="365.000000" x2="430.200000" y2="15.000000"  style="stroke: black; stroke-linecap:round; stroke-width:0.25; stroke-dasharray:3,3;"/>
<line x1="15.000000" y1="15.000000" x2="20.000000" y2="15.000000"  style="stroke: black; stroke-linecap:round; stroke-width:0.25; stroke-dasharray:3,3;"/>
<line x1="49.025000" y1="15.000000" x2="430.200000" y2="15.000000"  style="stroke: black; stroke-linecap:round; stroke-width:0.25; stroke-dasharray:3,3;"/>
<text x="20.000000" y="17.000000" font-family="Arial" font-size="7">process</text>
<line x1="432.200000" y1="185.000000" x2="435.200000" y2="186.000000"  transform="rotate(0.000000,435.200000,186.000000)" style="stroke: black; stroke-width:0.25;"/>
<line x1="432.200000" y1="187.000000" x2="435.200000" y2="186.000000"  transform="rotate(0.000000,435.200000,186.000000)" style="stroke: black; stroke-width:0.25;"/>
<line x1="432.200000" y1="193.000000" x2="435.200000" y2="194.000000"  transform="rotate(0.000000,435.200000,194.000000)" style="stroke: black; stroke-width:0.25;"/>
<line x1="432.200000" y1="195.000000" x2="435.200000" y2="194.000000"  transform="rotate(0.000000,435.200000,194.000000)" style="stroke: black; stroke-width:0.25;"/>
<line x1="72.700000" y1="46.000000" x2="76.700000" y2="46.000000"  style="stroke:black; stroke-linecap:round; stroke-width:0.25;"/>
<line x1="72.700000" y1="78.000000" x2="76.700000" y2="78.000000"  style="stroke:black; stroke-linecap:round; stroke-width:0.25;"/>
<line x1="72.700000" y1="110.000000" x2="76.700000" y2="110.000000"  style="stroke:black; stroke-linecap:round; stroke-width:0.25;"/>
<line x1="72.700000" y1="142.000000" x2="76.700000" y2="142.000000"  style="stroke:black; stroke-linecap:round; stroke-width:0.25;"/>
<line x1="72.700000" y1="174.000000" x2="76.700000" y2="174.000000"  style="stroke:black; stroke-linecap:round; stroke-width:0.25;"/>
<line x1="72.700000" y1="206.000000" x2="76.700000" y2="206.000000"  style="stroke:black; stroke-linecap:round; stroke-width:0.25;"/>
<line x1="72.700000" y1="238.000000" x2="76.700000" y2="238.000000"  style="stroke:black; stroke-linecap:round; stroke-width:0.25;"/>
<line x1="72.700000" y1="270.000000" x2="76.700000" y2="270.000000"  style="stroke:black; stroke-linecap:round; stroke-width:0.25;"/>
<line x1="72.700000" y1="302.000000" x2="76.700000" y2="302.000000"  style="stroke:black; stroke-linecap:round; stroke-width:0.25;"/>
<line x1="72.700000" y1="334.000000" x2="76.700000" y2="334.000000"  style="stroke:black; stroke-linecap:round; stroke-width:0.25;"/>
<line x1="76.700000" y1="46.000000" x2="186.700000" y2="190.000000"  style="stroke:black; stroke-linecap:round; stroke-width:0.25;"/>
<line x1="76.700000" y1="78.000000" x2="186.700000" y2="190.000000"  style="stroke:black; stroke-linecap:round; stroke-width:0.25;"/>
<line x1="76.700000" y1="110.000000" x2="186.700000" y2="190.000000"  style="stroke:black; stroke-linecap:round; stroke-width:0.25;"/>
<line x1="76.700000" y1="142.000000" x2="186.700000" y2="190.000000"  style="stroke:black; stroke-linecap:round; stroke-width:0.25;"/>
<line x1="76.700000" y1="174.000000" x2="186.700000" y2="190.000000"  style="stroke:black; stroke-linecap:round; stroke-width:0.25;"/>
<line x1="76.700000" y1="206.000000" x2="186.700000" y2="190.000000"  style="stroke:black; stroke-linecap:round; stroke-width:0.25;"/>
<line x1="76.700000" y1="238.000000" x2="186.700000" y2="190.000000"  style="stroke:black; stroke-linecap:round; stroke-width:0.25;"/>
<line x1="76.700000" y1="270.000000" x2="186.700000" y2="190.000000"  style="stroke:black; stroke-linecap:round; stroke-width:0.25;"/>
<line x1="76.700000" y1="302.000000" x2="186.700000" y2="190.000000"  style="stroke:black; stroke-linecap:round; stroke-width:0.25;"/>
<line x1="76.700000" y1="334.000000" x2="186.700000" y2="190.000000"  style="stroke:black; stroke-linecap:round; stroke-width:0.25;"/>
<line x1="186.700000" y1="190.000000" x2="190.700000" y2="190.000000"  style="stroke:black; stroke-linecap:round; stroke-width:0.25;"/>
<line x1="190.700000" y1="190.000000" x2="194.700000" y2="190.000000"  style="stroke:black; stroke-linecap:round; stroke-width:0.25;"/>
<line x1="194.700000" y1="190.000000" x2="226.700000" y2="186.000000"  style="stroke:black; stroke-linecap:round; stroke-width:0.25;"/>
<line x1="194.700000" y1="190.000000" x2="226.700000" y2="194.000000"  style="stroke:black; stroke-linecap:round; stroke-width:0.25;"/>
<line x1="226.700000" y1="186.000000" x2="230.700000" y2="186.000000"  style="stroke:black; stroke-linecap:round; stroke-width:0.25;"/>
<line x1="226.700000" y1="194.000000" x2="230.700000" y2="194.000000"  style="stroke:black; stroke-linecap:round; stroke-width:0.25;"/>
<line x1="295.200000" y1="186.000000" x2="299.200000" y2="186.000000"  style="stroke:black; stroke-linecap:round; stroke-width:0.25;"/>
<line x1="295.200000" y1="194.000000" x2="299.200000" y2="194.000000"  style="stroke:black; stroke-linecap:round; stroke-width:0.25;"/>
<line x1="299.200000" y1="134.000000" x2="307.200000" y2="134.000000"  style="stroke:black; stroke-linecap:round; stroke-width:0.25;"/>
<line x1="299.200000" y1="186.000000" x2="299.200000" y2="134.000000"  style="stroke:black; stroke-linecap:round; stroke-width:0.25;"/>
<line x1="299.200000" y1="186.000000" x2="299.200000" y2="186.000000"  style="stroke:black; stroke-linecap:round; stroke-width:0.25;"/>
<line x1="299.200000" y1="194.000000" x2="307.200000" y2="194.000000"  style="stroke:black; stroke-linecap:round; stroke-width:0.25;"/>
<line x1="307.200000" y1="134.000000" x2="333.200000" y2="134.000000"  style="stroke:black; stroke-linecap:round; stroke-width:0.25;"/>
<line x1="307.200000" y1="194.000000" x2="333.200000" y2="194.000000"  style="stroke:black; stroke-linecap:round; stroke-width:0.25;"/>
<line x1="333.200000" y1="134.000000" x2="359.200000" y2="134.000000"  style="stroke:black; stroke-linecap:round; stroke-width:0.25;"/>
<line x1="333.200000" y1="194.000000" x2="359.200000" y2="194.000000"  style="stroke:black; stroke-linecap:round; stroke-width:0.25;"/>
<line x1="345.200000" y1="164.000000" x2="349.200000" y2="164.000000"  style="stroke:black; stroke-linecap:round; stroke-width:0.25;"/>
<line x1="345.200000" y1="224.000000" x2="349.200000" y2="224.000000"  style="stroke:black; stroke-linecap:round; stroke-width:0.25;"/>
<line x1="349.200000" y1="164.000000" x2="359.200000" y2="164.000000"  style="stroke:black; stroke-linecap:round; stroke-width:0.25;"/>
<line x1="349.200000" y1="224.000000" x2="359.200000" y2="224.000000"  style="stroke:black; stroke-linecap:round; stroke-width:0.25;"/>
<line x1="359.200000" y1="134.000000" x2="367.200000" y2="134.000000"  style="stroke:black; stroke-linecap:round; stroke-width:0.25;"/>
<line x1="359.200000" y1="164.000000" x2="367.200000" y2="164.000000"  style="stroke:black; stroke-linecap:round; stroke-width:0.25;"/>
<line x1="359.200000" y1="194.000000" x2="367.200000" y2="194.000000"  style="stroke:black; stroke-linecap:round; stroke-width:0.25;"/>
<line x1="359.200000" y1="224.000000" x2="367.200000" y2="224.000000"  style="stroke:black; stroke-linecap:round; stroke-width:0.25;"/>
<line x1="367.200000" y1="134.000000" x2="367.200000" y2="156.000000"  style="stroke:black; stroke-linecap:round; stroke-width:0.25;"/>
<line x1="367.200000" y1="156.000000" x2="367.200000" y2="156.000000"  style="stroke:black; stroke-linecap:round; stroke-width:0.25;"/>
<line x1="367.200000" y1="156.000000" x2="371.200000" y2="156.000000"  style="stroke:black; stroke-linecap:round; stroke-width:0.25;"/>
<line x1="367.200000" y1="164.000000" x2="371.200000" y2="164.000000"  style="stroke:black; stroke-linecap:round; stroke-width:0.25;"/>
<line x1="367.200000" y1="194.000000" x2="367.200000" y2="216.000000"  style="stroke:black; stroke-linecap:round; stroke-width:0.25;"/>
<line x1="367.200000" y1="216.000000" x2="367.200000" y2="216.000000"  style="stroke:black; stroke-linecap:round; stroke-width:0.25;"/>
<line x1="367.200000" y1="216.000000" x2="371.200000" y2="216.000000"  style="stroke:black; stroke-linecap:round; stroke-width:0.25;"/>
<line x1="367.200000" y1="224.000000" x2="371.200000" y2="224.000000"  style="stroke:black; stroke-linecap:round; stroke-width:0.25;"/>
<line x1="395.200000" y1="160.000000" x2="399.200000" y2="160.000000"  style="stroke:black; stroke-linecap:round; stroke-width:0.25;"/>
<line x1="395.200000" y1="220.000000" x2="399.200000" y2="220.000000"  style="stroke:black; stroke-linecap:round; stroke-width:0.25;"/>
<line x1="399.200000" y1="160.000000" x2="409.200000" y2="160.000000"  style="stroke:black; stroke-linecap:round; stroke-width:0.25;"/>
<line x1="399.200000" y1="220.000000" x2="409.200000" y2="220.000000"  style="stroke:black; stroke-linecap:round; stroke-width:0.25;"/>
<line x1="409.200000" y1="160.000000" x2="417.200000" y2="160.000000"  style="stroke:black; stroke-linecap:round; stroke-width:0.25;"/>
<line x1="409.200000" y1="194.000000" x2="417.200000" y2="194.000000"  style="stroke:black; stroke-linecap:round; stroke-width:0.25;"/>
<line x1="409.200000" y1="220.000000" x2="409.200000" y2="194.000000"  style="stroke:black; stroke-linecap:round; stroke-width:0.25;"/>
<line x1="409.200000" y1="220.000000" x2="409.200000" y2="220.000000"  style="stroke:black; stroke-linecap:round; stroke-width:0.25;"/>
<line x1="417.200000" y1="160.000000" x2="417.200000" y2="186.000000"  style="stroke:black; stroke-linecap:round; stroke-width:0.25;"/>
<line x1="417.200000" y1="186.000000" x2="417.200000" y2="186.000000"  style="stroke:black; stroke-linecap:round; stroke-width:0.25;"/>
<line x1="417.200000" y1="186.000000" x2="421.200000" y2="186.000000"  style="stroke:black; stroke-linecap:round; stroke-width:0.25;"/>
<line x1="417.200000" y1="194.000000" x2="421.200000" y2="194.000000"  style="stroke:black; stroke-linecap:round; stroke-width:0.25;"/>
<line x1="421.200000" y1="186.000000" x2="425.200000" y2="186.000000"  style="stroke:black; stroke-linecap:round; stroke-width:0.25;"/>
<line x1="421.200000" y1="194.000000" x2="425.200000" y2="194.000000"  style="stroke:black; stroke-linecap:round; stroke-width:0.25;"/>
<line x1="425.200000" y1="186.000000" x2="435.200000" y2="186.000000"  style="stroke:black; stroke-linecap:round; stroke-width:0.25;"/>
<line x1="425.200000" y1="194.000000" x2="435.200000" y2="194.000000"  style="stroke:black; stroke-linecap:round; stroke-width:0.25;"/>
</svg>
