<?xml version="1.0"?>
<svg xmlns="http://www.w3.org/2000/svg" xmlns:xlink="http://www.w3.org/1999/xlink" viewBox="0 0 536.700000 104.000000" width="268.350000mm" height="52.000000mm" version="1.1">
<a xlink:href="process.svg">
<rect x="1.000000" y="1.000000" width="535.700000" height="103.000000" rx="0" ry="0" style="stroke:none;fill:#cccccc;"/>
<rect x="0.000000" y="0.000000" width="535.700000" height="103.000000" rx="0" ry="0" style="stroke:none;fill:#ffffff;"/>
</a>
<text x="10.000000" y="7.000000" font-family="Arial" font-size="7"></text>
<rect x="25.000000" y="25.000000" width="206.400000" height="24.000000" rx="0" ry="0" style="stroke:none;fill:#cccccc;"/>
<rect x="24.000000" y="24.000000" width="206.400000" height="24.000000" rx="0" ry="0" style="stroke:none;fill:#477881;"/>
<text x="127.200000" y="38.000000" font-family="Arial" font-size="7" text-anchor="middle" fill="#FFFFFF">hslider(Intensity, 8e+01f, 0.0f, 1e+02f, 0.01f)</text>
<circle cx="26.000000" cy="26.000000" r="1"/>
<rect x="115.300000" y="57.000000" width="25.800000" height="24.000000" rx="0" ry="0" style="stroke:none;fill:#cccccc;"/>
<rect x="114.300000" y="56.000000" width="25.800000" height="24.000000" rx="0" ry="0" style="stroke:none;fill:#f44800;"/>
<text x="127.200000" y="70.000000" font-family="Arial" font-size="7" text-anchor="middle" fill="#FFFFFF">0.01</text>
<circle cx="116.300000" cy="58.000000" r="1"/>
<rect x="247.400000" y="41.000000" width="24.000000" height="24.000000" rx="0" ry="0" style="stroke:none;fill:#cccccc;"/>
<rect x="246.400000" y="40.000000" width="24.000000" height="24.000000" rx="0" ry="0" style="stroke:none;fill:#4B71A1;"/>
<text x="258.400000" y="54.000000" font-family="Arial" font-size="7" text-anchor="middle" fill="#FFFFFF">*</text>
<circle cx="248.400000" cy="42.000000" r="1"/>
<line x1="243.400000" y1="47.000000" x2="246.400000" y2="48.000000"  transform="rotate(0.000000,246.400000,48.000000)" style="stroke: black; stroke-width:0.25;"/>
<line x1="243.400000" y1="49.000000" x2="246.400000" y2="48.000000"  transform="rotate(0.000000,246.400000,48.000000)" style="stroke: black; stroke-width:0.25;"/>
<line x1="243.400000" y1="55.000000" x2="246.400000" y2="56.000000"  transform="rotate(0.000000,246.400000,56.000000)" style="stroke: black; stroke-width:0.25;"/>
<line x1="243.400000" y1="57.000000" x2="246.400000" y2="56.000000"  transform="rotate(0.000000,246.400000,56.000000)" style="stroke: black; stroke-width:0.25;"/>
<a xlink:href="smooth-0x7fbc3282dcb0.svg">
<rect x="279.400000" y="41.000000" width="64.500000" height="24.000000" rx="0" ry="0" style="stroke:none;fill:#cccccc;"/>
<rect x="278.400000" y="40.000000" width="64.500000" height="24.000000" rx="0" ry="0" style="stroke:none;fill:#003366;"/>
</a>
<a xlink:href="smooth-0x7fbc3282dcb0.svg">
<text x="310.650000" y="54.000000" font-family="Arial" font-size="7" text-anchor="middle" fill="#FFFFFF">smooth(0.99f)</text>
</a>
<circle cx="280.400000" cy="42.000000" r="1"/>
<line x1="275.400000" y1="51.000000" x2="278.400000" y2="52.000000"  transform="rotate(0.000000,278.400000,52.000000)" style="stroke: black; stroke-width:0.25;"/>
<line x1="275.400000" y1="53.000000" x2="278.400000" y2="52.000000"  transform="rotate(0.000000,278.400000,52.000000)" style="stroke: black; stroke-width:0.25;"/>
<rect x="359.900000" y="37.000000" width="25.800000" height="24.000000" rx="0" ry="0" style="stroke:none;fill:#cccccc;"/>
<rect x="358.900000" y="36.000000" width="25.800000" height="24.000000" rx="0" ry="0" style="stroke:none;fill:#f44800;"/>
<text x="371.800000" y="50.000000" font-family="Arial" font-size="7" text-anchor="middle" fill="#FFFFFF">0.999</text>
<circle cx="360.900000" cy="38.000000" r="1"/>
<rect x="401.700000" y="41.000000" width="24.000000" height="24.000000" rx="0" ry="0" style="stroke:none;fill:#cccccc;"/>
<rect x="400.700000" y="40.000000" width="24.000000" height="24.000000" rx="0" ry="0" style="stroke:none;fill:#4B71A1;"/>
<text x="412.700000" y="54.000000" font-family="Arial" font-size="7" text-anchor="middle" fill="#FFFFFF">min</text>
<circle cx="402.700000" cy="42.000000" r="1"/>
<line x1="397.700000" y1="47.000000" x2="400.700000" y2="48.000000"  transform="rotate(0.000000,400.700000,48.000000)" style="stroke: black; stroke-width:0.25;"/>
<line x1="397.700000" y1="49.000000" x2="400.700000" y2="48.000000"  transform="rotate(0.000000,400.700000,48.000000)" style="stroke: black; stroke-width:0.25;"/>
<line x1="397.700000" y1="55.000000" x2="400.700000" y2="56.000000"  transform="rotate(0.000000,400.700000,56.000000)" style="stroke: black; stroke-width:0.25;"/>
<line x1="397.700000" y1="57.000000" x2="400.700000" y2="56.000000"  transform="rotate(0.000000,400.700000,56.000000)" style="stroke: black; stroke-width:0.25;"/>
<rect x="441.700000" y="37.000000" width="24.000000" height="24.000000" rx="0" ry="0" style="stroke:none;fill:#cccccc;"/>
<rect x="440.700000" y="36.000000" width="24.000000" height="24.000000" rx="0" ry="0" style="stroke:none;fill:#f44800;"/>
<text x="452.700000" y="50.000000" font-family="Arial" font-size="7" text-anchor="middle" fill="#FFFFFF">0</text>
<circle cx="442.700000" cy="38.000000" r="1"/>
<rect x="481.700000" y="41.000000" width="24.000000" height="24.000000" rx="0" ry="0" style="stroke:none;fill:#cccccc;"/>
<rect x="480.700000" y="40.000000" width="24.000000" height="24.000000" rx="0" ry="0" style="stroke:none;fill:#4B71A1;"/>
<text x="492.700000" y="54.000000" font-family="Arial" font-size="7" text-anchor="middle" fill="#FFFFFF">max</text>
<circle cx="482.700000" cy="42.000000" r="1"/>
<line x1="477.700000" y1="47.000000" x2="480.700000" y2="48.000000"  transform="rotate(0.000000,480.700000,48.000000)" style="stroke: black; stroke-width:0.25;"/>
<line x1="477.700000" y1="49.000000" x2="480.700000" y2="48.000000"  transform="rotate(0.000000,480.700000,48.000000)" style="stroke: black; stroke-width:0.25;"/>
<line x1="477.700000" y1="55.000000" x2="480.700000" y2="56.000000"  transform="rotate(0.000000,480.700000,56.000000)" style="stroke: black; stroke-width:0.25;"/>
<line x1="477.700000" y1="57.000000" x2="480.700000" y2="56.000000"  transform="rotate(0.000000,480.700000,56.000000)" style="stroke: black; stroke-width:0.25;"/>
<line x1="15.000000" y1="15.000000" x2="15.000000" y2="89.000000"  style="stroke: black; stroke-linecap:round; stroke-width:0.25; stroke-dasharray:3,3;"/>
<line x1="15.000000" y1="89.000000" x2="521.700000" y2="89.000000"  style="stroke: black; stroke-linecap:round; stroke-width:0.25; stroke-dasharray:3,3;"/>
<line x1="521.700000" y1="89.000000" x2="521.700000" y2="15.000000"  style="stroke: black; stroke-linecap:round; stroke-width:0.25; stroke-dasharray:3,3;"/>
<line x1="15.000000" y1="15.000000" x2="20.000000" y2="15.000000"  style="stroke: black; stroke-linecap:round; stroke-width:0.25; stroke-dasharray:3,3;"/>
<line x1="32.900000" y1="15.000000" x2="521.700000" y2="15.000000"  style="stroke: black; stroke-linecap:round; stroke-width:0.25; stroke-dasharray:3,3;"/>
<text x="20.000000" y="17.000000" font-family="Arial" font-size="7">aN</text>
<line x1="523.700000" y1="51.000000" x2="526.700000" y2="52.000000"  transform="rotate(0.000000,526.700000,52.000000)" style="stroke: black; stroke-width:0.25;"/>
<line x1="523.700000" y1="53.000000" x2="526.700000" y2="52.000000"  transform="rotate(0.000000,526.700000,52.000000)" style="stroke: black; stroke-width:0.25;"/>
<line x1="140.100000" y1="68.000000" x2="144.100000" y2="68.000000"  style="stroke:black; stroke-linecap:round; stroke-width:0.25;"/>
<line x1="144.100000" y1="68.000000" x2="234.400000" y2="68.000000"  style="stroke:black; stroke-linecap:round; stroke-width:0.25;"/>
<line x1="230.400000" y1="36.000000" x2="234.400000" y2="36.000000"  style="stroke:black; stroke-linecap:round; stroke-width:0.25;"/>
<line x1="234.400000" y1="56.000000" x2="242.400000" y2="56.000000"  style="stroke:black; stroke-linecap:round; stroke-width:0.25;"/>
<line x1="234.400000" y1="68.000000" x2="234.400000" y2="56.000000"  style="stroke:black; stroke-linecap:round; stroke-width:0.25;"/>
<line x1="234.400000" y1="68.000000" x2="234.400000" y2="68.000000"  style="stroke:black; stroke-linecap:round; stroke-width:0.25;"/>
<line x1="234.400000" y1="36.000000" x2="242.400000" y2="36.000000"  style="stroke:black; stroke-linecap:round; stroke-width:0.25;"/>
<line x1="242.400000" y1="36.000000" x2="242.400000" y2="48.000000"  style="stroke:black; stroke-linecap:round; stroke-width:0.25;"/>
<line x1="242.400000" y1="48.000000" x2="242.400000" y2="48.000000"  style="stroke:black; stroke-linecap:round; stroke-width:0.25;"/>
<line x1="242.400000" y1="48.000000" x2="246.400000" y2="48.000000"  style="stroke:black; stroke-linecap:round; stroke-width:0.25;"/>
<line x1="242.400000" y1="56.000000" x2="246.400000" y2="56.000000"  style="stroke:black; stroke-linecap:round; stroke-width:0.25;"/>
<line x1="270.400000" y1="52.000000" x2="274.400000" y2="52.000000"  style="stroke:black; stroke-linecap:round; stroke-width:0.25;"/>
<line x1="274.400000" y1="52.000000" x2="274.400000" y2="52.000000"  style="stroke:black; stroke-linecap:round; stroke-width:0.25;"/>
<line x1="274.400000" y1="52.000000" x2="278.400000" y2="52.000000"  style="stroke:black; stroke-linecap:round; stroke-width:0.25;"/>
<line x1="342.900000" y1="52.000000" x2="346.900000" y2="52.000000"  style="stroke:black; stroke-linecap:round; stroke-width:0.25;"/>
<line x1="346.900000" y1="52.000000" x2="354.900000" y2="52.000000"  style="stroke:black; stroke-linecap:round; stroke-width:0.25;"/>
<line x1="354.900000" y1="52.000000" x2="354.900000" y2="68.000000"  style="stroke:black; stroke-linecap:round; stroke-width:0.25;"/>
<line x1="354.900000" y1="68.000000" x2="354.900000" y2="68.000000"  style="stroke:black; stroke-linecap:round; stroke-width:0.25;"/>
<line x1="354.900000" y1="68.000000" x2="371.800000" y2="68.000000"  style="stroke:black; stroke-linecap:round; stroke-width:0.25;"/>
<line x1="371.800000" y1="68.000000" x2="388.700000" y2="68.000000"  style="stroke:black; stroke-linecap:round; stroke-width:0.25;"/>
<line x1="384.700000" y1="48.000000" x2="388.700000" y2="48.000000"  style="stroke:black; stroke-linecap:round; stroke-width:0.25;"/>
<line x1="388.700000" y1="56.000000" x2="396.700000" y2="56.000000"  style="stroke:black; stroke-linecap:round; stroke-width:0.25;"/>
<line x1="388.700000" y1="68.000000" x2="388.700000" y2="56.000000"  style="stroke:black; stroke-linecap:round; stroke-width:0.25;"/>
<line x1="388.700000" y1="68.000000" x2="388.700000" y2="68.000000"  style="stroke:black; stroke-linecap:round; stroke-width:0.25;"/>
<line x1="388.700000" y1="48.000000" x2="396.700000" y2="48.000000"  style="stroke:black; stroke-linecap:round; stroke-width:0.25;"/>
<line x1="396.700000" y1="48.000000" x2="400.700000" y2="48.000000"  style="stroke:black; stroke-linecap:round; stroke-width:0.25;"/>
<line x1="396.700000" y1="56.000000" x2="400.700000" y2="56.000000"  style="stroke:black; stroke-linecap:round; stroke-width:0.25;"/>
<line x1="424.700000" y1="52.000000" x2="428.700000" y2="52.000000"  style="stroke:black; stroke-linecap:round; stroke-width:0.25;"/>
<line x1="428.700000" y1="52.000000" x2="436.700000" y2="52.000000"  style="stroke:black; stroke-linecap:round; stroke-width:0.25;"/>
<line x1="436.700000" y1="52.000000" x2="436.700000" y2="68.000000"  style="stroke:black; stroke-linecap:round; stroke-width:0.25;"/>
<line x1="436.700000" y1="68.000000" x2="436.700000" y2="68.000000"  style="stroke:black; stroke-linecap:round; stroke-width:0.25;"/>
<line x1="436.700000" y1="68.000000" x2="452.700000" y2="68.000000"  style="stroke:black; stroke-linecap:round; stroke-width:0.25;"/>
<line x1="452.700000" y1="68.000000" x2="468.700000" y2="68.000000"  style="stroke:black; stroke-linecap:round; stroke-width:0.25;"/>
<line x1="464.700000" y1="48.000000" x2="468.700000" y2="48.000000"  style="stroke:black; stroke-linecap:round; stroke-width:0.25;"/>
<line x1="468.700000" y1="48.000000" x2="476.700000" y2="48.000000"  style="stroke:black; stroke-linecap:round; stroke-width:0.25;"/>
<line x1="468.700000" y1="56.000000" x2="476.700000" y2="56.000000"  style="stroke:black; stroke-linecap:round; stroke-width:0.25;"/>
<line x1="468.700000" y1="68.000000" x2="468.700000" y2="56.000000"  style="stroke:black; stroke-linecap:round; stroke-width:0.25;"/>
<line x1="468.700000" y1="68.000000" x2="468.700000" y2="68.000000"  style="stroke:black; stroke-linecap:round; stroke-width:0.25;"/>
<line x1="476.700000" y1="48.000000" x2="480.700000" y2="48.000000"  style="stroke:black; stroke-linecap:round; stroke-width:0.25;"/>
<line x1="476.700000" y1="56.000000" x2="480.700000" y2="56.000000"  style="stroke:black; stroke-linecap:round; stroke-width:0.25;"/>
<line x1="504.700000" y1="52.000000" x2="508.700000" y2="52.000000"  style="stroke:black; stroke-linecap:round; stroke-width:0.25;"/>
<line x1="508.700000" y1="52.000000" x2="508.700000" y2="52.000000"  style="stroke:black; stroke-linecap:round; stroke-width:0.25;"/>
<line x1="508.700000" y1="52.000000" x2="512.700000" y2="52.000000"  style="stroke:black; stroke-linecap:round; stroke-width:0.25;"/>
<line x1="512.700000" y1="52.000000" x2="516.700000" y2="52.000000"  style="stroke:black; stroke-linecap:round; stroke-width:0.25;"/>
<line x1="516.700000" y1="52.000000" x2="526.700000" y2="52.000000"  style="stroke:black; stroke-linecap:round; stroke-width:0.25;"/>
</svg>
