<?xml version="1.0"?>
<svg xmlns="http://www.w3.org/2000/svg" xmlns:xlink="http://www.w3.org/1999/xlink" viewBox="0 0 636.800000 292.000000" width="318.400000mm" height="146.000000mm" version="1.1">
<a xlink:href="delay-0x7f821c2f9880.svg">
<rect x="1.000000" y="1.000000" width="635.800000" height="291.000000" rx="0" ry="0" style="stroke:none;fill:#cccccc;"/>
<rect x="0.000000" y="0.000000" width="635.800000" height="291.000000" rx="0" ry="0" style="stroke:none;fill:#ffffff;"/>
</a>
<text x="10.000000" y="7.000000" font-family="Arial" font-size="7"></text>
<a xlink:href="samplingfreq-0x7f821c1c2bf0.svg">
<rect x="209.600000" y="25.000000" width="51.600000" height="24.000000" rx="0" ry="0" style="stroke:none;fill:#cccccc;"/>
<rect x="208.600000" y="24.000000" width="51.600000" height="24.000000" rx="0" ry="0" style="stroke:none;fill:#003366;"/>
</a>
<a xlink:href="samplingfreq-0x7f821c1c2bf0.svg">
<text x="234.400000" y="38.000000" font-family="Arial" font-size="7" text-anchor="middle" fill="#FFFFFF">samplingfreq</text>
</a>
<circle cx="210.600000" cy="26.000000" r="1"/>
<rect x="25.000000" y="57.000000" width="348.300000" height="24.000000" rx="0" ry="0" style="stroke:none;fill:#cccccc;"/>
<rect x="24.000000" y="56.000000" width="348.300000" height="24.000000" rx="0" ry="0" style="stroke:none;fill:#477881;"/>
<text x="198.150000" y="70.000000" font-family="Arial" font-size="7" text-anchor="middle" fill="#FFFFFF">hslider(h:Instrument/v:Frequencies/Frequency 3, 587.0f, 5.5e+02f, 7e+02f, 0.01f)</text>
<circle cx="26.000000" cy="58.000000" r="1"/>
<a xlink:href="smooth-0x7f821c1d85a0.svg">
<rect x="381.300000" y="57.000000" width="64.500000" height="24.000000" rx="0" ry="0" style="stroke:none;fill:#cccccc;"/>
<rect x="380.300000" y="56.000000" width="64.500000" height="24.000000" rx="0" ry="0" style="stroke:none;fill:#003366;"/>
</a>
<a xlink:href="smooth-0x7f821c1d85a0.svg">
<text x="412.550000" y="70.000000" font-family="Arial" font-size="7" text-anchor="middle" fill="#FFFFFF">smooth(0.999f)</text>
</a>
<circle cx="382.300000" cy="58.000000" r="1"/>
<line x1="377.300000" y1="67.000000" x2="380.300000" y2="68.000000"  transform="rotate(0.000000,380.300000,68.000000)" style="stroke: black; stroke-width:0.25;"/>
<line x1="377.300000" y1="69.000000" x2="380.300000" y2="68.000000"  transform="rotate(0.000000,380.300000,68.000000)" style="stroke: black; stroke-width:0.25;"/>
<rect x="461.800000" y="41.000000" width="24.000000" height="24.000000" rx="0" ry="0" style="stroke:none;fill:#cccccc;"/>
<rect x="460.800000" y="40.000000" width="24.000000" height="24.000000" rx="0" ry="0" style="stroke:none;fill:#4B71A1;"/>
<text x="472.800000" y="54.000000" font-family="Arial" font-size="7" text-anchor="middle" fill="#FFFFFF">/</text>
<circle cx="462.800000" cy="42.000000" r="1"/>
<line x1="457.800000" y1="47.000000" x2="460.800000" y2="48.000000"  transform="rotate(0.000000,460.800000,48.000000)" style="stroke: black; stroke-width:0.25;"/>
<line x1="457.800000" y1="49.000000" x2="460.800000" y2="48.000000"  transform="rotate(0.000000,460.800000,48.000000)" style="stroke: black; stroke-width:0.25;"/>
<line x1="457.800000" y1="55.000000" x2="460.800000" y2="56.000000"  transform="rotate(0.000000,460.800000,56.000000)" style="stroke: black; stroke-width:0.25;"/>
<line x1="457.800000" y1="57.000000" x2="460.800000" y2="56.000000"  transform="rotate(0.000000,460.800000,56.000000)" style="stroke: black; stroke-width:0.25;"/>
<rect x="243.400000" y="99.000000" width="24.000000" height="24.000000" rx="0" ry="0" style="stroke:none;fill:#cccccc;"/>
<rect x="242.400000" y="98.000000" width="24.000000" height="24.000000" rx="0" ry="0" style="stroke:none;fill:#f44800;"/>
<text x="254.400000" y="112.000000" font-family="Arial" font-size="7" text-anchor="middle" fill="#FFFFFF">2</text>
<circle cx="244.400000" cy="100.000000" r="1"/>
<line x1="233.400000" y1="89.000000" x2="233.400000" y2="131.000000"  style="stroke: black; stroke-linecap:round; stroke-width:0.25; stroke-dasharray:3,3;"/>
<line x1="233.400000" y1="131.000000" x2="275.400000" y2="131.000000"  style="stroke: black; stroke-linecap:round; stroke-width:0.25; stroke-dasharray:3,3;"/>
<line x1="275.400000" y1="131.000000" x2="275.400000" y2="89.000000"  style="stroke: black; stroke-linecap:round; stroke-width:0.25; stroke-dasharray:3,3;"/>
<line x1="233.400000" y1="89.000000" x2="238.400000" y2="89.000000"  style="stroke: black; stroke-linecap:round; stroke-width:0.25; stroke-dasharray:3,3;"/>
<line x1="275.400000" y1="89.000000" x2="275.400000" y2="89.000000"  style="stroke: black; stroke-linecap:round; stroke-width:0.25; stroke-dasharray:3,3;"/>
<text x="238.400000" y="91.000000" font-family="Arial" font-size="7">envelopeRelease</text>
<rect x="501.800000" y="67.000000" width="24.000000" height="24.000000" rx="0" ry="0" style="stroke:none;fill:#cccccc;"/>
<rect x="500.800000" y="66.000000" width="24.000000" height="24.000000" rx="0" ry="0" style="stroke:none;fill:#4B71A1;"/>
<text x="512.800000" y="80.000000" font-family="Arial" font-size="7" text-anchor="middle" fill="#FFFFFF">*</text>
<circle cx="502.800000" cy="68.000000" r="1"/>
<line x1="497.800000" y1="73.000000" x2="500.800000" y2="74.000000"  transform="rotate(0.000000,500.800000,74.000000)" style="stroke: black; stroke-width:0.25;"/>
<line x1="497.800000" y1="75.000000" x2="500.800000" y2="74.000000"  transform="rotate(0.000000,500.800000,74.000000)" style="stroke: black; stroke-width:0.25;"/>
<line x1="497.800000" y1="81.000000" x2="500.800000" y2="82.000000"  transform="rotate(0.000000,500.800000,82.000000)" style="stroke: black; stroke-width:0.25;"/>
<line x1="497.800000" y1="83.000000" x2="500.800000" y2="82.000000"  transform="rotate(0.000000,500.800000,82.000000)" style="stroke: black; stroke-width:0.25;"/>
<rect x="263.400000" y="141.000000" width="24.000000" height="24.000000" rx="0" ry="0" style="stroke:none;fill:#cccccc;"/>
<rect x="262.400000" y="140.000000" width="24.000000" height="24.000000" rx="0" ry="0" style="stroke:none;fill:#f44800;"/>
<text x="274.400000" y="154.000000" font-family="Arial" font-size="7" text-anchor="middle" fill="#FFFFFF">3</text>
<circle cx="264.400000" cy="142.000000" r="1"/>
<rect x="541.800000" y="83.000000" width="24.000000" height="24.000000" rx="0" ry="0" style="stroke:none;fill:#cccccc;"/>
<rect x="540.800000" y="82.000000" width="24.000000" height="24.000000" rx="0" ry="0" style="stroke:none;fill:#4B71A1;"/>
<text x="552.800000" y="96.000000" font-family="Arial" font-size="7" text-anchor="middle" fill="#FFFFFF">+</text>
<circle cx="542.800000" cy="84.000000" r="1"/>
<line x1="537.800000" y1="89.000000" x2="540.800000" y2="90.000000"  transform="rotate(0.000000,540.800000,90.000000)" style="stroke: black; stroke-width:0.25;"/>
<line x1="537.800000" y1="91.000000" x2="540.800000" y2="90.000000"  transform="rotate(0.000000,540.800000,90.000000)" style="stroke: black; stroke-width:0.25;"/>
<line x1="537.800000" y1="97.000000" x2="540.800000" y2="98.000000"  transform="rotate(0.000000,540.800000,98.000000)" style="stroke: black; stroke-width:0.25;"/>
<line x1="537.800000" y1="99.000000" x2="540.800000" y2="98.000000"  transform="rotate(0.000000,540.800000,98.000000)" style="stroke: black; stroke-width:0.25;"/>
<rect x="263.400000" y="183.000000" width="24.000000" height="24.000000" rx="0" ry="0" style="stroke:none;fill:#cccccc;"/>
<rect x="262.400000" y="182.000000" width="24.000000" height="24.000000" rx="0" ry="0" style="stroke:none;fill:#f44800;"/>
<text x="274.400000" y="196.000000" font-family="Arial" font-size="7" text-anchor="middle" fill="#FFFFFF">0.5</text>
<circle cx="264.400000" cy="184.000000" r="1"/>
<line x1="253.400000" y1="173.000000" x2="253.400000" y2="215.000000"  style="stroke: black; stroke-linecap:round; stroke-width:0.25; stroke-dasharray:3,3;"/>
<line x1="253.400000" y1="215.000000" x2="295.400000" y2="215.000000"  style="stroke: black; stroke-linecap:round; stroke-width:0.25; stroke-dasharray:3,3;"/>
<line x1="295.400000" y1="215.000000" x2="295.400000" y2="173.000000"  style="stroke: black; stroke-linecap:round; stroke-width:0.25; stroke-dasharray:3,3;"/>
<line x1="253.400000" y1="173.000000" x2="258.400000" y2="173.000000"  style="stroke: black; stroke-linecap:round; stroke-width:0.25; stroke-dasharray:3,3;"/>
<line x1="295.400000" y1="173.000000" x2="295.400000" y2="173.000000"  style="stroke: black; stroke-linecap:round; stroke-width:0.25; stroke-dasharray:3,3;"/>
<text x="258.400000" y="175.000000" font-family="Arial" font-size="7">vibratoAttack</text>
<rect x="262.500000" y="235.000000" width="25.800000" height="24.000000" rx="0" ry="0" style="stroke:none;fill:#cccccc;"/>
<rect x="261.500000" y="234.000000" width="25.800000" height="24.000000" rx="0" ry="0" style="stroke:none;fill:#f44800;"/>
<text x="274.400000" y="248.000000" font-family="Arial" font-size="7" text-anchor="middle" fill="#FFFFFF">0.041</text>
<circle cx="263.500000" cy="236.000000" r="1"/>
<line x1="252.500000" y1="225.000000" x2="252.500000" y2="267.000000"  style="stroke: black; stroke-linecap:round; stroke-width:0.25; stroke-dasharray:3,3;"/>
<line x1="252.500000" y1="267.000000" x2="296.300000" y2="267.000000"  style="stroke: black; stroke-linecap:round; stroke-width:0.25; stroke-dasharray:3,3;"/>
<line x1="296.300000" y1="267.000000" x2="296.300000" y2="225.000000"  style="stroke: black; stroke-linecap:round; stroke-width:0.25; stroke-dasharray:3,3;"/>
<line x1="252.500000" y1="225.000000" x2="257.500000" y2="225.000000"  style="stroke: black; stroke-linecap:round; stroke-width:0.25; stroke-dasharray:3,3;"/>
<line x1="296.300000" y1="225.000000" x2="296.300000" y2="225.000000"  style="stroke: black; stroke-linecap:round; stroke-width:0.25; stroke-dasharray:3,3;"/>
<text x="257.500000" y="227.000000" font-family="Arial" font-size="7">slideLength</text>
<rect x="314.300000" y="209.000000" width="24.000000" height="24.000000" rx="0" ry="0" style="stroke:none;fill:#cccccc;"/>
<rect x="313.300000" y="208.000000" width="24.000000" height="24.000000" rx="0" ry="0" style="stroke:none;fill:#4B71A1;"/>
<text x="325.300000" y="222.000000" font-family="Arial" font-size="7" text-anchor="middle" fill="#FFFFFF">+</text>
<circle cx="315.300000" cy="210.000000" r="1"/>
<line x1="310.300000" y1="215.000000" x2="313.300000" y2="216.000000"  transform="rotate(0.000000,313.300000,216.000000)" style="stroke: black; stroke-width:0.25;"/>
<line x1="310.300000" y1="217.000000" x2="313.300000" y2="216.000000"  transform="rotate(0.000000,313.300000,216.000000)" style="stroke: black; stroke-width:0.25;"/>
<line x1="310.300000" y1="223.000000" x2="313.300000" y2="224.000000"  transform="rotate(0.000000,313.300000,224.000000)" style="stroke: black; stroke-width:0.25;"/>
<line x1="310.300000" y1="225.000000" x2="313.300000" y2="224.000000"  transform="rotate(0.000000,313.300000,224.000000)" style="stroke: black; stroke-width:0.25;"/>
<rect x="581.800000" y="135.000000" width="24.000000" height="24.000000" rx="0" ry="0" style="stroke:none;fill:#cccccc;"/>
<rect x="580.800000" y="134.000000" width="24.000000" height="24.000000" rx="0" ry="0" style="stroke:none;fill:#4B71A1;"/>
<text x="592.800000" y="148.000000" font-family="Arial" font-size="7" text-anchor="middle" fill="#FFFFFF">*</text>
<circle cx="582.800000" cy="136.000000" r="1"/>
<line x1="577.800000" y1="141.000000" x2="580.800000" y2="142.000000"  transform="rotate(0.000000,580.800000,142.000000)" style="stroke: black; stroke-width:0.25;"/>
<line x1="577.800000" y1="143.000000" x2="580.800000" y2="142.000000"  transform="rotate(0.000000,580.800000,142.000000)" style="stroke: black; stroke-width:0.25;"/>
<line x1="577.800000" y1="149.000000" x2="580.800000" y2="150.000000"  transform="rotate(0.000000,580.800000,150.000000)" style="stroke: black; stroke-width:0.25;"/>
<line x1="577.800000" y1="151.000000" x2="580.800000" y2="150.000000"  transform="rotate(0.000000,580.800000,150.000000)" style="stroke: black; stroke-width:0.25;"/>
<line x1="15.000000" y1="15.000000" x2="15.000000" y2="277.000000"  style="stroke: black; stroke-linecap:round; stroke-width:0.25; stroke-dasharray:3,3;"/>
<line x1="15.000000" y1="277.000000" x2="621.800000" y2="277.000000"  style="stroke: black; stroke-linecap:round; stroke-width:0.25; stroke-dasharray:3,3;"/>
<line x1="621.800000" y1="277.000000" x2="621.800000" y2="15.000000"  style="stroke: black; stroke-linecap:round; stroke-width:0.25; stroke-dasharray:3,3;"/>
<line x1="15.000000" y1="15.000000" x2="20.000000" y2="15.000000"  style="stroke: black; stroke-linecap:round; stroke-width:0.25; stroke-dasharray:3,3;"/>
<line x1="119.975000" y1="15.000000" x2="621.800000" y2="15.000000"  style="stroke: black; stroke-linecap:round; stroke-width:0.25; stroke-dasharray:3,3;"/>
<text x="20.000000" y="17.000000" font-family="Arial" font-size="7">slideTarget(h...,0.999f : *))</text>
<line x1="623.800000" y1="145.000000" x2="626.800000" y2="146.000000"  transform="rotate(0.000000,626.800000,146.000000)" style="stroke: black; stroke-width:0.25;"/>
<line x1="623.800000" y1="147.000000" x2="626.800000" y2="146.000000"  transform="rotate(0.000000,626.800000,146.000000)" style="stroke: black; stroke-width:0.25;"/>
<line x1="260.200000" y1="36.000000" x2="264.200000" y2="36.000000"  style="stroke:black; stroke-linecap:round; stroke-width:0.25;"/>
<line x1="264.200000" y1="36.000000" x2="448.800000" y2="36.000000"  style="stroke:black; stroke-linecap:round; stroke-width:0.25;"/>
<line x1="266.400000" y1="110.000000" x2="270.400000" y2="110.000000"  style="stroke:black; stroke-linecap:round; stroke-width:0.25;"/>
<line x1="270.400000" y1="110.000000" x2="280.400000" y2="110.000000"  style="stroke:black; stroke-linecap:round; stroke-width:0.25;"/>
<line x1="280.400000" y1="110.000000" x2="488.800000" y2="110.000000"  style="stroke:black; stroke-linecap:round; stroke-width:0.25;"/>
<line x1="286.400000" y1="152.000000" x2="290.400000" y2="152.000000"  style="stroke:black; stroke-linecap:round; stroke-width:0.25;"/>
<line x1="286.400000" y1="194.000000" x2="290.400000" y2="194.000000"  style="stroke:black; stroke-linecap:round; stroke-width:0.25;"/>
<line x1="287.300000" y1="246.000000" x2="291.300000" y2="246.000000"  style="stroke:black; stroke-linecap:round; stroke-width:0.25;"/>
<line x1="290.400000" y1="152.000000" x2="528.800000" y2="152.000000"  style="stroke:black; stroke-linecap:round; stroke-width:0.25;"/>
<line x1="290.400000" y1="194.000000" x2="300.400000" y2="194.000000"  style="stroke:black; stroke-linecap:round; stroke-width:0.25;"/>
<line x1="291.300000" y1="246.000000" x2="301.300000" y2="246.000000"  style="stroke:black; stroke-linecap:round; stroke-width:0.25;"/>
<line x1="300.400000" y1="194.000000" x2="301.300000" y2="194.000000"  style="stroke:black; stroke-linecap:round; stroke-width:0.25;"/>
<line x1="301.300000" y1="194.000000" x2="309.300000" y2="194.000000"  style="stroke:black; stroke-linecap:round; stroke-width:0.25;"/>
<line x1="301.300000" y1="224.000000" x2="309.300000" y2="224.000000"  style="stroke:black; stroke-linecap:round; stroke-width:0.25;"/>
<line x1="301.300000" y1="246.000000" x2="301.300000" y2="224.000000"  style="stroke:black; stroke-linecap:round; stroke-width:0.25;"/>
<line x1="301.300000" y1="246.000000" x2="301.300000" y2="246.000000"  style="stroke:black; stroke-linecap:round; stroke-width:0.25;"/>
<line x1="309.300000" y1="194.000000" x2="309.300000" y2="216.000000"  style="stroke:black; stroke-linecap:round; stroke-width:0.25;"/>
<line x1="309.300000" y1="216.000000" x2="309.300000" y2="216.000000"  style="stroke:black; stroke-linecap:round; stroke-width:0.25;"/>
<line x1="309.300000" y1="216.000000" x2="313.300000" y2="216.000000"  style="stroke:black; stroke-linecap:round; stroke-width:0.25;"/>
<line x1="309.300000" y1="224.000000" x2="313.300000" y2="224.000000"  style="stroke:black; stroke-linecap:round; stroke-width:0.25;"/>
<line x1="337.300000" y1="220.000000" x2="341.300000" y2="220.000000"  style="stroke:black; stroke-linecap:round; stroke-width:0.25;"/>
<line x1="341.300000" y1="220.000000" x2="568.800000" y2="220.000000"  style="stroke:black; stroke-linecap:round; stroke-width:0.25;"/>
<line x1="372.300000" y1="68.000000" x2="376.300000" y2="68.000000"  style="stroke:black; stroke-linecap:round; stroke-width:0.25;"/>
<line x1="376.300000" y1="68.000000" x2="376.300000" y2="68.000000"  style="stroke:black; stroke-linecap:round; stroke-width:0.25;"/>
<line x1="376.300000" y1="68.000000" x2="380.300000" y2="68.000000"  style="stroke:black; stroke-linecap:round; stroke-width:0.25;"/>
<line x1="444.800000" y1="68.000000" x2="448.800000" y2="68.000000"  style="stroke:black; stroke-linecap:round; stroke-width:0.25;"/>
<line x1="448.800000" y1="56.000000" x2="456.800000" y2="56.000000"  style="stroke:black; stroke-linecap:round; stroke-width:0.25;"/>
<line x1="448.800000" y1="68.000000" x2="448.800000" y2="56.000000"  style="stroke:black; stroke-linecap:round; stroke-width:0.25;"/>
<line x1="448.800000" y1="68.000000" x2="448.800000" y2="68.000000"  style="stroke:black; stroke-linecap:round; stroke-width:0.25;"/>
<line x1="448.800000" y1="36.000000" x2="456.800000" y2="36.000000"  style="stroke:black; stroke-linecap:round; stroke-width:0.25;"/>
<line x1="456.800000" y1="48.000000" x2="460.800000" y2="48.000000"  style="stroke:black; stroke-linecap:round; stroke-width:0.25;"/>
<line x1="456.800000" y1="56.000000" x2="460.800000" y2="56.000000"  style="stroke:black; stroke-linecap:round; stroke-width:0.25;"/>
<line x1="456.800000" y1="36.000000" x2="456.800000" y2="48.000000"  style="stroke:black; stroke-linecap:round; stroke-width:0.25;"/>
<line x1="456.800000" y1="48.000000" x2="456.800000" y2="48.000000"  style="stroke:black; stroke-linecap:round; stroke-width:0.25;"/>
<line x1="484.800000" y1="52.000000" x2="488.800000" y2="52.000000"  style="stroke:black; stroke-linecap:round; stroke-width:0.25;"/>
<line x1="488.800000" y1="82.000000" x2="496.800000" y2="82.000000"  style="stroke:black; stroke-linecap:round; stroke-width:0.25;"/>
<line x1="488.800000" y1="110.000000" x2="488.800000" y2="82.000000"  style="stroke:black; stroke-linecap:round; stroke-width:0.25;"/>
<line x1="488.800000" y1="110.000000" x2="488.800000" y2="110.000000"  style="stroke:black; stroke-linecap:round; stroke-width:0.25;"/>
<line x1="488.800000" y1="52.000000" x2="496.800000" y2="52.000000"  style="stroke:black; stroke-linecap:round; stroke-width:0.25;"/>
<line x1="496.800000" y1="52.000000" x2="496.800000" y2="74.000000"  style="stroke:black; stroke-linecap:round; stroke-width:0.25;"/>
<line x1="496.800000" y1="74.000000" x2="496.800000" y2="74.000000"  style="stroke:black; stroke-linecap:round; stroke-width:0.25;"/>
<line x1="496.800000" y1="74.000000" x2="500.800000" y2="74.000000"  style="stroke:black; stroke-linecap:round; stroke-width:0.25;"/>
<line x1="496.800000" y1="82.000000" x2="500.800000" y2="82.000000"  style="stroke:black; stroke-linecap:round; stroke-width:0.25;"/>
<line x1="524.800000" y1="78.000000" x2="528.800000" y2="78.000000"  style="stroke:black; stroke-linecap:round; stroke-width:0.25;"/>
<line x1="528.800000" y1="78.000000" x2="536.800000" y2="78.000000"  style="stroke:black; stroke-linecap:round; stroke-width:0.25;"/>
<line x1="528.800000" y1="98.000000" x2="536.800000" y2="98.000000"  style="stroke:black; stroke-linecap:round; stroke-width:0.25;"/>
<line x1="528.800000" y1="152.000000" x2="528.800000" y2="98.000000"  style="stroke:black; stroke-linecap:round; stroke-width:0.25;"/>
<line x1="528.800000" y1="152.000000" x2="528.800000" y2="152.000000"  style="stroke:black; stroke-linecap:round; stroke-width:0.25;"/>
<line x1="536.800000" y1="78.000000" x2="536.800000" y2="90.000000"  style="stroke:black; stroke-linecap:round; stroke-width:0.25;"/>
<line x1="536.800000" y1="90.000000" x2="536.800000" y2="90.000000"  style="stroke:black; stroke-linecap:round; stroke-width:0.25;"/>
<line x1="536.800000" y1="90.000000" x2="540.800000" y2="90.000000"  style="stroke:black; stroke-linecap:round; stroke-width:0.25;"/>
<line x1="536.800000" y1="98.000000" x2="540.800000" y2="98.000000"  style="stroke:black; stroke-linecap:round; stroke-width:0.25;"/>
<line x1="564.800000" y1="94.000000" x2="568.800000" y2="94.000000"  style="stroke:black; stroke-linecap:round; stroke-width:0.25;"/>
<line x1="568.800000" y1="94.000000" x2="576.800000" y2="94.000000"  style="stroke:black; stroke-linecap:round; stroke-width:0.25;"/>
<line x1="568.800000" y1="150.000000" x2="576.800000" y2="150.000000"  style="stroke:black; stroke-linecap:round; stroke-width:0.25;"/>
<line x1="568.800000" y1="220.000000" x2="568.800000" y2="150.000000"  style="stroke:black; stroke-linecap:round; stroke-width:0.25;"/>
<line x1="568.800000" y1="220.000000" x2="568.800000" y2="220.000000"  style="stroke:black; stroke-linecap:round; stroke-width:0.25;"/>
<line x1="576.800000" y1="94.000000" x2="576.800000" y2="142.000000"  style="stroke:black; stroke-linecap:round; stroke-width:0.25;"/>
<line x1="576.800000" y1="142.000000" x2="576.800000" y2="142.000000"  style="stroke:black; stroke-linecap:round; stroke-width:0.25;"/>
<line x1="576.800000" y1="142.000000" x2="580.800000" y2="142.000000"  style="stroke:black; stroke-linecap:round; stroke-width:0.25;"/>
<line x1="576.800000" y1="150.000000" x2="580.800000" y2="150.000000"  style="stroke:black; stroke-linecap:round; stroke-width:0.25;"/>
<line x1="604.800000" y1="146.000000" x2="608.800000" y2="146.000000"  style="stroke:black; stroke-linecap:round; stroke-width:0.25;"/>
<line x1="608.800000" y1="146.000000" x2="608.800000" y2="146.000000"  style="stroke:black; stroke-linecap:round; stroke-width:0.25;"/>
<line x1="608.800000" y1="146.000000" x2="612.800000" y2="146.000000"  style="stroke:black; stroke-linecap:round; stroke-width:0.25;"/>
<line x1="612.800000" y1="146.000000" x2="616.800000" y2="146.000000"  style="stroke:black; stroke-linecap:round; stroke-width:0.25;"/>
<line x1="616.800000" y1="146.000000" x2="626.800000" y2="146.000000"  style="stroke:black; stroke-linecap:round; stroke-width:0.25;"/>
</svg>
