<?xml version="1.0"?>
<svg xmlns="http://www.w3.org/2000/svg" xmlns:xlink="http://www.w3.org/1999/xlink" viewBox="0 0 649.700000 292.000000" width="324.850000mm" height="146.000000mm" version="1.1">
<a xlink:href="delay-0x7f8219ff2320.svg">
<rect x="1.000000" y="1.000000" width="648.700000" height="291.000000" rx="0" ry="0" style="stroke:none;fill:#cccccc;"/>
<rect x="0.000000" y="0.000000" width="648.700000" height="291.000000" rx="0" ry="0" style="stroke:none;fill:#ffffff;"/>
</a>
<text x="10.000000" y="7.000000" font-family="Arial" font-size="7"></text>
<a xlink:href="samplingfreq-0x7f821c1c2bf0.svg">
<rect x="216.050000" y="25.000000" width="51.600000" height="24.000000" rx="0" ry="0" style="stroke:none;fill:#cccccc;"/>
<rect x="215.050000" y="24.000000" width="51.600000" height="24.000000" rx="0" ry="0" style="stroke:none;fill:#003366;"/>
</a>
<a xlink:href="samplingfreq-0x7f821c1c2bf0.svg">
<text x="240.850000" y="38.000000" font-family="Arial" font-size="7" text-anchor="middle" fill="#FFFFFF">samplingfreq</text>
</a>
<circle cx="217.050000" cy="26.000000" r="1"/>
<rect x="25.000000" y="57.000000" width="361.200000" height="24.000000" rx="0" ry="0" style="stroke:none;fill:#cccccc;"/>
<rect x="24.000000" y="56.000000" width="361.200000" height="24.000000" rx="0" ry="0" style="stroke:none;fill:#477881;"/>
<text x="204.600000" y="70.000000" font-family="Arial" font-size="7" text-anchor="middle" fill="#FFFFFF">hslider(h:Instrument/v:Frequencies/Frequency 1, 3.7e+02f, 2.8e+02f, 3.8e+02f, 0.01f)</text>
<circle cx="26.000000" cy="58.000000" r="1"/>
<a xlink:href="smooth-0x7f821c1d85a0.svg">
<rect x="394.200000" y="57.000000" width="64.500000" height="24.000000" rx="0" ry="0" style="stroke:none;fill:#cccccc;"/>
<rect x="393.200000" y="56.000000" width="64.500000" height="24.000000" rx="0" ry="0" style="stroke:none;fill:#003366;"/>
</a>
<a xlink:href="smooth-0x7f821c1d85a0.svg">
<text x="425.450000" y="70.000000" font-family="Arial" font-size="7" text-anchor="middle" fill="#FFFFFF">smooth(0.999f)</text>
</a>
<circle cx="395.200000" cy="58.000000" r="1"/>
<line x1="390.200000" y1="67.000000" x2="393.200000" y2="68.000000"  transform="rotate(0.000000,393.200000,68.000000)" style="stroke: black; stroke-width:0.25;"/>
<line x1="390.200000" y1="69.000000" x2="393.200000" y2="68.000000"  transform="rotate(0.000000,393.200000,68.000000)" style="stroke: black; stroke-width:0.25;"/>
<rect x="474.700000" y="41.000000" width="24.000000" height="24.000000" rx="0" ry="0" style="stroke:none;fill:#cccccc;"/>
<rect x="473.700000" y="40.000000" width="24.000000" height="24.000000" rx="0" ry="0" style="stroke:none;fill:#4B71A1;"/>
<text x="485.700000" y="54.000000" font-family="Arial" font-size="7" text-anchor="middle" fill="#FFFFFF">/</text>
<circle cx="475.700000" cy="42.000000" r="1"/>
<line x1="470.700000" y1="47.000000" x2="473.700000" y2="48.000000"  transform="rotate(0.000000,473.700000,48.000000)" style="stroke: black; stroke-width:0.25;"/>
<line x1="470.700000" y1="49.000000" x2="473.700000" y2="48.000000"  transform="rotate(0.000000,473.700000,48.000000)" style="stroke: black; stroke-width:0.25;"/>
<line x1="470.700000" y1="55.000000" x2="473.700000" y2="56.000000"  transform="rotate(0.000000,473.700000,56.000000)" style="stroke: black; stroke-width:0.25;"/>
<line x1="470.700000" y1="57.000000" x2="473.700000" y2="56.000000"  transform="rotate(0.000000,473.700000,56.000000)" style="stroke: black; stroke-width:0.25;"/>
<rect x="249.850000" y="99.000000" width="24.000000" height="24.000000" rx="0" ry="0" style="stroke:none;fill:#cccccc;"/>
<rect x="248.850000" y="98.000000" width="24.000000" height="24.000000" rx="0" ry="0" style="stroke:none;fill:#f44800;"/>
<text x="260.850000" y="112.000000" font-family="Arial" font-size="7" text-anchor="middle" fill="#FFFFFF">2</text>
<circle cx="250.850000" cy="100.000000" r="1"/>
<line x1="239.850000" y1="89.000000" x2="239.850000" y2="131.000000"  style="stroke: black; stroke-linecap:round; stroke-width:0.25; stroke-dasharray:3,3;"/>
<line x1="239.850000" y1="131.000000" x2="281.850000" y2="131.000000"  style="stroke: black; stroke-linecap:round; stroke-width:0.25; stroke-dasharray:3,3;"/>
<line x1="281.850000" y1="131.000000" x2="281.850000" y2="89.000000"  style="stroke: black; stroke-linecap:round; stroke-width:0.25; stroke-dasharray:3,3;"/>
<line x1="239.850000" y1="89.000000" x2="244.850000" y2="89.000000"  style="stroke: black; stroke-linecap:round; stroke-width:0.25; stroke-dasharray:3,3;"/>
<line x1="281.850000" y1="89.000000" x2="281.850000" y2="89.000000"  style="stroke: black; stroke-linecap:round; stroke-width:0.25; stroke-dasharray:3,3;"/>
<text x="244.850000" y="91.000000" font-family="Arial" font-size="7">envelopeRelease</text>
<rect x="514.700000" y="67.000000" width="24.000000" height="24.000000" rx="0" ry="0" style="stroke:none;fill:#cccccc;"/>
<rect x="513.700000" y="66.000000" width="24.000000" height="24.000000" rx="0" ry="0" style="stroke:none;fill:#4B71A1;"/>
<text x="525.700000" y="80.000000" font-family="Arial" font-size="7" text-anchor="middle" fill="#FFFFFF">*</text>
<circle cx="515.700000" cy="68.000000" r="1"/>
<line x1="510.700000" y1="73.000000" x2="513.700000" y2="74.000000"  transform="rotate(0.000000,513.700000,74.000000)" style="stroke: black; stroke-width:0.25;"/>
<line x1="510.700000" y1="75.000000" x2="513.700000" y2="74.000000"  transform="rotate(0.000000,513.700000,74.000000)" style="stroke: black; stroke-width:0.25;"/>
<line x1="510.700000" y1="81.000000" x2="513.700000" y2="82.000000"  transform="rotate(0.000000,513.700000,82.000000)" style="stroke: black; stroke-width:0.25;"/>
<line x1="510.700000" y1="83.000000" x2="513.700000" y2="82.000000"  transform="rotate(0.000000,513.700000,82.000000)" style="stroke: black; stroke-width:0.25;"/>
<rect x="269.850000" y="141.000000" width="24.000000" height="24.000000" rx="0" ry="0" style="stroke:none;fill:#cccccc;"/>
<rect x="268.850000" y="140.000000" width="24.000000" height="24.000000" rx="0" ry="0" style="stroke:none;fill:#f44800;"/>
<text x="280.850000" y="154.000000" font-family="Arial" font-size="7" text-anchor="middle" fill="#FFFFFF">3</text>
<circle cx="270.850000" cy="142.000000" r="1"/>
<rect x="554.700000" y="83.000000" width="24.000000" height="24.000000" rx="0" ry="0" style="stroke:none;fill:#cccccc;"/>
<rect x="553.700000" y="82.000000" width="24.000000" height="24.000000" rx="0" ry="0" style="stroke:none;fill:#4B71A1;"/>
<text x="565.700000" y="96.000000" font-family="Arial" font-size="7" text-anchor="middle" fill="#FFFFFF">+</text>
<circle cx="555.700000" cy="84.000000" r="1"/>
<line x1="550.700000" y1="89.000000" x2="553.700000" y2="90.000000"  transform="rotate(0.000000,553.700000,90.000000)" style="stroke: black; stroke-width:0.25;"/>
<line x1="550.700000" y1="91.000000" x2="553.700000" y2="90.000000"  transform="rotate(0.000000,553.700000,90.000000)" style="stroke: black; stroke-width:0.25;"/>
<line x1="550.700000" y1="97.000000" x2="553.700000" y2="98.000000"  transform="rotate(0.000000,553.700000,98.000000)" style="stroke: black; stroke-width:0.25;"/>
<line x1="550.700000" y1="99.000000" x2="553.700000" y2="98.000000"  transform="rotate(0.000000,553.700000,98.000000)" style="stroke: black; stroke-width:0.25;"/>
<rect x="269.850000" y="183.000000" width="24.000000" height="24.000000" rx="0" ry="0" style="stroke:none;fill:#cccccc;"/>
<rect x="268.850000" y="182.000000" width="24.000000" height="24.000000" rx="0" ry="0" style="stroke:none;fill:#f44800;"/>
<text x="280.850000" y="196.000000" font-family="Arial" font-size="7" text-anchor="middle" fill="#FFFFFF">0.5</text>
<circle cx="270.850000" cy="184.000000" r="1"/>
<line x1="259.850000" y1="173.000000" x2="259.850000" y2="215.000000"  style="stroke: black; stroke-linecap:round; stroke-width:0.25; stroke-dasharray:3,3;"/>
<line x1="259.850000" y1="215.000000" x2="301.850000" y2="215.000000"  style="stroke: black; stroke-linecap:round; stroke-width:0.25; stroke-dasharray:3,3;"/>
<line x1="301.850000" y1="215.000000" x2="301.850000" y2="173.000000"  style="stroke: black; stroke-linecap:round; stroke-width:0.25; stroke-dasharray:3,3;"/>
<line x1="259.850000" y1="173.000000" x2="264.850000" y2="173.000000"  style="stroke: black; stroke-linecap:round; stroke-width:0.25; stroke-dasharray:3,3;"/>
<line x1="301.850000" y1="173.000000" x2="301.850000" y2="173.000000"  style="stroke: black; stroke-linecap:round; stroke-width:0.25; stroke-dasharray:3,3;"/>
<text x="264.850000" y="175.000000" font-family="Arial" font-size="7">vibratoAttack</text>
<rect x="268.950000" y="235.000000" width="25.800000" height="24.000000" rx="0" ry="0" style="stroke:none;fill:#cccccc;"/>
<rect x="267.950000" y="234.000000" width="25.800000" height="24.000000" rx="0" ry="0" style="stroke:none;fill:#f44800;"/>
<text x="280.850000" y="248.000000" font-family="Arial" font-size="7" text-anchor="middle" fill="#FFFFFF">0.041</text>
<circle cx="269.950000" cy="236.000000" r="1"/>
<line x1="258.950000" y1="225.000000" x2="258.950000" y2="267.000000"  style="stroke: black; stroke-linecap:round; stroke-width:0.25; stroke-dasharray:3,3;"/>
<line x1="258.950000" y1="267.000000" x2="302.750000" y2="267.000000"  style="stroke: black; stroke-linecap:round; stroke-width:0.25; stroke-dasharray:3,3;"/>
<line x1="302.750000" y1="267.000000" x2="302.750000" y2="225.000000"  style="stroke: black; stroke-linecap:round; stroke-width:0.25; stroke-dasharray:3,3;"/>
<line x1="258.950000" y1="225.000000" x2="263.950000" y2="225.000000"  style="stroke: black; stroke-linecap:round; stroke-width:0.25; stroke-dasharray:3,3;"/>
<line x1="302.750000" y1="225.000000" x2="302.750000" y2="225.000000"  style="stroke: black; stroke-linecap:round; stroke-width:0.25; stroke-dasharray:3,3;"/>
<text x="263.950000" y="227.000000" font-family="Arial" font-size="7">slideLength</text>
<rect x="320.750000" y="209.000000" width="24.000000" height="24.000000" rx="0" ry="0" style="stroke:none;fill:#cccccc;"/>
<rect x="319.750000" y="208.000000" width="24.000000" height="24.000000" rx="0" ry="0" style="stroke:none;fill:#4B71A1;"/>
<text x="331.750000" y="222.000000" font-family="Arial" font-size="7" text-anchor="middle" fill="#FFFFFF">+</text>
<circle cx="321.750000" cy="210.000000" r="1"/>
<line x1="316.750000" y1="215.000000" x2="319.750000" y2="216.000000"  transform="rotate(0.000000,319.750000,216.000000)" style="stroke: black; stroke-width:0.25;"/>
<line x1="316.750000" y1="217.000000" x2="319.750000" y2="216.000000"  transform="rotate(0.000000,319.750000,216.000000)" style="stroke: black; stroke-width:0.25;"/>
<line x1="316.750000" y1="223.000000" x2="319.750000" y2="224.000000"  transform="rotate(0.000000,319.750000,224.000000)" style="stroke: black; stroke-width:0.25;"/>
<line x1="316.750000" y1="225.000000" x2="319.750000" y2="224.000000"  transform="rotate(0.000000,319.750000,224.000000)" style="stroke: black; stroke-width:0.25;"/>
<rect x="594.700000" y="135.000000" width="24.000000" height="24.000000" rx="0" ry="0" style="stroke:none;fill:#cccccc;"/>
<rect x="593.700000" y="134.000000" width="24.000000" height="24.000000" rx="0" ry="0" style="stroke:none;fill:#4B71A1;"/>
<text x="605.700000" y="148.000000" font-family="Arial" font-size="7" text-anchor="middle" fill="#FFFFFF">*</text>
<circle cx="595.700000" cy="136.000000" r="1"/>
<line x1="590.700000" y1="141.000000" x2="593.700000" y2="142.000000"  transform="rotate(0.000000,593.700000,142.000000)" style="stroke: black; stroke-width:0.25;"/>
<line x1="590.700000" y1="143.000000" x2="593.700000" y2="142.000000"  transform="rotate(0.000000,593.700000,142.000000)" style="stroke: black; stroke-width:0.25;"/>
<line x1="590.700000" y1="149.000000" x2="593.700000" y2="150.000000"  transform="rotate(0.000000,593.700000,150.000000)" style="stroke: black; stroke-width:0.25;"/>
<line x1="590.700000" y1="151.000000" x2="593.700000" y2="150.000000"  transform="rotate(0.000000,593.700000,150.000000)" style="stroke: black; stroke-width:0.25;"/>
<line x1="15.000000" y1="15.000000" x2="15.000000" y2="277.000000"  style="stroke: black; stroke-linecap:round; stroke-width:0.25; stroke-dasharray:3,3;"/>
<line x1="15.000000" y1="277.000000" x2="634.700000" y2="277.000000"  style="stroke: black; stroke-linecap:round; stroke-width:0.25; stroke-dasharray:3,3;"/>
<line x1="634.700000" y1="277.000000" x2="634.700000" y2="15.000000"  style="stroke: black; stroke-linecap:round; stroke-width:0.25; stroke-dasharray:3,3;"/>
<line x1="15.000000" y1="15.000000" x2="20.000000" y2="15.000000"  style="stroke: black; stroke-linecap:round; stroke-width:0.25; stroke-dasharray:3,3;"/>
<line x1="119.975000" y1="15.000000" x2="634.700000" y2="15.000000"  style="stroke: black; stroke-linecap:round; stroke-width:0.25; stroke-dasharray:3,3;"/>
<text x="20.000000" y="17.000000" font-family="Arial" font-size="7">slideTarget(h...,0.999f : *))</text>
<line x1="636.700000" y1="145.000000" x2="639.700000" y2="146.000000"  transform="rotate(0.000000,639.700000,146.000000)" style="stroke: black; stroke-width:0.25;"/>
<line x1="636.700000" y1="147.000000" x2="639.700000" y2="146.000000"  transform="rotate(0.000000,639.700000,146.000000)" style="stroke: black; stroke-width:0.25;"/>
<line x1="266.650000" y1="36.000000" x2="270.650000" y2="36.000000"  style="stroke:black; stroke-linecap:round; stroke-width:0.25;"/>
<line x1="270.650000" y1="36.000000" x2="461.700000" y2="36.000000"  style="stroke:black; stroke-linecap:round; stroke-width:0.25;"/>
<line x1="272.850000" y1="110.000000" x2="276.850000" y2="110.000000"  style="stroke:black; stroke-linecap:round; stroke-width:0.25;"/>
<line x1="276.850000" y1="110.000000" x2="286.850000" y2="110.000000"  style="stroke:black; stroke-linecap:round; stroke-width:0.25;"/>
<line x1="286.850000" y1="110.000000" x2="501.700000" y2="110.000000"  style="stroke:black; stroke-linecap:round; stroke-width:0.25;"/>
<line x1="292.850000" y1="152.000000" x2="296.850000" y2="152.000000"  style="stroke:black; stroke-linecap:round; stroke-width:0.25;"/>
<line x1="292.850000" y1="194.000000" x2="296.850000" y2="194.000000"  style="stroke:black; stroke-linecap:round; stroke-width:0.25;"/>
<line x1="293.750000" y1="246.000000" x2="297.750000" y2="246.000000"  style="stroke:black; stroke-linecap:round; stroke-width:0.25;"/>
<line x1="296.850000" y1="152.000000" x2="541.700000" y2="152.000000"  style="stroke:black; stroke-linecap:round; stroke-width:0.25;"/>
<line x1="296.850000" y1="194.000000" x2="306.850000" y2="194.000000"  style="stroke:black; stroke-linecap:round; stroke-width:0.25;"/>
<line x1="297.750000" y1="246.000000" x2="307.750000" y2="246.000000"  style="stroke:black; stroke-linecap:round; stroke-width:0.25;"/>
<line x1="306.850000" y1="194.000000" x2="307.750000" y2="194.000000"  style="stroke:black; stroke-linecap:round; stroke-width:0.25;"/>
<line x1="307.750000" y1="194.000000" x2="315.750000" y2="194.000000"  style="stroke:black; stroke-linecap:round; stroke-width:0.25;"/>
<line x1="307.750000" y1="224.000000" x2="315.750000" y2="224.000000"  style="stroke:black; stroke-linecap:round; stroke-width:0.25;"/>
<line x1="307.750000" y1="246.000000" x2="307.750000" y2="224.000000"  style="stroke:black; stroke-linecap:round; stroke-width:0.25;"/>
<line x1="307.750000" y1="246.000000" x2="307.750000" y2="246.000000"  style="stroke:black; stroke-linecap:round; stroke-width:0.25;"/>
<line x1="315.750000" y1="194.000000" x2="315.750000" y2="216.000000"  style="stroke:black; stroke-linecap:round; stroke-width:0.25;"/>
<line x1="315.750000" y1="216.000000" x2="315.750000" y2="216.000000"  style="stroke:black; stroke-linecap:round; stroke-width:0.25;"/>
<line x1="315.750000" y1="216.000000" x2="319.750000" y2="216.000000"  style="stroke:black; stroke-linecap:round; stroke-width:0.25;"/>
<line x1="315.750000" y1="224.000000" x2="319.750000" y2="224.000000"  style="stroke:black; stroke-linecap:round; stroke-width:0.25;"/>
<line x1="343.750000" y1="220.000000" x2="347.750000" y2="220.000000"  style="stroke:black; stroke-linecap:round; stroke-width:0.25;"/>
<line x1="347.750000" y1="220.000000" x2="581.700000" y2="220.000000"  style="stroke:black; stroke-linecap:round; stroke-width:0.25;"/>
<line x1="385.200000" y1="68.000000" x2="389.200000" y2="68.000000"  style="stroke:black; stroke-linecap:round; stroke-width:0.25;"/>
<line x1="389.200000" y1="68.000000" x2="389.200000" y2="68.000000"  style="stroke:black; stroke-linecap:round; stroke-width:0.25;"/>
<line x1="389.200000" y1="68.000000" x2="393.200000" y2="68.000000"  style="stroke:black; stroke-linecap:round; stroke-width:0.25;"/>
<line x1="457.700000" y1="68.000000" x2="461.700000" y2="68.000000"  style="stroke:black; stroke-linecap:round; stroke-width:0.25;"/>
<line x1="461.700000" y1="36.000000" x2="469.700000" y2="36.000000"  style="stroke:black; stroke-linecap:round; stroke-width:0.25;"/>
<line x1="461.700000" y1="56.000000" x2="469.700000" y2="56.000000"  style="stroke:black; stroke-linecap:round; stroke-width:0.25;"/>
<line x1="461.700000" y1="68.000000" x2="461.700000" y2="56.000000"  style="stroke:black; stroke-linecap:round; stroke-width:0.25;"/>
<line x1="461.700000" y1="68.000000" x2="461.700000" y2="68.000000"  style="stroke:black; stroke-linecap:round; stroke-width:0.25;"/>
<line x1="469.700000" y1="36.000000" x2="469.700000" y2="48.000000"  style="stroke:black; stroke-linecap:round; stroke-width:0.25;"/>
<line x1="469.700000" y1="48.000000" x2="469.700000" y2="48.000000"  style="stroke:black; stroke-linecap:round; stroke-width:0.25;"/>
<line x1="469.700000" y1="48.000000" x2="473.700000" y2="48.000000"  style="stroke:black; stroke-linecap:round; stroke-width:0.25;"/>
<line x1="469.700000" y1="56.000000" x2="473.700000" y2="56.000000"  style="stroke:black; stroke-linecap:round; stroke-width:0.25;"/>
<line x1="497.700000" y1="52.000000" x2="501.700000" y2="52.000000"  style="stroke:black; stroke-linecap:round; stroke-width:0.25;"/>
<line x1="501.700000" y1="52.000000" x2="509.700000" y2="52.000000"  style="stroke:black; stroke-linecap:round; stroke-width:0.25;"/>
<line x1="501.700000" y1="82.000000" x2="509.700000" y2="82.000000"  style="stroke:black; stroke-linecap:round; stroke-width:0.25;"/>
<line x1="501.700000" y1="110.000000" x2="501.700000" y2="82.000000"  style="stroke:black; stroke-linecap:round; stroke-width:0.25;"/>
<line x1="501.700000" y1="110.000000" x2="501.700000" y2="110.000000"  style="stroke:black; stroke-linecap:round; stroke-width:0.25;"/>
<line x1="509.700000" y1="52.000000" x2="509.700000" y2="74.000000"  style="stroke:black; stroke-linecap:round; stroke-width:0.25;"/>
<line x1="509.700000" y1="74.000000" x2="509.700000" y2="74.000000"  style="stroke:black; stroke-linecap:round; stroke-width:0.25;"/>
<line x1="509.700000" y1="74.000000" x2="513.700000" y2="74.000000"  style="stroke:black; stroke-linecap:round; stroke-width:0.25;"/>
<line x1="509.700000" y1="82.000000" x2="513.700000" y2="82.000000"  style="stroke:black; stroke-linecap:round; stroke-width:0.25;"/>
<line x1="537.700000" y1="78.000000" x2="541.700000" y2="78.000000"  style="stroke:black; stroke-linecap:round; stroke-width:0.25;"/>
<line x1="541.700000" y1="78.000000" x2="549.700000" y2="78.000000"  style="stroke:black; stroke-linecap:round; stroke-width:0.25;"/>
<line x1="541.700000" y1="98.000000" x2="549.700000" y2="98.000000"  style="stroke:black; stroke-linecap:round; stroke-width:0.25;"/>
<line x1="541.700000" y1="152.000000" x2="541.700000" y2="98.000000"  style="stroke:black; stroke-linecap:round; stroke-width:0.25;"/>
<line x1="541.700000" y1="152.000000" x2="541.700000" y2="152.000000"  style="stroke:black; stroke-linecap:round; stroke-width:0.25;"/>
<line x1="549.700000" y1="78.000000" x2="549.700000" y2="90.000000"  style="stroke:black; stroke-linecap:round; stroke-width:0.25;"/>
<line x1="549.700000" y1="90.000000" x2="549.700000" y2="90.000000"  style="stroke:black; stroke-linecap:round; stroke-width:0.25;"/>
<line x1="549.700000" y1="90.000000" x2="553.700000" y2="90.000000"  style="stroke:black; stroke-linecap:round; stroke-width:0.25;"/>
<line x1="549.700000" y1="98.000000" x2="553.700000" y2="98.000000"  style="stroke:black; stroke-linecap:round; stroke-width:0.25;"/>
<line x1="577.700000" y1="94.000000" x2="581.700000" y2="94.000000"  style="stroke:black; stroke-linecap:round; stroke-width:0.25;"/>
<line x1="581.700000" y1="94.000000" x2="589.700000" y2="94.000000"  style="stroke:black; stroke-linecap:round; stroke-width:0.25;"/>
<line x1="581.700000" y1="150.000000" x2="589.700000" y2="150.000000"  style="stroke:black; stroke-linecap:round; stroke-width:0.25;"/>
<line x1="581.700000" y1="220.000000" x2="581.700000" y2="150.000000"  style="stroke:black; stroke-linecap:round; stroke-width:0.25;"/>
<line x1="581.700000" y1="220.000000" x2="581.700000" y2="220.000000"  style="stroke:black; stroke-linecap:round; stroke-width:0.25;"/>
<line x1="589.700000" y1="94.000000" x2="589.700000" y2="142.000000"  style="stroke:black; stroke-linecap:round; stroke-width:0.25;"/>
<line x1="589.700000" y1="142.000000" x2="589.700000" y2="142.000000"  style="stroke:black; stroke-linecap:round; stroke-width:0.25;"/>
<line x1="589.700000" y1="142.000000" x2="593.700000" y2="142.000000"  style="stroke:black; stroke-linecap:round; stroke-width:0.25;"/>
<line x1="589.700000" y1="150.000000" x2="593.700000" y2="150.000000"  style="stroke:black; stroke-linecap:round; stroke-width:0.25;"/>
<line x1="617.700000" y1="146.000000" x2="621.700000" y2="146.000000"  style="stroke:black; stroke-linecap:round; stroke-width:0.25;"/>
<line x1="621.700000" y1="146.000000" x2="621.700000" y2="146.000000"  style="stroke:black; stroke-linecap:round; stroke-width:0.25;"/>
<line x1="621.700000" y1="146.000000" x2="625.700000" y2="146.000000"  style="stroke:black; stroke-linecap:round; stroke-width:0.25;"/>
<line x1="625.700000" y1="146.000000" x2="629.700000" y2="146.000000"  style="stroke:black; stroke-linecap:round; stroke-width:0.25;"/>
<line x1="629.700000" y1="146.000000" x2="639.700000" y2="146.000000"  style="stroke:black; stroke-linecap:round; stroke-width:0.25;"/>
</svg>
