<?xml version="1.0"?>
<svg xmlns="http://www.w3.org/2000/svg" xmlns:xlink="http://www.w3.org/1999/xlink" viewBox="0 0 502.600000 72.000000" width="251.300000mm" height="36.000000mm" version="1.1">
<a xlink:href="freq-0x7fc1a317baf0.svg">
<rect x="1.000000" y="1.000000" width="501.600000" height="71.000000" rx="0" ry="0" style="stroke:none;fill:#cccccc;"/>
<rect x="0.000000" y="0.000000" width="501.600000" height="71.000000" rx="0" ry="0" style="stroke:none;fill:#ffffff;"/>
</a>
<text x="10.000000" y="7.000000" font-family="Arial" font-size="7"></text>
<rect x="25.000000" y="25.000000" width="258.000000" height="24.000000" rx="0" ry="0" style="stroke:none;fill:#cccccc;"/>
<rect x="24.000000" y="24.000000" width="258.000000" height="24.000000" rx="0" ry="0" style="stroke:none;fill:#477881;"/>
<text x="153.000000" y="38.000000" font-family="Arial" font-size="7" text-anchor="middle" fill="#FFFFFF">hslider(v:elecGuitar/h:midi/bend, 1.0f, 0.0f, 10.0f, 0.01f)</text>
<circle cx="26.000000" cy="26.000000" r="1"/>
<a xlink:href="polySmooth-0x7fc1a317b370.svg">
<rect x="291.000000" y="25.000000" width="180.600000" height="24.000000" rx="0" ry="0" style="stroke:none;fill:#cccccc;"/>
<rect x="290.000000" y="24.000000" width="180.600000" height="24.000000" rx="0" ry="0" style="stroke:none;fill:#003366;"/>
</a>
<a xlink:href="polySmooth-0x7fc1a317b370.svg">
<text x="380.300000" y="38.000000" font-family="Arial" font-size="7" text-anchor="middle" fill="#FFFFFF">polySmooth(bu... : 1,_ : min)(0.999f)(1)</text>
</a>
<circle cx="292.000000" cy="26.000000" r="1"/>
<line x1="287.000000" y1="35.000000" x2="290.000000" y2="36.000000"  transform="rotate(0.000000,290.000000,36.000000)" style="stroke: black; stroke-width:0.25;"/>
<line x1="287.000000" y1="37.000000" x2="290.000000" y2="36.000000"  transform="rotate(0.000000,290.000000,36.000000)" style="stroke: black; stroke-width:0.25;"/>
<line x1="15.000000" y1="15.000000" x2="15.000000" y2="57.000000"  style="stroke: black; stroke-linecap:round; stroke-width:0.25; stroke-dasharray:3,3;"/>
<line x1="15.000000" y1="57.000000" x2="487.600000" y2="57.000000"  style="stroke: black; stroke-linecap:round; stroke-width:0.25; stroke-dasharray:3,3;"/>
<line x1="487.600000" y1="57.000000" x2="487.600000" y2="15.000000"  style="stroke: black; stroke-linecap:round; stroke-width:0.25; stroke-dasharray:3,3;"/>
<line x1="15.000000" y1="15.000000" x2="20.000000" y2="15.000000"  style="stroke: black; stroke-linecap:round; stroke-width:0.25; stroke-dasharray:3,3;"/>
<line x1="39.350000" y1="15.000000" x2="487.600000" y2="15.000000"  style="stroke: black; stroke-linecap:round; stroke-width:0.25; stroke-dasharray:3,3;"/>
<text x="20.000000" y="17.000000" font-family="Arial" font-size="7">bend</text>
<line x1="489.600000" y1="35.000000" x2="492.600000" y2="36.000000"  transform="rotate(0.000000,492.600000,36.000000)" style="stroke: black; stroke-width:0.25;"/>
<line x1="489.600000" y1="37.000000" x2="492.600000" y2="36.000000"  transform="rotate(0.000000,492.600000,36.000000)" style="stroke: black; stroke-width:0.25;"/>
<line x1="282.000000" y1="36.000000" x2="286.000000" y2="36.000000"  style="stroke:black; stroke-linecap:round; stroke-width:0.25;"/>
<line x1="286.000000" y1="36.000000" x2="286.000000" y2="36.000000"  style="stroke:black; stroke-linecap:round; stroke-width:0.25;"/>
<line x1="286.000000" y1="36.000000" x2="290.000000" y2="36.000000"  style="stroke:black; stroke-linecap:round; stroke-width:0.25;"/>
<line x1="470.600000" y1="36.000000" x2="474.600000" y2="36.000000"  style="stroke:black; stroke-linecap:round; stroke-width:0.25;"/>
<line x1="474.600000" y1="36.000000" x2="474.600000" y2="36.000000"  style="stroke:black; stroke-linecap:round; stroke-width:0.25;"/>
<line x1="474.600000" y1="36.000000" x2="478.600000" y2="36.000000"  style="stroke:black; stroke-linecap:round; stroke-width:0.25;"/>
<line x1="478.600000" y1="36.000000" x2="482.600000" y2="36.000000"  style="stroke:black; stroke-linecap:round; stroke-width:0.25;"/>
<line x1="482.600000" y1="36.000000" x2="492.600000" y2="36.000000"  style="stroke:black; stroke-linecap:round; stroke-width:0.25;"/>
</svg>
