<?xml version="1.0"?>
<svg xmlns="http://www.w3.org/2000/svg" xmlns:xlink="http://www.w3.org/1999/xlink" viewBox="0 0 393.500000 264.000000" width="196.750000mm" height="132.000000mm" version="1.1">
<a xlink:href="h-0x7fc1a6a90e60.svg">
<rect x="1.000000" y="1.000000" width="392.500000" height="263.000000" rx="0" ry="0" style="stroke:none;fill:#cccccc;"/>
<rect x="0.000000" y="0.000000" width="392.500000" height="263.000000" rx="0" ry="0" style="stroke:none;fill:#ffffff;"/>
</a>
<text x="10.000000" y="7.000000" font-family="Arial" font-size="7"></text>
<rect x="130.400000" y="25.000000" width="24.000000" height="24.000000" rx="0" ry="0" style="stroke:none;fill:#cccccc;"/>
<rect x="129.400000" y="24.000000" width="24.000000" height="24.000000" rx="0" ry="0" style="stroke:none;fill:#f44800;"/>
<text x="141.400000" y="38.000000" font-family="Arial" font-size="7" text-anchor="middle" fill="#FFFFFF">0</text>
<circle cx="131.400000" cy="26.000000" r="1"/>
<rect x="130.400000" y="57.000000" width="24.000000" height="24.000000" rx="0" ry="0" style="stroke:none;fill:#cccccc;"/>
<rect x="129.400000" y="56.000000" width="24.000000" height="24.000000" rx="0" ry="0" style="stroke:none;fill:#f44800;"/>
<text x="141.400000" y="70.000000" font-family="Arial" font-size="7" text-anchor="middle" fill="#FFFFFF">4</text>
<circle cx="131.400000" cy="58.000000" r="1"/>
<rect x="170.400000" y="41.000000" width="24.000000" height="24.000000" rx="0" ry="0" style="stroke:none;fill:#cccccc;"/>
<rect x="169.400000" y="40.000000" width="24.000000" height="24.000000" rx="0" ry="0" style="stroke:none;fill:#4B71A1;"/>
<text x="181.400000" y="54.000000" font-family="Arial" font-size="7" text-anchor="middle" fill="#FFFFFF">&lt;</text>
<circle cx="171.400000" cy="42.000000" r="1"/>
<line x1="166.400000" y1="47.000000" x2="169.400000" y2="48.000000"  transform="rotate(0.000000,169.400000,48.000000)" style="stroke: black; stroke-width:0.25;"/>
<line x1="166.400000" y1="49.000000" x2="169.400000" y2="48.000000"  transform="rotate(0.000000,169.400000,48.000000)" style="stroke: black; stroke-width:0.25;"/>
<line x1="166.400000" y1="55.000000" x2="169.400000" y2="56.000000"  transform="rotate(0.000000,169.400000,56.000000)" style="stroke: black; stroke-width:0.25;"/>
<line x1="166.400000" y1="57.000000" x2="169.400000" y2="56.000000"  transform="rotate(0.000000,169.400000,56.000000)" style="stroke: black; stroke-width:0.25;"/>
<rect x="150.400000" y="89.000000" width="24.000000" height="24.000000" rx="0" ry="0" style="stroke:none;fill:#cccccc;"/>
<rect x="149.400000" y="88.000000" width="24.000000" height="24.000000" rx="0" ry="0" style="stroke:none;fill:#f44800;"/>
<text x="161.400000" y="102.000000" font-family="Arial" font-size="7" text-anchor="middle" fill="#FFFFFF">1</text>
<circle cx="151.400000" cy="90.000000" r="1"/>
<a xlink:href="fac-0x7fc1a6b8a560.svg">
<rect x="25.000000" y="121.000000" width="154.800000" height="24.000000" rx="0" ry="0" style="stroke:none;fill:#cccccc;"/>
<rect x="24.000000" y="120.000000" width="154.800000" height="24.000000" rx="0" ry="0" style="stroke:none;fill:#003366;"/>
</a>
<a xlink:href="fac-0x7fc1a6b8a560.svg">
<text x="101.400000" y="134.000000" font-family="Arial" font-size="7" text-anchor="middle" fill="#FFFFFF">fac(((4,1.000...or) : -) : +)(0)(1)</text>
</a>
<circle cx="26.000000" cy="122.000000" r="1"/>
<a xlink:href="fac-0x7fc1a6b8a910.svg">
<rect x="25.000000" y="153.000000" width="154.800000" height="24.000000" rx="0" ry="0" style="stroke:none;fill:#cccccc;"/>
<rect x="24.000000" y="152.000000" width="154.800000" height="24.000000" rx="0" ry="0" style="stroke:none;fill:#003366;"/>
</a>
<a xlink:href="fac-0x7fc1a6b8a910.svg">
<text x="101.400000" y="166.000000" font-family="Arial" font-size="7" text-anchor="middle" fill="#FFFFFF">fac(((4,1.000...or) : -) : +)(0)(2)</text>
</a>
<circle cx="26.000000" cy="154.000000" r="1"/>
<rect x="195.800000" y="137.000000" width="24.000000" height="24.000000" rx="0" ry="0" style="stroke:none;fill:#cccccc;"/>
<rect x="194.800000" y="136.000000" width="24.000000" height="24.000000" rx="0" ry="0" style="stroke:none;fill:#4B71A1;"/>
<text x="206.800000" y="150.000000" font-family="Arial" font-size="7" text-anchor="middle" fill="#FFFFFF">*</text>
<circle cx="196.800000" cy="138.000000" r="1"/>
<line x1="191.800000" y1="143.000000" x2="194.800000" y2="144.000000"  transform="rotate(0.000000,194.800000,144.000000)" style="stroke: black; stroke-width:0.25;"/>
<line x1="191.800000" y1="145.000000" x2="194.800000" y2="144.000000"  transform="rotate(0.000000,194.800000,144.000000)" style="stroke: black; stroke-width:0.25;"/>
<line x1="191.800000" y1="151.000000" x2="194.800000" y2="152.000000"  transform="rotate(0.000000,194.800000,152.000000)" style="stroke: black; stroke-width:0.25;"/>
<line x1="191.800000" y1="153.000000" x2="194.800000" y2="152.000000"  transform="rotate(0.000000,194.800000,152.000000)" style="stroke: black; stroke-width:0.25;"/>
<a xlink:href="fac-0x7fc1a6b8ae60.svg">
<rect x="45.000000" y="185.000000" width="154.800000" height="24.000000" rx="0" ry="0" style="stroke:none;fill:#cccccc;"/>
<rect x="44.000000" y="184.000000" width="154.800000" height="24.000000" rx="0" ry="0" style="stroke:none;fill:#003366;"/>
</a>
<a xlink:href="fac-0x7fc1a6b8ae60.svg">
<text x="121.400000" y="198.000000" font-family="Arial" font-size="7" text-anchor="middle" fill="#FFFFFF">fac(((4,1.000...or) : -) : +)(0)(3)</text>
</a>
<circle cx="46.000000" cy="186.000000" r="1"/>
<rect x="235.800000" y="153.000000" width="24.000000" height="24.000000" rx="0" ry="0" style="stroke:none;fill:#cccccc;"/>
<rect x="234.800000" y="152.000000" width="24.000000" height="24.000000" rx="0" ry="0" style="stroke:none;fill:#4B71A1;"/>
<text x="246.800000" y="166.000000" font-family="Arial" font-size="7" text-anchor="middle" fill="#FFFFFF">*</text>
<circle cx="236.800000" cy="154.000000" r="1"/>
<line x1="231.800000" y1="159.000000" x2="234.800000" y2="160.000000"  transform="rotate(0.000000,234.800000,160.000000)" style="stroke: black; stroke-width:0.25;"/>
<line x1="231.800000" y1="161.000000" x2="234.800000" y2="160.000000"  transform="rotate(0.000000,234.800000,160.000000)" style="stroke: black; stroke-width:0.25;"/>
<line x1="231.800000" y1="167.000000" x2="234.800000" y2="168.000000"  transform="rotate(0.000000,234.800000,168.000000)" style="stroke: black; stroke-width:0.25;"/>
<line x1="231.800000" y1="169.000000" x2="234.800000" y2="168.000000"  transform="rotate(0.000000,234.800000,168.000000)" style="stroke: black; stroke-width:0.25;"/>
<a xlink:href="fac-0x7fc1a6b8b3b0.svg">
<rect x="65.000000" y="217.000000" width="154.800000" height="24.000000" rx="0" ry="0" style="stroke:none;fill:#cccccc;"/>
<rect x="64.000000" y="216.000000" width="154.800000" height="24.000000" rx="0" ry="0" style="stroke:none;fill:#003366;"/>
</a>
<a xlink:href="fac-0x7fc1a6b8b3b0.svg">
<text x="141.400000" y="230.000000" font-family="Arial" font-size="7" text-anchor="middle" fill="#FFFFFF">fac(((4,1.000...or) : -) : +)(0)(4)</text>
</a>
<circle cx="66.000000" cy="218.000000" r="1"/>
<rect x="275.800000" y="169.000000" width="24.000000" height="24.000000" rx="0" ry="0" style="stroke:none;fill:#cccccc;"/>
<rect x="274.800000" y="168.000000" width="24.000000" height="24.000000" rx="0" ry="0" style="stroke:none;fill:#4B71A1;"/>
<text x="286.800000" y="182.000000" font-family="Arial" font-size="7" text-anchor="middle" fill="#FFFFFF">*</text>
<circle cx="276.800000" cy="170.000000" r="1"/>
<line x1="271.800000" y1="175.000000" x2="274.800000" y2="176.000000"  transform="rotate(0.000000,274.800000,176.000000)" style="stroke: black; stroke-width:0.25;"/>
<line x1="271.800000" y1="177.000000" x2="274.800000" y2="176.000000"  transform="rotate(0.000000,274.800000,176.000000)" style="stroke: black; stroke-width:0.25;"/>
<line x1="271.800000" y1="183.000000" x2="274.800000" y2="184.000000"  transform="rotate(0.000000,274.800000,184.000000)" style="stroke: black; stroke-width:0.25;"/>
<line x1="271.800000" y1="185.000000" x2="274.800000" y2="184.000000"  transform="rotate(0.000000,274.800000,184.000000)" style="stroke: black; stroke-width:0.25;"/>
<rect x="323.800000" y="121.000000" width="38.700000" height="24.000000" rx="0" ry="0" style="stroke:none;fill:#cccccc;"/>
<rect x="322.800000" y="120.000000" width="38.700000" height="24.000000" rx="0" ry="0" style="stroke:none;fill:#4B71A1;"/>
<text x="342.150000" y="134.000000" font-family="Arial" font-size="7" text-anchor="middle" fill="#FFFFFF">select2</text>
<circle cx="324.800000" cy="122.000000" r="1"/>
<line x1="319.800000" y1="123.000000" x2="322.800000" y2="124.000000"  transform="rotate(0.000000,322.800000,124.000000)" style="stroke: black; stroke-width:0.25;"/>
<line x1="319.800000" y1="125.000000" x2="322.800000" y2="124.000000"  transform="rotate(0.000000,322.800000,124.000000)" style="stroke: black; stroke-width:0.25;"/>
<line x1="319.800000" y1="131.000000" x2="322.800000" y2="132.000000"  transform="rotate(0.000000,322.800000,132.000000)" style="stroke: black; stroke-width:0.25;"/>
<line x1="319.800000" y1="133.000000" x2="322.800000" y2="132.000000"  transform="rotate(0.000000,322.800000,132.000000)" style="stroke: black; stroke-width:0.25;"/>
<line x1="319.800000" y1="139.000000" x2="322.800000" y2="140.000000"  transform="rotate(0.000000,322.800000,140.000000)" style="stroke: black; stroke-width:0.25;"/>
<line x1="319.800000" y1="141.000000" x2="322.800000" y2="140.000000"  transform="rotate(0.000000,322.800000,140.000000)" style="stroke: black; stroke-width:0.25;"/>
<line x1="15.000000" y1="15.000000" x2="15.000000" y2="249.000000"  style="stroke: black; stroke-linecap:round; stroke-width:0.25; stroke-dasharray:3,3;"/>
<line x1="15.000000" y1="249.000000" x2="378.500000" y2="249.000000"  style="stroke: black; stroke-linecap:round; stroke-width:0.25; stroke-dasharray:3,3;"/>
<line x1="378.500000" y1="249.000000" x2="378.500000" y2="15.000000"  style="stroke: black; stroke-linecap:round; stroke-width:0.25; stroke-dasharray:3,3;"/>
<line x1="15.000000" y1="15.000000" x2="20.000000" y2="15.000000"  style="stroke: black; stroke-linecap:round; stroke-width:0.25; stroke-dasharray:3,3;"/>
<line x1="129.650000" y1="15.000000" x2="378.500000" y2="15.000000"  style="stroke: black; stroke-linecap:round; stroke-width:0.25; stroke-dasharray:3,3;"/>
<text x="20.000000" y="17.000000" font-family="Arial" font-size="7">facs2(4)(((4,...or) : -) : +)(0)</text>
<line x1="380.500000" y1="131.000000" x2="383.500000" y2="132.000000"  transform="rotate(0.000000,383.500000,132.000000)" style="stroke: black; stroke-width:0.25;"/>
<line x1="380.500000" y1="133.000000" x2="383.500000" y2="132.000000"  transform="rotate(0.000000,383.500000,132.000000)" style="stroke: black; stroke-width:0.25;"/>
<line x1="153.400000" y1="36.000000" x2="157.400000" y2="36.000000"  style="stroke:black; stroke-linecap:round; stroke-width:0.25;"/>
<line x1="153.400000" y1="68.000000" x2="157.400000" y2="68.000000"  style="stroke:black; stroke-linecap:round; stroke-width:0.25;"/>
<line x1="157.400000" y1="36.000000" x2="165.400000" y2="36.000000"  style="stroke:black; stroke-linecap:round; stroke-width:0.25;"/>
<line x1="157.400000" y1="56.000000" x2="165.400000" y2="56.000000"  style="stroke:black; stroke-linecap:round; stroke-width:0.25;"/>
<line x1="157.400000" y1="68.000000" x2="157.400000" y2="56.000000"  style="stroke:black; stroke-linecap:round; stroke-width:0.25;"/>
<line x1="157.400000" y1="68.000000" x2="157.400000" y2="68.000000"  style="stroke:black; stroke-linecap:round; stroke-width:0.25;"/>
<line x1="165.400000" y1="36.000000" x2="165.400000" y2="48.000000"  style="stroke:black; stroke-linecap:round; stroke-width:0.25;"/>
<line x1="165.400000" y1="48.000000" x2="165.400000" y2="48.000000"  style="stroke:black; stroke-linecap:round; stroke-width:0.25;"/>
<line x1="165.400000" y1="48.000000" x2="169.400000" y2="48.000000"  style="stroke:black; stroke-linecap:round; stroke-width:0.25;"/>
<line x1="165.400000" y1="56.000000" x2="169.400000" y2="56.000000"  style="stroke:black; stroke-linecap:round; stroke-width:0.25;"/>
<line x1="173.400000" y1="100.000000" x2="177.400000" y2="100.000000"  style="stroke:black; stroke-linecap:round; stroke-width:0.25;"/>
<line x1="177.400000" y1="100.000000" x2="302.800000" y2="100.000000"  style="stroke:black; stroke-linecap:round; stroke-width:0.25;"/>
<line x1="178.800000" y1="132.000000" x2="182.800000" y2="132.000000"  style="stroke:black; stroke-linecap:round; stroke-width:0.25;"/>
<line x1="178.800000" y1="164.000000" x2="182.800000" y2="164.000000"  style="stroke:black; stroke-linecap:round; stroke-width:0.25;"/>
<line x1="182.800000" y1="132.000000" x2="190.800000" y2="132.000000"  style="stroke:black; stroke-linecap:round; stroke-width:0.25;"/>
<line x1="182.800000" y1="152.000000" x2="190.800000" y2="152.000000"  style="stroke:black; stroke-linecap:round; stroke-width:0.25;"/>
<line x1="182.800000" y1="164.000000" x2="182.800000" y2="152.000000"  style="stroke:black; stroke-linecap:round; stroke-width:0.25;"/>
<line x1="182.800000" y1="164.000000" x2="182.800000" y2="164.000000"  style="stroke:black; stroke-linecap:round; stroke-width:0.25;"/>
<line x1="190.800000" y1="132.000000" x2="190.800000" y2="144.000000"  style="stroke:black; stroke-linecap:round; stroke-width:0.25;"/>
<line x1="190.800000" y1="144.000000" x2="190.800000" y2="144.000000"  style="stroke:black; stroke-linecap:round; stroke-width:0.25;"/>
<line x1="190.800000" y1="144.000000" x2="194.800000" y2="144.000000"  style="stroke:black; stroke-linecap:round; stroke-width:0.25;"/>
<line x1="190.800000" y1="152.000000" x2="194.800000" y2="152.000000"  style="stroke:black; stroke-linecap:round; stroke-width:0.25;"/>
<line x1="193.400000" y1="52.000000" x2="197.400000" y2="52.000000"  style="stroke:black; stroke-linecap:round; stroke-width:0.25;"/>
<line x1="197.400000" y1="52.000000" x2="302.800000" y2="52.000000"  style="stroke:black; stroke-linecap:round; stroke-width:0.25;"/>
<line x1="198.800000" y1="196.000000" x2="202.800000" y2="196.000000"  style="stroke:black; stroke-linecap:round; stroke-width:0.25;"/>
<line x1="202.800000" y1="196.000000" x2="222.800000" y2="196.000000"  style="stroke:black; stroke-linecap:round; stroke-width:0.25;"/>
<line x1="218.800000" y1="148.000000" x2="222.800000" y2="148.000000"  style="stroke:black; stroke-linecap:round; stroke-width:0.25;"/>
<line x1="218.800000" y1="228.000000" x2="222.800000" y2="228.000000"  style="stroke:black; stroke-linecap:round; stroke-width:0.25;"/>
<line x1="222.800000" y1="148.000000" x2="230.800000" y2="148.000000"  style="stroke:black; stroke-linecap:round; stroke-width:0.25;"/>
<line x1="222.800000" y1="168.000000" x2="230.800000" y2="168.000000"  style="stroke:black; stroke-linecap:round; stroke-width:0.25;"/>
<line x1="222.800000" y1="196.000000" x2="222.800000" y2="168.000000"  style="stroke:black; stroke-linecap:round; stroke-width:0.25;"/>
<line x1="222.800000" y1="196.000000" x2="222.800000" y2="196.000000"  style="stroke:black; stroke-linecap:round; stroke-width:0.25;"/>
<line x1="222.800000" y1="228.000000" x2="262.800000" y2="228.000000"  style="stroke:black; stroke-linecap:round; stroke-width:0.25;"/>
<line x1="230.800000" y1="148.000000" x2="230.800000" y2="160.000000"  style="stroke:black; stroke-linecap:round; stroke-width:0.25;"/>
<line x1="230.800000" y1="160.000000" x2="230.800000" y2="160.000000"  style="stroke:black; stroke-linecap:round; stroke-width:0.25;"/>
<line x1="230.800000" y1="160.000000" x2="234.800000" y2="160.000000"  style="stroke:black; stroke-linecap:round; stroke-width:0.25;"/>
<line x1="230.800000" y1="168.000000" x2="234.800000" y2="168.000000"  style="stroke:black; stroke-linecap:round; stroke-width:0.25;"/>
<line x1="258.800000" y1="164.000000" x2="262.800000" y2="164.000000"  style="stroke:black; stroke-linecap:round; stroke-width:0.25;"/>
<line x1="262.800000" y1="164.000000" x2="270.800000" y2="164.000000"  style="stroke:black; stroke-linecap:round; stroke-width:0.25;"/>
<line x1="262.800000" y1="184.000000" x2="270.800000" y2="184.000000"  style="stroke:black; stroke-linecap:round; stroke-width:0.25;"/>
<line x1="262.800000" y1="228.000000" x2="262.800000" y2="184.000000"  style="stroke:black; stroke-linecap:round; stroke-width:0.25;"/>
<line x1="262.800000" y1="228.000000" x2="262.800000" y2="228.000000"  style="stroke:black; stroke-linecap:round; stroke-width:0.25;"/>
<line x1="270.800000" y1="164.000000" x2="270.800000" y2="176.000000"  style="stroke:black; stroke-linecap:round; stroke-width:0.25;"/>
<line x1="270.800000" y1="176.000000" x2="270.800000" y2="176.000000"  style="stroke:black; stroke-linecap:round; stroke-width:0.25;"/>
<line x1="270.800000" y1="176.000000" x2="274.800000" y2="176.000000"  style="stroke:black; stroke-linecap:round; stroke-width:0.25;"/>
<line x1="270.800000" y1="184.000000" x2="274.800000" y2="184.000000"  style="stroke:black; stroke-linecap:round; stroke-width:0.25;"/>
<line x1="298.800000" y1="180.000000" x2="302.800000" y2="180.000000"  style="stroke:black; stroke-linecap:round; stroke-width:0.25;"/>
<line x1="302.800000" y1="52.000000" x2="318.800000" y2="52.000000"  style="stroke:black; stroke-linecap:round; stroke-width:0.25;"/>
<line x1="302.800000" y1="100.000000" x2="310.800000" y2="100.000000"  style="stroke:black; stroke-linecap:round; stroke-width:0.25;"/>
<line x1="302.800000" y1="140.000000" x2="318.800000" y2="140.000000"  style="stroke:black; stroke-linecap:round; stroke-width:0.25;"/>
<line x1="302.800000" y1="180.000000" x2="302.800000" y2="140.000000"  style="stroke:black; stroke-linecap:round; stroke-width:0.25;"/>
<line x1="302.800000" y1="180.000000" x2="302.800000" y2="180.000000"  style="stroke:black; stroke-linecap:round; stroke-width:0.25;"/>
<line x1="310.800000" y1="100.000000" x2="310.800000" y2="132.000000"  style="stroke:black; stroke-linecap:round; stroke-width:0.25;"/>
<line x1="310.800000" y1="132.000000" x2="318.800000" y2="132.000000"  style="stroke:black; stroke-linecap:round; stroke-width:0.25;"/>
<line x1="318.800000" y1="52.000000" x2="318.800000" y2="124.000000"  style="stroke:black; stroke-linecap:round; stroke-width:0.25;"/>
<line x1="318.800000" y1="124.000000" x2="318.800000" y2="124.000000"  style="stroke:black; stroke-linecap:round; stroke-width:0.25;"/>
<line x1="318.800000" y1="124.000000" x2="322.800000" y2="124.000000"  style="stroke:black; stroke-linecap:round; stroke-width:0.25;"/>
<line x1="318.800000" y1="132.000000" x2="322.800000" y2="132.000000"  style="stroke:black; stroke-linecap:round; stroke-width:0.25;"/>
<line x1="318.800000" y1="140.000000" x2="322.800000" y2="140.000000"  style="stroke:black; stroke-linecap:round; stroke-width:0.25;"/>
<line x1="361.500000" y1="132.000000" x2="365.500000" y2="132.000000"  style="stroke:black; stroke-linecap:round; stroke-width:0.25;"/>
<line x1="365.500000" y1="132.000000" x2="365.500000" y2="132.000000"  style="stroke:black; stroke-linecap:round; stroke-width:0.25;"/>
<line x1="365.500000" y1="132.000000" x2="369.500000" y2="132.000000"  style="stroke:black; stroke-linecap:round; stroke-width:0.25;"/>
<line x1="369.500000" y1="132.000000" x2="373.500000" y2="132.000000"  style="stroke:black; stroke-linecap:round; stroke-width:0.25;"/>
<line x1="373.500000" y1="132.000000" x2="383.500000" y2="132.000000"  style="stroke:black; stroke-linecap:round; stroke-width:0.25;"/>
</svg>
