<?xml version="1.0"?>
<svg xmlns="http://www.w3.org/2000/svg" xmlns:xlink="http://www.w3.org/1999/xlink" viewBox="0 0 478.500000 208.000000" width="239.250000mm" height="104.000000mm" version="1.1">
<a xlink:href="c-0x7fe2fd3841e0.svg">
<rect x="1.000000" y="1.000000" width="477.500000" height="207.000000" rx="0" ry="0" style="stroke:none;fill:#cccccc;"/>
<rect x="0.000000" y="0.000000" width="477.500000" height="207.000000" rx="0" ry="0" style="stroke:none;fill:#ffffff;"/>
</a>
<text x="10.000000" y="7.000000" font-family="Arial" font-size="7"></text>
<rect x="164.250000" y="25.000000" width="24.000000" height="24.000000" rx="0" ry="0" style="stroke:none;fill:#cccccc;"/>
<rect x="163.250000" y="24.000000" width="24.000000" height="24.000000" rx="0" ry="0" style="stroke:none;fill:#f44800;"/>
<text x="175.250000" y="38.000000" font-family="Arial" font-size="7" text-anchor="middle" fill="#FFFFFF">2</text>
<circle cx="165.250000" cy="26.000000" r="1"/>
<rect x="156.900000" y="67.000000" width="38.700000" height="24.000000" rx="0" ry="0" style="stroke:none;fill:#cccccc;"/>
<rect x="155.900000" y="66.000000" width="38.700000" height="24.000000" rx="0" ry="0" style="stroke:none;fill:#f44800;"/>
<text x="175.250000" y="80.000000" font-family="Arial" font-size="7" text-anchor="middle" fill="#FFFFFF">3.14159</text>
<circle cx="157.900000" cy="68.000000" r="1"/>
<line x1="146.900000" y1="57.000000" x2="146.900000" y2="99.000000"  style="stroke: black; stroke-linecap:round; stroke-width:0.25; stroke-dasharray:3,3;"/>
<line x1="146.900000" y1="99.000000" x2="203.600000" y2="99.000000"  style="stroke: black; stroke-linecap:round; stroke-width:0.25; stroke-dasharray:3,3;"/>
<line x1="203.600000" y1="99.000000" x2="203.600000" y2="57.000000"  style="stroke: black; stroke-linecap:round; stroke-width:0.25; stroke-dasharray:3,3;"/>
<line x1="146.900000" y1="57.000000" x2="151.900000" y2="57.000000"  style="stroke: black; stroke-linecap:round; stroke-width:0.25; stroke-dasharray:3,3;"/>
<line x1="164.800000" y1="57.000000" x2="203.600000" y2="57.000000"  style="stroke: black; stroke-linecap:round; stroke-width:0.25; stroke-dasharray:3,3;"/>
<text x="151.900000" y="59.000000" font-family="Arial" font-size="7">PI</text>
<rect x="221.600000" y="51.000000" width="24.000000" height="24.000000" rx="0" ry="0" style="stroke:none;fill:#cccccc;"/>
<rect x="220.600000" y="50.000000" width="24.000000" height="24.000000" rx="0" ry="0" style="stroke:none;fill:#4B71A1;"/>
<text x="232.600000" y="64.000000" font-family="Arial" font-size="7" text-anchor="middle" fill="#FFFFFF">*</text>
<circle cx="222.600000" cy="52.000000" r="1"/>
<line x1="217.600000" y1="57.000000" x2="220.600000" y2="58.000000"  transform="rotate(0.000000,220.600000,58.000000)" style="stroke: black; stroke-width:0.25;"/>
<line x1="217.600000" y1="59.000000" x2="220.600000" y2="58.000000"  transform="rotate(0.000000,220.600000,58.000000)" style="stroke: black; stroke-width:0.25;"/>
<line x1="217.600000" y1="65.000000" x2="220.600000" y2="66.000000"  transform="rotate(0.000000,220.600000,66.000000)" style="stroke: black; stroke-width:0.25;"/>
<line x1="217.600000" y1="67.000000" x2="220.600000" y2="66.000000"  transform="rotate(0.000000,220.600000,66.000000)" style="stroke: black; stroke-width:0.25;"/>
<rect x="35.000000" y="119.000000" width="322.500000" height="24.000000" rx="0" ry="0" style="stroke:none;fill:#cccccc;"/>
<rect x="34.000000" y="118.000000" width="322.500000" height="24.000000" rx="0" ry="0" style="stroke:none;fill:#477881;"/>
<text x="195.250000" y="132.000000" font-family="Arial" font-size="7" text-anchor="middle" fill="#FFFFFF">hslider(v:violin/h:otherParams/vibratoFrequency, 6.0f, 1.0f, 10.0f, 0.01f)</text>
<circle cx="36.000000" cy="120.000000" r="1"/>
<line x1="25.000000" y1="109.000000" x2="25.000000" y2="151.000000"  style="stroke: black; stroke-linecap:round; stroke-width:0.25; stroke-dasharray:3,3;"/>
<line x1="25.000000" y1="151.000000" x2="365.500000" y2="151.000000"  style="stroke: black; stroke-linecap:round; stroke-width:0.25; stroke-dasharray:3,3;"/>
<line x1="365.500000" y1="151.000000" x2="365.500000" y2="109.000000"  style="stroke: black; stroke-linecap:round; stroke-width:0.25; stroke-dasharray:3,3;"/>
<line x1="25.000000" y1="109.000000" x2="30.000000" y2="109.000000"  style="stroke: black; stroke-linecap:round; stroke-width:0.25; stroke-dasharray:3,3;"/>
<line x1="71.925000" y1="109.000000" x2="365.500000" y2="109.000000"  style="stroke: black; stroke-linecap:round; stroke-width:0.25; stroke-dasharray:3,3;"/>
<text x="30.000000" y="111.000000" font-family="Arial" font-size="7">vibratoFreq</text>
<rect x="383.500000" y="77.000000" width="24.000000" height="24.000000" rx="0" ry="0" style="stroke:none;fill:#cccccc;"/>
<rect x="382.500000" y="76.000000" width="24.000000" height="24.000000" rx="0" ry="0" style="stroke:none;fill:#4B71A1;"/>
<text x="394.500000" y="90.000000" font-family="Arial" font-size="7" text-anchor="middle" fill="#FFFFFF">*</text>
<circle cx="384.500000" cy="78.000000" r="1"/>
<line x1="379.500000" y1="83.000000" x2="382.500000" y2="84.000000"  transform="rotate(0.000000,382.500000,84.000000)" style="stroke: black; stroke-width:0.25;"/>
<line x1="379.500000" y1="85.000000" x2="382.500000" y2="84.000000"  transform="rotate(0.000000,382.500000,84.000000)" style="stroke: black; stroke-width:0.25;"/>
<line x1="379.500000" y1="91.000000" x2="382.500000" y2="92.000000"  transform="rotate(0.000000,382.500000,92.000000)" style="stroke: black; stroke-width:0.25;"/>
<line x1="379.500000" y1="93.000000" x2="382.500000" y2="92.000000"  transform="rotate(0.000000,382.500000,92.000000)" style="stroke: black; stroke-width:0.25;"/>
<a xlink:href="SR-0x7fe2fd211390.svg">
<rect x="204.250000" y="161.000000" width="24.000000" height="24.000000" rx="0" ry="0" style="stroke:none;fill:#cccccc;"/>
<rect x="203.250000" y="160.000000" width="24.000000" height="24.000000" rx="0" ry="0" style="stroke:none;fill:#003366;"/>
</a>
<a xlink:href="SR-0x7fe2fd211390.svg">
<text x="215.250000" y="174.000000" font-family="Arial" font-size="7" text-anchor="middle" fill="#FFFFFF">SR</text>
</a>
<circle cx="205.250000" cy="162.000000" r="1"/>
<rect x="423.500000" y="93.000000" width="24.000000" height="24.000000" rx="0" ry="0" style="stroke:none;fill:#cccccc;"/>
<rect x="422.500000" y="92.000000" width="24.000000" height="24.000000" rx="0" ry="0" style="stroke:none;fill:#4B71A1;"/>
<text x="434.500000" y="106.000000" font-family="Arial" font-size="7" text-anchor="middle" fill="#FFFFFF">/</text>
<circle cx="424.500000" cy="94.000000" r="1"/>
<line x1="419.500000" y1="99.000000" x2="422.500000" y2="100.000000"  transform="rotate(0.000000,422.500000,100.000000)" style="stroke: black; stroke-width:0.25;"/>
<line x1="419.500000" y1="101.000000" x2="422.500000" y2="100.000000"  transform="rotate(0.000000,422.500000,100.000000)" style="stroke: black; stroke-width:0.25;"/>
<line x1="419.500000" y1="107.000000" x2="422.500000" y2="108.000000"  transform="rotate(0.000000,422.500000,108.000000)" style="stroke: black; stroke-width:0.25;"/>
<line x1="419.500000" y1="109.000000" x2="422.500000" y2="108.000000"  transform="rotate(0.000000,422.500000,108.000000)" style="stroke: black; stroke-width:0.25;"/>
<line x1="15.000000" y1="15.000000" x2="15.000000" y2="193.000000"  style="stroke: black; stroke-linecap:round; stroke-width:0.25; stroke-dasharray:3,3;"/>
<line x1="15.000000" y1="193.000000" x2="463.500000" y2="193.000000"  style="stroke: black; stroke-linecap:round; stroke-width:0.25; stroke-dasharray:3,3;"/>
<line x1="463.500000" y1="193.000000" x2="463.500000" y2="15.000000"  style="stroke: black; stroke-linecap:round; stroke-width:0.25; stroke-dasharray:3,3;"/>
<line x1="15.000000" y1="15.000000" x2="20.000000" y2="15.000000"  style="stroke: black; stroke-linecap:round; stroke-width:0.25; stroke-dasharray:3,3;"/>
<line x1="32.900000" y1="15.000000" x2="463.500000" y2="15.000000"  style="stroke: black; stroke-linecap:round; stroke-width:0.25; stroke-dasharray:3,3;"/>
<text x="20.000000" y="17.000000" font-family="Arial" font-size="7">th</text>
<line x1="465.500000" y1="103.000000" x2="468.500000" y2="104.000000"  transform="rotate(0.000000,468.500000,104.000000)" style="stroke: black; stroke-width:0.25;"/>
<line x1="465.500000" y1="105.000000" x2="468.500000" y2="104.000000"  transform="rotate(0.000000,468.500000,104.000000)" style="stroke: black; stroke-width:0.25;"/>
<line x1="187.250000" y1="36.000000" x2="191.250000" y2="36.000000"  style="stroke:black; stroke-linecap:round; stroke-width:0.25;"/>
<line x1="191.250000" y1="36.000000" x2="208.600000" y2="36.000000"  style="stroke:black; stroke-linecap:round; stroke-width:0.25;"/>
<line x1="194.600000" y1="78.000000" x2="198.600000" y2="78.000000"  style="stroke:black; stroke-linecap:round; stroke-width:0.25;"/>
<line x1="198.600000" y1="78.000000" x2="208.600000" y2="78.000000"  style="stroke:black; stroke-linecap:round; stroke-width:0.25;"/>
<line x1="208.600000" y1="36.000000" x2="216.600000" y2="36.000000"  style="stroke:black; stroke-linecap:round; stroke-width:0.25;"/>
<line x1="208.600000" y1="66.000000" x2="216.600000" y2="66.000000"  style="stroke:black; stroke-linecap:round; stroke-width:0.25;"/>
<line x1="208.600000" y1="78.000000" x2="208.600000" y2="66.000000"  style="stroke:black; stroke-linecap:round; stroke-width:0.25;"/>
<line x1="208.600000" y1="78.000000" x2="208.600000" y2="78.000000"  style="stroke:black; stroke-linecap:round; stroke-width:0.25;"/>
<line x1="216.600000" y1="36.000000" x2="216.600000" y2="58.000000"  style="stroke:black; stroke-linecap:round; stroke-width:0.25;"/>
<line x1="216.600000" y1="58.000000" x2="216.600000" y2="58.000000"  style="stroke:black; stroke-linecap:round; stroke-width:0.25;"/>
<line x1="216.600000" y1="58.000000" x2="220.600000" y2="58.000000"  style="stroke:black; stroke-linecap:round; stroke-width:0.25;"/>
<line x1="216.600000" y1="66.000000" x2="220.600000" y2="66.000000"  style="stroke:black; stroke-linecap:round; stroke-width:0.25;"/>
<line x1="227.250000" y1="172.000000" x2="231.250000" y2="172.000000"  style="stroke:black; stroke-linecap:round; stroke-width:0.25;"/>
<line x1="231.250000" y1="172.000000" x2="410.500000" y2="172.000000"  style="stroke:black; stroke-linecap:round; stroke-width:0.25;"/>
<line x1="244.600000" y1="62.000000" x2="248.600000" y2="62.000000"  style="stroke:black; stroke-linecap:round; stroke-width:0.25;"/>
<line x1="248.600000" y1="62.000000" x2="370.500000" y2="62.000000"  style="stroke:black; stroke-linecap:round; stroke-width:0.25;"/>
<line x1="356.500000" y1="130.000000" x2="360.500000" y2="130.000000"  style="stroke:black; stroke-linecap:round; stroke-width:0.25;"/>
<line x1="360.500000" y1="130.000000" x2="370.500000" y2="130.000000"  style="stroke:black; stroke-linecap:round; stroke-width:0.25;"/>
<line x1="370.500000" y1="62.000000" x2="378.500000" y2="62.000000"  style="stroke:black; stroke-linecap:round; stroke-width:0.25;"/>
<line x1="370.500000" y1="92.000000" x2="378.500000" y2="92.000000"  style="stroke:black; stroke-linecap:round; stroke-width:0.25;"/>
<line x1="370.500000" y1="130.000000" x2="370.500000" y2="92.000000"  style="stroke:black; stroke-linecap:round; stroke-width:0.25;"/>
<line x1="370.500000" y1="130.000000" x2="370.500000" y2="130.000000"  style="stroke:black; stroke-linecap:round; stroke-width:0.25;"/>
<line x1="378.500000" y1="62.000000" x2="378.500000" y2="84.000000"  style="stroke:black; stroke-linecap:round; stroke-width:0.25;"/>
<line x1="378.500000" y1="84.000000" x2="378.500000" y2="84.000000"  style="stroke:black; stroke-linecap:round; stroke-width:0.25;"/>
<line x1="378.500000" y1="84.000000" x2="382.500000" y2="84.000000"  style="stroke:black; stroke-linecap:round; stroke-width:0.25;"/>
<line x1="378.500000" y1="92.000000" x2="382.500000" y2="92.000000"  style="stroke:black; stroke-linecap:round; stroke-width:0.25;"/>
<line x1="406.500000" y1="88.000000" x2="410.500000" y2="88.000000"  style="stroke:black; stroke-linecap:round; stroke-width:0.25;"/>
<line x1="410.500000" y1="88.000000" x2="418.500000" y2="88.000000"  style="stroke:black; stroke-linecap:round; stroke-width:0.25;"/>
<line x1="410.500000" y1="108.000000" x2="418.500000" y2="108.000000"  style="stroke:black; stroke-linecap:round; stroke-width:0.25;"/>
<line x1="410.500000" y1="172.000000" x2="410.500000" y2="108.000000"  style="stroke:black; stroke-linecap:round; stroke-width:0.25;"/>
<line x1="410.500000" y1="172.000000" x2="410.500000" y2="172.000000"  style="stroke:black; stroke-linecap:round; stroke-width:0.25;"/>
<line x1="418.500000" y1="88.000000" x2="418.500000" y2="100.000000"  style="stroke:black; stroke-linecap:round; stroke-width:0.25;"/>
<line x1="418.500000" y1="100.000000" x2="418.500000" y2="100.000000"  style="stroke:black; stroke-linecap:round; stroke-width:0.25;"/>
<line x1="418.500000" y1="100.000000" x2="422.500000" y2="100.000000"  style="stroke:black; stroke-linecap:round; stroke-width:0.25;"/>
<line x1="418.500000" y1="108.000000" x2="422.500000" y2="108.000000"  style="stroke:black; stroke-linecap:round; stroke-width:0.25;"/>
<line x1="446.500000" y1="104.000000" x2="450.500000" y2="104.000000"  style="stroke:black; stroke-linecap:round; stroke-width:0.25;"/>
<line x1="450.500000" y1="104.000000" x2="450.500000" y2="104.000000"  style="stroke:black; stroke-linecap:round; stroke-width:0.25;"/>
<line x1="450.500000" y1="104.000000" x2="454.500000" y2="104.000000"  style="stroke:black; stroke-linecap:round; stroke-width:0.25;"/>
<line x1="454.500000" y1="104.000000" x2="458.500000" y2="104.000000"  style="stroke:black; stroke-linecap:round; stroke-width:0.25;"/>
<line x1="458.500000" y1="104.000000" x2="468.500000" y2="104.000000"  style="stroke:black; stroke-linecap:round; stroke-width:0.25;"/>
</svg>
