<?xml version="1.0"?>
<svg xmlns="http://www.w3.org/2000/svg" xmlns:xlink="http://www.w3.org/1999/xlink" viewBox="0 0 646.200000 152.000000" width="323.100000mm" height="76.000000mm" version="1.1">
<a xlink:href="process.svg">
<rect x="1.000000" y="1.000000" width="645.200000" height="151.000000" rx="0" ry="0" style="stroke:none;fill:#cccccc;"/>
<rect x="0.000000" y="0.000000" width="645.200000" height="151.000000" rx="0" ry="0" style="stroke:none;fill:#ffffff;"/>
</a>
<text x="10.000000" y="7.000000" font-family="Arial" font-size="7"></text>
<rect x="41.000000" y="49.000000" width="64.500000" height="24.000000" rx="0" ry="0" style="stroke:none;fill:#cccccc;"/>
<rect x="40.000000" y="48.000000" width="64.500000" height="24.000000" rx="0" ry="0" style="stroke:none;fill:#47945E;"/>
<text x="72.250000" y="62.000000" font-family="Arial" font-size="7" text-anchor="middle" fill="#FFFFFF">delay1FeedBack</text>
<circle cx="42.000000" cy="50.000000" r="1"/>
<line x1="37.000000" y1="59.000000" x2="40.000000" y2="60.000000"  transform="rotate(0.000000,40.000000,60.000000)" style="stroke: black; stroke-width:0.25;"/>
<line x1="37.000000" y1="61.000000" x2="40.000000" y2="60.000000"  transform="rotate(0.000000,40.000000,60.000000)" style="stroke: black; stroke-width:0.25;"/>
<rect x="53.900000" y="81.000000" width="38.700000" height="24.000000" rx="0" ry="0" style="stroke:none;fill:#cccccc;"/>
<rect x="52.900000" y="80.000000" width="38.700000" height="24.000000" rx="0" ry="0" style="stroke:none;fill:#47945E;"/>
<text x="72.250000" y="94.000000" font-family="Arial" font-size="7" text-anchor="middle" fill="#FFFFFF">breathP</text>
<circle cx="54.900000" cy="82.000000" r="1"/>
<line x1="49.900000" y1="91.000000" x2="52.900000" y2="92.000000"  transform="rotate(0.000000,52.900000,92.000000)" style="stroke: black; stroke-width:0.25;"/>
<line x1="49.900000" y1="93.000000" x2="52.900000" y2="92.000000"  transform="rotate(0.000000,52.900000,92.000000)" style="stroke: black; stroke-width:0.25;"/>
<rect x="113.500000" y="65.000000" width="64.500000" height="24.000000" rx="0" ry="0" style="stroke:none;fill:#cccccc;"/>
<rect x="112.500000" y="64.000000" width="64.500000" height="24.000000" rx="0" ry="0" style="stroke:none;fill:#47945E;"/>
<text x="144.750000" y="78.000000" font-family="Arial" font-size="7" text-anchor="middle" fill="#FFFFFF">delay1FeedBack</text>
<circle cx="114.500000" cy="66.000000" r="1"/>
<a xlink:href="delay2-0x7fd12cdd96d0.svg">
<rect x="222.000000" y="69.000000" width="25.800000" height="24.000000" rx="0" ry="0" style="stroke:none;fill:#cccccc;"/>
<rect x="221.000000" y="68.000000" width="25.800000" height="24.000000" rx="0" ry="0" style="stroke:none;fill:#003366;"/>
</a>
<a xlink:href="delay2-0x7fd12cdd96d0.svg">
<text x="233.900000" y="82.000000" font-family="Arial" font-size="7" text-anchor="middle" fill="#FFFFFF">delay2</text>
</a>
<circle cx="223.000000" cy="70.000000" r="1"/>
<line x1="218.000000" y1="79.000000" x2="221.000000" y2="80.000000"  transform="rotate(0.000000,221.000000,80.000000)" style="stroke: black; stroke-width:0.25;"/>
<line x1="218.000000" y1="81.000000" x2="221.000000" y2="80.000000"  transform="rotate(0.000000,221.000000,80.000000)" style="stroke: black; stroke-width:0.25;"/>
<rect x="263.800000" y="65.000000" width="24.000000" height="24.000000" rx="0" ry="0" style="stroke:none;fill:#cccccc;"/>
<rect x="262.800000" y="64.000000" width="24.000000" height="24.000000" rx="0" ry="0" style="stroke:none;fill:#4B71A1;"/>
<text x="274.800000" y="78.000000" font-family="Arial" font-size="7" text-anchor="middle" fill="#FFFFFF">-</text>
<circle cx="264.800000" cy="66.000000" r="1"/>
<line x1="259.800000" y1="71.000000" x2="262.800000" y2="72.000000"  transform="rotate(0.000000,262.800000,72.000000)" style="stroke: black; stroke-width:0.25;"/>
<line x1="259.800000" y1="73.000000" x2="262.800000" y2="72.000000"  transform="rotate(0.000000,262.800000,72.000000)" style="stroke: black; stroke-width:0.25;"/>
<line x1="259.800000" y1="79.000000" x2="262.800000" y2="80.000000"  transform="rotate(0.000000,262.800000,80.000000)" style="stroke: black; stroke-width:0.25;"/>
<line x1="259.800000" y1="81.000000" x2="262.800000" y2="80.000000"  transform="rotate(0.000000,262.800000,80.000000)" style="stroke: black; stroke-width:0.25;"/>
<rect x="333.800000" y="41.000000" width="38.700000" height="24.000000" rx="0" ry="0" style="stroke:none;fill:#cccccc;"/>
<rect x="332.800000" y="40.000000" width="38.700000" height="24.000000" rx="0" ry="0" style="stroke:none;fill:#47945E;"/>
<text x="352.150000" y="54.000000" font-family="Arial" font-size="7" text-anchor="middle" fill="#FFFFFF">breathP</text>
<circle cx="334.800000" cy="42.000000" r="1"/>
<rect x="388.500000" y="45.000000" width="24.000000" height="24.000000" rx="0" ry="0" style="stroke:none;fill:#cccccc;"/>
<rect x="387.500000" y="44.000000" width="24.000000" height="24.000000" rx="0" ry="0" style="stroke:none;fill:#4B71A1;"/>
<text x="399.500000" y="58.000000" font-family="Arial" font-size="7" text-anchor="middle" fill="#FFFFFF">-</text>
<circle cx="389.500000" cy="46.000000" r="1"/>
<line x1="384.500000" y1="51.000000" x2="387.500000" y2="52.000000"  transform="rotate(0.000000,387.500000,52.000000)" style="stroke: black; stroke-width:0.25;"/>
<line x1="384.500000" y1="53.000000" x2="387.500000" y2="52.000000"  transform="rotate(0.000000,387.500000,52.000000)" style="stroke: black; stroke-width:0.25;"/>
<line x1="384.500000" y1="59.000000" x2="387.500000" y2="60.000000"  transform="rotate(0.000000,387.500000,60.000000)" style="stroke: black; stroke-width:0.25;"/>
<line x1="384.500000" y1="61.000000" x2="387.500000" y2="60.000000"  transform="rotate(0.000000,387.500000,60.000000)" style="stroke: black; stroke-width:0.25;"/>
<rect x="468.500000" y="25.000000" width="38.700000" height="24.000000" rx="0" ry="0" style="stroke:none;fill:#cccccc;"/>
<rect x="467.500000" y="24.000000" width="38.700000" height="24.000000" rx="0" ry="0" style="stroke:none;fill:#47945E;"/>
<text x="486.850000" y="38.000000" font-family="Arial" font-size="7" text-anchor="middle" fill="#FFFFFF">breathP</text>
<circle cx="469.500000" cy="26.000000" r="1"/>
<a xlink:href="reedTable-0x7fd12ce94010.svg">
<rect x="448.500000" y="65.000000" width="38.700000" height="24.000000" rx="0" ry="0" style="stroke:none;fill:#cccccc;"/>
<rect x="447.500000" y="64.000000" width="38.700000" height="24.000000" rx="0" ry="0" style="stroke:none;fill:#003366;"/>
</a>
<a xlink:href="reedTable-0x7fd12ce94010.svg">
<text x="466.850000" y="78.000000" font-family="Arial" font-size="7" text-anchor="middle" fill="#FFFFFF">reedTable</text>
</a>
<circle cx="449.500000" cy="66.000000" r="1"/>
<line x1="444.500000" y1="75.000000" x2="447.500000" y2="76.000000"  transform="rotate(0.000000,447.500000,76.000000)" style="stroke: black; stroke-width:0.25;"/>
<line x1="444.500000" y1="77.000000" x2="447.500000" y2="76.000000"  transform="rotate(0.000000,447.500000,76.000000)" style="stroke: black; stroke-width:0.25;"/>
<rect x="503.200000" y="61.000000" width="24.000000" height="24.000000" rx="0" ry="0" style="stroke:none;fill:#cccccc;"/>
<rect x="502.200000" y="60.000000" width="24.000000" height="24.000000" rx="0" ry="0" style="stroke:none;fill:#4B71A1;"/>
<text x="514.200000" y="74.000000" font-family="Arial" font-size="7" text-anchor="middle" fill="#FFFFFF">*</text>
<circle cx="504.200000" cy="62.000000" r="1"/>
<line x1="499.200000" y1="67.000000" x2="502.200000" y2="68.000000"  transform="rotate(0.000000,502.200000,68.000000)" style="stroke: black; stroke-width:0.25;"/>
<line x1="499.200000" y1="69.000000" x2="502.200000" y2="68.000000"  transform="rotate(0.000000,502.200000,68.000000)" style="stroke: black; stroke-width:0.25;"/>
<line x1="499.200000" y1="75.000000" x2="502.200000" y2="76.000000"  transform="rotate(0.000000,502.200000,76.000000)" style="stroke: black; stroke-width:0.25;"/>
<line x1="499.200000" y1="77.000000" x2="502.200000" y2="76.000000"  transform="rotate(0.000000,502.200000,76.000000)" style="stroke: black; stroke-width:0.25;"/>
<rect x="543.200000" y="45.000000" width="24.000000" height="24.000000" rx="0" ry="0" style="stroke:none;fill:#cccccc;"/>
<rect x="542.200000" y="44.000000" width="24.000000" height="24.000000" rx="0" ry="0" style="stroke:none;fill:#4B71A1;"/>
<text x="554.200000" y="58.000000" font-family="Arial" font-size="7" text-anchor="middle" fill="#FFFFFF">-</text>
<circle cx="544.200000" cy="46.000000" r="1"/>
<line x1="539.200000" y1="51.000000" x2="542.200000" y2="52.000000"  transform="rotate(0.000000,542.200000,52.000000)" style="stroke: black; stroke-width:0.25;"/>
<line x1="539.200000" y1="53.000000" x2="542.200000" y2="52.000000"  transform="rotate(0.000000,542.200000,52.000000)" style="stroke: black; stroke-width:0.25;"/>
<line x1="539.200000" y1="59.000000" x2="542.200000" y2="60.000000"  transform="rotate(0.000000,542.200000,60.000000)" style="stroke: black; stroke-width:0.25;"/>
<line x1="539.200000" y1="61.000000" x2="542.200000" y2="60.000000"  transform="rotate(0.000000,542.200000,60.000000)" style="stroke: black; stroke-width:0.25;"/>
<rect x="418.250000" y="97.000000" width="64.500000" height="24.000000" rx="0" ry="0" style="stroke:none;fill:#cccccc;"/>
<rect x="417.250000" y="96.000000" width="64.500000" height="24.000000" rx="0" ry="0" style="stroke:none;fill:#47945E;"/>
<text x="449.500000" y="110.000000" font-family="Arial" font-size="7" text-anchor="middle" fill="#FFFFFF">delay1FeedBack</text>
<circle cx="419.250000" cy="98.000000" r="1"/>
<rect x="583.200000" y="61.000000" width="24.000000" height="24.000000" rx="0" ry="0" style="stroke:none;fill:#cccccc;"/>
<rect x="582.200000" y="60.000000" width="24.000000" height="24.000000" rx="0" ry="0" style="stroke:none;fill:#4B71A1;"/>
<text x="594.200000" y="74.000000" font-family="Arial" font-size="7" text-anchor="middle" fill="#FFFFFF">-</text>
<circle cx="584.200000" cy="62.000000" r="1"/>
<line x1="579.200000" y1="67.000000" x2="582.200000" y2="68.000000"  transform="rotate(0.000000,582.200000,68.000000)" style="stroke: black; stroke-width:0.25;"/>
<line x1="579.200000" y1="69.000000" x2="582.200000" y2="68.000000"  transform="rotate(0.000000,582.200000,68.000000)" style="stroke: black; stroke-width:0.25;"/>
<line x1="579.200000" y1="75.000000" x2="582.200000" y2="76.000000"  transform="rotate(0.000000,582.200000,76.000000)" style="stroke: black; stroke-width:0.25;"/>
<line x1="579.200000" y1="77.000000" x2="582.200000" y2="76.000000"  transform="rotate(0.000000,582.200000,76.000000)" style="stroke: black; stroke-width:0.25;"/>
<line x1="15.000000" y1="15.000000" x2="15.000000" y2="137.000000"  style="stroke: black; stroke-linecap:round; stroke-width:0.25; stroke-dasharray:3,3;"/>
<line x1="15.000000" y1="137.000000" x2="631.200000" y2="137.000000"  style="stroke: black; stroke-linecap:round; stroke-width:0.25; stroke-dasharray:3,3;"/>
<line x1="631.200000" y1="137.000000" x2="631.200000" y2="15.000000"  style="stroke: black; stroke-linecap:round; stroke-width:0.25; stroke-dasharray:3,3;"/>
<line x1="15.000000" y1="15.000000" x2="20.000000" y2="15.000000"  style="stroke: black; stroke-linecap:round; stroke-width:0.25; stroke-dasharray:3,3;"/>
<line x1="71.600000" y1="15.000000" x2="631.200000" y2="15.000000"  style="stroke: black; stroke-linecap:round; stroke-width:0.25; stroke-dasharray:3,3;"/>
<text x="20.000000" y="17.000000" font-family="Arial" font-size="7">instrumentBody</text>
<line x1="633.200000" y1="71.000000" x2="636.200000" y2="72.000000"  transform="rotate(0.000000,636.200000,72.000000)" style="stroke: black; stroke-width:0.25;"/>
<line x1="633.200000" y1="73.000000" x2="636.200000" y2="72.000000"  transform="rotate(0.000000,636.200000,72.000000)" style="stroke: black; stroke-width:0.25;"/>
<line x1="633.200000" y1="79.000000" x2="636.200000" y2="80.000000"  transform="rotate(0.000000,636.200000,80.000000)" style="stroke: black; stroke-width:0.25;"/>
<line x1="633.200000" y1="81.000000" x2="636.200000" y2="80.000000"  transform="rotate(0.000000,636.200000,80.000000)" style="stroke: black; stroke-width:0.25;"/>
<line x1="10.000000" y1="72.000000" x2="20.000000" y2="72.000000"  style="stroke:black; stroke-linecap:round; stroke-width:0.25;"/>
<line x1="10.000000" y1="80.000000" x2="20.000000" y2="80.000000"  style="stroke:black; stroke-linecap:round; stroke-width:0.25;"/>
<line x1="20.000000" y1="72.000000" x2="24.000000" y2="72.000000"  style="stroke:black; stroke-linecap:round; stroke-width:0.25;"/>
<line x1="20.000000" y1="80.000000" x2="24.000000" y2="80.000000"  style="stroke:black; stroke-linecap:round; stroke-width:0.25;"/>
<line x1="24.000000" y1="72.000000" x2="28.000000" y2="72.000000"  style="stroke:black; stroke-linecap:round; stroke-width:0.25;"/>
<line x1="24.000000" y1="80.000000" x2="28.000000" y2="80.000000"  style="stroke:black; stroke-linecap:round; stroke-width:0.25;"/>
<line x1="28.000000" y1="60.000000" x2="36.000000" y2="60.000000"  style="stroke:black; stroke-linecap:round; stroke-width:0.25;"/>
<line x1="28.000000" y1="72.000000" x2="28.000000" y2="60.000000"  style="stroke:black; stroke-linecap:round; stroke-width:0.25;"/>
<line x1="28.000000" y1="72.000000" x2="28.000000" y2="72.000000"  style="stroke:black; stroke-linecap:round; stroke-width:0.25;"/>
<line x1="28.000000" y1="80.000000" x2="36.000000" y2="80.000000"  style="stroke:black; stroke-linecap:round; stroke-width:0.25;"/>
<line x1="36.000000" y1="60.000000" x2="40.000000" y2="60.000000"  style="stroke:black; stroke-linecap:round; stroke-width:0.25;"/>
<line x1="36.000000" y1="80.000000" x2="36.000000" y2="92.000000"  style="stroke:black; stroke-linecap:round; stroke-width:0.25;"/>
<line x1="36.000000" y1="92.000000" x2="36.000000" y2="92.000000"  style="stroke:black; stroke-linecap:round; stroke-width:0.25;"/>
<line x1="36.000000" y1="92.000000" x2="48.900000" y2="92.000000"  style="stroke:black; stroke-linecap:round; stroke-width:0.25;"/>
<line x1="48.900000" y1="92.000000" x2="52.900000" y2="92.000000"  style="stroke:black; stroke-linecap:round; stroke-width:0.25;"/>
<line x1="177.000000" y1="76.000000" x2="181.000000" y2="76.000000"  style="stroke:black; stroke-linecap:round; stroke-width:0.25;"/>
<line x1="181.000000" y1="76.000000" x2="217.000000" y2="60.000000"  style="stroke:black; stroke-linecap:round; stroke-width:0.25;"/>
<line x1="181.000000" y1="76.000000" x2="217.000000" y2="80.000000"  style="stroke:black; stroke-linecap:round; stroke-width:0.25;"/>
<line x1="217.000000" y1="60.000000" x2="233.900000" y2="60.000000"  style="stroke:black; stroke-linecap:round; stroke-width:0.25;"/>
<line x1="217.000000" y1="80.000000" x2="221.000000" y2="80.000000"  style="stroke:black; stroke-linecap:round; stroke-width:0.25;"/>
<line x1="233.900000" y1="60.000000" x2="250.800000" y2="60.000000"  style="stroke:black; stroke-linecap:round; stroke-width:0.25;"/>
<line x1="246.800000" y1="80.000000" x2="250.800000" y2="80.000000"  style="stroke:black; stroke-linecap:round; stroke-width:0.25;"/>
<line x1="250.800000" y1="60.000000" x2="258.800000" y2="60.000000"  style="stroke:black; stroke-linecap:round; stroke-width:0.25;"/>
<line x1="250.800000" y1="80.000000" x2="258.800000" y2="80.000000"  style="stroke:black; stroke-linecap:round; stroke-width:0.25;"/>
<line x1="258.800000" y1="60.000000" x2="258.800000" y2="72.000000"  style="stroke:black; stroke-linecap:round; stroke-width:0.25;"/>
<line x1="258.800000" y1="72.000000" x2="258.800000" y2="72.000000"  style="stroke:black; stroke-linecap:round; stroke-width:0.25;"/>
<line x1="258.800000" y1="72.000000" x2="262.800000" y2="72.000000"  style="stroke:black; stroke-linecap:round; stroke-width:0.25;"/>
<line x1="258.800000" y1="80.000000" x2="262.800000" y2="80.000000"  style="stroke:black; stroke-linecap:round; stroke-width:0.25;"/>
<line x1="286.800000" y1="76.000000" x2="290.800000" y2="76.000000"  style="stroke:black; stroke-linecap:round; stroke-width:0.25;"/>
<line x1="290.800000" y1="76.000000" x2="328.800000" y2="72.000000"  style="stroke:black; stroke-linecap:round; stroke-width:0.25;"/>
<line x1="290.800000" y1="76.000000" x2="328.800000" y2="128.000000"  style="stroke:black; stroke-linecap:round; stroke-width:0.25;"/>
<line x1="328.800000" y1="72.000000" x2="352.150000" y2="72.000000"  style="stroke:black; stroke-linecap:round; stroke-width:0.25;"/>
<line x1="328.800000" y1="128.000000" x2="469.500000" y2="128.000000"  style="stroke:black; stroke-linecap:round; stroke-width:0.25;"/>
<line x1="352.150000" y1="72.000000" x2="375.500000" y2="72.000000"  style="stroke:black; stroke-linecap:round; stroke-width:0.25;"/>
<line x1="371.500000" y1="52.000000" x2="375.500000" y2="52.000000"  style="stroke:black; stroke-linecap:round; stroke-width:0.25;"/>
<line x1="375.500000" y1="52.000000" x2="383.500000" y2="52.000000"  style="stroke:black; stroke-linecap:round; stroke-width:0.25;"/>
<line x1="375.500000" y1="60.000000" x2="383.500000" y2="60.000000"  style="stroke:black; stroke-linecap:round; stroke-width:0.25;"/>
<line x1="375.500000" y1="72.000000" x2="375.500000" y2="60.000000"  style="stroke:black; stroke-linecap:round; stroke-width:0.25;"/>
<line x1="375.500000" y1="72.000000" x2="375.500000" y2="72.000000"  style="stroke:black; stroke-linecap:round; stroke-width:0.25;"/>
<line x1="383.500000" y1="52.000000" x2="387.500000" y2="52.000000"  style="stroke:black; stroke-linecap:round; stroke-width:0.25;"/>
<line x1="383.500000" y1="60.000000" x2="387.500000" y2="60.000000"  style="stroke:black; stroke-linecap:round; stroke-width:0.25;"/>
<line x1="411.500000" y1="56.000000" x2="415.500000" y2="56.000000"  style="stroke:black; stroke-linecap:round; stroke-width:0.25;"/>
<line x1="415.500000" y1="56.000000" x2="443.500000" y2="56.000000"  style="stroke:black; stroke-linecap:round; stroke-width:0.25;"/>
<line x1="415.500000" y1="56.000000" x2="443.500000" y2="76.000000"  style="stroke:black; stroke-linecap:round; stroke-width:0.25;"/>
<line x1="443.500000" y1="56.000000" x2="466.850000" y2="56.000000"  style="stroke:black; stroke-linecap:round; stroke-width:0.25;"/>
<line x1="443.500000" y1="76.000000" x2="447.500000" y2="76.000000"  style="stroke:black; stroke-linecap:round; stroke-width:0.25;"/>
<line x1="466.850000" y1="56.000000" x2="490.200000" y2="56.000000"  style="stroke:black; stroke-linecap:round; stroke-width:0.25;"/>
<line x1="469.500000" y1="128.000000" x2="610.200000" y2="128.000000"  style="stroke:black; stroke-linecap:round; stroke-width:0.25;"/>
<line x1="481.750000" y1="108.000000" x2="485.750000" y2="108.000000"  style="stroke:black; stroke-linecap:round; stroke-width:0.25;"/>
<line x1="485.750000" y1="108.000000" x2="570.200000" y2="108.000000"  style="stroke:black; stroke-linecap:round; stroke-width:0.25;"/>
<line x1="486.200000" y1="76.000000" x2="490.200000" y2="76.000000"  style="stroke:black; stroke-linecap:round; stroke-width:0.25;"/>
<line x1="490.200000" y1="76.000000" x2="498.200000" y2="76.000000"  style="stroke:black; stroke-linecap:round; stroke-width:0.25;"/>
<line x1="490.200000" y1="56.000000" x2="498.200000" y2="56.000000"  style="stroke:black; stroke-linecap:round; stroke-width:0.25;"/>
<line x1="498.200000" y1="68.000000" x2="502.200000" y2="68.000000"  style="stroke:black; stroke-linecap:round; stroke-width:0.25;"/>
<line x1="498.200000" y1="76.000000" x2="502.200000" y2="76.000000"  style="stroke:black; stroke-linecap:round; stroke-width:0.25;"/>
<line x1="498.200000" y1="56.000000" x2="498.200000" y2="68.000000"  style="stroke:black; stroke-linecap:round; stroke-width:0.25;"/>
<line x1="498.200000" y1="68.000000" x2="498.200000" y2="68.000000"  style="stroke:black; stroke-linecap:round; stroke-width:0.25;"/>
<line x1="506.200000" y1="36.000000" x2="510.200000" y2="36.000000"  style="stroke:black; stroke-linecap:round; stroke-width:0.25;"/>
<line x1="510.200000" y1="36.000000" x2="530.200000" y2="36.000000"  style="stroke:black; stroke-linecap:round; stroke-width:0.25;"/>
<line x1="526.200000" y1="72.000000" x2="530.200000" y2="72.000000"  style="stroke:black; stroke-linecap:round; stroke-width:0.25;"/>
<line x1="530.200000" y1="36.000000" x2="538.200000" y2="36.000000"  style="stroke:black; stroke-linecap:round; stroke-width:0.25;"/>
<line x1="530.200000" y1="60.000000" x2="538.200000" y2="60.000000"  style="stroke:black; stroke-linecap:round; stroke-width:0.25;"/>
<line x1="530.200000" y1="72.000000" x2="530.200000" y2="60.000000"  style="stroke:black; stroke-linecap:round; stroke-width:0.25;"/>
<line x1="530.200000" y1="72.000000" x2="530.200000" y2="72.000000"  style="stroke:black; stroke-linecap:round; stroke-width:0.25;"/>
<line x1="538.200000" y1="36.000000" x2="538.200000" y2="52.000000"  style="stroke:black; stroke-linecap:round; stroke-width:0.25;"/>
<line x1="538.200000" y1="52.000000" x2="538.200000" y2="52.000000"  style="stroke:black; stroke-linecap:round; stroke-width:0.25;"/>
<line x1="538.200000" y1="52.000000" x2="542.200000" y2="52.000000"  style="stroke:black; stroke-linecap:round; stroke-width:0.25;"/>
<line x1="538.200000" y1="60.000000" x2="542.200000" y2="60.000000"  style="stroke:black; stroke-linecap:round; stroke-width:0.25;"/>
<line x1="566.200000" y1="56.000000" x2="570.200000" y2="56.000000"  style="stroke:black; stroke-linecap:round; stroke-width:0.25;"/>
<line x1="570.200000" y1="56.000000" x2="578.200000" y2="56.000000"  style="stroke:black; stroke-linecap:round; stroke-width:0.25;"/>
<line x1="570.200000" y1="76.000000" x2="578.200000" y2="76.000000"  style="stroke:black; stroke-linecap:round; stroke-width:0.25;"/>
<line x1="570.200000" y1="108.000000" x2="570.200000" y2="76.000000"  style="stroke:black; stroke-linecap:round; stroke-width:0.25;"/>
<line x1="570.200000" y1="108.000000" x2="570.200000" y2="108.000000"  style="stroke:black; stroke-linecap:round; stroke-width:0.25;"/>
<line x1="578.200000" y1="56.000000" x2="578.200000" y2="68.000000"  style="stroke:black; stroke-linecap:round; stroke-width:0.25;"/>
<line x1="578.200000" y1="68.000000" x2="578.200000" y2="68.000000"  style="stroke:black; stroke-linecap:round; stroke-width:0.25;"/>
<line x1="578.200000" y1="68.000000" x2="582.200000" y2="68.000000"  style="stroke:black; stroke-linecap:round; stroke-width:0.25;"/>
<line x1="578.200000" y1="76.000000" x2="582.200000" y2="76.000000"  style="stroke:black; stroke-linecap:round; stroke-width:0.25;"/>
<line x1="606.200000" y1="72.000000" x2="610.200000" y2="72.000000"  style="stroke:black; stroke-linecap:round; stroke-width:0.25;"/>
<line x1="610.200000" y1="72.000000" x2="618.200000" y2="72.000000"  style="stroke:black; stroke-linecap:round; stroke-width:0.25;"/>
<line x1="610.200000" y1="80.000000" x2="618.200000" y2="80.000000"  style="stroke:black; stroke-linecap:round; stroke-width:0.25;"/>
<line x1="610.200000" y1="128.000000" x2="610.200000" y2="80.000000"  style="stroke:black; stroke-linecap:round; stroke-width:0.25;"/>
<line x1="610.200000" y1="128.000000" x2="610.200000" y2="128.000000"  style="stroke:black; stroke-linecap:round; stroke-width:0.25;"/>
<line x1="618.200000" y1="72.000000" x2="622.200000" y2="72.000000"  style="stroke:black; stroke-linecap:round; stroke-width:0.25;"/>
<line x1="618.200000" y1="80.000000" x2="622.200000" y2="80.000000"  style="stroke:black; stroke-linecap:round; stroke-width:0.25;"/>
<line x1="622.200000" y1="72.000000" x2="626.200000" y2="72.000000"  style="stroke:black; stroke-linecap:round; stroke-width:0.25;"/>
<line x1="622.200000" y1="80.000000" x2="626.200000" y2="80.000000"  style="stroke:black; stroke-linecap:round; stroke-width:0.25;"/>
<line x1="626.200000" y1="72.000000" x2="636.200000" y2="72.000000"  style="stroke:black; stroke-linecap:round; stroke-width:0.25;"/>
<line x1="626.200000" y1="80.000000" x2="636.200000" y2="80.000000"  style="stroke:black; stroke-linecap:round; stroke-width:0.25;"/>
</svg>
