<?xml version="1.0"?>
<svg xmlns="http://www.w3.org/2000/svg" xmlns:xlink="http://www.w3.org/1999/xlink" viewBox="0 0 548.300000 80.000000" width="274.150000mm" height="40.000000mm" version="1.1">
<a xlink:href="w1-0x7fd56b742120.svg">
<rect x="1.000000" y="1.000000" width="547.300000" height="79.000000" rx="0" ry="0" style="stroke:none;fill:#cccccc;"/>
<rect x="0.000000" y="0.000000" width="547.300000" height="79.000000" rx="0" ry="0" style="stroke:none;fill:#ffffff;"/>
</a>
<text x="10.000000" y="7.000000" font-family="Arial" font-size="7"></text>
<rect x="25.000000" y="29.000000" width="258.000000" height="24.000000" rx="0" ry="0" style="stroke:none;fill:#cccccc;"/>
<rect x="24.000000" y="28.000000" width="258.000000" height="24.000000" rx="0" ry="0" style="stroke:none;fill:#477881;"/>
<text x="153.000000" y="42.000000" font-family="Arial" font-size="7" text-anchor="middle" fill="#FFFFFF">hslider(Cut-off Frequency, 1.3e+03f, 1e+01f, 2e+04f, 0.01f)</text>
<circle cx="26.000000" cy="30.000000" r="1"/>
<a xlink:href="smooth-0x7fd56b729060.svg">
<rect x="291.000000" y="29.000000" width="64.500000" height="24.000000" rx="0" ry="0" style="stroke:none;fill:#cccccc;"/>
<rect x="290.000000" y="28.000000" width="64.500000" height="24.000000" rx="0" ry="0" style="stroke:none;fill:#003366;"/>
</a>
<a xlink:href="smooth-0x7fd56b729060.svg">
<text x="322.250000" y="42.000000" font-family="Arial" font-size="7" text-anchor="middle" fill="#FFFFFF">smooth(0.999f)</text>
</a>
<circle cx="292.000000" cy="30.000000" r="1"/>
<line x1="287.000000" y1="39.000000" x2="290.000000" y2="40.000000"  transform="rotate(0.000000,290.000000,40.000000)" style="stroke: black; stroke-width:0.25;"/>
<line x1="287.000000" y1="41.000000" x2="290.000000" y2="40.000000"  transform="rotate(0.000000,290.000000,40.000000)" style="stroke: black; stroke-width:0.25;"/>
<rect x="371.500000" y="25.000000" width="25.800000" height="24.000000" rx="0" ry="0" style="stroke:none;fill:#cccccc;"/>
<rect x="370.500000" y="24.000000" width="25.800000" height="24.000000" rx="0" ry="0" style="stroke:none;fill:#f44800;"/>
<text x="383.400000" y="38.000000" font-family="Arial" font-size="7" text-anchor="middle" fill="#FFFFFF">20000</text>
<circle cx="372.500000" cy="26.000000" r="1"/>
<rect x="413.300000" y="29.000000" width="24.000000" height="24.000000" rx="0" ry="0" style="stroke:none;fill:#cccccc;"/>
<rect x="412.300000" y="28.000000" width="24.000000" height="24.000000" rx="0" ry="0" style="stroke:none;fill:#4B71A1;"/>
<text x="424.300000" y="42.000000" font-family="Arial" font-size="7" text-anchor="middle" fill="#FFFFFF">min</text>
<circle cx="414.300000" cy="30.000000" r="1"/>
<line x1="409.300000" y1="35.000000" x2="412.300000" y2="36.000000"  transform="rotate(0.000000,412.300000,36.000000)" style="stroke: black; stroke-width:0.25;"/>
<line x1="409.300000" y1="37.000000" x2="412.300000" y2="36.000000"  transform="rotate(0.000000,412.300000,36.000000)" style="stroke: black; stroke-width:0.25;"/>
<line x1="409.300000" y1="43.000000" x2="412.300000" y2="44.000000"  transform="rotate(0.000000,412.300000,44.000000)" style="stroke: black; stroke-width:0.25;"/>
<line x1="409.300000" y1="45.000000" x2="412.300000" y2="44.000000"  transform="rotate(0.000000,412.300000,44.000000)" style="stroke: black; stroke-width:0.25;"/>
<rect x="453.300000" y="25.000000" width="24.000000" height="24.000000" rx="0" ry="0" style="stroke:none;fill:#cccccc;"/>
<rect x="452.300000" y="24.000000" width="24.000000" height="24.000000" rx="0" ry="0" style="stroke:none;fill:#f44800;"/>
<text x="464.300000" y="38.000000" font-family="Arial" font-size="7" text-anchor="middle" fill="#FFFFFF">10</text>
<circle cx="454.300000" cy="26.000000" r="1"/>
<rect x="493.300000" y="29.000000" width="24.000000" height="24.000000" rx="0" ry="0" style="stroke:none;fill:#cccccc;"/>
<rect x="492.300000" y="28.000000" width="24.000000" height="24.000000" rx="0" ry="0" style="stroke:none;fill:#4B71A1;"/>
<text x="504.300000" y="42.000000" font-family="Arial" font-size="7" text-anchor="middle" fill="#FFFFFF">max</text>
<circle cx="494.300000" cy="30.000000" r="1"/>
<line x1="489.300000" y1="35.000000" x2="492.300000" y2="36.000000"  transform="rotate(0.000000,492.300000,36.000000)" style="stroke: black; stroke-width:0.25;"/>
<line x1="489.300000" y1="37.000000" x2="492.300000" y2="36.000000"  transform="rotate(0.000000,492.300000,36.000000)" style="stroke: black; stroke-width:0.25;"/>
<line x1="489.300000" y1="43.000000" x2="492.300000" y2="44.000000"  transform="rotate(0.000000,492.300000,44.000000)" style="stroke: black; stroke-width:0.25;"/>
<line x1="489.300000" y1="45.000000" x2="492.300000" y2="44.000000"  transform="rotate(0.000000,492.300000,44.000000)" style="stroke: black; stroke-width:0.25;"/>
<line x1="15.000000" y1="15.000000" x2="15.000000" y2="65.000000"  style="stroke: black; stroke-linecap:round; stroke-width:0.25; stroke-dasharray:3,3;"/>
<line x1="15.000000" y1="65.000000" x2="533.300000" y2="65.000000"  style="stroke: black; stroke-linecap:round; stroke-width:0.25; stroke-dasharray:3,3;"/>
<line x1="533.300000" y1="65.000000" x2="533.300000" y2="15.000000"  style="stroke: black; stroke-linecap:round; stroke-width:0.25; stroke-dasharray:3,3;"/>
<line x1="15.000000" y1="15.000000" x2="20.000000" y2="15.000000"  style="stroke: black; stroke-linecap:round; stroke-width:0.25; stroke-dasharray:3,3;"/>
<line x1="32.900000" y1="15.000000" x2="533.300000" y2="15.000000"  style="stroke: black; stroke-linecap:round; stroke-width:0.25; stroke-dasharray:3,3;"/>
<text x="20.000000" y="17.000000" font-family="Arial" font-size="7">fc</text>
<line x1="535.300000" y1="39.000000" x2="538.300000" y2="40.000000"  transform="rotate(0.000000,538.300000,40.000000)" style="stroke: black; stroke-width:0.25;"/>
<line x1="535.300000" y1="41.000000" x2="538.300000" y2="40.000000"  transform="rotate(0.000000,538.300000,40.000000)" style="stroke: black; stroke-width:0.25;"/>
<line x1="282.000000" y1="40.000000" x2="286.000000" y2="40.000000"  style="stroke:black; stroke-linecap:round; stroke-width:0.25;"/>
<line x1="286.000000" y1="40.000000" x2="286.000000" y2="40.000000"  style="stroke:black; stroke-linecap:round; stroke-width:0.25;"/>
<line x1="286.000000" y1="40.000000" x2="290.000000" y2="40.000000"  style="stroke:black; stroke-linecap:round; stroke-width:0.25;"/>
<line x1="354.500000" y1="40.000000" x2="358.500000" y2="40.000000"  style="stroke:black; stroke-linecap:round; stroke-width:0.25;"/>
<line x1="358.500000" y1="40.000000" x2="366.500000" y2="40.000000"  style="stroke:black; stroke-linecap:round; stroke-width:0.25;"/>
<line x1="366.500000" y1="40.000000" x2="366.500000" y2="56.000000"  style="stroke:black; stroke-linecap:round; stroke-width:0.25;"/>
<line x1="366.500000" y1="56.000000" x2="366.500000" y2="56.000000"  style="stroke:black; stroke-linecap:round; stroke-width:0.25;"/>
<line x1="366.500000" y1="56.000000" x2="383.400000" y2="56.000000"  style="stroke:black; stroke-linecap:round; stroke-width:0.25;"/>
<line x1="383.400000" y1="56.000000" x2="400.300000" y2="56.000000"  style="stroke:black; stroke-linecap:round; stroke-width:0.25;"/>
<line x1="396.300000" y1="36.000000" x2="400.300000" y2="36.000000"  style="stroke:black; stroke-linecap:round; stroke-width:0.25;"/>
<line x1="400.300000" y1="44.000000" x2="408.300000" y2="44.000000"  style="stroke:black; stroke-linecap:round; stroke-width:0.25;"/>
<line x1="400.300000" y1="56.000000" x2="400.300000" y2="44.000000"  style="stroke:black; stroke-linecap:round; stroke-width:0.25;"/>
<line x1="400.300000" y1="56.000000" x2="400.300000" y2="56.000000"  style="stroke:black; stroke-linecap:round; stroke-width:0.25;"/>
<line x1="400.300000" y1="36.000000" x2="408.300000" y2="36.000000"  style="stroke:black; stroke-linecap:round; stroke-width:0.25;"/>
<line x1="408.300000" y1="36.000000" x2="412.300000" y2="36.000000"  style="stroke:black; stroke-linecap:round; stroke-width:0.25;"/>
<line x1="408.300000" y1="44.000000" x2="412.300000" y2="44.000000"  style="stroke:black; stroke-linecap:round; stroke-width:0.25;"/>
<line x1="436.300000" y1="40.000000" x2="440.300000" y2="40.000000"  style="stroke:black; stroke-linecap:round; stroke-width:0.25;"/>
<line x1="440.300000" y1="40.000000" x2="448.300000" y2="40.000000"  style="stroke:black; stroke-linecap:round; stroke-width:0.25;"/>
<line x1="448.300000" y1="40.000000" x2="448.300000" y2="56.000000"  style="stroke:black; stroke-linecap:round; stroke-width:0.25;"/>
<line x1="448.300000" y1="56.000000" x2="448.300000" y2="56.000000"  style="stroke:black; stroke-linecap:round; stroke-width:0.25;"/>
<line x1="448.300000" y1="56.000000" x2="464.300000" y2="56.000000"  style="stroke:black; stroke-linecap:round; stroke-width:0.25;"/>
<line x1="464.300000" y1="56.000000" x2="480.300000" y2="56.000000"  style="stroke:black; stroke-linecap:round; stroke-width:0.25;"/>
<line x1="476.300000" y1="36.000000" x2="480.300000" y2="36.000000"  style="stroke:black; stroke-linecap:round; stroke-width:0.25;"/>
<line x1="480.300000" y1="36.000000" x2="488.300000" y2="36.000000"  style="stroke:black; stroke-linecap:round; stroke-width:0.25;"/>
<line x1="480.300000" y1="44.000000" x2="488.300000" y2="44.000000"  style="stroke:black; stroke-linecap:round; stroke-width:0.25;"/>
<line x1="480.300000" y1="56.000000" x2="480.300000" y2="44.000000"  style="stroke:black; stroke-linecap:round; stroke-width:0.25;"/>
<line x1="480.300000" y1="56.000000" x2="480.300000" y2="56.000000"  style="stroke:black; stroke-linecap:round; stroke-width:0.25;"/>
<line x1="488.300000" y1="36.000000" x2="492.300000" y2="36.000000"  style="stroke:black; stroke-linecap:round; stroke-width:0.25;"/>
<line x1="488.300000" y1="44.000000" x2="492.300000" y2="44.000000"  style="stroke:black; stroke-linecap:round; stroke-width:0.25;"/>
<line x1="516.300000" y1="40.000000" x2="520.300000" y2="40.000000"  style="stroke:black; stroke-linecap:round; stroke-width:0.25;"/>
<line x1="520.300000" y1="40.000000" x2="520.300000" y2="40.000000"  style="stroke:black; stroke-linecap:round; stroke-width:0.25;"/>
<line x1="520.300000" y1="40.000000" x2="524.300000" y2="40.000000"  style="stroke:black; stroke-linecap:round; stroke-width:0.25;"/>
<line x1="524.300000" y1="40.000000" x2="528.300000" y2="40.000000"  style="stroke:black; stroke-linecap:round; stroke-width:0.25;"/>
<line x1="528.300000" y1="40.000000" x2="538.300000" y2="40.000000"  style="stroke:black; stroke-linecap:round; stroke-width:0.25;"/>
</svg>
