<?xml version="1.0"?>
<svg xmlns="http://www.w3.org/2000/svg" xmlns:xlink="http://www.w3.org/1999/xlink" viewBox="0 0 225.800000 168.000000" width="112.900000mm" height="84.000000mm" version="1.1">
<a xlink:href="delay1-0x7fd12cf3c9b0.svg">
<rect x="1.000000" y="1.000000" width="224.800000" height="167.000000" rx="0" ry="0" style="stroke:none;fill:#cccccc;"/>
<rect x="0.000000" y="0.000000" width="224.800000" height="167.000000" rx="0" ry="0" style="stroke:none;fill:#ffffff;"/>
</a>
<text x="10.000000" y="7.000000" font-family="Arial" font-size="7"></text>
<rect x="77.900000" y="25.000000" width="24.000000" height="24.000000" rx="0" ry="0" style="stroke:none;fill:#cccccc;"/>
<rect x="76.900000" y="24.000000" width="24.000000" height="24.000000" rx="0" ry="0" style="stroke:none;fill:#47945E;"/>
<text x="88.900000" y="38.000000" font-family="Arial" font-size="7" text-anchor="middle" fill="#FFFFFF">x</text>
<circle cx="78.900000" cy="26.000000" r="1"/>
<a xlink:href="fdel1-0x7fd12c8e4540.svg">
<rect x="25.000000" y="57.000000" width="25.800000" height="24.000000" rx="0" ry="0" style="stroke:none;fill:#cccccc;"/>
<rect x="24.000000" y="56.000000" width="25.800000" height="24.000000" rx="0" ry="0" style="stroke:none;fill:#003366;"/>
</a>
<a xlink:href="fdel1-0x7fd12c8e4540.svg">
<text x="36.900000" y="70.000000" font-family="Arial" font-size="7" text-anchor="middle" fill="#FFFFFF">fdel1</text>
</a>
<circle cx="26.000000" cy="58.000000" r="1"/>
<rect x="58.800000" y="57.000000" width="24.000000" height="24.000000" rx="0" ry="0" style="stroke:none;fill:#cccccc;"/>
<rect x="57.800000" y="56.000000" width="24.000000" height="24.000000" rx="0" ry="0" style="stroke:none;fill:#4B71A1;"/>
<text x="69.800000" y="70.000000" font-family="Arial" font-size="7" text-anchor="middle" fill="#FFFFFF">int</text>
<circle cx="59.800000" cy="58.000000" r="1"/>
<line x1="54.800000" y1="67.000000" x2="57.800000" y2="68.000000"  transform="rotate(0.000000,57.800000,68.000000)" style="stroke: black; stroke-width:0.25;"/>
<line x1="54.800000" y1="69.000000" x2="57.800000" y2="68.000000"  transform="rotate(0.000000,57.800000,68.000000)" style="stroke: black; stroke-width:0.25;"/>
<rect x="90.800000" y="57.000000" width="24.000000" height="24.000000" rx="0" ry="0" style="stroke:none;fill:#cccccc;"/>
<rect x="89.800000" y="56.000000" width="24.000000" height="24.000000" rx="0" ry="0" style="stroke:none;fill:#4B71A1;"/>
<text x="101.800000" y="70.000000" font-family="Arial" font-size="7" text-anchor="middle" fill="#FFFFFF">int</text>
<circle cx="91.800000" cy="58.000000" r="1"/>
<line x1="86.800000" y1="67.000000" x2="89.800000" y2="68.000000"  transform="rotate(0.000000,89.800000,68.000000)" style="stroke: black; stroke-width:0.25;"/>
<line x1="86.800000" y1="69.000000" x2="89.800000" y2="68.000000"  transform="rotate(0.000000,89.800000,68.000000)" style="stroke: black; stroke-width:0.25;"/>
<rect x="37.000000" y="89.000000" width="25.800000" height="24.000000" rx="0" ry="0" style="stroke:none;fill:#cccccc;"/>
<rect x="36.000000" y="88.000000" width="25.800000" height="24.000000" rx="0" ry="0" style="stroke:none;fill:#f44800;"/>
<text x="48.900000" y="102.000000" font-family="Arial" font-size="7" text-anchor="middle" fill="#FFFFFF">4096</text>
<circle cx="38.000000" cy="90.000000" r="1"/>
<rect x="37.900000" y="121.000000" width="24.000000" height="24.000000" rx="0" ry="0" style="stroke:none;fill:#cccccc;"/>
<rect x="36.900000" y="120.000000" width="24.000000" height="24.000000" rx="0" ry="0" style="stroke:none;fill:#f44800;"/>
<text x="48.900000" y="134.000000" font-family="Arial" font-size="7" text-anchor="middle" fill="#FFFFFF">1</text>
<circle cx="38.900000" cy="122.000000" r="1"/>
<rect x="78.800000" y="105.000000" width="24.000000" height="24.000000" rx="0" ry="0" style="stroke:none;fill:#cccccc;"/>
<rect x="77.800000" y="104.000000" width="24.000000" height="24.000000" rx="0" ry="0" style="stroke:none;fill:#4B71A1;"/>
<text x="89.800000" y="118.000000" font-family="Arial" font-size="7" text-anchor="middle" fill="#FFFFFF">-</text>
<circle cx="79.800000" cy="106.000000" r="1"/>
<line x1="74.800000" y1="111.000000" x2="77.800000" y2="112.000000"  transform="rotate(0.000000,77.800000,112.000000)" style="stroke: black; stroke-width:0.25;"/>
<line x1="74.800000" y1="113.000000" x2="77.800000" y2="112.000000"  transform="rotate(0.000000,77.800000,112.000000)" style="stroke: black; stroke-width:0.25;"/>
<line x1="74.800000" y1="119.000000" x2="77.800000" y2="120.000000"  transform="rotate(0.000000,77.800000,120.000000)" style="stroke: black; stroke-width:0.25;"/>
<line x1="74.800000" y1="121.000000" x2="77.800000" y2="120.000000"  transform="rotate(0.000000,77.800000,120.000000)" style="stroke: black; stroke-width:0.25;"/>
<rect x="130.800000" y="89.000000" width="24.000000" height="24.000000" rx="0" ry="0" style="stroke:none;fill:#cccccc;"/>
<rect x="129.800000" y="88.000000" width="24.000000" height="24.000000" rx="0" ry="0" style="stroke:none;fill:#4B71A1;"/>
<text x="141.800000" y="102.000000" font-family="Arial" font-size="7" text-anchor="middle" fill="#FFFFFF">&amp;</text>
<circle cx="131.800000" cy="90.000000" r="1"/>
<line x1="126.800000" y1="95.000000" x2="129.800000" y2="96.000000"  transform="rotate(0.000000,129.800000,96.000000)" style="stroke: black; stroke-width:0.25;"/>
<line x1="126.800000" y1="97.000000" x2="129.800000" y2="96.000000"  transform="rotate(0.000000,129.800000,96.000000)" style="stroke: black; stroke-width:0.25;"/>
<line x1="126.800000" y1="103.000000" x2="129.800000" y2="104.000000"  transform="rotate(0.000000,129.800000,104.000000)" style="stroke: black; stroke-width:0.25;"/>
<line x1="126.800000" y1="105.000000" x2="129.800000" y2="104.000000"  transform="rotate(0.000000,129.800000,104.000000)" style="stroke: black; stroke-width:0.25;"/>
<rect x="170.800000" y="73.000000" width="24.000000" height="24.000000" rx="0" ry="0" style="stroke:none;fill:#cccccc;"/>
<rect x="169.800000" y="72.000000" width="24.000000" height="24.000000" rx="0" ry="0" style="stroke:none;fill:#4B71A1;"/>
<text x="181.800000" y="86.000000" font-family="Arial" font-size="7" text-anchor="middle" fill="#FFFFFF">@</text>
<circle cx="171.800000" cy="74.000000" r="1"/>
<line x1="166.800000" y1="79.000000" x2="169.800000" y2="80.000000"  transform="rotate(0.000000,169.800000,80.000000)" style="stroke: black; stroke-width:0.25;"/>
<line x1="166.800000" y1="81.000000" x2="169.800000" y2="80.000000"  transform="rotate(0.000000,169.800000,80.000000)" style="stroke: black; stroke-width:0.25;"/>
<line x1="166.800000" y1="87.000000" x2="169.800000" y2="88.000000"  transform="rotate(0.000000,169.800000,88.000000)" style="stroke: black; stroke-width:0.25;"/>
<line x1="166.800000" y1="89.000000" x2="169.800000" y2="88.000000"  transform="rotate(0.000000,169.800000,88.000000)" style="stroke: black; stroke-width:0.25;"/>
<line x1="15.000000" y1="15.000000" x2="15.000000" y2="153.000000"  style="stroke: black; stroke-linecap:round; stroke-width:0.25; stroke-dasharray:3,3;"/>
<line x1="15.000000" y1="153.000000" x2="210.800000" y2="153.000000"  style="stroke: black; stroke-linecap:round; stroke-width:0.25; stroke-dasharray:3,3;"/>
<line x1="210.800000" y1="153.000000" x2="210.800000" y2="15.000000"  style="stroke: black; stroke-linecap:round; stroke-width:0.25; stroke-dasharray:3,3;"/>
<line x1="15.000000" y1="15.000000" x2="20.000000" y2="15.000000"  style="stroke: black; stroke-linecap:round; stroke-width:0.25; stroke-dasharray:3,3;"/>
<line x1="136.100000" y1="15.000000" x2="210.800000" y2="15.000000"  style="stroke: black; stroke-linecap:round; stroke-width:0.25; stroke-dasharray:3,3;"/>
<text x="20.000000" y="17.000000" font-family="Arial" font-size="7">delay(4096)((...-) : * : int)(x19)</text>
<line x1="212.800000" y1="83.000000" x2="215.800000" y2="84.000000"  transform="rotate(0.000000,215.800000,84.000000)" style="stroke: black; stroke-width:0.25;"/>
<line x1="212.800000" y1="85.000000" x2="215.800000" y2="84.000000"  transform="rotate(0.000000,215.800000,84.000000)" style="stroke: black; stroke-width:0.25;"/>
<line x1="49.800000" y1="68.000000" x2="53.800000" y2="68.000000"  style="stroke:black; stroke-linecap:round; stroke-width:0.25;"/>
<line x1="53.800000" y1="68.000000" x2="53.800000" y2="68.000000"  style="stroke:black; stroke-linecap:round; stroke-width:0.25;"/>
<line x1="53.800000" y1="68.000000" x2="57.800000" y2="68.000000"  style="stroke:black; stroke-linecap:round; stroke-width:0.25;"/>
<line x1="60.900000" y1="132.000000" x2="64.900000" y2="132.000000"  style="stroke:black; stroke-linecap:round; stroke-width:0.25;"/>
<line x1="61.800000" y1="100.000000" x2="65.800000" y2="100.000000"  style="stroke:black; stroke-linecap:round; stroke-width:0.25;"/>
<line x1="64.900000" y1="132.000000" x2="65.800000" y2="132.000000"  style="stroke:black; stroke-linecap:round; stroke-width:0.25;"/>
<line x1="65.800000" y1="100.000000" x2="73.800000" y2="100.000000"  style="stroke:black; stroke-linecap:round; stroke-width:0.25;"/>
<line x1="65.800000" y1="120.000000" x2="73.800000" y2="120.000000"  style="stroke:black; stroke-linecap:round; stroke-width:0.25;"/>
<line x1="65.800000" y1="132.000000" x2="65.800000" y2="120.000000"  style="stroke:black; stroke-linecap:round; stroke-width:0.25;"/>
<line x1="65.800000" y1="132.000000" x2="65.800000" y2="132.000000"  style="stroke:black; stroke-linecap:round; stroke-width:0.25;"/>
<line x1="73.800000" y1="100.000000" x2="73.800000" y2="112.000000"  style="stroke:black; stroke-linecap:round; stroke-width:0.25;"/>
<line x1="73.800000" y1="112.000000" x2="73.800000" y2="112.000000"  style="stroke:black; stroke-linecap:round; stroke-width:0.25;"/>
<line x1="73.800000" y1="112.000000" x2="77.800000" y2="112.000000"  style="stroke:black; stroke-linecap:round; stroke-width:0.25;"/>
<line x1="73.800000" y1="120.000000" x2="77.800000" y2="120.000000"  style="stroke:black; stroke-linecap:round; stroke-width:0.25;"/>
<line x1="81.800000" y1="68.000000" x2="85.800000" y2="68.000000"  style="stroke:black; stroke-linecap:round; stroke-width:0.25;"/>
<line x1="85.800000" y1="68.000000" x2="85.800000" y2="68.000000"  style="stroke:black; stroke-linecap:round; stroke-width:0.25;"/>
<line x1="85.800000" y1="68.000000" x2="89.800000" y2="68.000000"  style="stroke:black; stroke-linecap:round; stroke-width:0.25;"/>
<line x1="100.900000" y1="36.000000" x2="104.900000" y2="36.000000"  style="stroke:black; stroke-linecap:round; stroke-width:0.25;"/>
<line x1="101.800000" y1="116.000000" x2="105.800000" y2="116.000000"  style="stroke:black; stroke-linecap:round; stroke-width:0.25;"/>
<line x1="104.900000" y1="36.000000" x2="157.800000" y2="36.000000"  style="stroke:black; stroke-linecap:round; stroke-width:0.25;"/>
<line x1="105.800000" y1="116.000000" x2="117.800000" y2="116.000000"  style="stroke:black; stroke-linecap:round; stroke-width:0.25;"/>
<line x1="113.800000" y1="68.000000" x2="117.800000" y2="68.000000"  style="stroke:black; stroke-linecap:round; stroke-width:0.25;"/>
<line x1="117.800000" y1="68.000000" x2="125.800000" y2="68.000000"  style="stroke:black; stroke-linecap:round; stroke-width:0.25;"/>
<line x1="117.800000" y1="104.000000" x2="125.800000" y2="104.000000"  style="stroke:black; stroke-linecap:round; stroke-width:0.25;"/>
<line x1="117.800000" y1="116.000000" x2="117.800000" y2="104.000000"  style="stroke:black; stroke-linecap:round; stroke-width:0.25;"/>
<line x1="117.800000" y1="116.000000" x2="117.800000" y2="116.000000"  style="stroke:black; stroke-linecap:round; stroke-width:0.25;"/>
<line x1="125.800000" y1="68.000000" x2="125.800000" y2="96.000000"  style="stroke:black; stroke-linecap:round; stroke-width:0.25;"/>
<line x1="125.800000" y1="96.000000" x2="125.800000" y2="96.000000"  style="stroke:black; stroke-linecap:round; stroke-width:0.25;"/>
<line x1="125.800000" y1="96.000000" x2="129.800000" y2="96.000000"  style="stroke:black; stroke-linecap:round; stroke-width:0.25;"/>
<line x1="125.800000" y1="104.000000" x2="129.800000" y2="104.000000"  style="stroke:black; stroke-linecap:round; stroke-width:0.25;"/>
<line x1="153.800000" y1="100.000000" x2="157.800000" y2="100.000000"  style="stroke:black; stroke-linecap:round; stroke-width:0.25;"/>
<line x1="157.800000" y1="36.000000" x2="165.800000" y2="36.000000"  style="stroke:black; stroke-linecap:round; stroke-width:0.25;"/>
<line x1="157.800000" y1="88.000000" x2="165.800000" y2="88.000000"  style="stroke:black; stroke-linecap:round; stroke-width:0.25;"/>
<line x1="157.800000" y1="100.000000" x2="157.800000" y2="88.000000"  style="stroke:black; stroke-linecap:round; stroke-width:0.25;"/>
<line x1="157.800000" y1="100.000000" x2="157.800000" y2="100.000000"  style="stroke:black; stroke-linecap:round; stroke-width:0.25;"/>
<line x1="165.800000" y1="36.000000" x2="165.800000" y2="80.000000"  style="stroke:black; stroke-linecap:round; stroke-width:0.25;"/>
<line x1="165.800000" y1="80.000000" x2="165.800000" y2="80.000000"  style="stroke:black; stroke-linecap:round; stroke-width:0.25;"/>
<line x1="165.800000" y1="80.000000" x2="169.800000" y2="80.000000"  style="stroke:black; stroke-linecap:round; stroke-width:0.25;"/>
<line x1="165.800000" y1="88.000000" x2="169.800000" y2="88.000000"  style="stroke:black; stroke-linecap:round; stroke-width:0.25;"/>
<line x1="193.800000" y1="84.000000" x2="197.800000" y2="84.000000"  style="stroke:black; stroke-linecap:round; stroke-width:0.25;"/>
<line x1="197.800000" y1="84.000000" x2="197.800000" y2="84.000000"  style="stroke:black; stroke-linecap:round; stroke-width:0.25;"/>
<line x1="197.800000" y1="84.000000" x2="201.800000" y2="84.000000"  style="stroke:black; stroke-linecap:round; stroke-width:0.25;"/>
<line x1="201.800000" y1="84.000000" x2="205.800000" y2="84.000000"  style="stroke:black; stroke-linecap:round; stroke-width:0.25;"/>
<line x1="205.800000" y1="84.000000" x2="215.800000" y2="84.000000"  style="stroke:black; stroke-linecap:round; stroke-width:0.25;"/>
</svg>
