<?xml version="1.0"?>
<svg xmlns="http://www.w3.org/2000/svg" xmlns:xlink="http://www.w3.org/1999/xlink" viewBox="0 0 520.700000 80.000000" width="260.350000mm" height="40.000000mm" version="1.1">
<a xlink:href="freqOscMod-0x7fd12c8f5ce0.svg">
<rect x="1.000000" y="1.000000" width="519.700000" height="79.000000" rx="0" ry="0" style="stroke:none;fill:#cccccc;"/>
<rect x="0.000000" y="0.000000" width="519.700000" height="79.000000" rx="0" ry="0" style="stroke:none;fill:#ffffff;"/>
</a>
<text x="10.000000" y="7.000000" font-family="Arial" font-size="7"></text>
<rect x="25.000000" y="29.000000" width="232.200000" height="24.000000" rx="0" ry="0" style="stroke:none;fill:#cccccc;"/>
<rect x="24.000000" y="28.000000" width="232.200000" height="24.000000" rx="0" ry="0" style="stroke:none;fill:#477881;"/>
<text x="140.100000" y="42.000000" font-family="Arial" font-size="7" text-anchor="middle" fill="#FFFFFF">hslider(Frequency, 1.1e+02f, 8e+01f, 8.8e+02f, 1.0f)</text>
<circle cx="26.000000" cy="30.000000" r="1"/>
<a xlink:href="smooth-0x7fd12c8e33f0.svg">
<rect x="265.200000" y="29.000000" width="64.500000" height="24.000000" rx="0" ry="0" style="stroke:none;fill:#cccccc;"/>
<rect x="264.200000" y="28.000000" width="64.500000" height="24.000000" rx="0" ry="0" style="stroke:none;fill:#003366;"/>
</a>
<a xlink:href="smooth-0x7fd12c8e33f0.svg">
<text x="296.450000" y="42.000000" font-family="Arial" font-size="7" text-anchor="middle" fill="#FFFFFF">smooth(0.9999f)</text>
</a>
<circle cx="266.200000" cy="30.000000" r="1"/>
<line x1="261.200000" y1="39.000000" x2="264.200000" y2="40.000000"  transform="rotate(0.000000,264.200000,40.000000)" style="stroke: black; stroke-width:0.25;"/>
<line x1="261.200000" y1="41.000000" x2="264.200000" y2="40.000000"  transform="rotate(0.000000,264.200000,40.000000)" style="stroke: black; stroke-width:0.25;"/>
<rect x="345.700000" y="25.000000" width="24.000000" height="24.000000" rx="0" ry="0" style="stroke:none;fill:#cccccc;"/>
<rect x="344.700000" y="24.000000" width="24.000000" height="24.000000" rx="0" ry="0" style="stroke:none;fill:#f44800;"/>
<text x="356.700000" y="38.000000" font-family="Arial" font-size="7" text-anchor="middle" fill="#FFFFFF">880</text>
<circle cx="346.700000" cy="26.000000" r="1"/>
<rect x="385.700000" y="29.000000" width="24.000000" height="24.000000" rx="0" ry="0" style="stroke:none;fill:#cccccc;"/>
<rect x="384.700000" y="28.000000" width="24.000000" height="24.000000" rx="0" ry="0" style="stroke:none;fill:#4B71A1;"/>
<text x="396.700000" y="42.000000" font-family="Arial" font-size="7" text-anchor="middle" fill="#FFFFFF">min</text>
<circle cx="386.700000" cy="30.000000" r="1"/>
<line x1="381.700000" y1="35.000000" x2="384.700000" y2="36.000000"  transform="rotate(0.000000,384.700000,36.000000)" style="stroke: black; stroke-width:0.25;"/>
<line x1="381.700000" y1="37.000000" x2="384.700000" y2="36.000000"  transform="rotate(0.000000,384.700000,36.000000)" style="stroke: black; stroke-width:0.25;"/>
<line x1="381.700000" y1="43.000000" x2="384.700000" y2="44.000000"  transform="rotate(0.000000,384.700000,44.000000)" style="stroke: black; stroke-width:0.25;"/>
<line x1="381.700000" y1="45.000000" x2="384.700000" y2="44.000000"  transform="rotate(0.000000,384.700000,44.000000)" style="stroke: black; stroke-width:0.25;"/>
<rect x="425.700000" y="25.000000" width="24.000000" height="24.000000" rx="0" ry="0" style="stroke:none;fill:#cccccc;"/>
<rect x="424.700000" y="24.000000" width="24.000000" height="24.000000" rx="0" ry="0" style="stroke:none;fill:#f44800;"/>
<text x="436.700000" y="38.000000" font-family="Arial" font-size="7" text-anchor="middle" fill="#FFFFFF">80</text>
<circle cx="426.700000" cy="26.000000" r="1"/>
<rect x="465.700000" y="29.000000" width="24.000000" height="24.000000" rx="0" ry="0" style="stroke:none;fill:#cccccc;"/>
<rect x="464.700000" y="28.000000" width="24.000000" height="24.000000" rx="0" ry="0" style="stroke:none;fill:#4B71A1;"/>
<text x="476.700000" y="42.000000" font-family="Arial" font-size="7" text-anchor="middle" fill="#FFFFFF">max</text>
<circle cx="466.700000" cy="30.000000" r="1"/>
<line x1="461.700000" y1="35.000000" x2="464.700000" y2="36.000000"  transform="rotate(0.000000,464.700000,36.000000)" style="stroke: black; stroke-width:0.25;"/>
<line x1="461.700000" y1="37.000000" x2="464.700000" y2="36.000000"  transform="rotate(0.000000,464.700000,36.000000)" style="stroke: black; stroke-width:0.25;"/>
<line x1="461.700000" y1="43.000000" x2="464.700000" y2="44.000000"  transform="rotate(0.000000,464.700000,44.000000)" style="stroke: black; stroke-width:0.25;"/>
<line x1="461.700000" y1="45.000000" x2="464.700000" y2="44.000000"  transform="rotate(0.000000,464.700000,44.000000)" style="stroke: black; stroke-width:0.25;"/>
<line x1="15.000000" y1="15.000000" x2="15.000000" y2="65.000000"  style="stroke: black; stroke-linecap:round; stroke-width:0.25; stroke-dasharray:3,3;"/>
<line x1="15.000000" y1="65.000000" x2="505.700000" y2="65.000000"  style="stroke: black; stroke-linecap:round; stroke-width:0.25; stroke-dasharray:3,3;"/>
<line x1="505.700000" y1="65.000000" x2="505.700000" y2="15.000000"  style="stroke: black; stroke-linecap:round; stroke-width:0.25; stroke-dasharray:3,3;"/>
<line x1="15.000000" y1="15.000000" x2="20.000000" y2="15.000000"  style="stroke: black; stroke-linecap:round; stroke-width:0.25; stroke-dasharray:3,3;"/>
<line x1="39.350000" y1="15.000000" x2="505.700000" y2="15.000000"  style="stroke: black; stroke-linecap:round; stroke-width:0.25; stroke-dasharray:3,3;"/>
<text x="20.000000" y="17.000000" font-family="Arial" font-size="7">freq</text>
<line x1="507.700000" y1="39.000000" x2="510.700000" y2="40.000000"  transform="rotate(0.000000,510.700000,40.000000)" style="stroke: black; stroke-width:0.25;"/>
<line x1="507.700000" y1="41.000000" x2="510.700000" y2="40.000000"  transform="rotate(0.000000,510.700000,40.000000)" style="stroke: black; stroke-width:0.25;"/>
<line x1="256.200000" y1="40.000000" x2="260.200000" y2="40.000000"  style="stroke:black; stroke-linecap:round; stroke-width:0.25;"/>
<line x1="260.200000" y1="40.000000" x2="260.200000" y2="40.000000"  style="stroke:black; stroke-linecap:round; stroke-width:0.25;"/>
<line x1="260.200000" y1="40.000000" x2="264.200000" y2="40.000000"  style="stroke:black; stroke-linecap:round; stroke-width:0.25;"/>
<line x1="328.700000" y1="40.000000" x2="332.700000" y2="40.000000"  style="stroke:black; stroke-linecap:round; stroke-width:0.25;"/>
<line x1="332.700000" y1="40.000000" x2="340.700000" y2="40.000000"  style="stroke:black; stroke-linecap:round; stroke-width:0.25;"/>
<line x1="340.700000" y1="40.000000" x2="340.700000" y2="56.000000"  style="stroke:black; stroke-linecap:round; stroke-width:0.25;"/>
<line x1="340.700000" y1="56.000000" x2="340.700000" y2="56.000000"  style="stroke:black; stroke-linecap:round; stroke-width:0.25;"/>
<line x1="340.700000" y1="56.000000" x2="356.700000" y2="56.000000"  style="stroke:black; stroke-linecap:round; stroke-width:0.25;"/>
<line x1="356.700000" y1="56.000000" x2="372.700000" y2="56.000000"  style="stroke:black; stroke-linecap:round; stroke-width:0.25;"/>
<line x1="368.700000" y1="36.000000" x2="372.700000" y2="36.000000"  style="stroke:black; stroke-linecap:round; stroke-width:0.25;"/>
<line x1="372.700000" y1="36.000000" x2="380.700000" y2="36.000000"  style="stroke:black; stroke-linecap:round; stroke-width:0.25;"/>
<line x1="372.700000" y1="44.000000" x2="380.700000" y2="44.000000"  style="stroke:black; stroke-linecap:round; stroke-width:0.25;"/>
<line x1="372.700000" y1="56.000000" x2="372.700000" y2="44.000000"  style="stroke:black; stroke-linecap:round; stroke-width:0.25;"/>
<line x1="372.700000" y1="56.000000" x2="372.700000" y2="56.000000"  style="stroke:black; stroke-linecap:round; stroke-width:0.25;"/>
<line x1="380.700000" y1="36.000000" x2="384.700000" y2="36.000000"  style="stroke:black; stroke-linecap:round; stroke-width:0.25;"/>
<line x1="380.700000" y1="44.000000" x2="384.700000" y2="44.000000"  style="stroke:black; stroke-linecap:round; stroke-width:0.25;"/>
<line x1="408.700000" y1="40.000000" x2="412.700000" y2="40.000000"  style="stroke:black; stroke-linecap:round; stroke-width:0.25;"/>
<line x1="412.700000" y1="40.000000" x2="420.700000" y2="40.000000"  style="stroke:black; stroke-linecap:round; stroke-width:0.25;"/>
<line x1="420.700000" y1="40.000000" x2="420.700000" y2="56.000000"  style="stroke:black; stroke-linecap:round; stroke-width:0.25;"/>
<line x1="420.700000" y1="56.000000" x2="420.700000" y2="56.000000"  style="stroke:black; stroke-linecap:round; stroke-width:0.25;"/>
<line x1="420.700000" y1="56.000000" x2="436.700000" y2="56.000000"  style="stroke:black; stroke-linecap:round; stroke-width:0.25;"/>
<line x1="436.700000" y1="56.000000" x2="452.700000" y2="56.000000"  style="stroke:black; stroke-linecap:round; stroke-width:0.25;"/>
<line x1="448.700000" y1="36.000000" x2="452.700000" y2="36.000000"  style="stroke:black; stroke-linecap:round; stroke-width:0.25;"/>
<line x1="452.700000" y1="36.000000" x2="460.700000" y2="36.000000"  style="stroke:black; stroke-linecap:round; stroke-width:0.25;"/>
<line x1="452.700000" y1="44.000000" x2="460.700000" y2="44.000000"  style="stroke:black; stroke-linecap:round; stroke-width:0.25;"/>
<line x1="452.700000" y1="56.000000" x2="452.700000" y2="44.000000"  style="stroke:black; stroke-linecap:round; stroke-width:0.25;"/>
<line x1="452.700000" y1="56.000000" x2="452.700000" y2="56.000000"  style="stroke:black; stroke-linecap:round; stroke-width:0.25;"/>
<line x1="460.700000" y1="36.000000" x2="464.700000" y2="36.000000"  style="stroke:black; stroke-linecap:round; stroke-width:0.25;"/>
<line x1="460.700000" y1="44.000000" x2="464.700000" y2="44.000000"  style="stroke:black; stroke-linecap:round; stroke-width:0.25;"/>
<line x1="488.700000" y1="40.000000" x2="492.700000" y2="40.000000"  style="stroke:black; stroke-linecap:round; stroke-width:0.25;"/>
<line x1="492.700000" y1="40.000000" x2="492.700000" y2="40.000000"  style="stroke:black; stroke-linecap:round; stroke-width:0.25;"/>
<line x1="492.700000" y1="40.000000" x2="496.700000" y2="40.000000"  style="stroke:black; stroke-linecap:round; stroke-width:0.25;"/>
<line x1="496.700000" y1="40.000000" x2="500.700000" y2="40.000000"  style="stroke:black; stroke-linecap:round; stroke-width:0.25;"/>
<line x1="500.700000" y1="40.000000" x2="510.700000" y2="40.000000"  style="stroke:black; stroke-linecap:round; stroke-width:0.25;"/>
</svg>
