<?xml version="1.0"?>
<svg xmlns="http://www.w3.org/2000/svg" xmlns:xlink="http://www.w3.org/1999/xlink" viewBox="0 0 327.200000 152.000000" width="163.600000mm" height="76.000000mm" version="1.1">
<a xlink:href="gate-0x7fd12b632ee0.svg">
<rect x="1.000000" y="1.000000" width="326.200000" height="151.000000" rx="0" ry="0" style="stroke:none;fill:#cccccc;"/>
<rect x="0.000000" y="0.000000" width="326.200000" height="151.000000" rx="0" ry="0" style="stroke:none;fill:#ffffff;"/>
</a>
<text x="10.000000" y="7.000000" font-family="Arial" font-size="7"></text>
<a xlink:href="speed-0x7fd12b604c40.svg">
<rect x="45.900000" y="73.000000" width="25.800000" height="24.000000" rx="0" ry="0" style="stroke:none;fill:#cccccc;"/>
<rect x="44.900000" y="72.000000" width="25.800000" height="24.000000" rx="0" ry="0" style="stroke:none;fill:#003366;"/>
</a>
<a xlink:href="speed-0x7fd12b604c40.svg">
<text x="57.800000" y="86.000000" font-family="Arial" font-size="7" text-anchor="middle" fill="#FFFFFF">speed</text>
</a>
<circle cx="46.900000" cy="74.000000" r="1"/>
<rect x="79.700000" y="73.000000" width="25.800000" height="24.000000" rx="0" ry="0" style="stroke:none;fill:#cccccc;"/>
<rect x="78.700000" y="72.000000" width="25.800000" height="24.000000" rx="0" ry="0" style="stroke:none;fill:#4B71A1;"/>
<text x="91.600000" y="86.000000" font-family="Arial" font-size="7" text-anchor="middle" fill="#FFFFFF">float</text>
<circle cx="80.700000" cy="74.000000" r="1"/>
<line x1="75.700000" y1="83.000000" x2="78.700000" y2="84.000000"  transform="rotate(0.000000,78.700000,84.000000)" style="stroke: black; stroke-width:0.25;"/>
<line x1="75.700000" y1="85.000000" x2="78.700000" y2="84.000000"  transform="rotate(0.000000,78.700000,84.000000)" style="stroke: black; stroke-width:0.25;"/>
<a xlink:href="samplingfreq-0x7fd12b7a16f0.svg">
<rect x="33.000000" y="105.000000" width="51.600000" height="24.000000" rx="0" ry="0" style="stroke:none;fill:#cccccc;"/>
<rect x="32.000000" y="104.000000" width="51.600000" height="24.000000" rx="0" ry="0" style="stroke:none;fill:#003366;"/>
</a>
<a xlink:href="samplingfreq-0x7fd12b7a16f0.svg">
<text x="57.800000" y="118.000000" font-family="Arial" font-size="7" text-anchor="middle" fill="#FFFFFF">samplingfreq</text>
</a>
<circle cx="34.000000" cy="106.000000" r="1"/>
<rect x="92.600000" y="105.000000" width="25.800000" height="24.000000" rx="0" ry="0" style="stroke:none;fill:#cccccc;"/>
<rect x="91.600000" y="104.000000" width="25.800000" height="24.000000" rx="0" ry="0" style="stroke:none;fill:#4B71A1;"/>
<text x="104.500000" y="118.000000" font-family="Arial" font-size="7" text-anchor="middle" fill="#FFFFFF">float</text>
<circle cx="93.600000" cy="106.000000" r="1"/>
<line x1="88.600000" y1="115.000000" x2="91.600000" y2="116.000000"  transform="rotate(0.000000,91.600000,116.000000)" style="stroke: black; stroke-width:0.25;"/>
<line x1="88.600000" y1="117.000000" x2="91.600000" y2="116.000000"  transform="rotate(0.000000,91.600000,116.000000)" style="stroke: black; stroke-width:0.25;"/>
<rect x="134.400000" y="89.000000" width="24.000000" height="24.000000" rx="0" ry="0" style="stroke:none;fill:#cccccc;"/>
<rect x="133.400000" y="88.000000" width="24.000000" height="24.000000" rx="0" ry="0" style="stroke:none;fill:#4B71A1;"/>
<text x="145.400000" y="102.000000" font-family="Arial" font-size="7" text-anchor="middle" fill="#FFFFFF">/</text>
<circle cx="135.400000" cy="90.000000" r="1"/>
<line x1="130.400000" y1="95.000000" x2="133.400000" y2="96.000000"  transform="rotate(0.000000,133.400000,96.000000)" style="stroke: black; stroke-width:0.25;"/>
<line x1="130.400000" y1="97.000000" x2="133.400000" y2="96.000000"  transform="rotate(0.000000,133.400000,96.000000)" style="stroke: black; stroke-width:0.25;"/>
<line x1="130.400000" y1="103.000000" x2="133.400000" y2="104.000000"  transform="rotate(0.000000,133.400000,104.000000)" style="stroke: black; stroke-width:0.25;"/>
<line x1="130.400000" y1="105.000000" x2="133.400000" y2="104.000000"  transform="rotate(0.000000,133.400000,104.000000)" style="stroke: black; stroke-width:0.25;"/>
<rect x="174.400000" y="85.000000" width="24.000000" height="24.000000" rx="0" ry="0" style="stroke:none;fill:#cccccc;"/>
<rect x="173.400000" y="84.000000" width="24.000000" height="24.000000" rx="0" ry="0" style="stroke:none;fill:#4B71A1;"/>
<text x="185.400000" y="98.000000" font-family="Arial" font-size="7" text-anchor="middle" fill="#FFFFFF">+</text>
<circle cx="175.400000" cy="86.000000" r="1"/>
<line x1="170.400000" y1="91.000000" x2="173.400000" y2="92.000000"  transform="rotate(0.000000,173.400000,92.000000)" style="stroke: black; stroke-width:0.25;"/>
<line x1="170.400000" y1="93.000000" x2="173.400000" y2="92.000000"  transform="rotate(0.000000,173.400000,92.000000)" style="stroke: black; stroke-width:0.25;"/>
<line x1="170.400000" y1="99.000000" x2="173.400000" y2="100.000000"  transform="rotate(0.000000,173.400000,100.000000)" style="stroke: black; stroke-width:0.25;"/>
<line x1="170.400000" y1="101.000000" x2="173.400000" y2="100.000000"  transform="rotate(0.000000,173.400000,100.000000)" style="stroke: black; stroke-width:0.25;"/>
<rect x="214.400000" y="89.000000" width="24.000000" height="24.000000" rx="0" ry="0" style="stroke:none;fill:#cccccc;"/>
<rect x="213.400000" y="88.000000" width="24.000000" height="24.000000" rx="0" ry="0" style="stroke:none;fill:#f44800;"/>
<text x="225.400000" y="102.000000" font-family="Arial" font-size="7" text-anchor="middle" fill="#FFFFFF">1</text>
<circle cx="215.400000" cy="90.000000" r="1"/>
<rect x="254.400000" y="85.000000" width="25.800000" height="24.000000" rx="0" ry="0" style="stroke:none;fill:#cccccc;"/>
<rect x="253.400000" y="84.000000" width="25.800000" height="24.000000" rx="0" ry="0" style="stroke:none;fill:#4B71A1;"/>
<text x="266.300000" y="98.000000" font-family="Arial" font-size="7" text-anchor="middle" fill="#FFFFFF">fmod</text>
<circle cx="255.400000" cy="86.000000" r="1"/>
<line x1="250.400000" y1="91.000000" x2="253.400000" y2="92.000000"  transform="rotate(0.000000,253.400000,92.000000)" style="stroke: black; stroke-width:0.25;"/>
<line x1="250.400000" y1="93.000000" x2="253.400000" y2="92.000000"  transform="rotate(0.000000,253.400000,92.000000)" style="stroke: black; stroke-width:0.25;"/>
<line x1="250.400000" y1="99.000000" x2="253.400000" y2="100.000000"  transform="rotate(0.000000,253.400000,100.000000)" style="stroke: black; stroke-width:0.25;"/>
<line x1="250.400000" y1="101.000000" x2="253.400000" y2="100.000000"  transform="rotate(0.000000,253.400000,100.000000)" style="stroke: black; stroke-width:0.25;"/>
<rect x="164.600000" y="25.000000" width="24.000000" height="24.000000" rx="0" ry="0" style="stroke:none;fill:#cccccc;"/>
<rect x="163.600000" y="24.000000" width="24.000000" height="24.000000" rx="0" ry="0" style="stroke:none;fill:#f44800;"/>
<text x="175.600000" y="38.000000" font-family="Arial" font-size="7" text-anchor="middle" fill="#FFFFFF">1</text>
<circle cx="185.600000" cy="46.000000" r="1"/>
<rect x="124.600000" y="29.000000" width="24.000000" height="24.000000" rx="0" ry="0" style="stroke:none;fill:#cccccc;"/>
<rect x="123.600000" y="28.000000" width="24.000000" height="24.000000" rx="0" ry="0" style="stroke:none;fill:#4B71A1;"/>
<text x="135.600000" y="42.000000" font-family="Arial" font-size="7" text-anchor="middle" fill="#FFFFFF">*</text>
<circle cx="145.600000" cy="50.000000" r="1"/>
<line x1="150.600000" y1="43.000000" x2="147.600000" y2="44.000000"  transform="rotate(0.000000,147.600000,44.000000)" style="stroke: black; stroke-width:0.25;"/>
<line x1="150.600000" y1="45.000000" x2="147.600000" y2="44.000000"  transform="rotate(0.000000,147.600000,44.000000)" style="stroke: black; stroke-width:0.25;"/>
<line x1="150.600000" y1="35.000000" x2="147.600000" y2="36.000000"  transform="rotate(0.000000,147.600000,36.000000)" style="stroke: black; stroke-width:0.25;"/>
<line x1="150.600000" y1="37.000000" x2="147.600000" y2="36.000000"  transform="rotate(0.000000,147.600000,36.000000)" style="stroke: black; stroke-width:0.25;"/>
<line x1="281.200000" y1="96.000000" x2="281.200000" y2="92.000000"  style="stroke:black; stroke-linecap:round; stroke-width:0.25;"/>
<line x1="281.200000" y1="92.000000" x2="285.200000" y2="92.000000"  style="stroke:black; stroke-linecap:round; stroke-width:0.25;"/>
<line x1="285.200000" y1="92.000000" x2="285.200000" y2="96.000000"  style="stroke:black; stroke-linecap:round; stroke-width:0.25;"/>
<line x1="15.000000" y1="15.000000" x2="15.000000" y2="137.000000"  style="stroke: black; stroke-linecap:round; stroke-width:0.25; stroke-dasharray:3,3;"/>
<line x1="15.000000" y1="137.000000" x2="312.200000" y2="137.000000"  style="stroke: black; stroke-linecap:round; stroke-width:0.25; stroke-dasharray:3,3;"/>
<line x1="312.200000" y1="137.000000" x2="312.200000" y2="15.000000"  style="stroke: black; stroke-linecap:round; stroke-width:0.25; stroke-dasharray:3,3;"/>
<line x1="15.000000" y1="15.000000" x2="20.000000" y2="15.000000"  style="stroke: black; stroke-linecap:round; stroke-width:0.25; stroke-dasharray:3,3;"/>
<line x1="68.375000" y1="15.000000" x2="312.200000" y2="15.000000"  style="stroke: black; stroke-linecap:round; stroke-width:0.25; stroke-dasharray:3,3;"/>
<text x="20.000000" y="17.000000" font-family="Arial" font-size="7">phasor_bin(1)</text>
<line x1="314.200000" y1="75.000000" x2="317.200000" y2="76.000000"  transform="rotate(0.000000,317.200000,76.000000)" style="stroke: black; stroke-width:0.25;"/>
<line x1="314.200000" y1="77.000000" x2="317.200000" y2="76.000000"  transform="rotate(0.000000,317.200000,76.000000)" style="stroke: black; stroke-width:0.25;"/>
<line x1="28.000000" y1="40.000000" x2="28.000000" y2="40.000000"  style="stroke:black; stroke-linecap:round; stroke-width:0.25;"/>
<line x1="28.000000" y1="40.000000" x2="28.000000" y2="64.000000"  style="stroke:black; stroke-linecap:round; stroke-width:0.25;"/>
<line x1="28.000000" y1="64.000000" x2="28.000000" y2="64.000000"  style="stroke:black; stroke-linecap:round; stroke-width:0.25;"/>
<line x1="28.000000" y1="64.000000" x2="94.700000" y2="64.000000"  style="stroke:black; stroke-linecap:round; stroke-width:0.25;"/>
<line x1="70.700000" y1="84.000000" x2="74.700000" y2="84.000000"  style="stroke:black; stroke-linecap:round; stroke-width:0.25;"/>
<line x1="74.700000" y1="84.000000" x2="74.700000" y2="84.000000"  style="stroke:black; stroke-linecap:round; stroke-width:0.25;"/>
<line x1="74.700000" y1="84.000000" x2="78.700000" y2="84.000000"  style="stroke:black; stroke-linecap:round; stroke-width:0.25;"/>
<line x1="83.600000" y1="116.000000" x2="87.600000" y2="116.000000"  style="stroke:black; stroke-linecap:round; stroke-width:0.25;"/>
<line x1="87.600000" y1="116.000000" x2="87.600000" y2="116.000000"  style="stroke:black; stroke-linecap:round; stroke-width:0.25;"/>
<line x1="87.600000" y1="116.000000" x2="91.600000" y2="116.000000"  style="stroke:black; stroke-linecap:round; stroke-width:0.25;"/>
<line x1="94.700000" y1="64.000000" x2="161.400000" y2="64.000000"  style="stroke:black; stroke-linecap:round; stroke-width:0.25;"/>
<line x1="104.500000" y1="84.000000" x2="108.500000" y2="84.000000"  style="stroke:black; stroke-linecap:round; stroke-width:0.25;"/>
<line x1="108.500000" y1="84.000000" x2="121.400000" y2="84.000000"  style="stroke:black; stroke-linecap:round; stroke-width:0.25;"/>
<line x1="117.400000" y1="116.000000" x2="121.400000" y2="116.000000"  style="stroke:black; stroke-linecap:round; stroke-width:0.25;"/>
<line x1="119.600000" y1="40.000000" x2="28.000000" y2="40.000000"  style="stroke:black; stroke-linecap:round; stroke-width:0.25;"/>
<line x1="121.400000" y1="84.000000" x2="129.400000" y2="84.000000"  style="stroke:black; stroke-linecap:round; stroke-width:0.25;"/>
<line x1="121.400000" y1="104.000000" x2="129.400000" y2="104.000000"  style="stroke:black; stroke-linecap:round; stroke-width:0.25;"/>
<line x1="121.400000" y1="116.000000" x2="121.400000" y2="104.000000"  style="stroke:black; stroke-linecap:round; stroke-width:0.25;"/>
<line x1="121.400000" y1="116.000000" x2="121.400000" y2="116.000000"  style="stroke:black; stroke-linecap:round; stroke-width:0.25;"/>
<line x1="123.600000" y1="40.000000" x2="119.600000" y2="40.000000"  style="stroke:black; stroke-linecap:round; stroke-width:0.25;"/>
<line x1="129.400000" y1="84.000000" x2="129.400000" y2="96.000000"  style="stroke:black; stroke-linecap:round; stroke-width:0.25;"/>
<line x1="129.400000" y1="96.000000" x2="129.400000" y2="96.000000"  style="stroke:black; stroke-linecap:round; stroke-width:0.25;"/>
<line x1="129.400000" y1="96.000000" x2="133.400000" y2="96.000000"  style="stroke:black; stroke-linecap:round; stroke-width:0.25;"/>
<line x1="129.400000" y1="104.000000" x2="133.400000" y2="104.000000"  style="stroke:black; stroke-linecap:round; stroke-width:0.25;"/>
<line x1="151.600000" y1="36.000000" x2="147.600000" y2="36.000000"  style="stroke:black; stroke-linecap:round; stroke-width:0.25;"/>
<line x1="151.600000" y1="44.000000" x2="147.600000" y2="44.000000"  style="stroke:black; stroke-linecap:round; stroke-width:0.25;"/>
<line x1="151.600000" y1="44.000000" x2="151.600000" y2="44.000000"  style="stroke:black; stroke-linecap:round; stroke-width:0.25;"/>
<line x1="151.600000" y1="56.000000" x2="151.600000" y2="44.000000"  style="stroke:black; stroke-linecap:round; stroke-width:0.25;"/>
<line x1="157.400000" y1="100.000000" x2="161.400000" y2="100.000000"  style="stroke:black; stroke-linecap:round; stroke-width:0.25;"/>
<line x1="159.600000" y1="36.000000" x2="151.600000" y2="36.000000"  style="stroke:black; stroke-linecap:round; stroke-width:0.25;"/>
<line x1="159.600000" y1="56.000000" x2="151.600000" y2="56.000000"  style="stroke:black; stroke-linecap:round; stroke-width:0.25;"/>
<line x1="161.400000" y1="64.000000" x2="169.400000" y2="64.000000"  style="stroke:black; stroke-linecap:round; stroke-width:0.25;"/>
<line x1="161.400000" y1="100.000000" x2="169.400000" y2="100.000000"  style="stroke:black; stroke-linecap:round; stroke-width:0.25;"/>
<line x1="163.600000" y1="36.000000" x2="159.600000" y2="36.000000"  style="stroke:black; stroke-linecap:round; stroke-width:0.25;"/>
<line x1="169.400000" y1="64.000000" x2="169.400000" y2="92.000000"  style="stroke:black; stroke-linecap:round; stroke-width:0.25;"/>
<line x1="169.400000" y1="92.000000" x2="169.400000" y2="92.000000"  style="stroke:black; stroke-linecap:round; stroke-width:0.25;"/>
<line x1="169.400000" y1="92.000000" x2="173.400000" y2="92.000000"  style="stroke:black; stroke-linecap:round; stroke-width:0.25;"/>
<line x1="169.400000" y1="100.000000" x2="173.400000" y2="100.000000"  style="stroke:black; stroke-linecap:round; stroke-width:0.25;"/>
<line x1="175.600000" y1="56.000000" x2="159.600000" y2="56.000000"  style="stroke:black; stroke-linecap:round; stroke-width:0.25;"/>
<line x1="191.600000" y1="56.000000" x2="175.600000" y2="56.000000"  style="stroke:black; stroke-linecap:round; stroke-width:0.25;"/>
<line x1="197.400000" y1="96.000000" x2="201.400000" y2="96.000000"  style="stroke:black; stroke-linecap:round; stroke-width:0.25;"/>
<line x1="201.400000" y1="80.000000" x2="209.400000" y2="80.000000"  style="stroke:black; stroke-linecap:round; stroke-width:0.25;"/>
<line x1="201.400000" y1="96.000000" x2="201.400000" y2="80.000000"  style="stroke:black; stroke-linecap:round; stroke-width:0.25;"/>
<line x1="201.400000" y1="96.000000" x2="201.400000" y2="96.000000"  style="stroke:black; stroke-linecap:round; stroke-width:0.25;"/>
<line x1="209.400000" y1="80.000000" x2="225.400000" y2="80.000000"  style="stroke:black; stroke-linecap:round; stroke-width:0.25;"/>
<line x1="225.400000" y1="80.000000" x2="241.400000" y2="80.000000"  style="stroke:black; stroke-linecap:round; stroke-width:0.25;"/>
<line x1="237.400000" y1="100.000000" x2="241.400000" y2="100.000000"  style="stroke:black; stroke-linecap:round; stroke-width:0.25;"/>
<line x1="241.400000" y1="80.000000" x2="249.400000" y2="80.000000"  style="stroke:black; stroke-linecap:round; stroke-width:0.25;"/>
<line x1="241.400000" y1="100.000000" x2="249.400000" y2="100.000000"  style="stroke:black; stroke-linecap:round; stroke-width:0.25;"/>
<line x1="249.400000" y1="80.000000" x2="249.400000" y2="92.000000"  style="stroke:black; stroke-linecap:round; stroke-width:0.25;"/>
<line x1="249.400000" y1="92.000000" x2="249.400000" y2="92.000000"  style="stroke:black; stroke-linecap:round; stroke-width:0.25;"/>
<line x1="249.400000" y1="92.000000" x2="253.400000" y2="92.000000"  style="stroke:black; stroke-linecap:round; stroke-width:0.25;"/>
<line x1="249.400000" y1="100.000000" x2="253.400000" y2="100.000000"  style="stroke:black; stroke-linecap:round; stroke-width:0.25;"/>
<line x1="279.200000" y1="96.000000" x2="283.200000" y2="96.000000"  style="stroke:black; stroke-linecap:round; stroke-width:0.25;"/>
<line x1="283.200000" y1="56.000000" x2="191.600000" y2="56.000000"  style="stroke:black; stroke-linecap:round; stroke-width:0.25;"/>
<line x1="283.200000" y1="56.000000" x2="283.200000" y2="56.000000"  style="stroke:black; stroke-linecap:round; stroke-width:0.25;"/>
<line x1="283.200000" y1="92.000000" x2="283.200000" y2="56.000000"  style="stroke:black; stroke-linecap:round; stroke-width:0.25;"/>
<line x1="283.200000" y1="96.000000" x2="285.200000" y2="96.000000"  style="stroke:black; stroke-linecap:round; stroke-width:0.25;"/>
<line x1="285.200000" y1="96.000000" x2="291.200000" y2="96.000000"  style="stroke:black; stroke-linecap:round; stroke-width:0.25;"/>
<line x1="291.200000" y1="76.000000" x2="299.200000" y2="76.000000"  style="stroke:black; stroke-linecap:round; stroke-width:0.25;"/>
<line x1="291.200000" y1="96.000000" x2="291.200000" y2="76.000000"  style="stroke:black; stroke-linecap:round; stroke-width:0.25;"/>
<line x1="291.200000" y1="96.000000" x2="291.200000" y2="96.000000"  style="stroke:black; stroke-linecap:round; stroke-width:0.25;"/>
<line x1="299.200000" y1="76.000000" x2="303.200000" y2="76.000000"  style="stroke:black; stroke-linecap:round; stroke-width:0.25;"/>
<line x1="303.200000" y1="76.000000" x2="307.200000" y2="76.000000"  style="stroke:black; stroke-linecap:round; stroke-width:0.25;"/>
<line x1="307.200000" y1="76.000000" x2="317.200000" y2="76.000000"  style="stroke:black; stroke-linecap:round; stroke-width:0.25;"/>
</svg>
