<?xml version="1.0"?>
<svg xmlns="http://www.w3.org/2000/svg" xmlns:xlink="http://www.w3.org/1999/xlink" viewBox="0 0 465.200000 104.000000" width="232.600000mm" height="52.000000mm" version="1.1">
<a xlink:href="pulsar-0x7fd12b632d10.svg">
<rect x="1.000000" y="1.000000" width="464.200000" height="103.000000" rx="0" ry="0" style="stroke:none;fill:#cccccc;"/>
<rect x="0.000000" y="0.000000" width="464.200000" height="103.000000" rx="0" ry="0" style="stroke:none;fill:#ffffff;"/>
</a>
<text x="10.000000" y="7.000000" font-family="Arial" font-size="7"></text>
<rect x="25.000000" y="25.000000" width="296.700000" height="24.000000" rx="0" ry="0" style="stroke:none;fill:#cccccc;"/>
<rect x="24.000000" y="24.000000" width="296.700000" height="24.000000" rx="0" ry="0" style="stroke:none;fill:#477881;"/>
<text x="172.350000" y="38.000000" font-family="Arial" font-size="7" text-anchor="middle" fill="#FFFFFF">hslider(h:Pulse/Probability (Granulator), 88.0f, 75.0f, 1e+02f, 1.0f)</text>
<circle cx="26.000000" cy="26.000000" r="1"/>
<rect x="160.450000" y="57.000000" width="25.800000" height="24.000000" rx="0" ry="0" style="stroke:none;fill:#cccccc;"/>
<rect x="159.450000" y="56.000000" width="25.800000" height="24.000000" rx="0" ry="0" style="stroke:none;fill:#f44800;"/>
<text x="172.350000" y="70.000000" font-family="Arial" font-size="7" text-anchor="middle" fill="#FFFFFF">0.01</text>
<circle cx="161.450000" cy="58.000000" r="1"/>
<rect x="337.700000" y="41.000000" width="24.000000" height="24.000000" rx="0" ry="0" style="stroke:none;fill:#cccccc;"/>
<rect x="336.700000" y="40.000000" width="24.000000" height="24.000000" rx="0" ry="0" style="stroke:none;fill:#4B71A1;"/>
<text x="348.700000" y="54.000000" font-family="Arial" font-size="7" text-anchor="middle" fill="#FFFFFF">*</text>
<circle cx="338.700000" cy="42.000000" r="1"/>
<line x1="333.700000" y1="47.000000" x2="336.700000" y2="48.000000"  transform="rotate(0.000000,336.700000,48.000000)" style="stroke: black; stroke-width:0.25;"/>
<line x1="333.700000" y1="49.000000" x2="336.700000" y2="48.000000"  transform="rotate(0.000000,336.700000,48.000000)" style="stroke: black; stroke-width:0.25;"/>
<line x1="333.700000" y1="55.000000" x2="336.700000" y2="56.000000"  transform="rotate(0.000000,336.700000,56.000000)" style="stroke: black; stroke-width:0.25;"/>
<line x1="333.700000" y1="57.000000" x2="336.700000" y2="56.000000"  transform="rotate(0.000000,336.700000,56.000000)" style="stroke: black; stroke-width:0.25;"/>
<a xlink:href="lowpass-0x7fd12b604660.svg">
<rect x="369.700000" y="41.000000" width="64.500000" height="24.000000" rx="0" ry="0" style="stroke:none;fill:#cccccc;"/>
<rect x="368.700000" y="40.000000" width="64.500000" height="24.000000" rx="0" ry="0" style="stroke:none;fill:#003366;"/>
</a>
<a xlink:href="lowpass-0x7fd12b604660.svg">
<text x="400.950000" y="54.000000" font-family="Arial" font-size="7" text-anchor="middle" fill="#FFFFFF">lowpass(1)(1)</text>
</a>
<circle cx="370.700000" cy="42.000000" r="1"/>
<line x1="365.700000" y1="51.000000" x2="368.700000" y2="52.000000"  transform="rotate(0.000000,368.700000,52.000000)" style="stroke: black; stroke-width:0.25;"/>
<line x1="365.700000" y1="53.000000" x2="368.700000" y2="52.000000"  transform="rotate(0.000000,368.700000,52.000000)" style="stroke: black; stroke-width:0.25;"/>
<line x1="15.000000" y1="15.000000" x2="15.000000" y2="89.000000"  style="stroke: black; stroke-linecap:round; stroke-width:0.25; stroke-dasharray:3,3;"/>
<line x1="15.000000" y1="89.000000" x2="450.200000" y2="89.000000"  style="stroke: black; stroke-linecap:round; stroke-width:0.25; stroke-dasharray:3,3;"/>
<line x1="450.200000" y1="89.000000" x2="450.200000" y2="15.000000"  style="stroke: black; stroke-linecap:round; stroke-width:0.25; stroke-dasharray:3,3;"/>
<line x1="15.000000" y1="15.000000" x2="20.000000" y2="15.000000"  style="stroke: black; stroke-linecap:round; stroke-width:0.25; stroke-dasharray:3,3;"/>
<line x1="42.575000" y1="15.000000" x2="450.200000" y2="15.000000"  style="stroke: black; stroke-linecap:round; stroke-width:0.25; stroke-dasharray:3,3;"/>
<text x="20.000000" y="17.000000" font-family="Arial" font-size="7">proba</text>
<line x1="452.200000" y1="51.000000" x2="455.200000" y2="52.000000"  transform="rotate(0.000000,455.200000,52.000000)" style="stroke: black; stroke-width:0.25;"/>
<line x1="452.200000" y1="53.000000" x2="455.200000" y2="52.000000"  transform="rotate(0.000000,455.200000,52.000000)" style="stroke: black; stroke-width:0.25;"/>
<line x1="185.250000" y1="68.000000" x2="189.250000" y2="68.000000"  style="stroke:black; stroke-linecap:round; stroke-width:0.25;"/>
<line x1="189.250000" y1="68.000000" x2="324.700000" y2="68.000000"  style="stroke:black; stroke-linecap:round; stroke-width:0.25;"/>
<line x1="320.700000" y1="36.000000" x2="324.700000" y2="36.000000"  style="stroke:black; stroke-linecap:round; stroke-width:0.25;"/>
<line x1="324.700000" y1="36.000000" x2="332.700000" y2="36.000000"  style="stroke:black; stroke-linecap:round; stroke-width:0.25;"/>
<line x1="324.700000" y1="56.000000" x2="332.700000" y2="56.000000"  style="stroke:black; stroke-linecap:round; stroke-width:0.25;"/>
<line x1="324.700000" y1="68.000000" x2="324.700000" y2="56.000000"  style="stroke:black; stroke-linecap:round; stroke-width:0.25;"/>
<line x1="324.700000" y1="68.000000" x2="324.700000" y2="68.000000"  style="stroke:black; stroke-linecap:round; stroke-width:0.25;"/>
<line x1="332.700000" y1="36.000000" x2="332.700000" y2="48.000000"  style="stroke:black; stroke-linecap:round; stroke-width:0.25;"/>
<line x1="332.700000" y1="48.000000" x2="332.700000" y2="48.000000"  style="stroke:black; stroke-linecap:round; stroke-width:0.25;"/>
<line x1="332.700000" y1="48.000000" x2="336.700000" y2="48.000000"  style="stroke:black; stroke-linecap:round; stroke-width:0.25;"/>
<line x1="332.700000" y1="56.000000" x2="336.700000" y2="56.000000"  style="stroke:black; stroke-linecap:round; stroke-width:0.25;"/>
<line x1="360.700000" y1="52.000000" x2="364.700000" y2="52.000000"  style="stroke:black; stroke-linecap:round; stroke-width:0.25;"/>
<line x1="364.700000" y1="52.000000" x2="364.700000" y2="52.000000"  style="stroke:black; stroke-linecap:round; stroke-width:0.25;"/>
<line x1="364.700000" y1="52.000000" x2="368.700000" y2="52.000000"  style="stroke:black; stroke-linecap:round; stroke-width:0.25;"/>
<line x1="433.200000" y1="52.000000" x2="437.200000" y2="52.000000"  style="stroke:black; stroke-linecap:round; stroke-width:0.25;"/>
<line x1="437.200000" y1="52.000000" x2="437.200000" y2="52.000000"  style="stroke:black; stroke-linecap:round; stroke-width:0.25;"/>
<line x1="437.200000" y1="52.000000" x2="441.200000" y2="52.000000"  style="stroke:black; stroke-linecap:round; stroke-width:0.25;"/>
<line x1="441.200000" y1="52.000000" x2="445.200000" y2="52.000000"  style="stroke:black; stroke-linecap:round; stroke-width:0.25;"/>
<line x1="445.200000" y1="52.000000" x2="455.200000" y2="52.000000"  style="stroke:black; stroke-linecap:round; stroke-width:0.25;"/>
</svg>
