<?xml version="1.0"?>
<svg xmlns="http://www.w3.org/2000/svg" xmlns:xlink="http://www.w3.org/1999/xlink" viewBox="0 0 463.900000 72.000000" width="231.950000mm" height="36.000000mm" version="1.1">
<a xlink:href="position-0x7fbe4b20fbf0.svg">
<rect x="1.000000" y="1.000000" width="462.900000" height="71.000000" rx="0" ry="0" style="stroke:none;fill:#cccccc;"/>
<rect x="0.000000" y="0.000000" width="462.900000" height="71.000000" rx="0" ry="0" style="stroke:none;fill:#ffffff;"/>
</a>
<text x="10.000000" y="7.000000" font-family="Arial" font-size="7"></text>
<rect x="25.000000" y="25.000000" width="232.200000" height="24.000000" rx="0" ry="0" style="stroke:none;fill:#cccccc;"/>
<rect x="24.000000" y="24.000000" width="232.200000" height="24.000000" rx="0" ry="0" style="stroke:none;fill:#477881;"/>
<text x="140.100000" y="38.000000" font-family="Arial" font-size="7" text-anchor="middle" fill="#FFFFFF">hslider(h:/Instrument Hand, 12.0f, 0.0f, 24.0f, 1.0f)</text>
<circle cx="26.000000" cy="26.000000" r="1"/>
<a xlink:href="automat-0x7fbe4b20a4d0.svg">
<rect x="265.200000" y="25.000000" width="167.700000" height="24.000000" rx="0" ry="0" style="stroke:none;fill:#cccccc;"/>
<rect x="264.200000" y="24.000000" width="167.700000" height="24.000000" rx="0" ry="0" style="stroke:none;fill:#003366;"/>
</a>
<a xlink:href="automat-0x7fbe4b20a4d0.svg">
<text x="348.050000" y="38.000000" font-family="Arial" font-size="7" text-anchor="middle" fill="#FFFFFF">automat(hslid... : max : int)(15)(0.0f)</text>
</a>
<circle cx="266.200000" cy="26.000000" r="1"/>
<line x1="261.200000" y1="35.000000" x2="264.200000" y2="36.000000"  transform="rotate(0.000000,264.200000,36.000000)" style="stroke: black; stroke-width:0.25;"/>
<line x1="261.200000" y1="37.000000" x2="264.200000" y2="36.000000"  transform="rotate(0.000000,264.200000,36.000000)" style="stroke: black; stroke-width:0.25;"/>
<line x1="15.000000" y1="15.000000" x2="15.000000" y2="57.000000"  style="stroke: black; stroke-linecap:round; stroke-width:0.25; stroke-dasharray:3,3;"/>
<line x1="15.000000" y1="57.000000" x2="448.900000" y2="57.000000"  style="stroke: black; stroke-linecap:round; stroke-width:0.25; stroke-dasharray:3,3;"/>
<line x1="448.900000" y1="57.000000" x2="448.900000" y2="15.000000"  style="stroke: black; stroke-linecap:round; stroke-width:0.25; stroke-dasharray:3,3;"/>
<line x1="15.000000" y1="15.000000" x2="20.000000" y2="15.000000"  style="stroke: black; stroke-linecap:round; stroke-width:0.25; stroke-dasharray:3,3;"/>
<line x1="39.350000" y1="15.000000" x2="448.900000" y2="15.000000"  style="stroke: black; stroke-linecap:round; stroke-width:0.25; stroke-dasharray:3,3;"/>
<text x="20.000000" y="17.000000" font-family="Arial" font-size="7">hand</text>
<line x1="450.900000" y1="35.000000" x2="453.900000" y2="36.000000"  transform="rotate(0.000000,453.900000,36.000000)" style="stroke: black; stroke-width:0.25;"/>
<line x1="450.900000" y1="37.000000" x2="453.900000" y2="36.000000"  transform="rotate(0.000000,453.900000,36.000000)" style="stroke: black; stroke-width:0.25;"/>
<line x1="256.200000" y1="36.000000" x2="260.200000" y2="36.000000"  style="stroke:black; stroke-linecap:round; stroke-width:0.25;"/>
<line x1="260.200000" y1="36.000000" x2="260.200000" y2="36.000000"  style="stroke:black; stroke-linecap:round; stroke-width:0.25;"/>
<line x1="260.200000" y1="36.000000" x2="264.200000" y2="36.000000"  style="stroke:black; stroke-linecap:round; stroke-width:0.25;"/>
<line x1="431.900000" y1="36.000000" x2="435.900000" y2="36.000000"  style="stroke:black; stroke-linecap:round; stroke-width:0.25;"/>
<line x1="435.900000" y1="36.000000" x2="435.900000" y2="36.000000"  style="stroke:black; stroke-linecap:round; stroke-width:0.25;"/>
<line x1="435.900000" y1="36.000000" x2="439.900000" y2="36.000000"  style="stroke:black; stroke-linecap:round; stroke-width:0.25;"/>
<line x1="439.900000" y1="36.000000" x2="443.900000" y2="36.000000"  style="stroke:black; stroke-linecap:round; stroke-width:0.25;"/>
<line x1="443.900000" y1="36.000000" x2="453.900000" y2="36.000000"  style="stroke:black; stroke-linecap:round; stroke-width:0.25;"/>
</svg>
