<?xml version="1.0"?>
<svg xmlns="http://www.w3.org/2000/svg" xmlns:xlink="http://www.w3.org/1999/xlink" viewBox="0 0 282.800000 212.000000" width="141.400000mm" height="106.000000mm" version="1.1">
<a xlink:href="harpe-0x7f9443aa0590.svg">
<rect x="1.000000" y="1.000000" width="281.800000" height="211.000000" rx="0" ry="0" style="stroke:none;fill:#cccccc;"/>
<rect x="0.000000" y="0.000000" width="281.800000" height="211.000000" rx="0" ry="0" style="stroke:none;fill:#ffffff;"/>
</a>
<text x="10.000000" y="7.000000" font-family="Arial" font-size="7"></text>
<rect x="96.000000" y="43.000000" width="24.000000" height="24.000000" rx="0" ry="0" style="stroke:none;fill:#cccccc;"/>
<rect x="95.000000" y="42.000000" width="24.000000" height="24.000000" rx="0" ry="0" style="stroke:none;fill:#f44800;"/>
<text x="107.000000" y="56.000000" font-family="Arial" font-size="7" text-anchor="middle" fill="#FFFFFF">1</text>
<circle cx="97.000000" cy="44.000000" r="1"/>
<line x1="86.000000" y1="33.000000" x2="86.000000" y2="75.000000"  style="stroke: black; stroke-linecap:round; stroke-width:0.25; stroke-dasharray:3,3;"/>
<line x1="86.000000" y1="75.000000" x2="128.000000" y2="75.000000"  style="stroke: black; stroke-linecap:round; stroke-width:0.25; stroke-dasharray:3,3;"/>
<line x1="128.000000" y1="75.000000" x2="128.000000" y2="33.000000"  style="stroke: black; stroke-linecap:round; stroke-width:0.25; stroke-dasharray:3,3;"/>
<line x1="86.000000" y1="33.000000" x2="91.000000" y2="33.000000"  style="stroke: black; stroke-linecap:round; stroke-width:0.25; stroke-dasharray:3,3;"/>
<line x1="107.125000" y1="33.000000" x2="128.000000" y2="33.000000"  style="stroke: black; stroke-linecap:round; stroke-width:0.25; stroke-dasharray:3,3;"/>
<text x="91.000000" y="35.000000" font-family="Arial" font-size="7">lvl</text>
<rect x="96.000000" y="95.000000" width="24.000000" height="24.000000" rx="0" ry="0" style="stroke:none;fill:#cccccc;"/>
<rect x="95.000000" y="94.000000" width="24.000000" height="24.000000" rx="0" ry="0" style="stroke:none;fill:#f44800;"/>
<text x="107.000000" y="108.000000" font-family="Arial" font-size="7" text-anchor="middle" fill="#FFFFFF">0.5</text>
<circle cx="97.000000" cy="96.000000" r="1"/>
<line x1="86.000000" y1="85.000000" x2="86.000000" y2="127.000000"  style="stroke: black; stroke-linecap:round; stroke-width:0.25; stroke-dasharray:3,3;"/>
<line x1="86.000000" y1="127.000000" x2="128.000000" y2="127.000000"  style="stroke: black; stroke-linecap:round; stroke-width:0.25; stroke-dasharray:3,3;"/>
<line x1="128.000000" y1="127.000000" x2="128.000000" y2="85.000000"  style="stroke: black; stroke-linecap:round; stroke-width:0.25; stroke-dasharray:3,3;"/>
<line x1="86.000000" y1="85.000000" x2="91.000000" y2="85.000000"  style="stroke: black; stroke-linecap:round; stroke-width:0.25; stroke-dasharray:3,3;"/>
<line x1="100.675000" y1="85.000000" x2="128.000000" y2="85.000000"  style="stroke: black; stroke-linecap:round; stroke-width:0.25; stroke-dasharray:3,3;"/>
<text x="91.000000" y="87.000000" font-family="Arial" font-size="7">C</text>
<rect x="146.000000" y="69.000000" width="24.000000" height="24.000000" rx="0" ry="0" style="stroke:none;fill:#cccccc;"/>
<rect x="145.000000" y="68.000000" width="24.000000" height="24.000000" rx="0" ry="0" style="stroke:none;fill:#4B71A1;"/>
<text x="157.000000" y="82.000000" font-family="Arial" font-size="7" text-anchor="middle" fill="#FFFFFF">-</text>
<circle cx="147.000000" cy="70.000000" r="1"/>
<line x1="142.000000" y1="75.000000" x2="145.000000" y2="76.000000"  transform="rotate(0.000000,145.000000,76.000000)" style="stroke: black; stroke-width:0.25;"/>
<line x1="142.000000" y1="77.000000" x2="145.000000" y2="76.000000"  transform="rotate(0.000000,145.000000,76.000000)" style="stroke: black; stroke-width:0.25;"/>
<line x1="142.000000" y1="83.000000" x2="145.000000" y2="84.000000"  transform="rotate(0.000000,145.000000,84.000000)" style="stroke: black; stroke-width:0.25;"/>
<line x1="142.000000" y1="85.000000" x2="145.000000" y2="84.000000"  transform="rotate(0.000000,145.000000,84.000000)" style="stroke: black; stroke-width:0.25;"/>
<rect x="178.000000" y="69.000000" width="25.800000" height="24.000000" rx="0" ry="0" style="stroke:none;fill:#cccccc;"/>
<rect x="177.000000" y="68.000000" width="25.800000" height="24.000000" rx="0" ry="0" style="stroke:none;fill:#4B71A1;"/>
<text x="189.900000" y="82.000000" font-family="Arial" font-size="7" text-anchor="middle" fill="#FFFFFF">sqrt</text>
<circle cx="179.000000" cy="70.000000" r="1"/>
<line x1="174.000000" y1="79.000000" x2="177.000000" y2="80.000000"  transform="rotate(0.000000,177.000000,80.000000)" style="stroke: black; stroke-width:0.25;"/>
<line x1="174.000000" y1="81.000000" x2="177.000000" y2="80.000000"  transform="rotate(0.000000,177.000000,80.000000)" style="stroke: black; stroke-width:0.25;"/>
<rect x="219.800000" y="65.000000" width="24.000000" height="24.000000" rx="0" ry="0" style="stroke:none;fill:#cccccc;"/>
<rect x="218.800000" y="64.000000" width="24.000000" height="24.000000" rx="0" ry="0" style="stroke:none;fill:#4B71A1;"/>
<text x="230.800000" y="78.000000" font-family="Arial" font-size="7" text-anchor="middle" fill="#FFFFFF">*</text>
<circle cx="220.800000" cy="66.000000" r="1"/>
<line x1="215.800000" y1="71.000000" x2="218.800000" y2="72.000000"  transform="rotate(0.000000,218.800000,72.000000)" style="stroke: black; stroke-width:0.25;"/>
<line x1="215.800000" y1="73.000000" x2="218.800000" y2="72.000000"  transform="rotate(0.000000,218.800000,72.000000)" style="stroke: black; stroke-width:0.25;"/>
<line x1="215.800000" y1="79.000000" x2="218.800000" y2="80.000000"  transform="rotate(0.000000,218.800000,80.000000)" style="stroke: black; stroke-width:0.25;"/>
<line x1="215.800000" y1="81.000000" x2="218.800000" y2="80.000000"  transform="rotate(0.000000,218.800000,80.000000)" style="stroke: black; stroke-width:0.25;"/>
<rect x="116.000000" y="155.000000" width="24.000000" height="24.000000" rx="0" ry="0" style="stroke:none;fill:#cccccc;"/>
<rect x="115.000000" y="154.000000" width="24.000000" height="24.000000" rx="0" ry="0" style="stroke:none;fill:#f44800;"/>
<text x="127.000000" y="168.000000" font-family="Arial" font-size="7" text-anchor="middle" fill="#FFFFFF">0.5</text>
<circle cx="117.000000" cy="156.000000" r="1"/>
<line x1="106.000000" y1="145.000000" x2="106.000000" y2="187.000000"  style="stroke: black; stroke-linecap:round; stroke-width:0.25; stroke-dasharray:3,3;"/>
<line x1="106.000000" y1="187.000000" x2="148.000000" y2="187.000000"  style="stroke: black; stroke-linecap:round; stroke-width:0.25; stroke-dasharray:3,3;"/>
<line x1="148.000000" y1="187.000000" x2="148.000000" y2="145.000000"  style="stroke: black; stroke-linecap:round; stroke-width:0.25; stroke-dasharray:3,3;"/>
<line x1="106.000000" y1="145.000000" x2="111.000000" y2="145.000000"  style="stroke: black; stroke-linecap:round; stroke-width:0.25; stroke-dasharray:3,3;"/>
<line x1="120.675000" y1="145.000000" x2="148.000000" y2="145.000000"  style="stroke: black; stroke-linecap:round; stroke-width:0.25; stroke-dasharray:3,3;"/>
<text x="111.000000" y="147.000000" font-family="Arial" font-size="7">C</text>
<rect x="158.000000" y="155.000000" width="25.800000" height="24.000000" rx="0" ry="0" style="stroke:none;fill:#cccccc;"/>
<rect x="157.000000" y="154.000000" width="25.800000" height="24.000000" rx="0" ry="0" style="stroke:none;fill:#4B71A1;"/>
<text x="169.900000" y="168.000000" font-family="Arial" font-size="7" text-anchor="middle" fill="#FFFFFF">sqrt</text>
<circle cx="159.000000" cy="156.000000" r="1"/>
<line x1="154.000000" y1="165.000000" x2="157.000000" y2="166.000000"  transform="rotate(0.000000,157.000000,166.000000)" style="stroke: black; stroke-width:0.25;"/>
<line x1="154.000000" y1="167.000000" x2="157.000000" y2="166.000000"  transform="rotate(0.000000,157.000000,166.000000)" style="stroke: black; stroke-width:0.25;"/>
<rect x="199.800000" y="151.000000" width="24.000000" height="24.000000" rx="0" ry="0" style="stroke:none;fill:#cccccc;"/>
<rect x="198.800000" y="150.000000" width="24.000000" height="24.000000" rx="0" ry="0" style="stroke:none;fill:#4B71A1;"/>
<text x="210.800000" y="164.000000" font-family="Arial" font-size="7" text-anchor="middle" fill="#FFFFFF">*</text>
<circle cx="200.800000" cy="152.000000" r="1"/>
<line x1="195.800000" y1="157.000000" x2="198.800000" y2="158.000000"  transform="rotate(0.000000,198.800000,158.000000)" style="stroke: black; stroke-width:0.25;"/>
<line x1="195.800000" y1="159.000000" x2="198.800000" y2="158.000000"  transform="rotate(0.000000,198.800000,158.000000)" style="stroke: black; stroke-width:0.25;"/>
<line x1="195.800000" y1="165.000000" x2="198.800000" y2="166.000000"  transform="rotate(0.000000,198.800000,166.000000)" style="stroke: black; stroke-width:0.25;"/>
<line x1="195.800000" y1="167.000000" x2="198.800000" y2="166.000000"  transform="rotate(0.000000,198.800000,166.000000)" style="stroke: black; stroke-width:0.25;"/>
<line x1="15.000000" y1="15.000000" x2="15.000000" y2="197.000000"  style="stroke: black; stroke-linecap:round; stroke-width:0.25; stroke-dasharray:3,3;"/>
<line x1="15.000000" y1="197.000000" x2="267.800000" y2="197.000000"  style="stroke: black; stroke-linecap:round; stroke-width:0.25; stroke-dasharray:3,3;"/>
<line x1="267.800000" y1="197.000000" x2="267.800000" y2="15.000000"  style="stroke: black; stroke-linecap:round; stroke-width:0.25; stroke-dasharray:3,3;"/>
<line x1="15.000000" y1="15.000000" x2="20.000000" y2="15.000000"  style="stroke: black; stroke-linecap:round; stroke-width:0.25; stroke-dasharray:3,3;"/>
<line x1="55.475000" y1="15.000000" x2="267.800000" y2="15.000000"  style="stroke: black; stroke-linecap:round; stroke-width:0.25; stroke-dasharray:3,3;"/>
<text x="20.000000" y="17.000000" font-family="Arial" font-size="7">pan(0.5f)</text>
<line x1="269.800000" y1="101.000000" x2="272.800000" y2="102.000000"  transform="rotate(0.000000,272.800000,102.000000)" style="stroke: black; stroke-width:0.25;"/>
<line x1="269.800000" y1="103.000000" x2="272.800000" y2="102.000000"  transform="rotate(0.000000,272.800000,102.000000)" style="stroke: black; stroke-width:0.25;"/>
<line x1="269.800000" y1="109.000000" x2="272.800000" y2="110.000000"  transform="rotate(0.000000,272.800000,110.000000)" style="stroke: black; stroke-width:0.25;"/>
<line x1="269.800000" y1="111.000000" x2="272.800000" y2="110.000000"  transform="rotate(0.000000,272.800000,110.000000)" style="stroke: black; stroke-width:0.25;"/>
<line x1="10.000000" y1="106.000000" x2="20.000000" y2="106.000000"  style="stroke:black; stroke-linecap:round; stroke-width:0.25;"/>
<line x1="20.000000" y1="106.000000" x2="24.000000" y2="106.000000"  style="stroke:black; stroke-linecap:round; stroke-width:0.25;"/>
<line x1="24.000000" y1="106.000000" x2="28.000000" y2="106.000000"  style="stroke:black; stroke-linecap:round; stroke-width:0.25;"/>
<line x1="28.000000" y1="106.000000" x2="28.000000" y2="106.000000"  style="stroke:black; stroke-linecap:round; stroke-width:0.25;"/>
<line x1="28.000000" y1="106.000000" x2="32.000000" y2="106.000000"  style="stroke:black; stroke-linecap:round; stroke-width:0.25;"/>
<line x1="32.000000" y1="106.000000" x2="36.000000" y2="106.000000"  style="stroke:black; stroke-linecap:round; stroke-width:0.25;"/>
<line x1="36.000000" y1="106.000000" x2="81.000000" y2="24.000000"  style="stroke:black; stroke-linecap:round; stroke-width:0.25;"/>
<line x1="36.000000" y1="106.000000" x2="81.000000" y2="136.000000"  style="stroke:black; stroke-linecap:round; stroke-width:0.25;"/>
<line x1="81.000000" y1="24.000000" x2="143.900000" y2="24.000000"  style="stroke:black; stroke-linecap:round; stroke-width:0.25;"/>
<line x1="81.000000" y1="136.000000" x2="101.000000" y2="136.000000"  style="stroke:black; stroke-linecap:round; stroke-width:0.25;"/>
<line x1="101.000000" y1="136.000000" x2="143.900000" y2="136.000000"  style="stroke:black; stroke-linecap:round; stroke-width:0.25;"/>
<line x1="119.000000" y1="54.000000" x2="123.000000" y2="54.000000"  style="stroke:black; stroke-linecap:round; stroke-width:0.25;"/>
<line x1="119.000000" y1="106.000000" x2="123.000000" y2="106.000000"  style="stroke:black; stroke-linecap:round; stroke-width:0.25;"/>
<line x1="123.000000" y1="54.000000" x2="133.000000" y2="54.000000"  style="stroke:black; stroke-linecap:round; stroke-width:0.25;"/>
<line x1="123.000000" y1="106.000000" x2="133.000000" y2="106.000000"  style="stroke:black; stroke-linecap:round; stroke-width:0.25;"/>
<line x1="133.000000" y1="54.000000" x2="141.000000" y2="54.000000"  style="stroke:black; stroke-linecap:round; stroke-width:0.25;"/>
<line x1="133.000000" y1="84.000000" x2="141.000000" y2="84.000000"  style="stroke:black; stroke-linecap:round; stroke-width:0.25;"/>
<line x1="133.000000" y1="106.000000" x2="133.000000" y2="84.000000"  style="stroke:black; stroke-linecap:round; stroke-width:0.25;"/>
<line x1="133.000000" y1="106.000000" x2="133.000000" y2="106.000000"  style="stroke:black; stroke-linecap:round; stroke-width:0.25;"/>
<line x1="139.000000" y1="166.000000" x2="143.000000" y2="166.000000"  style="stroke:black; stroke-linecap:round; stroke-width:0.25;"/>
<line x1="141.000000" y1="54.000000" x2="141.000000" y2="76.000000"  style="stroke:black; stroke-linecap:round; stroke-width:0.25;"/>
<line x1="141.000000" y1="76.000000" x2="141.000000" y2="76.000000"  style="stroke:black; stroke-linecap:round; stroke-width:0.25;"/>
<line x1="141.000000" y1="76.000000" x2="145.000000" y2="76.000000"  style="stroke:black; stroke-linecap:round; stroke-width:0.25;"/>
<line x1="141.000000" y1="84.000000" x2="145.000000" y2="84.000000"  style="stroke:black; stroke-linecap:round; stroke-width:0.25;"/>
<line x1="143.000000" y1="166.000000" x2="153.000000" y2="166.000000"  style="stroke:black; stroke-linecap:round; stroke-width:0.25;"/>
<line x1="143.900000" y1="24.000000" x2="206.800000" y2="24.000000"  style="stroke:black; stroke-linecap:round; stroke-width:0.25;"/>
<line x1="143.900000" y1="136.000000" x2="186.800000" y2="136.000000"  style="stroke:black; stroke-linecap:round; stroke-width:0.25;"/>
<line x1="153.000000" y1="166.000000" x2="153.000000" y2="166.000000"  style="stroke:black; stroke-linecap:round; stroke-width:0.25;"/>
<line x1="153.000000" y1="166.000000" x2="157.000000" y2="166.000000"  style="stroke:black; stroke-linecap:round; stroke-width:0.25;"/>
<line x1="169.000000" y1="80.000000" x2="173.000000" y2="80.000000"  style="stroke:black; stroke-linecap:round; stroke-width:0.25;"/>
<line x1="173.000000" y1="80.000000" x2="173.000000" y2="80.000000"  style="stroke:black; stroke-linecap:round; stroke-width:0.25;"/>
<line x1="173.000000" y1="80.000000" x2="177.000000" y2="80.000000"  style="stroke:black; stroke-linecap:round; stroke-width:0.25;"/>
<line x1="182.800000" y1="166.000000" x2="186.800000" y2="166.000000"  style="stroke:black; stroke-linecap:round; stroke-width:0.25;"/>
<line x1="186.800000" y1="136.000000" x2="194.800000" y2="136.000000"  style="stroke:black; stroke-linecap:round; stroke-width:0.25;"/>
<line x1="186.800000" y1="166.000000" x2="194.800000" y2="166.000000"  style="stroke:black; stroke-linecap:round; stroke-width:0.25;"/>
<line x1="194.800000" y1="136.000000" x2="194.800000" y2="158.000000"  style="stroke:black; stroke-linecap:round; stroke-width:0.25;"/>
<line x1="194.800000" y1="158.000000" x2="194.800000" y2="158.000000"  style="stroke:black; stroke-linecap:round; stroke-width:0.25;"/>
<line x1="194.800000" y1="158.000000" x2="198.800000" y2="158.000000"  style="stroke:black; stroke-linecap:round; stroke-width:0.25;"/>
<line x1="194.800000" y1="166.000000" x2="198.800000" y2="166.000000"  style="stroke:black; stroke-linecap:round; stroke-width:0.25;"/>
<line x1="202.800000" y1="80.000000" x2="206.800000" y2="80.000000"  style="stroke:black; stroke-linecap:round; stroke-width:0.25;"/>
<line x1="206.800000" y1="24.000000" x2="214.800000" y2="24.000000"  style="stroke:black; stroke-linecap:round; stroke-width:0.25;"/>
<line x1="206.800000" y1="80.000000" x2="214.800000" y2="80.000000"  style="stroke:black; stroke-linecap:round; stroke-width:0.25;"/>
<line x1="214.800000" y1="24.000000" x2="214.800000" y2="72.000000"  style="stroke:black; stroke-linecap:round; stroke-width:0.25;"/>
<line x1="214.800000" y1="72.000000" x2="214.800000" y2="72.000000"  style="stroke:black; stroke-linecap:round; stroke-width:0.25;"/>
<line x1="214.800000" y1="72.000000" x2="218.800000" y2="72.000000"  style="stroke:black; stroke-linecap:round; stroke-width:0.25;"/>
<line x1="214.800000" y1="80.000000" x2="218.800000" y2="80.000000"  style="stroke:black; stroke-linecap:round; stroke-width:0.25;"/>
<line x1="222.800000" y1="162.000000" x2="226.800000" y2="162.000000"  style="stroke:black; stroke-linecap:round; stroke-width:0.25;"/>
<line x1="226.800000" y1="162.000000" x2="246.800000" y2="162.000000"  style="stroke:black; stroke-linecap:round; stroke-width:0.25;"/>
<line x1="242.800000" y1="76.000000" x2="246.800000" y2="76.000000"  style="stroke:black; stroke-linecap:round; stroke-width:0.25;"/>
<line x1="246.800000" y1="76.000000" x2="254.800000" y2="76.000000"  style="stroke:black; stroke-linecap:round; stroke-width:0.25;"/>
<line x1="246.800000" y1="110.000000" x2="254.800000" y2="110.000000"  style="stroke:black; stroke-linecap:round; stroke-width:0.25;"/>
<line x1="246.800000" y1="162.000000" x2="246.800000" y2="110.000000"  style="stroke:black; stroke-linecap:round; stroke-width:0.25;"/>
<line x1="246.800000" y1="162.000000" x2="246.800000" y2="162.000000"  style="stroke:black; stroke-linecap:round; stroke-width:0.25;"/>
<line x1="254.800000" y1="76.000000" x2="254.800000" y2="102.000000"  style="stroke:black; stroke-linecap:round; stroke-width:0.25;"/>
<line x1="254.800000" y1="102.000000" x2="254.800000" y2="102.000000"  style="stroke:black; stroke-linecap:round; stroke-width:0.25;"/>
<line x1="254.800000" y1="102.000000" x2="258.800000" y2="102.000000"  style="stroke:black; stroke-linecap:round; stroke-width:0.25;"/>
<line x1="254.800000" y1="110.000000" x2="258.800000" y2="110.000000"  style="stroke:black; stroke-linecap:round; stroke-width:0.25;"/>
<line x1="258.800000" y1="102.000000" x2="262.800000" y2="102.000000"  style="stroke:black; stroke-linecap:round; stroke-width:0.25;"/>
<line x1="258.800000" y1="110.000000" x2="262.800000" y2="110.000000"  style="stroke:black; stroke-linecap:round; stroke-width:0.25;"/>
<line x1="262.800000" y1="102.000000" x2="272.800000" y2="102.000000"  style="stroke:black; stroke-linecap:round; stroke-width:0.25;"/>
<line x1="262.800000" y1="110.000000" x2="272.800000" y2="110.000000"  style="stroke:black; stroke-linecap:round; stroke-width:0.25;"/>
</svg>
