<?xml version="1.0"?>
<svg xmlns="http://www.w3.org/2000/svg" xmlns:xlink="http://www.w3.org/1999/xlink" viewBox="0 0 336.300000 180.000000" width="168.150000mm" height="90.000000mm" version="1.1">
<rect x="1.000000" y="1.000000" width="335.300000" height="179.000000" rx="0" ry="0" style="stroke:none;fill:#cccccc;"/>
<rect x="0.000000" y="0.000000" width="335.300000" height="179.000000" rx="0" ry="0" style="stroke:none;fill:#ffffff;"/>
<text x="10.000000" y="7.000000" font-family="Arial" font-size="7"></text>
<a xlink:href="h-0x7fe65870ad40.svg">
<rect x="35.000000" y="79.000000" width="24.000000" height="24.000000" rx="0" ry="0" style="stroke:none;fill:#cccccc;"/>
<rect x="34.000000" y="78.000000" width="24.000000" height="24.000000" rx="0" ry="0" style="stroke:none;fill:#003366;"/>
</a>
<a xlink:href="h-0x7fe65870ad40.svg">
<text x="46.000000" y="92.000000" font-family="Arial" font-size="7" text-anchor="middle" fill="#FFFFFF">h</text>
</a>
<circle cx="36.000000" cy="80.000000" r="1"/>
<a xlink:href="harpe-0x7fe659123750.svg">
<rect x="67.000000" y="79.000000" width="90.300000" height="24.000000" rx="0" ry="0" style="stroke:none;fill:#cccccc;"/>
<rect x="66.000000" y="78.000000" width="90.300000" height="24.000000" rx="0" ry="0" style="stroke:none;fill:#003366;"/>
</a>
<a xlink:href="harpe-0x7fe659123750.svg">
<text x="111.150000" y="92.000000" font-family="Arial" font-size="7" text-anchor="middle" fill="#FFFFFF">harpe(0.5f)(21)(48)</text>
</a>
<circle cx="68.000000" cy="80.000000" r="1"/>
<line x1="63.000000" y1="89.000000" x2="66.000000" y2="90.000000"  transform="rotate(0.000000,66.000000,90.000000)" style="stroke: black; stroke-width:0.25;"/>
<line x1="63.000000" y1="91.000000" x2="66.000000" y2="90.000000"  transform="rotate(0.000000,66.000000,90.000000)" style="stroke: black; stroke-width:0.25;"/>
<rect x="213.300000" y="53.000000" width="24.000000" height="24.000000" rx="0" ry="0" style="stroke:none;fill:#cccccc;"/>
<rect x="212.300000" y="52.000000" width="24.000000" height="24.000000" rx="0" ry="0" style="stroke:none;fill:#f44800;"/>
<text x="224.300000" y="66.000000" font-family="Arial" font-size="7" text-anchor="middle" fill="#FFFFFF">0.9</text>
<circle cx="214.300000" cy="54.000000" r="1"/>
<line x1="203.300000" y1="43.000000" x2="203.300000" y2="85.000000"  style="stroke: black; stroke-linecap:round; stroke-width:0.25; stroke-dasharray:3,3;"/>
<line x1="203.300000" y1="85.000000" x2="245.300000" y2="85.000000"  style="stroke: black; stroke-linecap:round; stroke-width:0.25; stroke-dasharray:3,3;"/>
<line x1="245.300000" y1="85.000000" x2="245.300000" y2="43.000000"  style="stroke: black; stroke-linecap:round; stroke-width:0.25; stroke-dasharray:3,3;"/>
<line x1="203.300000" y1="43.000000" x2="208.300000" y2="43.000000"  style="stroke: black; stroke-linecap:round; stroke-width:0.25; stroke-dasharray:3,3;"/>
<line x1="217.975000" y1="43.000000" x2="245.300000" y2="43.000000"  style="stroke: black; stroke-linecap:round; stroke-width:0.25; stroke-dasharray:3,3;"/>
<text x="208.300000" y="45.000000" font-family="Arial" font-size="7">l</text>
<rect x="263.300000" y="49.000000" width="24.000000" height="24.000000" rx="0" ry="0" style="stroke:none;fill:#cccccc;"/>
<rect x="262.300000" y="48.000000" width="24.000000" height="24.000000" rx="0" ry="0" style="stroke:none;fill:#4B71A1;"/>
<text x="274.300000" y="62.000000" font-family="Arial" font-size="7" text-anchor="middle" fill="#FFFFFF">*</text>
<circle cx="264.300000" cy="50.000000" r="1"/>
<line x1="259.300000" y1="55.000000" x2="262.300000" y2="56.000000"  transform="rotate(0.000000,262.300000,56.000000)" style="stroke: black; stroke-width:0.25;"/>
<line x1="259.300000" y1="57.000000" x2="262.300000" y2="56.000000"  transform="rotate(0.000000,262.300000,56.000000)" style="stroke: black; stroke-width:0.25;"/>
<line x1="259.300000" y1="63.000000" x2="262.300000" y2="64.000000"  transform="rotate(0.000000,262.300000,64.000000)" style="stroke: black; stroke-width:0.25;"/>
<line x1="259.300000" y1="65.000000" x2="262.300000" y2="64.000000"  transform="rotate(0.000000,262.300000,64.000000)" style="stroke: black; stroke-width:0.25;"/>
<rect x="213.300000" y="113.000000" width="24.000000" height="24.000000" rx="0" ry="0" style="stroke:none;fill:#cccccc;"/>
<rect x="212.300000" y="112.000000" width="24.000000" height="24.000000" rx="0" ry="0" style="stroke:none;fill:#f44800;"/>
<text x="224.300000" y="126.000000" font-family="Arial" font-size="7" text-anchor="middle" fill="#FFFFFF">0.9</text>
<circle cx="214.300000" cy="114.000000" r="1"/>
<line x1="203.300000" y1="103.000000" x2="203.300000" y2="145.000000"  style="stroke: black; stroke-linecap:round; stroke-width:0.25; stroke-dasharray:3,3;"/>
<line x1="203.300000" y1="145.000000" x2="245.300000" y2="145.000000"  style="stroke: black; stroke-linecap:round; stroke-width:0.25; stroke-dasharray:3,3;"/>
<line x1="245.300000" y1="145.000000" x2="245.300000" y2="103.000000"  style="stroke: black; stroke-linecap:round; stroke-width:0.25; stroke-dasharray:3,3;"/>
<line x1="203.300000" y1="103.000000" x2="208.300000" y2="103.000000"  style="stroke: black; stroke-linecap:round; stroke-width:0.25; stroke-dasharray:3,3;"/>
<line x1="217.975000" y1="103.000000" x2="245.300000" y2="103.000000"  style="stroke: black; stroke-linecap:round; stroke-width:0.25; stroke-dasharray:3,3;"/>
<text x="208.300000" y="105.000000" font-family="Arial" font-size="7">l</text>
<rect x="263.300000" y="109.000000" width="24.000000" height="24.000000" rx="0" ry="0" style="stroke:none;fill:#cccccc;"/>
<rect x="262.300000" y="108.000000" width="24.000000" height="24.000000" rx="0" ry="0" style="stroke:none;fill:#4B71A1;"/>
<text x="274.300000" y="122.000000" font-family="Arial" font-size="7" text-anchor="middle" fill="#FFFFFF">*</text>
<circle cx="264.300000" cy="110.000000" r="1"/>
<line x1="259.300000" y1="115.000000" x2="262.300000" y2="116.000000"  transform="rotate(0.000000,262.300000,116.000000)" style="stroke: black; stroke-width:0.25;"/>
<line x1="259.300000" y1="117.000000" x2="262.300000" y2="116.000000"  transform="rotate(0.000000,262.300000,116.000000)" style="stroke: black; stroke-width:0.25;"/>
<line x1="259.300000" y1="123.000000" x2="262.300000" y2="124.000000"  transform="rotate(0.000000,262.300000,124.000000)" style="stroke: black; stroke-width:0.25;"/>
<line x1="259.300000" y1="125.000000" x2="262.300000" y2="124.000000"  transform="rotate(0.000000,262.300000,124.000000)" style="stroke: black; stroke-width:0.25;"/>
<line x1="25.000000" y1="25.000000" x2="25.000000" y2="155.000000"  style="stroke: black; stroke-linecap:round; stroke-width:0.25; stroke-dasharray:3,3;"/>
<line x1="25.000000" y1="155.000000" x2="295.300000" y2="155.000000"  style="stroke: black; stroke-linecap:round; stroke-width:0.25; stroke-dasharray:3,3;"/>
<line x1="295.300000" y1="155.000000" x2="295.300000" y2="25.000000"  style="stroke: black; stroke-linecap:round; stroke-width:0.25; stroke-dasharray:3,3;"/>
<line x1="25.000000" y1="25.000000" x2="30.000000" y2="25.000000"  style="stroke: black; stroke-linecap:round; stroke-width:0.25; stroke-dasharray:3,3;"/>
<line x1="75.150000" y1="25.000000" x2="295.300000" y2="25.000000"  style="stroke: black; stroke-linecap:round; stroke-width:0.25; stroke-dasharray:3,3;"/>
<text x="30.000000" y="27.000000" font-family="Arial" font-size="7">hgroup(harp)</text>
<line x1="15.000000" y1="15.000000" x2="15.000000" y2="165.000000"  style="stroke: black; stroke-linecap:round; stroke-width:0.25; stroke-dasharray:3,3;"/>
<line x1="15.000000" y1="165.000000" x2="321.300000" y2="165.000000"  style="stroke: black; stroke-linecap:round; stroke-width:0.25; stroke-dasharray:3,3;"/>
<line x1="321.300000" y1="165.000000" x2="321.300000" y2="15.000000"  style="stroke: black; stroke-linecap:round; stroke-width:0.25; stroke-dasharray:3,3;"/>
<line x1="15.000000" y1="15.000000" x2="20.000000" y2="15.000000"  style="stroke: black; stroke-linecap:round; stroke-width:0.25; stroke-dasharray:3,3;"/>
<line x1="49.025000" y1="15.000000" x2="321.300000" y2="15.000000"  style="stroke: black; stroke-linecap:round; stroke-width:0.25; stroke-dasharray:3,3;"/>
<text x="20.000000" y="17.000000" font-family="Arial" font-size="7">process</text>
<line x1="323.300000" y1="85.000000" x2="326.300000" y2="86.000000"  transform="rotate(0.000000,326.300000,86.000000)" style="stroke: black; stroke-width:0.25;"/>
<line x1="323.300000" y1="87.000000" x2="326.300000" y2="86.000000"  transform="rotate(0.000000,326.300000,86.000000)" style="stroke: black; stroke-width:0.25;"/>
<line x1="323.300000" y1="93.000000" x2="326.300000" y2="94.000000"  transform="rotate(0.000000,326.300000,94.000000)" style="stroke: black; stroke-width:0.25;"/>
<line x1="323.300000" y1="95.000000" x2="326.300000" y2="94.000000"  transform="rotate(0.000000,326.300000,94.000000)" style="stroke: black; stroke-width:0.25;"/>
<line x1="58.000000" y1="90.000000" x2="62.000000" y2="90.000000"  style="stroke:black; stroke-linecap:round; stroke-width:0.25;"/>
<line x1="62.000000" y1="90.000000" x2="62.000000" y2="90.000000"  style="stroke:black; stroke-linecap:round; stroke-width:0.25;"/>
<line x1="62.000000" y1="90.000000" x2="66.000000" y2="90.000000"  style="stroke:black; stroke-linecap:round; stroke-width:0.25;"/>
<line x1="156.300000" y1="86.000000" x2="160.300000" y2="86.000000"  style="stroke:black; stroke-linecap:round; stroke-width:0.25;"/>
<line x1="156.300000" y1="94.000000" x2="160.300000" y2="94.000000"  style="stroke:black; stroke-linecap:round; stroke-width:0.25;"/>
<line x1="160.300000" y1="86.000000" x2="198.300000" y2="34.000000"  style="stroke:black; stroke-linecap:round; stroke-width:0.25;"/>
<line x1="160.300000" y1="94.000000" x2="198.300000" y2="94.000000"  style="stroke:black; stroke-linecap:round; stroke-width:0.25;"/>
<line x1="198.300000" y1="34.000000" x2="224.300000" y2="34.000000"  style="stroke:black; stroke-linecap:round; stroke-width:0.25;"/>
<line x1="198.300000" y1="94.000000" x2="224.300000" y2="94.000000"  style="stroke:black; stroke-linecap:round; stroke-width:0.25;"/>
<line x1="224.300000" y1="34.000000" x2="250.300000" y2="34.000000"  style="stroke:black; stroke-linecap:round; stroke-width:0.25;"/>
<line x1="224.300000" y1="94.000000" x2="250.300000" y2="94.000000"  style="stroke:black; stroke-linecap:round; stroke-width:0.25;"/>
<line x1="236.300000" y1="64.000000" x2="240.300000" y2="64.000000"  style="stroke:black; stroke-linecap:round; stroke-width:0.25;"/>
<line x1="236.300000" y1="124.000000" x2="240.300000" y2="124.000000"  style="stroke:black; stroke-linecap:round; stroke-width:0.25;"/>
<line x1="240.300000" y1="64.000000" x2="250.300000" y2="64.000000"  style="stroke:black; stroke-linecap:round; stroke-width:0.25;"/>
<line x1="240.300000" y1="124.000000" x2="250.300000" y2="124.000000"  style="stroke:black; stroke-linecap:round; stroke-width:0.25;"/>
<line x1="250.300000" y1="34.000000" x2="258.300000" y2="34.000000"  style="stroke:black; stroke-linecap:round; stroke-width:0.25;"/>
<line x1="250.300000" y1="64.000000" x2="258.300000" y2="64.000000"  style="stroke:black; stroke-linecap:round; stroke-width:0.25;"/>
<line x1="250.300000" y1="94.000000" x2="258.300000" y2="94.000000"  style="stroke:black; stroke-linecap:round; stroke-width:0.25;"/>
<line x1="250.300000" y1="124.000000" x2="258.300000" y2="124.000000"  style="stroke:black; stroke-linecap:round; stroke-width:0.25;"/>
<line x1="258.300000" y1="34.000000" x2="258.300000" y2="56.000000"  style="stroke:black; stroke-linecap:round; stroke-width:0.25;"/>
<line x1="258.300000" y1="56.000000" x2="258.300000" y2="56.000000"  style="stroke:black; stroke-linecap:round; stroke-width:0.25;"/>
<line x1="258.300000" y1="56.000000" x2="262.300000" y2="56.000000"  style="stroke:black; stroke-linecap:round; stroke-width:0.25;"/>
<line x1="258.300000" y1="64.000000" x2="262.300000" y2="64.000000"  style="stroke:black; stroke-linecap:round; stroke-width:0.25;"/>
<line x1="258.300000" y1="94.000000" x2="258.300000" y2="116.000000"  style="stroke:black; stroke-linecap:round; stroke-width:0.25;"/>
<line x1="258.300000" y1="116.000000" x2="258.300000" y2="116.000000"  style="stroke:black; stroke-linecap:round; stroke-width:0.25;"/>
<line x1="258.300000" y1="116.000000" x2="262.300000" y2="116.000000"  style="stroke:black; stroke-linecap:round; stroke-width:0.25;"/>
<line x1="258.300000" y1="124.000000" x2="262.300000" y2="124.000000"  style="stroke:black; stroke-linecap:round; stroke-width:0.25;"/>
<line x1="286.300000" y1="60.000000" x2="290.300000" y2="60.000000"  style="stroke:black; stroke-linecap:round; stroke-width:0.25;"/>
<line x1="286.300000" y1="120.000000" x2="290.300000" y2="120.000000"  style="stroke:black; stroke-linecap:round; stroke-width:0.25;"/>
<line x1="290.300000" y1="60.000000" x2="300.300000" y2="60.000000"  style="stroke:black; stroke-linecap:round; stroke-width:0.25;"/>
<line x1="290.300000" y1="120.000000" x2="300.300000" y2="120.000000"  style="stroke:black; stroke-linecap:round; stroke-width:0.25;"/>
<line x1="300.300000" y1="60.000000" x2="308.300000" y2="60.000000"  style="stroke:black; stroke-linecap:round; stroke-width:0.25;"/>
<line x1="300.300000" y1="94.000000" x2="308.300000" y2="94.000000"  style="stroke:black; stroke-linecap:round; stroke-width:0.25;"/>
<line x1="300.300000" y1="120.000000" x2="300.300000" y2="94.000000"  style="stroke:black; stroke-linecap:round; stroke-width:0.25;"/>
<line x1="300.300000" y1="120.000000" x2="300.300000" y2="120.000000"  style="stroke:black; stroke-linecap:round; stroke-width:0.25;"/>
<line x1="308.300000" y1="60.000000" x2="308.300000" y2="86.000000"  style="stroke:black; stroke-linecap:round; stroke-width:0.25;"/>
<line x1="308.300000" y1="86.000000" x2="308.300000" y2="86.000000"  style="stroke:black; stroke-linecap:round; stroke-width:0.25;"/>
<line x1="308.300000" y1="86.000000" x2="312.300000" y2="86.000000"  style="stroke:black; stroke-linecap:round; stroke-width:0.25;"/>
<line x1="308.300000" y1="94.000000" x2="312.300000" y2="94.000000"  style="stroke:black; stroke-linecap:round; stroke-width:0.25;"/>
<line x1="312.300000" y1="86.000000" x2="316.300000" y2="86.000000"  style="stroke:black; stroke-linecap:round; stroke-width:0.25;"/>
<line x1="312.300000" y1="94.000000" x2="316.300000" y2="94.000000"  style="stroke:black; stroke-linecap:round; stroke-width:0.25;"/>
<line x1="316.300000" y1="86.000000" x2="326.300000" y2="86.000000"  style="stroke:black; stroke-linecap:round; stroke-width:0.25;"/>
<line x1="316.300000" y1="94.000000" x2="326.300000" y2="94.000000"  style="stroke:black; stroke-linecap:round; stroke-width:0.25;"/>
</svg>
