<?xml version="1.0"?>
<svg xmlns="http://www.w3.org/2000/svg" xmlns:xlink="http://www.w3.org/1999/xlink" viewBox="0 0 257.800000 88.000000" width="128.900000mm" height="44.000000mm" version="1.1">
<a xlink:href="automat-0x7f944391e540.svg">
<rect x="1.000000" y="1.000000" width="256.800000" height="87.000000" rx="0" ry="0" style="stroke:none;fill:#cccccc;"/>
<rect x="0.000000" y="0.000000" width="256.800000" height="87.000000" rx="0" ry="0" style="stroke:none;fill:#ffffff;"/>
</a>
<text x="10.000000" y="7.000000" font-family="Arial" font-size="7"></text>
<a xlink:href="clock-0x7f94416fac10.svg">
<rect x="25.000000" y="33.000000" width="25.800000" height="24.000000" rx="0" ry="0" style="stroke:none;fill:#cccccc;"/>
<rect x="24.000000" y="32.000000" width="25.800000" height="24.000000" rx="0" ry="0" style="stroke:none;fill:#003366;"/>
</a>
<a xlink:href="clock-0x7f94416fac10.svg">
<text x="36.900000" y="46.000000" font-family="Arial" font-size="7" text-anchor="middle" fill="#FFFFFF">clock</text>
</a>
<circle cx="26.000000" cy="34.000000" r="1"/>
<rect x="58.800000" y="33.000000" width="24.000000" height="24.000000" rx="0" ry="0" style="stroke:none;fill:#cccccc;"/>
<rect x="57.800000" y="32.000000" width="24.000000" height="24.000000" rx="0" ry="0" style="stroke:none;fill:#4B71A1;"/>
<text x="69.800000" y="46.000000" font-family="Arial" font-size="7" text-anchor="middle" fill="#FFFFFF">int</text>
<circle cx="59.800000" cy="34.000000" r="1"/>
<line x1="54.800000" y1="43.000000" x2="57.800000" y2="44.000000"  transform="rotate(0.000000,57.800000,44.000000)" style="stroke: black; stroke-width:0.25;"/>
<line x1="54.800000" y1="45.000000" x2="57.800000" y2="44.000000"  transform="rotate(0.000000,57.800000,44.000000)" style="stroke: black; stroke-width:0.25;"/>
<rect x="106.800000" y="37.000000" width="24.000000" height="24.000000" rx="0" ry="0" style="stroke:none;fill:#cccccc;"/>
<rect x="105.800000" y="36.000000" width="24.000000" height="24.000000" rx="0" ry="0" style="stroke:none;fill:#4B71A1;"/>
<text x="117.800000" y="50.000000" font-family="Arial" font-size="7" text-anchor="middle" fill="#FFFFFF">+</text>
<circle cx="107.800000" cy="38.000000" r="1"/>
<line x1="102.800000" y1="43.000000" x2="105.800000" y2="44.000000"  transform="rotate(0.000000,105.800000,44.000000)" style="stroke: black; stroke-width:0.25;"/>
<line x1="102.800000" y1="45.000000" x2="105.800000" y2="44.000000"  transform="rotate(0.000000,105.800000,44.000000)" style="stroke: black; stroke-width:0.25;"/>
<line x1="102.800000" y1="51.000000" x2="105.800000" y2="52.000000"  transform="rotate(0.000000,105.800000,52.000000)" style="stroke: black; stroke-width:0.25;"/>
<line x1="102.800000" y1="53.000000" x2="105.800000" y2="52.000000"  transform="rotate(0.000000,105.800000,52.000000)" style="stroke: black; stroke-width:0.25;"/>
<rect x="146.800000" y="41.000000" width="24.000000" height="24.000000" rx="0" ry="0" style="stroke:none;fill:#cccccc;"/>
<rect x="145.800000" y="40.000000" width="24.000000" height="24.000000" rx="0" ry="0" style="stroke:none;fill:#f44800;"/>
<text x="157.800000" y="54.000000" font-family="Arial" font-size="7" text-anchor="middle" fill="#FFFFFF">15</text>
<circle cx="147.800000" cy="42.000000" r="1"/>
<rect x="186.800000" y="37.000000" width="24.000000" height="24.000000" rx="0" ry="0" style="stroke:none;fill:#cccccc;"/>
<rect x="185.800000" y="36.000000" width="24.000000" height="24.000000" rx="0" ry="0" style="stroke:none;fill:#4B71A1;"/>
<text x="197.800000" y="50.000000" font-family="Arial" font-size="7" text-anchor="middle" fill="#FFFFFF">%</text>
<circle cx="187.800000" cy="38.000000" r="1"/>
<line x1="182.800000" y1="43.000000" x2="185.800000" y2="44.000000"  transform="rotate(0.000000,185.800000,44.000000)" style="stroke: black; stroke-width:0.25;"/>
<line x1="182.800000" y1="45.000000" x2="185.800000" y2="44.000000"  transform="rotate(0.000000,185.800000,44.000000)" style="stroke: black; stroke-width:0.25;"/>
<line x1="182.800000" y1="51.000000" x2="185.800000" y2="52.000000"  transform="rotate(0.000000,185.800000,52.000000)" style="stroke: black; stroke-width:0.25;"/>
<line x1="182.800000" y1="53.000000" x2="185.800000" y2="52.000000"  transform="rotate(0.000000,185.800000,52.000000)" style="stroke: black; stroke-width:0.25;"/>
<line x1="211.800000" y1="48.000000" x2="211.800000" y2="44.000000"  style="stroke:black; stroke-linecap:round; stroke-width:0.25;"/>
<line x1="211.800000" y1="44.000000" x2="215.800000" y2="44.000000"  style="stroke:black; stroke-linecap:round; stroke-width:0.25;"/>
<line x1="215.800000" y1="44.000000" x2="215.800000" y2="48.000000"  style="stroke:black; stroke-linecap:round; stroke-width:0.25;"/>
<line x1="15.000000" y1="15.000000" x2="15.000000" y2="73.000000"  style="stroke: black; stroke-linecap:round; stroke-width:0.25; stroke-dasharray:3,3;"/>
<line x1="15.000000" y1="73.000000" x2="242.800000" y2="73.000000"  style="stroke: black; stroke-linecap:round; stroke-width:0.25; stroke-dasharray:3,3;"/>
<line x1="242.800000" y1="73.000000" x2="242.800000" y2="15.000000"  style="stroke: black; stroke-linecap:round; stroke-width:0.25; stroke-dasharray:3,3;"/>
<line x1="15.000000" y1="15.000000" x2="20.000000" y2="15.000000"  style="stroke: black; stroke-linecap:round; stroke-width:0.25; stroke-dasharray:3,3;"/>
<line x1="45.800000" y1="15.000000" x2="242.800000" y2="15.000000"  style="stroke: black; stroke-linecap:round; stroke-width:0.25; stroke-dasharray:3,3;"/>
<text x="20.000000" y="17.000000" font-family="Arial" font-size="7">rindex</text>
<line x1="244.800000" y1="43.000000" x2="247.800000" y2="44.000000"  transform="rotate(0.000000,247.800000,44.000000)" style="stroke: black; stroke-width:0.25;"/>
<line x1="244.800000" y1="45.000000" x2="247.800000" y2="44.000000"  transform="rotate(0.000000,247.800000,44.000000)" style="stroke: black; stroke-width:0.25;"/>
<line x1="49.800000" y1="44.000000" x2="53.800000" y2="44.000000"  style="stroke:black; stroke-linecap:round; stroke-width:0.25;"/>
<line x1="53.800000" y1="44.000000" x2="53.800000" y2="44.000000"  style="stroke:black; stroke-linecap:round; stroke-width:0.25;"/>
<line x1="53.800000" y1="44.000000" x2="57.800000" y2="44.000000"  style="stroke:black; stroke-linecap:round; stroke-width:0.25;"/>
<line x1="81.800000" y1="44.000000" x2="85.800000" y2="44.000000"  style="stroke:black; stroke-linecap:round; stroke-width:0.25;"/>
<line x1="85.800000" y1="44.000000" x2="93.800000" y2="44.000000"  style="stroke:black; stroke-linecap:round; stroke-width:0.25;"/>
<line x1="93.800000" y1="44.000000" x2="93.800000" y2="52.000000"  style="stroke:black; stroke-linecap:round; stroke-width:0.25;"/>
<line x1="93.800000" y1="52.000000" x2="93.800000" y2="52.000000"  style="stroke:black; stroke-linecap:round; stroke-width:0.25;"/>
<line x1="93.800000" y1="52.000000" x2="101.800000" y2="52.000000"  style="stroke:black; stroke-linecap:round; stroke-width:0.25;"/>
<line x1="101.800000" y1="44.000000" x2="105.800000" y2="44.000000"  style="stroke:black; stroke-linecap:round; stroke-width:0.25;"/>
<line x1="101.800000" y1="52.000000" x2="105.800000" y2="52.000000"  style="stroke:black; stroke-linecap:round; stroke-width:0.25;"/>
<line x1="101.800000" y1="24.000000" x2="101.800000" y2="24.000000"  style="stroke:black; stroke-linecap:round; stroke-width:0.25;"/>
<line x1="101.800000" y1="24.000000" x2="101.800000" y2="44.000000"  style="stroke:black; stroke-linecap:round; stroke-width:0.25;"/>
<line x1="101.800000" y1="44.000000" x2="101.800000" y2="44.000000"  style="stroke:black; stroke-linecap:round; stroke-width:0.25;"/>
<line x1="129.800000" y1="48.000000" x2="133.800000" y2="48.000000"  style="stroke:black; stroke-linecap:round; stroke-width:0.25;"/>
<line x1="133.800000" y1="32.000000" x2="141.800000" y2="32.000000"  style="stroke:black; stroke-linecap:round; stroke-width:0.25;"/>
<line x1="133.800000" y1="48.000000" x2="133.800000" y2="32.000000"  style="stroke:black; stroke-linecap:round; stroke-width:0.25;"/>
<line x1="133.800000" y1="48.000000" x2="133.800000" y2="48.000000"  style="stroke:black; stroke-linecap:round; stroke-width:0.25;"/>
<line x1="141.800000" y1="32.000000" x2="157.800000" y2="32.000000"  style="stroke:black; stroke-linecap:round; stroke-width:0.25;"/>
<line x1="157.800000" y1="24.000000" x2="101.800000" y2="24.000000"  style="stroke:black; stroke-linecap:round; stroke-width:0.25;"/>
<line x1="157.800000" y1="32.000000" x2="173.800000" y2="32.000000"  style="stroke:black; stroke-linecap:round; stroke-width:0.25;"/>
<line x1="169.800000" y1="52.000000" x2="173.800000" y2="52.000000"  style="stroke:black; stroke-linecap:round; stroke-width:0.25;"/>
<line x1="173.800000" y1="32.000000" x2="181.800000" y2="32.000000"  style="stroke:black; stroke-linecap:round; stroke-width:0.25;"/>
<line x1="173.800000" y1="52.000000" x2="181.800000" y2="52.000000"  style="stroke:black; stroke-linecap:round; stroke-width:0.25;"/>
<line x1="181.800000" y1="32.000000" x2="181.800000" y2="44.000000"  style="stroke:black; stroke-linecap:round; stroke-width:0.25;"/>
<line x1="181.800000" y1="44.000000" x2="181.800000" y2="44.000000"  style="stroke:black; stroke-linecap:round; stroke-width:0.25;"/>
<line x1="181.800000" y1="44.000000" x2="185.800000" y2="44.000000"  style="stroke:black; stroke-linecap:round; stroke-width:0.25;"/>
<line x1="181.800000" y1="52.000000" x2="185.800000" y2="52.000000"  style="stroke:black; stroke-linecap:round; stroke-width:0.25;"/>
<line x1="209.800000" y1="48.000000" x2="213.800000" y2="48.000000"  style="stroke:black; stroke-linecap:round; stroke-width:0.25;"/>
<line x1="213.800000" y1="24.000000" x2="157.800000" y2="24.000000"  style="stroke:black; stroke-linecap:round; stroke-width:0.25;"/>
<line x1="213.800000" y1="24.000000" x2="213.800000" y2="24.000000"  style="stroke:black; stroke-linecap:round; stroke-width:0.25;"/>
<line x1="213.800000" y1="44.000000" x2="213.800000" y2="24.000000"  style="stroke:black; stroke-linecap:round; stroke-width:0.25;"/>
<line x1="213.800000" y1="48.000000" x2="215.800000" y2="48.000000"  style="stroke:black; stroke-linecap:round; stroke-width:0.25;"/>
<line x1="215.800000" y1="48.000000" x2="221.800000" y2="48.000000"  style="stroke:black; stroke-linecap:round; stroke-width:0.25;"/>
<line x1="221.800000" y1="44.000000" x2="229.800000" y2="44.000000"  style="stroke:black; stroke-linecap:round; stroke-width:0.25;"/>
<line x1="221.800000" y1="48.000000" x2="221.800000" y2="44.000000"  style="stroke:black; stroke-linecap:round; stroke-width:0.25;"/>
<line x1="221.800000" y1="48.000000" x2="221.800000" y2="48.000000"  style="stroke:black; stroke-linecap:round; stroke-width:0.25;"/>
<line x1="229.800000" y1="44.000000" x2="233.800000" y2="44.000000"  style="stroke:black; stroke-linecap:round; stroke-width:0.25;"/>
<line x1="233.800000" y1="44.000000" x2="237.800000" y2="44.000000"  style="stroke:black; stroke-linecap:round; stroke-width:0.25;"/>
<line x1="237.800000" y1="44.000000" x2="247.800000" y2="44.000000"  style="stroke:black; stroke-linecap:round; stroke-width:0.25;"/>
</svg>
