<?xml version="1.0"?>
<svg xmlns="http://www.w3.org/2000/svg" xmlns:xlink="http://www.w3.org/1999/xlink" viewBox="0 0 753.200000 344.000000" width="376.600000mm" height="172.000000mm" version="1.1">
<rect x="1.000000" y="1.000000" width="752.200000" height="343.000000" rx="0" ry="0" style="stroke:none;fill:#cccccc;"/>
<rect x="0.000000" y="0.000000" width="752.200000" height="343.000000" rx="0" ry="0" style="stroke:none;fill:#ffffff;"/>
<text x="10.000000" y="7.000000" font-family="Arial" font-size="7"></text>
<rect x="131.000000" y="43.000000" width="25.800000" height="24.000000" rx="0" ry="0" style="stroke:none;fill:#cccccc;"/>
<rect x="130.000000" y="42.000000" width="25.800000" height="24.000000" rx="0" ry="0" style="stroke:none;fill:#f44800;"/>
<text x="142.900000" y="56.000000" font-family="Arial" font-size="7" text-anchor="middle" fill="#FFFFFF">0.05</text>
<circle cx="132.000000" cy="44.000000" r="1"/>
<line x1="121.000000" y1="33.000000" x2="121.000000" y2="75.000000"  style="stroke: black; stroke-linecap:round; stroke-width:0.25; stroke-dasharray:3,3;"/>
<line x1="121.000000" y1="75.000000" x2="164.800000" y2="75.000000"  style="stroke: black; stroke-linecap:round; stroke-width:0.25; stroke-dasharray:3,3;"/>
<line x1="164.800000" y1="75.000000" x2="164.800000" y2="33.000000"  style="stroke: black; stroke-linecap:round; stroke-width:0.25; stroke-dasharray:3,3;"/>
<line x1="121.000000" y1="33.000000" x2="126.000000" y2="33.000000"  style="stroke: black; stroke-linecap:round; stroke-width:0.25; stroke-dasharray:3,3;"/>
<line x1="161.475000" y1="33.000000" x2="164.800000" y2="33.000000"  style="stroke: black; stroke-linecap:round; stroke-width:0.25; stroke-dasharray:3,3;"/>
<text x="126.000000" y="35.000000" font-family="Arial" font-size="7">fixedgain</text>
<rect x="182.800000" y="39.000000" width="24.000000" height="24.000000" rx="0" ry="0" style="stroke:none;fill:#cccccc;"/>
<rect x="181.800000" y="38.000000" width="24.000000" height="24.000000" rx="0" ry="0" style="stroke:none;fill:#4B71A1;"/>
<text x="193.800000" y="52.000000" font-family="Arial" font-size="7" text-anchor="middle" fill="#FFFFFF">*</text>
<circle cx="183.800000" cy="40.000000" r="1"/>
<line x1="178.800000" y1="45.000000" x2="181.800000" y2="46.000000"  transform="rotate(0.000000,181.800000,46.000000)" style="stroke: black; stroke-width:0.25;"/>
<line x1="178.800000" y1="47.000000" x2="181.800000" y2="46.000000"  transform="rotate(0.000000,181.800000,46.000000)" style="stroke: black; stroke-width:0.25;"/>
<line x1="178.800000" y1="53.000000" x2="181.800000" y2="54.000000"  transform="rotate(0.000000,181.800000,54.000000)" style="stroke: black; stroke-width:0.25;"/>
<line x1="178.800000" y1="55.000000" x2="181.800000" y2="54.000000"  transform="rotate(0.000000,181.800000,54.000000)" style="stroke: black; stroke-width:0.25;"/>
<rect x="131.000000" y="103.000000" width="25.800000" height="24.000000" rx="0" ry="0" style="stroke:none;fill:#cccccc;"/>
<rect x="130.000000" y="102.000000" width="25.800000" height="24.000000" rx="0" ry="0" style="stroke:none;fill:#f44800;"/>
<text x="142.900000" y="116.000000" font-family="Arial" font-size="7" text-anchor="middle" fill="#FFFFFF">0.05</text>
<circle cx="132.000000" cy="104.000000" r="1"/>
<line x1="121.000000" y1="93.000000" x2="121.000000" y2="135.000000"  style="stroke: black; stroke-linecap:round; stroke-width:0.25; stroke-dasharray:3,3;"/>
<line x1="121.000000" y1="135.000000" x2="164.800000" y2="135.000000"  style="stroke: black; stroke-linecap:round; stroke-width:0.25; stroke-dasharray:3,3;"/>
<line x1="164.800000" y1="135.000000" x2="164.800000" y2="93.000000"  style="stroke: black; stroke-linecap:round; stroke-width:0.25; stroke-dasharray:3,3;"/>
<line x1="121.000000" y1="93.000000" x2="126.000000" y2="93.000000"  style="stroke: black; stroke-linecap:round; stroke-width:0.25; stroke-dasharray:3,3;"/>
<line x1="161.475000" y1="93.000000" x2="164.800000" y2="93.000000"  style="stroke: black; stroke-linecap:round; stroke-width:0.25; stroke-dasharray:3,3;"/>
<text x="126.000000" y="95.000000" font-family="Arial" font-size="7">fixedgain</text>
<rect x="182.800000" y="99.000000" width="24.000000" height="24.000000" rx="0" ry="0" style="stroke:none;fill:#cccccc;"/>
<rect x="181.800000" y="98.000000" width="24.000000" height="24.000000" rx="0" ry="0" style="stroke:none;fill:#4B71A1;"/>
<text x="193.800000" y="112.000000" font-family="Arial" font-size="7" text-anchor="middle" fill="#FFFFFF">*</text>
<circle cx="183.800000" cy="100.000000" r="1"/>
<line x1="178.800000" y1="105.000000" x2="181.800000" y2="106.000000"  transform="rotate(0.000000,181.800000,106.000000)" style="stroke: black; stroke-width:0.25;"/>
<line x1="178.800000" y1="107.000000" x2="181.800000" y2="106.000000"  transform="rotate(0.000000,181.800000,106.000000)" style="stroke: black; stroke-width:0.25;"/>
<line x1="178.800000" y1="113.000000" x2="181.800000" y2="114.000000"  transform="rotate(0.000000,181.800000,114.000000)" style="stroke: black; stroke-width:0.25;"/>
<line x1="178.800000" y1="115.000000" x2="181.800000" y2="114.000000"  transform="rotate(0.000000,181.800000,114.000000)" style="stroke: black; stroke-width:0.25;"/>
<a xlink:href="stereoReverb-0x7f8e60dab380.svg">
<rect x="222.800000" y="69.000000" width="141.900000" height="24.000000" rx="0" ry="0" style="stroke:none;fill:#cccccc;"/>
<rect x="221.800000" y="68.000000" width="141.900000" height="24.000000" rx="0" ry="0" style="stroke:none;fill:#003366;"/>
</a>
<a xlink:href="stereoReverb-0x7f8e60dab380.svg">
<text x="292.750000" y="82.000000" font-family="Arial" font-size="7" text-anchor="middle" fill="#FFFFFF">stereoReverb(...00000000004f)(23)</text>
</a>
<circle cx="223.800000" cy="70.000000" r="1"/>
<line x1="218.800000" y1="75.000000" x2="221.800000" y2="76.000000"  transform="rotate(0.000000,221.800000,76.000000)" style="stroke: black; stroke-width:0.25;"/>
<line x1="218.800000" y1="77.000000" x2="221.800000" y2="76.000000"  transform="rotate(0.000000,221.800000,76.000000)" style="stroke: black; stroke-width:0.25;"/>
<line x1="218.800000" y1="83.000000" x2="221.800000" y2="84.000000"  transform="rotate(0.000000,221.800000,84.000000)" style="stroke: black; stroke-width:0.25;"/>
<line x1="218.800000" y1="85.000000" x2="221.800000" y2="84.000000"  transform="rotate(0.000000,221.800000,84.000000)" style="stroke: black; stroke-width:0.25;"/>
<rect x="390.700000" y="43.000000" width="193.500000" height="24.000000" rx="0" ry="0" style="stroke:none;fill:#cccccc;"/>
<rect x="389.700000" y="42.000000" width="193.500000" height="24.000000" rx="0" ry="0" style="stroke:none;fill:#477881;"/>
<text x="486.450000" y="56.000000" font-family="Arial" font-size="7" text-anchor="middle" fill="#FFFFFF">hslider(Reverb, 0.3333f, 0.0f, 1.0f, 0.025f)</text>
<circle cx="391.700000" cy="44.000000" r="1"/>
<line x1="380.700000" y1="33.000000" x2="380.700000" y2="75.000000"  style="stroke: black; stroke-linecap:round; stroke-width:0.25; stroke-dasharray:3,3;"/>
<line x1="380.700000" y1="75.000000" x2="592.200000" y2="75.000000"  style="stroke: black; stroke-linecap:round; stroke-width:0.25; stroke-dasharray:3,3;"/>
<line x1="592.200000" y1="75.000000" x2="592.200000" y2="33.000000"  style="stroke: black; stroke-linecap:round; stroke-width:0.25; stroke-dasharray:3,3;"/>
<line x1="380.700000" y1="33.000000" x2="385.700000" y2="33.000000"  style="stroke: black; stroke-linecap:round; stroke-width:0.25; stroke-dasharray:3,3;"/>
<line x1="421.175000" y1="33.000000" x2="592.200000" y2="33.000000"  style="stroke: black; stroke-linecap:round; stroke-width:0.25; stroke-dasharray:3,3;"/>
<text x="385.700000" y="35.000000" font-family="Arial" font-size="7">wetSlider</text>
<rect x="610.200000" y="39.000000" width="24.000000" height="24.000000" rx="0" ry="0" style="stroke:none;fill:#cccccc;"/>
<rect x="609.200000" y="38.000000" width="24.000000" height="24.000000" rx="0" ry="0" style="stroke:none;fill:#4B71A1;"/>
<text x="621.200000" y="52.000000" font-family="Arial" font-size="7" text-anchor="middle" fill="#FFFFFF">*</text>
<circle cx="611.200000" cy="40.000000" r="1"/>
<line x1="606.200000" y1="45.000000" x2="609.200000" y2="46.000000"  transform="rotate(0.000000,609.200000,46.000000)" style="stroke: black; stroke-width:0.25;"/>
<line x1="606.200000" y1="47.000000" x2="609.200000" y2="46.000000"  transform="rotate(0.000000,609.200000,46.000000)" style="stroke: black; stroke-width:0.25;"/>
<line x1="606.200000" y1="53.000000" x2="609.200000" y2="54.000000"  transform="rotate(0.000000,609.200000,54.000000)" style="stroke: black; stroke-width:0.25;"/>
<line x1="606.200000" y1="55.000000" x2="609.200000" y2="54.000000"  transform="rotate(0.000000,609.200000,54.000000)" style="stroke: black; stroke-width:0.25;"/>
<rect x="390.700000" y="103.000000" width="193.500000" height="24.000000" rx="0" ry="0" style="stroke:none;fill:#cccccc;"/>
<rect x="389.700000" y="102.000000" width="193.500000" height="24.000000" rx="0" ry="0" style="stroke:none;fill:#477881;"/>
<text x="486.450000" y="116.000000" font-family="Arial" font-size="7" text-anchor="middle" fill="#FFFFFF">hslider(Reverb, 0.3333f, 0.0f, 1.0f, 0.025f)</text>
<circle cx="391.700000" cy="104.000000" r="1"/>
<line x1="380.700000" y1="93.000000" x2="380.700000" y2="135.000000"  style="stroke: black; stroke-linecap:round; stroke-width:0.25; stroke-dasharray:3,3;"/>
<line x1="380.700000" y1="135.000000" x2="592.200000" y2="135.000000"  style="stroke: black; stroke-linecap:round; stroke-width:0.25; stroke-dasharray:3,3;"/>
<line x1="592.200000" y1="135.000000" x2="592.200000" y2="93.000000"  style="stroke: black; stroke-linecap:round; stroke-width:0.25; stroke-dasharray:3,3;"/>
<line x1="380.700000" y1="93.000000" x2="385.700000" y2="93.000000"  style="stroke: black; stroke-linecap:round; stroke-width:0.25; stroke-dasharray:3,3;"/>
<line x1="421.175000" y1="93.000000" x2="592.200000" y2="93.000000"  style="stroke: black; stroke-linecap:round; stroke-width:0.25; stroke-dasharray:3,3;"/>
<text x="385.700000" y="95.000000" font-family="Arial" font-size="7">wetSlider</text>
<rect x="610.200000" y="99.000000" width="24.000000" height="24.000000" rx="0" ry="0" style="stroke:none;fill:#cccccc;"/>
<rect x="609.200000" y="98.000000" width="24.000000" height="24.000000" rx="0" ry="0" style="stroke:none;fill:#4B71A1;"/>
<text x="621.200000" y="112.000000" font-family="Arial" font-size="7" text-anchor="middle" fill="#FFFFFF">*</text>
<circle cx="611.200000" cy="100.000000" r="1"/>
<line x1="606.200000" y1="105.000000" x2="609.200000" y2="106.000000"  transform="rotate(0.000000,609.200000,106.000000)" style="stroke: black; stroke-width:0.25;"/>
<line x1="606.200000" y1="107.000000" x2="609.200000" y2="106.000000"  transform="rotate(0.000000,609.200000,106.000000)" style="stroke: black; stroke-width:0.25;"/>
<line x1="606.200000" y1="113.000000" x2="609.200000" y2="114.000000"  transform="rotate(0.000000,609.200000,114.000000)" style="stroke: black; stroke-width:0.25;"/>
<line x1="606.200000" y1="115.000000" x2="609.200000" y2="114.000000"  transform="rotate(0.000000,609.200000,114.000000)" style="stroke: black; stroke-width:0.25;"/>
<rect x="325.600000" y="153.000000" width="24.000000" height="24.000000" rx="0" ry="0" style="stroke:none;fill:#cccccc;"/>
<rect x="324.600000" y="152.000000" width="24.000000" height="24.000000" rx="0" ry="0" style="stroke:none;fill:#f44800;"/>
<text x="336.600000" y="166.000000" font-family="Arial" font-size="7" text-anchor="middle" fill="#FFFFFF">1</text>
<circle cx="326.600000" cy="154.000000" r="1"/>
<rect x="240.850000" y="195.000000" width="193.500000" height="24.000000" rx="0" ry="0" style="stroke:none;fill:#cccccc;"/>
<rect x="239.850000" y="194.000000" width="193.500000" height="24.000000" rx="0" ry="0" style="stroke:none;fill:#477881;"/>
<text x="336.600000" y="208.000000" font-family="Arial" font-size="7" text-anchor="middle" fill="#FFFFFF">hslider(Reverb, 0.3333f, 0.0f, 1.0f, 0.025f)</text>
<circle cx="241.850000" cy="196.000000" r="1"/>
<line x1="230.850000" y1="185.000000" x2="230.850000" y2="227.000000"  style="stroke: black; stroke-linecap:round; stroke-width:0.25; stroke-dasharray:3,3;"/>
<line x1="230.850000" y1="227.000000" x2="442.350000" y2="227.000000"  style="stroke: black; stroke-linecap:round; stroke-width:0.25; stroke-dasharray:3,3;"/>
<line x1="442.350000" y1="227.000000" x2="442.350000" y2="185.000000"  style="stroke: black; stroke-linecap:round; stroke-width:0.25; stroke-dasharray:3,3;"/>
<line x1="230.850000" y1="185.000000" x2="235.850000" y2="185.000000"  style="stroke: black; stroke-linecap:round; stroke-width:0.25; stroke-dasharray:3,3;"/>
<line x1="271.325000" y1="185.000000" x2="442.350000" y2="185.000000"  style="stroke: black; stroke-linecap:round; stroke-width:0.25; stroke-dasharray:3,3;"/>
<text x="235.850000" y="187.000000" font-family="Arial" font-size="7">wetSlider</text>
<rect x="460.350000" y="179.000000" width="24.000000" height="24.000000" rx="0" ry="0" style="stroke:none;fill:#cccccc;"/>
<rect x="459.350000" y="178.000000" width="24.000000" height="24.000000" rx="0" ry="0" style="stroke:none;fill:#4B71A1;"/>
<text x="471.350000" y="192.000000" font-family="Arial" font-size="7" text-anchor="middle" fill="#FFFFFF">-</text>
<circle cx="461.350000" cy="180.000000" r="1"/>
<line x1="456.350000" y1="185.000000" x2="459.350000" y2="186.000000"  transform="rotate(0.000000,459.350000,186.000000)" style="stroke: black; stroke-width:0.25;"/>
<line x1="456.350000" y1="187.000000" x2="459.350000" y2="186.000000"  transform="rotate(0.000000,459.350000,186.000000)" style="stroke: black; stroke-width:0.25;"/>
<line x1="456.350000" y1="193.000000" x2="459.350000" y2="194.000000"  transform="rotate(0.000000,459.350000,194.000000)" style="stroke: black; stroke-width:0.25;"/>
<line x1="456.350000" y1="195.000000" x2="459.350000" y2="194.000000"  transform="rotate(0.000000,459.350000,194.000000)" style="stroke: black; stroke-width:0.25;"/>
<rect x="500.350000" y="175.000000" width="24.000000" height="24.000000" rx="0" ry="0" style="stroke:none;fill:#cccccc;"/>
<rect x="499.350000" y="174.000000" width="24.000000" height="24.000000" rx="0" ry="0" style="stroke:none;fill:#4B71A1;"/>
<text x="511.350000" y="188.000000" font-family="Arial" font-size="7" text-anchor="middle" fill="#FFFFFF">*</text>
<circle cx="501.350000" cy="176.000000" r="1"/>
<line x1="496.350000" y1="181.000000" x2="499.350000" y2="182.000000"  transform="rotate(0.000000,499.350000,182.000000)" style="stroke: black; stroke-width:0.25;"/>
<line x1="496.350000" y1="183.000000" x2="499.350000" y2="182.000000"  transform="rotate(0.000000,499.350000,182.000000)" style="stroke: black; stroke-width:0.25;"/>
<line x1="496.350000" y1="189.000000" x2="499.350000" y2="190.000000"  transform="rotate(0.000000,499.350000,190.000000)" style="stroke: black; stroke-width:0.25;"/>
<line x1="496.350000" y1="191.000000" x2="499.350000" y2="190.000000"  transform="rotate(0.000000,499.350000,190.000000)" style="stroke: black; stroke-width:0.25;"/>
<rect x="325.600000" y="245.000000" width="24.000000" height="24.000000" rx="0" ry="0" style="stroke:none;fill:#cccccc;"/>
<rect x="324.600000" y="244.000000" width="24.000000" height="24.000000" rx="0" ry="0" style="stroke:none;fill:#f44800;"/>
<text x="336.600000" y="258.000000" font-family="Arial" font-size="7" text-anchor="middle" fill="#FFFFFF">1</text>
<circle cx="326.600000" cy="246.000000" r="1"/>
<rect x="240.850000" y="287.000000" width="193.500000" height="24.000000" rx="0" ry="0" style="stroke:none;fill:#cccccc;"/>
<rect x="239.850000" y="286.000000" width="193.500000" height="24.000000" rx="0" ry="0" style="stroke:none;fill:#477881;"/>
<text x="336.600000" y="300.000000" font-family="Arial" font-size="7" text-anchor="middle" fill="#FFFFFF">hslider(Reverb, 0.3333f, 0.0f, 1.0f, 0.025f)</text>
<circle cx="241.850000" cy="288.000000" r="1"/>
<line x1="230.850000" y1="277.000000" x2="230.850000" y2="319.000000"  style="stroke: black; stroke-linecap:round; stroke-width:0.25; stroke-dasharray:3,3;"/>
<line x1="230.850000" y1="319.000000" x2="442.350000" y2="319.000000"  style="stroke: black; stroke-linecap:round; stroke-width:0.25; stroke-dasharray:3,3;"/>
<line x1="442.350000" y1="319.000000" x2="442.350000" y2="277.000000"  style="stroke: black; stroke-linecap:round; stroke-width:0.25; stroke-dasharray:3,3;"/>
<line x1="230.850000" y1="277.000000" x2="235.850000" y2="277.000000"  style="stroke: black; stroke-linecap:round; stroke-width:0.25; stroke-dasharray:3,3;"/>
<line x1="271.325000" y1="277.000000" x2="442.350000" y2="277.000000"  style="stroke: black; stroke-linecap:round; stroke-width:0.25; stroke-dasharray:3,3;"/>
<text x="235.850000" y="279.000000" font-family="Arial" font-size="7">wetSlider</text>
<rect x="460.350000" y="271.000000" width="24.000000" height="24.000000" rx="0" ry="0" style="stroke:none;fill:#cccccc;"/>
<rect x="459.350000" y="270.000000" width="24.000000" height="24.000000" rx="0" ry="0" style="stroke:none;fill:#4B71A1;"/>
<text x="471.350000" y="284.000000" font-family="Arial" font-size="7" text-anchor="middle" fill="#FFFFFF">-</text>
<circle cx="461.350000" cy="272.000000" r="1"/>
<line x1="456.350000" y1="277.000000" x2="459.350000" y2="278.000000"  transform="rotate(0.000000,459.350000,278.000000)" style="stroke: black; stroke-width:0.25;"/>
<line x1="456.350000" y1="279.000000" x2="459.350000" y2="278.000000"  transform="rotate(0.000000,459.350000,278.000000)" style="stroke: black; stroke-width:0.25;"/>
<line x1="456.350000" y1="285.000000" x2="459.350000" y2="286.000000"  transform="rotate(0.000000,459.350000,286.000000)" style="stroke: black; stroke-width:0.25;"/>
<line x1="456.350000" y1="287.000000" x2="459.350000" y2="286.000000"  transform="rotate(0.000000,459.350000,286.000000)" style="stroke: black; stroke-width:0.25;"/>
<rect x="500.350000" y="267.000000" width="24.000000" height="24.000000" rx="0" ry="0" style="stroke:none;fill:#cccccc;"/>
<rect x="499.350000" y="266.000000" width="24.000000" height="24.000000" rx="0" ry="0" style="stroke:none;fill:#4B71A1;"/>
<text x="511.350000" y="280.000000" font-family="Arial" font-size="7" text-anchor="middle" fill="#FFFFFF">*</text>
<circle cx="501.350000" cy="268.000000" r="1"/>
<line x1="496.350000" y1="273.000000" x2="499.350000" y2="274.000000"  transform="rotate(0.000000,499.350000,274.000000)" style="stroke: black; stroke-width:0.25;"/>
<line x1="496.350000" y1="275.000000" x2="499.350000" y2="274.000000"  transform="rotate(0.000000,499.350000,274.000000)" style="stroke: black; stroke-width:0.25;"/>
<line x1="496.350000" y1="281.000000" x2="499.350000" y2="282.000000"  transform="rotate(0.000000,499.350000,282.000000)" style="stroke: black; stroke-width:0.25;"/>
<line x1="496.350000" y1="283.000000" x2="499.350000" y2="282.000000"  transform="rotate(0.000000,499.350000,282.000000)" style="stroke: black; stroke-width:0.25;"/>
<line x1="15.000000" y1="15.000000" x2="15.000000" y2="329.000000"  style="stroke: black; stroke-linecap:round; stroke-width:0.25; stroke-dasharray:3,3;"/>
<line x1="15.000000" y1="329.000000" x2="738.200000" y2="329.000000"  style="stroke: black; stroke-linecap:round; stroke-width:0.25; stroke-dasharray:3,3;"/>
<line x1="738.200000" y1="329.000000" x2="738.200000" y2="15.000000"  style="stroke: black; stroke-linecap:round; stroke-width:0.25; stroke-dasharray:3,3;"/>
<line x1="15.000000" y1="15.000000" x2="20.000000" y2="15.000000"  style="stroke: black; stroke-linecap:round; stroke-width:0.25; stroke-dasharray:3,3;"/>
<line x1="49.025000" y1="15.000000" x2="738.200000" y2="15.000000"  style="stroke: black; stroke-linecap:round; stroke-width:0.25; stroke-dasharray:3,3;"/>
<text x="20.000000" y="17.000000" font-family="Arial" font-size="7">process</text>
<line x1="740.200000" y1="167.000000" x2="743.200000" y2="168.000000"  transform="rotate(0.000000,743.200000,168.000000)" style="stroke: black; stroke-width:0.25;"/>
<line x1="740.200000" y1="169.000000" x2="743.200000" y2="168.000000"  transform="rotate(0.000000,743.200000,168.000000)" style="stroke: black; stroke-width:0.25;"/>
<line x1="740.200000" y1="175.000000" x2="743.200000" y2="176.000000"  transform="rotate(0.000000,743.200000,176.000000)" style="stroke: black; stroke-width:0.25;"/>
<line x1="740.200000" y1="177.000000" x2="743.200000" y2="176.000000"  transform="rotate(0.000000,743.200000,176.000000)" style="stroke: black; stroke-width:0.25;"/>
<line x1="10.000000" y1="168.000000" x2="20.000000" y2="168.000000"  style="stroke:black; stroke-linecap:round; stroke-width:0.25;"/>
<line x1="10.000000" y1="176.000000" x2="20.000000" y2="176.000000"  style="stroke:black; stroke-linecap:round; stroke-width:0.25;"/>
<line x1="20.000000" y1="168.000000" x2="24.000000" y2="168.000000"  style="stroke:black; stroke-linecap:round; stroke-width:0.25;"/>
<line x1="20.000000" y1="176.000000" x2="24.000000" y2="176.000000"  style="stroke:black; stroke-linecap:round; stroke-width:0.25;"/>
<line x1="24.000000" y1="168.000000" x2="28.000000" y2="168.000000"  style="stroke:black; stroke-linecap:round; stroke-width:0.25;"/>
<line x1="24.000000" y1="176.000000" x2="28.000000" y2="176.000000"  style="stroke:black; stroke-linecap:round; stroke-width:0.25;"/>
<line x1="28.000000" y1="168.000000" x2="28.000000" y2="168.000000"  style="stroke:black; stroke-linecap:round; stroke-width:0.25;"/>
<line x1="28.000000" y1="168.000000" x2="32.000000" y2="168.000000"  style="stroke:black; stroke-linecap:round; stroke-width:0.25;"/>
<line x1="28.000000" y1="176.000000" x2="28.000000" y2="176.000000"  style="stroke:black; stroke-linecap:round; stroke-width:0.25;"/>
<line x1="28.000000" y1="176.000000" x2="32.000000" y2="176.000000"  style="stroke:black; stroke-linecap:round; stroke-width:0.25;"/>
<line x1="32.000000" y1="168.000000" x2="36.000000" y2="168.000000"  style="stroke:black; stroke-linecap:round; stroke-width:0.25;"/>
<line x1="32.000000" y1="176.000000" x2="36.000000" y2="176.000000"  style="stroke:black; stroke-linecap:round; stroke-width:0.25;"/>
<line x1="36.000000" y1="168.000000" x2="116.000000" y2="24.000000"  style="stroke:black; stroke-linecap:round; stroke-width:0.25;"/>
<line x1="36.000000" y1="168.000000" x2="116.000000" y2="144.000000"  style="stroke:black; stroke-linecap:round; stroke-width:0.25;"/>
<line x1="36.000000" y1="176.000000" x2="116.000000" y2="84.000000"  style="stroke:black; stroke-linecap:round; stroke-width:0.25;"/>
<line x1="36.000000" y1="176.000000" x2="116.000000" y2="236.000000"  style="stroke:black; stroke-linecap:round; stroke-width:0.25;"/>
<line x1="116.000000" y1="24.000000" x2="142.900000" y2="24.000000"  style="stroke:black; stroke-linecap:round; stroke-width:0.25;"/>
<line x1="116.000000" y1="84.000000" x2="142.900000" y2="84.000000"  style="stroke:black; stroke-linecap:round; stroke-width:0.25;"/>
<line x1="116.000000" y1="144.000000" x2="225.850000" y2="144.000000"  style="stroke:black; stroke-linecap:round; stroke-width:0.25;"/>
<line x1="116.000000" y1="236.000000" x2="225.850000" y2="236.000000"  style="stroke:black; stroke-linecap:round; stroke-width:0.25;"/>
<line x1="142.900000" y1="24.000000" x2="169.800000" y2="24.000000"  style="stroke:black; stroke-linecap:round; stroke-width:0.25;"/>
<line x1="142.900000" y1="84.000000" x2="169.800000" y2="84.000000"  style="stroke:black; stroke-linecap:round; stroke-width:0.25;"/>
<line x1="155.800000" y1="54.000000" x2="159.800000" y2="54.000000"  style="stroke:black; stroke-linecap:round; stroke-width:0.25;"/>
<line x1="155.800000" y1="114.000000" x2="159.800000" y2="114.000000"  style="stroke:black; stroke-linecap:round; stroke-width:0.25;"/>
<line x1="159.800000" y1="54.000000" x2="169.800000" y2="54.000000"  style="stroke:black; stroke-linecap:round; stroke-width:0.25;"/>
<line x1="159.800000" y1="114.000000" x2="169.800000" y2="114.000000"  style="stroke:black; stroke-linecap:round; stroke-width:0.25;"/>
<line x1="169.800000" y1="24.000000" x2="177.800000" y2="24.000000"  style="stroke:black; stroke-linecap:round; stroke-width:0.25;"/>
<line x1="169.800000" y1="54.000000" x2="177.800000" y2="54.000000"  style="stroke:black; stroke-linecap:round; stroke-width:0.25;"/>
<line x1="169.800000" y1="84.000000" x2="177.800000" y2="84.000000"  style="stroke:black; stroke-linecap:round; stroke-width:0.25;"/>
<line x1="169.800000" y1="114.000000" x2="177.800000" y2="114.000000"  style="stroke:black; stroke-linecap:round; stroke-width:0.25;"/>
<line x1="177.800000" y1="24.000000" x2="177.800000" y2="46.000000"  style="stroke:black; stroke-linecap:round; stroke-width:0.25;"/>
<line x1="177.800000" y1="46.000000" x2="177.800000" y2="46.000000"  style="stroke:black; stroke-linecap:round; stroke-width:0.25;"/>
<line x1="177.800000" y1="46.000000" x2="181.800000" y2="46.000000"  style="stroke:black; stroke-linecap:round; stroke-width:0.25;"/>
<line x1="177.800000" y1="54.000000" x2="181.800000" y2="54.000000"  style="stroke:black; stroke-linecap:round; stroke-width:0.25;"/>
<line x1="177.800000" y1="84.000000" x2="177.800000" y2="106.000000"  style="stroke:black; stroke-linecap:round; stroke-width:0.25;"/>
<line x1="177.800000" y1="106.000000" x2="177.800000" y2="106.000000"  style="stroke:black; stroke-linecap:round; stroke-width:0.25;"/>
<line x1="177.800000" y1="106.000000" x2="181.800000" y2="106.000000"  style="stroke:black; stroke-linecap:round; stroke-width:0.25;"/>
<line x1="177.800000" y1="114.000000" x2="181.800000" y2="114.000000"  style="stroke:black; stroke-linecap:round; stroke-width:0.25;"/>
<line x1="205.800000" y1="50.000000" x2="209.800000" y2="50.000000"  style="stroke:black; stroke-linecap:round; stroke-width:0.25;"/>
<line x1="205.800000" y1="110.000000" x2="209.800000" y2="110.000000"  style="stroke:black; stroke-linecap:round; stroke-width:0.25;"/>
<line x1="209.800000" y1="50.000000" x2="217.800000" y2="50.000000"  style="stroke:black; stroke-linecap:round; stroke-width:0.25;"/>
<line x1="209.800000" y1="84.000000" x2="217.800000" y2="84.000000"  style="stroke:black; stroke-linecap:round; stroke-width:0.25;"/>
<line x1="209.800000" y1="110.000000" x2="209.800000" y2="84.000000"  style="stroke:black; stroke-linecap:round; stroke-width:0.25;"/>
<line x1="209.800000" y1="110.000000" x2="209.800000" y2="110.000000"  style="stroke:black; stroke-linecap:round; stroke-width:0.25;"/>
<line x1="217.800000" y1="50.000000" x2="217.800000" y2="76.000000"  style="stroke:black; stroke-linecap:round; stroke-width:0.25;"/>
<line x1="217.800000" y1="76.000000" x2="217.800000" y2="76.000000"  style="stroke:black; stroke-linecap:round; stroke-width:0.25;"/>
<line x1="217.800000" y1="76.000000" x2="221.800000" y2="76.000000"  style="stroke:black; stroke-linecap:round; stroke-width:0.25;"/>
<line x1="217.800000" y1="84.000000" x2="221.800000" y2="84.000000"  style="stroke:black; stroke-linecap:round; stroke-width:0.25;"/>
<line x1="225.850000" y1="144.000000" x2="356.600000" y2="144.000000"  style="stroke:black; stroke-linecap:round; stroke-width:0.25;"/>
<line x1="225.850000" y1="236.000000" x2="356.600000" y2="236.000000"  style="stroke:black; stroke-linecap:round; stroke-width:0.25;"/>
<line x1="348.600000" y1="164.000000" x2="352.600000" y2="164.000000"  style="stroke:black; stroke-linecap:round; stroke-width:0.25;"/>
<line x1="348.600000" y1="256.000000" x2="352.600000" y2="256.000000"  style="stroke:black; stroke-linecap:round; stroke-width:0.25;"/>
<line x1="352.600000" y1="164.000000" x2="447.350000" y2="164.000000"  style="stroke:black; stroke-linecap:round; stroke-width:0.25;"/>
<line x1="352.600000" y1="256.000000" x2="447.350000" y2="256.000000"  style="stroke:black; stroke-linecap:round; stroke-width:0.25;"/>
<line x1="356.600000" y1="144.000000" x2="487.350000" y2="144.000000"  style="stroke:black; stroke-linecap:round; stroke-width:0.25;"/>
<line x1="356.600000" y1="236.000000" x2="487.350000" y2="236.000000"  style="stroke:black; stroke-linecap:round; stroke-width:0.25;"/>
<line x1="363.700000" y1="76.000000" x2="367.700000" y2="76.000000"  style="stroke:black; stroke-linecap:round; stroke-width:0.25;"/>
<line x1="363.700000" y1="84.000000" x2="367.700000" y2="84.000000"  style="stroke:black; stroke-linecap:round; stroke-width:0.25;"/>
<line x1="367.700000" y1="24.000000" x2="375.700000" y2="24.000000"  style="stroke:black; stroke-linecap:round; stroke-width:0.25;"/>
<line x1="367.700000" y1="76.000000" x2="367.700000" y2="24.000000"  style="stroke:black; stroke-linecap:round; stroke-width:0.25;"/>
<line x1="367.700000" y1="76.000000" x2="367.700000" y2="76.000000"  style="stroke:black; stroke-linecap:round; stroke-width:0.25;"/>
<line x1="367.700000" y1="84.000000" x2="375.700000" y2="84.000000"  style="stroke:black; stroke-linecap:round; stroke-width:0.25;"/>
<line x1="375.700000" y1="24.000000" x2="486.450000" y2="24.000000"  style="stroke:black; stroke-linecap:round; stroke-width:0.25;"/>
<line x1="375.700000" y1="84.000000" x2="486.450000" y2="84.000000"  style="stroke:black; stroke-linecap:round; stroke-width:0.25;"/>
<line x1="433.350000" y1="206.000000" x2="437.350000" y2="206.000000"  style="stroke:black; stroke-linecap:round; stroke-width:0.25;"/>
<line x1="433.350000" y1="298.000000" x2="437.350000" y2="298.000000"  style="stroke:black; stroke-linecap:round; stroke-width:0.25;"/>
<line x1="437.350000" y1="206.000000" x2="447.350000" y2="206.000000"  style="stroke:black; stroke-linecap:round; stroke-width:0.25;"/>
<line x1="437.350000" y1="298.000000" x2="447.350000" y2="298.000000"  style="stroke:black; stroke-linecap:round; stroke-width:0.25;"/>
<line x1="447.350000" y1="164.000000" x2="455.350000" y2="164.000000"  style="stroke:black; stroke-linecap:round; stroke-width:0.25;"/>
<line x1="447.350000" y1="194.000000" x2="455.350000" y2="194.000000"  style="stroke:black; stroke-linecap:round; stroke-width:0.25;"/>
<line x1="447.350000" y1="206.000000" x2="447.350000" y2="194.000000"  style="stroke:black; stroke-linecap:round; stroke-width:0.25;"/>
<line x1="447.350000" y1="206.000000" x2="447.350000" y2="206.000000"  style="stroke:black; stroke-linecap:round; stroke-width:0.25;"/>
<line x1="447.350000" y1="256.000000" x2="455.350000" y2="256.000000"  style="stroke:black; stroke-linecap:round; stroke-width:0.25;"/>
<line x1="447.350000" y1="286.000000" x2="455.350000" y2="286.000000"  style="stroke:black; stroke-linecap:round; stroke-width:0.25;"/>
<line x1="447.350000" y1="298.000000" x2="447.350000" y2="286.000000"  style="stroke:black; stroke-linecap:round; stroke-width:0.25;"/>
<line x1="447.350000" y1="298.000000" x2="447.350000" y2="298.000000"  style="stroke:black; stroke-linecap:round; stroke-width:0.25;"/>
<line x1="455.350000" y1="164.000000" x2="455.350000" y2="186.000000"  style="stroke:black; stroke-linecap:round; stroke-width:0.25;"/>
<line x1="455.350000" y1="186.000000" x2="455.350000" y2="186.000000"  style="stroke:black; stroke-linecap:round; stroke-width:0.25;"/>
<line x1="455.350000" y1="186.000000" x2="459.350000" y2="186.000000"  style="stroke:black; stroke-linecap:round; stroke-width:0.25;"/>
<line x1="455.350000" y1="194.000000" x2="459.350000" y2="194.000000"  style="stroke:black; stroke-linecap:round; stroke-width:0.25;"/>
<line x1="455.350000" y1="256.000000" x2="455.350000" y2="278.000000"  style="stroke:black; stroke-linecap:round; stroke-width:0.25;"/>
<line x1="455.350000" y1="278.000000" x2="455.350000" y2="278.000000"  style="stroke:black; stroke-linecap:round; stroke-width:0.25;"/>
<line x1="455.350000" y1="278.000000" x2="459.350000" y2="278.000000"  style="stroke:black; stroke-linecap:round; stroke-width:0.25;"/>
<line x1="455.350000" y1="286.000000" x2="459.350000" y2="286.000000"  style="stroke:black; stroke-linecap:round; stroke-width:0.25;"/>
<line x1="483.350000" y1="190.000000" x2="487.350000" y2="190.000000"  style="stroke:black; stroke-linecap:round; stroke-width:0.25;"/>
<line x1="483.350000" y1="282.000000" x2="487.350000" y2="282.000000"  style="stroke:black; stroke-linecap:round; stroke-width:0.25;"/>
<line x1="486.450000" y1="24.000000" x2="597.200000" y2="24.000000"  style="stroke:black; stroke-linecap:round; stroke-width:0.25;"/>
<line x1="486.450000" y1="84.000000" x2="597.200000" y2="84.000000"  style="stroke:black; stroke-linecap:round; stroke-width:0.25;"/>
<line x1="487.350000" y1="144.000000" x2="495.350000" y2="144.000000"  style="stroke:black; stroke-linecap:round; stroke-width:0.25;"/>
<line x1="487.350000" y1="190.000000" x2="495.350000" y2="190.000000"  style="stroke:black; stroke-linecap:round; stroke-width:0.25;"/>
<line x1="487.350000" y1="236.000000" x2="495.350000" y2="236.000000"  style="stroke:black; stroke-linecap:round; stroke-width:0.25;"/>
<line x1="487.350000" y1="282.000000" x2="495.350000" y2="282.000000"  style="stroke:black; stroke-linecap:round; stroke-width:0.25;"/>
<line x1="495.350000" y1="144.000000" x2="495.350000" y2="182.000000"  style="stroke:black; stroke-linecap:round; stroke-width:0.25;"/>
<line x1="495.350000" y1="182.000000" x2="495.350000" y2="182.000000"  style="stroke:black; stroke-linecap:round; stroke-width:0.25;"/>
<line x1="495.350000" y1="182.000000" x2="499.350000" y2="182.000000"  style="stroke:black; stroke-linecap:round; stroke-width:0.25;"/>
<line x1="495.350000" y1="190.000000" x2="499.350000" y2="190.000000"  style="stroke:black; stroke-linecap:round; stroke-width:0.25;"/>
<line x1="495.350000" y1="236.000000" x2="495.350000" y2="274.000000"  style="stroke:black; stroke-linecap:round; stroke-width:0.25;"/>
<line x1="495.350000" y1="274.000000" x2="495.350000" y2="274.000000"  style="stroke:black; stroke-linecap:round; stroke-width:0.25;"/>
<line x1="495.350000" y1="274.000000" x2="499.350000" y2="274.000000"  style="stroke:black; stroke-linecap:round; stroke-width:0.25;"/>
<line x1="495.350000" y1="282.000000" x2="499.350000" y2="282.000000"  style="stroke:black; stroke-linecap:round; stroke-width:0.25;"/>
<line x1="523.350000" y1="186.000000" x2="527.350000" y2="186.000000"  style="stroke:black; stroke-linecap:round; stroke-width:0.25;"/>
<line x1="523.350000" y1="278.000000" x2="527.350000" y2="278.000000"  style="stroke:black; stroke-linecap:round; stroke-width:0.25;"/>
<line x1="527.350000" y1="186.000000" x2="637.200000" y2="186.000000"  style="stroke:black; stroke-linecap:round; stroke-width:0.25;"/>
<line x1="527.350000" y1="278.000000" x2="637.200000" y2="278.000000"  style="stroke:black; stroke-linecap:round; stroke-width:0.25;"/>
<line x1="583.200000" y1="54.000000" x2="587.200000" y2="54.000000"  style="stroke:black; stroke-linecap:round; stroke-width:0.25;"/>
<line x1="583.200000" y1="114.000000" x2="587.200000" y2="114.000000"  style="stroke:black; stroke-linecap:round; stroke-width:0.25;"/>
<line x1="587.200000" y1="54.000000" x2="597.200000" y2="54.000000"  style="stroke:black; stroke-linecap:round; stroke-width:0.25;"/>
<line x1="587.200000" y1="114.000000" x2="597.200000" y2="114.000000"  style="stroke:black; stroke-linecap:round; stroke-width:0.25;"/>
<line x1="597.200000" y1="24.000000" x2="605.200000" y2="24.000000"  style="stroke:black; stroke-linecap:round; stroke-width:0.25;"/>
<line x1="597.200000" y1="54.000000" x2="605.200000" y2="54.000000"  style="stroke:black; stroke-linecap:round; stroke-width:0.25;"/>
<line x1="597.200000" y1="84.000000" x2="605.200000" y2="84.000000"  style="stroke:black; stroke-linecap:round; stroke-width:0.25;"/>
<line x1="597.200000" y1="114.000000" x2="605.200000" y2="114.000000"  style="stroke:black; stroke-linecap:round; stroke-width:0.25;"/>
<line x1="605.200000" y1="24.000000" x2="605.200000" y2="46.000000"  style="stroke:black; stroke-linecap:round; stroke-width:0.25;"/>
<line x1="605.200000" y1="46.000000" x2="605.200000" y2="46.000000"  style="stroke:black; stroke-linecap:round; stroke-width:0.25;"/>
<line x1="605.200000" y1="46.000000" x2="609.200000" y2="46.000000"  style="stroke:black; stroke-linecap:round; stroke-width:0.25;"/>
<line x1="605.200000" y1="54.000000" x2="609.200000" y2="54.000000"  style="stroke:black; stroke-linecap:round; stroke-width:0.25;"/>
<line x1="605.200000" y1="84.000000" x2="605.200000" y2="106.000000"  style="stroke:black; stroke-linecap:round; stroke-width:0.25;"/>
<line x1="605.200000" y1="106.000000" x2="605.200000" y2="106.000000"  style="stroke:black; stroke-linecap:round; stroke-width:0.25;"/>
<line x1="605.200000" y1="106.000000" x2="609.200000" y2="106.000000"  style="stroke:black; stroke-linecap:round; stroke-width:0.25;"/>
<line x1="605.200000" y1="114.000000" x2="609.200000" y2="114.000000"  style="stroke:black; stroke-linecap:round; stroke-width:0.25;"/>
<line x1="633.200000" y1="50.000000" x2="637.200000" y2="50.000000"  style="stroke:black; stroke-linecap:round; stroke-width:0.25;"/>
<line x1="633.200000" y1="110.000000" x2="637.200000" y2="110.000000"  style="stroke:black; stroke-linecap:round; stroke-width:0.25;"/>
<line x1="637.200000" y1="186.000000" x2="717.200000" y2="168.000000"  style="stroke:black; stroke-linecap:round; stroke-width:0.25;"/>
<line x1="637.200000" y1="278.000000" x2="717.200000" y2="176.000000"  style="stroke:black; stroke-linecap:round; stroke-width:0.25;"/>
<line x1="637.200000" y1="50.000000" x2="717.200000" y2="168.000000"  style="stroke:black; stroke-linecap:round; stroke-width:0.25;"/>
<line x1="637.200000" y1="110.000000" x2="717.200000" y2="176.000000"  style="stroke:black; stroke-linecap:round; stroke-width:0.25;"/>
<line x1="717.200000" y1="168.000000" x2="721.200000" y2="168.000000"  style="stroke:black; stroke-linecap:round; stroke-width:0.25;"/>
<line x1="717.200000" y1="176.000000" x2="721.200000" y2="176.000000"  style="stroke:black; stroke-linecap:round; stroke-width:0.25;"/>
<line x1="721.200000" y1="168.000000" x2="725.200000" y2="168.000000"  style="stroke:black; stroke-linecap:round; stroke-width:0.25;"/>
<line x1="721.200000" y1="176.000000" x2="725.200000" y2="176.000000"  style="stroke:black; stroke-linecap:round; stroke-width:0.25;"/>
<line x1="725.200000" y1="168.000000" x2="725.200000" y2="168.000000"  style="stroke:black; stroke-linecap:round; stroke-width:0.25;"/>
<line x1="725.200000" y1="168.000000" x2="729.200000" y2="168.000000"  style="stroke:black; stroke-linecap:round; stroke-width:0.25;"/>
<line x1="725.200000" y1="176.000000" x2="725.200000" y2="176.000000"  style="stroke:black; stroke-linecap:round; stroke-width:0.25;"/>
<line x1="725.200000" y1="176.000000" x2="729.200000" y2="176.000000"  style="stroke:black; stroke-linecap:round; stroke-width:0.25;"/>
<line x1="729.200000" y1="168.000000" x2="733.200000" y2="168.000000"  style="stroke:black; stroke-linecap:round; stroke-width:0.25;"/>
<line x1="729.200000" y1="176.000000" x2="733.200000" y2="176.000000"  style="stroke:black; stroke-linecap:round; stroke-width:0.25;"/>
<line x1="733.200000" y1="168.000000" x2="743.200000" y2="168.000000"  style="stroke:black; stroke-linecap:round; stroke-width:0.25;"/>
<line x1="733.200000" y1="176.000000" x2="743.200000" y2="176.000000"  style="stroke:black; stroke-linecap:round; stroke-width:0.25;"/>
</svg>
