<?xml version="1.0"?>
<svg xmlns="http://www.w3.org/2000/svg" xmlns:xlink="http://www.w3.org/1999/xlink" viewBox="0 0 199.200000 124.000000" width="99.600000mm" height="62.000000mm" version="1.1">
<a xlink:href="delayLine-0x7f9d65191820.svg">
<rect x="1.000000" y="1.000000" width="198.200000" height="123.000000" rx="0" ry="0" style="stroke:none;fill:#cccccc;"/>
<rect x="0.000000" y="0.000000" width="198.200000" height="123.000000" rx="0" ry="0" style="stroke:none;fill:#ffffff;"/>
</a>
<text x="10.000000" y="7.000000" font-family="Arial" font-size="7"></text>
<a xlink:href="delayLengthBase-0x7f9d64194dc0.svg">
<rect x="25.000000" y="25.000000" width="103.200000" height="24.000000" rx="0" ry="0" style="stroke:none;fill:#cccccc;"/>
<rect x="24.000000" y="24.000000" width="103.200000" height="24.000000" rx="0" ry="0" style="stroke:none;fill:#003366;"/>
</a>
<a xlink:href="delayLengthBase-0x7f9d64194dc0.svg">
<text x="75.600000" y="38.000000" font-family="Arial" font-size="7" text-anchor="middle" fill="#FFFFFF">delayLengthBase(932.32f)</text>
</a>
<circle cx="26.000000" cy="26.000000" r="1"/>
<rect x="64.600000" y="67.000000" width="24.000000" height="24.000000" rx="0" ry="0" style="stroke:none;fill:#cccccc;"/>
<rect x="63.600000" y="66.000000" width="24.000000" height="24.000000" rx="0" ry="0" style="stroke:none;fill:#f44800;"/>
<text x="75.600000" y="80.000000" font-family="Arial" font-size="7" text-anchor="middle" fill="#FFFFFF">1</text>
<circle cx="65.600000" cy="68.000000" r="1"/>
<line x1="54.600000" y1="57.000000" x2="54.600000" y2="99.000000"  style="stroke: black; stroke-linecap:round; stroke-width:0.25; stroke-dasharray:3,3;"/>
<line x1="54.600000" y1="99.000000" x2="96.600000" y2="99.000000"  style="stroke: black; stroke-linecap:round; stroke-width:0.25; stroke-dasharray:3,3;"/>
<line x1="96.600000" y1="99.000000" x2="96.600000" y2="57.000000"  style="stroke: black; stroke-linecap:round; stroke-width:0.25; stroke-dasharray:3,3;"/>
<line x1="54.600000" y1="57.000000" x2="59.600000" y2="57.000000"  style="stroke: black; stroke-linecap:round; stroke-width:0.25; stroke-dasharray:3,3;"/>
<line x1="91.850000" y1="57.000000" x2="96.600000" y2="57.000000"  style="stroke: black; stroke-linecap:round; stroke-width:0.25; stroke-dasharray:3,3;"/>
<text x="59.600000" y="59.000000" font-family="Arial" font-size="7">baseGain</text>
<rect x="144.200000" y="51.000000" width="24.000000" height="24.000000" rx="0" ry="0" style="stroke:none;fill:#cccccc;"/>
<rect x="143.200000" y="50.000000" width="24.000000" height="24.000000" rx="0" ry="0" style="stroke:none;fill:#4B71A1;"/>
<text x="155.200000" y="64.000000" font-family="Arial" font-size="7" text-anchor="middle" fill="#FFFFFF">/</text>
<circle cx="145.200000" cy="52.000000" r="1"/>
<line x1="140.200000" y1="57.000000" x2="143.200000" y2="58.000000"  transform="rotate(0.000000,143.200000,58.000000)" style="stroke: black; stroke-width:0.25;"/>
<line x1="140.200000" y1="59.000000" x2="143.200000" y2="58.000000"  transform="rotate(0.000000,143.200000,58.000000)" style="stroke: black; stroke-width:0.25;"/>
<line x1="140.200000" y1="65.000000" x2="143.200000" y2="66.000000"  transform="rotate(0.000000,143.200000,66.000000)" style="stroke: black; stroke-width:0.25;"/>
<line x1="140.200000" y1="67.000000" x2="143.200000" y2="66.000000"  transform="rotate(0.000000,143.200000,66.000000)" style="stroke: black; stroke-width:0.25;"/>
<line x1="15.000000" y1="15.000000" x2="15.000000" y2="109.000000"  style="stroke: black; stroke-linecap:round; stroke-width:0.25; stroke-dasharray:3,3;"/>
<line x1="15.000000" y1="109.000000" x2="184.200000" y2="109.000000"  style="stroke: black; stroke-linecap:round; stroke-width:0.25; stroke-dasharray:3,3;"/>
<line x1="184.200000" y1="109.000000" x2="184.200000" y2="15.000000"  style="stroke: black; stroke-linecap:round; stroke-width:0.25; stroke-dasharray:3,3;"/>
<line x1="15.000000" y1="15.000000" x2="20.000000" y2="15.000000"  style="stroke: black; stroke-linecap:round; stroke-width:0.25; stroke-dasharray:3,3;"/>
<line x1="100.625000" y1="15.000000" x2="184.200000" y2="15.000000"  style="stroke: black; stroke-linecap:round; stroke-width:0.25; stroke-dasharray:3,3;"/>
<text x="20.000000" y="17.000000" font-family="Arial" font-size="7">delayLength(0)(932.32f)</text>
<line x1="186.200000" y1="61.000000" x2="189.200000" y2="62.000000"  transform="rotate(0.000000,189.200000,62.000000)" style="stroke: black; stroke-width:0.25;"/>
<line x1="186.200000" y1="63.000000" x2="189.200000" y2="62.000000"  transform="rotate(0.000000,189.200000,62.000000)" style="stroke: black; stroke-width:0.25;"/>
<line x1="87.600000" y1="78.000000" x2="91.600000" y2="78.000000"  style="stroke:black; stroke-linecap:round; stroke-width:0.25;"/>
<line x1="91.600000" y1="78.000000" x2="101.600000" y2="78.000000"  style="stroke:black; stroke-linecap:round; stroke-width:0.25;"/>
<line x1="101.600000" y1="78.000000" x2="131.200000" y2="78.000000"  style="stroke:black; stroke-linecap:round; stroke-width:0.25;"/>
<line x1="127.200000" y1="36.000000" x2="131.200000" y2="36.000000"  style="stroke:black; stroke-linecap:round; stroke-width:0.25;"/>
<line x1="131.200000" y1="36.000000" x2="139.200000" y2="36.000000"  style="stroke:black; stroke-linecap:round; stroke-width:0.25;"/>
<line x1="131.200000" y1="66.000000" x2="139.200000" y2="66.000000"  style="stroke:black; stroke-linecap:round; stroke-width:0.25;"/>
<line x1="131.200000" y1="78.000000" x2="131.200000" y2="66.000000"  style="stroke:black; stroke-linecap:round; stroke-width:0.25;"/>
<line x1="131.200000" y1="78.000000" x2="131.200000" y2="78.000000"  style="stroke:black; stroke-linecap:round; stroke-width:0.25;"/>
<line x1="139.200000" y1="36.000000" x2="139.200000" y2="58.000000"  style="stroke:black; stroke-linecap:round; stroke-width:0.25;"/>
<line x1="139.200000" y1="58.000000" x2="139.200000" y2="58.000000"  style="stroke:black; stroke-linecap:round; stroke-width:0.25;"/>
<line x1="139.200000" y1="58.000000" x2="143.200000" y2="58.000000"  style="stroke:black; stroke-linecap:round; stroke-width:0.25;"/>
<line x1="139.200000" y1="66.000000" x2="143.200000" y2="66.000000"  style="stroke:black; stroke-linecap:round; stroke-width:0.25;"/>
<line x1="167.200000" y1="62.000000" x2="171.200000" y2="62.000000"  style="stroke:black; stroke-linecap:round; stroke-width:0.25;"/>
<line x1="171.200000" y1="62.000000" x2="171.200000" y2="62.000000"  style="stroke:black; stroke-linecap:round; stroke-width:0.25;"/>
<line x1="171.200000" y1="62.000000" x2="175.200000" y2="62.000000"  style="stroke:black; stroke-linecap:round; stroke-width:0.25;"/>
<line x1="175.200000" y1="62.000000" x2="179.200000" y2="62.000000"  style="stroke:black; stroke-linecap:round; stroke-width:0.25;"/>
<line x1="179.200000" y1="62.000000" x2="189.200000" y2="62.000000"  style="stroke:black; stroke-linecap:round; stroke-width:0.25;"/>
</svg>
