<?xml version="1.0"?>
<svg xmlns="http://www.w3.org/2000/svg" xmlns:xlink="http://www.w3.org/1999/xlink" viewBox="0 0 169.400000 220.000000" width="84.700000mm" height="110.000000mm" version="1.1">
<a xlink:href="process.svg">
<rect x="1.000000" y="1.000000" width="168.400000" height="219.000000" rx="0" ry="0" style="stroke:none;fill:#cccccc;"/>
<rect x="0.000000" y="0.000000" width="168.400000" height="219.000000" rx="0" ry="0" style="stroke:none;fill:#ffffff;"/>
</a>
<text x="10.000000" y="7.000000" font-family="Arial" font-size="7"></text>
<a xlink:href="tunedBar-0x7f9d64ff20a0.svg">
<rect x="35.000000" y="35.000000" width="77.400000" height="24.000000" rx="0" ry="0" style="stroke:none;fill:#cccccc;"/>
<rect x="34.000000" y="34.000000" width="77.400000" height="24.000000" rx="0" ry="0" style="stroke:none;fill:#003366;"/>
</a>
<a xlink:href="tunedBar-0x7f9d64ff20a0.svg">
<text x="72.700000" y="48.000000" font-family="Arial" font-size="7" text-anchor="middle" fill="#FFFFFF">tunedBar(1)(0)(1)</text>
</a>
<circle cx="36.000000" cy="36.000000" r="1"/>
<a xlink:href="tunedBar-0x7f9d653236e0.svg">
<rect x="35.000000" y="67.000000" width="77.400000" height="24.000000" rx="0" ry="0" style="stroke:none;fill:#cccccc;"/>
<rect x="34.000000" y="66.000000" width="77.400000" height="24.000000" rx="0" ry="0" style="stroke:none;fill:#003366;"/>
</a>
<a xlink:href="tunedBar-0x7f9d653236e0.svg">
<text x="72.700000" y="80.000000" font-family="Arial" font-size="7" text-anchor="middle" fill="#FFFFFF">tunedBar(1)(1)(1)</text>
</a>
<circle cx="36.000000" cy="68.000000" r="1"/>
<a xlink:href="tunedBar-0x7f9d65350ba0.svg">
<rect x="35.000000" y="99.000000" width="77.400000" height="24.000000" rx="0" ry="0" style="stroke:none;fill:#cccccc;"/>
<rect x="34.000000" y="98.000000" width="77.400000" height="24.000000" rx="0" ry="0" style="stroke:none;fill:#003366;"/>
</a>
<a xlink:href="tunedBar-0x7f9d65350ba0.svg">
<text x="72.700000" y="112.000000" font-family="Arial" font-size="7" text-anchor="middle" fill="#FFFFFF">tunedBar(1)(2)(1)</text>
</a>
<circle cx="36.000000" cy="100.000000" r="1"/>
<a xlink:href="tunedBar-0x7f9d65164180.svg">
<rect x="35.000000" y="131.000000" width="77.400000" height="24.000000" rx="0" ry="0" style="stroke:none;fill:#cccccc;"/>
<rect x="34.000000" y="130.000000" width="77.400000" height="24.000000" rx="0" ry="0" style="stroke:none;fill:#003366;"/>
</a>
<a xlink:href="tunedBar-0x7f9d65164180.svg">
<text x="72.700000" y="144.000000" font-family="Arial" font-size="7" text-anchor="middle" fill="#FFFFFF">tunedBar(1)(3)(1)</text>
</a>
<circle cx="36.000000" cy="132.000000" r="1"/>
<a xlink:href="tunedBar-0x7f9d653643e0.svg">
<rect x="35.000000" y="163.000000" width="77.400000" height="24.000000" rx="0" ry="0" style="stroke:none;fill:#cccccc;"/>
<rect x="34.000000" y="162.000000" width="77.400000" height="24.000000" rx="0" ry="0" style="stroke:none;fill:#003366;"/>
</a>
<a xlink:href="tunedBar-0x7f9d653643e0.svg">
<text x="72.700000" y="176.000000" font-family="Arial" font-size="7" text-anchor="middle" fill="#FFFFFF">tunedBar(1)(4)(1)</text>
</a>
<circle cx="36.000000" cy="164.000000" r="1"/>
<line x1="25.000000" y1="25.000000" x2="25.000000" y2="195.000000"  style="stroke: black; stroke-linecap:round; stroke-width:0.25; stroke-dasharray:3,3;"/>
<line x1="25.000000" y1="195.000000" x2="120.400000" y2="195.000000"  style="stroke: black; stroke-linecap:round; stroke-width:0.25; stroke-dasharray:3,3;"/>
<line x1="120.400000" y1="195.000000" x2="120.400000" y2="25.000000"  style="stroke: black; stroke-linecap:round; stroke-width:0.25; stroke-dasharray:3,3;"/>
<line x1="25.000000" y1="25.000000" x2="30.000000" y2="25.000000"  style="stroke: black; stroke-linecap:round; stroke-width:0.25; stroke-dasharray:3,3;"/>
<line x1="78.375000" y1="25.000000" x2="120.400000" y2="25.000000"  style="stroke: black; stroke-linecap:round; stroke-width:0.25; stroke-dasharray:3,3;"/>
<text x="30.000000" y="27.000000" font-family="Arial" font-size="7">hgroup(Bar 1)</text>
<line x1="15.000000" y1="15.000000" x2="15.000000" y2="205.000000"  style="stroke: black; stroke-linecap:round; stroke-width:0.25; stroke-dasharray:3,3;"/>
<line x1="15.000000" y1="205.000000" x2="154.400000" y2="205.000000"  style="stroke: black; stroke-linecap:round; stroke-width:0.25; stroke-dasharray:3,3;"/>
<line x1="154.400000" y1="205.000000" x2="154.400000" y2="15.000000"  style="stroke: black; stroke-linecap:round; stroke-width:0.25; stroke-dasharray:3,3;"/>
<line x1="15.000000" y1="15.000000" x2="20.000000" y2="15.000000"  style="stroke: black; stroke-linecap:round; stroke-width:0.25; stroke-dasharray:3,3;"/>
<line x1="78.050000" y1="15.000000" x2="154.400000" y2="15.000000"  style="stroke: black; stroke-linecap:round; stroke-width:0.25; stroke-dasharray:3,3;"/>
<text x="20.000000" y="17.000000" font-family="Arial" font-size="7">onerack(1)(1)(1)</text>
<line x1="156.400000" y1="93.000000" x2="159.400000" y2="94.000000"  transform="rotate(0.000000,159.400000,94.000000)" style="stroke: black; stroke-width:0.25;"/>
<line x1="156.400000" y1="95.000000" x2="159.400000" y2="94.000000"  transform="rotate(0.000000,159.400000,94.000000)" style="stroke: black; stroke-width:0.25;"/>
<line x1="156.400000" y1="101.000000" x2="159.400000" y2="102.000000"  transform="rotate(0.000000,159.400000,102.000000)" style="stroke: black; stroke-width:0.25;"/>
<line x1="156.400000" y1="103.000000" x2="159.400000" y2="102.000000"  transform="rotate(0.000000,159.400000,102.000000)" style="stroke: black; stroke-width:0.25;"/>
<line x1="156.400000" y1="109.000000" x2="159.400000" y2="110.000000"  transform="rotate(0.000000,159.400000,110.000000)" style="stroke: black; stroke-width:0.25;"/>
<line x1="156.400000" y1="111.000000" x2="159.400000" y2="110.000000"  transform="rotate(0.000000,159.400000,110.000000)" style="stroke: black; stroke-width:0.25;"/>
<line x1="156.400000" y1="117.000000" x2="159.400000" y2="118.000000"  transform="rotate(0.000000,159.400000,118.000000)" style="stroke: black; stroke-width:0.25;"/>
<line x1="156.400000" y1="119.000000" x2="159.400000" y2="118.000000"  transform="rotate(0.000000,159.400000,118.000000)" style="stroke: black; stroke-width:0.25;"/>
<line x1="156.400000" y1="125.000000" x2="159.400000" y2="126.000000"  transform="rotate(0.000000,159.400000,126.000000)" style="stroke: black; stroke-width:0.25;"/>
<line x1="156.400000" y1="127.000000" x2="159.400000" y2="126.000000"  transform="rotate(0.000000,159.400000,126.000000)" style="stroke: black; stroke-width:0.25;"/>
<line x1="111.400000" y1="46.000000" x2="115.400000" y2="46.000000"  style="stroke:black; stroke-linecap:round; stroke-width:0.25;"/>
<line x1="111.400000" y1="78.000000" x2="115.400000" y2="78.000000"  style="stroke:black; stroke-linecap:round; stroke-width:0.25;"/>
<line x1="111.400000" y1="110.000000" x2="115.400000" y2="110.000000"  style="stroke:black; stroke-linecap:round; stroke-width:0.25;"/>
<line x1="111.400000" y1="142.000000" x2="115.400000" y2="142.000000"  style="stroke:black; stroke-linecap:round; stroke-width:0.25;"/>
<line x1="111.400000" y1="174.000000" x2="115.400000" y2="174.000000"  style="stroke:black; stroke-linecap:round; stroke-width:0.25;"/>
<line x1="115.400000" y1="46.000000" x2="125.400000" y2="46.000000"  style="stroke:black; stroke-linecap:round; stroke-width:0.25;"/>
<line x1="115.400000" y1="78.000000" x2="125.400000" y2="78.000000"  style="stroke:black; stroke-linecap:round; stroke-width:0.25;"/>
<line x1="115.400000" y1="110.000000" x2="125.400000" y2="110.000000"  style="stroke:black; stroke-linecap:round; stroke-width:0.25;"/>
<line x1="115.400000" y1="142.000000" x2="125.400000" y2="142.000000"  style="stroke:black; stroke-linecap:round; stroke-width:0.25;"/>
<line x1="115.400000" y1="174.000000" x2="125.400000" y2="174.000000"  style="stroke:black; stroke-linecap:round; stroke-width:0.25;"/>
<line x1="125.400000" y1="46.000000" x2="141.400000" y2="46.000000"  style="stroke:black; stroke-linecap:round; stroke-width:0.25;"/>
<line x1="125.400000" y1="78.000000" x2="133.400000" y2="78.000000"  style="stroke:black; stroke-linecap:round; stroke-width:0.25;"/>
<line x1="125.400000" y1="110.000000" x2="141.400000" y2="110.000000"  style="stroke:black; stroke-linecap:round; stroke-width:0.25;"/>
<line x1="125.400000" y1="118.000000" x2="141.400000" y2="118.000000"  style="stroke:black; stroke-linecap:round; stroke-width:0.25;"/>
<line x1="125.400000" y1="142.000000" x2="125.400000" y2="118.000000"  style="stroke:black; stroke-linecap:round; stroke-width:0.25;"/>
<line x1="125.400000" y1="142.000000" x2="125.400000" y2="142.000000"  style="stroke:black; stroke-linecap:round; stroke-width:0.25;"/>
<line x1="125.400000" y1="174.000000" x2="133.400000" y2="174.000000"  style="stroke:black; stroke-linecap:round; stroke-width:0.25;"/>
<line x1="133.400000" y1="78.000000" x2="133.400000" y2="102.000000"  style="stroke:black; stroke-linecap:round; stroke-width:0.25;"/>
<line x1="133.400000" y1="102.000000" x2="141.400000" y2="102.000000"  style="stroke:black; stroke-linecap:round; stroke-width:0.25;"/>
<line x1="133.400000" y1="126.000000" x2="141.400000" y2="126.000000"  style="stroke:black; stroke-linecap:round; stroke-width:0.25;"/>
<line x1="133.400000" y1="174.000000" x2="133.400000" y2="126.000000"  style="stroke:black; stroke-linecap:round; stroke-width:0.25;"/>
<line x1="141.400000" y1="46.000000" x2="141.400000" y2="94.000000"  style="stroke:black; stroke-linecap:round; stroke-width:0.25;"/>
<line x1="141.400000" y1="94.000000" x2="141.400000" y2="94.000000"  style="stroke:black; stroke-linecap:round; stroke-width:0.25;"/>
<line x1="141.400000" y1="94.000000" x2="145.400000" y2="94.000000"  style="stroke:black; stroke-linecap:round; stroke-width:0.25;"/>
<line x1="141.400000" y1="102.000000" x2="145.400000" y2="102.000000"  style="stroke:black; stroke-linecap:round; stroke-width:0.25;"/>
<line x1="141.400000" y1="110.000000" x2="145.400000" y2="110.000000"  style="stroke:black; stroke-linecap:round; stroke-width:0.25;"/>
<line x1="141.400000" y1="118.000000" x2="145.400000" y2="118.000000"  style="stroke:black; stroke-linecap:round; stroke-width:0.25;"/>
<line x1="141.400000" y1="126.000000" x2="145.400000" y2="126.000000"  style="stroke:black; stroke-linecap:round; stroke-width:0.25;"/>
<line x1="145.400000" y1="94.000000" x2="149.400000" y2="94.000000"  style="stroke:black; stroke-linecap:round; stroke-width:0.25;"/>
<line x1="145.400000" y1="102.000000" x2="149.400000" y2="102.000000"  style="stroke:black; stroke-linecap:round; stroke-width:0.25;"/>
<line x1="145.400000" y1="110.000000" x2="149.400000" y2="110.000000"  style="stroke:black; stroke-linecap:round; stroke-width:0.25;"/>
<line x1="145.400000" y1="118.000000" x2="149.400000" y2="118.000000"  style="stroke:black; stroke-linecap:round; stroke-width:0.25;"/>
<line x1="145.400000" y1="126.000000" x2="149.400000" y2="126.000000"  style="stroke:black; stroke-linecap:round; stroke-width:0.25;"/>
<line x1="149.400000" y1="94.000000" x2="159.400000" y2="94.000000"  style="stroke:black; stroke-linecap:round; stroke-width:0.25;"/>
<line x1="149.400000" y1="102.000000" x2="159.400000" y2="102.000000"  style="stroke:black; stroke-linecap:round; stroke-width:0.25;"/>
<line x1="149.400000" y1="110.000000" x2="159.400000" y2="110.000000"  style="stroke:black; stroke-linecap:round; stroke-width:0.25;"/>
<line x1="149.400000" y1="118.000000" x2="159.400000" y2="118.000000"  style="stroke:black; stroke-linecap:round; stroke-width:0.25;"/>
<line x1="149.400000" y1="126.000000" x2="159.400000" y2="126.000000"  style="stroke:black; stroke-linecap:round; stroke-width:0.25;"/>
</svg>
