<?xml version="1.0"?>
<svg xmlns="http://www.w3.org/2000/svg" xmlns:xlink="http://www.w3.org/1999/xlink" viewBox="0 0 517.600000 156.000000" width="258.800000mm" height="78.000000mm" version="1.1">
<a xlink:href="gate-0x7f9d64d2a7a0.svg">
<rect x="1.000000" y="1.000000" width="516.600000" height="155.000000" rx="0" ry="0" style="stroke:none;fill:#cccccc;"/>
<rect x="0.000000" y="0.000000" width="516.600000" height="155.000000" rx="0" ry="0" style="stroke:none;fill:#ffffff;"/>
</a>
<text x="10.000000" y="7.000000" font-family="Arial" font-size="7"></text>
<rect x="25.000000" y="25.000000" width="206.400000" height="24.000000" rx="0" ry="0" style="stroke:none;fill:#cccccc;"/>
<rect x="24.000000" y="24.000000" width="206.400000" height="24.000000" rx="0" ry="0" style="stroke:none;fill:#477881;"/>
<text x="127.200000" y="38.000000" font-family="Arial" font-size="7" text-anchor="middle" fill="#FFFFFF">vslider(Instrument Hand, 0.0f, 0.0f, 5.0f, 1.0f)</text>
<circle cx="26.000000" cy="26.000000" r="1"/>
<rect x="239.400000" y="25.000000" width="24.000000" height="24.000000" rx="0" ry="0" style="stroke:none;fill:#cccccc;"/>
<rect x="238.400000" y="24.000000" width="24.000000" height="24.000000" rx="0" ry="0" style="stroke:none;fill:#4B71A1;"/>
<text x="250.400000" y="38.000000" font-family="Arial" font-size="7" text-anchor="middle" fill="#FFFFFF">int</text>
<circle cx="240.400000" cy="26.000000" r="1"/>
<line x1="235.400000" y1="35.000000" x2="238.400000" y2="36.000000"  transform="rotate(0.000000,238.400000,36.000000)" style="stroke: black; stroke-width:0.25;"/>
<line x1="235.400000" y1="37.000000" x2="238.400000" y2="36.000000"  transform="rotate(0.000000,238.400000,36.000000)" style="stroke: black; stroke-width:0.25;"/>
<a xlink:href="automat-0x7f9d64a2d130.svg">
<rect x="271.400000" y="25.000000" width="103.200000" height="24.000000" rx="0" ry="0" style="stroke:none;fill:#cccccc;"/>
<rect x="270.400000" y="24.000000" width="103.200000" height="24.000000" rx="0" ry="0" style="stroke:none;fill:#003366;"/>
</a>
<a xlink:href="automat-0x7f9d64a2d130.svg">
<text x="322.000000" y="38.000000" font-family="Arial" font-size="7" text-anchor="middle" fill="#FFFFFF">automat(120)(15)(0.0f)</text>
</a>
<circle cx="272.400000" cy="26.000000" r="1"/>
<line x1="267.400000" y1="35.000000" x2="270.400000" y2="36.000000"  transform="rotate(0.000000,270.400000,36.000000)" style="stroke: black; stroke-width:0.25;"/>
<line x1="267.400000" y1="37.000000" x2="270.400000" y2="36.000000"  transform="rotate(0.000000,270.400000,36.000000)" style="stroke: black; stroke-width:0.25;"/>
<rect x="187.800000" y="67.000000" width="24.000000" height="24.000000" rx="0" ry="0" style="stroke:none;fill:#cccccc;"/>
<rect x="186.800000" y="66.000000" width="24.000000" height="24.000000" rx="0" ry="0" style="stroke:none;fill:#f44800;"/>
<text x="198.800000" y="80.000000" font-family="Arial" font-size="7" text-anchor="middle" fill="#FFFFFF">0</text>
<circle cx="188.800000" cy="68.000000" r="1"/>
<line x1="177.800000" y1="57.000000" x2="177.800000" y2="99.000000"  style="stroke: black; stroke-linecap:round; stroke-width:0.25; stroke-dasharray:3,3;"/>
<line x1="177.800000" y1="99.000000" x2="219.800000" y2="99.000000"  style="stroke: black; stroke-linecap:round; stroke-width:0.25; stroke-dasharray:3,3;"/>
<line x1="219.800000" y1="99.000000" x2="219.800000" y2="57.000000"  style="stroke: black; stroke-linecap:round; stroke-width:0.25; stroke-dasharray:3,3;"/>
<line x1="177.800000" y1="57.000000" x2="182.800000" y2="57.000000"  style="stroke: black; stroke-linecap:round; stroke-width:0.25; stroke-dasharray:3,3;"/>
<line x1="195.700000" y1="57.000000" x2="219.800000" y2="57.000000"  style="stroke: black; stroke-linecap:round; stroke-width:0.25; stroke-dasharray:3,3;"/>
<text x="182.800000" y="59.000000" font-family="Arial" font-size="7">b1</text>
<rect x="390.600000" y="51.000000" width="24.000000" height="24.000000" rx="0" ry="0" style="stroke:none;fill:#cccccc;"/>
<rect x="389.600000" y="50.000000" width="24.000000" height="24.000000" rx="0" ry="0" style="stroke:none;fill:#4B71A1;"/>
<text x="401.600000" y="64.000000" font-family="Arial" font-size="7" text-anchor="middle" fill="#FFFFFF">-</text>
<circle cx="391.600000" cy="52.000000" r="1"/>
<line x1="386.600000" y1="57.000000" x2="389.600000" y2="58.000000"  transform="rotate(0.000000,389.600000,58.000000)" style="stroke: black; stroke-width:0.25;"/>
<line x1="386.600000" y1="59.000000" x2="389.600000" y2="58.000000"  transform="rotate(0.000000,389.600000,58.000000)" style="stroke: black; stroke-width:0.25;"/>
<line x1="386.600000" y1="65.000000" x2="389.600000" y2="66.000000"  transform="rotate(0.000000,389.600000,66.000000)" style="stroke: black; stroke-width:0.25;"/>
<line x1="386.600000" y1="67.000000" x2="389.600000" y2="66.000000"  transform="rotate(0.000000,389.600000,66.000000)" style="stroke: black; stroke-width:0.25;"/>
<rect x="422.600000" y="51.000000" width="24.000000" height="24.000000" rx="0" ry="0" style="stroke:none;fill:#cccccc;"/>
<rect x="421.600000" y="50.000000" width="24.000000" height="24.000000" rx="0" ry="0" style="stroke:none;fill:#4B71A1;"/>
<text x="433.600000" y="64.000000" font-family="Arial" font-size="7" text-anchor="middle" fill="#FFFFFF">abs</text>
<circle cx="423.600000" cy="52.000000" r="1"/>
<line x1="418.600000" y1="61.000000" x2="421.600000" y2="62.000000"  transform="rotate(0.000000,421.600000,62.000000)" style="stroke: black; stroke-width:0.25;"/>
<line x1="418.600000" y1="63.000000" x2="421.600000" y2="62.000000"  transform="rotate(0.000000,421.600000,62.000000)" style="stroke: black; stroke-width:0.25;"/>
<rect x="223.800000" y="109.000000" width="24.000000" height="24.000000" rx="0" ry="0" style="stroke:none;fill:#cccccc;"/>
<rect x="222.800000" y="108.000000" width="24.000000" height="24.000000" rx="0" ry="0" style="stroke:none;fill:#f44800;"/>
<text x="234.800000" y="122.000000" font-family="Arial" font-size="7" text-anchor="middle" fill="#FFFFFF">0.5</text>
<circle cx="224.800000" cy="110.000000" r="1"/>
<rect x="462.600000" y="67.000000" width="24.000000" height="24.000000" rx="0" ry="0" style="stroke:none;fill:#cccccc;"/>
<rect x="461.600000" y="66.000000" width="24.000000" height="24.000000" rx="0" ry="0" style="stroke:none;fill:#4B71A1;"/>
<text x="473.600000" y="80.000000" font-family="Arial" font-size="7" text-anchor="middle" fill="#FFFFFF">&lt;</text>
<circle cx="463.600000" cy="68.000000" r="1"/>
<line x1="458.600000" y1="73.000000" x2="461.600000" y2="74.000000"  transform="rotate(0.000000,461.600000,74.000000)" style="stroke: black; stroke-width:0.25;"/>
<line x1="458.600000" y1="75.000000" x2="461.600000" y2="74.000000"  transform="rotate(0.000000,461.600000,74.000000)" style="stroke: black; stroke-width:0.25;"/>
<line x1="458.600000" y1="81.000000" x2="461.600000" y2="82.000000"  transform="rotate(0.000000,461.600000,82.000000)" style="stroke: black; stroke-width:0.25;"/>
<line x1="458.600000" y1="83.000000" x2="461.600000" y2="82.000000"  transform="rotate(0.000000,461.600000,82.000000)" style="stroke: black; stroke-width:0.25;"/>
<line x1="15.000000" y1="15.000000" x2="15.000000" y2="141.000000"  style="stroke: black; stroke-linecap:round; stroke-width:0.25; stroke-dasharray:3,3;"/>
<line x1="15.000000" y1="141.000000" x2="502.600000" y2="141.000000"  style="stroke: black; stroke-linecap:round; stroke-width:0.25; stroke-dasharray:3,3;"/>
<line x1="502.600000" y1="141.000000" x2="502.600000" y2="15.000000"  style="stroke: black; stroke-linecap:round; stroke-width:0.25; stroke-dasharray:3,3;"/>
<line x1="15.000000" y1="15.000000" x2="20.000000" y2="15.000000"  style="stroke: black; stroke-linecap:round; stroke-width:0.25; stroke-dasharray:3,3;"/>
<line x1="71.600000" y1="15.000000" x2="502.600000" y2="15.000000"  style="stroke: black; stroke-linecap:round; stroke-width:0.25; stroke-dasharray:3,3;"/>
<text x="20.000000" y="17.000000" font-family="Arial" font-size="7">position(1)(0)</text>
<line x1="504.600000" y1="77.000000" x2="507.600000" y2="78.000000"  transform="rotate(0.000000,507.600000,78.000000)" style="stroke: black; stroke-width:0.25;"/>
<line x1="504.600000" y1="79.000000" x2="507.600000" y2="78.000000"  transform="rotate(0.000000,507.600000,78.000000)" style="stroke: black; stroke-width:0.25;"/>
<line x1="210.800000" y1="78.000000" x2="214.800000" y2="78.000000"  style="stroke:black; stroke-linecap:round; stroke-width:0.25;"/>
<line x1="214.800000" y1="78.000000" x2="224.800000" y2="78.000000"  style="stroke:black; stroke-linecap:round; stroke-width:0.25;"/>
<line x1="224.800000" y1="78.000000" x2="377.600000" y2="78.000000"  style="stroke:black; stroke-linecap:round; stroke-width:0.25;"/>
<line x1="230.400000" y1="36.000000" x2="234.400000" y2="36.000000"  style="stroke:black; stroke-linecap:round; stroke-width:0.25;"/>
<line x1="234.400000" y1="36.000000" x2="234.400000" y2="36.000000"  style="stroke:black; stroke-linecap:round; stroke-width:0.25;"/>
<line x1="234.400000" y1="36.000000" x2="238.400000" y2="36.000000"  style="stroke:black; stroke-linecap:round; stroke-width:0.25;"/>
<line x1="246.800000" y1="120.000000" x2="250.800000" y2="120.000000"  style="stroke:black; stroke-linecap:round; stroke-width:0.25;"/>
<line x1="250.800000" y1="120.000000" x2="449.600000" y2="120.000000"  style="stroke:black; stroke-linecap:round; stroke-width:0.25;"/>
<line x1="262.400000" y1="36.000000" x2="266.400000" y2="36.000000"  style="stroke:black; stroke-linecap:round; stroke-width:0.25;"/>
<line x1="266.400000" y1="36.000000" x2="266.400000" y2="36.000000"  style="stroke:black; stroke-linecap:round; stroke-width:0.25;"/>
<line x1="266.400000" y1="36.000000" x2="270.400000" y2="36.000000"  style="stroke:black; stroke-linecap:round; stroke-width:0.25;"/>
<line x1="373.600000" y1="36.000000" x2="377.600000" y2="36.000000"  style="stroke:black; stroke-linecap:round; stroke-width:0.25;"/>
<line x1="377.600000" y1="36.000000" x2="385.600000" y2="36.000000"  style="stroke:black; stroke-linecap:round; stroke-width:0.25;"/>
<line x1="377.600000" y1="66.000000" x2="385.600000" y2="66.000000"  style="stroke:black; stroke-linecap:round; stroke-width:0.25;"/>
<line x1="377.600000" y1="78.000000" x2="377.600000" y2="66.000000"  style="stroke:black; stroke-linecap:round; stroke-width:0.25;"/>
<line x1="377.600000" y1="78.000000" x2="377.600000" y2="78.000000"  style="stroke:black; stroke-linecap:round; stroke-width:0.25;"/>
<line x1="385.600000" y1="36.000000" x2="385.600000" y2="58.000000"  style="stroke:black; stroke-linecap:round; stroke-width:0.25;"/>
<line x1="385.600000" y1="58.000000" x2="385.600000" y2="58.000000"  style="stroke:black; stroke-linecap:round; stroke-width:0.25;"/>
<line x1="385.600000" y1="58.000000" x2="389.600000" y2="58.000000"  style="stroke:black; stroke-linecap:round; stroke-width:0.25;"/>
<line x1="385.600000" y1="66.000000" x2="389.600000" y2="66.000000"  style="stroke:black; stroke-linecap:round; stroke-width:0.25;"/>
<line x1="413.600000" y1="62.000000" x2="417.600000" y2="62.000000"  style="stroke:black; stroke-linecap:round; stroke-width:0.25;"/>
<line x1="417.600000" y1="62.000000" x2="417.600000" y2="62.000000"  style="stroke:black; stroke-linecap:round; stroke-width:0.25;"/>
<line x1="417.600000" y1="62.000000" x2="421.600000" y2="62.000000"  style="stroke:black; stroke-linecap:round; stroke-width:0.25;"/>
<line x1="445.600000" y1="62.000000" x2="449.600000" y2="62.000000"  style="stroke:black; stroke-linecap:round; stroke-width:0.25;"/>
<line x1="449.600000" y1="62.000000" x2="457.600000" y2="62.000000"  style="stroke:black; stroke-linecap:round; stroke-width:0.25;"/>
<line x1="449.600000" y1="82.000000" x2="457.600000" y2="82.000000"  style="stroke:black; stroke-linecap:round; stroke-width:0.25;"/>
<line x1="449.600000" y1="120.000000" x2="449.600000" y2="82.000000"  style="stroke:black; stroke-linecap:round; stroke-width:0.25;"/>
<line x1="449.600000" y1="120.000000" x2="449.600000" y2="120.000000"  style="stroke:black; stroke-linecap:round; stroke-width:0.25;"/>
<line x1="457.600000" y1="62.000000" x2="457.600000" y2="74.000000"  style="stroke:black; stroke-linecap:round; stroke-width:0.25;"/>
<line x1="457.600000" y1="74.000000" x2="457.600000" y2="74.000000"  style="stroke:black; stroke-linecap:round; stroke-width:0.25;"/>
<line x1="457.600000" y1="74.000000" x2="461.600000" y2="74.000000"  style="stroke:black; stroke-linecap:round; stroke-width:0.25;"/>
<line x1="457.600000" y1="82.000000" x2="461.600000" y2="82.000000"  style="stroke:black; stroke-linecap:round; stroke-width:0.25;"/>
<line x1="485.600000" y1="78.000000" x2="489.600000" y2="78.000000"  style="stroke:black; stroke-linecap:round; stroke-width:0.25;"/>
<line x1="489.600000" y1="78.000000" x2="489.600000" y2="78.000000"  style="stroke:black; stroke-linecap:round; stroke-width:0.25;"/>
<line x1="489.600000" y1="78.000000" x2="493.600000" y2="78.000000"  style="stroke:black; stroke-linecap:round; stroke-width:0.25;"/>
<line x1="493.600000" y1="78.000000" x2="497.600000" y2="78.000000"  style="stroke:black; stroke-linecap:round; stroke-width:0.25;"/>
<line x1="497.600000" y1="78.000000" x2="507.600000" y2="78.000000"  style="stroke:black; stroke-linecap:round; stroke-width:0.25;"/>
</svg>
