<?xml version="1.0"?>
<svg xmlns="http://www.w3.org/2000/svg" xmlns:xlink="http://www.w3.org/1999/xlink" viewBox="0 0 710.400000 288.000000" width="355.200000mm" height="144.000000mm" version="1.1">
<a xlink:href="tunedBar-0x7f9d6525c690.svg">
<rect x="1.000000" y="1.000000" width="709.400000" height="287.000000" rx="0" ry="0" style="stroke:none;fill:#cccccc;"/>
<rect x="0.000000" y="0.000000" width="709.400000" height="287.000000" rx="0" ry="0" style="stroke:none;fill:#ffffff;"/>
</a>
<text x="10.000000" y="7.000000" font-family="Arial" font-size="7"></text>
<rect x="33.000000" y="133.000000" width="24.000000" height="24.000000" rx="0" ry="0" style="stroke:none;fill:#cccccc;"/>
<rect x="32.000000" y="132.000000" width="24.000000" height="24.000000" rx="0" ry="0" style="stroke:none;fill:#4B71A1;"/>
<text x="44.000000" y="146.000000" font-family="Arial" font-size="7" text-anchor="middle" fill="#FFFFFF">+</text>
<circle cx="34.000000" cy="134.000000" r="1"/>
<line x1="29.000000" y1="139.000000" x2="32.000000" y2="140.000000"  transform="rotate(0.000000,32.000000,140.000000)" style="stroke: black; stroke-width:0.25;"/>
<line x1="29.000000" y1="141.000000" x2="32.000000" y2="140.000000"  transform="rotate(0.000000,32.000000,140.000000)" style="stroke: black; stroke-width:0.25;"/>
<line x1="29.000000" y1="147.000000" x2="32.000000" y2="148.000000"  transform="rotate(0.000000,32.000000,148.000000)" style="stroke: black; stroke-width:0.25;"/>
<line x1="29.000000" y1="149.000000" x2="32.000000" y2="148.000000"  transform="rotate(0.000000,32.000000,148.000000)" style="stroke: black; stroke-width:0.25;"/>
<rect x="83.000000" y="43.000000" width="24.000000" height="24.000000" rx="0" ry="0" style="stroke:none;fill:#cccccc;"/>
<rect x="82.000000" y="42.000000" width="24.000000" height="24.000000" rx="0" ry="0" style="stroke:none;fill:#f44800;"/>
<text x="94.000000" y="56.000000" font-family="Arial" font-size="7" text-anchor="middle" fill="#FFFFFF">1</text>
<circle cx="84.000000" cy="44.000000" r="1"/>
<line x1="73.000000" y1="33.000000" x2="73.000000" y2="75.000000"  style="stroke: black; stroke-linecap:round; stroke-width:0.25; stroke-dasharray:3,3;"/>
<line x1="73.000000" y1="75.000000" x2="115.000000" y2="75.000000"  style="stroke: black; stroke-linecap:round; stroke-width:0.25; stroke-dasharray:3,3;"/>
<line x1="115.000000" y1="75.000000" x2="115.000000" y2="33.000000"  style="stroke: black; stroke-linecap:round; stroke-width:0.25; stroke-dasharray:3,3;"/>
<line x1="73.000000" y1="33.000000" x2="78.000000" y2="33.000000"  style="stroke: black; stroke-linecap:round; stroke-width:0.25; stroke-dasharray:3,3;"/>
<line x1="110.250000" y1="33.000000" x2="115.000000" y2="33.000000"  style="stroke: black; stroke-linecap:round; stroke-width:0.25; stroke-dasharray:3,3;"/>
<text x="78.000000" y="35.000000" font-family="Arial" font-size="7">baseGain</text>
<rect x="83.000000" y="95.000000" width="24.000000" height="24.000000" rx="0" ry="0" style="stroke:none;fill:#cccccc;"/>
<rect x="82.000000" y="94.000000" width="24.000000" height="24.000000" rx="0" ry="0" style="stroke:none;fill:#f44800;"/>
<text x="94.000000" y="108.000000" font-family="Arial" font-size="7" text-anchor="middle" fill="#FFFFFF">0.8</text>
<circle cx="84.000000" cy="96.000000" r="1"/>
<line x1="73.000000" y1="85.000000" x2="73.000000" y2="127.000000"  style="stroke: black; stroke-linecap:round; stroke-width:0.25; stroke-dasharray:3,3;"/>
<line x1="73.000000" y1="127.000000" x2="115.000000" y2="127.000000"  style="stroke: black; stroke-linecap:round; stroke-width:0.25; stroke-dasharray:3,3;"/>
<line x1="115.000000" y1="127.000000" x2="115.000000" y2="85.000000"  style="stroke: black; stroke-linecap:round; stroke-width:0.25; stroke-dasharray:3,3;"/>
<line x1="73.000000" y1="85.000000" x2="78.000000" y2="85.000000"  style="stroke: black; stroke-linecap:round; stroke-width:0.25; stroke-dasharray:3,3;"/>
<line x1="97.350000" y1="85.000000" x2="115.000000" y2="85.000000"  style="stroke: black; stroke-linecap:round; stroke-width:0.25; stroke-dasharray:3,3;"/>
<text x="78.000000" y="87.000000" font-family="Arial" font-size="7">gain</text>
<rect x="133.000000" y="69.000000" width="24.000000" height="24.000000" rx="0" ry="0" style="stroke:none;fill:#cccccc;"/>
<rect x="132.000000" y="68.000000" width="24.000000" height="24.000000" rx="0" ry="0" style="stroke:none;fill:#4B71A1;"/>
<text x="144.000000" y="82.000000" font-family="Arial" font-size="7" text-anchor="middle" fill="#FFFFFF">*</text>
<circle cx="134.000000" cy="70.000000" r="1"/>
<line x1="129.000000" y1="75.000000" x2="132.000000" y2="76.000000"  transform="rotate(0.000000,132.000000,76.000000)" style="stroke: black; stroke-width:0.25;"/>
<line x1="129.000000" y1="77.000000" x2="132.000000" y2="76.000000"  transform="rotate(0.000000,132.000000,76.000000)" style="stroke: black; stroke-width:0.25;"/>
<line x1="129.000000" y1="83.000000" x2="132.000000" y2="84.000000"  transform="rotate(0.000000,132.000000,84.000000)" style="stroke: black; stroke-width:0.25;"/>
<line x1="129.000000" y1="85.000000" x2="132.000000" y2="84.000000"  transform="rotate(0.000000,132.000000,84.000000)" style="stroke: black; stroke-width:0.25;"/>
<a xlink:href="gate-0x7f9d64d2a7a0.svg">
<rect x="89.200000" y="137.000000" width="51.600000" height="24.000000" rx="0" ry="0" style="stroke:none;fill:#cccccc;"/>
<rect x="88.200000" y="136.000000" width="51.600000" height="24.000000" rx="0" ry="0" style="stroke:none;fill:#003366;"/>
</a>
<a xlink:href="gate-0x7f9d64d2a7a0.svg">
<text x="114.000000" y="150.000000" font-family="Arial" font-size="7" text-anchor="middle" fill="#FFFFFF">gate(1)(0)</text>
</a>
<circle cx="90.200000" cy="138.000000" r="1"/>
<rect x="173.000000" y="85.000000" width="24.000000" height="24.000000" rx="0" ry="0" style="stroke:none;fill:#cccccc;"/>
<rect x="172.000000" y="84.000000" width="24.000000" height="24.000000" rx="0" ry="0" style="stroke:none;fill:#4B71A1;"/>
<text x="184.000000" y="98.000000" font-family="Arial" font-size="7" text-anchor="middle" fill="#FFFFFF">*</text>
<circle cx="174.000000" cy="86.000000" r="1"/>
<line x1="169.000000" y1="91.000000" x2="172.000000" y2="92.000000"  transform="rotate(0.000000,172.000000,92.000000)" style="stroke: black; stroke-width:0.25;"/>
<line x1="169.000000" y1="93.000000" x2="172.000000" y2="92.000000"  transform="rotate(0.000000,172.000000,92.000000)" style="stroke: black; stroke-width:0.25;"/>
<line x1="169.000000" y1="99.000000" x2="172.000000" y2="100.000000"  transform="rotate(0.000000,172.000000,100.000000)" style="stroke: black; stroke-width:0.25;"/>
<line x1="169.000000" y1="101.000000" x2="172.000000" y2="100.000000"  transform="rotate(0.000000,172.000000,100.000000)" style="stroke: black; stroke-width:0.25;"/>
<rect x="123.000000" y="179.000000" width="24.000000" height="24.000000" rx="0" ry="0" style="stroke:none;fill:#cccccc;"/>
<rect x="122.000000" y="178.000000" width="24.000000" height="24.000000" rx="0" ry="0" style="stroke:none;fill:#f44800;"/>
<text x="134.000000" y="192.000000" font-family="Arial" font-size="7" text-anchor="middle" fill="#FFFFFF">4</text>
<circle cx="124.000000" cy="180.000000" r="1"/>
<line x1="113.000000" y1="169.000000" x2="113.000000" y2="211.000000"  style="stroke: black; stroke-linecap:round; stroke-width:0.25; stroke-dasharray:3,3;"/>
<line x1="113.000000" y1="211.000000" x2="155.000000" y2="211.000000"  style="stroke: black; stroke-linecap:round; stroke-width:0.25; stroke-dasharray:3,3;"/>
<line x1="155.000000" y1="211.000000" x2="155.000000" y2="169.000000"  style="stroke: black; stroke-linecap:round; stroke-width:0.25; stroke-dasharray:3,3;"/>
<line x1="113.000000" y1="169.000000" x2="118.000000" y2="169.000000"  style="stroke: black; stroke-linecap:round; stroke-width:0.25; stroke-dasharray:3,3;"/>
<line x1="143.800000" y1="169.000000" x2="155.000000" y2="169.000000"  style="stroke: black; stroke-linecap:round; stroke-width:0.25; stroke-dasharray:3,3;"/>
<text x="118.000000" y="171.000000" font-family="Arial" font-size="7">nModes</text>
<rect x="213.000000" y="111.000000" width="24.000000" height="24.000000" rx="0" ry="0" style="stroke:none;fill:#cccccc;"/>
<rect x="212.000000" y="110.000000" width="24.000000" height="24.000000" rx="0" ry="0" style="stroke:none;fill:#4B71A1;"/>
<text x="224.000000" y="124.000000" font-family="Arial" font-size="7" text-anchor="middle" fill="#FFFFFF">/</text>
<circle cx="214.000000" cy="112.000000" r="1"/>
<line x1="209.000000" y1="117.000000" x2="212.000000" y2="118.000000"  transform="rotate(0.000000,212.000000,118.000000)" style="stroke: black; stroke-width:0.25;"/>
<line x1="209.000000" y1="119.000000" x2="212.000000" y2="118.000000"  transform="rotate(0.000000,212.000000,118.000000)" style="stroke: black; stroke-width:0.25;"/>
<line x1="209.000000" y1="125.000000" x2="212.000000" y2="126.000000"  transform="rotate(0.000000,212.000000,126.000000)" style="stroke: black; stroke-width:0.25;"/>
<line x1="209.000000" y1="127.000000" x2="212.000000" y2="126.000000"  transform="rotate(0.000000,212.000000,126.000000)" style="stroke: black; stroke-width:0.25;"/>
<rect x="143.000000" y="231.000000" width="24.000000" height="24.000000" rx="0" ry="0" style="stroke:none;fill:#cccccc;"/>
<rect x="142.000000" y="230.000000" width="24.000000" height="24.000000" rx="0" ry="0" style="stroke:none;fill:#f44800;"/>
<text x="154.000000" y="244.000000" font-family="Arial" font-size="7" text-anchor="middle" fill="#FFFFFF">1</text>
<circle cx="144.000000" cy="232.000000" r="1"/>
<line x1="133.000000" y1="221.000000" x2="133.000000" y2="263.000000"  style="stroke: black; stroke-linecap:round; stroke-width:0.25; stroke-dasharray:3,3;"/>
<line x1="133.000000" y1="263.000000" x2="175.000000" y2="263.000000"  style="stroke: black; stroke-linecap:round; stroke-width:0.25; stroke-dasharray:3,3;"/>
<line x1="175.000000" y1="263.000000" x2="175.000000" y2="221.000000"  style="stroke: black; stroke-linecap:round; stroke-width:0.25; stroke-dasharray:3,3;"/>
<line x1="133.000000" y1="221.000000" x2="138.000000" y2="221.000000"  style="stroke: black; stroke-linecap:round; stroke-width:0.25; stroke-dasharray:3,3;"/>
<line x1="170.250000" y1="221.000000" x2="175.000000" y2="221.000000"  style="stroke: black; stroke-linecap:round; stroke-width:0.25; stroke-dasharray:3,3;"/>
<text x="138.000000" y="223.000000" font-family="Arial" font-size="7">baseGain</text>
<rect x="253.000000" y="137.000000" width="24.000000" height="24.000000" rx="0" ry="0" style="stroke:none;fill:#cccccc;"/>
<rect x="252.000000" y="136.000000" width="24.000000" height="24.000000" rx="0" ry="0" style="stroke:none;fill:#4B71A1;"/>
<text x="264.000000" y="150.000000" font-family="Arial" font-size="7" text-anchor="middle" fill="#FFFFFF">*</text>
<circle cx="254.000000" cy="138.000000" r="1"/>
<line x1="249.000000" y1="143.000000" x2="252.000000" y2="144.000000"  transform="rotate(0.000000,252.000000,144.000000)" style="stroke: black; stroke-width:0.25;"/>
<line x1="249.000000" y1="145.000000" x2="252.000000" y2="144.000000"  transform="rotate(0.000000,252.000000,144.000000)" style="stroke: black; stroke-width:0.25;"/>
<line x1="249.000000" y1="151.000000" x2="252.000000" y2="152.000000"  transform="rotate(0.000000,252.000000,152.000000)" style="stroke: black; stroke-width:0.25;"/>
<line x1="249.000000" y1="153.000000" x2="252.000000" y2="152.000000"  transform="rotate(0.000000,252.000000,152.000000)" style="stroke: black; stroke-width:0.25;"/>
<rect x="293.000000" y="133.000000" width="24.000000" height="24.000000" rx="0" ry="0" style="stroke:none;fill:#cccccc;"/>
<rect x="292.000000" y="132.000000" width="24.000000" height="24.000000" rx="0" ry="0" style="stroke:none;fill:#4B71A1;"/>
<text x="304.000000" y="146.000000" font-family="Arial" font-size="7" text-anchor="middle" fill="#FFFFFF">+</text>
<circle cx="294.000000" cy="134.000000" r="1"/>
<line x1="289.000000" y1="139.000000" x2="292.000000" y2="140.000000"  transform="rotate(0.000000,292.000000,140.000000)" style="stroke: black; stroke-width:0.25;"/>
<line x1="289.000000" y1="141.000000" x2="292.000000" y2="140.000000"  transform="rotate(0.000000,292.000000,140.000000)" style="stroke: black; stroke-width:0.25;"/>
<line x1="289.000000" y1="147.000000" x2="292.000000" y2="148.000000"  transform="rotate(0.000000,292.000000,148.000000)" style="stroke: black; stroke-width:0.25;"/>
<line x1="289.000000" y1="149.000000" x2="292.000000" y2="148.000000"  transform="rotate(0.000000,292.000000,148.000000)" style="stroke: black; stroke-width:0.25;"/>
<a xlink:href="delayLine-0x7f9d6523cee0.svg">
<rect x="325.000000" y="133.000000" width="90.300000" height="24.000000" rx="0" ry="0" style="stroke:none;fill:#cccccc;"/>
<rect x="324.000000" y="132.000000" width="90.300000" height="24.000000" rx="0" ry="0" style="stroke:none;fill:#003366;"/>
</a>
<a xlink:href="delayLine-0x7f9d6523cee0.svg">
<text x="369.150000" y="146.000000" font-family="Arial" font-size="7" text-anchor="middle" fill="#FFFFFF">delayLine(1)(92.49f)</text>
</a>
<circle cx="326.000000" cy="134.000000" r="1"/>
<line x1="321.000000" y1="143.000000" x2="324.000000" y2="144.000000"  transform="rotate(0.000000,324.000000,144.000000)" style="stroke: black; stroke-width:0.25;"/>
<line x1="321.000000" y1="145.000000" x2="324.000000" y2="144.000000"  transform="rotate(0.000000,324.000000,144.000000)" style="stroke: black; stroke-width:0.25;"/>
<rect x="440.400000" y="111.000000" width="25.800000" height="24.000000" rx="0" ry="0" style="stroke:none;fill:#cccccc;"/>
<rect x="439.400000" y="110.000000" width="25.800000" height="24.000000" rx="0" ry="0" style="stroke:none;fill:#f44800;"/>
<text x="452.300000" y="124.000000" font-family="Arial" font-size="7" text-anchor="middle" fill="#FFFFFF">0.999</text>
<circle cx="441.400000" cy="112.000000" r="1"/>
<rect x="441.300000" y="153.000000" width="24.000000" height="24.000000" rx="0" ry="0" style="stroke:none;fill:#cccccc;"/>
<rect x="440.300000" y="152.000000" width="24.000000" height="24.000000" rx="0" ry="0" style="stroke:none;fill:#f44800;"/>
<text x="452.300000" y="166.000000" font-family="Arial" font-size="7" text-anchor="middle" fill="#FFFFFF">2</text>
<circle cx="442.300000" cy="154.000000" r="1"/>
<line x1="431.300000" y1="143.000000" x2="431.300000" y2="185.000000"  style="stroke: black; stroke-linecap:round; stroke-width:0.25; stroke-dasharray:3,3;"/>
<line x1="431.300000" y1="185.000000" x2="473.300000" y2="185.000000"  style="stroke: black; stroke-linecap:round; stroke-width:0.25; stroke-dasharray:3,3;"/>
<line x1="473.300000" y1="185.000000" x2="473.300000" y2="143.000000"  style="stroke: black; stroke-linecap:round; stroke-width:0.25; stroke-dasharray:3,3;"/>
<line x1="431.300000" y1="143.000000" x2="436.300000" y2="143.000000"  style="stroke: black; stroke-linecap:round; stroke-width:0.25; stroke-dasharray:3,3;"/>
<line x1="462.100000" y1="143.000000" x2="473.300000" y2="143.000000"  style="stroke: black; stroke-linecap:round; stroke-width:0.25; stroke-dasharray:3,3;"/>
<text x="436.300000" y="145.000000" font-family="Arial" font-size="7">preset</text>
<rect x="491.300000" y="137.000000" width="24.000000" height="24.000000" rx="0" ry="0" style="stroke:none;fill:#cccccc;"/>
<rect x="490.300000" y="136.000000" width="24.000000" height="24.000000" rx="0" ry="0" style="stroke:none;fill:#4B71A1;"/>
<text x="502.300000" y="150.000000" font-family="Arial" font-size="7" text-anchor="middle" fill="#FFFFFF">pow</text>
<circle cx="492.300000" cy="138.000000" r="1"/>
<line x1="487.300000" y1="143.000000" x2="490.300000" y2="144.000000"  transform="rotate(0.000000,490.300000,144.000000)" style="stroke: black; stroke-width:0.25;"/>
<line x1="487.300000" y1="145.000000" x2="490.300000" y2="144.000000"  transform="rotate(0.000000,490.300000,144.000000)" style="stroke: black; stroke-width:0.25;"/>
<line x1="487.300000" y1="151.000000" x2="490.300000" y2="152.000000"  transform="rotate(0.000000,490.300000,152.000000)" style="stroke: black; stroke-width:0.25;"/>
<line x1="487.300000" y1="153.000000" x2="490.300000" y2="152.000000"  transform="rotate(0.000000,490.300000,152.000000)" style="stroke: black; stroke-width:0.25;"/>
<rect x="531.300000" y="133.000000" width="24.000000" height="24.000000" rx="0" ry="0" style="stroke:none;fill:#cccccc;"/>
<rect x="530.300000" y="132.000000" width="24.000000" height="24.000000" rx="0" ry="0" style="stroke:none;fill:#4B71A1;"/>
<text x="542.300000" y="146.000000" font-family="Arial" font-size="7" text-anchor="middle" fill="#FFFFFF">*</text>
<circle cx="532.300000" cy="134.000000" r="1"/>
<line x1="527.300000" y1="139.000000" x2="530.300000" y2="140.000000"  transform="rotate(0.000000,530.300000,140.000000)" style="stroke: black; stroke-width:0.25;"/>
<line x1="527.300000" y1="141.000000" x2="530.300000" y2="140.000000"  transform="rotate(0.000000,530.300000,140.000000)" style="stroke: black; stroke-width:0.25;"/>
<line x1="527.300000" y1="147.000000" x2="530.300000" y2="148.000000"  transform="rotate(0.000000,530.300000,148.000000)" style="stroke: black; stroke-width:0.25;"/>
<line x1="527.300000" y1="149.000000" x2="530.300000" y2="148.000000"  transform="rotate(0.000000,530.300000,148.000000)" style="stroke: black; stroke-width:0.25;"/>
<a xlink:href="bandPassFilter-0x7f9d65245610.svg">
<rect x="563.300000" y="133.000000" width="116.100000" height="24.000000" rx="0" ry="0" style="stroke:none;fill:#cccccc;"/>
<rect x="562.300000" y="132.000000" width="116.100000" height="24.000000" rx="0" ry="0" style="stroke:none;fill:#003366;"/>
</a>
<a xlink:href="bandPassFilter-0x7f9d65245610.svg">
<text x="620.350000" y="146.000000" font-family="Arial" font-size="7" text-anchor="middle" fill="#FFFFFF">bandPassFilter(1)(92.49f)</text>
</a>
<circle cx="564.300000" cy="134.000000" r="1"/>
<line x1="559.300000" y1="143.000000" x2="562.300000" y2="144.000000"  transform="rotate(0.000000,562.300000,144.000000)" style="stroke: black; stroke-width:0.25;"/>
<line x1="559.300000" y1="145.000000" x2="562.300000" y2="144.000000"  transform="rotate(0.000000,562.300000,144.000000)" style="stroke: black; stroke-width:0.25;"/>
<line x1="15.000000" y1="15.000000" x2="15.000000" y2="273.000000"  style="stroke: black; stroke-linecap:round; stroke-width:0.25; stroke-dasharray:3,3;"/>
<line x1="15.000000" y1="273.000000" x2="695.400000" y2="273.000000"  style="stroke: black; stroke-linecap:round; stroke-width:0.25; stroke-dasharray:3,3;"/>
<line x1="695.400000" y1="273.000000" x2="695.400000" y2="15.000000"  style="stroke: black; stroke-linecap:round; stroke-width:0.25; stroke-dasharray:3,3;"/>
<line x1="15.000000" y1="15.000000" x2="20.000000" y2="15.000000"  style="stroke: black; stroke-linecap:round; stroke-width:0.25; stroke-dasharray:3,3;"/>
<line x1="119.975000" y1="15.000000" x2="695.400000" y2="15.000000"  style="stroke: black; stroke-linecap:round; stroke-width:0.25; stroke-dasharray:3,3;"/>
<text x="20.000000" y="17.000000" font-family="Arial" font-size="7">resonance(1)(..., lenv = {}])</text>
<line x1="697.400000" y1="143.000000" x2="700.400000" y2="144.000000"  transform="rotate(0.000000,700.400000,144.000000)" style="stroke: black; stroke-width:0.25;"/>
<line x1="697.400000" y1="145.000000" x2="700.400000" y2="144.000000"  transform="rotate(0.000000,700.400000,144.000000)" style="stroke: black; stroke-width:0.25;"/>
<line x1="10.000000" y1="140.000000" x2="20.000000" y2="140.000000"  style="stroke:black; stroke-linecap:round; stroke-width:0.25;"/>
<line x1="10.000000" y1="148.000000" x2="20.000000" y2="148.000000"  style="stroke:black; stroke-linecap:round; stroke-width:0.25;"/>
<line x1="20.000000" y1="140.000000" x2="24.000000" y2="140.000000"  style="stroke:black; stroke-linecap:round; stroke-width:0.25;"/>
<line x1="20.000000" y1="148.000000" x2="24.000000" y2="148.000000"  style="stroke:black; stroke-linecap:round; stroke-width:0.25;"/>
<line x1="24.000000" y1="140.000000" x2="28.000000" y2="140.000000"  style="stroke:black; stroke-linecap:round; stroke-width:0.25;"/>
<line x1="24.000000" y1="148.000000" x2="28.000000" y2="148.000000"  style="stroke:black; stroke-linecap:round; stroke-width:0.25;"/>
<line x1="28.000000" y1="140.000000" x2="28.000000" y2="140.000000"  style="stroke:black; stroke-linecap:round; stroke-width:0.25;"/>
<line x1="28.000000" y1="140.000000" x2="32.000000" y2="140.000000"  style="stroke:black; stroke-linecap:round; stroke-width:0.25;"/>
<line x1="28.000000" y1="148.000000" x2="28.000000" y2="148.000000"  style="stroke:black; stroke-linecap:round; stroke-width:0.25;"/>
<line x1="28.000000" y1="148.000000" x2="32.000000" y2="148.000000"  style="stroke:black; stroke-linecap:round; stroke-width:0.25;"/>
<line x1="56.000000" y1="144.000000" x2="60.000000" y2="144.000000"  style="stroke:black; stroke-linecap:round; stroke-width:0.25;"/>
<line x1="60.000000" y1="24.000000" x2="68.000000" y2="24.000000"  style="stroke:black; stroke-linecap:round; stroke-width:0.25;"/>
<line x1="60.000000" y1="144.000000" x2="60.000000" y2="24.000000"  style="stroke:black; stroke-linecap:round; stroke-width:0.25;"/>
<line x1="60.000000" y1="144.000000" x2="60.000000" y2="144.000000"  style="stroke:black; stroke-linecap:round; stroke-width:0.25;"/>
<line x1="68.000000" y1="24.000000" x2="174.000000" y2="24.000000"  style="stroke:black; stroke-linecap:round; stroke-width:0.25;"/>
<line x1="106.000000" y1="54.000000" x2="110.000000" y2="54.000000"  style="stroke:black; stroke-linecap:round; stroke-width:0.25;"/>
<line x1="106.000000" y1="106.000000" x2="110.000000" y2="106.000000"  style="stroke:black; stroke-linecap:round; stroke-width:0.25;"/>
<line x1="110.000000" y1="54.000000" x2="120.000000" y2="54.000000"  style="stroke:black; stroke-linecap:round; stroke-width:0.25;"/>
<line x1="110.000000" y1="106.000000" x2="120.000000" y2="106.000000"  style="stroke:black; stroke-linecap:round; stroke-width:0.25;"/>
<line x1="120.000000" y1="54.000000" x2="128.000000" y2="54.000000"  style="stroke:black; stroke-linecap:round; stroke-width:0.25;"/>
<line x1="120.000000" y1="84.000000" x2="128.000000" y2="84.000000"  style="stroke:black; stroke-linecap:round; stroke-width:0.25;"/>
<line x1="120.000000" y1="106.000000" x2="120.000000" y2="84.000000"  style="stroke:black; stroke-linecap:round; stroke-width:0.25;"/>
<line x1="120.000000" y1="106.000000" x2="120.000000" y2="106.000000"  style="stroke:black; stroke-linecap:round; stroke-width:0.25;"/>
<line x1="128.000000" y1="54.000000" x2="128.000000" y2="76.000000"  style="stroke:black; stroke-linecap:round; stroke-width:0.25;"/>
<line x1="128.000000" y1="76.000000" x2="128.000000" y2="76.000000"  style="stroke:black; stroke-linecap:round; stroke-width:0.25;"/>
<line x1="128.000000" y1="76.000000" x2="132.000000" y2="76.000000"  style="stroke:black; stroke-linecap:round; stroke-width:0.25;"/>
<line x1="128.000000" y1="84.000000" x2="132.000000" y2="84.000000"  style="stroke:black; stroke-linecap:round; stroke-width:0.25;"/>
<line x1="139.800000" y1="148.000000" x2="143.800000" y2="148.000000"  style="stroke:black; stroke-linecap:round; stroke-width:0.25;"/>
<line x1="143.800000" y1="148.000000" x2="160.000000" y2="148.000000"  style="stroke:black; stroke-linecap:round; stroke-width:0.25;"/>
<line x1="146.000000" y1="190.000000" x2="150.000000" y2="190.000000"  style="stroke:black; stroke-linecap:round; stroke-width:0.25;"/>
<line x1="150.000000" y1="190.000000" x2="160.000000" y2="190.000000"  style="stroke:black; stroke-linecap:round; stroke-width:0.25;"/>
<line x1="156.000000" y1="80.000000" x2="160.000000" y2="80.000000"  style="stroke:black; stroke-linecap:round; stroke-width:0.25;"/>
<line x1="160.000000" y1="80.000000" x2="168.000000" y2="80.000000"  style="stroke:black; stroke-linecap:round; stroke-width:0.25;"/>
<line x1="160.000000" y1="100.000000" x2="168.000000" y2="100.000000"  style="stroke:black; stroke-linecap:round; stroke-width:0.25;"/>
<line x1="160.000000" y1="148.000000" x2="160.000000" y2="100.000000"  style="stroke:black; stroke-linecap:round; stroke-width:0.25;"/>
<line x1="160.000000" y1="148.000000" x2="160.000000" y2="148.000000"  style="stroke:black; stroke-linecap:round; stroke-width:0.25;"/>
<line x1="160.000000" y1="190.000000" x2="200.000000" y2="190.000000"  style="stroke:black; stroke-linecap:round; stroke-width:0.25;"/>
<line x1="166.000000" y1="242.000000" x2="170.000000" y2="242.000000"  style="stroke:black; stroke-linecap:round; stroke-width:0.25;"/>
<line x1="168.000000" y1="80.000000" x2="168.000000" y2="92.000000"  style="stroke:black; stroke-linecap:round; stroke-width:0.25;"/>
<line x1="168.000000" y1="92.000000" x2="168.000000" y2="92.000000"  style="stroke:black; stroke-linecap:round; stroke-width:0.25;"/>
<line x1="168.000000" y1="92.000000" x2="172.000000" y2="92.000000"  style="stroke:black; stroke-linecap:round; stroke-width:0.25;"/>
<line x1="168.000000" y1="100.000000" x2="172.000000" y2="100.000000"  style="stroke:black; stroke-linecap:round; stroke-width:0.25;"/>
<line x1="170.000000" y1="242.000000" x2="180.000000" y2="242.000000"  style="stroke:black; stroke-linecap:round; stroke-width:0.25;"/>
<line x1="174.000000" y1="24.000000" x2="280.000000" y2="24.000000"  style="stroke:black; stroke-linecap:round; stroke-width:0.25;"/>
<line x1="180.000000" y1="242.000000" x2="240.000000" y2="242.000000"  style="stroke:black; stroke-linecap:round; stroke-width:0.25;"/>
<line x1="196.000000" y1="96.000000" x2="200.000000" y2="96.000000"  style="stroke:black; stroke-linecap:round; stroke-width:0.25;"/>
<line x1="200.000000" y1="96.000000" x2="208.000000" y2="96.000000"  style="stroke:black; stroke-linecap:round; stroke-width:0.25;"/>
<line x1="200.000000" y1="126.000000" x2="208.000000" y2="126.000000"  style="stroke:black; stroke-linecap:round; stroke-width:0.25;"/>
<line x1="200.000000" y1="190.000000" x2="200.000000" y2="126.000000"  style="stroke:black; stroke-linecap:round; stroke-width:0.25;"/>
<line x1="200.000000" y1="190.000000" x2="200.000000" y2="190.000000"  style="stroke:black; stroke-linecap:round; stroke-width:0.25;"/>
<line x1="208.000000" y1="96.000000" x2="208.000000" y2="118.000000"  style="stroke:black; stroke-linecap:round; stroke-width:0.25;"/>
<line x1="208.000000" y1="118.000000" x2="208.000000" y2="118.000000"  style="stroke:black; stroke-linecap:round; stroke-width:0.25;"/>
<line x1="208.000000" y1="118.000000" x2="212.000000" y2="118.000000"  style="stroke:black; stroke-linecap:round; stroke-width:0.25;"/>
<line x1="208.000000" y1="126.000000" x2="212.000000" y2="126.000000"  style="stroke:black; stroke-linecap:round; stroke-width:0.25;"/>
<line x1="236.000000" y1="122.000000" x2="240.000000" y2="122.000000"  style="stroke:black; stroke-linecap:round; stroke-width:0.25;"/>
<line x1="240.000000" y1="122.000000" x2="248.000000" y2="122.000000"  style="stroke:black; stroke-linecap:round; stroke-width:0.25;"/>
<line x1="240.000000" y1="152.000000" x2="248.000000" y2="152.000000"  style="stroke:black; stroke-linecap:round; stroke-width:0.25;"/>
<line x1="240.000000" y1="242.000000" x2="240.000000" y2="152.000000"  style="stroke:black; stroke-linecap:round; stroke-width:0.25;"/>
<line x1="240.000000" y1="242.000000" x2="240.000000" y2="242.000000"  style="stroke:black; stroke-linecap:round; stroke-width:0.25;"/>
<line x1="248.000000" y1="122.000000" x2="248.000000" y2="144.000000"  style="stroke:black; stroke-linecap:round; stroke-width:0.25;"/>
<line x1="248.000000" y1="144.000000" x2="248.000000" y2="144.000000"  style="stroke:black; stroke-linecap:round; stroke-width:0.25;"/>
<line x1="248.000000" y1="144.000000" x2="252.000000" y2="144.000000"  style="stroke:black; stroke-linecap:round; stroke-width:0.25;"/>
<line x1="248.000000" y1="152.000000" x2="252.000000" y2="152.000000"  style="stroke:black; stroke-linecap:round; stroke-width:0.25;"/>
<line x1="276.000000" y1="148.000000" x2="280.000000" y2="148.000000"  style="stroke:black; stroke-linecap:round; stroke-width:0.25;"/>
<line x1="280.000000" y1="24.000000" x2="288.000000" y2="24.000000"  style="stroke:black; stroke-linecap:round; stroke-width:0.25;"/>
<line x1="280.000000" y1="148.000000" x2="288.000000" y2="148.000000"  style="stroke:black; stroke-linecap:round; stroke-width:0.25;"/>
<line x1="288.000000" y1="24.000000" x2="288.000000" y2="140.000000"  style="stroke:black; stroke-linecap:round; stroke-width:0.25;"/>
<line x1="288.000000" y1="140.000000" x2="288.000000" y2="140.000000"  style="stroke:black; stroke-linecap:round; stroke-width:0.25;"/>
<line x1="288.000000" y1="140.000000" x2="292.000000" y2="140.000000"  style="stroke:black; stroke-linecap:round; stroke-width:0.25;"/>
<line x1="288.000000" y1="148.000000" x2="292.000000" y2="148.000000"  style="stroke:black; stroke-linecap:round; stroke-width:0.25;"/>
<line x1="316.000000" y1="144.000000" x2="320.000000" y2="144.000000"  style="stroke:black; stroke-linecap:round; stroke-width:0.25;"/>
<line x1="320.000000" y1="144.000000" x2="320.000000" y2="144.000000"  style="stroke:black; stroke-linecap:round; stroke-width:0.25;"/>
<line x1="320.000000" y1="144.000000" x2="324.000000" y2="144.000000"  style="stroke:black; stroke-linecap:round; stroke-width:0.25;"/>
<line x1="414.300000" y1="144.000000" x2="418.300000" y2="144.000000"  style="stroke:black; stroke-linecap:round; stroke-width:0.25;"/>
<line x1="418.300000" y1="102.000000" x2="426.300000" y2="102.000000"  style="stroke:black; stroke-linecap:round; stroke-width:0.25;"/>
<line x1="418.300000" y1="144.000000" x2="418.300000" y2="102.000000"  style="stroke:black; stroke-linecap:round; stroke-width:0.25;"/>
<line x1="418.300000" y1="144.000000" x2="418.300000" y2="144.000000"  style="stroke:black; stroke-linecap:round; stroke-width:0.25;"/>
<line x1="426.300000" y1="102.000000" x2="472.300000" y2="102.000000"  style="stroke:black; stroke-linecap:round; stroke-width:0.25;"/>
<line x1="464.300000" y1="164.000000" x2="468.300000" y2="164.000000"  style="stroke:black; stroke-linecap:round; stroke-width:0.25;"/>
<line x1="465.200000" y1="122.000000" x2="469.200000" y2="122.000000"  style="stroke:black; stroke-linecap:round; stroke-width:0.25;"/>
<line x1="468.300000" y1="164.000000" x2="478.300000" y2="164.000000"  style="stroke:black; stroke-linecap:round; stroke-width:0.25;"/>
<line x1="469.200000" y1="122.000000" x2="478.300000" y2="122.000000"  style="stroke:black; stroke-linecap:round; stroke-width:0.25;"/>
<line x1="472.300000" y1="102.000000" x2="518.300000" y2="102.000000"  style="stroke:black; stroke-linecap:round; stroke-width:0.25;"/>
<line x1="478.300000" y1="152.000000" x2="486.300000" y2="152.000000"  style="stroke:black; stroke-linecap:round; stroke-width:0.25;"/>
<line x1="478.300000" y1="164.000000" x2="478.300000" y2="152.000000"  style="stroke:black; stroke-linecap:round; stroke-width:0.25;"/>
<line x1="478.300000" y1="164.000000" x2="478.300000" y2="164.000000"  style="stroke:black; stroke-linecap:round; stroke-width:0.25;"/>
<line x1="478.300000" y1="122.000000" x2="486.300000" y2="122.000000"  style="stroke:black; stroke-linecap:round; stroke-width:0.25;"/>
<line x1="486.300000" y1="144.000000" x2="490.300000" y2="144.000000"  style="stroke:black; stroke-linecap:round; stroke-width:0.25;"/>
<line x1="486.300000" y1="152.000000" x2="490.300000" y2="152.000000"  style="stroke:black; stroke-linecap:round; stroke-width:0.25;"/>
<line x1="486.300000" y1="122.000000" x2="486.300000" y2="144.000000"  style="stroke:black; stroke-linecap:round; stroke-width:0.25;"/>
<line x1="486.300000" y1="144.000000" x2="486.300000" y2="144.000000"  style="stroke:black; stroke-linecap:round; stroke-width:0.25;"/>
<line x1="514.300000" y1="148.000000" x2="518.300000" y2="148.000000"  style="stroke:black; stroke-linecap:round; stroke-width:0.25;"/>
<line x1="518.300000" y1="102.000000" x2="526.300000" y2="102.000000"  style="stroke:black; stroke-linecap:round; stroke-width:0.25;"/>
<line x1="518.300000" y1="148.000000" x2="526.300000" y2="148.000000"  style="stroke:black; stroke-linecap:round; stroke-width:0.25;"/>
<line x1="526.300000" y1="102.000000" x2="526.300000" y2="140.000000"  style="stroke:black; stroke-linecap:round; stroke-width:0.25;"/>
<line x1="526.300000" y1="140.000000" x2="526.300000" y2="140.000000"  style="stroke:black; stroke-linecap:round; stroke-width:0.25;"/>
<line x1="526.300000" y1="140.000000" x2="530.300000" y2="140.000000"  style="stroke:black; stroke-linecap:round; stroke-width:0.25;"/>
<line x1="526.300000" y1="148.000000" x2="530.300000" y2="148.000000"  style="stroke:black; stroke-linecap:round; stroke-width:0.25;"/>
<line x1="554.300000" y1="144.000000" x2="558.300000" y2="144.000000"  style="stroke:black; stroke-linecap:round; stroke-width:0.25;"/>
<line x1="558.300000" y1="144.000000" x2="558.300000" y2="144.000000"  style="stroke:black; stroke-linecap:round; stroke-width:0.25;"/>
<line x1="558.300000" y1="144.000000" x2="562.300000" y2="144.000000"  style="stroke:black; stroke-linecap:round; stroke-width:0.25;"/>
<line x1="678.400000" y1="144.000000" x2="682.400000" y2="144.000000"  style="stroke:black; stroke-linecap:round; stroke-width:0.25;"/>
<line x1="682.400000" y1="144.000000" x2="682.400000" y2="144.000000"  style="stroke:black; stroke-linecap:round; stroke-width:0.25;"/>
<line x1="682.400000" y1="144.000000" x2="686.400000" y2="144.000000"  style="stroke:black; stroke-linecap:round; stroke-width:0.25;"/>
<line x1="686.400000" y1="144.000000" x2="690.400000" y2="144.000000"  style="stroke:black; stroke-linecap:round; stroke-width:0.25;"/>
<line x1="690.400000" y1="144.000000" x2="700.400000" y2="144.000000"  style="stroke:black; stroke-linecap:round; stroke-width:0.25;"/>
</svg>
