<?xml version="1.0"?>
<svg xmlns="http://www.w3.org/2000/svg" xmlns:xlink="http://www.w3.org/1999/xlink" viewBox="0 0 468.200000 428.000000" width="234.100000mm" height="214.000000mm" version="1.1">
<a xlink:href="env-0x7fc63b6c37c0.svg">
<rect x="1.000000" y="1.000000" width="467.200000" height="427.000000" rx="0" ry="0" style="stroke:none;fill:#cccccc;"/>
<rect x="0.000000" y="0.000000" width="467.200000" height="427.000000" rx="0" ry="0" style="stroke:none;fill:#ffffff;"/>
</a>
<text x="10.000000" y="7.000000" font-family="Arial" font-size="7"></text>
<rect x="139.100000" y="25.000000" width="24.000000" height="24.000000" rx="0" ry="0" style="stroke:none;fill:#cccccc;"/>
<rect x="138.100000" y="24.000000" width="24.000000" height="24.000000" rx="0" ry="0" style="stroke:none;fill:#47945E;"/>
<text x="150.100000" y="38.000000" font-family="Arial" font-size="7" text-anchor="middle" fill="#FFFFFF">p2</text>
<circle cx="140.100000" cy="26.000000" r="1"/>
<rect x="139.100000" y="67.000000" width="24.000000" height="24.000000" rx="0" ry="0" style="stroke:none;fill:#cccccc;"/>
<rect x="138.100000" y="66.000000" width="24.000000" height="24.000000" rx="0" ry="0" style="stroke:none;fill:#f44800;"/>
<text x="150.100000" y="80.000000" font-family="Arial" font-size="7" text-anchor="middle" fill="#FFFFFF">0</text>
<circle cx="140.100000" cy="68.000000" r="1"/>
<line x1="129.100000" y1="57.000000" x2="129.100000" y2="99.000000"  style="stroke: black; stroke-linecap:round; stroke-width:0.25; stroke-dasharray:3,3;"/>
<line x1="129.100000" y1="99.000000" x2="171.100000" y2="99.000000"  style="stroke: black; stroke-linecap:round; stroke-width:0.25; stroke-dasharray:3,3;"/>
<line x1="171.100000" y1="99.000000" x2="171.100000" y2="57.000000"  style="stroke: black; stroke-linecap:round; stroke-width:0.25; stroke-dasharray:3,3;"/>
<line x1="129.100000" y1="57.000000" x2="134.100000" y2="57.000000"  style="stroke: black; stroke-linecap:round; stroke-width:0.25; stroke-dasharray:3,3;"/>
<line x1="171.100000" y1="57.000000" x2="171.100000" y2="57.000000"  style="stroke: black; stroke-linecap:round; stroke-width:0.25; stroke-dasharray:3,3;"/>
<text x="134.100000" y="59.000000" font-family="Arial" font-size="7">pressureEnvelope</text>
<rect x="189.100000" y="51.000000" width="24.000000" height="24.000000" rx="0" ry="0" style="stroke:none;fill:#cccccc;"/>
<rect x="188.100000" y="50.000000" width="24.000000" height="24.000000" rx="0" ry="0" style="stroke:none;fill:#4B71A1;"/>
<text x="200.100000" y="64.000000" font-family="Arial" font-size="7" text-anchor="middle" fill="#FFFFFF">==</text>
<circle cx="190.100000" cy="52.000000" r="1"/>
<line x1="185.100000" y1="57.000000" x2="188.100000" y2="58.000000"  transform="rotate(0.000000,188.100000,58.000000)" style="stroke: black; stroke-width:0.25;"/>
<line x1="185.100000" y1="59.000000" x2="188.100000" y2="58.000000"  transform="rotate(0.000000,188.100000,58.000000)" style="stroke: black; stroke-width:0.25;"/>
<line x1="185.100000" y1="65.000000" x2="188.100000" y2="66.000000"  transform="rotate(0.000000,188.100000,66.000000)" style="stroke: black; stroke-width:0.25;"/>
<line x1="185.100000" y1="67.000000" x2="188.100000" y2="66.000000"  transform="rotate(0.000000,188.100000,66.000000)" style="stroke: black; stroke-width:0.25;"/>
<rect x="35.000000" y="119.000000" width="232.200000" height="24.000000" rx="0" ry="0" style="stroke:none;fill:#cccccc;"/>
<rect x="34.000000" y="118.000000" width="232.200000" height="24.000000" rx="0" ry="0" style="stroke:none;fill:#477881;"/>
<text x="150.100000" y="132.000000" font-family="Arial" font-size="7" text-anchor="middle" fill="#FFFFFF">hslider(ON/OFF (ASR Envelope), 0.0f, 0.0f, 1.0f, 1.0f)</text>
<circle cx="36.000000" cy="120.000000" r="1"/>
<line x1="25.000000" y1="109.000000" x2="25.000000" y2="151.000000"  style="stroke: black; stroke-linecap:round; stroke-width:0.25; stroke-dasharray:3,3;"/>
<line x1="25.000000" y1="151.000000" x2="275.200000" y2="151.000000"  style="stroke: black; stroke-linecap:round; stroke-width:0.25; stroke-dasharray:3,3;"/>
<line x1="275.200000" y1="151.000000" x2="275.200000" y2="109.000000"  style="stroke: black; stroke-linecap:round; stroke-width:0.25; stroke-dasharray:3,3;"/>
<line x1="25.000000" y1="109.000000" x2="30.000000" y2="109.000000"  style="stroke: black; stroke-linecap:round; stroke-width:0.25; stroke-dasharray:3,3;"/>
<line x1="49.350000" y1="109.000000" x2="275.200000" y2="109.000000"  style="stroke: black; stroke-linecap:round; stroke-width:0.25; stroke-dasharray:3,3;"/>
<text x="30.000000" y="111.000000" font-family="Arial" font-size="7">gate</text>
<rect x="139.100000" y="171.000000" width="24.000000" height="24.000000" rx="0" ry="0" style="stroke:none;fill:#cccccc;"/>
<rect x="138.100000" y="170.000000" width="24.000000" height="24.000000" rx="0" ry="0" style="stroke:none;fill:#f44800;"/>
<text x="150.100000" y="184.000000" font-family="Arial" font-size="7" text-anchor="middle" fill="#FFFFFF">0</text>
<circle cx="140.100000" cy="172.000000" r="1"/>
<line x1="129.100000" y1="161.000000" x2="129.100000" y2="203.000000"  style="stroke: black; stroke-linecap:round; stroke-width:0.25; stroke-dasharray:3,3;"/>
<line x1="129.100000" y1="203.000000" x2="171.100000" y2="203.000000"  style="stroke: black; stroke-linecap:round; stroke-width:0.25; stroke-dasharray:3,3;"/>
<line x1="171.100000" y1="203.000000" x2="171.100000" y2="161.000000"  style="stroke: black; stroke-linecap:round; stroke-width:0.25; stroke-dasharray:3,3;"/>
<line x1="129.100000" y1="161.000000" x2="134.100000" y2="161.000000"  style="stroke: black; stroke-linecap:round; stroke-width:0.25; stroke-dasharray:3,3;"/>
<line x1="171.100000" y1="161.000000" x2="171.100000" y2="161.000000"  style="stroke: black; stroke-linecap:round; stroke-width:0.25; stroke-dasharray:3,3;"/>
<text x="134.100000" y="163.000000" font-family="Arial" font-size="7">pressureEnvelope</text>
<rect x="293.200000" y="145.000000" width="24.000000" height="24.000000" rx="0" ry="0" style="stroke:none;fill:#cccccc;"/>
<rect x="292.200000" y="144.000000" width="24.000000" height="24.000000" rx="0" ry="0" style="stroke:none;fill:#4B71A1;"/>
<text x="304.200000" y="158.000000" font-family="Arial" font-size="7" text-anchor="middle" fill="#FFFFFF">&gt;</text>
<circle cx="294.200000" cy="146.000000" r="1"/>
<line x1="289.200000" y1="151.000000" x2="292.200000" y2="152.000000"  transform="rotate(0.000000,292.200000,152.000000)" style="stroke: black; stroke-width:0.25;"/>
<line x1="289.200000" y1="153.000000" x2="292.200000" y2="152.000000"  transform="rotate(0.000000,292.200000,152.000000)" style="stroke: black; stroke-width:0.25;"/>
<line x1="289.200000" y1="159.000000" x2="292.200000" y2="160.000000"  transform="rotate(0.000000,292.200000,160.000000)" style="stroke: black; stroke-width:0.25;"/>
<line x1="289.200000" y1="161.000000" x2="292.200000" y2="160.000000"  transform="rotate(0.000000,292.200000,160.000000)" style="stroke: black; stroke-width:0.25;"/>
<rect x="333.200000" y="103.000000" width="24.000000" height="24.000000" rx="0" ry="0" style="stroke:none;fill:#cccccc;"/>
<rect x="332.200000" y="102.000000" width="24.000000" height="24.000000" rx="0" ry="0" style="stroke:none;fill:#4B71A1;"/>
<text x="344.200000" y="116.000000" font-family="Arial" font-size="7" text-anchor="middle" fill="#FFFFFF">&amp;</text>
<circle cx="334.200000" cy="104.000000" r="1"/>
<line x1="329.200000" y1="109.000000" x2="332.200000" y2="110.000000"  transform="rotate(0.000000,332.200000,110.000000)" style="stroke: black; stroke-width:0.25;"/>
<line x1="329.200000" y1="111.000000" x2="332.200000" y2="110.000000"  transform="rotate(0.000000,332.200000,110.000000)" style="stroke: black; stroke-width:0.25;"/>
<line x1="329.200000" y1="117.000000" x2="332.200000" y2="118.000000"  transform="rotate(0.000000,332.200000,118.000000)" style="stroke: black; stroke-width:0.25;"/>
<line x1="329.200000" y1="119.000000" x2="332.200000" y2="118.000000"  transform="rotate(0.000000,332.200000,118.000000)" style="stroke: black; stroke-width:0.25;"/>
<rect x="159.100000" y="213.000000" width="24.000000" height="24.000000" rx="0" ry="0" style="stroke:none;fill:#cccccc;"/>
<rect x="158.100000" y="212.000000" width="24.000000" height="24.000000" rx="0" ry="0" style="stroke:none;fill:#47945E;"/>
<text x="170.100000" y="226.000000" font-family="Arial" font-size="7" text-anchor="middle" fill="#FFFFFF">y</text>
<circle cx="160.100000" cy="214.000000" r="1"/>
<rect x="159.100000" y="255.000000" width="24.000000" height="24.000000" rx="0" ry="0" style="stroke:none;fill:#cccccc;"/>
<rect x="158.100000" y="254.000000" width="24.000000" height="24.000000" rx="0" ry="0" style="stroke:none;fill:#f44800;"/>
<text x="170.100000" y="268.000000" font-family="Arial" font-size="7" text-anchor="middle" fill="#FFFFFF">1</text>
<circle cx="160.100000" cy="256.000000" r="1"/>
<line x1="149.100000" y1="245.000000" x2="149.100000" y2="287.000000"  style="stroke: black; stroke-linecap:round; stroke-width:0.25; stroke-dasharray:3,3;"/>
<line x1="149.100000" y1="287.000000" x2="191.100000" y2="287.000000"  style="stroke: black; stroke-linecap:round; stroke-width:0.25; stroke-dasharray:3,3;"/>
<line x1="191.100000" y1="287.000000" x2="191.100000" y2="245.000000"  style="stroke: black; stroke-linecap:round; stroke-width:0.25; stroke-dasharray:3,3;"/>
<line x1="149.100000" y1="245.000000" x2="154.100000" y2="245.000000"  style="stroke: black; stroke-linecap:round; stroke-width:0.25; stroke-dasharray:3,3;"/>
<line x1="173.450000" y1="245.000000" x2="191.100000" y2="245.000000"  style="stroke: black; stroke-linecap:round; stroke-width:0.25; stroke-dasharray:3,3;"/>
<text x="154.100000" y="247.000000" font-family="Arial" font-size="7">gain</text>
<rect x="209.100000" y="239.000000" width="24.000000" height="24.000000" rx="0" ry="0" style="stroke:none;fill:#cccccc;"/>
<rect x="208.100000" y="238.000000" width="24.000000" height="24.000000" rx="0" ry="0" style="stroke:none;fill:#4B71A1;"/>
<text x="220.100000" y="252.000000" font-family="Arial" font-size="7" text-anchor="middle" fill="#FFFFFF">&lt;</text>
<circle cx="210.100000" cy="240.000000" r="1"/>
<line x1="205.100000" y1="245.000000" x2="208.100000" y2="246.000000"  transform="rotate(0.000000,208.100000,246.000000)" style="stroke: black; stroke-width:0.25;"/>
<line x1="205.100000" y1="247.000000" x2="208.100000" y2="246.000000"  transform="rotate(0.000000,208.100000,246.000000)" style="stroke: black; stroke-width:0.25;"/>
<line x1="205.100000" y1="253.000000" x2="208.100000" y2="254.000000"  transform="rotate(0.000000,208.100000,254.000000)" style="stroke: black; stroke-width:0.25;"/>
<line x1="205.100000" y1="255.000000" x2="208.100000" y2="254.000000"  transform="rotate(0.000000,208.100000,254.000000)" style="stroke: black; stroke-width:0.25;"/>
<rect x="373.200000" y="145.000000" width="24.000000" height="24.000000" rx="0" ry="0" style="stroke:none;fill:#cccccc;"/>
<rect x="372.200000" y="144.000000" width="24.000000" height="24.000000" rx="0" ry="0" style="stroke:none;fill:#4B71A1;"/>
<text x="384.200000" y="158.000000" font-family="Arial" font-size="7" text-anchor="middle" fill="#FFFFFF">&amp;</text>
<circle cx="374.200000" cy="146.000000" r="1"/>
<line x1="369.200000" y1="151.000000" x2="372.200000" y2="152.000000"  transform="rotate(0.000000,372.200000,152.000000)" style="stroke: black; stroke-width:0.25;"/>
<line x1="369.200000" y1="153.000000" x2="372.200000" y2="152.000000"  transform="rotate(0.000000,372.200000,152.000000)" style="stroke: black; stroke-width:0.25;"/>
<line x1="369.200000" y1="159.000000" x2="372.200000" y2="160.000000"  transform="rotate(0.000000,372.200000,160.000000)" style="stroke: black; stroke-width:0.25;"/>
<line x1="369.200000" y1="161.000000" x2="372.200000" y2="160.000000"  transform="rotate(0.000000,372.200000,160.000000)" style="stroke: black; stroke-width:0.25;"/>
<rect x="179.100000" y="297.000000" width="24.000000" height="24.000000" rx="0" ry="0" style="stroke:none;fill:#cccccc;"/>
<rect x="178.100000" y="296.000000" width="24.000000" height="24.000000" rx="0" ry="0" style="stroke:none;fill:#47945E;"/>
<text x="190.100000" y="310.000000" font-family="Arial" font-size="7" text-anchor="middle" fill="#FFFFFF">cnt</text>
<circle cx="180.100000" cy="298.000000" r="1"/>
<rect x="159.100000" y="339.000000" width="24.000000" height="24.000000" rx="0" ry="0" style="stroke:none;fill:#cccccc;"/>
<rect x="158.100000" y="338.000000" width="24.000000" height="24.000000" rx="0" ry="0" style="stroke:none;fill:#f44800;"/>
<text x="170.100000" y="352.000000" font-family="Arial" font-size="7" text-anchor="middle" fill="#FFFFFF">0.1</text>
<circle cx="160.100000" cy="340.000000" r="1"/>
<line x1="149.100000" y1="329.000000" x2="149.100000" y2="371.000000"  style="stroke: black; stroke-linecap:round; stroke-width:0.25; stroke-dasharray:3,3;"/>
<line x1="149.100000" y1="371.000000" x2="191.100000" y2="371.000000"  style="stroke: black; stroke-linecap:round; stroke-width:0.25; stroke-dasharray:3,3;"/>
<line x1="191.100000" y1="371.000000" x2="191.100000" y2="329.000000"  style="stroke: black; stroke-linecap:round; stroke-width:0.25; stroke-dasharray:3,3;"/>
<line x1="149.100000" y1="329.000000" x2="154.100000" y2="329.000000"  style="stroke: black; stroke-linecap:round; stroke-width:0.25; stroke-dasharray:3,3;"/>
<line x1="191.100000" y1="329.000000" x2="191.100000" y2="329.000000"  style="stroke: black; stroke-linecap:round; stroke-width:0.25; stroke-dasharray:3,3;"/>
<text x="154.100000" y="331.000000" font-family="Arial" font-size="7">env2Release</text>
<a xlink:href="samplingfreq-0x7fc63b6bb290.svg">
<rect x="145.300000" y="381.000000" width="51.600000" height="24.000000" rx="0" ry="0" style="stroke:none;fill:#cccccc;"/>
<rect x="144.300000" y="380.000000" width="51.600000" height="24.000000" rx="0" ry="0" style="stroke:none;fill:#003366;"/>
</a>
<a xlink:href="samplingfreq-0x7fc63b6bb290.svg">
<text x="170.100000" y="394.000000" font-family="Arial" font-size="7" text-anchor="middle" fill="#FFFFFF">samplingfreq</text>
</a>
<circle cx="146.300000" cy="382.000000" r="1"/>
<rect x="212.900000" y="355.000000" width="24.000000" height="24.000000" rx="0" ry="0" style="stroke:none;fill:#cccccc;"/>
<rect x="211.900000" y="354.000000" width="24.000000" height="24.000000" rx="0" ry="0" style="stroke:none;fill:#4B71A1;"/>
<text x="223.900000" y="368.000000" font-family="Arial" font-size="7" text-anchor="middle" fill="#FFFFFF">*</text>
<circle cx="213.900000" cy="356.000000" r="1"/>
<line x1="208.900000" y1="361.000000" x2="211.900000" y2="362.000000"  transform="rotate(0.000000,211.900000,362.000000)" style="stroke: black; stroke-width:0.25;"/>
<line x1="208.900000" y1="363.000000" x2="211.900000" y2="362.000000"  transform="rotate(0.000000,211.900000,362.000000)" style="stroke: black; stroke-width:0.25;"/>
<line x1="208.900000" y1="369.000000" x2="211.900000" y2="370.000000"  transform="rotate(0.000000,211.900000,370.000000)" style="stroke: black; stroke-width:0.25;"/>
<line x1="208.900000" y1="371.000000" x2="211.900000" y2="370.000000"  transform="rotate(0.000000,211.900000,370.000000)" style="stroke: black; stroke-width:0.25;"/>
<rect x="252.900000" y="339.000000" width="24.000000" height="24.000000" rx="0" ry="0" style="stroke:none;fill:#cccccc;"/>
<rect x="251.900000" y="338.000000" width="24.000000" height="24.000000" rx="0" ry="0" style="stroke:none;fill:#4B71A1;"/>
<text x="263.900000" y="352.000000" font-family="Arial" font-size="7" text-anchor="middle" fill="#FFFFFF">&gt;</text>
<circle cx="253.900000" cy="340.000000" r="1"/>
<line x1="248.900000" y1="345.000000" x2="251.900000" y2="346.000000"  transform="rotate(0.000000,251.900000,346.000000)" style="stroke: black; stroke-width:0.25;"/>
<line x1="248.900000" y1="347.000000" x2="251.900000" y2="346.000000"  transform="rotate(0.000000,251.900000,346.000000)" style="stroke: black; stroke-width:0.25;"/>
<line x1="248.900000" y1="353.000000" x2="251.900000" y2="354.000000"  transform="rotate(0.000000,251.900000,354.000000)" style="stroke: black; stroke-width:0.25;"/>
<line x1="248.900000" y1="355.000000" x2="251.900000" y2="354.000000"  transform="rotate(0.000000,251.900000,354.000000)" style="stroke: black; stroke-width:0.25;"/>
<rect x="413.200000" y="203.000000" width="24.000000" height="24.000000" rx="0" ry="0" style="stroke:none;fill:#cccccc;"/>
<rect x="412.200000" y="202.000000" width="24.000000" height="24.000000" rx="0" ry="0" style="stroke:none;fill:#4B71A1;"/>
<text x="424.200000" y="216.000000" font-family="Arial" font-size="7" text-anchor="middle" fill="#FFFFFF">&amp;</text>
<circle cx="414.200000" cy="204.000000" r="1"/>
<line x1="409.200000" y1="209.000000" x2="412.200000" y2="210.000000"  transform="rotate(0.000000,412.200000,210.000000)" style="stroke: black; stroke-width:0.25;"/>
<line x1="409.200000" y1="211.000000" x2="412.200000" y2="210.000000"  transform="rotate(0.000000,412.200000,210.000000)" style="stroke: black; stroke-width:0.25;"/>
<line x1="409.200000" y1="217.000000" x2="412.200000" y2="218.000000"  transform="rotate(0.000000,412.200000,218.000000)" style="stroke: black; stroke-width:0.25;"/>
<line x1="409.200000" y1="219.000000" x2="412.200000" y2="218.000000"  transform="rotate(0.000000,412.200000,218.000000)" style="stroke: black; stroke-width:0.25;"/>
<line x1="15.000000" y1="15.000000" x2="15.000000" y2="413.000000"  style="stroke: black; stroke-linecap:round; stroke-width:0.25; stroke-dasharray:3,3;"/>
<line x1="15.000000" y1="413.000000" x2="453.200000" y2="413.000000"  style="stroke: black; stroke-linecap:round; stroke-width:0.25; stroke-dasharray:3,3;"/>
<line x1="453.200000" y1="413.000000" x2="453.200000" y2="15.000000"  style="stroke: black; stroke-linecap:round; stroke-width:0.25; stroke-dasharray:3,3;"/>
<line x1="15.000000" y1="15.000000" x2="20.000000" y2="15.000000"  style="stroke: black; stroke-linecap:round; stroke-width:0.25; stroke-dasharray:3,3;"/>
<line x1="32.900000" y1="15.000000" x2="453.200000" y2="15.000000"  style="stroke: black; stroke-linecap:round; stroke-width:0.25; stroke-dasharray:3,3;"/>
<text x="20.000000" y="17.000000" font-family="Arial" font-size="7">p1</text>
<line x1="455.200000" y1="213.000000" x2="458.200000" y2="214.000000"  transform="rotate(0.000000,458.200000,214.000000)" style="stroke: black; stroke-width:0.25;"/>
<line x1="455.200000" y1="215.000000" x2="458.200000" y2="214.000000"  transform="rotate(0.000000,458.200000,214.000000)" style="stroke: black; stroke-width:0.25;"/>
<line x1="162.100000" y1="36.000000" x2="166.100000" y2="36.000000"  style="stroke:black; stroke-linecap:round; stroke-width:0.25;"/>
<line x1="162.100000" y1="78.000000" x2="166.100000" y2="78.000000"  style="stroke:black; stroke-linecap:round; stroke-width:0.25;"/>
<line x1="162.100000" y1="182.000000" x2="166.100000" y2="182.000000"  style="stroke:black; stroke-linecap:round; stroke-width:0.25;"/>
<line x1="166.100000" y1="36.000000" x2="176.100000" y2="36.000000"  style="stroke:black; stroke-linecap:round; stroke-width:0.25;"/>
<line x1="166.100000" y1="78.000000" x2="176.100000" y2="78.000000"  style="stroke:black; stroke-linecap:round; stroke-width:0.25;"/>
<line x1="166.100000" y1="182.000000" x2="176.100000" y2="182.000000"  style="stroke:black; stroke-linecap:round; stroke-width:0.25;"/>
<line x1="176.100000" y1="36.000000" x2="184.100000" y2="36.000000"  style="stroke:black; stroke-linecap:round; stroke-width:0.25;"/>
<line x1="176.100000" y1="66.000000" x2="184.100000" y2="66.000000"  style="stroke:black; stroke-linecap:round; stroke-width:0.25;"/>
<line x1="176.100000" y1="78.000000" x2="176.100000" y2="66.000000"  style="stroke:black; stroke-linecap:round; stroke-width:0.25;"/>
<line x1="176.100000" y1="78.000000" x2="176.100000" y2="78.000000"  style="stroke:black; stroke-linecap:round; stroke-width:0.25;"/>
<line x1="176.100000" y1="182.000000" x2="280.200000" y2="182.000000"  style="stroke:black; stroke-linecap:round; stroke-width:0.25;"/>
<line x1="182.100000" y1="224.000000" x2="186.100000" y2="224.000000"  style="stroke:black; stroke-linecap:round; stroke-width:0.25;"/>
<line x1="182.100000" y1="266.000000" x2="186.100000" y2="266.000000"  style="stroke:black; stroke-linecap:round; stroke-width:0.25;"/>
<line x1="182.100000" y1="350.000000" x2="186.100000" y2="350.000000"  style="stroke:black; stroke-linecap:round; stroke-width:0.25;"/>
<line x1="184.100000" y1="36.000000" x2="184.100000" y2="58.000000"  style="stroke:black; stroke-linecap:round; stroke-width:0.25;"/>
<line x1="184.100000" y1="58.000000" x2="184.100000" y2="58.000000"  style="stroke:black; stroke-linecap:round; stroke-width:0.25;"/>
<line x1="184.100000" y1="58.000000" x2="188.100000" y2="58.000000"  style="stroke:black; stroke-linecap:round; stroke-width:0.25;"/>
<line x1="184.100000" y1="66.000000" x2="188.100000" y2="66.000000"  style="stroke:black; stroke-linecap:round; stroke-width:0.25;"/>
<line x1="186.100000" y1="224.000000" x2="196.100000" y2="224.000000"  style="stroke:black; stroke-linecap:round; stroke-width:0.25;"/>
<line x1="186.100000" y1="266.000000" x2="196.100000" y2="266.000000"  style="stroke:black; stroke-linecap:round; stroke-width:0.25;"/>
<line x1="186.100000" y1="350.000000" x2="196.100000" y2="350.000000"  style="stroke:black; stroke-linecap:round; stroke-width:0.25;"/>
<line x1="195.900000" y1="392.000000" x2="199.900000" y2="392.000000"  style="stroke:black; stroke-linecap:round; stroke-width:0.25;"/>
<line x1="196.100000" y1="224.000000" x2="204.100000" y2="224.000000"  style="stroke:black; stroke-linecap:round; stroke-width:0.25;"/>
<line x1="196.100000" y1="254.000000" x2="204.100000" y2="254.000000"  style="stroke:black; stroke-linecap:round; stroke-width:0.25;"/>
<line x1="196.100000" y1="266.000000" x2="196.100000" y2="254.000000"  style="stroke:black; stroke-linecap:round; stroke-width:0.25;"/>
<line x1="196.100000" y1="266.000000" x2="196.100000" y2="266.000000"  style="stroke:black; stroke-linecap:round; stroke-width:0.25;"/>
<line x1="196.100000" y1="350.000000" x2="199.900000" y2="350.000000"  style="stroke:black; stroke-linecap:round; stroke-width:0.25;"/>
<line x1="199.900000" y1="370.000000" x2="207.900000" y2="370.000000"  style="stroke:black; stroke-linecap:round; stroke-width:0.25;"/>
<line x1="199.900000" y1="392.000000" x2="199.900000" y2="370.000000"  style="stroke:black; stroke-linecap:round; stroke-width:0.25;"/>
<line x1="199.900000" y1="392.000000" x2="199.900000" y2="392.000000"  style="stroke:black; stroke-linecap:round; stroke-width:0.25;"/>
<line x1="199.900000" y1="350.000000" x2="207.900000" y2="350.000000"  style="stroke:black; stroke-linecap:round; stroke-width:0.25;"/>
<line x1="202.100000" y1="308.000000" x2="206.100000" y2="308.000000"  style="stroke:black; stroke-linecap:round; stroke-width:0.25;"/>
<line x1="204.100000" y1="224.000000" x2="204.100000" y2="246.000000"  style="stroke:black; stroke-linecap:round; stroke-width:0.25;"/>
<line x1="204.100000" y1="246.000000" x2="204.100000" y2="246.000000"  style="stroke:black; stroke-linecap:round; stroke-width:0.25;"/>
<line x1="204.100000" y1="246.000000" x2="208.100000" y2="246.000000"  style="stroke:black; stroke-linecap:round; stroke-width:0.25;"/>
<line x1="204.100000" y1="254.000000" x2="208.100000" y2="254.000000"  style="stroke:black; stroke-linecap:round; stroke-width:0.25;"/>
<line x1="206.100000" y1="308.000000" x2="239.900000" y2="308.000000"  style="stroke:black; stroke-linecap:round; stroke-width:0.25;"/>
<line x1="207.900000" y1="362.000000" x2="211.900000" y2="362.000000"  style="stroke:black; stroke-linecap:round; stroke-width:0.25;"/>
<line x1="207.900000" y1="370.000000" x2="211.900000" y2="370.000000"  style="stroke:black; stroke-linecap:round; stroke-width:0.25;"/>
<line x1="207.900000" y1="350.000000" x2="207.900000" y2="362.000000"  style="stroke:black; stroke-linecap:round; stroke-width:0.25;"/>
<line x1="207.900000" y1="362.000000" x2="207.900000" y2="362.000000"  style="stroke:black; stroke-linecap:round; stroke-width:0.25;"/>
<line x1="212.100000" y1="62.000000" x2="216.100000" y2="62.000000"  style="stroke:black; stroke-linecap:round; stroke-width:0.25;"/>
<line x1="216.100000" y1="62.000000" x2="320.200000" y2="62.000000"  style="stroke:black; stroke-linecap:round; stroke-width:0.25;"/>
<line x1="232.100000" y1="250.000000" x2="236.100000" y2="250.000000"  style="stroke:black; stroke-linecap:round; stroke-width:0.25;"/>
<line x1="235.900000" y1="366.000000" x2="239.900000" y2="366.000000"  style="stroke:black; stroke-linecap:round; stroke-width:0.25;"/>
<line x1="236.100000" y1="250.000000" x2="360.200000" y2="250.000000"  style="stroke:black; stroke-linecap:round; stroke-width:0.25;"/>
<line x1="239.900000" y1="354.000000" x2="247.900000" y2="354.000000"  style="stroke:black; stroke-linecap:round; stroke-width:0.25;"/>
<line x1="239.900000" y1="366.000000" x2="239.900000" y2="354.000000"  style="stroke:black; stroke-linecap:round; stroke-width:0.25;"/>
<line x1="239.900000" y1="366.000000" x2="239.900000" y2="366.000000"  style="stroke:black; stroke-linecap:round; stroke-width:0.25;"/>
<line x1="239.900000" y1="308.000000" x2="247.900000" y2="308.000000"  style="stroke:black; stroke-linecap:round; stroke-width:0.25;"/>
<line x1="247.900000" y1="346.000000" x2="251.900000" y2="346.000000"  style="stroke:black; stroke-linecap:round; stroke-width:0.25;"/>
<line x1="247.900000" y1="354.000000" x2="251.900000" y2="354.000000"  style="stroke:black; stroke-linecap:round; stroke-width:0.25;"/>
<line x1="247.900000" y1="308.000000" x2="247.900000" y2="346.000000"  style="stroke:black; stroke-linecap:round; stroke-width:0.25;"/>
<line x1="247.900000" y1="346.000000" x2="247.900000" y2="346.000000"  style="stroke:black; stroke-linecap:round; stroke-width:0.25;"/>
<line x1="266.200000" y1="130.000000" x2="270.200000" y2="130.000000"  style="stroke:black; stroke-linecap:round; stroke-width:0.25;"/>
<line x1="270.200000" y1="130.000000" x2="280.200000" y2="130.000000"  style="stroke:black; stroke-linecap:round; stroke-width:0.25;"/>
<line x1="275.900000" y1="350.000000" x2="279.900000" y2="350.000000"  style="stroke:black; stroke-linecap:round; stroke-width:0.25;"/>
<line x1="279.900000" y1="350.000000" x2="400.200000" y2="350.000000"  style="stroke:black; stroke-linecap:round; stroke-width:0.25;"/>
<line x1="280.200000" y1="130.000000" x2="288.200000" y2="130.000000"  style="stroke:black; stroke-linecap:round; stroke-width:0.25;"/>
<line x1="280.200000" y1="160.000000" x2="288.200000" y2="160.000000"  style="stroke:black; stroke-linecap:round; stroke-width:0.25;"/>
<line x1="280.200000" y1="182.000000" x2="280.200000" y2="160.000000"  style="stroke:black; stroke-linecap:round; stroke-width:0.25;"/>
<line x1="280.200000" y1="182.000000" x2="280.200000" y2="182.000000"  style="stroke:black; stroke-linecap:round; stroke-width:0.25;"/>
<line x1="288.200000" y1="130.000000" x2="288.200000" y2="152.000000"  style="stroke:black; stroke-linecap:round; stroke-width:0.25;"/>
<line x1="288.200000" y1="152.000000" x2="288.200000" y2="152.000000"  style="stroke:black; stroke-linecap:round; stroke-width:0.25;"/>
<line x1="288.200000" y1="152.000000" x2="292.200000" y2="152.000000"  style="stroke:black; stroke-linecap:round; stroke-width:0.25;"/>
<line x1="288.200000" y1="160.000000" x2="292.200000" y2="160.000000"  style="stroke:black; stroke-linecap:round; stroke-width:0.25;"/>
<line x1="316.200000" y1="156.000000" x2="320.200000" y2="156.000000"  style="stroke:black; stroke-linecap:round; stroke-width:0.25;"/>
<line x1="320.200000" y1="62.000000" x2="328.200000" y2="62.000000"  style="stroke:black; stroke-linecap:round; stroke-width:0.25;"/>
<line x1="320.200000" y1="118.000000" x2="328.200000" y2="118.000000"  style="stroke:black; stroke-linecap:round; stroke-width:0.25;"/>
<line x1="320.200000" y1="156.000000" x2="320.200000" y2="118.000000"  style="stroke:black; stroke-linecap:round; stroke-width:0.25;"/>
<line x1="320.200000" y1="156.000000" x2="320.200000" y2="156.000000"  style="stroke:black; stroke-linecap:round; stroke-width:0.25;"/>
<line x1="328.200000" y1="62.000000" x2="328.200000" y2="110.000000"  style="stroke:black; stroke-linecap:round; stroke-width:0.25;"/>
<line x1="328.200000" y1="110.000000" x2="328.200000" y2="110.000000"  style="stroke:black; stroke-linecap:round; stroke-width:0.25;"/>
<line x1="328.200000" y1="110.000000" x2="332.200000" y2="110.000000"  style="stroke:black; stroke-linecap:round; stroke-width:0.25;"/>
<line x1="328.200000" y1="118.000000" x2="332.200000" y2="118.000000"  style="stroke:black; stroke-linecap:round; stroke-width:0.25;"/>
<line x1="356.200000" y1="114.000000" x2="360.200000" y2="114.000000"  style="stroke:black; stroke-linecap:round; stroke-width:0.25;"/>
<line x1="360.200000" y1="114.000000" x2="368.200000" y2="114.000000"  style="stroke:black; stroke-linecap:round; stroke-width:0.25;"/>
<line x1="360.200000" y1="160.000000" x2="368.200000" y2="160.000000"  style="stroke:black; stroke-linecap:round; stroke-width:0.25;"/>
<line x1="360.200000" y1="250.000000" x2="360.200000" y2="160.000000"  style="stroke:black; stroke-linecap:round; stroke-width:0.25;"/>
<line x1="360.200000" y1="250.000000" x2="360.200000" y2="250.000000"  style="stroke:black; stroke-linecap:round; stroke-width:0.25;"/>
<line x1="368.200000" y1="114.000000" x2="368.200000" y2="152.000000"  style="stroke:black; stroke-linecap:round; stroke-width:0.25;"/>
<line x1="368.200000" y1="152.000000" x2="368.200000" y2="152.000000"  style="stroke:black; stroke-linecap:round; stroke-width:0.25;"/>
<line x1="368.200000" y1="152.000000" x2="372.200000" y2="152.000000"  style="stroke:black; stroke-linecap:round; stroke-width:0.25;"/>
<line x1="368.200000" y1="160.000000" x2="372.200000" y2="160.000000"  style="stroke:black; stroke-linecap:round; stroke-width:0.25;"/>
<line x1="396.200000" y1="156.000000" x2="400.200000" y2="156.000000"  style="stroke:black; stroke-linecap:round; stroke-width:0.25;"/>
<line x1="400.200000" y1="156.000000" x2="408.200000" y2="156.000000"  style="stroke:black; stroke-linecap:round; stroke-width:0.25;"/>
<line x1="400.200000" y1="218.000000" x2="408.200000" y2="218.000000"  style="stroke:black; stroke-linecap:round; stroke-width:0.25;"/>
<line x1="400.200000" y1="350.000000" x2="400.200000" y2="218.000000"  style="stroke:black; stroke-linecap:round; stroke-width:0.25;"/>
<line x1="400.200000" y1="350.000000" x2="400.200000" y2="350.000000"  style="stroke:black; stroke-linecap:round; stroke-width:0.25;"/>
<line x1="408.200000" y1="156.000000" x2="408.200000" y2="210.000000"  style="stroke:black; stroke-linecap:round; stroke-width:0.25;"/>
<line x1="408.200000" y1="210.000000" x2="408.200000" y2="210.000000"  style="stroke:black; stroke-linecap:round; stroke-width:0.25;"/>
<line x1="408.200000" y1="210.000000" x2="412.200000" y2="210.000000"  style="stroke:black; stroke-linecap:round; stroke-width:0.25;"/>
<line x1="408.200000" y1="218.000000" x2="412.200000" y2="218.000000"  style="stroke:black; stroke-linecap:round; stroke-width:0.25;"/>
<line x1="436.200000" y1="214.000000" x2="440.200000" y2="214.000000"  style="stroke:black; stroke-linecap:round; stroke-width:0.25;"/>
<line x1="440.200000" y1="214.000000" x2="440.200000" y2="214.000000"  style="stroke:black; stroke-linecap:round; stroke-width:0.25;"/>
<line x1="440.200000" y1="214.000000" x2="444.200000" y2="214.000000"  style="stroke:black; stroke-linecap:round; stroke-width:0.25;"/>
<line x1="444.200000" y1="214.000000" x2="448.200000" y2="214.000000"  style="stroke:black; stroke-linecap:round; stroke-width:0.25;"/>
<line x1="448.200000" y1="214.000000" x2="458.200000" y2="214.000000"  style="stroke:black; stroke-linecap:round; stroke-width:0.25;"/>
</svg>
