<?xml version="1.0"?>
<svg xmlns="http://www.w3.org/2000/svg" xmlns:xlink="http://www.w3.org/1999/xlink" viewBox="0 0 734.200000 124.000000" width="367.100000mm" height="62.000000mm" version="1.1">
<a xlink:href="osc-0x7fe6342f8eb0.svg">
<rect x="1.000000" y="1.000000" width="733.200000" height="123.000000" rx="0" ry="0" style="stroke:none;fill:#cccccc;"/>
<rect x="0.000000" y="0.000000" width="733.200000" height="123.000000" rx="0" ry="0" style="stroke:none;fill:#ffffff;"/>
</a>
<text x="10.000000" y="7.000000" font-family="Arial" font-size="7"></text>
<rect x="35.000000" y="35.000000" width="387.000000" height="24.000000" rx="0" ry="0" style="stroke:none;fill:#cccccc;"/>
<rect x="34.000000" y="34.000000" width="387.000000" height="24.000000" rx="0" ry="0" style="stroke:none;fill:#477881;"/>
<text x="227.500000" y="48.000000" font-family="Arial" font-size="7" text-anchor="middle" fill="#FFFFFF">hslider(v:Parameters/h:/Vibrato Frequency (Vibrato Envelope), 5.0f, 1.0f, 1e+01f, 0.01f)</text>
<circle cx="36.000000" cy="36.000000" r="1"/>
<line x1="25.000000" y1="25.000000" x2="25.000000" y2="67.000000"  style="stroke: black; stroke-linecap:round; stroke-width:0.25; stroke-dasharray:3,3;"/>
<line x1="25.000000" y1="67.000000" x2="430.000000" y2="67.000000"  style="stroke: black; stroke-linecap:round; stroke-width:0.25; stroke-dasharray:3,3;"/>
<line x1="430.000000" y1="67.000000" x2="430.000000" y2="25.000000"  style="stroke: black; stroke-linecap:round; stroke-width:0.25; stroke-dasharray:3,3;"/>
<line x1="25.000000" y1="25.000000" x2="30.000000" y2="25.000000"  style="stroke: black; stroke-linecap:round; stroke-width:0.25; stroke-dasharray:3,3;"/>
<line x1="71.925000" y1="25.000000" x2="430.000000" y2="25.000000"  style="stroke: black; stroke-linecap:round; stroke-width:0.25; stroke-dasharray:3,3;"/>
<text x="30.000000" y="27.000000" font-family="Arial" font-size="7">vibratoFreq</text>
<a xlink:href="samplingfreq-0x7fe6342a33e0.svg">
<rect x="185.800000" y="77.000000" width="51.600000" height="24.000000" rx="0" ry="0" style="stroke:none;fill:#cccccc;"/>
<rect x="184.800000" y="76.000000" width="51.600000" height="24.000000" rx="0" ry="0" style="stroke:none;fill:#003366;"/>
</a>
<a xlink:href="samplingfreq-0x7fe6342a33e0.svg">
<text x="210.600000" y="90.000000" font-family="Arial" font-size="7" text-anchor="middle" fill="#FFFFFF">samplingfreq</text>
</a>
<circle cx="186.800000" cy="78.000000" r="1"/>
<rect x="245.400000" y="77.000000" width="25.800000" height="24.000000" rx="0" ry="0" style="stroke:none;fill:#cccccc;"/>
<rect x="244.400000" y="76.000000" width="25.800000" height="24.000000" rx="0" ry="0" style="stroke:none;fill:#4B71A1;"/>
<text x="257.300000" y="90.000000" font-family="Arial" font-size="7" text-anchor="middle" fill="#FFFFFF">float</text>
<circle cx="246.400000" cy="78.000000" r="1"/>
<line x1="241.400000" y1="87.000000" x2="244.400000" y2="88.000000"  transform="rotate(0.000000,244.400000,88.000000)" style="stroke: black; stroke-width:0.25;"/>
<line x1="241.400000" y1="89.000000" x2="244.400000" y2="88.000000"  transform="rotate(0.000000,244.400000,88.000000)" style="stroke: black; stroke-width:0.25;"/>
<rect x="448.000000" y="51.000000" width="24.000000" height="24.000000" rx="0" ry="0" style="stroke:none;fill:#cccccc;"/>
<rect x="447.000000" y="50.000000" width="24.000000" height="24.000000" rx="0" ry="0" style="stroke:none;fill:#4B71A1;"/>
<text x="459.000000" y="64.000000" font-family="Arial" font-size="7" text-anchor="middle" fill="#FFFFFF">/</text>
<circle cx="449.000000" cy="52.000000" r="1"/>
<line x1="444.000000" y1="57.000000" x2="447.000000" y2="58.000000"  transform="rotate(0.000000,447.000000,58.000000)" style="stroke: black; stroke-width:0.25;"/>
<line x1="444.000000" y1="59.000000" x2="447.000000" y2="58.000000"  transform="rotate(0.000000,447.000000,58.000000)" style="stroke: black; stroke-width:0.25;"/>
<line x1="444.000000" y1="65.000000" x2="447.000000" y2="66.000000"  transform="rotate(0.000000,447.000000,66.000000)" style="stroke: black; stroke-width:0.25;"/>
<line x1="444.000000" y1="67.000000" x2="447.000000" y2="66.000000"  transform="rotate(0.000000,447.000000,66.000000)" style="stroke: black; stroke-width:0.25;"/>
<rect x="496.000000" y="55.000000" width="24.000000" height="24.000000" rx="0" ry="0" style="stroke:none;fill:#cccccc;"/>
<rect x="495.000000" y="54.000000" width="24.000000" height="24.000000" rx="0" ry="0" style="stroke:none;fill:#4B71A1;"/>
<text x="507.000000" y="68.000000" font-family="Arial" font-size="7" text-anchor="middle" fill="#FFFFFF">+</text>
<circle cx="497.000000" cy="56.000000" r="1"/>
<line x1="492.000000" y1="61.000000" x2="495.000000" y2="62.000000"  transform="rotate(0.000000,495.000000,62.000000)" style="stroke: black; stroke-width:0.25;"/>
<line x1="492.000000" y1="63.000000" x2="495.000000" y2="62.000000"  transform="rotate(0.000000,495.000000,62.000000)" style="stroke: black; stroke-width:0.25;"/>
<line x1="492.000000" y1="69.000000" x2="495.000000" y2="70.000000"  transform="rotate(0.000000,495.000000,70.000000)" style="stroke: black; stroke-width:0.25;"/>
<line x1="492.000000" y1="71.000000" x2="495.000000" y2="70.000000"  transform="rotate(0.000000,495.000000,70.000000)" style="stroke: black; stroke-width:0.25;"/>
<a xlink:href="decimal-0x7fe6342a7c10.svg">
<rect x="528.000000" y="55.000000" width="38.700000" height="24.000000" rx="0" ry="0" style="stroke:none;fill:#cccccc;"/>
<rect x="527.000000" y="54.000000" width="38.700000" height="24.000000" rx="0" ry="0" style="stroke:none;fill:#003366;"/>
</a>
<a xlink:href="decimal-0x7fe6342a7c10.svg">
<text x="546.350000" y="68.000000" font-family="Arial" font-size="7" text-anchor="middle" fill="#FFFFFF">decimal</text>
</a>
<circle cx="529.000000" cy="56.000000" r="1"/>
<line x1="524.000000" y1="65.000000" x2="527.000000" y2="66.000000"  transform="rotate(0.000000,527.000000,66.000000)" style="stroke: black; stroke-width:0.25;"/>
<line x1="524.000000" y1="67.000000" x2="527.000000" y2="66.000000"  transform="rotate(0.000000,527.000000,66.000000)" style="stroke: black; stroke-width:0.25;"/>
<line x1="567.700000" y1="66.000000" x2="567.700000" y2="62.000000"  style="stroke:black; stroke-linecap:round; stroke-width:0.25;"/>
<line x1="567.700000" y1="62.000000" x2="571.700000" y2="62.000000"  style="stroke:black; stroke-linecap:round; stroke-width:0.25;"/>
<line x1="571.700000" y1="62.000000" x2="571.700000" y2="66.000000"  style="stroke:black; stroke-linecap:round; stroke-width:0.25;"/>
<a xlink:href="tablesize-0x7fe632e49f40.svg">
<rect x="590.700000" y="55.000000" width="38.700000" height="24.000000" rx="0" ry="0" style="stroke:none;fill:#cccccc;"/>
<rect x="589.700000" y="54.000000" width="38.700000" height="24.000000" rx="0" ry="0" style="stroke:none;fill:#003366;"/>
</a>
<a xlink:href="tablesize-0x7fe632e49f40.svg">
<text x="609.050000" y="68.000000" font-family="Arial" font-size="7" text-anchor="middle" fill="#FFFFFF">tablesize</text>
</a>
<circle cx="591.700000" cy="56.000000" r="1"/>
<rect x="637.400000" y="55.000000" width="25.800000" height="24.000000" rx="0" ry="0" style="stroke:none;fill:#cccccc;"/>
<rect x="636.400000" y="54.000000" width="25.800000" height="24.000000" rx="0" ry="0" style="stroke:none;fill:#4B71A1;"/>
<text x="649.300000" y="68.000000" font-family="Arial" font-size="7" text-anchor="middle" fill="#FFFFFF">float</text>
<circle cx="638.400000" cy="56.000000" r="1"/>
<line x1="633.400000" y1="65.000000" x2="636.400000" y2="66.000000"  transform="rotate(0.000000,636.400000,66.000000)" style="stroke: black; stroke-width:0.25;"/>
<line x1="633.400000" y1="67.000000" x2="636.400000" y2="66.000000"  transform="rotate(0.000000,636.400000,66.000000)" style="stroke: black; stroke-width:0.25;"/>
<rect x="679.200000" y="51.000000" width="24.000000" height="24.000000" rx="0" ry="0" style="stroke:none;fill:#cccccc;"/>
<rect x="678.200000" y="50.000000" width="24.000000" height="24.000000" rx="0" ry="0" style="stroke:none;fill:#4B71A1;"/>
<text x="690.200000" y="64.000000" font-family="Arial" font-size="7" text-anchor="middle" fill="#FFFFFF">*</text>
<circle cx="680.200000" cy="52.000000" r="1"/>
<line x1="675.200000" y1="57.000000" x2="678.200000" y2="58.000000"  transform="rotate(0.000000,678.200000,58.000000)" style="stroke: black; stroke-width:0.25;"/>
<line x1="675.200000" y1="59.000000" x2="678.200000" y2="58.000000"  transform="rotate(0.000000,678.200000,58.000000)" style="stroke: black; stroke-width:0.25;"/>
<line x1="675.200000" y1="65.000000" x2="678.200000" y2="66.000000"  transform="rotate(0.000000,678.200000,66.000000)" style="stroke: black; stroke-width:0.25;"/>
<line x1="675.200000" y1="67.000000" x2="678.200000" y2="66.000000"  transform="rotate(0.000000,678.200000,66.000000)" style="stroke: black; stroke-width:0.25;"/>
<line x1="15.000000" y1="15.000000" x2="15.000000" y2="109.000000"  style="stroke: black; stroke-linecap:round; stroke-width:0.25; stroke-dasharray:3,3;"/>
<line x1="15.000000" y1="109.000000" x2="719.200000" y2="109.000000"  style="stroke: black; stroke-linecap:round; stroke-width:0.25; stroke-dasharray:3,3;"/>
<line x1="719.200000" y1="109.000000" x2="719.200000" y2="15.000000"  style="stroke: black; stroke-linecap:round; stroke-width:0.25; stroke-dasharray:3,3;"/>
<line x1="15.000000" y1="15.000000" x2="20.000000" y2="15.000000"  style="stroke: black; stroke-linecap:round; stroke-width:0.25; stroke-dasharray:3,3;"/>
<line x1="119.975000" y1="15.000000" x2="719.200000" y2="15.000000"  style="stroke: black; stroke-linecap:round; stroke-width:0.25; stroke-dasharray:3,3;"/>
<text x="20.000000" y="17.000000" font-family="Arial" font-size="7">phase(hslider...+01f, 0.01f))</text>
<line x1="721.200000" y1="61.000000" x2="724.200000" y2="62.000000"  transform="rotate(0.000000,724.200000,62.000000)" style="stroke: black; stroke-width:0.25;"/>
<line x1="721.200000" y1="63.000000" x2="724.200000" y2="62.000000"  transform="rotate(0.000000,724.200000,62.000000)" style="stroke: black; stroke-width:0.25;"/>
<line x1="236.400000" y1="88.000000" x2="240.400000" y2="88.000000"  style="stroke:black; stroke-linecap:round; stroke-width:0.25;"/>
<line x1="240.400000" y1="88.000000" x2="240.400000" y2="88.000000"  style="stroke:black; stroke-linecap:round; stroke-width:0.25;"/>
<line x1="240.400000" y1="88.000000" x2="244.400000" y2="88.000000"  style="stroke:black; stroke-linecap:round; stroke-width:0.25;"/>
<line x1="270.200000" y1="88.000000" x2="274.200000" y2="88.000000"  style="stroke:black; stroke-linecap:round; stroke-width:0.25;"/>
<line x1="274.200000" y1="88.000000" x2="435.000000" y2="88.000000"  style="stroke:black; stroke-linecap:round; stroke-width:0.25;"/>
<line x1="421.000000" y1="46.000000" x2="425.000000" y2="46.000000"  style="stroke:black; stroke-linecap:round; stroke-width:0.25;"/>
<line x1="425.000000" y1="46.000000" x2="435.000000" y2="46.000000"  style="stroke:black; stroke-linecap:round; stroke-width:0.25;"/>
<line x1="435.000000" y1="46.000000" x2="443.000000" y2="46.000000"  style="stroke:black; stroke-linecap:round; stroke-width:0.25;"/>
<line x1="435.000000" y1="66.000000" x2="443.000000" y2="66.000000"  style="stroke:black; stroke-linecap:round; stroke-width:0.25;"/>
<line x1="435.000000" y1="88.000000" x2="435.000000" y2="66.000000"  style="stroke:black; stroke-linecap:round; stroke-width:0.25;"/>
<line x1="435.000000" y1="88.000000" x2="435.000000" y2="88.000000"  style="stroke:black; stroke-linecap:round; stroke-width:0.25;"/>
<line x1="443.000000" y1="46.000000" x2="443.000000" y2="58.000000"  style="stroke:black; stroke-linecap:round; stroke-width:0.25;"/>
<line x1="443.000000" y1="58.000000" x2="443.000000" y2="58.000000"  style="stroke:black; stroke-linecap:round; stroke-width:0.25;"/>
<line x1="443.000000" y1="58.000000" x2="447.000000" y2="58.000000"  style="stroke:black; stroke-linecap:round; stroke-width:0.25;"/>
<line x1="443.000000" y1="66.000000" x2="447.000000" y2="66.000000"  style="stroke:black; stroke-linecap:round; stroke-width:0.25;"/>
<line x1="471.000000" y1="62.000000" x2="475.000000" y2="62.000000"  style="stroke:black; stroke-linecap:round; stroke-width:0.25;"/>
<line x1="475.000000" y1="62.000000" x2="483.000000" y2="62.000000"  style="stroke:black; stroke-linecap:round; stroke-width:0.25;"/>
<line x1="483.000000" y1="62.000000" x2="483.000000" y2="70.000000"  style="stroke:black; stroke-linecap:round; stroke-width:0.25;"/>
<line x1="483.000000" y1="70.000000" x2="483.000000" y2="70.000000"  style="stroke:black; stroke-linecap:round; stroke-width:0.25;"/>
<line x1="483.000000" y1="70.000000" x2="491.000000" y2="70.000000"  style="stroke:black; stroke-linecap:round; stroke-width:0.25;"/>
<line x1="491.000000" y1="46.000000" x2="491.000000" y2="46.000000"  style="stroke:black; stroke-linecap:round; stroke-width:0.25;"/>
<line x1="491.000000" y1="46.000000" x2="491.000000" y2="62.000000"  style="stroke:black; stroke-linecap:round; stroke-width:0.25;"/>
<line x1="491.000000" y1="62.000000" x2="491.000000" y2="62.000000"  style="stroke:black; stroke-linecap:round; stroke-width:0.25;"/>
<line x1="491.000000" y1="62.000000" x2="495.000000" y2="62.000000"  style="stroke:black; stroke-linecap:round; stroke-width:0.25;"/>
<line x1="491.000000" y1="70.000000" x2="495.000000" y2="70.000000"  style="stroke:black; stroke-linecap:round; stroke-width:0.25;"/>
<line x1="519.000000" y1="66.000000" x2="523.000000" y2="66.000000"  style="stroke:black; stroke-linecap:round; stroke-width:0.25;"/>
<line x1="523.000000" y1="66.000000" x2="523.000000" y2="66.000000"  style="stroke:black; stroke-linecap:round; stroke-width:0.25;"/>
<line x1="523.000000" y1="66.000000" x2="527.000000" y2="66.000000"  style="stroke:black; stroke-linecap:round; stroke-width:0.25;"/>
<line x1="530.350000" y1="46.000000" x2="491.000000" y2="46.000000"  style="stroke:black; stroke-linecap:round; stroke-width:0.25;"/>
<line x1="565.700000" y1="66.000000" x2="569.700000" y2="66.000000"  style="stroke:black; stroke-linecap:round; stroke-width:0.25;"/>
<line x1="569.700000" y1="46.000000" x2="530.350000" y2="46.000000"  style="stroke:black; stroke-linecap:round; stroke-width:0.25;"/>
<line x1="569.700000" y1="46.000000" x2="569.700000" y2="46.000000"  style="stroke:black; stroke-linecap:round; stroke-width:0.25;"/>
<line x1="569.700000" y1="62.000000" x2="569.700000" y2="46.000000"  style="stroke:black; stroke-linecap:round; stroke-width:0.25;"/>
<line x1="569.700000" y1="66.000000" x2="571.700000" y2="66.000000"  style="stroke:black; stroke-linecap:round; stroke-width:0.25;"/>
<line x1="571.700000" y1="66.000000" x2="577.700000" y2="66.000000"  style="stroke:black; stroke-linecap:round; stroke-width:0.25;"/>
<line x1="577.700000" y1="46.000000" x2="585.700000" y2="46.000000"  style="stroke:black; stroke-linecap:round; stroke-width:0.25;"/>
<line x1="577.700000" y1="66.000000" x2="577.700000" y2="46.000000"  style="stroke:black; stroke-linecap:round; stroke-width:0.25;"/>
<line x1="577.700000" y1="66.000000" x2="577.700000" y2="66.000000"  style="stroke:black; stroke-linecap:round; stroke-width:0.25;"/>
<line x1="585.700000" y1="46.000000" x2="625.950000" y2="46.000000"  style="stroke:black; stroke-linecap:round; stroke-width:0.25;"/>
<line x1="625.950000" y1="46.000000" x2="666.200000" y2="46.000000"  style="stroke:black; stroke-linecap:round; stroke-width:0.25;"/>
<line x1="628.400000" y1="66.000000" x2="632.400000" y2="66.000000"  style="stroke:black; stroke-linecap:round; stroke-width:0.25;"/>
<line x1="632.400000" y1="66.000000" x2="632.400000" y2="66.000000"  style="stroke:black; stroke-linecap:round; stroke-width:0.25;"/>
<line x1="632.400000" y1="66.000000" x2="636.400000" y2="66.000000"  style="stroke:black; stroke-linecap:round; stroke-width:0.25;"/>
<line x1="662.200000" y1="66.000000" x2="666.200000" y2="66.000000"  style="stroke:black; stroke-linecap:round; stroke-width:0.25;"/>
<line x1="666.200000" y1="46.000000" x2="674.200000" y2="46.000000"  style="stroke:black; stroke-linecap:round; stroke-width:0.25;"/>
<line x1="666.200000" y1="66.000000" x2="674.200000" y2="66.000000"  style="stroke:black; stroke-linecap:round; stroke-width:0.25;"/>
<line x1="674.200000" y1="46.000000" x2="674.200000" y2="58.000000"  style="stroke:black; stroke-linecap:round; stroke-width:0.25;"/>
<line x1="674.200000" y1="58.000000" x2="674.200000" y2="58.000000"  style="stroke:black; stroke-linecap:round; stroke-width:0.25;"/>
<line x1="674.200000" y1="58.000000" x2="678.200000" y2="58.000000"  style="stroke:black; stroke-linecap:round; stroke-width:0.25;"/>
<line x1="674.200000" y1="66.000000" x2="678.200000" y2="66.000000"  style="stroke:black; stroke-linecap:round; stroke-width:0.25;"/>
<line x1="702.200000" y1="62.000000" x2="706.200000" y2="62.000000"  style="stroke:black; stroke-linecap:round; stroke-width:0.25;"/>
<line x1="706.200000" y1="62.000000" x2="706.200000" y2="62.000000"  style="stroke:black; stroke-linecap:round; stroke-width:0.25;"/>
<line x1="706.200000" y1="62.000000" x2="710.200000" y2="62.000000"  style="stroke:black; stroke-linecap:round; stroke-width:0.25;"/>
<line x1="710.200000" y1="62.000000" x2="714.200000" y2="62.000000"  style="stroke:black; stroke-linecap:round; stroke-width:0.25;"/>
<line x1="714.200000" y1="62.000000" x2="724.200000" y2="62.000000"  style="stroke:black; stroke-linecap:round; stroke-width:0.25;"/>
</svg>
