<?xml version="1.0"?>
<svg xmlns="http://www.w3.org/2000/svg" xmlns:xlink="http://www.w3.org/1999/xlink" viewBox="0 0 212.300000 100.000000" width="106.150000mm" height="50.000000mm" version="1.1">
<rect x="1.000000" y="1.000000" width="211.300000" height="99.000000" rx="0" ry="0" style="stroke:none;fill:#cccccc;"/>
<rect x="0.000000" y="0.000000" width="211.300000" height="99.000000" rx="0" ry="0" style="stroke:none;fill:#ffffff;"/>
<text x="10.000000" y="7.000000" font-family="Arial" font-size="7"></text>
<a xlink:href="Brass-0x7f8a95a44a00.svg">
<rect x="35.000000" y="39.000000" width="25.800000" height="24.000000" rx="0" ry="0" style="stroke:none;fill:#cccccc;"/>
<rect x="34.000000" y="38.000000" width="25.800000" height="24.000000" rx="0" ry="0" style="stroke:none;fill:#003366;"/>
</a>
<a xlink:href="Brass-0x7f8a95a44a00.svg">
<text x="46.900000" y="52.000000" font-family="Arial" font-size="7" text-anchor="middle" fill="#FFFFFF">Brass</text>
</a>
<circle cx="36.000000" cy="40.000000" r="1"/>
<a xlink:href="InstrReverBrass-0x7f8a95b69d30.svg">
<rect x="86.800000" y="35.000000" width="64.500000" height="32.000000" rx="0" ry="0" style="stroke:none;fill:#cccccc;"/>
<rect x="85.800000" y="34.000000" width="64.500000" height="32.000000" rx="0" ry="0" style="stroke:none;fill:#003366;"/>
</a>
<a xlink:href="InstrReverBrass-0x7f8a95b69d30.svg">
<text x="118.050000" y="52.000000" font-family="Arial" font-size="7" text-anchor="middle" fill="#FFFFFF">InstrReverBrass</text>
</a>
<circle cx="87.800000" cy="36.000000" r="1"/>
<line x1="82.800000" y1="37.000000" x2="85.800000" y2="38.000000"  transform="rotate(0.000000,85.800000,38.000000)" style="stroke: black; stroke-width:0.25;"/>
<line x1="82.800000" y1="39.000000" x2="85.800000" y2="38.000000"  transform="rotate(0.000000,85.800000,38.000000)" style="stroke: black; stroke-width:0.25;"/>
<line x1="82.800000" y1="45.000000" x2="85.800000" y2="46.000000"  transform="rotate(0.000000,85.800000,46.000000)" style="stroke: black; stroke-width:0.25;"/>
<line x1="82.800000" y1="47.000000" x2="85.800000" y2="46.000000"  transform="rotate(0.000000,85.800000,46.000000)" style="stroke: black; stroke-width:0.25;"/>
<line x1="82.800000" y1="53.000000" x2="85.800000" y2="54.000000"  transform="rotate(0.000000,85.800000,54.000000)" style="stroke: black; stroke-width:0.25;"/>
<line x1="82.800000" y1="55.000000" x2="85.800000" y2="54.000000"  transform="rotate(0.000000,85.800000,54.000000)" style="stroke: black; stroke-width:0.25;"/>
<line x1="82.800000" y1="61.000000" x2="85.800000" y2="62.000000"  transform="rotate(0.000000,85.800000,62.000000)" style="stroke: black; stroke-width:0.25;"/>
<line x1="82.800000" y1="63.000000" x2="85.800000" y2="62.000000"  transform="rotate(0.000000,85.800000,62.000000)" style="stroke: black; stroke-width:0.25;"/>
<line x1="25.000000" y1="25.000000" x2="25.000000" y2="75.000000"  style="stroke: black; stroke-linecap:round; stroke-width:0.25; stroke-dasharray:3,3;"/>
<line x1="25.000000" y1="75.000000" x2="179.300000" y2="75.000000"  style="stroke: black; stroke-linecap:round; stroke-width:0.25; stroke-dasharray:3,3;"/>
<line x1="179.300000" y1="75.000000" x2="179.300000" y2="25.000000"  style="stroke: black; stroke-linecap:round; stroke-width:0.25; stroke-dasharray:3,3;"/>
<line x1="25.000000" y1="25.000000" x2="30.000000" y2="25.000000"  style="stroke: black; stroke-linecap:round; stroke-width:0.25; stroke-dasharray:3,3;"/>
<line x1="113.850000" y1="25.000000" x2="179.300000" y2="25.000000"  style="stroke: black; stroke-linecap:round; stroke-width:0.25; stroke-dasharray:3,3;"/>
<text x="30.000000" y="27.000000" font-family="Arial" font-size="7">vgroup(Brass Instrument)</text>
<line x1="15.000000" y1="15.000000" x2="15.000000" y2="85.000000"  style="stroke: black; stroke-linecap:round; stroke-width:0.25; stroke-dasharray:3,3;"/>
<line x1="15.000000" y1="85.000000" x2="197.300000" y2="85.000000"  style="stroke: black; stroke-linecap:round; stroke-width:0.25; stroke-dasharray:3,3;"/>
<line x1="197.300000" y1="85.000000" x2="197.300000" y2="15.000000"  style="stroke: black; stroke-linecap:round; stroke-width:0.25; stroke-dasharray:3,3;"/>
<line x1="15.000000" y1="15.000000" x2="20.000000" y2="15.000000"  style="stroke: black; stroke-linecap:round; stroke-width:0.25; stroke-dasharray:3,3;"/>
<line x1="49.025000" y1="15.000000" x2="197.300000" y2="15.000000"  style="stroke: black; stroke-linecap:round; stroke-width:0.25; stroke-dasharray:3,3;"/>
<text x="20.000000" y="17.000000" font-family="Arial" font-size="7">process</text>
<line x1="199.300000" y1="49.000000" x2="202.300000" y2="50.000000"  transform="rotate(0.000000,202.300000,50.000000)" style="stroke: black; stroke-width:0.25;"/>
<line x1="199.300000" y1="51.000000" x2="202.300000" y2="50.000000"  transform="rotate(0.000000,202.300000,50.000000)" style="stroke: black; stroke-width:0.25;"/>
<line x1="59.800000" y1="50.000000" x2="63.800000" y2="50.000000"  style="stroke:black; stroke-linecap:round; stroke-width:0.25;"/>
<line x1="63.800000" y1="50.000000" x2="81.800000" y2="38.000000"  style="stroke:black; stroke-linecap:round; stroke-width:0.25;"/>
<line x1="63.800000" y1="50.000000" x2="81.800000" y2="46.000000"  style="stroke:black; stroke-linecap:round; stroke-width:0.25;"/>
<line x1="63.800000" y1="50.000000" x2="81.800000" y2="54.000000"  style="stroke:black; stroke-linecap:round; stroke-width:0.25;"/>
<line x1="63.800000" y1="50.000000" x2="81.800000" y2="62.000000"  style="stroke:black; stroke-linecap:round; stroke-width:0.25;"/>
<line x1="81.800000" y1="38.000000" x2="85.800000" y2="38.000000"  style="stroke:black; stroke-linecap:round; stroke-width:0.25;"/>
<line x1="81.800000" y1="46.000000" x2="85.800000" y2="46.000000"  style="stroke:black; stroke-linecap:round; stroke-width:0.25;"/>
<line x1="81.800000" y1="54.000000" x2="85.800000" y2="54.000000"  style="stroke:black; stroke-linecap:round; stroke-width:0.25;"/>
<line x1="81.800000" y1="62.000000" x2="85.800000" y2="62.000000"  style="stroke:black; stroke-linecap:round; stroke-width:0.25;"/>
<line x1="150.300000" y1="46.000000" x2="154.300000" y2="46.000000"  style="stroke:black; stroke-linecap:round; stroke-width:0.25;"/>
<line x1="150.300000" y1="54.000000" x2="154.300000" y2="54.000000"  style="stroke:black; stroke-linecap:round; stroke-width:0.25;"/>
<line x1="154.300000" y1="46.000000" x2="166.300000" y2="50.000000"  style="stroke:black; stroke-linecap:round; stroke-width:0.25;"/>
<line x1="154.300000" y1="54.000000" x2="166.300000" y2="50.000000"  style="stroke:black; stroke-linecap:round; stroke-width:0.25;"/>
<line x1="166.300000" y1="50.000000" x2="170.300000" y2="50.000000"  style="stroke:black; stroke-linecap:round; stroke-width:0.25;"/>
<line x1="170.300000" y1="50.000000" x2="174.300000" y2="50.000000"  style="stroke:black; stroke-linecap:round; stroke-width:0.25;"/>
<line x1="174.300000" y1="50.000000" x2="184.300000" y2="50.000000"  style="stroke:black; stroke-linecap:round; stroke-width:0.25;"/>
<line x1="184.300000" y1="50.000000" x2="184.300000" y2="50.000000"  style="stroke:black; stroke-linecap:round; stroke-width:0.25;"/>
<line x1="184.300000" y1="50.000000" x2="188.300000" y2="50.000000"  style="stroke:black; stroke-linecap:round; stroke-width:0.25;"/>
<line x1="188.300000" y1="50.000000" x2="192.300000" y2="50.000000"  style="stroke:black; stroke-linecap:round; stroke-width:0.25;"/>
<line x1="192.300000" y1="50.000000" x2="202.300000" y2="50.000000"  style="stroke:black; stroke-linecap:round; stroke-width:0.25;"/>
</svg>
