<?xml version="1.0"?>
<svg xmlns="http://www.w3.org/2000/svg" xmlns:xlink="http://www.w3.org/1999/xlink" viewBox="0 0 586.100000 100.000000" width="293.050000mm" height="50.000000mm" version="1.1">
<a xlink:href="dur-0x7fe63432cbc0.svg">
<rect x="1.000000" y="1.000000" width="585.100000" height="99.000000" rx="0" ry="0" style="stroke:none;fill:#cccccc;"/>
<rect x="0.000000" y="0.000000" width="585.100000" height="99.000000" rx="0" ry="0" style="stroke:none;fill:#ffffff;"/>
</a>
<text x="10.000000" y="7.000000" font-family="Arial" font-size="7"></text>
<rect x="25.000000" y="39.000000" width="348.300000" height="24.000000" rx="0" ry="0" style="stroke:none;fill:#cccccc;"/>
<rect x="24.000000" y="38.000000" width="348.300000" height="24.000000" rx="0" ry="0" style="stroke:none;fill:#477881;"/>
<text x="198.150000" y="52.000000" font-family="Arial" font-size="7" text-anchor="middle" fill="#FFFFFF">hslider(v:Reverb/Reverberation Room Size (InstrReverb), 0.2f, 0.05f, 1.7f, 0.01f)</text>
<circle cx="26.000000" cy="40.000000" r="1"/>
<rect x="389.300000" y="35.000000" width="24.000000" height="24.000000" rx="0" ry="0" style="stroke:none;fill:#cccccc;"/>
<rect x="388.300000" y="34.000000" width="24.000000" height="24.000000" rx="0" ry="0" style="stroke:none;fill:#f44800;"/>
<text x="400.300000" y="48.000000" font-family="Arial" font-size="7" text-anchor="middle" fill="#FFFFFF">1.7</text>
<circle cx="390.300000" cy="36.000000" r="1"/>
<rect x="429.300000" y="39.000000" width="24.000000" height="24.000000" rx="0" ry="0" style="stroke:none;fill:#cccccc;"/>
<rect x="428.300000" y="38.000000" width="24.000000" height="24.000000" rx="0" ry="0" style="stroke:none;fill:#4B71A1;"/>
<text x="440.300000" y="52.000000" font-family="Arial" font-size="7" text-anchor="middle" fill="#FFFFFF">min</text>
<circle cx="430.300000" cy="40.000000" r="1"/>
<line x1="425.300000" y1="45.000000" x2="428.300000" y2="46.000000"  transform="rotate(0.000000,428.300000,46.000000)" style="stroke: black; stroke-width:0.25;"/>
<line x1="425.300000" y1="47.000000" x2="428.300000" y2="46.000000"  transform="rotate(0.000000,428.300000,46.000000)" style="stroke: black; stroke-width:0.25;"/>
<line x1="425.300000" y1="53.000000" x2="428.300000" y2="54.000000"  transform="rotate(0.000000,428.300000,54.000000)" style="stroke: black; stroke-width:0.25;"/>
<line x1="425.300000" y1="55.000000" x2="428.300000" y2="54.000000"  transform="rotate(0.000000,428.300000,54.000000)" style="stroke: black; stroke-width:0.25;"/>
<rect x="479.300000" y="35.000000" width="25.800000" height="24.000000" rx="0" ry="0" style="stroke:none;fill:#cccccc;"/>
<rect x="478.300000" y="34.000000" width="25.800000" height="24.000000" rx="0" ry="0" style="stroke:none;fill:#f44800;"/>
<text x="491.200000" y="48.000000" font-family="Arial" font-size="7" text-anchor="middle" fill="#FFFFFF">0.05</text>
<circle cx="480.300000" cy="36.000000" r="1"/>
<line x1="469.300000" y1="25.000000" x2="469.300000" y2="67.000000"  style="stroke: black; stroke-linecap:round; stroke-width:0.25; stroke-dasharray:3,3;"/>
<line x1="469.300000" y1="67.000000" x2="513.100000" y2="67.000000"  style="stroke: black; stroke-linecap:round; stroke-width:0.25; stroke-dasharray:3,3;"/>
<line x1="513.100000" y1="67.000000" x2="513.100000" y2="25.000000"  style="stroke: black; stroke-linecap:round; stroke-width:0.25; stroke-dasharray:3,3;"/>
<line x1="469.300000" y1="25.000000" x2="474.300000" y2="25.000000"  style="stroke: black; stroke-linecap:round; stroke-width:0.25; stroke-dasharray:3,3;"/>
<line x1="513.100000" y1="25.000000" x2="513.100000" y2="25.000000"  style="stroke: black; stroke-linecap:round; stroke-width:0.25; stroke-dasharray:3,3;"/>
<text x="474.300000" y="27.000000" font-family="Arial" font-size="7">vibratoBegin</text>
<rect x="531.100000" y="39.000000" width="24.000000" height="24.000000" rx="0" ry="0" style="stroke:none;fill:#cccccc;"/>
<rect x="530.100000" y="38.000000" width="24.000000" height="24.000000" rx="0" ry="0" style="stroke:none;fill:#4B71A1;"/>
<text x="542.100000" y="52.000000" font-family="Arial" font-size="7" text-anchor="middle" fill="#FFFFFF">max</text>
<circle cx="532.100000" cy="40.000000" r="1"/>
<line x1="527.100000" y1="45.000000" x2="530.100000" y2="46.000000"  transform="rotate(0.000000,530.100000,46.000000)" style="stroke: black; stroke-width:0.25;"/>
<line x1="527.100000" y1="47.000000" x2="530.100000" y2="46.000000"  transform="rotate(0.000000,530.100000,46.000000)" style="stroke: black; stroke-width:0.25;"/>
<line x1="527.100000" y1="53.000000" x2="530.100000" y2="54.000000"  transform="rotate(0.000000,530.100000,54.000000)" style="stroke: black; stroke-width:0.25;"/>
<line x1="527.100000" y1="55.000000" x2="530.100000" y2="54.000000"  transform="rotate(0.000000,530.100000,54.000000)" style="stroke: black; stroke-width:0.25;"/>
<line x1="15.000000" y1="15.000000" x2="15.000000" y2="85.000000"  style="stroke: black; stroke-linecap:round; stroke-width:0.25; stroke-dasharray:3,3;"/>
<line x1="15.000000" y1="85.000000" x2="571.100000" y2="85.000000"  style="stroke: black; stroke-linecap:round; stroke-width:0.25; stroke-dasharray:3,3;"/>
<line x1="571.100000" y1="85.000000" x2="571.100000" y2="15.000000"  style="stroke: black; stroke-linecap:round; stroke-width:0.25; stroke-dasharray:3,3;"/>
<line x1="15.000000" y1="15.000000" x2="20.000000" y2="15.000000"  style="stroke: black; stroke-linecap:round; stroke-width:0.25; stroke-dasharray:3,3;"/>
<line x1="52.250000" y1="15.000000" x2="571.100000" y2="15.000000"  style="stroke: black; stroke-linecap:round; stroke-width:0.25; stroke-dasharray:3,3;"/>
<text x="20.000000" y="17.000000" font-family="Arial" font-size="7">roomSize</text>
<line x1="573.100000" y1="49.000000" x2="576.100000" y2="50.000000"  transform="rotate(0.000000,576.100000,50.000000)" style="stroke: black; stroke-width:0.25;"/>
<line x1="573.100000" y1="51.000000" x2="576.100000" y2="50.000000"  transform="rotate(0.000000,576.100000,50.000000)" style="stroke: black; stroke-width:0.25;"/>
<line x1="372.300000" y1="50.000000" x2="376.300000" y2="50.000000"  style="stroke:black; stroke-linecap:round; stroke-width:0.25;"/>
<line x1="376.300000" y1="50.000000" x2="384.300000" y2="50.000000"  style="stroke:black; stroke-linecap:round; stroke-width:0.25;"/>
<line x1="384.300000" y1="50.000000" x2="384.300000" y2="66.000000"  style="stroke:black; stroke-linecap:round; stroke-width:0.25;"/>
<line x1="384.300000" y1="66.000000" x2="384.300000" y2="66.000000"  style="stroke:black; stroke-linecap:round; stroke-width:0.25;"/>
<line x1="384.300000" y1="66.000000" x2="400.300000" y2="66.000000"  style="stroke:black; stroke-linecap:round; stroke-width:0.25;"/>
<line x1="400.300000" y1="66.000000" x2="416.300000" y2="66.000000"  style="stroke:black; stroke-linecap:round; stroke-width:0.25;"/>
<line x1="412.300000" y1="46.000000" x2="416.300000" y2="46.000000"  style="stroke:black; stroke-linecap:round; stroke-width:0.25;"/>
<line x1="416.300000" y1="46.000000" x2="424.300000" y2="46.000000"  style="stroke:black; stroke-linecap:round; stroke-width:0.25;"/>
<line x1="416.300000" y1="54.000000" x2="424.300000" y2="54.000000"  style="stroke:black; stroke-linecap:round; stroke-width:0.25;"/>
<line x1="416.300000" y1="66.000000" x2="416.300000" y2="54.000000"  style="stroke:black; stroke-linecap:round; stroke-width:0.25;"/>
<line x1="416.300000" y1="66.000000" x2="416.300000" y2="66.000000"  style="stroke:black; stroke-linecap:round; stroke-width:0.25;"/>
<line x1="424.300000" y1="46.000000" x2="428.300000" y2="46.000000"  style="stroke:black; stroke-linecap:round; stroke-width:0.25;"/>
<line x1="424.300000" y1="54.000000" x2="428.300000" y2="54.000000"  style="stroke:black; stroke-linecap:round; stroke-width:0.25;"/>
<line x1="452.300000" y1="50.000000" x2="456.300000" y2="50.000000"  style="stroke:black; stroke-linecap:round; stroke-width:0.25;"/>
<line x1="456.300000" y1="50.000000" x2="464.300000" y2="50.000000"  style="stroke:black; stroke-linecap:round; stroke-width:0.25;"/>
<line x1="464.300000" y1="50.000000" x2="464.300000" y2="76.000000"  style="stroke:black; stroke-linecap:round; stroke-width:0.25;"/>
<line x1="464.300000" y1="76.000000" x2="464.300000" y2="76.000000"  style="stroke:black; stroke-linecap:round; stroke-width:0.25;"/>
<line x1="464.300000" y1="76.000000" x2="491.200000" y2="76.000000"  style="stroke:black; stroke-linecap:round; stroke-width:0.25;"/>
<line x1="491.200000" y1="76.000000" x2="518.100000" y2="76.000000"  style="stroke:black; stroke-linecap:round; stroke-width:0.25;"/>
<line x1="504.100000" y1="46.000000" x2="508.100000" y2="46.000000"  style="stroke:black; stroke-linecap:round; stroke-width:0.25;"/>
<line x1="508.100000" y1="46.000000" x2="518.100000" y2="46.000000"  style="stroke:black; stroke-linecap:round; stroke-width:0.25;"/>
<line x1="518.100000" y1="46.000000" x2="526.100000" y2="46.000000"  style="stroke:black; stroke-linecap:round; stroke-width:0.25;"/>
<line x1="518.100000" y1="54.000000" x2="526.100000" y2="54.000000"  style="stroke:black; stroke-linecap:round; stroke-width:0.25;"/>
<line x1="518.100000" y1="76.000000" x2="518.100000" y2="54.000000"  style="stroke:black; stroke-linecap:round; stroke-width:0.25;"/>
<line x1="518.100000" y1="76.000000" x2="518.100000" y2="76.000000"  style="stroke:black; stroke-linecap:round; stroke-width:0.25;"/>
<line x1="526.100000" y1="46.000000" x2="530.100000" y2="46.000000"  style="stroke:black; stroke-linecap:round; stroke-width:0.25;"/>
<line x1="526.100000" y1="54.000000" x2="530.100000" y2="54.000000"  style="stroke:black; stroke-linecap:round; stroke-width:0.25;"/>
<line x1="554.100000" y1="50.000000" x2="558.100000" y2="50.000000"  style="stroke:black; stroke-linecap:round; stroke-width:0.25;"/>
<line x1="558.100000" y1="50.000000" x2="558.100000" y2="50.000000"  style="stroke:black; stroke-linecap:round; stroke-width:0.25;"/>
<line x1="558.100000" y1="50.000000" x2="562.100000" y2="50.000000"  style="stroke:black; stroke-linecap:round; stroke-width:0.25;"/>
<line x1="562.100000" y1="50.000000" x2="566.100000" y2="50.000000"  style="stroke:black; stroke-linecap:round; stroke-width:0.25;"/>
<line x1="566.100000" y1="50.000000" x2="576.100000" y2="50.000000"  style="stroke:black; stroke-linecap:round; stroke-width:0.25;"/>
</svg>
