<?xml version="1.0"?>
<svg xmlns="http://www.w3.org/2000/svg" xmlns:xlink="http://www.w3.org/1999/xlink" viewBox="0 0 635.000000 104.000000" width="317.500000mm" height="52.000000mm" version="1.1">
<a xlink:href="corres-0x7f80d87b2c10.svg">
<rect x="1.000000" y="1.000000" width="634.000000" height="103.000000" rx="0" ry="0" style="stroke:none;fill:#cccccc;"/>
<rect x="0.000000" y="0.000000" width="634.000000" height="103.000000" rx="0" ry="0" style="stroke:none;fill:#ffffff;"/>
</a>
<text x="10.000000" y="7.000000" font-family="Arial" font-size="7"></text>
<rect x="25.000000" y="25.000000" width="270.900000" height="24.000000" rx="0" ry="0" style="stroke:none;fill:#cccccc;"/>
<rect x="24.000000" y="24.000000" width="270.900000" height="24.000000" rx="0" ry="0" style="stroke:none;fill:#477881;"/>
<text x="159.450000" y="38.000000" font-family="Arial" font-size="7" text-anchor="middle" fill="#FFFFFF">hslider(Note Duration (BPF Envelope), 0.2f, 0.1f, 0.5f, 0.01f)</text>
<circle cx="26.000000" cy="26.000000" r="1"/>
<a xlink:href="samplingfreq-0x7f80d877b090.svg">
<rect x="134.650000" y="57.000000" width="51.600000" height="24.000000" rx="0" ry="0" style="stroke:none;fill:#cccccc;"/>
<rect x="133.650000" y="56.000000" width="51.600000" height="24.000000" rx="0" ry="0" style="stroke:none;fill:#003366;"/>
</a>
<a xlink:href="samplingfreq-0x7f80d877b090.svg">
<text x="159.450000" y="70.000000" font-family="Arial" font-size="7" text-anchor="middle" fill="#FFFFFF">samplingfreq</text>
</a>
<circle cx="135.650000" cy="58.000000" r="1"/>
<rect x="311.900000" y="41.000000" width="24.000000" height="24.000000" rx="0" ry="0" style="stroke:none;fill:#cccccc;"/>
<rect x="310.900000" y="40.000000" width="24.000000" height="24.000000" rx="0" ry="0" style="stroke:none;fill:#4B71A1;"/>
<text x="322.900000" y="54.000000" font-family="Arial" font-size="7" text-anchor="middle" fill="#FFFFFF">*</text>
<circle cx="312.900000" cy="42.000000" r="1"/>
<line x1="307.900000" y1="47.000000" x2="310.900000" y2="48.000000"  transform="rotate(0.000000,310.900000,48.000000)" style="stroke: black; stroke-width:0.25;"/>
<line x1="307.900000" y1="49.000000" x2="310.900000" y2="48.000000"  transform="rotate(0.000000,310.900000,48.000000)" style="stroke: black; stroke-width:0.25;"/>
<line x1="307.900000" y1="55.000000" x2="310.900000" y2="56.000000"  transform="rotate(0.000000,310.900000,56.000000)" style="stroke: black; stroke-width:0.25;"/>
<line x1="307.900000" y1="57.000000" x2="310.900000" y2="56.000000"  transform="rotate(0.000000,310.900000,56.000000)" style="stroke: black; stroke-width:0.25;"/>
<a xlink:href="smooth-0x7f80d8790830.svg">
<rect x="343.900000" y="41.000000" width="64.500000" height="24.000000" rx="0" ry="0" style="stroke:none;fill:#cccccc;"/>
<rect x="342.900000" y="40.000000" width="64.500000" height="24.000000" rx="0" ry="0" style="stroke:none;fill:#003366;"/>
</a>
<a xlink:href="smooth-0x7f80d8790830.svg">
<text x="375.150000" y="54.000000" font-family="Arial" font-size="7" text-anchor="middle" fill="#FFFFFF">smooth(0.999f)</text>
</a>
<circle cx="344.900000" cy="42.000000" r="1"/>
<line x1="339.900000" y1="51.000000" x2="342.900000" y2="52.000000"  transform="rotate(0.000000,342.900000,52.000000)" style="stroke: black; stroke-width:0.25;"/>
<line x1="339.900000" y1="53.000000" x2="342.900000" y2="52.000000"  transform="rotate(0.000000,342.900000,52.000000)" style="stroke: black; stroke-width:0.25;"/>
<rect x="424.400000" y="37.000000" width="25.800000" height="24.000000" rx="0" ry="0" style="stroke:none;fill:#cccccc;"/>
<rect x="423.400000" y="36.000000" width="25.800000" height="24.000000" rx="0" ry="0" style="stroke:none;fill:#f44800;"/>
<text x="436.300000" y="50.000000" font-family="Arial" font-size="7" text-anchor="middle" fill="#FFFFFF">44100</text>
<circle cx="425.400000" cy="38.000000" r="1"/>
<rect x="466.200000" y="41.000000" width="24.000000" height="24.000000" rx="0" ry="0" style="stroke:none;fill:#cccccc;"/>
<rect x="465.200000" y="40.000000" width="24.000000" height="24.000000" rx="0" ry="0" style="stroke:none;fill:#4B71A1;"/>
<text x="477.200000" y="54.000000" font-family="Arial" font-size="7" text-anchor="middle" fill="#FFFFFF">min</text>
<circle cx="467.200000" cy="42.000000" r="1"/>
<line x1="462.200000" y1="47.000000" x2="465.200000" y2="48.000000"  transform="rotate(0.000000,465.200000,48.000000)" style="stroke: black; stroke-width:0.25;"/>
<line x1="462.200000" y1="49.000000" x2="465.200000" y2="48.000000"  transform="rotate(0.000000,465.200000,48.000000)" style="stroke: black; stroke-width:0.25;"/>
<line x1="462.200000" y1="55.000000" x2="465.200000" y2="56.000000"  transform="rotate(0.000000,465.200000,56.000000)" style="stroke: black; stroke-width:0.25;"/>
<line x1="462.200000" y1="57.000000" x2="465.200000" y2="56.000000"  transform="rotate(0.000000,465.200000,56.000000)" style="stroke: black; stroke-width:0.25;"/>
<rect x="506.200000" y="37.000000" width="25.800000" height="24.000000" rx="0" ry="0" style="stroke:none;fill:#cccccc;"/>
<rect x="505.200000" y="36.000000" width="25.800000" height="24.000000" rx="0" ry="0" style="stroke:none;fill:#f44800;"/>
<text x="518.100000" y="50.000000" font-family="Arial" font-size="7" text-anchor="middle" fill="#FFFFFF">4410</text>
<circle cx="507.200000" cy="38.000000" r="1"/>
<rect x="548.000000" y="41.000000" width="24.000000" height="24.000000" rx="0" ry="0" style="stroke:none;fill:#cccccc;"/>
<rect x="547.000000" y="40.000000" width="24.000000" height="24.000000" rx="0" ry="0" style="stroke:none;fill:#4B71A1;"/>
<text x="559.000000" y="54.000000" font-family="Arial" font-size="7" text-anchor="middle" fill="#FFFFFF">max</text>
<circle cx="549.000000" cy="42.000000" r="1"/>
<line x1="544.000000" y1="47.000000" x2="547.000000" y2="48.000000"  transform="rotate(0.000000,547.000000,48.000000)" style="stroke: black; stroke-width:0.25;"/>
<line x1="544.000000" y1="49.000000" x2="547.000000" y2="48.000000"  transform="rotate(0.000000,547.000000,48.000000)" style="stroke: black; stroke-width:0.25;"/>
<line x1="544.000000" y1="55.000000" x2="547.000000" y2="56.000000"  transform="rotate(0.000000,547.000000,56.000000)" style="stroke: black; stroke-width:0.25;"/>
<line x1="544.000000" y1="57.000000" x2="547.000000" y2="56.000000"  transform="rotate(0.000000,547.000000,56.000000)" style="stroke: black; stroke-width:0.25;"/>
<rect x="580.000000" y="41.000000" width="24.000000" height="24.000000" rx="0" ry="0" style="stroke:none;fill:#cccccc;"/>
<rect x="579.000000" y="40.000000" width="24.000000" height="24.000000" rx="0" ry="0" style="stroke:none;fill:#4B71A1;"/>
<text x="591.000000" y="54.000000" font-family="Arial" font-size="7" text-anchor="middle" fill="#FFFFFF">int</text>
<circle cx="581.000000" cy="42.000000" r="1"/>
<line x1="576.000000" y1="51.000000" x2="579.000000" y2="52.000000"  transform="rotate(0.000000,579.000000,52.000000)" style="stroke: black; stroke-width:0.25;"/>
<line x1="576.000000" y1="53.000000" x2="579.000000" y2="52.000000"  transform="rotate(0.000000,579.000000,52.000000)" style="stroke: black; stroke-width:0.25;"/>
<line x1="15.000000" y1="15.000000" x2="15.000000" y2="89.000000"  style="stroke: black; stroke-linecap:round; stroke-width:0.25; stroke-dasharray:3,3;"/>
<line x1="15.000000" y1="89.000000" x2="620.000000" y2="89.000000"  style="stroke: black; stroke-linecap:round; stroke-width:0.25; stroke-dasharray:3,3;"/>
<line x1="620.000000" y1="89.000000" x2="620.000000" y2="15.000000"  style="stroke: black; stroke-linecap:round; stroke-width:0.25; stroke-dasharray:3,3;"/>
<line x1="15.000000" y1="15.000000" x2="20.000000" y2="15.000000"  style="stroke: black; stroke-linecap:round; stroke-width:0.25; stroke-dasharray:3,3;"/>
<line x1="49.025000" y1="15.000000" x2="620.000000" y2="15.000000"  style="stroke: black; stroke-linecap:round; stroke-width:0.25; stroke-dasharray:3,3;"/>
<text x="20.000000" y="17.000000" font-family="Arial" font-size="7">envsize</text>
<line x1="622.000000" y1="51.000000" x2="625.000000" y2="52.000000"  transform="rotate(0.000000,625.000000,52.000000)" style="stroke: black; stroke-width:0.25;"/>
<line x1="622.000000" y1="53.000000" x2="625.000000" y2="52.000000"  transform="rotate(0.000000,625.000000,52.000000)" style="stroke: black; stroke-width:0.25;"/>
<line x1="185.250000" y1="68.000000" x2="189.250000" y2="68.000000"  style="stroke:black; stroke-linecap:round; stroke-width:0.25;"/>
<line x1="189.250000" y1="68.000000" x2="298.900000" y2="68.000000"  style="stroke:black; stroke-linecap:round; stroke-width:0.25;"/>
<line x1="294.900000" y1="36.000000" x2="298.900000" y2="36.000000"  style="stroke:black; stroke-linecap:round; stroke-width:0.25;"/>
<line x1="298.900000" y1="36.000000" x2="306.900000" y2="36.000000"  style="stroke:black; stroke-linecap:round; stroke-width:0.25;"/>
<line x1="298.900000" y1="56.000000" x2="306.900000" y2="56.000000"  style="stroke:black; stroke-linecap:round; stroke-width:0.25;"/>
<line x1="298.900000" y1="68.000000" x2="298.900000" y2="56.000000"  style="stroke:black; stroke-linecap:round; stroke-width:0.25;"/>
<line x1="298.900000" y1="68.000000" x2="298.900000" y2="68.000000"  style="stroke:black; stroke-linecap:round; stroke-width:0.25;"/>
<line x1="306.900000" y1="36.000000" x2="306.900000" y2="48.000000"  style="stroke:black; stroke-linecap:round; stroke-width:0.25;"/>
<line x1="306.900000" y1="48.000000" x2="306.900000" y2="48.000000"  style="stroke:black; stroke-linecap:round; stroke-width:0.25;"/>
<line x1="306.900000" y1="48.000000" x2="310.900000" y2="48.000000"  style="stroke:black; stroke-linecap:round; stroke-width:0.25;"/>
<line x1="306.900000" y1="56.000000" x2="310.900000" y2="56.000000"  style="stroke:black; stroke-linecap:round; stroke-width:0.25;"/>
<line x1="334.900000" y1="52.000000" x2="338.900000" y2="52.000000"  style="stroke:black; stroke-linecap:round; stroke-width:0.25;"/>
<line x1="338.900000" y1="52.000000" x2="338.900000" y2="52.000000"  style="stroke:black; stroke-linecap:round; stroke-width:0.25;"/>
<line x1="338.900000" y1="52.000000" x2="342.900000" y2="52.000000"  style="stroke:black; stroke-linecap:round; stroke-width:0.25;"/>
<line x1="407.400000" y1="52.000000" x2="411.400000" y2="52.000000"  style="stroke:black; stroke-linecap:round; stroke-width:0.25;"/>
<line x1="411.400000" y1="52.000000" x2="419.400000" y2="52.000000"  style="stroke:black; stroke-linecap:round; stroke-width:0.25;"/>
<line x1="419.400000" y1="52.000000" x2="419.400000" y2="68.000000"  style="stroke:black; stroke-linecap:round; stroke-width:0.25;"/>
<line x1="419.400000" y1="68.000000" x2="419.400000" y2="68.000000"  style="stroke:black; stroke-linecap:round; stroke-width:0.25;"/>
<line x1="419.400000" y1="68.000000" x2="436.300000" y2="68.000000"  style="stroke:black; stroke-linecap:round; stroke-width:0.25;"/>
<line x1="436.300000" y1="68.000000" x2="453.200000" y2="68.000000"  style="stroke:black; stroke-linecap:round; stroke-width:0.25;"/>
<line x1="449.200000" y1="48.000000" x2="453.200000" y2="48.000000"  style="stroke:black; stroke-linecap:round; stroke-width:0.25;"/>
<line x1="453.200000" y1="56.000000" x2="461.200000" y2="56.000000"  style="stroke:black; stroke-linecap:round; stroke-width:0.25;"/>
<line x1="453.200000" y1="68.000000" x2="453.200000" y2="56.000000"  style="stroke:black; stroke-linecap:round; stroke-width:0.25;"/>
<line x1="453.200000" y1="68.000000" x2="453.200000" y2="68.000000"  style="stroke:black; stroke-linecap:round; stroke-width:0.25;"/>
<line x1="453.200000" y1="48.000000" x2="461.200000" y2="48.000000"  style="stroke:black; stroke-linecap:round; stroke-width:0.25;"/>
<line x1="461.200000" y1="48.000000" x2="465.200000" y2="48.000000"  style="stroke:black; stroke-linecap:round; stroke-width:0.25;"/>
<line x1="461.200000" y1="56.000000" x2="465.200000" y2="56.000000"  style="stroke:black; stroke-linecap:round; stroke-width:0.25;"/>
<line x1="489.200000" y1="52.000000" x2="493.200000" y2="52.000000"  style="stroke:black; stroke-linecap:round; stroke-width:0.25;"/>
<line x1="493.200000" y1="52.000000" x2="501.200000" y2="52.000000"  style="stroke:black; stroke-linecap:round; stroke-width:0.25;"/>
<line x1="501.200000" y1="52.000000" x2="501.200000" y2="68.000000"  style="stroke:black; stroke-linecap:round; stroke-width:0.25;"/>
<line x1="501.200000" y1="68.000000" x2="501.200000" y2="68.000000"  style="stroke:black; stroke-linecap:round; stroke-width:0.25;"/>
<line x1="501.200000" y1="68.000000" x2="518.100000" y2="68.000000"  style="stroke:black; stroke-linecap:round; stroke-width:0.25;"/>
<line x1="518.100000" y1="68.000000" x2="535.000000" y2="68.000000"  style="stroke:black; stroke-linecap:round; stroke-width:0.25;"/>
<line x1="531.000000" y1="48.000000" x2="535.000000" y2="48.000000"  style="stroke:black; stroke-linecap:round; stroke-width:0.25;"/>
<line x1="535.000000" y1="48.000000" x2="543.000000" y2="48.000000"  style="stroke:black; stroke-linecap:round; stroke-width:0.25;"/>
<line x1="535.000000" y1="56.000000" x2="543.000000" y2="56.000000"  style="stroke:black; stroke-linecap:round; stroke-width:0.25;"/>
<line x1="535.000000" y1="68.000000" x2="535.000000" y2="56.000000"  style="stroke:black; stroke-linecap:round; stroke-width:0.25;"/>
<line x1="535.000000" y1="68.000000" x2="535.000000" y2="68.000000"  style="stroke:black; stroke-linecap:round; stroke-width:0.25;"/>
<line x1="543.000000" y1="48.000000" x2="547.000000" y2="48.000000"  style="stroke:black; stroke-linecap:round; stroke-width:0.25;"/>
<line x1="543.000000" y1="56.000000" x2="547.000000" y2="56.000000"  style="stroke:black; stroke-linecap:round; stroke-width:0.25;"/>
<line x1="571.000000" y1="52.000000" x2="575.000000" y2="52.000000"  style="stroke:black; stroke-linecap:round; stroke-width:0.25;"/>
<line x1="575.000000" y1="52.000000" x2="575.000000" y2="52.000000"  style="stroke:black; stroke-linecap:round; stroke-width:0.25;"/>
<line x1="575.000000" y1="52.000000" x2="579.000000" y2="52.000000"  style="stroke:black; stroke-linecap:round; stroke-width:0.25;"/>
<line x1="603.000000" y1="52.000000" x2="607.000000" y2="52.000000"  style="stroke:black; stroke-linecap:round; stroke-width:0.25;"/>
<line x1="607.000000" y1="52.000000" x2="607.000000" y2="52.000000"  style="stroke:black; stroke-linecap:round; stroke-width:0.25;"/>
<line x1="607.000000" y1="52.000000" x2="611.000000" y2="52.000000"  style="stroke:black; stroke-linecap:round; stroke-width:0.25;"/>
<line x1="611.000000" y1="52.000000" x2="615.000000" y2="52.000000"  style="stroke:black; stroke-linecap:round; stroke-width:0.25;"/>
<line x1="615.000000" y1="52.000000" x2="625.000000" y2="52.000000"  style="stroke:black; stroke-linecap:round; stroke-width:0.25;"/>
</svg>
