<?xml version="1.0"?>
<svg xmlns="http://www.w3.org/2000/svg" xmlns:xlink="http://www.w3.org/1999/xlink" viewBox="0 0 254.700000 232.000000" width="127.350000mm" height="116.000000mm" version="1.1">
<a xlink:href="filtered-0x7ff6a4867940.svg">
<rect x="1.000000" y="1.000000" width="253.700000" height="231.000000" rx="0" ry="0" style="stroke:none;fill:#cccccc;"/>
<rect x="0.000000" y="0.000000" width="253.700000" height="231.000000" rx="0" ry="0" style="stroke:none;fill:#ffffff;"/>
</a>
<text x="10.000000" y="7.000000" font-family="Arial" font-size="7"></text>
<rect x="33.000000" y="105.000000" width="24.000000" height="24.000000" rx="0" ry="0" style="stroke:none;fill:#cccccc;"/>
<rect x="32.000000" y="104.000000" width="24.000000" height="24.000000" rx="0" ry="0" style="stroke:none;fill:#47945E;"/>
<text x="44.000000" y="118.000000" font-family="Arial" font-size="7" text-anchor="middle" fill="#FFFFFF">x</text>
<circle cx="34.000000" cy="106.000000" r="1"/>
<line x1="29.000000" y1="115.000000" x2="32.000000" y2="116.000000"  transform="rotate(0.000000,32.000000,116.000000)" style="stroke: black; stroke-width:0.25;"/>
<line x1="29.000000" y1="117.000000" x2="32.000000" y2="116.000000"  transform="rotate(0.000000,32.000000,116.000000)" style="stroke: black; stroke-width:0.25;"/>
<rect x="65.000000" y="25.000000" width="38.700000" height="24.000000" rx="0" ry="0" style="stroke:none;fill:#cccccc;"/>
<rect x="64.000000" y="24.000000" width="38.700000" height="24.000000" rx="0" ry="0" style="stroke:none;fill:#f44800;"/>
<text x="83.350000" y="38.000000" font-family="Arial" font-size="7" text-anchor="middle" fill="#FFFFFF">0.316228</text>
<circle cx="66.000000" cy="26.000000" r="1"/>
<a xlink:href="L0-0x7ff6a3a97d00.svg">
<rect x="72.350000" y="57.000000" width="24.000000" height="24.000000" rx="0" ry="0" style="stroke:none;fill:#cccccc;"/>
<rect x="71.350000" y="56.000000" width="24.000000" height="24.000000" rx="0" ry="0" style="stroke:none;fill:#003366;"/>
</a>
<a xlink:href="L0-0x7ff6a3a97d00.svg">
<text x="83.350000" y="70.000000" font-family="Arial" font-size="7" text-anchor="middle" fill="#FFFFFF">L0</text>
</a>
<circle cx="73.350000" cy="58.000000" r="1"/>
<rect x="119.700000" y="41.000000" width="24.000000" height="24.000000" rx="0" ry="0" style="stroke:none;fill:#cccccc;"/>
<rect x="118.700000" y="40.000000" width="24.000000" height="24.000000" rx="0" ry="0" style="stroke:none;fill:#4B71A1;"/>
<text x="130.700000" y="54.000000" font-family="Arial" font-size="7" text-anchor="middle" fill="#FFFFFF">*</text>
<circle cx="120.700000" cy="42.000000" r="1"/>
<line x1="115.700000" y1="47.000000" x2="118.700000" y2="48.000000"  transform="rotate(0.000000,118.700000,48.000000)" style="stroke: black; stroke-width:0.25;"/>
<line x1="115.700000" y1="49.000000" x2="118.700000" y2="48.000000"  transform="rotate(0.000000,118.700000,48.000000)" style="stroke: black; stroke-width:0.25;"/>
<line x1="115.700000" y1="55.000000" x2="118.700000" y2="56.000000"  transform="rotate(0.000000,118.700000,56.000000)" style="stroke: black; stroke-width:0.25;"/>
<line x1="115.700000" y1="57.000000" x2="118.700000" y2="56.000000"  transform="rotate(0.000000,118.700000,56.000000)" style="stroke: black; stroke-width:0.25;"/>
<rect x="92.350000" y="89.000000" width="24.000000" height="24.000000" rx="0" ry="0" style="stroke:none;fill:#cccccc;"/>
<rect x="91.350000" y="88.000000" width="24.000000" height="24.000000" rx="0" ry="0" style="stroke:none;fill:#47945E;"/>
<text x="103.350000" y="102.000000" font-family="Arial" font-size="7" text-anchor="middle" fill="#FFFFFF">x</text>
<circle cx="93.350000" cy="90.000000" r="1"/>
<rect x="159.700000" y="57.000000" width="24.000000" height="24.000000" rx="0" ry="0" style="stroke:none;fill:#cccccc;"/>
<rect x="158.700000" y="56.000000" width="24.000000" height="24.000000" rx="0" ry="0" style="stroke:none;fill:#4B71A1;"/>
<text x="170.700000" y="70.000000" font-family="Arial" font-size="7" text-anchor="middle" fill="#FFFFFF">*</text>
<circle cx="160.700000" cy="58.000000" r="1"/>
<line x1="155.700000" y1="63.000000" x2="158.700000" y2="64.000000"  transform="rotate(0.000000,158.700000,64.000000)" style="stroke: black; stroke-width:0.25;"/>
<line x1="155.700000" y1="65.000000" x2="158.700000" y2="64.000000"  transform="rotate(0.000000,158.700000,64.000000)" style="stroke: black; stroke-width:0.25;"/>
<line x1="155.700000" y1="71.000000" x2="158.700000" y2="72.000000"  transform="rotate(0.000000,158.700000,72.000000)" style="stroke: black; stroke-width:0.25;"/>
<line x1="155.700000" y1="73.000000" x2="158.700000" y2="72.000000"  transform="rotate(0.000000,158.700000,72.000000)" style="stroke: black; stroke-width:0.25;"/>
<rect x="72.350000" y="121.000000" width="24.000000" height="24.000000" rx="0" ry="0" style="stroke:none;fill:#cccccc;"/>
<rect x="71.350000" y="120.000000" width="24.000000" height="24.000000" rx="0" ry="0" style="stroke:none;fill:#f44800;"/>
<text x="83.350000" y="134.000000" font-family="Arial" font-size="7" text-anchor="middle" fill="#FFFFFF">1</text>
<circle cx="73.350000" cy="122.000000" r="1"/>
<rect x="65.000000" y="153.000000" width="38.700000" height="24.000000" rx="0" ry="0" style="stroke:none;fill:#cccccc;"/>
<rect x="64.000000" y="152.000000" width="38.700000" height="24.000000" rx="0" ry="0" style="stroke:none;fill:#f44800;"/>
<text x="83.350000" y="166.000000" font-family="Arial" font-size="7" text-anchor="middle" fill="#FFFFFF">0.316228</text>
<circle cx="66.000000" cy="154.000000" r="1"/>
<rect x="119.700000" y="137.000000" width="24.000000" height="24.000000" rx="0" ry="0" style="stroke:none;fill:#cccccc;"/>
<rect x="118.700000" y="136.000000" width="24.000000" height="24.000000" rx="0" ry="0" style="stroke:none;fill:#4B71A1;"/>
<text x="130.700000" y="150.000000" font-family="Arial" font-size="7" text-anchor="middle" fill="#FFFFFF">-</text>
<circle cx="120.700000" cy="138.000000" r="1"/>
<line x1="115.700000" y1="143.000000" x2="118.700000" y2="144.000000"  transform="rotate(0.000000,118.700000,144.000000)" style="stroke: black; stroke-width:0.25;"/>
<line x1="115.700000" y1="145.000000" x2="118.700000" y2="144.000000"  transform="rotate(0.000000,118.700000,144.000000)" style="stroke: black; stroke-width:0.25;"/>
<line x1="115.700000" y1="151.000000" x2="118.700000" y2="152.000000"  transform="rotate(0.000000,118.700000,152.000000)" style="stroke: black; stroke-width:0.25;"/>
<line x1="115.700000" y1="153.000000" x2="118.700000" y2="152.000000"  transform="rotate(0.000000,118.700000,152.000000)" style="stroke: black; stroke-width:0.25;"/>
<rect x="75.450000" y="185.000000" width="24.000000" height="24.000000" rx="0" ry="0" style="stroke:none;fill:#cccccc;"/>
<rect x="74.450000" y="184.000000" width="24.000000" height="24.000000" rx="0" ry="0" style="stroke:none;fill:#47945E;"/>
<text x="86.450000" y="198.000000" font-family="Arial" font-size="7" text-anchor="middle" fill="#FFFFFF">x</text>
<circle cx="76.450000" cy="186.000000" r="1"/>
<a xlink:href="lp2out-0x7ff6a4866c70.svg">
<rect x="107.450000" y="185.000000" width="25.800000" height="24.000000" rx="0" ry="0" style="stroke:none;fill:#cccccc;"/>
<rect x="106.450000" y="184.000000" width="25.800000" height="24.000000" rx="0" ry="0" style="stroke:none;fill:#003366;"/>
</a>
<a xlink:href="lp2out-0x7ff6a4866c70.svg">
<text x="119.350000" y="198.000000" font-family="Arial" font-size="7" text-anchor="middle" fill="#FFFFFF">lp2out</text>
</a>
<circle cx="108.450000" cy="186.000000" r="1"/>
<line x1="103.450000" y1="195.000000" x2="106.450000" y2="196.000000"  transform="rotate(0.000000,106.450000,196.000000)" style="stroke: black; stroke-width:0.25;"/>
<line x1="103.450000" y1="197.000000" x2="106.450000" y2="196.000000"  transform="rotate(0.000000,106.450000,196.000000)" style="stroke: black; stroke-width:0.25;"/>
<rect x="159.700000" y="153.000000" width="24.000000" height="24.000000" rx="0" ry="0" style="stroke:none;fill:#cccccc;"/>
<rect x="158.700000" y="152.000000" width="24.000000" height="24.000000" rx="0" ry="0" style="stroke:none;fill:#4B71A1;"/>
<text x="170.700000" y="166.000000" font-family="Arial" font-size="7" text-anchor="middle" fill="#FFFFFF">*</text>
<circle cx="160.700000" cy="154.000000" r="1"/>
<line x1="155.700000" y1="159.000000" x2="158.700000" y2="160.000000"  transform="rotate(0.000000,158.700000,160.000000)" style="stroke: black; stroke-width:0.25;"/>
<line x1="155.700000" y1="161.000000" x2="158.700000" y2="160.000000"  transform="rotate(0.000000,158.700000,160.000000)" style="stroke: black; stroke-width:0.25;"/>
<line x1="155.700000" y1="167.000000" x2="158.700000" y2="168.000000"  transform="rotate(0.000000,158.700000,168.000000)" style="stroke: black; stroke-width:0.25;"/>
<line x1="155.700000" y1="169.000000" x2="158.700000" y2="168.000000"  transform="rotate(0.000000,158.700000,168.000000)" style="stroke: black; stroke-width:0.25;"/>
<rect x="199.700000" y="105.000000" width="24.000000" height="24.000000" rx="0" ry="0" style="stroke:none;fill:#cccccc;"/>
<rect x="198.700000" y="104.000000" width="24.000000" height="24.000000" rx="0" ry="0" style="stroke:none;fill:#4B71A1;"/>
<text x="210.700000" y="118.000000" font-family="Arial" font-size="7" text-anchor="middle" fill="#FFFFFF">+</text>
<circle cx="200.700000" cy="106.000000" r="1"/>
<line x1="195.700000" y1="111.000000" x2="198.700000" y2="112.000000"  transform="rotate(0.000000,198.700000,112.000000)" style="stroke: black; stroke-width:0.25;"/>
<line x1="195.700000" y1="113.000000" x2="198.700000" y2="112.000000"  transform="rotate(0.000000,198.700000,112.000000)" style="stroke: black; stroke-width:0.25;"/>
<line x1="195.700000" y1="119.000000" x2="198.700000" y2="120.000000"  transform="rotate(0.000000,198.700000,120.000000)" style="stroke: black; stroke-width:0.25;"/>
<line x1="195.700000" y1="121.000000" x2="198.700000" y2="120.000000"  transform="rotate(0.000000,198.700000,120.000000)" style="stroke: black; stroke-width:0.25;"/>
<line x1="15.000000" y1="15.000000" x2="15.000000" y2="217.000000"  style="stroke: black; stroke-linecap:round; stroke-width:0.25; stroke-dasharray:3,3;"/>
<line x1="15.000000" y1="217.000000" x2="239.700000" y2="217.000000"  style="stroke: black; stroke-linecap:round; stroke-width:0.25; stroke-dasharray:3,3;"/>
<line x1="239.700000" y1="217.000000" x2="239.700000" y2="15.000000"  style="stroke: black; stroke-linecap:round; stroke-width:0.25; stroke-dasharray:3,3;"/>
<line x1="15.000000" y1="15.000000" x2="20.000000" y2="15.000000"  style="stroke: black; stroke-linecap:round; stroke-width:0.25; stroke-dasharray:3,3;"/>
<line x1="149.000000" y1="15.000000" x2="239.700000" y2="15.000000"  style="stroke: black; stroke-linecap:round; stroke-width:0.25; stroke-dasharray:3,3;"/>
<text x="20.000000" y="17.000000" font-family="Arial" font-size="7">levelfilter(0.31622776601683794f)(400)</text>
<line x1="241.700000" y1="115.000000" x2="244.700000" y2="116.000000"  transform="rotate(0.000000,244.700000,116.000000)" style="stroke: black; stroke-width:0.25;"/>
<line x1="241.700000" y1="117.000000" x2="244.700000" y2="116.000000"  transform="rotate(0.000000,244.700000,116.000000)" style="stroke: black; stroke-width:0.25;"/>
<line x1="10.000000" y1="116.000000" x2="20.000000" y2="116.000000"  style="stroke:black; stroke-linecap:round; stroke-width:0.25;"/>
<line x1="20.000000" y1="116.000000" x2="24.000000" y2="116.000000"  style="stroke:black; stroke-linecap:round; stroke-width:0.25;"/>
<line x1="24.000000" y1="116.000000" x2="28.000000" y2="116.000000"  style="stroke:black; stroke-linecap:round; stroke-width:0.25;"/>
<line x1="28.000000" y1="116.000000" x2="28.000000" y2="116.000000"  style="stroke:black; stroke-linecap:round; stroke-width:0.25;"/>
<line x1="28.000000" y1="116.000000" x2="32.000000" y2="116.000000"  style="stroke:black; stroke-linecap:round; stroke-width:0.25;"/>
<line x1="95.350000" y1="68.000000" x2="99.350000" y2="68.000000"  style="stroke:black; stroke-linecap:round; stroke-width:0.25;"/>
<line x1="95.350000" y1="132.000000" x2="99.350000" y2="132.000000"  style="stroke:black; stroke-linecap:round; stroke-width:0.25;"/>
<line x1="98.450000" y1="196.000000" x2="102.450000" y2="196.000000"  style="stroke:black; stroke-linecap:round; stroke-width:0.25;"/>
<line x1="99.350000" y1="68.000000" x2="106.700000" y2="68.000000"  style="stroke:black; stroke-linecap:round; stroke-width:0.25;"/>
<line x1="99.350000" y1="132.000000" x2="106.700000" y2="132.000000"  style="stroke:black; stroke-linecap:round; stroke-width:0.25;"/>
<line x1="102.450000" y1="196.000000" x2="102.450000" y2="196.000000"  style="stroke:black; stroke-linecap:round; stroke-width:0.25;"/>
<line x1="102.450000" y1="196.000000" x2="106.450000" y2="196.000000"  style="stroke:black; stroke-linecap:round; stroke-width:0.25;"/>
<line x1="102.700000" y1="36.000000" x2="106.700000" y2="36.000000"  style="stroke:black; stroke-linecap:round; stroke-width:0.25;"/>
<line x1="102.700000" y1="164.000000" x2="106.700000" y2="164.000000"  style="stroke:black; stroke-linecap:round; stroke-width:0.25;"/>
<line x1="106.700000" y1="36.000000" x2="114.700000" y2="36.000000"  style="stroke:black; stroke-linecap:round; stroke-width:0.25;"/>
<line x1="106.700000" y1="56.000000" x2="114.700000" y2="56.000000"  style="stroke:black; stroke-linecap:round; stroke-width:0.25;"/>
<line x1="106.700000" y1="68.000000" x2="106.700000" y2="56.000000"  style="stroke:black; stroke-linecap:round; stroke-width:0.25;"/>
<line x1="106.700000" y1="68.000000" x2="106.700000" y2="68.000000"  style="stroke:black; stroke-linecap:round; stroke-width:0.25;"/>
<line x1="106.700000" y1="132.000000" x2="114.700000" y2="132.000000"  style="stroke:black; stroke-linecap:round; stroke-width:0.25;"/>
<line x1="106.700000" y1="152.000000" x2="114.700000" y2="152.000000"  style="stroke:black; stroke-linecap:round; stroke-width:0.25;"/>
<line x1="106.700000" y1="164.000000" x2="106.700000" y2="152.000000"  style="stroke:black; stroke-linecap:round; stroke-width:0.25;"/>
<line x1="106.700000" y1="164.000000" x2="106.700000" y2="164.000000"  style="stroke:black; stroke-linecap:round; stroke-width:0.25;"/>
<line x1="114.700000" y1="36.000000" x2="114.700000" y2="48.000000"  style="stroke:black; stroke-linecap:round; stroke-width:0.25;"/>
<line x1="114.700000" y1="48.000000" x2="114.700000" y2="48.000000"  style="stroke:black; stroke-linecap:round; stroke-width:0.25;"/>
<line x1="114.700000" y1="48.000000" x2="118.700000" y2="48.000000"  style="stroke:black; stroke-linecap:round; stroke-width:0.25;"/>
<line x1="114.700000" y1="56.000000" x2="118.700000" y2="56.000000"  style="stroke:black; stroke-linecap:round; stroke-width:0.25;"/>
<line x1="114.700000" y1="132.000000" x2="114.700000" y2="144.000000"  style="stroke:black; stroke-linecap:round; stroke-width:0.25;"/>
<line x1="114.700000" y1="144.000000" x2="114.700000" y2="144.000000"  style="stroke:black; stroke-linecap:round; stroke-width:0.25;"/>
<line x1="114.700000" y1="144.000000" x2="118.700000" y2="144.000000"  style="stroke:black; stroke-linecap:round; stroke-width:0.25;"/>
<line x1="114.700000" y1="152.000000" x2="118.700000" y2="152.000000"  style="stroke:black; stroke-linecap:round; stroke-width:0.25;"/>
<line x1="115.350000" y1="100.000000" x2="119.350000" y2="100.000000"  style="stroke:black; stroke-linecap:round; stroke-width:0.25;"/>
<line x1="119.350000" y1="100.000000" x2="146.700000" y2="100.000000"  style="stroke:black; stroke-linecap:round; stroke-width:0.25;"/>
<line x1="132.250000" y1="196.000000" x2="136.250000" y2="196.000000"  style="stroke:black; stroke-linecap:round; stroke-width:0.25;"/>
<line x1="136.250000" y1="196.000000" x2="146.700000" y2="196.000000"  style="stroke:black; stroke-linecap:round; stroke-width:0.25;"/>
<line x1="142.700000" y1="52.000000" x2="146.700000" y2="52.000000"  style="stroke:black; stroke-linecap:round; stroke-width:0.25;"/>
<line x1="142.700000" y1="148.000000" x2="146.700000" y2="148.000000"  style="stroke:black; stroke-linecap:round; stroke-width:0.25;"/>
<line x1="146.700000" y1="52.000000" x2="154.700000" y2="52.000000"  style="stroke:black; stroke-linecap:round; stroke-width:0.25;"/>
<line x1="146.700000" y1="72.000000" x2="154.700000" y2="72.000000"  style="stroke:black; stroke-linecap:round; stroke-width:0.25;"/>
<line x1="146.700000" y1="100.000000" x2="146.700000" y2="72.000000"  style="stroke:black; stroke-linecap:round; stroke-width:0.25;"/>
<line x1="146.700000" y1="100.000000" x2="146.700000" y2="100.000000"  style="stroke:black; stroke-linecap:round; stroke-width:0.25;"/>
<line x1="146.700000" y1="148.000000" x2="154.700000" y2="148.000000"  style="stroke:black; stroke-linecap:round; stroke-width:0.25;"/>
<line x1="146.700000" y1="168.000000" x2="154.700000" y2="168.000000"  style="stroke:black; stroke-linecap:round; stroke-width:0.25;"/>
<line x1="146.700000" y1="196.000000" x2="146.700000" y2="168.000000"  style="stroke:black; stroke-linecap:round; stroke-width:0.25;"/>
<line x1="146.700000" y1="196.000000" x2="146.700000" y2="196.000000"  style="stroke:black; stroke-linecap:round; stroke-width:0.25;"/>
<line x1="154.700000" y1="52.000000" x2="154.700000" y2="64.000000"  style="stroke:black; stroke-linecap:round; stroke-width:0.25;"/>
<line x1="154.700000" y1="64.000000" x2="154.700000" y2="64.000000"  style="stroke:black; stroke-linecap:round; stroke-width:0.25;"/>
<line x1="154.700000" y1="64.000000" x2="158.700000" y2="64.000000"  style="stroke:black; stroke-linecap:round; stroke-width:0.25;"/>
<line x1="154.700000" y1="72.000000" x2="158.700000" y2="72.000000"  style="stroke:black; stroke-linecap:round; stroke-width:0.25;"/>
<line x1="154.700000" y1="148.000000" x2="154.700000" y2="160.000000"  style="stroke:black; stroke-linecap:round; stroke-width:0.25;"/>
<line x1="154.700000" y1="160.000000" x2="154.700000" y2="160.000000"  style="stroke:black; stroke-linecap:round; stroke-width:0.25;"/>
<line x1="154.700000" y1="160.000000" x2="158.700000" y2="160.000000"  style="stroke:black; stroke-linecap:round; stroke-width:0.25;"/>
<line x1="154.700000" y1="168.000000" x2="158.700000" y2="168.000000"  style="stroke:black; stroke-linecap:round; stroke-width:0.25;"/>
<line x1="182.700000" y1="68.000000" x2="186.700000" y2="68.000000"  style="stroke:black; stroke-linecap:round; stroke-width:0.25;"/>
<line x1="182.700000" y1="164.000000" x2="186.700000" y2="164.000000"  style="stroke:black; stroke-linecap:round; stroke-width:0.25;"/>
<line x1="186.700000" y1="68.000000" x2="194.700000" y2="68.000000"  style="stroke:black; stroke-linecap:round; stroke-width:0.25;"/>
<line x1="186.700000" y1="120.000000" x2="194.700000" y2="120.000000"  style="stroke:black; stroke-linecap:round; stroke-width:0.25;"/>
<line x1="186.700000" y1="164.000000" x2="186.700000" y2="120.000000"  style="stroke:black; stroke-linecap:round; stroke-width:0.25;"/>
<line x1="186.700000" y1="164.000000" x2="186.700000" y2="164.000000"  style="stroke:black; stroke-linecap:round; stroke-width:0.25;"/>
<line x1="194.700000" y1="68.000000" x2="194.700000" y2="112.000000"  style="stroke:black; stroke-linecap:round; stroke-width:0.25;"/>
<line x1="194.700000" y1="112.000000" x2="194.700000" y2="112.000000"  style="stroke:black; stroke-linecap:round; stroke-width:0.25;"/>
<line x1="194.700000" y1="112.000000" x2="198.700000" y2="112.000000"  style="stroke:black; stroke-linecap:round; stroke-width:0.25;"/>
<line x1="194.700000" y1="120.000000" x2="198.700000" y2="120.000000"  style="stroke:black; stroke-linecap:round; stroke-width:0.25;"/>
<line x1="222.700000" y1="116.000000" x2="226.700000" y2="116.000000"  style="stroke:black; stroke-linecap:round; stroke-width:0.25;"/>
<line x1="226.700000" y1="116.000000" x2="226.700000" y2="116.000000"  style="stroke:black; stroke-linecap:round; stroke-width:0.25;"/>
<line x1="226.700000" y1="116.000000" x2="230.700000" y2="116.000000"  style="stroke:black; stroke-linecap:round; stroke-width:0.25;"/>
<line x1="230.700000" y1="116.000000" x2="234.700000" y2="116.000000"  style="stroke:black; stroke-linecap:round; stroke-width:0.25;"/>
<line x1="234.700000" y1="116.000000" x2="244.700000" y2="116.000000"  style="stroke:black; stroke-linecap:round; stroke-width:0.25;"/>
</svg>
