<?xml version="1.0"?>
<svg xmlns="http://www.w3.org/2000/svg" xmlns:xlink="http://www.w3.org/1999/xlink" viewBox="0 0 500.200000 240.000000" width="250.100000mm" height="120.000000mm" version="1.1">
<rect x="1.000000" y="1.000000" width="499.200000" height="239.000000" rx="0" ry="0" style="stroke:none;fill:#cccccc;"/>
<rect x="0.000000" y="0.000000" width="499.200000" height="239.000000" rx="0" ry="0" style="stroke:none;fill:#ffffff;"/>
<text x="10.000000" y="7.000000" font-family="Arial" font-size="7"></text>
<rect x="41.000000" y="63.000000" width="180.600000" height="24.000000" rx="0" ry="0" style="stroke:none;fill:#cccccc;"/>
<rect x="40.000000" y="62.000000" width="180.600000" height="24.000000" rx="0" ry="0" style="stroke:none;fill:#477881;"/>
<text x="130.300000" y="76.000000" font-family="Arial" font-size="7" text-anchor="middle" fill="#FFFFFF">hslider(Volume, 0.75f, 0.0f, 1.0f, 0.01f)</text>
<circle cx="42.000000" cy="64.000000" r="1"/>
<rect x="247.600000" y="67.000000" width="25.800000" height="24.000000" rx="0" ry="0" style="stroke:none;fill:#cccccc;"/>
<rect x="246.600000" y="66.000000" width="25.800000" height="24.000000" rx="0" ry="0" style="stroke:none;fill:#f44800;"/>
<text x="259.500000" y="80.000000" font-family="Arial" font-size="7" text-anchor="middle" fill="#FFFFFF">0.001</text>
<circle cx="248.600000" cy="68.000000" r="1"/>
<rect x="289.400000" y="63.000000" width="24.000000" height="24.000000" rx="0" ry="0" style="stroke:none;fill:#cccccc;"/>
<rect x="288.400000" y="62.000000" width="24.000000" height="24.000000" rx="0" ry="0" style="stroke:none;fill:#4B71A1;"/>
<text x="300.400000" y="76.000000" font-family="Arial" font-size="7" text-anchor="middle" fill="#FFFFFF">*</text>
<circle cx="290.400000" cy="64.000000" r="1"/>
<line x1="285.400000" y1="69.000000" x2="288.400000" y2="70.000000"  transform="rotate(0.000000,288.400000,70.000000)" style="stroke: black; stroke-width:0.25;"/>
<line x1="285.400000" y1="71.000000" x2="288.400000" y2="70.000000"  transform="rotate(0.000000,288.400000,70.000000)" style="stroke: black; stroke-width:0.25;"/>
<line x1="285.400000" y1="77.000000" x2="288.400000" y2="78.000000"  transform="rotate(0.000000,288.400000,78.000000)" style="stroke: black; stroke-width:0.25;"/>
<line x1="285.400000" y1="79.000000" x2="288.400000" y2="78.000000"  transform="rotate(0.000000,288.400000,78.000000)" style="stroke: black; stroke-width:0.25;"/>
<rect x="358.300000" y="83.000000" width="24.000000" height="24.000000" rx="0" ry="0" style="stroke:none;fill:#cccccc;"/>
<rect x="357.300000" y="82.000000" width="24.000000" height="24.000000" rx="0" ry="0" style="stroke:none;fill:#4B71A1;"/>
<text x="369.300000" y="96.000000" font-family="Arial" font-size="7" text-anchor="middle" fill="#FFFFFF">+</text>
<circle cx="359.300000" cy="84.000000" r="1"/>
<line x1="354.300000" y1="89.000000" x2="357.300000" y2="90.000000"  transform="rotate(0.000000,357.300000,90.000000)" style="stroke: black; stroke-width:0.25;"/>
<line x1="354.300000" y1="91.000000" x2="357.300000" y2="90.000000"  transform="rotate(0.000000,357.300000,90.000000)" style="stroke: black; stroke-width:0.25;"/>
<line x1="354.300000" y1="97.000000" x2="357.300000" y2="98.000000"  transform="rotate(0.000000,357.300000,98.000000)" style="stroke: black; stroke-width:0.25;"/>
<line x1="354.300000" y1="99.000000" x2="357.300000" y2="98.000000"  transform="rotate(0.000000,357.300000,98.000000)" style="stroke: black; stroke-width:0.25;"/>
<rect x="377.400000" y="43.000000" width="25.800000" height="24.000000" rx="0" ry="0" style="stroke:none;fill:#cccccc;"/>
<rect x="376.400000" y="42.000000" width="25.800000" height="24.000000" rx="0" ry="0" style="stroke:none;fill:#f44800;"/>
<text x="389.300000" y="56.000000" font-family="Arial" font-size="7" text-anchor="middle" fill="#FFFFFF">0.999</text>
<circle cx="400.200000" cy="64.000000" r="1"/>
<rect x="337.400000" y="47.000000" width="24.000000" height="24.000000" rx="0" ry="0" style="stroke:none;fill:#cccccc;"/>
<rect x="336.400000" y="46.000000" width="24.000000" height="24.000000" rx="0" ry="0" style="stroke:none;fill:#4B71A1;"/>
<text x="348.400000" y="60.000000" font-family="Arial" font-size="7" text-anchor="middle" fill="#FFFFFF">*</text>
<circle cx="358.400000" cy="68.000000" r="1"/>
<line x1="363.400000" y1="61.000000" x2="360.400000" y2="62.000000"  transform="rotate(0.000000,360.400000,62.000000)" style="stroke: black; stroke-width:0.25;"/>
<line x1="363.400000" y1="63.000000" x2="360.400000" y2="62.000000"  transform="rotate(0.000000,360.400000,62.000000)" style="stroke: black; stroke-width:0.25;"/>
<line x1="363.400000" y1="53.000000" x2="360.400000" y2="54.000000"  transform="rotate(0.000000,360.400000,54.000000)" style="stroke: black; stroke-width:0.25;"/>
<line x1="363.400000" y1="55.000000" x2="360.400000" y2="54.000000"  transform="rotate(0.000000,360.400000,54.000000)" style="stroke: black; stroke-width:0.25;"/>
<line x1="404.200000" y1="94.000000" x2="404.200000" y2="90.000000"  style="stroke:black; stroke-linecap:round; stroke-width:0.25;"/>
<line x1="404.200000" y1="90.000000" x2="408.200000" y2="90.000000"  style="stroke:black; stroke-linecap:round; stroke-width:0.25;"/>
<line x1="408.200000" y1="90.000000" x2="408.200000" y2="94.000000"  style="stroke:black; stroke-linecap:round; stroke-width:0.25;"/>
<line x1="237.600000" y1="33.000000" x2="237.600000" y2="115.000000"  style="stroke: black; stroke-linecap:round; stroke-width:0.25; stroke-dasharray:3,3;"/>
<line x1="237.600000" y1="115.000000" x2="419.200000" y2="115.000000"  style="stroke: black; stroke-linecap:round; stroke-width:0.25; stroke-dasharray:3,3;"/>
<line x1="419.200000" y1="115.000000" x2="419.200000" y2="33.000000"  style="stroke: black; stroke-linecap:round; stroke-width:0.25; stroke-dasharray:3,3;"/>
<line x1="237.600000" y1="33.000000" x2="242.600000" y2="33.000000"  style="stroke: black; stroke-linecap:round; stroke-width:0.25; stroke-dasharray:3,3;"/>
<line x1="294.200000" y1="33.000000" x2="419.200000" y2="33.000000"  style="stroke: black; stroke-linecap:round; stroke-width:0.25; stroke-dasharray:3,3;"/>
<text x="242.600000" y="35.000000" font-family="Arial" font-size="7">smooth(0.999f)</text>
<rect x="437.200000" y="59.000000" width="24.000000" height="24.000000" rx="0" ry="0" style="stroke:none;fill:#cccccc;"/>
<rect x="436.200000" y="58.000000" width="24.000000" height="24.000000" rx="0" ry="0" style="stroke:none;fill:#4B71A1;"/>
<text x="448.200000" y="72.000000" font-family="Arial" font-size="7" text-anchor="middle" fill="#FFFFFF">*</text>
<circle cx="438.200000" cy="60.000000" r="1"/>
<line x1="433.200000" y1="65.000000" x2="436.200000" y2="66.000000"  transform="rotate(0.000000,436.200000,66.000000)" style="stroke: black; stroke-width:0.25;"/>
<line x1="433.200000" y1="67.000000" x2="436.200000" y2="66.000000"  transform="rotate(0.000000,436.200000,66.000000)" style="stroke: black; stroke-width:0.25;"/>
<line x1="433.200000" y1="73.000000" x2="436.200000" y2="74.000000"  transform="rotate(0.000000,436.200000,74.000000)" style="stroke: black; stroke-width:0.25;"/>
<line x1="433.200000" y1="75.000000" x2="436.200000" y2="74.000000"  transform="rotate(0.000000,436.200000,74.000000)" style="stroke: black; stroke-width:0.25;"/>
<rect x="41.000000" y="163.000000" width="180.600000" height="24.000000" rx="0" ry="0" style="stroke:none;fill:#cccccc;"/>
<rect x="40.000000" y="162.000000" width="180.600000" height="24.000000" rx="0" ry="0" style="stroke:none;fill:#477881;"/>
<text x="130.300000" y="176.000000" font-family="Arial" font-size="7" text-anchor="middle" fill="#FFFFFF">hslider(Volume, 0.75f, 0.0f, 1.0f, 0.01f)</text>
<circle cx="42.000000" cy="164.000000" r="1"/>
<rect x="247.600000" y="167.000000" width="25.800000" height="24.000000" rx="0" ry="0" style="stroke:none;fill:#cccccc;"/>
<rect x="246.600000" y="166.000000" width="25.800000" height="24.000000" rx="0" ry="0" style="stroke:none;fill:#f44800;"/>
<text x="259.500000" y="180.000000" font-family="Arial" font-size="7" text-anchor="middle" fill="#FFFFFF">0.001</text>
<circle cx="248.600000" cy="168.000000" r="1"/>
<rect x="289.400000" y="163.000000" width="24.000000" height="24.000000" rx="0" ry="0" style="stroke:none;fill:#cccccc;"/>
<rect x="288.400000" y="162.000000" width="24.000000" height="24.000000" rx="0" ry="0" style="stroke:none;fill:#4B71A1;"/>
<text x="300.400000" y="176.000000" font-family="Arial" font-size="7" text-anchor="middle" fill="#FFFFFF">*</text>
<circle cx="290.400000" cy="164.000000" r="1"/>
<line x1="285.400000" y1="169.000000" x2="288.400000" y2="170.000000"  transform="rotate(0.000000,288.400000,170.000000)" style="stroke: black; stroke-width:0.25;"/>
<line x1="285.400000" y1="171.000000" x2="288.400000" y2="170.000000"  transform="rotate(0.000000,288.400000,170.000000)" style="stroke: black; stroke-width:0.25;"/>
<line x1="285.400000" y1="177.000000" x2="288.400000" y2="178.000000"  transform="rotate(0.000000,288.400000,178.000000)" style="stroke: black; stroke-width:0.25;"/>
<line x1="285.400000" y1="179.000000" x2="288.400000" y2="178.000000"  transform="rotate(0.000000,288.400000,178.000000)" style="stroke: black; stroke-width:0.25;"/>
<rect x="358.300000" y="183.000000" width="24.000000" height="24.000000" rx="0" ry="0" style="stroke:none;fill:#cccccc;"/>
<rect x="357.300000" y="182.000000" width="24.000000" height="24.000000" rx="0" ry="0" style="stroke:none;fill:#4B71A1;"/>
<text x="369.300000" y="196.000000" font-family="Arial" font-size="7" text-anchor="middle" fill="#FFFFFF">+</text>
<circle cx="359.300000" cy="184.000000" r="1"/>
<line x1="354.300000" y1="189.000000" x2="357.300000" y2="190.000000"  transform="rotate(0.000000,357.300000,190.000000)" style="stroke: black; stroke-width:0.25;"/>
<line x1="354.300000" y1="191.000000" x2="357.300000" y2="190.000000"  transform="rotate(0.000000,357.300000,190.000000)" style="stroke: black; stroke-width:0.25;"/>
<line x1="354.300000" y1="197.000000" x2="357.300000" y2="198.000000"  transform="rotate(0.000000,357.300000,198.000000)" style="stroke: black; stroke-width:0.25;"/>
<line x1="354.300000" y1="199.000000" x2="357.300000" y2="198.000000"  transform="rotate(0.000000,357.300000,198.000000)" style="stroke: black; stroke-width:0.25;"/>
<rect x="377.400000" y="143.000000" width="25.800000" height="24.000000" rx="0" ry="0" style="stroke:none;fill:#cccccc;"/>
<rect x="376.400000" y="142.000000" width="25.800000" height="24.000000" rx="0" ry="0" style="stroke:none;fill:#f44800;"/>
<text x="389.300000" y="156.000000" font-family="Arial" font-size="7" text-anchor="middle" fill="#FFFFFF">0.999</text>
<circle cx="400.200000" cy="164.000000" r="1"/>
<rect x="337.400000" y="147.000000" width="24.000000" height="24.000000" rx="0" ry="0" style="stroke:none;fill:#cccccc;"/>
<rect x="336.400000" y="146.000000" width="24.000000" height="24.000000" rx="0" ry="0" style="stroke:none;fill:#4B71A1;"/>
<text x="348.400000" y="160.000000" font-family="Arial" font-size="7" text-anchor="middle" fill="#FFFFFF">*</text>
<circle cx="358.400000" cy="168.000000" r="1"/>
<line x1="363.400000" y1="161.000000" x2="360.400000" y2="162.000000"  transform="rotate(0.000000,360.400000,162.000000)" style="stroke: black; stroke-width:0.25;"/>
<line x1="363.400000" y1="163.000000" x2="360.400000" y2="162.000000"  transform="rotate(0.000000,360.400000,162.000000)" style="stroke: black; stroke-width:0.25;"/>
<line x1="363.400000" y1="153.000000" x2="360.400000" y2="154.000000"  transform="rotate(0.000000,360.400000,154.000000)" style="stroke: black; stroke-width:0.25;"/>
<line x1="363.400000" y1="155.000000" x2="360.400000" y2="154.000000"  transform="rotate(0.000000,360.400000,154.000000)" style="stroke: black; stroke-width:0.25;"/>
<line x1="404.200000" y1="194.000000" x2="404.200000" y2="190.000000"  style="stroke:black; stroke-linecap:round; stroke-width:0.25;"/>
<line x1="404.200000" y1="190.000000" x2="408.200000" y2="190.000000"  style="stroke:black; stroke-linecap:round; stroke-width:0.25;"/>
<line x1="408.200000" y1="190.000000" x2="408.200000" y2="194.000000"  style="stroke:black; stroke-linecap:round; stroke-width:0.25;"/>
<line x1="237.600000" y1="133.000000" x2="237.600000" y2="215.000000"  style="stroke: black; stroke-linecap:round; stroke-width:0.25; stroke-dasharray:3,3;"/>
<line x1="237.600000" y1="215.000000" x2="419.200000" y2="215.000000"  style="stroke: black; stroke-linecap:round; stroke-width:0.25; stroke-dasharray:3,3;"/>
<line x1="419.200000" y1="215.000000" x2="419.200000" y2="133.000000"  style="stroke: black; stroke-linecap:round; stroke-width:0.25; stroke-dasharray:3,3;"/>
<line x1="237.600000" y1="133.000000" x2="242.600000" y2="133.000000"  style="stroke: black; stroke-linecap:round; stroke-width:0.25; stroke-dasharray:3,3;"/>
<line x1="294.200000" y1="133.000000" x2="419.200000" y2="133.000000"  style="stroke: black; stroke-linecap:round; stroke-width:0.25; stroke-dasharray:3,3;"/>
<text x="242.600000" y="135.000000" font-family="Arial" font-size="7">smooth(0.999f)</text>
<rect x="437.200000" y="159.000000" width="24.000000" height="24.000000" rx="0" ry="0" style="stroke:none;fill:#cccccc;"/>
<rect x="436.200000" y="158.000000" width="24.000000" height="24.000000" rx="0" ry="0" style="stroke:none;fill:#4B71A1;"/>
<text x="448.200000" y="172.000000" font-family="Arial" font-size="7" text-anchor="middle" fill="#FFFFFF">*</text>
<circle cx="438.200000" cy="160.000000" r="1"/>
<line x1="433.200000" y1="165.000000" x2="436.200000" y2="166.000000"  transform="rotate(0.000000,436.200000,166.000000)" style="stroke: black; stroke-width:0.25;"/>
<line x1="433.200000" y1="167.000000" x2="436.200000" y2="166.000000"  transform="rotate(0.000000,436.200000,166.000000)" style="stroke: black; stroke-width:0.25;"/>
<line x1="433.200000" y1="173.000000" x2="436.200000" y2="174.000000"  transform="rotate(0.000000,436.200000,174.000000)" style="stroke: black; stroke-width:0.25;"/>
<line x1="433.200000" y1="175.000000" x2="436.200000" y2="174.000000"  transform="rotate(0.000000,436.200000,174.000000)" style="stroke: black; stroke-width:0.25;"/>
<line x1="15.000000" y1="15.000000" x2="15.000000" y2="225.000000"  style="stroke: black; stroke-linecap:round; stroke-width:0.25; stroke-dasharray:3,3;"/>
<line x1="15.000000" y1="225.000000" x2="485.200000" y2="225.000000"  style="stroke: black; stroke-linecap:round; stroke-width:0.25; stroke-dasharray:3,3;"/>
<line x1="485.200000" y1="225.000000" x2="485.200000" y2="15.000000"  style="stroke: black; stroke-linecap:round; stroke-width:0.25; stroke-dasharray:3,3;"/>
<line x1="15.000000" y1="15.000000" x2="20.000000" y2="15.000000"  style="stroke: black; stroke-linecap:round; stroke-width:0.25; stroke-dasharray:3,3;"/>
<line x1="49.025000" y1="15.000000" x2="485.200000" y2="15.000000"  style="stroke: black; stroke-linecap:round; stroke-width:0.25; stroke-dasharray:3,3;"/>
<text x="20.000000" y="17.000000" font-family="Arial" font-size="7">process</text>
<line x1="487.200000" y1="115.000000" x2="490.200000" y2="116.000000"  transform="rotate(0.000000,490.200000,116.000000)" style="stroke: black; stroke-width:0.25;"/>
<line x1="487.200000" y1="117.000000" x2="490.200000" y2="116.000000"  transform="rotate(0.000000,490.200000,116.000000)" style="stroke: black; stroke-width:0.25;"/>
<line x1="487.200000" y1="123.000000" x2="490.200000" y2="124.000000"  transform="rotate(0.000000,490.200000,124.000000)" style="stroke: black; stroke-width:0.25;"/>
<line x1="487.200000" y1="125.000000" x2="490.200000" y2="124.000000"  transform="rotate(0.000000,490.200000,124.000000)" style="stroke: black; stroke-width:0.25;"/>
<line x1="10.000000" y1="116.000000" x2="20.000000" y2="116.000000"  style="stroke:black; stroke-linecap:round; stroke-width:0.25;"/>
<line x1="10.000000" y1="124.000000" x2="20.000000" y2="124.000000"  style="stroke:black; stroke-linecap:round; stroke-width:0.25;"/>
<line x1="20.000000" y1="116.000000" x2="24.000000" y2="116.000000"  style="stroke:black; stroke-linecap:round; stroke-width:0.25;"/>
<line x1="20.000000" y1="124.000000" x2="24.000000" y2="124.000000"  style="stroke:black; stroke-linecap:round; stroke-width:0.25;"/>
<line x1="24.000000" y1="116.000000" x2="28.000000" y2="116.000000"  style="stroke:black; stroke-linecap:round; stroke-width:0.25;"/>
<line x1="24.000000" y1="124.000000" x2="28.000000" y2="124.000000"  style="stroke:black; stroke-linecap:round; stroke-width:0.25;"/>
<line x1="28.000000" y1="24.000000" x2="36.000000" y2="24.000000"  style="stroke:black; stroke-linecap:round; stroke-width:0.25;"/>
<line x1="28.000000" y1="116.000000" x2="28.000000" y2="24.000000"  style="stroke:black; stroke-linecap:round; stroke-width:0.25;"/>
<line x1="28.000000" y1="116.000000" x2="28.000000" y2="116.000000"  style="stroke:black; stroke-linecap:round; stroke-width:0.25;"/>
<line x1="28.000000" y1="124.000000" x2="36.000000" y2="124.000000"  style="stroke:black; stroke-linecap:round; stroke-width:0.25;"/>
<line x1="36.000000" y1="24.000000" x2="230.100000" y2="24.000000"  style="stroke:black; stroke-linecap:round; stroke-width:0.25;"/>
<line x1="36.000000" y1="124.000000" x2="230.100000" y2="124.000000"  style="stroke:black; stroke-linecap:round; stroke-width:0.25;"/>
<line x1="220.600000" y1="74.000000" x2="224.600000" y2="74.000000"  style="stroke:black; stroke-linecap:round; stroke-width:0.25;"/>
<line x1="220.600000" y1="174.000000" x2="224.600000" y2="174.000000"  style="stroke:black; stroke-linecap:round; stroke-width:0.25;"/>
<line x1="224.600000" y1="58.000000" x2="232.600000" y2="58.000000"  style="stroke:black; stroke-linecap:round; stroke-width:0.25;"/>
<line x1="224.600000" y1="74.000000" x2="224.600000" y2="58.000000"  style="stroke:black; stroke-linecap:round; stroke-width:0.25;"/>
<line x1="224.600000" y1="74.000000" x2="224.600000" y2="74.000000"  style="stroke:black; stroke-linecap:round; stroke-width:0.25;"/>
<line x1="224.600000" y1="158.000000" x2="232.600000" y2="158.000000"  style="stroke:black; stroke-linecap:round; stroke-width:0.25;"/>
<line x1="224.600000" y1="174.000000" x2="224.600000" y2="158.000000"  style="stroke:black; stroke-linecap:round; stroke-width:0.25;"/>
<line x1="224.600000" y1="174.000000" x2="224.600000" y2="174.000000"  style="stroke:black; stroke-linecap:round; stroke-width:0.25;"/>
<line x1="230.100000" y1="24.000000" x2="424.200000" y2="24.000000"  style="stroke:black; stroke-linecap:round; stroke-width:0.25;"/>
<line x1="230.100000" y1="124.000000" x2="424.200000" y2="124.000000"  style="stroke:black; stroke-linecap:round; stroke-width:0.25;"/>
<line x1="232.600000" y1="58.000000" x2="242.600000" y2="58.000000"  style="stroke:black; stroke-linecap:round; stroke-width:0.25;"/>
<line x1="232.600000" y1="158.000000" x2="242.600000" y2="158.000000"  style="stroke:black; stroke-linecap:round; stroke-width:0.25;"/>
<line x1="242.600000" y1="58.000000" x2="259.500000" y2="58.000000"  style="stroke:black; stroke-linecap:round; stroke-width:0.25;"/>
<line x1="242.600000" y1="158.000000" x2="259.500000" y2="158.000000"  style="stroke:black; stroke-linecap:round; stroke-width:0.25;"/>
<line x1="259.500000" y1="58.000000" x2="276.400000" y2="58.000000"  style="stroke:black; stroke-linecap:round; stroke-width:0.25;"/>
<line x1="259.500000" y1="158.000000" x2="276.400000" y2="158.000000"  style="stroke:black; stroke-linecap:round; stroke-width:0.25;"/>
<line x1="272.400000" y1="78.000000" x2="276.400000" y2="78.000000"  style="stroke:black; stroke-linecap:round; stroke-width:0.25;"/>
<line x1="272.400000" y1="178.000000" x2="276.400000" y2="178.000000"  style="stroke:black; stroke-linecap:round; stroke-width:0.25;"/>
<line x1="276.400000" y1="58.000000" x2="284.400000" y2="58.000000"  style="stroke:black; stroke-linecap:round; stroke-width:0.25;"/>
<line x1="276.400000" y1="78.000000" x2="284.400000" y2="78.000000"  style="stroke:black; stroke-linecap:round; stroke-width:0.25;"/>
<line x1="276.400000" y1="158.000000" x2="284.400000" y2="158.000000"  style="stroke:black; stroke-linecap:round; stroke-width:0.25;"/>
<line x1="276.400000" y1="178.000000" x2="284.400000" y2="178.000000"  style="stroke:black; stroke-linecap:round; stroke-width:0.25;"/>
<line x1="284.400000" y1="58.000000" x2="284.400000" y2="70.000000"  style="stroke:black; stroke-linecap:round; stroke-width:0.25;"/>
<line x1="284.400000" y1="70.000000" x2="284.400000" y2="70.000000"  style="stroke:black; stroke-linecap:round; stroke-width:0.25;"/>
<line x1="284.400000" y1="70.000000" x2="288.400000" y2="70.000000"  style="stroke:black; stroke-linecap:round; stroke-width:0.25;"/>
<line x1="284.400000" y1="78.000000" x2="288.400000" y2="78.000000"  style="stroke:black; stroke-linecap:round; stroke-width:0.25;"/>
<line x1="284.400000" y1="158.000000" x2="284.400000" y2="170.000000"  style="stroke:black; stroke-linecap:round; stroke-width:0.25;"/>
<line x1="284.400000" y1="170.000000" x2="284.400000" y2="170.000000"  style="stroke:black; stroke-linecap:round; stroke-width:0.25;"/>
<line x1="284.400000" y1="170.000000" x2="288.400000" y2="170.000000"  style="stroke:black; stroke-linecap:round; stroke-width:0.25;"/>
<line x1="284.400000" y1="178.000000" x2="288.400000" y2="178.000000"  style="stroke:black; stroke-linecap:round; stroke-width:0.25;"/>
<line x1="312.400000" y1="74.000000" x2="316.400000" y2="74.000000"  style="stroke:black; stroke-linecap:round; stroke-width:0.25;"/>
<line x1="312.400000" y1="174.000000" x2="316.400000" y2="174.000000"  style="stroke:black; stroke-linecap:round; stroke-width:0.25;"/>
<line x1="316.400000" y1="74.000000" x2="324.400000" y2="74.000000"  style="stroke:black; stroke-linecap:round; stroke-width:0.25;"/>
<line x1="316.400000" y1="174.000000" x2="324.400000" y2="174.000000"  style="stroke:black; stroke-linecap:round; stroke-width:0.25;"/>
<line x1="324.400000" y1="74.000000" x2="324.400000" y2="98.000000"  style="stroke:black; stroke-linecap:round; stroke-width:0.25;"/>
<line x1="324.400000" y1="98.000000" x2="324.400000" y2="98.000000"  style="stroke:black; stroke-linecap:round; stroke-width:0.25;"/>
<line x1="324.400000" y1="98.000000" x2="332.400000" y2="98.000000"  style="stroke:black; stroke-linecap:round; stroke-width:0.25;"/>
<line x1="324.400000" y1="174.000000" x2="324.400000" y2="198.000000"  style="stroke:black; stroke-linecap:round; stroke-width:0.25;"/>
<line x1="324.400000" y1="198.000000" x2="324.400000" y2="198.000000"  style="stroke:black; stroke-linecap:round; stroke-width:0.25;"/>
<line x1="324.400000" y1="198.000000" x2="332.400000" y2="198.000000"  style="stroke:black; stroke-linecap:round; stroke-width:0.25;"/>
<line x1="332.400000" y1="58.000000" x2="332.400000" y2="58.000000"  style="stroke:black; stroke-linecap:round; stroke-width:0.25;"/>
<line x1="332.400000" y1="58.000000" x2="332.400000" y2="90.000000"  style="stroke:black; stroke-linecap:round; stroke-width:0.25;"/>
<line x1="332.400000" y1="90.000000" x2="332.400000" y2="90.000000"  style="stroke:black; stroke-linecap:round; stroke-width:0.25;"/>
<line x1="332.400000" y1="90.000000" x2="353.300000" y2="90.000000"  style="stroke:black; stroke-linecap:round; stroke-width:0.25;"/>
<line x1="332.400000" y1="98.000000" x2="353.300000" y2="98.000000"  style="stroke:black; stroke-linecap:round; stroke-width:0.25;"/>
<line x1="332.400000" y1="158.000000" x2="332.400000" y2="158.000000"  style="stroke:black; stroke-linecap:round; stroke-width:0.25;"/>
<line x1="332.400000" y1="158.000000" x2="332.400000" y2="190.000000"  style="stroke:black; stroke-linecap:round; stroke-width:0.25;"/>
<line x1="332.400000" y1="190.000000" x2="332.400000" y2="190.000000"  style="stroke:black; stroke-linecap:round; stroke-width:0.25;"/>
<line x1="332.400000" y1="190.000000" x2="353.300000" y2="190.000000"  style="stroke:black; stroke-linecap:round; stroke-width:0.25;"/>
<line x1="332.400000" y1="198.000000" x2="353.300000" y2="198.000000"  style="stroke:black; stroke-linecap:round; stroke-width:0.25;"/>
<line x1="336.400000" y1="58.000000" x2="332.400000" y2="58.000000"  style="stroke:black; stroke-linecap:round; stroke-width:0.25;"/>
<line x1="336.400000" y1="158.000000" x2="332.400000" y2="158.000000"  style="stroke:black; stroke-linecap:round; stroke-width:0.25;"/>
<line x1="353.300000" y1="90.000000" x2="357.300000" y2="90.000000"  style="stroke:black; stroke-linecap:round; stroke-width:0.25;"/>
<line x1="353.300000" y1="98.000000" x2="357.300000" y2="98.000000"  style="stroke:black; stroke-linecap:round; stroke-width:0.25;"/>
<line x1="353.300000" y1="190.000000" x2="357.300000" y2="190.000000"  style="stroke:black; stroke-linecap:round; stroke-width:0.25;"/>
<line x1="353.300000" y1="198.000000" x2="357.300000" y2="198.000000"  style="stroke:black; stroke-linecap:round; stroke-width:0.25;"/>
<line x1="364.400000" y1="54.000000" x2="360.400000" y2="54.000000"  style="stroke:black; stroke-linecap:round; stroke-width:0.25;"/>
<line x1="364.400000" y1="62.000000" x2="360.400000" y2="62.000000"  style="stroke:black; stroke-linecap:round; stroke-width:0.25;"/>
<line x1="364.400000" y1="62.000000" x2="364.400000" y2="62.000000"  style="stroke:black; stroke-linecap:round; stroke-width:0.25;"/>
<line x1="364.400000" y1="74.000000" x2="364.400000" y2="62.000000"  style="stroke:black; stroke-linecap:round; stroke-width:0.25;"/>
<line x1="364.400000" y1="154.000000" x2="360.400000" y2="154.000000"  style="stroke:black; stroke-linecap:round; stroke-width:0.25;"/>
<line x1="364.400000" y1="162.000000" x2="360.400000" y2="162.000000"  style="stroke:black; stroke-linecap:round; stroke-width:0.25;"/>
<line x1="364.400000" y1="162.000000" x2="364.400000" y2="162.000000"  style="stroke:black; stroke-linecap:round; stroke-width:0.25;"/>
<line x1="364.400000" y1="174.000000" x2="364.400000" y2="162.000000"  style="stroke:black; stroke-linecap:round; stroke-width:0.25;"/>
<line x1="372.400000" y1="54.000000" x2="364.400000" y2="54.000000"  style="stroke:black; stroke-linecap:round; stroke-width:0.25;"/>
<line x1="372.400000" y1="74.000000" x2="364.400000" y2="74.000000"  style="stroke:black; stroke-linecap:round; stroke-width:0.25;"/>
<line x1="372.400000" y1="154.000000" x2="364.400000" y2="154.000000"  style="stroke:black; stroke-linecap:round; stroke-width:0.25;"/>
<line x1="372.400000" y1="174.000000" x2="364.400000" y2="174.000000"  style="stroke:black; stroke-linecap:round; stroke-width:0.25;"/>
<line x1="376.400000" y1="54.000000" x2="372.400000" y2="54.000000"  style="stroke:black; stroke-linecap:round; stroke-width:0.25;"/>
<line x1="376.400000" y1="154.000000" x2="372.400000" y2="154.000000"  style="stroke:black; stroke-linecap:round; stroke-width:0.25;"/>
<line x1="381.300000" y1="94.000000" x2="385.300000" y2="94.000000"  style="stroke:black; stroke-linecap:round; stroke-width:0.25;"/>
<line x1="381.300000" y1="194.000000" x2="385.300000" y2="194.000000"  style="stroke:black; stroke-linecap:round; stroke-width:0.25;"/>
<line x1="385.300000" y1="94.000000" x2="406.200000" y2="94.000000"  style="stroke:black; stroke-linecap:round; stroke-width:0.25;"/>
<line x1="385.300000" y1="194.000000" x2="406.200000" y2="194.000000"  style="stroke:black; stroke-linecap:round; stroke-width:0.25;"/>
<line x1="389.300000" y1="74.000000" x2="372.400000" y2="74.000000"  style="stroke:black; stroke-linecap:round; stroke-width:0.25;"/>
<line x1="389.300000" y1="174.000000" x2="372.400000" y2="174.000000"  style="stroke:black; stroke-linecap:round; stroke-width:0.25;"/>
<line x1="406.200000" y1="74.000000" x2="389.300000" y2="74.000000"  style="stroke:black; stroke-linecap:round; stroke-width:0.25;"/>
<line x1="406.200000" y1="74.000000" x2="406.200000" y2="74.000000"  style="stroke:black; stroke-linecap:round; stroke-width:0.25;"/>
<line x1="406.200000" y1="90.000000" x2="406.200000" y2="74.000000"  style="stroke:black; stroke-linecap:round; stroke-width:0.25;"/>
<line x1="406.200000" y1="94.000000" x2="408.200000" y2="94.000000"  style="stroke:black; stroke-linecap:round; stroke-width:0.25;"/>
<line x1="406.200000" y1="174.000000" x2="389.300000" y2="174.000000"  style="stroke:black; stroke-linecap:round; stroke-width:0.25;"/>
<line x1="406.200000" y1="174.000000" x2="406.200000" y2="174.000000"  style="stroke:black; stroke-linecap:round; stroke-width:0.25;"/>
<line x1="406.200000" y1="190.000000" x2="406.200000" y2="174.000000"  style="stroke:black; stroke-linecap:round; stroke-width:0.25;"/>
<line x1="406.200000" y1="194.000000" x2="408.200000" y2="194.000000"  style="stroke:black; stroke-linecap:round; stroke-width:0.25;"/>
<line x1="408.200000" y1="94.000000" x2="414.200000" y2="94.000000"  style="stroke:black; stroke-linecap:round; stroke-width:0.25;"/>
<line x1="408.200000" y1="194.000000" x2="414.200000" y2="194.000000"  style="stroke:black; stroke-linecap:round; stroke-width:0.25;"/>
<line x1="414.200000" y1="94.000000" x2="424.200000" y2="94.000000"  style="stroke:black; stroke-linecap:round; stroke-width:0.25;"/>
<line x1="414.200000" y1="194.000000" x2="424.200000" y2="194.000000"  style="stroke:black; stroke-linecap:round; stroke-width:0.25;"/>
<line x1="424.200000" y1="74.000000" x2="432.200000" y2="74.000000"  style="stroke:black; stroke-linecap:round; stroke-width:0.25;"/>
<line x1="424.200000" y1="94.000000" x2="424.200000" y2="74.000000"  style="stroke:black; stroke-linecap:round; stroke-width:0.25;"/>
<line x1="424.200000" y1="94.000000" x2="424.200000" y2="94.000000"  style="stroke:black; stroke-linecap:round; stroke-width:0.25;"/>
<line x1="424.200000" y1="174.000000" x2="432.200000" y2="174.000000"  style="stroke:black; stroke-linecap:round; stroke-width:0.25;"/>
<line x1="424.200000" y1="194.000000" x2="424.200000" y2="174.000000"  style="stroke:black; stroke-linecap:round; stroke-width:0.25;"/>
<line x1="424.200000" y1="194.000000" x2="424.200000" y2="194.000000"  style="stroke:black; stroke-linecap:round; stroke-width:0.25;"/>
<line x1="424.200000" y1="24.000000" x2="432.200000" y2="24.000000"  style="stroke:black; stroke-linecap:round; stroke-width:0.25;"/>
<line x1="424.200000" y1="124.000000" x2="432.200000" y2="124.000000"  style="stroke:black; stroke-linecap:round; stroke-width:0.25;"/>
<line x1="432.200000" y1="24.000000" x2="432.200000" y2="66.000000"  style="stroke:black; stroke-linecap:round; stroke-width:0.25;"/>
<line x1="432.200000" y1="66.000000" x2="432.200000" y2="66.000000"  style="stroke:black; stroke-linecap:round; stroke-width:0.25;"/>
<line x1="432.200000" y1="66.000000" x2="436.200000" y2="66.000000"  style="stroke:black; stroke-linecap:round; stroke-width:0.25;"/>
<line x1="432.200000" y1="74.000000" x2="436.200000" y2="74.000000"  style="stroke:black; stroke-linecap:round; stroke-width:0.25;"/>
<line x1="432.200000" y1="124.000000" x2="432.200000" y2="166.000000"  style="stroke:black; stroke-linecap:round; stroke-width:0.25;"/>
<line x1="432.200000" y1="166.000000" x2="432.200000" y2="166.000000"  style="stroke:black; stroke-linecap:round; stroke-width:0.25;"/>
<line x1="432.200000" y1="166.000000" x2="436.200000" y2="166.000000"  style="stroke:black; stroke-linecap:round; stroke-width:0.25;"/>
<line x1="432.200000" y1="174.000000" x2="436.200000" y2="174.000000"  style="stroke:black; stroke-linecap:round; stroke-width:0.25;"/>
<line x1="460.200000" y1="70.000000" x2="464.200000" y2="70.000000"  style="stroke:black; stroke-linecap:round; stroke-width:0.25;"/>
<line x1="460.200000" y1="170.000000" x2="464.200000" y2="170.000000"  style="stroke:black; stroke-linecap:round; stroke-width:0.25;"/>
<line x1="464.200000" y1="70.000000" x2="472.200000" y2="70.000000"  style="stroke:black; stroke-linecap:round; stroke-width:0.25;"/>
<line x1="464.200000" y1="124.000000" x2="472.200000" y2="124.000000"  style="stroke:black; stroke-linecap:round; stroke-width:0.25;"/>
<line x1="464.200000" y1="170.000000" x2="464.200000" y2="124.000000"  style="stroke:black; stroke-linecap:round; stroke-width:0.25;"/>
<line x1="464.200000" y1="170.000000" x2="464.200000" y2="170.000000"  style="stroke:black; stroke-linecap:round; stroke-width:0.25;"/>
<line x1="472.200000" y1="70.000000" x2="472.200000" y2="116.000000"  style="stroke:black; stroke-linecap:round; stroke-width:0.25;"/>
<line x1="472.200000" y1="116.000000" x2="472.200000" y2="116.000000"  style="stroke:black; stroke-linecap:round; stroke-width:0.25;"/>
<line x1="472.200000" y1="116.000000" x2="476.200000" y2="116.000000"  style="stroke:black; stroke-linecap:round; stroke-width:0.25;"/>
<line x1="472.200000" y1="124.000000" x2="476.200000" y2="124.000000"  style="stroke:black; stroke-linecap:round; stroke-width:0.25;"/>
<line x1="476.200000" y1="116.000000" x2="480.200000" y2="116.000000"  style="stroke:black; stroke-linecap:round; stroke-width:0.25;"/>
<line x1="476.200000" y1="124.000000" x2="480.200000" y2="124.000000"  style="stroke:black; stroke-linecap:round; stroke-width:0.25;"/>
<line x1="480.200000" y1="116.000000" x2="490.200000" y2="116.000000"  style="stroke:black; stroke-linecap:round; stroke-width:0.25;"/>
<line x1="480.200000" y1="124.000000" x2="490.200000" y2="124.000000"  style="stroke:black; stroke-linecap:round; stroke-width:0.25;"/>
</svg>
