<?xml version="1.0"?>
<svg xmlns="http://www.w3.org/2000/svg" xmlns:xlink="http://www.w3.org/1999/xlink" viewBox="0 0 501.500000 312.000000" width="250.750000mm" height="156.000000mm" version="1.1">
<a xlink:href="a1d-0x7fd18cf15520.svg">
<rect x="1.000000" y="1.000000" width="500.500000" height="311.000000" rx="0" ry="0" style="stroke:none;fill:#cccccc;"/>
<rect x="0.000000" y="0.000000" width="500.500000" height="311.000000" rx="0" ry="0" style="stroke:none;fill:#ffffff;"/>
</a>
<text x="10.000000" y="7.000000" font-family="Arial" font-size="7"></text>
<rect x="215.750000" y="25.000000" width="24.000000" height="24.000000" rx="0" ry="0" style="stroke:none;fill:#cccccc;"/>
<rect x="214.750000" y="24.000000" width="24.000000" height="24.000000" rx="0" ry="0" style="stroke:none;fill:#f44800;"/>
<text x="226.750000" y="38.000000" font-family="Arial" font-size="7" text-anchor="middle" fill="#FFFFFF">1</text>
<circle cx="216.750000" cy="26.000000" r="1"/>
<rect x="119.750000" y="57.000000" width="24.000000" height="24.000000" rx="0" ry="0" style="stroke:none;fill:#cccccc;"/>
<rect x="118.750000" y="56.000000" width="24.000000" height="24.000000" rx="0" ry="0" style="stroke:none;fill:#f44800;"/>
<text x="130.750000" y="70.000000" font-family="Arial" font-size="7" text-anchor="middle" fill="#FFFFFF">2</text>
<circle cx="120.750000" cy="58.000000" r="1"/>
<rect x="112.400000" y="99.000000" width="38.700000" height="24.000000" rx="0" ry="0" style="stroke:none;fill:#cccccc;"/>
<rect x="111.400000" y="98.000000" width="38.700000" height="24.000000" rx="0" ry="0" style="stroke:none;fill:#f44800;"/>
<text x="130.750000" y="112.000000" font-family="Arial" font-size="7" text-anchor="middle" fill="#FFFFFF">3.14159</text>
<circle cx="113.400000" cy="100.000000" r="1"/>
<line x1="102.400000" y1="89.000000" x2="102.400000" y2="131.000000"  style="stroke: black; stroke-linecap:round; stroke-width:0.25; stroke-dasharray:3,3;"/>
<line x1="102.400000" y1="131.000000" x2="159.100000" y2="131.000000"  style="stroke: black; stroke-linecap:round; stroke-width:0.25; stroke-dasharray:3,3;"/>
<line x1="159.100000" y1="131.000000" x2="159.100000" y2="89.000000"  style="stroke: black; stroke-linecap:round; stroke-width:0.25; stroke-dasharray:3,3;"/>
<line x1="102.400000" y1="89.000000" x2="107.400000" y2="89.000000"  style="stroke: black; stroke-linecap:round; stroke-width:0.25; stroke-dasharray:3,3;"/>
<line x1="120.300000" y1="89.000000" x2="159.100000" y2="89.000000"  style="stroke: black; stroke-linecap:round; stroke-width:0.25; stroke-dasharray:3,3;"/>
<text x="107.400000" y="91.000000" font-family="Arial" font-size="7">PI</text>
<rect x="177.100000" y="83.000000" width="24.000000" height="24.000000" rx="0" ry="0" style="stroke:none;fill:#cccccc;"/>
<rect x="176.100000" y="82.000000" width="24.000000" height="24.000000" rx="0" ry="0" style="stroke:none;fill:#4B71A1;"/>
<text x="188.100000" y="96.000000" font-family="Arial" font-size="7" text-anchor="middle" fill="#FFFFFF">*</text>
<circle cx="178.100000" cy="84.000000" r="1"/>
<line x1="173.100000" y1="89.000000" x2="176.100000" y2="90.000000"  transform="rotate(0.000000,176.100000,90.000000)" style="stroke: black; stroke-width:0.25;"/>
<line x1="173.100000" y1="91.000000" x2="176.100000" y2="90.000000"  transform="rotate(0.000000,176.100000,90.000000)" style="stroke: black; stroke-width:0.25;"/>
<line x1="173.100000" y1="97.000000" x2="176.100000" y2="98.000000"  transform="rotate(0.000000,176.100000,98.000000)" style="stroke: black; stroke-width:0.25;"/>
<line x1="173.100000" y1="99.000000" x2="176.100000" y2="98.000000"  transform="rotate(0.000000,176.100000,98.000000)" style="stroke: black; stroke-width:0.25;"/>
<rect x="55.000000" y="171.000000" width="193.500000" height="24.000000" rx="0" ry="0" style="stroke:none;fill:#cccccc;"/>
<rect x="54.000000" y="170.000000" width="193.500000" height="24.000000" rx="0" ry="0" style="stroke:none;fill:#477881;"/>
<text x="150.750000" y="184.000000" font-family="Arial" font-size="7" text-anchor="middle" fill="#FFFFFF">vslider(LF X, 2e+02f, 5e+01f, 1e+03f, 1.0f)</text>
<circle cx="56.000000" cy="172.000000" r="1"/>
<line x1="45.000000" y1="161.000000" x2="45.000000" y2="203.000000"  style="stroke: black; stroke-linecap:round; stroke-width:0.25; stroke-dasharray:3,3;"/>
<line x1="45.000000" y1="203.000000" x2="256.500000" y2="203.000000"  style="stroke: black; stroke-linecap:round; stroke-width:0.25; stroke-dasharray:3,3;"/>
<line x1="256.500000" y1="203.000000" x2="256.500000" y2="161.000000"  style="stroke: black; stroke-linecap:round; stroke-width:0.25; stroke-dasharray:3,3;"/>
<line x1="45.000000" y1="161.000000" x2="50.000000" y2="161.000000"  style="stroke: black; stroke-linecap:round; stroke-width:0.25; stroke-dasharray:3,3;"/>
<line x1="195.125000" y1="161.000000" x2="256.500000" y2="161.000000"  style="stroke: black; stroke-linecap:round; stroke-width:0.25; stroke-dasharray:3,3;"/>
<text x="50.000000" y="163.000000" font-family="Arial" font-size="7">hgroup(Decay Times in Bands (see tooltips))</text>
<line x1="35.000000" y1="151.000000" x2="35.000000" y2="213.000000"  style="stroke: black; stroke-linecap:round; stroke-width:0.25; stroke-dasharray:3,3;"/>
<line x1="35.000000" y1="213.000000" x2="266.500000" y2="213.000000"  style="stroke: black; stroke-linecap:round; stroke-width:0.25; stroke-dasharray:3,3;"/>
<line x1="266.500000" y1="213.000000" x2="266.500000" y2="151.000000"  style="stroke: black; stroke-linecap:round; stroke-width:0.25; stroke-dasharray:3,3;"/>
<line x1="35.000000" y1="151.000000" x2="40.000000" y2="151.000000"  style="stroke: black; stroke-linecap:round; stroke-width:0.25; stroke-dasharray:3,3;"/>
<line x1="101.275000" y1="151.000000" x2="266.500000" y2="151.000000"  style="stroke: black; stroke-linecap:round; stroke-width:0.25; stroke-dasharray:3,3;"/>
<text x="40.000000" y="153.000000" font-family="Arial" font-size="7">hgroup(Zita_Rev1)</text>
<line x1="25.000000" y1="141.000000" x2="25.000000" y2="223.000000"  style="stroke: black; stroke-linecap:round; stroke-width:0.25; stroke-dasharray:3,3;"/>
<line x1="25.000000" y1="223.000000" x2="276.500000" y2="223.000000"  style="stroke: black; stroke-linecap:round; stroke-width:0.25; stroke-dasharray:3,3;"/>
<line x1="276.500000" y1="223.000000" x2="276.500000" y2="141.000000"  style="stroke: black; stroke-linecap:round; stroke-width:0.25; stroke-dasharray:3,3;"/>
<line x1="25.000000" y1="141.000000" x2="30.000000" y2="141.000000"  style="stroke: black; stroke-linecap:round; stroke-width:0.25; stroke-dasharray:3,3;"/>
<line x1="49.350000" y1="141.000000" x2="276.500000" y2="141.000000"  style="stroke: black; stroke-linecap:round; stroke-width:0.25; stroke-dasharray:3,3;"/>
<text x="30.000000" y="143.000000" font-family="Arial" font-size="7">f(1)</text>
<rect x="294.500000" y="129.000000" width="24.000000" height="24.000000" rx="0" ry="0" style="stroke:none;fill:#cccccc;"/>
<rect x="293.500000" y="128.000000" width="24.000000" height="24.000000" rx="0" ry="0" style="stroke:none;fill:#4B71A1;"/>
<text x="305.500000" y="142.000000" font-family="Arial" font-size="7" text-anchor="middle" fill="#FFFFFF">*</text>
<circle cx="295.500000" cy="130.000000" r="1"/>
<line x1="290.500000" y1="135.000000" x2="293.500000" y2="136.000000"  transform="rotate(0.000000,293.500000,136.000000)" style="stroke: black; stroke-width:0.25;"/>
<line x1="290.500000" y1="137.000000" x2="293.500000" y2="136.000000"  transform="rotate(0.000000,293.500000,136.000000)" style="stroke: black; stroke-width:0.25;"/>
<line x1="290.500000" y1="143.000000" x2="293.500000" y2="144.000000"  transform="rotate(0.000000,293.500000,144.000000)" style="stroke: black; stroke-width:0.25;"/>
<line x1="290.500000" y1="145.000000" x2="293.500000" y2="144.000000"  transform="rotate(0.000000,293.500000,144.000000)" style="stroke: black; stroke-width:0.25;"/>
<rect x="159.750000" y="233.000000" width="24.000000" height="24.000000" rx="0" ry="0" style="stroke:none;fill:#cccccc;"/>
<rect x="158.750000" y="232.000000" width="24.000000" height="24.000000" rx="0" ry="0" style="stroke:none;fill:#f44800;"/>
<text x="170.750000" y="246.000000" font-family="Arial" font-size="7" text-anchor="middle" fill="#FFFFFF">0.5</text>
<circle cx="160.750000" cy="234.000000" r="1"/>
<rect x="334.500000" y="145.000000" width="24.000000" height="24.000000" rx="0" ry="0" style="stroke:none;fill:#cccccc;"/>
<rect x="333.500000" y="144.000000" width="24.000000" height="24.000000" rx="0" ry="0" style="stroke:none;fill:#4B71A1;"/>
<text x="345.500000" y="158.000000" font-family="Arial" font-size="7" text-anchor="middle" fill="#FFFFFF">*</text>
<circle cx="335.500000" cy="146.000000" r="1"/>
<line x1="330.500000" y1="151.000000" x2="333.500000" y2="152.000000"  transform="rotate(0.000000,333.500000,152.000000)" style="stroke: black; stroke-width:0.25;"/>
<line x1="330.500000" y1="153.000000" x2="333.500000" y2="152.000000"  transform="rotate(0.000000,333.500000,152.000000)" style="stroke: black; stroke-width:0.25;"/>
<line x1="330.500000" y1="159.000000" x2="333.500000" y2="160.000000"  transform="rotate(0.000000,333.500000,160.000000)" style="stroke: black; stroke-width:0.25;"/>
<line x1="330.500000" y1="161.000000" x2="333.500000" y2="160.000000"  transform="rotate(0.000000,333.500000,160.000000)" style="stroke: black; stroke-width:0.25;"/>
<a xlink:href="samplingfreq-0x7fd18c1d0a00.svg">
<rect x="165.950000" y="265.000000" width="51.600000" height="24.000000" rx="0" ry="0" style="stroke:none;fill:#cccccc;"/>
<rect x="164.950000" y="264.000000" width="51.600000" height="24.000000" rx="0" ry="0" style="stroke:none;fill:#003366;"/>
</a>
<a xlink:href="samplingfreq-0x7fd18c1d0a00.svg">
<text x="190.750000" y="278.000000" font-family="Arial" font-size="7" text-anchor="middle" fill="#FFFFFF">samplingfreq</text>
</a>
<circle cx="166.950000" cy="266.000000" r="1"/>
<rect x="374.500000" y="161.000000" width="24.000000" height="24.000000" rx="0" ry="0" style="stroke:none;fill:#cccccc;"/>
<rect x="373.500000" y="160.000000" width="24.000000" height="24.000000" rx="0" ry="0" style="stroke:none;fill:#4B71A1;"/>
<text x="385.500000" y="174.000000" font-family="Arial" font-size="7" text-anchor="middle" fill="#FFFFFF">/</text>
<circle cx="375.500000" cy="162.000000" r="1"/>
<line x1="370.500000" y1="167.000000" x2="373.500000" y2="168.000000"  transform="rotate(0.000000,373.500000,168.000000)" style="stroke: black; stroke-width:0.25;"/>
<line x1="370.500000" y1="169.000000" x2="373.500000" y2="168.000000"  transform="rotate(0.000000,373.500000,168.000000)" style="stroke: black; stroke-width:0.25;"/>
<line x1="370.500000" y1="175.000000" x2="373.500000" y2="176.000000"  transform="rotate(0.000000,373.500000,176.000000)" style="stroke: black; stroke-width:0.25;"/>
<line x1="370.500000" y1="177.000000" x2="373.500000" y2="176.000000"  transform="rotate(0.000000,373.500000,176.000000)" style="stroke: black; stroke-width:0.25;"/>
<rect x="406.500000" y="161.000000" width="24.000000" height="24.000000" rx="0" ry="0" style="stroke:none;fill:#cccccc;"/>
<rect x="405.500000" y="160.000000" width="24.000000" height="24.000000" rx="0" ry="0" style="stroke:none;fill:#4B71A1;"/>
<text x="417.500000" y="174.000000" font-family="Arial" font-size="7" text-anchor="middle" fill="#FFFFFF">tan</text>
<circle cx="407.500000" cy="162.000000" r="1"/>
<line x1="402.500000" y1="171.000000" x2="405.500000" y2="172.000000"  transform="rotate(0.000000,405.500000,172.000000)" style="stroke: black; stroke-width:0.25;"/>
<line x1="402.500000" y1="173.000000" x2="405.500000" y2="172.000000"  transform="rotate(0.000000,405.500000,172.000000)" style="stroke: black; stroke-width:0.25;"/>
<rect x="446.500000" y="145.000000" width="24.000000" height="24.000000" rx="0" ry="0" style="stroke:none;fill:#cccccc;"/>
<rect x="445.500000" y="144.000000" width="24.000000" height="24.000000" rx="0" ry="0" style="stroke:none;fill:#4B71A1;"/>
<text x="457.500000" y="158.000000" font-family="Arial" font-size="7" text-anchor="middle" fill="#FFFFFF">/</text>
<circle cx="447.500000" cy="146.000000" r="1"/>
<line x1="442.500000" y1="151.000000" x2="445.500000" y2="152.000000"  transform="rotate(0.000000,445.500000,152.000000)" style="stroke: black; stroke-width:0.25;"/>
<line x1="442.500000" y1="153.000000" x2="445.500000" y2="152.000000"  transform="rotate(0.000000,445.500000,152.000000)" style="stroke: black; stroke-width:0.25;"/>
<line x1="442.500000" y1="159.000000" x2="445.500000" y2="160.000000"  transform="rotate(0.000000,445.500000,160.000000)" style="stroke: black; stroke-width:0.25;"/>
<line x1="442.500000" y1="161.000000" x2="445.500000" y2="160.000000"  transform="rotate(0.000000,445.500000,160.000000)" style="stroke: black; stroke-width:0.25;"/>
<line x1="15.000000" y1="15.000000" x2="15.000000" y2="297.000000"  style="stroke: black; stroke-linecap:round; stroke-width:0.25; stroke-dasharray:3,3;"/>
<line x1="15.000000" y1="297.000000" x2="486.500000" y2="297.000000"  style="stroke: black; stroke-linecap:round; stroke-width:0.25; stroke-dasharray:3,3;"/>
<line x1="486.500000" y1="297.000000" x2="486.500000" y2="15.000000"  style="stroke: black; stroke-linecap:round; stroke-width:0.25; stroke-dasharray:3,3;"/>
<line x1="15.000000" y1="15.000000" x2="20.000000" y2="15.000000"  style="stroke: black; stroke-linecap:round; stroke-width:0.25; stroke-dasharray:3,3;"/>
<line x1="29.675000" y1="15.000000" x2="486.500000" y2="15.000000"  style="stroke: black; stroke-linecap:round; stroke-width:0.25; stroke-dasharray:3,3;"/>
<text x="20.000000" y="17.000000" font-family="Arial" font-size="7">c</text>
<line x1="488.500000" y1="155.000000" x2="491.500000" y2="156.000000"  transform="rotate(0.000000,491.500000,156.000000)" style="stroke: black; stroke-width:0.25;"/>
<line x1="488.500000" y1="157.000000" x2="491.500000" y2="156.000000"  transform="rotate(0.000000,491.500000,156.000000)" style="stroke: black; stroke-width:0.25;"/>
<line x1="142.750000" y1="68.000000" x2="146.750000" y2="68.000000"  style="stroke:black; stroke-linecap:round; stroke-width:0.25;"/>
<line x1="146.750000" y1="68.000000" x2="164.100000" y2="68.000000"  style="stroke:black; stroke-linecap:round; stroke-width:0.25;"/>
<line x1="150.100000" y1="110.000000" x2="154.100000" y2="110.000000"  style="stroke:black; stroke-linecap:round; stroke-width:0.25;"/>
<line x1="154.100000" y1="110.000000" x2="164.100000" y2="110.000000"  style="stroke:black; stroke-linecap:round; stroke-width:0.25;"/>
<line x1="164.100000" y1="68.000000" x2="172.100000" y2="68.000000"  style="stroke:black; stroke-linecap:round; stroke-width:0.25;"/>
<line x1="164.100000" y1="98.000000" x2="172.100000" y2="98.000000"  style="stroke:black; stroke-linecap:round; stroke-width:0.25;"/>
<line x1="164.100000" y1="110.000000" x2="164.100000" y2="98.000000"  style="stroke:black; stroke-linecap:round; stroke-width:0.25;"/>
<line x1="164.100000" y1="110.000000" x2="164.100000" y2="110.000000"  style="stroke:black; stroke-linecap:round; stroke-width:0.25;"/>
<line x1="172.100000" y1="68.000000" x2="172.100000" y2="90.000000"  style="stroke:black; stroke-linecap:round; stroke-width:0.25;"/>
<line x1="172.100000" y1="90.000000" x2="172.100000" y2="90.000000"  style="stroke:black; stroke-linecap:round; stroke-width:0.25;"/>
<line x1="172.100000" y1="90.000000" x2="176.100000" y2="90.000000"  style="stroke:black; stroke-linecap:round; stroke-width:0.25;"/>
<line x1="172.100000" y1="98.000000" x2="176.100000" y2="98.000000"  style="stroke:black; stroke-linecap:round; stroke-width:0.25;"/>
<line x1="182.750000" y1="244.000000" x2="186.750000" y2="244.000000"  style="stroke:black; stroke-linecap:round; stroke-width:0.25;"/>
<line x1="186.750000" y1="244.000000" x2="321.500000" y2="244.000000"  style="stroke:black; stroke-linecap:round; stroke-width:0.25;"/>
<line x1="200.100000" y1="94.000000" x2="204.100000" y2="94.000000"  style="stroke:black; stroke-linecap:round; stroke-width:0.25;"/>
<line x1="204.100000" y1="94.000000" x2="281.500000" y2="94.000000"  style="stroke:black; stroke-linecap:round; stroke-width:0.25;"/>
<line x1="216.550000" y1="276.000000" x2="220.550000" y2="276.000000"  style="stroke:black; stroke-linecap:round; stroke-width:0.25;"/>
<line x1="220.550000" y1="276.000000" x2="361.500000" y2="276.000000"  style="stroke:black; stroke-linecap:round; stroke-width:0.25;"/>
<line x1="238.750000" y1="36.000000" x2="242.750000" y2="36.000000"  style="stroke:black; stroke-linecap:round; stroke-width:0.25;"/>
<line x1="242.750000" y1="36.000000" x2="433.500000" y2="36.000000"  style="stroke:black; stroke-linecap:round; stroke-width:0.25;"/>
<line x1="247.500000" y1="182.000000" x2="251.500000" y2="182.000000"  style="stroke:black; stroke-linecap:round; stroke-width:0.25;"/>
<line x1="251.500000" y1="182.000000" x2="261.500000" y2="182.000000"  style="stroke:black; stroke-linecap:round; stroke-width:0.25;"/>
<line x1="261.500000" y1="182.000000" x2="271.500000" y2="182.000000"  style="stroke:black; stroke-linecap:round; stroke-width:0.25;"/>
<line x1="271.500000" y1="182.000000" x2="281.500000" y2="182.000000"  style="stroke:black; stroke-linecap:round; stroke-width:0.25;"/>
<line x1="281.500000" y1="94.000000" x2="289.500000" y2="94.000000"  style="stroke:black; stroke-linecap:round; stroke-width:0.25;"/>
<line x1="281.500000" y1="144.000000" x2="289.500000" y2="144.000000"  style="stroke:black; stroke-linecap:round; stroke-width:0.25;"/>
<line x1="281.500000" y1="182.000000" x2="281.500000" y2="144.000000"  style="stroke:black; stroke-linecap:round; stroke-width:0.25;"/>
<line x1="281.500000" y1="182.000000" x2="281.500000" y2="182.000000"  style="stroke:black; stroke-linecap:round; stroke-width:0.25;"/>
<line x1="289.500000" y1="94.000000" x2="289.500000" y2="136.000000"  style="stroke:black; stroke-linecap:round; stroke-width:0.25;"/>
<line x1="289.500000" y1="136.000000" x2="289.500000" y2="136.000000"  style="stroke:black; stroke-linecap:round; stroke-width:0.25;"/>
<line x1="289.500000" y1="136.000000" x2="293.500000" y2="136.000000"  style="stroke:black; stroke-linecap:round; stroke-width:0.25;"/>
<line x1="289.500000" y1="144.000000" x2="293.500000" y2="144.000000"  style="stroke:black; stroke-linecap:round; stroke-width:0.25;"/>
<line x1="317.500000" y1="140.000000" x2="321.500000" y2="140.000000"  style="stroke:black; stroke-linecap:round; stroke-width:0.25;"/>
<line x1="321.500000" y1="140.000000" x2="329.500000" y2="140.000000"  style="stroke:black; stroke-linecap:round; stroke-width:0.25;"/>
<line x1="321.500000" y1="160.000000" x2="329.500000" y2="160.000000"  style="stroke:black; stroke-linecap:round; stroke-width:0.25;"/>
<line x1="321.500000" y1="244.000000" x2="321.500000" y2="160.000000"  style="stroke:black; stroke-linecap:round; stroke-width:0.25;"/>
<line x1="321.500000" y1="244.000000" x2="321.500000" y2="244.000000"  style="stroke:black; stroke-linecap:round; stroke-width:0.25;"/>
<line x1="329.500000" y1="140.000000" x2="329.500000" y2="152.000000"  style="stroke:black; stroke-linecap:round; stroke-width:0.25;"/>
<line x1="329.500000" y1="152.000000" x2="329.500000" y2="152.000000"  style="stroke:black; stroke-linecap:round; stroke-width:0.25;"/>
<line x1="329.500000" y1="152.000000" x2="333.500000" y2="152.000000"  style="stroke:black; stroke-linecap:round; stroke-width:0.25;"/>
<line x1="329.500000" y1="160.000000" x2="333.500000" y2="160.000000"  style="stroke:black; stroke-linecap:round; stroke-width:0.25;"/>
<line x1="357.500000" y1="156.000000" x2="361.500000" y2="156.000000"  style="stroke:black; stroke-linecap:round; stroke-width:0.25;"/>
<line x1="361.500000" y1="156.000000" x2="369.500000" y2="156.000000"  style="stroke:black; stroke-linecap:round; stroke-width:0.25;"/>
<line x1="361.500000" y1="176.000000" x2="369.500000" y2="176.000000"  style="stroke:black; stroke-linecap:round; stroke-width:0.25;"/>
<line x1="361.500000" y1="276.000000" x2="361.500000" y2="176.000000"  style="stroke:black; stroke-linecap:round; stroke-width:0.25;"/>
<line x1="361.500000" y1="276.000000" x2="361.500000" y2="276.000000"  style="stroke:black; stroke-linecap:round; stroke-width:0.25;"/>
<line x1="369.500000" y1="156.000000" x2="369.500000" y2="168.000000"  style="stroke:black; stroke-linecap:round; stroke-width:0.25;"/>
<line x1="369.500000" y1="168.000000" x2="369.500000" y2="168.000000"  style="stroke:black; stroke-linecap:round; stroke-width:0.25;"/>
<line x1="369.500000" y1="168.000000" x2="373.500000" y2="168.000000"  style="stroke:black; stroke-linecap:round; stroke-width:0.25;"/>
<line x1="369.500000" y1="176.000000" x2="373.500000" y2="176.000000"  style="stroke:black; stroke-linecap:round; stroke-width:0.25;"/>
<line x1="397.500000" y1="172.000000" x2="401.500000" y2="172.000000"  style="stroke:black; stroke-linecap:round; stroke-width:0.25;"/>
<line x1="401.500000" y1="172.000000" x2="401.500000" y2="172.000000"  style="stroke:black; stroke-linecap:round; stroke-width:0.25;"/>
<line x1="401.500000" y1="172.000000" x2="405.500000" y2="172.000000"  style="stroke:black; stroke-linecap:round; stroke-width:0.25;"/>
<line x1="429.500000" y1="172.000000" x2="433.500000" y2="172.000000"  style="stroke:black; stroke-linecap:round; stroke-width:0.25;"/>
<line x1="433.500000" y1="36.000000" x2="441.500000" y2="36.000000"  style="stroke:black; stroke-linecap:round; stroke-width:0.25;"/>
<line x1="433.500000" y1="160.000000" x2="441.500000" y2="160.000000"  style="stroke:black; stroke-linecap:round; stroke-width:0.25;"/>
<line x1="433.500000" y1="172.000000" x2="433.500000" y2="160.000000"  style="stroke:black; stroke-linecap:round; stroke-width:0.25;"/>
<line x1="433.500000" y1="172.000000" x2="433.500000" y2="172.000000"  style="stroke:black; stroke-linecap:round; stroke-width:0.25;"/>
<line x1="441.500000" y1="36.000000" x2="441.500000" y2="152.000000"  style="stroke:black; stroke-linecap:round; stroke-width:0.25;"/>
<line x1="441.500000" y1="152.000000" x2="441.500000" y2="152.000000"  style="stroke:black; stroke-linecap:round; stroke-width:0.25;"/>
<line x1="441.500000" y1="152.000000" x2="445.500000" y2="152.000000"  style="stroke:black; stroke-linecap:round; stroke-width:0.25;"/>
<line x1="441.500000" y1="160.000000" x2="445.500000" y2="160.000000"  style="stroke:black; stroke-linecap:round; stroke-width:0.25;"/>
<line x1="469.500000" y1="156.000000" x2="473.500000" y2="156.000000"  style="stroke:black; stroke-linecap:round; stroke-width:0.25;"/>
<line x1="473.500000" y1="156.000000" x2="473.500000" y2="156.000000"  style="stroke:black; stroke-linecap:round; stroke-width:0.25;"/>
<line x1="473.500000" y1="156.000000" x2="477.500000" y2="156.000000"  style="stroke:black; stroke-linecap:round; stroke-width:0.25;"/>
<line x1="477.500000" y1="156.000000" x2="481.500000" y2="156.000000"  style="stroke:black; stroke-linecap:round; stroke-width:0.25;"/>
<line x1="481.500000" y1="156.000000" x2="491.500000" y2="156.000000"  style="stroke:black; stroke-linecap:round; stroke-width:0.25;"/>
</svg>
