<?xml version="1.0"?>
<svg xmlns="http://www.w3.org/2000/svg" xmlns:xlink="http://www.w3.org/1999/xlink" viewBox="0 0 399.800000 104.000000" width="199.900000mm" height="52.000000mm" version="1.1">
<a xlink:href="mainOsc-0x7fd18c92fc10.svg">
<rect x="1.000000" y="1.000000" width="398.800000" height="103.000000" rx="0" ry="0" style="stroke:none;fill:#cccccc;"/>
<rect x="0.000000" y="0.000000" width="398.800000" height="103.000000" rx="0" ry="0" style="stroke:none;fill:#ffffff;"/>
</a>
<text x="10.000000" y="7.000000" font-family="Arial" font-size="7"></text>
<rect x="35.000000" y="41.000000" width="77.400000" height="24.000000" rx="0" ry="0" style="stroke:none;fill:#cccccc;"/>
<rect x="34.000000" y="40.000000" width="77.400000" height="24.000000" rx="0" ry="0" style="stroke:none;fill:#477881;"/>
<text x="72.700000" y="54.000000" font-family="Arial" font-size="7" text-anchor="middle" fill="#FFFFFF">button(noteTrig)</text>
<circle cx="36.000000" cy="42.000000" r="1"/>
<line x1="25.000000" y1="31.000000" x2="25.000000" y2="73.000000"  style="stroke: black; stroke-linecap:round; stroke-width:0.25; stroke-dasharray:3,3;"/>
<line x1="25.000000" y1="73.000000" x2="120.400000" y2="73.000000"  style="stroke: black; stroke-linecap:round; stroke-width:0.25; stroke-dasharray:3,3;"/>
<line x1="120.400000" y1="73.000000" x2="120.400000" y2="31.000000"  style="stroke: black; stroke-linecap:round; stroke-width:0.25; stroke-dasharray:3,3;"/>
<line x1="25.000000" y1="31.000000" x2="30.000000" y2="31.000000"  style="stroke: black; stroke-linecap:round; stroke-width:0.25; stroke-dasharray:3,3;"/>
<line x1="62.250000" y1="31.000000" x2="120.400000" y2="31.000000"  style="stroke: black; stroke-linecap:round; stroke-width:0.25; stroke-dasharray:3,3;"/>
<text x="30.000000" y="33.000000" font-family="Arial" font-size="7">noteTrig</text>
<a xlink:href="mstosamps-0x7fd18a74d080.svg">
<rect x="138.400000" y="25.000000" width="129.000000" height="24.000000" rx="0" ry="0" style="stroke:none;fill:#cccccc;"/>
<rect x="137.400000" y="24.000000" width="129.000000" height="24.000000" rx="0" ry="0" style="stroke:none;fill:#003366;"/>
</a>
<a xlink:href="mstosamps-0x7fd18a74d080.svg">
<text x="201.900000" y="38.000000" font-family="Arial" font-size="7" text-anchor="middle" fill="#FFFFFF">mstosamps(_,(...,1 : - : abs)</text>
</a>
<circle cx="139.400000" cy="26.000000" r="1"/>
<line x1="134.400000" y1="35.000000" x2="137.400000" y2="36.000000"  transform="rotate(0.000000,137.400000,36.000000)" style="stroke: black; stroke-width:0.25;"/>
<line x1="134.400000" y1="37.000000" x2="137.400000" y2="36.000000"  transform="rotate(0.000000,137.400000,36.000000)" style="stroke: black; stroke-width:0.25;"/>
<a xlink:href="harm-0x7fd18c1d51a0.svg">
<rect x="170.650000" y="57.000000" width="64.500000" height="24.000000" rx="0" ry="0" style="stroke:none;fill:#cccccc;"/>
<rect x="169.650000" y="56.000000" width="64.500000" height="24.000000" rx="0" ry="0" style="stroke:none;fill:#003366;"/>
</a>
<a xlink:href="harm-0x7fd18c1d51a0.svg">
<text x="201.900000" y="70.000000" font-family="Arial" font-size="7" text-anchor="middle" fill="#FFFFFF">harm_xp(1700)</text>
</a>
<circle cx="171.650000" cy="58.000000" r="1"/>
<a xlink:href="hitLength-0x7fd18a752dc0.svg">
<rect x="283.400000" y="41.000000" width="38.700000" height="24.000000" rx="0" ry="0" style="stroke:none;fill:#cccccc;"/>
<rect x="282.400000" y="40.000000" width="38.700000" height="24.000000" rx="0" ry="0" style="stroke:none;fill:#003366;"/>
</a>
<a xlink:href="hitLength-0x7fd18a752dc0.svg">
<text x="301.750000" y="54.000000" font-family="Arial" font-size="7" text-anchor="middle" fill="#FFFFFF">hitLength</text>
</a>
<circle cx="284.400000" cy="42.000000" r="1"/>
<line x1="279.400000" y1="47.000000" x2="282.400000" y2="48.000000"  transform="rotate(0.000000,282.400000,48.000000)" style="stroke: black; stroke-width:0.25;"/>
<line x1="279.400000" y1="49.000000" x2="282.400000" y2="48.000000"  transform="rotate(0.000000,282.400000,48.000000)" style="stroke: black; stroke-width:0.25;"/>
<line x1="279.400000" y1="55.000000" x2="282.400000" y2="56.000000"  transform="rotate(0.000000,282.400000,56.000000)" style="stroke: black; stroke-width:0.25;"/>
<line x1="279.400000" y1="57.000000" x2="282.400000" y2="56.000000"  transform="rotate(0.000000,282.400000,56.000000)" style="stroke: black; stroke-width:0.25;"/>
<a xlink:href="harmEnv-0x7fd18c0d3750.svg">
<rect x="330.100000" y="41.000000" width="38.700000" height="24.000000" rx="0" ry="0" style="stroke:none;fill:#cccccc;"/>
<rect x="329.100000" y="40.000000" width="38.700000" height="24.000000" rx="0" ry="0" style="stroke:none;fill:#003366;"/>
</a>
<a xlink:href="harmEnv-0x7fd18c0d3750.svg">
<text x="348.450000" y="54.000000" font-family="Arial" font-size="7" text-anchor="middle" fill="#FFFFFF">harmEnv</text>
</a>
<circle cx="331.100000" cy="42.000000" r="1"/>
<line x1="326.100000" y1="51.000000" x2="329.100000" y2="52.000000"  transform="rotate(0.000000,329.100000,52.000000)" style="stroke: black; stroke-width:0.25;"/>
<line x1="326.100000" y1="53.000000" x2="329.100000" y2="52.000000"  transform="rotate(0.000000,329.100000,52.000000)" style="stroke: black; stroke-width:0.25;"/>
<line x1="15.000000" y1="15.000000" x2="15.000000" y2="89.000000"  style="stroke: black; stroke-linecap:round; stroke-width:0.25; stroke-dasharray:3,3;"/>
<line x1="15.000000" y1="89.000000" x2="384.800000" y2="89.000000"  style="stroke: black; stroke-linecap:round; stroke-width:0.25; stroke-dasharray:3,3;"/>
<line x1="384.800000" y1="89.000000" x2="384.800000" y2="15.000000"  style="stroke: black; stroke-linecap:round; stroke-width:0.25; stroke-dasharray:3,3;"/>
<line x1="15.000000" y1="15.000000" x2="20.000000" y2="15.000000"  style="stroke: black; stroke-linecap:round; stroke-width:0.25; stroke-dasharray:3,3;"/>
<line x1="119.975000" y1="15.000000" x2="384.800000" y2="15.000000"  style="stroke: black; stroke-linecap:round; stroke-width:0.25; stroke-dasharray:3,3;"/>
<text x="20.000000" y="17.000000" font-family="Arial" font-size="7">envWrapper(bu...000 : /) : *)</text>
<line x1="386.800000" y1="51.000000" x2="389.800000" y2="52.000000"  transform="rotate(0.000000,389.800000,52.000000)" style="stroke: black; stroke-width:0.25;"/>
<line x1="386.800000" y1="53.000000" x2="389.800000" y2="52.000000"  transform="rotate(0.000000,389.800000,52.000000)" style="stroke: black; stroke-width:0.25;"/>
<line x1="111.400000" y1="52.000000" x2="115.400000" y2="52.000000"  style="stroke:black; stroke-linecap:round; stroke-width:0.25;"/>
<line x1="115.400000" y1="52.000000" x2="125.400000" y2="52.000000"  style="stroke:black; stroke-linecap:round; stroke-width:0.25;"/>
<line x1="125.400000" y1="36.000000" x2="133.400000" y2="36.000000"  style="stroke:black; stroke-linecap:round; stroke-width:0.25;"/>
<line x1="125.400000" y1="52.000000" x2="125.400000" y2="36.000000"  style="stroke:black; stroke-linecap:round; stroke-width:0.25;"/>
<line x1="125.400000" y1="52.000000" x2="125.400000" y2="52.000000"  style="stroke:black; stroke-linecap:round; stroke-width:0.25;"/>
<line x1="133.400000" y1="36.000000" x2="137.400000" y2="36.000000"  style="stroke:black; stroke-linecap:round; stroke-width:0.25;"/>
<line x1="234.150000" y1="68.000000" x2="238.150000" y2="68.000000"  style="stroke:black; stroke-linecap:round; stroke-width:0.25;"/>
<line x1="238.150000" y1="68.000000" x2="270.400000" y2="68.000000"  style="stroke:black; stroke-linecap:round; stroke-width:0.25;"/>
<line x1="266.400000" y1="36.000000" x2="270.400000" y2="36.000000"  style="stroke:black; stroke-linecap:round; stroke-width:0.25;"/>
<line x1="270.400000" y1="36.000000" x2="278.400000" y2="36.000000"  style="stroke:black; stroke-linecap:round; stroke-width:0.25;"/>
<line x1="270.400000" y1="56.000000" x2="278.400000" y2="56.000000"  style="stroke:black; stroke-linecap:round; stroke-width:0.25;"/>
<line x1="270.400000" y1="68.000000" x2="270.400000" y2="56.000000"  style="stroke:black; stroke-linecap:round; stroke-width:0.25;"/>
<line x1="270.400000" y1="68.000000" x2="270.400000" y2="68.000000"  style="stroke:black; stroke-linecap:round; stroke-width:0.25;"/>
<line x1="278.400000" y1="36.000000" x2="278.400000" y2="48.000000"  style="stroke:black; stroke-linecap:round; stroke-width:0.25;"/>
<line x1="278.400000" y1="48.000000" x2="278.400000" y2="48.000000"  style="stroke:black; stroke-linecap:round; stroke-width:0.25;"/>
<line x1="278.400000" y1="48.000000" x2="282.400000" y2="48.000000"  style="stroke:black; stroke-linecap:round; stroke-width:0.25;"/>
<line x1="278.400000" y1="56.000000" x2="282.400000" y2="56.000000"  style="stroke:black; stroke-linecap:round; stroke-width:0.25;"/>
<line x1="321.100000" y1="52.000000" x2="325.100000" y2="52.000000"  style="stroke:black; stroke-linecap:round; stroke-width:0.25;"/>
<line x1="325.100000" y1="52.000000" x2="325.100000" y2="52.000000"  style="stroke:black; stroke-linecap:round; stroke-width:0.25;"/>
<line x1="325.100000" y1="52.000000" x2="329.100000" y2="52.000000"  style="stroke:black; stroke-linecap:round; stroke-width:0.25;"/>
<line x1="367.800000" y1="52.000000" x2="371.800000" y2="52.000000"  style="stroke:black; stroke-linecap:round; stroke-width:0.25;"/>
<line x1="371.800000" y1="52.000000" x2="371.800000" y2="52.000000"  style="stroke:black; stroke-linecap:round; stroke-width:0.25;"/>
<line x1="371.800000" y1="52.000000" x2="375.800000" y2="52.000000"  style="stroke:black; stroke-linecap:round; stroke-width:0.25;"/>
<line x1="375.800000" y1="52.000000" x2="379.800000" y2="52.000000"  style="stroke:black; stroke-linecap:round; stroke-width:0.25;"/>
<line x1="379.800000" y1="52.000000" x2="389.800000" y2="52.000000"  style="stroke:black; stroke-linecap:round; stroke-width:0.25;"/>
</svg>
