<?xml version="1.0"?>
<svg xmlns="http://www.w3.org/2000/svg" xmlns:xlink="http://www.w3.org/1999/xlink" viewBox="0 0 316.100000 360.000000" width="158.050000mm" height="180.000000mm" version="1.1">
<a xlink:href="if-0x7fd18c3f77f0.svg">
<rect x="1.000000" y="1.000000" width="315.100000" height="359.000000" rx="0" ry="0" style="stroke:none;fill:#cccccc;"/>
<rect x="0.000000" y="0.000000" width="315.100000" height="359.000000" rx="0" ry="0" style="stroke:none;fill:#ffffff;"/>
</a>
<text x="10.000000" y="7.000000" font-family="Arial" font-size="7"></text>
<rect x="91.700000" y="25.000000" width="24.000000" height="24.000000" rx="0" ry="0" style="stroke:none;fill:#cccccc;"/>
<rect x="90.700000" y="24.000000" width="24.000000" height="24.000000" rx="0" ry="0" style="stroke:none;fill:#47945E;"/>
<text x="102.700000" y="38.000000" font-family="Arial" font-size="7" text-anchor="middle" fill="#FFFFFF">x</text>
<circle cx="92.700000" cy="26.000000" r="1"/>
<a xlink:href="freq-0x7fd18c42f790.svg">
<rect x="65.000000" y="57.000000" width="77.400000" height="24.000000" rx="0" ry="0" style="stroke:none;fill:#cccccc;"/>
<rect x="64.000000" y="56.000000" width="77.400000" height="24.000000" rx="0" ry="0" style="stroke:none;fill:#003366;"/>
</a>
<a xlink:href="freq-0x7fd18c42f790.svg">
<text x="102.700000" y="70.000000" font-family="Arial" font-size="7" text-anchor="middle" fill="#FFFFFF">freq_xp(318.233f)</text>
</a>
<circle cx="66.000000" cy="58.000000" r="1"/>
<rect x="158.400000" y="41.000000" width="24.000000" height="24.000000" rx="0" ry="0" style="stroke:none;fill:#cccccc;"/>
<rect x="157.400000" y="40.000000" width="24.000000" height="24.000000" rx="0" ry="0" style="stroke:none;fill:#4B71A1;"/>
<text x="169.400000" y="54.000000" font-family="Arial" font-size="7" text-anchor="middle" fill="#FFFFFF">&lt;</text>
<circle cx="159.400000" cy="42.000000" r="1"/>
<line x1="154.400000" y1="47.000000" x2="157.400000" y2="48.000000"  transform="rotate(0.000000,157.400000,48.000000)" style="stroke: black; stroke-width:0.25;"/>
<line x1="154.400000" y1="49.000000" x2="157.400000" y2="48.000000"  transform="rotate(0.000000,157.400000,48.000000)" style="stroke: black; stroke-width:0.25;"/>
<line x1="154.400000" y1="55.000000" x2="157.400000" y2="56.000000"  transform="rotate(0.000000,157.400000,56.000000)" style="stroke: black; stroke-width:0.25;"/>
<line x1="154.400000" y1="57.000000" x2="157.400000" y2="56.000000"  transform="rotate(0.000000,157.400000,56.000000)" style="stroke: black; stroke-width:0.25;"/>
<a xlink:href="yp-0x7fd18c42e130.svg">
<rect x="111.700000" y="89.000000" width="24.000000" height="24.000000" rx="0" ry="0" style="stroke:none;fill:#cccccc;"/>
<rect x="110.700000" y="88.000000" width="24.000000" height="24.000000" rx="0" ry="0" style="stroke:none;fill:#003366;"/>
</a>
<a xlink:href="yp-0x7fd18c42e130.svg">
<text x="122.700000" y="102.000000" font-family="Arial" font-size="7" text-anchor="middle" fill="#FFFFFF">yp</text>
</a>
<circle cx="112.700000" cy="90.000000" r="1"/>
<rect x="91.700000" y="121.000000" width="24.000000" height="24.000000" rx="0" ry="0" style="stroke:none;fill:#cccccc;"/>
<rect x="90.700000" y="120.000000" width="24.000000" height="24.000000" rx="0" ry="0" style="stroke:none;fill:#47945E;"/>
<text x="102.700000" y="134.000000" font-family="Arial" font-size="7" text-anchor="middle" fill="#FFFFFF">y0</text>
<circle cx="92.700000" cy="122.000000" r="1"/>
<rect x="31.700000" y="153.000000" width="24.000000" height="24.000000" rx="0" ry="0" style="stroke:none;fill:#cccccc;"/>
<rect x="30.700000" y="152.000000" width="24.000000" height="24.000000" rx="0" ry="0" style="stroke:none;fill:#47945E;"/>
<text x="42.700000" y="166.000000" font-family="Arial" font-size="7" text-anchor="middle" fill="#FFFFFF">x</text>
<circle cx="32.700000" cy="154.000000" r="1"/>
<rect x="31.700000" y="185.000000" width="24.000000" height="24.000000" rx="0" ry="0" style="stroke:none;fill:#cccccc;"/>
<rect x="30.700000" y="184.000000" width="24.000000" height="24.000000" rx="0" ry="0" style="stroke:none;fill:#47945E;"/>
<text x="42.700000" y="198.000000" font-family="Arial" font-size="7" text-anchor="middle" fill="#FFFFFF">x0</text>
<circle cx="32.700000" cy="186.000000" r="1"/>
<rect x="71.700000" y="169.000000" width="24.000000" height="24.000000" rx="0" ry="0" style="stroke:none;fill:#cccccc;"/>
<rect x="70.700000" y="168.000000" width="24.000000" height="24.000000" rx="0" ry="0" style="stroke:none;fill:#4B71A1;"/>
<text x="82.700000" y="182.000000" font-family="Arial" font-size="7" text-anchor="middle" fill="#FFFFFF">-</text>
<circle cx="72.700000" cy="170.000000" r="1"/>
<line x1="67.700000" y1="175.000000" x2="70.700000" y2="176.000000"  transform="rotate(0.000000,70.700000,176.000000)" style="stroke: black; stroke-width:0.25;"/>
<line x1="67.700000" y1="177.000000" x2="70.700000" y2="176.000000"  transform="rotate(0.000000,70.700000,176.000000)" style="stroke: black; stroke-width:0.25;"/>
<line x1="67.700000" y1="183.000000" x2="70.700000" y2="184.000000"  transform="rotate(0.000000,70.700000,184.000000)" style="stroke: black; stroke-width:0.25;"/>
<line x1="67.700000" y1="185.000000" x2="70.700000" y2="184.000000"  transform="rotate(0.000000,70.700000,184.000000)" style="stroke: black; stroke-width:0.25;"/>
<a xlink:href="yp-0x7fd18c42e130.svg">
<rect x="31.700000" y="217.000000" width="24.000000" height="24.000000" rx="0" ry="0" style="stroke:none;fill:#cccccc;"/>
<rect x="30.700000" y="216.000000" width="24.000000" height="24.000000" rx="0" ry="0" style="stroke:none;fill:#003366;"/>
</a>
<a xlink:href="yp-0x7fd18c42e130.svg">
<text x="42.700000" y="230.000000" font-family="Arial" font-size="7" text-anchor="middle" fill="#FFFFFF">yp</text>
</a>
<circle cx="32.700000" cy="218.000000" r="1"/>
<rect x="31.700000" y="249.000000" width="24.000000" height="24.000000" rx="0" ry="0" style="stroke:none;fill:#cccccc;"/>
<rect x="30.700000" y="248.000000" width="24.000000" height="24.000000" rx="0" ry="0" style="stroke:none;fill:#47945E;"/>
<text x="42.700000" y="262.000000" font-family="Arial" font-size="7" text-anchor="middle" fill="#FFFFFF">y0</text>
<circle cx="32.700000" cy="250.000000" r="1"/>
<rect x="71.700000" y="233.000000" width="24.000000" height="24.000000" rx="0" ry="0" style="stroke:none;fill:#cccccc;"/>
<rect x="70.700000" y="232.000000" width="24.000000" height="24.000000" rx="0" ry="0" style="stroke:none;fill:#4B71A1;"/>
<text x="82.700000" y="246.000000" font-family="Arial" font-size="7" text-anchor="middle" fill="#FFFFFF">-</text>
<circle cx="72.700000" cy="234.000000" r="1"/>
<line x1="67.700000" y1="239.000000" x2="70.700000" y2="240.000000"  transform="rotate(0.000000,70.700000,240.000000)" style="stroke: black; stroke-width:0.25;"/>
<line x1="67.700000" y1="241.000000" x2="70.700000" y2="240.000000"  transform="rotate(0.000000,70.700000,240.000000)" style="stroke: black; stroke-width:0.25;"/>
<line x1="67.700000" y1="247.000000" x2="70.700000" y2="248.000000"  transform="rotate(0.000000,70.700000,248.000000)" style="stroke: black; stroke-width:0.25;"/>
<line x1="67.700000" y1="249.000000" x2="70.700000" y2="248.000000"  transform="rotate(0.000000,70.700000,248.000000)" style="stroke: black; stroke-width:0.25;"/>
<rect x="111.700000" y="201.000000" width="24.000000" height="24.000000" rx="0" ry="0" style="stroke:none;fill:#cccccc;"/>
<rect x="110.700000" y="200.000000" width="24.000000" height="24.000000" rx="0" ry="0" style="stroke:none;fill:#4B71A1;"/>
<text x="122.700000" y="214.000000" font-family="Arial" font-size="7" text-anchor="middle" fill="#FFFFFF">*</text>
<circle cx="112.700000" cy="202.000000" r="1"/>
<line x1="107.700000" y1="207.000000" x2="110.700000" y2="208.000000"  transform="rotate(0.000000,110.700000,208.000000)" style="stroke: black; stroke-width:0.25;"/>
<line x1="107.700000" y1="209.000000" x2="110.700000" y2="208.000000"  transform="rotate(0.000000,110.700000,208.000000)" style="stroke: black; stroke-width:0.25;"/>
<line x1="107.700000" y1="215.000000" x2="110.700000" y2="216.000000"  transform="rotate(0.000000,110.700000,216.000000)" style="stroke: black; stroke-width:0.25;"/>
<line x1="107.700000" y1="217.000000" x2="110.700000" y2="216.000000"  transform="rotate(0.000000,110.700000,216.000000)" style="stroke: black; stroke-width:0.25;"/>
<a xlink:href="freq-0x7fd18c42f790.svg">
<rect x="25.000000" y="281.000000" width="77.400000" height="24.000000" rx="0" ry="0" style="stroke:none;fill:#cccccc;"/>
<rect x="24.000000" y="280.000000" width="77.400000" height="24.000000" rx="0" ry="0" style="stroke:none;fill:#003366;"/>
</a>
<a xlink:href="freq-0x7fd18c42f790.svg">
<text x="62.700000" y="294.000000" font-family="Arial" font-size="7" text-anchor="middle" fill="#FFFFFF">freq_xp(318.233f)</text>
</a>
<circle cx="26.000000" cy="282.000000" r="1"/>
<rect x="51.700000" y="313.000000" width="24.000000" height="24.000000" rx="0" ry="0" style="stroke:none;fill:#cccccc;"/>
<rect x="50.700000" y="312.000000" width="24.000000" height="24.000000" rx="0" ry="0" style="stroke:none;fill:#47945E;"/>
<text x="62.700000" y="326.000000" font-family="Arial" font-size="7" text-anchor="middle" fill="#FFFFFF">x0</text>
<circle cx="52.700000" cy="314.000000" r="1"/>
<rect x="118.400000" y="297.000000" width="24.000000" height="24.000000" rx="0" ry="0" style="stroke:none;fill:#cccccc;"/>
<rect x="117.400000" y="296.000000" width="24.000000" height="24.000000" rx="0" ry="0" style="stroke:none;fill:#4B71A1;"/>
<text x="129.400000" y="310.000000" font-family="Arial" font-size="7" text-anchor="middle" fill="#FFFFFF">-</text>
<circle cx="119.400000" cy="298.000000" r="1"/>
<line x1="114.400000" y1="303.000000" x2="117.400000" y2="304.000000"  transform="rotate(0.000000,117.400000,304.000000)" style="stroke: black; stroke-width:0.25;"/>
<line x1="114.400000" y1="305.000000" x2="117.400000" y2="304.000000"  transform="rotate(0.000000,117.400000,304.000000)" style="stroke: black; stroke-width:0.25;"/>
<line x1="114.400000" y1="311.000000" x2="117.400000" y2="312.000000"  transform="rotate(0.000000,117.400000,312.000000)" style="stroke: black; stroke-width:0.25;"/>
<line x1="114.400000" y1="313.000000" x2="117.400000" y2="312.000000"  transform="rotate(0.000000,117.400000,312.000000)" style="stroke: black; stroke-width:0.25;"/>
<rect x="158.400000" y="233.000000" width="24.000000" height="24.000000" rx="0" ry="0" style="stroke:none;fill:#cccccc;"/>
<rect x="157.400000" y="232.000000" width="24.000000" height="24.000000" rx="0" ry="0" style="stroke:none;fill:#4B71A1;"/>
<text x="169.400000" y="246.000000" font-family="Arial" font-size="7" text-anchor="middle" fill="#FFFFFF">/</text>
<circle cx="159.400000" cy="234.000000" r="1"/>
<line x1="154.400000" y1="239.000000" x2="157.400000" y2="240.000000"  transform="rotate(0.000000,157.400000,240.000000)" style="stroke: black; stroke-width:0.25;"/>
<line x1="154.400000" y1="241.000000" x2="157.400000" y2="240.000000"  transform="rotate(0.000000,157.400000,240.000000)" style="stroke: black; stroke-width:0.25;"/>
<line x1="154.400000" y1="247.000000" x2="157.400000" y2="248.000000"  transform="rotate(0.000000,157.400000,248.000000)" style="stroke: black; stroke-width:0.25;"/>
<line x1="154.400000" y1="249.000000" x2="157.400000" y2="248.000000"  transform="rotate(0.000000,157.400000,248.000000)" style="stroke: black; stroke-width:0.25;"/>
<rect x="198.400000" y="217.000000" width="24.000000" height="24.000000" rx="0" ry="0" style="stroke:none;fill:#cccccc;"/>
<rect x="197.400000" y="216.000000" width="24.000000" height="24.000000" rx="0" ry="0" style="stroke:none;fill:#4B71A1;"/>
<text x="209.400000" y="230.000000" font-family="Arial" font-size="7" text-anchor="middle" fill="#FFFFFF">+</text>
<circle cx="199.400000" cy="218.000000" r="1"/>
<line x1="194.400000" y1="223.000000" x2="197.400000" y2="224.000000"  transform="rotate(0.000000,197.400000,224.000000)" style="stroke: black; stroke-width:0.25;"/>
<line x1="194.400000" y1="225.000000" x2="197.400000" y2="224.000000"  transform="rotate(0.000000,197.400000,224.000000)" style="stroke: black; stroke-width:0.25;"/>
<line x1="194.400000" y1="231.000000" x2="197.400000" y2="232.000000"  transform="rotate(0.000000,197.400000,232.000000)" style="stroke: black; stroke-width:0.25;"/>
<line x1="194.400000" y1="233.000000" x2="197.400000" y2="232.000000"  transform="rotate(0.000000,197.400000,232.000000)" style="stroke: black; stroke-width:0.25;"/>
<rect x="246.400000" y="169.000000" width="38.700000" height="24.000000" rx="0" ry="0" style="stroke:none;fill:#cccccc;"/>
<rect x="245.400000" y="168.000000" width="38.700000" height="24.000000" rx="0" ry="0" style="stroke:none;fill:#4B71A1;"/>
<text x="264.750000" y="182.000000" font-family="Arial" font-size="7" text-anchor="middle" fill="#FFFFFF">select2</text>
<circle cx="247.400000" cy="170.000000" r="1"/>
<line x1="242.400000" y1="171.000000" x2="245.400000" y2="172.000000"  transform="rotate(0.000000,245.400000,172.000000)" style="stroke: black; stroke-width:0.25;"/>
<line x1="242.400000" y1="173.000000" x2="245.400000" y2="172.000000"  transform="rotate(0.000000,245.400000,172.000000)" style="stroke: black; stroke-width:0.25;"/>
<line x1="242.400000" y1="179.000000" x2="245.400000" y2="180.000000"  transform="rotate(0.000000,245.400000,180.000000)" style="stroke: black; stroke-width:0.25;"/>
<line x1="242.400000" y1="181.000000" x2="245.400000" y2="180.000000"  transform="rotate(0.000000,245.400000,180.000000)" style="stroke: black; stroke-width:0.25;"/>
<line x1="242.400000" y1="187.000000" x2="245.400000" y2="188.000000"  transform="rotate(0.000000,245.400000,188.000000)" style="stroke: black; stroke-width:0.25;"/>
<line x1="242.400000" y1="189.000000" x2="245.400000" y2="188.000000"  transform="rotate(0.000000,245.400000,188.000000)" style="stroke: black; stroke-width:0.25;"/>
<line x1="15.000000" y1="15.000000" x2="15.000000" y2="345.000000"  style="stroke: black; stroke-linecap:round; stroke-width:0.25; stroke-dasharray:3,3;"/>
<line x1="15.000000" y1="345.000000" x2="301.100000" y2="345.000000"  style="stroke: black; stroke-linecap:round; stroke-width:0.25; stroke-dasharray:3,3;"/>
<line x1="301.100000" y1="345.000000" x2="301.100000" y2="15.000000"  style="stroke: black; stroke-linecap:round; stroke-width:0.25; stroke-dasharray:3,3;"/>
<line x1="15.000000" y1="15.000000" x2="20.000000" y2="15.000000"  style="stroke: black; stroke-linecap:round; stroke-width:0.25; stroke-dasharray:3,3;"/>
<line x1="119.975000" y1="15.000000" x2="301.100000" y2="15.000000"  style="stroke: black; stroke-linecap:round; stroke-width:0.25; stroke-dasharray:3,3;"/>
<text x="20.000000" y="17.000000" font-family="Arial" font-size="7">if(x130,(((31...: _,1000 : /)</text>
<line x1="303.100000" y1="179.000000" x2="306.100000" y2="180.000000"  transform="rotate(0.000000,306.100000,180.000000)" style="stroke: black; stroke-width:0.25;"/>
<line x1="303.100000" y1="181.000000" x2="306.100000" y2="180.000000"  transform="rotate(0.000000,306.100000,180.000000)" style="stroke: black; stroke-width:0.25;"/>
<line x1="54.700000" y1="164.000000" x2="58.700000" y2="164.000000"  style="stroke:black; stroke-linecap:round; stroke-width:0.25;"/>
<line x1="54.700000" y1="196.000000" x2="58.700000" y2="196.000000"  style="stroke:black; stroke-linecap:round; stroke-width:0.25;"/>
<line x1="54.700000" y1="228.000000" x2="58.700000" y2="228.000000"  style="stroke:black; stroke-linecap:round; stroke-width:0.25;"/>
<line x1="54.700000" y1="260.000000" x2="58.700000" y2="260.000000"  style="stroke:black; stroke-linecap:round; stroke-width:0.25;"/>
<line x1="58.700000" y1="164.000000" x2="66.700000" y2="164.000000"  style="stroke:black; stroke-linecap:round; stroke-width:0.25;"/>
<line x1="58.700000" y1="184.000000" x2="66.700000" y2="184.000000"  style="stroke:black; stroke-linecap:round; stroke-width:0.25;"/>
<line x1="58.700000" y1="196.000000" x2="58.700000" y2="184.000000"  style="stroke:black; stroke-linecap:round; stroke-width:0.25;"/>
<line x1="58.700000" y1="196.000000" x2="58.700000" y2="196.000000"  style="stroke:black; stroke-linecap:round; stroke-width:0.25;"/>
<line x1="58.700000" y1="228.000000" x2="66.700000" y2="228.000000"  style="stroke:black; stroke-linecap:round; stroke-width:0.25;"/>
<line x1="58.700000" y1="248.000000" x2="66.700000" y2="248.000000"  style="stroke:black; stroke-linecap:round; stroke-width:0.25;"/>
<line x1="58.700000" y1="260.000000" x2="58.700000" y2="248.000000"  style="stroke:black; stroke-linecap:round; stroke-width:0.25;"/>
<line x1="58.700000" y1="260.000000" x2="58.700000" y2="260.000000"  style="stroke:black; stroke-linecap:round; stroke-width:0.25;"/>
<line x1="66.700000" y1="164.000000" x2="66.700000" y2="176.000000"  style="stroke:black; stroke-linecap:round; stroke-width:0.25;"/>
<line x1="66.700000" y1="176.000000" x2="66.700000" y2="176.000000"  style="stroke:black; stroke-linecap:round; stroke-width:0.25;"/>
<line x1="66.700000" y1="176.000000" x2="70.700000" y2="176.000000"  style="stroke:black; stroke-linecap:round; stroke-width:0.25;"/>
<line x1="66.700000" y1="184.000000" x2="70.700000" y2="184.000000"  style="stroke:black; stroke-linecap:round; stroke-width:0.25;"/>
<line x1="66.700000" y1="228.000000" x2="66.700000" y2="240.000000"  style="stroke:black; stroke-linecap:round; stroke-width:0.25;"/>
<line x1="66.700000" y1="240.000000" x2="66.700000" y2="240.000000"  style="stroke:black; stroke-linecap:round; stroke-width:0.25;"/>
<line x1="66.700000" y1="240.000000" x2="70.700000" y2="240.000000"  style="stroke:black; stroke-linecap:round; stroke-width:0.25;"/>
<line x1="66.700000" y1="248.000000" x2="70.700000" y2="248.000000"  style="stroke:black; stroke-linecap:round; stroke-width:0.25;"/>
<line x1="74.700000" y1="324.000000" x2="78.700000" y2="324.000000"  style="stroke:black; stroke-linecap:round; stroke-width:0.25;"/>
<line x1="78.700000" y1="324.000000" x2="105.400000" y2="324.000000"  style="stroke:black; stroke-linecap:round; stroke-width:0.25;"/>
<line x1="94.700000" y1="180.000000" x2="98.700000" y2="180.000000"  style="stroke:black; stroke-linecap:round; stroke-width:0.25;"/>
<line x1="94.700000" y1="244.000000" x2="98.700000" y2="244.000000"  style="stroke:black; stroke-linecap:round; stroke-width:0.25;"/>
<line x1="98.700000" y1="180.000000" x2="106.700000" y2="180.000000"  style="stroke:black; stroke-linecap:round; stroke-width:0.25;"/>
<line x1="98.700000" y1="216.000000" x2="106.700000" y2="216.000000"  style="stroke:black; stroke-linecap:round; stroke-width:0.25;"/>
<line x1="98.700000" y1="244.000000" x2="98.700000" y2="216.000000"  style="stroke:black; stroke-linecap:round; stroke-width:0.25;"/>
<line x1="98.700000" y1="244.000000" x2="98.700000" y2="244.000000"  style="stroke:black; stroke-linecap:round; stroke-width:0.25;"/>
<line x1="101.400000" y1="292.000000" x2="105.400000" y2="292.000000"  style="stroke:black; stroke-linecap:round; stroke-width:0.25;"/>
<line x1="105.400000" y1="312.000000" x2="113.400000" y2="312.000000"  style="stroke:black; stroke-linecap:round; stroke-width:0.25;"/>
<line x1="105.400000" y1="324.000000" x2="105.400000" y2="312.000000"  style="stroke:black; stroke-linecap:round; stroke-width:0.25;"/>
<line x1="105.400000" y1="324.000000" x2="105.400000" y2="324.000000"  style="stroke:black; stroke-linecap:round; stroke-width:0.25;"/>
<line x1="105.400000" y1="292.000000" x2="113.400000" y2="292.000000"  style="stroke:black; stroke-linecap:round; stroke-width:0.25;"/>
<line x1="106.700000" y1="180.000000" x2="106.700000" y2="208.000000"  style="stroke:black; stroke-linecap:round; stroke-width:0.25;"/>
<line x1="106.700000" y1="208.000000" x2="106.700000" y2="208.000000"  style="stroke:black; stroke-linecap:round; stroke-width:0.25;"/>
<line x1="106.700000" y1="208.000000" x2="110.700000" y2="208.000000"  style="stroke:black; stroke-linecap:round; stroke-width:0.25;"/>
<line x1="106.700000" y1="216.000000" x2="110.700000" y2="216.000000"  style="stroke:black; stroke-linecap:round; stroke-width:0.25;"/>
<line x1="113.400000" y1="292.000000" x2="113.400000" y2="304.000000"  style="stroke:black; stroke-linecap:round; stroke-width:0.25;"/>
<line x1="113.400000" y1="304.000000" x2="113.400000" y2="304.000000"  style="stroke:black; stroke-linecap:round; stroke-width:0.25;"/>
<line x1="113.400000" y1="304.000000" x2="117.400000" y2="304.000000"  style="stroke:black; stroke-linecap:round; stroke-width:0.25;"/>
<line x1="113.400000" y1="312.000000" x2="117.400000" y2="312.000000"  style="stroke:black; stroke-linecap:round; stroke-width:0.25;"/>
<line x1="114.700000" y1="36.000000" x2="118.700000" y2="36.000000"  style="stroke:black; stroke-linecap:round; stroke-width:0.25;"/>
<line x1="114.700000" y1="132.000000" x2="118.700000" y2="132.000000"  style="stroke:black; stroke-linecap:round; stroke-width:0.25;"/>
<line x1="118.700000" y1="36.000000" x2="145.400000" y2="36.000000"  style="stroke:black; stroke-linecap:round; stroke-width:0.25;"/>
<line x1="118.700000" y1="132.000000" x2="185.400000" y2="132.000000"  style="stroke:black; stroke-linecap:round; stroke-width:0.25;"/>
<line x1="134.700000" y1="100.000000" x2="138.700000" y2="100.000000"  style="stroke:black; stroke-linecap:round; stroke-width:0.25;"/>
<line x1="134.700000" y1="212.000000" x2="138.700000" y2="212.000000"  style="stroke:black; stroke-linecap:round; stroke-width:0.25;"/>
<line x1="138.700000" y1="100.000000" x2="225.400000" y2="100.000000"  style="stroke:black; stroke-linecap:round; stroke-width:0.25;"/>
<line x1="138.700000" y1="212.000000" x2="145.400000" y2="212.000000"  style="stroke:black; stroke-linecap:round; stroke-width:0.25;"/>
<line x1="141.400000" y1="68.000000" x2="145.400000" y2="68.000000"  style="stroke:black; stroke-linecap:round; stroke-width:0.25;"/>
<line x1="141.400000" y1="308.000000" x2="145.400000" y2="308.000000"  style="stroke:black; stroke-linecap:round; stroke-width:0.25;"/>
<line x1="145.400000" y1="36.000000" x2="153.400000" y2="36.000000"  style="stroke:black; stroke-linecap:round; stroke-width:0.25;"/>
<line x1="145.400000" y1="56.000000" x2="153.400000" y2="56.000000"  style="stroke:black; stroke-linecap:round; stroke-width:0.25;"/>
<line x1="145.400000" y1="68.000000" x2="145.400000" y2="56.000000"  style="stroke:black; stroke-linecap:round; stroke-width:0.25;"/>
<line x1="145.400000" y1="68.000000" x2="145.400000" y2="68.000000"  style="stroke:black; stroke-linecap:round; stroke-width:0.25;"/>
<line x1="145.400000" y1="212.000000" x2="153.400000" y2="212.000000"  style="stroke:black; stroke-linecap:round; stroke-width:0.25;"/>
<line x1="145.400000" y1="248.000000" x2="153.400000" y2="248.000000"  style="stroke:black; stroke-linecap:round; stroke-width:0.25;"/>
<line x1="145.400000" y1="308.000000" x2="145.400000" y2="248.000000"  style="stroke:black; stroke-linecap:round; stroke-width:0.25;"/>
<line x1="145.400000" y1="308.000000" x2="145.400000" y2="308.000000"  style="stroke:black; stroke-linecap:round; stroke-width:0.25;"/>
<line x1="153.400000" y1="36.000000" x2="153.400000" y2="48.000000"  style="stroke:black; stroke-linecap:round; stroke-width:0.25;"/>
<line x1="153.400000" y1="48.000000" x2="153.400000" y2="48.000000"  style="stroke:black; stroke-linecap:round; stroke-width:0.25;"/>
<line x1="153.400000" y1="48.000000" x2="157.400000" y2="48.000000"  style="stroke:black; stroke-linecap:round; stroke-width:0.25;"/>
<line x1="153.400000" y1="56.000000" x2="157.400000" y2="56.000000"  style="stroke:black; stroke-linecap:round; stroke-width:0.25;"/>
<line x1="153.400000" y1="212.000000" x2="153.400000" y2="240.000000"  style="stroke:black; stroke-linecap:round; stroke-width:0.25;"/>
<line x1="153.400000" y1="240.000000" x2="153.400000" y2="240.000000"  style="stroke:black; stroke-linecap:round; stroke-width:0.25;"/>
<line x1="153.400000" y1="240.000000" x2="157.400000" y2="240.000000"  style="stroke:black; stroke-linecap:round; stroke-width:0.25;"/>
<line x1="153.400000" y1="248.000000" x2="157.400000" y2="248.000000"  style="stroke:black; stroke-linecap:round; stroke-width:0.25;"/>
<line x1="181.400000" y1="52.000000" x2="185.400000" y2="52.000000"  style="stroke:black; stroke-linecap:round; stroke-width:0.25;"/>
<line x1="181.400000" y1="244.000000" x2="185.400000" y2="244.000000"  style="stroke:black; stroke-linecap:round; stroke-width:0.25;"/>
<line x1="185.400000" y1="52.000000" x2="225.400000" y2="52.000000"  style="stroke:black; stroke-linecap:round; stroke-width:0.25;"/>
<line x1="185.400000" y1="132.000000" x2="193.400000" y2="132.000000"  style="stroke:black; stroke-linecap:round; stroke-width:0.25;"/>
<line x1="185.400000" y1="232.000000" x2="193.400000" y2="232.000000"  style="stroke:black; stroke-linecap:round; stroke-width:0.25;"/>
<line x1="185.400000" y1="244.000000" x2="185.400000" y2="232.000000"  style="stroke:black; stroke-linecap:round; stroke-width:0.25;"/>
<line x1="185.400000" y1="244.000000" x2="185.400000" y2="244.000000"  style="stroke:black; stroke-linecap:round; stroke-width:0.25;"/>
<line x1="193.400000" y1="132.000000" x2="193.400000" y2="224.000000"  style="stroke:black; stroke-linecap:round; stroke-width:0.25;"/>
<line x1="193.400000" y1="224.000000" x2="193.400000" y2="224.000000"  style="stroke:black; stroke-linecap:round; stroke-width:0.25;"/>
<line x1="193.400000" y1="224.000000" x2="197.400000" y2="224.000000"  style="stroke:black; stroke-linecap:round; stroke-width:0.25;"/>
<line x1="193.400000" y1="232.000000" x2="197.400000" y2="232.000000"  style="stroke:black; stroke-linecap:round; stroke-width:0.25;"/>
<line x1="221.400000" y1="228.000000" x2="225.400000" y2="228.000000"  style="stroke:black; stroke-linecap:round; stroke-width:0.25;"/>
<line x1="225.400000" y1="52.000000" x2="241.400000" y2="52.000000"  style="stroke:black; stroke-linecap:round; stroke-width:0.25;"/>
<line x1="225.400000" y1="100.000000" x2="233.400000" y2="100.000000"  style="stroke:black; stroke-linecap:round; stroke-width:0.25;"/>
<line x1="225.400000" y1="188.000000" x2="241.400000" y2="188.000000"  style="stroke:black; stroke-linecap:round; stroke-width:0.25;"/>
<line x1="225.400000" y1="228.000000" x2="225.400000" y2="188.000000"  style="stroke:black; stroke-linecap:round; stroke-width:0.25;"/>
<line x1="225.400000" y1="228.000000" x2="225.400000" y2="228.000000"  style="stroke:black; stroke-linecap:round; stroke-width:0.25;"/>
<line x1="233.400000" y1="100.000000" x2="233.400000" y2="180.000000"  style="stroke:black; stroke-linecap:round; stroke-width:0.25;"/>
<line x1="233.400000" y1="180.000000" x2="241.400000" y2="180.000000"  style="stroke:black; stroke-linecap:round; stroke-width:0.25;"/>
<line x1="241.400000" y1="52.000000" x2="241.400000" y2="172.000000"  style="stroke:black; stroke-linecap:round; stroke-width:0.25;"/>
<line x1="241.400000" y1="172.000000" x2="241.400000" y2="172.000000"  style="stroke:black; stroke-linecap:round; stroke-width:0.25;"/>
<line x1="241.400000" y1="172.000000" x2="245.400000" y2="172.000000"  style="stroke:black; stroke-linecap:round; stroke-width:0.25;"/>
<line x1="241.400000" y1="180.000000" x2="245.400000" y2="180.000000"  style="stroke:black; stroke-linecap:round; stroke-width:0.25;"/>
<line x1="241.400000" y1="188.000000" x2="245.400000" y2="188.000000"  style="stroke:black; stroke-linecap:round; stroke-width:0.25;"/>
<line x1="284.100000" y1="180.000000" x2="288.100000" y2="180.000000"  style="stroke:black; stroke-linecap:round; stroke-width:0.25;"/>
<line x1="288.100000" y1="180.000000" x2="288.100000" y2="180.000000"  style="stroke:black; stroke-linecap:round; stroke-width:0.25;"/>
<line x1="288.100000" y1="180.000000" x2="292.100000" y2="180.000000"  style="stroke:black; stroke-linecap:round; stroke-width:0.25;"/>
<line x1="292.100000" y1="180.000000" x2="296.100000" y2="180.000000"  style="stroke:black; stroke-linecap:round; stroke-width:0.25;"/>
<line x1="296.100000" y1="180.000000" x2="306.100000" y2="180.000000"  style="stroke:black; stroke-linecap:round; stroke-width:0.25;"/>
</svg>
