<?xml version="1.0"?>
<svg xmlns="http://www.w3.org/2000/svg" xmlns:xlink="http://www.w3.org/1999/xlink" viewBox="0 0 1335.800000 108.000000" width="667.900000mm" height="54.000000mm" version="1.1">
<a xlink:href="process.svg">
<rect x="1.000000" y="1.000000" width="1334.800000" height="107.000000" rx="0" ry="0" style="stroke:none;fill:#cccccc;"/>
<rect x="0.000000" y="0.000000" width="1334.800000" height="107.000000" rx="0" ry="0" style="stroke:none;fill:#ffffff;"/>
</a>
<text x="10.000000" y="7.000000" font-family="Arial" font-size="7"></text>
<rect x="35.000000" y="43.000000" width="77.400000" height="24.000000" rx="0" ry="0" style="stroke:none;fill:#cccccc;"/>
<rect x="34.000000" y="42.000000" width="77.400000" height="24.000000" rx="0" ry="0" style="stroke:none;fill:#477881;"/>
<text x="72.700000" y="56.000000" font-family="Arial" font-size="7" text-anchor="middle" fill="#FFFFFF">button(noteTrig)</text>
<circle cx="36.000000" cy="44.000000" r="1"/>
<line x1="25.000000" y1="33.000000" x2="25.000000" y2="75.000000"  style="stroke: black; stroke-linecap:round; stroke-width:0.25; stroke-dasharray:3,3;"/>
<line x1="25.000000" y1="75.000000" x2="120.400000" y2="75.000000"  style="stroke: black; stroke-linecap:round; stroke-width:0.25; stroke-dasharray:3,3;"/>
<line x1="120.400000" y1="75.000000" x2="120.400000" y2="33.000000"  style="stroke: black; stroke-linecap:round; stroke-width:0.25; stroke-dasharray:3,3;"/>
<line x1="25.000000" y1="33.000000" x2="30.000000" y2="33.000000"  style="stroke: black; stroke-linecap:round; stroke-width:0.25; stroke-dasharray:3,3;"/>
<line x1="62.250000" y1="33.000000" x2="120.400000" y2="33.000000"  style="stroke: black; stroke-linecap:round; stroke-width:0.25; stroke-dasharray:3,3;"/>
<text x="30.000000" y="35.000000" font-family="Arial" font-size="7">noteTrig</text>
<a xlink:href="rdm-0x7fd18c1b7800.svg">
<rect x="130.400000" y="43.000000" width="51.600000" height="24.000000" rx="0" ry="0" style="stroke:none;fill:#cccccc;"/>
<rect x="129.400000" y="42.000000" width="51.600000" height="24.000000" rx="0" ry="0" style="stroke:none;fill:#003366;"/>
</a>
<a xlink:href="rdm-0x7fd18c1b7800.svg">
<text x="155.200000" y="56.000000" font-family="Arial" font-size="7" text-anchor="middle" fill="#FFFFFF">rdm(72)(94)</text>
</a>
<circle cx="131.400000" cy="44.000000" r="1"/>
<line x1="126.400000" y1="53.000000" x2="129.400000" y2="54.000000"  transform="rotate(0.000000,129.400000,54.000000)" style="stroke: black; stroke-width:0.25;"/>
<line x1="126.400000" y1="55.000000" x2="129.400000" y2="54.000000"  transform="rotate(0.000000,129.400000,54.000000)" style="stroke: black; stroke-width:0.25;"/>
<a xlink:href="mtof-0x7fd18c916d30.svg">
<rect x="190.000000" y="43.000000" width="25.800000" height="24.000000" rx="0" ry="0" style="stroke:none;fill:#cccccc;"/>
<rect x="189.000000" y="42.000000" width="25.800000" height="24.000000" rx="0" ry="0" style="stroke:none;fill:#003366;"/>
</a>
<a xlink:href="mtof-0x7fd18c916d30.svg">
<text x="201.900000" y="56.000000" font-family="Arial" font-size="7" text-anchor="middle" fill="#FFFFFF">mtof</text>
</a>
<circle cx="191.000000" cy="44.000000" r="1"/>
<line x1="186.000000" y1="53.000000" x2="189.000000" y2="54.000000"  transform="rotate(0.000000,189.000000,54.000000)" style="stroke: black; stroke-width:0.25;"/>
<line x1="186.000000" y1="55.000000" x2="189.000000" y2="54.000000"  transform="rotate(0.000000,189.000000,54.000000)" style="stroke: black; stroke-width:0.25;"/>
<rect x="263.800000" y="51.000000" width="25.800000" height="24.000000" rx="0" ry="0" style="stroke:none;fill:#cccccc;"/>
<rect x="262.800000" y="50.000000" width="25.800000" height="24.000000" rx="0" ry="0" style="stroke:none;fill:#f44800;"/>
<text x="275.700000" y="64.000000" font-family="Arial" font-size="7" text-anchor="middle" fill="#FFFFFF">0.063</text>
<circle cx="264.800000" cy="52.000000" r="1"/>
<line x1="253.800000" y1="41.000000" x2="253.800000" y2="83.000000"  style="stroke: black; stroke-linecap:round; stroke-width:0.25; stroke-dasharray:3,3;"/>
<line x1="253.800000" y1="83.000000" x2="297.600000" y2="83.000000"  style="stroke: black; stroke-linecap:round; stroke-width:0.25; stroke-dasharray:3,3;"/>
<line x1="297.600000" y1="83.000000" x2="297.600000" y2="41.000000"  style="stroke: black; stroke-linecap:round; stroke-width:0.25; stroke-dasharray:3,3;"/>
<line x1="253.800000" y1="41.000000" x2="258.800000" y2="41.000000"  style="stroke: black; stroke-linecap:round; stroke-width:0.25; stroke-dasharray:3,3;"/>
<line x1="294.275000" y1="41.000000" x2="297.600000" y2="41.000000"  style="stroke: black; stroke-linecap:round; stroke-width:0.25; stroke-dasharray:3,3;"/>
<text x="258.800000" y="43.000000" font-family="Arial" font-size="7">harmRatio</text>
<a xlink:href="envWrapper-0x7fd18c0d3a20.svg">
<rect x="332.600000" y="59.000000" width="129.000000" height="24.000000" rx="0" ry="0" style="stroke:none;fill:#cccccc;"/>
<rect x="331.600000" y="58.000000" width="129.000000" height="24.000000" rx="0" ry="0" style="stroke:none;fill:#003366;"/>
</a>
<a xlink:href="envWrapper-0x7fd18c0d3a20.svg">
<text x="396.100000" y="72.000000" font-family="Arial" font-size="7" text-anchor="middle" fill="#FFFFFF">envWrapper(bu...000 : /) : *)</text>
</a>
<circle cx="333.600000" cy="60.000000" r="1"/>
<rect x="477.600000" y="55.000000" width="24.000000" height="24.000000" rx="0" ry="0" style="stroke:none;fill:#cccccc;"/>
<rect x="476.600000" y="54.000000" width="24.000000" height="24.000000" rx="0" ry="0" style="stroke:none;fill:#4B71A1;"/>
<text x="488.600000" y="68.000000" font-family="Arial" font-size="7" text-anchor="middle" fill="#FFFFFF">*</text>
<circle cx="478.600000" cy="56.000000" r="1"/>
<line x1="473.600000" y1="61.000000" x2="476.600000" y2="62.000000"  transform="rotate(0.000000,476.600000,62.000000)" style="stroke: black; stroke-width:0.25;"/>
<line x1="473.600000" y1="63.000000" x2="476.600000" y2="62.000000"  transform="rotate(0.000000,476.600000,62.000000)" style="stroke: black; stroke-width:0.25;"/>
<line x1="473.600000" y1="69.000000" x2="476.600000" y2="70.000000"  transform="rotate(0.000000,476.600000,70.000000)" style="stroke: black; stroke-width:0.25;"/>
<line x1="473.600000" y1="71.000000" x2="476.600000" y2="70.000000"  transform="rotate(0.000000,476.600000,70.000000)" style="stroke: black; stroke-width:0.25;"/>
<rect x="517.600000" y="51.000000" width="24.000000" height="24.000000" rx="0" ry="0" style="stroke:none;fill:#cccccc;"/>
<rect x="516.600000" y="50.000000" width="24.000000" height="24.000000" rx="0" ry="0" style="stroke:none;fill:#4B71A1;"/>
<text x="528.600000" y="64.000000" font-family="Arial" font-size="7" text-anchor="middle" fill="#FFFFFF">+</text>
<circle cx="518.600000" cy="52.000000" r="1"/>
<line x1="513.600000" y1="57.000000" x2="516.600000" y2="58.000000"  transform="rotate(0.000000,516.600000,58.000000)" style="stroke: black; stroke-width:0.25;"/>
<line x1="513.600000" y1="59.000000" x2="516.600000" y2="58.000000"  transform="rotate(0.000000,516.600000,58.000000)" style="stroke: black; stroke-width:0.25;"/>
<line x1="513.600000" y1="65.000000" x2="516.600000" y2="66.000000"  transform="rotate(0.000000,516.600000,66.000000)" style="stroke: black; stroke-width:0.25;"/>
<line x1="513.600000" y1="67.000000" x2="516.600000" y2="66.000000"  transform="rotate(0.000000,516.600000,66.000000)" style="stroke: black; stroke-width:0.25;"/>
<rect x="557.600000" y="47.000000" width="24.000000" height="24.000000" rx="0" ry="0" style="stroke:none;fill:#cccccc;"/>
<rect x="556.600000" y="46.000000" width="24.000000" height="24.000000" rx="0" ry="0" style="stroke:none;fill:#4B71A1;"/>
<text x="568.600000" y="60.000000" font-family="Arial" font-size="7" text-anchor="middle" fill="#FFFFFF">*</text>
<circle cx="558.600000" cy="48.000000" r="1"/>
<line x1="553.600000" y1="53.000000" x2="556.600000" y2="54.000000"  transform="rotate(0.000000,556.600000,54.000000)" style="stroke: black; stroke-width:0.25;"/>
<line x1="553.600000" y1="55.000000" x2="556.600000" y2="54.000000"  transform="rotate(0.000000,556.600000,54.000000)" style="stroke: black; stroke-width:0.25;"/>
<line x1="553.600000" y1="61.000000" x2="556.600000" y2="62.000000"  transform="rotate(0.000000,556.600000,62.000000)" style="stroke: black; stroke-width:0.25;"/>
<line x1="553.600000" y1="63.000000" x2="556.600000" y2="62.000000"  transform="rotate(0.000000,556.600000,62.000000)" style="stroke: black; stroke-width:0.25;"/>
<a xlink:href="modOsc-0x7fd18c41e490.svg">
<rect x="589.600000" y="47.000000" width="25.800000" height="24.000000" rx="0" ry="0" style="stroke:none;fill:#cccccc;"/>
<rect x="588.600000" y="46.000000" width="25.800000" height="24.000000" rx="0" ry="0" style="stroke:none;fill:#003366;"/>
</a>
<a xlink:href="modOsc-0x7fd18c41e490.svg">
<text x="601.500000" y="60.000000" font-family="Arial" font-size="7" text-anchor="middle" fill="#FFFFFF">modOsc</text>
</a>
<circle cx="590.600000" cy="48.000000" r="1"/>
<line x1="585.600000" y1="57.000000" x2="588.600000" y2="58.000000"  transform="rotate(0.000000,588.600000,58.000000)" style="stroke: black; stroke-width:0.25;"/>
<line x1="585.600000" y1="59.000000" x2="588.600000" y2="58.000000"  transform="rotate(0.000000,588.600000,58.000000)" style="stroke: black; stroke-width:0.25;"/>
<rect x="641.400000" y="51.000000" width="25.800000" height="24.000000" rx="0" ry="0" style="stroke:none;fill:#cccccc;"/>
<rect x="640.400000" y="50.000000" width="25.800000" height="24.000000" rx="0" ry="0" style="stroke:none;fill:#f44800;"/>
<text x="653.300000" y="64.000000" font-family="Arial" font-size="7" text-anchor="middle" fill="#FFFFFF">3.24</text>
<circle cx="642.400000" cy="52.000000" r="1"/>
<line x1="631.400000" y1="41.000000" x2="631.400000" y2="83.000000"  style="stroke: black; stroke-linecap:round; stroke-width:0.25; stroke-dasharray:3,3;"/>
<line x1="631.400000" y1="83.000000" x2="675.200000" y2="83.000000"  style="stroke: black; stroke-linecap:round; stroke-width:0.25; stroke-dasharray:3,3;"/>
<line x1="675.200000" y1="83.000000" x2="675.200000" y2="41.000000"  style="stroke: black; stroke-linecap:round; stroke-width:0.25; stroke-dasharray:3,3;"/>
<line x1="631.400000" y1="41.000000" x2="636.400000" y2="41.000000"  style="stroke: black; stroke-linecap:round; stroke-width:0.25; stroke-dasharray:3,3;"/>
<line x1="668.650000" y1="41.000000" x2="675.200000" y2="41.000000"  style="stroke: black; stroke-linecap:round; stroke-width:0.25; stroke-dasharray:3,3;"/>
<text x="636.400000" y="43.000000" font-family="Arial" font-size="7">modIndex</text>
<a xlink:href="envWrapper-0x7fd18c2c0860.svg">
<rect x="710.200000" y="59.000000" width="129.000000" height="24.000000" rx="0" ry="0" style="stroke:none;fill:#cccccc;"/>
<rect x="709.200000" y="58.000000" width="129.000000" height="24.000000" rx="0" ry="0" style="stroke:none;fill:#003366;"/>
</a>
<a xlink:href="envWrapper-0x7fd18c2c0860.svg">
<text x="773.700000" y="72.000000" font-family="Arial" font-size="7" text-anchor="middle" fill="#FFFFFF">envWrapper(bu...000 : /) : *)</text>
</a>
<circle cx="711.200000" cy="60.000000" r="1"/>
<rect x="855.200000" y="55.000000" width="24.000000" height="24.000000" rx="0" ry="0" style="stroke:none;fill:#cccccc;"/>
<rect x="854.200000" y="54.000000" width="24.000000" height="24.000000" rx="0" ry="0" style="stroke:none;fill:#4B71A1;"/>
<text x="866.200000" y="68.000000" font-family="Arial" font-size="7" text-anchor="middle" fill="#FFFFFF">*</text>
<circle cx="856.200000" cy="56.000000" r="1"/>
<line x1="851.200000" y1="61.000000" x2="854.200000" y2="62.000000"  transform="rotate(0.000000,854.200000,62.000000)" style="stroke: black; stroke-width:0.25;"/>
<line x1="851.200000" y1="63.000000" x2="854.200000" y2="62.000000"  transform="rotate(0.000000,854.200000,62.000000)" style="stroke: black; stroke-width:0.25;"/>
<line x1="851.200000" y1="69.000000" x2="854.200000" y2="70.000000"  transform="rotate(0.000000,854.200000,70.000000)" style="stroke: black; stroke-width:0.25;"/>
<line x1="851.200000" y1="71.000000" x2="854.200000" y2="70.000000"  transform="rotate(0.000000,854.200000,70.000000)" style="stroke: black; stroke-width:0.25;"/>
<rect x="895.200000" y="51.000000" width="24.000000" height="24.000000" rx="0" ry="0" style="stroke:none;fill:#cccccc;"/>
<rect x="894.200000" y="50.000000" width="24.000000" height="24.000000" rx="0" ry="0" style="stroke:none;fill:#4B71A1;"/>
<text x="906.200000" y="64.000000" font-family="Arial" font-size="7" text-anchor="middle" fill="#FFFFFF">+</text>
<circle cx="896.200000" cy="52.000000" r="1"/>
<line x1="891.200000" y1="57.000000" x2="894.200000" y2="58.000000"  transform="rotate(0.000000,894.200000,58.000000)" style="stroke: black; stroke-width:0.25;"/>
<line x1="891.200000" y1="59.000000" x2="894.200000" y2="58.000000"  transform="rotate(0.000000,894.200000,58.000000)" style="stroke: black; stroke-width:0.25;"/>
<line x1="891.200000" y1="65.000000" x2="894.200000" y2="66.000000"  transform="rotate(0.000000,894.200000,66.000000)" style="stroke: black; stroke-width:0.25;"/>
<line x1="891.200000" y1="67.000000" x2="894.200000" y2="66.000000"  transform="rotate(0.000000,894.200000,66.000000)" style="stroke: black; stroke-width:0.25;"/>
<rect x="935.200000" y="47.000000" width="24.000000" height="24.000000" rx="0" ry="0" style="stroke:none;fill:#cccccc;"/>
<rect x="934.200000" y="46.000000" width="24.000000" height="24.000000" rx="0" ry="0" style="stroke:none;fill:#4B71A1;"/>
<text x="946.200000" y="60.000000" font-family="Arial" font-size="7" text-anchor="middle" fill="#FFFFFF">*</text>
<circle cx="936.200000" cy="48.000000" r="1"/>
<line x1="931.200000" y1="53.000000" x2="934.200000" y2="54.000000"  transform="rotate(0.000000,934.200000,54.000000)" style="stroke: black; stroke-width:0.25;"/>
<line x1="931.200000" y1="55.000000" x2="934.200000" y2="54.000000"  transform="rotate(0.000000,934.200000,54.000000)" style="stroke: black; stroke-width:0.25;"/>
<line x1="931.200000" y1="61.000000" x2="934.200000" y2="62.000000"  transform="rotate(0.000000,934.200000,62.000000)" style="stroke: black; stroke-width:0.25;"/>
<line x1="931.200000" y1="63.000000" x2="934.200000" y2="62.000000"  transform="rotate(0.000000,934.200000,62.000000)" style="stroke: black; stroke-width:0.25;"/>
<rect x="975.200000" y="43.000000" width="24.000000" height="24.000000" rx="0" ry="0" style="stroke:none;fill:#cccccc;"/>
<rect x="974.200000" y="42.000000" width="24.000000" height="24.000000" rx="0" ry="0" style="stroke:none;fill:#4B71A1;"/>
<text x="986.200000" y="56.000000" font-family="Arial" font-size="7" text-anchor="middle" fill="#FFFFFF">+</text>
<circle cx="976.200000" cy="44.000000" r="1"/>
<line x1="971.200000" y1="49.000000" x2="974.200000" y2="50.000000"  transform="rotate(0.000000,974.200000,50.000000)" style="stroke: black; stroke-width:0.25;"/>
<line x1="971.200000" y1="51.000000" x2="974.200000" y2="50.000000"  transform="rotate(0.000000,974.200000,50.000000)" style="stroke: black; stroke-width:0.25;"/>
<line x1="971.200000" y1="57.000000" x2="974.200000" y2="58.000000"  transform="rotate(0.000000,974.200000,58.000000)" style="stroke: black; stroke-width:0.25;"/>
<line x1="971.200000" y1="59.000000" x2="974.200000" y2="58.000000"  transform="rotate(0.000000,974.200000,58.000000)" style="stroke: black; stroke-width:0.25;"/>
<a xlink:href="envWrapper-0x7fd18c667a40.svg">
<rect x="1036.200000" y="51.000000" width="129.000000" height="24.000000" rx="0" ry="0" style="stroke:none;fill:#cccccc;"/>
<rect x="1035.200000" y="50.000000" width="129.000000" height="24.000000" rx="0" ry="0" style="stroke:none;fill:#003366;"/>
</a>
<a xlink:href="envWrapper-0x7fd18c667a40.svg">
<text x="1099.700000" y="64.000000" font-family="Arial" font-size="7" text-anchor="middle" fill="#FFFFFF">envWrapper(bu...000 : /) : *)</text>
</a>
<circle cx="1037.200000" cy="52.000000" r="1"/>
<rect x="1181.200000" y="47.000000" width="24.000000" height="24.000000" rx="0" ry="0" style="stroke:none;fill:#cccccc;"/>
<rect x="1180.200000" y="46.000000" width="24.000000" height="24.000000" rx="0" ry="0" style="stroke:none;fill:#4B71A1;"/>
<text x="1192.200000" y="60.000000" font-family="Arial" font-size="7" text-anchor="middle" fill="#FFFFFF">*</text>
<circle cx="1182.200000" cy="48.000000" r="1"/>
<line x1="1177.200000" y1="53.000000" x2="1180.200000" y2="54.000000"  transform="rotate(0.000000,1180.200000,54.000000)" style="stroke: black; stroke-width:0.25;"/>
<line x1="1177.200000" y1="55.000000" x2="1180.200000" y2="54.000000"  transform="rotate(0.000000,1180.200000,54.000000)" style="stroke: black; stroke-width:0.25;"/>
<line x1="1177.200000" y1="61.000000" x2="1180.200000" y2="62.000000"  transform="rotate(0.000000,1180.200000,62.000000)" style="stroke: black; stroke-width:0.25;"/>
<line x1="1177.200000" y1="63.000000" x2="1180.200000" y2="62.000000"  transform="rotate(0.000000,1180.200000,62.000000)" style="stroke: black; stroke-width:0.25;"/>
<rect x="1221.200000" y="43.000000" width="24.000000" height="24.000000" rx="0" ry="0" style="stroke:none;fill:#cccccc;"/>
<rect x="1220.200000" y="42.000000" width="24.000000" height="24.000000" rx="0" ry="0" style="stroke:none;fill:#4B71A1;"/>
<text x="1232.200000" y="56.000000" font-family="Arial" font-size="7" text-anchor="middle" fill="#FFFFFF">+</text>
<circle cx="1222.200000" cy="44.000000" r="1"/>
<line x1="1217.200000" y1="49.000000" x2="1220.200000" y2="50.000000"  transform="rotate(0.000000,1220.200000,50.000000)" style="stroke: black; stroke-width:0.25;"/>
<line x1="1217.200000" y1="51.000000" x2="1220.200000" y2="50.000000"  transform="rotate(0.000000,1220.200000,50.000000)" style="stroke: black; stroke-width:0.25;"/>
<line x1="1217.200000" y1="57.000000" x2="1220.200000" y2="58.000000"  transform="rotate(0.000000,1220.200000,58.000000)" style="stroke: black; stroke-width:0.25;"/>
<line x1="1217.200000" y1="59.000000" x2="1220.200000" y2="58.000000"  transform="rotate(0.000000,1220.200000,58.000000)" style="stroke: black; stroke-width:0.25;"/>
<a xlink:href="carrierOsc-0x7fd18c92f960.svg">
<rect x="1253.200000" y="43.000000" width="51.600000" height="24.000000" rx="0" ry="0" style="stroke:none;fill:#cccccc;"/>
<rect x="1252.200000" y="42.000000" width="51.600000" height="24.000000" rx="0" ry="0" style="stroke:none;fill:#003366;"/>
</a>
<a xlink:href="carrierOsc-0x7fd18c92f960.svg">
<text x="1278.000000" y="56.000000" font-family="Arial" font-size="7" text-anchor="middle" fill="#FFFFFF">carrierOsc</text>
</a>
<circle cx="1254.200000" cy="44.000000" r="1"/>
<line x1="1249.200000" y1="53.000000" x2="1252.200000" y2="54.000000"  transform="rotate(0.000000,1252.200000,54.000000)" style="stroke: black; stroke-width:0.25;"/>
<line x1="1249.200000" y1="55.000000" x2="1252.200000" y2="54.000000"  transform="rotate(0.000000,1252.200000,54.000000)" style="stroke: black; stroke-width:0.25;"/>
<line x1="15.000000" y1="15.000000" x2="15.000000" y2="93.000000"  style="stroke: black; stroke-linecap:round; stroke-width:0.25; stroke-dasharray:3,3;"/>
<line x1="15.000000" y1="93.000000" x2="1320.800000" y2="93.000000"  style="stroke: black; stroke-linecap:round; stroke-width:0.25; stroke-dasharray:3,3;"/>
<line x1="1320.800000" y1="93.000000" x2="1320.800000" y2="15.000000"  style="stroke: black; stroke-linecap:round; stroke-width:0.25; stroke-dasharray:3,3;"/>
<line x1="15.000000" y1="15.000000" x2="20.000000" y2="15.000000"  style="stroke: black; stroke-linecap:round; stroke-width:0.25; stroke-dasharray:3,3;"/>
<line x1="119.975000" y1="15.000000" x2="1320.800000" y2="15.000000"  style="stroke: black; stroke-linecap:round; stroke-width:0.25; stroke-dasharray:3,3;"/>
<text x="20.000000" y="17.000000" font-family="Arial" font-size="7">mainOsc(butto...(&quot;noteTrig&quot;))</text>
<line x1="1322.800000" y1="53.000000" x2="1325.800000" y2="54.000000"  transform="rotate(0.000000,1325.800000,54.000000)" style="stroke: black; stroke-width:0.25;"/>
<line x1="1322.800000" y1="55.000000" x2="1325.800000" y2="54.000000"  transform="rotate(0.000000,1325.800000,54.000000)" style="stroke: black; stroke-width:0.25;"/>
<line x1="111.400000" y1="54.000000" x2="115.400000" y2="54.000000"  style="stroke:black; stroke-linecap:round; stroke-width:0.25;"/>
<line x1="115.400000" y1="54.000000" x2="125.400000" y2="54.000000"  style="stroke:black; stroke-linecap:round; stroke-width:0.25;"/>
<line x1="125.400000" y1="54.000000" x2="125.400000" y2="54.000000"  style="stroke:black; stroke-linecap:round; stroke-width:0.25;"/>
<line x1="125.400000" y1="54.000000" x2="129.400000" y2="54.000000"  style="stroke:black; stroke-linecap:round; stroke-width:0.25;"/>
<line x1="181.000000" y1="54.000000" x2="185.000000" y2="54.000000"  style="stroke:black; stroke-linecap:round; stroke-width:0.25;"/>
<line x1="185.000000" y1="54.000000" x2="185.000000" y2="54.000000"  style="stroke:black; stroke-linecap:round; stroke-width:0.25;"/>
<line x1="185.000000" y1="54.000000" x2="189.000000" y2="54.000000"  style="stroke:black; stroke-linecap:round; stroke-width:0.25;"/>
<line x1="214.800000" y1="54.000000" x2="218.800000" y2="54.000000"  style="stroke:black; stroke-linecap:round; stroke-width:0.25;"/>
<line x1="218.800000" y1="54.000000" x2="248.800000" y2="24.000000"  style="stroke:black; stroke-linecap:round; stroke-width:0.25;"/>
<line x1="218.800000" y1="54.000000" x2="248.800000" y2="32.000000"  style="stroke:black; stroke-linecap:round; stroke-width:0.25;"/>
<line x1="248.800000" y1="24.000000" x2="605.500000" y2="24.000000"  style="stroke:black; stroke-linecap:round; stroke-width:0.25;"/>
<line x1="248.800000" y1="32.000000" x2="396.700000" y2="32.000000"  style="stroke:black; stroke-linecap:round; stroke-width:0.25;"/>
<line x1="288.600000" y1="62.000000" x2="292.600000" y2="62.000000"  style="stroke:black; stroke-linecap:round; stroke-width:0.25;"/>
<line x1="292.600000" y1="62.000000" x2="302.600000" y2="62.000000"  style="stroke:black; stroke-linecap:round; stroke-width:0.25;"/>
<line x1="302.600000" y1="62.000000" x2="327.600000" y2="42.000000"  style="stroke:black; stroke-linecap:round; stroke-width:0.25;"/>
<line x1="302.600000" y1="62.000000" x2="327.600000" y2="50.000000"  style="stroke:black; stroke-linecap:round; stroke-width:0.25;"/>
<line x1="327.600000" y1="42.000000" x2="416.100000" y2="42.000000"  style="stroke:black; stroke-linecap:round; stroke-width:0.25;"/>
<line x1="327.600000" y1="50.000000" x2="396.100000" y2="50.000000"  style="stroke:black; stroke-linecap:round; stroke-width:0.25;"/>
<line x1="396.100000" y1="50.000000" x2="464.600000" y2="50.000000"  style="stroke:black; stroke-linecap:round; stroke-width:0.25;"/>
<line x1="396.700000" y1="32.000000" x2="544.600000" y2="32.000000"  style="stroke:black; stroke-linecap:round; stroke-width:0.25;"/>
<line x1="416.100000" y1="42.000000" x2="504.600000" y2="42.000000"  style="stroke:black; stroke-linecap:round; stroke-width:0.25;"/>
<line x1="460.600000" y1="70.000000" x2="464.600000" y2="70.000000"  style="stroke:black; stroke-linecap:round; stroke-width:0.25;"/>
<line x1="464.600000" y1="50.000000" x2="472.600000" y2="50.000000"  style="stroke:black; stroke-linecap:round; stroke-width:0.25;"/>
<line x1="464.600000" y1="70.000000" x2="472.600000" y2="70.000000"  style="stroke:black; stroke-linecap:round; stroke-width:0.25;"/>
<line x1="472.600000" y1="50.000000" x2="472.600000" y2="62.000000"  style="stroke:black; stroke-linecap:round; stroke-width:0.25;"/>
<line x1="472.600000" y1="62.000000" x2="472.600000" y2="62.000000"  style="stroke:black; stroke-linecap:round; stroke-width:0.25;"/>
<line x1="472.600000" y1="62.000000" x2="476.600000" y2="62.000000"  style="stroke:black; stroke-linecap:round; stroke-width:0.25;"/>
<line x1="472.600000" y1="70.000000" x2="476.600000" y2="70.000000"  style="stroke:black; stroke-linecap:round; stroke-width:0.25;"/>
<line x1="500.600000" y1="66.000000" x2="504.600000" y2="66.000000"  style="stroke:black; stroke-linecap:round; stroke-width:0.25;"/>
<line x1="504.600000" y1="42.000000" x2="512.600000" y2="42.000000"  style="stroke:black; stroke-linecap:round; stroke-width:0.25;"/>
<line x1="504.600000" y1="66.000000" x2="512.600000" y2="66.000000"  style="stroke:black; stroke-linecap:round; stroke-width:0.25;"/>
<line x1="512.600000" y1="42.000000" x2="512.600000" y2="58.000000"  style="stroke:black; stroke-linecap:round; stroke-width:0.25;"/>
<line x1="512.600000" y1="58.000000" x2="512.600000" y2="58.000000"  style="stroke:black; stroke-linecap:round; stroke-width:0.25;"/>
<line x1="512.600000" y1="58.000000" x2="516.600000" y2="58.000000"  style="stroke:black; stroke-linecap:round; stroke-width:0.25;"/>
<line x1="512.600000" y1="66.000000" x2="516.600000" y2="66.000000"  style="stroke:black; stroke-linecap:round; stroke-width:0.25;"/>
<line x1="540.600000" y1="62.000000" x2="544.600000" y2="62.000000"  style="stroke:black; stroke-linecap:round; stroke-width:0.25;"/>
<line x1="544.600000" y1="62.000000" x2="552.600000" y2="62.000000"  style="stroke:black; stroke-linecap:round; stroke-width:0.25;"/>
<line x1="544.600000" y1="32.000000" x2="552.600000" y2="32.000000"  style="stroke:black; stroke-linecap:round; stroke-width:0.25;"/>
<line x1="552.600000" y1="32.000000" x2="552.600000" y2="54.000000"  style="stroke:black; stroke-linecap:round; stroke-width:0.25;"/>
<line x1="552.600000" y1="54.000000" x2="552.600000" y2="54.000000"  style="stroke:black; stroke-linecap:round; stroke-width:0.25;"/>
<line x1="552.600000" y1="54.000000" x2="556.600000" y2="54.000000"  style="stroke:black; stroke-linecap:round; stroke-width:0.25;"/>
<line x1="552.600000" y1="62.000000" x2="556.600000" y2="62.000000"  style="stroke:black; stroke-linecap:round; stroke-width:0.25;"/>
<line x1="580.600000" y1="58.000000" x2="584.600000" y2="58.000000"  style="stroke:black; stroke-linecap:round; stroke-width:0.25;"/>
<line x1="584.600000" y1="58.000000" x2="584.600000" y2="58.000000"  style="stroke:black; stroke-linecap:round; stroke-width:0.25;"/>
<line x1="584.600000" y1="58.000000" x2="588.600000" y2="58.000000"  style="stroke:black; stroke-linecap:round; stroke-width:0.25;"/>
<line x1="605.500000" y1="24.000000" x2="962.200000" y2="24.000000"  style="stroke:black; stroke-linecap:round; stroke-width:0.25;"/>
<line x1="614.400000" y1="58.000000" x2="618.400000" y2="58.000000"  style="stroke:black; stroke-linecap:round; stroke-width:0.25;"/>
<line x1="618.400000" y1="32.000000" x2="626.400000" y2="32.000000"  style="stroke:black; stroke-linecap:round; stroke-width:0.25;"/>
<line x1="618.400000" y1="58.000000" x2="618.400000" y2="32.000000"  style="stroke:black; stroke-linecap:round; stroke-width:0.25;"/>
<line x1="618.400000" y1="58.000000" x2="618.400000" y2="58.000000"  style="stroke:black; stroke-linecap:round; stroke-width:0.25;"/>
<line x1="626.400000" y1="32.000000" x2="774.300000" y2="32.000000"  style="stroke:black; stroke-linecap:round; stroke-width:0.25;"/>
<line x1="666.200000" y1="62.000000" x2="670.200000" y2="62.000000"  style="stroke:black; stroke-linecap:round; stroke-width:0.25;"/>
<line x1="670.200000" y1="62.000000" x2="680.200000" y2="62.000000"  style="stroke:black; stroke-linecap:round; stroke-width:0.25;"/>
<line x1="680.200000" y1="62.000000" x2="705.200000" y2="42.000000"  style="stroke:black; stroke-linecap:round; stroke-width:0.25;"/>
<line x1="680.200000" y1="62.000000" x2="705.200000" y2="50.000000"  style="stroke:black; stroke-linecap:round; stroke-width:0.25;"/>
<line x1="705.200000" y1="42.000000" x2="793.700000" y2="42.000000"  style="stroke:black; stroke-linecap:round; stroke-width:0.25;"/>
<line x1="705.200000" y1="50.000000" x2="773.700000" y2="50.000000"  style="stroke:black; stroke-linecap:round; stroke-width:0.25;"/>
<line x1="773.700000" y1="50.000000" x2="842.200000" y2="50.000000"  style="stroke:black; stroke-linecap:round; stroke-width:0.25;"/>
<line x1="774.300000" y1="32.000000" x2="922.200000" y2="32.000000"  style="stroke:black; stroke-linecap:round; stroke-width:0.25;"/>
<line x1="793.700000" y1="42.000000" x2="882.200000" y2="42.000000"  style="stroke:black; stroke-linecap:round; stroke-width:0.25;"/>
<line x1="838.200000" y1="70.000000" x2="842.200000" y2="70.000000"  style="stroke:black; stroke-linecap:round; stroke-width:0.25;"/>
<line x1="842.200000" y1="50.000000" x2="850.200000" y2="50.000000"  style="stroke:black; stroke-linecap:round; stroke-width:0.25;"/>
<line x1="842.200000" y1="70.000000" x2="850.200000" y2="70.000000"  style="stroke:black; stroke-linecap:round; stroke-width:0.25;"/>
<line x1="850.200000" y1="50.000000" x2="850.200000" y2="62.000000"  style="stroke:black; stroke-linecap:round; stroke-width:0.25;"/>
<line x1="850.200000" y1="62.000000" x2="850.200000" y2="62.000000"  style="stroke:black; stroke-linecap:round; stroke-width:0.25;"/>
<line x1="850.200000" y1="62.000000" x2="854.200000" y2="62.000000"  style="stroke:black; stroke-linecap:round; stroke-width:0.25;"/>
<line x1="850.200000" y1="70.000000" x2="854.200000" y2="70.000000"  style="stroke:black; stroke-linecap:round; stroke-width:0.25;"/>
<line x1="878.200000" y1="66.000000" x2="882.200000" y2="66.000000"  style="stroke:black; stroke-linecap:round; stroke-width:0.25;"/>
<line x1="882.200000" y1="42.000000" x2="890.200000" y2="42.000000"  style="stroke:black; stroke-linecap:round; stroke-width:0.25;"/>
<line x1="882.200000" y1="66.000000" x2="890.200000" y2="66.000000"  style="stroke:black; stroke-linecap:round; stroke-width:0.25;"/>
<line x1="890.200000" y1="42.000000" x2="890.200000" y2="58.000000"  style="stroke:black; stroke-linecap:round; stroke-width:0.25;"/>
<line x1="890.200000" y1="58.000000" x2="890.200000" y2="58.000000"  style="stroke:black; stroke-linecap:round; stroke-width:0.25;"/>
<line x1="890.200000" y1="58.000000" x2="894.200000" y2="58.000000"  style="stroke:black; stroke-linecap:round; stroke-width:0.25;"/>
<line x1="890.200000" y1="66.000000" x2="894.200000" y2="66.000000"  style="stroke:black; stroke-linecap:round; stroke-width:0.25;"/>
<line x1="918.200000" y1="62.000000" x2="922.200000" y2="62.000000"  style="stroke:black; stroke-linecap:round; stroke-width:0.25;"/>
<line x1="922.200000" y1="32.000000" x2="930.200000" y2="32.000000"  style="stroke:black; stroke-linecap:round; stroke-width:0.25;"/>
<line x1="922.200000" y1="62.000000" x2="930.200000" y2="62.000000"  style="stroke:black; stroke-linecap:round; stroke-width:0.25;"/>
<line x1="930.200000" y1="32.000000" x2="930.200000" y2="54.000000"  style="stroke:black; stroke-linecap:round; stroke-width:0.25;"/>
<line x1="930.200000" y1="54.000000" x2="930.200000" y2="54.000000"  style="stroke:black; stroke-linecap:round; stroke-width:0.25;"/>
<line x1="930.200000" y1="54.000000" x2="934.200000" y2="54.000000"  style="stroke:black; stroke-linecap:round; stroke-width:0.25;"/>
<line x1="930.200000" y1="62.000000" x2="934.200000" y2="62.000000"  style="stroke:black; stroke-linecap:round; stroke-width:0.25;"/>
<line x1="958.200000" y1="58.000000" x2="962.200000" y2="58.000000"  style="stroke:black; stroke-linecap:round; stroke-width:0.25;"/>
<line x1="962.200000" y1="24.000000" x2="970.200000" y2="24.000000"  style="stroke:black; stroke-linecap:round; stroke-width:0.25;"/>
<line x1="962.200000" y1="58.000000" x2="970.200000" y2="58.000000"  style="stroke:black; stroke-linecap:round; stroke-width:0.25;"/>
<line x1="970.200000" y1="24.000000" x2="970.200000" y2="50.000000"  style="stroke:black; stroke-linecap:round; stroke-width:0.25;"/>
<line x1="970.200000" y1="50.000000" x2="970.200000" y2="50.000000"  style="stroke:black; stroke-linecap:round; stroke-width:0.25;"/>
<line x1="970.200000" y1="50.000000" x2="974.200000" y2="50.000000"  style="stroke:black; stroke-linecap:round; stroke-width:0.25;"/>
<line x1="970.200000" y1="58.000000" x2="974.200000" y2="58.000000"  style="stroke:black; stroke-linecap:round; stroke-width:0.25;"/>
<line x1="998.200000" y1="54.000000" x2="1002.200000" y2="54.000000"  style="stroke:black; stroke-linecap:round; stroke-width:0.25;"/>
<line x1="1002.200000" y1="54.000000" x2="1031.200000" y2="34.000000"  style="stroke:black; stroke-linecap:round; stroke-width:0.25;"/>
<line x1="1002.200000" y1="54.000000" x2="1031.200000" y2="42.000000"  style="stroke:black; stroke-linecap:round; stroke-width:0.25;"/>
<line x1="1031.200000" y1="34.000000" x2="1119.700000" y2="34.000000"  style="stroke:black; stroke-linecap:round; stroke-width:0.25;"/>
<line x1="1031.200000" y1="42.000000" x2="1099.700000" y2="42.000000"  style="stroke:black; stroke-linecap:round; stroke-width:0.25;"/>
<line x1="1099.700000" y1="42.000000" x2="1168.200000" y2="42.000000"  style="stroke:black; stroke-linecap:round; stroke-width:0.25;"/>
<line x1="1119.700000" y1="34.000000" x2="1208.200000" y2="34.000000"  style="stroke:black; stroke-linecap:round; stroke-width:0.25;"/>
<line x1="1164.200000" y1="62.000000" x2="1168.200000" y2="62.000000"  style="stroke:black; stroke-linecap:round; stroke-width:0.25;"/>
<line x1="1168.200000" y1="42.000000" x2="1176.200000" y2="42.000000"  style="stroke:black; stroke-linecap:round; stroke-width:0.25;"/>
<line x1="1168.200000" y1="62.000000" x2="1176.200000" y2="62.000000"  style="stroke:black; stroke-linecap:round; stroke-width:0.25;"/>
<line x1="1176.200000" y1="42.000000" x2="1176.200000" y2="54.000000"  style="stroke:black; stroke-linecap:round; stroke-width:0.25;"/>
<line x1="1176.200000" y1="54.000000" x2="1176.200000" y2="54.000000"  style="stroke:black; stroke-linecap:round; stroke-width:0.25;"/>
<line x1="1176.200000" y1="54.000000" x2="1180.200000" y2="54.000000"  style="stroke:black; stroke-linecap:round; stroke-width:0.25;"/>
<line x1="1176.200000" y1="62.000000" x2="1180.200000" y2="62.000000"  style="stroke:black; stroke-linecap:round; stroke-width:0.25;"/>
<line x1="1204.200000" y1="58.000000" x2="1208.200000" y2="58.000000"  style="stroke:black; stroke-linecap:round; stroke-width:0.25;"/>
<line x1="1208.200000" y1="34.000000" x2="1216.200000" y2="34.000000"  style="stroke:black; stroke-linecap:round; stroke-width:0.25;"/>
<line x1="1208.200000" y1="58.000000" x2="1216.200000" y2="58.000000"  style="stroke:black; stroke-linecap:round; stroke-width:0.25;"/>
<line x1="1216.200000" y1="34.000000" x2="1216.200000" y2="50.000000"  style="stroke:black; stroke-linecap:round; stroke-width:0.25;"/>
<line x1="1216.200000" y1="50.000000" x2="1216.200000" y2="50.000000"  style="stroke:black; stroke-linecap:round; stroke-width:0.25;"/>
<line x1="1216.200000" y1="50.000000" x2="1220.200000" y2="50.000000"  style="stroke:black; stroke-linecap:round; stroke-width:0.25;"/>
<line x1="1216.200000" y1="58.000000" x2="1220.200000" y2="58.000000"  style="stroke:black; stroke-linecap:round; stroke-width:0.25;"/>
<line x1="1244.200000" y1="54.000000" x2="1248.200000" y2="54.000000"  style="stroke:black; stroke-linecap:round; stroke-width:0.25;"/>
<line x1="1248.200000" y1="54.000000" x2="1248.200000" y2="54.000000"  style="stroke:black; stroke-linecap:round; stroke-width:0.25;"/>
<line x1="1248.200000" y1="54.000000" x2="1252.200000" y2="54.000000"  style="stroke:black; stroke-linecap:round; stroke-width:0.25;"/>
<line x1="1303.800000" y1="54.000000" x2="1307.800000" y2="54.000000"  style="stroke:black; stroke-linecap:round; stroke-width:0.25;"/>
<line x1="1307.800000" y1="54.000000" x2="1307.800000" y2="54.000000"  style="stroke:black; stroke-linecap:round; stroke-width:0.25;"/>
<line x1="1307.800000" y1="54.000000" x2="1311.800000" y2="54.000000"  style="stroke:black; stroke-linecap:round; stroke-width:0.25;"/>
<line x1="1311.800000" y1="54.000000" x2="1315.800000" y2="54.000000"  style="stroke:black; stroke-linecap:round; stroke-width:0.25;"/>
<line x1="1315.800000" y1="54.000000" x2="1325.800000" y2="54.000000"  style="stroke:black; stroke-linecap:round; stroke-width:0.25;"/>
</svg>
