<?xml version="1.0"?>
<svg xmlns="http://www.w3.org/2000/svg" xmlns:xlink="http://www.w3.org/1999/xlink" viewBox="0 0 629.800000 80.000000" width="314.900000mm" height="40.000000mm" version="1.1">
<a xlink:href="envWrapper-0x7fd18c2c0860.svg">
<rect x="1.000000" y="1.000000" width="628.800000" height="79.000000" rx="0" ry="0" style="stroke:none;fill:#cccccc;"/>
<rect x="0.000000" y="0.000000" width="628.800000" height="79.000000" rx="0" ry="0" style="stroke:none;fill:#ffffff;"/>
</a>
<text x="10.000000" y="7.000000" font-family="Arial" font-size="7"></text>
<a xlink:href="start-0x7fd18a753da0.svg">
<rect x="33.000000" y="25.000000" width="64.500000" height="32.000000" rx="0" ry="0" style="stroke:none;fill:#cccccc;"/>
<rect x="32.000000" y="24.000000" width="64.500000" height="32.000000" rx="0" ry="0" style="stroke:none;fill:#003366;"/>
</a>
<a xlink:href="start-0x7fd18a753da0.svg">
<text x="64.250000" y="42.000000" font-family="Arial" font-size="7" text-anchor="middle" fill="#FFFFFF">start(0)(0.0f)</text>
</a>
<circle cx="34.000000" cy="26.000000" r="1"/>
<line x1="29.000000" y1="39.000000" x2="32.000000" y2="40.000000"  transform="rotate(0.000000,32.000000,40.000000)" style="stroke: black; stroke-width:0.25;"/>
<line x1="29.000000" y1="41.000000" x2="32.000000" y2="40.000000"  transform="rotate(0.000000,32.000000,40.000000)" style="stroke: black; stroke-width:0.25;"/>
<a xlink:href="point-0x7fd18c287b40.svg">
<rect x="105.500000" y="25.000000" width="167.700000" height="32.000000" rx="0" ry="0" style="stroke:none;fill:#cccccc;"/>
<rect x="104.500000" y="24.000000" width="167.700000" height="32.000000" rx="0" ry="0" style="stroke:none;fill:#003366;"/>
</a>
<a xlink:href="point-0x7fd18c287b40.svg">
<text x="188.350000" y="42.000000" font-family="Arial" font-size="7" text-anchor="middle" fill="#FFFFFF">point(((240.9...000 : /) : *)(0.554f)</text>
</a>
<circle cx="106.500000" cy="26.000000" r="1"/>
<line x1="101.500000" y1="27.000000" x2="104.500000" y2="28.000000"  transform="rotate(0.000000,104.500000,28.000000)" style="stroke: black; stroke-width:0.25;"/>
<line x1="101.500000" y1="29.000000" x2="104.500000" y2="28.000000"  transform="rotate(0.000000,104.500000,28.000000)" style="stroke: black; stroke-width:0.25;"/>
<line x1="101.500000" y1="35.000000" x2="104.500000" y2="36.000000"  transform="rotate(0.000000,104.500000,36.000000)" style="stroke: black; stroke-width:0.25;"/>
<line x1="101.500000" y1="37.000000" x2="104.500000" y2="36.000000"  transform="rotate(0.000000,104.500000,36.000000)" style="stroke: black; stroke-width:0.25;"/>
<line x1="101.500000" y1="43.000000" x2="104.500000" y2="44.000000"  transform="rotate(0.000000,104.500000,44.000000)" style="stroke: black; stroke-width:0.25;"/>
<line x1="101.500000" y1="45.000000" x2="104.500000" y2="44.000000"  transform="rotate(0.000000,104.500000,44.000000)" style="stroke: black; stroke-width:0.25;"/>
<line x1="101.500000" y1="51.000000" x2="104.500000" y2="52.000000"  transform="rotate(0.000000,104.500000,52.000000)" style="stroke: black; stroke-width:0.25;"/>
<line x1="101.500000" y1="53.000000" x2="104.500000" y2="52.000000"  transform="rotate(0.000000,104.500000,52.000000)" style="stroke: black; stroke-width:0.25;"/>
<a xlink:href="point-0x7fd18c2a3fc0.svg">
<rect x="281.200000" y="25.000000" width="154.800000" height="32.000000" rx="0" ry="0" style="stroke:none;fill:#cccccc;"/>
<rect x="280.200000" y="24.000000" width="154.800000" height="32.000000" rx="0" ry="0" style="stroke:none;fill:#003366;"/>
</a>
<a xlink:href="point-0x7fd18c2a3fc0.svg">
<text x="357.600000" y="42.000000" font-family="Arial" font-size="7" text-anchor="middle" fill="#FFFFFF">point(((502.0...000 : /) : *)(0.0f)</text>
</a>
<circle cx="282.200000" cy="26.000000" r="1"/>
<line x1="277.200000" y1="27.000000" x2="280.200000" y2="28.000000"  transform="rotate(0.000000,280.200000,28.000000)" style="stroke: black; stroke-width:0.25;"/>
<line x1="277.200000" y1="29.000000" x2="280.200000" y2="28.000000"  transform="rotate(0.000000,280.200000,28.000000)" style="stroke: black; stroke-width:0.25;"/>
<line x1="277.200000" y1="35.000000" x2="280.200000" y2="36.000000"  transform="rotate(0.000000,280.200000,36.000000)" style="stroke: black; stroke-width:0.25;"/>
<line x1="277.200000" y1="37.000000" x2="280.200000" y2="36.000000"  transform="rotate(0.000000,280.200000,36.000000)" style="stroke: black; stroke-width:0.25;"/>
<line x1="277.200000" y1="43.000000" x2="280.200000" y2="44.000000"  transform="rotate(0.000000,280.200000,44.000000)" style="stroke: black; stroke-width:0.25;"/>
<line x1="277.200000" y1="45.000000" x2="280.200000" y2="44.000000"  transform="rotate(0.000000,280.200000,44.000000)" style="stroke: black; stroke-width:0.25;"/>
<line x1="277.200000" y1="51.000000" x2="280.200000" y2="52.000000"  transform="rotate(0.000000,280.200000,52.000000)" style="stroke: black; stroke-width:0.25;"/>
<line x1="277.200000" y1="53.000000" x2="280.200000" y2="52.000000"  transform="rotate(0.000000,280.200000,52.000000)" style="stroke: black; stroke-width:0.25;"/>
<a xlink:href="end-0x7fd18c2c02e0.svg">
<rect x="444.000000" y="25.000000" width="154.800000" height="32.000000" rx="0" ry="0" style="stroke:none;fill:#cccccc;"/>
<rect x="443.000000" y="24.000000" width="154.800000" height="32.000000" rx="0" ry="0" style="stroke:none;fill:#003366;"/>
</a>
<a xlink:href="end-0x7fd18c2c02e0.svg">
<text x="520.400000" y="42.000000" font-family="Arial" font-size="7" text-anchor="middle" fill="#FFFFFF">end(((550,(19...000 : /) : *)(0.0f)</text>
</a>
<circle cx="445.000000" cy="26.000000" r="1"/>
<line x1="440.000000" y1="27.000000" x2="443.000000" y2="28.000000"  transform="rotate(0.000000,443.000000,28.000000)" style="stroke: black; stroke-width:0.25;"/>
<line x1="440.000000" y1="29.000000" x2="443.000000" y2="28.000000"  transform="rotate(0.000000,443.000000,28.000000)" style="stroke: black; stroke-width:0.25;"/>
<line x1="440.000000" y1="35.000000" x2="443.000000" y2="36.000000"  transform="rotate(0.000000,443.000000,36.000000)" style="stroke: black; stroke-width:0.25;"/>
<line x1="440.000000" y1="37.000000" x2="443.000000" y2="36.000000"  transform="rotate(0.000000,443.000000,36.000000)" style="stroke: black; stroke-width:0.25;"/>
<line x1="440.000000" y1="43.000000" x2="443.000000" y2="44.000000"  transform="rotate(0.000000,443.000000,44.000000)" style="stroke: black; stroke-width:0.25;"/>
<line x1="440.000000" y1="45.000000" x2="443.000000" y2="44.000000"  transform="rotate(0.000000,443.000000,44.000000)" style="stroke: black; stroke-width:0.25;"/>
<line x1="440.000000" y1="51.000000" x2="443.000000" y2="52.000000"  transform="rotate(0.000000,443.000000,52.000000)" style="stroke: black; stroke-width:0.25;"/>
<line x1="440.000000" y1="53.000000" x2="443.000000" y2="52.000000"  transform="rotate(0.000000,443.000000,52.000000)" style="stroke: black; stroke-width:0.25;"/>
<line x1="15.000000" y1="15.000000" x2="15.000000" y2="65.000000"  style="stroke: black; stroke-linecap:round; stroke-width:0.25; stroke-dasharray:3,3;"/>
<line x1="15.000000" y1="65.000000" x2="614.800000" y2="65.000000"  style="stroke: black; stroke-linecap:round; stroke-width:0.25; stroke-dasharray:3,3;"/>
<line x1="614.800000" y1="65.000000" x2="614.800000" y2="15.000000"  style="stroke: black; stroke-linecap:round; stroke-width:0.25; stroke-dasharray:3,3;"/>
<line x1="15.000000" y1="15.000000" x2="20.000000" y2="15.000000"  style="stroke: black; stroke-linecap:round; stroke-width:0.25; stroke-dasharray:3,3;"/>
<line x1="61.925000" y1="15.000000" x2="614.800000" y2="15.000000"  style="stroke: black; stroke-linecap:round; stroke-width:0.25; stroke-dasharray:3,3;"/>
<text x="20.000000" y="17.000000" font-family="Arial" font-size="7">modIndexEnv</text>
<line x1="616.800000" y1="39.000000" x2="619.800000" y2="40.000000"  transform="rotate(0.000000,619.800000,40.000000)" style="stroke: black; stroke-width:0.25;"/>
<line x1="616.800000" y1="41.000000" x2="619.800000" y2="40.000000"  transform="rotate(0.000000,619.800000,40.000000)" style="stroke: black; stroke-width:0.25;"/>
<line x1="10.000000" y1="40.000000" x2="20.000000" y2="40.000000"  style="stroke:black; stroke-linecap:round; stroke-width:0.25;"/>
<line x1="20.000000" y1="40.000000" x2="24.000000" y2="40.000000"  style="stroke:black; stroke-linecap:round; stroke-width:0.25;"/>
<line x1="24.000000" y1="40.000000" x2="28.000000" y2="40.000000"  style="stroke:black; stroke-linecap:round; stroke-width:0.25;"/>
<line x1="28.000000" y1="40.000000" x2="28.000000" y2="40.000000"  style="stroke:black; stroke-linecap:round; stroke-width:0.25;"/>
<line x1="28.000000" y1="40.000000" x2="32.000000" y2="40.000000"  style="stroke:black; stroke-linecap:round; stroke-width:0.25;"/>
<line x1="96.500000" y1="28.000000" x2="100.500000" y2="28.000000"  style="stroke:black; stroke-linecap:round; stroke-width:0.25;"/>
<line x1="96.500000" y1="36.000000" x2="100.500000" y2="36.000000"  style="stroke:black; stroke-linecap:round; stroke-width:0.25;"/>
<line x1="96.500000" y1="44.000000" x2="100.500000" y2="44.000000"  style="stroke:black; stroke-linecap:round; stroke-width:0.25;"/>
<line x1="96.500000" y1="52.000000" x2="100.500000" y2="52.000000"  style="stroke:black; stroke-linecap:round; stroke-width:0.25;"/>
<line x1="100.500000" y1="28.000000" x2="100.500000" y2="28.000000"  style="stroke:black; stroke-linecap:round; stroke-width:0.25;"/>
<line x1="100.500000" y1="28.000000" x2="104.500000" y2="28.000000"  style="stroke:black; stroke-linecap:round; stroke-width:0.25;"/>
<line x1="100.500000" y1="36.000000" x2="100.500000" y2="36.000000"  style="stroke:black; stroke-linecap:round; stroke-width:0.25;"/>
<line x1="100.500000" y1="36.000000" x2="104.500000" y2="36.000000"  style="stroke:black; stroke-linecap:round; stroke-width:0.25;"/>
<line x1="100.500000" y1="44.000000" x2="100.500000" y2="44.000000"  style="stroke:black; stroke-linecap:round; stroke-width:0.25;"/>
<line x1="100.500000" y1="44.000000" x2="104.500000" y2="44.000000"  style="stroke:black; stroke-linecap:round; stroke-width:0.25;"/>
<line x1="100.500000" y1="52.000000" x2="100.500000" y2="52.000000"  style="stroke:black; stroke-linecap:round; stroke-width:0.25;"/>
<line x1="100.500000" y1="52.000000" x2="104.500000" y2="52.000000"  style="stroke:black; stroke-linecap:round; stroke-width:0.25;"/>
<line x1="272.200000" y1="28.000000" x2="276.200000" y2="28.000000"  style="stroke:black; stroke-linecap:round; stroke-width:0.25;"/>
<line x1="272.200000" y1="36.000000" x2="276.200000" y2="36.000000"  style="stroke:black; stroke-linecap:round; stroke-width:0.25;"/>
<line x1="272.200000" y1="44.000000" x2="276.200000" y2="44.000000"  style="stroke:black; stroke-linecap:round; stroke-width:0.25;"/>
<line x1="272.200000" y1="52.000000" x2="276.200000" y2="52.000000"  style="stroke:black; stroke-linecap:round; stroke-width:0.25;"/>
<line x1="276.200000" y1="28.000000" x2="276.200000" y2="28.000000"  style="stroke:black; stroke-linecap:round; stroke-width:0.25;"/>
<line x1="276.200000" y1="28.000000" x2="280.200000" y2="28.000000"  style="stroke:black; stroke-linecap:round; stroke-width:0.25;"/>
<line x1="276.200000" y1="36.000000" x2="276.200000" y2="36.000000"  style="stroke:black; stroke-linecap:round; stroke-width:0.25;"/>
<line x1="276.200000" y1="36.000000" x2="280.200000" y2="36.000000"  style="stroke:black; stroke-linecap:round; stroke-width:0.25;"/>
<line x1="276.200000" y1="44.000000" x2="276.200000" y2="44.000000"  style="stroke:black; stroke-linecap:round; stroke-width:0.25;"/>
<line x1="276.200000" y1="44.000000" x2="280.200000" y2="44.000000"  style="stroke:black; stroke-linecap:round; stroke-width:0.25;"/>
<line x1="276.200000" y1="52.000000" x2="276.200000" y2="52.000000"  style="stroke:black; stroke-linecap:round; stroke-width:0.25;"/>
<line x1="276.200000" y1="52.000000" x2="280.200000" y2="52.000000"  style="stroke:black; stroke-linecap:round; stroke-width:0.25;"/>
<line x1="435.000000" y1="28.000000" x2="439.000000" y2="28.000000"  style="stroke:black; stroke-linecap:round; stroke-width:0.25;"/>
<line x1="435.000000" y1="36.000000" x2="439.000000" y2="36.000000"  style="stroke:black; stroke-linecap:round; stroke-width:0.25;"/>
<line x1="435.000000" y1="44.000000" x2="439.000000" y2="44.000000"  style="stroke:black; stroke-linecap:round; stroke-width:0.25;"/>
<line x1="435.000000" y1="52.000000" x2="439.000000" y2="52.000000"  style="stroke:black; stroke-linecap:round; stroke-width:0.25;"/>
<line x1="439.000000" y1="28.000000" x2="439.000000" y2="28.000000"  style="stroke:black; stroke-linecap:round; stroke-width:0.25;"/>
<line x1="439.000000" y1="28.000000" x2="443.000000" y2="28.000000"  style="stroke:black; stroke-linecap:round; stroke-width:0.25;"/>
<line x1="439.000000" y1="36.000000" x2="439.000000" y2="36.000000"  style="stroke:black; stroke-linecap:round; stroke-width:0.25;"/>
<line x1="439.000000" y1="36.000000" x2="443.000000" y2="36.000000"  style="stroke:black; stroke-linecap:round; stroke-width:0.25;"/>
<line x1="439.000000" y1="44.000000" x2="439.000000" y2="44.000000"  style="stroke:black; stroke-linecap:round; stroke-width:0.25;"/>
<line x1="439.000000" y1="44.000000" x2="443.000000" y2="44.000000"  style="stroke:black; stroke-linecap:round; stroke-width:0.25;"/>
<line x1="439.000000" y1="52.000000" x2="439.000000" y2="52.000000"  style="stroke:black; stroke-linecap:round; stroke-width:0.25;"/>
<line x1="439.000000" y1="52.000000" x2="443.000000" y2="52.000000"  style="stroke:black; stroke-linecap:round; stroke-width:0.25;"/>
<line x1="597.800000" y1="40.000000" x2="601.800000" y2="40.000000"  style="stroke:black; stroke-linecap:round; stroke-width:0.25;"/>
<line x1="601.800000" y1="40.000000" x2="601.800000" y2="40.000000"  style="stroke:black; stroke-linecap:round; stroke-width:0.25;"/>
<line x1="601.800000" y1="40.000000" x2="605.800000" y2="40.000000"  style="stroke:black; stroke-linecap:round; stroke-width:0.25;"/>
<line x1="605.800000" y1="40.000000" x2="609.800000" y2="40.000000"  style="stroke:black; stroke-linecap:round; stroke-width:0.25;"/>
<line x1="609.800000" y1="40.000000" x2="619.800000" y2="40.000000"  style="stroke:black; stroke-linecap:round; stroke-width:0.25;"/>
</svg>
