<?xml version="1.0"?>
<svg xmlns="http://www.w3.org/2000/svg" xmlns:xlink="http://www.w3.org/1999/xlink" viewBox="0 0 473.740000 104.000000" width="236.870000mm" height="52.000000mm" version="1.1">
<rect x="1.000000" y="1.000000" width="472.740000" height="103.000000" rx="0" ry="0" style="stroke:none;fill:#cccccc;"/>
<rect x="0.000000" y="0.000000" width="472.740000" height="103.000000" rx="0" ry="0" style="stroke:none;fill:#ffffff;"/>
<text x="10.000000" y="7.000000" font-family="Arial" font-size="7"></text>
<a xlink:href="mainOsc-0x7fd18c92fc10.svg">
<rect x="25.000000" y="25.000000" width="129.000000" height="24.000000" rx="0" ry="0" style="stroke:none;fill:#cccccc;"/>
<rect x="24.000000" y="24.000000" width="129.000000" height="24.000000" rx="0" ry="0" style="stroke:none;fill:#003366;"/>
</a>
<a xlink:href="mainOsc-0x7fd18c92fc10.svg">
<text x="88.500000" y="38.000000" font-family="Arial" font-size="7" text-anchor="middle" fill="#FFFFFF">mainOsc(butto...(&quot;noteTrig&quot;))</text>
</a>
<circle cx="26.000000" cy="26.000000" r="1"/>
<a xlink:href="envWrapper-0x7fd18caa4480.svg">
<rect x="25.000000" y="57.000000" width="129.000000" height="24.000000" rx="0" ry="0" style="stroke:none;fill:#cccccc;"/>
<rect x="24.000000" y="56.000000" width="129.000000" height="24.000000" rx="0" ry="0" style="stroke:none;fill:#003366;"/>
</a>
<a xlink:href="envWrapper-0x7fd18caa4480.svg">
<text x="88.500000" y="70.000000" font-family="Arial" font-size="7" text-anchor="middle" fill="#FFFFFF">envWrapper(bu...000 : /) : *)</text>
</a>
<circle cx="26.000000" cy="58.000000" r="1"/>
<rect x="170.000000" y="41.000000" width="24.000000" height="24.000000" rx="0" ry="0" style="stroke:none;fill:#cccccc;"/>
<rect x="169.000000" y="40.000000" width="24.000000" height="24.000000" rx="0" ry="0" style="stroke:none;fill:#4B71A1;"/>
<text x="181.000000" y="54.000000" font-family="Arial" font-size="7" text-anchor="middle" fill="#FFFFFF">*</text>
<circle cx="171.000000" cy="42.000000" r="1"/>
<line x1="166.000000" y1="47.000000" x2="169.000000" y2="48.000000"  transform="rotate(0.000000,169.000000,48.000000)" style="stroke: black; stroke-width:0.25;"/>
<line x1="166.000000" y1="49.000000" x2="169.000000" y2="48.000000"  transform="rotate(0.000000,169.000000,48.000000)" style="stroke: black; stroke-width:0.25;"/>
<line x1="166.000000" y1="55.000000" x2="169.000000" y2="56.000000"  transform="rotate(0.000000,169.000000,56.000000)" style="stroke: black; stroke-width:0.25;"/>
<line x1="166.000000" y1="57.000000" x2="169.000000" y2="56.000000"  transform="rotate(0.000000,169.000000,56.000000)" style="stroke: black; stroke-width:0.25;"/>
<a xlink:href="yp-0x7fd18c42e130.svg">
<rect x="234.000000" y="49.000000" width="24.000000" height="24.000000" rx="0" ry="0" style="stroke:none;fill:#cccccc;"/>
<rect x="233.000000" y="48.000000" width="24.000000" height="24.000000" rx="0" ry="0" style="stroke:none;fill:#003366;"/>
</a>
<a xlink:href="yp-0x7fd18c42e130.svg">
<text x="245.000000" y="62.000000" font-family="Arial" font-size="7" text-anchor="middle" fill="#FFFFFF">yp</text>
</a>
<circle cx="235.000000" cy="50.000000" r="1"/>
<a xlink:href="panSte-0x7fd18c913020.svg">
<rect x="266.000000" y="49.000000" width="25.800000" height="24.000000" rx="0" ry="0" style="stroke:none;fill:#cccccc;"/>
<rect x="265.000000" y="48.000000" width="25.800000" height="24.000000" rx="0" ry="0" style="stroke:none;fill:#003366;"/>
</a>
<a xlink:href="panSte-0x7fd18c913020.svg">
<text x="277.900000" y="62.000000" font-family="Arial" font-size="7" text-anchor="middle" fill="#FFFFFF">panSte</text>
</a>
<circle cx="267.000000" cy="50.000000" r="1"/>
<line x1="262.000000" y1="59.000000" x2="265.000000" y2="60.000000"  transform="rotate(0.000000,265.000000,60.000000)" style="stroke: black; stroke-width:0.25;"/>
<line x1="262.000000" y1="61.000000" x2="265.000000" y2="60.000000"  transform="rotate(0.000000,265.000000,60.000000)" style="stroke: black; stroke-width:0.25;"/>
<rect x="364.040000" y="25.000000" width="24.000000" height="24.000000" rx="0" ry="0" style="stroke:none;fill:#cccccc;"/>
<rect x="363.040000" y="24.000000" width="24.000000" height="24.000000" rx="0" ry="0" style="stroke:none;fill:#4B71A1;"/>
<text x="375.040000" y="38.000000" font-family="Arial" font-size="7" text-anchor="middle" fill="#FFFFFF">*</text>
<circle cx="365.040000" cy="26.000000" r="1"/>
<line x1="360.040000" y1="31.000000" x2="363.040000" y2="32.000000"  transform="rotate(0.000000,363.040000,32.000000)" style="stroke: black; stroke-width:0.25;"/>
<line x1="360.040000" y1="33.000000" x2="363.040000" y2="32.000000"  transform="rotate(0.000000,363.040000,32.000000)" style="stroke: black; stroke-width:0.25;"/>
<line x1="360.040000" y1="39.000000" x2="363.040000" y2="40.000000"  transform="rotate(0.000000,363.040000,40.000000)" style="stroke: black; stroke-width:0.25;"/>
<line x1="360.040000" y1="41.000000" x2="363.040000" y2="40.000000"  transform="rotate(0.000000,363.040000,40.000000)" style="stroke: black; stroke-width:0.25;"/>
<rect x="364.040000" y="57.000000" width="24.000000" height="24.000000" rx="0" ry="0" style="stroke:none;fill:#cccccc;"/>
<rect x="363.040000" y="56.000000" width="24.000000" height="24.000000" rx="0" ry="0" style="stroke:none;fill:#4B71A1;"/>
<text x="375.040000" y="70.000000" font-family="Arial" font-size="7" text-anchor="middle" fill="#FFFFFF">*</text>
<circle cx="365.040000" cy="58.000000" r="1"/>
<line x1="360.040000" y1="63.000000" x2="363.040000" y2="64.000000"  transform="rotate(0.000000,363.040000,64.000000)" style="stroke: black; stroke-width:0.25;"/>
<line x1="360.040000" y1="65.000000" x2="363.040000" y2="64.000000"  transform="rotate(0.000000,363.040000,64.000000)" style="stroke: black; stroke-width:0.25;"/>
<line x1="360.040000" y1="71.000000" x2="363.040000" y2="72.000000"  transform="rotate(0.000000,363.040000,72.000000)" style="stroke: black; stroke-width:0.25;"/>
<line x1="360.040000" y1="73.000000" x2="363.040000" y2="72.000000"  transform="rotate(0.000000,363.040000,72.000000)" style="stroke: black; stroke-width:0.25;"/>
<a xlink:href="zita-0x7fd18d95bf00.svg">
<rect x="404.040000" y="41.000000" width="38.700000" height="24.000000" rx="0" ry="0" style="stroke:none;fill:#cccccc;"/>
<rect x="403.040000" y="40.000000" width="38.700000" height="24.000000" rx="0" ry="0" style="stroke:none;fill:#003366;"/>
</a>
<a xlink:href="zita-0x7fd18d95bf00.svg">
<text x="422.390000" y="54.000000" font-family="Arial" font-size="7" text-anchor="middle" fill="#FFFFFF">zita_rev1</text>
</a>
<circle cx="405.040000" cy="42.000000" r="1"/>
<line x1="400.040000" y1="47.000000" x2="403.040000" y2="48.000000"  transform="rotate(0.000000,403.040000,48.000000)" style="stroke: black; stroke-width:0.25;"/>
<line x1="400.040000" y1="49.000000" x2="403.040000" y2="48.000000"  transform="rotate(0.000000,403.040000,48.000000)" style="stroke: black; stroke-width:0.25;"/>
<line x1="400.040000" y1="55.000000" x2="403.040000" y2="56.000000"  transform="rotate(0.000000,403.040000,56.000000)" style="stroke: black; stroke-width:0.25;"/>
<line x1="400.040000" y1="57.000000" x2="403.040000" y2="56.000000"  transform="rotate(0.000000,403.040000,56.000000)" style="stroke: black; stroke-width:0.25;"/>
<line x1="15.000000" y1="15.000000" x2="15.000000" y2="89.000000"  style="stroke: black; stroke-linecap:round; stroke-width:0.25; stroke-dasharray:3,3;"/>
<line x1="15.000000" y1="89.000000" x2="458.740000" y2="89.000000"  style="stroke: black; stroke-linecap:round; stroke-width:0.25; stroke-dasharray:3,3;"/>
<line x1="458.740000" y1="89.000000" x2="458.740000" y2="15.000000"  style="stroke: black; stroke-linecap:round; stroke-width:0.25; stroke-dasharray:3,3;"/>
<line x1="15.000000" y1="15.000000" x2="20.000000" y2="15.000000"  style="stroke: black; stroke-linecap:round; stroke-width:0.25; stroke-dasharray:3,3;"/>
<line x1="49.025000" y1="15.000000" x2="458.740000" y2="15.000000"  style="stroke: black; stroke-linecap:round; stroke-width:0.25; stroke-dasharray:3,3;"/>
<text x="20.000000" y="17.000000" font-family="Arial" font-size="7">process</text>
<line x1="460.740000" y1="47.000000" x2="463.740000" y2="48.000000"  transform="rotate(0.000000,463.740000,48.000000)" style="stroke: black; stroke-width:0.25;"/>
<line x1="460.740000" y1="49.000000" x2="463.740000" y2="48.000000"  transform="rotate(0.000000,463.740000,48.000000)" style="stroke: black; stroke-width:0.25;"/>
<line x1="460.740000" y1="55.000000" x2="463.740000" y2="56.000000"  transform="rotate(0.000000,463.740000,56.000000)" style="stroke: black; stroke-width:0.25;"/>
<line x1="460.740000" y1="57.000000" x2="463.740000" y2="56.000000"  transform="rotate(0.000000,463.740000,56.000000)" style="stroke: black; stroke-width:0.25;"/>
<line x1="153.000000" y1="36.000000" x2="157.000000" y2="36.000000"  style="stroke:black; stroke-linecap:round; stroke-width:0.25;"/>
<line x1="153.000000" y1="68.000000" x2="157.000000" y2="68.000000"  style="stroke:black; stroke-linecap:round; stroke-width:0.25;"/>
<line x1="157.000000" y1="36.000000" x2="165.000000" y2="36.000000"  style="stroke:black; stroke-linecap:round; stroke-width:0.25;"/>
<line x1="157.000000" y1="56.000000" x2="165.000000" y2="56.000000"  style="stroke:black; stroke-linecap:round; stroke-width:0.25;"/>
<line x1="157.000000" y1="68.000000" x2="157.000000" y2="56.000000"  style="stroke:black; stroke-linecap:round; stroke-width:0.25;"/>
<line x1="157.000000" y1="68.000000" x2="157.000000" y2="68.000000"  style="stroke:black; stroke-linecap:round; stroke-width:0.25;"/>
<line x1="165.000000" y1="36.000000" x2="165.000000" y2="48.000000"  style="stroke:black; stroke-linecap:round; stroke-width:0.25;"/>
<line x1="165.000000" y1="48.000000" x2="165.000000" y2="48.000000"  style="stroke:black; stroke-linecap:round; stroke-width:0.25;"/>
<line x1="165.000000" y1="48.000000" x2="169.000000" y2="48.000000"  style="stroke:black; stroke-linecap:round; stroke-width:0.25;"/>
<line x1="165.000000" y1="56.000000" x2="169.000000" y2="56.000000"  style="stroke:black; stroke-linecap:round; stroke-width:0.25;"/>
<line x1="193.000000" y1="52.000000" x2="197.000000" y2="52.000000"  style="stroke:black; stroke-linecap:round; stroke-width:0.25;"/>
<line x1="197.000000" y1="52.000000" x2="229.000000" y2="32.000000"  style="stroke:black; stroke-linecap:round; stroke-width:0.25;"/>
<line x1="197.000000" y1="52.000000" x2="229.000000" y2="40.000000"  style="stroke:black; stroke-linecap:round; stroke-width:0.25;"/>
<line x1="229.000000" y1="32.000000" x2="261.900000" y2="32.000000"  style="stroke:black; stroke-linecap:round; stroke-width:0.25;"/>
<line x1="229.000000" y1="40.000000" x2="261.900000" y2="40.000000"  style="stroke:black; stroke-linecap:round; stroke-width:0.25;"/>
<line x1="257.000000" y1="60.000000" x2="261.000000" y2="60.000000"  style="stroke:black; stroke-linecap:round; stroke-width:0.25;"/>
<line x1="261.000000" y1="60.000000" x2="261.000000" y2="60.000000"  style="stroke:black; stroke-linecap:round; stroke-width:0.25;"/>
<line x1="261.000000" y1="60.000000" x2="265.000000" y2="60.000000"  style="stroke:black; stroke-linecap:round; stroke-width:0.25;"/>
<line x1="261.900000" y1="32.000000" x2="294.800000" y2="32.000000"  style="stroke:black; stroke-linecap:round; stroke-width:0.25;"/>
<line x1="261.900000" y1="40.000000" x2="294.800000" y2="40.000000"  style="stroke:black; stroke-linecap:round; stroke-width:0.25;"/>
<line x1="290.800000" y1="56.000000" x2="294.800000" y2="56.000000"  style="stroke:black; stroke-linecap:round; stroke-width:0.25;"/>
<line x1="290.800000" y1="64.000000" x2="294.800000" y2="64.000000"  style="stroke:black; stroke-linecap:round; stroke-width:0.25;"/>
<line x1="294.800000" y1="32.000000" x2="310.800000" y2="32.000000"  style="stroke:black; stroke-linecap:round; stroke-width:0.25;"/>
<line x1="294.800000" y1="40.000000" x2="302.800000" y2="40.000000"  style="stroke:black; stroke-linecap:round; stroke-width:0.25;"/>
<line x1="294.800000" y1="56.000000" x2="310.800000" y2="56.000000"  style="stroke:black; stroke-linecap:round; stroke-width:0.25;"/>
<line x1="294.800000" y1="64.000000" x2="310.800000" y2="64.000000"  style="stroke:black; stroke-linecap:round; stroke-width:0.25;"/>
<line x1="302.800000" y1="40.000000" x2="302.800000" y2="48.000000"  style="stroke:black; stroke-linecap:round; stroke-width:0.25;"/>
<line x1="302.800000" y1="48.000000" x2="310.800000" y2="48.000000"  style="stroke:black; stroke-linecap:round; stroke-width:0.25;"/>
<line x1="310.800000" y1="32.000000" x2="310.800000" y2="40.000000"  style="stroke:black; stroke-linecap:round; stroke-width:0.25;"/>
<line x1="310.800000" y1="40.000000" x2="310.800000" y2="40.000000"  style="stroke:black; stroke-linecap:round; stroke-width:0.25;"/>
<line x1="310.800000" y1="40.000000" x2="314.800000" y2="40.000000"  style="stroke:black; stroke-linecap:round; stroke-width:0.25;"/>
<line x1="310.800000" y1="48.000000" x2="314.800000" y2="48.000000"  style="stroke:black; stroke-linecap:round; stroke-width:0.25;"/>
<line x1="310.800000" y1="56.000000" x2="314.800000" y2="56.000000"  style="stroke:black; stroke-linecap:round; stroke-width:0.25;"/>
<line x1="310.800000" y1="64.000000" x2="314.800000" y2="64.000000"  style="stroke:black; stroke-linecap:round; stroke-width:0.25;"/>
<line x1="314.800000" y1="40.000000" x2="318.800000" y2="40.000000"  style="stroke:black; stroke-linecap:round; stroke-width:0.25;"/>
<line x1="314.800000" y1="48.000000" x2="318.800000" y2="48.000000"  style="stroke:black; stroke-linecap:round; stroke-width:0.25;"/>
<line x1="314.800000" y1="56.000000" x2="318.800000" y2="56.000000"  style="stroke:black; stroke-linecap:round; stroke-width:0.25;"/>
<line x1="314.800000" y1="64.000000" x2="318.800000" y2="64.000000"  style="stroke:black; stroke-linecap:round; stroke-width:0.25;"/>
<line x1="318.800000" y1="40.000000" x2="335.040000" y2="39.520000"  style="stroke:black; stroke-linecap:round; stroke-width:0.25;"/>
<line x1="318.800000" y1="48.000000" x2="335.040000" y2="56.080000"  style="stroke:black; stroke-linecap:round; stroke-width:0.25;"/>
<line x1="318.800000" y1="56.000000" x2="335.040000" y2="47.920000"  style="stroke:black; stroke-linecap:round; stroke-width:0.25;"/>
<line x1="318.800000" y1="64.000000" x2="335.040000" y2="64.480000"  style="stroke:black; stroke-linecap:round; stroke-width:0.25;"/>
<line x1="335.040000" y1="39.520000" x2="339.040000" y2="39.520000"  style="stroke:black; stroke-linecap:round; stroke-width:0.25;"/>
<line x1="335.040000" y1="47.920000" x2="339.040000" y2="47.920000"  style="stroke:black; stroke-linecap:round; stroke-width:0.25;"/>
<line x1="335.040000" y1="56.080000" x2="339.040000" y2="56.080000"  style="stroke:black; stroke-linecap:round; stroke-width:0.25;"/>
<line x1="335.040000" y1="64.480000" x2="339.040000" y2="64.480000"  style="stroke:black; stroke-linecap:round; stroke-width:0.25;"/>
<line x1="339.040000" y1="39.520000" x2="343.040000" y2="39.520000"  style="stroke:black; stroke-linecap:round; stroke-width:0.25;"/>
<line x1="339.040000" y1="47.920000" x2="343.040000" y2="47.920000"  style="stroke:black; stroke-linecap:round; stroke-width:0.25;"/>
<line x1="339.040000" y1="56.080000" x2="343.040000" y2="56.080000"  style="stroke:black; stroke-linecap:round; stroke-width:0.25;"/>
<line x1="339.040000" y1="64.480000" x2="343.040000" y2="64.480000"  style="stroke:black; stroke-linecap:round; stroke-width:0.25;"/>
<line x1="343.040000" y1="32.000000" x2="359.040000" y2="32.000000"  style="stroke:black; stroke-linecap:round; stroke-width:0.25;"/>
<line x1="343.040000" y1="39.520000" x2="343.040000" y2="32.000000"  style="stroke:black; stroke-linecap:round; stroke-width:0.25;"/>
<line x1="343.040000" y1="39.520000" x2="343.040000" y2="39.520000"  style="stroke:black; stroke-linecap:round; stroke-width:0.25;"/>
<line x1="343.040000" y1="47.920000" x2="351.040000" y2="47.920000"  style="stroke:black; stroke-linecap:round; stroke-width:0.25;"/>
<line x1="343.040000" y1="56.080000" x2="359.040000" y2="56.080000"  style="stroke:black; stroke-linecap:round; stroke-width:0.25;"/>
<line x1="343.040000" y1="64.480000" x2="351.040000" y2="64.480000"  style="stroke:black; stroke-linecap:round; stroke-width:0.25;"/>
<line x1="351.040000" y1="40.000000" x2="359.040000" y2="40.000000"  style="stroke:black; stroke-linecap:round; stroke-width:0.25;"/>
<line x1="351.040000" y1="47.920000" x2="351.040000" y2="40.000000"  style="stroke:black; stroke-linecap:round; stroke-width:0.25;"/>
<line x1="351.040000" y1="64.480000" x2="351.040000" y2="72.000000"  style="stroke:black; stroke-linecap:round; stroke-width:0.25;"/>
<line x1="351.040000" y1="72.000000" x2="359.040000" y2="72.000000"  style="stroke:black; stroke-linecap:round; stroke-width:0.25;"/>
<line x1="359.040000" y1="32.000000" x2="363.040000" y2="32.000000"  style="stroke:black; stroke-linecap:round; stroke-width:0.25;"/>
<line x1="359.040000" y1="40.000000" x2="363.040000" y2="40.000000"  style="stroke:black; stroke-linecap:round; stroke-width:0.25;"/>
<line x1="359.040000" y1="56.080000" x2="359.040000" y2="64.000000"  style="stroke:black; stroke-linecap:round; stroke-width:0.25;"/>
<line x1="359.040000" y1="64.000000" x2="359.040000" y2="64.000000"  style="stroke:black; stroke-linecap:round; stroke-width:0.25;"/>
<line x1="359.040000" y1="64.000000" x2="363.040000" y2="64.000000"  style="stroke:black; stroke-linecap:round; stroke-width:0.25;"/>
<line x1="359.040000" y1="72.000000" x2="363.040000" y2="72.000000"  style="stroke:black; stroke-linecap:round; stroke-width:0.25;"/>
<line x1="387.040000" y1="36.000000" x2="391.040000" y2="36.000000"  style="stroke:black; stroke-linecap:round; stroke-width:0.25;"/>
<line x1="387.040000" y1="68.000000" x2="391.040000" y2="68.000000"  style="stroke:black; stroke-linecap:round; stroke-width:0.25;"/>
<line x1="391.040000" y1="36.000000" x2="399.040000" y2="36.000000"  style="stroke:black; stroke-linecap:round; stroke-width:0.25;"/>
<line x1="391.040000" y1="56.000000" x2="399.040000" y2="56.000000"  style="stroke:black; stroke-linecap:round; stroke-width:0.25;"/>
<line x1="391.040000" y1="68.000000" x2="391.040000" y2="56.000000"  style="stroke:black; stroke-linecap:round; stroke-width:0.25;"/>
<line x1="391.040000" y1="68.000000" x2="391.040000" y2="68.000000"  style="stroke:black; stroke-linecap:round; stroke-width:0.25;"/>
<line x1="399.040000" y1="36.000000" x2="399.040000" y2="48.000000"  style="stroke:black; stroke-linecap:round; stroke-width:0.25;"/>
<line x1="399.040000" y1="48.000000" x2="399.040000" y2="48.000000"  style="stroke:black; stroke-linecap:round; stroke-width:0.25;"/>
<line x1="399.040000" y1="48.000000" x2="403.040000" y2="48.000000"  style="stroke:black; stroke-linecap:round; stroke-width:0.25;"/>
<line x1="399.040000" y1="56.000000" x2="403.040000" y2="56.000000"  style="stroke:black; stroke-linecap:round; stroke-width:0.25;"/>
<line x1="441.740000" y1="48.000000" x2="445.740000" y2="48.000000"  style="stroke:black; stroke-linecap:round; stroke-width:0.25;"/>
<line x1="441.740000" y1="56.000000" x2="445.740000" y2="56.000000"  style="stroke:black; stroke-linecap:round; stroke-width:0.25;"/>
<line x1="445.740000" y1="48.000000" x2="445.740000" y2="48.000000"  style="stroke:black; stroke-linecap:round; stroke-width:0.25;"/>
<line x1="445.740000" y1="48.000000" x2="449.740000" y2="48.000000"  style="stroke:black; stroke-linecap:round; stroke-width:0.25;"/>
<line x1="445.740000" y1="56.000000" x2="445.740000" y2="56.000000"  style="stroke:black; stroke-linecap:round; stroke-width:0.25;"/>
<line x1="445.740000" y1="56.000000" x2="449.740000" y2="56.000000"  style="stroke:black; stroke-linecap:round; stroke-width:0.25;"/>
<line x1="449.740000" y1="48.000000" x2="453.740000" y2="48.000000"  style="stroke:black; stroke-linecap:round; stroke-width:0.25;"/>
<line x1="449.740000" y1="56.000000" x2="453.740000" y2="56.000000"  style="stroke:black; stroke-linecap:round; stroke-width:0.25;"/>
<line x1="453.740000" y1="48.000000" x2="463.740000" y2="48.000000"  style="stroke:black; stroke-linecap:round; stroke-width:0.25;"/>
<line x1="453.740000" y1="56.000000" x2="463.740000" y2="56.000000"  style="stroke:black; stroke-linecap:round; stroke-width:0.25;"/>
</svg>
