<?xml version="1.0"?>
<svg xmlns="http://www.w3.org/2000/svg" xmlns:xlink="http://www.w3.org/1999/xlink" viewBox="0 0 554.500000 152.000000" width="277.250000mm" height="76.000000mm" version="1.1">
<a xlink:href="mainOsc-0x7fd18c92fc10.svg">
<rect x="1.000000" y="1.000000" width="553.500000" height="151.000000" rx="0" ry="0" style="stroke:none;fill:#cccccc;"/>
<rect x="0.000000" y="0.000000" width="553.500000" height="151.000000" rx="0" ry="0" style="stroke:none;fill:#ffffff;"/>
</a>
<text x="10.000000" y="7.000000" font-family="Arial" font-size="7"></text>
<rect x="49.000000" y="73.000000" width="24.000000" height="24.000000" rx="0" ry="0" style="stroke:none;fill:#cccccc;"/>
<rect x="48.000000" y="72.000000" width="24.000000" height="24.000000" rx="0" ry="0" style="stroke:none;fill:#f44800;"/>
<text x="60.000000" y="86.000000" font-family="Arial" font-size="7" text-anchor="middle" fill="#FFFFFF">94</text>
<circle cx="50.000000" cy="74.000000" r="1"/>
<rect x="49.000000" y="105.000000" width="24.000000" height="24.000000" rx="0" ry="0" style="stroke:none;fill:#cccccc;"/>
<rect x="48.000000" y="104.000000" width="24.000000" height="24.000000" rx="0" ry="0" style="stroke:none;fill:#f44800;"/>
<text x="60.000000" y="118.000000" font-family="Arial" font-size="7" text-anchor="middle" fill="#FFFFFF">72</text>
<circle cx="50.000000" cy="106.000000" r="1"/>
<rect x="89.000000" y="89.000000" width="24.000000" height="24.000000" rx="0" ry="0" style="stroke:none;fill:#cccccc;"/>
<rect x="88.000000" y="88.000000" width="24.000000" height="24.000000" rx="0" ry="0" style="stroke:none;fill:#4B71A1;"/>
<text x="100.000000" y="102.000000" font-family="Arial" font-size="7" text-anchor="middle" fill="#FFFFFF">-</text>
<circle cx="90.000000" cy="90.000000" r="1"/>
<line x1="85.000000" y1="95.000000" x2="88.000000" y2="96.000000"  transform="rotate(0.000000,88.000000,96.000000)" style="stroke: black; stroke-width:0.25;"/>
<line x1="85.000000" y1="97.000000" x2="88.000000" y2="96.000000"  transform="rotate(0.000000,88.000000,96.000000)" style="stroke: black; stroke-width:0.25;"/>
<line x1="85.000000" y1="103.000000" x2="88.000000" y2="104.000000"  transform="rotate(0.000000,88.000000,104.000000)" style="stroke: black; stroke-width:0.25;"/>
<line x1="85.000000" y1="105.000000" x2="88.000000" y2="104.000000"  transform="rotate(0.000000,88.000000,104.000000)" style="stroke: black; stroke-width:0.25;"/>
<rect x="121.000000" y="89.000000" width="24.000000" height="24.000000" rx="0" ry="0" style="stroke:none;fill:#cccccc;"/>
<rect x="120.000000" y="88.000000" width="24.000000" height="24.000000" rx="0" ry="0" style="stroke:none;fill:#4B71A1;"/>
<text x="132.000000" y="102.000000" font-family="Arial" font-size="7" text-anchor="middle" fill="#FFFFFF">int</text>
<circle cx="122.000000" cy="90.000000" r="1"/>
<line x1="117.000000" y1="99.000000" x2="120.000000" y2="100.000000"  transform="rotate(0.000000,120.000000,100.000000)" style="stroke: black; stroke-width:0.25;"/>
<line x1="117.000000" y1="101.000000" x2="120.000000" y2="100.000000"  transform="rotate(0.000000,120.000000,100.000000)" style="stroke: black; stroke-width:0.25;"/>
<rect x="161.000000" y="85.000000" width="25.800000" height="24.000000" rx="0" ry="0" style="stroke:none;fill:#cccccc;"/>
<rect x="160.000000" y="84.000000" width="25.800000" height="24.000000" rx="0" ry="0" style="stroke:none;fill:#4B71A1;"/>
<text x="172.900000" y="98.000000" font-family="Arial" font-size="7" text-anchor="middle" fill="#FFFFFF">fmod</text>
<circle cx="162.000000" cy="86.000000" r="1"/>
<line x1="157.000000" y1="91.000000" x2="160.000000" y2="92.000000"  transform="rotate(0.000000,160.000000,92.000000)" style="stroke: black; stroke-width:0.25;"/>
<line x1="157.000000" y1="93.000000" x2="160.000000" y2="92.000000"  transform="rotate(0.000000,160.000000,92.000000)" style="stroke: black; stroke-width:0.25;"/>
<line x1="157.000000" y1="99.000000" x2="160.000000" y2="100.000000"  transform="rotate(0.000000,160.000000,100.000000)" style="stroke: black; stroke-width:0.25;"/>
<line x1="157.000000" y1="101.000000" x2="160.000000" y2="100.000000"  transform="rotate(0.000000,160.000000,100.000000)" style="stroke: black; stroke-width:0.25;"/>
<a xlink:href="rdmInc-0x7fd18c1b57e0.svg">
<rect x="105.000000" y="33.000000" width="25.800000" height="24.000000" rx="0" ry="0" style="stroke:none;fill:#cccccc;"/>
<rect x="104.000000" y="32.000000" width="25.800000" height="24.000000" rx="0" ry="0" style="stroke:none;fill:#003366;"/>
</a>
<a xlink:href="rdmInc-0x7fd18c1b57e0.svg">
<text x="116.900000" y="46.000000" font-family="Arial" font-size="7" text-anchor="middle" fill="#FFFFFF">rdmInc</text>
</a>
<circle cx="127.800000" cy="54.000000" r="1"/>
<line x1="132.800000" y1="43.000000" x2="129.800000" y2="44.000000"  transform="rotate(0.000000,129.800000,44.000000)" style="stroke: black; stroke-width:0.25;"/>
<line x1="132.800000" y1="45.000000" x2="129.800000" y2="44.000000"  transform="rotate(0.000000,129.800000,44.000000)" style="stroke: black; stroke-width:0.25;"/>
<line x1="187.800000" y1="96.000000" x2="187.800000" y2="92.000000"  style="stroke:black; stroke-linecap:round; stroke-width:0.25;"/>
<line x1="187.800000" y1="92.000000" x2="191.800000" y2="92.000000"  style="stroke:black; stroke-linecap:round; stroke-width:0.25;"/>
<line x1="191.800000" y1="92.000000" x2="191.800000" y2="96.000000"  style="stroke:black; stroke-linecap:round; stroke-width:0.25;"/>
<rect x="210.800000" y="73.000000" width="24.000000" height="24.000000" rx="0" ry="0" style="stroke:none;fill:#cccccc;"/>
<rect x="209.800000" y="72.000000" width="24.000000" height="24.000000" rx="0" ry="0" style="stroke:none;fill:#f44800;"/>
<text x="221.800000" y="86.000000" font-family="Arial" font-size="7" text-anchor="middle" fill="#FFFFFF">72</text>
<circle cx="211.800000" cy="74.000000" r="1"/>
<rect x="250.800000" y="69.000000" width="24.000000" height="24.000000" rx="0" ry="0" style="stroke:none;fill:#cccccc;"/>
<rect x="249.800000" y="68.000000" width="24.000000" height="24.000000" rx="0" ry="0" style="stroke:none;fill:#4B71A1;"/>
<text x="261.800000" y="82.000000" font-family="Arial" font-size="7" text-anchor="middle" fill="#FFFFFF">+</text>
<circle cx="251.800000" cy="70.000000" r="1"/>
<line x1="246.800000" y1="75.000000" x2="249.800000" y2="76.000000"  transform="rotate(0.000000,249.800000,76.000000)" style="stroke: black; stroke-width:0.25;"/>
<line x1="246.800000" y1="77.000000" x2="249.800000" y2="76.000000"  transform="rotate(0.000000,249.800000,76.000000)" style="stroke: black; stroke-width:0.25;"/>
<line x1="246.800000" y1="83.000000" x2="249.800000" y2="84.000000"  transform="rotate(0.000000,249.800000,84.000000)" style="stroke: black; stroke-width:0.25;"/>
<line x1="246.800000" y1="85.000000" x2="249.800000" y2="84.000000"  transform="rotate(0.000000,249.800000,84.000000)" style="stroke: black; stroke-width:0.25;"/>
<rect x="354.800000" y="69.000000" width="38.700000" height="24.000000" rx="0" ry="0" style="stroke:none;fill:#cccccc;"/>
<rect x="353.800000" y="68.000000" width="38.700000" height="24.000000" rx="0" ry="0" style="stroke:none;fill:#4B71A1;"/>
<text x="373.150000" y="82.000000" font-family="Arial" font-size="7" text-anchor="middle" fill="#FFFFFF">select2</text>
<circle cx="355.800000" cy="70.000000" r="1"/>
<line x1="350.800000" y1="71.000000" x2="353.800000" y2="72.000000"  transform="rotate(0.000000,353.800000,72.000000)" style="stroke: black; stroke-width:0.25;"/>
<line x1="350.800000" y1="73.000000" x2="353.800000" y2="72.000000"  transform="rotate(0.000000,353.800000,72.000000)" style="stroke: black; stroke-width:0.25;"/>
<line x1="350.800000" y1="79.000000" x2="353.800000" y2="80.000000"  transform="rotate(0.000000,353.800000,80.000000)" style="stroke: black; stroke-width:0.25;"/>
<line x1="350.800000" y1="81.000000" x2="353.800000" y2="80.000000"  transform="rotate(0.000000,353.800000,80.000000)" style="stroke: black; stroke-width:0.25;"/>
<line x1="350.800000" y1="87.000000" x2="353.800000" y2="88.000000"  transform="rotate(0.000000,353.800000,88.000000)" style="stroke: black; stroke-width:0.25;"/>
<line x1="350.800000" y1="89.000000" x2="353.800000" y2="88.000000"  transform="rotate(0.000000,353.800000,88.000000)" style="stroke: black; stroke-width:0.25;"/>
<line x1="394.500000" y1="80.000000" x2="394.500000" y2="76.000000"  style="stroke:black; stroke-linecap:round; stroke-width:0.25;"/>
<line x1="394.500000" y1="76.000000" x2="398.500000" y2="76.000000"  style="stroke:black; stroke-linecap:round; stroke-width:0.25;"/>
<line x1="398.500000" y1="76.000000" x2="398.500000" y2="80.000000"  style="stroke:black; stroke-linecap:round; stroke-width:0.25;"/>
<line x1="298.800000" y1="51.000000" x2="298.800000" y2="101.000000"  style="stroke: black; stroke-linecap:round; stroke-width:0.25; stroke-dasharray:3,3;"/>
<line x1="298.800000" y1="101.000000" x2="409.500000" y2="101.000000"  style="stroke: black; stroke-linecap:round; stroke-width:0.25; stroke-dasharray:3,3;"/>
<line x1="409.500000" y1="101.000000" x2="409.500000" y2="51.000000"  style="stroke: black; stroke-linecap:round; stroke-width:0.25; stroke-dasharray:3,3;"/>
<line x1="298.800000" y1="51.000000" x2="303.800000" y2="51.000000"  style="stroke: black; stroke-linecap:round; stroke-width:0.25; stroke-dasharray:3,3;"/>
<line x1="326.375000" y1="51.000000" x2="409.500000" y2="51.000000"  style="stroke: black; stroke-linecap:round; stroke-width:0.25; stroke-dasharray:3,3;"/>
<text x="303.800000" y="53.000000" font-family="Arial" font-size="7">gater</text>
<rect x="427.500000" y="69.000000" width="24.000000" height="24.000000" rx="0" ry="0" style="stroke:none;fill:#cccccc;"/>
<rect x="426.500000" y="68.000000" width="24.000000" height="24.000000" rx="0" ry="0" style="stroke:none;fill:#f44800;"/>
<text x="438.500000" y="82.000000" font-family="Arial" font-size="7" text-anchor="middle" fill="#FFFFFF">1</text>
<circle cx="428.500000" cy="70.000000" r="1"/>
<rect x="467.500000" y="65.000000" width="24.000000" height="24.000000" rx="0" ry="0" style="stroke:none;fill:#cccccc;"/>
<rect x="466.500000" y="64.000000" width="24.000000" height="24.000000" rx="0" ry="0" style="stroke:none;fill:#4B71A1;"/>
<text x="478.500000" y="78.000000" font-family="Arial" font-size="7" text-anchor="middle" fill="#FFFFFF">-</text>
<circle cx="468.500000" cy="66.000000" r="1"/>
<line x1="463.500000" y1="71.000000" x2="466.500000" y2="72.000000"  transform="rotate(0.000000,466.500000,72.000000)" style="stroke: black; stroke-width:0.25;"/>
<line x1="463.500000" y1="73.000000" x2="466.500000" y2="72.000000"  transform="rotate(0.000000,466.500000,72.000000)" style="stroke: black; stroke-width:0.25;"/>
<line x1="463.500000" y1="79.000000" x2="466.500000" y2="80.000000"  transform="rotate(0.000000,466.500000,80.000000)" style="stroke: black; stroke-width:0.25;"/>
<line x1="463.500000" y1="81.000000" x2="466.500000" y2="80.000000"  transform="rotate(0.000000,466.500000,80.000000)" style="stroke: black; stroke-width:0.25;"/>
<rect x="499.500000" y="65.000000" width="24.000000" height="24.000000" rx="0" ry="0" style="stroke:none;fill:#cccccc;"/>
<rect x="498.500000" y="64.000000" width="24.000000" height="24.000000" rx="0" ry="0" style="stroke:none;fill:#4B71A1;"/>
<text x="510.500000" y="78.000000" font-family="Arial" font-size="7" text-anchor="middle" fill="#FFFFFF">abs</text>
<circle cx="500.500000" cy="66.000000" r="1"/>
<line x1="495.500000" y1="75.000000" x2="498.500000" y2="76.000000"  transform="rotate(0.000000,498.500000,76.000000)" style="stroke: black; stroke-width:0.25;"/>
<line x1="495.500000" y1="77.000000" x2="498.500000" y2="76.000000"  transform="rotate(0.000000,498.500000,76.000000)" style="stroke: black; stroke-width:0.25;"/>
<line x1="15.000000" y1="15.000000" x2="15.000000" y2="137.000000"  style="stroke: black; stroke-linecap:round; stroke-width:0.25; stroke-dasharray:3,3;"/>
<line x1="15.000000" y1="137.000000" x2="539.500000" y2="137.000000"  style="stroke: black; stroke-linecap:round; stroke-width:0.25; stroke-dasharray:3,3;"/>
<line x1="539.500000" y1="137.000000" x2="539.500000" y2="15.000000"  style="stroke: black; stroke-linecap:round; stroke-width:0.25; stroke-dasharray:3,3;"/>
<line x1="15.000000" y1="15.000000" x2="20.000000" y2="15.000000"  style="stroke: black; stroke-linecap:round; stroke-width:0.25; stroke-dasharray:3,3;"/>
<line x1="61.925000" y1="15.000000" x2="539.500000" y2="15.000000"  style="stroke: black; stroke-linecap:round; stroke-width:0.25; stroke-dasharray:3,3;"/>
<text x="20.000000" y="17.000000" font-family="Arial" font-size="7">rdm(72)(94)</text>
<line x1="541.500000" y1="75.000000" x2="544.500000" y2="76.000000"  transform="rotate(0.000000,544.500000,76.000000)" style="stroke: black; stroke-width:0.25;"/>
<line x1="541.500000" y1="77.000000" x2="544.500000" y2="76.000000"  transform="rotate(0.000000,544.500000,76.000000)" style="stroke: black; stroke-width:0.25;"/>
<line x1="10.000000" y1="76.000000" x2="20.000000" y2="76.000000"  style="stroke:black; stroke-linecap:round; stroke-width:0.25;"/>
<line x1="20.000000" y1="76.000000" x2="24.000000" y2="76.000000"  style="stroke:black; stroke-linecap:round; stroke-width:0.25;"/>
<line x1="24.000000" y1="76.000000" x2="28.000000" y2="76.000000"  style="stroke:black; stroke-linecap:round; stroke-width:0.25;"/>
<line x1="28.000000" y1="24.000000" x2="36.000000" y2="24.000000"  style="stroke:black; stroke-linecap:round; stroke-width:0.25;"/>
<line x1="28.000000" y1="76.000000" x2="28.000000" y2="24.000000"  style="stroke:black; stroke-linecap:round; stroke-width:0.25;"/>
<line x1="28.000000" y1="76.000000" x2="28.000000" y2="76.000000"  style="stroke:black; stroke-linecap:round; stroke-width:0.25;"/>
<line x1="36.000000" y1="24.000000" x2="156.900000" y2="24.000000"  style="stroke:black; stroke-linecap:round; stroke-width:0.25;"/>
<line x1="44.000000" y1="44.000000" x2="44.000000" y2="44.000000"  style="stroke:black; stroke-linecap:round; stroke-width:0.25;"/>
<line x1="44.000000" y1="44.000000" x2="44.000000" y2="64.000000"  style="stroke:black; stroke-linecap:round; stroke-width:0.25;"/>
<line x1="44.000000" y1="64.000000" x2="44.000000" y2="64.000000"  style="stroke:black; stroke-linecap:round; stroke-width:0.25;"/>
<line x1="44.000000" y1="64.000000" x2="96.000000" y2="64.000000"  style="stroke:black; stroke-linecap:round; stroke-width:0.25;"/>
<line x1="72.000000" y1="84.000000" x2="76.000000" y2="84.000000"  style="stroke:black; stroke-linecap:round; stroke-width:0.25;"/>
<line x1="72.000000" y1="116.000000" x2="76.000000" y2="116.000000"  style="stroke:black; stroke-linecap:round; stroke-width:0.25;"/>
<line x1="76.000000" y1="84.000000" x2="84.000000" y2="84.000000"  style="stroke:black; stroke-linecap:round; stroke-width:0.25;"/>
<line x1="76.000000" y1="104.000000" x2="84.000000" y2="104.000000"  style="stroke:black; stroke-linecap:round; stroke-width:0.25;"/>
<line x1="76.000000" y1="116.000000" x2="76.000000" y2="104.000000"  style="stroke:black; stroke-linecap:round; stroke-width:0.25;"/>
<line x1="76.000000" y1="116.000000" x2="76.000000" y2="116.000000"  style="stroke:black; stroke-linecap:round; stroke-width:0.25;"/>
<line x1="84.000000" y1="84.000000" x2="84.000000" y2="96.000000"  style="stroke:black; stroke-linecap:round; stroke-width:0.25;"/>
<line x1="84.000000" y1="96.000000" x2="84.000000" y2="96.000000"  style="stroke:black; stroke-linecap:round; stroke-width:0.25;"/>
<line x1="84.000000" y1="96.000000" x2="88.000000" y2="96.000000"  style="stroke:black; stroke-linecap:round; stroke-width:0.25;"/>
<line x1="84.000000" y1="104.000000" x2="88.000000" y2="104.000000"  style="stroke:black; stroke-linecap:round; stroke-width:0.25;"/>
<line x1="96.000000" y1="64.000000" x2="148.000000" y2="64.000000"  style="stroke:black; stroke-linecap:round; stroke-width:0.25;"/>
<line x1="100.000000" y1="44.000000" x2="44.000000" y2="44.000000"  style="stroke:black; stroke-linecap:round; stroke-width:0.25;"/>
<line x1="104.000000" y1="44.000000" x2="100.000000" y2="44.000000"  style="stroke:black; stroke-linecap:round; stroke-width:0.25;"/>
<line x1="112.000000" y1="100.000000" x2="116.000000" y2="100.000000"  style="stroke:black; stroke-linecap:round; stroke-width:0.25;"/>
<line x1="116.000000" y1="100.000000" x2="116.000000" y2="100.000000"  style="stroke:black; stroke-linecap:round; stroke-width:0.25;"/>
<line x1="116.000000" y1="100.000000" x2="120.000000" y2="100.000000"  style="stroke:black; stroke-linecap:round; stroke-width:0.25;"/>
<line x1="133.800000" y1="44.000000" x2="129.800000" y2="44.000000"  style="stroke:black; stroke-linecap:round; stroke-width:0.25;"/>
<line x1="144.000000" y1="100.000000" x2="148.000000" y2="100.000000"  style="stroke:black; stroke-linecap:round; stroke-width:0.25;"/>
<line x1="148.000000" y1="64.000000" x2="156.000000" y2="64.000000"  style="stroke:black; stroke-linecap:round; stroke-width:0.25;"/>
<line x1="148.000000" y1="100.000000" x2="156.000000" y2="100.000000"  style="stroke:black; stroke-linecap:round; stroke-width:0.25;"/>
<line x1="156.000000" y1="64.000000" x2="156.000000" y2="92.000000"  style="stroke:black; stroke-linecap:round; stroke-width:0.25;"/>
<line x1="156.000000" y1="92.000000" x2="156.000000" y2="92.000000"  style="stroke:black; stroke-linecap:round; stroke-width:0.25;"/>
<line x1="156.000000" y1="92.000000" x2="160.000000" y2="92.000000"  style="stroke:black; stroke-linecap:round; stroke-width:0.25;"/>
<line x1="156.000000" y1="100.000000" x2="160.000000" y2="100.000000"  style="stroke:black; stroke-linecap:round; stroke-width:0.25;"/>
<line x1="156.900000" y1="24.000000" x2="277.800000" y2="24.000000"  style="stroke:black; stroke-linecap:round; stroke-width:0.25;"/>
<line x1="185.800000" y1="96.000000" x2="189.800000" y2="96.000000"  style="stroke:black; stroke-linecap:round; stroke-width:0.25;"/>
<line x1="189.800000" y1="44.000000" x2="133.800000" y2="44.000000"  style="stroke:black; stroke-linecap:round; stroke-width:0.25;"/>
<line x1="189.800000" y1="44.000000" x2="189.800000" y2="44.000000"  style="stroke:black; stroke-linecap:round; stroke-width:0.25;"/>
<line x1="189.800000" y1="92.000000" x2="189.800000" y2="44.000000"  style="stroke:black; stroke-linecap:round; stroke-width:0.25;"/>
<line x1="189.800000" y1="96.000000" x2="191.800000" y2="96.000000"  style="stroke:black; stroke-linecap:round; stroke-width:0.25;"/>
<line x1="191.800000" y1="96.000000" x2="197.800000" y2="96.000000"  style="stroke:black; stroke-linecap:round; stroke-width:0.25;"/>
<line x1="197.800000" y1="64.000000" x2="205.800000" y2="64.000000"  style="stroke:black; stroke-linecap:round; stroke-width:0.25;"/>
<line x1="197.800000" y1="96.000000" x2="197.800000" y2="64.000000"  style="stroke:black; stroke-linecap:round; stroke-width:0.25;"/>
<line x1="197.800000" y1="96.000000" x2="197.800000" y2="96.000000"  style="stroke:black; stroke-linecap:round; stroke-width:0.25;"/>
<line x1="205.800000" y1="64.000000" x2="221.800000" y2="64.000000"  style="stroke:black; stroke-linecap:round; stroke-width:0.25;"/>
<line x1="221.800000" y1="64.000000" x2="237.800000" y2="64.000000"  style="stroke:black; stroke-linecap:round; stroke-width:0.25;"/>
<line x1="233.800000" y1="84.000000" x2="237.800000" y2="84.000000"  style="stroke:black; stroke-linecap:round; stroke-width:0.25;"/>
<line x1="237.800000" y1="64.000000" x2="245.800000" y2="64.000000"  style="stroke:black; stroke-linecap:round; stroke-width:0.25;"/>
<line x1="237.800000" y1="84.000000" x2="245.800000" y2="84.000000"  style="stroke:black; stroke-linecap:round; stroke-width:0.25;"/>
<line x1="245.800000" y1="64.000000" x2="245.800000" y2="76.000000"  style="stroke:black; stroke-linecap:round; stroke-width:0.25;"/>
<line x1="245.800000" y1="76.000000" x2="245.800000" y2="76.000000"  style="stroke:black; stroke-linecap:round; stroke-width:0.25;"/>
<line x1="245.800000" y1="76.000000" x2="249.800000" y2="76.000000"  style="stroke:black; stroke-linecap:round; stroke-width:0.25;"/>
<line x1="245.800000" y1="84.000000" x2="249.800000" y2="84.000000"  style="stroke:black; stroke-linecap:round; stroke-width:0.25;"/>
<line x1="273.800000" y1="80.000000" x2="277.800000" y2="80.000000"  style="stroke:black; stroke-linecap:round; stroke-width:0.25;"/>
<line x1="277.800000" y1="24.000000" x2="293.800000" y2="24.000000"  style="stroke:black; stroke-linecap:round; stroke-width:0.25;"/>
<line x1="277.800000" y1="80.000000" x2="285.800000" y2="80.000000"  style="stroke:black; stroke-linecap:round; stroke-width:0.25;"/>
<line x1="285.800000" y1="80.000000" x2="285.800000" y2="88.000000"  style="stroke:black; stroke-linecap:round; stroke-width:0.25;"/>
<line x1="285.800000" y1="88.000000" x2="293.800000" y2="88.000000"  style="stroke:black; stroke-linecap:round; stroke-width:0.25;"/>
<line x1="293.800000" y1="24.000000" x2="293.800000" y2="80.000000"  style="stroke:black; stroke-linecap:round; stroke-width:0.25;"/>
<line x1="293.800000" y1="80.000000" x2="293.800000" y2="80.000000"  style="stroke:black; stroke-linecap:round; stroke-width:0.25;"/>
<line x1="293.800000" y1="80.000000" x2="303.800000" y2="80.000000"  style="stroke:black; stroke-linecap:round; stroke-width:0.25;"/>
<line x1="293.800000" y1="88.000000" x2="303.800000" y2="88.000000"  style="stroke:black; stroke-linecap:round; stroke-width:0.25;"/>
<line x1="303.800000" y1="80.000000" x2="311.800000" y2="80.000000"  style="stroke:black; stroke-linecap:round; stroke-width:0.25;"/>
<line x1="303.800000" y1="88.000000" x2="311.800000" y2="88.000000"  style="stroke:black; stroke-linecap:round; stroke-width:0.25;"/>
<line x1="311.800000" y1="60.000000" x2="311.800000" y2="60.000000"  style="stroke:black; stroke-linecap:round; stroke-width:0.25;"/>
<line x1="311.800000" y1="60.000000" x2="311.800000" y2="72.000000"  style="stroke:black; stroke-linecap:round; stroke-width:0.25;"/>
<line x1="311.800000" y1="72.000000" x2="311.800000" y2="72.000000"  style="stroke:black; stroke-linecap:round; stroke-width:0.25;"/>
<line x1="311.800000" y1="72.000000" x2="315.800000" y2="72.000000"  style="stroke:black; stroke-linecap:round; stroke-width:0.25;"/>
<line x1="311.800000" y1="80.000000" x2="315.800000" y2="80.000000"  style="stroke:black; stroke-linecap:round; stroke-width:0.25;"/>
<line x1="311.800000" y1="88.000000" x2="315.800000" y2="88.000000"  style="stroke:black; stroke-linecap:round; stroke-width:0.25;"/>
<line x1="315.800000" y1="72.000000" x2="319.800000" y2="72.000000"  style="stroke:black; stroke-linecap:round; stroke-width:0.25;"/>
<line x1="315.800000" y1="80.000000" x2="319.800000" y2="80.000000"  style="stroke:black; stroke-linecap:round; stroke-width:0.25;"/>
<line x1="315.800000" y1="88.000000" x2="319.800000" y2="88.000000"  style="stroke:black; stroke-linecap:round; stroke-width:0.25;"/>
<line x1="319.800000" y1="72.000000" x2="333.800000" y2="79.920000"  style="stroke:black; stroke-linecap:round; stroke-width:0.25;"/>
<line x1="319.800000" y1="80.000000" x2="333.800000" y2="71.840000"  style="stroke:black; stroke-linecap:round; stroke-width:0.25;"/>
<line x1="319.800000" y1="88.000000" x2="333.800000" y2="88.240000"  style="stroke:black; stroke-linecap:round; stroke-width:0.25;"/>
<line x1="333.800000" y1="71.840000" x2="349.800000" y2="71.840000"  style="stroke:black; stroke-linecap:round; stroke-width:0.25;"/>
<line x1="333.800000" y1="79.920000" x2="341.800000" y2="79.920000"  style="stroke:black; stroke-linecap:round; stroke-width:0.25;"/>
<line x1="333.800000" y1="88.000000" x2="349.800000" y2="88.000000"  style="stroke:black; stroke-linecap:round; stroke-width:0.25;"/>
<line x1="333.800000" y1="88.240000" x2="333.800000" y2="88.000000"  style="stroke:black; stroke-linecap:round; stroke-width:0.25;"/>
<line x1="333.800000" y1="88.240000" x2="333.800000" y2="88.240000"  style="stroke:black; stroke-linecap:round; stroke-width:0.25;"/>
<line x1="341.800000" y1="79.920000" x2="341.800000" y2="80.000000"  style="stroke:black; stroke-linecap:round; stroke-width:0.25;"/>
<line x1="341.800000" y1="80.000000" x2="349.800000" y2="80.000000"  style="stroke:black; stroke-linecap:round; stroke-width:0.25;"/>
<line x1="349.800000" y1="71.840000" x2="349.800000" y2="72.000000"  style="stroke:black; stroke-linecap:round; stroke-width:0.25;"/>
<line x1="349.800000" y1="72.000000" x2="349.800000" y2="72.000000"  style="stroke:black; stroke-linecap:round; stroke-width:0.25;"/>
<line x1="349.800000" y1="72.000000" x2="353.800000" y2="72.000000"  style="stroke:black; stroke-linecap:round; stroke-width:0.25;"/>
<line x1="349.800000" y1="80.000000" x2="353.800000" y2="80.000000"  style="stroke:black; stroke-linecap:round; stroke-width:0.25;"/>
<line x1="349.800000" y1="88.000000" x2="353.800000" y2="88.000000"  style="stroke:black; stroke-linecap:round; stroke-width:0.25;"/>
<line x1="354.150000" y1="60.000000" x2="311.800000" y2="60.000000"  style="stroke:black; stroke-linecap:round; stroke-width:0.25;"/>
<line x1="392.500000" y1="80.000000" x2="396.500000" y2="80.000000"  style="stroke:black; stroke-linecap:round; stroke-width:0.25;"/>
<line x1="396.500000" y1="60.000000" x2="354.150000" y2="60.000000"  style="stroke:black; stroke-linecap:round; stroke-width:0.25;"/>
<line x1="396.500000" y1="60.000000" x2="396.500000" y2="60.000000"  style="stroke:black; stroke-linecap:round; stroke-width:0.25;"/>
<line x1="396.500000" y1="76.000000" x2="396.500000" y2="60.000000"  style="stroke:black; stroke-linecap:round; stroke-width:0.25;"/>
<line x1="396.500000" y1="80.000000" x2="398.500000" y2="80.000000"  style="stroke:black; stroke-linecap:round; stroke-width:0.25;"/>
<line x1="398.500000" y1="80.000000" x2="404.500000" y2="80.000000"  style="stroke:black; stroke-linecap:round; stroke-width:0.25;"/>
<line x1="404.500000" y1="80.000000" x2="414.500000" y2="80.000000"  style="stroke:black; stroke-linecap:round; stroke-width:0.25;"/>
<line x1="414.500000" y1="60.000000" x2="422.500000" y2="60.000000"  style="stroke:black; stroke-linecap:round; stroke-width:0.25;"/>
<line x1="414.500000" y1="80.000000" x2="414.500000" y2="60.000000"  style="stroke:black; stroke-linecap:round; stroke-width:0.25;"/>
<line x1="414.500000" y1="80.000000" x2="414.500000" y2="80.000000"  style="stroke:black; stroke-linecap:round; stroke-width:0.25;"/>
<line x1="422.500000" y1="60.000000" x2="438.500000" y2="60.000000"  style="stroke:black; stroke-linecap:round; stroke-width:0.25;"/>
<line x1="438.500000" y1="60.000000" x2="454.500000" y2="60.000000"  style="stroke:black; stroke-linecap:round; stroke-width:0.25;"/>
<line x1="450.500000" y1="80.000000" x2="454.500000" y2="80.000000"  style="stroke:black; stroke-linecap:round; stroke-width:0.25;"/>
<line x1="454.500000" y1="60.000000" x2="462.500000" y2="60.000000"  style="stroke:black; stroke-linecap:round; stroke-width:0.25;"/>
<line x1="454.500000" y1="80.000000" x2="462.500000" y2="80.000000"  style="stroke:black; stroke-linecap:round; stroke-width:0.25;"/>
<line x1="462.500000" y1="60.000000" x2="462.500000" y2="72.000000"  style="stroke:black; stroke-linecap:round; stroke-width:0.25;"/>
<line x1="462.500000" y1="72.000000" x2="462.500000" y2="72.000000"  style="stroke:black; stroke-linecap:round; stroke-width:0.25;"/>
<line x1="462.500000" y1="72.000000" x2="466.500000" y2="72.000000"  style="stroke:black; stroke-linecap:round; stroke-width:0.25;"/>
<line x1="462.500000" y1="80.000000" x2="466.500000" y2="80.000000"  style="stroke:black; stroke-linecap:round; stroke-width:0.25;"/>
<line x1="490.500000" y1="76.000000" x2="494.500000" y2="76.000000"  style="stroke:black; stroke-linecap:round; stroke-width:0.25;"/>
<line x1="494.500000" y1="76.000000" x2="494.500000" y2="76.000000"  style="stroke:black; stroke-linecap:round; stroke-width:0.25;"/>
<line x1="494.500000" y1="76.000000" x2="498.500000" y2="76.000000"  style="stroke:black; stroke-linecap:round; stroke-width:0.25;"/>
<line x1="522.500000" y1="76.000000" x2="526.500000" y2="76.000000"  style="stroke:black; stroke-linecap:round; stroke-width:0.25;"/>
<line x1="526.500000" y1="76.000000" x2="526.500000" y2="76.000000"  style="stroke:black; stroke-linecap:round; stroke-width:0.25;"/>
<line x1="526.500000" y1="76.000000" x2="530.500000" y2="76.000000"  style="stroke:black; stroke-linecap:round; stroke-width:0.25;"/>
<line x1="530.500000" y1="76.000000" x2="534.500000" y2="76.000000"  style="stroke:black; stroke-linecap:round; stroke-width:0.25;"/>
<line x1="534.500000" y1="76.000000" x2="544.500000" y2="76.000000"  style="stroke:black; stroke-linecap:round; stroke-width:0.25;"/>
</svg>
