<?xml version="1.0"?>
<svg xmlns="http://www.w3.org/2000/svg" xmlns:xlink="http://www.w3.org/1999/xlink" viewBox="0 0 189.400000 200.000000" width="94.700000mm" height="100.000000mm" version="1.1">
<a xlink:href="osci-0x7fd18c92f860.svg">
<rect x="1.000000" y="1.000000" width="188.400000" height="199.000000" rx="0" ry="0" style="stroke:none;fill:#cccccc;"/>
<rect x="0.000000" y="0.000000" width="188.400000" height="199.000000" rx="0" ry="0" style="stroke:none;fill:#ffffff;"/>
</a>
<text x="10.000000" y="7.000000" font-family="Arial" font-size="7"></text>
<a xlink:href="tablesize-0x7fd18a417bd0.svg">
<rect x="25.000000" y="25.000000" width="38.700000" height="24.000000" rx="0" ry="0" style="stroke:none;fill:#cccccc;"/>
<rect x="24.000000" y="24.000000" width="38.700000" height="24.000000" rx="0" ry="0" style="stroke:none;fill:#003366;"/>
</a>
<a xlink:href="tablesize-0x7fd18a417bd0.svg">
<text x="43.350000" y="38.000000" font-family="Arial" font-size="7" text-anchor="middle" fill="#FFFFFF">tablesize</text>
</a>
<circle cx="26.000000" cy="26.000000" r="1"/>
<rect x="32.350000" y="57.000000" width="24.000000" height="24.000000" rx="0" ry="0" style="stroke:none;fill:#cccccc;"/>
<rect x="31.350000" y="56.000000" width="24.000000" height="24.000000" rx="0" ry="0" style="stroke:none;fill:#f44800;"/>
<text x="43.350000" y="70.000000" font-family="Arial" font-size="7" text-anchor="middle" fill="#FFFFFF">1</text>
<circle cx="33.350000" cy="58.000000" r="1"/>
<rect x="79.700000" y="41.000000" width="24.000000" height="24.000000" rx="0" ry="0" style="stroke:none;fill:#cccccc;"/>
<rect x="78.700000" y="40.000000" width="24.000000" height="24.000000" rx="0" ry="0" style="stroke:none;fill:#4B71A1;"/>
<text x="90.700000" y="54.000000" font-family="Arial" font-size="7" text-anchor="middle" fill="#FFFFFF">+</text>
<circle cx="80.700000" cy="42.000000" r="1"/>
<line x1="75.700000" y1="47.000000" x2="78.700000" y2="48.000000"  transform="rotate(0.000000,78.700000,48.000000)" style="stroke: black; stroke-width:0.25;"/>
<line x1="75.700000" y1="49.000000" x2="78.700000" y2="48.000000"  transform="rotate(0.000000,78.700000,48.000000)" style="stroke: black; stroke-width:0.25;"/>
<line x1="75.700000" y1="55.000000" x2="78.700000" y2="56.000000"  transform="rotate(0.000000,78.700000,56.000000)" style="stroke: black; stroke-width:0.25;"/>
<line x1="75.700000" y1="57.000000" x2="78.700000" y2="56.000000"  transform="rotate(0.000000,78.700000,56.000000)" style="stroke: black; stroke-width:0.25;"/>
<a xlink:href="sinwaveform-0x7fd18c9237f0.svg">
<rect x="38.550000" y="89.000000" width="51.600000" height="24.000000" rx="0" ry="0" style="stroke:none;fill:#cccccc;"/>
<rect x="37.550000" y="88.000000" width="51.600000" height="24.000000" rx="0" ry="0" style="stroke:none;fill:#003366;"/>
</a>
<a xlink:href="sinwaveform-0x7fd18c9237f0.svg">
<text x="63.350000" y="102.000000" font-family="Arial" font-size="7" text-anchor="middle" fill="#FFFFFF">sinwaveform</text>
</a>
<circle cx="39.550000" cy="90.000000" r="1"/>
<a xlink:href="i-0x7fd18c924930.svg">
<rect x="32.350000" y="121.000000" width="24.000000" height="24.000000" rx="0" ry="0" style="stroke:none;fill:#cccccc;"/>
<rect x="31.350000" y="120.000000" width="24.000000" height="24.000000" rx="0" ry="0" style="stroke:none;fill:#003366;"/>
</a>
<a xlink:href="i-0x7fd18c924930.svg">
<text x="43.350000" y="134.000000" font-family="Arial" font-size="7" text-anchor="middle" fill="#FFFFFF">i</text>
</a>
<circle cx="33.350000" cy="122.000000" r="1"/>
<rect x="32.350000" y="153.000000" width="24.000000" height="24.000000" rx="0" ry="0" style="stroke:none;fill:#cccccc;"/>
<rect x="31.350000" y="152.000000" width="24.000000" height="24.000000" rx="0" ry="0" style="stroke:none;fill:#f44800;"/>
<text x="43.350000" y="166.000000" font-family="Arial" font-size="7" text-anchor="middle" fill="#FFFFFF">1</text>
<circle cx="33.350000" cy="154.000000" r="1"/>
<rect x="72.350000" y="137.000000" width="24.000000" height="24.000000" rx="0" ry="0" style="stroke:none;fill:#cccccc;"/>
<rect x="71.350000" y="136.000000" width="24.000000" height="24.000000" rx="0" ry="0" style="stroke:none;fill:#4B71A1;"/>
<text x="83.350000" y="150.000000" font-family="Arial" font-size="7" text-anchor="middle" fill="#FFFFFF">+</text>
<circle cx="73.350000" cy="138.000000" r="1"/>
<line x1="68.350000" y1="143.000000" x2="71.350000" y2="144.000000"  transform="rotate(0.000000,71.350000,144.000000)" style="stroke: black; stroke-width:0.25;"/>
<line x1="68.350000" y1="145.000000" x2="71.350000" y2="144.000000"  transform="rotate(0.000000,71.350000,144.000000)" style="stroke: black; stroke-width:0.25;"/>
<line x1="68.350000" y1="151.000000" x2="71.350000" y2="152.000000"  transform="rotate(0.000000,71.350000,152.000000)" style="stroke: black; stroke-width:0.25;"/>
<line x1="68.350000" y1="153.000000" x2="71.350000" y2="152.000000"  transform="rotate(0.000000,71.350000,152.000000)" style="stroke: black; stroke-width:0.25;"/>
<rect x="119.700000" y="89.000000" width="38.700000" height="24.000000" rx="0" ry="0" style="stroke:none;fill:#cccccc;"/>
<rect x="118.700000" y="88.000000" width="38.700000" height="24.000000" rx="0" ry="0" style="stroke:none;fill:#4B71A1;"/>
<text x="138.050000" y="102.000000" font-family="Arial" font-size="7" text-anchor="middle" fill="#FFFFFF">rdtable</text>
<circle cx="120.700000" cy="90.000000" r="1"/>
<line x1="115.700000" y1="91.000000" x2="118.700000" y2="92.000000"  transform="rotate(0.000000,118.700000,92.000000)" style="stroke: black; stroke-width:0.25;"/>
<line x1="115.700000" y1="93.000000" x2="118.700000" y2="92.000000"  transform="rotate(0.000000,118.700000,92.000000)" style="stroke: black; stroke-width:0.25;"/>
<line x1="115.700000" y1="99.000000" x2="118.700000" y2="100.000000"  transform="rotate(0.000000,118.700000,100.000000)" style="stroke: black; stroke-width:0.25;"/>
<line x1="115.700000" y1="101.000000" x2="118.700000" y2="100.000000"  transform="rotate(0.000000,118.700000,100.000000)" style="stroke: black; stroke-width:0.25;"/>
<line x1="115.700000" y1="107.000000" x2="118.700000" y2="108.000000"  transform="rotate(0.000000,118.700000,108.000000)" style="stroke: black; stroke-width:0.25;"/>
<line x1="115.700000" y1="109.000000" x2="118.700000" y2="108.000000"  transform="rotate(0.000000,118.700000,108.000000)" style="stroke: black; stroke-width:0.25;"/>
<line x1="15.000000" y1="15.000000" x2="15.000000" y2="185.000000"  style="stroke: black; stroke-linecap:round; stroke-width:0.25; stroke-dasharray:3,3;"/>
<line x1="15.000000" y1="185.000000" x2="174.400000" y2="185.000000"  style="stroke: black; stroke-linecap:round; stroke-width:0.25; stroke-dasharray:3,3;"/>
<line x1="174.400000" y1="185.000000" x2="174.400000" y2="15.000000"  style="stroke: black; stroke-linecap:round; stroke-width:0.25; stroke-dasharray:3,3;"/>
<line x1="15.000000" y1="15.000000" x2="20.000000" y2="15.000000"  style="stroke: black; stroke-linecap:round; stroke-width:0.25; stroke-dasharray:3,3;"/>
<line x1="32.900000" y1="15.000000" x2="174.400000" y2="15.000000"  style="stroke: black; stroke-linecap:round; stroke-width:0.25; stroke-dasharray:3,3;"/>
<text x="20.000000" y="17.000000" font-family="Arial" font-size="7">s2</text>
<line x1="176.400000" y1="99.000000" x2="179.400000" y2="100.000000"  transform="rotate(0.000000,179.400000,100.000000)" style="stroke: black; stroke-width:0.25;"/>
<line x1="176.400000" y1="101.000000" x2="179.400000" y2="100.000000"  transform="rotate(0.000000,179.400000,100.000000)" style="stroke: black; stroke-width:0.25;"/>
<line x1="55.350000" y1="68.000000" x2="59.350000" y2="68.000000"  style="stroke:black; stroke-linecap:round; stroke-width:0.25;"/>
<line x1="55.350000" y1="132.000000" x2="59.350000" y2="132.000000"  style="stroke:black; stroke-linecap:round; stroke-width:0.25;"/>
<line x1="55.350000" y1="164.000000" x2="59.350000" y2="164.000000"  style="stroke:black; stroke-linecap:round; stroke-width:0.25;"/>
<line x1="59.350000" y1="68.000000" x2="66.700000" y2="68.000000"  style="stroke:black; stroke-linecap:round; stroke-width:0.25;"/>
<line x1="59.350000" y1="132.000000" x2="67.350000" y2="132.000000"  style="stroke:black; stroke-linecap:round; stroke-width:0.25;"/>
<line x1="59.350000" y1="152.000000" x2="67.350000" y2="152.000000"  style="stroke:black; stroke-linecap:round; stroke-width:0.25;"/>
<line x1="59.350000" y1="164.000000" x2="59.350000" y2="152.000000"  style="stroke:black; stroke-linecap:round; stroke-width:0.25;"/>
<line x1="59.350000" y1="164.000000" x2="59.350000" y2="164.000000"  style="stroke:black; stroke-linecap:round; stroke-width:0.25;"/>
<line x1="62.700000" y1="36.000000" x2="66.700000" y2="36.000000"  style="stroke:black; stroke-linecap:round; stroke-width:0.25;"/>
<line x1="66.700000" y1="36.000000" x2="74.700000" y2="36.000000"  style="stroke:black; stroke-linecap:round; stroke-width:0.25;"/>
<line x1="66.700000" y1="56.000000" x2="74.700000" y2="56.000000"  style="stroke:black; stroke-linecap:round; stroke-width:0.25;"/>
<line x1="66.700000" y1="68.000000" x2="66.700000" y2="56.000000"  style="stroke:black; stroke-linecap:round; stroke-width:0.25;"/>
<line x1="66.700000" y1="68.000000" x2="66.700000" y2="68.000000"  style="stroke:black; stroke-linecap:round; stroke-width:0.25;"/>
<line x1="67.350000" y1="132.000000" x2="67.350000" y2="144.000000"  style="stroke:black; stroke-linecap:round; stroke-width:0.25;"/>
<line x1="67.350000" y1="144.000000" x2="67.350000" y2="144.000000"  style="stroke:black; stroke-linecap:round; stroke-width:0.25;"/>
<line x1="67.350000" y1="144.000000" x2="71.350000" y2="144.000000"  style="stroke:black; stroke-linecap:round; stroke-width:0.25;"/>
<line x1="67.350000" y1="152.000000" x2="71.350000" y2="152.000000"  style="stroke:black; stroke-linecap:round; stroke-width:0.25;"/>
<line x1="74.700000" y1="36.000000" x2="74.700000" y2="48.000000"  style="stroke:black; stroke-linecap:round; stroke-width:0.25;"/>
<line x1="74.700000" y1="48.000000" x2="74.700000" y2="48.000000"  style="stroke:black; stroke-linecap:round; stroke-width:0.25;"/>
<line x1="74.700000" y1="48.000000" x2="78.700000" y2="48.000000"  style="stroke:black; stroke-linecap:round; stroke-width:0.25;"/>
<line x1="74.700000" y1="56.000000" x2="78.700000" y2="56.000000"  style="stroke:black; stroke-linecap:round; stroke-width:0.25;"/>
<line x1="89.150000" y1="100.000000" x2="93.150000" y2="100.000000"  style="stroke:black; stroke-linecap:round; stroke-width:0.25;"/>
<line x1="93.150000" y1="100.000000" x2="99.350000" y2="100.000000"  style="stroke:black; stroke-linecap:round; stroke-width:0.25;"/>
<line x1="95.350000" y1="148.000000" x2="99.350000" y2="148.000000"  style="stroke:black; stroke-linecap:round; stroke-width:0.25;"/>
<line x1="99.350000" y1="100.000000" x2="106.700000" y2="100.000000"  style="stroke:black; stroke-linecap:round; stroke-width:0.25;"/>
<line x1="99.350000" y1="148.000000" x2="106.700000" y2="148.000000"  style="stroke:black; stroke-linecap:round; stroke-width:0.25;"/>
<line x1="102.700000" y1="52.000000" x2="106.700000" y2="52.000000"  style="stroke:black; stroke-linecap:round; stroke-width:0.25;"/>
<line x1="106.700000" y1="52.000000" x2="114.700000" y2="52.000000"  style="stroke:black; stroke-linecap:round; stroke-width:0.25;"/>
<line x1="106.700000" y1="100.000000" x2="114.700000" y2="100.000000"  style="stroke:black; stroke-linecap:round; stroke-width:0.25;"/>
<line x1="106.700000" y1="108.000000" x2="114.700000" y2="108.000000"  style="stroke:black; stroke-linecap:round; stroke-width:0.25;"/>
<line x1="106.700000" y1="148.000000" x2="106.700000" y2="108.000000"  style="stroke:black; stroke-linecap:round; stroke-width:0.25;"/>
<line x1="106.700000" y1="148.000000" x2="106.700000" y2="148.000000"  style="stroke:black; stroke-linecap:round; stroke-width:0.25;"/>
<line x1="114.700000" y1="52.000000" x2="114.700000" y2="92.000000"  style="stroke:black; stroke-linecap:round; stroke-width:0.25;"/>
<line x1="114.700000" y1="92.000000" x2="114.700000" y2="92.000000"  style="stroke:black; stroke-linecap:round; stroke-width:0.25;"/>
<line x1="114.700000" y1="92.000000" x2="118.700000" y2="92.000000"  style="stroke:black; stroke-linecap:round; stroke-width:0.25;"/>
<line x1="114.700000" y1="100.000000" x2="118.700000" y2="100.000000"  style="stroke:black; stroke-linecap:round; stroke-width:0.25;"/>
<line x1="114.700000" y1="108.000000" x2="118.700000" y2="108.000000"  style="stroke:black; stroke-linecap:round; stroke-width:0.25;"/>
<line x1="157.400000" y1="100.000000" x2="161.400000" y2="100.000000"  style="stroke:black; stroke-linecap:round; stroke-width:0.25;"/>
<line x1="161.400000" y1="100.000000" x2="161.400000" y2="100.000000"  style="stroke:black; stroke-linecap:round; stroke-width:0.25;"/>
<line x1="161.400000" y1="100.000000" x2="165.400000" y2="100.000000"  style="stroke:black; stroke-linecap:round; stroke-width:0.25;"/>
<line x1="165.400000" y1="100.000000" x2="169.400000" y2="100.000000"  style="stroke:black; stroke-linecap:round; stroke-width:0.25;"/>
<line x1="169.400000" y1="100.000000" x2="179.400000" y2="100.000000"  style="stroke:black; stroke-linecap:round; stroke-width:0.25;"/>
</svg>
