<?xml version="1.0"?>
<svg xmlns="http://www.w3.org/2000/svg" xmlns:xlink="http://www.w3.org/1999/xlink" viewBox="0 0 490.500000 104.000000" width="245.250000mm" height="52.000000mm" version="1.1">
<a xlink:href="process.svg">
<rect x="1.000000" y="1.000000" width="489.500000" height="103.000000" rx="0" ry="0" style="stroke:none;fill:#cccccc;"/>
<rect x="0.000000" y="0.000000" width="489.500000" height="103.000000" rx="0" ry="0" style="stroke:none;fill:#ffffff;"/>
</a>
<text x="10.000000" y="7.000000" font-family="Arial" font-size="7"></text>
<rect x="41.000000" y="25.000000" width="24.000000" height="24.000000" rx="0" ry="0" style="stroke:none;fill:#cccccc;"/>
<rect x="40.000000" y="24.000000" width="24.000000" height="24.000000" rx="0" ry="0" style="stroke:none;fill:#47945E;"/>
<text x="52.000000" y="38.000000" font-family="Arial" font-size="7" text-anchor="middle" fill="#FFFFFF">x</text>
<circle cx="42.000000" cy="26.000000" r="1"/>
<line x1="37.000000" y1="35.000000" x2="40.000000" y2="36.000000"  transform="rotate(0.000000,40.000000,36.000000)" style="stroke: black; stroke-width:0.25;"/>
<line x1="37.000000" y1="37.000000" x2="40.000000" y2="36.000000"  transform="rotate(0.000000,40.000000,36.000000)" style="stroke: black; stroke-width:0.25;"/>
<rect x="41.000000" y="57.000000" width="24.000000" height="24.000000" rx="0" ry="0" style="stroke:none;fill:#cccccc;"/>
<rect x="40.000000" y="56.000000" width="24.000000" height="24.000000" rx="0" ry="0" style="stroke:none;fill:#47945E;"/>
<text x="52.000000" y="70.000000" font-family="Arial" font-size="7" text-anchor="middle" fill="#FFFFFF">y</text>
<circle cx="42.000000" cy="58.000000" r="1"/>
<line x1="37.000000" y1="67.000000" x2="40.000000" y2="68.000000"  transform="rotate(0.000000,40.000000,68.000000)" style="stroke: black; stroke-width:0.25;"/>
<line x1="37.000000" y1="69.000000" x2="40.000000" y2="68.000000"  transform="rotate(0.000000,40.000000,68.000000)" style="stroke: black; stroke-width:0.25;"/>
<rect x="73.000000" y="25.000000" width="24.000000" height="24.000000" rx="0" ry="0" style="stroke:none;fill:#cccccc;"/>
<rect x="72.000000" y="24.000000" width="24.000000" height="24.000000" rx="0" ry="0" style="stroke:none;fill:#47945E;"/>
<text x="84.000000" y="38.000000" font-family="Arial" font-size="7" text-anchor="middle" fill="#FFFFFF">x</text>
<circle cx="74.000000" cy="26.000000" r="1"/>
<rect x="73.000000" y="57.000000" width="24.000000" height="24.000000" rx="0" ry="0" style="stroke:none;fill:#cccccc;"/>
<rect x="72.000000" y="56.000000" width="24.000000" height="24.000000" rx="0" ry="0" style="stroke:none;fill:#47945E;"/>
<text x="84.000000" y="70.000000" font-family="Arial" font-size="7" text-anchor="middle" fill="#FFFFFF">y</text>
<circle cx="74.000000" cy="58.000000" r="1"/>
<a xlink:href="zita-0x7fd18d8b0510.svg">
<rect x="113.000000" y="41.000000" width="167.700000" height="24.000000" rx="0" ry="0" style="stroke:none;fill:#cccccc;"/>
<rect x="112.000000" y="40.000000" width="167.700000" height="24.000000" rx="0" ry="0" style="stroke:none;fill:#003366;"/>
</a>
<a xlink:href="zita-0x7fd18d8b0510.svg">
<text x="195.850000" y="54.000000" font-family="Arial" font-size="7" text-anchor="middle" fill="#FFFFFF">zita_rev1_ste....0f, 0.1f))))(4.8e+04f)</text>
</a>
<circle cx="114.000000" cy="42.000000" r="1"/>
<line x1="109.000000" y1="47.000000" x2="112.000000" y2="48.000000"  transform="rotate(0.000000,112.000000,48.000000)" style="stroke: black; stroke-width:0.25;"/>
<line x1="109.000000" y1="49.000000" x2="112.000000" y2="48.000000"  transform="rotate(0.000000,112.000000,48.000000)" style="stroke: black; stroke-width:0.25;"/>
<line x1="109.000000" y1="55.000000" x2="112.000000" y2="56.000000"  transform="rotate(0.000000,112.000000,56.000000)" style="stroke: black; stroke-width:0.25;"/>
<line x1="109.000000" y1="57.000000" x2="112.000000" y2="56.000000"  transform="rotate(0.000000,112.000000,56.000000)" style="stroke: black; stroke-width:0.25;"/>
<a xlink:href="out-0x7fd18d95b580.svg">
<rect x="288.700000" y="41.000000" width="25.800000" height="24.000000" rx="0" ry="0" style="stroke:none;fill:#cccccc;"/>
<rect x="287.700000" y="40.000000" width="25.800000" height="24.000000" rx="0" ry="0" style="stroke:none;fill:#003366;"/>
</a>
<a xlink:href="out-0x7fd18d95b580.svg">
<text x="300.600000" y="54.000000" font-family="Arial" font-size="7" text-anchor="middle" fill="#FFFFFF">out_eq</text>
</a>
<circle cx="289.700000" cy="42.000000" r="1"/>
<line x1="284.700000" y1="47.000000" x2="287.700000" y2="48.000000"  transform="rotate(0.000000,287.700000,48.000000)" style="stroke: black; stroke-width:0.25;"/>
<line x1="284.700000" y1="49.000000" x2="287.700000" y2="48.000000"  transform="rotate(0.000000,287.700000,48.000000)" style="stroke: black; stroke-width:0.25;"/>
<line x1="284.700000" y1="55.000000" x2="287.700000" y2="56.000000"  transform="rotate(0.000000,287.700000,56.000000)" style="stroke: black; stroke-width:0.25;"/>
<line x1="284.700000" y1="57.000000" x2="287.700000" y2="56.000000"  transform="rotate(0.000000,287.700000,56.000000)" style="stroke: black; stroke-width:0.25;"/>
<a xlink:href="dry-0x7fd18d9511e0.svg">
<rect x="322.500000" y="41.000000" width="90.300000" height="24.000000" rx="0" ry="0" style="stroke:none;fill:#cccccc;"/>
<rect x="321.500000" y="40.000000" width="90.300000" height="24.000000" rx="0" ry="0" style="stroke:none;fill:#003366;"/>
</a>
<a xlink:href="dry-0x7fd18d9511e0.svg">
<text x="366.650000" y="54.000000" font-family="Arial" font-size="7" text-anchor="middle" fill="#FFFFFF">dry_wet(x272)(x273)</text>
</a>
<circle cx="323.500000" cy="42.000000" r="1"/>
<line x1="318.500000" y1="47.000000" x2="321.500000" y2="48.000000"  transform="rotate(0.000000,321.500000,48.000000)" style="stroke: black; stroke-width:0.25;"/>
<line x1="318.500000" y1="49.000000" x2="321.500000" y2="48.000000"  transform="rotate(0.000000,321.500000,48.000000)" style="stroke: black; stroke-width:0.25;"/>
<line x1="318.500000" y1="55.000000" x2="321.500000" y2="56.000000"  transform="rotate(0.000000,321.500000,56.000000)" style="stroke: black; stroke-width:0.25;"/>
<line x1="318.500000" y1="57.000000" x2="321.500000" y2="56.000000"  transform="rotate(0.000000,321.500000,56.000000)" style="stroke: black; stroke-width:0.25;"/>
<a xlink:href="out-0x7fd18d95bab0.svg">
<rect x="420.800000" y="41.000000" width="38.700000" height="24.000000" rx="0" ry="0" style="stroke:none;fill:#cccccc;"/>
<rect x="419.800000" y="40.000000" width="38.700000" height="24.000000" rx="0" ry="0" style="stroke:none;fill:#003366;"/>
</a>
<a xlink:href="out-0x7fd18d95bab0.svg">
<text x="439.150000" y="54.000000" font-family="Arial" font-size="7" text-anchor="middle" fill="#FFFFFF">out_level</text>
</a>
<circle cx="421.800000" cy="42.000000" r="1"/>
<line x1="416.800000" y1="47.000000" x2="419.800000" y2="48.000000"  transform="rotate(0.000000,419.800000,48.000000)" style="stroke: black; stroke-width:0.25;"/>
<line x1="416.800000" y1="49.000000" x2="419.800000" y2="48.000000"  transform="rotate(0.000000,419.800000,48.000000)" style="stroke: black; stroke-width:0.25;"/>
<line x1="416.800000" y1="55.000000" x2="419.800000" y2="56.000000"  transform="rotate(0.000000,419.800000,56.000000)" style="stroke: black; stroke-width:0.25;"/>
<line x1="416.800000" y1="57.000000" x2="419.800000" y2="56.000000"  transform="rotate(0.000000,419.800000,56.000000)" style="stroke: black; stroke-width:0.25;"/>
<line x1="15.000000" y1="15.000000" x2="15.000000" y2="89.000000"  style="stroke: black; stroke-linecap:round; stroke-width:0.25; stroke-dasharray:3,3;"/>
<line x1="15.000000" y1="89.000000" x2="475.500000" y2="89.000000"  style="stroke: black; stroke-linecap:round; stroke-width:0.25; stroke-dasharray:3,3;"/>
<line x1="475.500000" y1="89.000000" x2="475.500000" y2="15.000000"  style="stroke: black; stroke-linecap:round; stroke-width:0.25; stroke-dasharray:3,3;"/>
<line x1="15.000000" y1="15.000000" x2="20.000000" y2="15.000000"  style="stroke: black; stroke-linecap:round; stroke-width:0.25; stroke-dasharray:3,3;"/>
<line x1="55.475000" y1="15.000000" x2="475.500000" y2="15.000000"  style="stroke: black; stroke-linecap:round; stroke-width:0.25; stroke-dasharray:3,3;"/>
<text x="20.000000" y="17.000000" font-family="Arial" font-size="7">zita_rev1</text>
<line x1="477.500000" y1="47.000000" x2="480.500000" y2="48.000000"  transform="rotate(0.000000,480.500000,48.000000)" style="stroke: black; stroke-width:0.25;"/>
<line x1="477.500000" y1="49.000000" x2="480.500000" y2="48.000000"  transform="rotate(0.000000,480.500000,48.000000)" style="stroke: black; stroke-width:0.25;"/>
<line x1="477.500000" y1="55.000000" x2="480.500000" y2="56.000000"  transform="rotate(0.000000,480.500000,56.000000)" style="stroke: black; stroke-width:0.25;"/>
<line x1="477.500000" y1="57.000000" x2="480.500000" y2="56.000000"  transform="rotate(0.000000,480.500000,56.000000)" style="stroke: black; stroke-width:0.25;"/>
<line x1="10.000000" y1="48.000000" x2="20.000000" y2="48.000000"  style="stroke:black; stroke-linecap:round; stroke-width:0.25;"/>
<line x1="10.000000" y1="56.000000" x2="20.000000" y2="56.000000"  style="stroke:black; stroke-linecap:round; stroke-width:0.25;"/>
<line x1="20.000000" y1="48.000000" x2="24.000000" y2="48.000000"  style="stroke:black; stroke-linecap:round; stroke-width:0.25;"/>
<line x1="20.000000" y1="56.000000" x2="24.000000" y2="56.000000"  style="stroke:black; stroke-linecap:round; stroke-width:0.25;"/>
<line x1="24.000000" y1="48.000000" x2="28.000000" y2="48.000000"  style="stroke:black; stroke-linecap:round; stroke-width:0.25;"/>
<line x1="24.000000" y1="56.000000" x2="28.000000" y2="56.000000"  style="stroke:black; stroke-linecap:round; stroke-width:0.25;"/>
<line x1="28.000000" y1="36.000000" x2="36.000000" y2="36.000000"  style="stroke:black; stroke-linecap:round; stroke-width:0.25;"/>
<line x1="28.000000" y1="48.000000" x2="28.000000" y2="36.000000"  style="stroke:black; stroke-linecap:round; stroke-width:0.25;"/>
<line x1="28.000000" y1="48.000000" x2="28.000000" y2="48.000000"  style="stroke:black; stroke-linecap:round; stroke-width:0.25;"/>
<line x1="28.000000" y1="56.000000" x2="36.000000" y2="56.000000"  style="stroke:black; stroke-linecap:round; stroke-width:0.25;"/>
<line x1="36.000000" y1="36.000000" x2="40.000000" y2="36.000000"  style="stroke:black; stroke-linecap:round; stroke-width:0.25;"/>
<line x1="36.000000" y1="56.000000" x2="36.000000" y2="68.000000"  style="stroke:black; stroke-linecap:round; stroke-width:0.25;"/>
<line x1="36.000000" y1="68.000000" x2="36.000000" y2="68.000000"  style="stroke:black; stroke-linecap:round; stroke-width:0.25;"/>
<line x1="36.000000" y1="68.000000" x2="40.000000" y2="68.000000"  style="stroke:black; stroke-linecap:round; stroke-width:0.25;"/>
<line x1="96.000000" y1="36.000000" x2="100.000000" y2="36.000000"  style="stroke:black; stroke-linecap:round; stroke-width:0.25;"/>
<line x1="96.000000" y1="68.000000" x2="100.000000" y2="68.000000"  style="stroke:black; stroke-linecap:round; stroke-width:0.25;"/>
<line x1="100.000000" y1="36.000000" x2="108.000000" y2="36.000000"  style="stroke:black; stroke-linecap:round; stroke-width:0.25;"/>
<line x1="100.000000" y1="56.000000" x2="108.000000" y2="56.000000"  style="stroke:black; stroke-linecap:round; stroke-width:0.25;"/>
<line x1="100.000000" y1="68.000000" x2="100.000000" y2="56.000000"  style="stroke:black; stroke-linecap:round; stroke-width:0.25;"/>
<line x1="100.000000" y1="68.000000" x2="100.000000" y2="68.000000"  style="stroke:black; stroke-linecap:round; stroke-width:0.25;"/>
<line x1="108.000000" y1="36.000000" x2="108.000000" y2="48.000000"  style="stroke:black; stroke-linecap:round; stroke-width:0.25;"/>
<line x1="108.000000" y1="48.000000" x2="108.000000" y2="48.000000"  style="stroke:black; stroke-linecap:round; stroke-width:0.25;"/>
<line x1="108.000000" y1="48.000000" x2="112.000000" y2="48.000000"  style="stroke:black; stroke-linecap:round; stroke-width:0.25;"/>
<line x1="108.000000" y1="56.000000" x2="112.000000" y2="56.000000"  style="stroke:black; stroke-linecap:round; stroke-width:0.25;"/>
<line x1="279.700000" y1="48.000000" x2="283.700000" y2="48.000000"  style="stroke:black; stroke-linecap:round; stroke-width:0.25;"/>
<line x1="279.700000" y1="56.000000" x2="283.700000" y2="56.000000"  style="stroke:black; stroke-linecap:round; stroke-width:0.25;"/>
<line x1="283.700000" y1="48.000000" x2="283.700000" y2="48.000000"  style="stroke:black; stroke-linecap:round; stroke-width:0.25;"/>
<line x1="283.700000" y1="48.000000" x2="287.700000" y2="48.000000"  style="stroke:black; stroke-linecap:round; stroke-width:0.25;"/>
<line x1="283.700000" y1="56.000000" x2="283.700000" y2="56.000000"  style="stroke:black; stroke-linecap:round; stroke-width:0.25;"/>
<line x1="283.700000" y1="56.000000" x2="287.700000" y2="56.000000"  style="stroke:black; stroke-linecap:round; stroke-width:0.25;"/>
<line x1="313.500000" y1="48.000000" x2="317.500000" y2="48.000000"  style="stroke:black; stroke-linecap:round; stroke-width:0.25;"/>
<line x1="313.500000" y1="56.000000" x2="317.500000" y2="56.000000"  style="stroke:black; stroke-linecap:round; stroke-width:0.25;"/>
<line x1="317.500000" y1="48.000000" x2="317.500000" y2="48.000000"  style="stroke:black; stroke-linecap:round; stroke-width:0.25;"/>
<line x1="317.500000" y1="48.000000" x2="321.500000" y2="48.000000"  style="stroke:black; stroke-linecap:round; stroke-width:0.25;"/>
<line x1="317.500000" y1="56.000000" x2="317.500000" y2="56.000000"  style="stroke:black; stroke-linecap:round; stroke-width:0.25;"/>
<line x1="317.500000" y1="56.000000" x2="321.500000" y2="56.000000"  style="stroke:black; stroke-linecap:round; stroke-width:0.25;"/>
<line x1="411.800000" y1="48.000000" x2="415.800000" y2="48.000000"  style="stroke:black; stroke-linecap:round; stroke-width:0.25;"/>
<line x1="411.800000" y1="56.000000" x2="415.800000" y2="56.000000"  style="stroke:black; stroke-linecap:round; stroke-width:0.25;"/>
<line x1="415.800000" y1="48.000000" x2="415.800000" y2="48.000000"  style="stroke:black; stroke-linecap:round; stroke-width:0.25;"/>
<line x1="415.800000" y1="48.000000" x2="419.800000" y2="48.000000"  style="stroke:black; stroke-linecap:round; stroke-width:0.25;"/>
<line x1="415.800000" y1="56.000000" x2="415.800000" y2="56.000000"  style="stroke:black; stroke-linecap:round; stroke-width:0.25;"/>
<line x1="415.800000" y1="56.000000" x2="419.800000" y2="56.000000"  style="stroke:black; stroke-linecap:round; stroke-width:0.25;"/>
<line x1="458.500000" y1="48.000000" x2="462.500000" y2="48.000000"  style="stroke:black; stroke-linecap:round; stroke-width:0.25;"/>
<line x1="458.500000" y1="56.000000" x2="462.500000" y2="56.000000"  style="stroke:black; stroke-linecap:round; stroke-width:0.25;"/>
<line x1="462.500000" y1="48.000000" x2="462.500000" y2="48.000000"  style="stroke:black; stroke-linecap:round; stroke-width:0.25;"/>
<line x1="462.500000" y1="48.000000" x2="466.500000" y2="48.000000"  style="stroke:black; stroke-linecap:round; stroke-width:0.25;"/>
<line x1="462.500000" y1="56.000000" x2="462.500000" y2="56.000000"  style="stroke:black; stroke-linecap:round; stroke-width:0.25;"/>
<line x1="462.500000" y1="56.000000" x2="466.500000" y2="56.000000"  style="stroke:black; stroke-linecap:round; stroke-width:0.25;"/>
<line x1="466.500000" y1="48.000000" x2="470.500000" y2="48.000000"  style="stroke:black; stroke-linecap:round; stroke-width:0.25;"/>
<line x1="466.500000" y1="56.000000" x2="470.500000" y2="56.000000"  style="stroke:black; stroke-linecap:round; stroke-width:0.25;"/>
<line x1="470.500000" y1="48.000000" x2="480.500000" y2="48.000000"  style="stroke:black; stroke-linecap:round; stroke-width:0.25;"/>
<line x1="470.500000" y1="56.000000" x2="480.500000" y2="56.000000"  style="stroke:black; stroke-linecap:round; stroke-width:0.25;"/>
</svg>
