<?xml version="1.0"?>
<svg xmlns="http://www.w3.org/2000/svg" xmlns:xlink="http://www.w3.org/1999/xlink" viewBox="0 0 277.600000 680.000000" width="138.800000mm" height="340.000000mm" version="1.1">
<rect x="1.000000" y="1.000000" width="276.600000" height="679.000000" rx="0" ry="0" style="stroke:none;fill:#cccccc;"/>
<rect x="0.000000" y="0.000000" width="276.600000" height="679.000000" rx="0" ry="0" style="stroke:none;fill:#ffffff;"/>
<text x="10.000000" y="7.000000" font-family="Arial" font-size="7"></text>
<a xlink:href="NFLeks-0x7f84fe8a86f0.svg">
<rect x="31.450000" y="25.000000" width="38.700000" height="24.000000" rx="0" ry="0" style="stroke:none;fill:#cccccc;"/>
<rect x="30.450000" y="24.000000" width="38.700000" height="24.000000" rx="0" ry="0" style="stroke:none;fill:#003366;"/>
</a>
<a xlink:href="NFLeks-0x7f84fe8a86f0.svg">
<text x="49.800000" y="38.000000" font-family="Arial" font-size="7" text-anchor="middle" fill="#FFFFFF">NFLeks(0)</text>
</a>
<circle cx="32.450000" cy="26.000000" r="1"/>
<a xlink:href="NFLeks-0x7f84fe985240.svg">
<rect x="31.450000" y="57.000000" width="38.700000" height="24.000000" rx="0" ry="0" style="stroke:none;fill:#cccccc;"/>
<rect x="30.450000" y="56.000000" width="38.700000" height="24.000000" rx="0" ry="0" style="stroke:none;fill:#003366;"/>
</a>
<a xlink:href="NFLeks-0x7f84fe985240.svg">
<text x="49.800000" y="70.000000" font-family="Arial" font-size="7" text-anchor="middle" fill="#FFFFFF">NFLeks(1)</text>
</a>
<circle cx="32.450000" cy="58.000000" r="1"/>
<a xlink:href="NFLeks-0x7f84fbd0f850.svg">
<rect x="31.450000" y="89.000000" width="38.700000" height="24.000000" rx="0" ry="0" style="stroke:none;fill:#cccccc;"/>
<rect x="30.450000" y="88.000000" width="38.700000" height="24.000000" rx="0" ry="0" style="stroke:none;fill:#003366;"/>
</a>
<a xlink:href="NFLeks-0x7f84fbd0f850.svg">
<text x="49.800000" y="102.000000" font-family="Arial" font-size="7" text-anchor="middle" fill="#FFFFFF">NFLeks(2)</text>
</a>
<circle cx="32.450000" cy="90.000000" r="1"/>
<a xlink:href="NFLeks-0x7f84feb1d6c0.svg">
<rect x="31.450000" y="121.000000" width="38.700000" height="24.000000" rx="0" ry="0" style="stroke:none;fill:#cccccc;"/>
<rect x="30.450000" y="120.000000" width="38.700000" height="24.000000" rx="0" ry="0" style="stroke:none;fill:#003366;"/>
</a>
<a xlink:href="NFLeks-0x7f84feb1d6c0.svg">
<text x="49.800000" y="134.000000" font-family="Arial" font-size="7" text-anchor="middle" fill="#FFFFFF">NFLeks(3)</text>
</a>
<circle cx="32.450000" cy="122.000000" r="1"/>
<a xlink:href="NFLeks-0x7f84febf61c0.svg">
<rect x="31.450000" y="153.000000" width="38.700000" height="24.000000" rx="0" ry="0" style="stroke:none;fill:#cccccc;"/>
<rect x="30.450000" y="152.000000" width="38.700000" height="24.000000" rx="0" ry="0" style="stroke:none;fill:#003366;"/>
</a>
<a xlink:href="NFLeks-0x7f84febf61c0.svg">
<text x="49.800000" y="166.000000" font-family="Arial" font-size="7" text-anchor="middle" fill="#FFFFFF">NFLeks(4)</text>
</a>
<circle cx="32.450000" cy="154.000000" r="1"/>
<a xlink:href="NFLeks-0x7f84fea8e500.svg">
<rect x="31.450000" y="185.000000" width="38.700000" height="24.000000" rx="0" ry="0" style="stroke:none;fill:#cccccc;"/>
<rect x="30.450000" y="184.000000" width="38.700000" height="24.000000" rx="0" ry="0" style="stroke:none;fill:#003366;"/>
</a>
<a xlink:href="NFLeks-0x7f84fea8e500.svg">
<text x="49.800000" y="198.000000" font-family="Arial" font-size="7" text-anchor="middle" fill="#FFFFFF">NFLeks(5)</text>
</a>
<circle cx="32.450000" cy="186.000000" r="1"/>
<a xlink:href="NFLeks-0x7f84fbc882d0.svg">
<rect x="31.450000" y="217.000000" width="38.700000" height="24.000000" rx="0" ry="0" style="stroke:none;fill:#cccccc;"/>
<rect x="30.450000" y="216.000000" width="38.700000" height="24.000000" rx="0" ry="0" style="stroke:none;fill:#003366;"/>
</a>
<a xlink:href="NFLeks-0x7f84fbc882d0.svg">
<text x="49.800000" y="230.000000" font-family="Arial" font-size="7" text-anchor="middle" fill="#FFFFFF">NFLeks(6)</text>
</a>
<circle cx="32.450000" cy="218.000000" r="1"/>
<a xlink:href="NFLeks-0x7f84fed461b0.svg">
<rect x="31.450000" y="249.000000" width="38.700000" height="24.000000" rx="0" ry="0" style="stroke:none;fill:#cccccc;"/>
<rect x="30.450000" y="248.000000" width="38.700000" height="24.000000" rx="0" ry="0" style="stroke:none;fill:#003366;"/>
</a>
<a xlink:href="NFLeks-0x7f84fed461b0.svg">
<text x="49.800000" y="262.000000" font-family="Arial" font-size="7" text-anchor="middle" fill="#FFFFFF">NFLeks(7)</text>
</a>
<circle cx="32.450000" cy="250.000000" r="1"/>
<a xlink:href="NFLeks-0x7f84fee22d00.svg">
<rect x="31.450000" y="281.000000" width="38.700000" height="24.000000" rx="0" ry="0" style="stroke:none;fill:#cccccc;"/>
<rect x="30.450000" y="280.000000" width="38.700000" height="24.000000" rx="0" ry="0" style="stroke:none;fill:#003366;"/>
</a>
<a xlink:href="NFLeks-0x7f84fee22d00.svg">
<text x="49.800000" y="294.000000" font-family="Arial" font-size="7" text-anchor="middle" fill="#FFFFFF">NFLeks(8)</text>
</a>
<circle cx="32.450000" cy="282.000000" r="1"/>
<a xlink:href="NFLeks-0x7f84fdf5fc60.svg">
<rect x="31.450000" y="313.000000" width="38.700000" height="24.000000" rx="0" ry="0" style="stroke:none;fill:#cccccc;"/>
<rect x="30.450000" y="312.000000" width="38.700000" height="24.000000" rx="0" ry="0" style="stroke:none;fill:#003366;"/>
</a>
<a xlink:href="NFLeks-0x7f84fdf5fc60.svg">
<text x="49.800000" y="326.000000" font-family="Arial" font-size="7" text-anchor="middle" fill="#FFFFFF">NFLeks(9)</text>
</a>
<circle cx="32.450000" cy="314.000000" r="1"/>
<a xlink:href="NFLeks-0x7f84fef3c710.svg">
<rect x="25.000000" y="345.000000" width="51.600000" height="24.000000" rx="0" ry="0" style="stroke:none;fill:#cccccc;"/>
<rect x="24.000000" y="344.000000" width="51.600000" height="24.000000" rx="0" ry="0" style="stroke:none;fill:#003366;"/>
</a>
<a xlink:href="NFLeks-0x7f84fef3c710.svg">
<text x="49.800000" y="358.000000" font-family="Arial" font-size="7" text-anchor="middle" fill="#FFFFFF">NFLeks(10)</text>
</a>
<circle cx="26.000000" cy="346.000000" r="1"/>
<a xlink:href="NFLeks-0x7f84ff06a3b0.svg">
<rect x="25.000000" y="377.000000" width="51.600000" height="24.000000" rx="0" ry="0" style="stroke:none;fill:#cccccc;"/>
<rect x="24.000000" y="376.000000" width="51.600000" height="24.000000" rx="0" ry="0" style="stroke:none;fill:#003366;"/>
</a>
<a xlink:href="NFLeks-0x7f84ff06a3b0.svg">
<text x="49.800000" y="390.000000" font-family="Arial" font-size="7" text-anchor="middle" fill="#FFFFFF">NFLeks(11)</text>
</a>
<circle cx="26.000000" cy="378.000000" r="1"/>
<a xlink:href="NFLeks-0x7f84ff14e640.svg">
<rect x="25.000000" y="409.000000" width="51.600000" height="24.000000" rx="0" ry="0" style="stroke:none;fill:#cccccc;"/>
<rect x="24.000000" y="408.000000" width="51.600000" height="24.000000" rx="0" ry="0" style="stroke:none;fill:#003366;"/>
</a>
<a xlink:href="NFLeks-0x7f84ff14e640.svg">
<text x="49.800000" y="422.000000" font-family="Arial" font-size="7" text-anchor="middle" fill="#FFFFFF">NFLeks(12)</text>
</a>
<circle cx="26.000000" cy="410.000000" r="1"/>
<a xlink:href="NFLeks-0x7f84fde535c0.svg">
<rect x="25.000000" y="441.000000" width="51.600000" height="24.000000" rx="0" ry="0" style="stroke:none;fill:#cccccc;"/>
<rect x="24.000000" y="440.000000" width="51.600000" height="24.000000" rx="0" ry="0" style="stroke:none;fill:#003366;"/>
</a>
<a xlink:href="NFLeks-0x7f84fde535c0.svg">
<text x="49.800000" y="454.000000" font-family="Arial" font-size="7" text-anchor="middle" fill="#FFFFFF">NFLeks(13)</text>
</a>
<circle cx="26.000000" cy="442.000000" r="1"/>
<a xlink:href="NFLeks-0x7f84ff37b560.svg">
<rect x="25.000000" y="473.000000" width="51.600000" height="24.000000" rx="0" ry="0" style="stroke:none;fill:#cccccc;"/>
<rect x="24.000000" y="472.000000" width="51.600000" height="24.000000" rx="0" ry="0" style="stroke:none;fill:#003366;"/>
</a>
<a xlink:href="NFLeks-0x7f84ff37b560.svg">
<text x="49.800000" y="486.000000" font-family="Arial" font-size="7" text-anchor="middle" fill="#FFFFFF">NFLeks(14)</text>
</a>
<circle cx="26.000000" cy="474.000000" r="1"/>
<a xlink:href="NFLeks-0x7f84ff4580b0.svg">
<rect x="25.000000" y="505.000000" width="51.600000" height="24.000000" rx="0" ry="0" style="stroke:none;fill:#cccccc;"/>
<rect x="24.000000" y="504.000000" width="51.600000" height="24.000000" rx="0" ry="0" style="stroke:none;fill:#003366;"/>
</a>
<a xlink:href="NFLeks-0x7f84ff4580b0.svg">
<text x="49.800000" y="518.000000" font-family="Arial" font-size="7" text-anchor="middle" fill="#FFFFFF">NFLeks(15)</text>
</a>
<circle cx="26.000000" cy="506.000000" r="1"/>
<a xlink:href="NFLeks-0x7f84ff531c80.svg">
<rect x="25.000000" y="537.000000" width="51.600000" height="24.000000" rx="0" ry="0" style="stroke:none;fill:#cccccc;"/>
<rect x="24.000000" y="536.000000" width="51.600000" height="24.000000" rx="0" ry="0" style="stroke:none;fill:#003366;"/>
</a>
<a xlink:href="NFLeks-0x7f84ff531c80.svg">
<text x="49.800000" y="550.000000" font-family="Arial" font-size="7" text-anchor="middle" fill="#FFFFFF">NFLeks(16)</text>
</a>
<circle cx="26.000000" cy="538.000000" r="1"/>
<a xlink:href="NFLeks-0x7f84ff27a500.svg">
<rect x="25.000000" y="569.000000" width="51.600000" height="24.000000" rx="0" ry="0" style="stroke:none;fill:#cccccc;"/>
<rect x="24.000000" y="568.000000" width="51.600000" height="24.000000" rx="0" ry="0" style="stroke:none;fill:#003366;"/>
</a>
<a xlink:href="NFLeks-0x7f84ff27a500.svg">
<text x="49.800000" y="582.000000" font-family="Arial" font-size="7" text-anchor="middle" fill="#FFFFFF">NFLeks(17)</text>
</a>
<circle cx="26.000000" cy="570.000000" r="1"/>
<a xlink:href="NFLeks-0x7f84ff635c50.svg">
<rect x="25.000000" y="601.000000" width="51.600000" height="24.000000" rx="0" ry="0" style="stroke:none;fill:#cccccc;"/>
<rect x="24.000000" y="600.000000" width="51.600000" height="24.000000" rx="0" ry="0" style="stroke:none;fill:#003366;"/>
</a>
<a xlink:href="NFLeks-0x7f84ff635c50.svg">
<text x="49.800000" y="614.000000" font-family="Arial" font-size="7" text-anchor="middle" fill="#FFFFFF">NFLeks(18)</text>
</a>
<circle cx="26.000000" cy="602.000000" r="1"/>
<a xlink:href="NFLeks-0x7f84ff2f2580.svg">
<rect x="25.000000" y="633.000000" width="51.600000" height="24.000000" rx="0" ry="0" style="stroke:none;fill:#cccccc;"/>
<rect x="24.000000" y="632.000000" width="51.600000" height="24.000000" rx="0" ry="0" style="stroke:none;fill:#003366;"/>
</a>
<a xlink:href="NFLeks-0x7f84ff2f2580.svg">
<text x="49.800000" y="646.000000" font-family="Arial" font-size="7" text-anchor="middle" fill="#FFFFFF">NFLeks(19)</text>
</a>
<circle cx="26.000000" cy="634.000000" r="1"/>
<line x1="15.000000" y1="15.000000" x2="15.000000" y2="665.000000"  style="stroke: black; stroke-linecap:round; stroke-width:0.25; stroke-dasharray:3,3;"/>
<line x1="15.000000" y1="665.000000" x2="262.600000" y2="665.000000"  style="stroke: black; stroke-linecap:round; stroke-width:0.25; stroke-dasharray:3,3;"/>
<line x1="262.600000" y1="665.000000" x2="262.600000" y2="15.000000"  style="stroke: black; stroke-linecap:round; stroke-width:0.25; stroke-dasharray:3,3;"/>
<line x1="15.000000" y1="15.000000" x2="20.000000" y2="15.000000"  style="stroke: black; stroke-linecap:round; stroke-width:0.25; stroke-dasharray:3,3;"/>
<line x1="49.025000" y1="15.000000" x2="262.600000" y2="15.000000"  style="stroke: black; stroke-linecap:round; stroke-width:0.25; stroke-dasharray:3,3;"/>
<text x="20.000000" y="17.000000" font-family="Arial" font-size="7">process</text>
<line x1="264.600000" y1="339.000000" x2="267.600000" y2="340.000000"  transform="rotate(0.000000,267.600000,340.000000)" style="stroke: black; stroke-width:0.25;"/>
<line x1="264.600000" y1="341.000000" x2="267.600000" y2="340.000000"  transform="rotate(0.000000,267.600000,340.000000)" style="stroke: black; stroke-width:0.25;"/>
<line x1="69.150000" y1="36.000000" x2="73.150000" y2="36.000000"  style="stroke:black; stroke-linecap:round; stroke-width:0.25;"/>
<line x1="69.150000" y1="68.000000" x2="73.150000" y2="68.000000"  style="stroke:black; stroke-linecap:round; stroke-width:0.25;"/>
<line x1="69.150000" y1="100.000000" x2="73.150000" y2="100.000000"  style="stroke:black; stroke-linecap:round; stroke-width:0.25;"/>
<line x1="69.150000" y1="132.000000" x2="73.150000" y2="132.000000"  style="stroke:black; stroke-linecap:round; stroke-width:0.25;"/>
<line x1="69.150000" y1="164.000000" x2="73.150000" y2="164.000000"  style="stroke:black; stroke-linecap:round; stroke-width:0.25;"/>
<line x1="69.150000" y1="196.000000" x2="73.150000" y2="196.000000"  style="stroke:black; stroke-linecap:round; stroke-width:0.25;"/>
<line x1="69.150000" y1="228.000000" x2="73.150000" y2="228.000000"  style="stroke:black; stroke-linecap:round; stroke-width:0.25;"/>
<line x1="69.150000" y1="260.000000" x2="73.150000" y2="260.000000"  style="stroke:black; stroke-linecap:round; stroke-width:0.25;"/>
<line x1="69.150000" y1="292.000000" x2="73.150000" y2="292.000000"  style="stroke:black; stroke-linecap:round; stroke-width:0.25;"/>
<line x1="69.150000" y1="324.000000" x2="73.150000" y2="324.000000"  style="stroke:black; stroke-linecap:round; stroke-width:0.25;"/>
<line x1="73.150000" y1="36.000000" x2="79.600000" y2="36.000000"  style="stroke:black; stroke-linecap:round; stroke-width:0.25;"/>
<line x1="73.150000" y1="68.000000" x2="79.600000" y2="68.000000"  style="stroke:black; stroke-linecap:round; stroke-width:0.25;"/>
<line x1="73.150000" y1="100.000000" x2="79.600000" y2="100.000000"  style="stroke:black; stroke-linecap:round; stroke-width:0.25;"/>
<line x1="73.150000" y1="132.000000" x2="79.600000" y2="132.000000"  style="stroke:black; stroke-linecap:round; stroke-width:0.25;"/>
<line x1="73.150000" y1="164.000000" x2="79.600000" y2="164.000000"  style="stroke:black; stroke-linecap:round; stroke-width:0.25;"/>
<line x1="73.150000" y1="196.000000" x2="79.600000" y2="196.000000"  style="stroke:black; stroke-linecap:round; stroke-width:0.25;"/>
<line x1="73.150000" y1="228.000000" x2="79.600000" y2="228.000000"  style="stroke:black; stroke-linecap:round; stroke-width:0.25;"/>
<line x1="73.150000" y1="260.000000" x2="79.600000" y2="260.000000"  style="stroke:black; stroke-linecap:round; stroke-width:0.25;"/>
<line x1="73.150000" y1="292.000000" x2="79.600000" y2="292.000000"  style="stroke:black; stroke-linecap:round; stroke-width:0.25;"/>
<line x1="73.150000" y1="324.000000" x2="79.600000" y2="324.000000"  style="stroke:black; stroke-linecap:round; stroke-width:0.25;"/>
<line x1="75.600000" y1="356.000000" x2="79.600000" y2="356.000000"  style="stroke:black; stroke-linecap:round; stroke-width:0.25;"/>
<line x1="75.600000" y1="388.000000" x2="79.600000" y2="388.000000"  style="stroke:black; stroke-linecap:round; stroke-width:0.25;"/>
<line x1="75.600000" y1="420.000000" x2="79.600000" y2="420.000000"  style="stroke:black; stroke-linecap:round; stroke-width:0.25;"/>
<line x1="75.600000" y1="452.000000" x2="79.600000" y2="452.000000"  style="stroke:black; stroke-linecap:round; stroke-width:0.25;"/>
<line x1="75.600000" y1="484.000000" x2="79.600000" y2="484.000000"  style="stroke:black; stroke-linecap:round; stroke-width:0.25;"/>
<line x1="75.600000" y1="516.000000" x2="79.600000" y2="516.000000"  style="stroke:black; stroke-linecap:round; stroke-width:0.25;"/>
<line x1="75.600000" y1="548.000000" x2="79.600000" y2="548.000000"  style="stroke:black; stroke-linecap:round; stroke-width:0.25;"/>
<line x1="75.600000" y1="580.000000" x2="79.600000" y2="580.000000"  style="stroke:black; stroke-linecap:round; stroke-width:0.25;"/>
<line x1="75.600000" y1="612.000000" x2="79.600000" y2="612.000000"  style="stroke:black; stroke-linecap:round; stroke-width:0.25;"/>
<line x1="75.600000" y1="644.000000" x2="79.600000" y2="644.000000"  style="stroke:black; stroke-linecap:round; stroke-width:0.25;"/>
<line x1="79.600000" y1="36.000000" x2="241.600000" y2="340.000000"  style="stroke:black; stroke-linecap:round; stroke-width:0.25;"/>
<line x1="79.600000" y1="68.000000" x2="241.600000" y2="340.000000"  style="stroke:black; stroke-linecap:round; stroke-width:0.25;"/>
<line x1="79.600000" y1="100.000000" x2="241.600000" y2="340.000000"  style="stroke:black; stroke-linecap:round; stroke-width:0.25;"/>
<line x1="79.600000" y1="132.000000" x2="241.600000" y2="340.000000"  style="stroke:black; stroke-linecap:round; stroke-width:0.25;"/>
<line x1="79.600000" y1="164.000000" x2="241.600000" y2="340.000000"  style="stroke:black; stroke-linecap:round; stroke-width:0.25;"/>
<line x1="79.600000" y1="196.000000" x2="241.600000" y2="340.000000"  style="stroke:black; stroke-linecap:round; stroke-width:0.25;"/>
<line x1="79.600000" y1="228.000000" x2="241.600000" y2="340.000000"  style="stroke:black; stroke-linecap:round; stroke-width:0.25;"/>
<line x1="79.600000" y1="260.000000" x2="241.600000" y2="340.000000"  style="stroke:black; stroke-linecap:round; stroke-width:0.25;"/>
<line x1="79.600000" y1="292.000000" x2="241.600000" y2="340.000000"  style="stroke:black; stroke-linecap:round; stroke-width:0.25;"/>
<line x1="79.600000" y1="324.000000" x2="241.600000" y2="340.000000"  style="stroke:black; stroke-linecap:round; stroke-width:0.25;"/>
<line x1="79.600000" y1="356.000000" x2="241.600000" y2="340.000000"  style="stroke:black; stroke-linecap:round; stroke-width:0.25;"/>
<line x1="79.600000" y1="388.000000" x2="241.600000" y2="340.000000"  style="stroke:black; stroke-linecap:round; stroke-width:0.25;"/>
<line x1="79.600000" y1="420.000000" x2="241.600000" y2="340.000000"  style="stroke:black; stroke-linecap:round; stroke-width:0.25;"/>
<line x1="79.600000" y1="452.000000" x2="241.600000" y2="340.000000"  style="stroke:black; stroke-linecap:round; stroke-width:0.25;"/>
<line x1="79.600000" y1="484.000000" x2="241.600000" y2="340.000000"  style="stroke:black; stroke-linecap:round; stroke-width:0.25;"/>
<line x1="79.600000" y1="516.000000" x2="241.600000" y2="340.000000"  style="stroke:black; stroke-linecap:round; stroke-width:0.25;"/>
<line x1="79.600000" y1="548.000000" x2="241.600000" y2="340.000000"  style="stroke:black; stroke-linecap:round; stroke-width:0.25;"/>
<line x1="79.600000" y1="580.000000" x2="241.600000" y2="340.000000"  style="stroke:black; stroke-linecap:round; stroke-width:0.25;"/>
<line x1="79.600000" y1="612.000000" x2="241.600000" y2="340.000000"  style="stroke:black; stroke-linecap:round; stroke-width:0.25;"/>
<line x1="79.600000" y1="644.000000" x2="241.600000" y2="340.000000"  style="stroke:black; stroke-linecap:round; stroke-width:0.25;"/>
<line x1="241.600000" y1="340.000000" x2="245.600000" y2="340.000000"  style="stroke:black; stroke-linecap:round; stroke-width:0.25;"/>
<line x1="245.600000" y1="340.000000" x2="249.600000" y2="340.000000"  style="stroke:black; stroke-linecap:round; stroke-width:0.25;"/>
<line x1="249.600000" y1="340.000000" x2="249.600000" y2="340.000000"  style="stroke:black; stroke-linecap:round; stroke-width:0.25;"/>
<line x1="249.600000" y1="340.000000" x2="253.600000" y2="340.000000"  style="stroke:black; stroke-linecap:round; stroke-width:0.25;"/>
<line x1="253.600000" y1="340.000000" x2="257.600000" y2="340.000000"  style="stroke:black; stroke-linecap:round; stroke-width:0.25;"/>
<line x1="257.600000" y1="340.000000" x2="267.600000" y2="340.000000"  style="stroke:black; stroke-linecap:round; stroke-width:0.25;"/>
</svg>
