<?xml version="1.0"?>
<svg xmlns="http://www.w3.org/2000/svg" xmlns:xlink="http://www.w3.org/1999/xlink" viewBox="0 0 316.100000 188.000000" width="158.050000mm" height="94.000000mm" version="1.1">
<a xlink:href="boreDelay-0x7f8b430b49f0.svg">
<rect x="1.000000" y="1.000000" width="315.100000" height="187.000000" rx="0" ry="0" style="stroke:none;fill:#cccccc;"/>
<rect x="0.000000" y="0.000000" width="315.100000" height="187.000000" rx="0" ry="0" style="stroke:none;fill:#ffffff;"/>
</a>
<text x="10.000000" y="7.000000" font-family="Arial" font-size="7"></text>
<rect x="123.050000" y="25.000000" width="24.000000" height="24.000000" rx="0" ry="0" style="stroke:none;fill:#cccccc;"/>
<rect x="122.050000" y="24.000000" width="24.000000" height="24.000000" rx="0" ry="0" style="stroke:none;fill:#47945E;"/>
<text x="134.050000" y="38.000000" font-family="Arial" font-size="7" text-anchor="middle" fill="#FFFFFF">x</text>
<circle cx="124.050000" cy="26.000000" r="1"/>
<a xlink:href="boreDelayLength-0x7f8b421a1150.svg">
<rect x="25.000000" y="57.000000" width="116.100000" height="24.000000" rx="0" ry="0" style="stroke:none;fill:#cccccc;"/>
<rect x="24.000000" y="56.000000" width="116.100000" height="24.000000" rx="0" ry="0" style="stroke:none;fill:#003366;"/>
</a>
<a xlink:href="boreDelayLength-0x7f8b421a1150.svg">
<text x="82.050000" y="70.000000" font-family="Arial" font-size="7" text-anchor="middle" fill="#FFFFFF">boreDelayLength(1108.72f)</text>
</a>
<circle cx="26.000000" cy="58.000000" r="1"/>
<rect x="149.100000" y="57.000000" width="24.000000" height="24.000000" rx="0" ry="0" style="stroke:none;fill:#cccccc;"/>
<rect x="148.100000" y="56.000000" width="24.000000" height="24.000000" rx="0" ry="0" style="stroke:none;fill:#4B71A1;"/>
<text x="160.100000" y="70.000000" font-family="Arial" font-size="7" text-anchor="middle" fill="#FFFFFF">int</text>
<circle cx="150.100000" cy="58.000000" r="1"/>
<line x1="145.100000" y1="67.000000" x2="148.100000" y2="68.000000"  transform="rotate(0.000000,148.100000,68.000000)" style="stroke: black; stroke-width:0.25;"/>
<line x1="145.100000" y1="69.000000" x2="148.100000" y2="68.000000"  transform="rotate(0.000000,148.100000,68.000000)" style="stroke: black; stroke-width:0.25;"/>
<rect x="181.100000" y="57.000000" width="24.000000" height="24.000000" rx="0" ry="0" style="stroke:none;fill:#cccccc;"/>
<rect x="180.100000" y="56.000000" width="24.000000" height="24.000000" rx="0" ry="0" style="stroke:none;fill:#4B71A1;"/>
<text x="192.100000" y="70.000000" font-family="Arial" font-size="7" text-anchor="middle" fill="#FFFFFF">int</text>
<circle cx="182.100000" cy="58.000000" r="1"/>
<line x1="177.100000" y1="67.000000" x2="180.100000" y2="68.000000"  transform="rotate(0.000000,180.100000,68.000000)" style="stroke: black; stroke-width:0.25;"/>
<line x1="177.100000" y1="69.000000" x2="180.100000" y2="68.000000"  transform="rotate(0.000000,180.100000,68.000000)" style="stroke: black; stroke-width:0.25;"/>
<rect x="82.150000" y="89.000000" width="25.800000" height="24.000000" rx="0" ry="0" style="stroke:none;fill:#cccccc;"/>
<rect x="81.150000" y="88.000000" width="25.800000" height="24.000000" rx="0" ry="0" style="stroke:none;fill:#f44800;"/>
<text x="94.050000" y="102.000000" font-family="Arial" font-size="7" text-anchor="middle" fill="#FFFFFF">4096</text>
<circle cx="83.150000" cy="90.000000" r="1"/>
<rect x="83.050000" y="131.000000" width="24.000000" height="24.000000" rx="0" ry="0" style="stroke:none;fill:#cccccc;"/>
<rect x="82.050000" y="130.000000" width="24.000000" height="24.000000" rx="0" ry="0" style="stroke:none;fill:#f44800;"/>
<text x="94.050000" y="144.000000" font-family="Arial" font-size="7" text-anchor="middle" fill="#FFFFFF">1</text>
<circle cx="84.050000" cy="132.000000" r="1"/>
<line x1="73.050000" y1="121.000000" x2="73.050000" y2="163.000000"  style="stroke: black; stroke-linecap:round; stroke-width:0.25; stroke-dasharray:3,3;"/>
<line x1="73.050000" y1="163.000000" x2="115.050000" y2="163.000000"  style="stroke: black; stroke-linecap:round; stroke-width:0.25; stroke-dasharray:3,3;"/>
<line x1="115.050000" y1="163.000000" x2="115.050000" y2="121.000000"  style="stroke: black; stroke-linecap:round; stroke-width:0.25; stroke-dasharray:3,3;"/>
<line x1="73.050000" y1="121.000000" x2="78.050000" y2="121.000000"  style="stroke: black; stroke-linecap:round; stroke-width:0.25; stroke-dasharray:3,3;"/>
<line x1="115.050000" y1="121.000000" x2="115.050000" y2="121.000000"  style="stroke: black; stroke-linecap:round; stroke-width:0.25; stroke-dasharray:3,3;"/>
<text x="78.050000" y="123.000000" font-family="Arial" font-size="7">env1Release</text>
<rect x="133.050000" y="115.000000" width="24.000000" height="24.000000" rx="0" ry="0" style="stroke:none;fill:#cccccc;"/>
<rect x="132.050000" y="114.000000" width="24.000000" height="24.000000" rx="0" ry="0" style="stroke:none;fill:#4B71A1;"/>
<text x="144.050000" y="128.000000" font-family="Arial" font-size="7" text-anchor="middle" fill="#FFFFFF">-</text>
<circle cx="134.050000" cy="116.000000" r="1"/>
<line x1="129.050000" y1="121.000000" x2="132.050000" y2="122.000000"  transform="rotate(0.000000,132.050000,122.000000)" style="stroke: black; stroke-width:0.25;"/>
<line x1="129.050000" y1="123.000000" x2="132.050000" y2="122.000000"  transform="rotate(0.000000,132.050000,122.000000)" style="stroke: black; stroke-width:0.25;"/>
<line x1="129.050000" y1="129.000000" x2="132.050000" y2="130.000000"  transform="rotate(0.000000,132.050000,130.000000)" style="stroke: black; stroke-width:0.25;"/>
<line x1="129.050000" y1="131.000000" x2="132.050000" y2="130.000000"  transform="rotate(0.000000,132.050000,130.000000)" style="stroke: black; stroke-width:0.25;"/>
<rect x="221.100000" y="99.000000" width="24.000000" height="24.000000" rx="0" ry="0" style="stroke:none;fill:#cccccc;"/>
<rect x="220.100000" y="98.000000" width="24.000000" height="24.000000" rx="0" ry="0" style="stroke:none;fill:#4B71A1;"/>
<text x="232.100000" y="112.000000" font-family="Arial" font-size="7" text-anchor="middle" fill="#FFFFFF">&amp;</text>
<circle cx="222.100000" cy="100.000000" r="1"/>
<line x1="217.100000" y1="105.000000" x2="220.100000" y2="106.000000"  transform="rotate(0.000000,220.100000,106.000000)" style="stroke: black; stroke-width:0.25;"/>
<line x1="217.100000" y1="107.000000" x2="220.100000" y2="106.000000"  transform="rotate(0.000000,220.100000,106.000000)" style="stroke: black; stroke-width:0.25;"/>
<line x1="217.100000" y1="113.000000" x2="220.100000" y2="114.000000"  transform="rotate(0.000000,220.100000,114.000000)" style="stroke: black; stroke-width:0.25;"/>
<line x1="217.100000" y1="115.000000" x2="220.100000" y2="114.000000"  transform="rotate(0.000000,220.100000,114.000000)" style="stroke: black; stroke-width:0.25;"/>
<rect x="261.100000" y="83.000000" width="24.000000" height="24.000000" rx="0" ry="0" style="stroke:none;fill:#cccccc;"/>
<rect x="260.100000" y="82.000000" width="24.000000" height="24.000000" rx="0" ry="0" style="stroke:none;fill:#4B71A1;"/>
<text x="272.100000" y="96.000000" font-family="Arial" font-size="7" text-anchor="middle" fill="#FFFFFF">@</text>
<circle cx="262.100000" cy="84.000000" r="1"/>
<line x1="257.100000" y1="89.000000" x2="260.100000" y2="90.000000"  transform="rotate(0.000000,260.100000,90.000000)" style="stroke: black; stroke-width:0.25;"/>
<line x1="257.100000" y1="91.000000" x2="260.100000" y2="90.000000"  transform="rotate(0.000000,260.100000,90.000000)" style="stroke: black; stroke-width:0.25;"/>
<line x1="257.100000" y1="97.000000" x2="260.100000" y2="98.000000"  transform="rotate(0.000000,260.100000,98.000000)" style="stroke: black; stroke-width:0.25;"/>
<line x1="257.100000" y1="99.000000" x2="260.100000" y2="98.000000"  transform="rotate(0.000000,260.100000,98.000000)" style="stroke: black; stroke-width:0.25;"/>
<line x1="15.000000" y1="15.000000" x2="15.000000" y2="173.000000"  style="stroke: black; stroke-linecap:round; stroke-width:0.25; stroke-dasharray:3,3;"/>
<line x1="15.000000" y1="173.000000" x2="301.100000" y2="173.000000"  style="stroke: black; stroke-linecap:round; stroke-width:0.25; stroke-dasharray:3,3;"/>
<line x1="301.100000" y1="173.000000" x2="301.100000" y2="15.000000"  style="stroke: black; stroke-linecap:round; stroke-width:0.25; stroke-dasharray:3,3;"/>
<line x1="15.000000" y1="15.000000" x2="20.000000" y2="15.000000"  style="stroke: black; stroke-linecap:round; stroke-width:0.25; stroke-dasharray:3,3;"/>
<line x1="139.325000" y1="15.000000" x2="301.100000" y2="15.000000"  style="stroke: black; stroke-linecap:round; stroke-width:0.25; stroke-dasharray:3,3;"/>
<text x="20.000000" y="17.000000" font-family="Arial" font-size="7">delay(4096)((...,2 : - : int)(x475)</text>
<line x1="303.100000" y1="93.000000" x2="306.100000" y2="94.000000"  transform="rotate(0.000000,306.100000,94.000000)" style="stroke: black; stroke-width:0.25;"/>
<line x1="303.100000" y1="95.000000" x2="306.100000" y2="94.000000"  transform="rotate(0.000000,306.100000,94.000000)" style="stroke: black; stroke-width:0.25;"/>
<line x1="106.050000" y1="142.000000" x2="110.050000" y2="142.000000"  style="stroke:black; stroke-linecap:round; stroke-width:0.25;"/>
<line x1="106.950000" y1="100.000000" x2="110.950000" y2="100.000000"  style="stroke:black; stroke-linecap:round; stroke-width:0.25;"/>
<line x1="110.050000" y1="142.000000" x2="120.050000" y2="142.000000"  style="stroke:black; stroke-linecap:round; stroke-width:0.25;"/>
<line x1="110.950000" y1="100.000000" x2="120.050000" y2="100.000000"  style="stroke:black; stroke-linecap:round; stroke-width:0.25;"/>
<line x1="120.050000" y1="130.000000" x2="128.050000" y2="130.000000"  style="stroke:black; stroke-linecap:round; stroke-width:0.25;"/>
<line x1="120.050000" y1="142.000000" x2="120.050000" y2="130.000000"  style="stroke:black; stroke-linecap:round; stroke-width:0.25;"/>
<line x1="120.050000" y1="142.000000" x2="120.050000" y2="142.000000"  style="stroke:black; stroke-linecap:round; stroke-width:0.25;"/>
<line x1="120.050000" y1="100.000000" x2="128.050000" y2="100.000000"  style="stroke:black; stroke-linecap:round; stroke-width:0.25;"/>
<line x1="128.050000" y1="100.000000" x2="128.050000" y2="122.000000"  style="stroke:black; stroke-linecap:round; stroke-width:0.25;"/>
<line x1="128.050000" y1="122.000000" x2="128.050000" y2="122.000000"  style="stroke:black; stroke-linecap:round; stroke-width:0.25;"/>
<line x1="128.050000" y1="122.000000" x2="132.050000" y2="122.000000"  style="stroke:black; stroke-linecap:round; stroke-width:0.25;"/>
<line x1="128.050000" y1="130.000000" x2="132.050000" y2="130.000000"  style="stroke:black; stroke-linecap:round; stroke-width:0.25;"/>
<line x1="140.100000" y1="68.000000" x2="144.100000" y2="68.000000"  style="stroke:black; stroke-linecap:round; stroke-width:0.25;"/>
<line x1="144.100000" y1="68.000000" x2="144.100000" y2="68.000000"  style="stroke:black; stroke-linecap:round; stroke-width:0.25;"/>
<line x1="144.100000" y1="68.000000" x2="148.100000" y2="68.000000"  style="stroke:black; stroke-linecap:round; stroke-width:0.25;"/>
<line x1="146.050000" y1="36.000000" x2="150.050000" y2="36.000000"  style="stroke:black; stroke-linecap:round; stroke-width:0.25;"/>
<line x1="150.050000" y1="36.000000" x2="248.100000" y2="36.000000"  style="stroke:black; stroke-linecap:round; stroke-width:0.25;"/>
<line x1="156.050000" y1="126.000000" x2="160.050000" y2="126.000000"  style="stroke:black; stroke-linecap:round; stroke-width:0.25;"/>
<line x1="160.050000" y1="126.000000" x2="208.100000" y2="126.000000"  style="stroke:black; stroke-linecap:round; stroke-width:0.25;"/>
<line x1="172.100000" y1="68.000000" x2="176.100000" y2="68.000000"  style="stroke:black; stroke-linecap:round; stroke-width:0.25;"/>
<line x1="176.100000" y1="68.000000" x2="176.100000" y2="68.000000"  style="stroke:black; stroke-linecap:round; stroke-width:0.25;"/>
<line x1="176.100000" y1="68.000000" x2="180.100000" y2="68.000000"  style="stroke:black; stroke-linecap:round; stroke-width:0.25;"/>
<line x1="204.100000" y1="68.000000" x2="208.100000" y2="68.000000"  style="stroke:black; stroke-linecap:round; stroke-width:0.25;"/>
<line x1="208.100000" y1="68.000000" x2="216.100000" y2="68.000000"  style="stroke:black; stroke-linecap:round; stroke-width:0.25;"/>
<line x1="208.100000" y1="114.000000" x2="216.100000" y2="114.000000"  style="stroke:black; stroke-linecap:round; stroke-width:0.25;"/>
<line x1="208.100000" y1="126.000000" x2="208.100000" y2="114.000000"  style="stroke:black; stroke-linecap:round; stroke-width:0.25;"/>
<line x1="208.100000" y1="126.000000" x2="208.100000" y2="126.000000"  style="stroke:black; stroke-linecap:round; stroke-width:0.25;"/>
<line x1="216.100000" y1="68.000000" x2="216.100000" y2="106.000000"  style="stroke:black; stroke-linecap:round; stroke-width:0.25;"/>
<line x1="216.100000" y1="106.000000" x2="216.100000" y2="106.000000"  style="stroke:black; stroke-linecap:round; stroke-width:0.25;"/>
<line x1="216.100000" y1="106.000000" x2="220.100000" y2="106.000000"  style="stroke:black; stroke-linecap:round; stroke-width:0.25;"/>
<line x1="216.100000" y1="114.000000" x2="220.100000" y2="114.000000"  style="stroke:black; stroke-linecap:round; stroke-width:0.25;"/>
<line x1="244.100000" y1="110.000000" x2="248.100000" y2="110.000000"  style="stroke:black; stroke-linecap:round; stroke-width:0.25;"/>
<line x1="248.100000" y1="98.000000" x2="256.100000" y2="98.000000"  style="stroke:black; stroke-linecap:round; stroke-width:0.25;"/>
<line x1="248.100000" y1="110.000000" x2="248.100000" y2="98.000000"  style="stroke:black; stroke-linecap:round; stroke-width:0.25;"/>
<line x1="248.100000" y1="110.000000" x2="248.100000" y2="110.000000"  style="stroke:black; stroke-linecap:round; stroke-width:0.25;"/>
<line x1="248.100000" y1="36.000000" x2="256.100000" y2="36.000000"  style="stroke:black; stroke-linecap:round; stroke-width:0.25;"/>
<line x1="256.100000" y1="36.000000" x2="256.100000" y2="90.000000"  style="stroke:black; stroke-linecap:round; stroke-width:0.25;"/>
<line x1="256.100000" y1="90.000000" x2="256.100000" y2="90.000000"  style="stroke:black; stroke-linecap:round; stroke-width:0.25;"/>
<line x1="256.100000" y1="90.000000" x2="260.100000" y2="90.000000"  style="stroke:black; stroke-linecap:round; stroke-width:0.25;"/>
<line x1="256.100000" y1="98.000000" x2="260.100000" y2="98.000000"  style="stroke:black; stroke-linecap:round; stroke-width:0.25;"/>
<line x1="284.100000" y1="94.000000" x2="288.100000" y2="94.000000"  style="stroke:black; stroke-linecap:round; stroke-width:0.25;"/>
<line x1="288.100000" y1="94.000000" x2="288.100000" y2="94.000000"  style="stroke:black; stroke-linecap:round; stroke-width:0.25;"/>
<line x1="288.100000" y1="94.000000" x2="292.100000" y2="94.000000"  style="stroke:black; stroke-linecap:round; stroke-width:0.25;"/>
<line x1="292.100000" y1="94.000000" x2="296.100000" y2="94.000000"  style="stroke:black; stroke-linecap:round; stroke-width:0.25;"/>
<line x1="296.100000" y1="94.000000" x2="306.100000" y2="94.000000"  style="stroke:black; stroke-linecap:round; stroke-width:0.25;"/>
</svg>
