<?xml version="1.0"?>
<svg xmlns="http://www.w3.org/2000/svg" xmlns:xlink="http://www.w3.org/1999/xlink" viewBox="0 0 340.100000 220.000000" width="170.050000mm" height="110.000000mm" version="1.1">
<a xlink:href="tsig-0x7fa5b5a396b0.svg">
<rect x="1.000000" y="1.000000" width="339.100000" height="219.000000" rx="0" ry="0" style="stroke:none;fill:#cccccc;"/>
<rect x="0.000000" y="0.000000" width="339.100000" height="219.000000" rx="0" ry="0" style="stroke:none;fill:#ffffff;"/>
</a>
<text x="10.000000" y="7.000000" font-family="Arial" font-size="7"></text>
<a xlink:href="nonLinearity-0x7fa5b2dbc340.svg">
<rect x="25.000000" y="25.000000" width="51.600000" height="24.000000" rx="0" ry="0" style="stroke:none;fill:#cccccc;"/>
<rect x="24.000000" y="24.000000" width="51.600000" height="24.000000" rx="0" ry="0" style="stroke:none;fill:#003366;"/>
</a>
<a xlink:href="nonLinearity-0x7fa5b2dbc340.svg">
<text x="49.800000" y="38.000000" font-family="Arial" font-size="7" text-anchor="middle" fill="#FFFFFF">nonLinearity</text>
</a>
<circle cx="26.000000" cy="26.000000" r="1"/>
<a xlink:href="smooth-0x7fa5b2dbad60.svg">
<rect x="84.600000" y="25.000000" width="64.500000" height="24.000000" rx="0" ry="0" style="stroke:none;fill:#cccccc;"/>
<rect x="83.600000" y="24.000000" width="64.500000" height="24.000000" rx="0" ry="0" style="stroke:none;fill:#003366;"/>
</a>
<a xlink:href="smooth-0x7fa5b2dbad60.svg">
<text x="115.850000" y="38.000000" font-family="Arial" font-size="7" text-anchor="middle" fill="#FFFFFF">smooth(0.999f)</text>
</a>
<circle cx="85.600000" cy="26.000000" r="1"/>
<line x1="80.600000" y1="35.000000" x2="83.600000" y2="36.000000"  transform="rotate(0.000000,83.600000,36.000000)" style="stroke: black; stroke-width:0.25;"/>
<line x1="80.600000" y1="37.000000" x2="83.600000" y2="36.000000"  transform="rotate(0.000000,83.600000,36.000000)" style="stroke: black; stroke-width:0.25;"/>
<rect x="67.700000" y="67.000000" width="38.700000" height="24.000000" rx="0" ry="0" style="stroke:none;fill:#cccccc;"/>
<rect x="66.700000" y="66.000000" width="38.700000" height="24.000000" rx="0" ry="0" style="stroke:none;fill:#f44800;"/>
<text x="86.050000" y="80.000000" font-family="Arial" font-size="7" text-anchor="middle" fill="#FFFFFF">3.14159</text>
<circle cx="68.700000" cy="68.000000" r="1"/>
<line x1="57.700000" y1="57.000000" x2="57.700000" y2="99.000000"  style="stroke: black; stroke-linecap:round; stroke-width:0.25; stroke-dasharray:3,3;"/>
<line x1="57.700000" y1="99.000000" x2="114.400000" y2="99.000000"  style="stroke: black; stroke-linecap:round; stroke-width:0.25; stroke-dasharray:3,3;"/>
<line x1="114.400000" y1="99.000000" x2="114.400000" y2="57.000000"  style="stroke: black; stroke-linecap:round; stroke-width:0.25; stroke-dasharray:3,3;"/>
<line x1="57.700000" y1="57.000000" x2="62.700000" y2="57.000000"  style="stroke: black; stroke-linecap:round; stroke-width:0.25; stroke-dasharray:3,3;"/>
<line x1="75.600000" y1="57.000000" x2="114.400000" y2="57.000000"  style="stroke: black; stroke-linecap:round; stroke-width:0.25; stroke-dasharray:3,3;"/>
<text x="62.700000" y="59.000000" font-family="Arial" font-size="7">PI</text>
<rect x="165.100000" y="51.000000" width="24.000000" height="24.000000" rx="0" ry="0" style="stroke:none;fill:#cccccc;"/>
<rect x="164.100000" y="50.000000" width="24.000000" height="24.000000" rx="0" ry="0" style="stroke:none;fill:#4B71A1;"/>
<text x="176.100000" y="64.000000" font-family="Arial" font-size="7" text-anchor="middle" fill="#FFFFFF">*</text>
<circle cx="166.100000" cy="52.000000" r="1"/>
<line x1="161.100000" y1="57.000000" x2="164.100000" y2="58.000000"  transform="rotate(0.000000,164.100000,58.000000)" style="stroke: black; stroke-width:0.25;"/>
<line x1="161.100000" y1="59.000000" x2="164.100000" y2="58.000000"  transform="rotate(0.000000,164.100000,58.000000)" style="stroke: black; stroke-width:0.25;"/>
<line x1="161.100000" y1="65.000000" x2="164.100000" y2="66.000000"  transform="rotate(0.000000,164.100000,66.000000)" style="stroke: black; stroke-width:0.25;"/>
<line x1="161.100000" y1="67.000000" x2="164.100000" y2="66.000000"  transform="rotate(0.000000,164.100000,66.000000)" style="stroke: black; stroke-width:0.25;"/>
<rect x="95.050000" y="109.000000" width="24.000000" height="24.000000" rx="0" ry="0" style="stroke:none;fill:#cccccc;"/>
<rect x="94.050000" y="108.000000" width="24.000000" height="24.000000" rx="0" ry="0" style="stroke:none;fill:#47945E;"/>
<text x="106.050000" y="122.000000" font-family="Arial" font-size="7" text-anchor="middle" fill="#FFFFFF">x</text>
<circle cx="96.050000" cy="110.000000" r="1"/>
<rect x="205.100000" y="67.000000" width="24.000000" height="24.000000" rx="0" ry="0" style="stroke:none;fill:#cccccc;"/>
<rect x="204.100000" y="66.000000" width="24.000000" height="24.000000" rx="0" ry="0" style="stroke:none;fill:#4B71A1;"/>
<text x="216.100000" y="80.000000" font-family="Arial" font-size="7" text-anchor="middle" fill="#FFFFFF">*</text>
<circle cx="206.100000" cy="68.000000" r="1"/>
<line x1="201.100000" y1="73.000000" x2="204.100000" y2="74.000000"  transform="rotate(0.000000,204.100000,74.000000)" style="stroke: black; stroke-width:0.25;"/>
<line x1="201.100000" y1="75.000000" x2="204.100000" y2="74.000000"  transform="rotate(0.000000,204.100000,74.000000)" style="stroke: black; stroke-width:0.25;"/>
<line x1="201.100000" y1="81.000000" x2="204.100000" y2="82.000000"  transform="rotate(0.000000,204.100000,82.000000)" style="stroke: black; stroke-width:0.25;"/>
<line x1="201.100000" y1="83.000000" x2="204.100000" y2="82.000000"  transform="rotate(0.000000,204.100000,82.000000)" style="stroke: black; stroke-width:0.25;"/>
<rect x="115.050000" y="141.000000" width="24.000000" height="24.000000" rx="0" ry="0" style="stroke:none;fill:#cccccc;"/>
<rect x="114.050000" y="140.000000" width="24.000000" height="24.000000" rx="0" ry="0" style="stroke:none;fill:#47945E;"/>
<text x="126.050000" y="154.000000" font-family="Arial" font-size="7" text-anchor="middle" fill="#FFFFFF">x</text>
<circle cx="116.050000" cy="142.000000" r="1"/>
<rect x="245.100000" y="83.000000" width="24.000000" height="24.000000" rx="0" ry="0" style="stroke:none;fill:#cccccc;"/>
<rect x="244.100000" y="82.000000" width="24.000000" height="24.000000" rx="0" ry="0" style="stroke:none;fill:#4B71A1;"/>
<text x="256.100000" y="96.000000" font-family="Arial" font-size="7" text-anchor="middle" fill="#FFFFFF">*</text>
<circle cx="246.100000" cy="84.000000" r="1"/>
<line x1="241.100000" y1="89.000000" x2="244.100000" y2="90.000000"  transform="rotate(0.000000,244.100000,90.000000)" style="stroke: black; stroke-width:0.25;"/>
<line x1="241.100000" y1="91.000000" x2="244.100000" y2="90.000000"  transform="rotate(0.000000,244.100000,90.000000)" style="stroke: black; stroke-width:0.25;"/>
<line x1="241.100000" y1="97.000000" x2="244.100000" y2="98.000000"  transform="rotate(0.000000,244.100000,98.000000)" style="stroke: black; stroke-width:0.25;"/>
<line x1="241.100000" y1="99.000000" x2="244.100000" y2="98.000000"  transform="rotate(0.000000,244.100000,98.000000)" style="stroke: black; stroke-width:0.25;"/>
<rect x="135.050000" y="173.000000" width="24.000000" height="24.000000" rx="0" ry="0" style="stroke:none;fill:#cccccc;"/>
<rect x="134.050000" y="172.000000" width="24.000000" height="24.000000" rx="0" ry="0" style="stroke:none;fill:#f44800;"/>
<text x="146.050000" y="186.000000" font-family="Arial" font-size="7" text-anchor="middle" fill="#FFFFFF">1</text>
<circle cx="136.050000" cy="174.000000" r="1"/>
<rect x="285.100000" y="99.000000" width="24.000000" height="24.000000" rx="0" ry="0" style="stroke:none;fill:#cccccc;"/>
<rect x="284.100000" y="98.000000" width="24.000000" height="24.000000" rx="0" ry="0" style="stroke:none;fill:#4B71A1;"/>
<text x="296.100000" y="112.000000" font-family="Arial" font-size="7" text-anchor="middle" fill="#FFFFFF">*</text>
<circle cx="286.100000" cy="100.000000" r="1"/>
<line x1="281.100000" y1="105.000000" x2="284.100000" y2="106.000000"  transform="rotate(0.000000,284.100000,106.000000)" style="stroke: black; stroke-width:0.25;"/>
<line x1="281.100000" y1="107.000000" x2="284.100000" y2="106.000000"  transform="rotate(0.000000,284.100000,106.000000)" style="stroke: black; stroke-width:0.25;"/>
<line x1="281.100000" y1="113.000000" x2="284.100000" y2="114.000000"  transform="rotate(0.000000,284.100000,114.000000)" style="stroke: black; stroke-width:0.25;"/>
<line x1="281.100000" y1="115.000000" x2="284.100000" y2="114.000000"  transform="rotate(0.000000,284.100000,114.000000)" style="stroke: black; stroke-width:0.25;"/>
<line x1="15.000000" y1="15.000000" x2="15.000000" y2="205.000000"  style="stroke: black; stroke-linecap:round; stroke-width:0.25; stroke-dasharray:3,3;"/>
<line x1="15.000000" y1="205.000000" x2="325.100000" y2="205.000000"  style="stroke: black; stroke-linecap:round; stroke-width:0.25; stroke-dasharray:3,3;"/>
<line x1="325.100000" y1="205.000000" x2="325.100000" y2="15.000000"  style="stroke: black; stroke-linecap:round; stroke-width:0.25; stroke-dasharray:3,3;"/>
<line x1="15.000000" y1="15.000000" x2="20.000000" y2="15.000000"  style="stroke: black; stroke-linecap:round; stroke-width:0.25; stroke-dasharray:3,3;"/>
<line x1="78.050000" y1="15.000000" x2="325.100000" y2="15.000000"  style="stroke: black; stroke-linecap:round; stroke-width:0.25; stroke-dasharray:3,3;"/>
<text x="20.000000" y="17.000000" font-family="Arial" font-size="7">tsigsquared(x63)</text>
<line x1="327.100000" y1="109.000000" x2="330.100000" y2="110.000000"  transform="rotate(0.000000,330.100000,110.000000)" style="stroke: black; stroke-width:0.25;"/>
<line x1="327.100000" y1="111.000000" x2="330.100000" y2="110.000000"  transform="rotate(0.000000,330.100000,110.000000)" style="stroke: black; stroke-width:0.25;"/>
<line x1="75.600000" y1="36.000000" x2="79.600000" y2="36.000000"  style="stroke:black; stroke-linecap:round; stroke-width:0.25;"/>
<line x1="79.600000" y1="36.000000" x2="79.600000" y2="36.000000"  style="stroke:black; stroke-linecap:round; stroke-width:0.25;"/>
<line x1="79.600000" y1="36.000000" x2="83.600000" y2="36.000000"  style="stroke:black; stroke-linecap:round; stroke-width:0.25;"/>
<line x1="105.400000" y1="78.000000" x2="109.400000" y2="78.000000"  style="stroke:black; stroke-linecap:round; stroke-width:0.25;"/>
<line x1="109.400000" y1="78.000000" x2="119.400000" y2="78.000000"  style="stroke:black; stroke-linecap:round; stroke-width:0.25;"/>
<line x1="118.050000" y1="120.000000" x2="122.050000" y2="120.000000"  style="stroke:black; stroke-linecap:round; stroke-width:0.25;"/>
<line x1="119.400000" y1="78.000000" x2="152.100000" y2="78.000000"  style="stroke:black; stroke-linecap:round; stroke-width:0.25;"/>
<line x1="122.050000" y1="120.000000" x2="192.100000" y2="120.000000"  style="stroke:black; stroke-linecap:round; stroke-width:0.25;"/>
<line x1="138.050000" y1="152.000000" x2="142.050000" y2="152.000000"  style="stroke:black; stroke-linecap:round; stroke-width:0.25;"/>
<line x1="142.050000" y1="152.000000" x2="232.100000" y2="152.000000"  style="stroke:black; stroke-linecap:round; stroke-width:0.25;"/>
<line x1="148.100000" y1="36.000000" x2="152.100000" y2="36.000000"  style="stroke:black; stroke-linecap:round; stroke-width:0.25;"/>
<line x1="152.100000" y1="36.000000" x2="160.100000" y2="36.000000"  style="stroke:black; stroke-linecap:round; stroke-width:0.25;"/>
<line x1="152.100000" y1="66.000000" x2="160.100000" y2="66.000000"  style="stroke:black; stroke-linecap:round; stroke-width:0.25;"/>
<line x1="152.100000" y1="78.000000" x2="152.100000" y2="66.000000"  style="stroke:black; stroke-linecap:round; stroke-width:0.25;"/>
<line x1="152.100000" y1="78.000000" x2="152.100000" y2="78.000000"  style="stroke:black; stroke-linecap:round; stroke-width:0.25;"/>
<line x1="158.050000" y1="184.000000" x2="162.050000" y2="184.000000"  style="stroke:black; stroke-linecap:round; stroke-width:0.25;"/>
<line x1="160.100000" y1="36.000000" x2="160.100000" y2="58.000000"  style="stroke:black; stroke-linecap:round; stroke-width:0.25;"/>
<line x1="160.100000" y1="58.000000" x2="160.100000" y2="58.000000"  style="stroke:black; stroke-linecap:round; stroke-width:0.25;"/>
<line x1="160.100000" y1="58.000000" x2="164.100000" y2="58.000000"  style="stroke:black; stroke-linecap:round; stroke-width:0.25;"/>
<line x1="160.100000" y1="66.000000" x2="164.100000" y2="66.000000"  style="stroke:black; stroke-linecap:round; stroke-width:0.25;"/>
<line x1="162.050000" y1="184.000000" x2="272.100000" y2="184.000000"  style="stroke:black; stroke-linecap:round; stroke-width:0.25;"/>
<line x1="188.100000" y1="62.000000" x2="192.100000" y2="62.000000"  style="stroke:black; stroke-linecap:round; stroke-width:0.25;"/>
<line x1="192.100000" y1="62.000000" x2="200.100000" y2="62.000000"  style="stroke:black; stroke-linecap:round; stroke-width:0.25;"/>
<line x1="192.100000" y1="82.000000" x2="200.100000" y2="82.000000"  style="stroke:black; stroke-linecap:round; stroke-width:0.25;"/>
<line x1="192.100000" y1="120.000000" x2="192.100000" y2="82.000000"  style="stroke:black; stroke-linecap:round; stroke-width:0.25;"/>
<line x1="192.100000" y1="120.000000" x2="192.100000" y2="120.000000"  style="stroke:black; stroke-linecap:round; stroke-width:0.25;"/>
<line x1="200.100000" y1="62.000000" x2="200.100000" y2="74.000000"  style="stroke:black; stroke-linecap:round; stroke-width:0.25;"/>
<line x1="200.100000" y1="74.000000" x2="200.100000" y2="74.000000"  style="stroke:black; stroke-linecap:round; stroke-width:0.25;"/>
<line x1="200.100000" y1="74.000000" x2="204.100000" y2="74.000000"  style="stroke:black; stroke-linecap:round; stroke-width:0.25;"/>
<line x1="200.100000" y1="82.000000" x2="204.100000" y2="82.000000"  style="stroke:black; stroke-linecap:round; stroke-width:0.25;"/>
<line x1="228.100000" y1="78.000000" x2="232.100000" y2="78.000000"  style="stroke:black; stroke-linecap:round; stroke-width:0.25;"/>
<line x1="232.100000" y1="78.000000" x2="240.100000" y2="78.000000"  style="stroke:black; stroke-linecap:round; stroke-width:0.25;"/>
<line x1="232.100000" y1="98.000000" x2="240.100000" y2="98.000000"  style="stroke:black; stroke-linecap:round; stroke-width:0.25;"/>
<line x1="232.100000" y1="152.000000" x2="232.100000" y2="98.000000"  style="stroke:black; stroke-linecap:round; stroke-width:0.25;"/>
<line x1="232.100000" y1="152.000000" x2="232.100000" y2="152.000000"  style="stroke:black; stroke-linecap:round; stroke-width:0.25;"/>
<line x1="240.100000" y1="78.000000" x2="240.100000" y2="90.000000"  style="stroke:black; stroke-linecap:round; stroke-width:0.25;"/>
<line x1="240.100000" y1="90.000000" x2="240.100000" y2="90.000000"  style="stroke:black; stroke-linecap:round; stroke-width:0.25;"/>
<line x1="240.100000" y1="90.000000" x2="244.100000" y2="90.000000"  style="stroke:black; stroke-linecap:round; stroke-width:0.25;"/>
<line x1="240.100000" y1="98.000000" x2="244.100000" y2="98.000000"  style="stroke:black; stroke-linecap:round; stroke-width:0.25;"/>
<line x1="268.100000" y1="94.000000" x2="272.100000" y2="94.000000"  style="stroke:black; stroke-linecap:round; stroke-width:0.25;"/>
<line x1="272.100000" y1="94.000000" x2="280.100000" y2="94.000000"  style="stroke:black; stroke-linecap:round; stroke-width:0.25;"/>
<line x1="272.100000" y1="114.000000" x2="280.100000" y2="114.000000"  style="stroke:black; stroke-linecap:round; stroke-width:0.25;"/>
<line x1="272.100000" y1="184.000000" x2="272.100000" y2="114.000000"  style="stroke:black; stroke-linecap:round; stroke-width:0.25;"/>
<line x1="272.100000" y1="184.000000" x2="272.100000" y2="184.000000"  style="stroke:black; stroke-linecap:round; stroke-width:0.25;"/>
<line x1="280.100000" y1="94.000000" x2="280.100000" y2="106.000000"  style="stroke:black; stroke-linecap:round; stroke-width:0.25;"/>
<line x1="280.100000" y1="106.000000" x2="280.100000" y2="106.000000"  style="stroke:black; stroke-linecap:round; stroke-width:0.25;"/>
<line x1="280.100000" y1="106.000000" x2="284.100000" y2="106.000000"  style="stroke:black; stroke-linecap:round; stroke-width:0.25;"/>
<line x1="280.100000" y1="114.000000" x2="284.100000" y2="114.000000"  style="stroke:black; stroke-linecap:round; stroke-width:0.25;"/>
<line x1="308.100000" y1="110.000000" x2="312.100000" y2="110.000000"  style="stroke:black; stroke-linecap:round; stroke-width:0.25;"/>
<line x1="312.100000" y1="110.000000" x2="312.100000" y2="110.000000"  style="stroke:black; stroke-linecap:round; stroke-width:0.25;"/>
<line x1="312.100000" y1="110.000000" x2="316.100000" y2="110.000000"  style="stroke:black; stroke-linecap:round; stroke-width:0.25;"/>
<line x1="316.100000" y1="110.000000" x2="320.100000" y2="110.000000"  style="stroke:black; stroke-linecap:round; stroke-width:0.25;"/>
<line x1="320.100000" y1="110.000000" x2="330.100000" y2="110.000000"  style="stroke:black; stroke-linecap:round; stroke-width:0.25;"/>
</svg>
