<?xml version="1.0" encoding="UTF-8" standalone="no"?>
<!-- Created with Inkscape (http://www.inkscape.org/) -->

<svg
   xmlns:dc="http://purl.org/dc/elements/1.1/"
   xmlns:cc="http://creativecommons.org/ns#"
   xmlns:rdf="http://www.w3.org/1999/02/22-rdf-syntax-ns#"
   xmlns:svg="http://www.w3.org/2000/svg"
   xmlns="http://www.w3.org/2000/svg"
   xmlns:sodipodi="http://sodipodi.sourceforge.net/DTD/sodipodi-0.dtd"
   xmlns:inkscape="http://www.inkscape.org/namespaces/inkscape"
   width="310.11682"
   height="112.632"
   id="svg3013"
   version="1.1"
   inkscape:version="0.91 r13725"
   inkscape:export-filename="/home/romain/Downloads/ccrmaLogo.png"
   inkscape:export-xdpi="299.04166"
   inkscape:export-ydpi="299.04166"
   sodipodi:docname="logo-small.svg">
  <defs
     id="defs3015" />
  <sodipodi:namedview
     id="base"
     pagecolor="#ffffff"
     bordercolor="#666666"
     borderopacity="1.0"
     inkscape:pageopacity="0.0"
     inkscape:pageshadow="2"
     inkscape:zoom="1.979899"
     inkscape:cx="152.20206"
     inkscape:cy="33.75094"
     inkscape:document-units="px"
     inkscape:current-layer="layer1"
     showgrid="false"
     inkscape:window-width="1425"
     inkscape:window-height="982"
     inkscape:window-x="0"
     inkscape:window-y="25"
     inkscape:window-maximized="0"
     fit-margin-top="0"
     fit-margin-left="0"
     fit-margin-right="0"
     fit-margin-bottom="0" />
  <metadata
     id="metadata3018">
    <rdf:RDF>
      <cc:Work
         rdf:about="">
        <dc:format>image/svg+xml</dc:format>
        <dc:type
           rdf:resource="http://purl.org/dc/dcmitype/StillImage" />
        <dc:title></dc:title>
      </cc:Work>
    </rdf:RDF>
  </metadata>
  <g
     inkscape:label="Layer 1"
     inkscape:groupmode="layer"
     id="layer1"
     transform="translate(-221.59924,-73.844978)">
    <rect
       style="fill:#ffffff;fill-opacity:1;stroke:none;stroke-width:3;stroke-miterlimit:4;stroke-dasharray:none;stroke-opacity:1"
       id="rect3351"
       width="310.11682"
       height="112.632"
       x="221.59924"
       y="73.844978" />
    <path
       inkscape:connector-curvature="0"
       style="fill:#aaaaaa;fill-opacity:1"
       d="m 413.86285,98.015886 -20.0574,33.459304 -24.6969,0.013 -16.1166,-22.2629 -0.013,22.2377 -9.9907,0 0,-52.834304 20.0942,0.016 0.4006,0.041 c 0.6384,0.065 1.0205,0.115 1.4898,0.1964 1.9384,0.336 3.7571,0.9799 5.4559,1.9315 2.5217,1.4126 4.6731,3.5026 6.1299,5.9548 1.2473,2.0993 1.9679,4.3746 2.1728,6.8596 l 0.038,0.4628 0,0.7269 0,0.7268 -0.038,0.4755 c -0.1368,1.6986 -0.4937,3.2075 -1.1311,4.782304 l -0.1621,0.4006 -0.2968,0.6011 -0.2967,0.6011 -0.2844,0.4756 c -0.7713,1.2897 -1.58,2.3105 -2.6771,3.3794 l -0.4594,0.4476 -0.4257,0.3545 c -1.9269,1.6049 -4.1144,2.7448 -6.464,3.3686 -0.1674,0.044 -0.3183,0.089 -0.3354,0.1 l -0.031,0.019 7.9075,10.9097 14.1971,0.013 25.5987,-42.704804 9.7695,-0.013 0.013,33.508504 c 6.7149,-11.1503 13.3581,-22.343904 20.0931,-33.482104 l 0.044,-0.051 9.8472,0 0,42.867504 13.972,0 0,-42.842504 9.9782,4e-4 c 12.5039,17.5502 24.9329,35.158104 37.3116,52.798604 l -71.1273,0.04 -0.013,-33.614504 c -6.6813,11.184504 -13.4327,22.327204 -20.0942,33.523404 l -0.038,0.085 -9.7528,3e-4 -0.013,-33.571904 z"
       id="path2593"
       sodipodi:nodetypes="cccccccccssscccccccccccccsccccccccccccccccccccc" />
    <path
       inkscape:connector-curvature="0"
       style="fill:#aaaaaa;fill-opacity:1"
       d="m 311.21355,131.39769 c -0.1033,0 -0.4019,-0.021 -0.6635,-0.036 -6.1945,-0.3565 -12.0297,-2.6668 -16.6888,-6.6075 -2.5209,-2.1322 -4.6351,-4.7157 -6.1901,-7.5641 -1.8349,-3.3611 -2.8666,-6.9912 -3.0744,-10.8171 l -0.025,-0.4632 0,-0.8639 0,-0.8638 0.025,-0.4632 c 0.2267,-4.175004 1.4418,-8.131004 3.6091,-11.750004 1.4955,-2.4972 3.4933,-4.8211 5.8029,-6.7502 3.065,-2.5601 6.6794,-4.4434 10.5819,-5.5141 1.9208,-0.5269 3.7204,-0.8204 6.0095,-0.9799 l 0.4507,-0.031 1.2144,0 1.2144,0 0.6135,0.043 c 3.9585,0.2768 7.4699,1.2116 10.8796,2.8963 2.2379,1.1057 4.1813,2.4082 6.1096,4.0946 l 0.4257,0.3723 0.7528,0.7522 0.7528,0.7522 0.2994,0.338 c 1.2957,1.5606 2.7554,3.3077 3.616,5.1672 l -12.6349,0.016 c -0.8166,-0.7891 -1.738,-1.4536 -2.6892,-2.0691 -2.3646,-1.4628 -4.993,-2.3064 -7.8374,-2.5156 l -0.4131,-0.03 -0.7762,0 -0.7763,0 -0.4131,0.03 c -3.924,0.2834 -7.5919,1.8529 -10.3663,4.436 -1.2314,1.1464 -2.1578,2.2862 -2.9927,3.682 l -0.2784,0.4654 -0.2785,0.5612 -0.2786,0.5612 -0.1661,0.4007 c -0.5378,1.2977 -0.8951,2.620004 -1.0759,3.981304 l -0.06,0.4507 -0.042,0.5633 -0.042,0.5634 0.014,0.7637 0.014,0.7637 0.037,0.3882 c 0.3295,3.4817 1.7206,6.641 4.0737,9.252 l 0.316,0.3506 0.4481,0.4355 0.4482,0.4356 0.3758,0.3167 c 2.3537,1.9837 5.1354,3.2715 8.163,3.7791 0.5476,0.092 0.9747,0.1434 1.6026,0.1936 l 0.4757,0.038 0.8013,0 0.8012,0 0.4758,-0.038 c 0.6143,-0.049 1.1923,-0.1212 1.7402,-0.2172 3.1505,-0.5519 6.1397,-2.0162 8.4736,-4.1508 l 0.2231,-0.2041 12.9917,0 c -1.0026,2.0719 -2.3627,3.9229 -3.8339,5.681 l -0.3644,0.4159 -0.5634,0.5734 c -1.085,1.1044 -2.0437,1.9475 -3.18,2.7967 -2.9717,2.2206 -6.3386,3.8253 -9.9515,4.743 -1.7508,0.4447 -3.4254,0.7052 -5.3977,0.8397 l -0.3881,0.026 -1.1017,0.01 c -0.606,0 -1.1863,0 -1.2896,-3e-4 z"
       id="path2591"
       sodipodi:nodetypes="ccscccccccsscccccscccccccccccccscccccccccccccccccscccccsccccccsscccc" />
    <path
       inkscape:connector-curvature="0"
       style="fill:#aaaaaa;fill-opacity:1"
       d="m 252.82155,131.23509 c -6.2234,-0.3165 -12.1003,-2.591 -16.7745,-6.492 -2.6335,-2.1978 -4.8144,-4.8558 -6.413,-7.8158 -1.779,-3.294 -2.7767,-6.8219 -3.0058,-10.6293 l -0.029,-0.4882 5e-4,-0.9265 6e-4,-0.9265 0.028,-0.4632 c 0.1572,-2.5982 0.6779,-5.077504 1.5621,-7.436704 1.7698,-4.7224 4.9405,-8.8908 9.107,-11.9728 3.5933,-2.6578 7.7584,-4.4159 12.2068,-5.1524 1.0818,-0.1791 2.0603,-0.2857 3.2551,-0.3545 l 0.5008,-0.029 1.0141,0 1.0141,0 0.5008,0.029 c 1.1948,0.069 2.1733,0.1754 3.2551,0.3545 7.3124,1.2106 13.8089,5.1879 18.0544,11.0531 0.7389,1.0208 1.5576,2.3559 2.0635,3.3652 l 0.1519,0.3031 -13.0014,0 -0.329,-0.3084 c -2.1868,-2.05 -4.9021,-3.4834 -7.8533,-4.1456 -0.8168,-0.1833 -1.7425,-0.3191 -2.6041,-0.382 l -0.4132,-0.03 -0.8013,5e-4 -0.8012,4e-4 -0.3881,0.03 c -2.5926,0.1984 -4.9479,0.8959 -7.1363,2.1135 -1.1902,0.6622 -2.2344,1.421 -3.2809,2.384 l -0.3888,0.3579 -0.2876,0.3093 c -0.4693,0.5048 -0.5604,0.6077 -0.8447,0.9548 -2.0926,2.5547 -3.3071,5.569504 -3.5729,8.869304 l -0.038,0.4755 0,0.7177 0,0.7177 0.039,0.4719 c 0.1396,1.7092 0.5054,3.2477 1.1424,4.8037 l 0.1742,0.4257 0.2853,0.5759 0.2852,0.5759 0.2651,0.4467 c 0.7673,1.2929 1.5691,2.3074 2.6864,3.3992 l 0.4972,0.486 0.3614,0.3025 c 1.912,1.6005 4.0571,2.7308 6.4084,3.3769 1.1265,0.3095 2.1263,0.4828 3.3428,0.5794 l 0.4757,0.038 0.7888,3e-4 0.7887,2e-4 0.5008,-0.039 c 1.4449,-0.1133 2.6843,-0.3559 4.0314,-0.7892 2.1141,-0.68 4.1073,-1.7934 5.7811,-3.2293 l 0.3225,-0.2767 13.1893,0 c -0.048,0.1368 -0.1339,0.2687 -0.2048,0.3965 -3.151,5.651 -8.4064,10.0567 -14.6937,12.3181 -2.6783,0.9633 -5.4648,1.5142 -8.3857,1.658 l -0.5107,0.025 -0.9666,0 -0.9666,0 -0.3881,-0.02 z"
       id="path2541"
       sodipodi:nodetypes="cscccccccsscccccssccccscccccscccscccccccccccccscccccsccccsccccc" />
    <path
       inkscape:connector-curvature="0"
       id="path2537"
       d="m 510.51515,119.70459 c -0.055,-0.01 -0.223,-0.022 -0.3733,-0.036 -0.6146,-0.06 -1.3387,-0.2198 -1.9553,-0.4326 -2.4044,-0.8298 -4.4075,-2.5636 -7.0353,-6.0892 -0.8397,-1.1265 -1.44,-1.9821 -2.9461,-4.1989 -2.5953,-3.8199 -3.5934,-5.1657 -4.851,-6.5409 l -0.3416,-0.3735 -0.3456,-0.3204 c -1.0055,-0.9319 -1.7661,-1.373 -2.7217,-1.5783 l -0.2379,-0.051 -0.378,-0.013 -0.378,-0.013 -0.2479,0.029 c -0.7077,0.083 -1.412,0.3155 -2.2011,0.7265 -1.2555,0.6538 -2.5709,1.6771 -4.1535,3.2312 -1.2744,1.2515 -1.8484,1.8875 -3.4587,3.832 -0.5075,0.6128 -0.9902,1.1931 -1.0728,1.2895 -0.4384,0.5122 -0.7761,0.8889 -0.7966,0.8889 -0.029,0 -2.963,-2.5535 -2.963,-2.5792 0,-0.011 0.1697,-0.2148 0.3771,-0.4539 0.3665,-0.4226 0.9332,-1.0989 1.8016,-2.15 1.5717,-1.9022 3.0515,-3.4591 4.5778,-4.816 2.6377,-2.344904 4.8942,-3.547304 7.2943,-3.886804 l 0.2717,-0.038 0.6015,-0.015 0.6016,-0.015 0.3875,0.043 c 1.8774,0.2081 3.4599,0.9531 5.095,2.3983 l 0.3255,0.2878 0.4764,0.4855 c 1.4891,1.517704 2.6445,3.045704 5.6902,7.525304 1.4283,2.1008 2.0239,2.9492 2.7873,3.9703 1.5693,2.0993 2.7969,3.3797 3.942,4.1116 l 0.2248,0.1437 0.3505,0.1723 0.3506,0.1722 0.2533,0.087 0.2533,0.087 0.285,0.063 0.2851,0.063 0.2431,0.026 0.2432,0.026 0.2774,0 0.2774,0 0.2431,-0.026 c 0.7643,-0.083 1.5581,-0.3273 2.3966,-0.7377 l 0.3756,-0.1838 0.3505,-0.2096 c 1.1455,-0.685 2.196,-1.5141 3.3395,-2.6359 1.0693,-1.049 1.8698,-2.0035 3.3386,-3.9813 0.8962,-1.2066 1.3299,-1.775 1.7822,-2.3355 l 0.3693,-0.4576 0.056,0.044 c 0.6566,0.524 2.9015,2.3348 2.9501,2.3795 l 0.067,0.062 -0.4436,0.555 c -0.244,0.3053 -0.8986,1.1632 -1.4547,1.9066 -1.3869,1.8539 -1.9297,2.5395 -2.6582,3.3571 -0.6722,0.7545 -1.5351,1.6123 -2.2751,2.2617 -2.6459,2.322 -5.1604,3.596 -7.6871,3.8947 l -0.338,0.04 -0.5634,0.01 c -0.3099,0.01 -0.6085,0 -0.6636,-6e-4 z"
       style="fill:#333333;fill-opacity:1" />
    <text
       xml:space="preserve"
       style="font-style:normal;font-weight:normal;font-size:12.5px;line-height:125%;font-family:sans-serif;letter-spacing:0px;word-spacing:0px;fill:#333333;fill-opacity:1;stroke:none;stroke-width:1px;stroke-linecap:butt;stroke-linejoin:miter;stroke-opacity:1"
       x="377.08743"
       y="155.78699"
       id="text3337"
       sodipodi:linespacing="125%"><tspan
         sodipodi:role="line"
         x="379.27493"
         y="155.78699"
         id="tspan3341"
         style="font-style:normal;font-variant:normal;font-weight:normal;font-stretch:normal;font-size:17.5px;font-family:FreeSans;-inkscape-font-specification:FreeSans;text-align:center;text-anchor:middle;fill:#333333;fill-opacity:1">Center for Computer Research in Music </tspan><tspan
         sodipodi:role="line"
         x="377.08743"
         y="177.66199"
         id="tspan3343"
         style="font-style:normal;font-variant:normal;font-weight:normal;font-stretch:normal;font-size:17.5px;font-family:FreeSans;-inkscape-font-specification:FreeSans;text-align:center;text-anchor:middle;fill:#333333;fill-opacity:1">and Acoustics - Stanford University</tspan></text>
  </g>
</svg>
