<?xml version="1.0" encoding="UTF-8" standalone="no"?>
<svg
   xmlns:dc="http://purl.org/dc/elements/1.1/"
   xmlns:cc="http://creativecommons.org/ns#"
   xmlns:rdf="http://www.w3.org/1999/02/22-rdf-syntax-ns#"
   xmlns:svg="http://www.w3.org/2000/svg"
   xmlns="http://www.w3.org/2000/svg"
   viewBox="0 0 78.049469 51.556"
   height="51.556"
   width="78.049469"
   xml:space="preserve"
   id="svg2"
   version="1.1"><metadata
     id="metadata8"><rdf:RDF><cc:Work
         rdf:about=""><dc:format>image/svg+xml</dc:format><dc:type
           rdf:resource="http://purl.org/dc/dcmitype/StillImage" /><dc:title></dc:title></cc:Work></rdf:RDF></metadata><defs
     id="defs6"><clipPath
       id="clipPath18"
       clipPathUnits="userSpaceOnUse"><path
         id="path16"
         d="M 0,38.667 H 58.537 V 0 H 0 Z" /></clipPath></defs><g
     transform="matrix(1.3333333,0,0,-1.3333333,0,51.556)"
     id="g10"><g
       id="g12"><g
         clip-path="url(#clipPath18)"
         id="g14"><g
           transform="translate(15.9606,33.7122)"
           id="g20"><path
             id="path22"
             style="fill:#231f20;fill-opacity:1;fill-rule:nonzero;stroke:none"
             d="m 0,0 c -8.312,0 -15.075,-6.762 -15.075,-15.074 0,-8.312 6.763,-15.075 15.075,-15.075 8.312,0 15.074,6.763 15.074,15.075 C 15.074,-6.762 8.312,0 0,0" /></g><g
           transform="translate(8.2112,13.8777)"
           id="g24"><path
             id="path26"
             style="fill:#ffffff;fill-opacity:1;fill-rule:nonzero;stroke:none"
             d="M 0,0 V 3.16 L -1.721,2.535 V 1.168 l 0.388,0.141 v -1.79 c 0,-0.231 -0.124,-0.403 -0.349,-0.485 -0.054,-0.02 -0.101,-0.029 -0.141,-0.029 -0.042,0 -0.154,0 -0.154,0.238 v 5.479 c 0,0.238 0.113,0.4 0.336,0.481 0.055,0.02 0.104,0.03 0.145,0.03 0.04,0 0.163,0 0.163,-0.234 V 3.57 L 0,4.055 v 1.346 c 0,0.827 -0.402,1.321 -1.076,1.321 -0.19,0 -0.398,-0.04 -0.619,-0.12 C -2.697,6.238 -3.453,5.185 -3.453,4.151 v -5.323 c 0,-0.409 0.112,-0.747 0.324,-0.979 0.206,-0.225 0.495,-0.344 0.839,-0.344 v 0 c 0.2,0 0.414,0.04 0.636,0.121 C -0.665,-2.015 0,-1.061 0,0" /></g><g
           transform="translate(21.2273,16.8401)"
           id="g28"><path
             id="path30"
             style="fill:#ffffff;fill-opacity:1;fill-rule:nonzero;stroke:none"
             d="M 0,0 1.45,0.527 V 7.92 C 1.45,8.625 1.162,9.03 0.661,9.03 0.53,9.03 0.386,9.002 0.233,8.946 -0.147,8.808 -0.528,8.471 -0.821,8.015 -1.029,8.29 -1.381,8.36 -1.809,8.204 -2.108,8.096 -2.443,7.827 -2.686,7.512 V 7.757 L -4.083,7.25 v -8.733 l 1.462,0.531 v 7.069 c 0.139,0.261 0.282,0.425 0.414,0.472 0.032,0.012 0.059,0.018 0.081,0.018 0.025,0 0.084,0 0.084,-0.157 v -7.192 l 1.45,0.527 v 7.069 c 0.135,0.254 0.29,0.427 0.426,0.477 0.032,0.012 0.059,0.018 0.082,0.018 0.025,0 0.084,0 0.084,-0.157 z" /></g><g
           transform="translate(15.0647,16.6957)"
           id="g32"><path
             id="path34"
             style="fill:#ffffff;fill-opacity:1;fill-rule:nonzero;stroke:none"
             d="m 0,0 c -0.026,-0.461 -0.129,-0.835 -0.349,-0.915 -0.219,-0.079 -0.31,0.03 -0.31,0.327 v 1.163 c 0,0.542 0.22,1.036 0.659,1.532 z m 0.335,-1.863 0.023,-0.047 1.231,0.447 -0.021,0.056 c -0.123,0.323 -0.165,0.602 -0.165,1.108 v 5.775 c 0,0.828 -0.431,1.342 -1.125,1.342 -0.19,0 -0.395,-0.039 -0.608,-0.117 C -1.312,6.345 -1.972,5.393 -1.972,4.332 v -1.3 l 1.385,0.504 v 1.295 c 0,0.255 0.083,0.389 0.284,0.462 0.05,0.018 0.093,0.027 0.126,0.027 0.06,0 0.118,-0.019 0.118,-0.254 V 3.554 C -1.491,2.188 -2.075,1.105 -2.075,-0.177 v -0.878 c 0,-1.237 0.614,-1.421 0.98,-1.421 0.166,0 0.35,0.036 0.547,0.108 0.329,0.119 0.621,0.36 0.819,0.671 0.019,-0.066 0.043,-0.124 0.064,-0.166" /></g><g
           transform="translate(24.7044,25.2774)"
           id="g36"><path
             id="path38"
             style="fill:#ffffff;fill-opacity:1;fill-rule:nonzero;stroke:none"
             d="M 0,0 C 0,0.233 0.065,0.45 0.323,0.543 0.581,0.638 0.646,0.467 0.646,0.234 V -1.704 L 0,-1.938 Z m 1.972,-4.719 v 1.634 L 0.587,-3.587 V -5.192 C 0.587,-5.466 0.504,-5.607 0.303,-5.68 0.258,-5.697 0.22,-5.705 0.188,-5.705 c -0.067,0 -0.129,0.033 -0.129,0.278 v 2.297 l 1.913,0.695 v 3.117 c 0,0.83 -0.399,1.325 -1.067,1.325 -0.189,0 -0.396,-0.04 -0.615,-0.12 -0.989,-0.359 -1.706,-1.382 -1.706,-2.431 v -5.324 c 0,-0.412 0.107,-0.754 0.309,-0.988 0.198,-0.23 0.481,-0.351 0.819,-0.351 0.194,0 0.402,0.039 0.619,0.118 0.997,0.362 1.641,1.292 1.641,2.37" /></g><g
           transform="translate(10.387,20.3699)"
           id="g40"><path
             id="path42"
             style="fill:#ffffff;fill-opacity:1;fill-rule:nonzero;stroke:none"
             d="M 0,0 0.31,0.113 C 0.491,0.179 0.569,0.091 0.569,-0.168 v -1.913 c 0,-0.271 -0.065,-0.397 -0.246,-0.463 L 0,-2.661 Z m 0.06,-3.84 0.271,0.098 c 0.043,0.016 0.079,0.024 0.108,0.024 0.038,0 0.109,0 0.109,-0.247 V -5.84 c 0,-0.68 0.074,-1.006 0.185,-1.287 l 0.022,-0.053 1.383,0.502 -0.013,0.052 c -0.071,0.301 -0.166,0.769 -0.166,1.36 v 1.744 c 0,0.43 -0.146,0.703 -0.446,0.829 0.278,0.313 0.407,0.668 0.407,1.108 V 0.379 C 1.92,1.394 1.342,1.546 0.997,1.546 0.825,1.546 0.639,1.511 0.445,1.44 L -1.403,0.768 v -8.732 l 1.463,0.532 z" /></g><g
           transform="translate(34.2998,27.759)"
           id="g44"><path
             id="path46"
             style="fill:#231f20;fill-opacity:1;fill-rule:nonzero;stroke:none"
             d="M 0,0 C 0.083,0 0.171,0.016 0.263,0.049 0.71,0.21 0.998,0.63 0.998,1.119 V 1.853 L 0.718,1.746 V 1.074 C 0.718,0.715 0.529,0.433 0.214,0.317 0.147,0.294 0.085,0.283 0.03,0.283 c -0.252,0 -0.29,0.249 -0.29,0.399 v 3.496 c 0,0.338 0.221,0.665 0.523,0.776 C 0.562,5.06 0.719,4.943 0.718,4.595 v -0.73 l 0.28,0.101 v 0.68 C 0.998,5.037 0.812,5.271 0.5,5.271 0.412,5.271 0.316,5.251 0.213,5.214 -0.243,5.047 -0.537,4.623 -0.537,4.132 V 0.634 c 0,-0.189 0.049,-0.348 0.144,-0.46 C -0.297,0.06 -0.161,0 0,0" /></g><g
           transform="translate(37.5883,29.3442)"
           id="g48"><path
             id="path50"
             style="fill:#231f20;fill-opacity:1;fill-rule:nonzero;stroke:none"
             d="m 0,0 -0.978,-0.36 v 2.192 l 0.711,0.265 v 0.276 l -0.711,-0.26 v 2.02 L 0,4.487 V 4.772 L -1.259,4.313 V -0.74 L 0,-0.281 Z" /></g><g
           transform="translate(38.8004,33.8301)"
           id="g52"><path
             id="path54"
             style="fill:#231f20;fill-opacity:1;fill-rule:nonzero;stroke:none"
             d="m 0,0 1.161,-3.981 0.364,0.137 V 1.225 L 1.245,1.124 V -3.24 L 0.07,0.73 -0.277,0.607 V -4.479 L 0,-4.376 Z" /></g><g
           transform="translate(42.849,35.9507)"
           id="g56"><path
             id="path58"
             style="fill:#231f20;fill-opacity:1;fill-rule:nonzero;stroke:none"
             d="m 0,0 -1.585,-0.57 v -0.275 l 0.663,0.24 v -4.768 l 0.28,0.113 v 4.753 L 0,-0.267 Z" /></g><g
           transform="translate(45.0125,34.7669)"
           id="g60"><path
             id="path62"
             style="fill:#231f20;fill-opacity:1;fill-rule:nonzero;stroke:none"
             d="m 0,0 c 0,-0.338 -0.167,-0.552 -0.538,-0.694 l -0.404,-0.143 v 2.208 l 0.58,0.214 C -0.309,1.603 -0.261,1.613 -0.22,1.613 -0.029,1.613 0,1.396 0,1.268 Z m -0.942,-1.115 0.452,0.17 c 0.324,0.11 0.506,0.023 0.506,-0.283 v -1.171 c 0,-0.198 0.018,-0.398 0.053,-0.562 l 0.017,-0.084 0.27,0.102 -0.01,0.059 c -0.023,0.154 -0.05,0.355 -0.05,0.528 v 1.174 c 0,0.29 -0.113,0.471 -0.322,0.521 0.21,0.193 0.299,0.408 0.299,0.707 v 1.265 c 0,0.459 -0.272,0.678 -0.685,0.525 l -0.81,-0.297 v -5.057 l 0.28,0.107 z" /></g><g
           transform="translate(47.7472,32.9371)"
           id="g64"><path
             id="path66"
             style="fill:#231f20;fill-opacity:1;fill-rule:nonzero;stroke:none"
             d="m 0,0 -0.975,-0.357 v 2.186 l 0.711,0.263 V 2.37 L -0.975,2.116 v 2.02 L 0,4.49 v 0.276 l -1.258,-0.45 v -5.05 L 0,-0.281 Z" /></g><g
           transform="translate(34.0535,16.2732)"
           id="g68"><path
             id="path70"
             style="fill:#231f20;fill-opacity:1;fill-rule:nonzero;stroke:none"
             d="m 0,0 0.555,0.203 c 0.074,0.025 0.14,0.04 0.198,0.04 0.062,0 0.255,0 0.255,-0.392 v -3.412 c 0,-0.371 -0.17,-0.622 -0.503,-0.748 L 0,-4.486 Z M 1.288,-3.515 V -0.1 c 0,0.391 -0.184,0.624 -0.493,0.624 -0.088,0 -0.187,-0.02 -0.29,-0.059 L -0.28,0.177 V -4.87 l 0.835,0.301 c 0.459,0.17 0.733,0.564 0.733,1.054" /></g><g
           transform="translate(37.7346,17.5553)"
           id="g72"><path
             id="path74"
             style="fill:#231f20;fill-opacity:1;fill-rule:nonzero;stroke:none"
             d="M 0,0 V 0.281 L -1.261,-0.174 V -5.221 L 0,-4.763 v 0.276 l -0.979,-0.355 v 2.189 l 0.708,0.26 v 0.281 l -0.708,-0.259 v 2.02 z" /></g><g
           transform="translate(40.4871,13.6746)"
           id="g76"><path
             id="path78"
             style="fill:#231f20;fill-opacity:1;fill-rule:nonzero;stroke:none"
             d="M 0,0 C 0.447,0.161 0.736,0.581 0.736,1.068 V 1.805 L 0.455,1.698 V 1.019 C 0.455,0.66 0.271,0.386 -0.049,0.268 -0.118,0.244 -0.182,0.231 -0.238,0.231 c -0.247,0 -0.284,0.253 -0.284,0.403 v 3.492 c 0,0.342 0.219,0.666 0.523,0.771 C 0.296,5.009 0.455,4.893 0.455,4.543 V 3.814 l 0.281,0.094 v 0.684 c 0,0.391 -0.187,0.625 -0.5,0.625 C 0.148,5.217 0.051,5.197 -0.049,5.16 -0.505,5.004 -0.8,4.579 -0.8,4.075 V 0.583 c 0,-0.188 0.049,-0.346 0.142,-0.459 0.095,-0.115 0.23,-0.175 0.39,-0.175 0.085,0 0.175,0.017 0.268,0.051" /></g><g
           transform="translate(42.5342,19.2172)"
           id="g80"><path
             id="path82"
             style="fill:#231f20;fill-opacity:1;fill-rule:nonzero;stroke:none"
             d="M 0,0 0.58,0.211 C 0.633,0.23 0.682,0.24 0.724,0.24 0.912,0.24 0.941,0.026 0.941,-0.103 V -1.371 C 0.941,-1.712 0.77,-1.93 0.404,-2.062 L 0,-2.213 Z m 1.238,-3.729 v 1.176 c 0,0.292 -0.112,0.473 -0.317,0.523 0.205,0.188 0.294,0.409 0.294,0.711 v 1.262 c 0,0.455 -0.268,0.671 -0.685,0.525 L -0.277,0.171 V -4.883 L 0,-4.786 v 2.302 l 0.455,0.16 c 0.092,0.034 0.173,0.051 0.243,0.051 0.065,0 0.263,0 0.263,-0.331 v -1.171 c 0,-0.198 0.017,-0.394 0.05,-0.551 l 0.016,-0.081 0.274,0.092 -0.011,0.062 c -0.033,0.184 -0.052,0.379 -0.052,0.524" /></g><g
           transform="translate(45.6728,21.6985)"
           id="g84"><path
             id="path86"
             style="fill:#231f20;fill-opacity:1;fill-rule:nonzero;stroke:none"
             d="m 0,0 0.384,1.038 -0.368,-0.137 -0.284,-1 z" /></g><g
           transform="translate(45.0164,15.3712)"
           id="g88"><path
             id="path90"
             style="fill:#231f20;fill-opacity:1;fill-rule:nonzero;stroke:none"
             d="M 0,0 1.256,0.458 V 0.74 L 0.278,0.38 v 2.186 l 0.71,0.26 V 3.107 L 0.278,2.847 V 4.87 L 1.256,5.221 V 5.505 L 0,5.047 Z" /></g><g
           transform="translate(47.4918,17.5961)"
           id="g92"><path
             id="path94"
             style="fill:#231f20;fill-opacity:1;fill-rule:nonzero;stroke:none"
             d="M 0,0 0.409,3.202 0.811,0.291 Z m 0.239,3.903 -0.667,-5.178 -0.014,-0.114 0.279,0.088 0.125,1.01 0.886,0.315 0.117,-0.909 0.267,0.097 -0.656,4.81 z" /></g><g
           transform="translate(49.3472,21.7952)"
           id="g96"><path
             id="path98"
             style="fill:#231f20;fill-opacity:1;fill-rule:nonzero;stroke:none"
             d="m 0,0 0.662,0.24 v -4.758 l 0.279,0.102 v 4.76 L 1.585,0.578 V 0.851 L 0,0.276 Z" /></g><g
           transform="translate(51.8747,17.9016)"
           id="g100"><path
             id="path102"
             style="fill:#231f20;fill-opacity:1;fill-rule:nonzero;stroke:none"
             d="M 0,0 0.278,0.096 V 5.15 L 0,5.049 Z" /></g><g
           transform="translate(54.5224,23.1557)"
           id="g104"><path
             id="path106"
             style="fill:#231f20;fill-opacity:1;fill-rule:nonzero;stroke:none"
             d="m 0,0 v -3.552 c 0,-0.309 -0.233,-0.634 -0.532,-0.74 -0.062,-0.024 -0.122,-0.037 -0.178,-0.037 -0.184,0 -0.298,0.139 -0.298,0.36 v 3.549 c 0,0.316 0.232,0.649 0.528,0.757 0.06,0.023 0.117,0.034 0.171,0.034 C -0.118,0.371 0,0.229 0,0 m -0.272,0.65 c -0.083,0 -0.169,-0.016 -0.259,-0.047 -0.424,-0.162 -0.755,-0.63 -0.755,-1.068 v -3.558 c 0,-0.354 0.218,-0.591 0.544,-0.591 0.085,0 0.172,0.015 0.262,0.048 0.426,0.16 0.76,0.63 0.76,1.068 v 3.549 c 0,0.357 -0.221,0.599 -0.552,0.599" /></g><g
           transform="translate(57.4706,24.8877)"
           id="g108"><path
             id="path110"
             style="fill:#231f20;fill-opacity:1;fill-rule:nonzero;stroke:none"
             d="m 0,0 v -4.368 l -1.152,3.904 -0.022,0.076 -0.348,-0.132 v -5.083 l 0.277,0.109 v 4.367 l 1.139,-3.903 0.022,-0.077 0.361,0.138 v 5.077 z" /></g><g
           transform="translate(35.0751,4.4006)"
           id="g112"><path
             id="path114"
             style="fill:#231f20;fill-opacity:1;fill-rule:nonzero;stroke:none"
             d="m 0,0 -0.786,4.052 -0.017,0.083 -0.445,-0.16 v -5.08 l 0.277,0.103 v 4.521 l 0.811,-4.153 0.016,-0.083 0.304,0.109 0.858,4.804 v -4.47 l 0.278,0.096 V 4.896 L 0.842,4.729 Z" /></g><g
           transform="translate(38.9023,5.9444)"
           id="g116"><path
             id="path118"
             style="fill:#231f20;fill-opacity:1;fill-rule:nonzero;stroke:none"
             d="m 0,0 c 0,-0.321 -0.21,-0.614 -0.52,-0.731 -0.066,-0.023 -0.128,-0.036 -0.185,-0.036 -0.186,0 -0.289,0.126 -0.289,0.353 V 3.929 L -1.271,3.826 V -0.46 c 0,-0.18 0.051,-0.331 0.147,-0.437 0.095,-0.104 0.227,-0.158 0.381,-0.158 0.088,0 0.18,0.017 0.273,0.053 0.414,0.15 0.75,0.624 0.75,1.056 V 4.383 L 0,4.288 Z" /></g><g
           transform="translate(41.3902,11.2189)"
           id="g120"><path
             id="path122"
             style="fill:#231f20;fill-opacity:1;fill-rule:nonzero;stroke:none"
             d="m 0,0 c -0.081,0 -0.168,-0.017 -0.258,-0.05 -0.486,-0.177 -0.8,-0.639 -0.8,-1.176 0,-0.651 0.305,-1.048 0.637,-1.479 l 0.047,-0.058 c 0.343,-0.465 0.605,-0.863 0.605,-1.396 0,-0.421 -0.21,-0.748 -0.563,-0.874 -0.334,-0.123 -0.51,0.009 -0.51,0.394 v 0.381 L -1.125,-4.369 V -4.69 c 0,-0.203 0.046,-0.366 0.137,-0.483 0.094,-0.121 0.231,-0.184 0.398,-0.184 0.095,0 0.198,0.02 0.308,0.062 0.473,0.171 0.792,0.646 0.792,1.182 0,0.624 -0.312,1.085 -0.659,1.54 l -0.049,0.063 c -0.31,0.404 -0.579,0.752 -0.579,1.335 0,0.411 0.213,0.735 0.569,0.865 0.057,0.02 0.11,0.03 0.157,0.03 0.245,0 0.282,-0.271 0.282,-0.432 v -0.419 l 0.279,0.102 v 0.368 C 0.51,-0.253 0.315,0 0,0" /></g><g
           transform="translate(43.0586,6.7705)"
           id="g124"><path
             id="path126"
             style="fill:#231f20;fill-opacity:1;fill-rule:nonzero;stroke:none"
             d="M 0,0 0.278,0.096 V 5.147 L 0,5.046 Z" /></g><g
           transform="translate(45.3567,12.7603)"
           id="g128"><path
             id="path130"
             style="fill:#231f20;fill-opacity:1;fill-rule:nonzero;stroke:none"
             d="m 0,0 c -0.456,-0.17 -0.751,-0.597 -0.751,-1.088 v -3.498 c 0,-0.187 0.049,-0.344 0.143,-0.455 0.096,-0.115 0.232,-0.175 0.392,-0.175 0.085,0 0.174,0.017 0.266,0.05 0.447,0.159 0.735,0.579 0.735,1.068 v 0.728 l -0.28,-0.095 v -0.678 c 0,-0.362 -0.184,-0.636 -0.504,-0.754 -0.067,-0.024 -0.13,-0.036 -0.185,-0.036 -0.249,0 -0.286,0.246 -0.286,0.393 v 3.501 c 0,0.341 0.219,0.666 0.521,0.773 0.293,0.109 0.454,-0.005 0.454,-0.359 v -0.726 l 0.28,0.096 v 0.678 C 0.785,-0.074 0.474,0.167 0,0" /></g><g
           transform="translate(47.5598,9.5735)"
           id="g132"><path
             id="path134"
             style="fill:#231f20;fill-opacity:1;fill-rule:nonzero;stroke:none"
             d="M 0,0 0.41,3.202 0.81,0.291 Z M 0.575,4.019 0.24,3.903 l -0.684,-5.295 0.282,0.096 0.126,1.001 0.883,0.324 0.118,-0.91 0.267,0.091 -0.645,4.721 z" /></g><g
           transform="translate(50.1954,14.2452)"
           id="g136"><path
             id="path138"
             style="fill:#231f20;fill-opacity:1;fill-rule:nonzero;stroke:none"
             d="m 0,0 -0.28,-0.107 v -5.046 l 1.201,0.433 v 0.293 L 0,-4.764 Z" /></g><g
           transform="translate(52.2394,15.0238)"
           id="g140"><path
             id="path142"
             style="fill:#231f20;fill-opacity:1;fill-rule:nonzero;stroke:none"
             d="m 0,0 v -5.044 l 1.258,0.449 v 0.282 L 0.283,-4.662 v 2.183 l 0.711,0.255 v 0.288 L 0.283,-2.202 V -0.18 L 1.258,0.177 V 0.461 L 0.048,0.017 Z" /></g><g
           transform="translate(34.0113,24.0682)"
           id="g144"><path
             id="path146"
             style="fill:#231f20;fill-opacity:1;fill-rule:nonzero;stroke:none"
             d="m 0,0 1.16,-3.966 0.363,0.137 V 1.242 L 1.244,1.141 V -3.23 L 0.068,0.745 -0.281,0.618 V -4.468 L 0,-4.361 Z" /></g><g
           transform="translate(36.9037,21.9436)"
           id="g148"><path
             id="path150"
             style="fill:#231f20;fill-opacity:1;fill-rule:nonzero;stroke:none"
             d="M 0,0 0.408,3.201 0.807,0.29 Z m 0.962,-0.894 0.267,0.11 -0.656,4.805 -0.335,-0.119 -0.668,-5.175 -0.015,-0.12 0.28,0.102 0.127,0.998 0.884,0.317 z" /></g><g
           transform="translate(39.5654,21.7209)"
           id="g152"><path
             id="path154"
             style="fill:#231f20;fill-opacity:1;fill-rule:nonzero;stroke:none"
             d="M 0,0 V 4.764 L 0.647,4.993 V 5.268 L -0.937,4.696 V 4.423 l 0.659,0.24 v -4.759 z" /></g><g
           transform="translate(41.4319,27.4034)"
           id="g156"><path
             id="path158"
             style="fill:#231f20;fill-opacity:1;fill-rule:nonzero;stroke:none"
             d="M 0,0 -0.278,-0.108 V -5.157 L 0,-5.056 Z" /></g><g
           transform="translate(42.8458,23.6745)"
           id="g160"><path
             id="path162"
             style="fill:#231f20;fill-opacity:1;fill-rule:nonzero;stroke:none"
             d="m 0,0 v 3.555 c 0,0.316 0.228,0.641 0.53,0.757 0.057,0.02 0.112,0.03 0.163,0.03 0.194,0 0.314,-0.142 0.314,-0.37 V 0.423 C 1.007,0.107 0.78,-0.214 0.482,-0.326 0.422,-0.346 0.365,-0.356 0.311,-0.356 0.116,-0.356 0,-0.223 0,0 m -0.28,-0.051 c 0,-0.353 0.218,-0.592 0.543,-0.592 0.086,0 0.176,0.018 0.267,0.052 0.426,0.155 0.759,0.621 0.759,1.059 V 4.021 C 1.289,4.373 1.064,4.619 0.742,4.619 0.657,4.619 0.569,4.602 0.481,4.569 0.061,4.423 -0.28,3.948 -0.28,3.507 Z" /></g><g
           transform="translate(45.3886,28.1017)"
           id="g164"><path
             id="path166"
             style="fill:#231f20;fill-opacity:1;fill-rule:nonzero;stroke:none"
             d="m 0,0 1.135,-3.898 0.022,-0.077 0.365,0.141 v 5.08 L 1.242,1.128 V -3.24 L 0.065,0.741 -0.277,0.617 v -5.08 L 0,-4.366 Z" /></g><g
           transform="translate(48.1478,25.9713)"
           id="g168"><path
             id="path170"
             style="fill:#231f20;fill-opacity:1;fill-rule:nonzero;stroke:none"
             d="M 0,0 0.409,3.208 0.811,0.291 Z M -0.038,-0.293 0.847,0.029 0.964,-0.882 1.229,-0.785 0.587,3.928 0.575,4.015 0.24,3.905 l -0.669,-5.177 -0.014,-0.114 0.277,0.088 z" /></g><g
           transform="translate(51.5627,26.2184)"
           id="g172"><path
             id="path174"
             style="fill:#231f20;fill-opacity:1;fill-rule:nonzero;stroke:none"
             d="M 0,0 -0.921,-0.334 V 4.419 L -1.199,4.323 V -0.725 L 0,-0.296 Z" /></g></g></g></g></svg>