<?xml version="1.0"?>
<svg xmlns="http://www.w3.org/2000/svg" xmlns:xlink="http://www.w3.org/1999/xlink" viewBox="0 0 973.100000 256.000000" width="486.550000mm" height="128.000000mm" version="1.1">
<rect x="1.000000" y="1.000000" width="972.100000" height="255.000000" rx="0" ry="0" style="stroke:none;fill:#cccccc;"/>
<rect x="0.000000" y="0.000000" width="972.100000" height="255.000000" rx="0" ry="0" style="stroke:none;fill:#ffffff;"/>
<text x="10.000000" y="7.000000" font-family="Arial" font-size="7"></text>
<rect x="107.000000" y="121.000000" width="24.000000" height="24.000000" rx="0" ry="0" style="stroke:none;fill:#cccccc;"/>
<rect x="106.000000" y="120.000000" width="24.000000" height="24.000000" rx="0" ry="0" style="stroke:none;fill:#4B71A1;"/>
<text x="118.000000" y="134.000000" font-family="Arial" font-size="7" text-anchor="middle" fill="#FFFFFF">abs</text>
<circle cx="108.000000" cy="122.000000" r="1"/>
<line x1="103.000000" y1="131.000000" x2="106.000000" y2="132.000000"  transform="rotate(0.000000,106.000000,132.000000)" style="stroke: black; stroke-width:0.25;"/>
<line x1="103.000000" y1="133.000000" x2="106.000000" y2="132.000000"  transform="rotate(0.000000,106.000000,132.000000)" style="stroke: black; stroke-width:0.25;"/>
<rect x="177.000000" y="85.000000" width="24.000000" height="24.000000" rx="0" ry="0" style="stroke:none;fill:#cccccc;"/>
<rect x="176.000000" y="84.000000" width="24.000000" height="24.000000" rx="0" ry="0" style="stroke:none;fill:#f44800;"/>
<text x="188.000000" y="98.000000" font-family="Arial" font-size="7" text-anchor="middle" fill="#FFFFFF">10</text>
<circle cx="178.000000" cy="86.000000" r="1"/>
<rect x="157.000000" y="117.000000" width="24.000000" height="24.000000" rx="0" ry="0" style="stroke:none;fill:#cccccc;"/>
<rect x="156.000000" y="116.000000" width="24.000000" height="24.000000" rx="0" ry="0" style="stroke:none;fill:#f44800;"/>
<text x="168.000000" y="130.000000" font-family="Arial" font-size="7" text-anchor="middle" fill="#FFFFFF">-70</text>
<circle cx="158.000000" cy="118.000000" r="1"/>
<rect x="157.000000" y="149.000000" width="24.000000" height="24.000000" rx="0" ry="0" style="stroke:none;fill:#cccccc;"/>
<rect x="156.000000" y="148.000000" width="24.000000" height="24.000000" rx="0" ry="0" style="stroke:none;fill:#f44800;"/>
<text x="168.000000" y="162.000000" font-family="Arial" font-size="7" text-anchor="middle" fill="#FFFFFF">20</text>
<circle cx="158.000000" cy="150.000000" r="1"/>
<rect x="197.000000" y="133.000000" width="24.000000" height="24.000000" rx="0" ry="0" style="stroke:none;fill:#cccccc;"/>
<rect x="196.000000" y="132.000000" width="24.000000" height="24.000000" rx="0" ry="0" style="stroke:none;fill:#4B71A1;"/>
<text x="208.000000" y="146.000000" font-family="Arial" font-size="7" text-anchor="middle" fill="#FFFFFF">/</text>
<circle cx="198.000000" cy="134.000000" r="1"/>
<line x1="193.000000" y1="139.000000" x2="196.000000" y2="140.000000"  transform="rotate(0.000000,196.000000,140.000000)" style="stroke: black; stroke-width:0.25;"/>
<line x1="193.000000" y1="141.000000" x2="196.000000" y2="140.000000"  transform="rotate(0.000000,196.000000,140.000000)" style="stroke: black; stroke-width:0.25;"/>
<line x1="193.000000" y1="147.000000" x2="196.000000" y2="148.000000"  transform="rotate(0.000000,196.000000,148.000000)" style="stroke: black; stroke-width:0.25;"/>
<line x1="193.000000" y1="149.000000" x2="196.000000" y2="148.000000"  transform="rotate(0.000000,196.000000,148.000000)" style="stroke: black; stroke-width:0.25;"/>
<rect x="237.000000" y="117.000000" width="24.000000" height="24.000000" rx="0" ry="0" style="stroke:none;fill:#cccccc;"/>
<rect x="236.000000" y="116.000000" width="24.000000" height="24.000000" rx="0" ry="0" style="stroke:none;fill:#4B71A1;"/>
<text x="248.000000" y="130.000000" font-family="Arial" font-size="7" text-anchor="middle" fill="#FFFFFF">pow</text>
<circle cx="238.000000" cy="118.000000" r="1"/>
<line x1="233.000000" y1="123.000000" x2="236.000000" y2="124.000000"  transform="rotate(0.000000,236.000000,124.000000)" style="stroke: black; stroke-width:0.25;"/>
<line x1="233.000000" y1="125.000000" x2="236.000000" y2="124.000000"  transform="rotate(0.000000,236.000000,124.000000)" style="stroke: black; stroke-width:0.25;"/>
<line x1="233.000000" y1="131.000000" x2="236.000000" y2="132.000000"  transform="rotate(0.000000,236.000000,132.000000)" style="stroke: black; stroke-width:0.25;"/>
<line x1="233.000000" y1="133.000000" x2="236.000000" y2="132.000000"  transform="rotate(0.000000,236.000000,132.000000)" style="stroke: black; stroke-width:0.25;"/>
<line x1="147.000000" y1="75.000000" x2="147.000000" y2="181.000000"  style="stroke: black; stroke-linecap:round; stroke-width:0.25; stroke-dasharray:3,3;"/>
<line x1="147.000000" y1="181.000000" x2="269.000000" y2="181.000000"  style="stroke: black; stroke-linecap:round; stroke-width:0.25; stroke-dasharray:3,3;"/>
<line x1="269.000000" y1="181.000000" x2="269.000000" y2="75.000000"  style="stroke: black; stroke-linecap:round; stroke-width:0.25; stroke-dasharray:3,3;"/>
<line x1="147.000000" y1="75.000000" x2="152.000000" y2="75.000000"  style="stroke: black; stroke-linecap:round; stroke-width:0.25; stroke-dasharray:3,3;"/>
<line x1="203.600000" y1="75.000000" x2="269.000000" y2="75.000000"  style="stroke: black; stroke-linecap:round; stroke-width:0.25; stroke-dasharray:3,3;"/>
<text x="152.000000" y="77.000000" font-family="Arial" font-size="7">db2linear(-70)</text>
<rect x="287.000000" y="121.000000" width="24.000000" height="24.000000" rx="0" ry="0" style="stroke:none;fill:#cccccc;"/>
<rect x="286.000000" y="120.000000" width="24.000000" height="24.000000" rx="0" ry="0" style="stroke:none;fill:#4B71A1;"/>
<text x="298.000000" y="134.000000" font-family="Arial" font-size="7" text-anchor="middle" fill="#FFFFFF">max</text>
<circle cx="288.000000" cy="122.000000" r="1"/>
<line x1="283.000000" y1="127.000000" x2="286.000000" y2="128.000000"  transform="rotate(0.000000,286.000000,128.000000)" style="stroke: black; stroke-width:0.25;"/>
<line x1="283.000000" y1="129.000000" x2="286.000000" y2="128.000000"  transform="rotate(0.000000,286.000000,128.000000)" style="stroke: black; stroke-width:0.25;"/>
<line x1="283.000000" y1="135.000000" x2="286.000000" y2="136.000000"  transform="rotate(0.000000,286.000000,136.000000)" style="stroke: black; stroke-width:0.25;"/>
<line x1="283.000000" y1="137.000000" x2="286.000000" y2="136.000000"  transform="rotate(0.000000,286.000000,136.000000)" style="stroke: black; stroke-width:0.25;"/>
<rect x="329.000000" y="121.000000" width="24.000000" height="24.000000" rx="0" ry="0" style="stroke:none;fill:#cccccc;"/>
<rect x="328.000000" y="120.000000" width="24.000000" height="24.000000" rx="0" ry="0" style="stroke:none;fill:#47945E;"/>
<text x="340.000000" y="134.000000" font-family="Arial" font-size="7" text-anchor="middle" fill="#FFFFFF">x</text>
<circle cx="330.000000" cy="122.000000" r="1"/>
<line x1="325.000000" y1="131.000000" x2="328.000000" y2="132.000000"  transform="rotate(0.000000,328.000000,132.000000)" style="stroke: black; stroke-width:0.25;"/>
<line x1="325.000000" y1="133.000000" x2="328.000000" y2="132.000000"  transform="rotate(0.000000,328.000000,132.000000)" style="stroke: black; stroke-width:0.25;"/>
<rect x="377.900000" y="105.000000" width="24.000000" height="24.000000" rx="0" ry="0" style="stroke:none;fill:#cccccc;"/>
<rect x="376.900000" y="104.000000" width="24.000000" height="24.000000" rx="0" ry="0" style="stroke:none;fill:#f44800;"/>
<text x="388.900000" y="118.000000" font-family="Arial" font-size="7" text-anchor="middle" fill="#FFFFFF">20</text>
<circle cx="378.900000" cy="106.000000" r="1"/>
<rect x="361.000000" y="137.000000" width="24.000000" height="24.000000" rx="0" ry="0" style="stroke:none;fill:#cccccc;"/>
<rect x="360.000000" y="136.000000" width="24.000000" height="24.000000" rx="0" ry="0" style="stroke:none;fill:#47945E;"/>
<text x="372.000000" y="150.000000" font-family="Arial" font-size="7" text-anchor="middle" fill="#FFFFFF">x</text>
<circle cx="362.000000" cy="138.000000" r="1"/>
<rect x="393.000000" y="137.000000" width="25.800000" height="24.000000" rx="0" ry="0" style="stroke:none;fill:#cccccc;"/>
<rect x="392.000000" y="136.000000" width="25.800000" height="24.000000" rx="0" ry="0" style="stroke:none;fill:#4B71A1;"/>
<text x="404.900000" y="150.000000" font-family="Arial" font-size="7" text-anchor="middle" fill="#FFFFFF">log10</text>
<circle cx="394.000000" cy="138.000000" r="1"/>
<line x1="389.000000" y1="147.000000" x2="392.000000" y2="148.000000"  transform="rotate(0.000000,392.000000,148.000000)" style="stroke: black; stroke-width:0.25;"/>
<line x1="389.000000" y1="149.000000" x2="392.000000" y2="148.000000"  transform="rotate(0.000000,392.000000,148.000000)" style="stroke: black; stroke-width:0.25;"/>
<rect x="434.800000" y="121.000000" width="24.000000" height="24.000000" rx="0" ry="0" style="stroke:none;fill:#cccccc;"/>
<rect x="433.800000" y="120.000000" width="24.000000" height="24.000000" rx="0" ry="0" style="stroke:none;fill:#4B71A1;"/>
<text x="445.800000" y="134.000000" font-family="Arial" font-size="7" text-anchor="middle" fill="#FFFFFF">*</text>
<circle cx="435.800000" cy="122.000000" r="1"/>
<line x1="430.800000" y1="127.000000" x2="433.800000" y2="128.000000"  transform="rotate(0.000000,433.800000,128.000000)" style="stroke: black; stroke-width:0.25;"/>
<line x1="430.800000" y1="129.000000" x2="433.800000" y2="128.000000"  transform="rotate(0.000000,433.800000,128.000000)" style="stroke: black; stroke-width:0.25;"/>
<line x1="430.800000" y1="135.000000" x2="433.800000" y2="136.000000"  transform="rotate(0.000000,433.800000,136.000000)" style="stroke: black; stroke-width:0.25;"/>
<line x1="430.800000" y1="137.000000" x2="433.800000" y2="136.000000"  transform="rotate(0.000000,433.800000,136.000000)" style="stroke: black; stroke-width:0.25;"/>
<line x1="319.000000" y1="95.000000" x2="319.000000" y2="169.000000"  style="stroke: black; stroke-linecap:round; stroke-width:0.25; stroke-dasharray:3,3;"/>
<line x1="319.000000" y1="169.000000" x2="466.800000" y2="169.000000"  style="stroke: black; stroke-linecap:round; stroke-width:0.25; stroke-dasharray:3,3;"/>
<line x1="466.800000" y1="169.000000" x2="466.800000" y2="95.000000"  style="stroke: black; stroke-linecap:round; stroke-width:0.25; stroke-dasharray:3,3;"/>
<line x1="319.000000" y1="95.000000" x2="324.000000" y2="95.000000"  style="stroke: black; stroke-linecap:round; stroke-width:0.25; stroke-dasharray:3,3;"/>
<line x1="359.475000" y1="95.000000" x2="466.800000" y2="95.000000"  style="stroke: black; stroke-linecap:round; stroke-width:0.25; stroke-dasharray:3,3;"/>
<text x="324.000000" y="97.000000" font-family="Arial" font-size="7">linear2db</text>
<rect x="603.050000" y="199.000000" width="24.000000" height="24.000000" rx="0" ry="0" style="stroke:none;fill:#cccccc;"/>
<rect x="602.050000" y="198.000000" width="24.000000" height="24.000000" rx="0" ry="0" style="stroke:none;fill:#4B71A1;"/>
<text x="614.050000" y="212.000000" font-family="Arial" font-size="7" text-anchor="middle" fill="#FFFFFF">max</text>
<circle cx="604.050000" cy="200.000000" r="1"/>
<line x1="599.050000" y1="205.000000" x2="602.050000" y2="206.000000"  transform="rotate(0.000000,602.050000,206.000000)" style="stroke: black; stroke-width:0.25;"/>
<line x1="599.050000" y1="207.000000" x2="602.050000" y2="206.000000"  transform="rotate(0.000000,602.050000,206.000000)" style="stroke: black; stroke-width:0.25;"/>
<line x1="599.050000" y1="213.000000" x2="602.050000" y2="214.000000"  transform="rotate(0.000000,602.050000,214.000000)" style="stroke: black; stroke-width:0.25;"/>
<line x1="599.050000" y1="215.000000" x2="602.050000" y2="214.000000"  transform="rotate(0.000000,602.050000,214.000000)" style="stroke: black; stroke-width:0.25;"/>
<rect x="643.050000" y="159.000000" width="24.000000" height="24.000000" rx="0" ry="0" style="stroke:none;fill:#cccccc;"/>
<rect x="642.050000" y="158.000000" width="24.000000" height="24.000000" rx="0" ry="0" style="stroke:none;fill:#f44800;"/>
<text x="654.050000" y="172.000000" font-family="Arial" font-size="7" text-anchor="middle" fill="#FFFFFF">70</text>
<circle cx="664.050000" cy="180.000000" r="1"/>
<rect x="662.150000" y="117.000000" width="25.800000" height="24.000000" rx="0" ry="0" style="stroke:none;fill:#cccccc;"/>
<rect x="661.150000" y="116.000000" width="25.800000" height="24.000000" rx="0" ry="0" style="stroke:none;fill:#f44800;"/>
<text x="674.050000" y="130.000000" font-family="Arial" font-size="7" text-anchor="middle" fill="#FFFFFF">192000</text>
<circle cx="684.950000" cy="138.000000" r="1"/>
<rect x="683.050000" y="85.000000" width="24.000000" height="24.000000" rx="0" ry="0" style="stroke:none;fill:#cccccc;"/>
<rect x="682.050000" y="84.000000" width="24.000000" height="24.000000" rx="0" ry="0" style="stroke:none;fill:#f44800;"/>
<text x="694.050000" y="98.000000" font-family="Arial" font-size="7" text-anchor="middle" fill="#FFFFFF">1</text>
<circle cx="704.050000" cy="106.000000" r="1"/>
<rect x="662.800000" y="53.000000" width="64.500000" height="24.000000" rx="0" ry="0" style="stroke:none;fill:#cccccc;"/>
<rect x="661.800000" y="52.000000" width="64.500000" height="24.000000" rx="0" ry="0" style="stroke:none;fill:#4B71A1;"/>
<text x="694.050000" y="66.000000" font-family="Arial" font-size="7" text-anchor="middle" fill="#FFFFFF">fSamplingFreq</text>
<circle cx="724.300000" cy="74.000000" r="1"/>
<rect x="622.800000" y="69.000000" width="24.000000" height="24.000000" rx="0" ry="0" style="stroke:none;fill:#cccccc;"/>
<rect x="621.800000" y="68.000000" width="24.000000" height="24.000000" rx="0" ry="0" style="stroke:none;fill:#4B71A1;"/>
<text x="633.800000" y="82.000000" font-family="Arial" font-size="7" text-anchor="middle" fill="#FFFFFF">max</text>
<circle cx="643.800000" cy="90.000000" r="1"/>
<line x1="648.800000" y1="83.000000" x2="645.800000" y2="84.000000"  transform="rotate(0.000000,645.800000,84.000000)" style="stroke: black; stroke-width:0.25;"/>
<line x1="648.800000" y1="85.000000" x2="645.800000" y2="84.000000"  transform="rotate(0.000000,645.800000,84.000000)" style="stroke: black; stroke-width:0.25;"/>
<line x1="648.800000" y1="75.000000" x2="645.800000" y2="76.000000"  transform="rotate(0.000000,645.800000,76.000000)" style="stroke: black; stroke-width:0.25;"/>
<line x1="648.800000" y1="77.000000" x2="645.800000" y2="76.000000"  transform="rotate(0.000000,645.800000,76.000000)" style="stroke: black; stroke-width:0.25;"/>
<rect x="582.800000" y="85.000000" width="24.000000" height="24.000000" rx="0" ry="0" style="stroke:none;fill:#cccccc;"/>
<rect x="581.800000" y="84.000000" width="24.000000" height="24.000000" rx="0" ry="0" style="stroke:none;fill:#4B71A1;"/>
<text x="593.800000" y="98.000000" font-family="Arial" font-size="7" text-anchor="middle" fill="#FFFFFF">min</text>
<circle cx="603.800000" cy="106.000000" r="1"/>
<line x1="608.800000" y1="99.000000" x2="605.800000" y2="100.000000"  transform="rotate(0.000000,605.800000,100.000000)" style="stroke: black; stroke-width:0.25;"/>
<line x1="608.800000" y1="101.000000" x2="605.800000" y2="100.000000"  transform="rotate(0.000000,605.800000,100.000000)" style="stroke: black; stroke-width:0.25;"/>
<line x1="608.800000" y1="91.000000" x2="605.800000" y2="92.000000"  transform="rotate(0.000000,605.800000,92.000000)" style="stroke: black; stroke-width:0.25;"/>
<line x1="608.800000" y1="93.000000" x2="605.800000" y2="92.000000"  transform="rotate(0.000000,605.800000,92.000000)" style="stroke: black; stroke-width:0.25;"/>
<line x1="572.800000" y1="43.000000" x2="572.800000" y2="149.000000"  style="stroke: black; stroke-linecap:round; stroke-width:0.25; stroke-dasharray:3,3;"/>
<line x1="572.800000" y1="149.000000" x2="735.300000" y2="149.000000"  style="stroke: black; stroke-linecap:round; stroke-width:0.25; stroke-dasharray:3,3;"/>
<line x1="735.300000" y1="149.000000" x2="735.300000" y2="43.000000"  style="stroke: black; stroke-linecap:round; stroke-width:0.25; stroke-dasharray:3,3;"/>
<line x1="572.800000" y1="43.000000" x2="577.800000" y2="43.000000"  style="stroke: black; stroke-linecap:round; stroke-width:0.25; stroke-dasharray:3,3;"/>
<line x1="590.700000" y1="43.000000" x2="735.300000" y2="43.000000"  style="stroke: black; stroke-linecap:round; stroke-width:0.25; stroke-dasharray:3,3;"/>
<text x="577.800000" y="45.000000" font-family="Arial" font-size="7">SR</text>
<rect x="532.800000" y="101.000000" width="24.000000" height="24.000000" rx="0" ry="0" style="stroke:none;fill:#cccccc;"/>
<rect x="531.800000" y="100.000000" width="24.000000" height="24.000000" rx="0" ry="0" style="stroke:none;fill:#4B71A1;"/>
<text x="543.800000" y="114.000000" font-family="Arial" font-size="7" text-anchor="middle" fill="#FFFFFF">/</text>
<circle cx="553.800000" cy="122.000000" r="1"/>
<line x1="558.800000" y1="115.000000" x2="555.800000" y2="116.000000"  transform="rotate(0.000000,555.800000,116.000000)" style="stroke: black; stroke-width:0.25;"/>
<line x1="558.800000" y1="117.000000" x2="555.800000" y2="116.000000"  transform="rotate(0.000000,555.800000,116.000000)" style="stroke: black; stroke-width:0.25;"/>
<line x1="558.800000" y1="107.000000" x2="555.800000" y2="108.000000"  transform="rotate(0.000000,555.800000,108.000000)" style="stroke: black; stroke-width:0.25;"/>
<line x1="558.800000" y1="109.000000" x2="555.800000" y2="108.000000"  transform="rotate(0.000000,555.800000,108.000000)" style="stroke: black; stroke-width:0.25;"/>
<rect x="492.800000" y="105.000000" width="24.000000" height="24.000000" rx="0" ry="0" style="stroke:none;fill:#cccccc;"/>
<rect x="491.800000" y="104.000000" width="24.000000" height="24.000000" rx="0" ry="0" style="stroke:none;fill:#4B71A1;"/>
<text x="503.800000" y="118.000000" font-family="Arial" font-size="7" text-anchor="middle" fill="#FFFFFF">-</text>
<circle cx="513.800000" cy="126.000000" r="1"/>
<line x1="518.800000" y1="119.000000" x2="515.800000" y2="120.000000"  transform="rotate(0.000000,515.800000,120.000000)" style="stroke: black; stroke-width:0.25;"/>
<line x1="518.800000" y1="121.000000" x2="515.800000" y2="120.000000"  transform="rotate(0.000000,515.800000,120.000000)" style="stroke: black; stroke-width:0.25;"/>
<line x1="518.800000" y1="111.000000" x2="515.800000" y2="112.000000"  transform="rotate(0.000000,515.800000,112.000000)" style="stroke: black; stroke-width:0.25;"/>
<line x1="518.800000" y1="113.000000" x2="515.800000" y2="112.000000"  transform="rotate(0.000000,515.800000,112.000000)" style="stroke: black; stroke-width:0.25;"/>
<line x1="738.300000" y1="210.000000" x2="738.300000" y2="206.000000"  style="stroke:black; stroke-linecap:round; stroke-width:0.25;"/>
<line x1="738.300000" y1="206.000000" x2="742.300000" y2="206.000000"  style="stroke:black; stroke-linecap:round; stroke-width:0.25;"/>
<line x1="742.300000" y1="206.000000" x2="742.300000" y2="210.000000"  style="stroke:black; stroke-linecap:round; stroke-width:0.25;"/>
<line x1="97.000000" y1="33.000000" x2="97.000000" y2="231.000000"  style="stroke: black; stroke-linecap:round; stroke-width:0.25; stroke-dasharray:3,3;"/>
<line x1="97.000000" y1="231.000000" x2="753.300000" y2="231.000000"  style="stroke: black; stroke-linecap:round; stroke-width:0.25; stroke-dasharray:3,3;"/>
<line x1="753.300000" y1="231.000000" x2="753.300000" y2="33.000000"  style="stroke: black; stroke-linecap:round; stroke-width:0.25; stroke-dasharray:3,3;"/>
<line x1="97.000000" y1="33.000000" x2="102.000000" y2="33.000000"  style="stroke: black; stroke-linecap:round; stroke-width:0.25; stroke-dasharray:3,3;"/>
<line x1="131.025000" y1="33.000000" x2="753.300000" y2="33.000000"  style="stroke: black; stroke-linecap:round; stroke-width:0.25; stroke-dasharray:3,3;"/>
<text x="102.000000" y="35.000000" font-family="Arial" font-size="7">envelop</text>
<rect x="771.300000" y="121.000000" width="129.000000" height="24.000000" rx="0" ry="0" style="stroke:none;fill:#cccccc;"/>
<rect x="770.300000" y="120.000000" width="129.000000" height="24.000000" rx="0" ry="0" style="stroke:none;fill:#477881;"/>
<text x="834.800000" y="134.000000" font-family="Arial" font-size="7" text-anchor="middle" fill="#FFFFFF">vbargraph(Vu, -7e+01f, 5.0f)</text>
<circle cx="772.300000" cy="122.000000" r="1"/>
<line x1="767.300000" y1="131.000000" x2="770.300000" y2="132.000000"  transform="rotate(0.000000,770.300000,132.000000)" style="stroke: black; stroke-width:0.25;"/>
<line x1="767.300000" y1="133.000000" x2="770.300000" y2="132.000000"  transform="rotate(0.000000,770.300000,132.000000)" style="stroke: black; stroke-width:0.25;"/>
<rect x="916.300000" y="117.000000" width="25.800000" height="24.000000" rx="0" ry="0" style="stroke:none;fill:#cccccc;"/>
<rect x="915.300000" y="116.000000" width="25.800000" height="24.000000" rx="0" ry="0" style="stroke:none;fill:#4B71A1;"/>
<text x="928.200000" y="130.000000" font-family="Arial" font-size="7" text-anchor="middle" fill="#FFFFFF">attach</text>
<circle cx="917.300000" cy="118.000000" r="1"/>
<line x1="912.300000" y1="123.000000" x2="915.300000" y2="124.000000"  transform="rotate(0.000000,915.300000,124.000000)" style="stroke: black; stroke-width:0.25;"/>
<line x1="912.300000" y1="125.000000" x2="915.300000" y2="124.000000"  transform="rotate(0.000000,915.300000,124.000000)" style="stroke: black; stroke-width:0.25;"/>
<line x1="912.300000" y1="131.000000" x2="915.300000" y2="132.000000"  transform="rotate(0.000000,915.300000,132.000000)" style="stroke: black; stroke-width:0.25;"/>
<line x1="912.300000" y1="133.000000" x2="915.300000" y2="132.000000"  transform="rotate(0.000000,915.300000,132.000000)" style="stroke: black; stroke-width:0.25;"/>
<line x1="15.000000" y1="15.000000" x2="15.000000" y2="241.000000"  style="stroke: black; stroke-linecap:round; stroke-width:0.25; stroke-dasharray:3,3;"/>
<line x1="15.000000" y1="241.000000" x2="958.100000" y2="241.000000"  style="stroke: black; stroke-linecap:round; stroke-width:0.25; stroke-dasharray:3,3;"/>
<line x1="958.100000" y1="241.000000" x2="958.100000" y2="15.000000"  style="stroke: black; stroke-linecap:round; stroke-width:0.25; stroke-dasharray:3,3;"/>
<line x1="15.000000" y1="15.000000" x2="20.000000" y2="15.000000"  style="stroke: black; stroke-linecap:round; stroke-width:0.25; stroke-dasharray:3,3;"/>
<line x1="49.025000" y1="15.000000" x2="958.100000" y2="15.000000"  style="stroke: black; stroke-linecap:round; stroke-width:0.25; stroke-dasharray:3,3;"/>
<text x="20.000000" y="17.000000" font-family="Arial" font-size="7">process</text>
<line x1="960.100000" y1="127.000000" x2="963.100000" y2="128.000000"  transform="rotate(0.000000,963.100000,128.000000)" style="stroke: black; stroke-width:0.25;"/>
<line x1="960.100000" y1="129.000000" x2="963.100000" y2="128.000000"  transform="rotate(0.000000,963.100000,128.000000)" style="stroke: black; stroke-width:0.25;"/>
<line x1="10.000000" y1="128.000000" x2="20.000000" y2="128.000000"  style="stroke:black; stroke-linecap:round; stroke-width:0.25;"/>
<line x1="20.000000" y1="128.000000" x2="24.000000" y2="128.000000"  style="stroke:black; stroke-linecap:round; stroke-width:0.25;"/>
<line x1="24.000000" y1="128.000000" x2="28.000000" y2="128.000000"  style="stroke:black; stroke-linecap:round; stroke-width:0.25;"/>
<line x1="28.000000" y1="128.000000" x2="28.000000" y2="128.000000"  style="stroke:black; stroke-linecap:round; stroke-width:0.25;"/>
<line x1="28.000000" y1="128.000000" x2="32.000000" y2="128.000000"  style="stroke:black; stroke-linecap:round; stroke-width:0.25;"/>
<line x1="32.000000" y1="128.000000" x2="36.000000" y2="128.000000"  style="stroke:black; stroke-linecap:round; stroke-width:0.25;"/>
<line x1="36.000000" y1="128.000000" x2="92.000000" y2="24.000000"  style="stroke:black; stroke-linecap:round; stroke-width:0.25;"/>
<line x1="36.000000" y1="128.000000" x2="92.000000" y2="132.000000"  style="stroke:black; stroke-linecap:round; stroke-width:0.25;"/>
<line x1="92.000000" y1="24.000000" x2="497.650000" y2="24.000000"  style="stroke:black; stroke-linecap:round; stroke-width:0.25;"/>
<line x1="92.000000" y1="132.000000" x2="102.000000" y2="132.000000"  style="stroke:black; stroke-linecap:round; stroke-width:0.25;"/>
<line x1="102.000000" y1="132.000000" x2="106.000000" y2="132.000000"  style="stroke:black; stroke-linecap:round; stroke-width:0.25;"/>
<line x1="130.000000" y1="132.000000" x2="134.000000" y2="132.000000"  style="stroke:black; stroke-linecap:round; stroke-width:0.25;"/>
<line x1="134.000000" y1="132.000000" x2="142.000000" y2="132.000000"  style="stroke:black; stroke-linecap:round; stroke-width:0.25;"/>
<line x1="142.000000" y1="132.000000" x2="142.000000" y2="190.000000"  style="stroke:black; stroke-linecap:round; stroke-width:0.25;"/>
<line x1="142.000000" y1="190.000000" x2="142.000000" y2="190.000000"  style="stroke:black; stroke-linecap:round; stroke-width:0.25;"/>
<line x1="142.000000" y1="190.000000" x2="208.000000" y2="190.000000"  style="stroke:black; stroke-linecap:round; stroke-width:0.25;"/>
<line x1="180.000000" y1="128.000000" x2="184.000000" y2="128.000000"  style="stroke:black; stroke-linecap:round; stroke-width:0.25;"/>
<line x1="180.000000" y1="160.000000" x2="184.000000" y2="160.000000"  style="stroke:black; stroke-linecap:round; stroke-width:0.25;"/>
<line x1="184.000000" y1="128.000000" x2="192.000000" y2="128.000000"  style="stroke:black; stroke-linecap:round; stroke-width:0.25;"/>
<line x1="184.000000" y1="148.000000" x2="192.000000" y2="148.000000"  style="stroke:black; stroke-linecap:round; stroke-width:0.25;"/>
<line x1="184.000000" y1="160.000000" x2="184.000000" y2="148.000000"  style="stroke:black; stroke-linecap:round; stroke-width:0.25;"/>
<line x1="184.000000" y1="160.000000" x2="184.000000" y2="160.000000"  style="stroke:black; stroke-linecap:round; stroke-width:0.25;"/>
<line x1="192.000000" y1="128.000000" x2="192.000000" y2="140.000000"  style="stroke:black; stroke-linecap:round; stroke-width:0.25;"/>
<line x1="192.000000" y1="140.000000" x2="192.000000" y2="140.000000"  style="stroke:black; stroke-linecap:round; stroke-width:0.25;"/>
<line x1="192.000000" y1="140.000000" x2="196.000000" y2="140.000000"  style="stroke:black; stroke-linecap:round; stroke-width:0.25;"/>
<line x1="192.000000" y1="148.000000" x2="196.000000" y2="148.000000"  style="stroke:black; stroke-linecap:round; stroke-width:0.25;"/>
<line x1="200.000000" y1="96.000000" x2="204.000000" y2="96.000000"  style="stroke:black; stroke-linecap:round; stroke-width:0.25;"/>
<line x1="204.000000" y1="96.000000" x2="224.000000" y2="96.000000"  style="stroke:black; stroke-linecap:round; stroke-width:0.25;"/>
<line x1="208.000000" y1="190.000000" x2="274.000000" y2="190.000000"  style="stroke:black; stroke-linecap:round; stroke-width:0.25;"/>
<line x1="220.000000" y1="144.000000" x2="224.000000" y2="144.000000"  style="stroke:black; stroke-linecap:round; stroke-width:0.25;"/>
<line x1="224.000000" y1="96.000000" x2="232.000000" y2="96.000000"  style="stroke:black; stroke-linecap:round; stroke-width:0.25;"/>
<line x1="224.000000" y1="132.000000" x2="232.000000" y2="132.000000"  style="stroke:black; stroke-linecap:round; stroke-width:0.25;"/>
<line x1="224.000000" y1="144.000000" x2="224.000000" y2="132.000000"  style="stroke:black; stroke-linecap:round; stroke-width:0.25;"/>
<line x1="224.000000" y1="144.000000" x2="224.000000" y2="144.000000"  style="stroke:black; stroke-linecap:round; stroke-width:0.25;"/>
<line x1="232.000000" y1="96.000000" x2="232.000000" y2="124.000000"  style="stroke:black; stroke-linecap:round; stroke-width:0.25;"/>
<line x1="232.000000" y1="124.000000" x2="232.000000" y2="124.000000"  style="stroke:black; stroke-linecap:round; stroke-width:0.25;"/>
<line x1="232.000000" y1="124.000000" x2="236.000000" y2="124.000000"  style="stroke:black; stroke-linecap:round; stroke-width:0.25;"/>
<line x1="232.000000" y1="132.000000" x2="236.000000" y2="132.000000"  style="stroke:black; stroke-linecap:round; stroke-width:0.25;"/>
<line x1="260.000000" y1="128.000000" x2="264.000000" y2="128.000000"  style="stroke:black; stroke-linecap:round; stroke-width:0.25;"/>
<line x1="264.000000" y1="128.000000" x2="274.000000" y2="128.000000"  style="stroke:black; stroke-linecap:round; stroke-width:0.25;"/>
<line x1="274.000000" y1="128.000000" x2="282.000000" y2="128.000000"  style="stroke:black; stroke-linecap:round; stroke-width:0.25;"/>
<line x1="274.000000" y1="136.000000" x2="282.000000" y2="136.000000"  style="stroke:black; stroke-linecap:round; stroke-width:0.25;"/>
<line x1="274.000000" y1="190.000000" x2="274.000000" y2="136.000000"  style="stroke:black; stroke-linecap:round; stroke-width:0.25;"/>
<line x1="274.000000" y1="190.000000" x2="274.000000" y2="190.000000"  style="stroke:black; stroke-linecap:round; stroke-width:0.25;"/>
<line x1="282.000000" y1="128.000000" x2="286.000000" y2="128.000000"  style="stroke:black; stroke-linecap:round; stroke-width:0.25;"/>
<line x1="282.000000" y1="136.000000" x2="286.000000" y2="136.000000"  style="stroke:black; stroke-linecap:round; stroke-width:0.25;"/>
<line x1="310.000000" y1="132.000000" x2="314.000000" y2="132.000000"  style="stroke:black; stroke-linecap:round; stroke-width:0.25;"/>
<line x1="314.000000" y1="132.000000" x2="314.000000" y2="132.000000"  style="stroke:black; stroke-linecap:round; stroke-width:0.25;"/>
<line x1="314.000000" y1="132.000000" x2="324.000000" y2="132.000000"  style="stroke:black; stroke-linecap:round; stroke-width:0.25;"/>
<line x1="324.000000" y1="132.000000" x2="328.000000" y2="132.000000"  style="stroke:black; stroke-linecap:round; stroke-width:0.25;"/>
<line x1="384.000000" y1="148.000000" x2="388.000000" y2="148.000000"  style="stroke:black; stroke-linecap:round; stroke-width:0.25;"/>
<line x1="388.000000" y1="148.000000" x2="388.000000" y2="148.000000"  style="stroke:black; stroke-linecap:round; stroke-width:0.25;"/>
<line x1="388.000000" y1="148.000000" x2="392.000000" y2="148.000000"  style="stroke:black; stroke-linecap:round; stroke-width:0.25;"/>
<line x1="400.900000" y1="116.000000" x2="404.900000" y2="116.000000"  style="stroke:black; stroke-linecap:round; stroke-width:0.25;"/>
<line x1="404.900000" y1="116.000000" x2="421.800000" y2="116.000000"  style="stroke:black; stroke-linecap:round; stroke-width:0.25;"/>
<line x1="417.800000" y1="148.000000" x2="421.800000" y2="148.000000"  style="stroke:black; stroke-linecap:round; stroke-width:0.25;"/>
<line x1="421.800000" y1="116.000000" x2="429.800000" y2="116.000000"  style="stroke:black; stroke-linecap:round; stroke-width:0.25;"/>
<line x1="421.800000" y1="136.000000" x2="429.800000" y2="136.000000"  style="stroke:black; stroke-linecap:round; stroke-width:0.25;"/>
<line x1="421.800000" y1="148.000000" x2="421.800000" y2="136.000000"  style="stroke:black; stroke-linecap:round; stroke-width:0.25;"/>
<line x1="421.800000" y1="148.000000" x2="421.800000" y2="148.000000"  style="stroke:black; stroke-linecap:round; stroke-width:0.25;"/>
<line x1="429.800000" y1="116.000000" x2="429.800000" y2="128.000000"  style="stroke:black; stroke-linecap:round; stroke-width:0.25;"/>
<line x1="429.800000" y1="128.000000" x2="429.800000" y2="128.000000"  style="stroke:black; stroke-linecap:round; stroke-width:0.25;"/>
<line x1="429.800000" y1="128.000000" x2="433.800000" y2="128.000000"  style="stroke:black; stroke-linecap:round; stroke-width:0.25;"/>
<line x1="429.800000" y1="136.000000" x2="433.800000" y2="136.000000"  style="stroke:black; stroke-linecap:round; stroke-width:0.25;"/>
<line x1="457.800000" y1="132.000000" x2="461.800000" y2="132.000000"  style="stroke:black; stroke-linecap:round; stroke-width:0.25;"/>
<line x1="461.800000" y1="132.000000" x2="471.800000" y2="132.000000"  style="stroke:black; stroke-linecap:round; stroke-width:0.25;"/>
<line x1="471.800000" y1="132.000000" x2="479.800000" y2="132.000000"  style="stroke:black; stroke-linecap:round; stroke-width:0.25;"/>
<line x1="479.800000" y1="214.000000" x2="487.800000" y2="214.000000"  style="stroke:black; stroke-linecap:round; stroke-width:0.25;"/>
<line x1="479.800000" y1="132.000000" x2="479.800000" y2="214.000000"  style="stroke:black; stroke-linecap:round; stroke-width:0.25;"/>
<line x1="479.800000" y1="214.000000" x2="479.800000" y2="214.000000"  style="stroke:black; stroke-linecap:round; stroke-width:0.25;"/>
<line x1="487.800000" y1="206.000000" x2="598.050000" y2="206.000000"  style="stroke:black; stroke-linecap:round; stroke-width:0.25;"/>
<line x1="487.800000" y1="214.000000" x2="598.050000" y2="214.000000"  style="stroke:black; stroke-linecap:round; stroke-width:0.25;"/>
<line x1="487.800000" y1="116.000000" x2="487.800000" y2="116.000000"  style="stroke:black; stroke-linecap:round; stroke-width:0.25;"/>
<line x1="487.800000" y1="116.000000" x2="487.800000" y2="206.000000"  style="stroke:black; stroke-linecap:round; stroke-width:0.25;"/>
<line x1="487.800000" y1="206.000000" x2="487.800000" y2="206.000000"  style="stroke:black; stroke-linecap:round; stroke-width:0.25;"/>
<line x1="491.800000" y1="116.000000" x2="487.800000" y2="116.000000"  style="stroke:black; stroke-linecap:round; stroke-width:0.25;"/>
<line x1="497.650000" y1="24.000000" x2="903.300000" y2="24.000000"  style="stroke:black; stroke-linecap:round; stroke-width:0.25;"/>
<line x1="519.800000" y1="112.000000" x2="515.800000" y2="112.000000"  style="stroke:black; stroke-linecap:round; stroke-width:0.25;"/>
<line x1="519.800000" y1="120.000000" x2="515.800000" y2="120.000000"  style="stroke:black; stroke-linecap:round; stroke-width:0.25;"/>
<line x1="519.800000" y1="120.000000" x2="519.800000" y2="120.000000"  style="stroke:black; stroke-linecap:round; stroke-width:0.25;"/>
<line x1="519.800000" y1="190.000000" x2="519.800000" y2="120.000000"  style="stroke:black; stroke-linecap:round; stroke-width:0.25;"/>
<line x1="527.800000" y1="112.000000" x2="519.800000" y2="112.000000"  style="stroke:black; stroke-linecap:round; stroke-width:0.25;"/>
<line x1="527.800000" y1="190.000000" x2="519.800000" y2="190.000000"  style="stroke:black; stroke-linecap:round; stroke-width:0.25;"/>
<line x1="531.800000" y1="112.000000" x2="527.800000" y2="112.000000"  style="stroke:black; stroke-linecap:round; stroke-width:0.25;"/>
<line x1="559.800000" y1="108.000000" x2="555.800000" y2="108.000000"  style="stroke:black; stroke-linecap:round; stroke-width:0.25;"/>
<line x1="559.800000" y1="116.000000" x2="555.800000" y2="116.000000"  style="stroke:black; stroke-linecap:round; stroke-width:0.25;"/>
<line x1="559.800000" y1="116.000000" x2="559.800000" y2="116.000000"  style="stroke:black; stroke-linecap:round; stroke-width:0.25;"/>
<line x1="559.800000" y1="170.000000" x2="559.800000" y2="116.000000"  style="stroke:black; stroke-linecap:round; stroke-width:0.25;"/>
<line x1="567.800000" y1="96.000000" x2="567.800000" y2="96.000000"  style="stroke:black; stroke-linecap:round; stroke-width:0.25;"/>
<line x1="567.800000" y1="96.000000" x2="567.800000" y2="108.000000"  style="stroke:black; stroke-linecap:round; stroke-width:0.25;"/>
<line x1="567.800000" y1="108.000000" x2="559.800000" y2="108.000000"  style="stroke:black; stroke-linecap:round; stroke-width:0.25;"/>
<line x1="567.800000" y1="170.000000" x2="559.800000" y2="170.000000"  style="stroke:black; stroke-linecap:round; stroke-width:0.25;"/>
<line x1="577.800000" y1="96.000000" x2="567.800000" y2="96.000000"  style="stroke:black; stroke-linecap:round; stroke-width:0.25;"/>
<line x1="581.800000" y1="96.000000" x2="577.800000" y2="96.000000"  style="stroke:black; stroke-linecap:round; stroke-width:0.25;"/>
<line x1="598.050000" y1="206.000000" x2="602.050000" y2="206.000000"  style="stroke:black; stroke-linecap:round; stroke-width:0.25;"/>
<line x1="598.050000" y1="214.000000" x2="602.050000" y2="214.000000"  style="stroke:black; stroke-linecap:round; stroke-width:0.25;"/>
<line x1="609.800000" y1="92.000000" x2="605.800000" y2="92.000000"  style="stroke:black; stroke-linecap:round; stroke-width:0.25;"/>
<line x1="609.800000" y1="100.000000" x2="605.800000" y2="100.000000"  style="stroke:black; stroke-linecap:round; stroke-width:0.25;"/>
<line x1="609.800000" y1="100.000000" x2="609.800000" y2="100.000000"  style="stroke:black; stroke-linecap:round; stroke-width:0.25;"/>
<line x1="609.800000" y1="128.000000" x2="609.800000" y2="100.000000"  style="stroke:black; stroke-linecap:round; stroke-width:0.25;"/>
<line x1="617.800000" y1="80.000000" x2="617.800000" y2="80.000000"  style="stroke:black; stroke-linecap:round; stroke-width:0.25;"/>
<line x1="617.800000" y1="80.000000" x2="617.800000" y2="92.000000"  style="stroke:black; stroke-linecap:round; stroke-width:0.25;"/>
<line x1="617.800000" y1="92.000000" x2="609.800000" y2="92.000000"  style="stroke:black; stroke-linecap:round; stroke-width:0.25;"/>
<line x1="617.800000" y1="128.000000" x2="609.800000" y2="128.000000"  style="stroke:black; stroke-linecap:round; stroke-width:0.25;"/>
<line x1="621.800000" y1="80.000000" x2="617.800000" y2="80.000000"  style="stroke:black; stroke-linecap:round; stroke-width:0.25;"/>
<line x1="626.050000" y1="210.000000" x2="630.050000" y2="210.000000"  style="stroke:black; stroke-linecap:round; stroke-width:0.25;"/>
<line x1="630.050000" y1="210.000000" x2="740.300000" y2="210.000000"  style="stroke:black; stroke-linecap:round; stroke-width:0.25;"/>
<line x1="634.050000" y1="190.000000" x2="527.800000" y2="190.000000"  style="stroke:black; stroke-linecap:round; stroke-width:0.25;"/>
<line x1="638.050000" y1="170.000000" x2="567.800000" y2="170.000000"  style="stroke:black; stroke-linecap:round; stroke-width:0.25;"/>
<line x1="642.050000" y1="170.000000" x2="638.050000" y2="170.000000"  style="stroke:black; stroke-linecap:round; stroke-width:0.25;"/>
<line x1="649.800000" y1="76.000000" x2="645.800000" y2="76.000000"  style="stroke:black; stroke-linecap:round; stroke-width:0.25;"/>
<line x1="649.800000" y1="84.000000" x2="645.800000" y2="84.000000"  style="stroke:black; stroke-linecap:round; stroke-width:0.25;"/>
<line x1="649.800000" y1="84.000000" x2="649.800000" y2="84.000000"  style="stroke:black; stroke-linecap:round; stroke-width:0.25;"/>
<line x1="649.800000" y1="96.000000" x2="649.800000" y2="84.000000"  style="stroke:black; stroke-linecap:round; stroke-width:0.25;"/>
<line x1="657.150000" y1="128.000000" x2="617.800000" y2="128.000000"  style="stroke:black; stroke-linecap:round; stroke-width:0.25;"/>
<line x1="657.800000" y1="64.000000" x2="657.800000" y2="64.000000"  style="stroke:black; stroke-linecap:round; stroke-width:0.25;"/>
<line x1="657.800000" y1="64.000000" x2="657.800000" y2="76.000000"  style="stroke:black; stroke-linecap:round; stroke-width:0.25;"/>
<line x1="657.800000" y1="76.000000" x2="649.800000" y2="76.000000"  style="stroke:black; stroke-linecap:round; stroke-width:0.25;"/>
<line x1="657.800000" y1="96.000000" x2="649.800000" y2="96.000000"  style="stroke:black; stroke-linecap:round; stroke-width:0.25;"/>
<line x1="661.150000" y1="128.000000" x2="657.150000" y2="128.000000"  style="stroke:black; stroke-linecap:round; stroke-width:0.25;"/>
<line x1="661.800000" y1="64.000000" x2="657.800000" y2="64.000000"  style="stroke:black; stroke-linecap:round; stroke-width:0.25;"/>
<line x1="678.050000" y1="96.000000" x2="657.800000" y2="96.000000"  style="stroke:black; stroke-linecap:round; stroke-width:0.25;"/>
<line x1="682.050000" y1="96.000000" x2="678.050000" y2="96.000000"  style="stroke:black; stroke-linecap:round; stroke-width:0.25;"/>
<line x1="740.300000" y1="190.000000" x2="634.050000" y2="190.000000"  style="stroke:black; stroke-linecap:round; stroke-width:0.25;"/>
<line x1="740.300000" y1="190.000000" x2="740.300000" y2="190.000000"  style="stroke:black; stroke-linecap:round; stroke-width:0.25;"/>
<line x1="740.300000" y1="206.000000" x2="740.300000" y2="190.000000"  style="stroke:black; stroke-linecap:round; stroke-width:0.25;"/>
<line x1="740.300000" y1="210.000000" x2="742.300000" y2="210.000000"  style="stroke:black; stroke-linecap:round; stroke-width:0.25;"/>
<line x1="742.300000" y1="210.000000" x2="748.300000" y2="210.000000"  style="stroke:black; stroke-linecap:round; stroke-width:0.25;"/>
<line x1="748.300000" y1="210.000000" x2="758.300000" y2="210.000000"  style="stroke:black; stroke-linecap:round; stroke-width:0.25;"/>
<line x1="758.300000" y1="132.000000" x2="766.300000" y2="132.000000"  style="stroke:black; stroke-linecap:round; stroke-width:0.25;"/>
<line x1="758.300000" y1="210.000000" x2="758.300000" y2="132.000000"  style="stroke:black; stroke-linecap:round; stroke-width:0.25;"/>
<line x1="758.300000" y1="210.000000" x2="758.300000" y2="210.000000"  style="stroke:black; stroke-linecap:round; stroke-width:0.25;"/>
<line x1="766.300000" y1="132.000000" x2="770.300000" y2="132.000000"  style="stroke:black; stroke-linecap:round; stroke-width:0.25;"/>
<line x1="899.300000" y1="132.000000" x2="903.300000" y2="132.000000"  style="stroke:black; stroke-linecap:round; stroke-width:0.25;"/>
<line x1="903.300000" y1="24.000000" x2="911.300000" y2="24.000000"  style="stroke:black; stroke-linecap:round; stroke-width:0.25;"/>
<line x1="903.300000" y1="132.000000" x2="911.300000" y2="132.000000"  style="stroke:black; stroke-linecap:round; stroke-width:0.25;"/>
<line x1="911.300000" y1="24.000000" x2="911.300000" y2="124.000000"  style="stroke:black; stroke-linecap:round; stroke-width:0.25;"/>
<line x1="911.300000" y1="124.000000" x2="911.300000" y2="124.000000"  style="stroke:black; stroke-linecap:round; stroke-width:0.25;"/>
<line x1="911.300000" y1="124.000000" x2="915.300000" y2="124.000000"  style="stroke:black; stroke-linecap:round; stroke-width:0.25;"/>
<line x1="911.300000" y1="132.000000" x2="915.300000" y2="132.000000"  style="stroke:black; stroke-linecap:round; stroke-width:0.25;"/>
<line x1="941.100000" y1="128.000000" x2="945.100000" y2="128.000000"  style="stroke:black; stroke-linecap:round; stroke-width:0.25;"/>
<line x1="945.100000" y1="128.000000" x2="945.100000" y2="128.000000"  style="stroke:black; stroke-linecap:round; stroke-width:0.25;"/>
<line x1="945.100000" y1="128.000000" x2="949.100000" y2="128.000000"  style="stroke:black; stroke-linecap:round; stroke-width:0.25;"/>
<line x1="949.100000" y1="128.000000" x2="953.100000" y2="128.000000"  style="stroke:black; stroke-linecap:round; stroke-width:0.25;"/>
<line x1="953.100000" y1="128.000000" x2="963.100000" y2="128.000000"  style="stroke:black; stroke-linecap:round; stroke-width:0.25;"/>
</svg>
