<?xml version="1.0"?>
<svg xmlns="http://www.w3.org/2000/svg" xmlns:xlink="http://www.w3.org/1999/xlink" viewBox="0 0 356.100000 240.000000" width="178.050000mm" height="120.000000mm" version="1.1">
<a xlink:href="boreDelay-0x7fe6e34e4fe0.svg">
<rect x="1.000000" y="1.000000" width="355.100000" height="239.000000" rx="0" ry="0" style="stroke:none;fill:#cccccc;"/>
<rect x="0.000000" y="0.000000" width="355.100000" height="239.000000" rx="0" ry="0" style="stroke:none;fill:#ffffff;"/>
</a>
<text x="10.000000" y="7.000000" font-family="Arial" font-size="7"></text>
<rect x="143.050000" y="25.000000" width="24.000000" height="24.000000" rx="0" ry="0" style="stroke:none;fill:#cccccc;"/>
<rect x="142.050000" y="24.000000" width="24.000000" height="24.000000" rx="0" ry="0" style="stroke:none;fill:#47945E;"/>
<text x="154.050000" y="38.000000" font-family="Arial" font-size="7" text-anchor="middle" fill="#FFFFFF">x</text>
<circle cx="144.050000" cy="26.000000" r="1"/>
<a xlink:href="boreDelayLength-0x7fe6e1ad91e0.svg">
<rect x="25.000000" y="57.000000" width="116.100000" height="24.000000" rx="0" ry="0" style="stroke:none;fill:#cccccc;"/>
<rect x="24.000000" y="56.000000" width="116.100000" height="24.000000" rx="0" ry="0" style="stroke:none;fill:#003366;"/>
</a>
<a xlink:href="boreDelayLength-0x7fe6e1ad91e0.svg">
<text x="82.050000" y="70.000000" font-family="Arial" font-size="7" text-anchor="middle" fill="#FFFFFF">boreDelayLength(1318.48f)</text>
</a>
<circle cx="26.000000" cy="58.000000" r="1"/>
<rect x="149.100000" y="57.000000" width="24.000000" height="24.000000" rx="0" ry="0" style="stroke:none;fill:#cccccc;"/>
<rect x="148.100000" y="56.000000" width="24.000000" height="24.000000" rx="0" ry="0" style="stroke:none;fill:#4B71A1;"/>
<text x="160.100000" y="70.000000" font-family="Arial" font-size="7" text-anchor="middle" fill="#FFFFFF">int</text>
<circle cx="150.100000" cy="58.000000" r="1"/>
<line x1="145.100000" y1="67.000000" x2="148.100000" y2="68.000000"  transform="rotate(0.000000,148.100000,68.000000)" style="stroke: black; stroke-width:0.25;"/>
<line x1="145.100000" y1="69.000000" x2="148.100000" y2="68.000000"  transform="rotate(0.000000,148.100000,68.000000)" style="stroke: black; stroke-width:0.25;"/>
<rect x="87.050000" y="99.000000" width="24.000000" height="24.000000" rx="0" ry="0" style="stroke:none;fill:#cccccc;"/>
<rect x="86.050000" y="98.000000" width="24.000000" height="24.000000" rx="0" ry="0" style="stroke:none;fill:#f44800;"/>
<text x="98.050000" y="112.000000" font-family="Arial" font-size="7" text-anchor="middle" fill="#FFFFFF">1</text>
<circle cx="88.050000" cy="100.000000" r="1"/>
<line x1="77.050000" y1="89.000000" x2="77.050000" y2="131.000000"  style="stroke: black; stroke-linecap:round; stroke-width:0.25; stroke-dasharray:3,3;"/>
<line x1="77.050000" y1="131.000000" x2="119.050000" y2="131.000000"  style="stroke: black; stroke-linecap:round; stroke-width:0.25; stroke-dasharray:3,3;"/>
<line x1="119.050000" y1="131.000000" x2="119.050000" y2="89.000000"  style="stroke: black; stroke-linecap:round; stroke-width:0.25; stroke-dasharray:3,3;"/>
<line x1="77.050000" y1="89.000000" x2="82.050000" y2="89.000000"  style="stroke: black; stroke-linecap:round; stroke-width:0.25; stroke-dasharray:3,3;"/>
<line x1="119.050000" y1="89.000000" x2="119.050000" y2="89.000000"  style="stroke: black; stroke-linecap:round; stroke-width:0.25; stroke-dasharray:3,3;"/>
<text x="82.050000" y="91.000000" font-family="Arial" font-size="7">env1Release</text>
<rect x="189.100000" y="83.000000" width="24.000000" height="24.000000" rx="0" ry="0" style="stroke:none;fill:#cccccc;"/>
<rect x="188.100000" y="82.000000" width="24.000000" height="24.000000" rx="0" ry="0" style="stroke:none;fill:#4B71A1;"/>
<text x="200.100000" y="96.000000" font-family="Arial" font-size="7" text-anchor="middle" fill="#FFFFFF">+</text>
<circle cx="190.100000" cy="84.000000" r="1"/>
<line x1="185.100000" y1="89.000000" x2="188.100000" y2="90.000000"  transform="rotate(0.000000,188.100000,90.000000)" style="stroke: black; stroke-width:0.25;"/>
<line x1="185.100000" y1="91.000000" x2="188.100000" y2="90.000000"  transform="rotate(0.000000,188.100000,90.000000)" style="stroke: black; stroke-width:0.25;"/>
<line x1="185.100000" y1="97.000000" x2="188.100000" y2="98.000000"  transform="rotate(0.000000,188.100000,98.000000)" style="stroke: black; stroke-width:0.25;"/>
<line x1="185.100000" y1="99.000000" x2="188.100000" y2="98.000000"  transform="rotate(0.000000,188.100000,98.000000)" style="stroke: black; stroke-width:0.25;"/>
<rect x="221.100000" y="83.000000" width="24.000000" height="24.000000" rx="0" ry="0" style="stroke:none;fill:#cccccc;"/>
<rect x="220.100000" y="82.000000" width="24.000000" height="24.000000" rx="0" ry="0" style="stroke:none;fill:#4B71A1;"/>
<text x="232.100000" y="96.000000" font-family="Arial" font-size="7" text-anchor="middle" fill="#FFFFFF">int</text>
<circle cx="222.100000" cy="84.000000" r="1"/>
<line x1="217.100000" y1="93.000000" x2="220.100000" y2="94.000000"  transform="rotate(0.000000,220.100000,94.000000)" style="stroke: black; stroke-width:0.25;"/>
<line x1="217.100000" y1="95.000000" x2="220.100000" y2="94.000000"  transform="rotate(0.000000,220.100000,94.000000)" style="stroke: black; stroke-width:0.25;"/>
<rect x="102.150000" y="141.000000" width="25.800000" height="24.000000" rx="0" ry="0" style="stroke:none;fill:#cccccc;"/>
<rect x="101.150000" y="140.000000" width="25.800000" height="24.000000" rx="0" ry="0" style="stroke:none;fill:#f44800;"/>
<text x="114.050000" y="154.000000" font-family="Arial" font-size="7" text-anchor="middle" fill="#FFFFFF">4096</text>
<circle cx="103.150000" cy="142.000000" r="1"/>
<rect x="103.050000" y="183.000000" width="24.000000" height="24.000000" rx="0" ry="0" style="stroke:none;fill:#cccccc;"/>
<rect x="102.050000" y="182.000000" width="24.000000" height="24.000000" rx="0" ry="0" style="stroke:none;fill:#f44800;"/>
<text x="114.050000" y="196.000000" font-family="Arial" font-size="7" text-anchor="middle" fill="#FFFFFF">1</text>
<circle cx="104.050000" cy="184.000000" r="1"/>
<line x1="93.050000" y1="173.000000" x2="93.050000" y2="215.000000"  style="stroke: black; stroke-linecap:round; stroke-width:0.25; stroke-dasharray:3,3;"/>
<line x1="93.050000" y1="215.000000" x2="135.050000" y2="215.000000"  style="stroke: black; stroke-linecap:round; stroke-width:0.25; stroke-dasharray:3,3;"/>
<line x1="135.050000" y1="215.000000" x2="135.050000" y2="173.000000"  style="stroke: black; stroke-linecap:round; stroke-width:0.25; stroke-dasharray:3,3;"/>
<line x1="93.050000" y1="173.000000" x2="98.050000" y2="173.000000"  style="stroke: black; stroke-linecap:round; stroke-width:0.25; stroke-dasharray:3,3;"/>
<line x1="135.050000" y1="173.000000" x2="135.050000" y2="173.000000"  style="stroke: black; stroke-linecap:round; stroke-width:0.25; stroke-dasharray:3,3;"/>
<text x="98.050000" y="175.000000" font-family="Arial" font-size="7">env1Release</text>
<rect x="153.050000" y="167.000000" width="24.000000" height="24.000000" rx="0" ry="0" style="stroke:none;fill:#cccccc;"/>
<rect x="152.050000" y="166.000000" width="24.000000" height="24.000000" rx="0" ry="0" style="stroke:none;fill:#4B71A1;"/>
<text x="164.050000" y="180.000000" font-family="Arial" font-size="7" text-anchor="middle" fill="#FFFFFF">-</text>
<circle cx="154.050000" cy="168.000000" r="1"/>
<line x1="149.050000" y1="173.000000" x2="152.050000" y2="174.000000"  transform="rotate(0.000000,152.050000,174.000000)" style="stroke: black; stroke-width:0.25;"/>
<line x1="149.050000" y1="175.000000" x2="152.050000" y2="174.000000"  transform="rotate(0.000000,152.050000,174.000000)" style="stroke: black; stroke-width:0.25;"/>
<line x1="149.050000" y1="181.000000" x2="152.050000" y2="182.000000"  transform="rotate(0.000000,152.050000,182.000000)" style="stroke: black; stroke-width:0.25;"/>
<line x1="149.050000" y1="183.000000" x2="152.050000" y2="182.000000"  transform="rotate(0.000000,152.050000,182.000000)" style="stroke: black; stroke-width:0.25;"/>
<rect x="261.100000" y="125.000000" width="24.000000" height="24.000000" rx="0" ry="0" style="stroke:none;fill:#cccccc;"/>
<rect x="260.100000" y="124.000000" width="24.000000" height="24.000000" rx="0" ry="0" style="stroke:none;fill:#4B71A1;"/>
<text x="272.100000" y="138.000000" font-family="Arial" font-size="7" text-anchor="middle" fill="#FFFFFF">&amp;</text>
<circle cx="262.100000" cy="126.000000" r="1"/>
<line x1="257.100000" y1="131.000000" x2="260.100000" y2="132.000000"  transform="rotate(0.000000,260.100000,132.000000)" style="stroke: black; stroke-width:0.25;"/>
<line x1="257.100000" y1="133.000000" x2="260.100000" y2="132.000000"  transform="rotate(0.000000,260.100000,132.000000)" style="stroke: black; stroke-width:0.25;"/>
<line x1="257.100000" y1="139.000000" x2="260.100000" y2="140.000000"  transform="rotate(0.000000,260.100000,140.000000)" style="stroke: black; stroke-width:0.25;"/>
<line x1="257.100000" y1="141.000000" x2="260.100000" y2="140.000000"  transform="rotate(0.000000,260.100000,140.000000)" style="stroke: black; stroke-width:0.25;"/>
<rect x="301.100000" y="109.000000" width="24.000000" height="24.000000" rx="0" ry="0" style="stroke:none;fill:#cccccc;"/>
<rect x="300.100000" y="108.000000" width="24.000000" height="24.000000" rx="0" ry="0" style="stroke:none;fill:#4B71A1;"/>
<text x="312.100000" y="122.000000" font-family="Arial" font-size="7" text-anchor="middle" fill="#FFFFFF">@</text>
<circle cx="302.100000" cy="110.000000" r="1"/>
<line x1="297.100000" y1="115.000000" x2="300.100000" y2="116.000000"  transform="rotate(0.000000,300.100000,116.000000)" style="stroke: black; stroke-width:0.25;"/>
<line x1="297.100000" y1="117.000000" x2="300.100000" y2="116.000000"  transform="rotate(0.000000,300.100000,116.000000)" style="stroke: black; stroke-width:0.25;"/>
<line x1="297.100000" y1="123.000000" x2="300.100000" y2="124.000000"  transform="rotate(0.000000,300.100000,124.000000)" style="stroke: black; stroke-width:0.25;"/>
<line x1="297.100000" y1="125.000000" x2="300.100000" y2="124.000000"  transform="rotate(0.000000,300.100000,124.000000)" style="stroke: black; stroke-width:0.25;"/>
<line x1="15.000000" y1="15.000000" x2="15.000000" y2="225.000000"  style="stroke: black; stroke-linecap:round; stroke-width:0.25; stroke-dasharray:3,3;"/>
<line x1="15.000000" y1="225.000000" x2="341.100000" y2="225.000000"  style="stroke: black; stroke-linecap:round; stroke-width:0.25; stroke-dasharray:3,3;"/>
<line x1="341.100000" y1="225.000000" x2="341.100000" y2="15.000000"  style="stroke: black; stroke-linecap:round; stroke-width:0.25; stroke-dasharray:3,3;"/>
<line x1="15.000000" y1="15.000000" x2="20.000000" y2="15.000000"  style="stroke: black; stroke-linecap:round; stroke-width:0.25; stroke-dasharray:3,3;"/>
<line x1="139.325000" y1="15.000000" x2="341.100000" y2="15.000000"  style="stroke: black; stroke-linecap:round; stroke-width:0.25; stroke-dasharray:3,3;"/>
<text x="20.000000" y="17.000000" font-family="Arial" font-size="7">delay(4096)((...: int),1 : +)(x574)</text>
<line x1="343.100000" y1="119.000000" x2="346.100000" y2="120.000000"  transform="rotate(0.000000,346.100000,120.000000)" style="stroke: black; stroke-width:0.25;"/>
<line x1="343.100000" y1="121.000000" x2="346.100000" y2="120.000000"  transform="rotate(0.000000,346.100000,120.000000)" style="stroke: black; stroke-width:0.25;"/>
<line x1="110.050000" y1="110.000000" x2="114.050000" y2="110.000000"  style="stroke:black; stroke-linecap:round; stroke-width:0.25;"/>
<line x1="114.050000" y1="110.000000" x2="124.050000" y2="110.000000"  style="stroke:black; stroke-linecap:round; stroke-width:0.25;"/>
<line x1="124.050000" y1="110.000000" x2="176.100000" y2="110.000000"  style="stroke:black; stroke-linecap:round; stroke-width:0.25;"/>
<line x1="126.050000" y1="194.000000" x2="130.050000" y2="194.000000"  style="stroke:black; stroke-linecap:round; stroke-width:0.25;"/>
<line x1="126.950000" y1="152.000000" x2="130.950000" y2="152.000000"  style="stroke:black; stroke-linecap:round; stroke-width:0.25;"/>
<line x1="130.050000" y1="194.000000" x2="140.050000" y2="194.000000"  style="stroke:black; stroke-linecap:round; stroke-width:0.25;"/>
<line x1="130.950000" y1="152.000000" x2="140.050000" y2="152.000000"  style="stroke:black; stroke-linecap:round; stroke-width:0.25;"/>
<line x1="140.050000" y1="152.000000" x2="148.050000" y2="152.000000"  style="stroke:black; stroke-linecap:round; stroke-width:0.25;"/>
<line x1="140.050000" y1="182.000000" x2="148.050000" y2="182.000000"  style="stroke:black; stroke-linecap:round; stroke-width:0.25;"/>
<line x1="140.050000" y1="194.000000" x2="140.050000" y2="182.000000"  style="stroke:black; stroke-linecap:round; stroke-width:0.25;"/>
<line x1="140.050000" y1="194.000000" x2="140.050000" y2="194.000000"  style="stroke:black; stroke-linecap:round; stroke-width:0.25;"/>
<line x1="140.100000" y1="68.000000" x2="144.100000" y2="68.000000"  style="stroke:black; stroke-linecap:round; stroke-width:0.25;"/>
<line x1="144.100000" y1="68.000000" x2="144.100000" y2="68.000000"  style="stroke:black; stroke-linecap:round; stroke-width:0.25;"/>
<line x1="144.100000" y1="68.000000" x2="148.100000" y2="68.000000"  style="stroke:black; stroke-linecap:round; stroke-width:0.25;"/>
<line x1="148.050000" y1="152.000000" x2="148.050000" y2="174.000000"  style="stroke:black; stroke-linecap:round; stroke-width:0.25;"/>
<line x1="148.050000" y1="174.000000" x2="148.050000" y2="174.000000"  style="stroke:black; stroke-linecap:round; stroke-width:0.25;"/>
<line x1="148.050000" y1="174.000000" x2="152.050000" y2="174.000000"  style="stroke:black; stroke-linecap:round; stroke-width:0.25;"/>
<line x1="148.050000" y1="182.000000" x2="152.050000" y2="182.000000"  style="stroke:black; stroke-linecap:round; stroke-width:0.25;"/>
<line x1="166.050000" y1="36.000000" x2="170.050000" y2="36.000000"  style="stroke:black; stroke-linecap:round; stroke-width:0.25;"/>
<line x1="170.050000" y1="36.000000" x2="288.100000" y2="36.000000"  style="stroke:black; stroke-linecap:round; stroke-width:0.25;"/>
<line x1="172.100000" y1="68.000000" x2="176.100000" y2="68.000000"  style="stroke:black; stroke-linecap:round; stroke-width:0.25;"/>
<line x1="176.050000" y1="178.000000" x2="180.050000" y2="178.000000"  style="stroke:black; stroke-linecap:round; stroke-width:0.25;"/>
<line x1="176.100000" y1="68.000000" x2="184.100000" y2="68.000000"  style="stroke:black; stroke-linecap:round; stroke-width:0.25;"/>
<line x1="176.100000" y1="98.000000" x2="184.100000" y2="98.000000"  style="stroke:black; stroke-linecap:round; stroke-width:0.25;"/>
<line x1="176.100000" y1="110.000000" x2="176.100000" y2="98.000000"  style="stroke:black; stroke-linecap:round; stroke-width:0.25;"/>
<line x1="176.100000" y1="110.000000" x2="176.100000" y2="110.000000"  style="stroke:black; stroke-linecap:round; stroke-width:0.25;"/>
<line x1="180.050000" y1="178.000000" x2="248.100000" y2="178.000000"  style="stroke:black; stroke-linecap:round; stroke-width:0.25;"/>
<line x1="184.100000" y1="68.000000" x2="184.100000" y2="90.000000"  style="stroke:black; stroke-linecap:round; stroke-width:0.25;"/>
<line x1="184.100000" y1="90.000000" x2="184.100000" y2="90.000000"  style="stroke:black; stroke-linecap:round; stroke-width:0.25;"/>
<line x1="184.100000" y1="90.000000" x2="188.100000" y2="90.000000"  style="stroke:black; stroke-linecap:round; stroke-width:0.25;"/>
<line x1="184.100000" y1="98.000000" x2="188.100000" y2="98.000000"  style="stroke:black; stroke-linecap:round; stroke-width:0.25;"/>
<line x1="212.100000" y1="94.000000" x2="216.100000" y2="94.000000"  style="stroke:black; stroke-linecap:round; stroke-width:0.25;"/>
<line x1="216.100000" y1="94.000000" x2="216.100000" y2="94.000000"  style="stroke:black; stroke-linecap:round; stroke-width:0.25;"/>
<line x1="216.100000" y1="94.000000" x2="220.100000" y2="94.000000"  style="stroke:black; stroke-linecap:round; stroke-width:0.25;"/>
<line x1="244.100000" y1="94.000000" x2="248.100000" y2="94.000000"  style="stroke:black; stroke-linecap:round; stroke-width:0.25;"/>
<line x1="248.100000" y1="94.000000" x2="256.100000" y2="94.000000"  style="stroke:black; stroke-linecap:round; stroke-width:0.25;"/>
<line x1="248.100000" y1="140.000000" x2="256.100000" y2="140.000000"  style="stroke:black; stroke-linecap:round; stroke-width:0.25;"/>
<line x1="248.100000" y1="178.000000" x2="248.100000" y2="140.000000"  style="stroke:black; stroke-linecap:round; stroke-width:0.25;"/>
<line x1="248.100000" y1="178.000000" x2="248.100000" y2="178.000000"  style="stroke:black; stroke-linecap:round; stroke-width:0.25;"/>
<line x1="256.100000" y1="94.000000" x2="256.100000" y2="132.000000"  style="stroke:black; stroke-linecap:round; stroke-width:0.25;"/>
<line x1="256.100000" y1="132.000000" x2="256.100000" y2="132.000000"  style="stroke:black; stroke-linecap:round; stroke-width:0.25;"/>
<line x1="256.100000" y1="132.000000" x2="260.100000" y2="132.000000"  style="stroke:black; stroke-linecap:round; stroke-width:0.25;"/>
<line x1="256.100000" y1="140.000000" x2="260.100000" y2="140.000000"  style="stroke:black; stroke-linecap:round; stroke-width:0.25;"/>
<line x1="284.100000" y1="136.000000" x2="288.100000" y2="136.000000"  style="stroke:black; stroke-linecap:round; stroke-width:0.25;"/>
<line x1="288.100000" y1="36.000000" x2="296.100000" y2="36.000000"  style="stroke:black; stroke-linecap:round; stroke-width:0.25;"/>
<line x1="288.100000" y1="124.000000" x2="296.100000" y2="124.000000"  style="stroke:black; stroke-linecap:round; stroke-width:0.25;"/>
<line x1="288.100000" y1="136.000000" x2="288.100000" y2="124.000000"  style="stroke:black; stroke-linecap:round; stroke-width:0.25;"/>
<line x1="288.100000" y1="136.000000" x2="288.100000" y2="136.000000"  style="stroke:black; stroke-linecap:round; stroke-width:0.25;"/>
<line x1="296.100000" y1="36.000000" x2="296.100000" y2="116.000000"  style="stroke:black; stroke-linecap:round; stroke-width:0.25;"/>
<line x1="296.100000" y1="116.000000" x2="296.100000" y2="116.000000"  style="stroke:black; stroke-linecap:round; stroke-width:0.25;"/>
<line x1="296.100000" y1="116.000000" x2="300.100000" y2="116.000000"  style="stroke:black; stroke-linecap:round; stroke-width:0.25;"/>
<line x1="296.100000" y1="124.000000" x2="300.100000" y2="124.000000"  style="stroke:black; stroke-linecap:round; stroke-width:0.25;"/>
<line x1="324.100000" y1="120.000000" x2="328.100000" y2="120.000000"  style="stroke:black; stroke-linecap:round; stroke-width:0.25;"/>
<line x1="328.100000" y1="120.000000" x2="328.100000" y2="120.000000"  style="stroke:black; stroke-linecap:round; stroke-width:0.25;"/>
<line x1="328.100000" y1="120.000000" x2="332.100000" y2="120.000000"  style="stroke:black; stroke-linecap:round; stroke-width:0.25;"/>
<line x1="332.100000" y1="120.000000" x2="336.100000" y2="120.000000"  style="stroke:black; stroke-linecap:round; stroke-width:0.25;"/>
<line x1="336.100000" y1="120.000000" x2="346.100000" y2="120.000000"  style="stroke:black; stroke-linecap:round; stroke-width:0.25;"/>
</svg>
