<?xml version="1.0"?>
<svg xmlns="http://www.w3.org/2000/svg" xmlns:xlink="http://www.w3.org/1999/xlink" viewBox="0 0 784.400000 224.000000" width="392.200000mm" height="112.000000mm" version="1.1">
<a xlink:href="process.svg">
<rect x="1.000000" y="1.000000" width="783.400000" height="223.000000" rx="0" ry="0" style="stroke:none;fill:#cccccc;"/>
<rect x="0.000000" y="0.000000" width="783.400000" height="223.000000" rx="0" ry="0" style="stroke:none;fill:#ffffff;"/>
</a>
<text x="10.000000" y="7.000000" font-family="Arial" font-size="7"></text>
<a xlink:href="flow-0x7fe6e3868d40.svg">
<rect x="81.000000" y="57.000000" width="129.000000" height="24.000000" rx="0" ry="0" style="stroke:none;fill:#cccccc;"/>
<rect x="80.000000" y="56.000000" width="129.000000" height="24.000000" rx="0" ry="0" style="stroke:none;fill:#003366;"/>
</a>
<a xlink:href="flow-0x7fe6e3868d40.svg">
<text x="144.500000" y="70.000000" font-family="Arial" font-size="7" text-anchor="middle" fill="#FFFFFF">flow(((hslide...: _,0.0f : &gt;)</text>
</a>
<circle cx="82.000000" cy="58.000000" r="1"/>
<rect x="113.500000" y="107.000000" width="24.000000" height="24.000000" rx="0" ry="0" style="stroke:none;fill:#cccccc;"/>
<rect x="112.500000" y="106.000000" width="24.000000" height="24.000000" rx="0" ry="0" style="stroke:none;fill:#f44800;"/>
<text x="124.500000" y="120.000000" font-family="Arial" font-size="7" text-anchor="middle" fill="#FFFFFF">0.4</text>
<circle cx="114.500000" cy="108.000000" r="1"/>
<line x1="103.500000" y1="97.000000" x2="103.500000" y2="139.000000"  style="stroke: black; stroke-linecap:round; stroke-width:0.25; stroke-dasharray:3,3;"/>
<line x1="103.500000" y1="139.000000" x2="145.500000" y2="139.000000"  style="stroke: black; stroke-linecap:round; stroke-width:0.25; stroke-dasharray:3,3;"/>
<line x1="145.500000" y1="139.000000" x2="145.500000" y2="97.000000"  style="stroke: black; stroke-linecap:round; stroke-width:0.25; stroke-dasharray:3,3;"/>
<line x1="103.500000" y1="97.000000" x2="108.500000" y2="97.000000"  style="stroke: black; stroke-linecap:round; stroke-width:0.25; stroke-dasharray:3,3;"/>
<line x1="143.975000" y1="97.000000" x2="145.500000" y2="97.000000"  style="stroke: black; stroke-linecap:round; stroke-width:0.25; stroke-dasharray:3,3;"/>
<text x="108.500000" y="99.000000" font-family="Arial" font-size="7">feedBack2</text>
<rect x="163.500000" y="103.000000" width="24.000000" height="24.000000" rx="0" ry="0" style="stroke:none;fill:#cccccc;"/>
<rect x="162.500000" y="102.000000" width="24.000000" height="24.000000" rx="0" ry="0" style="stroke:none;fill:#4B71A1;"/>
<text x="174.500000" y="116.000000" font-family="Arial" font-size="7" text-anchor="middle" fill="#FFFFFF">*</text>
<circle cx="164.500000" cy="104.000000" r="1"/>
<line x1="159.500000" y1="109.000000" x2="162.500000" y2="110.000000"  transform="rotate(0.000000,162.500000,110.000000)" style="stroke: black; stroke-width:0.25;"/>
<line x1="159.500000" y1="111.000000" x2="162.500000" y2="110.000000"  transform="rotate(0.000000,162.500000,110.000000)" style="stroke: black; stroke-width:0.25;"/>
<line x1="159.500000" y1="117.000000" x2="162.500000" y2="118.000000"  transform="rotate(0.000000,162.500000,118.000000)" style="stroke: black; stroke-width:0.25;"/>
<line x1="159.500000" y1="119.000000" x2="162.500000" y2="118.000000"  transform="rotate(0.000000,162.500000,118.000000)" style="stroke: black; stroke-width:0.25;"/>
<rect x="226.000000" y="87.000000" width="24.000000" height="24.000000" rx="0" ry="0" style="stroke:none;fill:#cccccc;"/>
<rect x="225.000000" y="86.000000" width="24.000000" height="24.000000" rx="0" ry="0" style="stroke:none;fill:#4B71A1;"/>
<text x="237.000000" y="100.000000" font-family="Arial" font-size="7" text-anchor="middle" fill="#FFFFFF">+</text>
<circle cx="227.000000" cy="88.000000" r="1"/>
<line x1="222.000000" y1="93.000000" x2="225.000000" y2="94.000000"  transform="rotate(0.000000,225.000000,94.000000)" style="stroke: black; stroke-width:0.25;"/>
<line x1="222.000000" y1="95.000000" x2="225.000000" y2="94.000000"  transform="rotate(0.000000,225.000000,94.000000)" style="stroke: black; stroke-width:0.25;"/>
<line x1="222.000000" y1="101.000000" x2="225.000000" y2="102.000000"  transform="rotate(0.000000,225.000000,102.000000)" style="stroke: black; stroke-width:0.25;"/>
<line x1="222.000000" y1="103.000000" x2="225.000000" y2="102.000000"  transform="rotate(0.000000,225.000000,102.000000)" style="stroke: black; stroke-width:0.25;"/>
<a xlink:href="embouchureDelay-0x7fe6e3876d50.svg">
<rect x="258.000000" y="87.000000" width="116.100000" height="24.000000" rx="0" ry="0" style="stroke:none;fill:#cccccc;"/>
<rect x="257.000000" y="86.000000" width="116.100000" height="24.000000" rx="0" ry="0" style="stroke:none;fill:#003366;"/>
</a>
<a xlink:href="embouchureDelay-0x7fe6e3876d50.svg">
<text x="315.050000" y="100.000000" font-family="Arial" font-size="7" text-anchor="middle" fill="#FFFFFF">embouchureDelay(8.8e+02f)</text>
</a>
<circle cx="259.000000" cy="88.000000" r="1"/>
<line x1="254.000000" y1="97.000000" x2="257.000000" y2="98.000000"  transform="rotate(0.000000,257.000000,98.000000)" style="stroke: black; stroke-width:0.25;"/>
<line x1="254.000000" y1="99.000000" x2="257.000000" y2="98.000000"  transform="rotate(0.000000,257.000000,98.000000)" style="stroke: black; stroke-width:0.25;"/>
<a xlink:href="poly-0x7fe6e0517d80.svg">
<rect x="382.100000" y="87.000000" width="25.800000" height="24.000000" rx="0" ry="0" style="stroke:none;fill:#cccccc;"/>
<rect x="381.100000" y="86.000000" width="25.800000" height="24.000000" rx="0" ry="0" style="stroke:none;fill:#003366;"/>
</a>
<a xlink:href="poly-0x7fe6e0517d80.svg">
<text x="394.000000" y="100.000000" font-family="Arial" font-size="7" text-anchor="middle" fill="#FFFFFF">poly</text>
</a>
<circle cx="383.100000" cy="88.000000" r="1"/>
<line x1="378.100000" y1="97.000000" x2="381.100000" y2="98.000000"  transform="rotate(0.000000,381.100000,98.000000)" style="stroke: black; stroke-width:0.25;"/>
<line x1="378.100000" y1="99.000000" x2="381.100000" y2="98.000000"  transform="rotate(0.000000,381.100000,98.000000)" style="stroke: black; stroke-width:0.25;"/>
<rect x="212.450000" y="167.000000" width="24.000000" height="24.000000" rx="0" ry="0" style="stroke:none;fill:#cccccc;"/>
<rect x="211.450000" y="166.000000" width="24.000000" height="24.000000" rx="0" ry="0" style="stroke:none;fill:#f44800;"/>
<text x="223.450000" y="180.000000" font-family="Arial" font-size="7" text-anchor="middle" fill="#FFFFFF">0.4</text>
<circle cx="213.450000" cy="168.000000" r="1"/>
<line x1="202.450000" y1="157.000000" x2="202.450000" y2="199.000000"  style="stroke: black; stroke-linecap:round; stroke-width:0.25; stroke-dasharray:3,3;"/>
<line x1="202.450000" y1="199.000000" x2="244.450000" y2="199.000000"  style="stroke: black; stroke-linecap:round; stroke-width:0.25; stroke-dasharray:3,3;"/>
<line x1="244.450000" y1="199.000000" x2="244.450000" y2="157.000000"  style="stroke: black; stroke-linecap:round; stroke-width:0.25; stroke-dasharray:3,3;"/>
<line x1="202.450000" y1="157.000000" x2="207.450000" y2="157.000000"  style="stroke: black; stroke-linecap:round; stroke-width:0.25; stroke-dasharray:3,3;"/>
<line x1="242.925000" y1="157.000000" x2="244.450000" y2="157.000000"  style="stroke: black; stroke-linecap:round; stroke-width:0.25; stroke-dasharray:3,3;"/>
<text x="207.450000" y="159.000000" font-family="Arial" font-size="7">feedBack2</text>
<rect x="262.450000" y="163.000000" width="24.000000" height="24.000000" rx="0" ry="0" style="stroke:none;fill:#cccccc;"/>
<rect x="261.450000" y="162.000000" width="24.000000" height="24.000000" rx="0" ry="0" style="stroke:none;fill:#4B71A1;"/>
<text x="273.450000" y="176.000000" font-family="Arial" font-size="7" text-anchor="middle" fill="#FFFFFF">*</text>
<circle cx="263.450000" cy="164.000000" r="1"/>
<line x1="258.450000" y1="169.000000" x2="261.450000" y2="170.000000"  transform="rotate(0.000000,261.450000,170.000000)" style="stroke: black; stroke-width:0.25;"/>
<line x1="258.450000" y1="171.000000" x2="261.450000" y2="170.000000"  transform="rotate(0.000000,261.450000,170.000000)" style="stroke: black; stroke-width:0.25;"/>
<line x1="258.450000" y1="177.000000" x2="261.450000" y2="178.000000"  transform="rotate(0.000000,261.450000,178.000000)" style="stroke: black; stroke-width:0.25;"/>
<line x1="258.450000" y1="179.000000" x2="261.450000" y2="178.000000"  transform="rotate(0.000000,261.450000,178.000000)" style="stroke: black; stroke-width:0.25;"/>
<rect x="423.900000" y="117.000000" width="24.000000" height="24.000000" rx="0" ry="0" style="stroke:none;fill:#cccccc;"/>
<rect x="422.900000" y="116.000000" width="24.000000" height="24.000000" rx="0" ry="0" style="stroke:none;fill:#4B71A1;"/>
<text x="434.900000" y="130.000000" font-family="Arial" font-size="7" text-anchor="middle" fill="#FFFFFF">+</text>
<circle cx="424.900000" cy="118.000000" r="1"/>
<line x1="419.900000" y1="123.000000" x2="422.900000" y2="124.000000"  transform="rotate(0.000000,422.900000,124.000000)" style="stroke: black; stroke-width:0.25;"/>
<line x1="419.900000" y1="125.000000" x2="422.900000" y2="124.000000"  transform="rotate(0.000000,422.900000,124.000000)" style="stroke: black; stroke-width:0.25;"/>
<line x1="419.900000" y1="131.000000" x2="422.900000" y2="132.000000"  transform="rotate(0.000000,422.900000,132.000000)" style="stroke: black; stroke-width:0.25;"/>
<line x1="419.900000" y1="133.000000" x2="422.900000" y2="132.000000"  transform="rotate(0.000000,422.900000,132.000000)" style="stroke: black; stroke-width:0.25;"/>
<a xlink:href="reflexionFilter-0x7fe6e1ad64f0.svg">
<rect x="455.900000" y="117.000000" width="64.500000" height="24.000000" rx="0" ry="0" style="stroke:none;fill:#cccccc;"/>
<rect x="454.900000" y="116.000000" width="64.500000" height="24.000000" rx="0" ry="0" style="stroke:none;fill:#003366;"/>
</a>
<a xlink:href="reflexionFilter-0x7fe6e1ad64f0.svg">
<text x="487.150000" y="130.000000" font-family="Arial" font-size="7" text-anchor="middle" fill="#FFFFFF">reflexionFilter</text>
</a>
<circle cx="456.900000" cy="118.000000" r="1"/>
<line x1="451.900000" y1="127.000000" x2="454.900000" y2="128.000000"  transform="rotate(0.000000,454.900000,128.000000)" style="stroke: black; stroke-width:0.25;"/>
<line x1="451.900000" y1="129.000000" x2="454.900000" y2="128.000000"  transform="rotate(0.000000,454.900000,128.000000)" style="stroke: black; stroke-width:0.25;"/>
<a xlink:href="boreDelay-0x7fe6e3884180.svg">
<rect x="231.550000" y="25.000000" width="90.300000" height="24.000000" rx="0" ry="0" style="stroke:none;fill:#cccccc;"/>
<rect x="230.550000" y="24.000000" width="90.300000" height="24.000000" rx="0" ry="0" style="stroke:none;fill:#003366;"/>
</a>
<a xlink:href="boreDelay-0x7fe6e3884180.svg">
<text x="275.700000" y="38.000000" font-family="Arial" font-size="7" text-anchor="middle" fill="#FFFFFF">boreDelay(8.8e+02f)</text>
</a>
<circle cx="318.850000" cy="46.000000" r="1"/>
<line x1="323.850000" y1="35.000000" x2="320.850000" y2="36.000000"  transform="rotate(0.000000,320.850000,36.000000)" style="stroke: black; stroke-width:0.25;"/>
<line x1="323.850000" y1="37.000000" x2="320.850000" y2="36.000000"  transform="rotate(0.000000,320.850000,36.000000)" style="stroke: black; stroke-width:0.25;"/>
<line x1="521.400000" y1="128.000000" x2="521.400000" y2="124.000000"  style="stroke:black; stroke-linecap:round; stroke-width:0.25;"/>
<line x1="521.400000" y1="124.000000" x2="525.400000" y2="124.000000"  style="stroke:black; stroke-linecap:round; stroke-width:0.25;"/>
<line x1="525.400000" y1="124.000000" x2="525.400000" y2="128.000000"  style="stroke:black; stroke-linecap:round; stroke-width:0.25;"/>
<a xlink:href="env2-0x7fe6e1db4db0.svg">
<rect x="544.400000" y="79.000000" width="129.000000" height="24.000000" rx="0" ry="0" style="stroke:none;fill:#cccccc;"/>
<rect x="543.400000" y="78.000000" width="129.000000" height="24.000000" rx="0" ry="0" style="stroke:none;fill:#003366;"/>
</a>
<a xlink:href="env2-0x7fe6e1db4db0.svg">
<text x="607.900000" y="92.000000" font-family="Arial" font-size="7" text-anchor="middle" fill="#FFFFFF">env2(((hslide...: _,0.0f : &gt;)</text>
</a>
<circle cx="545.400000" cy="80.000000" r="1"/>
<rect x="689.400000" y="75.000000" width="24.000000" height="24.000000" rx="0" ry="0" style="stroke:none;fill:#cccccc;"/>
<rect x="688.400000" y="74.000000" width="24.000000" height="24.000000" rx="0" ry="0" style="stroke:none;fill:#4B71A1;"/>
<text x="700.400000" y="88.000000" font-family="Arial" font-size="7" text-anchor="middle" fill="#FFFFFF">*</text>
<circle cx="690.400000" cy="76.000000" r="1"/>
<line x1="685.400000" y1="81.000000" x2="688.400000" y2="82.000000"  transform="rotate(0.000000,688.400000,82.000000)" style="stroke: black; stroke-width:0.25;"/>
<line x1="685.400000" y1="83.000000" x2="688.400000" y2="82.000000"  transform="rotate(0.000000,688.400000,82.000000)" style="stroke: black; stroke-width:0.25;"/>
<line x1="685.400000" y1="89.000000" x2="688.400000" y2="90.000000"  transform="rotate(0.000000,688.400000,90.000000)" style="stroke: black; stroke-width:0.25;"/>
<line x1="685.400000" y1="91.000000" x2="688.400000" y2="90.000000"  transform="rotate(0.000000,688.400000,90.000000)" style="stroke: black; stroke-width:0.25;"/>
<rect x="616.900000" y="121.000000" width="24.000000" height="24.000000" rx="0" ry="0" style="stroke:none;fill:#cccccc;"/>
<rect x="615.900000" y="120.000000" width="24.000000" height="24.000000" rx="0" ry="0" style="stroke:none;fill:#f44800;"/>
<text x="627.900000" y="134.000000" font-family="Arial" font-size="7" text-anchor="middle" fill="#FFFFFF">1</text>
<circle cx="617.900000" cy="122.000000" r="1"/>
<line x1="606.900000" y1="111.000000" x2="606.900000" y2="153.000000"  style="stroke: black; stroke-linecap:round; stroke-width:0.25; stroke-dasharray:3,3;"/>
<line x1="606.900000" y1="153.000000" x2="648.900000" y2="153.000000"  style="stroke: black; stroke-linecap:round; stroke-width:0.25; stroke-dasharray:3,3;"/>
<line x1="648.900000" y1="153.000000" x2="648.900000" y2="111.000000"  style="stroke: black; stroke-linecap:round; stroke-width:0.25; stroke-dasharray:3,3;"/>
<line x1="606.900000" y1="111.000000" x2="611.900000" y2="111.000000"  style="stroke: black; stroke-linecap:round; stroke-width:0.25; stroke-dasharray:3,3;"/>
<line x1="648.900000" y1="111.000000" x2="648.900000" y2="111.000000"  style="stroke: black; stroke-linecap:round; stroke-width:0.25; stroke-dasharray:3,3;"/>
<text x="611.900000" y="113.000000" font-family="Arial" font-size="7">env1Release</text>
<rect x="729.400000" y="101.000000" width="24.000000" height="24.000000" rx="0" ry="0" style="stroke:none;fill:#cccccc;"/>
<rect x="728.400000" y="100.000000" width="24.000000" height="24.000000" rx="0" ry="0" style="stroke:none;fill:#4B71A1;"/>
<text x="740.400000" y="114.000000" font-family="Arial" font-size="7" text-anchor="middle" fill="#FFFFFF">*</text>
<circle cx="730.400000" cy="102.000000" r="1"/>
<line x1="725.400000" y1="107.000000" x2="728.400000" y2="108.000000"  transform="rotate(0.000000,728.400000,108.000000)" style="stroke: black; stroke-width:0.25;"/>
<line x1="725.400000" y1="109.000000" x2="728.400000" y2="108.000000"  transform="rotate(0.000000,728.400000,108.000000)" style="stroke: black; stroke-width:0.25;"/>
<line x1="725.400000" y1="115.000000" x2="728.400000" y2="116.000000"  transform="rotate(0.000000,728.400000,116.000000)" style="stroke: black; stroke-width:0.25;"/>
<line x1="725.400000" y1="117.000000" x2="728.400000" y2="116.000000"  transform="rotate(0.000000,728.400000,116.000000)" style="stroke: black; stroke-width:0.25;"/>
<line x1="15.000000" y1="15.000000" x2="15.000000" y2="209.000000"  style="stroke: black; stroke-linecap:round; stroke-width:0.25; stroke-dasharray:3,3;"/>
<line x1="15.000000" y1="209.000000" x2="769.400000" y2="209.000000"  style="stroke: black; stroke-linecap:round; stroke-width:0.25; stroke-dasharray:3,3;"/>
<line x1="769.400000" y1="209.000000" x2="769.400000" y2="15.000000"  style="stroke: black; stroke-linecap:round; stroke-width:0.25; stroke-dasharray:3,3;"/>
<line x1="15.000000" y1="15.000000" x2="20.000000" y2="15.000000"  style="stroke: black; stroke-linecap:round; stroke-width:0.25; stroke-dasharray:3,3;"/>
<line x1="55.475000" y1="15.000000" x2="769.400000" y2="15.000000"  style="stroke: black; stroke-linecap:round; stroke-width:0.25; stroke-dasharray:3,3;"/>
<text x="20.000000" y="17.000000" font-family="Arial" font-size="7">flute(12)</text>
<line x1="771.400000" y1="111.000000" x2="774.400000" y2="112.000000"  transform="rotate(0.000000,774.400000,112.000000)" style="stroke: black; stroke-width:0.25;"/>
<line x1="771.400000" y1="113.000000" x2="774.400000" y2="112.000000"  transform="rotate(0.000000,774.400000,112.000000)" style="stroke: black; stroke-width:0.25;"/>
<line x1="28.000000" y1="36.000000" x2="28.000000" y2="36.000000"  style="stroke:black; stroke-linecap:round; stroke-width:0.25;"/>
<line x1="28.000000" y1="36.000000" x2="28.000000" y2="128.000000"  style="stroke:black; stroke-linecap:round; stroke-width:0.25;"/>
<line x1="28.000000" y1="128.000000" x2="28.000000" y2="128.000000"  style="stroke:black; stroke-linecap:round; stroke-width:0.25;"/>
<line x1="28.000000" y1="128.000000" x2="32.000000" y2="128.000000"  style="stroke:black; stroke-linecap:round; stroke-width:0.25;"/>
<line x1="32.000000" y1="128.000000" x2="36.000000" y2="128.000000"  style="stroke:black; stroke-linecap:round; stroke-width:0.25;"/>
<line x1="36.000000" y1="128.000000" x2="76.000000" y2="88.000000"  style="stroke:black; stroke-linecap:round; stroke-width:0.25;"/>
<line x1="36.000000" y1="128.000000" x2="76.000000" y2="148.000000"  style="stroke:black; stroke-linecap:round; stroke-width:0.25;"/>
<line x1="76.000000" y1="88.000000" x2="98.500000" y2="88.000000"  style="stroke:black; stroke-linecap:round; stroke-width:0.25;"/>
<line x1="76.000000" y1="148.000000" x2="197.450000" y2="148.000000"  style="stroke:black; stroke-linecap:round; stroke-width:0.25;"/>
<line x1="98.500000" y1="88.000000" x2="124.500000" y2="88.000000"  style="stroke:black; stroke-linecap:round; stroke-width:0.25;"/>
<line x1="124.500000" y1="88.000000" x2="150.500000" y2="88.000000"  style="stroke:black; stroke-linecap:round; stroke-width:0.25;"/>
<line x1="136.500000" y1="118.000000" x2="140.500000" y2="118.000000"  style="stroke:black; stroke-linecap:round; stroke-width:0.25;"/>
<line x1="140.500000" y1="118.000000" x2="150.500000" y2="118.000000"  style="stroke:black; stroke-linecap:round; stroke-width:0.25;"/>
<line x1="150.500000" y1="88.000000" x2="158.500000" y2="88.000000"  style="stroke:black; stroke-linecap:round; stroke-width:0.25;"/>
<line x1="150.500000" y1="118.000000" x2="158.500000" y2="118.000000"  style="stroke:black; stroke-linecap:round; stroke-width:0.25;"/>
<line x1="158.500000" y1="88.000000" x2="158.500000" y2="110.000000"  style="stroke:black; stroke-linecap:round; stroke-width:0.25;"/>
<line x1="158.500000" y1="110.000000" x2="158.500000" y2="110.000000"  style="stroke:black; stroke-linecap:round; stroke-width:0.25;"/>
<line x1="158.500000" y1="110.000000" x2="162.500000" y2="110.000000"  style="stroke:black; stroke-linecap:round; stroke-width:0.25;"/>
<line x1="158.500000" y1="118.000000" x2="162.500000" y2="118.000000"  style="stroke:black; stroke-linecap:round; stroke-width:0.25;"/>
<line x1="186.500000" y1="114.000000" x2="190.500000" y2="114.000000"  style="stroke:black; stroke-linecap:round; stroke-width:0.25;"/>
<line x1="190.500000" y1="114.000000" x2="213.000000" y2="114.000000"  style="stroke:black; stroke-linecap:round; stroke-width:0.25;"/>
<line x1="197.450000" y1="148.000000" x2="223.450000" y2="148.000000"  style="stroke:black; stroke-linecap:round; stroke-width:0.25;"/>
<line x1="209.000000" y1="68.000000" x2="213.000000" y2="68.000000"  style="stroke:black; stroke-linecap:round; stroke-width:0.25;"/>
<line x1="213.000000" y1="68.000000" x2="221.000000" y2="68.000000"  style="stroke:black; stroke-linecap:round; stroke-width:0.25;"/>
<line x1="213.000000" y1="102.000000" x2="221.000000" y2="102.000000"  style="stroke:black; stroke-linecap:round; stroke-width:0.25;"/>
<line x1="213.000000" y1="114.000000" x2="213.000000" y2="102.000000"  style="stroke:black; stroke-linecap:round; stroke-width:0.25;"/>
<line x1="213.000000" y1="114.000000" x2="213.000000" y2="114.000000"  style="stroke:black; stroke-linecap:round; stroke-width:0.25;"/>
<line x1="221.000000" y1="68.000000" x2="221.000000" y2="94.000000"  style="stroke:black; stroke-linecap:round; stroke-width:0.25;"/>
<line x1="221.000000" y1="94.000000" x2="221.000000" y2="94.000000"  style="stroke:black; stroke-linecap:round; stroke-width:0.25;"/>
<line x1="221.000000" y1="94.000000" x2="225.000000" y2="94.000000"  style="stroke:black; stroke-linecap:round; stroke-width:0.25;"/>
<line x1="221.000000" y1="102.000000" x2="225.000000" y2="102.000000"  style="stroke:black; stroke-linecap:round; stroke-width:0.25;"/>
<line x1="223.450000" y1="148.000000" x2="249.450000" y2="148.000000"  style="stroke:black; stroke-linecap:round; stroke-width:0.25;"/>
<line x1="226.550000" y1="36.000000" x2="28.000000" y2="36.000000"  style="stroke:black; stroke-linecap:round; stroke-width:0.25;"/>
<line x1="230.550000" y1="36.000000" x2="226.550000" y2="36.000000"  style="stroke:black; stroke-linecap:round; stroke-width:0.25;"/>
<line x1="235.450000" y1="178.000000" x2="239.450000" y2="178.000000"  style="stroke:black; stroke-linecap:round; stroke-width:0.25;"/>
<line x1="239.450000" y1="178.000000" x2="249.450000" y2="178.000000"  style="stroke:black; stroke-linecap:round; stroke-width:0.25;"/>
<line x1="249.000000" y1="98.000000" x2="253.000000" y2="98.000000"  style="stroke:black; stroke-linecap:round; stroke-width:0.25;"/>
<line x1="249.450000" y1="148.000000" x2="257.450000" y2="148.000000"  style="stroke:black; stroke-linecap:round; stroke-width:0.25;"/>
<line x1="249.450000" y1="178.000000" x2="257.450000" y2="178.000000"  style="stroke:black; stroke-linecap:round; stroke-width:0.25;"/>
<line x1="253.000000" y1="98.000000" x2="253.000000" y2="98.000000"  style="stroke:black; stroke-linecap:round; stroke-width:0.25;"/>
<line x1="253.000000" y1="98.000000" x2="257.000000" y2="98.000000"  style="stroke:black; stroke-linecap:round; stroke-width:0.25;"/>
<line x1="257.450000" y1="148.000000" x2="257.450000" y2="170.000000"  style="stroke:black; stroke-linecap:round; stroke-width:0.25;"/>
<line x1="257.450000" y1="170.000000" x2="257.450000" y2="170.000000"  style="stroke:black; stroke-linecap:round; stroke-width:0.25;"/>
<line x1="257.450000" y1="170.000000" x2="261.450000" y2="170.000000"  style="stroke:black; stroke-linecap:round; stroke-width:0.25;"/>
<line x1="257.450000" y1="178.000000" x2="261.450000" y2="178.000000"  style="stroke:black; stroke-linecap:round; stroke-width:0.25;"/>
<line x1="285.450000" y1="174.000000" x2="289.450000" y2="174.000000"  style="stroke:black; stroke-linecap:round; stroke-width:0.25;"/>
<line x1="289.450000" y1="174.000000" x2="410.900000" y2="174.000000"  style="stroke:black; stroke-linecap:round; stroke-width:0.25;"/>
<line x1="324.850000" y1="36.000000" x2="320.850000" y2="36.000000"  style="stroke:black; stroke-linecap:round; stroke-width:0.25;"/>
<line x1="373.100000" y1="98.000000" x2="377.100000" y2="98.000000"  style="stroke:black; stroke-linecap:round; stroke-width:0.25;"/>
<line x1="377.100000" y1="98.000000" x2="377.100000" y2="98.000000"  style="stroke:black; stroke-linecap:round; stroke-width:0.25;"/>
<line x1="377.100000" y1="98.000000" x2="381.100000" y2="98.000000"  style="stroke:black; stroke-linecap:round; stroke-width:0.25;"/>
<line x1="406.900000" y1="98.000000" x2="410.900000" y2="98.000000"  style="stroke:black; stroke-linecap:round; stroke-width:0.25;"/>
<line x1="410.900000" y1="132.000000" x2="418.900000" y2="132.000000"  style="stroke:black; stroke-linecap:round; stroke-width:0.25;"/>
<line x1="410.900000" y1="174.000000" x2="410.900000" y2="132.000000"  style="stroke:black; stroke-linecap:round; stroke-width:0.25;"/>
<line x1="410.900000" y1="174.000000" x2="410.900000" y2="174.000000"  style="stroke:black; stroke-linecap:round; stroke-width:0.25;"/>
<line x1="410.900000" y1="98.000000" x2="418.900000" y2="98.000000"  style="stroke:black; stroke-linecap:round; stroke-width:0.25;"/>
<line x1="418.900000" y1="124.000000" x2="422.900000" y2="124.000000"  style="stroke:black; stroke-linecap:round; stroke-width:0.25;"/>
<line x1="418.900000" y1="132.000000" x2="422.900000" y2="132.000000"  style="stroke:black; stroke-linecap:round; stroke-width:0.25;"/>
<line x1="418.900000" y1="98.000000" x2="418.900000" y2="124.000000"  style="stroke:black; stroke-linecap:round; stroke-width:0.25;"/>
<line x1="418.900000" y1="124.000000" x2="418.900000" y2="124.000000"  style="stroke:black; stroke-linecap:round; stroke-width:0.25;"/>
<line x1="446.900000" y1="128.000000" x2="450.900000" y2="128.000000"  style="stroke:black; stroke-linecap:round; stroke-width:0.25;"/>
<line x1="450.900000" y1="128.000000" x2="450.900000" y2="128.000000"  style="stroke:black; stroke-linecap:round; stroke-width:0.25;"/>
<line x1="450.900000" y1="128.000000" x2="454.900000" y2="128.000000"  style="stroke:black; stroke-linecap:round; stroke-width:0.25;"/>
<line x1="519.400000" y1="128.000000" x2="523.400000" y2="128.000000"  style="stroke:black; stroke-linecap:round; stroke-width:0.25;"/>
<line x1="523.400000" y1="36.000000" x2="324.850000" y2="36.000000"  style="stroke:black; stroke-linecap:round; stroke-width:0.25;"/>
<line x1="523.400000" y1="36.000000" x2="523.400000" y2="36.000000"  style="stroke:black; stroke-linecap:round; stroke-width:0.25;"/>
<line x1="523.400000" y1="124.000000" x2="523.400000" y2="36.000000"  style="stroke:black; stroke-linecap:round; stroke-width:0.25;"/>
<line x1="523.400000" y1="128.000000" x2="525.400000" y2="128.000000"  style="stroke:black; stroke-linecap:round; stroke-width:0.25;"/>
<line x1="525.400000" y1="128.000000" x2="531.400000" y2="128.000000"  style="stroke:black; stroke-linecap:round; stroke-width:0.25;"/>
<line x1="531.400000" y1="70.000000" x2="539.400000" y2="70.000000"  style="stroke:black; stroke-linecap:round; stroke-width:0.25;"/>
<line x1="531.400000" y1="128.000000" x2="531.400000" y2="70.000000"  style="stroke:black; stroke-linecap:round; stroke-width:0.25;"/>
<line x1="531.400000" y1="128.000000" x2="531.400000" y2="128.000000"  style="stroke:black; stroke-linecap:round; stroke-width:0.25;"/>
<line x1="539.400000" y1="70.000000" x2="607.900000" y2="70.000000"  style="stroke:black; stroke-linecap:round; stroke-width:0.25;"/>
<line x1="607.900000" y1="70.000000" x2="676.400000" y2="70.000000"  style="stroke:black; stroke-linecap:round; stroke-width:0.25;"/>
<line x1="639.900000" y1="132.000000" x2="643.900000" y2="132.000000"  style="stroke:black; stroke-linecap:round; stroke-width:0.25;"/>
<line x1="643.900000" y1="132.000000" x2="653.900000" y2="132.000000"  style="stroke:black; stroke-linecap:round; stroke-width:0.25;"/>
<line x1="653.900000" y1="132.000000" x2="716.400000" y2="132.000000"  style="stroke:black; stroke-linecap:round; stroke-width:0.25;"/>
<line x1="672.400000" y1="90.000000" x2="676.400000" y2="90.000000"  style="stroke:black; stroke-linecap:round; stroke-width:0.25;"/>
<line x1="676.400000" y1="70.000000" x2="684.400000" y2="70.000000"  style="stroke:black; stroke-linecap:round; stroke-width:0.25;"/>
<line x1="676.400000" y1="90.000000" x2="684.400000" y2="90.000000"  style="stroke:black; stroke-linecap:round; stroke-width:0.25;"/>
<line x1="684.400000" y1="70.000000" x2="684.400000" y2="82.000000"  style="stroke:black; stroke-linecap:round; stroke-width:0.25;"/>
<line x1="684.400000" y1="82.000000" x2="684.400000" y2="82.000000"  style="stroke:black; stroke-linecap:round; stroke-width:0.25;"/>
<line x1="684.400000" y1="82.000000" x2="688.400000" y2="82.000000"  style="stroke:black; stroke-linecap:round; stroke-width:0.25;"/>
<line x1="684.400000" y1="90.000000" x2="688.400000" y2="90.000000"  style="stroke:black; stroke-linecap:round; stroke-width:0.25;"/>
<line x1="712.400000" y1="86.000000" x2="716.400000" y2="86.000000"  style="stroke:black; stroke-linecap:round; stroke-width:0.25;"/>
<line x1="716.400000" y1="86.000000" x2="724.400000" y2="86.000000"  style="stroke:black; stroke-linecap:round; stroke-width:0.25;"/>
<line x1="716.400000" y1="116.000000" x2="724.400000" y2="116.000000"  style="stroke:black; stroke-linecap:round; stroke-width:0.25;"/>
<line x1="716.400000" y1="132.000000" x2="716.400000" y2="116.000000"  style="stroke:black; stroke-linecap:round; stroke-width:0.25;"/>
<line x1="716.400000" y1="132.000000" x2="716.400000" y2="132.000000"  style="stroke:black; stroke-linecap:round; stroke-width:0.25;"/>
<line x1="724.400000" y1="86.000000" x2="724.400000" y2="108.000000"  style="stroke:black; stroke-linecap:round; stroke-width:0.25;"/>
<line x1="724.400000" y1="108.000000" x2="724.400000" y2="108.000000"  style="stroke:black; stroke-linecap:round; stroke-width:0.25;"/>
<line x1="724.400000" y1="108.000000" x2="728.400000" y2="108.000000"  style="stroke:black; stroke-linecap:round; stroke-width:0.25;"/>
<line x1="724.400000" y1="116.000000" x2="728.400000" y2="116.000000"  style="stroke:black; stroke-linecap:round; stroke-width:0.25;"/>
<line x1="752.400000" y1="112.000000" x2="756.400000" y2="112.000000"  style="stroke:black; stroke-linecap:round; stroke-width:0.25;"/>
<line x1="756.400000" y1="112.000000" x2="756.400000" y2="112.000000"  style="stroke:black; stroke-linecap:round; stroke-width:0.25;"/>
<line x1="756.400000" y1="112.000000" x2="760.400000" y2="112.000000"  style="stroke:black; stroke-linecap:round; stroke-width:0.25;"/>
<line x1="760.400000" y1="112.000000" x2="764.400000" y2="112.000000"  style="stroke:black; stroke-linecap:round; stroke-width:0.25;"/>
<line x1="764.400000" y1="112.000000" x2="774.400000" y2="112.000000"  style="stroke:black; stroke-linecap:round; stroke-width:0.25;"/>
</svg>
