<?xml version="1.0"?>
<svg xmlns="http://www.w3.org/2000/svg" xmlns:xlink="http://www.w3.org/1999/xlink" viewBox="0 0 771.500000 224.000000" width="385.750000mm" height="112.000000mm" version="1.1">
<a xlink:href="process.svg">
<rect x="1.000000" y="1.000000" width="770.500000" height="223.000000" rx="0" ry="0" style="stroke:none;fill:#cccccc;"/>
<rect x="0.000000" y="0.000000" width="770.500000" height="223.000000" rx="0" ry="0" style="stroke:none;fill:#ffffff;"/>
</a>
<text x="10.000000" y="7.000000" font-family="Arial" font-size="7"></text>
<a xlink:href="flow-0x7fe6e04997c0.svg">
<rect x="81.000000" y="57.000000" width="129.000000" height="24.000000" rx="0" ry="0" style="stroke:none;fill:#cccccc;"/>
<rect x="80.000000" y="56.000000" width="129.000000" height="24.000000" rx="0" ry="0" style="stroke:none;fill:#003366;"/>
</a>
<a xlink:href="flow-0x7fe6e04997c0.svg">
<text x="144.500000" y="70.000000" font-family="Arial" font-size="7" text-anchor="middle" fill="#FFFFFF">flow(((hslide...: _,0.0f : &gt;)</text>
</a>
<circle cx="82.000000" cy="58.000000" r="1"/>
<rect x="113.500000" y="107.000000" width="24.000000" height="24.000000" rx="0" ry="0" style="stroke:none;fill:#cccccc;"/>
<rect x="112.500000" y="106.000000" width="24.000000" height="24.000000" rx="0" ry="0" style="stroke:none;fill:#f44800;"/>
<text x="124.500000" y="120.000000" font-family="Arial" font-size="7" text-anchor="middle" fill="#FFFFFF">0.4</text>
<circle cx="114.500000" cy="108.000000" r="1"/>
<line x1="103.500000" y1="97.000000" x2="103.500000" y2="139.000000"  style="stroke: black; stroke-linecap:round; stroke-width:0.25; stroke-dasharray:3,3;"/>
<line x1="103.500000" y1="139.000000" x2="145.500000" y2="139.000000"  style="stroke: black; stroke-linecap:round; stroke-width:0.25; stroke-dasharray:3,3;"/>
<line x1="145.500000" y1="139.000000" x2="145.500000" y2="97.000000"  style="stroke: black; stroke-linecap:round; stroke-width:0.25; stroke-dasharray:3,3;"/>
<line x1="103.500000" y1="97.000000" x2="108.500000" y2="97.000000"  style="stroke: black; stroke-linecap:round; stroke-width:0.25; stroke-dasharray:3,3;"/>
<line x1="143.975000" y1="97.000000" x2="145.500000" y2="97.000000"  style="stroke: black; stroke-linecap:round; stroke-width:0.25; stroke-dasharray:3,3;"/>
<text x="108.500000" y="99.000000" font-family="Arial" font-size="7">feedBack2</text>
<rect x="163.500000" y="103.000000" width="24.000000" height="24.000000" rx="0" ry="0" style="stroke:none;fill:#cccccc;"/>
<rect x="162.500000" y="102.000000" width="24.000000" height="24.000000" rx="0" ry="0" style="stroke:none;fill:#4B71A1;"/>
<text x="174.500000" y="116.000000" font-family="Arial" font-size="7" text-anchor="middle" fill="#FFFFFF">*</text>
<circle cx="164.500000" cy="104.000000" r="1"/>
<line x1="159.500000" y1="109.000000" x2="162.500000" y2="110.000000"  transform="rotate(0.000000,162.500000,110.000000)" style="stroke: black; stroke-width:0.25;"/>
<line x1="159.500000" y1="111.000000" x2="162.500000" y2="110.000000"  transform="rotate(0.000000,162.500000,110.000000)" style="stroke: black; stroke-width:0.25;"/>
<line x1="159.500000" y1="117.000000" x2="162.500000" y2="118.000000"  transform="rotate(0.000000,162.500000,118.000000)" style="stroke: black; stroke-width:0.25;"/>
<line x1="159.500000" y1="119.000000" x2="162.500000" y2="118.000000"  transform="rotate(0.000000,162.500000,118.000000)" style="stroke: black; stroke-width:0.25;"/>
<rect x="226.000000" y="87.000000" width="24.000000" height="24.000000" rx="0" ry="0" style="stroke:none;fill:#cccccc;"/>
<rect x="225.000000" y="86.000000" width="24.000000" height="24.000000" rx="0" ry="0" style="stroke:none;fill:#4B71A1;"/>
<text x="237.000000" y="100.000000" font-family="Arial" font-size="7" text-anchor="middle" fill="#FFFFFF">+</text>
<circle cx="227.000000" cy="88.000000" r="1"/>
<line x1="222.000000" y1="93.000000" x2="225.000000" y2="94.000000"  transform="rotate(0.000000,225.000000,94.000000)" style="stroke: black; stroke-width:0.25;"/>
<line x1="222.000000" y1="95.000000" x2="225.000000" y2="94.000000"  transform="rotate(0.000000,225.000000,94.000000)" style="stroke: black; stroke-width:0.25;"/>
<line x1="222.000000" y1="101.000000" x2="225.000000" y2="102.000000"  transform="rotate(0.000000,225.000000,102.000000)" style="stroke: black; stroke-width:0.25;"/>
<line x1="222.000000" y1="103.000000" x2="225.000000" y2="102.000000"  transform="rotate(0.000000,225.000000,102.000000)" style="stroke: black; stroke-width:0.25;"/>
<a xlink:href="embouchureDelay-0x7fe6e341d5d0.svg">
<rect x="258.000000" y="87.000000" width="103.200000" height="24.000000" rx="0" ry="0" style="stroke:none;fill:#cccccc;"/>
<rect x="257.000000" y="86.000000" width="103.200000" height="24.000000" rx="0" ry="0" style="stroke:none;fill:#003366;"/>
</a>
<a xlink:href="embouchureDelay-0x7fe6e341d5d0.svg">
<text x="308.600000" y="100.000000" font-family="Arial" font-size="7" text-anchor="middle" fill="#FFFFFF">embouchureDelay(349.22f)</text>
</a>
<circle cx="259.000000" cy="88.000000" r="1"/>
<line x1="254.000000" y1="97.000000" x2="257.000000" y2="98.000000"  transform="rotate(0.000000,257.000000,98.000000)" style="stroke: black; stroke-width:0.25;"/>
<line x1="254.000000" y1="99.000000" x2="257.000000" y2="98.000000"  transform="rotate(0.000000,257.000000,98.000000)" style="stroke: black; stroke-width:0.25;"/>
<a xlink:href="poly-0x7fe6e0517d80.svg">
<rect x="369.200000" y="87.000000" width="25.800000" height="24.000000" rx="0" ry="0" style="stroke:none;fill:#cccccc;"/>
<rect x="368.200000" y="86.000000" width="25.800000" height="24.000000" rx="0" ry="0" style="stroke:none;fill:#003366;"/>
</a>
<a xlink:href="poly-0x7fe6e0517d80.svg">
<text x="381.100000" y="100.000000" font-family="Arial" font-size="7" text-anchor="middle" fill="#FFFFFF">poly</text>
</a>
<circle cx="370.200000" cy="88.000000" r="1"/>
<line x1="365.200000" y1="97.000000" x2="368.200000" y2="98.000000"  transform="rotate(0.000000,368.200000,98.000000)" style="stroke: black; stroke-width:0.25;"/>
<line x1="365.200000" y1="99.000000" x2="368.200000" y2="98.000000"  transform="rotate(0.000000,368.200000,98.000000)" style="stroke: black; stroke-width:0.25;"/>
<rect x="206.000000" y="167.000000" width="24.000000" height="24.000000" rx="0" ry="0" style="stroke:none;fill:#cccccc;"/>
<rect x="205.000000" y="166.000000" width="24.000000" height="24.000000" rx="0" ry="0" style="stroke:none;fill:#f44800;"/>
<text x="217.000000" y="180.000000" font-family="Arial" font-size="7" text-anchor="middle" fill="#FFFFFF">0.4</text>
<circle cx="207.000000" cy="168.000000" r="1"/>
<line x1="196.000000" y1="157.000000" x2="196.000000" y2="199.000000"  style="stroke: black; stroke-linecap:round; stroke-width:0.25; stroke-dasharray:3,3;"/>
<line x1="196.000000" y1="199.000000" x2="238.000000" y2="199.000000"  style="stroke: black; stroke-linecap:round; stroke-width:0.25; stroke-dasharray:3,3;"/>
<line x1="238.000000" y1="199.000000" x2="238.000000" y2="157.000000"  style="stroke: black; stroke-linecap:round; stroke-width:0.25; stroke-dasharray:3,3;"/>
<line x1="196.000000" y1="157.000000" x2="201.000000" y2="157.000000"  style="stroke: black; stroke-linecap:round; stroke-width:0.25; stroke-dasharray:3,3;"/>
<line x1="236.475000" y1="157.000000" x2="238.000000" y2="157.000000"  style="stroke: black; stroke-linecap:round; stroke-width:0.25; stroke-dasharray:3,3;"/>
<text x="201.000000" y="159.000000" font-family="Arial" font-size="7">feedBack2</text>
<rect x="256.000000" y="163.000000" width="24.000000" height="24.000000" rx="0" ry="0" style="stroke:none;fill:#cccccc;"/>
<rect x="255.000000" y="162.000000" width="24.000000" height="24.000000" rx="0" ry="0" style="stroke:none;fill:#4B71A1;"/>
<text x="267.000000" y="176.000000" font-family="Arial" font-size="7" text-anchor="middle" fill="#FFFFFF">*</text>
<circle cx="257.000000" cy="164.000000" r="1"/>
<line x1="252.000000" y1="169.000000" x2="255.000000" y2="170.000000"  transform="rotate(0.000000,255.000000,170.000000)" style="stroke: black; stroke-width:0.25;"/>
<line x1="252.000000" y1="171.000000" x2="255.000000" y2="170.000000"  transform="rotate(0.000000,255.000000,170.000000)" style="stroke: black; stroke-width:0.25;"/>
<line x1="252.000000" y1="177.000000" x2="255.000000" y2="178.000000"  transform="rotate(0.000000,255.000000,178.000000)" style="stroke: black; stroke-width:0.25;"/>
<line x1="252.000000" y1="179.000000" x2="255.000000" y2="178.000000"  transform="rotate(0.000000,255.000000,178.000000)" style="stroke: black; stroke-width:0.25;"/>
<rect x="411.000000" y="117.000000" width="24.000000" height="24.000000" rx="0" ry="0" style="stroke:none;fill:#cccccc;"/>
<rect x="410.000000" y="116.000000" width="24.000000" height="24.000000" rx="0" ry="0" style="stroke:none;fill:#4B71A1;"/>
<text x="422.000000" y="130.000000" font-family="Arial" font-size="7" text-anchor="middle" fill="#FFFFFF">+</text>
<circle cx="412.000000" cy="118.000000" r="1"/>
<line x1="407.000000" y1="123.000000" x2="410.000000" y2="124.000000"  transform="rotate(0.000000,410.000000,124.000000)" style="stroke: black; stroke-width:0.25;"/>
<line x1="407.000000" y1="125.000000" x2="410.000000" y2="124.000000"  transform="rotate(0.000000,410.000000,124.000000)" style="stroke: black; stroke-width:0.25;"/>
<line x1="407.000000" y1="131.000000" x2="410.000000" y2="132.000000"  transform="rotate(0.000000,410.000000,132.000000)" style="stroke: black; stroke-width:0.25;"/>
<line x1="407.000000" y1="133.000000" x2="410.000000" y2="132.000000"  transform="rotate(0.000000,410.000000,132.000000)" style="stroke: black; stroke-width:0.25;"/>
<a xlink:href="reflexionFilter-0x7fe6e1ad64f0.svg">
<rect x="443.000000" y="117.000000" width="64.500000" height="24.000000" rx="0" ry="0" style="stroke:none;fill:#cccccc;"/>
<rect x="442.000000" y="116.000000" width="64.500000" height="24.000000" rx="0" ry="0" style="stroke:none;fill:#003366;"/>
</a>
<a xlink:href="reflexionFilter-0x7fe6e1ad64f0.svg">
<text x="474.250000" y="130.000000" font-family="Arial" font-size="7" text-anchor="middle" fill="#FFFFFF">reflexionFilter</text>
</a>
<circle cx="444.000000" cy="118.000000" r="1"/>
<line x1="439.000000" y1="127.000000" x2="442.000000" y2="128.000000"  transform="rotate(0.000000,442.000000,128.000000)" style="stroke: black; stroke-width:0.25;"/>
<line x1="439.000000" y1="129.000000" x2="442.000000" y2="128.000000"  transform="rotate(0.000000,442.000000,128.000000)" style="stroke: black; stroke-width:0.25;"/>
<a xlink:href="boreDelay-0x7fe6e342ac50.svg">
<rect x="231.550000" y="25.000000" width="77.400000" height="24.000000" rx="0" ry="0" style="stroke:none;fill:#cccccc;"/>
<rect x="230.550000" y="24.000000" width="77.400000" height="24.000000" rx="0" ry="0" style="stroke:none;fill:#003366;"/>
</a>
<a xlink:href="boreDelay-0x7fe6e342ac50.svg">
<text x="269.250000" y="38.000000" font-family="Arial" font-size="7" text-anchor="middle" fill="#FFFFFF">boreDelay(349.22f)</text>
</a>
<circle cx="305.950000" cy="46.000000" r="1"/>
<line x1="310.950000" y1="35.000000" x2="307.950000" y2="36.000000"  transform="rotate(0.000000,307.950000,36.000000)" style="stroke: black; stroke-width:0.25;"/>
<line x1="310.950000" y1="37.000000" x2="307.950000" y2="36.000000"  transform="rotate(0.000000,307.950000,36.000000)" style="stroke: black; stroke-width:0.25;"/>
<line x1="508.500000" y1="128.000000" x2="508.500000" y2="124.000000"  style="stroke:black; stroke-linecap:round; stroke-width:0.25;"/>
<line x1="508.500000" y1="124.000000" x2="512.500000" y2="124.000000"  style="stroke:black; stroke-linecap:round; stroke-width:0.25;"/>
<line x1="512.500000" y1="124.000000" x2="512.500000" y2="128.000000"  style="stroke:black; stroke-linecap:round; stroke-width:0.25;"/>
<a xlink:href="env2-0x7fe6e22e7380.svg">
<rect x="531.500000" y="79.000000" width="129.000000" height="24.000000" rx="0" ry="0" style="stroke:none;fill:#cccccc;"/>
<rect x="530.500000" y="78.000000" width="129.000000" height="24.000000" rx="0" ry="0" style="stroke:none;fill:#003366;"/>
</a>
<a xlink:href="env2-0x7fe6e22e7380.svg">
<text x="595.000000" y="92.000000" font-family="Arial" font-size="7" text-anchor="middle" fill="#FFFFFF">env2(((hslide...: _,0.0f : &gt;)</text>
</a>
<circle cx="532.500000" cy="80.000000" r="1"/>
<rect x="676.500000" y="75.000000" width="24.000000" height="24.000000" rx="0" ry="0" style="stroke:none;fill:#cccccc;"/>
<rect x="675.500000" y="74.000000" width="24.000000" height="24.000000" rx="0" ry="0" style="stroke:none;fill:#4B71A1;"/>
<text x="687.500000" y="88.000000" font-family="Arial" font-size="7" text-anchor="middle" fill="#FFFFFF">*</text>
<circle cx="677.500000" cy="76.000000" r="1"/>
<line x1="672.500000" y1="81.000000" x2="675.500000" y2="82.000000"  transform="rotate(0.000000,675.500000,82.000000)" style="stroke: black; stroke-width:0.25;"/>
<line x1="672.500000" y1="83.000000" x2="675.500000" y2="82.000000"  transform="rotate(0.000000,675.500000,82.000000)" style="stroke: black; stroke-width:0.25;"/>
<line x1="672.500000" y1="89.000000" x2="675.500000" y2="90.000000"  transform="rotate(0.000000,675.500000,90.000000)" style="stroke: black; stroke-width:0.25;"/>
<line x1="672.500000" y1="91.000000" x2="675.500000" y2="90.000000"  transform="rotate(0.000000,675.500000,90.000000)" style="stroke: black; stroke-width:0.25;"/>
<rect x="604.000000" y="121.000000" width="24.000000" height="24.000000" rx="0" ry="0" style="stroke:none;fill:#cccccc;"/>
<rect x="603.000000" y="120.000000" width="24.000000" height="24.000000" rx="0" ry="0" style="stroke:none;fill:#f44800;"/>
<text x="615.000000" y="134.000000" font-family="Arial" font-size="7" text-anchor="middle" fill="#FFFFFF">1</text>
<circle cx="605.000000" cy="122.000000" r="1"/>
<line x1="594.000000" y1="111.000000" x2="594.000000" y2="153.000000"  style="stroke: black; stroke-linecap:round; stroke-width:0.25; stroke-dasharray:3,3;"/>
<line x1="594.000000" y1="153.000000" x2="636.000000" y2="153.000000"  style="stroke: black; stroke-linecap:round; stroke-width:0.25; stroke-dasharray:3,3;"/>
<line x1="636.000000" y1="153.000000" x2="636.000000" y2="111.000000"  style="stroke: black; stroke-linecap:round; stroke-width:0.25; stroke-dasharray:3,3;"/>
<line x1="594.000000" y1="111.000000" x2="599.000000" y2="111.000000"  style="stroke: black; stroke-linecap:round; stroke-width:0.25; stroke-dasharray:3,3;"/>
<line x1="636.000000" y1="111.000000" x2="636.000000" y2="111.000000"  style="stroke: black; stroke-linecap:round; stroke-width:0.25; stroke-dasharray:3,3;"/>
<text x="599.000000" y="113.000000" font-family="Arial" font-size="7">env1Release</text>
<rect x="716.500000" y="101.000000" width="24.000000" height="24.000000" rx="0" ry="0" style="stroke:none;fill:#cccccc;"/>
<rect x="715.500000" y="100.000000" width="24.000000" height="24.000000" rx="0" ry="0" style="stroke:none;fill:#4B71A1;"/>
<text x="727.500000" y="114.000000" font-family="Arial" font-size="7" text-anchor="middle" fill="#FFFFFF">*</text>
<circle cx="717.500000" cy="102.000000" r="1"/>
<line x1="712.500000" y1="107.000000" x2="715.500000" y2="108.000000"  transform="rotate(0.000000,715.500000,108.000000)" style="stroke: black; stroke-width:0.25;"/>
<line x1="712.500000" y1="109.000000" x2="715.500000" y2="108.000000"  transform="rotate(0.000000,715.500000,108.000000)" style="stroke: black; stroke-width:0.25;"/>
<line x1="712.500000" y1="115.000000" x2="715.500000" y2="116.000000"  transform="rotate(0.000000,715.500000,116.000000)" style="stroke: black; stroke-width:0.25;"/>
<line x1="712.500000" y1="117.000000" x2="715.500000" y2="116.000000"  transform="rotate(0.000000,715.500000,116.000000)" style="stroke: black; stroke-width:0.25;"/>
<line x1="15.000000" y1="15.000000" x2="15.000000" y2="209.000000"  style="stroke: black; stroke-linecap:round; stroke-width:0.25; stroke-dasharray:3,3;"/>
<line x1="15.000000" y1="209.000000" x2="756.500000" y2="209.000000"  style="stroke: black; stroke-linecap:round; stroke-width:0.25; stroke-dasharray:3,3;"/>
<line x1="756.500000" y1="209.000000" x2="756.500000" y2="15.000000"  style="stroke: black; stroke-linecap:round; stroke-width:0.25; stroke-dasharray:3,3;"/>
<line x1="15.000000" y1="15.000000" x2="20.000000" y2="15.000000"  style="stroke: black; stroke-linecap:round; stroke-width:0.25; stroke-dasharray:3,3;"/>
<line x1="52.250000" y1="15.000000" x2="756.500000" y2="15.000000"  style="stroke: black; stroke-linecap:round; stroke-width:0.25; stroke-dasharray:3,3;"/>
<text x="20.000000" y="17.000000" font-family="Arial" font-size="7">flute(3)</text>
<line x1="758.500000" y1="111.000000" x2="761.500000" y2="112.000000"  transform="rotate(0.000000,761.500000,112.000000)" style="stroke: black; stroke-width:0.25;"/>
<line x1="758.500000" y1="113.000000" x2="761.500000" y2="112.000000"  transform="rotate(0.000000,761.500000,112.000000)" style="stroke: black; stroke-width:0.25;"/>
<line x1="28.000000" y1="36.000000" x2="28.000000" y2="36.000000"  style="stroke:black; stroke-linecap:round; stroke-width:0.25;"/>
<line x1="28.000000" y1="36.000000" x2="28.000000" y2="128.000000"  style="stroke:black; stroke-linecap:round; stroke-width:0.25;"/>
<line x1="28.000000" y1="128.000000" x2="28.000000" y2="128.000000"  style="stroke:black; stroke-linecap:round; stroke-width:0.25;"/>
<line x1="28.000000" y1="128.000000" x2="32.000000" y2="128.000000"  style="stroke:black; stroke-linecap:round; stroke-width:0.25;"/>
<line x1="32.000000" y1="128.000000" x2="36.000000" y2="128.000000"  style="stroke:black; stroke-linecap:round; stroke-width:0.25;"/>
<line x1="36.000000" y1="128.000000" x2="76.000000" y2="88.000000"  style="stroke:black; stroke-linecap:round; stroke-width:0.25;"/>
<line x1="36.000000" y1="128.000000" x2="76.000000" y2="148.000000"  style="stroke:black; stroke-linecap:round; stroke-width:0.25;"/>
<line x1="76.000000" y1="88.000000" x2="98.500000" y2="88.000000"  style="stroke:black; stroke-linecap:round; stroke-width:0.25;"/>
<line x1="76.000000" y1="148.000000" x2="191.000000" y2="148.000000"  style="stroke:black; stroke-linecap:round; stroke-width:0.25;"/>
<line x1="98.500000" y1="88.000000" x2="124.500000" y2="88.000000"  style="stroke:black; stroke-linecap:round; stroke-width:0.25;"/>
<line x1="124.500000" y1="88.000000" x2="150.500000" y2="88.000000"  style="stroke:black; stroke-linecap:round; stroke-width:0.25;"/>
<line x1="136.500000" y1="118.000000" x2="140.500000" y2="118.000000"  style="stroke:black; stroke-linecap:round; stroke-width:0.25;"/>
<line x1="140.500000" y1="118.000000" x2="150.500000" y2="118.000000"  style="stroke:black; stroke-linecap:round; stroke-width:0.25;"/>
<line x1="150.500000" y1="88.000000" x2="158.500000" y2="88.000000"  style="stroke:black; stroke-linecap:round; stroke-width:0.25;"/>
<line x1="150.500000" y1="118.000000" x2="158.500000" y2="118.000000"  style="stroke:black; stroke-linecap:round; stroke-width:0.25;"/>
<line x1="158.500000" y1="88.000000" x2="158.500000" y2="110.000000"  style="stroke:black; stroke-linecap:round; stroke-width:0.25;"/>
<line x1="158.500000" y1="110.000000" x2="158.500000" y2="110.000000"  style="stroke:black; stroke-linecap:round; stroke-width:0.25;"/>
<line x1="158.500000" y1="110.000000" x2="162.500000" y2="110.000000"  style="stroke:black; stroke-linecap:round; stroke-width:0.25;"/>
<line x1="158.500000" y1="118.000000" x2="162.500000" y2="118.000000"  style="stroke:black; stroke-linecap:round; stroke-width:0.25;"/>
<line x1="186.500000" y1="114.000000" x2="190.500000" y2="114.000000"  style="stroke:black; stroke-linecap:round; stroke-width:0.25;"/>
<line x1="190.500000" y1="114.000000" x2="213.000000" y2="114.000000"  style="stroke:black; stroke-linecap:round; stroke-width:0.25;"/>
<line x1="191.000000" y1="148.000000" x2="217.000000" y2="148.000000"  style="stroke:black; stroke-linecap:round; stroke-width:0.25;"/>
<line x1="209.000000" y1="68.000000" x2="213.000000" y2="68.000000"  style="stroke:black; stroke-linecap:round; stroke-width:0.25;"/>
<line x1="213.000000" y1="68.000000" x2="221.000000" y2="68.000000"  style="stroke:black; stroke-linecap:round; stroke-width:0.25;"/>
<line x1="213.000000" y1="102.000000" x2="221.000000" y2="102.000000"  style="stroke:black; stroke-linecap:round; stroke-width:0.25;"/>
<line x1="213.000000" y1="114.000000" x2="213.000000" y2="102.000000"  style="stroke:black; stroke-linecap:round; stroke-width:0.25;"/>
<line x1="213.000000" y1="114.000000" x2="213.000000" y2="114.000000"  style="stroke:black; stroke-linecap:round; stroke-width:0.25;"/>
<line x1="217.000000" y1="148.000000" x2="243.000000" y2="148.000000"  style="stroke:black; stroke-linecap:round; stroke-width:0.25;"/>
<line x1="221.000000" y1="68.000000" x2="221.000000" y2="94.000000"  style="stroke:black; stroke-linecap:round; stroke-width:0.25;"/>
<line x1="221.000000" y1="94.000000" x2="221.000000" y2="94.000000"  style="stroke:black; stroke-linecap:round; stroke-width:0.25;"/>
<line x1="221.000000" y1="94.000000" x2="225.000000" y2="94.000000"  style="stroke:black; stroke-linecap:round; stroke-width:0.25;"/>
<line x1="221.000000" y1="102.000000" x2="225.000000" y2="102.000000"  style="stroke:black; stroke-linecap:round; stroke-width:0.25;"/>
<line x1="226.550000" y1="36.000000" x2="28.000000" y2="36.000000"  style="stroke:black; stroke-linecap:round; stroke-width:0.25;"/>
<line x1="229.000000" y1="178.000000" x2="233.000000" y2="178.000000"  style="stroke:black; stroke-linecap:round; stroke-width:0.25;"/>
<line x1="230.550000" y1="36.000000" x2="226.550000" y2="36.000000"  style="stroke:black; stroke-linecap:round; stroke-width:0.25;"/>
<line x1="233.000000" y1="178.000000" x2="243.000000" y2="178.000000"  style="stroke:black; stroke-linecap:round; stroke-width:0.25;"/>
<line x1="243.000000" y1="148.000000" x2="251.000000" y2="148.000000"  style="stroke:black; stroke-linecap:round; stroke-width:0.25;"/>
<line x1="243.000000" y1="178.000000" x2="251.000000" y2="178.000000"  style="stroke:black; stroke-linecap:round; stroke-width:0.25;"/>
<line x1="249.000000" y1="98.000000" x2="253.000000" y2="98.000000"  style="stroke:black; stroke-linecap:round; stroke-width:0.25;"/>
<line x1="251.000000" y1="148.000000" x2="251.000000" y2="170.000000"  style="stroke:black; stroke-linecap:round; stroke-width:0.25;"/>
<line x1="251.000000" y1="170.000000" x2="251.000000" y2="170.000000"  style="stroke:black; stroke-linecap:round; stroke-width:0.25;"/>
<line x1="251.000000" y1="170.000000" x2="255.000000" y2="170.000000"  style="stroke:black; stroke-linecap:round; stroke-width:0.25;"/>
<line x1="251.000000" y1="178.000000" x2="255.000000" y2="178.000000"  style="stroke:black; stroke-linecap:round; stroke-width:0.25;"/>
<line x1="253.000000" y1="98.000000" x2="253.000000" y2="98.000000"  style="stroke:black; stroke-linecap:round; stroke-width:0.25;"/>
<line x1="253.000000" y1="98.000000" x2="257.000000" y2="98.000000"  style="stroke:black; stroke-linecap:round; stroke-width:0.25;"/>
<line x1="279.000000" y1="174.000000" x2="283.000000" y2="174.000000"  style="stroke:black; stroke-linecap:round; stroke-width:0.25;"/>
<line x1="283.000000" y1="174.000000" x2="398.000000" y2="174.000000"  style="stroke:black; stroke-linecap:round; stroke-width:0.25;"/>
<line x1="311.950000" y1="36.000000" x2="307.950000" y2="36.000000"  style="stroke:black; stroke-linecap:round; stroke-width:0.25;"/>
<line x1="360.200000" y1="98.000000" x2="364.200000" y2="98.000000"  style="stroke:black; stroke-linecap:round; stroke-width:0.25;"/>
<line x1="364.200000" y1="98.000000" x2="364.200000" y2="98.000000"  style="stroke:black; stroke-linecap:round; stroke-width:0.25;"/>
<line x1="364.200000" y1="98.000000" x2="368.200000" y2="98.000000"  style="stroke:black; stroke-linecap:round; stroke-width:0.25;"/>
<line x1="394.000000" y1="98.000000" x2="398.000000" y2="98.000000"  style="stroke:black; stroke-linecap:round; stroke-width:0.25;"/>
<line x1="398.000000" y1="98.000000" x2="406.000000" y2="98.000000"  style="stroke:black; stroke-linecap:round; stroke-width:0.25;"/>
<line x1="398.000000" y1="132.000000" x2="406.000000" y2="132.000000"  style="stroke:black; stroke-linecap:round; stroke-width:0.25;"/>
<line x1="398.000000" y1="174.000000" x2="398.000000" y2="132.000000"  style="stroke:black; stroke-linecap:round; stroke-width:0.25;"/>
<line x1="398.000000" y1="174.000000" x2="398.000000" y2="174.000000"  style="stroke:black; stroke-linecap:round; stroke-width:0.25;"/>
<line x1="406.000000" y1="98.000000" x2="406.000000" y2="124.000000"  style="stroke:black; stroke-linecap:round; stroke-width:0.25;"/>
<line x1="406.000000" y1="124.000000" x2="406.000000" y2="124.000000"  style="stroke:black; stroke-linecap:round; stroke-width:0.25;"/>
<line x1="406.000000" y1="124.000000" x2="410.000000" y2="124.000000"  style="stroke:black; stroke-linecap:round; stroke-width:0.25;"/>
<line x1="406.000000" y1="132.000000" x2="410.000000" y2="132.000000"  style="stroke:black; stroke-linecap:round; stroke-width:0.25;"/>
<line x1="434.000000" y1="128.000000" x2="438.000000" y2="128.000000"  style="stroke:black; stroke-linecap:round; stroke-width:0.25;"/>
<line x1="438.000000" y1="128.000000" x2="438.000000" y2="128.000000"  style="stroke:black; stroke-linecap:round; stroke-width:0.25;"/>
<line x1="438.000000" y1="128.000000" x2="442.000000" y2="128.000000"  style="stroke:black; stroke-linecap:round; stroke-width:0.25;"/>
<line x1="506.500000" y1="128.000000" x2="510.500000" y2="128.000000"  style="stroke:black; stroke-linecap:round; stroke-width:0.25;"/>
<line x1="510.500000" y1="36.000000" x2="311.950000" y2="36.000000"  style="stroke:black; stroke-linecap:round; stroke-width:0.25;"/>
<line x1="510.500000" y1="36.000000" x2="510.500000" y2="36.000000"  style="stroke:black; stroke-linecap:round; stroke-width:0.25;"/>
<line x1="510.500000" y1="124.000000" x2="510.500000" y2="36.000000"  style="stroke:black; stroke-linecap:round; stroke-width:0.25;"/>
<line x1="510.500000" y1="128.000000" x2="512.500000" y2="128.000000"  style="stroke:black; stroke-linecap:round; stroke-width:0.25;"/>
<line x1="512.500000" y1="128.000000" x2="518.500000" y2="128.000000"  style="stroke:black; stroke-linecap:round; stroke-width:0.25;"/>
<line x1="518.500000" y1="70.000000" x2="526.500000" y2="70.000000"  style="stroke:black; stroke-linecap:round; stroke-width:0.25;"/>
<line x1="518.500000" y1="128.000000" x2="518.500000" y2="70.000000"  style="stroke:black; stroke-linecap:round; stroke-width:0.25;"/>
<line x1="518.500000" y1="128.000000" x2="518.500000" y2="128.000000"  style="stroke:black; stroke-linecap:round; stroke-width:0.25;"/>
<line x1="526.500000" y1="70.000000" x2="595.000000" y2="70.000000"  style="stroke:black; stroke-linecap:round; stroke-width:0.25;"/>
<line x1="595.000000" y1="70.000000" x2="663.500000" y2="70.000000"  style="stroke:black; stroke-linecap:round; stroke-width:0.25;"/>
<line x1="627.000000" y1="132.000000" x2="631.000000" y2="132.000000"  style="stroke:black; stroke-linecap:round; stroke-width:0.25;"/>
<line x1="631.000000" y1="132.000000" x2="641.000000" y2="132.000000"  style="stroke:black; stroke-linecap:round; stroke-width:0.25;"/>
<line x1="641.000000" y1="132.000000" x2="703.500000" y2="132.000000"  style="stroke:black; stroke-linecap:round; stroke-width:0.25;"/>
<line x1="659.500000" y1="90.000000" x2="663.500000" y2="90.000000"  style="stroke:black; stroke-linecap:round; stroke-width:0.25;"/>
<line x1="663.500000" y1="70.000000" x2="671.500000" y2="70.000000"  style="stroke:black; stroke-linecap:round; stroke-width:0.25;"/>
<line x1="663.500000" y1="90.000000" x2="671.500000" y2="90.000000"  style="stroke:black; stroke-linecap:round; stroke-width:0.25;"/>
<line x1="671.500000" y1="70.000000" x2="671.500000" y2="82.000000"  style="stroke:black; stroke-linecap:round; stroke-width:0.25;"/>
<line x1="671.500000" y1="82.000000" x2="671.500000" y2="82.000000"  style="stroke:black; stroke-linecap:round; stroke-width:0.25;"/>
<line x1="671.500000" y1="82.000000" x2="675.500000" y2="82.000000"  style="stroke:black; stroke-linecap:round; stroke-width:0.25;"/>
<line x1="671.500000" y1="90.000000" x2="675.500000" y2="90.000000"  style="stroke:black; stroke-linecap:round; stroke-width:0.25;"/>
<line x1="699.500000" y1="86.000000" x2="703.500000" y2="86.000000"  style="stroke:black; stroke-linecap:round; stroke-width:0.25;"/>
<line x1="703.500000" y1="86.000000" x2="711.500000" y2="86.000000"  style="stroke:black; stroke-linecap:round; stroke-width:0.25;"/>
<line x1="703.500000" y1="116.000000" x2="711.500000" y2="116.000000"  style="stroke:black; stroke-linecap:round; stroke-width:0.25;"/>
<line x1="703.500000" y1="132.000000" x2="703.500000" y2="116.000000"  style="stroke:black; stroke-linecap:round; stroke-width:0.25;"/>
<line x1="703.500000" y1="132.000000" x2="703.500000" y2="132.000000"  style="stroke:black; stroke-linecap:round; stroke-width:0.25;"/>
<line x1="711.500000" y1="86.000000" x2="711.500000" y2="108.000000"  style="stroke:black; stroke-linecap:round; stroke-width:0.25;"/>
<line x1="711.500000" y1="108.000000" x2="711.500000" y2="108.000000"  style="stroke:black; stroke-linecap:round; stroke-width:0.25;"/>
<line x1="711.500000" y1="108.000000" x2="715.500000" y2="108.000000"  style="stroke:black; stroke-linecap:round; stroke-width:0.25;"/>
<line x1="711.500000" y1="116.000000" x2="715.500000" y2="116.000000"  style="stroke:black; stroke-linecap:round; stroke-width:0.25;"/>
<line x1="739.500000" y1="112.000000" x2="743.500000" y2="112.000000"  style="stroke:black; stroke-linecap:round; stroke-width:0.25;"/>
<line x1="743.500000" y1="112.000000" x2="743.500000" y2="112.000000"  style="stroke:black; stroke-linecap:round; stroke-width:0.25;"/>
<line x1="743.500000" y1="112.000000" x2="747.500000" y2="112.000000"  style="stroke:black; stroke-linecap:round; stroke-width:0.25;"/>
<line x1="747.500000" y1="112.000000" x2="751.500000" y2="112.000000"  style="stroke:black; stroke-linecap:round; stroke-width:0.25;"/>
<line x1="751.500000" y1="112.000000" x2="761.500000" y2="112.000000"  style="stroke:black; stroke-linecap:round; stroke-width:0.25;"/>
</svg>
