<?xml version="1.0"?>
<svg xmlns="http://www.w3.org/2000/svg" xmlns:xlink="http://www.w3.org/1999/xlink" viewBox="0 0 645.700000 100.000000" width="322.850000mm" height="50.000000mm" version="1.1">
<a xlink:href="instrReverbHarp-0x7ff8dd2f8520.svg">
<rect x="1.000000" y="1.000000" width="644.700000" height="99.000000" rx="0" ry="0" style="stroke:none;fill:#cccccc;"/>
<rect x="0.000000" y="0.000000" width="644.700000" height="99.000000" rx="0" ry="0" style="stroke:none;fill:#ffffff;"/>
</a>
<text x="10.000000" y="7.000000" font-family="Arial" font-size="7"></text>
<rect x="25.000000" y="39.000000" width="335.400000" height="24.000000" rx="0" ry="0" style="stroke:none;fill:#cccccc;"/>
<rect x="24.000000" y="38.000000" width="335.400000" height="24.000000" rx="0" ry="0" style="stroke:none;fill:#477881;"/>
<text x="191.700000" y="52.000000" font-family="Arial" font-size="7" text-anchor="middle" fill="#FFFFFF">hslider(h:Reverb/Reverberation Volume(InstrReverb), 0.2f, 0.05f, 1.0f, 0.01f)</text>
<circle cx="26.000000" cy="40.000000" r="1"/>
<a xlink:href="smooth-0x7ff8dc019fe0.svg">
<rect x="368.400000" y="39.000000" width="64.500000" height="24.000000" rx="0" ry="0" style="stroke:none;fill:#cccccc;"/>
<rect x="367.400000" y="38.000000" width="64.500000" height="24.000000" rx="0" ry="0" style="stroke:none;fill:#003366;"/>
</a>
<a xlink:href="smooth-0x7ff8dc019fe0.svg">
<text x="399.650000" y="52.000000" font-family="Arial" font-size="7" text-anchor="middle" fill="#FFFFFF">smooth(0.999f)</text>
</a>
<circle cx="369.400000" cy="40.000000" r="1"/>
<line x1="364.400000" y1="49.000000" x2="367.400000" y2="50.000000"  transform="rotate(0.000000,367.400000,50.000000)" style="stroke: black; stroke-width:0.25;"/>
<line x1="364.400000" y1="51.000000" x2="367.400000" y2="50.000000"  transform="rotate(0.000000,367.400000,50.000000)" style="stroke: black; stroke-width:0.25;"/>
<rect x="458.900000" y="35.000000" width="24.000000" height="24.000000" rx="0" ry="0" style="stroke:none;fill:#cccccc;"/>
<rect x="457.900000" y="34.000000" width="24.000000" height="24.000000" rx="0" ry="0" style="stroke:none;fill:#f44800;"/>
<text x="469.900000" y="48.000000" font-family="Arial" font-size="7" text-anchor="middle" fill="#FFFFFF">1</text>
<circle cx="459.900000" cy="36.000000" r="1"/>
<line x1="448.900000" y1="25.000000" x2="448.900000" y2="67.000000"  style="stroke: black; stroke-linecap:round; stroke-width:0.25; stroke-dasharray:3,3;"/>
<line x1="448.900000" y1="67.000000" x2="490.900000" y2="67.000000"  style="stroke: black; stroke-linecap:round; stroke-width:0.25; stroke-dasharray:3,3;"/>
<line x1="490.900000" y1="67.000000" x2="490.900000" y2="25.000000"  style="stroke: black; stroke-linecap:round; stroke-width:0.25; stroke-dasharray:3,3;"/>
<line x1="448.900000" y1="25.000000" x2="453.900000" y2="25.000000"  style="stroke: black; stroke-linecap:round; stroke-width:0.25; stroke-dasharray:3,3;"/>
<line x1="470.025000" y1="25.000000" x2="490.900000" y2="25.000000"  style="stroke: black; stroke-linecap:round; stroke-width:0.25; stroke-dasharray:3,3;"/>
<text x="453.900000" y="27.000000" font-family="Arial" font-size="7">lvl</text>
<rect x="508.900000" y="39.000000" width="24.000000" height="24.000000" rx="0" ry="0" style="stroke:none;fill:#cccccc;"/>
<rect x="507.900000" y="38.000000" width="24.000000" height="24.000000" rx="0" ry="0" style="stroke:none;fill:#4B71A1;"/>
<text x="519.900000" y="52.000000" font-family="Arial" font-size="7" text-anchor="middle" fill="#FFFFFF">min</text>
<circle cx="509.900000" cy="40.000000" r="1"/>
<line x1="504.900000" y1="45.000000" x2="507.900000" y2="46.000000"  transform="rotate(0.000000,507.900000,46.000000)" style="stroke: black; stroke-width:0.25;"/>
<line x1="504.900000" y1="47.000000" x2="507.900000" y2="46.000000"  transform="rotate(0.000000,507.900000,46.000000)" style="stroke: black; stroke-width:0.25;"/>
<line x1="504.900000" y1="53.000000" x2="507.900000" y2="54.000000"  transform="rotate(0.000000,507.900000,54.000000)" style="stroke: black; stroke-width:0.25;"/>
<line x1="504.900000" y1="55.000000" x2="507.900000" y2="54.000000"  transform="rotate(0.000000,507.900000,54.000000)" style="stroke: black; stroke-width:0.25;"/>
<rect x="548.900000" y="35.000000" width="25.800000" height="24.000000" rx="0" ry="0" style="stroke:none;fill:#cccccc;"/>
<rect x="547.900000" y="34.000000" width="25.800000" height="24.000000" rx="0" ry="0" style="stroke:none;fill:#f44800;"/>
<text x="560.800000" y="48.000000" font-family="Arial" font-size="7" text-anchor="middle" fill="#FFFFFF">0.05</text>
<circle cx="549.900000" cy="36.000000" r="1"/>
<rect x="590.700000" y="39.000000" width="24.000000" height="24.000000" rx="0" ry="0" style="stroke:none;fill:#cccccc;"/>
<rect x="589.700000" y="38.000000" width="24.000000" height="24.000000" rx="0" ry="0" style="stroke:none;fill:#4B71A1;"/>
<text x="601.700000" y="52.000000" font-family="Arial" font-size="7" text-anchor="middle" fill="#FFFFFF">max</text>
<circle cx="591.700000" cy="40.000000" r="1"/>
<line x1="586.700000" y1="45.000000" x2="589.700000" y2="46.000000"  transform="rotate(0.000000,589.700000,46.000000)" style="stroke: black; stroke-width:0.25;"/>
<line x1="586.700000" y1="47.000000" x2="589.700000" y2="46.000000"  transform="rotate(0.000000,589.700000,46.000000)" style="stroke: black; stroke-width:0.25;"/>
<line x1="586.700000" y1="53.000000" x2="589.700000" y2="54.000000"  transform="rotate(0.000000,589.700000,54.000000)" style="stroke: black; stroke-width:0.25;"/>
<line x1="586.700000" y1="55.000000" x2="589.700000" y2="54.000000"  transform="rotate(0.000000,589.700000,54.000000)" style="stroke: black; stroke-width:0.25;"/>
<line x1="15.000000" y1="15.000000" x2="15.000000" y2="85.000000"  style="stroke: black; stroke-linecap:round; stroke-width:0.25; stroke-dasharray:3,3;"/>
<line x1="15.000000" y1="85.000000" x2="630.700000" y2="85.000000"  style="stroke: black; stroke-linecap:round; stroke-width:0.25; stroke-dasharray:3,3;"/>
<line x1="630.700000" y1="85.000000" x2="630.700000" y2="15.000000"  style="stroke: black; stroke-linecap:round; stroke-width:0.25; stroke-dasharray:3,3;"/>
<line x1="15.000000" y1="15.000000" x2="20.000000" y2="15.000000"  style="stroke: black; stroke-linecap:round; stroke-width:0.25; stroke-dasharray:3,3;"/>
<line x1="58.700000" y1="15.000000" x2="630.700000" y2="15.000000"  style="stroke: black; stroke-linecap:round; stroke-width:0.25; stroke-dasharray:3,3;"/>
<text x="20.000000" y="17.000000" font-family="Arial" font-size="7">reverbGain</text>
<line x1="632.700000" y1="49.000000" x2="635.700000" y2="50.000000"  transform="rotate(0.000000,635.700000,50.000000)" style="stroke: black; stroke-width:0.25;"/>
<line x1="632.700000" y1="51.000000" x2="635.700000" y2="50.000000"  transform="rotate(0.000000,635.700000,50.000000)" style="stroke: black; stroke-width:0.25;"/>
<line x1="359.400000" y1="50.000000" x2="363.400000" y2="50.000000"  style="stroke:black; stroke-linecap:round; stroke-width:0.25;"/>
<line x1="363.400000" y1="50.000000" x2="363.400000" y2="50.000000"  style="stroke:black; stroke-linecap:round; stroke-width:0.25;"/>
<line x1="363.400000" y1="50.000000" x2="367.400000" y2="50.000000"  style="stroke:black; stroke-linecap:round; stroke-width:0.25;"/>
<line x1="431.900000" y1="50.000000" x2="435.900000" y2="50.000000"  style="stroke:black; stroke-linecap:round; stroke-width:0.25;"/>
<line x1="435.900000" y1="50.000000" x2="443.900000" y2="50.000000"  style="stroke:black; stroke-linecap:round; stroke-width:0.25;"/>
<line x1="443.900000" y1="50.000000" x2="443.900000" y2="76.000000"  style="stroke:black; stroke-linecap:round; stroke-width:0.25;"/>
<line x1="443.900000" y1="76.000000" x2="443.900000" y2="76.000000"  style="stroke:black; stroke-linecap:round; stroke-width:0.25;"/>
<line x1="443.900000" y1="76.000000" x2="469.900000" y2="76.000000"  style="stroke:black; stroke-linecap:round; stroke-width:0.25;"/>
<line x1="469.900000" y1="76.000000" x2="495.900000" y2="76.000000"  style="stroke:black; stroke-linecap:round; stroke-width:0.25;"/>
<line x1="481.900000" y1="46.000000" x2="485.900000" y2="46.000000"  style="stroke:black; stroke-linecap:round; stroke-width:0.25;"/>
<line x1="485.900000" y1="46.000000" x2="495.900000" y2="46.000000"  style="stroke:black; stroke-linecap:round; stroke-width:0.25;"/>
<line x1="495.900000" y1="46.000000" x2="503.900000" y2="46.000000"  style="stroke:black; stroke-linecap:round; stroke-width:0.25;"/>
<line x1="495.900000" y1="54.000000" x2="503.900000" y2="54.000000"  style="stroke:black; stroke-linecap:round; stroke-width:0.25;"/>
<line x1="495.900000" y1="76.000000" x2="495.900000" y2="54.000000"  style="stroke:black; stroke-linecap:round; stroke-width:0.25;"/>
<line x1="495.900000" y1="76.000000" x2="495.900000" y2="76.000000"  style="stroke:black; stroke-linecap:round; stroke-width:0.25;"/>
<line x1="503.900000" y1="46.000000" x2="507.900000" y2="46.000000"  style="stroke:black; stroke-linecap:round; stroke-width:0.25;"/>
<line x1="503.900000" y1="54.000000" x2="507.900000" y2="54.000000"  style="stroke:black; stroke-linecap:round; stroke-width:0.25;"/>
<line x1="531.900000" y1="50.000000" x2="535.900000" y2="50.000000"  style="stroke:black; stroke-linecap:round; stroke-width:0.25;"/>
<line x1="535.900000" y1="50.000000" x2="543.900000" y2="50.000000"  style="stroke:black; stroke-linecap:round; stroke-width:0.25;"/>
<line x1="543.900000" y1="50.000000" x2="543.900000" y2="66.000000"  style="stroke:black; stroke-linecap:round; stroke-width:0.25;"/>
<line x1="543.900000" y1="66.000000" x2="543.900000" y2="66.000000"  style="stroke:black; stroke-linecap:round; stroke-width:0.25;"/>
<line x1="543.900000" y1="66.000000" x2="560.800000" y2="66.000000"  style="stroke:black; stroke-linecap:round; stroke-width:0.25;"/>
<line x1="560.800000" y1="66.000000" x2="577.700000" y2="66.000000"  style="stroke:black; stroke-linecap:round; stroke-width:0.25;"/>
<line x1="573.700000" y1="46.000000" x2="577.700000" y2="46.000000"  style="stroke:black; stroke-linecap:round; stroke-width:0.25;"/>
<line x1="577.700000" y1="46.000000" x2="585.700000" y2="46.000000"  style="stroke:black; stroke-linecap:round; stroke-width:0.25;"/>
<line x1="577.700000" y1="54.000000" x2="585.700000" y2="54.000000"  style="stroke:black; stroke-linecap:round; stroke-width:0.25;"/>
<line x1="577.700000" y1="66.000000" x2="577.700000" y2="54.000000"  style="stroke:black; stroke-linecap:round; stroke-width:0.25;"/>
<line x1="577.700000" y1="66.000000" x2="577.700000" y2="66.000000"  style="stroke:black; stroke-linecap:round; stroke-width:0.25;"/>
<line x1="585.700000" y1="46.000000" x2="589.700000" y2="46.000000"  style="stroke:black; stroke-linecap:round; stroke-width:0.25;"/>
<line x1="585.700000" y1="54.000000" x2="589.700000" y2="54.000000"  style="stroke:black; stroke-linecap:round; stroke-width:0.25;"/>
<line x1="613.700000" y1="50.000000" x2="617.700000" y2="50.000000"  style="stroke:black; stroke-linecap:round; stroke-width:0.25;"/>
<line x1="617.700000" y1="50.000000" x2="617.700000" y2="50.000000"  style="stroke:black; stroke-linecap:round; stroke-width:0.25;"/>
<line x1="617.700000" y1="50.000000" x2="621.700000" y2="50.000000"  style="stroke:black; stroke-linecap:round; stroke-width:0.25;"/>
<line x1="621.700000" y1="50.000000" x2="625.700000" y2="50.000000"  style="stroke:black; stroke-linecap:round; stroke-width:0.25;"/>
<line x1="625.700000" y1="50.000000" x2="635.700000" y2="50.000000"  style="stroke:black; stroke-linecap:round; stroke-width:0.25;"/>
</svg>
