<?xml version="1.0"?>
<svg xmlns="http://www.w3.org/2000/svg" xmlns:xlink="http://www.w3.org/1999/xlink" viewBox="0 0 363.000000 204.000000" width="181.500000mm" height="102.000000mm" version="1.1">
<a xlink:href="allpass-0x7f9063b58390.svg">
<rect x="1.000000" y="1.000000" width="362.000000" height="203.000000" rx="0" ry="0" style="stroke:none;fill:#cccccc;"/>
<rect x="0.000000" y="0.000000" width="362.000000" height="203.000000" rx="0" ry="0" style="stroke:none;fill:#ffffff;"/>
</a>
<text x="10.000000" y="7.000000" font-family="Arial" font-size="7"></text>
<rect x="49.000000" y="137.000000" width="24.000000" height="24.000000" rx="0" ry="0" style="stroke:none;fill:#cccccc;"/>
<rect x="48.000000" y="136.000000" width="24.000000" height="24.000000" rx="0" ry="0" style="stroke:none;fill:#4B71A1;"/>
<text x="60.000000" y="150.000000" font-family="Arial" font-size="7" text-anchor="middle" fill="#FFFFFF">+</text>
<circle cx="50.000000" cy="138.000000" r="1"/>
<line x1="45.000000" y1="143.000000" x2="48.000000" y2="144.000000"  transform="rotate(0.000000,48.000000,144.000000)" style="stroke: black; stroke-width:0.25;"/>
<line x1="45.000000" y1="145.000000" x2="48.000000" y2="144.000000"  transform="rotate(0.000000,48.000000,144.000000)" style="stroke: black; stroke-width:0.25;"/>
<line x1="45.000000" y1="151.000000" x2="48.000000" y2="152.000000"  transform="rotate(0.000000,48.000000,152.000000)" style="stroke: black; stroke-width:0.25;"/>
<line x1="45.000000" y1="153.000000" x2="48.000000" y2="152.000000"  transform="rotate(0.000000,48.000000,152.000000)" style="stroke: black; stroke-width:0.25;"/>
<a xlink:href="delay-0x7f9063b52670.svg">
<rect x="107.000000" y="117.000000" width="129.000000" height="24.000000" rx="0" ry="0" style="stroke:none;fill:#cccccc;"/>
<rect x="106.000000" y="116.000000" width="129.000000" height="24.000000" rx="0" ry="0" style="stroke:none;fill:#003366;"/>
</a>
<a xlink:href="delay-0x7f9063b52670.svg">
<text x="170.500000" y="130.000000" font-family="Arial" font-size="7" text-anchor="middle" fill="#FFFFFF">delay(2048)((...floor),1 : -)</text>
</a>
<circle cx="108.000000" cy="118.000000" r="1"/>
<line x1="103.000000" y1="127.000000" x2="106.000000" y2="128.000000"  transform="rotate(0.000000,106.000000,128.000000)" style="stroke: black; stroke-width:0.25;"/>
<line x1="103.000000" y1="129.000000" x2="106.000000" y2="128.000000"  transform="rotate(0.000000,106.000000,128.000000)" style="stroke: black; stroke-width:0.25;"/>
<rect x="138.600000" y="157.000000" width="25.800000" height="24.000000" rx="0" ry="0" style="stroke:none;fill:#cccccc;"/>
<rect x="137.600000" y="156.000000" width="25.800000" height="24.000000" rx="0" ry="0" style="stroke:none;fill:#f44800;"/>
<text x="150.500000" y="170.000000" font-family="Arial" font-size="7" text-anchor="middle" fill="#FFFFFF">-0.6</text>
<circle cx="139.600000" cy="158.000000" r="1"/>
<rect x="180.400000" y="153.000000" width="24.000000" height="24.000000" rx="0" ry="0" style="stroke:none;fill:#cccccc;"/>
<rect x="179.400000" y="152.000000" width="24.000000" height="24.000000" rx="0" ry="0" style="stroke:none;fill:#4B71A1;"/>
<text x="191.400000" y="166.000000" font-family="Arial" font-size="7" text-anchor="middle" fill="#FFFFFF">*</text>
<circle cx="181.400000" cy="154.000000" r="1"/>
<line x1="176.400000" y1="159.000000" x2="179.400000" y2="160.000000"  transform="rotate(0.000000,179.400000,160.000000)" style="stroke: black; stroke-width:0.25;"/>
<line x1="176.400000" y1="161.000000" x2="179.400000" y2="160.000000"  transform="rotate(0.000000,179.400000,160.000000)" style="stroke: black; stroke-width:0.25;"/>
<line x1="176.400000" y1="167.000000" x2="179.400000" y2="168.000000"  transform="rotate(0.000000,179.400000,168.000000)" style="stroke: black; stroke-width:0.25;"/>
<line x1="176.400000" y1="169.000000" x2="179.400000" y2="168.000000"  transform="rotate(0.000000,179.400000,168.000000)" style="stroke: black; stroke-width:0.25;"/>
<rect x="170.500000" y="67.000000" width="24.000000" height="24.000000" rx="0" ry="0" style="stroke:none;fill:#cccccc;"/>
<rect x="169.500000" y="66.000000" width="24.000000" height="24.000000" rx="0" ry="0" style="stroke:none;fill:#f44800;"/>
<text x="181.500000" y="80.000000" font-family="Arial" font-size="7" text-anchor="middle" fill="#FFFFFF">0</text>
<circle cx="191.500000" cy="88.000000" r="1"/>
<line x1="160.500000" y1="57.000000" x2="160.500000" y2="99.000000"  style="stroke: black; stroke-linecap:round; stroke-width:0.25; stroke-dasharray:3,3;"/>
<line x1="160.500000" y1="99.000000" x2="202.500000" y2="99.000000"  style="stroke: black; stroke-linecap:round; stroke-width:0.25; stroke-dasharray:3,3;"/>
<line x1="202.500000" y1="99.000000" x2="202.500000" y2="57.000000"  style="stroke: black; stroke-linecap:round; stroke-width:0.25; stroke-dasharray:3,3;"/>
<line x1="160.500000" y1="57.000000" x2="165.500000" y2="57.000000"  style="stroke: black; stroke-linecap:round; stroke-width:0.25; stroke-dasharray:3,3;"/>
<line x1="184.850000" y1="57.000000" x2="202.500000" y2="57.000000"  style="stroke: black; stroke-linecap:round; stroke-width:0.25; stroke-dasharray:3,3;"/>
<text x="165.500000" y="59.000000" font-family="Arial" font-size="7">eq2l</text>
<rect x="169.600000" y="25.000000" width="25.800000" height="24.000000" rx="0" ry="0" style="stroke:none;fill:#cccccc;"/>
<rect x="168.600000" y="24.000000" width="25.800000" height="24.000000" rx="0" ry="0" style="stroke:none;fill:#f44800;"/>
<text x="181.500000" y="38.000000" font-family="Arial" font-size="7" text-anchor="middle" fill="#FFFFFF">-0.6</text>
<circle cx="192.400000" cy="46.000000" r="1"/>
<rect x="120.500000" y="51.000000" width="24.000000" height="24.000000" rx="0" ry="0" style="stroke:none;fill:#cccccc;"/>
<rect x="119.500000" y="50.000000" width="24.000000" height="24.000000" rx="0" ry="0" style="stroke:none;fill:#4B71A1;"/>
<text x="131.500000" y="64.000000" font-family="Arial" font-size="7" text-anchor="middle" fill="#FFFFFF">-</text>
<circle cx="141.500000" cy="72.000000" r="1"/>
<line x1="146.500000" y1="65.000000" x2="143.500000" y2="66.000000"  transform="rotate(0.000000,143.500000,66.000000)" style="stroke: black; stroke-width:0.25;"/>
<line x1="146.500000" y1="67.000000" x2="143.500000" y2="66.000000"  transform="rotate(0.000000,143.500000,66.000000)" style="stroke: black; stroke-width:0.25;"/>
<line x1="146.500000" y1="57.000000" x2="143.500000" y2="58.000000"  transform="rotate(0.000000,143.500000,58.000000)" style="stroke: black; stroke-width:0.25;"/>
<line x1="146.500000" y1="59.000000" x2="143.500000" y2="58.000000"  transform="rotate(0.000000,143.500000,58.000000)" style="stroke: black; stroke-width:0.25;"/>
<rect x="80.500000" y="55.000000" width="24.000000" height="24.000000" rx="0" ry="0" style="stroke:none;fill:#cccccc;"/>
<rect x="79.500000" y="54.000000" width="24.000000" height="24.000000" rx="0" ry="0" style="stroke:none;fill:#4B71A1;"/>
<text x="91.500000" y="68.000000" font-family="Arial" font-size="7" text-anchor="middle" fill="#FFFFFF">*</text>
<circle cx="101.500000" cy="76.000000" r="1"/>
<line x1="106.500000" y1="69.000000" x2="103.500000" y2="70.000000"  transform="rotate(0.000000,103.500000,70.000000)" style="stroke: black; stroke-width:0.25;"/>
<line x1="106.500000" y1="71.000000" x2="103.500000" y2="70.000000"  transform="rotate(0.000000,103.500000,70.000000)" style="stroke: black; stroke-width:0.25;"/>
<line x1="106.500000" y1="61.000000" x2="103.500000" y2="62.000000"  transform="rotate(0.000000,103.500000,62.000000)" style="stroke: black; stroke-width:0.25;"/>
<line x1="106.500000" y1="63.000000" x2="103.500000" y2="62.000000"  transform="rotate(0.000000,103.500000,62.000000)" style="stroke: black; stroke-width:0.25;"/>
<line x1="237.000000" y1="128.000000" x2="237.000000" y2="124.000000"  style="stroke:black; stroke-linecap:round; stroke-width:0.25;"/>
<line x1="237.000000" y1="124.000000" x2="241.000000" y2="124.000000"  style="stroke:black; stroke-linecap:round; stroke-width:0.25;"/>
<line x1="241.000000" y1="124.000000" x2="241.000000" y2="128.000000"  style="stroke:black; stroke-linecap:round; stroke-width:0.25;"/>
<rect x="268.000000" y="87.000000" width="24.000000" height="24.000000" rx="0" ry="0" style="stroke:none;fill:#cccccc;"/>
<rect x="267.000000" y="86.000000" width="24.000000" height="24.000000" rx="0" ry="0" style="stroke:none;fill:#4B71A1;"/>
<text x="279.000000" y="100.000000" font-family="Arial" font-size="7" text-anchor="middle" fill="#FFFFFF">mem</text>
<circle cx="269.000000" cy="88.000000" r="1"/>
<line x1="264.000000" y1="97.000000" x2="267.000000" y2="98.000000"  transform="rotate(0.000000,267.000000,98.000000)" style="stroke: black; stroke-width:0.25;"/>
<line x1="264.000000" y1="99.000000" x2="267.000000" y2="98.000000"  transform="rotate(0.000000,267.000000,98.000000)" style="stroke: black; stroke-width:0.25;"/>
<rect x="308.000000" y="91.000000" width="24.000000" height="24.000000" rx="0" ry="0" style="stroke:none;fill:#cccccc;"/>
<rect x="307.000000" y="90.000000" width="24.000000" height="24.000000" rx="0" ry="0" style="stroke:none;fill:#4B71A1;"/>
<text x="319.000000" y="104.000000" font-family="Arial" font-size="7" text-anchor="middle" fill="#FFFFFF">+</text>
<circle cx="309.000000" cy="92.000000" r="1"/>
<line x1="304.000000" y1="97.000000" x2="307.000000" y2="98.000000"  transform="rotate(0.000000,307.000000,98.000000)" style="stroke: black; stroke-width:0.25;"/>
<line x1="304.000000" y1="99.000000" x2="307.000000" y2="98.000000"  transform="rotate(0.000000,307.000000,98.000000)" style="stroke: black; stroke-width:0.25;"/>
<line x1="304.000000" y1="105.000000" x2="307.000000" y2="106.000000"  transform="rotate(0.000000,307.000000,106.000000)" style="stroke: black; stroke-width:0.25;"/>
<line x1="304.000000" y1="107.000000" x2="307.000000" y2="106.000000"  transform="rotate(0.000000,307.000000,106.000000)" style="stroke: black; stroke-width:0.25;"/>
<line x1="15.000000" y1="15.000000" x2="15.000000" y2="189.000000"  style="stroke: black; stroke-linecap:round; stroke-width:0.25; stroke-dasharray:3,3;"/>
<line x1="15.000000" y1="189.000000" x2="348.000000" y2="189.000000"  style="stroke: black; stroke-linecap:round; stroke-width:0.25; stroke-dasharray:3,3;"/>
<line x1="348.000000" y1="189.000000" x2="348.000000" y2="15.000000"  style="stroke: black; stroke-linecap:round; stroke-width:0.25; stroke-dasharray:3,3;"/>
<line x1="15.000000" y1="15.000000" x2="20.000000" y2="15.000000"  style="stroke: black; stroke-linecap:round; stroke-width:0.25; stroke-dasharray:3,3;"/>
<line x1="142.550000" y1="15.000000" x2="348.000000" y2="15.000000"  style="stroke: black; stroke-linecap:round; stroke-width:0.25; stroke-dasharray:3,3;"/>
<text x="20.000000" y="17.000000" font-family="Arial" font-size="7">allpass_comb(... : + : floor)(-0.6f)</text>
<line x1="350.000000" y1="101.000000" x2="353.000000" y2="102.000000"  transform="rotate(0.000000,353.000000,102.000000)" style="stroke: black; stroke-width:0.25;"/>
<line x1="350.000000" y1="103.000000" x2="353.000000" y2="102.000000"  transform="rotate(0.000000,353.000000,102.000000)" style="stroke: black; stroke-width:0.25;"/>
<line x1="10.000000" y1="102.000000" x2="20.000000" y2="102.000000"  style="stroke:black; stroke-linecap:round; stroke-width:0.25;"/>
<line x1="20.000000" y1="102.000000" x2="24.000000" y2="102.000000"  style="stroke:black; stroke-linecap:round; stroke-width:0.25;"/>
<line x1="24.000000" y1="102.000000" x2="28.000000" y2="102.000000"  style="stroke:black; stroke-linecap:round; stroke-width:0.25;"/>
<line x1="28.000000" y1="102.000000" x2="36.000000" y2="102.000000"  style="stroke:black; stroke-linecap:round; stroke-width:0.25;"/>
<line x1="36.000000" y1="102.000000" x2="36.000000" y2="152.000000"  style="stroke:black; stroke-linecap:round; stroke-width:0.25;"/>
<line x1="36.000000" y1="152.000000" x2="36.000000" y2="152.000000"  style="stroke:black; stroke-linecap:round; stroke-width:0.25;"/>
<line x1="36.000000" y1="152.000000" x2="44.000000" y2="152.000000"  style="stroke:black; stroke-linecap:round; stroke-width:0.25;"/>
<line x1="44.000000" y1="66.000000" x2="44.000000" y2="66.000000"  style="stroke:black; stroke-linecap:round; stroke-width:0.25;"/>
<line x1="44.000000" y1="66.000000" x2="44.000000" y2="144.000000"  style="stroke:black; stroke-linecap:round; stroke-width:0.25;"/>
<line x1="44.000000" y1="144.000000" x2="44.000000" y2="144.000000"  style="stroke:black; stroke-linecap:round; stroke-width:0.25;"/>
<line x1="44.000000" y1="144.000000" x2="48.000000" y2="144.000000"  style="stroke:black; stroke-linecap:round; stroke-width:0.25;"/>
<line x1="44.000000" y1="152.000000" x2="48.000000" y2="152.000000"  style="stroke:black; stroke-linecap:round; stroke-width:0.25;"/>
<line x1="72.000000" y1="148.000000" x2="76.000000" y2="148.000000"  style="stroke:black; stroke-linecap:round; stroke-width:0.25;"/>
<line x1="75.500000" y1="66.000000" x2="44.000000" y2="66.000000"  style="stroke:black; stroke-linecap:round; stroke-width:0.25;"/>
<line x1="76.000000" y1="148.000000" x2="102.000000" y2="128.000000"  style="stroke:black; stroke-linecap:round; stroke-width:0.25;"/>
<line x1="76.000000" y1="148.000000" x2="102.000000" y2="148.000000"  style="stroke:black; stroke-linecap:round; stroke-width:0.25;"/>
<line x1="79.500000" y1="66.000000" x2="75.500000" y2="66.000000"  style="stroke:black; stroke-linecap:round; stroke-width:0.25;"/>
<line x1="102.000000" y1="128.000000" x2="106.000000" y2="128.000000"  style="stroke:black; stroke-linecap:round; stroke-width:0.25;"/>
<line x1="102.000000" y1="148.000000" x2="133.600000" y2="148.000000"  style="stroke:black; stroke-linecap:round; stroke-width:0.25;"/>
<line x1="107.500000" y1="62.000000" x2="103.500000" y2="62.000000"  style="stroke:black; stroke-linecap:round; stroke-width:0.25;"/>
<line x1="107.500000" y1="70.000000" x2="103.500000" y2="70.000000"  style="stroke:black; stroke-linecap:round; stroke-width:0.25;"/>
<line x1="107.500000" y1="70.000000" x2="107.500000" y2="70.000000"  style="stroke:black; stroke-linecap:round; stroke-width:0.25;"/>
<line x1="107.500000" y1="108.000000" x2="107.500000" y2="70.000000"  style="stroke:black; stroke-linecap:round; stroke-width:0.25;"/>
<line x1="115.500000" y1="62.000000" x2="107.500000" y2="62.000000"  style="stroke:black; stroke-linecap:round; stroke-width:0.25;"/>
<line x1="115.500000" y1="108.000000" x2="107.500000" y2="108.000000"  style="stroke:black; stroke-linecap:round; stroke-width:0.25;"/>
<line x1="119.500000" y1="62.000000" x2="115.500000" y2="62.000000"  style="stroke:black; stroke-linecap:round; stroke-width:0.25;"/>
<line x1="133.600000" y1="148.000000" x2="150.500000" y2="148.000000"  style="stroke:black; stroke-linecap:round; stroke-width:0.25;"/>
<line x1="147.500000" y1="58.000000" x2="143.500000" y2="58.000000"  style="stroke:black; stroke-linecap:round; stroke-width:0.25;"/>
<line x1="147.500000" y1="66.000000" x2="143.500000" y2="66.000000"  style="stroke:black; stroke-linecap:round; stroke-width:0.25;"/>
<line x1="147.500000" y1="66.000000" x2="147.500000" y2="66.000000"  style="stroke:black; stroke-linecap:round; stroke-width:0.25;"/>
<line x1="147.500000" y1="78.000000" x2="147.500000" y2="66.000000"  style="stroke:black; stroke-linecap:round; stroke-width:0.25;"/>
<line x1="150.500000" y1="148.000000" x2="167.400000" y2="148.000000"  style="stroke:black; stroke-linecap:round; stroke-width:0.25;"/>
<line x1="155.500000" y1="36.000000" x2="155.500000" y2="36.000000"  style="stroke:black; stroke-linecap:round; stroke-width:0.25;"/>
<line x1="155.500000" y1="36.000000" x2="155.500000" y2="58.000000"  style="stroke:black; stroke-linecap:round; stroke-width:0.25;"/>
<line x1="155.500000" y1="58.000000" x2="147.500000" y2="58.000000"  style="stroke:black; stroke-linecap:round; stroke-width:0.25;"/>
<line x1="155.500000" y1="78.000000" x2="147.500000" y2="78.000000"  style="stroke:black; stroke-linecap:round; stroke-width:0.25;"/>
<line x1="161.500000" y1="108.000000" x2="115.500000" y2="108.000000"  style="stroke:black; stroke-linecap:round; stroke-width:0.25;"/>
<line x1="163.400000" y1="168.000000" x2="167.400000" y2="168.000000"  style="stroke:black; stroke-linecap:round; stroke-width:0.25;"/>
<line x1="164.600000" y1="36.000000" x2="155.500000" y2="36.000000"  style="stroke:black; stroke-linecap:round; stroke-width:0.25;"/>
<line x1="165.500000" y1="78.000000" x2="155.500000" y2="78.000000"  style="stroke:black; stroke-linecap:round; stroke-width:0.25;"/>
<line x1="167.400000" y1="168.000000" x2="175.400000" y2="168.000000"  style="stroke:black; stroke-linecap:round; stroke-width:0.25;"/>
<line x1="167.400000" y1="148.000000" x2="175.400000" y2="148.000000"  style="stroke:black; stroke-linecap:round; stroke-width:0.25;"/>
<line x1="168.600000" y1="36.000000" x2="164.600000" y2="36.000000"  style="stroke:black; stroke-linecap:round; stroke-width:0.25;"/>
<line x1="169.500000" y1="78.000000" x2="165.500000" y2="78.000000"  style="stroke:black; stroke-linecap:round; stroke-width:0.25;"/>
<line x1="175.400000" y1="160.000000" x2="179.400000" y2="160.000000"  style="stroke:black; stroke-linecap:round; stroke-width:0.25;"/>
<line x1="175.400000" y1="168.000000" x2="179.400000" y2="168.000000"  style="stroke:black; stroke-linecap:round; stroke-width:0.25;"/>
<line x1="175.400000" y1="148.000000" x2="175.400000" y2="160.000000"  style="stroke:black; stroke-linecap:round; stroke-width:0.25;"/>
<line x1="175.400000" y1="160.000000" x2="175.400000" y2="160.000000"  style="stroke:black; stroke-linecap:round; stroke-width:0.25;"/>
<line x1="203.400000" y1="164.000000" x2="207.400000" y2="164.000000"  style="stroke:black; stroke-linecap:round; stroke-width:0.25;"/>
<line x1="207.400000" y1="164.000000" x2="239.000000" y2="164.000000"  style="stroke:black; stroke-linecap:round; stroke-width:0.25;"/>
<line x1="207.500000" y1="108.000000" x2="161.500000" y2="108.000000"  style="stroke:black; stroke-linecap:round; stroke-width:0.25;"/>
<line x1="235.000000" y1="128.000000" x2="239.000000" y2="128.000000"  style="stroke:black; stroke-linecap:round; stroke-width:0.25;"/>
<line x1="239.000000" y1="164.000000" x2="247.000000" y2="164.000000"  style="stroke:black; stroke-linecap:round; stroke-width:0.25;"/>
<line x1="239.000000" y1="108.000000" x2="207.500000" y2="108.000000"  style="stroke:black; stroke-linecap:round; stroke-width:0.25;"/>
<line x1="239.000000" y1="108.000000" x2="239.000000" y2="108.000000"  style="stroke:black; stroke-linecap:round; stroke-width:0.25;"/>
<line x1="239.000000" y1="124.000000" x2="239.000000" y2="108.000000"  style="stroke:black; stroke-linecap:round; stroke-width:0.25;"/>
<line x1="239.000000" y1="128.000000" x2="241.000000" y2="128.000000"  style="stroke:black; stroke-linecap:round; stroke-width:0.25;"/>
<line x1="241.000000" y1="128.000000" x2="247.000000" y2="128.000000"  style="stroke:black; stroke-linecap:round; stroke-width:0.25;"/>
<line x1="247.000000" y1="164.000000" x2="255.000000" y2="164.000000"  style="stroke:black; stroke-linecap:round; stroke-width:0.25;"/>
<line x1="247.000000" y1="98.000000" x2="263.000000" y2="98.000000"  style="stroke:black; stroke-linecap:round; stroke-width:0.25;"/>
<line x1="247.000000" y1="128.000000" x2="247.000000" y2="98.000000"  style="stroke:black; stroke-linecap:round; stroke-width:0.25;"/>
<line x1="247.000000" y1="128.000000" x2="247.000000" y2="128.000000"  style="stroke:black; stroke-linecap:round; stroke-width:0.25;"/>
<line x1="255.000000" y1="118.000000" x2="263.000000" y2="118.000000"  style="stroke:black; stroke-linecap:round; stroke-width:0.25;"/>
<line x1="255.000000" y1="164.000000" x2="255.000000" y2="118.000000"  style="stroke:black; stroke-linecap:round; stroke-width:0.25;"/>
<line x1="263.000000" y1="98.000000" x2="267.000000" y2="98.000000"  style="stroke:black; stroke-linecap:round; stroke-width:0.25;"/>
<line x1="263.000000" y1="118.000000" x2="279.000000" y2="118.000000"  style="stroke:black; stroke-linecap:round; stroke-width:0.25;"/>
<line x1="279.000000" y1="118.000000" x2="295.000000" y2="118.000000"  style="stroke:black; stroke-linecap:round; stroke-width:0.25;"/>
<line x1="291.000000" y1="98.000000" x2="295.000000" y2="98.000000"  style="stroke:black; stroke-linecap:round; stroke-width:0.25;"/>
<line x1="295.000000" y1="98.000000" x2="303.000000" y2="98.000000"  style="stroke:black; stroke-linecap:round; stroke-width:0.25;"/>
<line x1="295.000000" y1="106.000000" x2="303.000000" y2="106.000000"  style="stroke:black; stroke-linecap:round; stroke-width:0.25;"/>
<line x1="295.000000" y1="118.000000" x2="295.000000" y2="106.000000"  style="stroke:black; stroke-linecap:round; stroke-width:0.25;"/>
<line x1="295.000000" y1="118.000000" x2="295.000000" y2="118.000000"  style="stroke:black; stroke-linecap:round; stroke-width:0.25;"/>
<line x1="303.000000" y1="98.000000" x2="307.000000" y2="98.000000"  style="stroke:black; stroke-linecap:round; stroke-width:0.25;"/>
<line x1="303.000000" y1="106.000000" x2="307.000000" y2="106.000000"  style="stroke:black; stroke-linecap:round; stroke-width:0.25;"/>
<line x1="331.000000" y1="102.000000" x2="335.000000" y2="102.000000"  style="stroke:black; stroke-linecap:round; stroke-width:0.25;"/>
<line x1="335.000000" y1="102.000000" x2="335.000000" y2="102.000000"  style="stroke:black; stroke-linecap:round; stroke-width:0.25;"/>
<line x1="335.000000" y1="102.000000" x2="339.000000" y2="102.000000"  style="stroke:black; stroke-linecap:round; stroke-width:0.25;"/>
<line x1="339.000000" y1="102.000000" x2="343.000000" y2="102.000000"  style="stroke:black; stroke-linecap:round; stroke-width:0.25;"/>
<line x1="343.000000" y1="102.000000" x2="353.000000" y2="102.000000"  style="stroke:black; stroke-linecap:round; stroke-width:0.25;"/>
</svg>
