<?xml version="1.0"?>
<svg xmlns="http://www.w3.org/2000/svg" xmlns:xlink="http://www.w3.org/1999/xlink" viewBox="0 0 290.300000 168.000000" width="145.150000mm" height="84.000000mm" version="1.1">
<a xlink:href="embouchureDelay-0x7f801b5ac3c0.svg">
<rect x="1.000000" y="1.000000" width="289.300000" height="167.000000" rx="0" ry="0" style="stroke:none;fill:#cccccc;"/>
<rect x="0.000000" y="0.000000" width="289.300000" height="167.000000" rx="0" ry="0" style="stroke:none;fill:#ffffff;"/>
</a>
<text x="10.000000" y="7.000000" font-family="Arial" font-size="7"></text>
<rect x="110.150000" y="25.000000" width="24.000000" height="24.000000" rx="0" ry="0" style="stroke:none;fill:#cccccc;"/>
<rect x="109.150000" y="24.000000" width="24.000000" height="24.000000" rx="0" ry="0" style="stroke:none;fill:#47945E;"/>
<text x="121.150000" y="38.000000" font-family="Arial" font-size="7" text-anchor="middle" fill="#FFFFFF">x</text>
<circle cx="111.150000" cy="26.000000" r="1"/>
<a xlink:href="embouchureDelayL-0x7f801b098e10.svg">
<rect x="25.000000" y="57.000000" width="90.300000" height="24.000000" rx="0" ry="0" style="stroke:none;fill:#cccccc;"/>
<rect x="24.000000" y="56.000000" width="90.300000" height="24.000000" rx="0" ry="0" style="stroke:none;fill:#003366;"/>
</a>
<a xlink:href="embouchureDelayL-0x7f801b098e10.svg">
<text x="69.150000" y="70.000000" font-family="Arial" font-size="7" text-anchor="middle" fill="#FFFFFF">embouchureDelayLength</text>
</a>
<circle cx="26.000000" cy="58.000000" r="1"/>
<rect x="123.300000" y="57.000000" width="24.000000" height="24.000000" rx="0" ry="0" style="stroke:none;fill:#cccccc;"/>
<rect x="122.300000" y="56.000000" width="24.000000" height="24.000000" rx="0" ry="0" style="stroke:none;fill:#4B71A1;"/>
<text x="134.300000" y="70.000000" font-family="Arial" font-size="7" text-anchor="middle" fill="#FFFFFF">int</text>
<circle cx="124.300000" cy="58.000000" r="1"/>
<line x1="119.300000" y1="67.000000" x2="122.300000" y2="68.000000"  transform="rotate(0.000000,122.300000,68.000000)" style="stroke: black; stroke-width:0.25;"/>
<line x1="119.300000" y1="69.000000" x2="122.300000" y2="68.000000"  transform="rotate(0.000000,122.300000,68.000000)" style="stroke: black; stroke-width:0.25;"/>
<rect x="155.300000" y="57.000000" width="24.000000" height="24.000000" rx="0" ry="0" style="stroke:none;fill:#cccccc;"/>
<rect x="154.300000" y="56.000000" width="24.000000" height="24.000000" rx="0" ry="0" style="stroke:none;fill:#4B71A1;"/>
<text x="166.300000" y="70.000000" font-family="Arial" font-size="7" text-anchor="middle" fill="#FFFFFF">int</text>
<circle cx="156.300000" cy="58.000000" r="1"/>
<line x1="151.300000" y1="67.000000" x2="154.300000" y2="68.000000"  transform="rotate(0.000000,154.300000,68.000000)" style="stroke: black; stroke-width:0.25;"/>
<line x1="151.300000" y1="69.000000" x2="154.300000" y2="68.000000"  transform="rotate(0.000000,154.300000,68.000000)" style="stroke: black; stroke-width:0.25;"/>
<rect x="69.250000" y="89.000000" width="25.800000" height="24.000000" rx="0" ry="0" style="stroke:none;fill:#cccccc;"/>
<rect x="68.250000" y="88.000000" width="25.800000" height="24.000000" rx="0" ry="0" style="stroke:none;fill:#f44800;"/>
<text x="81.150000" y="102.000000" font-family="Arial" font-size="7" text-anchor="middle" fill="#FFFFFF">4096</text>
<circle cx="70.250000" cy="90.000000" r="1"/>
<rect x="70.150000" y="121.000000" width="24.000000" height="24.000000" rx="0" ry="0" style="stroke:none;fill:#cccccc;"/>
<rect x="69.150000" y="120.000000" width="24.000000" height="24.000000" rx="0" ry="0" style="stroke:none;fill:#f44800;"/>
<text x="81.150000" y="134.000000" font-family="Arial" font-size="7" text-anchor="middle" fill="#FFFFFF">1</text>
<circle cx="71.150000" cy="122.000000" r="1"/>
<rect x="111.050000" y="105.000000" width="24.000000" height="24.000000" rx="0" ry="0" style="stroke:none;fill:#cccccc;"/>
<rect x="110.050000" y="104.000000" width="24.000000" height="24.000000" rx="0" ry="0" style="stroke:none;fill:#4B71A1;"/>
<text x="122.050000" y="118.000000" font-family="Arial" font-size="7" text-anchor="middle" fill="#FFFFFF">-</text>
<circle cx="112.050000" cy="106.000000" r="1"/>
<line x1="107.050000" y1="111.000000" x2="110.050000" y2="112.000000"  transform="rotate(0.000000,110.050000,112.000000)" style="stroke: black; stroke-width:0.25;"/>
<line x1="107.050000" y1="113.000000" x2="110.050000" y2="112.000000"  transform="rotate(0.000000,110.050000,112.000000)" style="stroke: black; stroke-width:0.25;"/>
<line x1="107.050000" y1="119.000000" x2="110.050000" y2="120.000000"  transform="rotate(0.000000,110.050000,120.000000)" style="stroke: black; stroke-width:0.25;"/>
<line x1="107.050000" y1="121.000000" x2="110.050000" y2="120.000000"  transform="rotate(0.000000,110.050000,120.000000)" style="stroke: black; stroke-width:0.25;"/>
<rect x="195.300000" y="89.000000" width="24.000000" height="24.000000" rx="0" ry="0" style="stroke:none;fill:#cccccc;"/>
<rect x="194.300000" y="88.000000" width="24.000000" height="24.000000" rx="0" ry="0" style="stroke:none;fill:#4B71A1;"/>
<text x="206.300000" y="102.000000" font-family="Arial" font-size="7" text-anchor="middle" fill="#FFFFFF">&amp;</text>
<circle cx="196.300000" cy="90.000000" r="1"/>
<line x1="191.300000" y1="95.000000" x2="194.300000" y2="96.000000"  transform="rotate(0.000000,194.300000,96.000000)" style="stroke: black; stroke-width:0.25;"/>
<line x1="191.300000" y1="97.000000" x2="194.300000" y2="96.000000"  transform="rotate(0.000000,194.300000,96.000000)" style="stroke: black; stroke-width:0.25;"/>
<line x1="191.300000" y1="103.000000" x2="194.300000" y2="104.000000"  transform="rotate(0.000000,194.300000,104.000000)" style="stroke: black; stroke-width:0.25;"/>
<line x1="191.300000" y1="105.000000" x2="194.300000" y2="104.000000"  transform="rotate(0.000000,194.300000,104.000000)" style="stroke: black; stroke-width:0.25;"/>
<rect x="235.300000" y="73.000000" width="24.000000" height="24.000000" rx="0" ry="0" style="stroke:none;fill:#cccccc;"/>
<rect x="234.300000" y="72.000000" width="24.000000" height="24.000000" rx="0" ry="0" style="stroke:none;fill:#4B71A1;"/>
<text x="246.300000" y="86.000000" font-family="Arial" font-size="7" text-anchor="middle" fill="#FFFFFF">@</text>
<circle cx="236.300000" cy="74.000000" r="1"/>
<line x1="231.300000" y1="79.000000" x2="234.300000" y2="80.000000"  transform="rotate(0.000000,234.300000,80.000000)" style="stroke: black; stroke-width:0.25;"/>
<line x1="231.300000" y1="81.000000" x2="234.300000" y2="80.000000"  transform="rotate(0.000000,234.300000,80.000000)" style="stroke: black; stroke-width:0.25;"/>
<line x1="231.300000" y1="87.000000" x2="234.300000" y2="88.000000"  transform="rotate(0.000000,234.300000,88.000000)" style="stroke: black; stroke-width:0.25;"/>
<line x1="231.300000" y1="89.000000" x2="234.300000" y2="88.000000"  transform="rotate(0.000000,234.300000,88.000000)" style="stroke: black; stroke-width:0.25;"/>
<line x1="15.000000" y1="15.000000" x2="15.000000" y2="153.000000"  style="stroke: black; stroke-linecap:round; stroke-width:0.25; stroke-dasharray:3,3;"/>
<line x1="15.000000" y1="153.000000" x2="275.300000" y2="153.000000"  style="stroke: black; stroke-linecap:round; stroke-width:0.25; stroke-dasharray:3,3;"/>
<line x1="275.300000" y1="153.000000" x2="275.300000" y2="15.000000"  style="stroke: black; stroke-linecap:round; stroke-width:0.25; stroke-dasharray:3,3;"/>
<line x1="15.000000" y1="15.000000" x2="20.000000" y2="15.000000"  style="stroke: black; stroke-linecap:round; stroke-width:0.25; stroke-dasharray:3,3;"/>
<line x1="136.100000" y1="15.000000" x2="275.300000" y2="15.000000"  style="stroke: black; stroke-linecap:round; stroke-width:0.25; stroke-dasharray:3,3;"/>
<text x="20.000000" y="17.000000" font-family="Arial" font-size="7">delay(4096)((...,2 : - : int)(x26)</text>
<line x1="277.300000" y1="83.000000" x2="280.300000" y2="84.000000"  transform="rotate(0.000000,280.300000,84.000000)" style="stroke: black; stroke-width:0.25;"/>
<line x1="277.300000" y1="85.000000" x2="280.300000" y2="84.000000"  transform="rotate(0.000000,280.300000,84.000000)" style="stroke: black; stroke-width:0.25;"/>
<line x1="93.150000" y1="132.000000" x2="97.150000" y2="132.000000"  style="stroke:black; stroke-linecap:round; stroke-width:0.25;"/>
<line x1="94.050000" y1="100.000000" x2="98.050000" y2="100.000000"  style="stroke:black; stroke-linecap:round; stroke-width:0.25;"/>
<line x1="97.150000" y1="132.000000" x2="98.050000" y2="132.000000"  style="stroke:black; stroke-linecap:round; stroke-width:0.25;"/>
<line x1="98.050000" y1="100.000000" x2="106.050000" y2="100.000000"  style="stroke:black; stroke-linecap:round; stroke-width:0.25;"/>
<line x1="98.050000" y1="120.000000" x2="106.050000" y2="120.000000"  style="stroke:black; stroke-linecap:round; stroke-width:0.25;"/>
<line x1="98.050000" y1="132.000000" x2="98.050000" y2="120.000000"  style="stroke:black; stroke-linecap:round; stroke-width:0.25;"/>
<line x1="98.050000" y1="132.000000" x2="98.050000" y2="132.000000"  style="stroke:black; stroke-linecap:round; stroke-width:0.25;"/>
<line x1="106.050000" y1="100.000000" x2="106.050000" y2="112.000000"  style="stroke:black; stroke-linecap:round; stroke-width:0.25;"/>
<line x1="106.050000" y1="112.000000" x2="106.050000" y2="112.000000"  style="stroke:black; stroke-linecap:round; stroke-width:0.25;"/>
<line x1="106.050000" y1="112.000000" x2="110.050000" y2="112.000000"  style="stroke:black; stroke-linecap:round; stroke-width:0.25;"/>
<line x1="106.050000" y1="120.000000" x2="110.050000" y2="120.000000"  style="stroke:black; stroke-linecap:round; stroke-width:0.25;"/>
<line x1="114.300000" y1="68.000000" x2="118.300000" y2="68.000000"  style="stroke:black; stroke-linecap:round; stroke-width:0.25;"/>
<line x1="118.300000" y1="68.000000" x2="118.300000" y2="68.000000"  style="stroke:black; stroke-linecap:round; stroke-width:0.25;"/>
<line x1="118.300000" y1="68.000000" x2="122.300000" y2="68.000000"  style="stroke:black; stroke-linecap:round; stroke-width:0.25;"/>
<line x1="133.150000" y1="36.000000" x2="137.150000" y2="36.000000"  style="stroke:black; stroke-linecap:round; stroke-width:0.25;"/>
<line x1="134.050000" y1="116.000000" x2="138.050000" y2="116.000000"  style="stroke:black; stroke-linecap:round; stroke-width:0.25;"/>
<line x1="137.150000" y1="36.000000" x2="222.300000" y2="36.000000"  style="stroke:black; stroke-linecap:round; stroke-width:0.25;"/>
<line x1="138.050000" y1="116.000000" x2="182.300000" y2="116.000000"  style="stroke:black; stroke-linecap:round; stroke-width:0.25;"/>
<line x1="146.300000" y1="68.000000" x2="150.300000" y2="68.000000"  style="stroke:black; stroke-linecap:round; stroke-width:0.25;"/>
<line x1="150.300000" y1="68.000000" x2="150.300000" y2="68.000000"  style="stroke:black; stroke-linecap:round; stroke-width:0.25;"/>
<line x1="150.300000" y1="68.000000" x2="154.300000" y2="68.000000"  style="stroke:black; stroke-linecap:round; stroke-width:0.25;"/>
<line x1="178.300000" y1="68.000000" x2="182.300000" y2="68.000000"  style="stroke:black; stroke-linecap:round; stroke-width:0.25;"/>
<line x1="182.300000" y1="68.000000" x2="190.300000" y2="68.000000"  style="stroke:black; stroke-linecap:round; stroke-width:0.25;"/>
<line x1="182.300000" y1="104.000000" x2="190.300000" y2="104.000000"  style="stroke:black; stroke-linecap:round; stroke-width:0.25;"/>
<line x1="182.300000" y1="116.000000" x2="182.300000" y2="104.000000"  style="stroke:black; stroke-linecap:round; stroke-width:0.25;"/>
<line x1="182.300000" y1="116.000000" x2="182.300000" y2="116.000000"  style="stroke:black; stroke-linecap:round; stroke-width:0.25;"/>
<line x1="190.300000" y1="68.000000" x2="190.300000" y2="96.000000"  style="stroke:black; stroke-linecap:round; stroke-width:0.25;"/>
<line x1="190.300000" y1="96.000000" x2="190.300000" y2="96.000000"  style="stroke:black; stroke-linecap:round; stroke-width:0.25;"/>
<line x1="190.300000" y1="96.000000" x2="194.300000" y2="96.000000"  style="stroke:black; stroke-linecap:round; stroke-width:0.25;"/>
<line x1="190.300000" y1="104.000000" x2="194.300000" y2="104.000000"  style="stroke:black; stroke-linecap:round; stroke-width:0.25;"/>
<line x1="218.300000" y1="100.000000" x2="222.300000" y2="100.000000"  style="stroke:black; stroke-linecap:round; stroke-width:0.25;"/>
<line x1="222.300000" y1="36.000000" x2="230.300000" y2="36.000000"  style="stroke:black; stroke-linecap:round; stroke-width:0.25;"/>
<line x1="222.300000" y1="88.000000" x2="230.300000" y2="88.000000"  style="stroke:black; stroke-linecap:round; stroke-width:0.25;"/>
<line x1="222.300000" y1="100.000000" x2="222.300000" y2="88.000000"  style="stroke:black; stroke-linecap:round; stroke-width:0.25;"/>
<line x1="222.300000" y1="100.000000" x2="222.300000" y2="100.000000"  style="stroke:black; stroke-linecap:round; stroke-width:0.25;"/>
<line x1="230.300000" y1="36.000000" x2="230.300000" y2="80.000000"  style="stroke:black; stroke-linecap:round; stroke-width:0.25;"/>
<line x1="230.300000" y1="80.000000" x2="230.300000" y2="80.000000"  style="stroke:black; stroke-linecap:round; stroke-width:0.25;"/>
<line x1="230.300000" y1="80.000000" x2="234.300000" y2="80.000000"  style="stroke:black; stroke-linecap:round; stroke-width:0.25;"/>
<line x1="230.300000" y1="88.000000" x2="234.300000" y2="88.000000"  style="stroke:black; stroke-linecap:round; stroke-width:0.25;"/>
<line x1="258.300000" y1="84.000000" x2="262.300000" y2="84.000000"  style="stroke:black; stroke-linecap:round; stroke-width:0.25;"/>
<line x1="262.300000" y1="84.000000" x2="262.300000" y2="84.000000"  style="stroke:black; stroke-linecap:round; stroke-width:0.25;"/>
<line x1="262.300000" y1="84.000000" x2="266.300000" y2="84.000000"  style="stroke:black; stroke-linecap:round; stroke-width:0.25;"/>
<line x1="266.300000" y1="84.000000" x2="270.300000" y2="84.000000"  style="stroke:black; stroke-linecap:round; stroke-width:0.25;"/>
<line x1="270.300000" y1="84.000000" x2="280.300000" y2="84.000000"  style="stroke:black; stroke-linecap:round; stroke-width:0.25;"/>
</svg>
