<?xml version="1.0"?>
<svg xmlns="http://www.w3.org/2000/svg" xmlns:xlink="http://www.w3.org/1999/xlink" viewBox="0 0 296.800000 88.000000" width="148.400000mm" height="44.000000mm" version="1.1">
<rect x="1.000000" y="1.000000" width="295.800000" height="87.000000" rx="0" ry="0" style="stroke:none;fill:#cccccc;"/>
<rect x="0.000000" y="0.000000" width="295.800000" height="87.000000" rx="0" ry="0" style="stroke:none;fill:#ffffff;"/>
<text x="10.000000" y="7.000000" font-family="Arial" font-size="7"></text>
<a xlink:href="oscs-0x7fca526bd520.svg">
<rect x="55.000000" y="41.000000" width="129.000000" height="24.000000" rx="0" ry="0" style="stroke:none;fill:#cccccc;"/>
<rect x="54.000000" y="40.000000" width="129.000000" height="24.000000" rx="0" ry="0" style="stroke:none;fill:#003366;"/>
</a>
<a xlink:href="oscs-0x7fca526bd520.svg">
<text x="118.500000" y="54.000000" font-family="Arial" font-size="7" text-anchor="middle" fill="#FFFFFF">oscs(hslider(...,0.999f : *))</text>
</a>
<circle cx="56.000000" cy="42.000000" r="1"/>
<rect x="200.000000" y="37.000000" width="24.000000" height="24.000000" rx="0" ry="0" style="stroke:none;fill:#cccccc;"/>
<rect x="199.000000" y="36.000000" width="24.000000" height="24.000000" rx="0" ry="0" style="stroke:none;fill:#4B71A1;"/>
<text x="211.000000" y="50.000000" font-family="Arial" font-size="7" text-anchor="middle" fill="#FFFFFF">*</text>
<circle cx="201.000000" cy="38.000000" r="1"/>
<line x1="196.000000" y1="43.000000" x2="199.000000" y2="44.000000"  transform="rotate(0.000000,199.000000,44.000000)" style="stroke: black; stroke-width:0.25;"/>
<line x1="196.000000" y1="45.000000" x2="199.000000" y2="44.000000"  transform="rotate(0.000000,199.000000,44.000000)" style="stroke: black; stroke-width:0.25;"/>
<line x1="196.000000" y1="51.000000" x2="199.000000" y2="52.000000"  transform="rotate(0.000000,199.000000,52.000000)" style="stroke: black; stroke-width:0.25;"/>
<line x1="196.000000" y1="53.000000" x2="199.000000" y2="52.000000"  transform="rotate(0.000000,199.000000,52.000000)" style="stroke: black; stroke-width:0.25;"/>
<a xlink:href="drywet-0x7fca526c2480.svg">
<rect x="240.000000" y="33.000000" width="25.800000" height="24.000000" rx="0" ry="0" style="stroke:none;fill:#cccccc;"/>
<rect x="239.000000" y="32.000000" width="25.800000" height="24.000000" rx="0" ry="0" style="stroke:none;fill:#003366;"/>
</a>
<a xlink:href="drywet-0x7fca526c2480.svg">
<text x="251.900000" y="46.000000" font-family="Arial" font-size="7" text-anchor="middle" fill="#FFFFFF">drywet</text>
</a>
<circle cx="241.000000" cy="34.000000" r="1"/>
<line x1="236.000000" y1="39.000000" x2="239.000000" y2="40.000000"  transform="rotate(0.000000,239.000000,40.000000)" style="stroke: black; stroke-width:0.25;"/>
<line x1="236.000000" y1="41.000000" x2="239.000000" y2="40.000000"  transform="rotate(0.000000,239.000000,40.000000)" style="stroke: black; stroke-width:0.25;"/>
<line x1="236.000000" y1="47.000000" x2="239.000000" y2="48.000000"  transform="rotate(0.000000,239.000000,48.000000)" style="stroke: black; stroke-width:0.25;"/>
<line x1="236.000000" y1="49.000000" x2="239.000000" y2="48.000000"  transform="rotate(0.000000,239.000000,48.000000)" style="stroke: black; stroke-width:0.25;"/>
<line x1="15.000000" y1="15.000000" x2="15.000000" y2="73.000000"  style="stroke: black; stroke-linecap:round; stroke-width:0.25; stroke-dasharray:3,3;"/>
<line x1="15.000000" y1="73.000000" x2="281.800000" y2="73.000000"  style="stroke: black; stroke-linecap:round; stroke-width:0.25; stroke-dasharray:3,3;"/>
<line x1="281.800000" y1="73.000000" x2="281.800000" y2="15.000000"  style="stroke: black; stroke-linecap:round; stroke-width:0.25; stroke-dasharray:3,3;"/>
<line x1="15.000000" y1="15.000000" x2="20.000000" y2="15.000000"  style="stroke: black; stroke-linecap:round; stroke-width:0.25; stroke-dasharray:3,3;"/>
<line x1="49.025000" y1="15.000000" x2="281.800000" y2="15.000000"  style="stroke: black; stroke-linecap:round; stroke-width:0.25; stroke-dasharray:3,3;"/>
<text x="20.000000" y="17.000000" font-family="Arial" font-size="7">process</text>
<line x1="283.800000" y1="43.000000" x2="286.800000" y2="44.000000"  transform="rotate(0.000000,286.800000,44.000000)" style="stroke: black; stroke-width:0.25;"/>
<line x1="283.800000" y1="45.000000" x2="286.800000" y2="44.000000"  transform="rotate(0.000000,286.800000,44.000000)" style="stroke: black; stroke-width:0.25;"/>
<line x1="10.000000" y1="44.000000" x2="20.000000" y2="44.000000"  style="stroke:black; stroke-linecap:round; stroke-width:0.25;"/>
<line x1="20.000000" y1="44.000000" x2="24.000000" y2="44.000000"  style="stroke:black; stroke-linecap:round; stroke-width:0.25;"/>
<line x1="24.000000" y1="44.000000" x2="28.000000" y2="44.000000"  style="stroke:black; stroke-linecap:round; stroke-width:0.25;"/>
<line x1="28.000000" y1="44.000000" x2="28.000000" y2="44.000000"  style="stroke:black; stroke-linecap:round; stroke-width:0.25;"/>
<line x1="28.000000" y1="44.000000" x2="32.000000" y2="44.000000"  style="stroke:black; stroke-linecap:round; stroke-width:0.25;"/>
<line x1="32.000000" y1="44.000000" x2="36.000000" y2="44.000000"  style="stroke:black; stroke-linecap:round; stroke-width:0.25;"/>
<line x1="36.000000" y1="44.000000" x2="50.000000" y2="24.000000"  style="stroke:black; stroke-linecap:round; stroke-width:0.25;"/>
<line x1="36.000000" y1="44.000000" x2="50.000000" y2="32.000000"  style="stroke:black; stroke-linecap:round; stroke-width:0.25;"/>
<line x1="50.000000" y1="24.000000" x2="138.500000" y2="24.000000"  style="stroke:black; stroke-linecap:round; stroke-width:0.25;"/>
<line x1="50.000000" y1="32.000000" x2="118.500000" y2="32.000000"  style="stroke:black; stroke-linecap:round; stroke-width:0.25;"/>
<line x1="118.500000" y1="32.000000" x2="187.000000" y2="32.000000"  style="stroke:black; stroke-linecap:round; stroke-width:0.25;"/>
<line x1="138.500000" y1="24.000000" x2="227.000000" y2="24.000000"  style="stroke:black; stroke-linecap:round; stroke-width:0.25;"/>
<line x1="183.000000" y1="52.000000" x2="187.000000" y2="52.000000"  style="stroke:black; stroke-linecap:round; stroke-width:0.25;"/>
<line x1="187.000000" y1="32.000000" x2="195.000000" y2="32.000000"  style="stroke:black; stroke-linecap:round; stroke-width:0.25;"/>
<line x1="187.000000" y1="52.000000" x2="195.000000" y2="52.000000"  style="stroke:black; stroke-linecap:round; stroke-width:0.25;"/>
<line x1="195.000000" y1="32.000000" x2="195.000000" y2="44.000000"  style="stroke:black; stroke-linecap:round; stroke-width:0.25;"/>
<line x1="195.000000" y1="44.000000" x2="195.000000" y2="44.000000"  style="stroke:black; stroke-linecap:round; stroke-width:0.25;"/>
<line x1="195.000000" y1="44.000000" x2="199.000000" y2="44.000000"  style="stroke:black; stroke-linecap:round; stroke-width:0.25;"/>
<line x1="195.000000" y1="52.000000" x2="199.000000" y2="52.000000"  style="stroke:black; stroke-linecap:round; stroke-width:0.25;"/>
<line x1="223.000000" y1="48.000000" x2="227.000000" y2="48.000000"  style="stroke:black; stroke-linecap:round; stroke-width:0.25;"/>
<line x1="227.000000" y1="24.000000" x2="235.000000" y2="24.000000"  style="stroke:black; stroke-linecap:round; stroke-width:0.25;"/>
<line x1="227.000000" y1="48.000000" x2="235.000000" y2="48.000000"  style="stroke:black; stroke-linecap:round; stroke-width:0.25;"/>
<line x1="235.000000" y1="24.000000" x2="235.000000" y2="40.000000"  style="stroke:black; stroke-linecap:round; stroke-width:0.25;"/>
<line x1="235.000000" y1="40.000000" x2="235.000000" y2="40.000000"  style="stroke:black; stroke-linecap:round; stroke-width:0.25;"/>
<line x1="235.000000" y1="40.000000" x2="239.000000" y2="40.000000"  style="stroke:black; stroke-linecap:round; stroke-width:0.25;"/>
<line x1="235.000000" y1="48.000000" x2="239.000000" y2="48.000000"  style="stroke:black; stroke-linecap:round; stroke-width:0.25;"/>
<line x1="264.800000" y1="44.000000" x2="268.800000" y2="44.000000"  style="stroke:black; stroke-linecap:round; stroke-width:0.25;"/>
<line x1="268.800000" y1="44.000000" x2="268.800000" y2="44.000000"  style="stroke:black; stroke-linecap:round; stroke-width:0.25;"/>
<line x1="268.800000" y1="44.000000" x2="272.800000" y2="44.000000"  style="stroke:black; stroke-linecap:round; stroke-width:0.25;"/>
<line x1="272.800000" y1="44.000000" x2="276.800000" y2="44.000000"  style="stroke:black; stroke-linecap:round; stroke-width:0.25;"/>
<line x1="276.800000" y1="44.000000" x2="286.800000" y2="44.000000"  style="stroke:black; stroke-linecap:round; stroke-width:0.25;"/>
</svg>
