<?xml version="1.0"?>
<svg xmlns="http://www.w3.org/2000/svg" xmlns:xlink="http://www.w3.org/1999/xlink" viewBox="0 0 263.600000 156.000000" width="131.800000mm" height="78.000000mm" version="1.1">
<a xlink:href="delayfilters-0x7fe6cb72dc00.svg">
<rect x="1.000000" y="1.000000" width="262.600000" height="155.000000" rx="0" ry="0" style="stroke:none;fill:#cccccc;"/>
<rect x="0.000000" y="0.000000" width="262.600000" height="155.000000" rx="0" ry="0" style="stroke:none;fill:#ffffff;"/>
</a>
<text x="10.000000" y="7.000000" font-family="Arial" font-size="7"></text>
<a xlink:href="lowshelf-0x7fe6cb4a9720.svg">
<rect x="51.650000" y="25.000000" width="90.300000" height="24.000000" rx="0" ry="0" style="stroke:none;fill:#cccccc;"/>
<rect x="50.650000" y="24.000000" width="90.300000" height="24.000000" rx="0" ry="0" style="stroke:none;fill:#003366;"/>
</a>
<a xlink:href="lowshelf-0x7fe6cb4a9720.svg">
<text x="95.800000" y="38.000000" font-family="Arial" font-size="7" text-anchor="middle" fill="#FFFFFF">lowshelf_lowpass(0)</text>
</a>
<circle cx="52.650000" cy="26.000000" r="1"/>
<line x1="47.650000" y1="35.000000" x2="50.650000" y2="36.000000"  transform="rotate(0.000000,50.650000,36.000000)" style="stroke: black; stroke-width:0.25;"/>
<line x1="47.650000" y1="37.000000" x2="50.650000" y2="36.000000"  transform="rotate(0.000000,50.650000,36.000000)" style="stroke: black; stroke-width:0.25;"/>
<rect x="51.000000" y="67.000000" width="24.000000" height="24.000000" rx="0" ry="0" style="stroke:none;fill:#cccccc;"/>
<rect x="50.000000" y="66.000000" width="24.000000" height="24.000000" rx="0" ry="0" style="stroke:none;fill:#f44800;"/>
<text x="62.000000" y="80.000000" font-family="Arial" font-size="7" text-anchor="middle" fill="#FFFFFF">8</text>
<circle cx="52.000000" cy="68.000000" r="1"/>
<line x1="41.000000" y1="57.000000" x2="41.000000" y2="99.000000"  style="stroke: black; stroke-linecap:round; stroke-width:0.25; stroke-dasharray:3,3;"/>
<line x1="41.000000" y1="99.000000" x2="83.000000" y2="99.000000"  style="stroke: black; stroke-linecap:round; stroke-width:0.25; stroke-dasharray:3,3;"/>
<line x1="83.000000" y1="99.000000" x2="83.000000" y2="57.000000"  style="stroke: black; stroke-linecap:round; stroke-width:0.25; stroke-dasharray:3,3;"/>
<line x1="41.000000" y1="57.000000" x2="46.000000" y2="57.000000"  style="stroke: black; stroke-linecap:round; stroke-width:0.25; stroke-dasharray:3,3;"/>
<line x1="55.675000" y1="57.000000" x2="83.000000" y2="57.000000"  style="stroke: black; stroke-linecap:round; stroke-width:0.25; stroke-dasharray:3,3;"/>
<text x="46.000000" y="59.000000" font-family="Arial" font-size="7">N</text>
<rect x="93.000000" y="67.000000" width="25.800000" height="24.000000" rx="0" ry="0" style="stroke:none;fill:#cccccc;"/>
<rect x="92.000000" y="66.000000" width="25.800000" height="24.000000" rx="0" ry="0" style="stroke:none;fill:#4B71A1;"/>
<text x="104.900000" y="80.000000" font-family="Arial" font-size="7" text-anchor="middle" fill="#FFFFFF">float</text>
<circle cx="94.000000" cy="68.000000" r="1"/>
<line x1="89.000000" y1="77.000000" x2="92.000000" y2="78.000000"  transform="rotate(0.000000,92.000000,78.000000)" style="stroke: black; stroke-width:0.25;"/>
<line x1="89.000000" y1="79.000000" x2="92.000000" y2="78.000000"  transform="rotate(0.000000,92.000000,78.000000)" style="stroke: black; stroke-width:0.25;"/>
<rect x="126.800000" y="67.000000" width="25.800000" height="24.000000" rx="0" ry="0" style="stroke:none;fill:#cccccc;"/>
<rect x="125.800000" y="66.000000" width="25.800000" height="24.000000" rx="0" ry="0" style="stroke:none;fill:#4B71A1;"/>
<text x="138.700000" y="80.000000" font-family="Arial" font-size="7" text-anchor="middle" fill="#FFFFFF">sqrt</text>
<circle cx="127.800000" cy="68.000000" r="1"/>
<line x1="122.800000" y1="77.000000" x2="125.800000" y2="78.000000"  transform="rotate(0.000000,125.800000,78.000000)" style="stroke: black; stroke-width:0.25;"/>
<line x1="122.800000" y1="79.000000" x2="125.800000" y2="78.000000"  transform="rotate(0.000000,125.800000,78.000000)" style="stroke: black; stroke-width:0.25;"/>
<rect x="168.600000" y="51.000000" width="24.000000" height="24.000000" rx="0" ry="0" style="stroke:none;fill:#cccccc;"/>
<rect x="167.600000" y="50.000000" width="24.000000" height="24.000000" rx="0" ry="0" style="stroke:none;fill:#4B71A1;"/>
<text x="179.600000" y="64.000000" font-family="Arial" font-size="7" text-anchor="middle" fill="#FFFFFF">/</text>
<circle cx="169.600000" cy="52.000000" r="1"/>
<line x1="164.600000" y1="57.000000" x2="167.600000" y2="58.000000"  transform="rotate(0.000000,167.600000,58.000000)" style="stroke: black; stroke-width:0.25;"/>
<line x1="164.600000" y1="59.000000" x2="167.600000" y2="58.000000"  transform="rotate(0.000000,167.600000,58.000000)" style="stroke: black; stroke-width:0.25;"/>
<line x1="164.600000" y1="65.000000" x2="167.600000" y2="66.000000"  transform="rotate(0.000000,167.600000,66.000000)" style="stroke: black; stroke-width:0.25;"/>
<line x1="164.600000" y1="67.000000" x2="167.600000" y2="66.000000"  transform="rotate(0.000000,167.600000,66.000000)" style="stroke: black; stroke-width:0.25;"/>
<a xlink:href="staynormal-0x7fe6cb0064f0.svg">
<rect x="91.000000" y="109.000000" width="51.600000" height="24.000000" rx="0" ry="0" style="stroke:none;fill:#cccccc;"/>
<rect x="90.000000" y="108.000000" width="51.600000" height="24.000000" rx="0" ry="0" style="stroke:none;fill:#003366;"/>
</a>
<a xlink:href="staynormal-0x7fe6cb0064f0.svg">
<text x="115.800000" y="122.000000" font-family="Arial" font-size="7" text-anchor="middle" fill="#FFFFFF">staynormal</text>
</a>
<circle cx="92.000000" cy="110.000000" r="1"/>
<rect x="208.600000" y="67.000000" width="24.000000" height="24.000000" rx="0" ry="0" style="stroke:none;fill:#cccccc;"/>
<rect x="207.600000" y="66.000000" width="24.000000" height="24.000000" rx="0" ry="0" style="stroke:none;fill:#4B71A1;"/>
<text x="219.600000" y="80.000000" font-family="Arial" font-size="7" text-anchor="middle" fill="#FFFFFF">+</text>
<circle cx="209.600000" cy="68.000000" r="1"/>
<line x1="204.600000" y1="73.000000" x2="207.600000" y2="74.000000"  transform="rotate(0.000000,207.600000,74.000000)" style="stroke: black; stroke-width:0.25;"/>
<line x1="204.600000" y1="75.000000" x2="207.600000" y2="74.000000"  transform="rotate(0.000000,207.600000,74.000000)" style="stroke: black; stroke-width:0.25;"/>
<line x1="204.600000" y1="81.000000" x2="207.600000" y2="82.000000"  transform="rotate(0.000000,207.600000,82.000000)" style="stroke: black; stroke-width:0.25;"/>
<line x1="204.600000" y1="83.000000" x2="207.600000" y2="82.000000"  transform="rotate(0.000000,207.600000,82.000000)" style="stroke: black; stroke-width:0.25;"/>
<line x1="15.000000" y1="15.000000" x2="15.000000" y2="141.000000"  style="stroke: black; stroke-linecap:round; stroke-width:0.25; stroke-dasharray:3,3;"/>
<line x1="15.000000" y1="141.000000" x2="248.600000" y2="141.000000"  style="stroke: black; stroke-linecap:round; stroke-width:0.25; stroke-dasharray:3,3;"/>
<line x1="248.600000" y1="141.000000" x2="248.600000" y2="15.000000"  style="stroke: black; stroke-linecap:round; stroke-width:0.25; stroke-dasharray:3,3;"/>
<line x1="15.000000" y1="15.000000" x2="20.000000" y2="15.000000"  style="stroke: black; stroke-linecap:round; stroke-width:0.25; stroke-dasharray:3,3;"/>
<line x1="119.975000" y1="15.000000" x2="248.600000" y2="15.000000"  style="stroke: black; stroke-linecap:round; stroke-width:0.25; stroke-dasharray:3,3;"/>
<text x="20.000000" y="17.000000" font-family="Arial" font-size="7">filter(0)(200... max),2 : *))</text>
<line x1="250.600000" y1="77.000000" x2="253.600000" y2="78.000000"  transform="rotate(0.000000,253.600000,78.000000)" style="stroke: black; stroke-width:0.25;"/>
<line x1="250.600000" y1="79.000000" x2="253.600000" y2="78.000000"  transform="rotate(0.000000,253.600000,78.000000)" style="stroke: black; stroke-width:0.25;"/>
<line x1="10.000000" y1="78.000000" x2="20.000000" y2="78.000000"  style="stroke:black; stroke-linecap:round; stroke-width:0.25;"/>
<line x1="20.000000" y1="78.000000" x2="24.000000" y2="78.000000"  style="stroke:black; stroke-linecap:round; stroke-width:0.25;"/>
<line x1="24.000000" y1="78.000000" x2="28.000000" y2="78.000000"  style="stroke:black; stroke-linecap:round; stroke-width:0.25;"/>
<line x1="28.000000" y1="36.000000" x2="36.000000" y2="36.000000"  style="stroke:black; stroke-linecap:round; stroke-width:0.25;"/>
<line x1="28.000000" y1="78.000000" x2="28.000000" y2="36.000000"  style="stroke:black; stroke-linecap:round; stroke-width:0.25;"/>
<line x1="28.000000" y1="78.000000" x2="28.000000" y2="78.000000"  style="stroke:black; stroke-linecap:round; stroke-width:0.25;"/>
<line x1="36.000000" y1="36.000000" x2="46.650000" y2="36.000000"  style="stroke:black; stroke-linecap:round; stroke-width:0.25;"/>
<line x1="46.650000" y1="36.000000" x2="50.650000" y2="36.000000"  style="stroke:black; stroke-linecap:round; stroke-width:0.25;"/>
<line x1="74.000000" y1="78.000000" x2="78.000000" y2="78.000000"  style="stroke:black; stroke-linecap:round; stroke-width:0.25;"/>
<line x1="78.000000" y1="78.000000" x2="88.000000" y2="78.000000"  style="stroke:black; stroke-linecap:round; stroke-width:0.25;"/>
<line x1="88.000000" y1="78.000000" x2="88.000000" y2="78.000000"  style="stroke:black; stroke-linecap:round; stroke-width:0.25;"/>
<line x1="88.000000" y1="78.000000" x2="92.000000" y2="78.000000"  style="stroke:black; stroke-linecap:round; stroke-width:0.25;"/>
<line x1="117.800000" y1="78.000000" x2="121.800000" y2="78.000000"  style="stroke:black; stroke-linecap:round; stroke-width:0.25;"/>
<line x1="121.800000" y1="78.000000" x2="121.800000" y2="78.000000"  style="stroke:black; stroke-linecap:round; stroke-width:0.25;"/>
<line x1="121.800000" y1="78.000000" x2="125.800000" y2="78.000000"  style="stroke:black; stroke-linecap:round; stroke-width:0.25;"/>
<line x1="140.950000" y1="36.000000" x2="144.950000" y2="36.000000"  style="stroke:black; stroke-linecap:round; stroke-width:0.25;"/>
<line x1="141.600000" y1="120.000000" x2="145.600000" y2="120.000000"  style="stroke:black; stroke-linecap:round; stroke-width:0.25;"/>
<line x1="144.950000" y1="36.000000" x2="155.600000" y2="36.000000"  style="stroke:black; stroke-linecap:round; stroke-width:0.25;"/>
<line x1="145.600000" y1="120.000000" x2="195.600000" y2="120.000000"  style="stroke:black; stroke-linecap:round; stroke-width:0.25;"/>
<line x1="151.600000" y1="78.000000" x2="155.600000" y2="78.000000"  style="stroke:black; stroke-linecap:round; stroke-width:0.25;"/>
<line x1="155.600000" y1="36.000000" x2="163.600000" y2="36.000000"  style="stroke:black; stroke-linecap:round; stroke-width:0.25;"/>
<line x1="155.600000" y1="66.000000" x2="163.600000" y2="66.000000"  style="stroke:black; stroke-linecap:round; stroke-width:0.25;"/>
<line x1="155.600000" y1="78.000000" x2="155.600000" y2="66.000000"  style="stroke:black; stroke-linecap:round; stroke-width:0.25;"/>
<line x1="155.600000" y1="78.000000" x2="155.600000" y2="78.000000"  style="stroke:black; stroke-linecap:round; stroke-width:0.25;"/>
<line x1="163.600000" y1="36.000000" x2="163.600000" y2="58.000000"  style="stroke:black; stroke-linecap:round; stroke-width:0.25;"/>
<line x1="163.600000" y1="58.000000" x2="163.600000" y2="58.000000"  style="stroke:black; stroke-linecap:round; stroke-width:0.25;"/>
<line x1="163.600000" y1="58.000000" x2="167.600000" y2="58.000000"  style="stroke:black; stroke-linecap:round; stroke-width:0.25;"/>
<line x1="163.600000" y1="66.000000" x2="167.600000" y2="66.000000"  style="stroke:black; stroke-linecap:round; stroke-width:0.25;"/>
<line x1="191.600000" y1="62.000000" x2="195.600000" y2="62.000000"  style="stroke:black; stroke-linecap:round; stroke-width:0.25;"/>
<line x1="195.600000" y1="62.000000" x2="203.600000" y2="62.000000"  style="stroke:black; stroke-linecap:round; stroke-width:0.25;"/>
<line x1="195.600000" y1="82.000000" x2="203.600000" y2="82.000000"  style="stroke:black; stroke-linecap:round; stroke-width:0.25;"/>
<line x1="195.600000" y1="120.000000" x2="195.600000" y2="82.000000"  style="stroke:black; stroke-linecap:round; stroke-width:0.25;"/>
<line x1="195.600000" y1="120.000000" x2="195.600000" y2="120.000000"  style="stroke:black; stroke-linecap:round; stroke-width:0.25;"/>
<line x1="203.600000" y1="62.000000" x2="203.600000" y2="74.000000"  style="stroke:black; stroke-linecap:round; stroke-width:0.25;"/>
<line x1="203.600000" y1="74.000000" x2="203.600000" y2="74.000000"  style="stroke:black; stroke-linecap:round; stroke-width:0.25;"/>
<line x1="203.600000" y1="74.000000" x2="207.600000" y2="74.000000"  style="stroke:black; stroke-linecap:round; stroke-width:0.25;"/>
<line x1="203.600000" y1="82.000000" x2="207.600000" y2="82.000000"  style="stroke:black; stroke-linecap:round; stroke-width:0.25;"/>
<line x1="231.600000" y1="78.000000" x2="235.600000" y2="78.000000"  style="stroke:black; stroke-linecap:round; stroke-width:0.25;"/>
<line x1="235.600000" y1="78.000000" x2="235.600000" y2="78.000000"  style="stroke:black; stroke-linecap:round; stroke-width:0.25;"/>
<line x1="235.600000" y1="78.000000" x2="239.600000" y2="78.000000"  style="stroke:black; stroke-linecap:round; stroke-width:0.25;"/>
<line x1="239.600000" y1="78.000000" x2="243.600000" y2="78.000000"  style="stroke:black; stroke-linecap:round; stroke-width:0.25;"/>
<line x1="243.600000" y1="78.000000" x2="253.600000" y2="78.000000"  style="stroke:black; stroke-linecap:round; stroke-width:0.25;"/>
</svg>
