<?xml version="1.0"?>
<svg xmlns="http://www.w3.org/2000/svg" xmlns:xlink="http://www.w3.org/1999/xlink" viewBox="0 0 679.400000 284.000000" width="339.700000mm" height="142.000000mm" version="1.1">
<rect x="1.000000" y="1.000000" width="678.400000" height="283.000000" rx="0" ry="0" style="stroke:none;fill:#cccccc;"/>
<rect x="0.000000" y="0.000000" width="678.400000" height="283.000000" rx="0" ry="0" style="stroke:none;fill:#ffffff;"/>
<text x="10.000000" y="7.000000" font-family="Arial" font-size="7"></text>
<rect x="328.700000" y="237.000000" width="24.000000" height="24.000000" rx="0" ry="0" style="stroke:none;fill:#cccccc;"/>
<rect x="327.700000" y="236.000000" width="24.000000" height="24.000000" rx="0" ry="0" style="stroke:none;fill:#4B71A1;"/>
<text x="339.700000" y="250.000000" font-family="Arial" font-size="7" text-anchor="middle" fill="#FFFFFF">+</text>
<circle cx="329.700000" cy="238.000000" r="1"/>
<line x1="324.700000" y1="243.000000" x2="327.700000" y2="244.000000"  transform="rotate(0.000000,327.700000,244.000000)" style="stroke: black; stroke-width:0.25;"/>
<line x1="324.700000" y1="245.000000" x2="327.700000" y2="244.000000"  transform="rotate(0.000000,327.700000,244.000000)" style="stroke: black; stroke-width:0.25;"/>
<line x1="324.700000" y1="251.000000" x2="327.700000" y2="252.000000"  transform="rotate(0.000000,327.700000,252.000000)" style="stroke: black; stroke-width:0.25;"/>
<line x1="324.700000" y1="253.000000" x2="327.700000" y2="252.000000"  transform="rotate(0.000000,327.700000,252.000000)" style="stroke: black; stroke-width:0.25;"/>
<rect x="390.400000" y="167.000000" width="206.400000" height="24.000000" rx="0" ry="0" style="stroke:none;fill:#cccccc;"/>
<rect x="389.400000" y="166.000000" width="206.400000" height="24.000000" rx="0" ry="0" style="stroke:none;fill:#477881;"/>
<text x="492.600000" y="180.000000" font-family="Arial" font-size="7" text-anchor="middle" fill="#FFFFFF">hslider(Echo Delay, 0.5f, 0.01f, 1.0f, 0.001f)</text>
<circle cx="593.800000" cy="188.000000" r="1"/>
<rect x="350.400000" y="171.000000" width="24.000000" height="24.000000" rx="0" ry="0" style="stroke:none;fill:#cccccc;"/>
<rect x="349.400000" y="170.000000" width="24.000000" height="24.000000" rx="0" ry="0" style="stroke:none;fill:#f44800;"/>
<text x="361.400000" y="184.000000" font-family="Arial" font-size="7" text-anchor="middle" fill="#FFFFFF">1</text>
<circle cx="371.400000" cy="192.000000" r="1"/>
<rect x="310.400000" y="167.000000" width="24.000000" height="24.000000" rx="0" ry="0" style="stroke:none;fill:#cccccc;"/>
<rect x="309.400000" y="166.000000" width="24.000000" height="24.000000" rx="0" ry="0" style="stroke:none;fill:#4B71A1;"/>
<text x="321.400000" y="180.000000" font-family="Arial" font-size="7" text-anchor="middle" fill="#FFFFFF">min</text>
<circle cx="331.400000" cy="188.000000" r="1"/>
<line x1="336.400000" y1="181.000000" x2="333.400000" y2="182.000000"  transform="rotate(0.000000,333.400000,182.000000)" style="stroke: black; stroke-width:0.25;"/>
<line x1="336.400000" y1="183.000000" x2="333.400000" y2="182.000000"  transform="rotate(0.000000,333.400000,182.000000)" style="stroke: black; stroke-width:0.25;"/>
<line x1="336.400000" y1="173.000000" x2="333.400000" y2="174.000000"  transform="rotate(0.000000,333.400000,174.000000)" style="stroke: black; stroke-width:0.25;"/>
<line x1="336.400000" y1="175.000000" x2="333.400000" y2="174.000000"  transform="rotate(0.000000,333.400000,174.000000)" style="stroke: black; stroke-width:0.25;"/>
<rect x="276.600000" y="187.000000" width="25.800000" height="24.000000" rx="0" ry="0" style="stroke:none;fill:#cccccc;"/>
<rect x="275.600000" y="186.000000" width="25.800000" height="24.000000" rx="0" ry="0" style="stroke:none;fill:#f44800;"/>
<text x="288.500000" y="200.000000" font-family="Arial" font-size="7" text-anchor="middle" fill="#FFFFFF">0.01</text>
<circle cx="299.400000" cy="208.000000" r="1"/>
<rect x="236.600000" y="183.000000" width="24.000000" height="24.000000" rx="0" ry="0" style="stroke:none;fill:#cccccc;"/>
<rect x="235.600000" y="182.000000" width="24.000000" height="24.000000" rx="0" ry="0" style="stroke:none;fill:#4B71A1;"/>
<text x="247.600000" y="196.000000" font-family="Arial" font-size="7" text-anchor="middle" fill="#FFFFFF">max</text>
<circle cx="257.600000" cy="204.000000" r="1"/>
<line x1="262.600000" y1="197.000000" x2="259.600000" y2="198.000000"  transform="rotate(0.000000,259.600000,198.000000)" style="stroke: black; stroke-width:0.25;"/>
<line x1="262.600000" y1="199.000000" x2="259.600000" y2="198.000000"  transform="rotate(0.000000,259.600000,198.000000)" style="stroke: black; stroke-width:0.25;"/>
<line x1="262.600000" y1="189.000000" x2="259.600000" y2="190.000000"  transform="rotate(0.000000,259.600000,190.000000)" style="stroke: black; stroke-width:0.25;"/>
<line x1="262.600000" y1="191.000000" x2="259.600000" y2="190.000000"  transform="rotate(0.000000,259.600000,190.000000)" style="stroke: black; stroke-width:0.25;"/>
<rect x="256.600000" y="147.000000" width="25.800000" height="24.000000" rx="0" ry="0" style="stroke:none;fill:#cccccc;"/>
<rect x="255.600000" y="146.000000" width="25.800000" height="24.000000" rx="0" ry="0" style="stroke:none;fill:#f44800;"/>
<text x="268.500000" y="160.000000" font-family="Arial" font-size="7" text-anchor="middle" fill="#FFFFFF">44100</text>
<circle cx="279.400000" cy="168.000000" r="1"/>
<rect x="196.600000" y="167.000000" width="24.000000" height="24.000000" rx="0" ry="0" style="stroke:none;fill:#cccccc;"/>
<rect x="195.600000" y="166.000000" width="24.000000" height="24.000000" rx="0" ry="0" style="stroke:none;fill:#4B71A1;"/>
<text x="207.600000" y="180.000000" font-family="Arial" font-size="7" text-anchor="middle" fill="#FFFFFF">*</text>
<circle cx="217.600000" cy="188.000000" r="1"/>
<line x1="222.600000" y1="181.000000" x2="219.600000" y2="182.000000"  transform="rotate(0.000000,219.600000,182.000000)" style="stroke: black; stroke-width:0.25;"/>
<line x1="222.600000" y1="183.000000" x2="219.600000" y2="182.000000"  transform="rotate(0.000000,219.600000,182.000000)" style="stroke: black; stroke-width:0.25;"/>
<line x1="222.600000" y1="173.000000" x2="219.600000" y2="174.000000"  transform="rotate(0.000000,219.600000,174.000000)" style="stroke: black; stroke-width:0.25;"/>
<line x1="222.600000" y1="175.000000" x2="219.600000" y2="174.000000"  transform="rotate(0.000000,219.600000,174.000000)" style="stroke: black; stroke-width:0.25;"/>
<rect x="164.600000" y="167.000000" width="24.000000" height="24.000000" rx="0" ry="0" style="stroke:none;fill:#cccccc;"/>
<rect x="163.600000" y="166.000000" width="24.000000" height="24.000000" rx="0" ry="0" style="stroke:none;fill:#4B71A1;"/>
<text x="175.600000" y="180.000000" font-family="Arial" font-size="7" text-anchor="middle" fill="#FFFFFF">int</text>
<circle cx="185.600000" cy="188.000000" r="1"/>
<line x1="190.600000" y1="177.000000" x2="187.600000" y2="178.000000"  transform="rotate(0.000000,187.600000,178.000000)" style="stroke: black; stroke-width:0.25;"/>
<line x1="190.600000" y1="179.000000" x2="187.600000" y2="178.000000"  transform="rotate(0.000000,187.600000,178.000000)" style="stroke: black; stroke-width:0.25;"/>
<line x1="154.600000" y1="137.000000" x2="154.600000" y2="219.000000"  style="stroke: black; stroke-linecap:round; stroke-width:0.25; stroke-dasharray:3,3;"/>
<line x1="154.600000" y1="219.000000" x2="604.800000" y2="219.000000"  style="stroke: black; stroke-linecap:round; stroke-width:0.25; stroke-dasharray:3,3;"/>
<line x1="604.800000" y1="219.000000" x2="604.800000" y2="137.000000"  style="stroke: black; stroke-linecap:round; stroke-width:0.25; stroke-dasharray:3,3;"/>
<line x1="154.600000" y1="137.000000" x2="159.600000" y2="137.000000"  style="stroke: black; stroke-linecap:round; stroke-width:0.25; stroke-dasharray:3,3;"/>
<line x1="195.075000" y1="137.000000" x2="604.800000" y2="137.000000"  style="stroke: black; stroke-linecap:round; stroke-width:0.25; stroke-dasharray:3,3;"/>
<text x="159.600000" y="139.000000" font-family="Arial" font-size="7">echoDelay</text>
<rect x="114.600000" y="171.000000" width="24.000000" height="24.000000" rx="0" ry="0" style="stroke:none;fill:#cccccc;"/>
<rect x="113.600000" y="170.000000" width="24.000000" height="24.000000" rx="0" ry="0" style="stroke:none;fill:#4B71A1;"/>
<text x="125.600000" y="184.000000" font-family="Arial" font-size="7" text-anchor="middle" fill="#FFFFFF">@</text>
<circle cx="135.600000" cy="192.000000" r="1"/>
<line x1="140.600000" y1="185.000000" x2="137.600000" y2="186.000000"  transform="rotate(0.000000,137.600000,186.000000)" style="stroke: black; stroke-width:0.25;"/>
<line x1="140.600000" y1="187.000000" x2="137.600000" y2="186.000000"  transform="rotate(0.000000,137.600000,186.000000)" style="stroke: black; stroke-width:0.25;"/>
<line x1="140.600000" y1="177.000000" x2="137.600000" y2="178.000000"  transform="rotate(0.000000,137.600000,178.000000)" style="stroke: black; stroke-width:0.25;"/>
<line x1="140.600000" y1="179.000000" x2="137.600000" y2="178.000000"  transform="rotate(0.000000,137.600000,178.000000)" style="stroke: black; stroke-width:0.25;"/>
<rect x="338.600000" y="65.000000" width="283.800000" height="24.000000" rx="0" ry="0" style="stroke:none;fill:#cccccc;"/>
<rect x="337.600000" y="64.000000" width="283.800000" height="24.000000" rx="0" ry="0" style="stroke:none;fill:#477881;"/>
<text x="479.500000" y="78.000000" font-family="Arial" font-size="7" text-anchor="middle" fill="#FFFFFF">hslider(Echo Intensity (Feedback), 0.001f, 0.001f, 0.65f, 0.001f)</text>
<circle cx="619.400000" cy="86.000000" r="1"/>
<rect x="287.700000" y="77.000000" width="24.000000" height="24.000000" rx="0" ry="0" style="stroke:none;fill:#cccccc;"/>
<rect x="286.700000" y="76.000000" width="24.000000" height="24.000000" rx="0" ry="0" style="stroke:none;fill:#f44800;"/>
<text x="298.700000" y="90.000000" font-family="Arial" font-size="7" text-anchor="middle" fill="#FFFFFF">1</text>
<circle cx="308.700000" cy="98.000000" r="1"/>
<rect x="286.800000" y="45.000000" width="25.800000" height="24.000000" rx="0" ry="0" style="stroke:none;fill:#cccccc;"/>
<rect x="285.800000" y="44.000000" width="25.800000" height="24.000000" rx="0" ry="0" style="stroke:none;fill:#f44800;"/>
<text x="298.700000" y="58.000000" font-family="Arial" font-size="7" text-anchor="middle" fill="#FFFFFF">0.999</text>
<circle cx="309.600000" cy="66.000000" r="1"/>
<rect x="246.800000" y="61.000000" width="24.000000" height="24.000000" rx="0" ry="0" style="stroke:none;fill:#cccccc;"/>
<rect x="245.800000" y="60.000000" width="24.000000" height="24.000000" rx="0" ry="0" style="stroke:none;fill:#4B71A1;"/>
<text x="257.800000" y="74.000000" font-family="Arial" font-size="7" text-anchor="middle" fill="#FFFFFF">-</text>
<circle cx="267.800000" cy="82.000000" r="1"/>
<line x1="272.800000" y1="75.000000" x2="269.800000" y2="76.000000"  transform="rotate(0.000000,269.800000,76.000000)" style="stroke: black; stroke-width:0.25;"/>
<line x1="272.800000" y1="77.000000" x2="269.800000" y2="76.000000"  transform="rotate(0.000000,269.800000,76.000000)" style="stroke: black; stroke-width:0.25;"/>
<line x1="272.800000" y1="67.000000" x2="269.800000" y2="68.000000"  transform="rotate(0.000000,269.800000,68.000000)" style="stroke: black; stroke-width:0.25;"/>
<line x1="272.800000" y1="69.000000" x2="269.800000" y2="68.000000"  transform="rotate(0.000000,269.800000,68.000000)" style="stroke: black; stroke-width:0.25;"/>
<rect x="206.800000" y="65.000000" width="24.000000" height="24.000000" rx="0" ry="0" style="stroke:none;fill:#cccccc;"/>
<rect x="205.800000" y="64.000000" width="24.000000" height="24.000000" rx="0" ry="0" style="stroke:none;fill:#4B71A1;"/>
<text x="217.800000" y="78.000000" font-family="Arial" font-size="7" text-anchor="middle" fill="#FFFFFF">*</text>
<circle cx="227.800000" cy="86.000000" r="1"/>
<line x1="232.800000" y1="79.000000" x2="229.800000" y2="80.000000"  transform="rotate(0.000000,229.800000,80.000000)" style="stroke: black; stroke-width:0.25;"/>
<line x1="232.800000" y1="81.000000" x2="229.800000" y2="80.000000"  transform="rotate(0.000000,229.800000,80.000000)" style="stroke: black; stroke-width:0.25;"/>
<line x1="232.800000" y1="71.000000" x2="229.800000" y2="72.000000"  transform="rotate(0.000000,229.800000,72.000000)" style="stroke: black; stroke-width:0.25;"/>
<line x1="232.800000" y1="73.000000" x2="229.800000" y2="72.000000"  transform="rotate(0.000000,229.800000,72.000000)" style="stroke: black; stroke-width:0.25;"/>
<rect x="137.900000" y="45.000000" width="24.000000" height="24.000000" rx="0" ry="0" style="stroke:none;fill:#cccccc;"/>
<rect x="136.900000" y="44.000000" width="24.000000" height="24.000000" rx="0" ry="0" style="stroke:none;fill:#4B71A1;"/>
<text x="148.900000" y="58.000000" font-family="Arial" font-size="7" text-anchor="middle" fill="#FFFFFF">+</text>
<circle cx="158.900000" cy="66.000000" r="1"/>
<line x1="163.900000" y1="59.000000" x2="160.900000" y2="60.000000"  transform="rotate(0.000000,160.900000,60.000000)" style="stroke: black; stroke-width:0.25;"/>
<line x1="163.900000" y1="61.000000" x2="160.900000" y2="60.000000"  transform="rotate(0.000000,160.900000,60.000000)" style="stroke: black; stroke-width:0.25;"/>
<line x1="163.900000" y1="51.000000" x2="160.900000" y2="52.000000"  transform="rotate(0.000000,160.900000,52.000000)" style="stroke: black; stroke-width:0.25;"/>
<line x1="163.900000" y1="53.000000" x2="160.900000" y2="52.000000"  transform="rotate(0.000000,160.900000,52.000000)" style="stroke: black; stroke-width:0.25;"/>
<rect x="117.000000" y="85.000000" width="25.800000" height="24.000000" rx="0" ry="0" style="stroke:none;fill:#cccccc;"/>
<rect x="116.000000" y="84.000000" width="25.800000" height="24.000000" rx="0" ry="0" style="stroke:none;fill:#f44800;"/>
<text x="128.900000" y="98.000000" font-family="Arial" font-size="7" text-anchor="middle" fill="#FFFFFF">0.999</text>
<circle cx="118.000000" cy="86.000000" r="1"/>
<rect x="158.800000" y="81.000000" width="24.000000" height="24.000000" rx="0" ry="0" style="stroke:none;fill:#cccccc;"/>
<rect x="157.800000" y="80.000000" width="24.000000" height="24.000000" rx="0" ry="0" style="stroke:none;fill:#4B71A1;"/>
<text x="169.800000" y="94.000000" font-family="Arial" font-size="7" text-anchor="middle" fill="#FFFFFF">*</text>
<circle cx="159.800000" cy="82.000000" r="1"/>
<line x1="154.800000" y1="87.000000" x2="157.800000" y2="88.000000"  transform="rotate(0.000000,157.800000,88.000000)" style="stroke: black; stroke-width:0.25;"/>
<line x1="154.800000" y1="89.000000" x2="157.800000" y2="88.000000"  transform="rotate(0.000000,157.800000,88.000000)" style="stroke: black; stroke-width:0.25;"/>
<line x1="154.800000" y1="95.000000" x2="157.800000" y2="96.000000"  transform="rotate(0.000000,157.800000,96.000000)" style="stroke: black; stroke-width:0.25;"/>
<line x1="154.800000" y1="97.000000" x2="157.800000" y2="96.000000"  transform="rotate(0.000000,157.800000,96.000000)" style="stroke: black; stroke-width:0.25;"/>
<line x1="114.000000" y1="56.000000" x2="114.000000" y2="60.000000"  style="stroke:black; stroke-linecap:round; stroke-width:0.25;"/>
<line x1="114.000000" y1="60.000000" x2="110.000000" y2="60.000000"  style="stroke:black; stroke-linecap:round; stroke-width:0.25;"/>
<line x1="110.000000" y1="60.000000" x2="110.000000" y2="56.000000"  style="stroke:black; stroke-linecap:round; stroke-width:0.25;"/>
<line x1="99.000000" y1="35.000000" x2="99.000000" y2="117.000000"  style="stroke: black; stroke-linecap:round; stroke-width:0.25; stroke-dasharray:3,3;"/>
<line x1="99.000000" y1="117.000000" x2="320.600000" y2="117.000000"  style="stroke: black; stroke-linecap:round; stroke-width:0.25; stroke-dasharray:3,3;"/>
<line x1="320.600000" y1="117.000000" x2="320.600000" y2="35.000000"  style="stroke: black; stroke-linecap:round; stroke-width:0.25; stroke-dasharray:3,3;"/>
<line x1="99.000000" y1="35.000000" x2="104.000000" y2="35.000000"  style="stroke: black; stroke-linecap:round; stroke-width:0.25; stroke-dasharray:3,3;"/>
<line x1="155.600000" y1="35.000000" x2="320.600000" y2="35.000000"  style="stroke: black; stroke-linecap:round; stroke-width:0.25; stroke-dasharray:3,3;"/>
<text x="104.000000" y="37.000000" font-family="Arial" font-size="7">smooth(0.999f)</text>
<line x1="89.000000" y1="25.000000" x2="89.000000" y2="127.000000"  style="stroke: black; stroke-linecap:round; stroke-width:0.25; stroke-dasharray:3,3;"/>
<line x1="89.000000" y1="127.000000" x2="630.400000" y2="127.000000"  style="stroke: black; stroke-linecap:round; stroke-width:0.25; stroke-dasharray:3,3;"/>
<line x1="630.400000" y1="127.000000" x2="630.400000" y2="25.000000"  style="stroke: black; stroke-linecap:round; stroke-width:0.25; stroke-dasharray:3,3;"/>
<line x1="89.000000" y1="25.000000" x2="94.000000" y2="25.000000"  style="stroke: black; stroke-linecap:round; stroke-width:0.25; stroke-dasharray:3,3;"/>
<line x1="126.250000" y1="25.000000" x2="630.400000" y2="25.000000"  style="stroke: black; stroke-linecap:round; stroke-width:0.25; stroke-dasharray:3,3;"/>
<text x="94.000000" y="27.000000" font-family="Arial" font-size="7">feedback</text>
<rect x="49.000000" y="115.000000" width="24.000000" height="24.000000" rx="0" ry="0" style="stroke:none;fill:#cccccc;"/>
<rect x="48.000000" y="114.000000" width="24.000000" height="24.000000" rx="0" ry="0" style="stroke:none;fill:#4B71A1;"/>
<text x="60.000000" y="128.000000" font-family="Arial" font-size="7" text-anchor="middle" fill="#FFFFFF">*</text>
<circle cx="70.000000" cy="136.000000" r="1"/>
<line x1="75.000000" y1="129.000000" x2="72.000000" y2="130.000000"  transform="rotate(0.000000,72.000000,130.000000)" style="stroke: black; stroke-width:0.25;"/>
<line x1="75.000000" y1="131.000000" x2="72.000000" y2="130.000000"  transform="rotate(0.000000,72.000000,130.000000)" style="stroke: black; stroke-width:0.25;"/>
<line x1="75.000000" y1="121.000000" x2="72.000000" y2="122.000000"  transform="rotate(0.000000,72.000000,122.000000)" style="stroke: black; stroke-width:0.25;"/>
<line x1="75.000000" y1="123.000000" x2="72.000000" y2="122.000000"  transform="rotate(0.000000,72.000000,122.000000)" style="stroke: black; stroke-width:0.25;"/>
<line x1="633.400000" y1="248.000000" x2="633.400000" y2="244.000000"  style="stroke:black; stroke-linecap:round; stroke-width:0.25;"/>
<line x1="633.400000" y1="244.000000" x2="637.400000" y2="244.000000"  style="stroke:black; stroke-linecap:round; stroke-width:0.25;"/>
<line x1="637.400000" y1="244.000000" x2="637.400000" y2="248.000000"  style="stroke:black; stroke-linecap:round; stroke-width:0.25;"/>
<line x1="15.000000" y1="15.000000" x2="15.000000" y2="269.000000"  style="stroke: black; stroke-linecap:round; stroke-width:0.25; stroke-dasharray:3,3;"/>
<line x1="15.000000" y1="269.000000" x2="664.400000" y2="269.000000"  style="stroke: black; stroke-linecap:round; stroke-width:0.25; stroke-dasharray:3,3;"/>
<line x1="664.400000" y1="269.000000" x2="664.400000" y2="15.000000"  style="stroke: black; stroke-linecap:round; stroke-width:0.25; stroke-dasharray:3,3;"/>
<line x1="15.000000" y1="15.000000" x2="20.000000" y2="15.000000"  style="stroke: black; stroke-linecap:round; stroke-width:0.25; stroke-dasharray:3,3;"/>
<line x1="49.025000" y1="15.000000" x2="664.400000" y2="15.000000"  style="stroke: black; stroke-linecap:round; stroke-width:0.25; stroke-dasharray:3,3;"/>
<text x="20.000000" y="17.000000" font-family="Arial" font-size="7">process</text>
<line x1="666.400000" y1="141.000000" x2="669.400000" y2="142.000000"  transform="rotate(0.000000,669.400000,142.000000)" style="stroke: black; stroke-width:0.25;"/>
<line x1="666.400000" y1="143.000000" x2="669.400000" y2="142.000000"  transform="rotate(0.000000,669.400000,142.000000)" style="stroke: black; stroke-width:0.25;"/>
<line x1="10.000000" y1="142.000000" x2="20.000000" y2="142.000000"  style="stroke:black; stroke-linecap:round; stroke-width:0.25;"/>
<line x1="20.000000" y1="142.000000" x2="24.000000" y2="142.000000"  style="stroke:black; stroke-linecap:round; stroke-width:0.25;"/>
<line x1="24.000000" y1="142.000000" x2="28.000000" y2="142.000000"  style="stroke:black; stroke-linecap:round; stroke-width:0.25;"/>
<line x1="28.000000" y1="142.000000" x2="36.000000" y2="142.000000"  style="stroke:black; stroke-linecap:round; stroke-width:0.25;"/>
<line x1="36.000000" y1="142.000000" x2="36.000000" y2="252.000000"  style="stroke:black; stroke-linecap:round; stroke-width:0.25;"/>
<line x1="36.000000" y1="252.000000" x2="36.000000" y2="252.000000"  style="stroke:black; stroke-linecap:round; stroke-width:0.25;"/>
<line x1="36.000000" y1="252.000000" x2="44.000000" y2="252.000000"  style="stroke:black; stroke-linecap:round; stroke-width:0.25;"/>
<line x1="44.000000" y1="126.000000" x2="44.000000" y2="126.000000"  style="stroke:black; stroke-linecap:round; stroke-width:0.25;"/>
<line x1="44.000000" y1="126.000000" x2="44.000000" y2="244.000000"  style="stroke:black; stroke-linecap:round; stroke-width:0.25;"/>
<line x1="44.000000" y1="244.000000" x2="44.000000" y2="244.000000"  style="stroke:black; stroke-linecap:round; stroke-width:0.25;"/>
<line x1="44.000000" y1="244.000000" x2="323.700000" y2="244.000000"  style="stroke:black; stroke-linecap:round; stroke-width:0.25;"/>
<line x1="44.000000" y1="252.000000" x2="323.700000" y2="252.000000"  style="stroke:black; stroke-linecap:round; stroke-width:0.25;"/>
<line x1="48.000000" y1="126.000000" x2="44.000000" y2="126.000000"  style="stroke:black; stroke-linecap:round; stroke-width:0.25;"/>
<line x1="76.000000" y1="122.000000" x2="72.000000" y2="122.000000"  style="stroke:black; stroke-linecap:round; stroke-width:0.25;"/>
<line x1="76.000000" y1="130.000000" x2="72.000000" y2="130.000000"  style="stroke:black; stroke-linecap:round; stroke-width:0.25;"/>
<line x1="76.000000" y1="130.000000" x2="76.000000" y2="130.000000"  style="stroke:black; stroke-linecap:round; stroke-width:0.25;"/>
<line x1="76.000000" y1="182.000000" x2="76.000000" y2="130.000000"  style="stroke:black; stroke-linecap:round; stroke-width:0.25;"/>
<line x1="84.000000" y1="56.000000" x2="84.000000" y2="56.000000"  style="stroke:black; stroke-linecap:round; stroke-width:0.25;"/>
<line x1="84.000000" y1="56.000000" x2="84.000000" y2="122.000000"  style="stroke:black; stroke-linecap:round; stroke-width:0.25;"/>
<line x1="84.000000" y1="122.000000" x2="76.000000" y2="122.000000"  style="stroke:black; stroke-linecap:round; stroke-width:0.25;"/>
<line x1="84.000000" y1="182.000000" x2="76.000000" y2="182.000000"  style="stroke:black; stroke-linecap:round; stroke-width:0.25;"/>
<line x1="94.000000" y1="56.000000" x2="84.000000" y2="56.000000"  style="stroke:black; stroke-linecap:round; stroke-width:0.25;"/>
<line x1="104.000000" y1="56.000000" x2="94.000000" y2="56.000000"  style="stroke:black; stroke-linecap:round; stroke-width:0.25;"/>
<line x1="109.600000" y1="182.000000" x2="84.000000" y2="182.000000"  style="stroke:black; stroke-linecap:round; stroke-width:0.25;"/>
<line x1="110.000000" y1="56.000000" x2="104.000000" y2="56.000000"  style="stroke:black; stroke-linecap:round; stroke-width:0.25;"/>
<line x1="112.000000" y1="56.000000" x2="110.000000" y2="56.000000"  style="stroke:black; stroke-linecap:round; stroke-width:0.25;"/>
<line x1="112.000000" y1="60.000000" x2="112.000000" y2="76.000000"  style="stroke:black; stroke-linecap:round; stroke-width:0.25;"/>
<line x1="112.000000" y1="76.000000" x2="112.000000" y2="76.000000"  style="stroke:black; stroke-linecap:round; stroke-width:0.25;"/>
<line x1="112.000000" y1="76.000000" x2="128.900000" y2="76.000000"  style="stroke:black; stroke-linecap:round; stroke-width:0.25;"/>
<line x1="113.600000" y1="182.000000" x2="109.600000" y2="182.000000"  style="stroke:black; stroke-linecap:round; stroke-width:0.25;"/>
<line x1="128.900000" y1="76.000000" x2="145.800000" y2="76.000000"  style="stroke:black; stroke-linecap:round; stroke-width:0.25;"/>
<line x1="132.900000" y1="56.000000" x2="112.000000" y2="56.000000"  style="stroke:black; stroke-linecap:round; stroke-width:0.25;"/>
<line x1="136.900000" y1="56.000000" x2="132.900000" y2="56.000000"  style="stroke:black; stroke-linecap:round; stroke-width:0.25;"/>
<line x1="141.600000" y1="178.000000" x2="137.600000" y2="178.000000"  style="stroke:black; stroke-linecap:round; stroke-width:0.25;"/>
<line x1="141.600000" y1="186.000000" x2="137.600000" y2="186.000000"  style="stroke:black; stroke-linecap:round; stroke-width:0.25;"/>
<line x1="141.600000" y1="186.000000" x2="141.600000" y2="186.000000"  style="stroke:black; stroke-linecap:round; stroke-width:0.25;"/>
<line x1="141.600000" y1="228.000000" x2="141.600000" y2="186.000000"  style="stroke:black; stroke-linecap:round; stroke-width:0.25;"/>
<line x1="141.800000" y1="96.000000" x2="145.800000" y2="96.000000"  style="stroke:black; stroke-linecap:round; stroke-width:0.25;"/>
<line x1="145.800000" y1="76.000000" x2="153.800000" y2="76.000000"  style="stroke:black; stroke-linecap:round; stroke-width:0.25;"/>
<line x1="145.800000" y1="96.000000" x2="153.800000" y2="96.000000"  style="stroke:black; stroke-linecap:round; stroke-width:0.25;"/>
<line x1="149.600000" y1="178.000000" x2="141.600000" y2="178.000000"  style="stroke:black; stroke-linecap:round; stroke-width:0.25;"/>
<line x1="149.600000" y1="228.000000" x2="141.600000" y2="228.000000"  style="stroke:black; stroke-linecap:round; stroke-width:0.25;"/>
<line x1="153.800000" y1="76.000000" x2="153.800000" y2="88.000000"  style="stroke:black; stroke-linecap:round; stroke-width:0.25;"/>
<line x1="153.800000" y1="88.000000" x2="153.800000" y2="88.000000"  style="stroke:black; stroke-linecap:round; stroke-width:0.25;"/>
<line x1="153.800000" y1="88.000000" x2="157.800000" y2="88.000000"  style="stroke:black; stroke-linecap:round; stroke-width:0.25;"/>
<line x1="153.800000" y1="96.000000" x2="157.800000" y2="96.000000"  style="stroke:black; stroke-linecap:round; stroke-width:0.25;"/>
<line x1="159.600000" y1="178.000000" x2="149.600000" y2="178.000000"  style="stroke:black; stroke-linecap:round; stroke-width:0.25;"/>
<line x1="163.600000" y1="178.000000" x2="159.600000" y2="178.000000"  style="stroke:black; stroke-linecap:round; stroke-width:0.25;"/>
<line x1="164.900000" y1="52.000000" x2="160.900000" y2="52.000000"  style="stroke:black; stroke-linecap:round; stroke-width:0.25;"/>
<line x1="164.900000" y1="60.000000" x2="160.900000" y2="60.000000"  style="stroke:black; stroke-linecap:round; stroke-width:0.25;"/>
<line x1="181.800000" y1="92.000000" x2="185.800000" y2="92.000000"  style="stroke:black; stroke-linecap:round; stroke-width:0.25;"/>
<line x1="185.800000" y1="52.000000" x2="164.900000" y2="52.000000"  style="stroke:black; stroke-linecap:round; stroke-width:0.25;"/>
<line x1="185.800000" y1="60.000000" x2="164.900000" y2="60.000000"  style="stroke:black; stroke-linecap:round; stroke-width:0.25;"/>
<line x1="185.800000" y1="60.000000" x2="185.800000" y2="60.000000"  style="stroke:black; stroke-linecap:round; stroke-width:0.25;"/>
<line x1="185.800000" y1="92.000000" x2="185.800000" y2="60.000000"  style="stroke:black; stroke-linecap:round; stroke-width:0.25;"/>
<line x1="185.800000" y1="92.000000" x2="185.800000" y2="92.000000"  style="stroke:black; stroke-linecap:round; stroke-width:0.25;"/>
<line x1="191.600000" y1="178.000000" x2="187.600000" y2="178.000000"  style="stroke:black; stroke-linecap:round; stroke-width:0.25;"/>
<line x1="191.600000" y1="178.000000" x2="191.600000" y2="178.000000"  style="stroke:black; stroke-linecap:round; stroke-width:0.25;"/>
<line x1="193.800000" y1="52.000000" x2="185.800000" y2="52.000000"  style="stroke:black; stroke-linecap:round; stroke-width:0.25;"/>
<line x1="193.800000" y1="52.000000" x2="193.800000" y2="52.000000"  style="stroke:black; stroke-linecap:round; stroke-width:0.25;"/>
<line x1="193.800000" y1="76.000000" x2="193.800000" y2="52.000000"  style="stroke:black; stroke-linecap:round; stroke-width:0.25;"/>
<line x1="195.600000" y1="178.000000" x2="191.600000" y2="178.000000"  style="stroke:black; stroke-linecap:round; stroke-width:0.25;"/>
<line x1="201.800000" y1="76.000000" x2="193.800000" y2="76.000000"  style="stroke:black; stroke-linecap:round; stroke-width:0.25;"/>
<line x1="205.800000" y1="76.000000" x2="201.800000" y2="76.000000"  style="stroke:black; stroke-linecap:round; stroke-width:0.25;"/>
<line x1="223.600000" y1="174.000000" x2="219.600000" y2="174.000000"  style="stroke:black; stroke-linecap:round; stroke-width:0.25;"/>
<line x1="223.600000" y1="182.000000" x2="219.600000" y2="182.000000"  style="stroke:black; stroke-linecap:round; stroke-width:0.25;"/>
<line x1="223.600000" y1="182.000000" x2="223.600000" y2="182.000000"  style="stroke:black; stroke-linecap:round; stroke-width:0.25;"/>
<line x1="223.600000" y1="194.000000" x2="223.600000" y2="182.000000"  style="stroke:black; stroke-linecap:round; stroke-width:0.25;"/>
<line x1="231.600000" y1="158.000000" x2="231.600000" y2="158.000000"  style="stroke:black; stroke-linecap:round; stroke-width:0.25;"/>
<line x1="231.600000" y1="158.000000" x2="231.600000" y2="174.000000"  style="stroke:black; stroke-linecap:round; stroke-width:0.25;"/>
<line x1="231.600000" y1="174.000000" x2="223.600000" y2="174.000000"  style="stroke:black; stroke-linecap:round; stroke-width:0.25;"/>
<line x1="231.600000" y1="194.000000" x2="223.600000" y2="194.000000"  style="stroke:black; stroke-linecap:round; stroke-width:0.25;"/>
<line x1="233.800000" y1="80.000000" x2="233.800000" y2="80.000000"  style="stroke:black; stroke-linecap:round; stroke-width:0.25;"/>
<line x1="233.800000" y1="108.000000" x2="233.800000" y2="80.000000"  style="stroke:black; stroke-linecap:round; stroke-width:0.25;"/>
<line x1="233.800000" y1="72.000000" x2="229.800000" y2="72.000000"  style="stroke:black; stroke-linecap:round; stroke-width:0.25;"/>
<line x1="233.800000" y1="80.000000" x2="229.800000" y2="80.000000"  style="stroke:black; stroke-linecap:round; stroke-width:0.25;"/>
<line x1="235.600000" y1="194.000000" x2="231.600000" y2="194.000000"  style="stroke:black; stroke-linecap:round; stroke-width:0.25;"/>
<line x1="241.800000" y1="108.000000" x2="233.800000" y2="108.000000"  style="stroke:black; stroke-linecap:round; stroke-width:0.25;"/>
<line x1="241.800000" y1="72.000000" x2="233.800000" y2="72.000000"  style="stroke:black; stroke-linecap:round; stroke-width:0.25;"/>
<line x1="245.800000" y1="72.000000" x2="241.800000" y2="72.000000"  style="stroke:black; stroke-linecap:round; stroke-width:0.25;"/>
<line x1="251.600000" y1="158.000000" x2="231.600000" y2="158.000000"  style="stroke:black; stroke-linecap:round; stroke-width:0.25;"/>
<line x1="255.600000" y1="158.000000" x2="251.600000" y2="158.000000"  style="stroke:black; stroke-linecap:round; stroke-width:0.25;"/>
<line x1="263.600000" y1="190.000000" x2="259.600000" y2="190.000000"  style="stroke:black; stroke-linecap:round; stroke-width:0.25;"/>
<line x1="263.600000" y1="198.000000" x2="259.600000" y2="198.000000"  style="stroke:black; stroke-linecap:round; stroke-width:0.25;"/>
<line x1="271.600000" y1="178.000000" x2="271.600000" y2="178.000000"  style="stroke:black; stroke-linecap:round; stroke-width:0.25;"/>
<line x1="271.600000" y1="178.000000" x2="271.600000" y2="190.000000"  style="stroke:black; stroke-linecap:round; stroke-width:0.25;"/>
<line x1="271.600000" y1="190.000000" x2="263.600000" y2="190.000000"  style="stroke:black; stroke-linecap:round; stroke-width:0.25;"/>
<line x1="271.600000" y1="198.000000" x2="263.600000" y2="198.000000"  style="stroke:black; stroke-linecap:round; stroke-width:0.25;"/>
<line x1="273.800000" y1="68.000000" x2="269.800000" y2="68.000000"  style="stroke:black; stroke-linecap:round; stroke-width:0.25;"/>
<line x1="273.800000" y1="76.000000" x2="269.800000" y2="76.000000"  style="stroke:black; stroke-linecap:round; stroke-width:0.25;"/>
<line x1="273.800000" y1="76.000000" x2="273.800000" y2="76.000000"  style="stroke:black; stroke-linecap:round; stroke-width:0.25;"/>
<line x1="273.800000" y1="88.000000" x2="273.800000" y2="76.000000"  style="stroke:black; stroke-linecap:round; stroke-width:0.25;"/>
<line x1="275.600000" y1="198.000000" x2="271.600000" y2="198.000000"  style="stroke:black; stroke-linecap:round; stroke-width:0.25;"/>
<line x1="278.700000" y1="108.000000" x2="241.800000" y2="108.000000"  style="stroke:black; stroke-linecap:round; stroke-width:0.25;"/>
<line x1="281.800000" y1="56.000000" x2="281.800000" y2="56.000000"  style="stroke:black; stroke-linecap:round; stroke-width:0.25;"/>
<line x1="281.800000" y1="56.000000" x2="281.800000" y2="68.000000"  style="stroke:black; stroke-linecap:round; stroke-width:0.25;"/>
<line x1="281.800000" y1="68.000000" x2="273.800000" y2="68.000000"  style="stroke:black; stroke-linecap:round; stroke-width:0.25;"/>
<line x1="281.800000" y1="88.000000" x2="273.800000" y2="88.000000"  style="stroke:black; stroke-linecap:round; stroke-width:0.25;"/>
<line x1="282.700000" y1="88.000000" x2="281.800000" y2="88.000000"  style="stroke:black; stroke-linecap:round; stroke-width:0.25;"/>
<line x1="285.800000" y1="56.000000" x2="281.800000" y2="56.000000"  style="stroke:black; stroke-linecap:round; stroke-width:0.25;"/>
<line x1="286.700000" y1="88.000000" x2="282.700000" y2="88.000000"  style="stroke:black; stroke-linecap:round; stroke-width:0.25;"/>
<line x1="288.500000" y1="178.000000" x2="271.600000" y2="178.000000"  style="stroke:black; stroke-linecap:round; stroke-width:0.25;"/>
<line x1="305.400000" y1="178.000000" x2="288.500000" y2="178.000000"  style="stroke:black; stroke-linecap:round; stroke-width:0.25;"/>
<line x1="305.400000" y1="178.000000" x2="305.400000" y2="178.000000"  style="stroke:black; stroke-linecap:round; stroke-width:0.25;"/>
<line x1="309.400000" y1="178.000000" x2="305.400000" y2="178.000000"  style="stroke:black; stroke-linecap:round; stroke-width:0.25;"/>
<line x1="315.600000" y1="108.000000" x2="278.700000" y2="108.000000"  style="stroke:black; stroke-linecap:round; stroke-width:0.25;"/>
<line x1="323.700000" y1="244.000000" x2="327.700000" y2="244.000000"  style="stroke:black; stroke-linecap:round; stroke-width:0.25;"/>
<line x1="323.700000" y1="252.000000" x2="327.700000" y2="252.000000"  style="stroke:black; stroke-linecap:round; stroke-width:0.25;"/>
<line x1="325.600000" y1="108.000000" x2="315.600000" y2="108.000000"  style="stroke:black; stroke-linecap:round; stroke-width:0.25;"/>
<line x1="333.600000" y1="76.000000" x2="333.600000" y2="76.000000"  style="stroke:black; stroke-linecap:round; stroke-width:0.25;"/>
<line x1="333.600000" y1="76.000000" x2="333.600000" y2="108.000000"  style="stroke:black; stroke-linecap:round; stroke-width:0.25;"/>
<line x1="333.600000" y1="108.000000" x2="325.600000" y2="108.000000"  style="stroke:black; stroke-linecap:round; stroke-width:0.25;"/>
<line x1="337.400000" y1="174.000000" x2="333.400000" y2="174.000000"  style="stroke:black; stroke-linecap:round; stroke-width:0.25;"/>
<line x1="337.400000" y1="182.000000" x2="333.400000" y2="182.000000"  style="stroke:black; stroke-linecap:round; stroke-width:0.25;"/>
<line x1="337.600000" y1="76.000000" x2="333.600000" y2="76.000000"  style="stroke:black; stroke-linecap:round; stroke-width:0.25;"/>
<line x1="345.400000" y1="162.000000" x2="345.400000" y2="162.000000"  style="stroke:black; stroke-linecap:round; stroke-width:0.25;"/>
<line x1="345.400000" y1="162.000000" x2="345.400000" y2="174.000000"  style="stroke:black; stroke-linecap:round; stroke-width:0.25;"/>
<line x1="345.400000" y1="174.000000" x2="337.400000" y2="174.000000"  style="stroke:black; stroke-linecap:round; stroke-width:0.25;"/>
<line x1="345.400000" y1="182.000000" x2="337.400000" y2="182.000000"  style="stroke:black; stroke-linecap:round; stroke-width:0.25;"/>
<line x1="349.400000" y1="182.000000" x2="345.400000" y2="182.000000"  style="stroke:black; stroke-linecap:round; stroke-width:0.25;"/>
<line x1="351.700000" y1="248.000000" x2="355.700000" y2="248.000000"  style="stroke:black; stroke-linecap:round; stroke-width:0.25;"/>
<line x1="355.700000" y1="248.000000" x2="635.400000" y2="248.000000"  style="stroke:black; stroke-linecap:round; stroke-width:0.25;"/>
<line x1="361.400000" y1="162.000000" x2="345.400000" y2="162.000000"  style="stroke:black; stroke-linecap:round; stroke-width:0.25;"/>
<line x1="377.400000" y1="162.000000" x2="361.400000" y2="162.000000"  style="stroke:black; stroke-linecap:round; stroke-width:0.25;"/>
<line x1="377.400000" y1="162.000000" x2="377.400000" y2="162.000000"  style="stroke:black; stroke-linecap:round; stroke-width:0.25;"/>
<line x1="377.400000" y1="178.000000" x2="377.400000" y2="162.000000"  style="stroke:black; stroke-linecap:round; stroke-width:0.25;"/>
<line x1="379.700000" y1="228.000000" x2="149.600000" y2="228.000000"  style="stroke:black; stroke-linecap:round; stroke-width:0.25;"/>
<line x1="385.400000" y1="178.000000" x2="377.400000" y2="178.000000"  style="stroke:black; stroke-linecap:round; stroke-width:0.25;"/>
<line x1="389.400000" y1="178.000000" x2="385.400000" y2="178.000000"  style="stroke:black; stroke-linecap:round; stroke-width:0.25;"/>
<line x1="609.800000" y1="228.000000" x2="379.700000" y2="228.000000"  style="stroke:black; stroke-linecap:round; stroke-width:0.25;"/>
<line x1="635.400000" y1="228.000000" x2="609.800000" y2="228.000000"  style="stroke:black; stroke-linecap:round; stroke-width:0.25;"/>
<line x1="635.400000" y1="228.000000" x2="635.400000" y2="228.000000"  style="stroke:black; stroke-linecap:round; stroke-width:0.25;"/>
<line x1="635.400000" y1="244.000000" x2="635.400000" y2="228.000000"  style="stroke:black; stroke-linecap:round; stroke-width:0.25;"/>
<line x1="635.400000" y1="248.000000" x2="637.400000" y2="248.000000"  style="stroke:black; stroke-linecap:round; stroke-width:0.25;"/>
<line x1="637.400000" y1="248.000000" x2="643.400000" y2="248.000000"  style="stroke:black; stroke-linecap:round; stroke-width:0.25;"/>
<line x1="643.400000" y1="142.000000" x2="651.400000" y2="142.000000"  style="stroke:black; stroke-linecap:round; stroke-width:0.25;"/>
<line x1="643.400000" y1="248.000000" x2="643.400000" y2="142.000000"  style="stroke:black; stroke-linecap:round; stroke-width:0.25;"/>
<line x1="643.400000" y1="248.000000" x2="643.400000" y2="248.000000"  style="stroke:black; stroke-linecap:round; stroke-width:0.25;"/>
<line x1="651.400000" y1="142.000000" x2="655.400000" y2="142.000000"  style="stroke:black; stroke-linecap:round; stroke-width:0.25;"/>
<line x1="655.400000" y1="142.000000" x2="659.400000" y2="142.000000"  style="stroke:black; stroke-linecap:round; stroke-width:0.25;"/>
<line x1="659.400000" y1="142.000000" x2="669.400000" y2="142.000000"  style="stroke:black; stroke-linecap:round; stroke-width:0.25;"/>
</svg>
