<?xml version="1.0"?>
<svg xmlns="http://www.w3.org/2000/svg" xmlns:xlink="http://www.w3.org/1999/xlink" viewBox="0 0 227.600000 220.000000" width="113.800000mm" height="110.000000mm" version="1.1">
<a xlink:href="delay-0x7fa23ba6ac40.svg">
<rect x="1.000000" y="1.000000" width="226.600000" height="219.000000" rx="0" ry="0" style="stroke:none;fill:#cccccc;"/>
<rect x="0.000000" y="0.000000" width="226.600000" height="219.000000" rx="0" ry="0" style="stroke:none;fill:#ffffff;"/>
</a>
<text x="10.000000" y="7.000000" font-family="Arial" font-size="7"></text>
<rect x="58.800000" y="25.000000" width="24.000000" height="24.000000" rx="0" ry="0" style="stroke:none;fill:#cccccc;"/>
<rect x="57.800000" y="24.000000" width="24.000000" height="24.000000" rx="0" ry="0" style="stroke:none;fill:#f44800;"/>
<text x="69.800000" y="38.000000" font-family="Arial" font-size="7" text-anchor="middle" fill="#FFFFFF">1</text>
<circle cx="59.800000" cy="26.000000" r="1"/>
<rect x="57.900000" y="67.000000" width="25.800000" height="24.000000" rx="0" ry="0" style="stroke:none;fill:#cccccc;"/>
<rect x="56.900000" y="66.000000" width="25.800000" height="24.000000" rx="0" ry="0" style="stroke:none;fill:#f44800;"/>
<text x="69.800000" y="80.000000" font-family="Arial" font-size="7" text-anchor="middle" fill="#FFFFFF">0.43</text>
<circle cx="58.900000" cy="68.000000" r="1"/>
<line x1="47.900000" y1="57.000000" x2="47.900000" y2="99.000000"  style="stroke: black; stroke-linecap:round; stroke-width:0.25; stroke-dasharray:3,3;"/>
<line x1="47.900000" y1="99.000000" x2="91.700000" y2="99.000000"  style="stroke: black; stroke-linecap:round; stroke-width:0.25; stroke-dasharray:3,3;"/>
<line x1="91.700000" y1="99.000000" x2="91.700000" y2="57.000000"  style="stroke: black; stroke-linecap:round; stroke-width:0.25; stroke-dasharray:3,3;"/>
<line x1="47.900000" y1="57.000000" x2="52.900000" y2="57.000000"  style="stroke: black; stroke-linecap:round; stroke-width:0.25; stroke-dasharray:3,3;"/>
<line x1="91.700000" y1="57.000000" x2="91.700000" y2="57.000000"  style="stroke: black; stroke-linecap:round; stroke-width:0.25; stroke-dasharray:3,3;"/>
<text x="52.900000" y="59.000000" font-family="Arial" font-size="7">blowPosition</text>
<rect x="109.700000" y="51.000000" width="24.000000" height="24.000000" rx="0" ry="0" style="stroke:none;fill:#cccccc;"/>
<rect x="108.700000" y="50.000000" width="24.000000" height="24.000000" rx="0" ry="0" style="stroke:none;fill:#4B71A1;"/>
<text x="120.700000" y="64.000000" font-family="Arial" font-size="7" text-anchor="middle" fill="#FFFFFF">-</text>
<circle cx="110.700000" cy="52.000000" r="1"/>
<line x1="105.700000" y1="57.000000" x2="108.700000" y2="58.000000"  transform="rotate(0.000000,108.700000,58.000000)" style="stroke: black; stroke-width:0.25;"/>
<line x1="105.700000" y1="59.000000" x2="108.700000" y2="58.000000"  transform="rotate(0.000000,108.700000,58.000000)" style="stroke: black; stroke-width:0.25;"/>
<line x1="105.700000" y1="65.000000" x2="108.700000" y2="66.000000"  transform="rotate(0.000000,108.700000,66.000000)" style="stroke: black; stroke-width:0.25;"/>
<line x1="105.700000" y1="67.000000" x2="108.700000" y2="66.000000"  transform="rotate(0.000000,108.700000,66.000000)" style="stroke: black; stroke-width:0.25;"/>
<a xlink:href="samplingfreq-0x7fa23b9047a0.svg">
<rect x="25.000000" y="109.000000" width="51.600000" height="24.000000" rx="0" ry="0" style="stroke:none;fill:#cccccc;"/>
<rect x="24.000000" y="108.000000" width="51.600000" height="24.000000" rx="0" ry="0" style="stroke:none;fill:#003366;"/>
</a>
<a xlink:href="samplingfreq-0x7fa23b9047a0.svg">
<text x="49.800000" y="122.000000" font-family="Arial" font-size="7" text-anchor="middle" fill="#FFFFFF">samplingfreq</text>
</a>
<circle cx="26.000000" cy="110.000000" r="1"/>
<a xlink:href="freq-0x7fa239dd8380.svg">
<rect x="37.900000" y="141.000000" width="25.800000" height="24.000000" rx="0" ry="0" style="stroke:none;fill:#cccccc;"/>
<rect x="36.900000" y="140.000000" width="25.800000" height="24.000000" rx="0" ry="0" style="stroke:none;fill:#003366;"/>
</a>
<a xlink:href="freq-0x7fa239dd8380.svg">
<text x="49.800000" y="154.000000" font-family="Arial" font-size="7" text-anchor="middle" fill="#FFFFFF">freq</text>
</a>
<circle cx="38.900000" cy="142.000000" r="1"/>
<rect x="92.600000" y="125.000000" width="24.000000" height="24.000000" rx="0" ry="0" style="stroke:none;fill:#cccccc;"/>
<rect x="91.600000" y="124.000000" width="24.000000" height="24.000000" rx="0" ry="0" style="stroke:none;fill:#4B71A1;"/>
<text x="103.600000" y="138.000000" font-family="Arial" font-size="7" text-anchor="middle" fill="#FFFFFF">/</text>
<circle cx="93.600000" cy="126.000000" r="1"/>
<line x1="88.600000" y1="131.000000" x2="91.600000" y2="132.000000"  transform="rotate(0.000000,91.600000,132.000000)" style="stroke: black; stroke-width:0.25;"/>
<line x1="88.600000" y1="133.000000" x2="91.600000" y2="132.000000"  transform="rotate(0.000000,91.600000,132.000000)" style="stroke: black; stroke-width:0.25;"/>
<line x1="88.600000" y1="139.000000" x2="91.600000" y2="140.000000"  transform="rotate(0.000000,91.600000,140.000000)" style="stroke: black; stroke-width:0.25;"/>
<line x1="88.600000" y1="141.000000" x2="91.600000" y2="140.000000"  transform="rotate(0.000000,91.600000,140.000000)" style="stroke: black; stroke-width:0.25;"/>
<rect x="58.800000" y="173.000000" width="24.000000" height="24.000000" rx="0" ry="0" style="stroke:none;fill:#cccccc;"/>
<rect x="57.800000" y="172.000000" width="24.000000" height="24.000000" rx="0" ry="0" style="stroke:none;fill:#f44800;"/>
<text x="69.800000" y="186.000000" font-family="Arial" font-size="7" text-anchor="middle" fill="#FFFFFF">3</text>
<circle cx="59.800000" cy="174.000000" r="1"/>
<rect x="132.600000" y="141.000000" width="24.000000" height="24.000000" rx="0" ry="0" style="stroke:none;fill:#cccccc;"/>
<rect x="131.600000" y="140.000000" width="24.000000" height="24.000000" rx="0" ry="0" style="stroke:none;fill:#4B71A1;"/>
<text x="143.600000" y="154.000000" font-family="Arial" font-size="7" text-anchor="middle" fill="#FFFFFF">-</text>
<circle cx="133.600000" cy="142.000000" r="1"/>
<line x1="128.600000" y1="147.000000" x2="131.600000" y2="148.000000"  transform="rotate(0.000000,131.600000,148.000000)" style="stroke: black; stroke-width:0.25;"/>
<line x1="128.600000" y1="149.000000" x2="131.600000" y2="148.000000"  transform="rotate(0.000000,131.600000,148.000000)" style="stroke: black; stroke-width:0.25;"/>
<line x1="128.600000" y1="155.000000" x2="131.600000" y2="156.000000"  transform="rotate(0.000000,131.600000,156.000000)" style="stroke: black; stroke-width:0.25;"/>
<line x1="128.600000" y1="157.000000" x2="131.600000" y2="156.000000"  transform="rotate(0.000000,131.600000,156.000000)" style="stroke: black; stroke-width:0.25;"/>
<rect x="172.600000" y="99.000000" width="24.000000" height="24.000000" rx="0" ry="0" style="stroke:none;fill:#cccccc;"/>
<rect x="171.600000" y="98.000000" width="24.000000" height="24.000000" rx="0" ry="0" style="stroke:none;fill:#4B71A1;"/>
<text x="183.600000" y="112.000000" font-family="Arial" font-size="7" text-anchor="middle" fill="#FFFFFF">*</text>
<circle cx="173.600000" cy="100.000000" r="1"/>
<line x1="168.600000" y1="105.000000" x2="171.600000" y2="106.000000"  transform="rotate(0.000000,171.600000,106.000000)" style="stroke: black; stroke-width:0.25;"/>
<line x1="168.600000" y1="107.000000" x2="171.600000" y2="106.000000"  transform="rotate(0.000000,171.600000,106.000000)" style="stroke: black; stroke-width:0.25;"/>
<line x1="168.600000" y1="113.000000" x2="171.600000" y2="114.000000"  transform="rotate(0.000000,171.600000,114.000000)" style="stroke: black; stroke-width:0.25;"/>
<line x1="168.600000" y1="115.000000" x2="171.600000" y2="114.000000"  transform="rotate(0.000000,171.600000,114.000000)" style="stroke: black; stroke-width:0.25;"/>
<line x1="15.000000" y1="15.000000" x2="15.000000" y2="205.000000"  style="stroke: black; stroke-linecap:round; stroke-width:0.25; stroke-dasharray:3,3;"/>
<line x1="15.000000" y1="205.000000" x2="212.600000" y2="205.000000"  style="stroke: black; stroke-linecap:round; stroke-width:0.25; stroke-dasharray:3,3;"/>
<line x1="212.600000" y1="205.000000" x2="212.600000" y2="15.000000"  style="stroke: black; stroke-linecap:round; stroke-width:0.25; stroke-dasharray:3,3;"/>
<line x1="15.000000" y1="15.000000" x2="20.000000" y2="15.000000"  style="stroke: black; stroke-linecap:round; stroke-width:0.25; stroke-dasharray:3,3;"/>
<line x1="42.575000" y1="15.000000" x2="212.600000" y2="15.000000"  style="stroke: black; stroke-linecap:round; stroke-width:0.25; stroke-dasharray:3,3;"/>
<text x="20.000000" y="17.000000" font-family="Arial" font-size="7">fdel1</text>
<line x1="214.600000" y1="109.000000" x2="217.600000" y2="110.000000"  transform="rotate(0.000000,217.600000,110.000000)" style="stroke: black; stroke-width:0.25;"/>
<line x1="214.600000" y1="111.000000" x2="217.600000" y2="110.000000"  transform="rotate(0.000000,217.600000,110.000000)" style="stroke: black; stroke-width:0.25;"/>
<line x1="62.700000" y1="152.000000" x2="66.700000" y2="152.000000"  style="stroke:black; stroke-linecap:round; stroke-width:0.25;"/>
<line x1="66.700000" y1="152.000000" x2="79.600000" y2="152.000000"  style="stroke:black; stroke-linecap:round; stroke-width:0.25;"/>
<line x1="75.600000" y1="120.000000" x2="79.600000" y2="120.000000"  style="stroke:black; stroke-linecap:round; stroke-width:0.25;"/>
<line x1="79.600000" y1="120.000000" x2="87.600000" y2="120.000000"  style="stroke:black; stroke-linecap:round; stroke-width:0.25;"/>
<line x1="79.600000" y1="140.000000" x2="87.600000" y2="140.000000"  style="stroke:black; stroke-linecap:round; stroke-width:0.25;"/>
<line x1="79.600000" y1="152.000000" x2="79.600000" y2="140.000000"  style="stroke:black; stroke-linecap:round; stroke-width:0.25;"/>
<line x1="79.600000" y1="152.000000" x2="79.600000" y2="152.000000"  style="stroke:black; stroke-linecap:round; stroke-width:0.25;"/>
<line x1="81.800000" y1="36.000000" x2="85.800000" y2="36.000000"  style="stroke:black; stroke-linecap:round; stroke-width:0.25;"/>
<line x1="81.800000" y1="184.000000" x2="85.800000" y2="184.000000"  style="stroke:black; stroke-linecap:round; stroke-width:0.25;"/>
<line x1="82.700000" y1="78.000000" x2="86.700000" y2="78.000000"  style="stroke:black; stroke-linecap:round; stroke-width:0.25;"/>
<line x1="85.800000" y1="36.000000" x2="96.700000" y2="36.000000"  style="stroke:black; stroke-linecap:round; stroke-width:0.25;"/>
<line x1="85.800000" y1="184.000000" x2="119.600000" y2="184.000000"  style="stroke:black; stroke-linecap:round; stroke-width:0.25;"/>
<line x1="86.700000" y1="78.000000" x2="96.700000" y2="78.000000"  style="stroke:black; stroke-linecap:round; stroke-width:0.25;"/>
<line x1="87.600000" y1="120.000000" x2="87.600000" y2="132.000000"  style="stroke:black; stroke-linecap:round; stroke-width:0.25;"/>
<line x1="87.600000" y1="132.000000" x2="87.600000" y2="132.000000"  style="stroke:black; stroke-linecap:round; stroke-width:0.25;"/>
<line x1="87.600000" y1="132.000000" x2="91.600000" y2="132.000000"  style="stroke:black; stroke-linecap:round; stroke-width:0.25;"/>
<line x1="87.600000" y1="140.000000" x2="91.600000" y2="140.000000"  style="stroke:black; stroke-linecap:round; stroke-width:0.25;"/>
<line x1="96.700000" y1="36.000000" x2="104.700000" y2="36.000000"  style="stroke:black; stroke-linecap:round; stroke-width:0.25;"/>
<line x1="96.700000" y1="66.000000" x2="104.700000" y2="66.000000"  style="stroke:black; stroke-linecap:round; stroke-width:0.25;"/>
<line x1="96.700000" y1="78.000000" x2="96.700000" y2="66.000000"  style="stroke:black; stroke-linecap:round; stroke-width:0.25;"/>
<line x1="96.700000" y1="78.000000" x2="96.700000" y2="78.000000"  style="stroke:black; stroke-linecap:round; stroke-width:0.25;"/>
<line x1="104.700000" y1="36.000000" x2="104.700000" y2="58.000000"  style="stroke:black; stroke-linecap:round; stroke-width:0.25;"/>
<line x1="104.700000" y1="58.000000" x2="104.700000" y2="58.000000"  style="stroke:black; stroke-linecap:round; stroke-width:0.25;"/>
<line x1="104.700000" y1="58.000000" x2="108.700000" y2="58.000000"  style="stroke:black; stroke-linecap:round; stroke-width:0.25;"/>
<line x1="104.700000" y1="66.000000" x2="108.700000" y2="66.000000"  style="stroke:black; stroke-linecap:round; stroke-width:0.25;"/>
<line x1="115.600000" y1="136.000000" x2="119.600000" y2="136.000000"  style="stroke:black; stroke-linecap:round; stroke-width:0.25;"/>
<line x1="119.600000" y1="136.000000" x2="127.600000" y2="136.000000"  style="stroke:black; stroke-linecap:round; stroke-width:0.25;"/>
<line x1="119.600000" y1="156.000000" x2="127.600000" y2="156.000000"  style="stroke:black; stroke-linecap:round; stroke-width:0.25;"/>
<line x1="119.600000" y1="184.000000" x2="119.600000" y2="156.000000"  style="stroke:black; stroke-linecap:round; stroke-width:0.25;"/>
<line x1="119.600000" y1="184.000000" x2="119.600000" y2="184.000000"  style="stroke:black; stroke-linecap:round; stroke-width:0.25;"/>
<line x1="127.600000" y1="136.000000" x2="127.600000" y2="148.000000"  style="stroke:black; stroke-linecap:round; stroke-width:0.25;"/>
<line x1="127.600000" y1="148.000000" x2="127.600000" y2="148.000000"  style="stroke:black; stroke-linecap:round; stroke-width:0.25;"/>
<line x1="127.600000" y1="148.000000" x2="131.600000" y2="148.000000"  style="stroke:black; stroke-linecap:round; stroke-width:0.25;"/>
<line x1="127.600000" y1="156.000000" x2="131.600000" y2="156.000000"  style="stroke:black; stroke-linecap:round; stroke-width:0.25;"/>
<line x1="132.700000" y1="62.000000" x2="136.700000" y2="62.000000"  style="stroke:black; stroke-linecap:round; stroke-width:0.25;"/>
<line x1="136.700000" y1="62.000000" x2="159.600000" y2="62.000000"  style="stroke:black; stroke-linecap:round; stroke-width:0.25;"/>
<line x1="155.600000" y1="152.000000" x2="159.600000" y2="152.000000"  style="stroke:black; stroke-linecap:round; stroke-width:0.25;"/>
<line x1="159.600000" y1="62.000000" x2="167.600000" y2="62.000000"  style="stroke:black; stroke-linecap:round; stroke-width:0.25;"/>
<line x1="159.600000" y1="114.000000" x2="167.600000" y2="114.000000"  style="stroke:black; stroke-linecap:round; stroke-width:0.25;"/>
<line x1="159.600000" y1="152.000000" x2="159.600000" y2="114.000000"  style="stroke:black; stroke-linecap:round; stroke-width:0.25;"/>
<line x1="159.600000" y1="152.000000" x2="159.600000" y2="152.000000"  style="stroke:black; stroke-linecap:round; stroke-width:0.25;"/>
<line x1="167.600000" y1="62.000000" x2="167.600000" y2="106.000000"  style="stroke:black; stroke-linecap:round; stroke-width:0.25;"/>
<line x1="167.600000" y1="106.000000" x2="167.600000" y2="106.000000"  style="stroke:black; stroke-linecap:round; stroke-width:0.25;"/>
<line x1="167.600000" y1="106.000000" x2="171.600000" y2="106.000000"  style="stroke:black; stroke-linecap:round; stroke-width:0.25;"/>
<line x1="167.600000" y1="114.000000" x2="171.600000" y2="114.000000"  style="stroke:black; stroke-linecap:round; stroke-width:0.25;"/>
<line x1="195.600000" y1="110.000000" x2="199.600000" y2="110.000000"  style="stroke:black; stroke-linecap:round; stroke-width:0.25;"/>
<line x1="199.600000" y1="110.000000" x2="199.600000" y2="110.000000"  style="stroke:black; stroke-linecap:round; stroke-width:0.25;"/>
<line x1="199.600000" y1="110.000000" x2="203.600000" y2="110.000000"  style="stroke:black; stroke-linecap:round; stroke-width:0.25;"/>
<line x1="203.600000" y1="110.000000" x2="207.600000" y2="110.000000"  style="stroke:black; stroke-linecap:round; stroke-width:0.25;"/>
<line x1="207.600000" y1="110.000000" x2="217.600000" y2="110.000000"  style="stroke:black; stroke-linecap:round; stroke-width:0.25;"/>
</svg>
