<?xml version="1.0"?>
<svg xmlns="http://www.w3.org/2000/svg" xmlns:xlink="http://www.w3.org/1999/xlink" viewBox="0 0 261.000000 156.000000" width="130.500000mm" height="78.000000mm" version="1.1">
<rect x="1.000000" y="1.000000" width="260.000000" height="155.000000" rx="0" ry="0" style="stroke:none;fill:#cccccc;"/>
<rect x="0.000000" y="0.000000" width="260.000000" height="155.000000" rx="0" ry="0" style="stroke:none;fill:#ffffff;"/>
<text x="10.000000" y="7.000000" font-family="Arial" font-size="7"></text>
<a xlink:href="bodyFilter-0x7fa90b4bf410.svg">
<rect x="49.450000" y="67.000000" width="51.600000" height="24.000000" rx="0" ry="0" style="stroke:none;fill:#cccccc;"/>
<rect x="48.450000" y="66.000000" width="51.600000" height="24.000000" rx="0" ry="0" style="stroke:none;fill:#003366;"/>
</a>
<a xlink:href="bodyFilter-0x7fa90b4bf410.svg">
<text x="74.250000" y="80.000000" font-family="Arial" font-size="7" text-anchor="middle" fill="#FFFFFF">bodyFilter</text>
</a>
<circle cx="50.450000" cy="68.000000" r="1"/>
<line x1="45.450000" y1="77.000000" x2="48.450000" y2="78.000000"  transform="rotate(0.000000,48.450000,78.000000)" style="stroke: black; stroke-width:0.25;"/>
<line x1="45.450000" y1="79.000000" x2="48.450000" y2="78.000000"  transform="rotate(0.000000,48.450000,78.000000)" style="stroke: black; stroke-width:0.25;"/>
<a xlink:href="breathPressure-0x7fa90cf22c60.svg">
<rect x="43.000000" y="99.000000" width="64.500000" height="24.000000" rx="0" ry="0" style="stroke:none;fill:#cccccc;"/>
<rect x="42.000000" y="98.000000" width="64.500000" height="24.000000" rx="0" ry="0" style="stroke:none;fill:#003366;"/>
</a>
<a xlink:href="breathPressure-0x7fa90cf22c60.svg">
<text x="74.250000" y="112.000000" font-family="Arial" font-size="7" text-anchor="middle" fill="#FFFFFF">breathPressure</text>
</a>
<circle cx="44.000000" cy="100.000000" r="1"/>
<a xlink:href="instrumentBody-0x7fa90cf4e190.svg">
<rect x="123.500000" y="83.000000" width="64.500000" height="24.000000" rx="0" ry="0" style="stroke:none;fill:#cccccc;"/>
<rect x="122.500000" y="82.000000" width="64.500000" height="24.000000" rx="0" ry="0" style="stroke:none;fill:#003366;"/>
</a>
<a xlink:href="instrumentBody-0x7fa90cf4e190.svg">
<text x="154.750000" y="96.000000" font-family="Arial" font-size="7" text-anchor="middle" fill="#FFFFFF">instrumentBody</text>
</a>
<circle cx="124.500000" cy="84.000000" r="1"/>
<line x1="119.500000" y1="89.000000" x2="122.500000" y2="90.000000"  transform="rotate(0.000000,122.500000,90.000000)" style="stroke: black; stroke-width:0.25;"/>
<line x1="119.500000" y1="91.000000" x2="122.500000" y2="90.000000"  transform="rotate(0.000000,122.500000,90.000000)" style="stroke: black; stroke-width:0.25;"/>
<line x1="119.500000" y1="97.000000" x2="122.500000" y2="98.000000"  transform="rotate(0.000000,122.500000,98.000000)" style="stroke: black; stroke-width:0.25;"/>
<line x1="119.500000" y1="99.000000" x2="122.500000" y2="98.000000"  transform="rotate(0.000000,122.500000,98.000000)" style="stroke: black; stroke-width:0.25;"/>
<a xlink:href="delay1-0x7fa90cf5e130.svg">
<rect x="119.500000" y="35.000000" width="25.800000" height="24.000000" rx="0" ry="0" style="stroke:none;fill:#cccccc;"/>
<rect x="118.500000" y="34.000000" width="25.800000" height="24.000000" rx="0" ry="0" style="stroke:none;fill:#003366;"/>
</a>
<a xlink:href="delay1-0x7fa90cf5e130.svg">
<text x="131.400000" y="48.000000" font-family="Arial" font-size="7" text-anchor="middle" fill="#FFFFFF">delay1</text>
</a>
<circle cx="142.300000" cy="56.000000" r="1"/>
<line x1="147.300000" y1="45.000000" x2="144.300000" y2="46.000000"  transform="rotate(0.000000,144.300000,46.000000)" style="stroke: black; stroke-width:0.25;"/>
<line x1="147.300000" y1="47.000000" x2="144.300000" y2="46.000000"  transform="rotate(0.000000,144.300000,46.000000)" style="stroke: black; stroke-width:0.25;"/>
<a xlink:href="NLFM-0x7fa90cfcd550.svg">
<rect x="85.700000" y="35.000000" width="25.800000" height="24.000000" rx="0" ry="0" style="stroke:none;fill:#cccccc;"/>
<rect x="84.700000" y="34.000000" width="25.800000" height="24.000000" rx="0" ry="0" style="stroke:none;fill:#003366;"/>
</a>
<a xlink:href="NLFM-0x7fa90cfcd550.svg">
<text x="97.600000" y="48.000000" font-family="Arial" font-size="7" text-anchor="middle" fill="#FFFFFF">NLFM</text>
</a>
<circle cx="108.500000" cy="56.000000" r="1"/>
<line x1="113.500000" y1="45.000000" x2="110.500000" y2="46.000000"  transform="rotate(0.000000,110.500000,46.000000)" style="stroke: black; stroke-width:0.25;"/>
<line x1="113.500000" y1="47.000000" x2="110.500000" y2="46.000000"  transform="rotate(0.000000,110.500000,46.000000)" style="stroke: black; stroke-width:0.25;"/>
<line x1="189.000000" y1="90.000000" x2="189.000000" y2="86.000000"  style="stroke:black; stroke-linecap:round; stroke-width:0.25;"/>
<line x1="189.000000" y1="86.000000" x2="193.000000" y2="86.000000"  style="stroke:black; stroke-linecap:round; stroke-width:0.25;"/>
<line x1="193.000000" y1="86.000000" x2="193.000000" y2="90.000000"  style="stroke:black; stroke-linecap:round; stroke-width:0.25;"/>
<line x1="25.000000" y1="25.000000" x2="25.000000" y2="131.000000"  style="stroke: black; stroke-linecap:round; stroke-width:0.25; stroke-dasharray:3,3;"/>
<line x1="25.000000" y1="131.000000" x2="220.000000" y2="131.000000"  style="stroke: black; stroke-linecap:round; stroke-width:0.25; stroke-dasharray:3,3;"/>
<line x1="220.000000" y1="131.000000" x2="220.000000" y2="25.000000"  style="stroke: black; stroke-linecap:round; stroke-width:0.25; stroke-dasharray:3,3;"/>
<line x1="25.000000" y1="25.000000" x2="30.000000" y2="25.000000"  style="stroke: black; stroke-linecap:round; stroke-width:0.25; stroke-dasharray:3,3;"/>
<line x1="84.825000" y1="25.000000" x2="220.000000" y2="25.000000"  style="stroke: black; stroke-linecap:round; stroke-width:0.25; stroke-dasharray:3,3;"/>
<text x="30.000000" y="27.000000" font-family="Arial" font-size="7">vgroup(PULSAXO)</text>
<line x1="15.000000" y1="15.000000" x2="15.000000" y2="141.000000"  style="stroke: black; stroke-linecap:round; stroke-width:0.25; stroke-dasharray:3,3;"/>
<line x1="15.000000" y1="141.000000" x2="246.000000" y2="141.000000"  style="stroke: black; stroke-linecap:round; stroke-width:0.25; stroke-dasharray:3,3;"/>
<line x1="246.000000" y1="141.000000" x2="246.000000" y2="15.000000"  style="stroke: black; stroke-linecap:round; stroke-width:0.25; stroke-dasharray:3,3;"/>
<line x1="15.000000" y1="15.000000" x2="20.000000" y2="15.000000"  style="stroke: black; stroke-linecap:round; stroke-width:0.25; stroke-dasharray:3,3;"/>
<line x1="49.025000" y1="15.000000" x2="246.000000" y2="15.000000"  style="stroke: black; stroke-linecap:round; stroke-width:0.25; stroke-dasharray:3,3;"/>
<text x="20.000000" y="17.000000" font-family="Arial" font-size="7">process</text>
<line x1="248.000000" y1="77.000000" x2="251.000000" y2="78.000000"  transform="rotate(0.000000,251.000000,78.000000)" style="stroke: black; stroke-width:0.25;"/>
<line x1="248.000000" y1="79.000000" x2="251.000000" y2="78.000000"  transform="rotate(0.000000,251.000000,78.000000)" style="stroke: black; stroke-width:0.25;"/>
<line x1="38.000000" y1="46.000000" x2="38.000000" y2="46.000000"  style="stroke:black; stroke-linecap:round; stroke-width:0.25;"/>
<line x1="38.000000" y1="46.000000" x2="38.000000" y2="78.000000"  style="stroke:black; stroke-linecap:round; stroke-width:0.25;"/>
<line x1="38.000000" y1="78.000000" x2="38.000000" y2="78.000000"  style="stroke:black; stroke-linecap:round; stroke-width:0.25;"/>
<line x1="38.000000" y1="78.000000" x2="44.450000" y2="78.000000"  style="stroke:black; stroke-linecap:round; stroke-width:0.25;"/>
<line x1="44.450000" y1="78.000000" x2="48.450000" y2="78.000000"  style="stroke:black; stroke-linecap:round; stroke-width:0.25;"/>
<line x1="80.700000" y1="46.000000" x2="38.000000" y2="46.000000"  style="stroke:black; stroke-linecap:round; stroke-width:0.25;"/>
<line x1="84.700000" y1="46.000000" x2="80.700000" y2="46.000000"  style="stroke:black; stroke-linecap:round; stroke-width:0.25;"/>
<line x1="100.050000" y1="78.000000" x2="104.050000" y2="78.000000"  style="stroke:black; stroke-linecap:round; stroke-width:0.25;"/>
<line x1="104.050000" y1="78.000000" x2="110.500000" y2="78.000000"  style="stroke:black; stroke-linecap:round; stroke-width:0.25;"/>
<line x1="106.500000" y1="110.000000" x2="110.500000" y2="110.000000"  style="stroke:black; stroke-linecap:round; stroke-width:0.25;"/>
<line x1="110.500000" y1="78.000000" x2="118.500000" y2="78.000000"  style="stroke:black; stroke-linecap:round; stroke-width:0.25;"/>
<line x1="110.500000" y1="98.000000" x2="118.500000" y2="98.000000"  style="stroke:black; stroke-linecap:round; stroke-width:0.25;"/>
<line x1="110.500000" y1="110.000000" x2="110.500000" y2="98.000000"  style="stroke:black; stroke-linecap:round; stroke-width:0.25;"/>
<line x1="110.500000" y1="110.000000" x2="110.500000" y2="110.000000"  style="stroke:black; stroke-linecap:round; stroke-width:0.25;"/>
<line x1="114.500000" y1="46.000000" x2="110.500000" y2="46.000000"  style="stroke:black; stroke-linecap:round; stroke-width:0.25;"/>
<line x1="114.500000" y1="46.000000" x2="114.500000" y2="46.000000"  style="stroke:black; stroke-linecap:round; stroke-width:0.25;"/>
<line x1="118.500000" y1="46.000000" x2="114.500000" y2="46.000000"  style="stroke:black; stroke-linecap:round; stroke-width:0.25;"/>
<line x1="118.500000" y1="78.000000" x2="118.500000" y2="90.000000"  style="stroke:black; stroke-linecap:round; stroke-width:0.25;"/>
<line x1="118.500000" y1="90.000000" x2="118.500000" y2="90.000000"  style="stroke:black; stroke-linecap:round; stroke-width:0.25;"/>
<line x1="118.500000" y1="90.000000" x2="122.500000" y2="90.000000"  style="stroke:black; stroke-linecap:round; stroke-width:0.25;"/>
<line x1="118.500000" y1="98.000000" x2="122.500000" y2="98.000000"  style="stroke:black; stroke-linecap:round; stroke-width:0.25;"/>
<line x1="148.300000" y1="46.000000" x2="144.300000" y2="46.000000"  style="stroke:black; stroke-linecap:round; stroke-width:0.25;"/>
<line x1="187.000000" y1="90.000000" x2="191.000000" y2="90.000000"  style="stroke:black; stroke-linecap:round; stroke-width:0.25;"/>
<line x1="187.000000" y1="98.000000" x2="191.000000" y2="98.000000"  style="stroke:black; stroke-linecap:round; stroke-width:0.25;"/>
<line x1="191.000000" y1="46.000000" x2="148.300000" y2="46.000000"  style="stroke:black; stroke-linecap:round; stroke-width:0.25;"/>
<line x1="191.000000" y1="46.000000" x2="191.000000" y2="46.000000"  style="stroke:black; stroke-linecap:round; stroke-width:0.25;"/>
<line x1="191.000000" y1="86.000000" x2="191.000000" y2="46.000000"  style="stroke:black; stroke-linecap:round; stroke-width:0.25;"/>
<line x1="191.000000" y1="90.000000" x2="193.000000" y2="90.000000"  style="stroke:black; stroke-linecap:round; stroke-width:0.25;"/>
<line x1="191.000000" y1="98.000000" x2="199.000000" y2="98.000000"  style="stroke:black; stroke-linecap:round; stroke-width:0.25;"/>
<line x1="199.000000" y1="98.000000" x2="207.000000" y2="98.000000"  style="stroke:black; stroke-linecap:round; stroke-width:0.25;"/>
<line x1="207.000000" y1="78.040000" x2="215.000000" y2="78.040000"  style="stroke:black; stroke-linecap:round; stroke-width:0.25;"/>
<line x1="207.000000" y1="98.000000" x2="207.000000" y2="78.040000"  style="stroke:black; stroke-linecap:round; stroke-width:0.25;"/>
<line x1="215.000000" y1="78.040000" x2="225.000000" y2="78.040000"  style="stroke:black; stroke-linecap:round; stroke-width:0.25;"/>
<line x1="225.000000" y1="78.000000" x2="233.000000" y2="78.000000"  style="stroke:black; stroke-linecap:round; stroke-width:0.25;"/>
<line x1="225.000000" y1="78.040000" x2="225.000000" y2="78.000000"  style="stroke:black; stroke-linecap:round; stroke-width:0.25;"/>
<line x1="225.000000" y1="78.040000" x2="225.000000" y2="78.040000"  style="stroke:black; stroke-linecap:round; stroke-width:0.25;"/>
<line x1="233.000000" y1="78.000000" x2="237.000000" y2="78.000000"  style="stroke:black; stroke-linecap:round; stroke-width:0.25;"/>
<line x1="237.000000" y1="78.000000" x2="241.000000" y2="78.000000"  style="stroke:black; stroke-linecap:round; stroke-width:0.25;"/>
<line x1="241.000000" y1="78.000000" x2="251.000000" y2="78.000000"  style="stroke:black; stroke-linecap:round; stroke-width:0.25;"/>
</svg>
