<?xml version="1.0"?>
<svg xmlns="http://www.w3.org/2000/svg" xmlns:xlink="http://www.w3.org/1999/xlink" viewBox="0 0 859.200000 108.000000" width="429.600000mm" height="54.000000mm" version="1.1">
<a xlink:href="myHarmoElt-0x7fbd027ae300.svg">
<rect x="1.000000" y="1.000000" width="858.200000" height="107.000000" rx="0" ry="0" style="stroke:none;fill:#cccccc;"/>
<rect x="0.000000" y="0.000000" width="858.200000" height="107.000000" rx="0" ry="0" style="stroke:none;fill:#ffffff;"/>
</a>
<text x="10.000000" y="7.000000" font-family="Arial" font-size="7"></text>
<rect x="25.900000" y="27.000000" width="24.000000" height="24.000000" rx="0" ry="0" style="stroke:none;fill:#cccccc;"/>
<rect x="24.900000" y="26.000000" width="24.000000" height="24.000000" rx="0" ry="0" style="stroke:none;fill:#47945E;"/>
<text x="36.900000" y="40.000000" font-family="Arial" font-size="7" text-anchor="middle" fill="#FFFFFF">ph</text>
<circle cx="26.900000" cy="28.000000" r="1"/>
<rect x="25.000000" y="59.000000" width="25.800000" height="24.000000" rx="0" ry="0" style="stroke:none;fill:#cccccc;"/>
<rect x="24.000000" y="58.000000" width="25.800000" height="24.000000" rx="0" ry="0" style="stroke:none;fill:#47945E;"/>
<text x="36.900000" y="72.000000" font-family="Arial" font-size="7" text-anchor="middle" fill="#FFFFFF">delta</text>
<circle cx="26.000000" cy="60.000000" r="1"/>
<rect x="66.800000" y="43.000000" width="24.000000" height="24.000000" rx="0" ry="0" style="stroke:none;fill:#cccccc;"/>
<rect x="65.800000" y="42.000000" width="24.000000" height="24.000000" rx="0" ry="0" style="stroke:none;fill:#4B71A1;"/>
<text x="77.800000" y="56.000000" font-family="Arial" font-size="7" text-anchor="middle" fill="#FFFFFF">+</text>
<circle cx="67.800000" cy="44.000000" r="1"/>
<line x1="62.800000" y1="49.000000" x2="65.800000" y2="50.000000"  transform="rotate(0.000000,65.800000,50.000000)" style="stroke: black; stroke-width:0.25;"/>
<line x1="62.800000" y1="51.000000" x2="65.800000" y2="50.000000"  transform="rotate(0.000000,65.800000,50.000000)" style="stroke: black; stroke-width:0.25;"/>
<line x1="62.800000" y1="57.000000" x2="65.800000" y2="58.000000"  transform="rotate(0.000000,65.800000,58.000000)" style="stroke: black; stroke-width:0.25;"/>
<line x1="62.800000" y1="59.000000" x2="65.800000" y2="58.000000"  transform="rotate(0.000000,65.800000,58.000000)" style="stroke: black; stroke-width:0.25;"/>
<a xlink:href="cycle-0x7fbd02798f40.svg">
<rect x="98.800000" y="43.000000" width="77.400000" height="24.000000" rx="0" ry="0" style="stroke:none;fill:#cccccc;"/>
<rect x="97.800000" y="42.000000" width="77.400000" height="24.000000" rx="0" ry="0" style="stroke:none;fill:#003366;"/>
</a>
<a xlink:href="cycle-0x7fbd02798f40.svg">
<text x="136.500000" y="56.000000" font-family="Arial" font-size="7" text-anchor="middle" fill="#FFFFFF">cycle_nowrapramp</text>
</a>
<circle cx="99.800000" cy="44.000000" r="1"/>
<line x1="94.800000" y1="53.000000" x2="97.800000" y2="54.000000"  transform="rotate(0.000000,97.800000,54.000000)" style="stroke: black; stroke-width:0.25;"/>
<line x1="94.800000" y1="55.000000" x2="97.800000" y2="54.000000"  transform="rotate(0.000000,97.800000,54.000000)" style="stroke: black; stroke-width:0.25;"/>
<rect x="227.200000" y="43.000000" width="193.500000" height="24.000000" rx="0" ry="0" style="stroke:none;fill:#cccccc;"/>
<rect x="226.200000" y="42.000000" width="193.500000" height="24.000000" rx="0" ry="0" style="stroke:none;fill:#477881;"/>
<text x="322.950000" y="56.000000" font-family="Arial" font-size="7" text-anchor="middle" fill="#FFFFFF">vslider(h_win, 2e+02f, 0.0f, 1e+03f, 1e+01f)</text>
<circle cx="228.200000" cy="44.000000" r="1"/>
<line x1="217.200000" y1="33.000000" x2="217.200000" y2="75.000000"  style="stroke: black; stroke-linecap:round; stroke-width:0.25; stroke-dasharray:3,3;"/>
<line x1="217.200000" y1="75.000000" x2="428.700000" y2="75.000000"  style="stroke: black; stroke-linecap:round; stroke-width:0.25; stroke-dasharray:3,3;"/>
<line x1="428.700000" y1="75.000000" x2="428.700000" y2="33.000000"  style="stroke: black; stroke-linecap:round; stroke-width:0.25; stroke-dasharray:3,3;"/>
<line x1="217.200000" y1="33.000000" x2="222.200000" y2="33.000000"  style="stroke: black; stroke-linecap:round; stroke-width:0.25; stroke-dasharray:3,3;"/>
<line x1="241.550000" y1="33.000000" x2="428.700000" y2="33.000000"  style="stroke: black; stroke-linecap:round; stroke-width:0.25; stroke-dasharray:3,3;"/>
<text x="222.200000" y="35.000000" font-family="Arial" font-size="7">hwin</text>
<rect x="446.700000" y="39.000000" width="24.000000" height="24.000000" rx="0" ry="0" style="stroke:none;fill:#cccccc;"/>
<rect x="445.700000" y="38.000000" width="24.000000" height="24.000000" rx="0" ry="0" style="stroke:none;fill:#4B71A1;"/>
<text x="457.700000" y="52.000000" font-family="Arial" font-size="7" text-anchor="middle" fill="#FFFFFF">*</text>
<circle cx="447.700000" cy="40.000000" r="1"/>
<line x1="442.700000" y1="45.000000" x2="445.700000" y2="46.000000"  transform="rotate(0.000000,445.700000,46.000000)" style="stroke: black; stroke-width:0.25;"/>
<line x1="442.700000" y1="47.000000" x2="445.700000" y2="46.000000"  transform="rotate(0.000000,445.700000,46.000000)" style="stroke: black; stroke-width:0.25;"/>
<line x1="442.700000" y1="53.000000" x2="445.700000" y2="54.000000"  transform="rotate(0.000000,445.700000,54.000000)" style="stroke: black; stroke-width:0.25;"/>
<line x1="442.700000" y1="55.000000" x2="445.700000" y2="54.000000"  transform="rotate(0.000000,445.700000,54.000000)" style="stroke: black; stroke-width:0.25;"/>
<rect x="496.700000" y="43.000000" width="193.500000" height="24.000000" rx="0" ry="0" style="stroke:none;fill:#cccccc;"/>
<rect x="495.700000" y="42.000000" width="193.500000" height="24.000000" rx="0" ry="0" style="stroke:none;fill:#477881;"/>
<text x="592.450000" y="56.000000" font-family="Arial" font-size="7" text-anchor="middle" fill="#FFFFFF">vslider(h_delay, 0.0f, 0.0f, 5e+03f, 1e+01f)</text>
<circle cx="497.700000" cy="44.000000" r="1"/>
<line x1="486.700000" y1="33.000000" x2="486.700000" y2="75.000000"  style="stroke: black; stroke-linecap:round; stroke-width:0.25; stroke-dasharray:3,3;"/>
<line x1="486.700000" y1="75.000000" x2="698.200000" y2="75.000000"  style="stroke: black; stroke-linecap:round; stroke-width:0.25; stroke-dasharray:3,3;"/>
<line x1="698.200000" y1="75.000000" x2="698.200000" y2="33.000000"  style="stroke: black; stroke-linecap:round; stroke-width:0.25; stroke-dasharray:3,3;"/>
<line x1="486.700000" y1="33.000000" x2="491.700000" y2="33.000000"  style="stroke: black; stroke-linecap:round; stroke-width:0.25; stroke-dasharray:3,3;"/>
<line x1="517.500000" y1="33.000000" x2="698.200000" y2="33.000000"  style="stroke: black; stroke-linecap:round; stroke-width:0.25; stroke-dasharray:3,3;"/>
<text x="491.700000" y="35.000000" font-family="Arial" font-size="7">hdelay</text>
<rect x="716.200000" y="39.000000" width="24.000000" height="24.000000" rx="0" ry="0" style="stroke:none;fill:#cccccc;"/>
<rect x="715.200000" y="38.000000" width="24.000000" height="24.000000" rx="0" ry="0" style="stroke:none;fill:#4B71A1;"/>
<text x="727.200000" y="52.000000" font-family="Arial" font-size="7" text-anchor="middle" fill="#FFFFFF">+</text>
<circle cx="717.200000" cy="40.000000" r="1"/>
<line x1="712.200000" y1="45.000000" x2="715.200000" y2="46.000000"  transform="rotate(0.000000,715.200000,46.000000)" style="stroke: black; stroke-width:0.25;"/>
<line x1="712.200000" y1="47.000000" x2="715.200000" y2="46.000000"  transform="rotate(0.000000,715.200000,46.000000)" style="stroke: black; stroke-width:0.25;"/>
<line x1="712.200000" y1="53.000000" x2="715.200000" y2="54.000000"  transform="rotate(0.000000,715.200000,54.000000)" style="stroke: black; stroke-width:0.25;"/>
<line x1="712.200000" y1="55.000000" x2="715.200000" y2="54.000000"  transform="rotate(0.000000,715.200000,54.000000)" style="stroke: black; stroke-width:0.25;"/>
<rect x="756.200000" y="43.000000" width="24.000000" height="24.000000" rx="0" ry="0" style="stroke:none;fill:#cccccc;"/>
<rect x="755.200000" y="42.000000" width="24.000000" height="24.000000" rx="0" ry="0" style="stroke:none;fill:#f44800;"/>
<text x="767.200000" y="56.000000" font-family="Arial" font-size="7" text-anchor="middle" fill="#FFFFFF">2</text>
<circle cx="757.200000" cy="44.000000" r="1"/>
<rect x="796.200000" y="39.000000" width="24.000000" height="24.000000" rx="0" ry="0" style="stroke:none;fill:#cccccc;"/>
<rect x="795.200000" y="38.000000" width="24.000000" height="24.000000" rx="0" ry="0" style="stroke:none;fill:#4B71A1;"/>
<text x="807.200000" y="52.000000" font-family="Arial" font-size="7" text-anchor="middle" fill="#FFFFFF">+</text>
<circle cx="797.200000" cy="40.000000" r="1"/>
<line x1="792.200000" y1="45.000000" x2="795.200000" y2="46.000000"  transform="rotate(0.000000,795.200000,46.000000)" style="stroke: black; stroke-width:0.25;"/>
<line x1="792.200000" y1="47.000000" x2="795.200000" y2="46.000000"  transform="rotate(0.000000,795.200000,46.000000)" style="stroke: black; stroke-width:0.25;"/>
<line x1="792.200000" y1="53.000000" x2="795.200000" y2="54.000000"  transform="rotate(0.000000,795.200000,54.000000)" style="stroke: black; stroke-width:0.25;"/>
<line x1="792.200000" y1="55.000000" x2="795.200000" y2="54.000000"  transform="rotate(0.000000,795.200000,54.000000)" style="stroke: black; stroke-width:0.25;"/>
<line x1="15.000000" y1="15.000000" x2="15.000000" y2="93.000000"  style="stroke: black; stroke-linecap:round; stroke-width:0.25; stroke-dasharray:3,3;"/>
<line x1="15.000000" y1="93.000000" x2="844.200000" y2="93.000000"  style="stroke: black; stroke-linecap:round; stroke-width:0.25; stroke-dasharray:3,3;"/>
<line x1="844.200000" y1="93.000000" x2="844.200000" y2="15.000000"  style="stroke: black; stroke-linecap:round; stroke-width:0.25; stroke-dasharray:3,3;"/>
<line x1="15.000000" y1="15.000000" x2="20.000000" y2="15.000000"  style="stroke: black; stroke-linecap:round; stroke-width:0.25; stroke-dasharray:3,3;"/>
<line x1="52.250000" y1="15.000000" x2="844.200000" y2="15.000000"  style="stroke: black; stroke-linecap:round; stroke-width:0.25; stroke-dasharray:3,3;"/>
<text x="20.000000" y="17.000000" font-family="Arial" font-size="7">myHarmo1</text>
<line x1="846.200000" y1="49.000000" x2="849.200000" y2="50.000000"  transform="rotate(0.000000,849.200000,50.000000)" style="stroke: black; stroke-width:0.25;"/>
<line x1="846.200000" y1="51.000000" x2="849.200000" y2="50.000000"  transform="rotate(0.000000,849.200000,50.000000)" style="stroke: black; stroke-width:0.25;"/>
<line x1="846.200000" y1="57.000000" x2="849.200000" y2="58.000000"  transform="rotate(0.000000,849.200000,58.000000)" style="stroke: black; stroke-width:0.25;"/>
<line x1="846.200000" y1="59.000000" x2="849.200000" y2="58.000000"  transform="rotate(0.000000,849.200000,58.000000)" style="stroke: black; stroke-width:0.25;"/>
<line x1="48.900000" y1="38.000000" x2="52.900000" y2="38.000000"  style="stroke:black; stroke-linecap:round; stroke-width:0.25;"/>
<line x1="49.800000" y1="70.000000" x2="53.800000" y2="70.000000"  style="stroke:black; stroke-linecap:round; stroke-width:0.25;"/>
<line x1="52.900000" y1="38.000000" x2="53.800000" y2="38.000000"  style="stroke:black; stroke-linecap:round; stroke-width:0.25;"/>
<line x1="53.800000" y1="38.000000" x2="61.800000" y2="38.000000"  style="stroke:black; stroke-linecap:round; stroke-width:0.25;"/>
<line x1="53.800000" y1="58.000000" x2="61.800000" y2="58.000000"  style="stroke:black; stroke-linecap:round; stroke-width:0.25;"/>
<line x1="53.800000" y1="70.000000" x2="53.800000" y2="58.000000"  style="stroke:black; stroke-linecap:round; stroke-width:0.25;"/>
<line x1="53.800000" y1="70.000000" x2="53.800000" y2="70.000000"  style="stroke:black; stroke-linecap:round; stroke-width:0.25;"/>
<line x1="61.800000" y1="38.000000" x2="61.800000" y2="50.000000"  style="stroke:black; stroke-linecap:round; stroke-width:0.25;"/>
<line x1="61.800000" y1="50.000000" x2="61.800000" y2="50.000000"  style="stroke:black; stroke-linecap:round; stroke-width:0.25;"/>
<line x1="61.800000" y1="50.000000" x2="65.800000" y2="50.000000"  style="stroke:black; stroke-linecap:round; stroke-width:0.25;"/>
<line x1="61.800000" y1="58.000000" x2="65.800000" y2="58.000000"  style="stroke:black; stroke-linecap:round; stroke-width:0.25;"/>
<line x1="89.800000" y1="54.000000" x2="93.800000" y2="54.000000"  style="stroke:black; stroke-linecap:round; stroke-width:0.25;"/>
<line x1="93.800000" y1="54.000000" x2="93.800000" y2="54.000000"  style="stroke:black; stroke-linecap:round; stroke-width:0.25;"/>
<line x1="93.800000" y1="54.000000" x2="97.800000" y2="54.000000"  style="stroke:black; stroke-linecap:round; stroke-width:0.25;"/>
<line x1="175.200000" y1="54.000000" x2="179.200000" y2="54.000000"  style="stroke:black; stroke-linecap:round; stroke-width:0.25;"/>
<line x1="179.200000" y1="54.000000" x2="212.200000" y2="24.000000"  style="stroke:black; stroke-linecap:round; stroke-width:0.25;"/>
<line x1="179.200000" y1="54.000000" x2="212.200000" y2="84.000000"  style="stroke:black; stroke-linecap:round; stroke-width:0.25;"/>
<line x1="212.200000" y1="24.000000" x2="322.950000" y2="24.000000"  style="stroke:black; stroke-linecap:round; stroke-width:0.25;"/>
<line x1="212.200000" y1="84.000000" x2="322.950000" y2="84.000000"  style="stroke:black; stroke-linecap:round; stroke-width:0.25;"/>
<line x1="322.950000" y1="24.000000" x2="433.700000" y2="24.000000"  style="stroke:black; stroke-linecap:round; stroke-width:0.25;"/>
<line x1="322.950000" y1="84.000000" x2="433.700000" y2="84.000000"  style="stroke:black; stroke-linecap:round; stroke-width:0.25;"/>
<line x1="419.700000" y1="54.000000" x2="423.700000" y2="54.000000"  style="stroke:black; stroke-linecap:round; stroke-width:0.25;"/>
<line x1="423.700000" y1="54.000000" x2="433.700000" y2="54.000000"  style="stroke:black; stroke-linecap:round; stroke-width:0.25;"/>
<line x1="433.700000" y1="24.000000" x2="441.700000" y2="24.000000"  style="stroke:black; stroke-linecap:round; stroke-width:0.25;"/>
<line x1="433.700000" y1="54.000000" x2="441.700000" y2="54.000000"  style="stroke:black; stroke-linecap:round; stroke-width:0.25;"/>
<line x1="433.700000" y1="70.000000" x2="441.700000" y2="70.000000"  style="stroke:black; stroke-linecap:round; stroke-width:0.25;"/>
<line x1="433.700000" y1="84.000000" x2="433.700000" y2="70.000000"  style="stroke:black; stroke-linecap:round; stroke-width:0.25;"/>
<line x1="433.700000" y1="84.000000" x2="433.700000" y2="84.000000"  style="stroke:black; stroke-linecap:round; stroke-width:0.25;"/>
<line x1="441.700000" y1="24.000000" x2="441.700000" y2="46.000000"  style="stroke:black; stroke-linecap:round; stroke-width:0.25;"/>
<line x1="441.700000" y1="46.000000" x2="441.700000" y2="46.000000"  style="stroke:black; stroke-linecap:round; stroke-width:0.25;"/>
<line x1="441.700000" y1="46.000000" x2="445.700000" y2="46.000000"  style="stroke:black; stroke-linecap:round; stroke-width:0.25;"/>
<line x1="441.700000" y1="54.000000" x2="445.700000" y2="54.000000"  style="stroke:black; stroke-linecap:round; stroke-width:0.25;"/>
<line x1="441.700000" y1="70.000000" x2="457.700000" y2="70.000000"  style="stroke:black; stroke-linecap:round; stroke-width:0.25;"/>
<line x1="457.700000" y1="70.000000" x2="473.700000" y2="70.000000"  style="stroke:black; stroke-linecap:round; stroke-width:0.25;"/>
<line x1="469.700000" y1="50.000000" x2="473.700000" y2="50.000000"  style="stroke:black; stroke-linecap:round; stroke-width:0.25;"/>
<line x1="473.700000" y1="24.000000" x2="481.700000" y2="24.000000"  style="stroke:black; stroke-linecap:round; stroke-width:0.25;"/>
<line x1="473.700000" y1="50.000000" x2="473.700000" y2="24.000000"  style="stroke:black; stroke-linecap:round; stroke-width:0.25;"/>
<line x1="473.700000" y1="50.000000" x2="473.700000" y2="50.000000"  style="stroke:black; stroke-linecap:round; stroke-width:0.25;"/>
<line x1="473.700000" y1="70.000000" x2="481.700000" y2="70.000000"  style="stroke:black; stroke-linecap:round; stroke-width:0.25;"/>
<line x1="481.700000" y1="70.000000" x2="481.700000" y2="84.000000"  style="stroke:black; stroke-linecap:round; stroke-width:0.25;"/>
<line x1="481.700000" y1="84.000000" x2="481.700000" y2="84.000000"  style="stroke:black; stroke-linecap:round; stroke-width:0.25;"/>
<line x1="481.700000" y1="24.000000" x2="592.450000" y2="24.000000"  style="stroke:black; stroke-linecap:round; stroke-width:0.25;"/>
<line x1="481.700000" y1="84.000000" x2="592.450000" y2="84.000000"  style="stroke:black; stroke-linecap:round; stroke-width:0.25;"/>
<line x1="592.450000" y1="24.000000" x2="703.200000" y2="24.000000"  style="stroke:black; stroke-linecap:round; stroke-width:0.25;"/>
<line x1="592.450000" y1="84.000000" x2="703.200000" y2="84.000000"  style="stroke:black; stroke-linecap:round; stroke-width:0.25;"/>
<line x1="689.200000" y1="54.000000" x2="693.200000" y2="54.000000"  style="stroke:black; stroke-linecap:round; stroke-width:0.25;"/>
<line x1="693.200000" y1="54.000000" x2="703.200000" y2="54.000000"  style="stroke:black; stroke-linecap:round; stroke-width:0.25;"/>
<line x1="703.200000" y1="24.000000" x2="711.200000" y2="24.000000"  style="stroke:black; stroke-linecap:round; stroke-width:0.25;"/>
<line x1="703.200000" y1="54.000000" x2="711.200000" y2="54.000000"  style="stroke:black; stroke-linecap:round; stroke-width:0.25;"/>
<line x1="703.200000" y1="70.000000" x2="711.200000" y2="70.000000"  style="stroke:black; stroke-linecap:round; stroke-width:0.25;"/>
<line x1="703.200000" y1="84.000000" x2="703.200000" y2="70.000000"  style="stroke:black; stroke-linecap:round; stroke-width:0.25;"/>
<line x1="703.200000" y1="84.000000" x2="703.200000" y2="84.000000"  style="stroke:black; stroke-linecap:round; stroke-width:0.25;"/>
<line x1="711.200000" y1="24.000000" x2="711.200000" y2="46.000000"  style="stroke:black; stroke-linecap:round; stroke-width:0.25;"/>
<line x1="711.200000" y1="46.000000" x2="711.200000" y2="46.000000"  style="stroke:black; stroke-linecap:round; stroke-width:0.25;"/>
<line x1="711.200000" y1="46.000000" x2="715.200000" y2="46.000000"  style="stroke:black; stroke-linecap:round; stroke-width:0.25;"/>
<line x1="711.200000" y1="54.000000" x2="715.200000" y2="54.000000"  style="stroke:black; stroke-linecap:round; stroke-width:0.25;"/>
<line x1="711.200000" y1="70.000000" x2="727.200000" y2="70.000000"  style="stroke:black; stroke-linecap:round; stroke-width:0.25;"/>
<line x1="727.200000" y1="70.000000" x2="743.200000" y2="70.000000"  style="stroke:black; stroke-linecap:round; stroke-width:0.25;"/>
<line x1="739.200000" y1="50.000000" x2="743.200000" y2="50.000000"  style="stroke:black; stroke-linecap:round; stroke-width:0.25;"/>
<line x1="743.200000" y1="34.000000" x2="751.200000" y2="34.000000"  style="stroke:black; stroke-linecap:round; stroke-width:0.25;"/>
<line x1="743.200000" y1="50.000000" x2="743.200000" y2="34.000000"  style="stroke:black; stroke-linecap:round; stroke-width:0.25;"/>
<line x1="743.200000" y1="50.000000" x2="743.200000" y2="50.000000"  style="stroke:black; stroke-linecap:round; stroke-width:0.25;"/>
<line x1="743.200000" y1="70.000000" x2="751.200000" y2="70.000000"  style="stroke:black; stroke-linecap:round; stroke-width:0.25;"/>
<line x1="751.200000" y1="34.000000" x2="767.200000" y2="34.000000"  style="stroke:black; stroke-linecap:round; stroke-width:0.25;"/>
<line x1="751.200000" y1="70.000000" x2="751.200000" y2="74.000000"  style="stroke:black; stroke-linecap:round; stroke-width:0.25;"/>
<line x1="751.200000" y1="74.000000" x2="751.200000" y2="74.000000"  style="stroke:black; stroke-linecap:round; stroke-width:0.25;"/>
<line x1="751.200000" y1="74.000000" x2="787.200000" y2="74.000000"  style="stroke:black; stroke-linecap:round; stroke-width:0.25;"/>
<line x1="767.200000" y1="34.000000" x2="783.200000" y2="34.000000"  style="stroke:black; stroke-linecap:round; stroke-width:0.25;"/>
<line x1="779.200000" y1="54.000000" x2="783.200000" y2="54.000000"  style="stroke:black; stroke-linecap:round; stroke-width:0.25;"/>
<line x1="783.200000" y1="34.000000" x2="791.200000" y2="34.000000"  style="stroke:black; stroke-linecap:round; stroke-width:0.25;"/>
<line x1="783.200000" y1="54.000000" x2="791.200000" y2="54.000000"  style="stroke:black; stroke-linecap:round; stroke-width:0.25;"/>
<line x1="787.200000" y1="74.000000" x2="823.200000" y2="74.000000"  style="stroke:black; stroke-linecap:round; stroke-width:0.25;"/>
<line x1="791.200000" y1="34.000000" x2="791.200000" y2="46.000000"  style="stroke:black; stroke-linecap:round; stroke-width:0.25;"/>
<line x1="791.200000" y1="46.000000" x2="791.200000" y2="46.000000"  style="stroke:black; stroke-linecap:round; stroke-width:0.25;"/>
<line x1="791.200000" y1="46.000000" x2="795.200000" y2="46.000000"  style="stroke:black; stroke-linecap:round; stroke-width:0.25;"/>
<line x1="791.200000" y1="54.000000" x2="795.200000" y2="54.000000"  style="stroke:black; stroke-linecap:round; stroke-width:0.25;"/>
<line x1="819.200000" y1="50.000000" x2="823.200000" y2="50.000000"  style="stroke:black; stroke-linecap:round; stroke-width:0.25;"/>
<line x1="823.200000" y1="50.000000" x2="831.200000" y2="50.000000"  style="stroke:black; stroke-linecap:round; stroke-width:0.25;"/>
<line x1="823.200000" y1="58.000000" x2="831.200000" y2="58.000000"  style="stroke:black; stroke-linecap:round; stroke-width:0.25;"/>
<line x1="823.200000" y1="74.000000" x2="823.200000" y2="58.000000"  style="stroke:black; stroke-linecap:round; stroke-width:0.25;"/>
<line x1="823.200000" y1="74.000000" x2="823.200000" y2="74.000000"  style="stroke:black; stroke-linecap:round; stroke-width:0.25;"/>
<line x1="831.200000" y1="50.000000" x2="835.200000" y2="50.000000"  style="stroke:black; stroke-linecap:round; stroke-width:0.25;"/>
<line x1="831.200000" y1="58.000000" x2="835.200000" y2="58.000000"  style="stroke:black; stroke-linecap:round; stroke-width:0.25;"/>
<line x1="835.200000" y1="50.000000" x2="839.200000" y2="50.000000"  style="stroke:black; stroke-linecap:round; stroke-width:0.25;"/>
<line x1="835.200000" y1="58.000000" x2="839.200000" y2="58.000000"  style="stroke:black; stroke-linecap:round; stroke-width:0.25;"/>
<line x1="839.200000" y1="50.000000" x2="849.200000" y2="50.000000"  style="stroke:black; stroke-linecap:round; stroke-width:0.25;"/>
<line x1="839.200000" y1="58.000000" x2="849.200000" y2="58.000000"  style="stroke:black; stroke-linecap:round; stroke-width:0.25;"/>
</svg>
