<?xml version="1.0"?>
<svg xmlns="http://www.w3.org/2000/svg" xmlns:xlink="http://www.w3.org/1999/xlink" viewBox="0 0 413.600000 176.000000" width="206.800000mm" height="88.000000mm" version="1.1">
<a xlink:href="wc-0x7ffa8b5b36e0.svg">
<rect x="1.000000" y="1.000000" width="412.600000" height="175.000000" rx="0" ry="0" style="stroke:none;fill:#cccccc;"/>
<rect x="0.000000" y="0.000000" width="412.600000" height="175.000000" rx="0" ry="0" style="stroke:none;fill:#ffffff;"/>
</a>
<text x="10.000000" y="7.000000" font-family="Arial" font-size="7"></text>
<rect x="25.000000" y="25.000000" width="245.100000" height="24.000000" rx="0" ry="0" style="stroke:none;fill:#cccccc;"/>
<rect x="24.000000" y="24.000000" width="245.100000" height="24.000000" rx="0" ry="0" style="stroke:none;fill:#477881;"/>
<text x="146.550000" y="38.000000" font-family="Arial" font-size="7" text-anchor="middle" fill="#FFFFFF">hslider(Frequency 2, 8.2e+02f, 6.6e+02f, 1.1e+03f, 0.01f)</text>
<circle cx="26.000000" cy="26.000000" r="1"/>
<a xlink:href="smooth-0x7ffa8d0c1400.svg">
<rect x="278.100000" y="25.000000" width="64.500000" height="24.000000" rx="0" ry="0" style="stroke:none;fill:#cccccc;"/>
<rect x="277.100000" y="24.000000" width="64.500000" height="24.000000" rx="0" ry="0" style="stroke:none;fill:#003366;"/>
</a>
<a xlink:href="smooth-0x7ffa8d0c1400.svg">
<text x="309.350000" y="38.000000" font-family="Arial" font-size="7" text-anchor="middle" fill="#FFFFFF">smooth(0.999f)</text>
</a>
<circle cx="279.100000" cy="26.000000" r="1"/>
<line x1="274.100000" y1="35.000000" x2="277.100000" y2="36.000000"  transform="rotate(0.000000,277.100000,36.000000)" style="stroke: black; stroke-width:0.25;"/>
<line x1="274.100000" y1="37.000000" x2="277.100000" y2="36.000000"  transform="rotate(0.000000,277.100000,36.000000)" style="stroke: black; stroke-width:0.25;"/>
<rect x="151.800000" y="67.000000" width="24.000000" height="24.000000" rx="0" ry="0" style="stroke:none;fill:#cccccc;"/>
<rect x="150.800000" y="66.000000" width="24.000000" height="24.000000" rx="0" ry="0" style="stroke:none;fill:#f44800;"/>
<text x="162.800000" y="80.000000" font-family="Arial" font-size="7" text-anchor="middle" fill="#FFFFFF">0</text>
<circle cx="152.800000" cy="68.000000" r="1"/>
<line x1="141.800000" y1="57.000000" x2="141.800000" y2="99.000000"  style="stroke: black; stroke-linecap:round; stroke-width:0.25; stroke-dasharray:3,3;"/>
<line x1="141.800000" y1="99.000000" x2="183.800000" y2="99.000000"  style="stroke: black; stroke-linecap:round; stroke-width:0.25; stroke-dasharray:3,3;"/>
<line x1="183.800000" y1="99.000000" x2="183.800000" y2="57.000000"  style="stroke: black; stroke-linecap:round; stroke-width:0.25; stroke-dasharray:3,3;"/>
<line x1="141.800000" y1="57.000000" x2="146.800000" y2="57.000000"  style="stroke: black; stroke-linecap:round; stroke-width:0.25; stroke-dasharray:3,3;"/>
<line x1="159.700000" y1="57.000000" x2="183.800000" y2="57.000000"  style="stroke: black; stroke-linecap:round; stroke-width:0.25; stroke-dasharray:3,3;"/>
<text x="146.800000" y="59.000000" font-family="Arial" font-size="7">b2</text>
<rect x="151.800000" y="119.000000" width="24.000000" height="24.000000" rx="0" ry="0" style="stroke:none;fill:#cccccc;"/>
<rect x="150.800000" y="118.000000" width="24.000000" height="24.000000" rx="0" ry="0" style="stroke:none;fill:#f44800;"/>
<text x="162.800000" y="132.000000" font-family="Arial" font-size="7" text-anchor="middle" fill="#FFFFFF">1</text>
<circle cx="152.800000" cy="120.000000" r="1"/>
<line x1="141.800000" y1="109.000000" x2="141.800000" y2="151.000000"  style="stroke: black; stroke-linecap:round; stroke-width:0.25; stroke-dasharray:3,3;"/>
<line x1="141.800000" y1="151.000000" x2="183.800000" y2="151.000000"  style="stroke: black; stroke-linecap:round; stroke-width:0.25; stroke-dasharray:3,3;"/>
<line x1="183.800000" y1="151.000000" x2="183.800000" y2="109.000000"  style="stroke: black; stroke-linecap:round; stroke-width:0.25; stroke-dasharray:3,3;"/>
<line x1="141.800000" y1="109.000000" x2="146.800000" y2="109.000000"  style="stroke: black; stroke-linecap:round; stroke-width:0.25; stroke-dasharray:3,3;"/>
<line x1="159.700000" y1="109.000000" x2="183.800000" y2="109.000000"  style="stroke: black; stroke-linecap:round; stroke-width:0.25; stroke-dasharray:3,3;"/>
<text x="146.800000" y="111.000000" font-family="Arial" font-size="7">b1</text>
<rect x="201.800000" y="93.000000" width="24.000000" height="24.000000" rx="0" ry="0" style="stroke:none;fill:#cccccc;"/>
<rect x="200.800000" y="92.000000" width="24.000000" height="24.000000" rx="0" ry="0" style="stroke:none;fill:#4B71A1;"/>
<text x="212.800000" y="106.000000" font-family="Arial" font-size="7" text-anchor="middle" fill="#FFFFFF">+</text>
<circle cx="202.800000" cy="94.000000" r="1"/>
<line x1="197.800000" y1="99.000000" x2="200.800000" y2="100.000000"  transform="rotate(0.000000,200.800000,100.000000)" style="stroke: black; stroke-width:0.25;"/>
<line x1="197.800000" y1="101.000000" x2="200.800000" y2="100.000000"  transform="rotate(0.000000,200.800000,100.000000)" style="stroke: black; stroke-width:0.25;"/>
<line x1="197.800000" y1="107.000000" x2="200.800000" y2="108.000000"  transform="rotate(0.000000,200.800000,108.000000)" style="stroke: black; stroke-width:0.25;"/>
<line x1="197.800000" y1="109.000000" x2="200.800000" y2="108.000000"  transform="rotate(0.000000,200.800000,108.000000)" style="stroke: black; stroke-width:0.25;"/>
<rect x="358.600000" y="77.000000" width="24.000000" height="24.000000" rx="0" ry="0" style="stroke:none;fill:#cccccc;"/>
<rect x="357.600000" y="76.000000" width="24.000000" height="24.000000" rx="0" ry="0" style="stroke:none;fill:#4B71A1;"/>
<text x="369.600000" y="90.000000" font-family="Arial" font-size="7" text-anchor="middle" fill="#FFFFFF">*</text>
<circle cx="359.600000" cy="78.000000" r="1"/>
<line x1="354.600000" y1="83.000000" x2="357.600000" y2="84.000000"  transform="rotate(0.000000,357.600000,84.000000)" style="stroke: black; stroke-width:0.25;"/>
<line x1="354.600000" y1="85.000000" x2="357.600000" y2="84.000000"  transform="rotate(0.000000,357.600000,84.000000)" style="stroke: black; stroke-width:0.25;"/>
<line x1="354.600000" y1="91.000000" x2="357.600000" y2="92.000000"  transform="rotate(0.000000,357.600000,92.000000)" style="stroke: black; stroke-width:0.25;"/>
<line x1="354.600000" y1="93.000000" x2="357.600000" y2="92.000000"  transform="rotate(0.000000,357.600000,92.000000)" style="stroke: black; stroke-width:0.25;"/>
<line x1="15.000000" y1="15.000000" x2="15.000000" y2="161.000000"  style="stroke: black; stroke-linecap:round; stroke-width:0.25; stroke-dasharray:3,3;"/>
<line x1="15.000000" y1="161.000000" x2="398.600000" y2="161.000000"  style="stroke: black; stroke-linecap:round; stroke-width:0.25; stroke-dasharray:3,3;"/>
<line x1="398.600000" y1="161.000000" x2="398.600000" y2="15.000000"  style="stroke: black; stroke-linecap:round; stroke-width:0.25; stroke-dasharray:3,3;"/>
<line x1="15.000000" y1="15.000000" x2="20.000000" y2="15.000000"  style="stroke: black; stroke-linecap:round; stroke-width:0.25; stroke-dasharray:3,3;"/>
<line x1="61.925000" y1="15.000000" x2="398.600000" y2="15.000000"  style="stroke: black; stroke-linecap:round; stroke-width:0.25; stroke-dasharray:3,3;"/>
<text x="20.000000" y="17.000000" font-family="Arial" font-size="7">hight(2)(0)</text>
<line x1="400.600000" y1="87.000000" x2="403.600000" y2="88.000000"  transform="rotate(0.000000,403.600000,88.000000)" style="stroke: black; stroke-width:0.25;"/>
<line x1="400.600000" y1="89.000000" x2="403.600000" y2="88.000000"  transform="rotate(0.000000,403.600000,88.000000)" style="stroke: black; stroke-width:0.25;"/>
<line x1="174.800000" y1="78.000000" x2="178.800000" y2="78.000000"  style="stroke:black; stroke-linecap:round; stroke-width:0.25;"/>
<line x1="174.800000" y1="130.000000" x2="178.800000" y2="130.000000"  style="stroke:black; stroke-linecap:round; stroke-width:0.25;"/>
<line x1="178.800000" y1="78.000000" x2="188.800000" y2="78.000000"  style="stroke:black; stroke-linecap:round; stroke-width:0.25;"/>
<line x1="178.800000" y1="130.000000" x2="188.800000" y2="130.000000"  style="stroke:black; stroke-linecap:round; stroke-width:0.25;"/>
<line x1="188.800000" y1="78.000000" x2="196.800000" y2="78.000000"  style="stroke:black; stroke-linecap:round; stroke-width:0.25;"/>
<line x1="188.800000" y1="108.000000" x2="196.800000" y2="108.000000"  style="stroke:black; stroke-linecap:round; stroke-width:0.25;"/>
<line x1="188.800000" y1="130.000000" x2="188.800000" y2="108.000000"  style="stroke:black; stroke-linecap:round; stroke-width:0.25;"/>
<line x1="188.800000" y1="130.000000" x2="188.800000" y2="130.000000"  style="stroke:black; stroke-linecap:round; stroke-width:0.25;"/>
<line x1="196.800000" y1="78.000000" x2="196.800000" y2="100.000000"  style="stroke:black; stroke-linecap:round; stroke-width:0.25;"/>
<line x1="196.800000" y1="100.000000" x2="196.800000" y2="100.000000"  style="stroke:black; stroke-linecap:round; stroke-width:0.25;"/>
<line x1="196.800000" y1="100.000000" x2="200.800000" y2="100.000000"  style="stroke:black; stroke-linecap:round; stroke-width:0.25;"/>
<line x1="196.800000" y1="108.000000" x2="200.800000" y2="108.000000"  style="stroke:black; stroke-linecap:round; stroke-width:0.25;"/>
<line x1="224.800000" y1="104.000000" x2="228.800000" y2="104.000000"  style="stroke:black; stroke-linecap:round; stroke-width:0.25;"/>
<line x1="228.800000" y1="104.000000" x2="345.600000" y2="104.000000"  style="stroke:black; stroke-linecap:round; stroke-width:0.25;"/>
<line x1="269.100000" y1="36.000000" x2="273.100000" y2="36.000000"  style="stroke:black; stroke-linecap:round; stroke-width:0.25;"/>
<line x1="273.100000" y1="36.000000" x2="273.100000" y2="36.000000"  style="stroke:black; stroke-linecap:round; stroke-width:0.25;"/>
<line x1="273.100000" y1="36.000000" x2="277.100000" y2="36.000000"  style="stroke:black; stroke-linecap:round; stroke-width:0.25;"/>
<line x1="341.600000" y1="36.000000" x2="345.600000" y2="36.000000"  style="stroke:black; stroke-linecap:round; stroke-width:0.25;"/>
<line x1="345.600000" y1="36.000000" x2="353.600000" y2="36.000000"  style="stroke:black; stroke-linecap:round; stroke-width:0.25;"/>
<line x1="345.600000" y1="92.000000" x2="353.600000" y2="92.000000"  style="stroke:black; stroke-linecap:round; stroke-width:0.25;"/>
<line x1="345.600000" y1="104.000000" x2="345.600000" y2="92.000000"  style="stroke:black; stroke-linecap:round; stroke-width:0.25;"/>
<line x1="345.600000" y1="104.000000" x2="345.600000" y2="104.000000"  style="stroke:black; stroke-linecap:round; stroke-width:0.25;"/>
<line x1="353.600000" y1="36.000000" x2="353.600000" y2="84.000000"  style="stroke:black; stroke-linecap:round; stroke-width:0.25;"/>
<line x1="353.600000" y1="84.000000" x2="353.600000" y2="84.000000"  style="stroke:black; stroke-linecap:round; stroke-width:0.25;"/>
<line x1="353.600000" y1="84.000000" x2="357.600000" y2="84.000000"  style="stroke:black; stroke-linecap:round; stroke-width:0.25;"/>
<line x1="353.600000" y1="92.000000" x2="357.600000" y2="92.000000"  style="stroke:black; stroke-linecap:round; stroke-width:0.25;"/>
<line x1="381.600000" y1="88.000000" x2="385.600000" y2="88.000000"  style="stroke:black; stroke-linecap:round; stroke-width:0.25;"/>
<line x1="385.600000" y1="88.000000" x2="385.600000" y2="88.000000"  style="stroke:black; stroke-linecap:round; stroke-width:0.25;"/>
<line x1="385.600000" y1="88.000000" x2="389.600000" y2="88.000000"  style="stroke:black; stroke-linecap:round; stroke-width:0.25;"/>
<line x1="389.600000" y1="88.000000" x2="393.600000" y2="88.000000"  style="stroke:black; stroke-linecap:round; stroke-width:0.25;"/>
<line x1="393.600000" y1="88.000000" x2="403.600000" y2="88.000000"  style="stroke:black; stroke-linecap:round; stroke-width:0.25;"/>
</svg>
