<?xml version="1.0"?>
<svg xmlns="http://www.w3.org/2000/svg" xmlns:xlink="http://www.w3.org/1999/xlink" viewBox="0 0 455.300000 428.000000" width="227.650000mm" height="214.000000mm" version="1.1">
<a xlink:href="env-0x7ffa8e739170.svg">
<rect x="1.000000" y="1.000000" width="454.300000" height="427.000000" rx="0" ry="0" style="stroke:none;fill:#cccccc;"/>
<rect x="0.000000" y="0.000000" width="454.300000" height="427.000000" rx="0" ry="0" style="stroke:none;fill:#ffffff;"/>
</a>
<text x="10.000000" y="7.000000" font-family="Arial" font-size="7"></text>
<rect x="132.650000" y="25.000000" width="24.000000" height="24.000000" rx="0" ry="0" style="stroke:none;fill:#cccccc;"/>
<rect x="131.650000" y="24.000000" width="24.000000" height="24.000000" rx="0" ry="0" style="stroke:none;fill:#47945E;"/>
<text x="143.650000" y="38.000000" font-family="Arial" font-size="7" text-anchor="middle" fill="#FFFFFF">p2</text>
<circle cx="133.650000" cy="26.000000" r="1"/>
<rect x="132.650000" y="67.000000" width="24.000000" height="24.000000" rx="0" ry="0" style="stroke:none;fill:#cccccc;"/>
<rect x="131.650000" y="66.000000" width="24.000000" height="24.000000" rx="0" ry="0" style="stroke:none;fill:#f44800;"/>
<text x="143.650000" y="80.000000" font-family="Arial" font-size="7" text-anchor="middle" fill="#FFFFFF">0</text>
<circle cx="133.650000" cy="68.000000" r="1"/>
<line x1="122.650000" y1="57.000000" x2="122.650000" y2="99.000000"  style="stroke: black; stroke-linecap:round; stroke-width:0.25; stroke-dasharray:3,3;"/>
<line x1="122.650000" y1="99.000000" x2="164.650000" y2="99.000000"  style="stroke: black; stroke-linecap:round; stroke-width:0.25; stroke-dasharray:3,3;"/>
<line x1="164.650000" y1="99.000000" x2="164.650000" y2="57.000000"  style="stroke: black; stroke-linecap:round; stroke-width:0.25; stroke-dasharray:3,3;"/>
<line x1="122.650000" y1="57.000000" x2="127.650000" y2="57.000000"  style="stroke: black; stroke-linecap:round; stroke-width:0.25; stroke-dasharray:3,3;"/>
<line x1="140.550000" y1="57.000000" x2="164.650000" y2="57.000000"  style="stroke: black; stroke-linecap:round; stroke-width:0.25; stroke-dasharray:3,3;"/>
<text x="127.650000" y="59.000000" font-family="Arial" font-size="7">b2</text>
<rect x="182.650000" y="51.000000" width="24.000000" height="24.000000" rx="0" ry="0" style="stroke:none;fill:#cccccc;"/>
<rect x="181.650000" y="50.000000" width="24.000000" height="24.000000" rx="0" ry="0" style="stroke:none;fill:#4B71A1;"/>
<text x="193.650000" y="64.000000" font-family="Arial" font-size="7" text-anchor="middle" fill="#FFFFFF">==</text>
<circle cx="183.650000" cy="52.000000" r="1"/>
<line x1="178.650000" y1="57.000000" x2="181.650000" y2="58.000000"  transform="rotate(0.000000,181.650000,58.000000)" style="stroke: black; stroke-width:0.25;"/>
<line x1="178.650000" y1="59.000000" x2="181.650000" y2="58.000000"  transform="rotate(0.000000,181.650000,58.000000)" style="stroke: black; stroke-width:0.25;"/>
<line x1="178.650000" y1="65.000000" x2="181.650000" y2="66.000000"  transform="rotate(0.000000,181.650000,66.000000)" style="stroke: black; stroke-width:0.25;"/>
<line x1="178.650000" y1="67.000000" x2="181.650000" y2="66.000000"  transform="rotate(0.000000,181.650000,66.000000)" style="stroke: black; stroke-width:0.25;"/>
<rect x="35.000000" y="119.000000" width="219.300000" height="24.000000" rx="0" ry="0" style="stroke:none;fill:#cccccc;"/>
<rect x="34.000000" y="118.000000" width="219.300000" height="24.000000" rx="0" ry="0" style="stroke:none;fill:#477881;"/>
<text x="143.650000" y="132.000000" font-family="Arial" font-size="7" text-anchor="middle" fill="#FFFFFF">hslider(Envelope ON/OFF 0, 1.0f, 0.0f, 1.0f, 1.0f)</text>
<circle cx="36.000000" cy="120.000000" r="1"/>
<line x1="25.000000" y1="109.000000" x2="25.000000" y2="151.000000"  style="stroke: black; stroke-linecap:round; stroke-width:0.25; stroke-dasharray:3,3;"/>
<line x1="25.000000" y1="151.000000" x2="262.300000" y2="151.000000"  style="stroke: black; stroke-linecap:round; stroke-width:0.25; stroke-dasharray:3,3;"/>
<line x1="262.300000" y1="151.000000" x2="262.300000" y2="109.000000"  style="stroke: black; stroke-linecap:round; stroke-width:0.25; stroke-dasharray:3,3;"/>
<line x1="25.000000" y1="109.000000" x2="30.000000" y2="109.000000"  style="stroke: black; stroke-linecap:round; stroke-width:0.25; stroke-dasharray:3,3;"/>
<line x1="49.350000" y1="109.000000" x2="262.300000" y2="109.000000"  style="stroke: black; stroke-linecap:round; stroke-width:0.25; stroke-dasharray:3,3;"/>
<text x="30.000000" y="111.000000" font-family="Arial" font-size="7">t(0)</text>
<rect x="132.650000" y="171.000000" width="24.000000" height="24.000000" rx="0" ry="0" style="stroke:none;fill:#cccccc;"/>
<rect x="131.650000" y="170.000000" width="24.000000" height="24.000000" rx="0" ry="0" style="stroke:none;fill:#f44800;"/>
<text x="143.650000" y="184.000000" font-family="Arial" font-size="7" text-anchor="middle" fill="#FFFFFF">0</text>
<circle cx="133.650000" cy="172.000000" r="1"/>
<line x1="122.650000" y1="161.000000" x2="122.650000" y2="203.000000"  style="stroke: black; stroke-linecap:round; stroke-width:0.25; stroke-dasharray:3,3;"/>
<line x1="122.650000" y1="203.000000" x2="164.650000" y2="203.000000"  style="stroke: black; stroke-linecap:round; stroke-width:0.25; stroke-dasharray:3,3;"/>
<line x1="164.650000" y1="203.000000" x2="164.650000" y2="161.000000"  style="stroke: black; stroke-linecap:round; stroke-width:0.25; stroke-dasharray:3,3;"/>
<line x1="122.650000" y1="161.000000" x2="127.650000" y2="161.000000"  style="stroke: black; stroke-linecap:round; stroke-width:0.25; stroke-dasharray:3,3;"/>
<line x1="140.550000" y1="161.000000" x2="164.650000" y2="161.000000"  style="stroke: black; stroke-linecap:round; stroke-width:0.25; stroke-dasharray:3,3;"/>
<text x="127.650000" y="163.000000" font-family="Arial" font-size="7">b2</text>
<rect x="280.300000" y="145.000000" width="24.000000" height="24.000000" rx="0" ry="0" style="stroke:none;fill:#cccccc;"/>
<rect x="279.300000" y="144.000000" width="24.000000" height="24.000000" rx="0" ry="0" style="stroke:none;fill:#4B71A1;"/>
<text x="291.300000" y="158.000000" font-family="Arial" font-size="7" text-anchor="middle" fill="#FFFFFF">&gt;</text>
<circle cx="281.300000" cy="146.000000" r="1"/>
<line x1="276.300000" y1="151.000000" x2="279.300000" y2="152.000000"  transform="rotate(0.000000,279.300000,152.000000)" style="stroke: black; stroke-width:0.25;"/>
<line x1="276.300000" y1="153.000000" x2="279.300000" y2="152.000000"  transform="rotate(0.000000,279.300000,152.000000)" style="stroke: black; stroke-width:0.25;"/>
<line x1="276.300000" y1="159.000000" x2="279.300000" y2="160.000000"  transform="rotate(0.000000,279.300000,160.000000)" style="stroke: black; stroke-width:0.25;"/>
<line x1="276.300000" y1="161.000000" x2="279.300000" y2="160.000000"  transform="rotate(0.000000,279.300000,160.000000)" style="stroke: black; stroke-width:0.25;"/>
<rect x="320.300000" y="103.000000" width="24.000000" height="24.000000" rx="0" ry="0" style="stroke:none;fill:#cccccc;"/>
<rect x="319.300000" y="102.000000" width="24.000000" height="24.000000" rx="0" ry="0" style="stroke:none;fill:#4B71A1;"/>
<text x="331.300000" y="116.000000" font-family="Arial" font-size="7" text-anchor="middle" fill="#FFFFFF">&amp;</text>
<circle cx="321.300000" cy="104.000000" r="1"/>
<line x1="316.300000" y1="109.000000" x2="319.300000" y2="110.000000"  transform="rotate(0.000000,319.300000,110.000000)" style="stroke: black; stroke-width:0.25;"/>
<line x1="316.300000" y1="111.000000" x2="319.300000" y2="110.000000"  transform="rotate(0.000000,319.300000,110.000000)" style="stroke: black; stroke-width:0.25;"/>
<line x1="316.300000" y1="117.000000" x2="319.300000" y2="118.000000"  transform="rotate(0.000000,319.300000,118.000000)" style="stroke: black; stroke-width:0.25;"/>
<line x1="316.300000" y1="119.000000" x2="319.300000" y2="118.000000"  transform="rotate(0.000000,319.300000,118.000000)" style="stroke: black; stroke-width:0.25;"/>
<rect x="152.650000" y="213.000000" width="24.000000" height="24.000000" rx="0" ry="0" style="stroke:none;fill:#cccccc;"/>
<rect x="151.650000" y="212.000000" width="24.000000" height="24.000000" rx="0" ry="0" style="stroke:none;fill:#47945E;"/>
<text x="163.650000" y="226.000000" font-family="Arial" font-size="7" text-anchor="middle" fill="#FFFFFF">y</text>
<circle cx="153.650000" cy="214.000000" r="1"/>
<rect x="152.650000" y="255.000000" width="24.000000" height="24.000000" rx="0" ry="0" style="stroke:none;fill:#cccccc;"/>
<rect x="151.650000" y="254.000000" width="24.000000" height="24.000000" rx="0" ry="0" style="stroke:none;fill:#f44800;"/>
<text x="163.650000" y="268.000000" font-family="Arial" font-size="7" text-anchor="middle" fill="#FFFFFF">1</text>
<circle cx="153.650000" cy="256.000000" r="1"/>
<line x1="142.650000" y1="245.000000" x2="142.650000" y2="287.000000"  style="stroke: black; stroke-linecap:round; stroke-width:0.25; stroke-dasharray:3,3;"/>
<line x1="142.650000" y1="287.000000" x2="184.650000" y2="287.000000"  style="stroke: black; stroke-linecap:round; stroke-width:0.25; stroke-dasharray:3,3;"/>
<line x1="184.650000" y1="287.000000" x2="184.650000" y2="245.000000"  style="stroke: black; stroke-linecap:round; stroke-width:0.25; stroke-dasharray:3,3;"/>
<line x1="142.650000" y1="245.000000" x2="147.650000" y2="245.000000"  style="stroke: black; stroke-linecap:round; stroke-width:0.25; stroke-dasharray:3,3;"/>
<line x1="160.550000" y1="245.000000" x2="184.650000" y2="245.000000"  style="stroke: black; stroke-linecap:round; stroke-width:0.25; stroke-dasharray:3,3;"/>
<text x="147.650000" y="247.000000" font-family="Arial" font-size="7">b1</text>
<rect x="202.650000" y="239.000000" width="24.000000" height="24.000000" rx="0" ry="0" style="stroke:none;fill:#cccccc;"/>
<rect x="201.650000" y="238.000000" width="24.000000" height="24.000000" rx="0" ry="0" style="stroke:none;fill:#4B71A1;"/>
<text x="213.650000" y="252.000000" font-family="Arial" font-size="7" text-anchor="middle" fill="#FFFFFF">&lt;</text>
<circle cx="203.650000" cy="240.000000" r="1"/>
<line x1="198.650000" y1="245.000000" x2="201.650000" y2="246.000000"  transform="rotate(0.000000,201.650000,246.000000)" style="stroke: black; stroke-width:0.25;"/>
<line x1="198.650000" y1="247.000000" x2="201.650000" y2="246.000000"  transform="rotate(0.000000,201.650000,246.000000)" style="stroke: black; stroke-width:0.25;"/>
<line x1="198.650000" y1="253.000000" x2="201.650000" y2="254.000000"  transform="rotate(0.000000,201.650000,254.000000)" style="stroke: black; stroke-width:0.25;"/>
<line x1="198.650000" y1="255.000000" x2="201.650000" y2="254.000000"  transform="rotate(0.000000,201.650000,254.000000)" style="stroke: black; stroke-width:0.25;"/>
<rect x="360.300000" y="145.000000" width="24.000000" height="24.000000" rx="0" ry="0" style="stroke:none;fill:#cccccc;"/>
<rect x="359.300000" y="144.000000" width="24.000000" height="24.000000" rx="0" ry="0" style="stroke:none;fill:#4B71A1;"/>
<text x="371.300000" y="158.000000" font-family="Arial" font-size="7" text-anchor="middle" fill="#FFFFFF">&amp;</text>
<circle cx="361.300000" cy="146.000000" r="1"/>
<line x1="356.300000" y1="151.000000" x2="359.300000" y2="152.000000"  transform="rotate(0.000000,359.300000,152.000000)" style="stroke: black; stroke-width:0.25;"/>
<line x1="356.300000" y1="153.000000" x2="359.300000" y2="152.000000"  transform="rotate(0.000000,359.300000,152.000000)" style="stroke: black; stroke-width:0.25;"/>
<line x1="356.300000" y1="159.000000" x2="359.300000" y2="160.000000"  transform="rotate(0.000000,359.300000,160.000000)" style="stroke: black; stroke-width:0.25;"/>
<line x1="356.300000" y1="161.000000" x2="359.300000" y2="160.000000"  transform="rotate(0.000000,359.300000,160.000000)" style="stroke: black; stroke-width:0.25;"/>
<rect x="172.650000" y="297.000000" width="24.000000" height="24.000000" rx="0" ry="0" style="stroke:none;fill:#cccccc;"/>
<rect x="171.650000" y="296.000000" width="24.000000" height="24.000000" rx="0" ry="0" style="stroke:none;fill:#47945E;"/>
<text x="183.650000" y="310.000000" font-family="Arial" font-size="7" text-anchor="middle" fill="#FFFFFF">cnt</text>
<circle cx="173.650000" cy="298.000000" r="1"/>
<rect x="151.750000" y="339.000000" width="25.800000" height="24.000000" rx="0" ry="0" style="stroke:none;fill:#cccccc;"/>
<rect x="150.750000" y="338.000000" width="25.800000" height="24.000000" rx="0" ry="0" style="stroke:none;fill:#f44800;"/>
<text x="163.650000" y="352.000000" font-family="Arial" font-size="7" text-anchor="middle" fill="#FFFFFF">0.25</text>
<circle cx="152.750000" cy="340.000000" r="1"/>
<line x1="141.750000" y1="329.000000" x2="141.750000" y2="371.000000"  style="stroke: black; stroke-linecap:round; stroke-width:0.25; stroke-dasharray:3,3;"/>
<line x1="141.750000" y1="371.000000" x2="185.550000" y2="371.000000"  style="stroke: black; stroke-linecap:round; stroke-width:0.25; stroke-dasharray:3,3;"/>
<line x1="185.550000" y1="371.000000" x2="185.550000" y2="329.000000"  style="stroke: black; stroke-linecap:round; stroke-width:0.25; stroke-dasharray:3,3;"/>
<line x1="141.750000" y1="329.000000" x2="146.750000" y2="329.000000"  style="stroke: black; stroke-linecap:round; stroke-width:0.25; stroke-dasharray:3,3;"/>
<line x1="156.425000" y1="329.000000" x2="185.550000" y2="329.000000"  style="stroke: black; stroke-linecap:round; stroke-width:0.25; stroke-dasharray:3,3;"/>
<text x="146.750000" y="331.000000" font-family="Arial" font-size="7">b</text>
<a xlink:href="samplingfreq-0x7ffa8d0e5020.svg">
<rect x="138.850000" y="381.000000" width="51.600000" height="24.000000" rx="0" ry="0" style="stroke:none;fill:#cccccc;"/>
<rect x="137.850000" y="380.000000" width="51.600000" height="24.000000" rx="0" ry="0" style="stroke:none;fill:#003366;"/>
</a>
<a xlink:href="samplingfreq-0x7ffa8d0e5020.svg">
<text x="163.650000" y="394.000000" font-family="Arial" font-size="7" text-anchor="middle" fill="#FFFFFF">samplingfreq</text>
</a>
<circle cx="139.850000" cy="382.000000" r="1"/>
<rect x="206.450000" y="355.000000" width="24.000000" height="24.000000" rx="0" ry="0" style="stroke:none;fill:#cccccc;"/>
<rect x="205.450000" y="354.000000" width="24.000000" height="24.000000" rx="0" ry="0" style="stroke:none;fill:#4B71A1;"/>
<text x="217.450000" y="368.000000" font-family="Arial" font-size="7" text-anchor="middle" fill="#FFFFFF">*</text>
<circle cx="207.450000" cy="356.000000" r="1"/>
<line x1="202.450000" y1="361.000000" x2="205.450000" y2="362.000000"  transform="rotate(0.000000,205.450000,362.000000)" style="stroke: black; stroke-width:0.25;"/>
<line x1="202.450000" y1="363.000000" x2="205.450000" y2="362.000000"  transform="rotate(0.000000,205.450000,362.000000)" style="stroke: black; stroke-width:0.25;"/>
<line x1="202.450000" y1="369.000000" x2="205.450000" y2="370.000000"  transform="rotate(0.000000,205.450000,370.000000)" style="stroke: black; stroke-width:0.25;"/>
<line x1="202.450000" y1="371.000000" x2="205.450000" y2="370.000000"  transform="rotate(0.000000,205.450000,370.000000)" style="stroke: black; stroke-width:0.25;"/>
<rect x="246.450000" y="339.000000" width="24.000000" height="24.000000" rx="0" ry="0" style="stroke:none;fill:#cccccc;"/>
<rect x="245.450000" y="338.000000" width="24.000000" height="24.000000" rx="0" ry="0" style="stroke:none;fill:#4B71A1;"/>
<text x="257.450000" y="352.000000" font-family="Arial" font-size="7" text-anchor="middle" fill="#FFFFFF">&gt;</text>
<circle cx="247.450000" cy="340.000000" r="1"/>
<line x1="242.450000" y1="345.000000" x2="245.450000" y2="346.000000"  transform="rotate(0.000000,245.450000,346.000000)" style="stroke: black; stroke-width:0.25;"/>
<line x1="242.450000" y1="347.000000" x2="245.450000" y2="346.000000"  transform="rotate(0.000000,245.450000,346.000000)" style="stroke: black; stroke-width:0.25;"/>
<line x1="242.450000" y1="353.000000" x2="245.450000" y2="354.000000"  transform="rotate(0.000000,245.450000,354.000000)" style="stroke: black; stroke-width:0.25;"/>
<line x1="242.450000" y1="355.000000" x2="245.450000" y2="354.000000"  transform="rotate(0.000000,245.450000,354.000000)" style="stroke: black; stroke-width:0.25;"/>
<rect x="400.300000" y="203.000000" width="24.000000" height="24.000000" rx="0" ry="0" style="stroke:none;fill:#cccccc;"/>
<rect x="399.300000" y="202.000000" width="24.000000" height="24.000000" rx="0" ry="0" style="stroke:none;fill:#4B71A1;"/>
<text x="411.300000" y="216.000000" font-family="Arial" font-size="7" text-anchor="middle" fill="#FFFFFF">&amp;</text>
<circle cx="401.300000" cy="204.000000" r="1"/>
<line x1="396.300000" y1="209.000000" x2="399.300000" y2="210.000000"  transform="rotate(0.000000,399.300000,210.000000)" style="stroke: black; stroke-width:0.25;"/>
<line x1="396.300000" y1="211.000000" x2="399.300000" y2="210.000000"  transform="rotate(0.000000,399.300000,210.000000)" style="stroke: black; stroke-width:0.25;"/>
<line x1="396.300000" y1="217.000000" x2="399.300000" y2="218.000000"  transform="rotate(0.000000,399.300000,218.000000)" style="stroke: black; stroke-width:0.25;"/>
<line x1="396.300000" y1="219.000000" x2="399.300000" y2="218.000000"  transform="rotate(0.000000,399.300000,218.000000)" style="stroke: black; stroke-width:0.25;"/>
<line x1="15.000000" y1="15.000000" x2="15.000000" y2="413.000000"  style="stroke: black; stroke-linecap:round; stroke-width:0.25; stroke-dasharray:3,3;"/>
<line x1="15.000000" y1="413.000000" x2="440.300000" y2="413.000000"  style="stroke: black; stroke-linecap:round; stroke-width:0.25; stroke-dasharray:3,3;"/>
<line x1="440.300000" y1="413.000000" x2="440.300000" y2="15.000000"  style="stroke: black; stroke-linecap:round; stroke-width:0.25; stroke-dasharray:3,3;"/>
<line x1="15.000000" y1="15.000000" x2="20.000000" y2="15.000000"  style="stroke: black; stroke-linecap:round; stroke-width:0.25; stroke-dasharray:3,3;"/>
<line x1="32.900000" y1="15.000000" x2="440.300000" y2="15.000000"  style="stroke: black; stroke-linecap:round; stroke-width:0.25; stroke-dasharray:3,3;"/>
<text x="20.000000" y="17.000000" font-family="Arial" font-size="7">p1</text>
<line x1="442.300000" y1="213.000000" x2="445.300000" y2="214.000000"  transform="rotate(0.000000,445.300000,214.000000)" style="stroke: black; stroke-width:0.25;"/>
<line x1="442.300000" y1="215.000000" x2="445.300000" y2="214.000000"  transform="rotate(0.000000,445.300000,214.000000)" style="stroke: black; stroke-width:0.25;"/>
<line x1="155.650000" y1="36.000000" x2="159.650000" y2="36.000000"  style="stroke:black; stroke-linecap:round; stroke-width:0.25;"/>
<line x1="155.650000" y1="78.000000" x2="159.650000" y2="78.000000"  style="stroke:black; stroke-linecap:round; stroke-width:0.25;"/>
<line x1="155.650000" y1="182.000000" x2="159.650000" y2="182.000000"  style="stroke:black; stroke-linecap:round; stroke-width:0.25;"/>
<line x1="159.650000" y1="36.000000" x2="169.650000" y2="36.000000"  style="stroke:black; stroke-linecap:round; stroke-width:0.25;"/>
<line x1="159.650000" y1="78.000000" x2="169.650000" y2="78.000000"  style="stroke:black; stroke-linecap:round; stroke-width:0.25;"/>
<line x1="159.650000" y1="182.000000" x2="169.650000" y2="182.000000"  style="stroke:black; stroke-linecap:round; stroke-width:0.25;"/>
<line x1="169.650000" y1="36.000000" x2="177.650000" y2="36.000000"  style="stroke:black; stroke-linecap:round; stroke-width:0.25;"/>
<line x1="169.650000" y1="66.000000" x2="177.650000" y2="66.000000"  style="stroke:black; stroke-linecap:round; stroke-width:0.25;"/>
<line x1="169.650000" y1="78.000000" x2="169.650000" y2="66.000000"  style="stroke:black; stroke-linecap:round; stroke-width:0.25;"/>
<line x1="169.650000" y1="78.000000" x2="169.650000" y2="78.000000"  style="stroke:black; stroke-linecap:round; stroke-width:0.25;"/>
<line x1="169.650000" y1="182.000000" x2="267.300000" y2="182.000000"  style="stroke:black; stroke-linecap:round; stroke-width:0.25;"/>
<line x1="175.650000" y1="224.000000" x2="179.650000" y2="224.000000"  style="stroke:black; stroke-linecap:round; stroke-width:0.25;"/>
<line x1="175.650000" y1="266.000000" x2="179.650000" y2="266.000000"  style="stroke:black; stroke-linecap:round; stroke-width:0.25;"/>
<line x1="176.550000" y1="350.000000" x2="180.550000" y2="350.000000"  style="stroke:black; stroke-linecap:round; stroke-width:0.25;"/>
<line x1="177.650000" y1="36.000000" x2="177.650000" y2="58.000000"  style="stroke:black; stroke-linecap:round; stroke-width:0.25;"/>
<line x1="177.650000" y1="58.000000" x2="177.650000" y2="58.000000"  style="stroke:black; stroke-linecap:round; stroke-width:0.25;"/>
<line x1="177.650000" y1="58.000000" x2="181.650000" y2="58.000000"  style="stroke:black; stroke-linecap:round; stroke-width:0.25;"/>
<line x1="177.650000" y1="66.000000" x2="181.650000" y2="66.000000"  style="stroke:black; stroke-linecap:round; stroke-width:0.25;"/>
<line x1="179.650000" y1="224.000000" x2="189.650000" y2="224.000000"  style="stroke:black; stroke-linecap:round; stroke-width:0.25;"/>
<line x1="179.650000" y1="266.000000" x2="189.650000" y2="266.000000"  style="stroke:black; stroke-linecap:round; stroke-width:0.25;"/>
<line x1="180.550000" y1="350.000000" x2="190.550000" y2="350.000000"  style="stroke:black; stroke-linecap:round; stroke-width:0.25;"/>
<line x1="189.450000" y1="392.000000" x2="193.450000" y2="392.000000"  style="stroke:black; stroke-linecap:round; stroke-width:0.25;"/>
<line x1="189.650000" y1="224.000000" x2="197.650000" y2="224.000000"  style="stroke:black; stroke-linecap:round; stroke-width:0.25;"/>
<line x1="189.650000" y1="254.000000" x2="197.650000" y2="254.000000"  style="stroke:black; stroke-linecap:round; stroke-width:0.25;"/>
<line x1="189.650000" y1="266.000000" x2="189.650000" y2="254.000000"  style="stroke:black; stroke-linecap:round; stroke-width:0.25;"/>
<line x1="189.650000" y1="266.000000" x2="189.650000" y2="266.000000"  style="stroke:black; stroke-linecap:round; stroke-width:0.25;"/>
<line x1="190.550000" y1="350.000000" x2="193.450000" y2="350.000000"  style="stroke:black; stroke-linecap:round; stroke-width:0.25;"/>
<line x1="193.450000" y1="350.000000" x2="201.450000" y2="350.000000"  style="stroke:black; stroke-linecap:round; stroke-width:0.25;"/>
<line x1="193.450000" y1="370.000000" x2="201.450000" y2="370.000000"  style="stroke:black; stroke-linecap:round; stroke-width:0.25;"/>
<line x1="193.450000" y1="392.000000" x2="193.450000" y2="370.000000"  style="stroke:black; stroke-linecap:round; stroke-width:0.25;"/>
<line x1="193.450000" y1="392.000000" x2="193.450000" y2="392.000000"  style="stroke:black; stroke-linecap:round; stroke-width:0.25;"/>
<line x1="195.650000" y1="308.000000" x2="199.650000" y2="308.000000"  style="stroke:black; stroke-linecap:round; stroke-width:0.25;"/>
<line x1="197.650000" y1="224.000000" x2="197.650000" y2="246.000000"  style="stroke:black; stroke-linecap:round; stroke-width:0.25;"/>
<line x1="197.650000" y1="246.000000" x2="197.650000" y2="246.000000"  style="stroke:black; stroke-linecap:round; stroke-width:0.25;"/>
<line x1="197.650000" y1="246.000000" x2="201.650000" y2="246.000000"  style="stroke:black; stroke-linecap:round; stroke-width:0.25;"/>
<line x1="197.650000" y1="254.000000" x2="201.650000" y2="254.000000"  style="stroke:black; stroke-linecap:round; stroke-width:0.25;"/>
<line x1="199.650000" y1="308.000000" x2="233.450000" y2="308.000000"  style="stroke:black; stroke-linecap:round; stroke-width:0.25;"/>
<line x1="201.450000" y1="350.000000" x2="201.450000" y2="362.000000"  style="stroke:black; stroke-linecap:round; stroke-width:0.25;"/>
<line x1="201.450000" y1="362.000000" x2="201.450000" y2="362.000000"  style="stroke:black; stroke-linecap:round; stroke-width:0.25;"/>
<line x1="201.450000" y1="362.000000" x2="205.450000" y2="362.000000"  style="stroke:black; stroke-linecap:round; stroke-width:0.25;"/>
<line x1="201.450000" y1="370.000000" x2="205.450000" y2="370.000000"  style="stroke:black; stroke-linecap:round; stroke-width:0.25;"/>
<line x1="205.650000" y1="62.000000" x2="209.650000" y2="62.000000"  style="stroke:black; stroke-linecap:round; stroke-width:0.25;"/>
<line x1="209.650000" y1="62.000000" x2="307.300000" y2="62.000000"  style="stroke:black; stroke-linecap:round; stroke-width:0.25;"/>
<line x1="225.650000" y1="250.000000" x2="229.650000" y2="250.000000"  style="stroke:black; stroke-linecap:round; stroke-width:0.25;"/>
<line x1="229.450000" y1="366.000000" x2="233.450000" y2="366.000000"  style="stroke:black; stroke-linecap:round; stroke-width:0.25;"/>
<line x1="229.650000" y1="250.000000" x2="347.300000" y2="250.000000"  style="stroke:black; stroke-linecap:round; stroke-width:0.25;"/>
<line x1="233.450000" y1="354.000000" x2="241.450000" y2="354.000000"  style="stroke:black; stroke-linecap:round; stroke-width:0.25;"/>
<line x1="233.450000" y1="366.000000" x2="233.450000" y2="354.000000"  style="stroke:black; stroke-linecap:round; stroke-width:0.25;"/>
<line x1="233.450000" y1="366.000000" x2="233.450000" y2="366.000000"  style="stroke:black; stroke-linecap:round; stroke-width:0.25;"/>
<line x1="233.450000" y1="308.000000" x2="241.450000" y2="308.000000"  style="stroke:black; stroke-linecap:round; stroke-width:0.25;"/>
<line x1="241.450000" y1="346.000000" x2="245.450000" y2="346.000000"  style="stroke:black; stroke-linecap:round; stroke-width:0.25;"/>
<line x1="241.450000" y1="354.000000" x2="245.450000" y2="354.000000"  style="stroke:black; stroke-linecap:round; stroke-width:0.25;"/>
<line x1="241.450000" y1="308.000000" x2="241.450000" y2="346.000000"  style="stroke:black; stroke-linecap:round; stroke-width:0.25;"/>
<line x1="241.450000" y1="346.000000" x2="241.450000" y2="346.000000"  style="stroke:black; stroke-linecap:round; stroke-width:0.25;"/>
<line x1="253.300000" y1="130.000000" x2="257.300000" y2="130.000000"  style="stroke:black; stroke-linecap:round; stroke-width:0.25;"/>
<line x1="257.300000" y1="130.000000" x2="267.300000" y2="130.000000"  style="stroke:black; stroke-linecap:round; stroke-width:0.25;"/>
<line x1="267.300000" y1="130.000000" x2="275.300000" y2="130.000000"  style="stroke:black; stroke-linecap:round; stroke-width:0.25;"/>
<line x1="267.300000" y1="160.000000" x2="275.300000" y2="160.000000"  style="stroke:black; stroke-linecap:round; stroke-width:0.25;"/>
<line x1="267.300000" y1="182.000000" x2="267.300000" y2="160.000000"  style="stroke:black; stroke-linecap:round; stroke-width:0.25;"/>
<line x1="267.300000" y1="182.000000" x2="267.300000" y2="182.000000"  style="stroke:black; stroke-linecap:round; stroke-width:0.25;"/>
<line x1="269.450000" y1="350.000000" x2="273.450000" y2="350.000000"  style="stroke:black; stroke-linecap:round; stroke-width:0.25;"/>
<line x1="273.450000" y1="350.000000" x2="387.300000" y2="350.000000"  style="stroke:black; stroke-linecap:round; stroke-width:0.25;"/>
<line x1="275.300000" y1="130.000000" x2="275.300000" y2="152.000000"  style="stroke:black; stroke-linecap:round; stroke-width:0.25;"/>
<line x1="275.300000" y1="152.000000" x2="275.300000" y2="152.000000"  style="stroke:black; stroke-linecap:round; stroke-width:0.25;"/>
<line x1="275.300000" y1="152.000000" x2="279.300000" y2="152.000000"  style="stroke:black; stroke-linecap:round; stroke-width:0.25;"/>
<line x1="275.300000" y1="160.000000" x2="279.300000" y2="160.000000"  style="stroke:black; stroke-linecap:round; stroke-width:0.25;"/>
<line x1="303.300000" y1="156.000000" x2="307.300000" y2="156.000000"  style="stroke:black; stroke-linecap:round; stroke-width:0.25;"/>
<line x1="307.300000" y1="62.000000" x2="315.300000" y2="62.000000"  style="stroke:black; stroke-linecap:round; stroke-width:0.25;"/>
<line x1="307.300000" y1="118.000000" x2="315.300000" y2="118.000000"  style="stroke:black; stroke-linecap:round; stroke-width:0.25;"/>
<line x1="307.300000" y1="156.000000" x2="307.300000" y2="118.000000"  style="stroke:black; stroke-linecap:round; stroke-width:0.25;"/>
<line x1="307.300000" y1="156.000000" x2="307.300000" y2="156.000000"  style="stroke:black; stroke-linecap:round; stroke-width:0.25;"/>
<line x1="315.300000" y1="62.000000" x2="315.300000" y2="110.000000"  style="stroke:black; stroke-linecap:round; stroke-width:0.25;"/>
<line x1="315.300000" y1="110.000000" x2="315.300000" y2="110.000000"  style="stroke:black; stroke-linecap:round; stroke-width:0.25;"/>
<line x1="315.300000" y1="110.000000" x2="319.300000" y2="110.000000"  style="stroke:black; stroke-linecap:round; stroke-width:0.25;"/>
<line x1="315.300000" y1="118.000000" x2="319.300000" y2="118.000000"  style="stroke:black; stroke-linecap:round; stroke-width:0.25;"/>
<line x1="343.300000" y1="114.000000" x2="347.300000" y2="114.000000"  style="stroke:black; stroke-linecap:round; stroke-width:0.25;"/>
<line x1="347.300000" y1="114.000000" x2="355.300000" y2="114.000000"  style="stroke:black; stroke-linecap:round; stroke-width:0.25;"/>
<line x1="347.300000" y1="160.000000" x2="355.300000" y2="160.000000"  style="stroke:black; stroke-linecap:round; stroke-width:0.25;"/>
<line x1="347.300000" y1="250.000000" x2="347.300000" y2="160.000000"  style="stroke:black; stroke-linecap:round; stroke-width:0.25;"/>
<line x1="347.300000" y1="250.000000" x2="347.300000" y2="250.000000"  style="stroke:black; stroke-linecap:round; stroke-width:0.25;"/>
<line x1="355.300000" y1="114.000000" x2="355.300000" y2="152.000000"  style="stroke:black; stroke-linecap:round; stroke-width:0.25;"/>
<line x1="355.300000" y1="152.000000" x2="355.300000" y2="152.000000"  style="stroke:black; stroke-linecap:round; stroke-width:0.25;"/>
<line x1="355.300000" y1="152.000000" x2="359.300000" y2="152.000000"  style="stroke:black; stroke-linecap:round; stroke-width:0.25;"/>
<line x1="355.300000" y1="160.000000" x2="359.300000" y2="160.000000"  style="stroke:black; stroke-linecap:round; stroke-width:0.25;"/>
<line x1="383.300000" y1="156.000000" x2="387.300000" y2="156.000000"  style="stroke:black; stroke-linecap:round; stroke-width:0.25;"/>
<line x1="387.300000" y1="218.000000" x2="395.300000" y2="218.000000"  style="stroke:black; stroke-linecap:round; stroke-width:0.25;"/>
<line x1="387.300000" y1="350.000000" x2="387.300000" y2="218.000000"  style="stroke:black; stroke-linecap:round; stroke-width:0.25;"/>
<line x1="387.300000" y1="350.000000" x2="387.300000" y2="350.000000"  style="stroke:black; stroke-linecap:round; stroke-width:0.25;"/>
<line x1="387.300000" y1="156.000000" x2="395.300000" y2="156.000000"  style="stroke:black; stroke-linecap:round; stroke-width:0.25;"/>
<line x1="395.300000" y1="156.000000" x2="395.300000" y2="210.000000"  style="stroke:black; stroke-linecap:round; stroke-width:0.25;"/>
<line x1="395.300000" y1="210.000000" x2="395.300000" y2="210.000000"  style="stroke:black; stroke-linecap:round; stroke-width:0.25;"/>
<line x1="395.300000" y1="210.000000" x2="399.300000" y2="210.000000"  style="stroke:black; stroke-linecap:round; stroke-width:0.25;"/>
<line x1="395.300000" y1="218.000000" x2="399.300000" y2="218.000000"  style="stroke:black; stroke-linecap:round; stroke-width:0.25;"/>
<line x1="423.300000" y1="214.000000" x2="427.300000" y2="214.000000"  style="stroke:black; stroke-linecap:round; stroke-width:0.25;"/>
<line x1="427.300000" y1="214.000000" x2="427.300000" y2="214.000000"  style="stroke:black; stroke-linecap:round; stroke-width:0.25;"/>
<line x1="427.300000" y1="214.000000" x2="431.300000" y2="214.000000"  style="stroke:black; stroke-linecap:round; stroke-width:0.25;"/>
<line x1="431.300000" y1="214.000000" x2="435.300000" y2="214.000000"  style="stroke:black; stroke-linecap:round; stroke-width:0.25;"/>
<line x1="435.300000" y1="214.000000" x2="445.300000" y2="214.000000"  style="stroke:black; stroke-linecap:round; stroke-width:0.25;"/>
</svg>
