<?xml version="1.0"?>
<svg xmlns="http://www.w3.org/2000/svg" xmlns:xlink="http://www.w3.org/1999/xlink" viewBox="0 0 286.400000 72.000000" width="143.200000mm" height="36.000000mm" version="1.1">
<a xlink:href="phase-0x7ffa8d3528b0.svg">
<rect x="1.000000" y="1.000000" width="285.400000" height="71.000000" rx="0" ry="0" style="stroke:none;fill:#cccccc;"/>
<rect x="0.000000" y="0.000000" width="285.400000" height="71.000000" rx="0" ry="0" style="stroke:none;fill:#ffffff;"/>
</a>
<text x="10.000000" y="7.000000" font-family="Arial" font-size="7"></text>
<a xlink:href="gate-0x7ffa8d3366f0.svg">
<rect x="25.000000" y="25.000000" width="25.800000" height="24.000000" rx="0" ry="0" style="stroke:none;fill:#cccccc;"/>
<rect x="24.000000" y="24.000000" width="25.800000" height="24.000000" rx="0" ry="0" style="stroke:none;fill:#003366;"/>
</a>
<a xlink:href="gate-0x7ffa8d3366f0.svg">
<text x="36.900000" y="38.000000" font-family="Arial" font-size="7" text-anchor="middle" fill="#FFFFFF">gate</text>
</a>
<circle cx="26.000000" cy="26.000000" r="1"/>
<a xlink:href="randfreq-0x7ffa8d350df0.svg">
<rect x="58.800000" y="25.000000" width="38.700000" height="24.000000" rx="0" ry="0" style="stroke:none;fill:#cccccc;"/>
<rect x="57.800000" y="24.000000" width="38.700000" height="24.000000" rx="0" ry="0" style="stroke:none;fill:#003366;"/>
</a>
<a xlink:href="randfreq-0x7ffa8d350df0.svg">
<text x="77.150000" y="38.000000" font-family="Arial" font-size="7" text-anchor="middle" fill="#FFFFFF">randfreq</text>
</a>
<circle cx="59.800000" cy="26.000000" r="1"/>
<line x1="54.800000" y1="35.000000" x2="57.800000" y2="36.000000"  transform="rotate(0.000000,57.800000,36.000000)" style="stroke: black; stroke-width:0.25;"/>
<line x1="54.800000" y1="37.000000" x2="57.800000" y2="36.000000"  transform="rotate(0.000000,57.800000,36.000000)" style="stroke: black; stroke-width:0.25;"/>
<a xlink:href="smooth-0x7ffa8b5f9950.svg">
<rect x="105.500000" y="25.000000" width="64.500000" height="24.000000" rx="0" ry="0" style="stroke:none;fill:#cccccc;"/>
<rect x="104.500000" y="24.000000" width="64.500000" height="24.000000" rx="0" ry="0" style="stroke:none;fill:#003366;"/>
</a>
<a xlink:href="smooth-0x7ffa8b5f9950.svg">
<text x="136.750000" y="38.000000" font-family="Arial" font-size="7" text-anchor="middle" fill="#FFFFFF">smooth(0.99f)</text>
</a>
<circle cx="106.500000" cy="26.000000" r="1"/>
<line x1="101.500000" y1="35.000000" x2="104.500000" y2="36.000000"  transform="rotate(0.000000,104.500000,36.000000)" style="stroke: black; stroke-width:0.25;"/>
<line x1="101.500000" y1="37.000000" x2="104.500000" y2="36.000000"  transform="rotate(0.000000,104.500000,36.000000)" style="stroke: black; stroke-width:0.25;"/>
<a xlink:href="lowpass-0x7ffa8b5ea540.svg">
<rect x="178.000000" y="25.000000" width="77.400000" height="24.000000" rx="0" ry="0" style="stroke:none;fill:#cccccc;"/>
<rect x="177.000000" y="24.000000" width="77.400000" height="24.000000" rx="0" ry="0" style="stroke:none;fill:#003366;"/>
</a>
<a xlink:href="lowpass-0x7ffa8b5ea540.svg">
<text x="215.700000" y="38.000000" font-family="Arial" font-size="7" text-anchor="middle" fill="#FFFFFF">lowpass(1)(3000)</text>
</a>
<circle cx="179.000000" cy="26.000000" r="1"/>
<line x1="174.000000" y1="35.000000" x2="177.000000" y2="36.000000"  transform="rotate(0.000000,177.000000,36.000000)" style="stroke: black; stroke-width:0.25;"/>
<line x1="174.000000" y1="37.000000" x2="177.000000" y2="36.000000"  transform="rotate(0.000000,177.000000,36.000000)" style="stroke: black; stroke-width:0.25;"/>
<line x1="15.000000" y1="15.000000" x2="15.000000" y2="57.000000"  style="stroke: black; stroke-linecap:round; stroke-width:0.25; stroke-dasharray:3,3;"/>
<line x1="15.000000" y1="57.000000" x2="271.400000" y2="57.000000"  style="stroke: black; stroke-linecap:round; stroke-width:0.25; stroke-dasharray:3,3;"/>
<line x1="271.400000" y1="57.000000" x2="271.400000" y2="15.000000"  style="stroke: black; stroke-linecap:round; stroke-width:0.25; stroke-dasharray:3,3;"/>
<line x1="15.000000" y1="15.000000" x2="20.000000" y2="15.000000"  style="stroke: black; stroke-linecap:round; stroke-width:0.25; stroke-dasharray:3,3;"/>
<line x1="61.925000" y1="15.000000" x2="271.400000" y2="15.000000"  style="stroke: black; stroke-linecap:round; stroke-width:0.25; stroke-dasharray:3,3;"/>
<text x="20.000000" y="17.000000" font-family="Arial" font-size="7">vibratoFreq</text>
<line x1="273.400000" y1="35.000000" x2="276.400000" y2="36.000000"  transform="rotate(0.000000,276.400000,36.000000)" style="stroke: black; stroke-width:0.25;"/>
<line x1="273.400000" y1="37.000000" x2="276.400000" y2="36.000000"  transform="rotate(0.000000,276.400000,36.000000)" style="stroke: black; stroke-width:0.25;"/>
<line x1="49.800000" y1="36.000000" x2="53.800000" y2="36.000000"  style="stroke:black; stroke-linecap:round; stroke-width:0.25;"/>
<line x1="53.800000" y1="36.000000" x2="53.800000" y2="36.000000"  style="stroke:black; stroke-linecap:round; stroke-width:0.25;"/>
<line x1="53.800000" y1="36.000000" x2="57.800000" y2="36.000000"  style="stroke:black; stroke-linecap:round; stroke-width:0.25;"/>
<line x1="96.500000" y1="36.000000" x2="100.500000" y2="36.000000"  style="stroke:black; stroke-linecap:round; stroke-width:0.25;"/>
<line x1="100.500000" y1="36.000000" x2="100.500000" y2="36.000000"  style="stroke:black; stroke-linecap:round; stroke-width:0.25;"/>
<line x1="100.500000" y1="36.000000" x2="104.500000" y2="36.000000"  style="stroke:black; stroke-linecap:round; stroke-width:0.25;"/>
<line x1="169.000000" y1="36.000000" x2="173.000000" y2="36.000000"  style="stroke:black; stroke-linecap:round; stroke-width:0.25;"/>
<line x1="173.000000" y1="36.000000" x2="173.000000" y2="36.000000"  style="stroke:black; stroke-linecap:round; stroke-width:0.25;"/>
<line x1="173.000000" y1="36.000000" x2="177.000000" y2="36.000000"  style="stroke:black; stroke-linecap:round; stroke-width:0.25;"/>
<line x1="254.400000" y1="36.000000" x2="258.400000" y2="36.000000"  style="stroke:black; stroke-linecap:round; stroke-width:0.25;"/>
<line x1="258.400000" y1="36.000000" x2="258.400000" y2="36.000000"  style="stroke:black; stroke-linecap:round; stroke-width:0.25;"/>
<line x1="258.400000" y1="36.000000" x2="262.400000" y2="36.000000"  style="stroke:black; stroke-linecap:round; stroke-width:0.25;"/>
<line x1="262.400000" y1="36.000000" x2="266.400000" y2="36.000000"  style="stroke:black; stroke-linecap:round; stroke-width:0.25;"/>
<line x1="266.400000" y1="36.000000" x2="276.400000" y2="36.000000"  style="stroke:black; stroke-linecap:round; stroke-width:0.25;"/>
</svg>
