<?xml version="1.0"?>
<svg xmlns="http://www.w3.org/2000/svg" xmlns:xlink="http://www.w3.org/1999/xlink" viewBox="0 0 645.900000 144.000000" width="322.950000mm" height="72.000000mm" version="1.1">
<a xlink:href="process.svg">
<rect x="1.000000" y="1.000000" width="644.900000" height="143.000000" rx="0" ry="0" style="stroke:none;fill:#cccccc;"/>
<rect x="0.000000" y="0.000000" width="644.900000" height="143.000000" rx="0" ry="0" style="stroke:none;fill:#ffffff;"/>
</a>
<text x="10.000000" y="7.000000" font-family="Arial" font-size="7"></text>
<a xlink:href="BP-0x7ffa8e750a60.svg">
<rect x="33.000000" y="61.000000" width="38.700000" height="24.000000" rx="0" ry="0" style="stroke:none;fill:#cccccc;"/>
<rect x="32.000000" y="60.000000" width="38.700000" height="24.000000" rx="0" ry="0" style="stroke:none;fill:#003366;"/>
</a>
<a xlink:href="BP-0x7ffa8e750a60.svg">
<text x="51.350000" y="74.000000" font-family="Arial" font-size="7" text-anchor="middle" fill="#FFFFFF">BP(0)(2)</text>
</a>
<circle cx="34.000000" cy="62.000000" r="1"/>
<line x1="29.000000" y1="71.000000" x2="32.000000" y2="72.000000"  transform="rotate(0.000000,32.000000,72.000000)" style="stroke: black; stroke-width:0.25;"/>
<line x1="29.000000" y1="73.000000" x2="32.000000" y2="72.000000"  transform="rotate(0.000000,32.000000,72.000000)" style="stroke: black; stroke-width:0.25;"/>
<a xlink:href="EQ-0x7ffa8e751110.svg">
<rect x="79.700000" y="61.000000" width="38.700000" height="24.000000" rx="0" ry="0" style="stroke:none;fill:#cccccc;"/>
<rect x="78.700000" y="60.000000" width="38.700000" height="24.000000" rx="0" ry="0" style="stroke:none;fill:#003366;"/>
</a>
<a xlink:href="EQ-0x7ffa8e751110.svg">
<text x="98.050000" y="74.000000" font-family="Arial" font-size="7" text-anchor="middle" fill="#FFFFFF">EQ(0)(2)</text>
</a>
<circle cx="80.700000" cy="62.000000" r="1"/>
<line x1="75.700000" y1="71.000000" x2="78.700000" y2="72.000000"  transform="rotate(0.000000,78.700000,72.000000)" style="stroke: black; stroke-width:0.25;"/>
<line x1="75.700000" y1="73.000000" x2="78.700000" y2="72.000000"  transform="rotate(0.000000,78.700000,72.000000)" style="stroke: black; stroke-width:0.25;"/>
<rect x="155.300000" y="33.000000" width="24.000000" height="24.000000" rx="0" ry="0" style="stroke:none;fill:#cccccc;"/>
<rect x="154.300000" y="32.000000" width="24.000000" height="24.000000" rx="0" ry="0" style="stroke:none;fill:#f44800;"/>
<text x="166.300000" y="46.000000" font-family="Arial" font-size="7" text-anchor="middle" fill="#FFFFFF">10</text>
<circle cx="156.300000" cy="34.000000" r="1"/>
<rect x="134.400000" y="65.000000" width="25.800000" height="24.000000" rx="0" ry="0" style="stroke:none;fill:#cccccc;"/>
<rect x="133.400000" y="64.000000" width="25.800000" height="24.000000" rx="0" ry="0" style="stroke:none;fill:#f44800;"/>
<text x="146.300000" y="78.000000" font-family="Arial" font-size="7" text-anchor="middle" fill="#FFFFFF">12000</text>
<circle cx="135.400000" cy="66.000000" r="1"/>
<rect x="135.300000" y="97.000000" width="24.000000" height="24.000000" rx="0" ry="0" style="stroke:none;fill:#cccccc;"/>
<rect x="134.300000" y="96.000000" width="24.000000" height="24.000000" rx="0" ry="0" style="stroke:none;fill:#f44800;"/>
<text x="146.300000" y="110.000000" font-family="Arial" font-size="7" text-anchor="middle" fill="#FFFFFF">2</text>
<circle cx="136.300000" cy="98.000000" r="1"/>
<rect x="176.200000" y="81.000000" width="24.000000" height="24.000000" rx="0" ry="0" style="stroke:none;fill:#cccccc;"/>
<rect x="175.200000" y="80.000000" width="24.000000" height="24.000000" rx="0" ry="0" style="stroke:none;fill:#4B71A1;"/>
<text x="187.200000" y="94.000000" font-family="Arial" font-size="7" text-anchor="middle" fill="#FFFFFF">*</text>
<circle cx="177.200000" cy="82.000000" r="1"/>
<line x1="172.200000" y1="87.000000" x2="175.200000" y2="88.000000"  transform="rotate(0.000000,175.200000,88.000000)" style="stroke: black; stroke-width:0.25;"/>
<line x1="172.200000" y1="89.000000" x2="175.200000" y2="88.000000"  transform="rotate(0.000000,175.200000,88.000000)" style="stroke: black; stroke-width:0.25;"/>
<line x1="172.200000" y1="95.000000" x2="175.200000" y2="96.000000"  transform="rotate(0.000000,175.200000,96.000000)" style="stroke: black; stroke-width:0.25;"/>
<line x1="172.200000" y1="97.000000" x2="175.200000" y2="96.000000"  transform="rotate(0.000000,175.200000,96.000000)" style="stroke: black; stroke-width:0.25;"/>
<rect x="216.200000" y="65.000000" width="24.000000" height="24.000000" rx="0" ry="0" style="stroke:none;fill:#cccccc;"/>
<rect x="215.200000" y="64.000000" width="24.000000" height="24.000000" rx="0" ry="0" style="stroke:none;fill:#4B71A1;"/>
<text x="227.200000" y="78.000000" font-family="Arial" font-size="7" text-anchor="middle" fill="#FFFFFF">+</text>
<circle cx="217.200000" cy="66.000000" r="1"/>
<line x1="212.200000" y1="71.000000" x2="215.200000" y2="72.000000"  transform="rotate(0.000000,215.200000,72.000000)" style="stroke: black; stroke-width:0.25;"/>
<line x1="212.200000" y1="73.000000" x2="215.200000" y2="72.000000"  transform="rotate(0.000000,215.200000,72.000000)" style="stroke: black; stroke-width:0.25;"/>
<line x1="212.200000" y1="79.000000" x2="215.200000" y2="80.000000"  transform="rotate(0.000000,215.200000,80.000000)" style="stroke: black; stroke-width:0.25;"/>
<line x1="212.200000" y1="81.000000" x2="215.200000" y2="80.000000"  transform="rotate(0.000000,215.200000,80.000000)" style="stroke: black; stroke-width:0.25;"/>
<rect x="256.200000" y="61.000000" width="24.000000" height="24.000000" rx="0" ry="0" style="stroke:none;fill:#cccccc;"/>
<rect x="255.200000" y="60.000000" width="24.000000" height="24.000000" rx="0" ry="0" style="stroke:none;fill:#4B71A1;"/>
<text x="267.200000" y="74.000000" font-family="Arial" font-size="7" text-anchor="middle" fill="#FFFFFF">@</text>
<circle cx="257.200000" cy="62.000000" r="1"/>
<line x1="252.200000" y1="67.000000" x2="255.200000" y2="68.000000"  transform="rotate(0.000000,255.200000,68.000000)" style="stroke: black; stroke-width:0.25;"/>
<line x1="252.200000" y1="69.000000" x2="255.200000" y2="68.000000"  transform="rotate(0.000000,255.200000,68.000000)" style="stroke: black; stroke-width:0.25;"/>
<line x1="252.200000" y1="75.000000" x2="255.200000" y2="76.000000"  transform="rotate(0.000000,255.200000,76.000000)" style="stroke: black; stroke-width:0.25;"/>
<line x1="252.200000" y1="77.000000" x2="255.200000" y2="76.000000"  transform="rotate(0.000000,255.200000,76.000000)" style="stroke: black; stroke-width:0.25;"/>
<a xlink:href="Reson-0x7ffa8e71e660.svg">
<rect x="346.400000" y="41.000000" width="51.600000" height="24.000000" rx="0" ry="0" style="stroke:none;fill:#cccccc;"/>
<rect x="345.400000" y="40.000000" width="51.600000" height="24.000000" rx="0" ry="0" style="stroke:none;fill:#003366;"/>
</a>
<a xlink:href="Reson-0x7ffa8e71e660.svg">
<text x="371.200000" y="54.000000" font-family="Arial" font-size="7" text-anchor="middle" fill="#FFFFFF">Reson(0)(0)</text>
</a>
<circle cx="347.400000" cy="42.000000" r="1"/>
<line x1="342.400000" y1="51.000000" x2="345.400000" y2="52.000000"  transform="rotate(0.000000,345.400000,52.000000)" style="stroke: black; stroke-width:0.25;"/>
<line x1="342.400000" y1="53.000000" x2="345.400000" y2="52.000000"  transform="rotate(0.000000,345.400000,52.000000)" style="stroke: black; stroke-width:0.25;"/>
<rect x="340.200000" y="81.000000" width="24.000000" height="24.000000" rx="0" ry="0" style="stroke:none;fill:#cccccc;"/>
<rect x="339.200000" y="80.000000" width="24.000000" height="24.000000" rx="0" ry="0" style="stroke:none;fill:#f44800;"/>
<text x="351.200000" y="94.000000" font-family="Arial" font-size="7" text-anchor="middle" fill="#FFFFFF">1.5</text>
<circle cx="341.200000" cy="82.000000" r="1"/>
<rect x="380.200000" y="77.000000" width="24.000000" height="24.000000" rx="0" ry="0" style="stroke:none;fill:#cccccc;"/>
<rect x="379.200000" y="76.000000" width="24.000000" height="24.000000" rx="0" ry="0" style="stroke:none;fill:#4B71A1;"/>
<text x="391.200000" y="90.000000" font-family="Arial" font-size="7" text-anchor="middle" fill="#FFFFFF">*</text>
<circle cx="381.200000" cy="78.000000" r="1"/>
<line x1="376.200000" y1="83.000000" x2="379.200000" y2="84.000000"  transform="rotate(0.000000,379.200000,84.000000)" style="stroke: black; stroke-width:0.25;"/>
<line x1="376.200000" y1="85.000000" x2="379.200000" y2="84.000000"  transform="rotate(0.000000,379.200000,84.000000)" style="stroke: black; stroke-width:0.25;"/>
<line x1="376.200000" y1="91.000000" x2="379.200000" y2="92.000000"  transform="rotate(0.000000,379.200000,92.000000)" style="stroke: black; stroke-width:0.25;"/>
<line x1="376.200000" y1="93.000000" x2="379.200000" y2="92.000000"  transform="rotate(0.000000,379.200000,92.000000)" style="stroke: black; stroke-width:0.25;"/>
<a xlink:href="vibrato-0x7ffa8d357940.svg">
<rect x="456.200000" y="33.000000" width="38.700000" height="24.000000" rx="0" ry="0" style="stroke:none;fill:#cccccc;"/>
<rect x="455.200000" y="32.000000" width="38.700000" height="24.000000" rx="0" ry="0" style="stroke:none;fill:#003366;"/>
</a>
<a xlink:href="vibrato-0x7ffa8d357940.svg">
<text x="474.550000" y="46.000000" font-family="Arial" font-size="7" text-anchor="middle" fill="#FFFFFF">vibrato</text>
</a>
<circle cx="457.200000" cy="34.000000" r="1"/>
<rect x="510.900000" y="29.000000" width="24.000000" height="24.000000" rx="0" ry="0" style="stroke:none;fill:#cccccc;"/>
<rect x="509.900000" y="28.000000" width="24.000000" height="24.000000" rx="0" ry="0" style="stroke:none;fill:#4B71A1;"/>
<text x="521.900000" y="42.000000" font-family="Arial" font-size="7" text-anchor="middle" fill="#FFFFFF">*</text>
<circle cx="511.900000" cy="30.000000" r="1"/>
<line x1="506.900000" y1="35.000000" x2="509.900000" y2="36.000000"  transform="rotate(0.000000,509.900000,36.000000)" style="stroke: black; stroke-width:0.25;"/>
<line x1="506.900000" y1="37.000000" x2="509.900000" y2="36.000000"  transform="rotate(0.000000,509.900000,36.000000)" style="stroke: black; stroke-width:0.25;"/>
<line x1="506.900000" y1="43.000000" x2="509.900000" y2="44.000000"  transform="rotate(0.000000,509.900000,44.000000)" style="stroke: black; stroke-width:0.25;"/>
<line x1="506.900000" y1="45.000000" x2="509.900000" y2="44.000000"  transform="rotate(0.000000,509.900000,44.000000)" style="stroke: black; stroke-width:0.25;"/>
<a xlink:href="vibratoEnv-0x7ffa8e46a790.svg">
<rect x="463.300000" y="65.000000" width="64.500000" height="24.000000" rx="0" ry="0" style="stroke:none;fill:#cccccc;"/>
<rect x="462.300000" y="64.000000" width="64.500000" height="24.000000" rx="0" ry="0" style="stroke:none;fill:#003366;"/>
</a>
<a xlink:href="vibratoEnv-0x7ffa8e46a790.svg">
<text x="494.550000" y="78.000000" font-family="Arial" font-size="7" text-anchor="middle" fill="#FFFFFF">vibratoEnv(0)</text>
</a>
<circle cx="464.300000" cy="66.000000" r="1"/>
<rect x="550.900000" y="45.000000" width="24.000000" height="24.000000" rx="0" ry="0" style="stroke:none;fill:#cccccc;"/>
<rect x="549.900000" y="44.000000" width="24.000000" height="24.000000" rx="0" ry="0" style="stroke:none;fill:#4B71A1;"/>
<text x="561.900000" y="58.000000" font-family="Arial" font-size="7" text-anchor="middle" fill="#FFFFFF">*</text>
<circle cx="551.900000" cy="46.000000" r="1"/>
<line x1="546.900000" y1="51.000000" x2="549.900000" y2="52.000000"  transform="rotate(0.000000,549.900000,52.000000)" style="stroke: black; stroke-width:0.25;"/>
<line x1="546.900000" y1="53.000000" x2="549.900000" y2="52.000000"  transform="rotate(0.000000,549.900000,52.000000)" style="stroke: black; stroke-width:0.25;"/>
<line x1="546.900000" y1="59.000000" x2="549.900000" y2="60.000000"  transform="rotate(0.000000,549.900000,60.000000)" style="stroke: black; stroke-width:0.25;"/>
<line x1="546.900000" y1="61.000000" x2="549.900000" y2="60.000000"  transform="rotate(0.000000,549.900000,60.000000)" style="stroke: black; stroke-width:0.25;"/>
<a xlink:href="gain-0x7ffa8e3f7c70.svg">
<rect x="496.200000" y="97.000000" width="38.700000" height="24.000000" rx="0" ry="0" style="stroke:none;fill:#cccccc;"/>
<rect x="495.200000" y="96.000000" width="38.700000" height="24.000000" rx="0" ry="0" style="stroke:none;fill:#003366;"/>
</a>
<a xlink:href="gain-0x7ffa8e3f7c70.svg">
<text x="514.550000" y="110.000000" font-family="Arial" font-size="7" text-anchor="middle" fill="#FFFFFF">gain(0)</text>
</a>
<circle cx="497.200000" cy="98.000000" r="1"/>
<rect x="590.900000" y="61.000000" width="24.000000" height="24.000000" rx="0" ry="0" style="stroke:none;fill:#cccccc;"/>
<rect x="589.900000" y="60.000000" width="24.000000" height="24.000000" rx="0" ry="0" style="stroke:none;fill:#4B71A1;"/>
<text x="601.900000" y="74.000000" font-family="Arial" font-size="7" text-anchor="middle" fill="#FFFFFF">*</text>
<circle cx="591.900000" cy="62.000000" r="1"/>
<line x1="586.900000" y1="67.000000" x2="589.900000" y2="68.000000"  transform="rotate(0.000000,589.900000,68.000000)" style="stroke: black; stroke-width:0.25;"/>
<line x1="586.900000" y1="69.000000" x2="589.900000" y2="68.000000"  transform="rotate(0.000000,589.900000,68.000000)" style="stroke: black; stroke-width:0.25;"/>
<line x1="586.900000" y1="75.000000" x2="589.900000" y2="76.000000"  transform="rotate(0.000000,589.900000,76.000000)" style="stroke: black; stroke-width:0.25;"/>
<line x1="586.900000" y1="77.000000" x2="589.900000" y2="76.000000"  transform="rotate(0.000000,589.900000,76.000000)" style="stroke: black; stroke-width:0.25;"/>
<line x1="15.000000" y1="15.000000" x2="15.000000" y2="129.000000"  style="stroke: black; stroke-linecap:round; stroke-width:0.25; stroke-dasharray:3,3;"/>
<line x1="15.000000" y1="129.000000" x2="630.900000" y2="129.000000"  style="stroke: black; stroke-linecap:round; stroke-width:0.25; stroke-dasharray:3,3;"/>
<line x1="630.900000" y1="129.000000" x2="630.900000" y2="15.000000"  style="stroke: black; stroke-linecap:round; stroke-width:0.25; stroke-dasharray:3,3;"/>
<line x1="15.000000" y1="15.000000" x2="20.000000" y2="15.000000"  style="stroke: black; stroke-linecap:round; stroke-width:0.25; stroke-dasharray:3,3;"/>
<line x1="68.375000" y1="15.000000" x2="630.900000" y2="15.000000"  style="stroke: black; stroke-linecap:round; stroke-width:0.25; stroke-dasharray:3,3;"/>
<text x="20.000000" y="17.000000" font-family="Arial" font-size="7">whistle(0)(2)</text>
<line x1="632.900000" y1="71.000000" x2="635.900000" y2="72.000000"  transform="rotate(0.000000,635.900000,72.000000)" style="stroke: black; stroke-width:0.25;"/>
<line x1="632.900000" y1="73.000000" x2="635.900000" y2="72.000000"  transform="rotate(0.000000,635.900000,72.000000)" style="stroke: black; stroke-width:0.25;"/>
<line x1="10.000000" y1="72.000000" x2="20.000000" y2="72.000000"  style="stroke:black; stroke-linecap:round; stroke-width:0.25;"/>
<line x1="20.000000" y1="72.000000" x2="24.000000" y2="72.000000"  style="stroke:black; stroke-linecap:round; stroke-width:0.25;"/>
<line x1="24.000000" y1="72.000000" x2="28.000000" y2="72.000000"  style="stroke:black; stroke-linecap:round; stroke-width:0.25;"/>
<line x1="28.000000" y1="72.000000" x2="28.000000" y2="72.000000"  style="stroke:black; stroke-linecap:round; stroke-width:0.25;"/>
<line x1="28.000000" y1="72.000000" x2="32.000000" y2="72.000000"  style="stroke:black; stroke-linecap:round; stroke-width:0.25;"/>
<line x1="70.700000" y1="72.000000" x2="74.700000" y2="72.000000"  style="stroke:black; stroke-linecap:round; stroke-width:0.25;"/>
<line x1="74.700000" y1="72.000000" x2="74.700000" y2="72.000000"  style="stroke:black; stroke-linecap:round; stroke-width:0.25;"/>
<line x1="74.700000" y1="72.000000" x2="78.700000" y2="72.000000"  style="stroke:black; stroke-linecap:round; stroke-width:0.25;"/>
<line x1="117.400000" y1="72.000000" x2="121.400000" y2="72.000000"  style="stroke:black; stroke-linecap:round; stroke-width:0.25;"/>
<line x1="121.400000" y1="24.000000" x2="129.400000" y2="24.000000"  style="stroke:black; stroke-linecap:round; stroke-width:0.25;"/>
<line x1="121.400000" y1="72.000000" x2="121.400000" y2="24.000000"  style="stroke:black; stroke-linecap:round; stroke-width:0.25;"/>
<line x1="121.400000" y1="72.000000" x2="121.400000" y2="72.000000"  style="stroke:black; stroke-linecap:round; stroke-width:0.25;"/>
<line x1="129.400000" y1="24.000000" x2="186.300000" y2="24.000000"  style="stroke:black; stroke-linecap:round; stroke-width:0.25;"/>
<line x1="158.300000" y1="108.000000" x2="162.300000" y2="108.000000"  style="stroke:black; stroke-linecap:round; stroke-width:0.25;"/>
<line x1="159.200000" y1="76.000000" x2="163.200000" y2="76.000000"  style="stroke:black; stroke-linecap:round; stroke-width:0.25;"/>
<line x1="162.300000" y1="108.000000" x2="163.200000" y2="108.000000"  style="stroke:black; stroke-linecap:round; stroke-width:0.25;"/>
<line x1="163.200000" y1="76.000000" x2="171.200000" y2="76.000000"  style="stroke:black; stroke-linecap:round; stroke-width:0.25;"/>
<line x1="163.200000" y1="96.000000" x2="171.200000" y2="96.000000"  style="stroke:black; stroke-linecap:round; stroke-width:0.25;"/>
<line x1="163.200000" y1="108.000000" x2="163.200000" y2="96.000000"  style="stroke:black; stroke-linecap:round; stroke-width:0.25;"/>
<line x1="163.200000" y1="108.000000" x2="163.200000" y2="108.000000"  style="stroke:black; stroke-linecap:round; stroke-width:0.25;"/>
<line x1="171.200000" y1="76.000000" x2="171.200000" y2="88.000000"  style="stroke:black; stroke-linecap:round; stroke-width:0.25;"/>
<line x1="171.200000" y1="88.000000" x2="171.200000" y2="88.000000"  style="stroke:black; stroke-linecap:round; stroke-width:0.25;"/>
<line x1="171.200000" y1="88.000000" x2="175.200000" y2="88.000000"  style="stroke:black; stroke-linecap:round; stroke-width:0.25;"/>
<line x1="171.200000" y1="96.000000" x2="175.200000" y2="96.000000"  style="stroke:black; stroke-linecap:round; stroke-width:0.25;"/>
<line x1="178.300000" y1="44.000000" x2="182.300000" y2="44.000000"  style="stroke:black; stroke-linecap:round; stroke-width:0.25;"/>
<line x1="182.300000" y1="44.000000" x2="203.200000" y2="44.000000"  style="stroke:black; stroke-linecap:round; stroke-width:0.25;"/>
<line x1="186.300000" y1="24.000000" x2="243.200000" y2="24.000000"  style="stroke:black; stroke-linecap:round; stroke-width:0.25;"/>
<line x1="199.200000" y1="92.000000" x2="203.200000" y2="92.000000"  style="stroke:black; stroke-linecap:round; stroke-width:0.25;"/>
<line x1="203.200000" y1="44.000000" x2="211.200000" y2="44.000000"  style="stroke:black; stroke-linecap:round; stroke-width:0.25;"/>
<line x1="203.200000" y1="80.000000" x2="211.200000" y2="80.000000"  style="stroke:black; stroke-linecap:round; stroke-width:0.25;"/>
<line x1="203.200000" y1="92.000000" x2="203.200000" y2="80.000000"  style="stroke:black; stroke-linecap:round; stroke-width:0.25;"/>
<line x1="203.200000" y1="92.000000" x2="203.200000" y2="92.000000"  style="stroke:black; stroke-linecap:round; stroke-width:0.25;"/>
<line x1="211.200000" y1="44.000000" x2="211.200000" y2="72.000000"  style="stroke:black; stroke-linecap:round; stroke-width:0.25;"/>
<line x1="211.200000" y1="72.000000" x2="211.200000" y2="72.000000"  style="stroke:black; stroke-linecap:round; stroke-width:0.25;"/>
<line x1="211.200000" y1="72.000000" x2="215.200000" y2="72.000000"  style="stroke:black; stroke-linecap:round; stroke-width:0.25;"/>
<line x1="211.200000" y1="80.000000" x2="215.200000" y2="80.000000"  style="stroke:black; stroke-linecap:round; stroke-width:0.25;"/>
<line x1="239.200000" y1="76.000000" x2="243.200000" y2="76.000000"  style="stroke:black; stroke-linecap:round; stroke-width:0.25;"/>
<line x1="243.200000" y1="24.000000" x2="251.200000" y2="24.000000"  style="stroke:black; stroke-linecap:round; stroke-width:0.25;"/>
<line x1="243.200000" y1="76.000000" x2="251.200000" y2="76.000000"  style="stroke:black; stroke-linecap:round; stroke-width:0.25;"/>
<line x1="251.200000" y1="24.000000" x2="251.200000" y2="68.000000"  style="stroke:black; stroke-linecap:round; stroke-width:0.25;"/>
<line x1="251.200000" y1="68.000000" x2="251.200000" y2="68.000000"  style="stroke:black; stroke-linecap:round; stroke-width:0.25;"/>
<line x1="251.200000" y1="68.000000" x2="255.200000" y2="68.000000"  style="stroke:black; stroke-linecap:round; stroke-width:0.25;"/>
<line x1="251.200000" y1="76.000000" x2="255.200000" y2="76.000000"  style="stroke:black; stroke-linecap:round; stroke-width:0.25;"/>
<line x1="279.200000" y1="72.000000" x2="283.200000" y2="72.000000"  style="stroke:black; stroke-linecap:round; stroke-width:0.25;"/>
<line x1="283.200000" y1="72.000000" x2="335.200000" y2="52.000000"  style="stroke:black; stroke-linecap:round; stroke-width:0.25;"/>
<line x1="283.200000" y1="72.000000" x2="335.200000" y2="72.000000"  style="stroke:black; stroke-linecap:round; stroke-width:0.25;"/>
<line x1="335.200000" y1="52.000000" x2="341.400000" y2="52.000000"  style="stroke:black; stroke-linecap:round; stroke-width:0.25;"/>
<line x1="335.200000" y1="72.000000" x2="351.200000" y2="72.000000"  style="stroke:black; stroke-linecap:round; stroke-width:0.25;"/>
<line x1="341.400000" y1="52.000000" x2="345.400000" y2="52.000000"  style="stroke:black; stroke-linecap:round; stroke-width:0.25;"/>
<line x1="351.200000" y1="72.000000" x2="367.200000" y2="72.000000"  style="stroke:black; stroke-linecap:round; stroke-width:0.25;"/>
<line x1="363.200000" y1="92.000000" x2="367.200000" y2="92.000000"  style="stroke:black; stroke-linecap:round; stroke-width:0.25;"/>
<line x1="367.200000" y1="72.000000" x2="375.200000" y2="72.000000"  style="stroke:black; stroke-linecap:round; stroke-width:0.25;"/>
<line x1="367.200000" y1="92.000000" x2="375.200000" y2="92.000000"  style="stroke:black; stroke-linecap:round; stroke-width:0.25;"/>
<line x1="375.200000" y1="72.000000" x2="375.200000" y2="84.000000"  style="stroke:black; stroke-linecap:round; stroke-width:0.25;"/>
<line x1="375.200000" y1="84.000000" x2="375.200000" y2="84.000000"  style="stroke:black; stroke-linecap:round; stroke-width:0.25;"/>
<line x1="375.200000" y1="84.000000" x2="379.200000" y2="84.000000"  style="stroke:black; stroke-linecap:round; stroke-width:0.25;"/>
<line x1="375.200000" y1="92.000000" x2="379.200000" y2="92.000000"  style="stroke:black; stroke-linecap:round; stroke-width:0.25;"/>
<line x1="397.000000" y1="52.000000" x2="401.000000" y2="52.000000"  style="stroke:black; stroke-linecap:round; stroke-width:0.25;"/>
<line x1="401.000000" y1="52.000000" x2="407.200000" y2="52.000000"  style="stroke:black; stroke-linecap:round; stroke-width:0.25;"/>
<line x1="403.200000" y1="88.000000" x2="407.200000" y2="88.000000"  style="stroke:black; stroke-linecap:round; stroke-width:0.25;"/>
<line x1="407.200000" y1="52.000000" x2="451.200000" y2="24.000000"  style="stroke:black; stroke-linecap:round; stroke-width:0.25;"/>
<line x1="407.200000" y1="88.000000" x2="451.200000" y2="24.000000"  style="stroke:black; stroke-linecap:round; stroke-width:0.25;"/>
<line x1="451.200000" y1="24.000000" x2="474.550000" y2="24.000000"  style="stroke:black; stroke-linecap:round; stroke-width:0.25;"/>
<line x1="474.550000" y1="24.000000" x2="497.900000" y2="24.000000"  style="stroke:black; stroke-linecap:round; stroke-width:0.25;"/>
<line x1="493.900000" y1="44.000000" x2="497.900000" y2="44.000000"  style="stroke:black; stroke-linecap:round; stroke-width:0.25;"/>
<line x1="497.900000" y1="44.000000" x2="505.900000" y2="44.000000"  style="stroke:black; stroke-linecap:round; stroke-width:0.25;"/>
<line x1="497.900000" y1="24.000000" x2="505.900000" y2="24.000000"  style="stroke:black; stroke-linecap:round; stroke-width:0.25;"/>
<line x1="505.900000" y1="36.000000" x2="509.900000" y2="36.000000"  style="stroke:black; stroke-linecap:round; stroke-width:0.25;"/>
<line x1="505.900000" y1="44.000000" x2="509.900000" y2="44.000000"  style="stroke:black; stroke-linecap:round; stroke-width:0.25;"/>
<line x1="505.900000" y1="24.000000" x2="505.900000" y2="36.000000"  style="stroke:black; stroke-linecap:round; stroke-width:0.25;"/>
<line x1="505.900000" y1="36.000000" x2="505.900000" y2="36.000000"  style="stroke:black; stroke-linecap:round; stroke-width:0.25;"/>
<line x1="526.800000" y1="76.000000" x2="530.800000" y2="76.000000"  style="stroke:black; stroke-linecap:round; stroke-width:0.25;"/>
<line x1="530.800000" y1="76.000000" x2="537.900000" y2="76.000000"  style="stroke:black; stroke-linecap:round; stroke-width:0.25;"/>
<line x1="533.900000" y1="40.000000" x2="537.900000" y2="40.000000"  style="stroke:black; stroke-linecap:round; stroke-width:0.25;"/>
<line x1="533.900000" y1="108.000000" x2="537.900000" y2="108.000000"  style="stroke:black; stroke-linecap:round; stroke-width:0.25;"/>
<line x1="537.900000" y1="40.000000" x2="545.900000" y2="40.000000"  style="stroke:black; stroke-linecap:round; stroke-width:0.25;"/>
<line x1="537.900000" y1="60.000000" x2="545.900000" y2="60.000000"  style="stroke:black; stroke-linecap:round; stroke-width:0.25;"/>
<line x1="537.900000" y1="76.000000" x2="537.900000" y2="60.000000"  style="stroke:black; stroke-linecap:round; stroke-width:0.25;"/>
<line x1="537.900000" y1="76.000000" x2="537.900000" y2="76.000000"  style="stroke:black; stroke-linecap:round; stroke-width:0.25;"/>
<line x1="537.900000" y1="108.000000" x2="577.900000" y2="108.000000"  style="stroke:black; stroke-linecap:round; stroke-width:0.25;"/>
<line x1="545.900000" y1="40.000000" x2="545.900000" y2="52.000000"  style="stroke:black; stroke-linecap:round; stroke-width:0.25;"/>
<line x1="545.900000" y1="52.000000" x2="545.900000" y2="52.000000"  style="stroke:black; stroke-linecap:round; stroke-width:0.25;"/>
<line x1="545.900000" y1="52.000000" x2="549.900000" y2="52.000000"  style="stroke:black; stroke-linecap:round; stroke-width:0.25;"/>
<line x1="545.900000" y1="60.000000" x2="549.900000" y2="60.000000"  style="stroke:black; stroke-linecap:round; stroke-width:0.25;"/>
<line x1="573.900000" y1="56.000000" x2="577.900000" y2="56.000000"  style="stroke:black; stroke-linecap:round; stroke-width:0.25;"/>
<line x1="577.900000" y1="56.000000" x2="585.900000" y2="56.000000"  style="stroke:black; stroke-linecap:round; stroke-width:0.25;"/>
<line x1="577.900000" y1="76.000000" x2="585.900000" y2="76.000000"  style="stroke:black; stroke-linecap:round; stroke-width:0.25;"/>
<line x1="577.900000" y1="108.000000" x2="577.900000" y2="76.000000"  style="stroke:black; stroke-linecap:round; stroke-width:0.25;"/>
<line x1="577.900000" y1="108.000000" x2="577.900000" y2="108.000000"  style="stroke:black; stroke-linecap:round; stroke-width:0.25;"/>
<line x1="585.900000" y1="56.000000" x2="585.900000" y2="68.000000"  style="stroke:black; stroke-linecap:round; stroke-width:0.25;"/>
<line x1="585.900000" y1="68.000000" x2="585.900000" y2="68.000000"  style="stroke:black; stroke-linecap:round; stroke-width:0.25;"/>
<line x1="585.900000" y1="68.000000" x2="589.900000" y2="68.000000"  style="stroke:black; stroke-linecap:round; stroke-width:0.25;"/>
<line x1="585.900000" y1="76.000000" x2="589.900000" y2="76.000000"  style="stroke:black; stroke-linecap:round; stroke-width:0.25;"/>
<line x1="613.900000" y1="72.000000" x2="617.900000" y2="72.000000"  style="stroke:black; stroke-linecap:round; stroke-width:0.25;"/>
<line x1="617.900000" y1="72.000000" x2="617.900000" y2="72.000000"  style="stroke:black; stroke-linecap:round; stroke-width:0.25;"/>
<line x1="617.900000" y1="72.000000" x2="621.900000" y2="72.000000"  style="stroke:black; stroke-linecap:round; stroke-width:0.25;"/>
<line x1="621.900000" y1="72.000000" x2="625.900000" y2="72.000000"  style="stroke:black; stroke-linecap:round; stroke-width:0.25;"/>
<line x1="625.900000" y1="72.000000" x2="635.900000" y2="72.000000"  style="stroke:black; stroke-linecap:round; stroke-width:0.25;"/>
</svg>
