<?xml version="1.0"?>
<svg xmlns="http://www.w3.org/2000/svg" xmlns:xlink="http://www.w3.org/1999/xlink" viewBox="0 0 431.500000 140.000000" width="215.750000mm" height="70.000000mm" version="1.1">
<a xlink:href="rdm-0x7fb83b6284b0.svg">
<rect x="1.000000" y="1.000000" width="430.500000" height="139.000000" rx="0" ry="0" style="stroke:none;fill:#cccccc;"/>
<rect x="0.000000" y="0.000000" width="430.500000" height="139.000000" rx="0" ry="0" style="stroke:none;fill:#ffffff;"/>
</a>
<text x="10.000000" y="7.000000" font-family="Arial" font-size="7"></text>
<rect x="78.000000" y="33.000000" width="24.000000" height="24.000000" rx="0" ry="0" style="stroke:none;fill:#cccccc;"/>
<rect x="77.000000" y="32.000000" width="24.000000" height="24.000000" rx="0" ry="0" style="stroke:none;fill:#f44800;"/>
<text x="89.000000" y="46.000000" font-family="Arial" font-size="7" text-anchor="middle" fill="#FFFFFF">1</text>
<circle cx="79.000000" cy="34.000000" r="1"/>
<rect x="118.000000" y="29.000000" width="24.000000" height="24.000000" rx="0" ry="0" style="stroke:none;fill:#cccccc;"/>
<rect x="117.000000" y="28.000000" width="24.000000" height="24.000000" rx="0" ry="0" style="stroke:none;fill:#4B71A1;"/>
<text x="129.000000" y="42.000000" font-family="Arial" font-size="7" text-anchor="middle" fill="#FFFFFF">@</text>
<circle cx="119.000000" cy="30.000000" r="1"/>
<line x1="114.000000" y1="35.000000" x2="117.000000" y2="36.000000"  transform="rotate(0.000000,117.000000,36.000000)" style="stroke: black; stroke-width:0.25;"/>
<line x1="114.000000" y1="37.000000" x2="117.000000" y2="36.000000"  transform="rotate(0.000000,117.000000,36.000000)" style="stroke: black; stroke-width:0.25;"/>
<line x1="114.000000" y1="43.000000" x2="117.000000" y2="44.000000"  transform="rotate(0.000000,117.000000,44.000000)" style="stroke: black; stroke-width:0.25;"/>
<line x1="114.000000" y1="45.000000" x2="117.000000" y2="44.000000"  transform="rotate(0.000000,117.000000,44.000000)" style="stroke: black; stroke-width:0.25;"/>
<rect x="78.000000" y="83.000000" width="24.000000" height="24.000000" rx="0" ry="0" style="stroke:none;fill:#cccccc;"/>
<rect x="77.000000" y="82.000000" width="24.000000" height="24.000000" rx="0" ry="0" style="stroke:none;fill:#f44800;"/>
<text x="89.000000" y="96.000000" font-family="Arial" font-size="7" text-anchor="middle" fill="#FFFFFF">2</text>
<circle cx="79.000000" cy="84.000000" r="1"/>
<line x1="68.000000" y1="73.000000" x2="68.000000" y2="115.000000"  style="stroke: black; stroke-linecap:round; stroke-width:0.25; stroke-dasharray:3,3;"/>
<line x1="68.000000" y1="115.000000" x2="110.000000" y2="115.000000"  style="stroke: black; stroke-linecap:round; stroke-width:0.25; stroke-dasharray:3,3;"/>
<line x1="110.000000" y1="115.000000" x2="110.000000" y2="73.000000"  style="stroke: black; stroke-linecap:round; stroke-width:0.25; stroke-dasharray:3,3;"/>
<line x1="68.000000" y1="73.000000" x2="73.000000" y2="73.000000"  style="stroke: black; stroke-linecap:round; stroke-width:0.25; stroke-dasharray:3,3;"/>
<line x1="98.800000" y1="73.000000" x2="110.000000" y2="73.000000"  style="stroke: black; stroke-linecap:round; stroke-width:0.25; stroke-dasharray:3,3;"/>
<text x="73.000000" y="75.000000" font-family="Arial" font-size="7">dur(1)</text>
<rect x="128.000000" y="79.000000" width="24.000000" height="24.000000" rx="0" ry="0" style="stroke:none;fill:#cccccc;"/>
<rect x="127.000000" y="78.000000" width="24.000000" height="24.000000" rx="0" ry="0" style="stroke:none;fill:#4B71A1;"/>
<text x="139.000000" y="92.000000" font-family="Arial" font-size="7" text-anchor="middle" fill="#FFFFFF">@</text>
<circle cx="129.000000" cy="80.000000" r="1"/>
<line x1="124.000000" y1="85.000000" x2="127.000000" y2="86.000000"  transform="rotate(0.000000,127.000000,86.000000)" style="stroke: black; stroke-width:0.25;"/>
<line x1="124.000000" y1="87.000000" x2="127.000000" y2="86.000000"  transform="rotate(0.000000,127.000000,86.000000)" style="stroke: black; stroke-width:0.25;"/>
<line x1="124.000000" y1="93.000000" x2="127.000000" y2="94.000000"  transform="rotate(0.000000,127.000000,94.000000)" style="stroke: black; stroke-width:0.25;"/>
<line x1="124.000000" y1="95.000000" x2="127.000000" y2="94.000000"  transform="rotate(0.000000,127.000000,94.000000)" style="stroke: black; stroke-width:0.25;"/>
<rect x="168.000000" y="59.000000" width="24.000000" height="24.000000" rx="0" ry="0" style="stroke:none;fill:#cccccc;"/>
<rect x="167.000000" y="58.000000" width="24.000000" height="24.000000" rx="0" ry="0" style="stroke:none;fill:#4B71A1;"/>
<text x="179.000000" y="72.000000" font-family="Arial" font-size="7" text-anchor="middle" fill="#FFFFFF">+</text>
<circle cx="169.000000" cy="60.000000" r="1"/>
<line x1="164.000000" y1="65.000000" x2="167.000000" y2="66.000000"  transform="rotate(0.000000,167.000000,66.000000)" style="stroke: black; stroke-width:0.25;"/>
<line x1="164.000000" y1="67.000000" x2="167.000000" y2="66.000000"  transform="rotate(0.000000,167.000000,66.000000)" style="stroke: black; stroke-width:0.25;"/>
<line x1="164.000000" y1="73.000000" x2="167.000000" y2="74.000000"  transform="rotate(0.000000,167.000000,74.000000)" style="stroke: black; stroke-width:0.25;"/>
<line x1="164.000000" y1="75.000000" x2="167.000000" y2="74.000000"  transform="rotate(0.000000,167.000000,74.000000)" style="stroke: black; stroke-width:0.25;"/>
<rect x="208.000000" y="63.000000" width="38.700000" height="24.000000" rx="0" ry="0" style="stroke:none;fill:#cccccc;"/>
<rect x="207.000000" y="62.000000" width="38.700000" height="24.000000" rx="0" ry="0" style="stroke:none;fill:#f44800;"/>
<text x="226.350000" y="76.000000" font-family="Arial" font-size="7" text-anchor="middle" fill="#FFFFFF">2994.23</text>
<circle cx="209.000000" cy="64.000000" r="1"/>
<rect x="262.700000" y="59.000000" width="24.000000" height="24.000000" rx="0" ry="0" style="stroke:none;fill:#cccccc;"/>
<rect x="261.700000" y="58.000000" width="24.000000" height="24.000000" rx="0" ry="0" style="stroke:none;fill:#4B71A1;"/>
<text x="273.700000" y="72.000000" font-family="Arial" font-size="7" text-anchor="middle" fill="#FFFFFF">*</text>
<circle cx="263.700000" cy="60.000000" r="1"/>
<line x1="258.700000" y1="65.000000" x2="261.700000" y2="66.000000"  transform="rotate(0.000000,261.700000,66.000000)" style="stroke: black; stroke-width:0.25;"/>
<line x1="258.700000" y1="67.000000" x2="261.700000" y2="66.000000"  transform="rotate(0.000000,261.700000,66.000000)" style="stroke: black; stroke-width:0.25;"/>
<line x1="258.700000" y1="73.000000" x2="261.700000" y2="74.000000"  transform="rotate(0.000000,261.700000,74.000000)" style="stroke: black; stroke-width:0.25;"/>
<line x1="258.700000" y1="75.000000" x2="261.700000" y2="74.000000"  transform="rotate(0.000000,261.700000,74.000000)" style="stroke: black; stroke-width:0.25;"/>
<rect x="294.700000" y="59.000000" width="24.000000" height="24.000000" rx="0" ry="0" style="stroke:none;fill:#cccccc;"/>
<rect x="293.700000" y="58.000000" width="24.000000" height="24.000000" rx="0" ry="0" style="stroke:none;fill:#4B71A1;"/>
<text x="305.700000" y="72.000000" font-family="Arial" font-size="7" text-anchor="middle" fill="#FFFFFF">int</text>
<circle cx="295.700000" cy="60.000000" r="1"/>
<line x1="290.700000" y1="69.000000" x2="293.700000" y2="70.000000"  transform="rotate(0.000000,293.700000,70.000000)" style="stroke: black; stroke-width:0.25;"/>
<line x1="290.700000" y1="71.000000" x2="293.700000" y2="70.000000"  transform="rotate(0.000000,293.700000,70.000000)" style="stroke: black; stroke-width:0.25;"/>
<rect x="334.700000" y="63.000000" width="25.800000" height="24.000000" rx="0" ry="0" style="stroke:none;fill:#cccccc;"/>
<rect x="333.700000" y="62.000000" width="25.800000" height="24.000000" rx="0" ry="0" style="stroke:none;fill:#f44800;"/>
<text x="346.600000" y="76.000000" font-family="Arial" font-size="7" text-anchor="middle" fill="#FFFFFF">38125</text>
<circle cx="335.700000" cy="64.000000" r="1"/>
<rect x="376.500000" y="59.000000" width="24.000000" height="24.000000" rx="0" ry="0" style="stroke:none;fill:#cccccc;"/>
<rect x="375.500000" y="58.000000" width="24.000000" height="24.000000" rx="0" ry="0" style="stroke:none;fill:#4B71A1;"/>
<text x="387.500000" y="72.000000" font-family="Arial" font-size="7" text-anchor="middle" fill="#FFFFFF">+</text>
<circle cx="377.500000" cy="60.000000" r="1"/>
<line x1="372.500000" y1="65.000000" x2="375.500000" y2="66.000000"  transform="rotate(0.000000,375.500000,66.000000)" style="stroke: black; stroke-width:0.25;"/>
<line x1="372.500000" y1="67.000000" x2="375.500000" y2="66.000000"  transform="rotate(0.000000,375.500000,66.000000)" style="stroke: black; stroke-width:0.25;"/>
<line x1="372.500000" y1="73.000000" x2="375.500000" y2="74.000000"  transform="rotate(0.000000,375.500000,74.000000)" style="stroke: black; stroke-width:0.25;"/>
<line x1="372.500000" y1="75.000000" x2="375.500000" y2="74.000000"  transform="rotate(0.000000,375.500000,74.000000)" style="stroke: black; stroke-width:0.25;"/>
<line x1="15.000000" y1="15.000000" x2="15.000000" y2="125.000000"  style="stroke: black; stroke-linecap:round; stroke-width:0.25; stroke-dasharray:3,3;"/>
<line x1="15.000000" y1="125.000000" x2="416.500000" y2="125.000000"  style="stroke: black; stroke-linecap:round; stroke-width:0.25; stroke-dasharray:3,3;"/>
<line x1="416.500000" y1="125.000000" x2="416.500000" y2="15.000000"  style="stroke: black; stroke-linecap:round; stroke-width:0.25; stroke-dasharray:3,3;"/>
<line x1="15.000000" y1="15.000000" x2="20.000000" y2="15.000000"  style="stroke: black; stroke-linecap:round; stroke-width:0.25; stroke-dasharray:3,3;"/>
<line x1="45.800000" y1="15.000000" x2="416.500000" y2="15.000000"  style="stroke: black; stroke-linecap:round; stroke-width:0.25; stroke-dasharray:3,3;"/>
<text x="20.000000" y="17.000000" font-family="Arial" font-size="7">rdmInc</text>
<line x1="418.500000" y1="69.000000" x2="421.500000" y2="70.000000"  transform="rotate(0.000000,421.500000,70.000000)" style="stroke: black; stroke-width:0.25;"/>
<line x1="418.500000" y1="71.000000" x2="421.500000" y2="70.000000"  transform="rotate(0.000000,421.500000,70.000000)" style="stroke: black; stroke-width:0.25;"/>
<line x1="10.000000" y1="70.000000" x2="20.000000" y2="70.000000"  style="stroke:black; stroke-linecap:round; stroke-width:0.25;"/>
<line x1="20.000000" y1="70.000000" x2="24.000000" y2="70.000000"  style="stroke:black; stroke-linecap:round; stroke-width:0.25;"/>
<line x1="24.000000" y1="70.000000" x2="28.000000" y2="70.000000"  style="stroke:black; stroke-linecap:round; stroke-width:0.25;"/>
<line x1="28.000000" y1="70.000000" x2="28.000000" y2="70.000000"  style="stroke:black; stroke-linecap:round; stroke-width:0.25;"/>
<line x1="28.000000" y1="70.000000" x2="32.000000" y2="70.000000"  style="stroke:black; stroke-linecap:round; stroke-width:0.25;"/>
<line x1="32.000000" y1="70.000000" x2="36.000000" y2="70.000000"  style="stroke:black; stroke-linecap:round; stroke-width:0.25;"/>
<line x1="36.000000" y1="70.000000" x2="63.000000" y2="24.000000"  style="stroke:black; stroke-linecap:round; stroke-width:0.25;"/>
<line x1="36.000000" y1="70.000000" x2="63.000000" y2="64.000000"  style="stroke:black; stroke-linecap:round; stroke-width:0.25;"/>
<line x1="63.000000" y1="24.000000" x2="73.000000" y2="24.000000"  style="stroke:black; stroke-linecap:round; stroke-width:0.25;"/>
<line x1="63.000000" y1="64.000000" x2="89.000000" y2="64.000000"  style="stroke:black; stroke-linecap:round; stroke-width:0.25;"/>
<line x1="73.000000" y1="24.000000" x2="89.000000" y2="24.000000"  style="stroke:black; stroke-linecap:round; stroke-width:0.25;"/>
<line x1="89.000000" y1="24.000000" x2="105.000000" y2="24.000000"  style="stroke:black; stroke-linecap:round; stroke-width:0.25;"/>
<line x1="89.000000" y1="64.000000" x2="115.000000" y2="64.000000"  style="stroke:black; stroke-linecap:round; stroke-width:0.25;"/>
<line x1="101.000000" y1="44.000000" x2="105.000000" y2="44.000000"  style="stroke:black; stroke-linecap:round; stroke-width:0.25;"/>
<line x1="101.000000" y1="94.000000" x2="105.000000" y2="94.000000"  style="stroke:black; stroke-linecap:round; stroke-width:0.25;"/>
<line x1="105.000000" y1="24.000000" x2="113.000000" y2="24.000000"  style="stroke:black; stroke-linecap:round; stroke-width:0.25;"/>
<line x1="105.000000" y1="44.000000" x2="113.000000" y2="44.000000"  style="stroke:black; stroke-linecap:round; stroke-width:0.25;"/>
<line x1="105.000000" y1="94.000000" x2="115.000000" y2="94.000000"  style="stroke:black; stroke-linecap:round; stroke-width:0.25;"/>
<line x1="113.000000" y1="24.000000" x2="113.000000" y2="36.000000"  style="stroke:black; stroke-linecap:round; stroke-width:0.25;"/>
<line x1="113.000000" y1="36.000000" x2="113.000000" y2="36.000000"  style="stroke:black; stroke-linecap:round; stroke-width:0.25;"/>
<line x1="113.000000" y1="36.000000" x2="117.000000" y2="36.000000"  style="stroke:black; stroke-linecap:round; stroke-width:0.25;"/>
<line x1="113.000000" y1="44.000000" x2="117.000000" y2="44.000000"  style="stroke:black; stroke-linecap:round; stroke-width:0.25;"/>
<line x1="115.000000" y1="64.000000" x2="123.000000" y2="64.000000"  style="stroke:black; stroke-linecap:round; stroke-width:0.25;"/>
<line x1="115.000000" y1="94.000000" x2="123.000000" y2="94.000000"  style="stroke:black; stroke-linecap:round; stroke-width:0.25;"/>
<line x1="123.000000" y1="64.000000" x2="123.000000" y2="86.000000"  style="stroke:black; stroke-linecap:round; stroke-width:0.25;"/>
<line x1="123.000000" y1="86.000000" x2="123.000000" y2="86.000000"  style="stroke:black; stroke-linecap:round; stroke-width:0.25;"/>
<line x1="123.000000" y1="86.000000" x2="127.000000" y2="86.000000"  style="stroke:black; stroke-linecap:round; stroke-width:0.25;"/>
<line x1="123.000000" y1="94.000000" x2="127.000000" y2="94.000000"  style="stroke:black; stroke-linecap:round; stroke-width:0.25;"/>
<line x1="141.000000" y1="40.000000" x2="145.000000" y2="40.000000"  style="stroke:black; stroke-linecap:round; stroke-width:0.25;"/>
<line x1="145.000000" y1="40.000000" x2="155.000000" y2="40.000000"  style="stroke:black; stroke-linecap:round; stroke-width:0.25;"/>
<line x1="151.000000" y1="90.000000" x2="155.000000" y2="90.000000"  style="stroke:black; stroke-linecap:round; stroke-width:0.25;"/>
<line x1="155.000000" y1="40.000000" x2="163.000000" y2="40.000000"  style="stroke:black; stroke-linecap:round; stroke-width:0.25;"/>
<line x1="155.000000" y1="74.000000" x2="163.000000" y2="74.000000"  style="stroke:black; stroke-linecap:round; stroke-width:0.25;"/>
<line x1="155.000000" y1="90.000000" x2="155.000000" y2="74.000000"  style="stroke:black; stroke-linecap:round; stroke-width:0.25;"/>
<line x1="155.000000" y1="90.000000" x2="155.000000" y2="90.000000"  style="stroke:black; stroke-linecap:round; stroke-width:0.25;"/>
<line x1="163.000000" y1="40.000000" x2="163.000000" y2="66.000000"  style="stroke:black; stroke-linecap:round; stroke-width:0.25;"/>
<line x1="163.000000" y1="66.000000" x2="163.000000" y2="66.000000"  style="stroke:black; stroke-linecap:round; stroke-width:0.25;"/>
<line x1="163.000000" y1="66.000000" x2="167.000000" y2="66.000000"  style="stroke:black; stroke-linecap:round; stroke-width:0.25;"/>
<line x1="163.000000" y1="74.000000" x2="167.000000" y2="74.000000"  style="stroke:black; stroke-linecap:round; stroke-width:0.25;"/>
<line x1="191.000000" y1="70.000000" x2="195.000000" y2="70.000000"  style="stroke:black; stroke-linecap:round; stroke-width:0.25;"/>
<line x1="195.000000" y1="54.000000" x2="203.000000" y2="54.000000"  style="stroke:black; stroke-linecap:round; stroke-width:0.25;"/>
<line x1="195.000000" y1="70.000000" x2="195.000000" y2="54.000000"  style="stroke:black; stroke-linecap:round; stroke-width:0.25;"/>
<line x1="195.000000" y1="70.000000" x2="195.000000" y2="70.000000"  style="stroke:black; stroke-linecap:round; stroke-width:0.25;"/>
<line x1="203.000000" y1="54.000000" x2="226.350000" y2="54.000000"  style="stroke:black; stroke-linecap:round; stroke-width:0.25;"/>
<line x1="226.350000" y1="54.000000" x2="249.700000" y2="54.000000"  style="stroke:black; stroke-linecap:round; stroke-width:0.25;"/>
<line x1="245.700000" y1="74.000000" x2="249.700000" y2="74.000000"  style="stroke:black; stroke-linecap:round; stroke-width:0.25;"/>
<line x1="249.700000" y1="54.000000" x2="257.700000" y2="54.000000"  style="stroke:black; stroke-linecap:round; stroke-width:0.25;"/>
<line x1="249.700000" y1="74.000000" x2="257.700000" y2="74.000000"  style="stroke:black; stroke-linecap:round; stroke-width:0.25;"/>
<line x1="257.700000" y1="54.000000" x2="257.700000" y2="66.000000"  style="stroke:black; stroke-linecap:round; stroke-width:0.25;"/>
<line x1="257.700000" y1="66.000000" x2="257.700000" y2="66.000000"  style="stroke:black; stroke-linecap:round; stroke-width:0.25;"/>
<line x1="257.700000" y1="66.000000" x2="261.700000" y2="66.000000"  style="stroke:black; stroke-linecap:round; stroke-width:0.25;"/>
<line x1="257.700000" y1="74.000000" x2="261.700000" y2="74.000000"  style="stroke:black; stroke-linecap:round; stroke-width:0.25;"/>
<line x1="285.700000" y1="70.000000" x2="289.700000" y2="70.000000"  style="stroke:black; stroke-linecap:round; stroke-width:0.25;"/>
<line x1="289.700000" y1="70.000000" x2="289.700000" y2="70.000000"  style="stroke:black; stroke-linecap:round; stroke-width:0.25;"/>
<line x1="289.700000" y1="70.000000" x2="293.700000" y2="70.000000"  style="stroke:black; stroke-linecap:round; stroke-width:0.25;"/>
<line x1="317.700000" y1="70.000000" x2="321.700000" y2="70.000000"  style="stroke:black; stroke-linecap:round; stroke-width:0.25;"/>
<line x1="321.700000" y1="54.000000" x2="329.700000" y2="54.000000"  style="stroke:black; stroke-linecap:round; stroke-width:0.25;"/>
<line x1="321.700000" y1="70.000000" x2="321.700000" y2="54.000000"  style="stroke:black; stroke-linecap:round; stroke-width:0.25;"/>
<line x1="321.700000" y1="70.000000" x2="321.700000" y2="70.000000"  style="stroke:black; stroke-linecap:round; stroke-width:0.25;"/>
<line x1="329.700000" y1="54.000000" x2="346.600000" y2="54.000000"  style="stroke:black; stroke-linecap:round; stroke-width:0.25;"/>
<line x1="346.600000" y1="54.000000" x2="363.500000" y2="54.000000"  style="stroke:black; stroke-linecap:round; stroke-width:0.25;"/>
<line x1="359.500000" y1="74.000000" x2="363.500000" y2="74.000000"  style="stroke:black; stroke-linecap:round; stroke-width:0.25;"/>
<line x1="363.500000" y1="54.000000" x2="371.500000" y2="54.000000"  style="stroke:black; stroke-linecap:round; stroke-width:0.25;"/>
<line x1="363.500000" y1="74.000000" x2="371.500000" y2="74.000000"  style="stroke:black; stroke-linecap:round; stroke-width:0.25;"/>
<line x1="371.500000" y1="54.000000" x2="371.500000" y2="66.000000"  style="stroke:black; stroke-linecap:round; stroke-width:0.25;"/>
<line x1="371.500000" y1="66.000000" x2="371.500000" y2="66.000000"  style="stroke:black; stroke-linecap:round; stroke-width:0.25;"/>
<line x1="371.500000" y1="66.000000" x2="375.500000" y2="66.000000"  style="stroke:black; stroke-linecap:round; stroke-width:0.25;"/>
<line x1="371.500000" y1="74.000000" x2="375.500000" y2="74.000000"  style="stroke:black; stroke-linecap:round; stroke-width:0.25;"/>
<line x1="399.500000" y1="70.000000" x2="403.500000" y2="70.000000"  style="stroke:black; stroke-linecap:round; stroke-width:0.25;"/>
<line x1="403.500000" y1="70.000000" x2="403.500000" y2="70.000000"  style="stroke:black; stroke-linecap:round; stroke-width:0.25;"/>
<line x1="403.500000" y1="70.000000" x2="407.500000" y2="70.000000"  style="stroke:black; stroke-linecap:round; stroke-width:0.25;"/>
<line x1="407.500000" y1="70.000000" x2="411.500000" y2="70.000000"  style="stroke:black; stroke-linecap:round; stroke-width:0.25;"/>
<line x1="411.500000" y1="70.000000" x2="421.500000" y2="70.000000"  style="stroke:black; stroke-linecap:round; stroke-width:0.25;"/>
</svg>
