<?xml version="1.0"?>
<svg xmlns="http://www.w3.org/2000/svg" xmlns:xlink="http://www.w3.org/1999/xlink" viewBox="0 0 262.300000 100.000000" width="131.150000mm" height="50.000000mm" version="1.1">
<a xlink:href="autoTrig-0x7fb83d739be0.svg">
<rect x="1.000000" y="1.000000" width="261.300000" height="99.000000" rx="0" ry="0" style="stroke:none;fill:#cccccc;"/>
<rect x="0.000000" y="0.000000" width="261.300000" height="99.000000" rx="0" ry="0" style="stroke:none;fill:#ffffff;"/>
</a>
<text x="10.000000" y="7.000000" font-family="Arial" font-size="7"></text>
<a xlink:href="upfront-0x7fb83d737d70.svg">
<rect x="33.000000" y="39.000000" width="38.700000" height="24.000000" rx="0" ry="0" style="stroke:none;fill:#cccccc;"/>
<rect x="32.000000" y="38.000000" width="38.700000" height="24.000000" rx="0" ry="0" style="stroke:none;fill:#003366;"/>
</a>
<a xlink:href="upfront-0x7fb83d737d70.svg">
<text x="51.350000" y="52.000000" font-family="Arial" font-size="7" text-anchor="middle" fill="#FFFFFF">upfront</text>
</a>
<circle cx="34.000000" cy="40.000000" r="1"/>
<line x1="29.000000" y1="49.000000" x2="32.000000" y2="50.000000"  transform="rotate(0.000000,32.000000,50.000000)" style="stroke: black; stroke-width:0.25;"/>
<line x1="29.000000" y1="51.000000" x2="32.000000" y2="50.000000"  transform="rotate(0.000000,32.000000,50.000000)" style="stroke: black; stroke-width:0.25;"/>
<a xlink:href="release-0x7fb83d739910.svg">
<rect x="79.700000" y="39.000000" width="51.600000" height="24.000000" rx="0" ry="0" style="stroke:none;fill:#cccccc;"/>
<rect x="78.700000" y="38.000000" width="51.600000" height="24.000000" rx="0" ry="0" style="stroke:none;fill:#003366;"/>
</a>
<a xlink:href="release-0x7fb83d739910.svg">
<text x="104.500000" y="52.000000" font-family="Arial" font-size="7" text-anchor="middle" fill="#FFFFFF">release(48)</text>
</a>
<circle cx="80.700000" cy="40.000000" r="1"/>
<line x1="75.700000" y1="49.000000" x2="78.700000" y2="50.000000"  transform="rotate(0.000000,78.700000,50.000000)" style="stroke: black; stroke-width:0.25;"/>
<line x1="75.700000" y1="51.000000" x2="78.700000" y2="50.000000"  transform="rotate(0.000000,78.700000,50.000000)" style="stroke: black; stroke-width:0.25;"/>
<rect x="157.300000" y="43.000000" width="24.000000" height="24.000000" rx="0" ry="0" style="stroke:none;fill:#cccccc;"/>
<rect x="156.300000" y="42.000000" width="24.000000" height="24.000000" rx="0" ry="0" style="stroke:none;fill:#f44800;"/>
<text x="168.300000" y="56.000000" font-family="Arial" font-size="7" text-anchor="middle" fill="#FFFFFF">0</text>
<circle cx="158.300000" cy="44.000000" r="1"/>
<line x1="147.300000" y1="33.000000" x2="147.300000" y2="75.000000"  style="stroke: black; stroke-linecap:round; stroke-width:0.25; stroke-dasharray:3,3;"/>
<line x1="147.300000" y1="75.000000" x2="189.300000" y2="75.000000"  style="stroke: black; stroke-linecap:round; stroke-width:0.25; stroke-dasharray:3,3;"/>
<line x1="189.300000" y1="75.000000" x2="189.300000" y2="33.000000"  style="stroke: black; stroke-linecap:round; stroke-width:0.25; stroke-dasharray:3,3;"/>
<line x1="147.300000" y1="33.000000" x2="152.300000" y2="33.000000"  style="stroke: black; stroke-linecap:round; stroke-width:0.25; stroke-dasharray:3,3;"/>
<line x1="171.650000" y1="33.000000" x2="189.300000" y2="33.000000"  style="stroke: black; stroke-linecap:round; stroke-width:0.25; stroke-dasharray:3,3;"/>
<text x="152.300000" y="35.000000" font-family="Arial" font-size="7">eq2l</text>
<rect x="207.300000" y="39.000000" width="24.000000" height="24.000000" rx="0" ry="0" style="stroke:none;fill:#cccccc;"/>
<rect x="206.300000" y="38.000000" width="24.000000" height="24.000000" rx="0" ry="0" style="stroke:none;fill:#4B71A1;"/>
<text x="218.300000" y="52.000000" font-family="Arial" font-size="7" text-anchor="middle" fill="#FFFFFF">&gt;</text>
<circle cx="208.300000" cy="40.000000" r="1"/>
<line x1="203.300000" y1="45.000000" x2="206.300000" y2="46.000000"  transform="rotate(0.000000,206.300000,46.000000)" style="stroke: black; stroke-width:0.25;"/>
<line x1="203.300000" y1="47.000000" x2="206.300000" y2="46.000000"  transform="rotate(0.000000,206.300000,46.000000)" style="stroke: black; stroke-width:0.25;"/>
<line x1="203.300000" y1="53.000000" x2="206.300000" y2="54.000000"  transform="rotate(0.000000,206.300000,54.000000)" style="stroke: black; stroke-width:0.25;"/>
<line x1="203.300000" y1="55.000000" x2="206.300000" y2="54.000000"  transform="rotate(0.000000,206.300000,54.000000)" style="stroke: black; stroke-width:0.25;"/>
<line x1="15.000000" y1="15.000000" x2="15.000000" y2="85.000000"  style="stroke: black; stroke-linecap:round; stroke-width:0.25; stroke-dasharray:3,3;"/>
<line x1="15.000000" y1="85.000000" x2="247.300000" y2="85.000000"  style="stroke: black; stroke-linecap:round; stroke-width:0.25; stroke-dasharray:3,3;"/>
<line x1="247.300000" y1="85.000000" x2="247.300000" y2="15.000000"  style="stroke: black; stroke-linecap:round; stroke-width:0.25; stroke-dasharray:3,3;"/>
<line x1="15.000000" y1="15.000000" x2="20.000000" y2="15.000000"  style="stroke: black; stroke-linecap:round; stroke-width:0.25; stroke-dasharray:3,3;"/>
<line x1="61.925000" y1="15.000000" x2="247.300000" y2="15.000000"  style="stroke: black; stroke-linecap:round; stroke-width:0.25; stroke-dasharray:3,3;"/>
<text x="20.000000" y="17.000000" font-family="Arial" font-size="7">trigger(48)</text>
<line x1="249.300000" y1="49.000000" x2="252.300000" y2="50.000000"  transform="rotate(0.000000,252.300000,50.000000)" style="stroke: black; stroke-width:0.25;"/>
<line x1="249.300000" y1="51.000000" x2="252.300000" y2="50.000000"  transform="rotate(0.000000,252.300000,50.000000)" style="stroke: black; stroke-width:0.25;"/>
<line x1="10.000000" y1="50.000000" x2="20.000000" y2="50.000000"  style="stroke:black; stroke-linecap:round; stroke-width:0.25;"/>
<line x1="20.000000" y1="50.000000" x2="24.000000" y2="50.000000"  style="stroke:black; stroke-linecap:round; stroke-width:0.25;"/>
<line x1="24.000000" y1="50.000000" x2="28.000000" y2="50.000000"  style="stroke:black; stroke-linecap:round; stroke-width:0.25;"/>
<line x1="28.000000" y1="50.000000" x2="28.000000" y2="50.000000"  style="stroke:black; stroke-linecap:round; stroke-width:0.25;"/>
<line x1="28.000000" y1="50.000000" x2="32.000000" y2="50.000000"  style="stroke:black; stroke-linecap:round; stroke-width:0.25;"/>
<line x1="70.700000" y1="50.000000" x2="74.700000" y2="50.000000"  style="stroke:black; stroke-linecap:round; stroke-width:0.25;"/>
<line x1="74.700000" y1="50.000000" x2="74.700000" y2="50.000000"  style="stroke:black; stroke-linecap:round; stroke-width:0.25;"/>
<line x1="74.700000" y1="50.000000" x2="78.700000" y2="50.000000"  style="stroke:black; stroke-linecap:round; stroke-width:0.25;"/>
<line x1="130.300000" y1="50.000000" x2="134.300000" y2="50.000000"  style="stroke:black; stroke-linecap:round; stroke-width:0.25;"/>
<line x1="134.300000" y1="24.000000" x2="142.300000" y2="24.000000"  style="stroke:black; stroke-linecap:round; stroke-width:0.25;"/>
<line x1="134.300000" y1="50.000000" x2="134.300000" y2="24.000000"  style="stroke:black; stroke-linecap:round; stroke-width:0.25;"/>
<line x1="134.300000" y1="50.000000" x2="134.300000" y2="50.000000"  style="stroke:black; stroke-linecap:round; stroke-width:0.25;"/>
<line x1="142.300000" y1="24.000000" x2="168.300000" y2="24.000000"  style="stroke:black; stroke-linecap:round; stroke-width:0.25;"/>
<line x1="168.300000" y1="24.000000" x2="194.300000" y2="24.000000"  style="stroke:black; stroke-linecap:round; stroke-width:0.25;"/>
<line x1="180.300000" y1="54.000000" x2="184.300000" y2="54.000000"  style="stroke:black; stroke-linecap:round; stroke-width:0.25;"/>
<line x1="184.300000" y1="54.000000" x2="194.300000" y2="54.000000"  style="stroke:black; stroke-linecap:round; stroke-width:0.25;"/>
<line x1="194.300000" y1="24.000000" x2="202.300000" y2="24.000000"  style="stroke:black; stroke-linecap:round; stroke-width:0.25;"/>
<line x1="194.300000" y1="54.000000" x2="202.300000" y2="54.000000"  style="stroke:black; stroke-linecap:round; stroke-width:0.25;"/>
<line x1="202.300000" y1="24.000000" x2="202.300000" y2="46.000000"  style="stroke:black; stroke-linecap:round; stroke-width:0.25;"/>
<line x1="202.300000" y1="46.000000" x2="202.300000" y2="46.000000"  style="stroke:black; stroke-linecap:round; stroke-width:0.25;"/>
<line x1="202.300000" y1="46.000000" x2="206.300000" y2="46.000000"  style="stroke:black; stroke-linecap:round; stroke-width:0.25;"/>
<line x1="202.300000" y1="54.000000" x2="206.300000" y2="54.000000"  style="stroke:black; stroke-linecap:round; stroke-width:0.25;"/>
<line x1="230.300000" y1="50.000000" x2="234.300000" y2="50.000000"  style="stroke:black; stroke-linecap:round; stroke-width:0.25;"/>
<line x1="234.300000" y1="50.000000" x2="234.300000" y2="50.000000"  style="stroke:black; stroke-linecap:round; stroke-width:0.25;"/>
<line x1="234.300000" y1="50.000000" x2="238.300000" y2="50.000000"  style="stroke:black; stroke-linecap:round; stroke-width:0.25;"/>
<line x1="238.300000" y1="50.000000" x2="242.300000" y2="50.000000"  style="stroke:black; stroke-linecap:round; stroke-width:0.25;"/>
<line x1="242.300000" y1="50.000000" x2="252.300000" y2="50.000000"  style="stroke:black; stroke-linecap:round; stroke-width:0.25;"/>
</svg>
