<?xml version="1.0"?>
<svg xmlns="http://www.w3.org/2000/svg" xmlns:xlink="http://www.w3.org/1999/xlink" viewBox="0 0 301.400000 152.000000" width="150.700000mm" height="76.000000mm" version="1.1">
<a xlink:href="gate-0x7f85d3cb4360.svg">
<rect x="1.000000" y="1.000000" width="300.400000" height="151.000000" rx="0" ry="0" style="stroke:none;fill:#cccccc;"/>
<rect x="0.000000" y="0.000000" width="300.400000" height="151.000000" rx="0" ry="0" style="stroke:none;fill:#ffffff;"/>
</a>
<text x="10.000000" y="7.000000" font-family="Arial" font-size="7"></text>
<a xlink:href="speed-0x7f85d3cab410.svg">
<rect x="33.000000" y="73.000000" width="25.800000" height="24.000000" rx="0" ry="0" style="stroke:none;fill:#cccccc;"/>
<rect x="32.000000" y="72.000000" width="25.800000" height="24.000000" rx="0" ry="0" style="stroke:none;fill:#003366;"/>
</a>
<a xlink:href="speed-0x7f85d3cab410.svg">
<text x="44.900000" y="86.000000" font-family="Arial" font-size="7" text-anchor="middle" fill="#FFFFFF">speed</text>
</a>
<circle cx="34.000000" cy="74.000000" r="1"/>
<rect x="66.800000" y="73.000000" width="25.800000" height="24.000000" rx="0" ry="0" style="stroke:none;fill:#cccccc;"/>
<rect x="65.800000" y="72.000000" width="25.800000" height="24.000000" rx="0" ry="0" style="stroke:none;fill:#4B71A1;"/>
<text x="78.700000" y="86.000000" font-family="Arial" font-size="7" text-anchor="middle" fill="#FFFFFF">float</text>
<circle cx="67.800000" cy="74.000000" r="1"/>
<line x1="62.800000" y1="83.000000" x2="65.800000" y2="84.000000"  transform="rotate(0.000000,65.800000,84.000000)" style="stroke: black; stroke-width:0.25;"/>
<line x1="62.800000" y1="85.000000" x2="65.800000" y2="84.000000"  transform="rotate(0.000000,65.800000,84.000000)" style="stroke: black; stroke-width:0.25;"/>
<a xlink:href="SR-0x7f85d3e629f0.svg">
<rect x="33.900000" y="105.000000" width="24.000000" height="24.000000" rx="0" ry="0" style="stroke:none;fill:#cccccc;"/>
<rect x="32.900000" y="104.000000" width="24.000000" height="24.000000" rx="0" ry="0" style="stroke:none;fill:#003366;"/>
</a>
<a xlink:href="SR-0x7f85d3e629f0.svg">
<text x="44.900000" y="118.000000" font-family="Arial" font-size="7" text-anchor="middle" fill="#FFFFFF">SR</text>
</a>
<circle cx="34.900000" cy="106.000000" r="1"/>
<rect x="65.900000" y="105.000000" width="25.800000" height="24.000000" rx="0" ry="0" style="stroke:none;fill:#cccccc;"/>
<rect x="64.900000" y="104.000000" width="25.800000" height="24.000000" rx="0" ry="0" style="stroke:none;fill:#4B71A1;"/>
<text x="77.800000" y="118.000000" font-family="Arial" font-size="7" text-anchor="middle" fill="#FFFFFF">float</text>
<circle cx="66.900000" cy="106.000000" r="1"/>
<line x1="61.900000" y1="115.000000" x2="64.900000" y2="116.000000"  transform="rotate(0.000000,64.900000,116.000000)" style="stroke: black; stroke-width:0.25;"/>
<line x1="61.900000" y1="117.000000" x2="64.900000" y2="116.000000"  transform="rotate(0.000000,64.900000,116.000000)" style="stroke: black; stroke-width:0.25;"/>
<rect x="108.600000" y="89.000000" width="24.000000" height="24.000000" rx="0" ry="0" style="stroke:none;fill:#cccccc;"/>
<rect x="107.600000" y="88.000000" width="24.000000" height="24.000000" rx="0" ry="0" style="stroke:none;fill:#4B71A1;"/>
<text x="119.600000" y="102.000000" font-family="Arial" font-size="7" text-anchor="middle" fill="#FFFFFF">/</text>
<circle cx="109.600000" cy="90.000000" r="1"/>
<line x1="104.600000" y1="95.000000" x2="107.600000" y2="96.000000"  transform="rotate(0.000000,107.600000,96.000000)" style="stroke: black; stroke-width:0.25;"/>
<line x1="104.600000" y1="97.000000" x2="107.600000" y2="96.000000"  transform="rotate(0.000000,107.600000,96.000000)" style="stroke: black; stroke-width:0.25;"/>
<line x1="104.600000" y1="103.000000" x2="107.600000" y2="104.000000"  transform="rotate(0.000000,107.600000,104.000000)" style="stroke: black; stroke-width:0.25;"/>
<line x1="104.600000" y1="105.000000" x2="107.600000" y2="104.000000"  transform="rotate(0.000000,107.600000,104.000000)" style="stroke: black; stroke-width:0.25;"/>
<rect x="148.600000" y="85.000000" width="24.000000" height="24.000000" rx="0" ry="0" style="stroke:none;fill:#cccccc;"/>
<rect x="147.600000" y="84.000000" width="24.000000" height="24.000000" rx="0" ry="0" style="stroke:none;fill:#4B71A1;"/>
<text x="159.600000" y="98.000000" font-family="Arial" font-size="7" text-anchor="middle" fill="#FFFFFF">+</text>
<circle cx="149.600000" cy="86.000000" r="1"/>
<line x1="144.600000" y1="91.000000" x2="147.600000" y2="92.000000"  transform="rotate(0.000000,147.600000,92.000000)" style="stroke: black; stroke-width:0.25;"/>
<line x1="144.600000" y1="93.000000" x2="147.600000" y2="92.000000"  transform="rotate(0.000000,147.600000,92.000000)" style="stroke: black; stroke-width:0.25;"/>
<line x1="144.600000" y1="99.000000" x2="147.600000" y2="100.000000"  transform="rotate(0.000000,147.600000,100.000000)" style="stroke: black; stroke-width:0.25;"/>
<line x1="144.600000" y1="101.000000" x2="147.600000" y2="100.000000"  transform="rotate(0.000000,147.600000,100.000000)" style="stroke: black; stroke-width:0.25;"/>
<rect x="188.600000" y="89.000000" width="24.000000" height="24.000000" rx="0" ry="0" style="stroke:none;fill:#cccccc;"/>
<rect x="187.600000" y="88.000000" width="24.000000" height="24.000000" rx="0" ry="0" style="stroke:none;fill:#f44800;"/>
<text x="199.600000" y="102.000000" font-family="Arial" font-size="7" text-anchor="middle" fill="#FFFFFF">1</text>
<circle cx="189.600000" cy="90.000000" r="1"/>
<rect x="228.600000" y="85.000000" width="25.800000" height="24.000000" rx="0" ry="0" style="stroke:none;fill:#cccccc;"/>
<rect x="227.600000" y="84.000000" width="25.800000" height="24.000000" rx="0" ry="0" style="stroke:none;fill:#4B71A1;"/>
<text x="240.500000" y="98.000000" font-family="Arial" font-size="7" text-anchor="middle" fill="#FFFFFF">fmod</text>
<circle cx="229.600000" cy="86.000000" r="1"/>
<line x1="224.600000" y1="91.000000" x2="227.600000" y2="92.000000"  transform="rotate(0.000000,227.600000,92.000000)" style="stroke: black; stroke-width:0.25;"/>
<line x1="224.600000" y1="93.000000" x2="227.600000" y2="92.000000"  transform="rotate(0.000000,227.600000,92.000000)" style="stroke: black; stroke-width:0.25;"/>
<line x1="224.600000" y1="99.000000" x2="227.600000" y2="100.000000"  transform="rotate(0.000000,227.600000,100.000000)" style="stroke: black; stroke-width:0.25;"/>
<line x1="224.600000" y1="101.000000" x2="227.600000" y2="100.000000"  transform="rotate(0.000000,227.600000,100.000000)" style="stroke: black; stroke-width:0.25;"/>
<rect x="151.700000" y="25.000000" width="24.000000" height="24.000000" rx="0" ry="0" style="stroke:none;fill:#cccccc;"/>
<rect x="150.700000" y="24.000000" width="24.000000" height="24.000000" rx="0" ry="0" style="stroke:none;fill:#f44800;"/>
<text x="162.700000" y="38.000000" font-family="Arial" font-size="7" text-anchor="middle" fill="#FFFFFF">1</text>
<circle cx="172.700000" cy="46.000000" r="1"/>
<rect x="111.700000" y="29.000000" width="24.000000" height="24.000000" rx="0" ry="0" style="stroke:none;fill:#cccccc;"/>
<rect x="110.700000" y="28.000000" width="24.000000" height="24.000000" rx="0" ry="0" style="stroke:none;fill:#4B71A1;"/>
<text x="122.700000" y="42.000000" font-family="Arial" font-size="7" text-anchor="middle" fill="#FFFFFF">*</text>
<circle cx="132.700000" cy="50.000000" r="1"/>
<line x1="137.700000" y1="43.000000" x2="134.700000" y2="44.000000"  transform="rotate(0.000000,134.700000,44.000000)" style="stroke: black; stroke-width:0.25;"/>
<line x1="137.700000" y1="45.000000" x2="134.700000" y2="44.000000"  transform="rotate(0.000000,134.700000,44.000000)" style="stroke: black; stroke-width:0.25;"/>
<line x1="137.700000" y1="35.000000" x2="134.700000" y2="36.000000"  transform="rotate(0.000000,134.700000,36.000000)" style="stroke: black; stroke-width:0.25;"/>
<line x1="137.700000" y1="37.000000" x2="134.700000" y2="36.000000"  transform="rotate(0.000000,134.700000,36.000000)" style="stroke: black; stroke-width:0.25;"/>
<line x1="255.400000" y1="96.000000" x2="255.400000" y2="92.000000"  style="stroke:black; stroke-linecap:round; stroke-width:0.25;"/>
<line x1="255.400000" y1="92.000000" x2="259.400000" y2="92.000000"  style="stroke:black; stroke-linecap:round; stroke-width:0.25;"/>
<line x1="259.400000" y1="92.000000" x2="259.400000" y2="96.000000"  style="stroke:black; stroke-linecap:round; stroke-width:0.25;"/>
<line x1="15.000000" y1="15.000000" x2="15.000000" y2="137.000000"  style="stroke: black; stroke-linecap:round; stroke-width:0.25; stroke-dasharray:3,3;"/>
<line x1="15.000000" y1="137.000000" x2="286.400000" y2="137.000000"  style="stroke: black; stroke-linecap:round; stroke-width:0.25; stroke-dasharray:3,3;"/>
<line x1="286.400000" y1="137.000000" x2="286.400000" y2="15.000000"  style="stroke: black; stroke-linecap:round; stroke-width:0.25; stroke-dasharray:3,3;"/>
<line x1="15.000000" y1="15.000000" x2="20.000000" y2="15.000000"  style="stroke: black; stroke-linecap:round; stroke-width:0.25; stroke-dasharray:3,3;"/>
<line x1="55.475000" y1="15.000000" x2="286.400000" y2="15.000000"  style="stroke: black; stroke-linecap:round; stroke-width:0.25; stroke-dasharray:3,3;"/>
<text x="20.000000" y="17.000000" font-family="Arial" font-size="7">phasor(1)</text>
<line x1="288.400000" y1="75.000000" x2="291.400000" y2="76.000000"  transform="rotate(0.000000,291.400000,76.000000)" style="stroke: black; stroke-width:0.25;"/>
<line x1="288.400000" y1="77.000000" x2="291.400000" y2="76.000000"  transform="rotate(0.000000,291.400000,76.000000)" style="stroke: black; stroke-width:0.25;"/>
<line x1="28.000000" y1="40.000000" x2="28.000000" y2="40.000000"  style="stroke:black; stroke-linecap:round; stroke-width:0.25;"/>
<line x1="28.000000" y1="40.000000" x2="28.000000" y2="64.000000"  style="stroke:black; stroke-linecap:round; stroke-width:0.25;"/>
<line x1="28.000000" y1="64.000000" x2="28.000000" y2="64.000000"  style="stroke:black; stroke-linecap:round; stroke-width:0.25;"/>
<line x1="28.000000" y1="64.000000" x2="81.800000" y2="64.000000"  style="stroke:black; stroke-linecap:round; stroke-width:0.25;"/>
<line x1="56.900000" y1="116.000000" x2="60.900000" y2="116.000000"  style="stroke:black; stroke-linecap:round; stroke-width:0.25;"/>
<line x1="57.800000" y1="84.000000" x2="61.800000" y2="84.000000"  style="stroke:black; stroke-linecap:round; stroke-width:0.25;"/>
<line x1="60.900000" y1="116.000000" x2="60.900000" y2="116.000000"  style="stroke:black; stroke-linecap:round; stroke-width:0.25;"/>
<line x1="60.900000" y1="116.000000" x2="64.900000" y2="116.000000"  style="stroke:black; stroke-linecap:round; stroke-width:0.25;"/>
<line x1="61.800000" y1="84.000000" x2="61.800000" y2="84.000000"  style="stroke:black; stroke-linecap:round; stroke-width:0.25;"/>
<line x1="61.800000" y1="84.000000" x2="65.800000" y2="84.000000"  style="stroke:black; stroke-linecap:round; stroke-width:0.25;"/>
<line x1="81.800000" y1="64.000000" x2="135.600000" y2="64.000000"  style="stroke:black; stroke-linecap:round; stroke-width:0.25;"/>
<line x1="90.700000" y1="116.000000" x2="94.700000" y2="116.000000"  style="stroke:black; stroke-linecap:round; stroke-width:0.25;"/>
<line x1="91.600000" y1="84.000000" x2="95.600000" y2="84.000000"  style="stroke:black; stroke-linecap:round; stroke-width:0.25;"/>
<line x1="94.700000" y1="116.000000" x2="95.600000" y2="116.000000"  style="stroke:black; stroke-linecap:round; stroke-width:0.25;"/>
<line x1="95.600000" y1="84.000000" x2="103.600000" y2="84.000000"  style="stroke:black; stroke-linecap:round; stroke-width:0.25;"/>
<line x1="95.600000" y1="104.000000" x2="103.600000" y2="104.000000"  style="stroke:black; stroke-linecap:round; stroke-width:0.25;"/>
<line x1="95.600000" y1="116.000000" x2="95.600000" y2="104.000000"  style="stroke:black; stroke-linecap:round; stroke-width:0.25;"/>
<line x1="95.600000" y1="116.000000" x2="95.600000" y2="116.000000"  style="stroke:black; stroke-linecap:round; stroke-width:0.25;"/>
<line x1="103.600000" y1="84.000000" x2="103.600000" y2="96.000000"  style="stroke:black; stroke-linecap:round; stroke-width:0.25;"/>
<line x1="103.600000" y1="96.000000" x2="103.600000" y2="96.000000"  style="stroke:black; stroke-linecap:round; stroke-width:0.25;"/>
<line x1="103.600000" y1="96.000000" x2="107.600000" y2="96.000000"  style="stroke:black; stroke-linecap:round; stroke-width:0.25;"/>
<line x1="103.600000" y1="104.000000" x2="107.600000" y2="104.000000"  style="stroke:black; stroke-linecap:round; stroke-width:0.25;"/>
<line x1="106.700000" y1="40.000000" x2="28.000000" y2="40.000000"  style="stroke:black; stroke-linecap:round; stroke-width:0.25;"/>
<line x1="110.700000" y1="40.000000" x2="106.700000" y2="40.000000"  style="stroke:black; stroke-linecap:round; stroke-width:0.25;"/>
<line x1="131.600000" y1="100.000000" x2="135.600000" y2="100.000000"  style="stroke:black; stroke-linecap:round; stroke-width:0.25;"/>
<line x1="135.600000" y1="64.000000" x2="143.600000" y2="64.000000"  style="stroke:black; stroke-linecap:round; stroke-width:0.25;"/>
<line x1="135.600000" y1="100.000000" x2="143.600000" y2="100.000000"  style="stroke:black; stroke-linecap:round; stroke-width:0.25;"/>
<line x1="138.700000" y1="36.000000" x2="134.700000" y2="36.000000"  style="stroke:black; stroke-linecap:round; stroke-width:0.25;"/>
<line x1="138.700000" y1="44.000000" x2="134.700000" y2="44.000000"  style="stroke:black; stroke-linecap:round; stroke-width:0.25;"/>
<line x1="138.700000" y1="44.000000" x2="138.700000" y2="44.000000"  style="stroke:black; stroke-linecap:round; stroke-width:0.25;"/>
<line x1="138.700000" y1="56.000000" x2="138.700000" y2="44.000000"  style="stroke:black; stroke-linecap:round; stroke-width:0.25;"/>
<line x1="143.600000" y1="64.000000" x2="143.600000" y2="92.000000"  style="stroke:black; stroke-linecap:round; stroke-width:0.25;"/>
<line x1="143.600000" y1="92.000000" x2="143.600000" y2="92.000000"  style="stroke:black; stroke-linecap:round; stroke-width:0.25;"/>
<line x1="143.600000" y1="92.000000" x2="147.600000" y2="92.000000"  style="stroke:black; stroke-linecap:round; stroke-width:0.25;"/>
<line x1="143.600000" y1="100.000000" x2="147.600000" y2="100.000000"  style="stroke:black; stroke-linecap:round; stroke-width:0.25;"/>
<line x1="146.700000" y1="36.000000" x2="138.700000" y2="36.000000"  style="stroke:black; stroke-linecap:round; stroke-width:0.25;"/>
<line x1="146.700000" y1="56.000000" x2="138.700000" y2="56.000000"  style="stroke:black; stroke-linecap:round; stroke-width:0.25;"/>
<line x1="150.700000" y1="36.000000" x2="146.700000" y2="36.000000"  style="stroke:black; stroke-linecap:round; stroke-width:0.25;"/>
<line x1="162.700000" y1="56.000000" x2="146.700000" y2="56.000000"  style="stroke:black; stroke-linecap:round; stroke-width:0.25;"/>
<line x1="171.600000" y1="96.000000" x2="175.600000" y2="96.000000"  style="stroke:black; stroke-linecap:round; stroke-width:0.25;"/>
<line x1="175.600000" y1="80.000000" x2="183.600000" y2="80.000000"  style="stroke:black; stroke-linecap:round; stroke-width:0.25;"/>
<line x1="175.600000" y1="96.000000" x2="175.600000" y2="80.000000"  style="stroke:black; stroke-linecap:round; stroke-width:0.25;"/>
<line x1="175.600000" y1="96.000000" x2="175.600000" y2="96.000000"  style="stroke:black; stroke-linecap:round; stroke-width:0.25;"/>
<line x1="178.700000" y1="56.000000" x2="162.700000" y2="56.000000"  style="stroke:black; stroke-linecap:round; stroke-width:0.25;"/>
<line x1="183.600000" y1="80.000000" x2="199.600000" y2="80.000000"  style="stroke:black; stroke-linecap:round; stroke-width:0.25;"/>
<line x1="199.600000" y1="80.000000" x2="215.600000" y2="80.000000"  style="stroke:black; stroke-linecap:round; stroke-width:0.25;"/>
<line x1="211.600000" y1="100.000000" x2="215.600000" y2="100.000000"  style="stroke:black; stroke-linecap:round; stroke-width:0.25;"/>
<line x1="215.600000" y1="80.000000" x2="223.600000" y2="80.000000"  style="stroke:black; stroke-linecap:round; stroke-width:0.25;"/>
<line x1="215.600000" y1="100.000000" x2="223.600000" y2="100.000000"  style="stroke:black; stroke-linecap:round; stroke-width:0.25;"/>
<line x1="223.600000" y1="80.000000" x2="223.600000" y2="92.000000"  style="stroke:black; stroke-linecap:round; stroke-width:0.25;"/>
<line x1="223.600000" y1="92.000000" x2="223.600000" y2="92.000000"  style="stroke:black; stroke-linecap:round; stroke-width:0.25;"/>
<line x1="223.600000" y1="92.000000" x2="227.600000" y2="92.000000"  style="stroke:black; stroke-linecap:round; stroke-width:0.25;"/>
<line x1="223.600000" y1="100.000000" x2="227.600000" y2="100.000000"  style="stroke:black; stroke-linecap:round; stroke-width:0.25;"/>
<line x1="253.400000" y1="96.000000" x2="257.400000" y2="96.000000"  style="stroke:black; stroke-linecap:round; stroke-width:0.25;"/>
<line x1="257.400000" y1="56.000000" x2="178.700000" y2="56.000000"  style="stroke:black; stroke-linecap:round; stroke-width:0.25;"/>
<line x1="257.400000" y1="56.000000" x2="257.400000" y2="56.000000"  style="stroke:black; stroke-linecap:round; stroke-width:0.25;"/>
<line x1="257.400000" y1="92.000000" x2="257.400000" y2="56.000000"  style="stroke:black; stroke-linecap:round; stroke-width:0.25;"/>
<line x1="257.400000" y1="96.000000" x2="259.400000" y2="96.000000"  style="stroke:black; stroke-linecap:round; stroke-width:0.25;"/>
<line x1="259.400000" y1="96.000000" x2="265.400000" y2="96.000000"  style="stroke:black; stroke-linecap:round; stroke-width:0.25;"/>
<line x1="265.400000" y1="76.000000" x2="273.400000" y2="76.000000"  style="stroke:black; stroke-linecap:round; stroke-width:0.25;"/>
<line x1="265.400000" y1="96.000000" x2="265.400000" y2="76.000000"  style="stroke:black; stroke-linecap:round; stroke-width:0.25;"/>
<line x1="265.400000" y1="96.000000" x2="265.400000" y2="96.000000"  style="stroke:black; stroke-linecap:round; stroke-width:0.25;"/>
<line x1="273.400000" y1="76.000000" x2="277.400000" y2="76.000000"  style="stroke:black; stroke-linecap:round; stroke-width:0.25;"/>
<line x1="277.400000" y1="76.000000" x2="281.400000" y2="76.000000"  style="stroke:black; stroke-linecap:round; stroke-width:0.25;"/>
<line x1="281.400000" y1="76.000000" x2="291.400000" y2="76.000000"  style="stroke:black; stroke-linecap:round; stroke-width:0.25;"/>
</svg>
