<?xml version="1.0"?>
<svg xmlns="http://www.w3.org/2000/svg" xmlns:xlink="http://www.w3.org/1999/xlink" viewBox="0 0 387.800000 104.000000" width="193.900000mm" height="52.000000mm" version="1.1">
<a xlink:href="pulsar-0x7f85d3cb4190.svg">
<rect x="1.000000" y="1.000000" width="386.800000" height="103.000000" rx="0" ry="0" style="stroke:none;fill:#cccccc;"/>
<rect x="0.000000" y="0.000000" width="386.800000" height="103.000000" rx="0" ry="0" style="stroke:none;fill:#ffffff;"/>
</a>
<text x="10.000000" y="7.000000" font-family="Arial" font-size="7"></text>
<rect x="25.000000" y="25.000000" width="219.300000" height="24.000000" rx="0" ry="0" style="stroke:none;fill:#cccccc;"/>
<rect x="24.000000" y="24.000000" width="219.300000" height="24.000000" rx="0" ry="0" style="stroke:none;fill:#477881;"/>
<text x="133.650000" y="38.000000" font-family="Arial" font-size="7" text-anchor="middle" fill="#FFFFFF">hslider(Probability, 7e+01f, 5e+01f, 1e+02f, 1.0f)</text>
<circle cx="26.000000" cy="26.000000" r="1"/>
<rect x="121.750000" y="57.000000" width="25.800000" height="24.000000" rx="0" ry="0" style="stroke:none;fill:#cccccc;"/>
<rect x="120.750000" y="56.000000" width="25.800000" height="24.000000" rx="0" ry="0" style="stroke:none;fill:#f44800;"/>
<text x="133.650000" y="70.000000" font-family="Arial" font-size="7" text-anchor="middle" fill="#FFFFFF">0.01</text>
<circle cx="122.750000" cy="58.000000" r="1"/>
<rect x="260.300000" y="41.000000" width="24.000000" height="24.000000" rx="0" ry="0" style="stroke:none;fill:#cccccc;"/>
<rect x="259.300000" y="40.000000" width="24.000000" height="24.000000" rx="0" ry="0" style="stroke:none;fill:#4B71A1;"/>
<text x="271.300000" y="54.000000" font-family="Arial" font-size="7" text-anchor="middle" fill="#FFFFFF">*</text>
<circle cx="261.300000" cy="42.000000" r="1"/>
<line x1="256.300000" y1="47.000000" x2="259.300000" y2="48.000000"  transform="rotate(0.000000,259.300000,48.000000)" style="stroke: black; stroke-width:0.25;"/>
<line x1="256.300000" y1="49.000000" x2="259.300000" y2="48.000000"  transform="rotate(0.000000,259.300000,48.000000)" style="stroke: black; stroke-width:0.25;"/>
<line x1="256.300000" y1="55.000000" x2="259.300000" y2="56.000000"  transform="rotate(0.000000,259.300000,56.000000)" style="stroke: black; stroke-width:0.25;"/>
<line x1="256.300000" y1="57.000000" x2="259.300000" y2="56.000000"  transform="rotate(0.000000,259.300000,56.000000)" style="stroke: black; stroke-width:0.25;"/>
<a xlink:href="lowpass-0x7f85d3caae30.svg">
<rect x="292.300000" y="41.000000" width="64.500000" height="24.000000" rx="0" ry="0" style="stroke:none;fill:#cccccc;"/>
<rect x="291.300000" y="40.000000" width="64.500000" height="24.000000" rx="0" ry="0" style="stroke:none;fill:#003366;"/>
</a>
<a xlink:href="lowpass-0x7f85d3caae30.svg">
<text x="323.550000" y="54.000000" font-family="Arial" font-size="7" text-anchor="middle" fill="#FFFFFF">lowpass(1)(1)</text>
</a>
<circle cx="293.300000" cy="42.000000" r="1"/>
<line x1="288.300000" y1="51.000000" x2="291.300000" y2="52.000000"  transform="rotate(0.000000,291.300000,52.000000)" style="stroke: black; stroke-width:0.25;"/>
<line x1="288.300000" y1="53.000000" x2="291.300000" y2="52.000000"  transform="rotate(0.000000,291.300000,52.000000)" style="stroke: black; stroke-width:0.25;"/>
<line x1="15.000000" y1="15.000000" x2="15.000000" y2="89.000000"  style="stroke: black; stroke-linecap:round; stroke-width:0.25; stroke-dasharray:3,3;"/>
<line x1="15.000000" y1="89.000000" x2="372.800000" y2="89.000000"  style="stroke: black; stroke-linecap:round; stroke-width:0.25; stroke-dasharray:3,3;"/>
<line x1="372.800000" y1="89.000000" x2="372.800000" y2="15.000000"  style="stroke: black; stroke-linecap:round; stroke-width:0.25; stroke-dasharray:3,3;"/>
<line x1="15.000000" y1="15.000000" x2="20.000000" y2="15.000000"  style="stroke: black; stroke-linecap:round; stroke-width:0.25; stroke-dasharray:3,3;"/>
<line x1="42.575000" y1="15.000000" x2="372.800000" y2="15.000000"  style="stroke: black; stroke-linecap:round; stroke-width:0.25; stroke-dasharray:3,3;"/>
<text x="20.000000" y="17.000000" font-family="Arial" font-size="7">proba</text>
<line x1="374.800000" y1="51.000000" x2="377.800000" y2="52.000000"  transform="rotate(0.000000,377.800000,52.000000)" style="stroke: black; stroke-width:0.25;"/>
<line x1="374.800000" y1="53.000000" x2="377.800000" y2="52.000000"  transform="rotate(0.000000,377.800000,52.000000)" style="stroke: black; stroke-width:0.25;"/>
<line x1="146.550000" y1="68.000000" x2="150.550000" y2="68.000000"  style="stroke:black; stroke-linecap:round; stroke-width:0.25;"/>
<line x1="150.550000" y1="68.000000" x2="247.300000" y2="68.000000"  style="stroke:black; stroke-linecap:round; stroke-width:0.25;"/>
<line x1="243.300000" y1="36.000000" x2="247.300000" y2="36.000000"  style="stroke:black; stroke-linecap:round; stroke-width:0.25;"/>
<line x1="247.300000" y1="36.000000" x2="255.300000" y2="36.000000"  style="stroke:black; stroke-linecap:round; stroke-width:0.25;"/>
<line x1="247.300000" y1="56.000000" x2="255.300000" y2="56.000000"  style="stroke:black; stroke-linecap:round; stroke-width:0.25;"/>
<line x1="247.300000" y1="68.000000" x2="247.300000" y2="56.000000"  style="stroke:black; stroke-linecap:round; stroke-width:0.25;"/>
<line x1="247.300000" y1="68.000000" x2="247.300000" y2="68.000000"  style="stroke:black; stroke-linecap:round; stroke-width:0.25;"/>
<line x1="255.300000" y1="36.000000" x2="255.300000" y2="48.000000"  style="stroke:black; stroke-linecap:round; stroke-width:0.25;"/>
<line x1="255.300000" y1="48.000000" x2="255.300000" y2="48.000000"  style="stroke:black; stroke-linecap:round; stroke-width:0.25;"/>
<line x1="255.300000" y1="48.000000" x2="259.300000" y2="48.000000"  style="stroke:black; stroke-linecap:round; stroke-width:0.25;"/>
<line x1="255.300000" y1="56.000000" x2="259.300000" y2="56.000000"  style="stroke:black; stroke-linecap:round; stroke-width:0.25;"/>
<line x1="283.300000" y1="52.000000" x2="287.300000" y2="52.000000"  style="stroke:black; stroke-linecap:round; stroke-width:0.25;"/>
<line x1="287.300000" y1="52.000000" x2="287.300000" y2="52.000000"  style="stroke:black; stroke-linecap:round; stroke-width:0.25;"/>
<line x1="287.300000" y1="52.000000" x2="291.300000" y2="52.000000"  style="stroke:black; stroke-linecap:round; stroke-width:0.25;"/>
<line x1="355.800000" y1="52.000000" x2="359.800000" y2="52.000000"  style="stroke:black; stroke-linecap:round; stroke-width:0.25;"/>
<line x1="359.800000" y1="52.000000" x2="359.800000" y2="52.000000"  style="stroke:black; stroke-linecap:round; stroke-width:0.25;"/>
<line x1="359.800000" y1="52.000000" x2="363.800000" y2="52.000000"  style="stroke:black; stroke-linecap:round; stroke-width:0.25;"/>
<line x1="363.800000" y1="52.000000" x2="367.800000" y2="52.000000"  style="stroke:black; stroke-linecap:round; stroke-width:0.25;"/>
<line x1="367.800000" y1="52.000000" x2="377.800000" y2="52.000000"  style="stroke:black; stroke-linecap:round; stroke-width:0.25;"/>
</svg>
