<?xml version="1.0"?>
<svg xmlns="http://www.w3.org/2000/svg" xmlns:xlink="http://www.w3.org/1999/xlink" viewBox="0 0 210.300000 80.000000" width="105.150000mm" height="40.000000mm" version="1.1">
<a xlink:href="noiseburst-0x7f85d3cb8720.svg">
<rect x="1.000000" y="1.000000" width="209.300000" height="79.000000" rx="0" ry="0" style="stroke:none;fill:#cccccc;"/>
<rect x="0.000000" y="0.000000" width="209.300000" height="79.000000" rx="0" ry="0" style="stroke:none;fill:#ffffff;"/>
</a>
<text x="10.000000" y="7.000000" font-family="Arial" font-size="7"></text>
<a xlink:href="phasor-0x7f85d3cad920.svg">
<rect x="25.000000" y="29.000000" width="38.700000" height="24.000000" rx="0" ry="0" style="stroke:none;fill:#cccccc;"/>
<rect x="24.000000" y="28.000000" width="38.700000" height="24.000000" rx="0" ry="0" style="stroke:none;fill:#003366;"/>
</a>
<a xlink:href="phasor-0x7f85d3cad920.svg">
<text x="43.350000" y="42.000000" font-family="Arial" font-size="7" text-anchor="middle" fill="#FFFFFF">phasor(1)</text>
</a>
<circle cx="26.000000" cy="30.000000" r="1"/>
<rect x="79.700000" y="33.000000" width="25.800000" height="24.000000" rx="0" ry="0" style="stroke:none;fill:#cccccc;"/>
<rect x="78.700000" y="32.000000" width="25.800000" height="24.000000" rx="0" ry="0" style="stroke:none;fill:#f44800;"/>
<text x="91.600000" y="46.000000" font-family="Arial" font-size="7" text-anchor="middle" fill="#FFFFFF">0.001</text>
<circle cx="80.700000" cy="34.000000" r="1"/>
<rect x="121.500000" y="29.000000" width="24.000000" height="24.000000" rx="0" ry="0" style="stroke:none;fill:#cccccc;"/>
<rect x="120.500000" y="28.000000" width="24.000000" height="24.000000" rx="0" ry="0" style="stroke:none;fill:#4B71A1;"/>
<text x="132.500000" y="42.000000" font-family="Arial" font-size="7" text-anchor="middle" fill="#FFFFFF">-</text>
<circle cx="122.500000" cy="30.000000" r="1"/>
<line x1="117.500000" y1="35.000000" x2="120.500000" y2="36.000000"  transform="rotate(0.000000,120.500000,36.000000)" style="stroke: black; stroke-width:0.25;"/>
<line x1="117.500000" y1="37.000000" x2="120.500000" y2="36.000000"  transform="rotate(0.000000,120.500000,36.000000)" style="stroke: black; stroke-width:0.25;"/>
<line x1="117.500000" y1="43.000000" x2="120.500000" y2="44.000000"  transform="rotate(0.000000,120.500000,44.000000)" style="stroke: black; stroke-width:0.25;"/>
<line x1="117.500000" y1="45.000000" x2="120.500000" y2="44.000000"  transform="rotate(0.000000,120.500000,44.000000)" style="stroke: black; stroke-width:0.25;"/>
<a xlink:href="pulsar-0x7f85d3cb4190.svg">
<rect x="153.500000" y="29.000000" width="25.800000" height="24.000000" rx="0" ry="0" style="stroke:none;fill:#cccccc;"/>
<rect x="152.500000" y="28.000000" width="25.800000" height="24.000000" rx="0" ry="0" style="stroke:none;fill:#003366;"/>
</a>
<a xlink:href="pulsar-0x7f85d3cb4190.svg">
<text x="165.400000" y="42.000000" font-family="Arial" font-size="7" text-anchor="middle" fill="#FFFFFF">pulsar</text>
</a>
<circle cx="154.500000" cy="30.000000" r="1"/>
<line x1="149.500000" y1="39.000000" x2="152.500000" y2="40.000000"  transform="rotate(0.000000,152.500000,40.000000)" style="stroke: black; stroke-width:0.25;"/>
<line x1="149.500000" y1="41.000000" x2="152.500000" y2="40.000000"  transform="rotate(0.000000,152.500000,40.000000)" style="stroke: black; stroke-width:0.25;"/>
<line x1="15.000000" y1="15.000000" x2="15.000000" y2="65.000000"  style="stroke: black; stroke-linecap:round; stroke-width:0.25; stroke-dasharray:3,3;"/>
<line x1="15.000000" y1="65.000000" x2="195.300000" y2="65.000000"  style="stroke: black; stroke-linecap:round; stroke-width:0.25; stroke-dasharray:3,3;"/>
<line x1="195.300000" y1="65.000000" x2="195.300000" y2="15.000000"  style="stroke: black; stroke-linecap:round; stroke-width:0.25; stroke-dasharray:3,3;"/>
<line x1="15.000000" y1="15.000000" x2="20.000000" y2="15.000000"  style="stroke: black; stroke-linecap:round; stroke-width:0.25; stroke-dasharray:3,3;"/>
<line x1="39.350000" y1="15.000000" x2="195.300000" y2="15.000000"  style="stroke: black; stroke-linecap:round; stroke-width:0.25; stroke-dasharray:3,3;"/>
<text x="20.000000" y="17.000000" font-family="Arial" font-size="7">gate</text>
<line x1="197.300000" y1="39.000000" x2="200.300000" y2="40.000000"  transform="rotate(0.000000,200.300000,40.000000)" style="stroke: black; stroke-width:0.25;"/>
<line x1="197.300000" y1="41.000000" x2="200.300000" y2="40.000000"  transform="rotate(0.000000,200.300000,40.000000)" style="stroke: black; stroke-width:0.25;"/>
<line x1="62.700000" y1="40.000000" x2="66.700000" y2="40.000000"  style="stroke:black; stroke-linecap:round; stroke-width:0.25;"/>
<line x1="66.700000" y1="24.000000" x2="74.700000" y2="24.000000"  style="stroke:black; stroke-linecap:round; stroke-width:0.25;"/>
<line x1="66.700000" y1="40.000000" x2="66.700000" y2="24.000000"  style="stroke:black; stroke-linecap:round; stroke-width:0.25;"/>
<line x1="66.700000" y1="40.000000" x2="66.700000" y2="40.000000"  style="stroke:black; stroke-linecap:round; stroke-width:0.25;"/>
<line x1="74.700000" y1="24.000000" x2="91.600000" y2="24.000000"  style="stroke:black; stroke-linecap:round; stroke-width:0.25;"/>
<line x1="91.600000" y1="24.000000" x2="108.500000" y2="24.000000"  style="stroke:black; stroke-linecap:round; stroke-width:0.25;"/>
<line x1="104.500000" y1="44.000000" x2="108.500000" y2="44.000000"  style="stroke:black; stroke-linecap:round; stroke-width:0.25;"/>
<line x1="108.500000" y1="44.000000" x2="116.500000" y2="44.000000"  style="stroke:black; stroke-linecap:round; stroke-width:0.25;"/>
<line x1="108.500000" y1="24.000000" x2="116.500000" y2="24.000000"  style="stroke:black; stroke-linecap:round; stroke-width:0.25;"/>
<line x1="116.500000" y1="36.000000" x2="120.500000" y2="36.000000"  style="stroke:black; stroke-linecap:round; stroke-width:0.25;"/>
<line x1="116.500000" y1="44.000000" x2="120.500000" y2="44.000000"  style="stroke:black; stroke-linecap:round; stroke-width:0.25;"/>
<line x1="116.500000" y1="24.000000" x2="116.500000" y2="36.000000"  style="stroke:black; stroke-linecap:round; stroke-width:0.25;"/>
<line x1="116.500000" y1="36.000000" x2="116.500000" y2="36.000000"  style="stroke:black; stroke-linecap:round; stroke-width:0.25;"/>
<line x1="144.500000" y1="40.000000" x2="148.500000" y2="40.000000"  style="stroke:black; stroke-linecap:round; stroke-width:0.25;"/>
<line x1="148.500000" y1="40.000000" x2="148.500000" y2="40.000000"  style="stroke:black; stroke-linecap:round; stroke-width:0.25;"/>
<line x1="148.500000" y1="40.000000" x2="152.500000" y2="40.000000"  style="stroke:black; stroke-linecap:round; stroke-width:0.25;"/>
<line x1="178.300000" y1="40.000000" x2="182.300000" y2="40.000000"  style="stroke:black; stroke-linecap:round; stroke-width:0.25;"/>
<line x1="182.300000" y1="40.000000" x2="186.300000" y2="40.000000"  style="stroke:black; stroke-linecap:round; stroke-width:0.25;"/>
<line x1="182.300000" y1="40.000000" x2="182.300000" y2="40.000000"  style="stroke:black; stroke-linecap:round; stroke-width:0.25;"/>
<line x1="186.300000" y1="40.000000" x2="190.300000" y2="40.000000"  style="stroke:black; stroke-linecap:round; stroke-width:0.25;"/>
<line x1="190.300000" y1="40.000000" x2="200.300000" y2="40.000000"  style="stroke:black; stroke-linecap:round; stroke-width:0.25;"/>
</svg>
