<?xml version="1.0"?>
<svg xmlns="http://www.w3.org/2000/svg" xmlns:xlink="http://www.w3.org/1999/xlink" viewBox="0 0 301.800000 236.000000" width="150.900000mm" height="118.000000mm" version="1.1">
<a xlink:href="p-0x7fd7e846b530.svg">
<rect x="1.000000" y="1.000000" width="300.800000" height="235.000000" rx="0" ry="0" style="stroke:none;fill:#cccccc;"/>
<rect x="0.000000" y="0.000000" width="300.800000" height="235.000000" rx="0" ry="0" style="stroke:none;fill:#ffffff;"/>
</a>
<text x="10.000000" y="7.000000" font-family="Arial" font-size="7"></text>
<rect x="115.900000" y="35.000000" width="24.000000" height="24.000000" rx="0" ry="0" style="stroke:none;fill:#cccccc;"/>
<rect x="114.900000" y="34.000000" width="24.000000" height="24.000000" rx="0" ry="0" style="stroke:none;fill:#f44800;"/>
<text x="126.900000" y="48.000000" font-family="Arial" font-size="7" text-anchor="middle" fill="#FFFFFF">1</text>
<circle cx="116.900000" cy="36.000000" r="1"/>
<line x1="105.900000" y1="25.000000" x2="105.900000" y2="67.000000"  style="stroke: black; stroke-linecap:round; stroke-width:0.25; stroke-dasharray:3,3;"/>
<line x1="105.900000" y1="67.000000" x2="147.900000" y2="67.000000"  style="stroke: black; stroke-linecap:round; stroke-width:0.25; stroke-dasharray:3,3;"/>
<line x1="147.900000" y1="67.000000" x2="147.900000" y2="25.000000"  style="stroke: black; stroke-linecap:round; stroke-width:0.25; stroke-dasharray:3,3;"/>
<line x1="105.900000" y1="25.000000" x2="110.900000" y2="25.000000"  style="stroke: black; stroke-linecap:round; stroke-width:0.25; stroke-dasharray:3,3;"/>
<line x1="130.250000" y1="25.000000" x2="147.900000" y2="25.000000"  style="stroke: black; stroke-linecap:round; stroke-width:0.25; stroke-dasharray:3,3;"/>
<text x="110.900000" y="27.000000" font-family="Arial" font-size="7">gain</text>
<a xlink:href="speed-0x7fd7e8424a60.svg">
<rect x="25.000000" y="133.000000" width="25.800000" height="24.000000" rx="0" ry="0" style="stroke:none;fill:#cccccc;"/>
<rect x="24.000000" y="132.000000" width="25.800000" height="24.000000" rx="0" ry="0" style="stroke:none;fill:#003366;"/>
</a>
<a xlink:href="speed-0x7fd7e8424a60.svg">
<text x="36.900000" y="146.000000" font-family="Arial" font-size="7" text-anchor="middle" fill="#FFFFFF">speed</text>
</a>
<circle cx="26.000000" cy="134.000000" r="1"/>
<rect x="76.800000" y="95.000000" width="24.000000" height="24.000000" rx="0" ry="0" style="stroke:none;fill:#cccccc;"/>
<rect x="75.800000" y="94.000000" width="24.000000" height="24.000000" rx="0" ry="0" style="stroke:none;fill:#f44800;"/>
<text x="87.800000" y="108.000000" font-family="Arial" font-size="7" text-anchor="middle" fill="#FFFFFF">0.5</text>
<circle cx="77.800000" cy="96.000000" r="1"/>
<line x1="66.800000" y1="85.000000" x2="66.800000" y2="127.000000"  style="stroke: black; stroke-linecap:round; stroke-width:0.25; stroke-dasharray:3,3;"/>
<line x1="66.800000" y1="127.000000" x2="108.800000" y2="127.000000"  style="stroke: black; stroke-linecap:round; stroke-width:0.25; stroke-dasharray:3,3;"/>
<line x1="108.800000" y1="127.000000" x2="108.800000" y2="85.000000"  style="stroke: black; stroke-linecap:round; stroke-width:0.25; stroke-dasharray:3,3;"/>
<line x1="66.800000" y1="85.000000" x2="71.800000" y2="85.000000"  style="stroke: black; stroke-linecap:round; stroke-width:0.25; stroke-dasharray:3,3;"/>
<line x1="91.150000" y1="85.000000" x2="108.800000" y2="85.000000"  style="stroke: black; stroke-linecap:round; stroke-width:0.25; stroke-dasharray:3,3;"/>
<text x="71.800000" y="87.000000" font-family="Arial" font-size="7">fade</text>
<rect x="75.900000" y="137.000000" width="25.800000" height="24.000000" rx="0" ry="0" style="stroke:none;fill:#cccccc;"/>
<rect x="74.900000" y="136.000000" width="25.800000" height="24.000000" rx="0" ry="0" style="stroke:none;fill:#f44800;"/>
<text x="87.800000" y="150.000000" font-family="Arial" font-size="7" text-anchor="middle" fill="#FFFFFF">0.25</text>
<circle cx="76.900000" cy="138.000000" r="1"/>
<rect x="126.800000" y="111.000000" width="24.000000" height="24.000000" rx="0" ry="0" style="stroke:none;fill:#cccccc;"/>
<rect x="125.800000" y="110.000000" width="24.000000" height="24.000000" rx="0" ry="0" style="stroke:none;fill:#4B71A1;"/>
<text x="137.800000" y="124.000000" font-family="Arial" font-size="7" text-anchor="middle" fill="#FFFFFF">*</text>
<circle cx="127.800000" cy="112.000000" r="1"/>
<line x1="122.800000" y1="117.000000" x2="125.800000" y2="118.000000"  transform="rotate(0.000000,125.800000,118.000000)" style="stroke: black; stroke-width:0.25;"/>
<line x1="122.800000" y1="119.000000" x2="125.800000" y2="118.000000"  transform="rotate(0.000000,125.800000,118.000000)" style="stroke: black; stroke-width:0.25;"/>
<line x1="122.800000" y1="125.000000" x2="125.800000" y2="126.000000"  transform="rotate(0.000000,125.800000,126.000000)" style="stroke: black; stroke-width:0.25;"/>
<line x1="122.800000" y1="127.000000" x2="125.800000" y2="126.000000"  transform="rotate(0.000000,125.800000,126.000000)" style="stroke: black; stroke-width:0.25;"/>
<rect x="96.800000" y="179.000000" width="24.000000" height="24.000000" rx="0" ry="0" style="stroke:none;fill:#cccccc;"/>
<rect x="95.800000" y="178.000000" width="24.000000" height="24.000000" rx="0" ry="0" style="stroke:none;fill:#f44800;"/>
<text x="107.800000" y="192.000000" font-family="Arial" font-size="7" text-anchor="middle" fill="#FFFFFF">0.5</text>
<circle cx="97.800000" cy="180.000000" r="1"/>
<line x1="86.800000" y1="169.000000" x2="86.800000" y2="211.000000"  style="stroke: black; stroke-linecap:round; stroke-width:0.25; stroke-dasharray:3,3;"/>
<line x1="86.800000" y1="211.000000" x2="128.800000" y2="211.000000"  style="stroke: black; stroke-linecap:round; stroke-width:0.25; stroke-dasharray:3,3;"/>
<line x1="128.800000" y1="211.000000" x2="128.800000" y2="169.000000"  style="stroke: black; stroke-linecap:round; stroke-width:0.25; stroke-dasharray:3,3;"/>
<line x1="86.800000" y1="169.000000" x2="91.800000" y2="169.000000"  style="stroke: black; stroke-linecap:round; stroke-width:0.25; stroke-dasharray:3,3;"/>
<line x1="111.150000" y1="169.000000" x2="128.800000" y2="169.000000"  style="stroke: black; stroke-linecap:round; stroke-width:0.25; stroke-dasharray:3,3;"/>
<text x="91.800000" y="171.000000" font-family="Arial" font-size="7">fade</text>
<rect x="166.800000" y="137.000000" width="24.000000" height="24.000000" rx="0" ry="0" style="stroke:none;fill:#cccccc;"/>
<rect x="165.800000" y="136.000000" width="24.000000" height="24.000000" rx="0" ry="0" style="stroke:none;fill:#4B71A1;"/>
<text x="177.800000" y="150.000000" font-family="Arial" font-size="7" text-anchor="middle" fill="#FFFFFF">*</text>
<circle cx="167.800000" cy="138.000000" r="1"/>
<line x1="162.800000" y1="143.000000" x2="165.800000" y2="144.000000"  transform="rotate(0.000000,165.800000,144.000000)" style="stroke: black; stroke-width:0.25;"/>
<line x1="162.800000" y1="145.000000" x2="165.800000" y2="144.000000"  transform="rotate(0.000000,165.800000,144.000000)" style="stroke: black; stroke-width:0.25;"/>
<line x1="162.800000" y1="151.000000" x2="165.800000" y2="152.000000"  transform="rotate(0.000000,165.800000,152.000000)" style="stroke: black; stroke-width:0.25;"/>
<line x1="162.800000" y1="153.000000" x2="165.800000" y2="152.000000"  transform="rotate(0.000000,165.800000,152.000000)" style="stroke: black; stroke-width:0.25;"/>
<rect x="206.800000" y="133.000000" width="24.000000" height="24.000000" rx="0" ry="0" style="stroke:none;fill:#cccccc;"/>
<rect x="205.800000" y="132.000000" width="24.000000" height="24.000000" rx="0" ry="0" style="stroke:none;fill:#4B71A1;"/>
<text x="217.800000" y="146.000000" font-family="Arial" font-size="7" text-anchor="middle" fill="#FFFFFF">/</text>
<circle cx="207.800000" cy="134.000000" r="1"/>
<line x1="202.800000" y1="139.000000" x2="205.800000" y2="140.000000"  transform="rotate(0.000000,205.800000,140.000000)" style="stroke: black; stroke-width:0.25;"/>
<line x1="202.800000" y1="141.000000" x2="205.800000" y2="140.000000"  transform="rotate(0.000000,205.800000,140.000000)" style="stroke: black; stroke-width:0.25;"/>
<line x1="202.800000" y1="147.000000" x2="205.800000" y2="148.000000"  transform="rotate(0.000000,205.800000,148.000000)" style="stroke: black; stroke-width:0.25;"/>
<line x1="202.800000" y1="149.000000" x2="205.800000" y2="148.000000"  transform="rotate(0.000000,205.800000,148.000000)" style="stroke: black; stroke-width:0.25;"/>
<rect x="246.800000" y="107.000000" width="24.000000" height="24.000000" rx="0" ry="0" style="stroke:none;fill:#cccccc;"/>
<rect x="245.800000" y="106.000000" width="24.000000" height="24.000000" rx="0" ry="0" style="stroke:none;fill:#4B71A1;"/>
<text x="257.800000" y="120.000000" font-family="Arial" font-size="7" text-anchor="middle" fill="#FFFFFF">/</text>
<circle cx="247.800000" cy="108.000000" r="1"/>
<line x1="242.800000" y1="113.000000" x2="245.800000" y2="114.000000"  transform="rotate(0.000000,245.800000,114.000000)" style="stroke: black; stroke-width:0.25;"/>
<line x1="242.800000" y1="115.000000" x2="245.800000" y2="114.000000"  transform="rotate(0.000000,245.800000,114.000000)" style="stroke: black; stroke-width:0.25;"/>
<line x1="242.800000" y1="121.000000" x2="245.800000" y2="122.000000"  transform="rotate(0.000000,245.800000,122.000000)" style="stroke: black; stroke-width:0.25;"/>
<line x1="242.800000" y1="123.000000" x2="245.800000" y2="122.000000"  transform="rotate(0.000000,245.800000,122.000000)" style="stroke: black; stroke-width:0.25;"/>
<line x1="15.000000" y1="15.000000" x2="15.000000" y2="221.000000"  style="stroke: black; stroke-linecap:round; stroke-width:0.25; stroke-dasharray:3,3;"/>
<line x1="15.000000" y1="221.000000" x2="286.800000" y2="221.000000"  style="stroke: black; stroke-linecap:round; stroke-width:0.25; stroke-dasharray:3,3;"/>
<line x1="286.800000" y1="221.000000" x2="286.800000" y2="15.000000"  style="stroke: black; stroke-linecap:round; stroke-width:0.25; stroke-dasharray:3,3;"/>
<line x1="15.000000" y1="15.000000" x2="20.000000" y2="15.000000"  style="stroke: black; stroke-linecap:round; stroke-width:0.25; stroke-dasharray:3,3;"/>
<line x1="55.475000" y1="15.000000" x2="286.800000" y2="15.000000"  style="stroke: black; stroke-linecap:round; stroke-width:0.25; stroke-dasharray:3,3;"/>
<text x="20.000000" y="17.000000" font-family="Arial" font-size="7">duree_env</text>
<line x1="288.800000" y1="117.000000" x2="291.800000" y2="118.000000"  transform="rotate(0.000000,291.800000,118.000000)" style="stroke: black; stroke-width:0.25;"/>
<line x1="288.800000" y1="119.000000" x2="291.800000" y2="118.000000"  transform="rotate(0.000000,291.800000,118.000000)" style="stroke: black; stroke-width:0.25;"/>
<line x1="49.800000" y1="144.000000" x2="53.800000" y2="144.000000"  style="stroke:black; stroke-linecap:round; stroke-width:0.25;"/>
<line x1="53.800000" y1="76.000000" x2="61.800000" y2="76.000000"  style="stroke:black; stroke-linecap:round; stroke-width:0.25;"/>
<line x1="53.800000" y1="144.000000" x2="53.800000" y2="76.000000"  style="stroke:black; stroke-linecap:round; stroke-width:0.25;"/>
<line x1="53.800000" y1="144.000000" x2="53.800000" y2="144.000000"  style="stroke:black; stroke-linecap:round; stroke-width:0.25;"/>
<line x1="61.800000" y1="76.000000" x2="127.800000" y2="76.000000"  style="stroke:black; stroke-linecap:round; stroke-width:0.25;"/>
<line x1="99.800000" y1="106.000000" x2="103.800000" y2="106.000000"  style="stroke:black; stroke-linecap:round; stroke-width:0.25;"/>
<line x1="100.700000" y1="148.000000" x2="104.700000" y2="148.000000"  style="stroke:black; stroke-linecap:round; stroke-width:0.25;"/>
<line x1="103.800000" y1="106.000000" x2="113.800000" y2="106.000000"  style="stroke:black; stroke-linecap:round; stroke-width:0.25;"/>
<line x1="104.700000" y1="148.000000" x2="113.800000" y2="148.000000"  style="stroke:black; stroke-linecap:round; stroke-width:0.25;"/>
<line x1="113.800000" y1="106.000000" x2="121.800000" y2="106.000000"  style="stroke:black; stroke-linecap:round; stroke-width:0.25;"/>
<line x1="113.800000" y1="126.000000" x2="121.800000" y2="126.000000"  style="stroke:black; stroke-linecap:round; stroke-width:0.25;"/>
<line x1="113.800000" y1="148.000000" x2="113.800000" y2="126.000000"  style="stroke:black; stroke-linecap:round; stroke-width:0.25;"/>
<line x1="113.800000" y1="148.000000" x2="113.800000" y2="148.000000"  style="stroke:black; stroke-linecap:round; stroke-width:0.25;"/>
<line x1="119.800000" y1="190.000000" x2="123.800000" y2="190.000000"  style="stroke:black; stroke-linecap:round; stroke-width:0.25;"/>
<line x1="121.800000" y1="106.000000" x2="121.800000" y2="118.000000"  style="stroke:black; stroke-linecap:round; stroke-width:0.25;"/>
<line x1="121.800000" y1="118.000000" x2="121.800000" y2="118.000000"  style="stroke:black; stroke-linecap:round; stroke-width:0.25;"/>
<line x1="121.800000" y1="118.000000" x2="125.800000" y2="118.000000"  style="stroke:black; stroke-linecap:round; stroke-width:0.25;"/>
<line x1="121.800000" y1="126.000000" x2="125.800000" y2="126.000000"  style="stroke:black; stroke-linecap:round; stroke-width:0.25;"/>
<line x1="123.800000" y1="190.000000" x2="133.800000" y2="190.000000"  style="stroke:black; stroke-linecap:round; stroke-width:0.25;"/>
<line x1="127.800000" y1="76.000000" x2="193.800000" y2="76.000000"  style="stroke:black; stroke-linecap:round; stroke-width:0.25;"/>
<line x1="133.800000" y1="190.000000" x2="153.800000" y2="190.000000"  style="stroke:black; stroke-linecap:round; stroke-width:0.25;"/>
<line x1="138.900000" y1="46.000000" x2="142.900000" y2="46.000000"  style="stroke:black; stroke-linecap:round; stroke-width:0.25;"/>
<line x1="142.900000" y1="46.000000" x2="152.900000" y2="46.000000"  style="stroke:black; stroke-linecap:round; stroke-width:0.25;"/>
<line x1="149.800000" y1="122.000000" x2="153.800000" y2="122.000000"  style="stroke:black; stroke-linecap:round; stroke-width:0.25;"/>
<line x1="152.900000" y1="46.000000" x2="233.800000" y2="46.000000"  style="stroke:black; stroke-linecap:round; stroke-width:0.25;"/>
<line x1="153.800000" y1="122.000000" x2="161.800000" y2="122.000000"  style="stroke:black; stroke-linecap:round; stroke-width:0.25;"/>
<line x1="153.800000" y1="152.000000" x2="161.800000" y2="152.000000"  style="stroke:black; stroke-linecap:round; stroke-width:0.25;"/>
<line x1="153.800000" y1="190.000000" x2="153.800000" y2="152.000000"  style="stroke:black; stroke-linecap:round; stroke-width:0.25;"/>
<line x1="153.800000" y1="190.000000" x2="153.800000" y2="190.000000"  style="stroke:black; stroke-linecap:round; stroke-width:0.25;"/>
<line x1="161.800000" y1="122.000000" x2="161.800000" y2="144.000000"  style="stroke:black; stroke-linecap:round; stroke-width:0.25;"/>
<line x1="161.800000" y1="144.000000" x2="161.800000" y2="144.000000"  style="stroke:black; stroke-linecap:round; stroke-width:0.25;"/>
<line x1="161.800000" y1="144.000000" x2="165.800000" y2="144.000000"  style="stroke:black; stroke-linecap:round; stroke-width:0.25;"/>
<line x1="161.800000" y1="152.000000" x2="165.800000" y2="152.000000"  style="stroke:black; stroke-linecap:round; stroke-width:0.25;"/>
<line x1="189.800000" y1="148.000000" x2="193.800000" y2="148.000000"  style="stroke:black; stroke-linecap:round; stroke-width:0.25;"/>
<line x1="193.800000" y1="76.000000" x2="201.800000" y2="76.000000"  style="stroke:black; stroke-linecap:round; stroke-width:0.25;"/>
<line x1="193.800000" y1="148.000000" x2="201.800000" y2="148.000000"  style="stroke:black; stroke-linecap:round; stroke-width:0.25;"/>
<line x1="201.800000" y1="76.000000" x2="201.800000" y2="140.000000"  style="stroke:black; stroke-linecap:round; stroke-width:0.25;"/>
<line x1="201.800000" y1="140.000000" x2="201.800000" y2="140.000000"  style="stroke:black; stroke-linecap:round; stroke-width:0.25;"/>
<line x1="201.800000" y1="140.000000" x2="205.800000" y2="140.000000"  style="stroke:black; stroke-linecap:round; stroke-width:0.25;"/>
<line x1="201.800000" y1="148.000000" x2="205.800000" y2="148.000000"  style="stroke:black; stroke-linecap:round; stroke-width:0.25;"/>
<line x1="229.800000" y1="144.000000" x2="233.800000" y2="144.000000"  style="stroke:black; stroke-linecap:round; stroke-width:0.25;"/>
<line x1="233.800000" y1="46.000000" x2="241.800000" y2="46.000000"  style="stroke:black; stroke-linecap:round; stroke-width:0.25;"/>
<line x1="233.800000" y1="122.000000" x2="241.800000" y2="122.000000"  style="stroke:black; stroke-linecap:round; stroke-width:0.25;"/>
<line x1="233.800000" y1="144.000000" x2="233.800000" y2="122.000000"  style="stroke:black; stroke-linecap:round; stroke-width:0.25;"/>
<line x1="233.800000" y1="144.000000" x2="233.800000" y2="144.000000"  style="stroke:black; stroke-linecap:round; stroke-width:0.25;"/>
<line x1="241.800000" y1="46.000000" x2="241.800000" y2="114.000000"  style="stroke:black; stroke-linecap:round; stroke-width:0.25;"/>
<line x1="241.800000" y1="114.000000" x2="241.800000" y2="114.000000"  style="stroke:black; stroke-linecap:round; stroke-width:0.25;"/>
<line x1="241.800000" y1="114.000000" x2="245.800000" y2="114.000000"  style="stroke:black; stroke-linecap:round; stroke-width:0.25;"/>
<line x1="241.800000" y1="122.000000" x2="245.800000" y2="122.000000"  style="stroke:black; stroke-linecap:round; stroke-width:0.25;"/>
<line x1="269.800000" y1="118.000000" x2="273.800000" y2="118.000000"  style="stroke:black; stroke-linecap:round; stroke-width:0.25;"/>
<line x1="273.800000" y1="118.000000" x2="273.800000" y2="118.000000"  style="stroke:black; stroke-linecap:round; stroke-width:0.25;"/>
<line x1="273.800000" y1="118.000000" x2="277.800000" y2="118.000000"  style="stroke:black; stroke-linecap:round; stroke-width:0.25;"/>
<line x1="277.800000" y1="118.000000" x2="281.800000" y2="118.000000"  style="stroke:black; stroke-linecap:round; stroke-width:0.25;"/>
<line x1="281.800000" y1="118.000000" x2="291.800000" y2="118.000000"  style="stroke:black; stroke-linecap:round; stroke-width:0.25;"/>
</svg>
