<?xml version="1.0"?>
<svg xmlns="http://www.w3.org/2000/svg" xmlns:xlink="http://www.w3.org/1999/xlink" viewBox="0 0 600.800000 196.000000" width="300.400000mm" height="98.000000mm" version="1.1">
<a xlink:href="trigger-0x7f98b935e120.svg">
<rect x="1.000000" y="1.000000" width="599.800000" height="195.000000" rx="0" ry="0" style="stroke:none;fill:#cccccc;"/>
<rect x="0.000000" y="0.000000" width="599.800000" height="195.000000" rx="0" ry="0" style="stroke:none;fill:#ffffff;"/>
</a>
<text x="10.000000" y="7.000000" font-family="Arial" font-size="7"></text>
<rect x="35.000000" y="35.000000" width="412.800000" height="24.000000" rx="0" ry="0" style="stroke:none;fill:#cccccc;"/>
<rect x="34.000000" y="34.000000" width="412.800000" height="24.000000" rx="0" ry="0" style="stroke:none;fill:#477881;"/>
<text x="240.400000" y="48.000000" font-family="Arial" font-size="7" text-anchor="middle" fill="#FFFFFF">hslider(Instrument Hand (Loop mode: hand&gt;0 = recording, 0 = playback), 0.0f, 0.0f, 15.0f, 1.0f)</text>
<circle cx="36.000000" cy="36.000000" r="1"/>
<line x1="25.000000" y1="25.000000" x2="25.000000" y2="67.000000"  style="stroke: black; stroke-linecap:round; stroke-width:0.25; stroke-dasharray:3,3;"/>
<line x1="25.000000" y1="67.000000" x2="455.800000" y2="67.000000"  style="stroke: black; stroke-linecap:round; stroke-width:0.25; stroke-dasharray:3,3;"/>
<line x1="455.800000" y1="67.000000" x2="455.800000" y2="25.000000"  style="stroke: black; stroke-linecap:round; stroke-width:0.25; stroke-dasharray:3,3;"/>
<line x1="25.000000" y1="25.000000" x2="30.000000" y2="25.000000"  style="stroke: black; stroke-linecap:round; stroke-width:0.25; stroke-dasharray:3,3;"/>
<line x1="49.350000" y1="25.000000" x2="455.800000" y2="25.000000"  style="stroke: black; stroke-linecap:round; stroke-width:0.25; stroke-dasharray:3,3;"/>
<text x="30.000000" y="27.000000" font-family="Arial" font-size="7">hand</text>
<rect x="229.400000" y="87.000000" width="24.000000" height="24.000000" rx="0" ry="0" style="stroke:none;fill:#cccccc;"/>
<rect x="228.400000" y="86.000000" width="24.000000" height="24.000000" rx="0" ry="0" style="stroke:none;fill:#f44800;"/>
<text x="240.400000" y="100.000000" font-family="Arial" font-size="7" text-anchor="middle" fill="#FFFFFF">8</text>
<circle cx="230.400000" cy="88.000000" r="1"/>
<line x1="219.400000" y1="77.000000" x2="219.400000" y2="119.000000"  style="stroke: black; stroke-linecap:round; stroke-width:0.25; stroke-dasharray:3,3;"/>
<line x1="219.400000" y1="119.000000" x2="261.400000" y2="119.000000"  style="stroke: black; stroke-linecap:round; stroke-width:0.25; stroke-dasharray:3,3;"/>
<line x1="261.400000" y1="119.000000" x2="261.400000" y2="77.000000"  style="stroke: black; stroke-linecap:round; stroke-width:0.25; stroke-dasharray:3,3;"/>
<line x1="219.400000" y1="77.000000" x2="224.400000" y2="77.000000"  style="stroke: black; stroke-linecap:round; stroke-width:0.25; stroke-dasharray:3,3;"/>
<line x1="234.075000" y1="77.000000" x2="261.400000" y2="77.000000"  style="stroke: black; stroke-linecap:round; stroke-width:0.25; stroke-dasharray:3,3;"/>
<text x="224.400000" y="79.000000" font-family="Arial" font-size="7">N</text>
<rect x="473.800000" y="61.000000" width="24.000000" height="24.000000" rx="0" ry="0" style="stroke:none;fill:#cccccc;"/>
<rect x="472.800000" y="60.000000" width="24.000000" height="24.000000" rx="0" ry="0" style="stroke:none;fill:#4B71A1;"/>
<text x="484.800000" y="74.000000" font-family="Arial" font-size="7" text-anchor="middle" fill="#FFFFFF">-</text>
<circle cx="474.800000" cy="62.000000" r="1"/>
<line x1="469.800000" y1="67.000000" x2="472.800000" y2="68.000000"  transform="rotate(0.000000,472.800000,68.000000)" style="stroke: black; stroke-width:0.25;"/>
<line x1="469.800000" y1="69.000000" x2="472.800000" y2="68.000000"  transform="rotate(0.000000,472.800000,68.000000)" style="stroke: black; stroke-width:0.25;"/>
<line x1="469.800000" y1="75.000000" x2="472.800000" y2="76.000000"  transform="rotate(0.000000,472.800000,76.000000)" style="stroke: black; stroke-width:0.25;"/>
<line x1="469.800000" y1="77.000000" x2="472.800000" y2="76.000000"  transform="rotate(0.000000,472.800000,76.000000)" style="stroke: black; stroke-width:0.25;"/>
<rect x="505.800000" y="61.000000" width="24.000000" height="24.000000" rx="0" ry="0" style="stroke:none;fill:#cccccc;"/>
<rect x="504.800000" y="60.000000" width="24.000000" height="24.000000" rx="0" ry="0" style="stroke:none;fill:#4B71A1;"/>
<text x="516.800000" y="74.000000" font-family="Arial" font-size="7" text-anchor="middle" fill="#FFFFFF">abs</text>
<circle cx="506.800000" cy="62.000000" r="1"/>
<line x1="501.800000" y1="71.000000" x2="504.800000" y2="72.000000"  transform="rotate(0.000000,504.800000,72.000000)" style="stroke: black; stroke-width:0.25;"/>
<line x1="501.800000" y1="73.000000" x2="504.800000" y2="72.000000"  transform="rotate(0.000000,504.800000,72.000000)" style="stroke: black; stroke-width:0.25;"/>
<rect x="265.400000" y="139.000000" width="24.000000" height="24.000000" rx="0" ry="0" style="stroke:none;fill:#cccccc;"/>
<rect x="264.400000" y="138.000000" width="24.000000" height="24.000000" rx="0" ry="0" style="stroke:none;fill:#f44800;"/>
<text x="276.400000" y="152.000000" font-family="Arial" font-size="7" text-anchor="middle" fill="#FFFFFF">0.5</text>
<circle cx="266.400000" cy="140.000000" r="1"/>
<line x1="255.400000" y1="129.000000" x2="255.400000" y2="171.000000"  style="stroke: black; stroke-linecap:round; stroke-width:0.25; stroke-dasharray:3,3;"/>
<line x1="255.400000" y1="171.000000" x2="297.400000" y2="171.000000"  style="stroke: black; stroke-linecap:round; stroke-width:0.25; stroke-dasharray:3,3;"/>
<line x1="297.400000" y1="171.000000" x2="297.400000" y2="129.000000"  style="stroke: black; stroke-linecap:round; stroke-width:0.25; stroke-dasharray:3,3;"/>
<line x1="255.400000" y1="129.000000" x2="260.400000" y2="129.000000"  style="stroke: black; stroke-linecap:round; stroke-width:0.25; stroke-dasharray:3,3;"/>
<line x1="270.075000" y1="129.000000" x2="297.400000" y2="129.000000"  style="stroke: black; stroke-linecap:round; stroke-width:0.25; stroke-dasharray:3,3;"/>
<text x="260.400000" y="131.000000" font-family="Arial" font-size="7">B</text>
<rect x="545.800000" y="87.000000" width="24.000000" height="24.000000" rx="0" ry="0" style="stroke:none;fill:#cccccc;"/>
<rect x="544.800000" y="86.000000" width="24.000000" height="24.000000" rx="0" ry="0" style="stroke:none;fill:#4B71A1;"/>
<text x="556.800000" y="100.000000" font-family="Arial" font-size="7" text-anchor="middle" fill="#FFFFFF">&lt;</text>
<circle cx="546.800000" cy="88.000000" r="1"/>
<line x1="541.800000" y1="93.000000" x2="544.800000" y2="94.000000"  transform="rotate(0.000000,544.800000,94.000000)" style="stroke: black; stroke-width:0.25;"/>
<line x1="541.800000" y1="95.000000" x2="544.800000" y2="94.000000"  transform="rotate(0.000000,544.800000,94.000000)" style="stroke: black; stroke-width:0.25;"/>
<line x1="541.800000" y1="101.000000" x2="544.800000" y2="102.000000"  transform="rotate(0.000000,544.800000,102.000000)" style="stroke: black; stroke-width:0.25;"/>
<line x1="541.800000" y1="103.000000" x2="544.800000" y2="102.000000"  transform="rotate(0.000000,544.800000,102.000000)" style="stroke: black; stroke-width:0.25;"/>
<line x1="15.000000" y1="15.000000" x2="15.000000" y2="181.000000"  style="stroke: black; stroke-linecap:round; stroke-width:0.25; stroke-dasharray:3,3;"/>
<line x1="15.000000" y1="181.000000" x2="585.800000" y2="181.000000"  style="stroke: black; stroke-linecap:round; stroke-width:0.25; stroke-dasharray:3,3;"/>
<line x1="585.800000" y1="181.000000" x2="585.800000" y2="15.000000"  style="stroke: black; stroke-linecap:round; stroke-width:0.25; stroke-dasharray:3,3;"/>
<line x1="15.000000" y1="15.000000" x2="20.000000" y2="15.000000"  style="stroke: black; stroke-linecap:round; stroke-width:0.25; stroke-dasharray:3,3;"/>
<line x1="61.925000" y1="15.000000" x2="585.800000" y2="15.000000"  style="stroke: black; stroke-linecap:round; stroke-width:0.25; stroke-dasharray:3,3;"/>
<text x="20.000000" y="17.000000" font-family="Arial" font-size="7">position(8)</text>
<line x1="587.800000" y1="97.000000" x2="590.800000" y2="98.000000"  transform="rotate(0.000000,590.800000,98.000000)" style="stroke: black; stroke-width:0.25;"/>
<line x1="587.800000" y1="99.000000" x2="590.800000" y2="98.000000"  transform="rotate(0.000000,590.800000,98.000000)" style="stroke: black; stroke-width:0.25;"/>
<line x1="252.400000" y1="98.000000" x2="256.400000" y2="98.000000"  style="stroke:black; stroke-linecap:round; stroke-width:0.25;"/>
<line x1="256.400000" y1="98.000000" x2="266.400000" y2="98.000000"  style="stroke:black; stroke-linecap:round; stroke-width:0.25;"/>
<line x1="266.400000" y1="98.000000" x2="460.800000" y2="98.000000"  style="stroke:black; stroke-linecap:round; stroke-width:0.25;"/>
<line x1="288.400000" y1="150.000000" x2="292.400000" y2="150.000000"  style="stroke:black; stroke-linecap:round; stroke-width:0.25;"/>
<line x1="292.400000" y1="150.000000" x2="302.400000" y2="150.000000"  style="stroke:black; stroke-linecap:round; stroke-width:0.25;"/>
<line x1="302.400000" y1="150.000000" x2="532.800000" y2="150.000000"  style="stroke:black; stroke-linecap:round; stroke-width:0.25;"/>
<line x1="446.800000" y1="46.000000" x2="450.800000" y2="46.000000"  style="stroke:black; stroke-linecap:round; stroke-width:0.25;"/>
<line x1="450.800000" y1="46.000000" x2="460.800000" y2="46.000000"  style="stroke:black; stroke-linecap:round; stroke-width:0.25;"/>
<line x1="460.800000" y1="46.000000" x2="468.800000" y2="46.000000"  style="stroke:black; stroke-linecap:round; stroke-width:0.25;"/>
<line x1="460.800000" y1="76.000000" x2="468.800000" y2="76.000000"  style="stroke:black; stroke-linecap:round; stroke-width:0.25;"/>
<line x1="460.800000" y1="98.000000" x2="460.800000" y2="76.000000"  style="stroke:black; stroke-linecap:round; stroke-width:0.25;"/>
<line x1="460.800000" y1="98.000000" x2="460.800000" y2="98.000000"  style="stroke:black; stroke-linecap:round; stroke-width:0.25;"/>
<line x1="468.800000" y1="46.000000" x2="468.800000" y2="68.000000"  style="stroke:black; stroke-linecap:round; stroke-width:0.25;"/>
<line x1="468.800000" y1="68.000000" x2="468.800000" y2="68.000000"  style="stroke:black; stroke-linecap:round; stroke-width:0.25;"/>
<line x1="468.800000" y1="68.000000" x2="472.800000" y2="68.000000"  style="stroke:black; stroke-linecap:round; stroke-width:0.25;"/>
<line x1="468.800000" y1="76.000000" x2="472.800000" y2="76.000000"  style="stroke:black; stroke-linecap:round; stroke-width:0.25;"/>
<line x1="496.800000" y1="72.000000" x2="500.800000" y2="72.000000"  style="stroke:black; stroke-linecap:round; stroke-width:0.25;"/>
<line x1="500.800000" y1="72.000000" x2="500.800000" y2="72.000000"  style="stroke:black; stroke-linecap:round; stroke-width:0.25;"/>
<line x1="500.800000" y1="72.000000" x2="504.800000" y2="72.000000"  style="stroke:black; stroke-linecap:round; stroke-width:0.25;"/>
<line x1="528.800000" y1="72.000000" x2="532.800000" y2="72.000000"  style="stroke:black; stroke-linecap:round; stroke-width:0.25;"/>
<line x1="532.800000" y1="72.000000" x2="540.800000" y2="72.000000"  style="stroke:black; stroke-linecap:round; stroke-width:0.25;"/>
<line x1="532.800000" y1="102.000000" x2="540.800000" y2="102.000000"  style="stroke:black; stroke-linecap:round; stroke-width:0.25;"/>
<line x1="532.800000" y1="150.000000" x2="532.800000" y2="102.000000"  style="stroke:black; stroke-linecap:round; stroke-width:0.25;"/>
<line x1="532.800000" y1="150.000000" x2="532.800000" y2="150.000000"  style="stroke:black; stroke-linecap:round; stroke-width:0.25;"/>
<line x1="540.800000" y1="72.000000" x2="540.800000" y2="94.000000"  style="stroke:black; stroke-linecap:round; stroke-width:0.25;"/>
<line x1="540.800000" y1="94.000000" x2="540.800000" y2="94.000000"  style="stroke:black; stroke-linecap:round; stroke-width:0.25;"/>
<line x1="540.800000" y1="94.000000" x2="544.800000" y2="94.000000"  style="stroke:black; stroke-linecap:round; stroke-width:0.25;"/>
<line x1="540.800000" y1="102.000000" x2="544.800000" y2="102.000000"  style="stroke:black; stroke-linecap:round; stroke-width:0.25;"/>
<line x1="568.800000" y1="98.000000" x2="572.800000" y2="98.000000"  style="stroke:black; stroke-linecap:round; stroke-width:0.25;"/>
<line x1="572.800000" y1="98.000000" x2="572.800000" y2="98.000000"  style="stroke:black; stroke-linecap:round; stroke-width:0.25;"/>
<line x1="572.800000" y1="98.000000" x2="576.800000" y2="98.000000"  style="stroke:black; stroke-linecap:round; stroke-width:0.25;"/>
<line x1="576.800000" y1="98.000000" x2="580.800000" y2="98.000000"  style="stroke:black; stroke-linecap:round; stroke-width:0.25;"/>
<line x1="580.800000" y1="98.000000" x2="590.800000" y2="98.000000"  style="stroke:black; stroke-linecap:round; stroke-width:0.25;"/>
</svg>
