<?xml version="1.0"?>
<svg xmlns="http://www.w3.org/2000/svg" xmlns:xlink="http://www.w3.org/1999/xlink" viewBox="0 0 481.500000 520.000000" width="240.750000mm" height="260.000000mm" version="1.1">
<rect x="1.000000" y="1.000000" width="480.500000" height="519.000000" rx="0" ry="0" style="stroke:none;fill:#cccccc;"/>
<rect x="0.000000" y="0.000000" width="480.500000" height="519.000000" rx="0" ry="0" style="stroke:none;fill:#ffffff;"/>
<text x="10.000000" y="7.000000" font-family="Arial" font-size="7"></text>
<a xlink:href="NFLeks-0x7faadc5dd860.svg">
<rect x="31.450000" y="25.000000" width="38.700000" height="24.000000" rx="0" ry="0" style="stroke:none;fill:#cccccc;"/>
<rect x="30.450000" y="24.000000" width="38.700000" height="24.000000" rx="0" ry="0" style="stroke:none;fill:#003366;"/>
</a>
<a xlink:href="NFLeks-0x7faadc5dd860.svg">
<text x="49.800000" y="38.000000" font-family="Arial" font-size="7" text-anchor="middle" fill="#FFFFFF">NFLeks(0)</text>
</a>
<circle cx="32.450000" cy="26.000000" r="1"/>
<a xlink:href="NFLeks-0x7faadc6d7410.svg">
<rect x="31.450000" y="57.000000" width="38.700000" height="24.000000" rx="0" ry="0" style="stroke:none;fill:#cccccc;"/>
<rect x="30.450000" y="56.000000" width="38.700000" height="24.000000" rx="0" ry="0" style="stroke:none;fill:#003366;"/>
</a>
<a xlink:href="NFLeks-0x7faadc6d7410.svg">
<text x="49.800000" y="70.000000" font-family="Arial" font-size="7" text-anchor="middle" fill="#FFFFFF">NFLeks(1)</text>
</a>
<circle cx="32.450000" cy="58.000000" r="1"/>
<a xlink:href="NFLeks-0x7faadc7d0fa0.svg">
<rect x="31.450000" y="89.000000" width="38.700000" height="24.000000" rx="0" ry="0" style="stroke:none;fill:#cccccc;"/>
<rect x="30.450000" y="88.000000" width="38.700000" height="24.000000" rx="0" ry="0" style="stroke:none;fill:#003366;"/>
</a>
<a xlink:href="NFLeks-0x7faadc7d0fa0.svg">
<text x="49.800000" y="102.000000" font-family="Arial" font-size="7" text-anchor="middle" fill="#FFFFFF">NFLeks(2)</text>
</a>
<circle cx="32.450000" cy="90.000000" r="1"/>
<a xlink:href="NFLeks-0x7faadc4eae40.svg">
<rect x="31.450000" y="121.000000" width="38.700000" height="24.000000" rx="0" ry="0" style="stroke:none;fill:#cccccc;"/>
<rect x="30.450000" y="120.000000" width="38.700000" height="24.000000" rx="0" ry="0" style="stroke:none;fill:#003366;"/>
</a>
<a xlink:href="NFLeks-0x7faadc4eae40.svg">
<text x="49.800000" y="134.000000" font-family="Arial" font-size="7" text-anchor="middle" fill="#FFFFFF">NFLeks(3)</text>
</a>
<circle cx="32.450000" cy="122.000000" r="1"/>
<a xlink:href="NFLeks-0x7faadca2b7d0.svg">
<rect x="31.450000" y="153.000000" width="38.700000" height="24.000000" rx="0" ry="0" style="stroke:none;fill:#cccccc;"/>
<rect x="30.450000" y="152.000000" width="38.700000" height="24.000000" rx="0" ry="0" style="stroke:none;fill:#003366;"/>
</a>
<a xlink:href="NFLeks-0x7faadca2b7d0.svg">
<text x="49.800000" y="166.000000" font-family="Arial" font-size="7" text-anchor="middle" fill="#FFFFFF">NFLeks(4)</text>
</a>
<circle cx="32.450000" cy="154.000000" r="1"/>
<a xlink:href="NFLeks-0x7faadcb27910.svg">
<rect x="31.450000" y="185.000000" width="38.700000" height="24.000000" rx="0" ry="0" style="stroke:none;fill:#cccccc;"/>
<rect x="30.450000" y="184.000000" width="38.700000" height="24.000000" rx="0" ry="0" style="stroke:none;fill:#003366;"/>
</a>
<a xlink:href="NFLeks-0x7faadcb27910.svg">
<text x="49.800000" y="198.000000" font-family="Arial" font-size="7" text-anchor="middle" fill="#FFFFFF">NFLeks(5)</text>
</a>
<circle cx="32.450000" cy="186.000000" r="1"/>
<a xlink:href="NFLeks-0x7faadcc23a40.svg">
<rect x="31.450000" y="217.000000" width="38.700000" height="24.000000" rx="0" ry="0" style="stroke:none;fill:#cccccc;"/>
<rect x="30.450000" y="216.000000" width="38.700000" height="24.000000" rx="0" ry="0" style="stroke:none;fill:#003366;"/>
</a>
<a xlink:href="NFLeks-0x7faadcc23a40.svg">
<text x="49.800000" y="230.000000" font-family="Arial" font-size="7" text-anchor="middle" fill="#FFFFFF">NFLeks(6)</text>
</a>
<circle cx="32.450000" cy="218.000000" r="1"/>
<a xlink:href="NFLeks-0x7faadc934980.svg">
<rect x="31.450000" y="249.000000" width="38.700000" height="24.000000" rx="0" ry="0" style="stroke:none;fill:#cccccc;"/>
<rect x="30.450000" y="248.000000" width="38.700000" height="24.000000" rx="0" ry="0" style="stroke:none;fill:#003366;"/>
</a>
<a xlink:href="NFLeks-0x7faadc934980.svg">
<text x="49.800000" y="262.000000" font-family="Arial" font-size="7" text-anchor="middle" fill="#FFFFFF">NFLeks(7)</text>
</a>
<circle cx="32.450000" cy="250.000000" r="1"/>
<a xlink:href="NFLeks-0x7faadcd8b410.svg">
<rect x="31.450000" y="281.000000" width="38.700000" height="24.000000" rx="0" ry="0" style="stroke:none;fill:#cccccc;"/>
<rect x="30.450000" y="280.000000" width="38.700000" height="24.000000" rx="0" ry="0" style="stroke:none;fill:#003366;"/>
</a>
<a xlink:href="NFLeks-0x7faadcd8b410.svg">
<text x="49.800000" y="294.000000" font-family="Arial" font-size="7" text-anchor="middle" fill="#FFFFFF">NFLeks(8)</text>
</a>
<circle cx="32.450000" cy="282.000000" r="1"/>
<a xlink:href="NFLeks-0x7faadc9c4d00.svg">
<rect x="31.450000" y="313.000000" width="38.700000" height="24.000000" rx="0" ry="0" style="stroke:none;fill:#cccccc;"/>
<rect x="30.450000" y="312.000000" width="38.700000" height="24.000000" rx="0" ry="0" style="stroke:none;fill:#003366;"/>
</a>
<a xlink:href="NFLeks-0x7faadc9c4d00.svg">
<text x="49.800000" y="326.000000" font-family="Arial" font-size="7" text-anchor="middle" fill="#FFFFFF">NFLeks(9)</text>
</a>
<circle cx="32.450000" cy="314.000000" r="1"/>
<a xlink:href="NFLeks-0x7faadcec3310.svg">
<rect x="25.000000" y="345.000000" width="51.600000" height="24.000000" rx="0" ry="0" style="stroke:none;fill:#cccccc;"/>
<rect x="24.000000" y="344.000000" width="51.600000" height="24.000000" rx="0" ry="0" style="stroke:none;fill:#003366;"/>
</a>
<a xlink:href="NFLeks-0x7faadcec3310.svg">
<text x="49.800000" y="358.000000" font-family="Arial" font-size="7" text-anchor="middle" fill="#FFFFFF">NFLeks(10)</text>
</a>
<circle cx="26.000000" cy="346.000000" r="1"/>
<a xlink:href="NFLeks-0x7faadd0782b0.svg">
<rect x="25.000000" y="377.000000" width="51.600000" height="24.000000" rx="0" ry="0" style="stroke:none;fill:#cccccc;"/>
<rect x="24.000000" y="376.000000" width="51.600000" height="24.000000" rx="0" ry="0" style="stroke:none;fill:#003366;"/>
</a>
<a xlink:href="NFLeks-0x7faadd0782b0.svg">
<text x="49.800000" y="390.000000" font-family="Arial" font-size="7" text-anchor="middle" fill="#FFFFFF">NFLeks(11)</text>
</a>
<circle cx="26.000000" cy="378.000000" r="1"/>
<a xlink:href="NFLeks-0x7faadd276960.svg">
<rect x="25.000000" y="409.000000" width="51.600000" height="24.000000" rx="0" ry="0" style="stroke:none;fill:#cccccc;"/>
<rect x="24.000000" y="408.000000" width="51.600000" height="24.000000" rx="0" ry="0" style="stroke:none;fill:#003366;"/>
</a>
<a xlink:href="NFLeks-0x7faadd276960.svg">
<text x="49.800000" y="422.000000" font-family="Arial" font-size="7" text-anchor="middle" fill="#FFFFFF">NFLeks(12)</text>
</a>
<circle cx="26.000000" cy="410.000000" r="1"/>
<a xlink:href="NFLeks-0x7faadd18fd30.svg">
<rect x="25.000000" y="441.000000" width="51.600000" height="24.000000" rx="0" ry="0" style="stroke:none;fill:#cccccc;"/>
<rect x="24.000000" y="440.000000" width="51.600000" height="24.000000" rx="0" ry="0" style="stroke:none;fill:#003366;"/>
</a>
<a xlink:href="NFLeks-0x7faadd18fd30.svg">
<text x="49.800000" y="454.000000" font-family="Arial" font-size="7" text-anchor="middle" fill="#FFFFFF">NFLeks(13)</text>
</a>
<circle cx="26.000000" cy="442.000000" r="1"/>
<a xlink:href="NFLeks-0x7faadcf12870.svg">
<rect x="25.000000" y="473.000000" width="51.600000" height="24.000000" rx="0" ry="0" style="stroke:none;fill:#cccccc;"/>
<rect x="24.000000" y="472.000000" width="51.600000" height="24.000000" rx="0" ry="0" style="stroke:none;fill:#003366;"/>
</a>
<a xlink:href="NFLeks-0x7faadcf12870.svg">
<text x="49.800000" y="486.000000" font-family="Arial" font-size="7" text-anchor="middle" fill="#FFFFFF">NFLeks(14)</text>
</a>
<circle cx="26.000000" cy="474.000000" r="1"/>
<a xlink:href="byPass-0x7faadbfca9d0.svg">
<rect x="257.050000" y="229.000000" width="25.800000" height="24.000000" rx="0" ry="0" style="stroke:none;fill:#cccccc;"/>
<rect x="256.050000" y="228.000000" width="25.800000" height="24.000000" rx="0" ry="0" style="stroke:none;fill:#003366;"/>
</a>
<a xlink:href="byPass-0x7faadbfca9d0.svg">
<text x="268.950000" y="242.000000" font-family="Arial" font-size="7" text-anchor="middle" fill="#FFFFFF">byPass</text>
</a>
<circle cx="258.050000" cy="230.000000" r="1"/>
<a xlink:href="capture-0x7faadbfce910.svg">
<rect x="250.600000" y="261.000000" width="38.700000" height="24.000000" rx="0" ry="0" style="stroke:none;fill:#cccccc;"/>
<rect x="249.600000" y="260.000000" width="38.700000" height="24.000000" rx="0" ry="0" style="stroke:none;fill:#003366;"/>
</a>
<a xlink:href="capture-0x7faadbfce910.svg">
<text x="268.950000" y="274.000000" font-family="Arial" font-size="7" text-anchor="middle" fill="#FFFFFF">capture</text>
</a>
<circle cx="251.600000" cy="262.000000" r="1"/>
<line x1="246.600000" y1="271.000000" x2="249.600000" y2="272.000000"  transform="rotate(0.000000,249.600000,272.000000)" style="stroke: black; stroke-width:0.25;"/>
<line x1="246.600000" y1="273.000000" x2="249.600000" y2="272.000000"  transform="rotate(0.000000,249.600000,272.000000)" style="stroke: black; stroke-width:0.25;"/>
<rect x="313.300000" y="249.000000" width="38.700000" height="24.000000" rx="0" ry="0" style="stroke:none;fill:#cccccc;"/>
<rect x="312.300000" y="248.000000" width="38.700000" height="24.000000" rx="0" ry="0" style="stroke:none;fill:#4B71A1;"/>
<text x="331.650000" y="262.000000" font-family="Arial" font-size="7" text-anchor="middle" fill="#FFFFFF">select2</text>
<circle cx="314.300000" cy="250.000000" r="1"/>
<line x1="309.300000" y1="251.000000" x2="312.300000" y2="252.000000"  transform="rotate(0.000000,312.300000,252.000000)" style="stroke: black; stroke-width:0.25;"/>
<line x1="309.300000" y1="253.000000" x2="312.300000" y2="252.000000"  transform="rotate(0.000000,312.300000,252.000000)" style="stroke: black; stroke-width:0.25;"/>
<line x1="309.300000" y1="259.000000" x2="312.300000" y2="260.000000"  transform="rotate(0.000000,312.300000,260.000000)" style="stroke: black; stroke-width:0.25;"/>
<line x1="309.300000" y1="261.000000" x2="312.300000" y2="260.000000"  transform="rotate(0.000000,312.300000,260.000000)" style="stroke: black; stroke-width:0.25;"/>
<line x1="309.300000" y1="267.000000" x2="312.300000" y2="268.000000"  transform="rotate(0.000000,312.300000,268.000000)" style="stroke: black; stroke-width:0.25;"/>
<line x1="309.300000" y1="269.000000" x2="312.300000" y2="268.000000"  transform="rotate(0.000000,312.300000,268.000000)" style="stroke: black; stroke-width:0.25;"/>
<a xlink:href="instrReverbHarp-0x7faadd5e7f90.svg">
<rect x="386.000000" y="249.000000" width="64.500000" height="24.000000" rx="0" ry="0" style="stroke:none;fill:#cccccc;"/>
<rect x="385.000000" y="248.000000" width="64.500000" height="24.000000" rx="0" ry="0" style="stroke:none;fill:#003366;"/>
</a>
<a xlink:href="instrReverbHarp-0x7faadd5e7f90.svg">
<text x="417.250000" y="262.000000" font-family="Arial" font-size="7" text-anchor="middle" fill="#FFFFFF">instrReverbHarp</text>
</a>
<circle cx="387.000000" cy="250.000000" r="1"/>
<line x1="382.000000" y1="255.000000" x2="385.000000" y2="256.000000"  transform="rotate(0.000000,385.000000,256.000000)" style="stroke: black; stroke-width:0.25;"/>
<line x1="382.000000" y1="257.000000" x2="385.000000" y2="256.000000"  transform="rotate(0.000000,385.000000,256.000000)" style="stroke: black; stroke-width:0.25;"/>
<line x1="382.000000" y1="263.000000" x2="385.000000" y2="264.000000"  transform="rotate(0.000000,385.000000,264.000000)" style="stroke: black; stroke-width:0.25;"/>
<line x1="382.000000" y1="265.000000" x2="385.000000" y2="264.000000"  transform="rotate(0.000000,385.000000,264.000000)" style="stroke: black; stroke-width:0.25;"/>
<line x1="15.000000" y1="15.000000" x2="15.000000" y2="505.000000"  style="stroke: black; stroke-linecap:round; stroke-width:0.25; stroke-dasharray:3,3;"/>
<line x1="15.000000" y1="505.000000" x2="466.500000" y2="505.000000"  style="stroke: black; stroke-linecap:round; stroke-width:0.25; stroke-dasharray:3,3;"/>
<line x1="466.500000" y1="505.000000" x2="466.500000" y2="15.000000"  style="stroke: black; stroke-linecap:round; stroke-width:0.25; stroke-dasharray:3,3;"/>
<line x1="15.000000" y1="15.000000" x2="20.000000" y2="15.000000"  style="stroke: black; stroke-linecap:round; stroke-width:0.25; stroke-dasharray:3,3;"/>
<line x1="49.025000" y1="15.000000" x2="466.500000" y2="15.000000"  style="stroke: black; stroke-linecap:round; stroke-width:0.25; stroke-dasharray:3,3;"/>
<text x="20.000000" y="17.000000" font-family="Arial" font-size="7">process</text>
<line x1="468.500000" y1="255.000000" x2="471.500000" y2="256.000000"  transform="rotate(0.000000,471.500000,256.000000)" style="stroke: black; stroke-width:0.25;"/>
<line x1="468.500000" y1="257.000000" x2="471.500000" y2="256.000000"  transform="rotate(0.000000,471.500000,256.000000)" style="stroke: black; stroke-width:0.25;"/>
<line x1="468.500000" y1="263.000000" x2="471.500000" y2="264.000000"  transform="rotate(0.000000,471.500000,264.000000)" style="stroke: black; stroke-width:0.25;"/>
<line x1="468.500000" y1="265.000000" x2="471.500000" y2="264.000000"  transform="rotate(0.000000,471.500000,264.000000)" style="stroke: black; stroke-width:0.25;"/>
<line x1="69.150000" y1="36.000000" x2="73.150000" y2="36.000000"  style="stroke:black; stroke-linecap:round; stroke-width:0.25;"/>
<line x1="69.150000" y1="68.000000" x2="73.150000" y2="68.000000"  style="stroke:black; stroke-linecap:round; stroke-width:0.25;"/>
<line x1="69.150000" y1="100.000000" x2="73.150000" y2="100.000000"  style="stroke:black; stroke-linecap:round; stroke-width:0.25;"/>
<line x1="69.150000" y1="132.000000" x2="73.150000" y2="132.000000"  style="stroke:black; stroke-linecap:round; stroke-width:0.25;"/>
<line x1="69.150000" y1="164.000000" x2="73.150000" y2="164.000000"  style="stroke:black; stroke-linecap:round; stroke-width:0.25;"/>
<line x1="69.150000" y1="196.000000" x2="73.150000" y2="196.000000"  style="stroke:black; stroke-linecap:round; stroke-width:0.25;"/>
<line x1="69.150000" y1="228.000000" x2="73.150000" y2="228.000000"  style="stroke:black; stroke-linecap:round; stroke-width:0.25;"/>
<line x1="69.150000" y1="260.000000" x2="73.150000" y2="260.000000"  style="stroke:black; stroke-linecap:round; stroke-width:0.25;"/>
<line x1="69.150000" y1="292.000000" x2="73.150000" y2="292.000000"  style="stroke:black; stroke-linecap:round; stroke-width:0.25;"/>
<line x1="69.150000" y1="324.000000" x2="73.150000" y2="324.000000"  style="stroke:black; stroke-linecap:round; stroke-width:0.25;"/>
<line x1="73.150000" y1="36.000000" x2="79.600000" y2="36.000000"  style="stroke:black; stroke-linecap:round; stroke-width:0.25;"/>
<line x1="73.150000" y1="68.000000" x2="79.600000" y2="68.000000"  style="stroke:black; stroke-linecap:round; stroke-width:0.25;"/>
<line x1="73.150000" y1="100.000000" x2="79.600000" y2="100.000000"  style="stroke:black; stroke-linecap:round; stroke-width:0.25;"/>
<line x1="73.150000" y1="132.000000" x2="79.600000" y2="132.000000"  style="stroke:black; stroke-linecap:round; stroke-width:0.25;"/>
<line x1="73.150000" y1="164.000000" x2="79.600000" y2="164.000000"  style="stroke:black; stroke-linecap:round; stroke-width:0.25;"/>
<line x1="73.150000" y1="196.000000" x2="79.600000" y2="196.000000"  style="stroke:black; stroke-linecap:round; stroke-width:0.25;"/>
<line x1="73.150000" y1="228.000000" x2="79.600000" y2="228.000000"  style="stroke:black; stroke-linecap:round; stroke-width:0.25;"/>
<line x1="73.150000" y1="260.000000" x2="79.600000" y2="260.000000"  style="stroke:black; stroke-linecap:round; stroke-width:0.25;"/>
<line x1="73.150000" y1="292.000000" x2="79.600000" y2="292.000000"  style="stroke:black; stroke-linecap:round; stroke-width:0.25;"/>
<line x1="73.150000" y1="324.000000" x2="79.600000" y2="324.000000"  style="stroke:black; stroke-linecap:round; stroke-width:0.25;"/>
<line x1="75.600000" y1="356.000000" x2="79.600000" y2="356.000000"  style="stroke:black; stroke-linecap:round; stroke-width:0.25;"/>
<line x1="75.600000" y1="388.000000" x2="79.600000" y2="388.000000"  style="stroke:black; stroke-linecap:round; stroke-width:0.25;"/>
<line x1="75.600000" y1="420.000000" x2="79.600000" y2="420.000000"  style="stroke:black; stroke-linecap:round; stroke-width:0.25;"/>
<line x1="75.600000" y1="452.000000" x2="79.600000" y2="452.000000"  style="stroke:black; stroke-linecap:round; stroke-width:0.25;"/>
<line x1="75.600000" y1="484.000000" x2="79.600000" y2="484.000000"  style="stroke:black; stroke-linecap:round; stroke-width:0.25;"/>
<line x1="79.600000" y1="36.000000" x2="217.600000" y2="260.000000"  style="stroke:black; stroke-linecap:round; stroke-width:0.25;"/>
<line x1="79.600000" y1="68.000000" x2="217.600000" y2="260.000000"  style="stroke:black; stroke-linecap:round; stroke-width:0.25;"/>
<line x1="79.600000" y1="100.000000" x2="217.600000" y2="260.000000"  style="stroke:black; stroke-linecap:round; stroke-width:0.25;"/>
<line x1="79.600000" y1="132.000000" x2="217.600000" y2="260.000000"  style="stroke:black; stroke-linecap:round; stroke-width:0.25;"/>
<line x1="79.600000" y1="164.000000" x2="217.600000" y2="260.000000"  style="stroke:black; stroke-linecap:round; stroke-width:0.25;"/>
<line x1="79.600000" y1="196.000000" x2="217.600000" y2="260.000000"  style="stroke:black; stroke-linecap:round; stroke-width:0.25;"/>
<line x1="79.600000" y1="228.000000" x2="217.600000" y2="260.000000"  style="stroke:black; stroke-linecap:round; stroke-width:0.25;"/>
<line x1="79.600000" y1="260.000000" x2="217.600000" y2="260.000000"  style="stroke:black; stroke-linecap:round; stroke-width:0.25;"/>
<line x1="79.600000" y1="292.000000" x2="217.600000" y2="260.000000"  style="stroke:black; stroke-linecap:round; stroke-width:0.25;"/>
<line x1="79.600000" y1="324.000000" x2="217.600000" y2="260.000000"  style="stroke:black; stroke-linecap:round; stroke-width:0.25;"/>
<line x1="79.600000" y1="356.000000" x2="217.600000" y2="260.000000"  style="stroke:black; stroke-linecap:round; stroke-width:0.25;"/>
<line x1="79.600000" y1="388.000000" x2="217.600000" y2="260.000000"  style="stroke:black; stroke-linecap:round; stroke-width:0.25;"/>
<line x1="79.600000" y1="420.000000" x2="217.600000" y2="260.000000"  style="stroke:black; stroke-linecap:round; stroke-width:0.25;"/>
<line x1="79.600000" y1="452.000000" x2="217.600000" y2="260.000000"  style="stroke:black; stroke-linecap:round; stroke-width:0.25;"/>
<line x1="79.600000" y1="484.000000" x2="217.600000" y2="260.000000"  style="stroke:black; stroke-linecap:round; stroke-width:0.25;"/>
<line x1="217.600000" y1="260.000000" x2="221.600000" y2="260.000000"  style="stroke:black; stroke-linecap:round; stroke-width:0.25;"/>
<line x1="221.600000" y1="260.000000" x2="225.600000" y2="260.000000"  style="stroke:black; stroke-linecap:round; stroke-width:0.25;"/>
<line x1="225.600000" y1="260.000000" x2="245.600000" y2="272.000000"  style="stroke:black; stroke-linecap:round; stroke-width:0.25;"/>
<line x1="225.600000" y1="260.000000" x2="245.600000" y2="292.000000"  style="stroke:black; stroke-linecap:round; stroke-width:0.25;"/>
<line x1="245.600000" y1="272.000000" x2="249.600000" y2="272.000000"  style="stroke:black; stroke-linecap:round; stroke-width:0.25;"/>
<line x1="245.600000" y1="292.000000" x2="268.950000" y2="292.000000"  style="stroke:black; stroke-linecap:round; stroke-width:0.25;"/>
<line x1="268.950000" y1="292.000000" x2="292.300000" y2="292.000000"  style="stroke:black; stroke-linecap:round; stroke-width:0.25;"/>
<line x1="281.850000" y1="240.000000" x2="285.850000" y2="240.000000"  style="stroke:black; stroke-linecap:round; stroke-width:0.25;"/>
<line x1="285.850000" y1="240.000000" x2="292.300000" y2="240.000000"  style="stroke:black; stroke-linecap:round; stroke-width:0.25;"/>
<line x1="288.300000" y1="272.000000" x2="292.300000" y2="272.000000"  style="stroke:black; stroke-linecap:round; stroke-width:0.25;"/>
<line x1="292.300000" y1="240.000000" x2="308.300000" y2="240.000000"  style="stroke:black; stroke-linecap:round; stroke-width:0.25;"/>
<line x1="292.300000" y1="260.000000" x2="308.300000" y2="260.000000"  style="stroke:black; stroke-linecap:round; stroke-width:0.25;"/>
<line x1="292.300000" y1="272.000000" x2="292.300000" y2="260.000000"  style="stroke:black; stroke-linecap:round; stroke-width:0.25;"/>
<line x1="292.300000" y1="272.000000" x2="292.300000" y2="272.000000"  style="stroke:black; stroke-linecap:round; stroke-width:0.25;"/>
<line x1="292.300000" y1="292.000000" x2="300.300000" y2="292.000000"  style="stroke:black; stroke-linecap:round; stroke-width:0.25;"/>
<line x1="300.300000" y1="268.000000" x2="308.300000" y2="268.000000"  style="stroke:black; stroke-linecap:round; stroke-width:0.25;"/>
<line x1="300.300000" y1="292.000000" x2="300.300000" y2="268.000000"  style="stroke:black; stroke-linecap:round; stroke-width:0.25;"/>
<line x1="308.300000" y1="240.000000" x2="308.300000" y2="252.000000"  style="stroke:black; stroke-linecap:round; stroke-width:0.25;"/>
<line x1="308.300000" y1="252.000000" x2="308.300000" y2="252.000000"  style="stroke:black; stroke-linecap:round; stroke-width:0.25;"/>
<line x1="308.300000" y1="252.000000" x2="312.300000" y2="252.000000"  style="stroke:black; stroke-linecap:round; stroke-width:0.25;"/>
<line x1="308.300000" y1="260.000000" x2="312.300000" y2="260.000000"  style="stroke:black; stroke-linecap:round; stroke-width:0.25;"/>
<line x1="308.300000" y1="268.000000" x2="312.300000" y2="268.000000"  style="stroke:black; stroke-linecap:round; stroke-width:0.25;"/>
<line x1="351.000000" y1="260.000000" x2="355.000000" y2="260.000000"  style="stroke:black; stroke-linecap:round; stroke-width:0.25;"/>
<line x1="355.000000" y1="260.000000" x2="381.000000" y2="256.000000"  style="stroke:black; stroke-linecap:round; stroke-width:0.25;"/>
<line x1="355.000000" y1="260.000000" x2="381.000000" y2="264.000000"  style="stroke:black; stroke-linecap:round; stroke-width:0.25;"/>
<line x1="381.000000" y1="256.000000" x2="385.000000" y2="256.000000"  style="stroke:black; stroke-linecap:round; stroke-width:0.25;"/>
<line x1="381.000000" y1="264.000000" x2="385.000000" y2="264.000000"  style="stroke:black; stroke-linecap:round; stroke-width:0.25;"/>
<line x1="449.500000" y1="256.000000" x2="453.500000" y2="256.000000"  style="stroke:black; stroke-linecap:round; stroke-width:0.25;"/>
<line x1="449.500000" y1="264.000000" x2="453.500000" y2="264.000000"  style="stroke:black; stroke-linecap:round; stroke-width:0.25;"/>
<line x1="453.500000" y1="256.000000" x2="453.500000" y2="256.000000"  style="stroke:black; stroke-linecap:round; stroke-width:0.25;"/>
<line x1="453.500000" y1="256.000000" x2="457.500000" y2="256.000000"  style="stroke:black; stroke-linecap:round; stroke-width:0.25;"/>
<line x1="453.500000" y1="264.000000" x2="453.500000" y2="264.000000"  style="stroke:black; stroke-linecap:round; stroke-width:0.25;"/>
<line x1="453.500000" y1="264.000000" x2="457.500000" y2="264.000000"  style="stroke:black; stroke-linecap:round; stroke-width:0.25;"/>
<line x1="457.500000" y1="256.000000" x2="461.500000" y2="256.000000"  style="stroke:black; stroke-linecap:round; stroke-width:0.25;"/>
<line x1="457.500000" y1="264.000000" x2="461.500000" y2="264.000000"  style="stroke:black; stroke-linecap:round; stroke-width:0.25;"/>
<line x1="461.500000" y1="256.000000" x2="471.500000" y2="256.000000"  style="stroke:black; stroke-linecap:round; stroke-width:0.25;"/>
<line x1="461.500000" y1="264.000000" x2="471.500000" y2="264.000000"  style="stroke:black; stroke-linecap:round; stroke-width:0.25;"/>
</svg>
