<?xml version="1.0"?>
<svg xmlns="http://www.w3.org/2000/svg" xmlns:xlink="http://www.w3.org/1999/xlink" viewBox="0 0 524.700000 124.000000" width="262.350000mm" height="62.000000mm" version="1.1">
<a xlink:href="harpe-0x7fbdcca72920.svg">
<rect x="1.000000" y="1.000000" width="523.700000" height="123.000000" rx="0" ry="0" style="stroke:none;fill:#cccccc;"/>
<rect x="0.000000" y="0.000000" width="523.700000" height="123.000000" rx="0" ry="0" style="stroke:none;fill:#ffffff;"/>
</a>
<text x="10.000000" y="7.000000" font-family="Arial" font-size="7"></text>
<rect x="33.000000" y="51.000000" width="25.800000" height="24.000000" rx="0" ry="0" style="stroke:none;fill:#cccccc;"/>
<rect x="32.000000" y="50.000000" width="25.800000" height="24.000000" rx="0" ry="0" style="stroke:none;fill:#47945E;"/>
<text x="44.900000" y="64.000000" font-family="Arial" font-size="7" text-anchor="middle" fill="#FFFFFF">trig</text>
<circle cx="34.000000" cy="52.000000" r="1"/>
<line x1="29.000000" y1="61.000000" x2="32.000000" y2="62.000000"  transform="rotate(0.000000,32.000000,62.000000)" style="stroke: black; stroke-width:0.25;"/>
<line x1="29.000000" y1="63.000000" x2="32.000000" y2="62.000000"  transform="rotate(0.000000,32.000000,62.000000)" style="stroke: black; stroke-width:0.25;"/>
<a xlink:href="noise-0x7fbdcc818460.svg">
<rect x="75.900000" y="25.000000" width="25.800000" height="24.000000" rx="0" ry="0" style="stroke:none;fill:#cccccc;"/>
<rect x="74.900000" y="24.000000" width="25.800000" height="24.000000" rx="0" ry="0" style="stroke:none;fill:#003366;"/>
</a>
<a xlink:href="noise-0x7fbdcc818460.svg">
<text x="87.800000" y="38.000000" font-family="Arial" font-size="7" text-anchor="middle" fill="#FFFFFF">noise</text>
</a>
<circle cx="76.900000" cy="26.000000" r="1"/>
<rect x="76.800000" y="67.000000" width="24.000000" height="24.000000" rx="0" ry="0" style="stroke:none;fill:#cccccc;"/>
<rect x="75.800000" y="66.000000" width="24.000000" height="24.000000" rx="0" ry="0" style="stroke:none;fill:#f44800;"/>
<text x="87.800000" y="80.000000" font-family="Arial" font-size="7" text-anchor="middle" fill="#FFFFFF">1</text>
<circle cx="77.800000" cy="68.000000" r="1"/>
<line x1="66.800000" y1="57.000000" x2="66.800000" y2="99.000000"  style="stroke: black; stroke-linecap:round; stroke-width:0.25; stroke-dasharray:3,3;"/>
<line x1="66.800000" y1="99.000000" x2="108.800000" y2="99.000000"  style="stroke: black; stroke-linecap:round; stroke-width:0.25; stroke-dasharray:3,3;"/>
<line x1="108.800000" y1="99.000000" x2="108.800000" y2="57.000000"  style="stroke: black; stroke-linecap:round; stroke-width:0.25; stroke-dasharray:3,3;"/>
<line x1="66.800000" y1="57.000000" x2="71.800000" y2="57.000000"  style="stroke: black; stroke-linecap:round; stroke-width:0.25; stroke-dasharray:3,3;"/>
<line x1="87.925000" y1="57.000000" x2="108.800000" y2="57.000000"  style="stroke: black; stroke-linecap:round; stroke-width:0.25; stroke-dasharray:3,3;"/>
<text x="71.800000" y="59.000000" font-family="Arial" font-size="7">lvl</text>
<rect x="126.800000" y="51.000000" width="24.000000" height="24.000000" rx="0" ry="0" style="stroke:none;fill:#cccccc;"/>
<rect x="125.800000" y="50.000000" width="24.000000" height="24.000000" rx="0" ry="0" style="stroke:none;fill:#4B71A1;"/>
<text x="137.800000" y="64.000000" font-family="Arial" font-size="7" text-anchor="middle" fill="#FFFFFF">*</text>
<circle cx="127.800000" cy="52.000000" r="1"/>
<line x1="122.800000" y1="57.000000" x2="125.800000" y2="58.000000"  transform="rotate(0.000000,125.800000,58.000000)" style="stroke: black; stroke-width:0.25;"/>
<line x1="122.800000" y1="59.000000" x2="125.800000" y2="58.000000"  transform="rotate(0.000000,125.800000,58.000000)" style="stroke: black; stroke-width:0.25;"/>
<line x1="122.800000" y1="65.000000" x2="125.800000" y2="66.000000"  transform="rotate(0.000000,125.800000,66.000000)" style="stroke: black; stroke-width:0.25;"/>
<line x1="122.800000" y1="67.000000" x2="125.800000" y2="66.000000"  transform="rotate(0.000000,125.800000,66.000000)" style="stroke: black; stroke-width:0.25;"/>
<rect x="166.800000" y="55.000000" width="25.800000" height="24.000000" rx="0" ry="0" style="stroke:none;fill:#cccccc;"/>
<rect x="165.800000" y="54.000000" width="25.800000" height="24.000000" rx="0" ry="0" style="stroke:none;fill:#47945E;"/>
<text x="178.700000" y="68.000000" font-family="Arial" font-size="7" text-anchor="middle" fill="#FFFFFF">trig</text>
<circle cx="167.800000" cy="56.000000" r="1"/>
<a xlink:href="trigger-0x7fbdcafe6d80.svg">
<rect x="200.600000" y="55.000000" width="116.100000" height="24.000000" rx="0" ry="0" style="stroke:none;fill:#cccccc;"/>
<rect x="199.600000" y="54.000000" width="116.100000" height="24.000000" rx="0" ry="0" style="stroke:none;fill:#003366;"/>
</a>
<a xlink:href="trigger-0x7fbdcafe6d80.svg">
<text x="257.650000" y="68.000000" font-family="Arial" font-size="7" text-anchor="middle" fill="#FFFFFF">trigger(84.28075434702004f)</text>
</a>
<circle cx="201.600000" cy="56.000000" r="1"/>
<line x1="196.600000" y1="65.000000" x2="199.600000" y2="66.000000"  transform="rotate(0.000000,199.600000,66.000000)" style="stroke: black; stroke-width:0.25;"/>
<line x1="196.600000" y1="67.000000" x2="199.600000" y2="66.000000"  transform="rotate(0.000000,199.600000,66.000000)" style="stroke: black; stroke-width:0.25;"/>
<rect x="332.700000" y="51.000000" width="24.000000" height="24.000000" rx="0" ry="0" style="stroke:none;fill:#cccccc;"/>
<rect x="331.700000" y="50.000000" width="24.000000" height="24.000000" rx="0" ry="0" style="stroke:none;fill:#4B71A1;"/>
<text x="343.700000" y="64.000000" font-family="Arial" font-size="7" text-anchor="middle" fill="#FFFFFF">*</text>
<circle cx="333.700000" cy="52.000000" r="1"/>
<line x1="328.700000" y1="57.000000" x2="331.700000" y2="58.000000"  transform="rotate(0.000000,331.700000,58.000000)" style="stroke: black; stroke-width:0.25;"/>
<line x1="328.700000" y1="59.000000" x2="331.700000" y2="58.000000"  transform="rotate(0.000000,331.700000,58.000000)" style="stroke: black; stroke-width:0.25;"/>
<line x1="328.700000" y1="65.000000" x2="331.700000" y2="66.000000"  transform="rotate(0.000000,331.700000,66.000000)" style="stroke: black; stroke-width:0.25;"/>
<line x1="328.700000" y1="67.000000" x2="331.700000" y2="66.000000"  transform="rotate(0.000000,331.700000,66.000000)" style="stroke: black; stroke-width:0.25;"/>
<a xlink:href="resonator-0x7fbdcaff0f30.svg">
<rect x="364.700000" y="51.000000" width="129.000000" height="24.000000" rx="0" ry="0" style="stroke:none;fill:#cccccc;"/>
<rect x="363.700000" y="50.000000" width="129.000000" height="24.000000" rx="0" ry="0" style="stroke:none;fill:#003366;"/>
</a>
<a xlink:href="resonator-0x7fbdcaff0f30.svg">
<text x="428.200000" y="64.000000" font-family="Arial" font-size="7" text-anchor="middle" fill="#FFFFFF">resonator(84....05038831746f)</text>
</a>
<circle cx="365.700000" cy="52.000000" r="1"/>
<line x1="360.700000" y1="61.000000" x2="363.700000" y2="62.000000"  transform="rotate(0.000000,363.700000,62.000000)" style="stroke: black; stroke-width:0.25;"/>
<line x1="360.700000" y1="63.000000" x2="363.700000" y2="62.000000"  transform="rotate(0.000000,363.700000,62.000000)" style="stroke: black; stroke-width:0.25;"/>
<line x1="15.000000" y1="15.000000" x2="15.000000" y2="109.000000"  style="stroke: black; stroke-linecap:round; stroke-width:0.25; stroke-dasharray:3,3;"/>
<line x1="15.000000" y1="109.000000" x2="509.700000" y2="109.000000"  style="stroke: black; stroke-linecap:round; stroke-width:0.25; stroke-dasharray:3,3;"/>
<line x1="509.700000" y1="109.000000" x2="509.700000" y2="15.000000"  style="stroke: black; stroke-linecap:round; stroke-width:0.25; stroke-dasharray:3,3;"/>
<line x1="15.000000" y1="15.000000" x2="20.000000" y2="15.000000"  style="stroke: black; stroke-linecap:round; stroke-width:0.25; stroke-dasharray:3,3;"/>
<line x1="139.325000" y1="15.000000" x2="509.700000" y2="15.000000"  style="stroke: black; stroke-linecap:round; stroke-width:0.25; stroke-dasharray:3,3;"/>
<text x="20.000000" y="17.000000" font-family="Arial" font-size="7">string(vslide...11306011972f)(4)(1)</text>
<line x1="511.700000" y1="61.000000" x2="514.700000" y2="62.000000"  transform="rotate(0.000000,514.700000,62.000000)" style="stroke: black; stroke-width:0.25;"/>
<line x1="511.700000" y1="63.000000" x2="514.700000" y2="62.000000"  transform="rotate(0.000000,514.700000,62.000000)" style="stroke: black; stroke-width:0.25;"/>
<line x1="10.000000" y1="62.000000" x2="20.000000" y2="62.000000"  style="stroke:black; stroke-linecap:round; stroke-width:0.25;"/>
<line x1="20.000000" y1="62.000000" x2="24.000000" y2="62.000000"  style="stroke:black; stroke-linecap:round; stroke-width:0.25;"/>
<line x1="24.000000" y1="62.000000" x2="28.000000" y2="62.000000"  style="stroke:black; stroke-linecap:round; stroke-width:0.25;"/>
<line x1="28.000000" y1="62.000000" x2="28.000000" y2="62.000000"  style="stroke:black; stroke-linecap:round; stroke-width:0.25;"/>
<line x1="28.000000" y1="62.000000" x2="32.000000" y2="62.000000"  style="stroke:black; stroke-linecap:round; stroke-width:0.25;"/>
<line x1="99.800000" y1="78.000000" x2="103.800000" y2="78.000000"  style="stroke:black; stroke-linecap:round; stroke-width:0.25;"/>
<line x1="100.700000" y1="36.000000" x2="104.700000" y2="36.000000"  style="stroke:black; stroke-linecap:round; stroke-width:0.25;"/>
<line x1="103.800000" y1="78.000000" x2="113.800000" y2="78.000000"  style="stroke:black; stroke-linecap:round; stroke-width:0.25;"/>
<line x1="104.700000" y1="36.000000" x2="113.800000" y2="36.000000"  style="stroke:black; stroke-linecap:round; stroke-width:0.25;"/>
<line x1="113.800000" y1="66.000000" x2="121.800000" y2="66.000000"  style="stroke:black; stroke-linecap:round; stroke-width:0.25;"/>
<line x1="113.800000" y1="78.000000" x2="113.800000" y2="66.000000"  style="stroke:black; stroke-linecap:round; stroke-width:0.25;"/>
<line x1="113.800000" y1="78.000000" x2="113.800000" y2="78.000000"  style="stroke:black; stroke-linecap:round; stroke-width:0.25;"/>
<line x1="113.800000" y1="36.000000" x2="121.800000" y2="36.000000"  style="stroke:black; stroke-linecap:round; stroke-width:0.25;"/>
<line x1="121.800000" y1="58.000000" x2="125.800000" y2="58.000000"  style="stroke:black; stroke-linecap:round; stroke-width:0.25;"/>
<line x1="121.800000" y1="66.000000" x2="125.800000" y2="66.000000"  style="stroke:black; stroke-linecap:round; stroke-width:0.25;"/>
<line x1="121.800000" y1="36.000000" x2="121.800000" y2="58.000000"  style="stroke:black; stroke-linecap:round; stroke-width:0.25;"/>
<line x1="121.800000" y1="58.000000" x2="121.800000" y2="58.000000"  style="stroke:black; stroke-linecap:round; stroke-width:0.25;"/>
<line x1="149.800000" y1="62.000000" x2="153.800000" y2="62.000000"  style="stroke:black; stroke-linecap:round; stroke-width:0.25;"/>
<line x1="153.800000" y1="46.000000" x2="161.800000" y2="46.000000"  style="stroke:black; stroke-linecap:round; stroke-width:0.25;"/>
<line x1="153.800000" y1="62.000000" x2="153.800000" y2="46.000000"  style="stroke:black; stroke-linecap:round; stroke-width:0.25;"/>
<line x1="153.800000" y1="62.000000" x2="153.800000" y2="62.000000"  style="stroke:black; stroke-linecap:round; stroke-width:0.25;"/>
<line x1="161.800000" y1="46.000000" x2="240.750000" y2="46.000000"  style="stroke:black; stroke-linecap:round; stroke-width:0.25;"/>
<line x1="191.600000" y1="66.000000" x2="195.600000" y2="66.000000"  style="stroke:black; stroke-linecap:round; stroke-width:0.25;"/>
<line x1="195.600000" y1="66.000000" x2="195.600000" y2="66.000000"  style="stroke:black; stroke-linecap:round; stroke-width:0.25;"/>
<line x1="195.600000" y1="66.000000" x2="199.600000" y2="66.000000"  style="stroke:black; stroke-linecap:round; stroke-width:0.25;"/>
<line x1="240.750000" y1="46.000000" x2="319.700000" y2="46.000000"  style="stroke:black; stroke-linecap:round; stroke-width:0.25;"/>
<line x1="315.700000" y1="66.000000" x2="319.700000" y2="66.000000"  style="stroke:black; stroke-linecap:round; stroke-width:0.25;"/>
<line x1="319.700000" y1="46.000000" x2="327.700000" y2="46.000000"  style="stroke:black; stroke-linecap:round; stroke-width:0.25;"/>
<line x1="319.700000" y1="66.000000" x2="327.700000" y2="66.000000"  style="stroke:black; stroke-linecap:round; stroke-width:0.25;"/>
<line x1="327.700000" y1="46.000000" x2="327.700000" y2="58.000000"  style="stroke:black; stroke-linecap:round; stroke-width:0.25;"/>
<line x1="327.700000" y1="58.000000" x2="327.700000" y2="58.000000"  style="stroke:black; stroke-linecap:round; stroke-width:0.25;"/>
<line x1="327.700000" y1="58.000000" x2="331.700000" y2="58.000000"  style="stroke:black; stroke-linecap:round; stroke-width:0.25;"/>
<line x1="327.700000" y1="66.000000" x2="331.700000" y2="66.000000"  style="stroke:black; stroke-linecap:round; stroke-width:0.25;"/>
<line x1="355.700000" y1="62.000000" x2="359.700000" y2="62.000000"  style="stroke:black; stroke-linecap:round; stroke-width:0.25;"/>
<line x1="359.700000" y1="62.000000" x2="359.700000" y2="62.000000"  style="stroke:black; stroke-linecap:round; stroke-width:0.25;"/>
<line x1="359.700000" y1="62.000000" x2="363.700000" y2="62.000000"  style="stroke:black; stroke-linecap:round; stroke-width:0.25;"/>
<line x1="492.700000" y1="62.000000" x2="496.700000" y2="62.000000"  style="stroke:black; stroke-linecap:round; stroke-width:0.25;"/>
<line x1="496.700000" y1="62.000000" x2="496.700000" y2="62.000000"  style="stroke:black; stroke-linecap:round; stroke-width:0.25;"/>
<line x1="496.700000" y1="62.000000" x2="500.700000" y2="62.000000"  style="stroke:black; stroke-linecap:round; stroke-width:0.25;"/>
<line x1="500.700000" y1="62.000000" x2="504.700000" y2="62.000000"  style="stroke:black; stroke-linecap:round; stroke-width:0.25;"/>
<line x1="504.700000" y1="62.000000" x2="514.700000" y2="62.000000"  style="stroke:black; stroke-linecap:round; stroke-width:0.25;"/>
</svg>
