<?xml version="1.0"?>
<svg xmlns="http://www.w3.org/2000/svg" xmlns:xlink="http://www.w3.org/1999/xlink" viewBox="0 0 368.000000 244.000000" width="184.000000mm" height="122.000000mm" version="1.1">
<a xlink:href="allpass-0x7fa5b478a3f0.svg">
<rect x="1.000000" y="1.000000" width="367.000000" height="243.000000" rx="0" ry="0" style="stroke:none;fill:#cccccc;"/>
<rect x="0.000000" y="0.000000" width="367.000000" height="243.000000" rx="0" ry="0" style="stroke:none;fill:#ffffff;"/>
</a>
<text x="10.000000" y="7.000000" font-family="Arial" font-size="7"></text>
<rect x="49.000000" y="167.000000" width="24.000000" height="24.000000" rx="0" ry="0" style="stroke:none;fill:#cccccc;"/>
<rect x="48.000000" y="166.000000" width="24.000000" height="24.000000" rx="0" ry="0" style="stroke:none;fill:#4B71A1;"/>
<text x="60.000000" y="180.000000" font-family="Arial" font-size="7" text-anchor="middle" fill="#FFFFFF">+</text>
<circle cx="50.000000" cy="168.000000" r="1"/>
<line x1="45.000000" y1="173.000000" x2="48.000000" y2="174.000000"  transform="rotate(0.000000,48.000000,174.000000)" style="stroke: black; stroke-width:0.25;"/>
<line x1="45.000000" y1="175.000000" x2="48.000000" y2="174.000000"  transform="rotate(0.000000,48.000000,174.000000)" style="stroke: black; stroke-width:0.25;"/>
<line x1="45.000000" y1="181.000000" x2="48.000000" y2="182.000000"  transform="rotate(0.000000,48.000000,182.000000)" style="stroke: black; stroke-width:0.25;"/>
<line x1="45.000000" y1="183.000000" x2="48.000000" y2="182.000000"  transform="rotate(0.000000,48.000000,182.000000)" style="stroke: black; stroke-width:0.25;"/>
<a xlink:href="delay-0x7fa5b583ca20.svg">
<rect x="112.000000" y="137.000000" width="129.000000" height="24.000000" rx="0" ry="0" style="stroke:none;fill:#cccccc;"/>
<rect x="111.000000" y="136.000000" width="129.000000" height="24.000000" rx="0" ry="0" style="stroke:none;fill:#003366;"/>
</a>
<a xlink:href="delay-0x7fa5b583ca20.svg">
<text x="175.500000" y="150.000000" font-family="Arial" font-size="7" text-anchor="middle" fill="#FFFFFF">delay(1024)((...floor),1 : -)</text>
</a>
<circle cx="113.000000" cy="138.000000" r="1"/>
<line x1="108.000000" y1="147.000000" x2="111.000000" y2="148.000000"  transform="rotate(0.000000,111.000000,148.000000)" style="stroke: black; stroke-width:0.25;"/>
<line x1="108.000000" y1="149.000000" x2="111.000000" y2="148.000000"  transform="rotate(0.000000,111.000000,148.000000)" style="stroke: black; stroke-width:0.25;"/>
<rect x="144.500000" y="187.000000" width="24.000000" height="24.000000" rx="0" ry="0" style="stroke:none;fill:#cccccc;"/>
<rect x="143.500000" y="186.000000" width="24.000000" height="24.000000" rx="0" ry="0" style="stroke:none;fill:#f44800;"/>
<text x="155.500000" y="200.000000" font-family="Arial" font-size="7" text-anchor="middle" fill="#FFFFFF">0.6</text>
<circle cx="145.500000" cy="188.000000" r="1"/>
<line x1="134.500000" y1="177.000000" x2="134.500000" y2="219.000000"  style="stroke: black; stroke-linecap:round; stroke-width:0.25; stroke-dasharray:3,3;"/>
<line x1="134.500000" y1="219.000000" x2="176.500000" y2="219.000000"  style="stroke: black; stroke-linecap:round; stroke-width:0.25; stroke-dasharray:3,3;"/>
<line x1="176.500000" y1="219.000000" x2="176.500000" y2="177.000000"  style="stroke: black; stroke-linecap:round; stroke-width:0.25; stroke-dasharray:3,3;"/>
<line x1="134.500000" y1="177.000000" x2="139.500000" y2="177.000000"  style="stroke: black; stroke-linecap:round; stroke-width:0.25; stroke-dasharray:3,3;"/>
<line x1="149.175000" y1="177.000000" x2="176.500000" y2="177.000000"  style="stroke: black; stroke-linecap:round; stroke-width:0.25; stroke-dasharray:3,3;"/>
<text x="139.500000" y="179.000000" font-family="Arial" font-size="7">A</text>
<rect x="194.500000" y="183.000000" width="24.000000" height="24.000000" rx="0" ry="0" style="stroke:none;fill:#cccccc;"/>
<rect x="193.500000" y="182.000000" width="24.000000" height="24.000000" rx="0" ry="0" style="stroke:none;fill:#4B71A1;"/>
<text x="205.500000" y="196.000000" font-family="Arial" font-size="7" text-anchor="middle" fill="#FFFFFF">*</text>
<circle cx="195.500000" cy="184.000000" r="1"/>
<line x1="190.500000" y1="189.000000" x2="193.500000" y2="190.000000"  transform="rotate(0.000000,193.500000,190.000000)" style="stroke: black; stroke-width:0.25;"/>
<line x1="190.500000" y1="191.000000" x2="193.500000" y2="190.000000"  transform="rotate(0.000000,193.500000,190.000000)" style="stroke: black; stroke-width:0.25;"/>
<line x1="190.500000" y1="197.000000" x2="193.500000" y2="198.000000"  transform="rotate(0.000000,193.500000,198.000000)" style="stroke: black; stroke-width:0.25;"/>
<line x1="190.500000" y1="199.000000" x2="193.500000" y2="198.000000"  transform="rotate(0.000000,193.500000,198.000000)" style="stroke: black; stroke-width:0.25;"/>
<rect x="173.000000" y="87.000000" width="24.000000" height="24.000000" rx="0" ry="0" style="stroke:none;fill:#cccccc;"/>
<rect x="172.000000" y="86.000000" width="24.000000" height="24.000000" rx="0" ry="0" style="stroke:none;fill:#f44800;"/>
<text x="184.000000" y="100.000000" font-family="Arial" font-size="7" text-anchor="middle" fill="#FFFFFF">0</text>
<circle cx="194.000000" cy="108.000000" r="1"/>
<line x1="163.000000" y1="77.000000" x2="163.000000" y2="119.000000"  style="stroke: black; stroke-linecap:round; stroke-width:0.25; stroke-dasharray:3,3;"/>
<line x1="163.000000" y1="119.000000" x2="205.000000" y2="119.000000"  style="stroke: black; stroke-linecap:round; stroke-width:0.25; stroke-dasharray:3,3;"/>
<line x1="205.000000" y1="119.000000" x2="205.000000" y2="77.000000"  style="stroke: black; stroke-linecap:round; stroke-width:0.25; stroke-dasharray:3,3;"/>
<line x1="163.000000" y1="77.000000" x2="168.000000" y2="77.000000"  style="stroke: black; stroke-linecap:round; stroke-width:0.25; stroke-dasharray:3,3;"/>
<line x1="180.900000" y1="77.000000" x2="205.000000" y2="77.000000"  style="stroke: black; stroke-linecap:round; stroke-width:0.25; stroke-dasharray:3,3;"/>
<text x="168.000000" y="79.000000" font-family="Arial" font-size="7">b1</text>
<rect x="173.000000" y="35.000000" width="24.000000" height="24.000000" rx="0" ry="0" style="stroke:none;fill:#cccccc;"/>
<rect x="172.000000" y="34.000000" width="24.000000" height="24.000000" rx="0" ry="0" style="stroke:none;fill:#f44800;"/>
<text x="184.000000" y="48.000000" font-family="Arial" font-size="7" text-anchor="middle" fill="#FFFFFF">0.6</text>
<circle cx="194.000000" cy="56.000000" r="1"/>
<line x1="163.000000" y1="25.000000" x2="163.000000" y2="67.000000"  style="stroke: black; stroke-linecap:round; stroke-width:0.25; stroke-dasharray:3,3;"/>
<line x1="163.000000" y1="67.000000" x2="205.000000" y2="67.000000"  style="stroke: black; stroke-linecap:round; stroke-width:0.25; stroke-dasharray:3,3;"/>
<line x1="205.000000" y1="67.000000" x2="205.000000" y2="25.000000"  style="stroke: black; stroke-linecap:round; stroke-width:0.25; stroke-dasharray:3,3;"/>
<line x1="163.000000" y1="25.000000" x2="168.000000" y2="25.000000"  style="stroke: black; stroke-linecap:round; stroke-width:0.25; stroke-dasharray:3,3;"/>
<line x1="177.675000" y1="25.000000" x2="205.000000" y2="25.000000"  style="stroke: black; stroke-linecap:round; stroke-width:0.25; stroke-dasharray:3,3;"/>
<text x="168.000000" y="27.000000" font-family="Arial" font-size="7">A</text>
<rect x="123.000000" y="61.000000" width="24.000000" height="24.000000" rx="0" ry="0" style="stroke:none;fill:#cccccc;"/>
<rect x="122.000000" y="60.000000" width="24.000000" height="24.000000" rx="0" ry="0" style="stroke:none;fill:#4B71A1;"/>
<text x="134.000000" y="74.000000" font-family="Arial" font-size="7" text-anchor="middle" fill="#FFFFFF">-</text>
<circle cx="144.000000" cy="82.000000" r="1"/>
<line x1="149.000000" y1="75.000000" x2="146.000000" y2="76.000000"  transform="rotate(0.000000,146.000000,76.000000)" style="stroke: black; stroke-width:0.25;"/>
<line x1="149.000000" y1="77.000000" x2="146.000000" y2="76.000000"  transform="rotate(0.000000,146.000000,76.000000)" style="stroke: black; stroke-width:0.25;"/>
<line x1="149.000000" y1="67.000000" x2="146.000000" y2="68.000000"  transform="rotate(0.000000,146.000000,68.000000)" style="stroke: black; stroke-width:0.25;"/>
<line x1="149.000000" y1="69.000000" x2="146.000000" y2="68.000000"  transform="rotate(0.000000,146.000000,68.000000)" style="stroke: black; stroke-width:0.25;"/>
<rect x="83.000000" y="65.000000" width="24.000000" height="24.000000" rx="0" ry="0" style="stroke:none;fill:#cccccc;"/>
<rect x="82.000000" y="64.000000" width="24.000000" height="24.000000" rx="0" ry="0" style="stroke:none;fill:#4B71A1;"/>
<text x="94.000000" y="78.000000" font-family="Arial" font-size="7" text-anchor="middle" fill="#FFFFFF">*</text>
<circle cx="104.000000" cy="86.000000" r="1"/>
<line x1="109.000000" y1="79.000000" x2="106.000000" y2="80.000000"  transform="rotate(0.000000,106.000000,80.000000)" style="stroke: black; stroke-width:0.25;"/>
<line x1="109.000000" y1="81.000000" x2="106.000000" y2="80.000000"  transform="rotate(0.000000,106.000000,80.000000)" style="stroke: black; stroke-width:0.25;"/>
<line x1="109.000000" y1="71.000000" x2="106.000000" y2="72.000000"  transform="rotate(0.000000,106.000000,72.000000)" style="stroke: black; stroke-width:0.25;"/>
<line x1="109.000000" y1="73.000000" x2="106.000000" y2="72.000000"  transform="rotate(0.000000,106.000000,72.000000)" style="stroke: black; stroke-width:0.25;"/>
<line x1="242.000000" y1="148.000000" x2="242.000000" y2="144.000000"  style="stroke:black; stroke-linecap:round; stroke-width:0.25;"/>
<line x1="242.000000" y1="144.000000" x2="246.000000" y2="144.000000"  style="stroke:black; stroke-linecap:round; stroke-width:0.25;"/>
<line x1="246.000000" y1="144.000000" x2="246.000000" y2="148.000000"  style="stroke:black; stroke-linecap:round; stroke-width:0.25;"/>
<rect x="273.000000" y="107.000000" width="24.000000" height="24.000000" rx="0" ry="0" style="stroke:none;fill:#cccccc;"/>
<rect x="272.000000" y="106.000000" width="24.000000" height="24.000000" rx="0" ry="0" style="stroke:none;fill:#4B71A1;"/>
<text x="284.000000" y="120.000000" font-family="Arial" font-size="7" text-anchor="middle" fill="#FFFFFF">mem</text>
<circle cx="274.000000" cy="108.000000" r="1"/>
<line x1="269.000000" y1="117.000000" x2="272.000000" y2="118.000000"  transform="rotate(0.000000,272.000000,118.000000)" style="stroke: black; stroke-width:0.25;"/>
<line x1="269.000000" y1="119.000000" x2="272.000000" y2="118.000000"  transform="rotate(0.000000,272.000000,118.000000)" style="stroke: black; stroke-width:0.25;"/>
<rect x="313.000000" y="111.000000" width="24.000000" height="24.000000" rx="0" ry="0" style="stroke:none;fill:#cccccc;"/>
<rect x="312.000000" y="110.000000" width="24.000000" height="24.000000" rx="0" ry="0" style="stroke:none;fill:#4B71A1;"/>
<text x="324.000000" y="124.000000" font-family="Arial" font-size="7" text-anchor="middle" fill="#FFFFFF">+</text>
<circle cx="314.000000" cy="112.000000" r="1"/>
<line x1="309.000000" y1="117.000000" x2="312.000000" y2="118.000000"  transform="rotate(0.000000,312.000000,118.000000)" style="stroke: black; stroke-width:0.25;"/>
<line x1="309.000000" y1="119.000000" x2="312.000000" y2="118.000000"  transform="rotate(0.000000,312.000000,118.000000)" style="stroke: black; stroke-width:0.25;"/>
<line x1="309.000000" y1="125.000000" x2="312.000000" y2="126.000000"  transform="rotate(0.000000,312.000000,126.000000)" style="stroke: black; stroke-width:0.25;"/>
<line x1="309.000000" y1="127.000000" x2="312.000000" y2="126.000000"  transform="rotate(0.000000,312.000000,126.000000)" style="stroke: black; stroke-width:0.25;"/>
<line x1="15.000000" y1="15.000000" x2="15.000000" y2="229.000000"  style="stroke: black; stroke-linecap:round; stroke-width:0.25; stroke-dasharray:3,3;"/>
<line x1="15.000000" y1="229.000000" x2="353.000000" y2="229.000000"  style="stroke: black; stroke-linecap:round; stroke-width:0.25; stroke-dasharray:3,3;"/>
<line x1="353.000000" y1="229.000000" x2="353.000000" y2="15.000000"  style="stroke: black; stroke-linecap:round; stroke-width:0.25; stroke-dasharray:3,3;"/>
<line x1="15.000000" y1="15.000000" x2="20.000000" y2="15.000000"  style="stroke: black; stroke-linecap:round; stroke-width:0.25; stroke-dasharray:3,3;"/>
<line x1="139.325000" y1="15.000000" x2="353.000000" y2="15.000000"  style="stroke: black; stroke-linecap:round; stroke-width:0.25; stroke-dasharray:3,3;"/>
<text x="20.000000" y="17.000000" font-family="Arial" font-size="7">allpass_comb(... : + : floor)(0.6f)</text>
<line x1="355.000000" y1="121.000000" x2="358.000000" y2="122.000000"  transform="rotate(0.000000,358.000000,122.000000)" style="stroke: black; stroke-width:0.25;"/>
<line x1="355.000000" y1="123.000000" x2="358.000000" y2="122.000000"  transform="rotate(0.000000,358.000000,122.000000)" style="stroke: black; stroke-width:0.25;"/>
<line x1="10.000000" y1="122.000000" x2="20.000000" y2="122.000000"  style="stroke:black; stroke-linecap:round; stroke-width:0.25;"/>
<line x1="20.000000" y1="122.000000" x2="24.000000" y2="122.000000"  style="stroke:black; stroke-linecap:round; stroke-width:0.25;"/>
<line x1="24.000000" y1="122.000000" x2="28.000000" y2="122.000000"  style="stroke:black; stroke-linecap:round; stroke-width:0.25;"/>
<line x1="28.000000" y1="122.000000" x2="36.000000" y2="122.000000"  style="stroke:black; stroke-linecap:round; stroke-width:0.25;"/>
<line x1="36.000000" y1="122.000000" x2="36.000000" y2="182.000000"  style="stroke:black; stroke-linecap:round; stroke-width:0.25;"/>
<line x1="36.000000" y1="182.000000" x2="36.000000" y2="182.000000"  style="stroke:black; stroke-linecap:round; stroke-width:0.25;"/>
<line x1="36.000000" y1="182.000000" x2="44.000000" y2="182.000000"  style="stroke:black; stroke-linecap:round; stroke-width:0.25;"/>
<line x1="44.000000" y1="76.000000" x2="44.000000" y2="76.000000"  style="stroke:black; stroke-linecap:round; stroke-width:0.25;"/>
<line x1="44.000000" y1="76.000000" x2="44.000000" y2="174.000000"  style="stroke:black; stroke-linecap:round; stroke-width:0.25;"/>
<line x1="44.000000" y1="174.000000" x2="44.000000" y2="174.000000"  style="stroke:black; stroke-linecap:round; stroke-width:0.25;"/>
<line x1="44.000000" y1="174.000000" x2="48.000000" y2="174.000000"  style="stroke:black; stroke-linecap:round; stroke-width:0.25;"/>
<line x1="44.000000" y1="182.000000" x2="48.000000" y2="182.000000"  style="stroke:black; stroke-linecap:round; stroke-width:0.25;"/>
<line x1="72.000000" y1="178.000000" x2="76.000000" y2="178.000000"  style="stroke:black; stroke-linecap:round; stroke-width:0.25;"/>
<line x1="76.000000" y1="178.000000" x2="107.000000" y2="148.000000"  style="stroke:black; stroke-linecap:round; stroke-width:0.25;"/>
<line x1="76.000000" y1="178.000000" x2="107.000000" y2="168.000000"  style="stroke:black; stroke-linecap:round; stroke-width:0.25;"/>
<line x1="78.000000" y1="76.000000" x2="44.000000" y2="76.000000"  style="stroke:black; stroke-linecap:round; stroke-width:0.25;"/>
<line x1="82.000000" y1="76.000000" x2="78.000000" y2="76.000000"  style="stroke:black; stroke-linecap:round; stroke-width:0.25;"/>
<line x1="107.000000" y1="148.000000" x2="111.000000" y2="148.000000"  style="stroke:black; stroke-linecap:round; stroke-width:0.25;"/>
<line x1="107.000000" y1="168.000000" x2="129.500000" y2="168.000000"  style="stroke:black; stroke-linecap:round; stroke-width:0.25;"/>
<line x1="110.000000" y1="72.000000" x2="106.000000" y2="72.000000"  style="stroke:black; stroke-linecap:round; stroke-width:0.25;"/>
<line x1="110.000000" y1="80.000000" x2="106.000000" y2="80.000000"  style="stroke:black; stroke-linecap:round; stroke-width:0.25;"/>
<line x1="110.000000" y1="80.000000" x2="110.000000" y2="80.000000"  style="stroke:black; stroke-linecap:round; stroke-width:0.25;"/>
<line x1="110.000000" y1="128.000000" x2="110.000000" y2="80.000000"  style="stroke:black; stroke-linecap:round; stroke-width:0.25;"/>
<line x1="118.000000" y1="72.000000" x2="110.000000" y2="72.000000"  style="stroke:black; stroke-linecap:round; stroke-width:0.25;"/>
<line x1="118.000000" y1="128.000000" x2="110.000000" y2="128.000000"  style="stroke:black; stroke-linecap:round; stroke-width:0.25;"/>
<line x1="122.000000" y1="72.000000" x2="118.000000" y2="72.000000"  style="stroke:black; stroke-linecap:round; stroke-width:0.25;"/>
<line x1="129.500000" y1="168.000000" x2="155.500000" y2="168.000000"  style="stroke:black; stroke-linecap:round; stroke-width:0.25;"/>
<line x1="150.000000" y1="68.000000" x2="146.000000" y2="68.000000"  style="stroke:black; stroke-linecap:round; stroke-width:0.25;"/>
<line x1="150.000000" y1="76.000000" x2="146.000000" y2="76.000000"  style="stroke:black; stroke-linecap:round; stroke-width:0.25;"/>
<line x1="150.000000" y1="76.000000" x2="150.000000" y2="76.000000"  style="stroke:black; stroke-linecap:round; stroke-width:0.25;"/>
<line x1="150.000000" y1="98.000000" x2="150.000000" y2="76.000000"  style="stroke:black; stroke-linecap:round; stroke-width:0.25;"/>
<line x1="155.500000" y1="168.000000" x2="181.500000" y2="168.000000"  style="stroke:black; stroke-linecap:round; stroke-width:0.25;"/>
<line x1="158.000000" y1="46.000000" x2="158.000000" y2="46.000000"  style="stroke:black; stroke-linecap:round; stroke-width:0.25;"/>
<line x1="158.000000" y1="46.000000" x2="158.000000" y2="68.000000"  style="stroke:black; stroke-linecap:round; stroke-width:0.25;"/>
<line x1="158.000000" y1="68.000000" x2="150.000000" y2="68.000000"  style="stroke:black; stroke-linecap:round; stroke-width:0.25;"/>
<line x1="158.000000" y1="98.000000" x2="150.000000" y2="98.000000"  style="stroke:black; stroke-linecap:round; stroke-width:0.25;"/>
<line x1="164.000000" y1="128.000000" x2="118.000000" y2="128.000000"  style="stroke:black; stroke-linecap:round; stroke-width:0.25;"/>
<line x1="167.500000" y1="198.000000" x2="171.500000" y2="198.000000"  style="stroke:black; stroke-linecap:round; stroke-width:0.25;"/>
<line x1="168.000000" y1="46.000000" x2="158.000000" y2="46.000000"  style="stroke:black; stroke-linecap:round; stroke-width:0.25;"/>
<line x1="168.000000" y1="98.000000" x2="158.000000" y2="98.000000"  style="stroke:black; stroke-linecap:round; stroke-width:0.25;"/>
<line x1="171.500000" y1="198.000000" x2="181.500000" y2="198.000000"  style="stroke:black; stroke-linecap:round; stroke-width:0.25;"/>
<line x1="172.000000" y1="46.000000" x2="168.000000" y2="46.000000"  style="stroke:black; stroke-linecap:round; stroke-width:0.25;"/>
<line x1="172.000000" y1="98.000000" x2="168.000000" y2="98.000000"  style="stroke:black; stroke-linecap:round; stroke-width:0.25;"/>
<line x1="181.500000" y1="168.000000" x2="189.500000" y2="168.000000"  style="stroke:black; stroke-linecap:round; stroke-width:0.25;"/>
<line x1="181.500000" y1="198.000000" x2="189.500000" y2="198.000000"  style="stroke:black; stroke-linecap:round; stroke-width:0.25;"/>
<line x1="189.500000" y1="168.000000" x2="189.500000" y2="190.000000"  style="stroke:black; stroke-linecap:round; stroke-width:0.25;"/>
<line x1="189.500000" y1="190.000000" x2="189.500000" y2="190.000000"  style="stroke:black; stroke-linecap:round; stroke-width:0.25;"/>
<line x1="189.500000" y1="190.000000" x2="193.500000" y2="190.000000"  style="stroke:black; stroke-linecap:round; stroke-width:0.25;"/>
<line x1="189.500000" y1="198.000000" x2="193.500000" y2="198.000000"  style="stroke:black; stroke-linecap:round; stroke-width:0.25;"/>
<line x1="210.000000" y1="128.000000" x2="164.000000" y2="128.000000"  style="stroke:black; stroke-linecap:round; stroke-width:0.25;"/>
<line x1="217.500000" y1="194.000000" x2="221.500000" y2="194.000000"  style="stroke:black; stroke-linecap:round; stroke-width:0.25;"/>
<line x1="221.500000" y1="194.000000" x2="244.000000" y2="194.000000"  style="stroke:black; stroke-linecap:round; stroke-width:0.25;"/>
<line x1="240.000000" y1="148.000000" x2="244.000000" y2="148.000000"  style="stroke:black; stroke-linecap:round; stroke-width:0.25;"/>
<line x1="244.000000" y1="128.000000" x2="210.000000" y2="128.000000"  style="stroke:black; stroke-linecap:round; stroke-width:0.25;"/>
<line x1="244.000000" y1="128.000000" x2="244.000000" y2="128.000000"  style="stroke:black; stroke-linecap:round; stroke-width:0.25;"/>
<line x1="244.000000" y1="144.000000" x2="244.000000" y2="128.000000"  style="stroke:black; stroke-linecap:round; stroke-width:0.25;"/>
<line x1="244.000000" y1="148.000000" x2="246.000000" y2="148.000000"  style="stroke:black; stroke-linecap:round; stroke-width:0.25;"/>
<line x1="244.000000" y1="194.000000" x2="252.000000" y2="194.000000"  style="stroke:black; stroke-linecap:round; stroke-width:0.25;"/>
<line x1="246.000000" y1="148.000000" x2="252.000000" y2="148.000000"  style="stroke:black; stroke-linecap:round; stroke-width:0.25;"/>
<line x1="252.000000" y1="118.000000" x2="268.000000" y2="118.000000"  style="stroke:black; stroke-linecap:round; stroke-width:0.25;"/>
<line x1="252.000000" y1="148.000000" x2="252.000000" y2="118.000000"  style="stroke:black; stroke-linecap:round; stroke-width:0.25;"/>
<line x1="252.000000" y1="148.000000" x2="252.000000" y2="148.000000"  style="stroke:black; stroke-linecap:round; stroke-width:0.25;"/>
<line x1="252.000000" y1="194.000000" x2="260.000000" y2="194.000000"  style="stroke:black; stroke-linecap:round; stroke-width:0.25;"/>
<line x1="260.000000" y1="138.000000" x2="268.000000" y2="138.000000"  style="stroke:black; stroke-linecap:round; stroke-width:0.25;"/>
<line x1="260.000000" y1="194.000000" x2="260.000000" y2="138.000000"  style="stroke:black; stroke-linecap:round; stroke-width:0.25;"/>
<line x1="268.000000" y1="118.000000" x2="272.000000" y2="118.000000"  style="stroke:black; stroke-linecap:round; stroke-width:0.25;"/>
<line x1="268.000000" y1="138.000000" x2="284.000000" y2="138.000000"  style="stroke:black; stroke-linecap:round; stroke-width:0.25;"/>
<line x1="284.000000" y1="138.000000" x2="300.000000" y2="138.000000"  style="stroke:black; stroke-linecap:round; stroke-width:0.25;"/>
<line x1="296.000000" y1="118.000000" x2="300.000000" y2="118.000000"  style="stroke:black; stroke-linecap:round; stroke-width:0.25;"/>
<line x1="300.000000" y1="118.000000" x2="308.000000" y2="118.000000"  style="stroke:black; stroke-linecap:round; stroke-width:0.25;"/>
<line x1="300.000000" y1="126.000000" x2="308.000000" y2="126.000000"  style="stroke:black; stroke-linecap:round; stroke-width:0.25;"/>
<line x1="300.000000" y1="138.000000" x2="300.000000" y2="126.000000"  style="stroke:black; stroke-linecap:round; stroke-width:0.25;"/>
<line x1="300.000000" y1="138.000000" x2="300.000000" y2="138.000000"  style="stroke:black; stroke-linecap:round; stroke-width:0.25;"/>
<line x1="308.000000" y1="118.000000" x2="312.000000" y2="118.000000"  style="stroke:black; stroke-linecap:round; stroke-width:0.25;"/>
<line x1="308.000000" y1="126.000000" x2="312.000000" y2="126.000000"  style="stroke:black; stroke-linecap:round; stroke-width:0.25;"/>
<line x1="336.000000" y1="122.000000" x2="340.000000" y2="122.000000"  style="stroke:black; stroke-linecap:round; stroke-width:0.25;"/>
<line x1="340.000000" y1="122.000000" x2="340.000000" y2="122.000000"  style="stroke:black; stroke-linecap:round; stroke-width:0.25;"/>
<line x1="340.000000" y1="122.000000" x2="344.000000" y2="122.000000"  style="stroke:black; stroke-linecap:round; stroke-width:0.25;"/>
<line x1="344.000000" y1="122.000000" x2="348.000000" y2="122.000000"  style="stroke:black; stroke-linecap:round; stroke-width:0.25;"/>
<line x1="348.000000" y1="122.000000" x2="358.000000" y2="122.000000"  style="stroke:black; stroke-linecap:round; stroke-width:0.25;"/>
</svg>
