<?xml version="1.0"?>
<svg xmlns="http://www.w3.org/2000/svg" xmlns:xlink="http://www.w3.org/1999/xlink" viewBox="0 0 664.100000 416.000000" width="332.050000mm" height="208.000000mm" version="1.1">
<a xlink:href="process.svg">
<rect x="1.000000" y="1.000000" width="663.100000" height="415.000000" rx="0" ry="0" style="stroke:none;fill:#cccccc;"/>
<rect x="0.000000" y="0.000000" width="663.100000" height="415.000000" rx="0" ry="0" style="stroke:none;fill:#ffffff;"/>
</a>
<text x="10.000000" y="7.000000" font-family="Arial" font-size="7"></text>
<a xlink:href="nonLinearFilterO-0x7fa5b5a2e340.svg">
<rect x="259.350000" y="25.000000" width="77.400000" height="24.000000" rx="0" ry="0" style="stroke:none;fill:#cccccc;"/>
<rect x="258.350000" y="24.000000" width="77.400000" height="24.000000" rx="0" ry="0" style="stroke:none;fill:#003366;"/>
</a>
<a xlink:href="nonLinearFilterO-0x7fa5b5a2e340.svg">
<text x="297.050000" y="38.000000" font-family="Arial" font-size="7" text-anchor="middle" fill="#FFFFFF">nonLinearFilterOsc</text>
</a>
<circle cx="260.350000" cy="26.000000" r="1"/>
<line x1="255.350000" y1="35.000000" x2="258.350000" y2="36.000000"  transform="rotate(0.000000,258.350000,36.000000)" style="stroke: black; stroke-width:0.25;"/>
<line x1="255.350000" y1="37.000000" x2="258.350000" y2="36.000000"  transform="rotate(0.000000,258.350000,36.000000)" style="stroke: black; stroke-width:0.25;"/>
<rect x="266.050000" y="67.000000" width="24.000000" height="24.000000" rx="0" ry="0" style="stroke:none;fill:#cccccc;"/>
<rect x="265.050000" y="66.000000" width="24.000000" height="24.000000" rx="0" ry="0" style="stroke:none;fill:#f44800;"/>
<text x="277.050000" y="80.000000" font-family="Arial" font-size="7" text-anchor="middle" fill="#FFFFFF">3</text>
<circle cx="267.050000" cy="68.000000" r="1"/>
<line x1="256.050000" y1="57.000000" x2="256.050000" y2="99.000000"  style="stroke: black; stroke-linecap:round; stroke-width:0.25; stroke-dasharray:3,3;"/>
<line x1="256.050000" y1="99.000000" x2="298.050000" y2="99.000000"  style="stroke: black; stroke-linecap:round; stroke-width:0.25; stroke-dasharray:3,3;"/>
<line x1="298.050000" y1="99.000000" x2="298.050000" y2="57.000000"  style="stroke: black; stroke-linecap:round; stroke-width:0.25; stroke-dasharray:3,3;"/>
<line x1="256.050000" y1="57.000000" x2="261.050000" y2="57.000000"  style="stroke: black; stroke-linecap:round; stroke-width:0.25; stroke-dasharray:3,3;"/>
<line x1="298.050000" y1="57.000000" x2="298.050000" y2="57.000000"  style="stroke: black; stroke-linecap:round; stroke-width:0.25; stroke-dasharray:3,3;"/>
<text x="261.050000" y="59.000000" font-family="Arial" font-size="7">typeModulation</text>
<rect x="266.050000" y="119.000000" width="24.000000" height="24.000000" rx="0" ry="0" style="stroke:none;fill:#cccccc;"/>
<rect x="265.050000" y="118.000000" width="24.000000" height="24.000000" rx="0" ry="0" style="stroke:none;fill:#f44800;"/>
<text x="277.050000" y="132.000000" font-family="Arial" font-size="7" text-anchor="middle" fill="#FFFFFF">3</text>
<circle cx="267.050000" cy="120.000000" r="1"/>
<line x1="256.050000" y1="109.000000" x2="256.050000" y2="151.000000"  style="stroke: black; stroke-linecap:round; stroke-width:0.25; stroke-dasharray:3,3;"/>
<line x1="256.050000" y1="151.000000" x2="298.050000" y2="151.000000"  style="stroke: black; stroke-linecap:round; stroke-width:0.25; stroke-dasharray:3,3;"/>
<line x1="298.050000" y1="151.000000" x2="298.050000" y2="109.000000"  style="stroke: black; stroke-linecap:round; stroke-width:0.25; stroke-dasharray:3,3;"/>
<line x1="256.050000" y1="109.000000" x2="261.050000" y2="109.000000"  style="stroke: black; stroke-linecap:round; stroke-width:0.25; stroke-dasharray:3,3;"/>
<line x1="298.050000" y1="109.000000" x2="298.050000" y2="109.000000"  style="stroke: black; stroke-linecap:round; stroke-width:0.25; stroke-dasharray:3,3;"/>
<text x="261.050000" y="111.000000" font-family="Arial" font-size="7">typeModulation</text>
<rect x="316.050000" y="93.000000" width="24.000000" height="24.000000" rx="0" ry="0" style="stroke:none;fill:#cccccc;"/>
<rect x="315.050000" y="92.000000" width="24.000000" height="24.000000" rx="0" ry="0" style="stroke:none;fill:#4B71A1;"/>
<text x="327.050000" y="106.000000" font-family="Arial" font-size="7" text-anchor="middle" fill="#FFFFFF">&gt;=</text>
<circle cx="317.050000" cy="94.000000" r="1"/>
<line x1="312.050000" y1="99.000000" x2="315.050000" y2="100.000000"  transform="rotate(0.000000,315.050000,100.000000)" style="stroke: black; stroke-width:0.25;"/>
<line x1="312.050000" y1="101.000000" x2="315.050000" y2="100.000000"  transform="rotate(0.000000,315.050000,100.000000)" style="stroke: black; stroke-width:0.25;"/>
<line x1="312.050000" y1="107.000000" x2="315.050000" y2="108.000000"  transform="rotate(0.000000,315.050000,108.000000)" style="stroke: black; stroke-width:0.25;"/>
<line x1="312.050000" y1="109.000000" x2="315.050000" y2="108.000000"  transform="rotate(0.000000,315.050000,108.000000)" style="stroke: black; stroke-width:0.25;"/>
<rect x="356.050000" y="77.000000" width="24.000000" height="24.000000" rx="0" ry="0" style="stroke:none;fill:#cccccc;"/>
<rect x="355.050000" y="76.000000" width="24.000000" height="24.000000" rx="0" ry="0" style="stroke:none;fill:#4B71A1;"/>
<text x="367.050000" y="90.000000" font-family="Arial" font-size="7" text-anchor="middle" fill="#FFFFFF">*</text>
<circle cx="357.050000" cy="78.000000" r="1"/>
<line x1="352.050000" y1="83.000000" x2="355.050000" y2="84.000000"  transform="rotate(0.000000,355.050000,84.000000)" style="stroke: black; stroke-width:0.25;"/>
<line x1="352.050000" y1="85.000000" x2="355.050000" y2="84.000000"  transform="rotate(0.000000,355.050000,84.000000)" style="stroke: black; stroke-width:0.25;"/>
<line x1="352.050000" y1="91.000000" x2="355.050000" y2="92.000000"  transform="rotate(0.000000,355.050000,92.000000)" style="stroke: black; stroke-width:0.25;"/>
<line x1="352.050000" y1="93.000000" x2="355.050000" y2="92.000000"  transform="rotate(0.000000,355.050000,92.000000)" style="stroke: black; stroke-width:0.25;"/>
<a xlink:href="nonLinearFilterS-0x7fa5b5a4b2f0.svg">
<rect x="224.350000" y="161.000000" width="77.400000" height="24.000000" rx="0" ry="0" style="stroke:none;fill:#cccccc;"/>
<rect x="223.350000" y="160.000000" width="77.400000" height="24.000000" rx="0" ry="0" style="stroke:none;fill:#003366;"/>
</a>
<a xlink:href="nonLinearFilterS-0x7fa5b5a4b2f0.svg">
<text x="262.050000" y="174.000000" font-family="Arial" font-size="7" text-anchor="middle" fill="#FFFFFF">nonLinearFilterSig</text>
</a>
<circle cx="225.350000" cy="162.000000" r="1"/>
<line x1="220.350000" y1="171.000000" x2="223.350000" y2="172.000000"  transform="rotate(0.000000,223.350000,172.000000)" style="stroke: black; stroke-width:0.25;"/>
<line x1="220.350000" y1="173.000000" x2="223.350000" y2="172.000000"  transform="rotate(0.000000,223.350000,172.000000)" style="stroke: black; stroke-width:0.25;"/>
<a xlink:href="nonLinearity-0x7fa5b2dbc340.svg">
<rect x="201.000000" y="193.000000" width="51.600000" height="24.000000" rx="0" ry="0" style="stroke:none;fill:#cccccc;"/>
<rect x="200.000000" y="192.000000" width="51.600000" height="24.000000" rx="0" ry="0" style="stroke:none;fill:#003366;"/>
</a>
<a xlink:href="nonLinearity-0x7fa5b2dbc340.svg">
<text x="225.800000" y="206.000000" font-family="Arial" font-size="7" text-anchor="middle" fill="#FFFFFF">nonLinearity</text>
</a>
<circle cx="202.000000" cy="194.000000" r="1"/>
<a xlink:href="smooth-0x7fa5b2dbad60.svg">
<rect x="260.600000" y="193.000000" width="64.500000" height="24.000000" rx="0" ry="0" style="stroke:none;fill:#cccccc;"/>
<rect x="259.600000" y="192.000000" width="64.500000" height="24.000000" rx="0" ry="0" style="stroke:none;fill:#003366;"/>
</a>
<a xlink:href="smooth-0x7fa5b2dbad60.svg">
<text x="291.850000" y="206.000000" font-family="Arial" font-size="7" text-anchor="middle" fill="#FFFFFF">smooth(0.999f)</text>
</a>
<circle cx="261.600000" cy="194.000000" r="1"/>
<line x1="256.600000" y1="203.000000" x2="259.600000" y2="204.000000"  transform="rotate(0.000000,259.600000,204.000000)" style="stroke: black; stroke-width:0.25;"/>
<line x1="256.600000" y1="205.000000" x2="259.600000" y2="204.000000"  transform="rotate(0.000000,259.600000,204.000000)" style="stroke: black; stroke-width:0.25;"/>
<rect x="341.100000" y="177.000000" width="24.000000" height="24.000000" rx="0" ry="0" style="stroke:none;fill:#cccccc;"/>
<rect x="340.100000" y="176.000000" width="24.000000" height="24.000000" rx="0" ry="0" style="stroke:none;fill:#4B71A1;"/>
<text x="352.100000" y="190.000000" font-family="Arial" font-size="7" text-anchor="middle" fill="#FFFFFF">*</text>
<circle cx="342.100000" cy="178.000000" r="1"/>
<line x1="337.100000" y1="183.000000" x2="340.100000" y2="184.000000"  transform="rotate(0.000000,340.100000,184.000000)" style="stroke: black; stroke-width:0.25;"/>
<line x1="337.100000" y1="185.000000" x2="340.100000" y2="184.000000"  transform="rotate(0.000000,340.100000,184.000000)" style="stroke: black; stroke-width:0.25;"/>
<line x1="337.100000" y1="191.000000" x2="340.100000" y2="192.000000"  transform="rotate(0.000000,340.100000,192.000000)" style="stroke: black; stroke-width:0.25;"/>
<line x1="337.100000" y1="193.000000" x2="340.100000" y2="192.000000"  transform="rotate(0.000000,340.100000,192.000000)" style="stroke: black; stroke-width:0.25;"/>
<rect x="231.050000" y="233.000000" width="24.000000" height="24.000000" rx="0" ry="0" style="stroke:none;fill:#cccccc;"/>
<rect x="230.050000" y="232.000000" width="24.000000" height="24.000000" rx="0" ry="0" style="stroke:none;fill:#f44800;"/>
<text x="242.050000" y="246.000000" font-family="Arial" font-size="7" text-anchor="middle" fill="#FFFFFF">1</text>
<circle cx="232.050000" cy="234.000000" r="1"/>
<a xlink:href="nonLinearity-0x7fa5b2dbc340.svg">
<rect x="181.000000" y="265.000000" width="51.600000" height="24.000000" rx="0" ry="0" style="stroke:none;fill:#cccccc;"/>
<rect x="180.000000" y="264.000000" width="51.600000" height="24.000000" rx="0" ry="0" style="stroke:none;fill:#003366;"/>
</a>
<a xlink:href="nonLinearity-0x7fa5b2dbc340.svg">
<text x="205.800000" y="278.000000" font-family="Arial" font-size="7" text-anchor="middle" fill="#FFFFFF">nonLinearity</text>
</a>
<circle cx="182.000000" cy="266.000000" r="1"/>
<a xlink:href="smooth-0x7fa5b2dbad60.svg">
<rect x="240.600000" y="265.000000" width="64.500000" height="24.000000" rx="0" ry="0" style="stroke:none;fill:#cccccc;"/>
<rect x="239.600000" y="264.000000" width="64.500000" height="24.000000" rx="0" ry="0" style="stroke:none;fill:#003366;"/>
</a>
<a xlink:href="smooth-0x7fa5b2dbad60.svg">
<text x="271.850000" y="278.000000" font-family="Arial" font-size="7" text-anchor="middle" fill="#FFFFFF">smooth(0.999f)</text>
</a>
<circle cx="241.600000" cy="266.000000" r="1"/>
<line x1="236.600000" y1="275.000000" x2="239.600000" y2="276.000000"  transform="rotate(0.000000,239.600000,276.000000)" style="stroke: black; stroke-width:0.25;"/>
<line x1="236.600000" y1="277.000000" x2="239.600000" y2="276.000000"  transform="rotate(0.000000,239.600000,276.000000)" style="stroke: black; stroke-width:0.25;"/>
<rect x="321.100000" y="249.000000" width="24.000000" height="24.000000" rx="0" ry="0" style="stroke:none;fill:#cccccc;"/>
<rect x="320.100000" y="248.000000" width="24.000000" height="24.000000" rx="0" ry="0" style="stroke:none;fill:#4B71A1;"/>
<text x="332.100000" y="262.000000" font-family="Arial" font-size="7" text-anchor="middle" fill="#FFFFFF">-</text>
<circle cx="322.100000" cy="250.000000" r="1"/>
<line x1="317.100000" y1="255.000000" x2="320.100000" y2="256.000000"  transform="rotate(0.000000,320.100000,256.000000)" style="stroke: black; stroke-width:0.25;"/>
<line x1="317.100000" y1="257.000000" x2="320.100000" y2="256.000000"  transform="rotate(0.000000,320.100000,256.000000)" style="stroke: black; stroke-width:0.25;"/>
<line x1="317.100000" y1="263.000000" x2="320.100000" y2="264.000000"  transform="rotate(0.000000,320.100000,264.000000)" style="stroke: black; stroke-width:0.25;"/>
<line x1="317.100000" y1="265.000000" x2="320.100000" y2="264.000000"  transform="rotate(0.000000,320.100000,264.000000)" style="stroke: black; stroke-width:0.25;"/>
<rect x="361.100000" y="245.000000" width="24.000000" height="24.000000" rx="0" ry="0" style="stroke:none;fill:#cccccc;"/>
<rect x="360.100000" y="244.000000" width="24.000000" height="24.000000" rx="0" ry="0" style="stroke:none;fill:#4B71A1;"/>
<text x="372.100000" y="258.000000" font-family="Arial" font-size="7" text-anchor="middle" fill="#FFFFFF">*</text>
<circle cx="362.100000" cy="246.000000" r="1"/>
<line x1="357.100000" y1="251.000000" x2="360.100000" y2="252.000000"  transform="rotate(0.000000,360.100000,252.000000)" style="stroke: black; stroke-width:0.25;"/>
<line x1="357.100000" y1="253.000000" x2="360.100000" y2="252.000000"  transform="rotate(0.000000,360.100000,252.000000)" style="stroke: black; stroke-width:0.25;"/>
<line x1="357.100000" y1="259.000000" x2="360.100000" y2="260.000000"  transform="rotate(0.000000,360.100000,260.000000)" style="stroke: black; stroke-width:0.25;"/>
<line x1="357.100000" y1="261.000000" x2="360.100000" y2="260.000000"  transform="rotate(0.000000,360.100000,260.000000)" style="stroke: black; stroke-width:0.25;"/>
<rect x="435.100000" y="213.000000" width="24.000000" height="24.000000" rx="0" ry="0" style="stroke:none;fill:#cccccc;"/>
<rect x="434.100000" y="212.000000" width="24.000000" height="24.000000" rx="0" ry="0" style="stroke:none;fill:#4B71A1;"/>
<text x="446.100000" y="226.000000" font-family="Arial" font-size="7" text-anchor="middle" fill="#FFFFFF">+</text>
<circle cx="436.100000" cy="214.000000" r="1"/>
<line x1="431.100000" y1="219.000000" x2="434.100000" y2="220.000000"  transform="rotate(0.000000,434.100000,220.000000)" style="stroke: black; stroke-width:0.25;"/>
<line x1="431.100000" y1="221.000000" x2="434.100000" y2="220.000000"  transform="rotate(0.000000,434.100000,220.000000)" style="stroke: black; stroke-width:0.25;"/>
<line x1="431.100000" y1="227.000000" x2="434.100000" y2="228.000000"  transform="rotate(0.000000,434.100000,228.000000)" style="stroke: black; stroke-width:0.25;"/>
<line x1="431.100000" y1="229.000000" x2="434.100000" y2="228.000000"  transform="rotate(0.000000,434.100000,228.000000)" style="stroke: black; stroke-width:0.25;"/>
<rect x="266.050000" y="307.000000" width="24.000000" height="24.000000" rx="0" ry="0" style="stroke:none;fill:#cccccc;"/>
<rect x="265.050000" y="306.000000" width="24.000000" height="24.000000" rx="0" ry="0" style="stroke:none;fill:#f44800;"/>
<text x="277.050000" y="320.000000" font-family="Arial" font-size="7" text-anchor="middle" fill="#FFFFFF">3</text>
<circle cx="267.050000" cy="308.000000" r="1"/>
<line x1="256.050000" y1="297.000000" x2="256.050000" y2="339.000000"  style="stroke: black; stroke-linecap:round; stroke-width:0.25; stroke-dasharray:3,3;"/>
<line x1="256.050000" y1="339.000000" x2="298.050000" y2="339.000000"  style="stroke: black; stroke-linecap:round; stroke-width:0.25; stroke-dasharray:3,3;"/>
<line x1="298.050000" y1="339.000000" x2="298.050000" y2="297.000000"  style="stroke: black; stroke-linecap:round; stroke-width:0.25; stroke-dasharray:3,3;"/>
<line x1="256.050000" y1="297.000000" x2="261.050000" y2="297.000000"  style="stroke: black; stroke-linecap:round; stroke-width:0.25; stroke-dasharray:3,3;"/>
<line x1="298.050000" y1="297.000000" x2="298.050000" y2="297.000000"  style="stroke: black; stroke-linecap:round; stroke-width:0.25; stroke-dasharray:3,3;"/>
<text x="261.050000" y="299.000000" font-family="Arial" font-size="7">typeModulation</text>
<rect x="266.050000" y="359.000000" width="24.000000" height="24.000000" rx="0" ry="0" style="stroke:none;fill:#cccccc;"/>
<rect x="265.050000" y="358.000000" width="24.000000" height="24.000000" rx="0" ry="0" style="stroke:none;fill:#f44800;"/>
<text x="277.050000" y="372.000000" font-family="Arial" font-size="7" text-anchor="middle" fill="#FFFFFF">3</text>
<circle cx="267.050000" cy="360.000000" r="1"/>
<line x1="256.050000" y1="349.000000" x2="256.050000" y2="391.000000"  style="stroke: black; stroke-linecap:round; stroke-width:0.25; stroke-dasharray:3,3;"/>
<line x1="256.050000" y1="391.000000" x2="298.050000" y2="391.000000"  style="stroke: black; stroke-linecap:round; stroke-width:0.25; stroke-dasharray:3,3;"/>
<line x1="298.050000" y1="391.000000" x2="298.050000" y2="349.000000"  style="stroke: black; stroke-linecap:round; stroke-width:0.25; stroke-dasharray:3,3;"/>
<line x1="256.050000" y1="349.000000" x2="261.050000" y2="349.000000"  style="stroke: black; stroke-linecap:round; stroke-width:0.25; stroke-dasharray:3,3;"/>
<line x1="298.050000" y1="349.000000" x2="298.050000" y2="349.000000"  style="stroke: black; stroke-linecap:round; stroke-width:0.25; stroke-dasharray:3,3;"/>
<text x="261.050000" y="351.000000" font-family="Arial" font-size="7">typeModulation</text>
<rect x="316.050000" y="333.000000" width="24.000000" height="24.000000" rx="0" ry="0" style="stroke:none;fill:#cccccc;"/>
<rect x="315.050000" y="332.000000" width="24.000000" height="24.000000" rx="0" ry="0" style="stroke:none;fill:#4B71A1;"/>
<text x="327.050000" y="346.000000" font-family="Arial" font-size="7" text-anchor="middle" fill="#FFFFFF">&lt;</text>
<circle cx="317.050000" cy="334.000000" r="1"/>
<line x1="312.050000" y1="339.000000" x2="315.050000" y2="340.000000"  transform="rotate(0.000000,315.050000,340.000000)" style="stroke: black; stroke-width:0.25;"/>
<line x1="312.050000" y1="341.000000" x2="315.050000" y2="340.000000"  transform="rotate(0.000000,315.050000,340.000000)" style="stroke: black; stroke-width:0.25;"/>
<line x1="312.050000" y1="347.000000" x2="315.050000" y2="348.000000"  transform="rotate(0.000000,315.050000,348.000000)" style="stroke: black; stroke-width:0.25;"/>
<line x1="312.050000" y1="349.000000" x2="315.050000" y2="348.000000"  transform="rotate(0.000000,315.050000,348.000000)" style="stroke: black; stroke-width:0.25;"/>
<rect x="475.100000" y="265.000000" width="24.000000" height="24.000000" rx="0" ry="0" style="stroke:none;fill:#cccccc;"/>
<rect x="474.100000" y="264.000000" width="24.000000" height="24.000000" rx="0" ry="0" style="stroke:none;fill:#4B71A1;"/>
<text x="486.100000" y="278.000000" font-family="Arial" font-size="7" text-anchor="middle" fill="#FFFFFF">*</text>
<circle cx="476.100000" cy="266.000000" r="1"/>
<line x1="471.100000" y1="271.000000" x2="474.100000" y2="272.000000"  transform="rotate(0.000000,474.100000,272.000000)" style="stroke: black; stroke-width:0.25;"/>
<line x1="471.100000" y1="273.000000" x2="474.100000" y2="272.000000"  transform="rotate(0.000000,474.100000,272.000000)" style="stroke: black; stroke-width:0.25;"/>
<line x1="471.100000" y1="279.000000" x2="474.100000" y2="280.000000"  transform="rotate(0.000000,474.100000,280.000000)" style="stroke: black; stroke-width:0.25;"/>
<line x1="471.100000" y1="281.000000" x2="474.100000" y2="280.000000"  transform="rotate(0.000000,474.100000,280.000000)" style="stroke: black; stroke-width:0.25;"/>
<rect x="609.100000" y="197.000000" width="24.000000" height="24.000000" rx="0" ry="0" style="stroke:none;fill:#cccccc;"/>
<rect x="608.100000" y="196.000000" width="24.000000" height="24.000000" rx="0" ry="0" style="stroke:none;fill:#4B71A1;"/>
<text x="620.100000" y="210.000000" font-family="Arial" font-size="7" text-anchor="middle" fill="#FFFFFF">+</text>
<circle cx="610.100000" cy="198.000000" r="1"/>
<line x1="605.100000" y1="203.000000" x2="608.100000" y2="204.000000"  transform="rotate(0.000000,608.100000,204.000000)" style="stroke: black; stroke-width:0.25;"/>
<line x1="605.100000" y1="205.000000" x2="608.100000" y2="204.000000"  transform="rotate(0.000000,608.100000,204.000000)" style="stroke: black; stroke-width:0.25;"/>
<line x1="605.100000" y1="211.000000" x2="608.100000" y2="212.000000"  transform="rotate(0.000000,608.100000,212.000000)" style="stroke: black; stroke-width:0.25;"/>
<line x1="605.100000" y1="213.000000" x2="608.100000" y2="212.000000"  transform="rotate(0.000000,608.100000,212.000000)" style="stroke: black; stroke-width:0.25;"/>
<line x1="15.000000" y1="15.000000" x2="15.000000" y2="401.000000"  style="stroke: black; stroke-linecap:round; stroke-width:0.25; stroke-dasharray:3,3;"/>
<line x1="15.000000" y1="401.000000" x2="649.100000" y2="401.000000"  style="stroke: black; stroke-linecap:round; stroke-width:0.25; stroke-dasharray:3,3;"/>
<line x1="649.100000" y1="401.000000" x2="649.100000" y2="15.000000"  style="stroke: black; stroke-linecap:round; stroke-width:0.25; stroke-dasharray:3,3;"/>
<line x1="15.000000" y1="15.000000" x2="20.000000" y2="15.000000"  style="stroke: black; stroke-linecap:round; stroke-width:0.25; stroke-dasharray:3,3;"/>
<line x1="39.350000" y1="15.000000" x2="649.100000" y2="15.000000"  style="stroke: black; stroke-linecap:round; stroke-width:0.25; stroke-dasharray:3,3;"/>
<text x="20.000000" y="17.000000" font-family="Arial" font-size="7">NLFM</text>
<line x1="651.100000" y1="207.000000" x2="654.100000" y2="208.000000"  transform="rotate(0.000000,654.100000,208.000000)" style="stroke: black; stroke-width:0.25;"/>
<line x1="651.100000" y1="209.000000" x2="654.100000" y2="208.000000"  transform="rotate(0.000000,654.100000,208.000000)" style="stroke: black; stroke-width:0.25;"/>
<line x1="10.000000" y1="208.000000" x2="20.000000" y2="208.000000"  style="stroke:black; stroke-linecap:round; stroke-width:0.25;"/>
<line x1="20.000000" y1="208.000000" x2="24.000000" y2="208.000000"  style="stroke:black; stroke-linecap:round; stroke-width:0.25;"/>
<line x1="24.000000" y1="208.000000" x2="28.000000" y2="208.000000"  style="stroke:black; stroke-linecap:round; stroke-width:0.25;"/>
<line x1="28.000000" y1="208.000000" x2="28.000000" y2="208.000000"  style="stroke:black; stroke-linecap:round; stroke-width:0.25;"/>
<line x1="28.000000" y1="208.000000" x2="32.000000" y2="208.000000"  style="stroke:black; stroke-linecap:round; stroke-width:0.25;"/>
<line x1="32.000000" y1="208.000000" x2="36.000000" y2="208.000000"  style="stroke:black; stroke-linecap:round; stroke-width:0.25;"/>
<line x1="36.000000" y1="208.000000" x2="132.000000" y2="36.000000"  style="stroke:black; stroke-linecap:round; stroke-width:0.25;"/>
<line x1="36.000000" y1="208.000000" x2="132.000000" y2="224.000000"  style="stroke:black; stroke-linecap:round; stroke-width:0.25;"/>
<line x1="132.000000" y1="36.000000" x2="251.050000" y2="36.000000"  style="stroke:black; stroke-linecap:round; stroke-width:0.25;"/>
<line x1="132.000000" y1="224.000000" x2="136.000000" y2="224.000000"  style="stroke:black; stroke-linecap:round; stroke-width:0.25;"/>
<line x1="136.000000" y1="224.000000" x2="140.000000" y2="224.000000"  style="stroke:black; stroke-linecap:round; stroke-width:0.25;"/>
<line x1="140.000000" y1="224.000000" x2="176.000000" y2="172.000000"  style="stroke:black; stroke-linecap:round; stroke-width:0.25;"/>
<line x1="140.000000" y1="224.000000" x2="176.000000" y2="224.000000"  style="stroke:black; stroke-linecap:round; stroke-width:0.25;"/>
<line x1="176.000000" y1="172.000000" x2="196.000000" y2="172.000000"  style="stroke:black; stroke-linecap:round; stroke-width:0.25;"/>
<line x1="176.000000" y1="224.000000" x2="262.050000" y2="224.000000"  style="stroke:black; stroke-linecap:round; stroke-width:0.25;"/>
<line x1="196.000000" y1="172.000000" x2="219.350000" y2="172.000000"  style="stroke:black; stroke-linecap:round; stroke-width:0.25;"/>
<line x1="219.350000" y1="172.000000" x2="223.350000" y2="172.000000"  style="stroke:black; stroke-linecap:round; stroke-width:0.25;"/>
<line x1="231.600000" y1="276.000000" x2="235.600000" y2="276.000000"  style="stroke:black; stroke-linecap:round; stroke-width:0.25;"/>
<line x1="235.600000" y1="276.000000" x2="235.600000" y2="276.000000"  style="stroke:black; stroke-linecap:round; stroke-width:0.25;"/>
<line x1="235.600000" y1="276.000000" x2="239.600000" y2="276.000000"  style="stroke:black; stroke-linecap:round; stroke-width:0.25;"/>
<line x1="251.050000" y1="36.000000" x2="254.350000" y2="36.000000"  style="stroke:black; stroke-linecap:round; stroke-width:0.25;"/>
<line x1="251.600000" y1="204.000000" x2="255.600000" y2="204.000000"  style="stroke:black; stroke-linecap:round; stroke-width:0.25;"/>
<line x1="254.050000" y1="244.000000" x2="258.050000" y2="244.000000"  style="stroke:black; stroke-linecap:round; stroke-width:0.25;"/>
<line x1="254.350000" y1="36.000000" x2="258.350000" y2="36.000000"  style="stroke:black; stroke-linecap:round; stroke-width:0.25;"/>
<line x1="255.600000" y1="204.000000" x2="255.600000" y2="204.000000"  style="stroke:black; stroke-linecap:round; stroke-width:0.25;"/>
<line x1="255.600000" y1="204.000000" x2="259.600000" y2="204.000000"  style="stroke:black; stroke-linecap:round; stroke-width:0.25;"/>
<line x1="258.050000" y1="244.000000" x2="308.100000" y2="244.000000"  style="stroke:black; stroke-linecap:round; stroke-width:0.25;"/>
<line x1="262.050000" y1="224.000000" x2="348.100000" y2="224.000000"  style="stroke:black; stroke-linecap:round; stroke-width:0.25;"/>
<line x1="289.050000" y1="78.000000" x2="293.050000" y2="78.000000"  style="stroke:black; stroke-linecap:round; stroke-width:0.25;"/>
<line x1="289.050000" y1="130.000000" x2="293.050000" y2="130.000000"  style="stroke:black; stroke-linecap:round; stroke-width:0.25;"/>
<line x1="289.050000" y1="318.000000" x2="293.050000" y2="318.000000"  style="stroke:black; stroke-linecap:round; stroke-width:0.25;"/>
<line x1="289.050000" y1="370.000000" x2="293.050000" y2="370.000000"  style="stroke:black; stroke-linecap:round; stroke-width:0.25;"/>
<line x1="293.050000" y1="78.000000" x2="303.050000" y2="78.000000"  style="stroke:black; stroke-linecap:round; stroke-width:0.25;"/>
<line x1="293.050000" y1="130.000000" x2="303.050000" y2="130.000000"  style="stroke:black; stroke-linecap:round; stroke-width:0.25;"/>
<line x1="293.050000" y1="318.000000" x2="303.050000" y2="318.000000"  style="stroke:black; stroke-linecap:round; stroke-width:0.25;"/>
<line x1="293.050000" y1="370.000000" x2="303.050000" y2="370.000000"  style="stroke:black; stroke-linecap:round; stroke-width:0.25;"/>
<line x1="300.750000" y1="172.000000" x2="304.750000" y2="172.000000"  style="stroke:black; stroke-linecap:round; stroke-width:0.25;"/>
<line x1="303.050000" y1="78.000000" x2="311.050000" y2="78.000000"  style="stroke:black; stroke-linecap:round; stroke-width:0.25;"/>
<line x1="303.050000" y1="108.000000" x2="311.050000" y2="108.000000"  style="stroke:black; stroke-linecap:round; stroke-width:0.25;"/>
<line x1="303.050000" y1="130.000000" x2="303.050000" y2="108.000000"  style="stroke:black; stroke-linecap:round; stroke-width:0.25;"/>
<line x1="303.050000" y1="130.000000" x2="303.050000" y2="130.000000"  style="stroke:black; stroke-linecap:round; stroke-width:0.25;"/>
<line x1="303.050000" y1="318.000000" x2="311.050000" y2="318.000000"  style="stroke:black; stroke-linecap:round; stroke-width:0.25;"/>
<line x1="303.050000" y1="348.000000" x2="311.050000" y2="348.000000"  style="stroke:black; stroke-linecap:round; stroke-width:0.25;"/>
<line x1="303.050000" y1="370.000000" x2="303.050000" y2="348.000000"  style="stroke:black; stroke-linecap:round; stroke-width:0.25;"/>
<line x1="303.050000" y1="370.000000" x2="303.050000" y2="370.000000"  style="stroke:black; stroke-linecap:round; stroke-width:0.25;"/>
<line x1="304.100000" y1="276.000000" x2="308.100000" y2="276.000000"  style="stroke:black; stroke-linecap:round; stroke-width:0.25;"/>
<line x1="304.750000" y1="172.000000" x2="328.100000" y2="172.000000"  style="stroke:black; stroke-linecap:round; stroke-width:0.25;"/>
<line x1="308.100000" y1="244.000000" x2="316.100000" y2="244.000000"  style="stroke:black; stroke-linecap:round; stroke-width:0.25;"/>
<line x1="308.100000" y1="264.000000" x2="316.100000" y2="264.000000"  style="stroke:black; stroke-linecap:round; stroke-width:0.25;"/>
<line x1="308.100000" y1="276.000000" x2="308.100000" y2="264.000000"  style="stroke:black; stroke-linecap:round; stroke-width:0.25;"/>
<line x1="308.100000" y1="276.000000" x2="308.100000" y2="276.000000"  style="stroke:black; stroke-linecap:round; stroke-width:0.25;"/>
<line x1="311.050000" y1="78.000000" x2="311.050000" y2="100.000000"  style="stroke:black; stroke-linecap:round; stroke-width:0.25;"/>
<line x1="311.050000" y1="100.000000" x2="311.050000" y2="100.000000"  style="stroke:black; stroke-linecap:round; stroke-width:0.25;"/>
<line x1="311.050000" y1="100.000000" x2="315.050000" y2="100.000000"  style="stroke:black; stroke-linecap:round; stroke-width:0.25;"/>
<line x1="311.050000" y1="108.000000" x2="315.050000" y2="108.000000"  style="stroke:black; stroke-linecap:round; stroke-width:0.25;"/>
<line x1="311.050000" y1="318.000000" x2="311.050000" y2="340.000000"  style="stroke:black; stroke-linecap:round; stroke-width:0.25;"/>
<line x1="311.050000" y1="340.000000" x2="311.050000" y2="340.000000"  style="stroke:black; stroke-linecap:round; stroke-width:0.25;"/>
<line x1="311.050000" y1="340.000000" x2="315.050000" y2="340.000000"  style="stroke:black; stroke-linecap:round; stroke-width:0.25;"/>
<line x1="311.050000" y1="348.000000" x2="315.050000" y2="348.000000"  style="stroke:black; stroke-linecap:round; stroke-width:0.25;"/>
<line x1="316.100000" y1="244.000000" x2="316.100000" y2="256.000000"  style="stroke:black; stroke-linecap:round; stroke-width:0.25;"/>
<line x1="316.100000" y1="256.000000" x2="316.100000" y2="256.000000"  style="stroke:black; stroke-linecap:round; stroke-width:0.25;"/>
<line x1="316.100000" y1="256.000000" x2="320.100000" y2="256.000000"  style="stroke:black; stroke-linecap:round; stroke-width:0.25;"/>
<line x1="316.100000" y1="264.000000" x2="320.100000" y2="264.000000"  style="stroke:black; stroke-linecap:round; stroke-width:0.25;"/>
<line x1="324.100000" y1="204.000000" x2="328.100000" y2="204.000000"  style="stroke:black; stroke-linecap:round; stroke-width:0.25;"/>
<line x1="328.100000" y1="172.000000" x2="336.100000" y2="172.000000"  style="stroke:black; stroke-linecap:round; stroke-width:0.25;"/>
<line x1="328.100000" y1="192.000000" x2="336.100000" y2="192.000000"  style="stroke:black; stroke-linecap:round; stroke-width:0.25;"/>
<line x1="328.100000" y1="204.000000" x2="328.100000" y2="192.000000"  style="stroke:black; stroke-linecap:round; stroke-width:0.25;"/>
<line x1="328.100000" y1="204.000000" x2="328.100000" y2="204.000000"  style="stroke:black; stroke-linecap:round; stroke-width:0.25;"/>
<line x1="335.750000" y1="36.000000" x2="339.750000" y2="36.000000"  style="stroke:black; stroke-linecap:round; stroke-width:0.25;"/>
<line x1="336.100000" y1="172.000000" x2="336.100000" y2="184.000000"  style="stroke:black; stroke-linecap:round; stroke-width:0.25;"/>
<line x1="336.100000" y1="184.000000" x2="336.100000" y2="184.000000"  style="stroke:black; stroke-linecap:round; stroke-width:0.25;"/>
<line x1="336.100000" y1="184.000000" x2="340.100000" y2="184.000000"  style="stroke:black; stroke-linecap:round; stroke-width:0.25;"/>
<line x1="336.100000" y1="192.000000" x2="340.100000" y2="192.000000"  style="stroke:black; stroke-linecap:round; stroke-width:0.25;"/>
<line x1="339.050000" y1="104.000000" x2="343.050000" y2="104.000000"  style="stroke:black; stroke-linecap:round; stroke-width:0.25;"/>
<line x1="339.050000" y1="344.000000" x2="343.050000" y2="344.000000"  style="stroke:black; stroke-linecap:round; stroke-width:0.25;"/>
<line x1="339.750000" y1="36.000000" x2="343.050000" y2="36.000000"  style="stroke:black; stroke-linecap:round; stroke-width:0.25;"/>
<line x1="343.050000" y1="36.000000" x2="351.050000" y2="36.000000"  style="stroke:black; stroke-linecap:round; stroke-width:0.25;"/>
<line x1="343.050000" y1="92.000000" x2="351.050000" y2="92.000000"  style="stroke:black; stroke-linecap:round; stroke-width:0.25;"/>
<line x1="343.050000" y1="104.000000" x2="343.050000" y2="92.000000"  style="stroke:black; stroke-linecap:round; stroke-width:0.25;"/>
<line x1="343.050000" y1="104.000000" x2="343.050000" y2="104.000000"  style="stroke:black; stroke-linecap:round; stroke-width:0.25;"/>
<line x1="343.050000" y1="344.000000" x2="462.100000" y2="344.000000"  style="stroke:black; stroke-linecap:round; stroke-width:0.25;"/>
<line x1="344.100000" y1="260.000000" x2="348.100000" y2="260.000000"  style="stroke:black; stroke-linecap:round; stroke-width:0.25;"/>
<line x1="348.100000" y1="224.000000" x2="356.100000" y2="224.000000"  style="stroke:black; stroke-linecap:round; stroke-width:0.25;"/>
<line x1="348.100000" y1="260.000000" x2="356.100000" y2="260.000000"  style="stroke:black; stroke-linecap:round; stroke-width:0.25;"/>
<line x1="351.050000" y1="36.000000" x2="351.050000" y2="84.000000"  style="stroke:black; stroke-linecap:round; stroke-width:0.25;"/>
<line x1="351.050000" y1="84.000000" x2="351.050000" y2="84.000000"  style="stroke:black; stroke-linecap:round; stroke-width:0.25;"/>
<line x1="351.050000" y1="84.000000" x2="355.050000" y2="84.000000"  style="stroke:black; stroke-linecap:round; stroke-width:0.25;"/>
<line x1="351.050000" y1="92.000000" x2="355.050000" y2="92.000000"  style="stroke:black; stroke-linecap:round; stroke-width:0.25;"/>
<line x1="356.100000" y1="224.000000" x2="356.100000" y2="252.000000"  style="stroke:black; stroke-linecap:round; stroke-width:0.25;"/>
<line x1="356.100000" y1="252.000000" x2="356.100000" y2="252.000000"  style="stroke:black; stroke-linecap:round; stroke-width:0.25;"/>
<line x1="356.100000" y1="252.000000" x2="360.100000" y2="252.000000"  style="stroke:black; stroke-linecap:round; stroke-width:0.25;"/>
<line x1="356.100000" y1="260.000000" x2="360.100000" y2="260.000000"  style="stroke:black; stroke-linecap:round; stroke-width:0.25;"/>
<line x1="364.100000" y1="188.000000" x2="368.100000" y2="188.000000"  style="stroke:black; stroke-linecap:round; stroke-width:0.25;"/>
<line x1="368.100000" y1="188.000000" x2="388.100000" y2="188.000000"  style="stroke:black; stroke-linecap:round; stroke-width:0.25;"/>
<line x1="379.050000" y1="88.000000" x2="383.050000" y2="88.000000"  style="stroke:black; stroke-linecap:round; stroke-width:0.25;"/>
<line x1="383.050000" y1="88.000000" x2="502.100000" y2="88.000000"  style="stroke:black; stroke-linecap:round; stroke-width:0.25;"/>
<line x1="384.100000" y1="256.000000" x2="388.100000" y2="256.000000"  style="stroke:black; stroke-linecap:round; stroke-width:0.25;"/>
<line x1="388.100000" y1="188.000000" x2="430.100000" y2="220.000000"  style="stroke:black; stroke-linecap:round; stroke-width:0.25;"/>
<line x1="388.100000" y1="256.000000" x2="430.100000" y2="228.000000"  style="stroke:black; stroke-linecap:round; stroke-width:0.25;"/>
<line x1="430.100000" y1="220.000000" x2="434.100000" y2="220.000000"  style="stroke:black; stroke-linecap:round; stroke-width:0.25;"/>
<line x1="430.100000" y1="228.000000" x2="434.100000" y2="228.000000"  style="stroke:black; stroke-linecap:round; stroke-width:0.25;"/>
<line x1="458.100000" y1="224.000000" x2="462.100000" y2="224.000000"  style="stroke:black; stroke-linecap:round; stroke-width:0.25;"/>
<line x1="462.100000" y1="224.000000" x2="470.100000" y2="224.000000"  style="stroke:black; stroke-linecap:round; stroke-width:0.25;"/>
<line x1="462.100000" y1="280.000000" x2="470.100000" y2="280.000000"  style="stroke:black; stroke-linecap:round; stroke-width:0.25;"/>
<line x1="462.100000" y1="344.000000" x2="462.100000" y2="280.000000"  style="stroke:black; stroke-linecap:round; stroke-width:0.25;"/>
<line x1="462.100000" y1="344.000000" x2="462.100000" y2="344.000000"  style="stroke:black; stroke-linecap:round; stroke-width:0.25;"/>
<line x1="470.100000" y1="224.000000" x2="470.100000" y2="272.000000"  style="stroke:black; stroke-linecap:round; stroke-width:0.25;"/>
<line x1="470.100000" y1="272.000000" x2="470.100000" y2="272.000000"  style="stroke:black; stroke-linecap:round; stroke-width:0.25;"/>
<line x1="470.100000" y1="272.000000" x2="474.100000" y2="272.000000"  style="stroke:black; stroke-linecap:round; stroke-width:0.25;"/>
<line x1="470.100000" y1="280.000000" x2="474.100000" y2="280.000000"  style="stroke:black; stroke-linecap:round; stroke-width:0.25;"/>
<line x1="498.100000" y1="276.000000" x2="502.100000" y2="276.000000"  style="stroke:black; stroke-linecap:round; stroke-width:0.25;"/>
<line x1="502.100000" y1="88.000000" x2="604.100000" y2="204.000000"  style="stroke:black; stroke-linecap:round; stroke-width:0.25;"/>
<line x1="502.100000" y1="276.000000" x2="604.100000" y2="212.000000"  style="stroke:black; stroke-linecap:round; stroke-width:0.25;"/>
<line x1="604.100000" y1="204.000000" x2="608.100000" y2="204.000000"  style="stroke:black; stroke-linecap:round; stroke-width:0.25;"/>
<line x1="604.100000" y1="212.000000" x2="608.100000" y2="212.000000"  style="stroke:black; stroke-linecap:round; stroke-width:0.25;"/>
<line x1="632.100000" y1="208.000000" x2="636.100000" y2="208.000000"  style="stroke:black; stroke-linecap:round; stroke-width:0.25;"/>
<line x1="636.100000" y1="208.000000" x2="636.100000" y2="208.000000"  style="stroke:black; stroke-linecap:round; stroke-width:0.25;"/>
<line x1="636.100000" y1="208.000000" x2="640.100000" y2="208.000000"  style="stroke:black; stroke-linecap:round; stroke-width:0.25;"/>
<line x1="640.100000" y1="208.000000" x2="644.100000" y2="208.000000"  style="stroke:black; stroke-linecap:round; stroke-width:0.25;"/>
<line x1="644.100000" y1="208.000000" x2="654.100000" y2="208.000000"  style="stroke:black; stroke-linecap:round; stroke-width:0.25;"/>
</svg>
