<?xml version="1.0"?>
<svg xmlns="http://www.w3.org/2000/svg" xmlns:xlink="http://www.w3.org/1999/xlink" viewBox="0 0 306.700000 304.000000" width="153.350000mm" height="152.000000mm" version="1.1">
<a xlink:href="conv2-0x7fd864858da0.svg">
<rect x="1.000000" y="1.000000" width="305.700000" height="303.000000" rx="0" ry="0" style="stroke:none;fill:#cccccc;"/>
<rect x="0.000000" y="0.000000" width="305.700000" height="303.000000" rx="0" ry="0" style="stroke:none;fill:#ffffff;"/>
</a>
<text x="10.000000" y="7.000000" font-family="Arial" font-size="7"></text>
<rect x="98.350000" y="25.000000" width="24.000000" height="24.000000" rx="0" ry="0" style="stroke:none;fill:#cccccc;"/>
<rect x="97.350000" y="24.000000" width="24.000000" height="24.000000" rx="0" ry="0" style="stroke:none;fill:#f44800;"/>
<text x="109.350000" y="38.000000" font-family="Arial" font-size="7" text-anchor="middle" fill="#FFFFFF">-2</text>
<circle cx="99.350000" cy="26.000000" r="1"/>
<a xlink:href="radius-0x7fd863127590.svg">
<rect x="97.450000" y="57.000000" width="25.800000" height="24.000000" rx="0" ry="0" style="stroke:none;fill:#cccccc;"/>
<rect x="96.450000" y="56.000000" width="25.800000" height="24.000000" rx="0" ry="0" style="stroke:none;fill:#003366;"/>
</a>
<a xlink:href="radius-0x7fd863127590.svg">
<text x="109.350000" y="70.000000" font-family="Arial" font-size="7" text-anchor="middle" fill="#FFFFFF">radius</text>
</a>
<circle cx="98.450000" cy="58.000000" r="1"/>
<rect x="139.250000" y="41.000000" width="24.000000" height="24.000000" rx="0" ry="0" style="stroke:none;fill:#cccccc;"/>
<rect x="138.250000" y="40.000000" width="24.000000" height="24.000000" rx="0" ry="0" style="stroke:none;fill:#4B71A1;"/>
<text x="150.250000" y="54.000000" font-family="Arial" font-size="7" text-anchor="middle" fill="#FFFFFF">*</text>
<circle cx="140.250000" cy="42.000000" r="1"/>
<line x1="135.250000" y1="47.000000" x2="138.250000" y2="48.000000"  transform="rotate(0.000000,138.250000,48.000000)" style="stroke: black; stroke-width:0.25;"/>
<line x1="135.250000" y1="49.000000" x2="138.250000" y2="48.000000"  transform="rotate(0.000000,138.250000,48.000000)" style="stroke: black; stroke-width:0.25;"/>
<line x1="135.250000" y1="55.000000" x2="138.250000" y2="56.000000"  transform="rotate(0.000000,138.250000,56.000000)" style="stroke: black; stroke-width:0.25;"/>
<line x1="135.250000" y1="57.000000" x2="138.250000" y2="56.000000"  transform="rotate(0.000000,138.250000,56.000000)" style="stroke: black; stroke-width:0.25;"/>
<rect x="35.000000" y="99.000000" width="38.700000" height="24.000000" rx="0" ry="0" style="stroke:none;fill:#cccccc;"/>
<rect x="34.000000" y="98.000000" width="38.700000" height="24.000000" rx="0" ry="0" style="stroke:none;fill:#f44800;"/>
<text x="53.350000" y="112.000000" font-family="Arial" font-size="7" text-anchor="middle" fill="#FFFFFF">3.14159</text>
<circle cx="36.000000" cy="100.000000" r="1"/>
<line x1="25.000000" y1="89.000000" x2="25.000000" y2="131.000000"  style="stroke: black; stroke-linecap:round; stroke-width:0.25; stroke-dasharray:3,3;"/>
<line x1="25.000000" y1="131.000000" x2="81.700000" y2="131.000000"  style="stroke: black; stroke-linecap:round; stroke-width:0.25; stroke-dasharray:3,3;"/>
<line x1="81.700000" y1="131.000000" x2="81.700000" y2="89.000000"  style="stroke: black; stroke-linecap:round; stroke-width:0.25; stroke-dasharray:3,3;"/>
<line x1="25.000000" y1="89.000000" x2="30.000000" y2="89.000000"  style="stroke: black; stroke-linecap:round; stroke-width:0.25; stroke-dasharray:3,3;"/>
<line x1="42.900000" y1="89.000000" x2="81.700000" y2="89.000000"  style="stroke: black; stroke-linecap:round; stroke-width:0.25; stroke-dasharray:3,3;"/>
<text x="30.000000" y="91.000000" font-family="Arial" font-size="7">PI</text>
<rect x="42.350000" y="151.000000" width="24.000000" height="24.000000" rx="0" ry="0" style="stroke:none;fill:#cccccc;"/>
<rect x="41.350000" y="150.000000" width="24.000000" height="24.000000" rx="0" ry="0" style="stroke:none;fill:#f44800;"/>
<text x="53.350000" y="164.000000" font-family="Arial" font-size="7" text-anchor="middle" fill="#FFFFFF">2</text>
<circle cx="43.350000" cy="152.000000" r="1"/>
<line x1="32.350000" y1="141.000000" x2="32.350000" y2="183.000000"  style="stroke: black; stroke-linecap:round; stroke-width:0.25; stroke-dasharray:3,3;"/>
<line x1="32.350000" y1="183.000000" x2="74.350000" y2="183.000000"  style="stroke: black; stroke-linecap:round; stroke-width:0.25; stroke-dasharray:3,3;"/>
<line x1="74.350000" y1="183.000000" x2="74.350000" y2="141.000000"  style="stroke: black; stroke-linecap:round; stroke-width:0.25; stroke-dasharray:3,3;"/>
<line x1="32.350000" y1="141.000000" x2="37.350000" y2="141.000000"  style="stroke: black; stroke-linecap:round; stroke-width:0.25; stroke-dasharray:3,3;"/>
<line x1="63.150000" y1="141.000000" x2="74.350000" y2="141.000000"  style="stroke: black; stroke-linecap:round; stroke-width:0.25; stroke-dasharray:3,3;"/>
<text x="37.350000" y="143.000000" font-family="Arial" font-size="7">preset</text>
<rect x="99.700000" y="125.000000" width="24.000000" height="24.000000" rx="0" ry="0" style="stroke:none;fill:#cccccc;"/>
<rect x="98.700000" y="124.000000" width="24.000000" height="24.000000" rx="0" ry="0" style="stroke:none;fill:#4B71A1;"/>
<text x="110.700000" y="138.000000" font-family="Arial" font-size="7" text-anchor="middle" fill="#FFFFFF">*</text>
<circle cx="100.700000" cy="126.000000" r="1"/>
<line x1="95.700000" y1="131.000000" x2="98.700000" y2="132.000000"  transform="rotate(0.000000,98.700000,132.000000)" style="stroke: black; stroke-width:0.25;"/>
<line x1="95.700000" y1="133.000000" x2="98.700000" y2="132.000000"  transform="rotate(0.000000,98.700000,132.000000)" style="stroke: black; stroke-width:0.25;"/>
<line x1="95.700000" y1="139.000000" x2="98.700000" y2="140.000000"  transform="rotate(0.000000,98.700000,140.000000)" style="stroke: black; stroke-width:0.25;"/>
<line x1="95.700000" y1="141.000000" x2="98.700000" y2="140.000000"  transform="rotate(0.000000,98.700000,140.000000)" style="stroke: black; stroke-width:0.25;"/>
<a xlink:href="octave-0x7fd863065670.svg">
<rect x="35.000000" y="193.000000" width="38.700000" height="24.000000" rx="0" ry="0" style="stroke:none;fill:#cccccc;"/>
<rect x="34.000000" y="192.000000" width="38.700000" height="24.000000" rx="0" ry="0" style="stroke:none;fill:#003366;"/>
</a>
<a xlink:href="octave-0x7fd863065670.svg">
<text x="53.350000" y="206.000000" font-family="Arial" font-size="7" text-anchor="middle" fill="#FFFFFF">octave(9)</text>
</a>
<circle cx="36.000000" cy="194.000000" r="1"/>
<rect x="35.000000" y="225.000000" width="38.700000" height="24.000000" rx="0" ry="0" style="stroke:none;fill:#cccccc;"/>
<rect x="34.000000" y="224.000000" width="38.700000" height="24.000000" rx="0" ry="0" style="stroke:none;fill:#f44800;"/>
<text x="53.350000" y="238.000000" font-family="Arial" font-size="7" text-anchor="middle" fill="#FFFFFF">4.01984</text>
<circle cx="36.000000" cy="226.000000" r="1"/>
<rect x="89.700000" y="209.000000" width="24.000000" height="24.000000" rx="0" ry="0" style="stroke:none;fill:#cccccc;"/>
<rect x="88.700000" y="208.000000" width="24.000000" height="24.000000" rx="0" ry="0" style="stroke:none;fill:#4B71A1;"/>
<text x="100.700000" y="222.000000" font-family="Arial" font-size="7" text-anchor="middle" fill="#FFFFFF">*</text>
<circle cx="90.700000" cy="210.000000" r="1"/>
<line x1="85.700000" y1="215.000000" x2="88.700000" y2="216.000000"  transform="rotate(0.000000,88.700000,216.000000)" style="stroke: black; stroke-width:0.25;"/>
<line x1="85.700000" y1="217.000000" x2="88.700000" y2="216.000000"  transform="rotate(0.000000,88.700000,216.000000)" style="stroke: black; stroke-width:0.25;"/>
<line x1="85.700000" y1="223.000000" x2="88.700000" y2="224.000000"  transform="rotate(0.000000,88.700000,224.000000)" style="stroke: black; stroke-width:0.25;"/>
<line x1="85.700000" y1="225.000000" x2="88.700000" y2="224.000000"  transform="rotate(0.000000,88.700000,224.000000)" style="stroke: black; stroke-width:0.25;"/>
<rect x="139.700000" y="157.000000" width="24.000000" height="24.000000" rx="0" ry="0" style="stroke:none;fill:#cccccc;"/>
<rect x="138.700000" y="156.000000" width="24.000000" height="24.000000" rx="0" ry="0" style="stroke:none;fill:#4B71A1;"/>
<text x="150.700000" y="170.000000" font-family="Arial" font-size="7" text-anchor="middle" fill="#FFFFFF">*</text>
<circle cx="140.700000" cy="158.000000" r="1"/>
<line x1="135.700000" y1="163.000000" x2="138.700000" y2="164.000000"  transform="rotate(0.000000,138.700000,164.000000)" style="stroke: black; stroke-width:0.25;"/>
<line x1="135.700000" y1="165.000000" x2="138.700000" y2="164.000000"  transform="rotate(0.000000,138.700000,164.000000)" style="stroke: black; stroke-width:0.25;"/>
<line x1="135.700000" y1="171.000000" x2="138.700000" y2="172.000000"  transform="rotate(0.000000,138.700000,172.000000)" style="stroke: black; stroke-width:0.25;"/>
<line x1="135.700000" y1="173.000000" x2="138.700000" y2="172.000000"  transform="rotate(0.000000,138.700000,172.000000)" style="stroke: black; stroke-width:0.25;"/>
<a xlink:href="SR-0x7fd8615e5a20.svg">
<rect x="82.350000" y="257.000000" width="24.000000" height="24.000000" rx="0" ry="0" style="stroke:none;fill:#cccccc;"/>
<rect x="81.350000" y="256.000000" width="24.000000" height="24.000000" rx="0" ry="0" style="stroke:none;fill:#003366;"/>
</a>
<a xlink:href="SR-0x7fd8615e5a20.svg">
<text x="93.350000" y="270.000000" font-family="Arial" font-size="7" text-anchor="middle" fill="#FFFFFF">SR</text>
</a>
<circle cx="83.350000" cy="258.000000" r="1"/>
<rect x="179.700000" y="173.000000" width="24.000000" height="24.000000" rx="0" ry="0" style="stroke:none;fill:#cccccc;"/>
<rect x="178.700000" y="172.000000" width="24.000000" height="24.000000" rx="0" ry="0" style="stroke:none;fill:#4B71A1;"/>
<text x="190.700000" y="186.000000" font-family="Arial" font-size="7" text-anchor="middle" fill="#FFFFFF">/</text>
<circle cx="180.700000" cy="174.000000" r="1"/>
<line x1="175.700000" y1="179.000000" x2="178.700000" y2="180.000000"  transform="rotate(0.000000,178.700000,180.000000)" style="stroke: black; stroke-width:0.25;"/>
<line x1="175.700000" y1="181.000000" x2="178.700000" y2="180.000000"  transform="rotate(0.000000,178.700000,180.000000)" style="stroke: black; stroke-width:0.25;"/>
<line x1="175.700000" y1="187.000000" x2="178.700000" y2="188.000000"  transform="rotate(0.000000,178.700000,188.000000)" style="stroke: black; stroke-width:0.25;"/>
<line x1="175.700000" y1="189.000000" x2="178.700000" y2="188.000000"  transform="rotate(0.000000,178.700000,188.000000)" style="stroke: black; stroke-width:0.25;"/>
<rect x="211.700000" y="173.000000" width="24.000000" height="24.000000" rx="0" ry="0" style="stroke:none;fill:#cccccc;"/>
<rect x="210.700000" y="172.000000" width="24.000000" height="24.000000" rx="0" ry="0" style="stroke:none;fill:#4B71A1;"/>
<text x="222.700000" y="186.000000" font-family="Arial" font-size="7" text-anchor="middle" fill="#FFFFFF">cos</text>
<circle cx="212.700000" cy="174.000000" r="1"/>
<line x1="207.700000" y1="183.000000" x2="210.700000" y2="184.000000"  transform="rotate(0.000000,210.700000,184.000000)" style="stroke: black; stroke-width:0.25;"/>
<line x1="207.700000" y1="185.000000" x2="210.700000" y2="184.000000"  transform="rotate(0.000000,210.700000,184.000000)" style="stroke: black; stroke-width:0.25;"/>
<rect x="251.700000" y="141.000000" width="24.000000" height="24.000000" rx="0" ry="0" style="stroke:none;fill:#cccccc;"/>
<rect x="250.700000" y="140.000000" width="24.000000" height="24.000000" rx="0" ry="0" style="stroke:none;fill:#4B71A1;"/>
<text x="262.700000" y="154.000000" font-family="Arial" font-size="7" text-anchor="middle" fill="#FFFFFF">*</text>
<circle cx="252.700000" cy="142.000000" r="1"/>
<line x1="247.700000" y1="147.000000" x2="250.700000" y2="148.000000"  transform="rotate(0.000000,250.700000,148.000000)" style="stroke: black; stroke-width:0.25;"/>
<line x1="247.700000" y1="149.000000" x2="250.700000" y2="148.000000"  transform="rotate(0.000000,250.700000,148.000000)" style="stroke: black; stroke-width:0.25;"/>
<line x1="247.700000" y1="155.000000" x2="250.700000" y2="156.000000"  transform="rotate(0.000000,250.700000,156.000000)" style="stroke: black; stroke-width:0.25;"/>
<line x1="247.700000" y1="157.000000" x2="250.700000" y2="156.000000"  transform="rotate(0.000000,250.700000,156.000000)" style="stroke: black; stroke-width:0.25;"/>
<line x1="15.000000" y1="15.000000" x2="15.000000" y2="289.000000"  style="stroke: black; stroke-linecap:round; stroke-width:0.25; stroke-dasharray:3,3;"/>
<line x1="15.000000" y1="289.000000" x2="291.700000" y2="289.000000"  style="stroke: black; stroke-linecap:round; stroke-width:0.25; stroke-dasharray:3,3;"/>
<line x1="291.700000" y1="289.000000" x2="291.700000" y2="15.000000"  style="stroke: black; stroke-linecap:round; stroke-width:0.25; stroke-dasharray:3,3;"/>
<line x1="15.000000" y1="15.000000" x2="20.000000" y2="15.000000"  style="stroke: black; stroke-linecap:round; stroke-width:0.25; stroke-dasharray:3,3;"/>
<line x1="32.900000" y1="15.000000" x2="291.700000" y2="15.000000"  style="stroke: black; stroke-linecap:round; stroke-width:0.25; stroke-dasharray:3,3;"/>
<text x="20.000000" y="17.000000" font-family="Arial" font-size="7">a1</text>
<line x1="293.700000" y1="151.000000" x2="296.700000" y2="152.000000"  transform="rotate(0.000000,296.700000,152.000000)" style="stroke: black; stroke-width:0.25;"/>
<line x1="293.700000" y1="153.000000" x2="296.700000" y2="152.000000"  transform="rotate(0.000000,296.700000,152.000000)" style="stroke: black; stroke-width:0.25;"/>
<line x1="65.350000" y1="162.000000" x2="69.350000" y2="162.000000"  style="stroke:black; stroke-linecap:round; stroke-width:0.25;"/>
<line x1="69.350000" y1="162.000000" x2="79.350000" y2="162.000000"  style="stroke:black; stroke-linecap:round; stroke-width:0.25;"/>
<line x1="72.700000" y1="110.000000" x2="76.700000" y2="110.000000"  style="stroke:black; stroke-linecap:round; stroke-width:0.25;"/>
<line x1="72.700000" y1="204.000000" x2="76.700000" y2="204.000000"  style="stroke:black; stroke-linecap:round; stroke-width:0.25;"/>
<line x1="72.700000" y1="236.000000" x2="76.700000" y2="236.000000"  style="stroke:black; stroke-linecap:round; stroke-width:0.25;"/>
<line x1="76.700000" y1="110.000000" x2="86.700000" y2="110.000000"  style="stroke:black; stroke-linecap:round; stroke-width:0.25;"/>
<line x1="76.700000" y1="204.000000" x2="84.700000" y2="204.000000"  style="stroke:black; stroke-linecap:round; stroke-width:0.25;"/>
<line x1="76.700000" y1="224.000000" x2="84.700000" y2="224.000000"  style="stroke:black; stroke-linecap:round; stroke-width:0.25;"/>
<line x1="76.700000" y1="236.000000" x2="76.700000" y2="224.000000"  style="stroke:black; stroke-linecap:round; stroke-width:0.25;"/>
<line x1="76.700000" y1="236.000000" x2="76.700000" y2="236.000000"  style="stroke:black; stroke-linecap:round; stroke-width:0.25;"/>
<line x1="79.350000" y1="162.000000" x2="86.700000" y2="162.000000"  style="stroke:black; stroke-linecap:round; stroke-width:0.25;"/>
<line x1="84.700000" y1="204.000000" x2="84.700000" y2="216.000000"  style="stroke:black; stroke-linecap:round; stroke-width:0.25;"/>
<line x1="84.700000" y1="216.000000" x2="84.700000" y2="216.000000"  style="stroke:black; stroke-linecap:round; stroke-width:0.25;"/>
<line x1="84.700000" y1="216.000000" x2="88.700000" y2="216.000000"  style="stroke:black; stroke-linecap:round; stroke-width:0.25;"/>
<line x1="84.700000" y1="224.000000" x2="88.700000" y2="224.000000"  style="stroke:black; stroke-linecap:round; stroke-width:0.25;"/>
<line x1="86.700000" y1="110.000000" x2="94.700000" y2="110.000000"  style="stroke:black; stroke-linecap:round; stroke-width:0.25;"/>
<line x1="86.700000" y1="140.000000" x2="94.700000" y2="140.000000"  style="stroke:black; stroke-linecap:round; stroke-width:0.25;"/>
<line x1="86.700000" y1="162.000000" x2="86.700000" y2="140.000000"  style="stroke:black; stroke-linecap:round; stroke-width:0.25;"/>
<line x1="86.700000" y1="162.000000" x2="86.700000" y2="162.000000"  style="stroke:black; stroke-linecap:round; stroke-width:0.25;"/>
<line x1="94.700000" y1="110.000000" x2="94.700000" y2="132.000000"  style="stroke:black; stroke-linecap:round; stroke-width:0.25;"/>
<line x1="94.700000" y1="132.000000" x2="94.700000" y2="132.000000"  style="stroke:black; stroke-linecap:round; stroke-width:0.25;"/>
<line x1="94.700000" y1="132.000000" x2="98.700000" y2="132.000000"  style="stroke:black; stroke-linecap:round; stroke-width:0.25;"/>
<line x1="94.700000" y1="140.000000" x2="98.700000" y2="140.000000"  style="stroke:black; stroke-linecap:round; stroke-width:0.25;"/>
<line x1="105.350000" y1="268.000000" x2="109.350000" y2="268.000000"  style="stroke:black; stroke-linecap:round; stroke-width:0.25;"/>
<line x1="109.350000" y1="268.000000" x2="166.700000" y2="268.000000"  style="stroke:black; stroke-linecap:round; stroke-width:0.25;"/>
<line x1="112.700000" y1="220.000000" x2="116.700000" y2="220.000000"  style="stroke:black; stroke-linecap:round; stroke-width:0.25;"/>
<line x1="116.700000" y1="220.000000" x2="126.700000" y2="220.000000"  style="stroke:black; stroke-linecap:round; stroke-width:0.25;"/>
<line x1="121.350000" y1="36.000000" x2="125.350000" y2="36.000000"  style="stroke:black; stroke-linecap:round; stroke-width:0.25;"/>
<line x1="122.250000" y1="68.000000" x2="126.250000" y2="68.000000"  style="stroke:black; stroke-linecap:round; stroke-width:0.25;"/>
<line x1="122.700000" y1="136.000000" x2="126.700000" y2="136.000000"  style="stroke:black; stroke-linecap:round; stroke-width:0.25;"/>
<line x1="125.350000" y1="36.000000" x2="126.250000" y2="36.000000"  style="stroke:black; stroke-linecap:round; stroke-width:0.25;"/>
<line x1="126.250000" y1="56.000000" x2="134.250000" y2="56.000000"  style="stroke:black; stroke-linecap:round; stroke-width:0.25;"/>
<line x1="126.250000" y1="68.000000" x2="126.250000" y2="56.000000"  style="stroke:black; stroke-linecap:round; stroke-width:0.25;"/>
<line x1="126.250000" y1="68.000000" x2="126.250000" y2="68.000000"  style="stroke:black; stroke-linecap:round; stroke-width:0.25;"/>
<line x1="126.250000" y1="36.000000" x2="134.250000" y2="36.000000"  style="stroke:black; stroke-linecap:round; stroke-width:0.25;"/>
<line x1="126.700000" y1="136.000000" x2="134.700000" y2="136.000000"  style="stroke:black; stroke-linecap:round; stroke-width:0.25;"/>
<line x1="126.700000" y1="172.000000" x2="134.700000" y2="172.000000"  style="stroke:black; stroke-linecap:round; stroke-width:0.25;"/>
<line x1="126.700000" y1="220.000000" x2="126.700000" y2="172.000000"  style="stroke:black; stroke-linecap:round; stroke-width:0.25;"/>
<line x1="126.700000" y1="220.000000" x2="126.700000" y2="220.000000"  style="stroke:black; stroke-linecap:round; stroke-width:0.25;"/>
<line x1="134.250000" y1="36.000000" x2="134.250000" y2="48.000000"  style="stroke:black; stroke-linecap:round; stroke-width:0.25;"/>
<line x1="134.250000" y1="48.000000" x2="134.250000" y2="48.000000"  style="stroke:black; stroke-linecap:round; stroke-width:0.25;"/>
<line x1="134.250000" y1="48.000000" x2="138.250000" y2="48.000000"  style="stroke:black; stroke-linecap:round; stroke-width:0.25;"/>
<line x1="134.250000" y1="56.000000" x2="138.250000" y2="56.000000"  style="stroke:black; stroke-linecap:round; stroke-width:0.25;"/>
<line x1="134.700000" y1="136.000000" x2="134.700000" y2="164.000000"  style="stroke:black; stroke-linecap:round; stroke-width:0.25;"/>
<line x1="134.700000" y1="164.000000" x2="134.700000" y2="164.000000"  style="stroke:black; stroke-linecap:round; stroke-width:0.25;"/>
<line x1="134.700000" y1="164.000000" x2="138.700000" y2="164.000000"  style="stroke:black; stroke-linecap:round; stroke-width:0.25;"/>
<line x1="134.700000" y1="172.000000" x2="138.700000" y2="172.000000"  style="stroke:black; stroke-linecap:round; stroke-width:0.25;"/>
<line x1="162.250000" y1="52.000000" x2="166.250000" y2="52.000000"  style="stroke:black; stroke-linecap:round; stroke-width:0.25;"/>
<line x1="162.700000" y1="168.000000" x2="166.700000" y2="168.000000"  style="stroke:black; stroke-linecap:round; stroke-width:0.25;"/>
<line x1="166.250000" y1="52.000000" x2="238.700000" y2="52.000000"  style="stroke:black; stroke-linecap:round; stroke-width:0.25;"/>
<line x1="166.700000" y1="168.000000" x2="174.700000" y2="168.000000"  style="stroke:black; stroke-linecap:round; stroke-width:0.25;"/>
<line x1="166.700000" y1="188.000000" x2="174.700000" y2="188.000000"  style="stroke:black; stroke-linecap:round; stroke-width:0.25;"/>
<line x1="166.700000" y1="268.000000" x2="166.700000" y2="188.000000"  style="stroke:black; stroke-linecap:round; stroke-width:0.25;"/>
<line x1="166.700000" y1="268.000000" x2="166.700000" y2="268.000000"  style="stroke:black; stroke-linecap:round; stroke-width:0.25;"/>
<line x1="174.700000" y1="168.000000" x2="174.700000" y2="180.000000"  style="stroke:black; stroke-linecap:round; stroke-width:0.25;"/>
<line x1="174.700000" y1="180.000000" x2="174.700000" y2="180.000000"  style="stroke:black; stroke-linecap:round; stroke-width:0.25;"/>
<line x1="174.700000" y1="180.000000" x2="178.700000" y2="180.000000"  style="stroke:black; stroke-linecap:round; stroke-width:0.25;"/>
<line x1="174.700000" y1="188.000000" x2="178.700000" y2="188.000000"  style="stroke:black; stroke-linecap:round; stroke-width:0.25;"/>
<line x1="202.700000" y1="184.000000" x2="206.700000" y2="184.000000"  style="stroke:black; stroke-linecap:round; stroke-width:0.25;"/>
<line x1="206.700000" y1="184.000000" x2="206.700000" y2="184.000000"  style="stroke:black; stroke-linecap:round; stroke-width:0.25;"/>
<line x1="206.700000" y1="184.000000" x2="210.700000" y2="184.000000"  style="stroke:black; stroke-linecap:round; stroke-width:0.25;"/>
<line x1="234.700000" y1="184.000000" x2="238.700000" y2="184.000000"  style="stroke:black; stroke-linecap:round; stroke-width:0.25;"/>
<line x1="238.700000" y1="52.000000" x2="246.700000" y2="52.000000"  style="stroke:black; stroke-linecap:round; stroke-width:0.25;"/>
<line x1="238.700000" y1="156.000000" x2="246.700000" y2="156.000000"  style="stroke:black; stroke-linecap:round; stroke-width:0.25;"/>
<line x1="238.700000" y1="184.000000" x2="238.700000" y2="156.000000"  style="stroke:black; stroke-linecap:round; stroke-width:0.25;"/>
<line x1="238.700000" y1="184.000000" x2="238.700000" y2="184.000000"  style="stroke:black; stroke-linecap:round; stroke-width:0.25;"/>
<line x1="246.700000" y1="52.000000" x2="246.700000" y2="148.000000"  style="stroke:black; stroke-linecap:round; stroke-width:0.25;"/>
<line x1="246.700000" y1="148.000000" x2="246.700000" y2="148.000000"  style="stroke:black; stroke-linecap:round; stroke-width:0.25;"/>
<line x1="246.700000" y1="148.000000" x2="250.700000" y2="148.000000"  style="stroke:black; stroke-linecap:round; stroke-width:0.25;"/>
<line x1="246.700000" y1="156.000000" x2="250.700000" y2="156.000000"  style="stroke:black; stroke-linecap:round; stroke-width:0.25;"/>
<line x1="274.700000" y1="152.000000" x2="278.700000" y2="152.000000"  style="stroke:black; stroke-linecap:round; stroke-width:0.25;"/>
<line x1="278.700000" y1="152.000000" x2="278.700000" y2="152.000000"  style="stroke:black; stroke-linecap:round; stroke-width:0.25;"/>
<line x1="278.700000" y1="152.000000" x2="282.700000" y2="152.000000"  style="stroke:black; stroke-linecap:round; stroke-width:0.25;"/>
<line x1="282.700000" y1="152.000000" x2="286.700000" y2="152.000000"  style="stroke:black; stroke-linecap:round; stroke-width:0.25;"/>
<line x1="286.700000" y1="152.000000" x2="296.700000" y2="152.000000"  style="stroke:black; stroke-linecap:round; stroke-width:0.25;"/>
</svg>
