<?xml version="1.0"?>
<svg xmlns="http://www.w3.org/2000/svg" xmlns:xlink="http://www.w3.org/1999/xlink" viewBox="0 0 551.400000 104.000000" width="275.700000mm" height="52.000000mm" version="1.1">
<a xlink:href="drywet-0x7fd86393a1c0.svg">
<rect x="1.000000" y="1.000000" width="550.400000" height="103.000000" rx="0" ry="0" style="stroke:none;fill:#cccccc;"/>
<rect x="0.000000" y="0.000000" width="550.400000" height="103.000000" rx="0" ry="0" style="stroke:none;fill:#ffffff;"/>
</a>
<text x="10.000000" y="7.000000" font-family="Arial" font-size="7"></text>
<rect x="25.000000" y="25.000000" width="219.300000" height="24.000000" rx="0" ry="0" style="stroke:none;fill:#cccccc;"/>
<rect x="24.000000" y="24.000000" width="219.300000" height="24.000000" rx="0" ry="0" style="stroke:none;fill:#477881;"/>
<text x="133.650000" y="38.000000" font-family="Arial" font-size="7" text-anchor="middle" fill="#FFFFFF">hslider(Echo Intensity, 2e+01f, 0.0f, 99.0f, 0.01f)</text>
<circle cx="26.000000" cy="26.000000" r="1"/>
<rect x="121.750000" y="57.000000" width="25.800000" height="24.000000" rx="0" ry="0" style="stroke:none;fill:#cccccc;"/>
<rect x="120.750000" y="56.000000" width="25.800000" height="24.000000" rx="0" ry="0" style="stroke:none;fill:#f44800;"/>
<text x="133.650000" y="70.000000" font-family="Arial" font-size="7" text-anchor="middle" fill="#FFFFFF">0.01</text>
<circle cx="122.750000" cy="58.000000" r="1"/>
<rect x="260.300000" y="41.000000" width="24.000000" height="24.000000" rx="0" ry="0" style="stroke:none;fill:#cccccc;"/>
<rect x="259.300000" y="40.000000" width="24.000000" height="24.000000" rx="0" ry="0" style="stroke:none;fill:#4B71A1;"/>
<text x="271.300000" y="54.000000" font-family="Arial" font-size="7" text-anchor="middle" fill="#FFFFFF">*</text>
<circle cx="261.300000" cy="42.000000" r="1"/>
<line x1="256.300000" y1="47.000000" x2="259.300000" y2="48.000000"  transform="rotate(0.000000,259.300000,48.000000)" style="stroke: black; stroke-width:0.25;"/>
<line x1="256.300000" y1="49.000000" x2="259.300000" y2="48.000000"  transform="rotate(0.000000,259.300000,48.000000)" style="stroke: black; stroke-width:0.25;"/>
<line x1="256.300000" y1="55.000000" x2="259.300000" y2="56.000000"  transform="rotate(0.000000,259.300000,56.000000)" style="stroke: black; stroke-width:0.25;"/>
<line x1="256.300000" y1="57.000000" x2="259.300000" y2="56.000000"  transform="rotate(0.000000,259.300000,56.000000)" style="stroke: black; stroke-width:0.25;"/>
<a xlink:href="smooth-0x7fd8615d19b0.svg">
<rect x="292.300000" y="41.000000" width="64.500000" height="24.000000" rx="0" ry="0" style="stroke:none;fill:#cccccc;"/>
<rect x="291.300000" y="40.000000" width="64.500000" height="24.000000" rx="0" ry="0" style="stroke:none;fill:#003366;"/>
</a>
<a xlink:href="smooth-0x7fd8615d19b0.svg">
<text x="323.550000" y="54.000000" font-family="Arial" font-size="7" text-anchor="middle" fill="#FFFFFF">smooth(0.999f)</text>
</a>
<circle cx="293.300000" cy="42.000000" r="1"/>
<line x1="288.300000" y1="51.000000" x2="291.300000" y2="52.000000"  transform="rotate(0.000000,291.300000,52.000000)" style="stroke: black; stroke-width:0.25;"/>
<line x1="288.300000" y1="53.000000" x2="291.300000" y2="52.000000"  transform="rotate(0.000000,291.300000,52.000000)" style="stroke: black; stroke-width:0.25;"/>
<rect x="372.800000" y="37.000000" width="25.800000" height="24.000000" rx="0" ry="0" style="stroke:none;fill:#cccccc;"/>
<rect x="371.800000" y="36.000000" width="25.800000" height="24.000000" rx="0" ry="0" style="stroke:none;fill:#f44800;"/>
<text x="384.700000" y="50.000000" font-family="Arial" font-size="7" text-anchor="middle" fill="#FFFFFF">0.99</text>
<circle cx="373.800000" cy="38.000000" r="1"/>
<rect x="414.600000" y="41.000000" width="24.000000" height="24.000000" rx="0" ry="0" style="stroke:none;fill:#cccccc;"/>
<rect x="413.600000" y="40.000000" width="24.000000" height="24.000000" rx="0" ry="0" style="stroke:none;fill:#4B71A1;"/>
<text x="425.600000" y="54.000000" font-family="Arial" font-size="7" text-anchor="middle" fill="#FFFFFF">min</text>
<circle cx="415.600000" cy="42.000000" r="1"/>
<line x1="410.600000" y1="47.000000" x2="413.600000" y2="48.000000"  transform="rotate(0.000000,413.600000,48.000000)" style="stroke: black; stroke-width:0.25;"/>
<line x1="410.600000" y1="49.000000" x2="413.600000" y2="48.000000"  transform="rotate(0.000000,413.600000,48.000000)" style="stroke: black; stroke-width:0.25;"/>
<line x1="410.600000" y1="55.000000" x2="413.600000" y2="56.000000"  transform="rotate(0.000000,413.600000,56.000000)" style="stroke: black; stroke-width:0.25;"/>
<line x1="410.600000" y1="57.000000" x2="413.600000" y2="56.000000"  transform="rotate(0.000000,413.600000,56.000000)" style="stroke: black; stroke-width:0.25;"/>
<rect x="454.600000" y="37.000000" width="25.800000" height="24.000000" rx="0" ry="0" style="stroke:none;fill:#cccccc;"/>
<rect x="453.600000" y="36.000000" width="25.800000" height="24.000000" rx="0" ry="0" style="stroke:none;fill:#f44800;"/>
<text x="466.500000" y="50.000000" font-family="Arial" font-size="7" text-anchor="middle" fill="#FFFFFF">0.001</text>
<circle cx="455.600000" cy="38.000000" r="1"/>
<rect x="496.400000" y="41.000000" width="24.000000" height="24.000000" rx="0" ry="0" style="stroke:none;fill:#cccccc;"/>
<rect x="495.400000" y="40.000000" width="24.000000" height="24.000000" rx="0" ry="0" style="stroke:none;fill:#4B71A1;"/>
<text x="507.400000" y="54.000000" font-family="Arial" font-size="7" text-anchor="middle" fill="#FFFFFF">max</text>
<circle cx="497.400000" cy="42.000000" r="1"/>
<line x1="492.400000" y1="47.000000" x2="495.400000" y2="48.000000"  transform="rotate(0.000000,495.400000,48.000000)" style="stroke: black; stroke-width:0.25;"/>
<line x1="492.400000" y1="49.000000" x2="495.400000" y2="48.000000"  transform="rotate(0.000000,495.400000,48.000000)" style="stroke: black; stroke-width:0.25;"/>
<line x1="492.400000" y1="55.000000" x2="495.400000" y2="56.000000"  transform="rotate(0.000000,495.400000,56.000000)" style="stroke: black; stroke-width:0.25;"/>
<line x1="492.400000" y1="57.000000" x2="495.400000" y2="56.000000"  transform="rotate(0.000000,495.400000,56.000000)" style="stroke: black; stroke-width:0.25;"/>
<line x1="15.000000" y1="15.000000" x2="15.000000" y2="89.000000"  style="stroke: black; stroke-linecap:round; stroke-width:0.25; stroke-dasharray:3,3;"/>
<line x1="15.000000" y1="89.000000" x2="536.400000" y2="89.000000"  style="stroke: black; stroke-linecap:round; stroke-width:0.25; stroke-dasharray:3,3;"/>
<line x1="536.400000" y1="89.000000" x2="536.400000" y2="15.000000"  style="stroke: black; stroke-linecap:round; stroke-width:0.25; stroke-dasharray:3,3;"/>
<line x1="15.000000" y1="15.000000" x2="20.000000" y2="15.000000"  style="stroke: black; stroke-linecap:round; stroke-width:0.25; stroke-dasharray:3,3;"/>
<line x1="29.675000" y1="15.000000" x2="536.400000" y2="15.000000"  style="stroke: black; stroke-linecap:round; stroke-width:0.25; stroke-dasharray:3,3;"/>
<text x="20.000000" y="17.000000" font-family="Arial" font-size="7">c</text>
<line x1="538.400000" y1="51.000000" x2="541.400000" y2="52.000000"  transform="rotate(0.000000,541.400000,52.000000)" style="stroke: black; stroke-width:0.25;"/>
<line x1="538.400000" y1="53.000000" x2="541.400000" y2="52.000000"  transform="rotate(0.000000,541.400000,52.000000)" style="stroke: black; stroke-width:0.25;"/>
<line x1="146.550000" y1="68.000000" x2="150.550000" y2="68.000000"  style="stroke:black; stroke-linecap:round; stroke-width:0.25;"/>
<line x1="150.550000" y1="68.000000" x2="247.300000" y2="68.000000"  style="stroke:black; stroke-linecap:round; stroke-width:0.25;"/>
<line x1="243.300000" y1="36.000000" x2="247.300000" y2="36.000000"  style="stroke:black; stroke-linecap:round; stroke-width:0.25;"/>
<line x1="247.300000" y1="36.000000" x2="255.300000" y2="36.000000"  style="stroke:black; stroke-linecap:round; stroke-width:0.25;"/>
<line x1="247.300000" y1="56.000000" x2="255.300000" y2="56.000000"  style="stroke:black; stroke-linecap:round; stroke-width:0.25;"/>
<line x1="247.300000" y1="68.000000" x2="247.300000" y2="56.000000"  style="stroke:black; stroke-linecap:round; stroke-width:0.25;"/>
<line x1="247.300000" y1="68.000000" x2="247.300000" y2="68.000000"  style="stroke:black; stroke-linecap:round; stroke-width:0.25;"/>
<line x1="255.300000" y1="36.000000" x2="255.300000" y2="48.000000"  style="stroke:black; stroke-linecap:round; stroke-width:0.25;"/>
<line x1="255.300000" y1="48.000000" x2="255.300000" y2="48.000000"  style="stroke:black; stroke-linecap:round; stroke-width:0.25;"/>
<line x1="255.300000" y1="48.000000" x2="259.300000" y2="48.000000"  style="stroke:black; stroke-linecap:round; stroke-width:0.25;"/>
<line x1="255.300000" y1="56.000000" x2="259.300000" y2="56.000000"  style="stroke:black; stroke-linecap:round; stroke-width:0.25;"/>
<line x1="283.300000" y1="52.000000" x2="287.300000" y2="52.000000"  style="stroke:black; stroke-linecap:round; stroke-width:0.25;"/>
<line x1="287.300000" y1="52.000000" x2="287.300000" y2="52.000000"  style="stroke:black; stroke-linecap:round; stroke-width:0.25;"/>
<line x1="287.300000" y1="52.000000" x2="291.300000" y2="52.000000"  style="stroke:black; stroke-linecap:round; stroke-width:0.25;"/>
<line x1="355.800000" y1="52.000000" x2="359.800000" y2="52.000000"  style="stroke:black; stroke-linecap:round; stroke-width:0.25;"/>
<line x1="359.800000" y1="52.000000" x2="367.800000" y2="52.000000"  style="stroke:black; stroke-linecap:round; stroke-width:0.25;"/>
<line x1="367.800000" y1="52.000000" x2="367.800000" y2="68.000000"  style="stroke:black; stroke-linecap:round; stroke-width:0.25;"/>
<line x1="367.800000" y1="68.000000" x2="367.800000" y2="68.000000"  style="stroke:black; stroke-linecap:round; stroke-width:0.25;"/>
<line x1="367.800000" y1="68.000000" x2="384.700000" y2="68.000000"  style="stroke:black; stroke-linecap:round; stroke-width:0.25;"/>
<line x1="384.700000" y1="68.000000" x2="401.600000" y2="68.000000"  style="stroke:black; stroke-linecap:round; stroke-width:0.25;"/>
<line x1="397.600000" y1="48.000000" x2="401.600000" y2="48.000000"  style="stroke:black; stroke-linecap:round; stroke-width:0.25;"/>
<line x1="401.600000" y1="56.000000" x2="409.600000" y2="56.000000"  style="stroke:black; stroke-linecap:round; stroke-width:0.25;"/>
<line x1="401.600000" y1="68.000000" x2="401.600000" y2="56.000000"  style="stroke:black; stroke-linecap:round; stroke-width:0.25;"/>
<line x1="401.600000" y1="68.000000" x2="401.600000" y2="68.000000"  style="stroke:black; stroke-linecap:round; stroke-width:0.25;"/>
<line x1="401.600000" y1="48.000000" x2="409.600000" y2="48.000000"  style="stroke:black; stroke-linecap:round; stroke-width:0.25;"/>
<line x1="409.600000" y1="48.000000" x2="413.600000" y2="48.000000"  style="stroke:black; stroke-linecap:round; stroke-width:0.25;"/>
<line x1="409.600000" y1="56.000000" x2="413.600000" y2="56.000000"  style="stroke:black; stroke-linecap:round; stroke-width:0.25;"/>
<line x1="437.600000" y1="52.000000" x2="441.600000" y2="52.000000"  style="stroke:black; stroke-linecap:round; stroke-width:0.25;"/>
<line x1="441.600000" y1="52.000000" x2="449.600000" y2="52.000000"  style="stroke:black; stroke-linecap:round; stroke-width:0.25;"/>
<line x1="449.600000" y1="52.000000" x2="449.600000" y2="68.000000"  style="stroke:black; stroke-linecap:round; stroke-width:0.25;"/>
<line x1="449.600000" y1="68.000000" x2="449.600000" y2="68.000000"  style="stroke:black; stroke-linecap:round; stroke-width:0.25;"/>
<line x1="449.600000" y1="68.000000" x2="466.500000" y2="68.000000"  style="stroke:black; stroke-linecap:round; stroke-width:0.25;"/>
<line x1="466.500000" y1="68.000000" x2="483.400000" y2="68.000000"  style="stroke:black; stroke-linecap:round; stroke-width:0.25;"/>
<line x1="479.400000" y1="48.000000" x2="483.400000" y2="48.000000"  style="stroke:black; stroke-linecap:round; stroke-width:0.25;"/>
<line x1="483.400000" y1="56.000000" x2="491.400000" y2="56.000000"  style="stroke:black; stroke-linecap:round; stroke-width:0.25;"/>
<line x1="483.400000" y1="68.000000" x2="483.400000" y2="56.000000"  style="stroke:black; stroke-linecap:round; stroke-width:0.25;"/>
<line x1="483.400000" y1="68.000000" x2="483.400000" y2="68.000000"  style="stroke:black; stroke-linecap:round; stroke-width:0.25;"/>
<line x1="483.400000" y1="48.000000" x2="491.400000" y2="48.000000"  style="stroke:black; stroke-linecap:round; stroke-width:0.25;"/>
<line x1="491.400000" y1="48.000000" x2="495.400000" y2="48.000000"  style="stroke:black; stroke-linecap:round; stroke-width:0.25;"/>
<line x1="491.400000" y1="56.000000" x2="495.400000" y2="56.000000"  style="stroke:black; stroke-linecap:round; stroke-width:0.25;"/>
<line x1="519.400000" y1="52.000000" x2="523.400000" y2="52.000000"  style="stroke:black; stroke-linecap:round; stroke-width:0.25;"/>
<line x1="523.400000" y1="52.000000" x2="523.400000" y2="52.000000"  style="stroke:black; stroke-linecap:round; stroke-width:0.25;"/>
<line x1="523.400000" y1="52.000000" x2="527.400000" y2="52.000000"  style="stroke:black; stroke-linecap:round; stroke-width:0.25;"/>
<line x1="527.400000" y1="52.000000" x2="531.400000" y2="52.000000"  style="stroke:black; stroke-linecap:round; stroke-width:0.25;"/>
<line x1="531.400000" y1="52.000000" x2="541.400000" y2="52.000000"  style="stroke:black; stroke-linecap:round; stroke-width:0.25;"/>
</svg>
