<?xml version="1.0" encoding="UTF-8" standalone="no"?>
<svg xmlns="http://www.w3.org/2000/svg" version="1.1" viewBox="0 0 509.98 629.67" height="629.67" width="509.98">
 <defs>
  <clipPath id="clipPath5572">
   <path d="m 127.69,419.53 293.89,0 0,98.63 -293.89,0 0,-98.63 z"/>
  </clipPath>
  <clipPath id="clipPath5630">
   <path d="m 116.33,128.87 314.1,0 0,389.29 -314.1,0 0,-389.29 z"/>
  </clipPath>
 </defs>
 <g transform="translate(-107.25,51.897)">
  <g transform="matrix(1.5918,0,0,-1.5918,-72.921,777.91)">
   <g transform="translate(621.47,71.125)">
    <path d="m -478.73,277.77 c -1.09,0 -1.69,0.15 -2.29,0.56 -0.98,0.64 -2.03,2.4 -2.59,3.38 -1.01,1.72 -2.14,3.56 -3.19,5.14 -0.15,0 -0.3,0 -0.41,0 -0.3,0 -0.56,0 -0.82,0 l 0,-1.58 c 0,-0.79 0,-1.54 0,-2.36 0,-1.58 0,-2.25 0.27,-2.85 0.3,-0.75 0.82,-1.17 1.79,-1.24 l 0,-0.83 -0.67,0 c -0.75,0 -1.8,0 -3.19,0 -1.35,0 -2.4,0 -3.15,0 l -0.71,0 0,0.83 c 0.75,0.1 1.09,0.19 1.43,0.6 0.33,0.37 0.52,0.9 0.6,1.57 0.1,0.87 0.11,1.39 0.11,4.28 l 0,4.95 c 0,3.56 -0.11,4.43 -0.3,5.25 -0.23,0.79 -0.83,1.12 -1.84,1.24 l 0,0.82 c 0.56,-0.1 1.16,0 1.76,0 1.54,0 1.99,0 3.79,0.12 1.61,0 2.51,0.1 3.19,0.1 1.99,0 3.18,-0.3 4.2,-1.01 1.12,-0.79 1.83,-2.29 1.83,-3.82 0,-2.41 -1.57,-4.36 -4.27,-5.37 1.13,-1.39 1.99,-2.81 3.04,-4.42 0.9,-1.47 1.84,-2.78 2.58,-3.49 0.42,-0.45 0.68,-0.6 1.24,-0.75 l 0,-0.83 c -0.78,-0.14 -1.53,-0.22 -2.43,-0.22 m -7.5,18.3 c -0.6,0 -1.13,-0.1 -1.77,-0.23 0,-1.72 0,-4.83 0,-7.27 0.3,-0.1 0.9,-0.1 1.27,-0.1 2.4,0 4.01,1.5 4.01,3.79 0,2.21 -1.5,3.79 -3.48,3.79"/>
   </g>
   <g transform="translate(621.73,71.604)">
    <path d="m -469.36,295.23 -1.13,0.67 2.4,3.53 2.78,-0.53 -4.05,-3.67 z m 5.4,-17.33 c -0.23,-0.37 -0.45,-0.45 -1.8,-0.45 -0.83,0 -1.62,0 -2.44,0.1 -1.16,0 -2.33,0.1 -3.49,0.1 -1.16,0 -2.32,0 -3.45,-0.1 l 0,0.67 c 1.09,0.12 1.54,0.72 1.65,1.8 0.1,0.72 0.1,1.5 0.1,2.74 l 0,6.86 c 0,1.28 -0.1,1.84 -0.27,2.36 -0.22,0.64 -0.67,0.91 -1.46,1.02 l 0,0.67 11.29,0 c 0,-0.71 0,-1.42 0,-2.13 0,-0.57 0,-1.13 0,-1.69 l -0.86,0 c -0.19,1.84 -0.98,2.36 -3.87,2.36 -0.52,0 -1.19,0 -1.79,-0.1 0,-0.94 -0.1,-1.24 -0.1,-2.63 l 0,-2.81 c 0.38,0 0.68,0 1.09,0 2.51,0 3.3,0.38 3.41,1.65 l 0.9,0 c 0,-0.38 0,-1.16 0,-2.36 0,-1.24 0,-1.99 0,-2.37 l -0.9,0 c 0,1.39 -0.71,1.73 -3.19,1.73 -0.45,0 -0.9,0 -1.31,0 0,-1.54 0,-3.07 0,-4.61 0,-1.01 0.15,-1.35 0.75,-1.47 0.33,-0.11 0.9,-0.14 1.65,-0.14 2.62,0 3.52,0.6 4.09,2.58 l 0.93,-0.22 c -0.33,-1.69 -0.71,-3.08 -0.97,-3.53"/>
   </g>
   <g transform="translate(622.14,71.323)">
    <path d="m -454.3,284.98 c -0.23,0 -0.34,0 -0.68,0 l -0.52,1.24 c 2.25,0.11 3.52,1.24 3.52,3.07 0,1.95 -1.35,3.31 -3.19,3.31 -0.26,0 -0.52,0 -0.89,-0.1 0,-1.5 0,-3 0,-4.5 l 0,-4.24 c 0,-3.15 0,-3.71 0.26,-4.31 0.23,-0.64 0.64,-0.94 1.46,-1.01 l 0,-0.71 -0.6,0 c -0.6,0 -1.46,0 -2.62,0 -1.16,0 -2.03,0 -2.66,0 l -0.57,0 0,0.71 c 1.09,0.1 1.58,0.71 1.65,1.76 0.1,0.75 0.1,1.16 0.1,3.56 l 0,6.04 c 0,1.31 -0.1,1.87 -0.27,2.4 -0.18,0.6 -0.63,0.9 -1.46,1.01 l 0,0.64 c 0.3,0 0.1,0 1.13,0 0.41,0 0.97,0 1.72,0 1.28,0.1 2.48,0.15 3.71,0.15 3.46,0 5.52,-1.69 5.52,-4.5 0,-2.63 -2.36,-4.58 -5.55,-4.58"/>
   </g>
   <g transform="translate(622.73,71.529)">
    <path d="m -432.91,292.52 c -0.27,-0.38 -0.38,-0.87 -0.42,-1.8 -0.1,-1.05 -0.1,-1.84 -0.1,-3.34 0,-0.56 0,-2.25 0,-3.9 0,-1.69 -0.27,-2.7 -0.98,-3.75 -1.08,-1.61 -2.92,-2.4 -5.36,-2.4 -1.5,0 -2.66,0.26 -3.75,1.01 -1.72,1.09 -2.36,2.51 -2.36,5.06 0,2.63 0,3.75 0,4.58 0,1.24 0.1,2.51 -0.12,3.75 -0.18,0.86 -0.63,1.2 -1.65,1.31 l 0,0.68 0.57,0 c 0.63,0 1.53,0 2.66,0 1.16,0 2.06,0 2.7,0 l 0.56,0 0,-0.68 c -0.75,-0.11 -1.12,-0.3 -1.35,-0.71 -0.22,-0.34 -0.3,-0.83 -0.34,-1.91 0,-1.5 -0.1,-3 -0.1,-4.54 0,-4.16 0.11,-4.95 0.82,-5.81 0.6,-0.68 1.62,-1.13 2.74,-1.13 1.61,0 3.19,0.79 3.67,2.44 0.34,1.01 0.38,1.76 0.38,4.5 l 0,2.4 c 0,2.77 -0.1,3.6 -0.34,4.01 -0.26,0.45 -0.63,0.68 -1.23,0.75 l 0,0.68 c 0.93,0 1.27,0 2.51,0 1.2,0 1.54,0 2.51,0 l 0,-0.68 c -0.52,-0.1 -0.86,-0.22 -1.12,-0.52"/>
   </g>
   <g transform="translate(623.12,71.162)">
    <path d="m -418.44,279.1 c -1.13,-0.86 -2.41,-1.16 -4.88,-1.16 -1.31,0 -2.62,0.11 -3.94,0.11 -0.56,0 -1.53,0 -2.21,-0.1 l -0.3,0 0,0.67 c 1.13,0.11 1.58,0.68 1.69,1.76 0.1,0.76 0.1,1.17 0.1,3.57 l 0,4.57 c 0,2.25 0,3.23 -0.26,3.86 -0.22,0.6 -0.67,0.9 -1.5,1.02 l 0,0.67 c 1.13,-0.1 1.76,-0.1 3.34,-0.1 1.38,0 3.49,0.1 4.87,0.1 2.25,0 4.28,-1.05 4.28,-3.56 0,-1.87 -1.16,-3.11 -3.45,-3.71 2.55,-0.49 3.9,-1.99 3.9,-4.39 0,-1.43 -0.53,-2.51 -1.61,-3.34 m -5.29,13.73 c -0.41,0 -0.86,0 -1.28,0 0,-1.58 -0.1,-4.28 -0.11,-5.29 0.26,0 0.6,-0.1 1.05,-0.1 2.4,0 3.75,1.01 3.75,2.74 0,1.68 -1.27,2.66 -3.41,2.66 m 0.1,-6.75 c -0.41,0 -0.82,0 -1.46,-0.1 0,-0.63 0,-0.75 0,-1.87 l 0,-1.43 c 0,-1.35 0.1,-2.06 0.23,-2.55 0.18,-0.64 0.79,-0.9 1.8,-0.9 2.06,0 3.22,1.13 3.22,3.15 0,2.25 -1.46,3.68 -3.75,3.68"/>
   </g>
   <g transform="translate(623.53,71.141)">
    <path d="m -403.58,278.32 c -0.22,-0.33 -0.49,-0.41 -1.72,-0.41 -0.6,0 -1.24,0 -1.84,0 -1.5,0.1 -2.85,0.11 -4.5,0.11 -1.24,0 -2.06,0 -2.81,-0.1 l 0,0.67 c 0.6,0 0.9,0.15 1.16,0.49 0.45,0.49 0.56,1.12 0.56,2.92 0,1.2 0,2.14 0,3.42 l 0,2.58 c 0,3.27 0,3.72 -0.26,4.35 -0.23,0.64 -0.68,0.9 -1.5,1.02 l 0,0.67 0.6,0 c 0.63,0 1.54,0 2.77,0 1.16,0 2.1,0 2.7,0 l 0.6,0 0,-0.67 c -1.2,0 -1.76,-0.64 -1.91,-1.8 0,-0.45 -0.1,-0.83 -0.1,-3.57 l 0,-4.05 c 0,-3.37 0,-3.75 0.33,-4.08 0.3,-0.3 0.79,-0.42 1.84,-0.42 1.31,0 2.06,0.16 2.66,0.49 0.68,0.38 1.16,1.09 1.43,2.1 l 0.9,-0.22 c -0.23,-1.43 -0.71,-3.15 -0.98,-3.57"/>
   </g>
   <g transform="translate(623.76,71.132)">
    <path d="m -395.39,278.02 c -0.6,0 -1.49,0 -2.62,0 -1.16,0 -2.06,0 -2.66,0 l -0.6,0 0,0.72 c 1.12,0.1 1.57,0.63 1.68,1.76 0.1,0.75 0.1,1.16 0.1,3.56 l 0,4.05 c 0,0.64 0,1.28 0,1.99 0,1.27 -0.1,1.87 -0.26,2.36 -0.19,0.64 -0.68,0.9 -1.5,1.05 l 0,0.64 0.6,0 c 0.6,0 1.5,0 2.66,0 1.13,0 2.02,0 2.62,0 l 0.6,0 0,-0.64 c -1.05,-0.1 -1.57,-0.75 -1.68,-1.84 -0.1,-0.71 -0.1,-1.38 -0.1,-3.56 l 0,-4.05 c 0,-3.15 0,-3.71 0.26,-4.31 0.23,-0.64 0.68,-0.98 1.5,-1.01 l 0,-0.72 -0.6,0 z"/>
   </g>
   <g transform="translate(624.36,71.015)">
    <path d="m -373.39,273.76 c -1.88,0 -3.9,0.6 -5.78,1.65 -1.12,0.6 -2.62,1.65 -3.75,2.55 -0.82,-0.11 -1.12,-0.15 -1.91,-0.15 -4.87,0 -8.1,3.22 -8.1,8.02 0,5.14 3.49,8.7 8.62,8.7 4.96,0 8.29,-3.18 8.29,-7.98 0,-3.42 -1.76,-6.42 -4.5,-7.84 0.87,-0.45 1.73,-0.9 2.59,-1.43 2.48,-1.5 4.16,-2.13 5.74,-2.13 1.01,0 1.83,0.22 2.77,0.71 l 0.34,-0.83 c -1.2,-0.86 -2.66,-1.27 -4.31,-1.27 m -11.4,19.12 c -2.96,0 -5.07,-2.47 -5.07,-5.92 0,-4.2 2.48,-7.5 5.67,-7.5 2.96,0 5.06,2.51 5.06,6 0,4.16 -2.47,7.42 -5.66,7.42"/>
   </g>
   <g transform="translate(624.74,71.529)">
    <path d="m -359.65,292.52 c -0.26,-0.38 -0.37,-0.87 -0.41,-1.8 -0.1,-1.05 -0.1,-1.84 -0.1,-3.34 0,-0.56 0,-2.25 0,-3.9 0,-1.69 -0.26,-2.7 -0.97,-3.75 -1.09,-1.61 -2.93,-2.4 -5.36,-2.4 -1.54,0 -2.67,0.26 -3.75,1.01 -1.73,1.09 -2.37,2.51 -2.37,5.06 0,2.63 0.1,3.75 0.1,4.58 0,1.24 0,2.51 -0.15,3.75 -0.19,0.86 -0.64,1.2 -1.65,1.31 l 0,0.68 0.56,0 c 0.64,0 1.54,0 2.7,0 1.13,0 2.03,0 2.66,0 l 0.57,0 0,-0.68 c -0.75,-0.11 -1.13,-0.3 -1.36,-0.71 -0.22,-0.34 -0.29,-0.83 -0.33,-1.91 0,-1.5 -0.1,-3 -0.1,-4.54 0,-4.16 0.12,-4.95 0.83,-5.81 0.6,-0.68 1.61,-1.13 2.74,-1.13 1.61,0 3.18,0.79 3.67,2.44 0.34,1.01 0.38,1.76 0.38,4.5 l 0,2.4 c 0,2.77 -0.1,3.6 -0.34,4.01 -0.26,0.45 -0.64,0.68 -1.28,0.75 l 0,0.68 c 0.98,0 1.32,0 2.55,0 1.2,0 1.54,0 2.52,0 l 0,-0.68 c -0.53,-0.1 -0.87,-0.22 -1.13,-0.52"/>
   </g>
   <g transform="translate(625.13,71.141)">
    <path d="m -345.3,278.35 c -0.22,-0.38 -0.45,-0.41 -1.8,-0.41 -0.78,0 -1.61,0 -2.43,0 -1.17,0 -2.33,0.1 -3.49,0.1 -1.13,0 -2.29,0 -3.49,-0.1 l 0,0.68 c 1.09,0.11 1.58,0.75 1.69,1.8 0.1,0.75 0.1,1.5 0.1,2.78 l 0,6.82 c 0,1.28 -0.1,1.87 -0.26,2.36 -0.22,0.64 -0.67,0.94 -1.5,1.02 l 0,0.67 11.33,0 c 0,-0.67 0,-1.39 0,-2.1 0,-0.6 0,-1.16 0,-1.73 l -0.87,0 c -0.15,1.84 -0.97,2.37 -3.82,2.37 -0.56,0 -1.28,0 -1.84,0 0,-0.94 -0.1,-1.27 -0.1,-2.66 l 0,-2.81 c 0.37,0 0.63,0 1.08,0 2.52,0 3.3,0.37 3.45,1.69 l 0.87,0 c 0,-0.42 0,-1.21 0,-2.41 0,-1.23 0,-1.95 0,-2.36 l -0.87,0 c -0.1,1.39 -0.75,1.73 -3.22,1.73 -0.45,0 -0.86,0 -1.31,0 0,-1.54 0,-3.08 0,-4.58 0,-1.01 0.15,-1.35 0.75,-1.5 0.38,-0.11 0.9,-0.15 1.65,-0.15 2.63,0 3.57,0.6 4.09,2.59 l 0.94,-0.19 c -0.3,-1.69 -0.71,-3.11 -0.98,-3.56"/>
   </g>
   <g transform="translate(625.73,71.526)">
    <path d="m -323.52,292.41 c 0,2.1 -1.24,2.92 -4.58,2.92 -0.67,0 -1.31,0 -2.02,-0.1 -0.1,-2.03 -0.1,-3.45 -0.1,-6.64 0.72,0 1.05,0 1.54,0 2.74,0 3.56,0.45 3.71,2.03 l 1.05,0 c 0,-0.79 0,-1.65 0,-2.48 0,-1.08 0,-2.17 0,-3.26 l -1.05,0 c -0.22,1.76 -0.9,2.1 -3.97,2.1 -0.53,0 -0.72,0 -1.28,0 l 0,-3.26 c 0,-0.67 0,-1.35 0,-2.1 0.1,-1.65 0.19,-3.04 2.06,-3.15 l 0,-0.82 -0.67,0 c -0.75,0 -1.84,0 -3.23,0 -1.38,0 -2.43,0 -3.18,0 l -0.72,0 0,0.82 c 1.32,0.11 1.92,0.9 2.03,2.18 0.1,0.86 0.1,1.38 0.1,4.31 l 0,7.31 c 0,1.54 -0.1,2.25 -0.3,2.85 -0.26,0.75 -0.82,1.13 -1.8,1.24 l 0,0.79 13.47,0 c -0.1,-0.53 -0.1,-1.47 -0.1,-2.7 0,-1.17 0,-1.35 0.1,-1.99 l -1.09,0 z"/>
   </g>
   <g transform="translate(626.16,71.126)">
    <path d="m -307.77,277.81 c -0.9,0 -1.38,0.11 -1.91,0.44 -0.79,0.53 -1.65,1.99 -2.13,2.82 -0.83,1.42 -1.73,2.96 -2.59,4.24 -0.16,0 -0.3,0 -0.38,0 -0.26,0 -0.45,0 -0.67,0 l 0,-1.28 c 0,-0.67 0,-1.31 0,-1.95 0,-1.31 0,-1.88 0.22,-2.4 0.22,-0.64 0.67,-0.94 1.46,-1.01 l 0,-0.68 -0.52,0 c -0.64,0 -1.54,0 -2.67,0 -1.12,0 -1.98,0 -2.58,0 l -0.6,0 0,0.68 c 0.6,0 0.9,0.19 1.2,0.49 0.26,0.33 0.41,0.74 0.48,1.31 0.1,0.71 0.1,1.16 0.1,3.56 l 0,4.05 c 0,2.96 -0.1,3.68 -0.26,4.35 -0.15,0.64 -0.68,0.94 -1.5,1.01 l 0,0.68 c 0.48,0 0.97,0 1.46,0 1.24,0 1.65,0 3.15,0 1.27,0.1 2.03,0.12 2.62,0.12 1.66,0 2.63,-0.26 3.45,-0.83 0.9,-0.67 1.54,-1.91 1.54,-3.19 0,-1.98 -1.31,-3.6 -3.52,-4.42 0.9,-1.16 1.61,-2.33 2.47,-3.64 0.79,-1.24 1.54,-2.32 2.14,-2.92 0.34,-0.34 0.56,-0.49 1.01,-0.6 l 0,-0.68 c -0.6,-0.15 -1.23,-0.18 -1.99,-0.18 m -6.22,15.14 c -0.49,0 -0.9,-0.1 -1.42,-0.22 0,-1.42 0,-4.01 0,-6 0.26,-0.1 0.75,-0.1 1.05,-0.1 1.98,0 3.33,1.24 3.33,3.12 0,1.84 -1.23,3.18 -2.92,3.18"/>
   </g>
   <g transform="translate(626.62,71.132)">
    <path d="m -290.78,278.02 c -0.6,0 -1.47,0 -2.59,0 -1.16,0 -1.99,0 -2.63,0 l -0.56,0 0,0.72 c 0.79,0 1.24,0.45 1.24,1.12 0,0.23 0,0.56 -0.3,1.31 -0.3,0.87 -0.49,1.47 -0.79,2.29 l -4.65,0 -0.45,-1.39 c -0.37,-1.08 -0.56,-1.87 -0.56,-2.28 0,-0.72 0.3,-1.02 1.09,-1.05 l 0,-0.72 c -0.94,0 -1.28,0.1 -2.44,0.1 -1.13,0 -1.46,0 -2.36,-0.1 l 0,0.72 c 0.33,0 0.48,0.1 0.75,0.3 0.45,0.41 0.9,1.27 1.61,3.11 l 2.29,5.85 c 0.63,1.57 1.61,4.09 2.25,6.15 l 1.65,0 c 0.22,-0.71 0.71,-1.91 1.05,-2.78 l 3.41,-8.73 c 0.6,-1.47 1.01,-2.37 1.31,-2.89 0.34,-0.6 0.68,-0.9 1.28,-1.01 l 0,-0.72 -0.6,0 z m -7.84,11.85 c -0.64,-1.65 -1.5,-3.79 -1.88,-4.95 l 3.6,0 -1.72,4.95 z"/>
   </g>
   <g transform="translate(627.08,71.524)">
    <path d="m -274.03,292.33 c -0.27,-0.41 -0.3,-0.86 -0.38,-2.1 0,-2.18 -0.1,-5.55 -0.1,-7.2 l 0,-3.68 c 0,-0.56 0.1,-1.42 0.1,-1.76 l -1.65,0 c -1.57,2.06 -4.84,6.08 -4.84,6.08 -0.37,0.45 -3.41,4.2 -4.95,6.03 0,-0.48 0,-0.18 0,-1.76 l 0,-1.57 c 0,-1.8 0,-3.6 0.1,-5.4 0.1,-1.02 0.15,-1.5 0.41,-1.99 0.23,-0.49 0.6,-0.67 1.31,-0.71 l 0,-0.68 c -0.86,0.1 -1.72,0.1 -2.58,0.1 -0.87,0 -1.73,0 -2.59,-0.1 l 0,0.68 c 1.61,0.1 1.65,1.38 1.69,2.66 0,1.01 0,1.84 0,3.41 l 0,5.1 c 0,1.99 -0.1,2.48 -0.45,3 -0.22,0.38 -0.56,0.56 -1.27,0.64 l 0,0.64 c 0.82,0 1.09,0 2.1,0 1.01,0 1.27,0 2.1,0 0.26,-0.53 0.71,-1.02 2.4,-3.04 2.36,-2.85 4.5,-5.33 6.52,-7.84 l 0,5.29 c 0,2.4 -0.1,3 -0.18,3.64 -0.15,0.79 -0.64,1.16 -1.54,1.31 l 0,0.64 c 1.01,0 1.35,0 2.59,0 1.23,0 1.57,0 2.55,0 l 0,-0.64 c -0.64,0 -1.02,-0.15 -1.35,-0.75"/>
   </g>
   <g transform="translate(627.53,71.147)">
    <path d="m -257.61,278.56 c -1.58,-0.64 -2.96,-0.86 -4.88,-0.86 l -0.18,-0.98 c 0.11,0 0.34,0 0.45,0 0.9,0 1.5,-0.63 1.5,-1.46 0,-1.27 -1.02,-2.21 -2.67,-2.21 -0.48,0 -0.93,0.11 -1.46,0.3 l 0.34,0.94 c 0.34,-0.12 0.6,-0.19 0.86,-0.19 0.71,0 1.16,0.34 1.16,0.97 0,0.45 -0.26,0.75 -0.6,0.75 -0.22,0 -0.37,-0.1 -0.56,-0.18 l -0.52,0.15 0.48,1.95 c -2.13,0.18 -3.67,0.9 -4.98,2.25 -1.5,1.53 -2.29,3.6 -2.29,6.03 0,5.25 3.37,8.37 8.89,8.37 1.69,0 3.3,-0.23 4.68,-0.68 0,-0.56 0,-1.12 0,-1.65 0,-0.41 0,-1.27 0,-1.84 l -0.93,0 c -0.38,1.73 -1.76,2.63 -3.98,2.63 -3.38,0 -5.47,-2.29 -5.47,-6.04 0,-4.35 2.43,-7.54 5.81,-7.54 2.02,0 3.41,1.05 3.97,2.97 l 0.9,-0.19 c -0.22,-0.83 -0.41,-2.21 -0.52,-3.49"/>
   </g>
   <g transform="translate(627.98,71.132)">
    <path d="m -241.28,278.02 c -0.6,0 -1.47,0 -2.59,0 -1.16,0 -1.99,0 -2.63,0 l -0.56,0 0,0.72 c 0.79,0 1.24,0.45 1.24,1.12 0,0.23 0,0.56 -0.3,1.31 -0.3,0.87 -0.49,1.47 -0.79,2.29 l -4.65,0 -0.45,-1.39 c -0.38,-1.08 -0.56,-1.87 -0.56,-2.28 0,-0.72 0.3,-1.02 1.09,-1.05 l 0,-0.72 c -0.94,0 -1.28,0.1 -2.44,0.1 -1.13,0 -1.46,0 -2.36,-0.1 l 0,0.72 c 0.33,0 0.45,0.1 0.71,0.3 0.49,0.41 0.94,1.27 1.65,3.11 l 2.32,5.85 c 0.64,1.57 1.58,4.09 2.22,6.15 l 1.65,0 c 0.22,-0.71 0.71,-1.91 1.05,-2.78 l 3.41,-8.73 c 0.6,-1.47 1.01,-2.37 1.31,-2.89 0.34,-0.6 0.68,-0.9 1.28,-1.01 l 0,-0.72 -0.6,0 z m -7.84,11.85 c -0.64,-1.65 -1.5,-3.79 -1.84,-4.95 l 3.56,0 -1.72,4.95 z"/>
   </g>
   <g transform="translate(628.19,71.132)">
    <path d="m -233.59,278.02 c -0.6,0 -1.5,0 -2.62,0 -1.17,0 -2.07,0 -2.67,0 l -0.6,0 0,0.72 c 1.13,0.1 1.58,0.63 1.69,1.76 0.1,0.75 0.1,1.16 0.1,3.56 l 0,4.05 c 0,0.64 0,1.28 0,1.99 0,1.27 -0.1,1.87 -0.27,2.36 -0.18,0.64 -0.67,0.9 -1.5,1.05 l 0,0.64 0.6,0 c 0.6,0 1.5,0 2.67,0 1.12,0 2.02,0 2.62,0 l 0.6,0 0,-0.64 c -1.09,-0.1 -1.57,-0.75 -1.69,-1.84 -0.1,-0.71 -0.1,-1.38 -0.1,-3.56 l 0,-4.05 c 0,-3.15 0,-3.71 0.26,-4.31 0.23,-0.64 0.68,-0.98 1.5,-1.01 l 0,-0.72 -0.6,0 z"/>
   </g>
   <g transform="translate(628.39,71.124)">
    <path d="m -226.28,277.71 c -1.39,0 -2.4,0.19 -4.05,0.83 -0.1,0.94 -0.26,2.33 -0.45,3.49 l 0.94,0.15 c 0.56,-1.99 1.84,-3 3.71,-3 1.73,0 2.89,0.9 2.89,2.25 0,1.08 -0.79,1.84 -1.84,2.51 l -2.55,1.61 c -1.76,1.13 -2.77,2.29 -2.77,4.43 0,2.7 2.06,4.46 5.25,4.46 1.57,0 2.85,-0.3 3.97,-0.9 0,-0.56 0,-0.75 0,-1.5 0,-0.9 0,-1.13 0,-1.8 l -0.9,0 c -0.34,1.73 -1.43,2.7 -3.11,2.7 -1.5,0 -2.59,-0.94 -2.59,-2.29 0,-1.16 0.79,-1.91 2.1,-2.73 l 2.03,-1.36 c 1.95,-1.27 3.07,-2.51 3.07,-4.42 0,-2.62 -2.32,-4.43 -5.7,-4.43"/>
   </g>
   <g transform="translate(628.91,71.141)">
    <path d="m -207.36,278.35 c -0.22,-0.38 -0.45,-0.41 -1.8,-0.41 -0.82,0 -1.61,0 -2.43,0 -1.17,0 -2.33,0.1 -3.49,0.1 -1.13,0 -2.33,0 -3.49,-0.1 l 0,0.68 c 1.09,0.11 1.57,0.75 1.69,1.8 0.1,0.75 0.1,1.5 0.1,2.78 l 0,6.82 c 0,1.28 -0.1,1.87 -0.26,2.36 -0.22,0.64 -0.67,0.94 -1.5,1.02 l 0,0.67 11.33,0 c 0,-0.67 0,-1.39 0,-2.1 0,-0.6 0,-1.16 0,-1.73 l -0.87,0 c -0.15,1.84 -0.97,2.37 -3.82,2.37 -0.57,0 -1.28,0 -1.84,0 0,-0.94 -0.1,-1.27 -0.1,-2.66 l 0,-2.81 c 0.37,0 0.63,0 1.08,0 2.52,0 3.3,0.37 3.45,1.69 l 0.87,0 c 0,-0.42 0,-1.21 0,-2.41 0,-1.23 0,-1.95 0,-2.36 l -0.87,0 c -0.1,1.39 -0.75,1.73 -3.22,1.73 -0.45,0 -0.87,0 -1.31,0 0,-1.54 0,-3.08 0,-4.58 0,-1.01 0.15,-1.35 0.75,-1.5 0.38,-0.11 0.9,-0.15 1.65,-0.15 2.63,0 3.57,0.6 4.09,2.59 l 0.94,-0.19 c -0.3,-1.69 -0.71,-3.11 -0.98,-3.56"/>
   </g>
   <g transform="translate(621.3,72.235)">
    <path d="m -485.19,318.27 c -0.23,-0.3 -0.57,-0.37 -1.43,-0.37 -1.13,0 -2.29,0.1 -3.45,0.1 -0.98,0 -1.73,0.1 -2.25,0.1 -0.68,0 -2.4,0 -2.93,-0.1 l -0.3,0 0.1,0.49 c 0.71,0.1 1.12,0.26 1.46,0.71 0.38,0.49 0.6,1.17 0.94,2.48 0.34,1.27 0.45,2.06 0.94,4.5 l 0.41,1.83 c 0.34,1.92 0.49,3.01 0.49,3.6 0,1.06 -0.38,1.47 -1.39,1.58 l 0.11,0.53 c 0.11,0 0.26,0 0.3,0 0.9,0 1.73,0 2.63,0 1.35,0 2.25,0 2.62,0 0.1,0 0.23,0 0.41,0 l -0.11,-0.53 c -0.71,0 -1.12,-0.26 -1.5,-0.71 -0.56,-0.75 -0.9,-1.76 -1.76,-6.3 l -0.3,-1.58 c -0.37,-1.95 -0.53,-2.62 -0.64,-3.48 0,-0.27 -0.1,-0.57 -0.1,-0.72 0,-0.93 0.45,-1.2 1.95,-1.2 2.7,0 3.67,0.53 4.54,2.48 l 0.63,-0.23 c -0.56,-1.57 -1.09,-2.77 -1.38,-3.15"/>
   </g>
   <g transform="translate(621.48,72.541)">
    <path d="m -478.39,329.43 c -0.75,0 -1.2,0.45 -1.2,1.13 0,0.86 0.6,1.42 1.46,1.42 0.71,0 1.16,-0.41 1.16,-1.09 0,-0.82 -0.6,-1.46 -1.42,-1.46 m -2.55,-12.04 c -0.49,0 -0.79,0.27 -0.79,0.68 0,0.22 0.1,0.6 0.19,1.12 0.3,1.24 0.71,2.93 0.97,3.83 0.3,1.24 0.45,2.1 0.45,2.4 0,0.34 -0.15,0.45 -0.41,0.45 -0.19,0 -0.41,0 -0.9,-0.22 l -0.15,0 -0.1,0.67 c 1.27,0.49 2.55,0.79 3.18,0.79 0.34,0 0.49,-0.11 0.49,-0.38 0,-0.3 -0.11,-1.04 -0.52,-2.69 l -0.34,-1.39 c -0.6,-2.29 -0.75,-3.08 -0.75,-3.45 0,-0.38 0.19,-0.57 0.52,-0.57 0.23,0 0.64,0.1 1.32,0.3 l 0,-0.63 c -1.23,-0.49 -2.59,-0.87 -3.22,-0.87"/>
   </g>
   <g transform="translate(621.76,72.25)">
    <path d="m -468.27,318.8 c -0.9,-0.82 -2.03,-1.12 -3.68,-1.12 -1.83,0 -2.92,0.3 -2.92,0.79 0,0.19 0,0.41 0.26,1.38 l 1.2,5.37 c 0.42,1.72 0.72,3.07 1.13,5.02 0.22,1.13 0.33,1.73 0.33,2.03 0,0.3 -0.14,0.45 -0.41,0.45 -0.15,0 -0.67,-0.11 -1.01,-0.23 l 0,0.68 0.26,0.11 c 1.32,0.41 2.37,0.64 2.85,0.64 0.3,0 0.49,-0.15 0.49,-0.42 0,-0.22 -0.11,-0.82 -0.52,-2.58 L -471,327.8 c -0.23,-0.97 -0.3,-1.38 -0.38,-1.68 1.5,0.86 2.81,1.27 3.97,1.27 1.43,0 2.14,-0.75 2.14,-2.25 0,-2.17 -1.24,-4.83 -2.96,-6.34 m 0,7.54 c -0.41,0 -0.94,-0.15 -1.57,-0.49 -0.68,-0.37 -1.2,-0.74 -1.46,-1.08 -0.31,-0.42 -0.57,-1.17 -0.91,-2.7 -0.37,-1.46 -0.52,-2.4 -0.52,-2.74 0,-0.45 0.52,-0.67 1.46,-0.67 0.98,0 1.8,0.44 2.4,1.31 0.94,1.31 1.65,3.45 1.65,5.02 0,0.86 -0.33,1.35 -1.05,1.35"/>
   </g>
   <g transform="translate(621.98,72.327)">
    <path d="m -460.39,321.64 c -0.15,0 -0.37,0 -0.67,0 -0.1,-0.41 -0.12,-0.79 -0.12,-1.12 0,-1.2 0.46,-1.88 1.24,-1.88 0.79,0 1.73,0.41 3.11,1.27 l 0.27,-0.78 c -1.77,-1.09 -3.08,-1.58 -4.28,-1.58 -1.46,0 -2.25,0.87 -2.25,2.44 0,3.9 2.63,7.28 5.66,7.28 1.51,0 2.37,-0.68 2.37,-1.88 0,-2.18 -2.33,-3.79 -5.33,-3.79 m 2.44,4.69 c -1.16,0 -2.33,-1.54 -2.93,-3.82 l 0.23,0 c 2.21,0 3.82,1.16 3.82,2.66 0,0.67 -0.48,1.16 -1.12,1.16"/>
   </g>
   <g transform="translate(622.37,72.397)">
    <path d="m -446.02,324.19 -0.79,0.1 c 0,0.26 0.1,0.6 0.1,0.9 0,0.45 -0.37,0.75 -0.97,0.75 -0.34,0 -0.68,-0.22 -1.01,-0.56 -0.86,-1.01 -1.24,-2.63 -1.77,-5.25 l -0.45,-2.25 c -0.86,-0.1 -1.12,-0.1 -2.02,-0.19 0.22,0.86 0.41,1.58 0.6,2.36 l 0.49,2.22 c 0.37,1.5 0.52,2.4 0.52,2.88 0,0.6 -0.15,0.87 -0.41,0.87 -0.15,0 -0.38,0 -0.6,-0.12 l -0.6,-0.22 -0.1,0.71 c 1.17,0.49 2.52,0.86 3.08,0.86 0.22,0 0.38,-0.1 0.45,-0.33 0.1,-0.27 0.11,-0.6 0.11,-1.02 1.09,0.87 2.03,1.39 2.66,1.39 0.45,0 1.02,-0.26 1.58,-0.64 -0.41,-0.86 -0.68,-1.65 -0.86,-2.43"/>
   </g>
   <g transform="translate(622.58,72.44)">
    <path d="m -438.26,325.75 -1.95,0 -1.01,-4.84 c -0.22,-1.23 -0.26,-1.57 -0.26,-1.76 0,-0.33 0.15,-0.52 0.45,-0.52 0.19,0 0.52,0.1 1.12,0.26 l 0.23,0.1 0.1,-0.67 c -1.23,-0.49 -2.51,-0.83 -3.18,-0.83 -0.49,0 -0.79,0.23 -0.79,0.68 0,0.38 0.1,0.98 0.26,1.72 0.23,0.83 0.38,1.5 0.56,2.4 l 0.72,3.49 -1.24,0 0.19,0.75 c 1.57,0.26 2.13,1.54 2.58,2.89 l 1.13,0.26 -0.6,-2.77 1.95,0 -0.23,-1.16 z"/>
   </g>
   <g transform="translate(622.78,72.517)">
    <path d="m -431.23,328.56 -0.75,0.64 2.85,3.22 2.14,-0.52 -4.24,-3.34 z m -2.58,-7.13 c -0.19,0 -0.42,0 -0.72,0 -0.1,-0.41 -0.1,-0.75 -0.1,-1.12 0,-1.2 0.41,-1.84 1.24,-1.84 0.75,0 1.68,0.41 3.07,1.27 l 0.26,-0.78 c -1.72,-1.09 -3.07,-1.62 -4.27,-1.62 -1.43,0 -2.25,0.9 -2.25,2.48 0,3.86 2.66,7.24 5.66,7.24 1.5,0 2.36,-0.68 2.36,-1.84 0,-2.18 -2.32,-3.83 -5.28,-3.83 m 2.4,4.73 c -1.13,0 -2.33,-1.54 -2.93,-3.83 l 0.22,0 c 2.22,0 3.87,1.13 3.87,2.67 0,0.63 -0.53,1.16 -1.16,1.16"/>
   </g>
   <g transform="translate(623.85,72.688)">
    <path d="m -391.85,334.79 -0.75,0.64 2.85,3.23 2.17,-0.53 -4.27,-3.34 z m 4.46,-5.02 -0.67,0 c 0,0.26 0,0.37 0,0.52 0,1.32 -0.82,1.77 -3.18,1.77 -0.79,0 -1.54,0 -2.29,-0.1 -0.53,-1.99 -0.86,-3.64 -1.24,-5.74 l 0.86,0 c 1.51,0 2.14,0 2.7,0.12 0.87,0.15 1.39,0.67 1.62,1.61 l 0.63,0 c -0.33,-1.39 -0.71,-3.38 -0.86,-4.58 l -0.63,0 c 0,0.19 0,0.3 0,0.42 0,1.01 -0.64,1.35 -2.59,1.35 -1.12,0 -1.57,0 -1.98,-0.1 -0.12,-0.56 0,0 -0.53,-2.77 -0.26,-1.32 -0.37,-2.14 -0.37,-2.55 0,-0.83 0.45,-1.05 1.98,-1.05 3,0 3.9,0.48 4.84,2.51 l 0.57,-0.23 c -0.49,-1.57 -1.09,-2.81 -1.4,-3.22 -0.26,-0.26 -0.55,-0.3 -1.53,-0.3 -0.83,0 -1.69,0 -2.51,0 -1.09,0 -2.18,0 -3.27,0 -1.08,0 -2.17,0 -3.3,0 l 0.12,0.48 c 0.71,0.1 1.12,0.3 1.42,0.75 0.41,0.45 0.64,1.13 0.98,2.44 0.29,1.31 0.37,1.88 0.93,4.5 l 0.38,1.88 c 0.37,1.83 0.52,2.96 0.52,3.56 0,1.05 -0.37,1.46 -1.38,1.57 l 0.1,0.53 10.73,0 c -0.27,-1.05 -0.53,-2.33 -0.68,-3.45"/>
   </g>
   <g transform="translate(624.28,72.44)">
    <path d="m -376.19,325.77 -1.57,0 c 0.26,-0.49 0.38,-0.91 0.38,-1.43 0,-2.18 -1.84,-3.83 -4.2,-3.83 -0.46,0 -0.79,0 -1.24,0.19 -0.6,-0.37 -0.79,-0.52 -0.79,-0.75 0,-0.26 0.26,-0.37 1.27,-0.67 l 1.88,-0.6 c 1.91,-0.6 2.81,-1.16 2.81,-2.52 0,-2.51 -2.47,-4.46 -5.62,-4.46 -2.59,0 -4.16,1.24 -4.16,3.23 0,1.83 1.19,2.7 3.11,3.19 -1.2,0.41 -1.43,0.63 -1.43,1.01 0,0.52 0.68,1.16 2.1,1.95 -0.75,0.52 -1.09,1.2 -1.09,2.13 0,2.25 1.77,3.94 4.13,3.94 0.6,0 1.05,-0.1 1.58,-0.26 l 3.11,0 -0.27,-1.16 z m -4.49,0.52 c -1.24,0 -2.29,-1.35 -2.29,-2.96 0,-1.09 0.6,-1.84 1.53,-1.84 1.24,0 2.25,1.28 2.25,2.89 0,1.16 -0.56,1.91 -1.49,1.91 m 0.37,-9.56 c -0.83,0.34 -1.8,0.67 -2.78,0.94 -1.61,-0.42 -2.73,-1.61 -2.73,-2.97 0,-1.27 1.08,-2.1 2.77,-2.1 2.03,0 3.94,1.39 3.94,2.89 0,0.57 -0.38,0.94 -1.2,1.24"/>
   </g>
   <g transform="translate(624.52,72.219)">
    <path d="m -367.57,317.7 c -0.41,0 -0.56,0.26 -0.79,1.43 -1.72,-1.02 -3,-1.47 -4.23,-1.47 -1.43,0 -2.25,0.75 -2.25,2.07 0,1.23 0.6,3 1.53,4.46 1.28,1.95 2.85,3.22 5.25,3.22 1.09,0 2.03,-0.18 3.04,-0.45 l -0.11,-0.37 c -0.86,-2.7 -1.46,-5.7 -1.46,-6.71 0,-0.64 0.15,-1.02 0.45,-1.02 0.15,0 0.67,0.15 1.23,0.38 l 0.1,-0.71 c -1.2,-0.49 -2.36,-0.83 -2.74,-0.83 m -1.09,8.7 c -0.94,0 -1.87,-0.67 -2.7,-2.02 -0.86,-1.43 -1.5,-3.34 -1.5,-4.58 0,-0.75 0.34,-1.12 0.94,-1.12 0.86,0 2.4,0.78 3,1.35 0.3,0.33 0.49,0.82 0.75,1.68 0.38,1.47 0.71,2.78 0.94,4.35 -0.53,0.23 -1.02,0.34 -1.43,0.34"/>
   </g>
   <g transform="translate(624.8,72.588)">
    <path d="m -357.42,331.18 c -0.79,-3.15 -1.57,-6.6 -2.29,-9.94 -0.26,-1.09 -0.37,-1.8 -0.37,-2.14 0,-0.37 0.19,-0.52 0.52,-0.52 0.23,0 0.68,0.11 1.28,0.3 l 0,-0.68 c -1.17,-0.45 -2.63,-0.86 -3.27,-0.86 -0.45,0 -0.71,0.26 -0.71,0.71 0,0.3 0.1,0.75 0.41,2.21 0.75,3.12 1.54,6.45 2.18,9.42 0.26,1.35 0.41,2.02 0.41,2.25 0,0.3 -0.15,0.41 -0.37,0.41 -0.27,0 -0.68,-0.1 -1.06,-0.23 l 0,0.72 c 1.2,0.41 2.51,0.75 3.15,0.75 0.33,0 0.48,-0.15 0.48,-0.41 0,-0.23 -0.1,-0.76 -0.37,-1.99"/>
   </g>
   <g transform="translate(624.95,72.541)">
    <path d="m -351.74,329.43 c -0.75,0 -1.2,0.45 -1.2,1.13 0,0.86 0.6,1.42 1.46,1.42 0.71,0 1.16,-0.41 1.16,-1.09 0,-0.82 -0.6,-1.46 -1.42,-1.46 m -2.55,-12.04 c -0.49,0 -0.79,0.27 -0.79,0.68 0,0.22 0.1,0.6 0.19,1.12 0.3,1.24 0.74,2.93 0.97,3.83 0.3,1.24 0.45,2.1 0.45,2.4 0,0.34 -0.15,0.45 -0.38,0.45 -0.22,0 -0.44,0 -0.93,-0.22 l -0.15,0 -0.1,0.67 c 1.27,0.49 2.54,0.79 3.18,0.79 0.38,0 0.49,-0.11 0.49,-0.38 0,-0.3 -0.11,-1.04 -0.53,-2.69 l -0.33,-1.39 c -0.6,-2.29 -0.75,-3.08 -0.75,-3.45 0,-0.38 0.18,-0.57 0.52,-0.57 0.23,0 0.64,0.1 1.31,0.3 l 0,-0.63 c -1.24,-0.49 -2.59,-0.87 -3.22,-0.87"/>
   </g>
   <g transform="translate(625.2,72.44)">
    <path d="m -342.71,325.75 -1.95,0 -1.02,-4.84 c -0.22,-1.23 -0.26,-1.57 -0.26,-1.76 0,-0.33 0.15,-0.52 0.45,-0.52 0.19,0 0.53,0.1 1.09,0.26 l 0.26,0.1 0.1,-0.67 c -1.24,-0.49 -2.52,-0.83 -3.19,-0.83 -0.49,0 -0.83,0.23 -0.83,0.68 0,0.38 0.12,0.98 0.3,1.72 0.19,0.83 0.38,1.5 0.57,2.4 l 0.71,3.49 -1.24,0 0.15,0.75 c 1.62,0.26 2.18,1.54 2.63,2.89 l 1.12,0.26 -0.6,-2.77 1.95,0 -0.22,-1.16 z"/>
   </g>
   <g transform="translate(625.39,72.517)">
    <path d="m -335.68,328.56 -0.75,0.64 2.85,3.22 2.14,-0.52 -4.24,-3.34 z m -2.63,-7.13 c -0.14,0 -0.37,0 -0.67,0 -0.1,-0.41 -0.1,-0.75 -0.1,-1.12 0,-1.2 0.42,-1.84 1.24,-1.84 0.75,0 1.69,0.41 3.08,1.27 l 0.26,-0.78 c -1.76,-1.09 -3.08,-1.62 -4.27,-1.62 -1.43,0 -2.26,0.9 -2.26,2.48 0,3.86 2.63,7.24 5.67,7.24 1.5,0 2.36,-0.68 2.36,-1.84 0,-2.18 -2.33,-3.83 -5.33,-3.83 m 2.44,4.73 c -1.12,0 -2.32,-1.54 -2.92,-3.83 l 0.22,0 c 2.21,0 3.87,1.13 3.87,2.67 0,0.63 -0.53,1.16 -1.17,1.16"/>
   </g>
   <g transform="translate(626.58,72.555)">
    <path d="m -292.27,329.94 -0.68,0 c 0,0.23 0,0.41 0,0.52 0,0.49 -0.15,0.87 -0.45,1.17 -0.45,0.41 -1.28,0.56 -3.04,0.56 -0.49,0 -1.16,0 -1.76,0 -0.41,-1.95 -0.79,-3.79 -1.24,-5.77 0.45,0 0.9,0 1.35,0 2.63,0 3.15,0.22 3.64,1.76 l 0.64,0 c -0.38,-1.54 -0.68,-3.04 -0.91,-4.57 l -0.67,0 c 0,0.15 0.1,0.3 0.1,0.37 0,0.41 -0.19,0.79 -0.45,1.01 -0.42,0.3 -0.87,0.38 -2.29,0.38 -0.75,0 -0.98,0 -1.58,0 l -0.3,-1.61 c -0.45,-2.25 -0.63,-3.3 -0.63,-3.97 0,-0.98 0.45,-1.39 1.38,-1.51 l -0.1,-0.52 -0.38,0 c -0.18,0 -1.23,0 -2.13,0 -0.94,0 -2.67,0 -3,0 l -0.38,0 0.1,0.52 c 0.71,0 1.16,0.27 1.46,0.72 0.37,0.48 0.64,1.12 0.94,2.43 0.33,1.35 0.48,2.07 0.97,4.5 l 0.34,1.88 c 0.41,1.87 0.52,3 0.52,3.56 0,1.05 -0.37,1.46 -1.35,1.58 l 0.1,0.52 10.46,0 c -0.26,-1.05 -0.49,-2.29 -0.67,-3.41"/>
   </g>
   <g transform="translate(626.8,72.397)">
    <path d="m -284.46,324.19 -0.79,0.1 c 0,0.26 0.1,0.6 0.1,0.9 0,0.45 -0.37,0.75 -0.97,0.75 -0.34,0 -0.67,-0.22 -1.01,-0.56 -0.86,-1.01 -1.24,-2.63 -1.77,-5.25 l -0.44,-2.25 c -0.91,-0.1 -1.13,-0.1 -2.03,-0.19 0.22,0.86 0.38,1.58 0.56,2.36 l 0.53,2.22 c 0.37,1.5 0.52,2.4 0.52,2.88 0,0.6 -0.15,0.87 -0.41,0.87 -0.15,0 -0.38,0 -0.6,-0.12 l -0.6,-0.22 -0.1,0.71 c 1.17,0.49 2.52,0.86 3.08,0.86 0.22,0 0.38,-0.1 0.45,-0.33 0,-0.27 0.11,-0.6 0.11,-1.02 1.09,0.87 2.03,1.39 2.66,1.39 0.45,0 1.02,-0.26 1.58,-0.64 -0.41,-0.86 -0.68,-1.65 -0.86,-2.43"/>
   </g>
   <g transform="translate(627.04,72.219)">
    <path d="m -275.43,317.7 c -0.41,0 -0.56,0.26 -0.78,1.43 -1.73,-1.02 -3,-1.47 -4.24,-1.47 -1.43,0 -2.25,0.75 -2.25,2.07 0,1.23 0.6,3 1.54,4.46 1.27,1.95 2.85,3.22 5.25,3.22 1.08,0 2.02,-0.18 3.03,-0.45 l -0.11,-0.37 c -0.86,-2.7 -1.46,-5.7 -1.46,-6.71 0,-0.64 0.15,-1.02 0.45,-1.02 0.15,0 0.68,0.15 1.24,0.38 l 0.11,-0.71 c -1.24,-0.49 -2.4,-0.83 -2.78,-0.83 m -1.08,8.7 c -0.94,0 -1.88,-0.67 -2.7,-2.02 -0.87,-1.43 -1.5,-3.34 -1.5,-4.58 0,-0.75 0.33,-1.12 0.93,-1.12 0.87,0 2.4,0.78 3,1.35 0.3,0.33 0.49,0.82 0.75,1.68 0.38,1.47 0.72,2.78 0.94,4.35 -0.52,0.23 -1.01,0.34 -1.42,0.34"/>
   </g>
   <g transform="translate(627.34,72.44)">
    <path d="m -264.49,325.75 -1.95,0 -1.02,-4.84 c -0.22,-1.23 -0.26,-1.57 -0.26,-1.76 0,-0.33 0.15,-0.52 0.45,-0.52 0.19,0 0.52,0.1 1.09,0.26 l 0.26,0.1 0.1,-0.67 c -1.23,-0.49 -2.51,-0.83 -3.18,-0.83 -0.49,0 -0.83,0.23 -0.83,0.68 0,0.38 0.11,0.98 0.3,1.72 0.19,0.83 0.38,1.5 0.57,2.4 l 0.71,3.49 -1.24,0 0.15,0.75 c 1.61,0.26 2.17,1.54 2.62,2.89 l 1.13,0.26 -0.6,-2.77 1.95,0 -0.22,-1.16 z"/>
   </g>
   <g transform="translate(627.47,72.327)">
    <path d="m -260.01,321.64 c -0.15,0 -0.37,0 -0.67,0 -0.1,-0.41 -0.12,-0.79 -0.12,-1.12 0,-1.2 0.45,-1.88 1.24,-1.88 0.79,0 1.73,0.41 3.11,1.27 l 0.27,-0.78 c -1.77,-1.09 -3.08,-1.58 -4.28,-1.58 -1.46,0 -2.25,0.87 -2.25,2.44 0,3.9 2.63,7.28 5.66,7.28 1.51,0 2.37,-0.68 2.37,-1.88 0,-2.18 -2.33,-3.79 -5.33,-3.79 m 2.44,4.69 c -1.13,0 -2.33,-1.54 -2.93,-3.82 l 0.23,0 c 2.21,0 3.82,1.16 3.82,2.66 0,0.67 -0.48,1.16 -1.12,1.16"/>
   </g>
   <g transform="translate(627.86,72.397)">
    <path d="m -245.64,324.19 -0.79,0.1 c 0,0.26 0.1,0.6 0.1,0.9 0,0.45 -0.38,0.75 -0.98,0.75 -0.34,0 -0.67,-0.22 -1.01,-0.56 -0.86,-1.01 -1.24,-2.63 -1.76,-5.25 l -0.45,-2.25 c -0.87,-0.1 -1.13,-0.1 -2.03,-0.19 0.22,0.86 0.41,1.58 0.6,2.36 l 0.49,2.22 c 0.37,1.5 0.52,2.4 0.52,2.88 0,0.6 -0.15,0.87 -0.41,0.87 -0.15,0 -0.37,0 -0.6,-0.12 l -0.6,-0.22 -0.1,0.71 c 1.16,0.49 2.51,0.86 3.07,0.86 0.23,0 0.38,-0.1 0.45,-0.33 0.1,-0.27 0.11,-0.6 0.11,-1.02 1.09,0.87 2.03,1.39 2.67,1.39 0.45,0 1.01,-0.26 1.57,-0.64 -0.41,-0.86 -0.67,-1.65 -0.86,-2.43"/>
   </g>
   <g transform="translate(628.11,72.219)">
    <path d="m -236.5,317.7 c -0.45,0 -0.75,0.3 -0.75,0.72 0,0.26 0.1,0.78 0.37,1.98 l 0.23,0.98 c 0.71,2.92 0.9,3.94 0.9,4.35 0,0.34 -0.19,0.52 -0.53,0.52 -0.37,0 -1.05,-0.22 -1.76,-0.67 -0.75,-0.41 -1.31,-0.9 -1.61,-1.35 -0.19,-0.34 -0.34,-0.94 -0.64,-2.18 -0.37,-1.72 -0.6,-2.92 -0.79,-4.01 -0.93,-0.1 -1.16,-0.11 -2.1,-0.22 0.49,1.76 0.83,3.22 1.2,4.87 0.34,1.58 0.49,2.33 0.49,2.74 0,0.56 -0.19,0.82 -0.52,0.82 -0.19,0 -0.61,-0.11 -1.17,-0.3 l 0,0.68 c 1.12,0.45 2.36,0.79 2.92,0.79 0.53,0 0.68,-0.34 0.68,-1.43 l 0,-0.19 c 1.8,1.02 3.6,1.62 4.91,1.62 0.75,0 1.09,-0.19 1.09,-0.68 0,-0.49 -0.15,-1.27 -0.68,-3.19 -0.26,-1.05 -0.52,-2.25 -0.64,-2.73 -0.11,-0.68 -0.18,-1.13 -0.18,-1.35 0,-0.38 0.18,-0.57 0.52,-0.57 0.19,0 0.64,0.1 1.24,0.3 l 0,-0.67 c -1.24,-0.45 -2.63,-0.83 -3.19,-0.83"/>
   </g>
   <g transform="translate(628.37,72.541)">
    <path d="m -226.85,329.43 c -0.75,0 -1.2,0.45 -1.2,1.13 0,0.86 0.6,1.42 1.46,1.42 0.71,0 1.12,-0.41 1.12,-1.09 0,-0.82 -0.56,-1.46 -1.38,-1.46 m -2.55,-12.04 c -0.49,0 -0.79,0.27 -0.79,0.68 0,0.22 0.1,0.6 0.19,1.12 0.3,1.24 0.71,2.93 0.97,3.83 0.3,1.24 0.45,2.1 0.45,2.4 0,0.34 -0.15,0.45 -0.38,0.45 -0.22,0 -0.44,0 -0.93,-0.22 l -0.19,0 0,0.67 c 1.28,0.49 2.55,0.79 3.19,0.79 0.34,0 0.49,-0.11 0.49,-0.38 0,-0.3 -0.12,-1.04 -0.53,-2.69 l -0.37,-1.39 c -0.56,-2.29 -0.71,-3.08 -0.71,-3.45 0,-0.38 0.18,-0.57 0.52,-0.57 0.22,0 0.64,0.1 1.31,0.3 l 0,-0.63 c -1.24,-0.49 -2.59,-0.87 -3.22,-0.87"/>
   </g>
   <g transform="translate(628.62,72.44)">
    <path d="m -217.84,325.75 -1.95,0 -1.01,-4.84 c -0.23,-1.23 -0.26,-1.57 -0.26,-1.76 0,-0.33 0.15,-0.52 0.45,-0.52 0.19,0 0.52,0.1 1.09,0.26 l 0.26,0.1 0.1,-0.67 c -1.23,-0.49 -2.51,-0.83 -3.18,-0.83 -0.49,0 -0.79,0.23 -0.79,0.68 0,0.38 0.1,0.98 0.26,1.72 0.19,0.83 0.38,1.5 0.56,2.4 l 0.72,3.49 -1.24,0 0.15,0.75 c 1.61,0.26 2.17,1.54 2.62,2.89 l 1.13,0.26 -0.6,-2.77 1.95,0 -0.23,-1.16 z"/>
   </g>
   <g transform="translate(628.81,72.517)">
    <path d="m -210.81,328.56 -0.75,0.64 2.86,3.22 2.13,-0.52 -4.24,-3.34 z m -2.58,-7.13 c -0.19,0 -0.42,0 -0.72,0 -0.1,-0.41 -0.1,-0.75 -0.1,-1.12 0,-1.2 0.41,-1.84 1.24,-1.84 0.75,0 1.68,0.41 3.07,1.27 l 0.26,-0.78 c -1.72,-1.09 -3.07,-1.62 -4.27,-1.62 -1.43,0 -2.25,0.9 -2.25,2.48 0,3.86 2.66,7.24 5.66,7.24 1.5,0 2.37,-0.68 2.37,-1.84 0,-2.18 -2.33,-3.83 -5.29,-3.83 m 2.4,4.73 c -1.13,0 -2.33,-1.54 -2.93,-3.83 l 0.23,0 c 2.21,0 3.86,1.13 3.86,2.67 0,0.63 -0.53,1.16 -1.16,1.16"/>
   </g>
   <g transform="translate(625.87,72.336)">
    <path d="m -318.24,321.97 c 1.58,0 2.85,1.28 2.85,2.85 0,1.58 -1.27,2.85 -2.85,2.85 -1.57,0 -2.85,-1.27 -2.85,-2.85 0,-1.57 1.28,-2.85 2.85,-2.85"/>
   </g>
   <g transform="translate(623.25,72.336)">
    <path d="m -413.71,321.97 c 1.57,0 2.84,1.28 2.84,2.85 0,1.58 -1.27,2.85 -2.84,2.85 -1.58,0 -2.85,-1.27 -2.85,-2.85 0,-1.57 1.27,-2.85 2.85,-2.85"/>
   </g>
   <g transform="translate(621.06,71.943)">
    <path d="m -493.79,307.6 293.59,0" style="fill:none;stroke:#000000;stroke-width:0.012"/>
   </g>
   <path d="m 127.69,419.53 293.89,0 0,98.63 -293.89,0 0,-98.63 z" style="fill:#ffffff"/>
   <g>
    <g style="clip-path:url(#clipPath5572)">
     <g transform="translate(623.41,74.005)">
      <path d="m -408.03,382.87 c -2.67,-0.79 -5.4,-0.9 -7.84,-2.25 5.81,0.22 11.66,-0.68 17.25,-2.44 2.02,-0.71 3.83,-1.61 5.62,-2.74 0.9,-0.67 1.35,-1.31 2.25,-1.76 1.13,-0.68 2.7,-0.68 3.83,-0.23 l 1.12,0 c 3.34,0.91 6.94,1.8 9.19,4.24 0,-0.22 0.23,-0.22 0.45,-0.22 -0.67,-1.8 -0.67,-3.79 -2.02,-5.36 0,-0.23 -0.23,-0.68 0.22,-0.91 l 0.45,0 c -0.22,0 -0.45,0 -0.45,-0.22 0,-0.45 0.68,0 0.9,-0.45 -1.12,-0.22 -2.25,-0.45 -2.92,-1.35 0,-0.23 0.45,-0.23 0.67,-0.23 -0.45,-0.45 -1.12,-0.22 -1.35,-0.67 0,0 0.23,-0.22 0.45,-0.22 -0.22,0 -0.45,0 -0.45,-0.23 l 0,-0.67 c -0.67,0 -0.9,-0.46 -1.35,-0.68 0.94,-0.67 1.58,0 2.48,0 -2.48,-0.9 -4.47,-2.25 -6.94,-2.93 -0.45,0 0,-0.67 -0.45,-0.67 0.67,-0.45 1.12,0.23 1.8,0.23 -3.15,-1.8 -6.3,-3.38 -9.67,-5.41 0,0 -0.46,-0.41 -0.46,-0.86 l -0.9,0 c -0.45,-0.22 -0.22,-0.9 -0.67,-1.35 1.12,-0.67 2.47,0.9 3.15,0 0.22,0 -0.45,-0.22 -0.9,-0.22 -0.22,0 -0.22,-0.45 -0.45,-0.45 l -0.68,0 c -0.45,-0.45 -0.9,-0.68 -0.9,-1.35 -0.45,0 -0.9,0 -1.08,-0.45 4.91,0.67 10.08,0.22 14.81,2.7 3.56,1.8 6.94,4.23 9.86,7.39 0,0 0.23,-0.23 0.23,-0.45 -0.68,-2.22 -2.03,-3.83 -3.83,-5.14 -1.35,-0.68 -2.25,-1.8 -3.37,-2.25 -0.68,-0.45 -1.35,-0.9 -2.03,-1.35 -8.29,-2.93 -18.19,-1.58 -25.35,-7.2 0,0.22 -0.22,0.22 -0.45,0.22 -0.45,-0.45 -1.12,-0.67 -1.35,-1.12 0,-0.42 0.68,-0.19 0.9,-0.19 1.35,0.86 2.7,1.54 4.28,1.99 -1.8,-0.9 -3.6,-2.22 -5.4,-2.7 -3.83,-0.64 -7.39,-0.45 -11.22,0 2.22,1.35 4.47,2.92 6.94,4.27 -0.67,0.45 -1.31,0.45 -1.99,0.45 -1.12,-0.22 -2.47,0.45 -3.6,0 -3.37,-1.57 -7.87,-1.12 -9.67,-4.72 -22.43,-0.45 -45.11,0 -67.58,0 0.49,24.48 0,48.71 0.68,73.2 0.22,8.74 -0.19,17.51 -0.19,26.25 6.04,1.12 12.11,0.45 18.15,0.22 38.85,0 77.44,0.23 116.29,0 -2.7,-1.35 -5.85,-2.47 -7.88,-4.95 -1.76,-2.21 -3.56,-4.46 -4.23,-7.16 -2.93,-1.8 -4.73,-4.5 -6.3,-7.2 -2.03,-3.83 -4.92,-7.16 -4.5,-11.44 0.48,-3.6 1.38,-6.94 2.02,-10.76 0.23,-1.35 0.45,-2.47 0.9,-3.83 0.49,-1.35 0,-2.92 0.68,-4.05 0.45,-0.67 0.22,-1.57 1.12,-1.98 l 0,-0.94 c 0.23,-0.22 0.23,-0.41 0.68,-0.41 l 0,-0.9 c 1.8,-2.25 4.05,-4.28 5.17,-6.75 0.45,-1.35 -2.25,-0.68 -3.37,-0.23 -2.25,1.13 -3.6,2.93 -5.4,4.5 0,0 -0.19,-0.22 -0.19,-0.45 0.86,-1.57 4.24,-3.6 2.44,-4.72 -0.9,-0.45 -2.03,0.67 -2.93,-0.23 -0.22,-0.45 0,-0.9 0,-1.35 -1.31,0.9 -2.66,0.45 -4.01,0.9 -0.9,0.23 -1.13,2.03 -2.25,2.03 -2.93,0.67 -5.63,1.35 -8.55,1.57 -4.01,0.45 -7.84,1.13 -11.89,0.45 -3.6,-0.22 -6.3,-2.92 -8.51,-5.62 l 0,-0.68 c 1.54,-0.22 2.21,1.13 3.6,1.58 2.21,0.45 4.24,1.35 6.49,1.8 3.37,0.67 6.52,1.57 9.63,1.35 0.68,0 1.58,0.22 2.25,0 -4.01,0.22 -7.61,-1.13 -11.43,-2.25" style="fill:#204fa0"/>
     </g>
    </g>
   </g>
   <g transform="translate(623.08,73.717)">
    <path d="m -420.27,372.38 c -0.71,-0.19 -1.35,-0.67 -1.12,-1.12 0.67,-0.9 2.02,0.22 3.15,0.22 -1.35,-0.45 -2.93,-0.22 -4.05,-1.35 0.9,-0.67 1.8,-0.22 2.7,-0.22 0,-0.45 0.45,-0.45 0.67,-0.68 -1.13,-0.45 -2.02,-1.35 -2.25,-2.02 -0.45,-1.13 -1.57,-1.58 -2.25,-2.44 l 0,-0.71 c -2.25,-2.03 -4.69,-3.34 -6.49,-5.82 0.23,0 0.23,-0.22 0.23,-0.45 -0.45,-0.67 -1.35,-0.9 -1.58,-1.57 0,-0.23 0,-0.45 0.23,-0.45 2.66,0.9 4.69,2.92 7.16,3.82 1.8,0.45 3.15,1.58 4.73,2.03 1.12,0.22 2.47,0.64 3.59,0.9 0,-0.26 0,-0.49 0.23,-0.49 l 1.8,0 c -0.22,-0.41 -1.12,-0.19 -0.9,-0.41 0.68,-0.68 1.99,-0.45 2.89,0 0.67,0.41 1.39,0.41 2.25,0.41 0.22,0 0.22,0.49 0.22,0.72 0.68,-0.23 1.13,-0.23 1.8,-0.23 5.4,1.12 10.54,2.25 15.49,4.69 -5.85,4.5 -13.24,6.07 -20.17,8.1 0.67,0 1.31,-0.68 2.02,0 -1.16,0.9 -2.51,0.45 -3.6,1.12 0.19,0 0.68,-0.22 0.86,0.23 -1.76,0.9 -3.56,0.9 -5.36,1.35 1.13,0.22 1.8,1.08 1.8,2.21 0,0.26 -0.45,0.26 -0.67,0.26 -2.7,-1.39 -4.5,-3.82 -5.63,-6.75 1.58,-0.9 3.38,-0.22 4.95,-0.45 -0.67,-0.67 -1.8,-0.67 -2.7,-0.9" style="fill:#ffffff"/>
   </g>
   <g transform="translate(622.83,73.951)">
    <path d="m -429.22,380.9 c -2.29,-2.44 -4.69,-4.72 -7.62,-6.3 -2.02,-4.05 -4.27,-7.61 -7.2,-11.44 0,-0.22 0.23,-0.45 0.23,-0.45 5.4,6.08 10.31,11.22 17.29,15.49 0.45,0.23 -0.68,-0.67 0.22,-0.45 2.93,0.68 3.79,3.6 5.18,5.85 1.76,2.93 4.91,4.01 7.16,6.49 0,-0.19 0,-0.45 -0.23,-0.68 0.23,-0.18 0.46,-0.18 0.68,-0.18 0.9,0.67 2.03,0.41 2.7,1.31 -1.8,0.71 -4.05,0.9 -5.85,0.22 -4.73,-2.25 -8.74,-5.81 -12.56,-9.86" style="fill:#ffffff"/>
   </g>
   <g transform="translate(622.92,73.837)">
    <path d="m -425.95,376.75 c 0.19,0.38 0.45,0.45 0.68,0.9 0,0.23 0,0.45 -0.23,0.45 -0.9,-0.22 -1.57,-1.12 -1.8,-2.02 0,-0.23 0.23,-0.23 0.45,-0.23 0.45,0.23 0.68,0.45 0.9,0.9" style="fill:#ffffff"/>
   </g>
   <g transform="translate(623.4,73.382)">
    <path d="m -408.47,360.15 c -0.9,-0.45 -2.47,-0.45 -2.7,-1.58 -0.22,-0.45 0.68,-0.22 1.13,-0.22 1.57,0.67 3.37,0 4.72,1.35 -0.45,0.45 -1.12,0.22 -1.57,0.9 -0.45,0.22 -1.13,-0.23 -1.58,-0.45" style="fill:#ffffff"/>
   </g>
   <g>
    <g style="clip-path:url(#clipPath5572)">
     <g transform="translate(624.05,73.059)">
      <path d="m -384.66,348.35 c 1.39,0.3 2.71,1.12 4.05,1.57 l 0,-0.45 c 3.38,1.35 5.82,4.28 9.19,5.4 0.23,0 0.68,-0.45 1.13,-0.22 2.02,1.8 4.27,3.82 7.2,3.33 0,-0.22 0,-0.45 0.22,-0.45 0.23,0 0.45,0 0.45,0.23 -0.9,-0.68 -1.8,-1.31 -2.7,-1.99 -0.22,-0.22 0,-0.45 0.23,-0.45 1.12,0.45 1.8,1.35 2.89,1.76 -0.23,-0.18 -0.23,-0.63 -0.42,-0.9 -4.27,-3.11 -7.42,-6.71 -10.8,-10.53 l -6.94,0 c 0,0.22 0,0.45 -0.22,0.45 -7.88,-0.68 -15.49,-0.45 -23.36,-0.45 4.5,0.67 8.96,2.02 13.46,2.47 1.8,0 3.6,-0.22 5.62,0.23" style="fill:#204fa0"/>
     </g>
    </g>
   </g>
   <g>
    <g style="clip-path:url(#clipPath5572)">
     <g transform="translate(626.41,73.364)">
      <path d="m -298.57,359.49 c 0.56,1.61 1.12,3.37 0.22,4.95 -1.35,2.02 1.35,2.66 2.25,4.01 0.68,1.16 -0.45,1.8 -0.67,2.93 -0.23,0.45 -1.13,0.22 -1.58,0.9 1.58,0.67 4.05,2.02 2.93,4.05 -0.68,1.12 -1.8,2.92 -0.45,4.05 1.57,0.9 4.01,0.67 4.72,2.25 1.13,2.66 -1.35,4.91 -2.74,7.16 -0.63,1.35 -1.53,2.25 -2.43,3.6 -0.9,1.57 -2.03,2.92 -2.48,4.69 -0.67,1.8 0.23,3.37 0.23,5.17 0.22,3.38 -0.68,6.75 -1.58,10.13 -0.67,1.53 -0.9,3.33 -1.57,4.91 -0.23,0.9 -0.45,1.8 -1.13,2.7 -0.22,0.45 -0.22,1.13 0,1.57 0.9,0.68 1.8,1.35 2.7,2.25 0.68,1.13 0.23,2.7 -0.9,3.38 -1.57,0.67 -1.35,-1.57 -2.47,-2.02 l -0.68,0 c -0.22,0.67 0.23,0.89 0.68,1.34 0,0.23 0,0.68 -0.23,0.68 -0.9,0 -1.76,0.22 -2.02,0.67 -2.22,3.15 -5.37,4.69 -8.74,6.04 0.9,-0.22 1.8,-0.45 2.7,-0.45 1.57,-0.22 3.37,-0.22 4.72,0.45 1.09,0.45 1.32,2.25 1.8,3.38 0.42,0.9 -0.22,2.25 -0.71,2.92 -1.09,1.8 -2.92,2.93 -4.69,3.83 l 106.39,0 c 0.23,-33.27 -0.22,-66.45 -0.45,-99.68 -41.96,-0.67 -83.96,0 -125.93,0 1.36,4.5 3.83,8.74 7.88,11.66 0.86,0.45 1.99,0.68 3.11,0.9 3.83,0 7.65,-1.12 11.48,-1.57 0.45,0 0.9,-0.23 1.31,-0.45 1.39,-0.22 2.93,-0.22 4.28,0.22 1.57,0.45 3.37,1.35 4.05,3.38" style="fill:#eb2325"/>
     </g>
    </g>
   </g>
   <g transform="translate(626.18,74.543)">
    <path d="m -306.87,402.53 c -1.32,0.34 -2.48,0 -3.83,0 -1.8,-0.45 -3.37,-0.67 -4.91,-1.35 1.31,0.9 2.66,1.8 4.24,2.25 1.12,0.23 2.25,0.9 3.37,0.9 1.35,0.23 2.7,0.68 3.83,0.23 1.12,-0.45 2.92,-0.45 3.11,-1.13 0.49,-1.35 -0.64,-2.7 -1.99,-3.6 -0.22,-0.45 0.68,-0.67 0.68,-1.12 -0.23,-0.46 -0.9,-0.68 -1.35,-0.68 -0.45,-0.19 -0.9,-0.9 -1.36,-1.35 0.46,0 0,-0.68 0.46,-0.68 -0.9,-1.08 0.45,-3.33 -0.9,-3.82 -1.58,-0.41 -3.38,-0.41 -5.18,0 0.9,0.23 2.03,-0.19 2.7,0.71 l 0,0.9 c 0,0.19 -0.22,0.19 -0.45,0.19 -0.22,-0.19 -0.45,-0.19 -0.45,-0.19 0,0.45 -0.45,0.9 -0.68,0.9 -1.34,-0.26 -2.47,0.42 -3.37,1.31 0.68,0.23 1.39,0.46 2.03,0.23 0.67,0 0.45,1.13 1.12,1.61 l 0.68,0 c 1.35,1.77 4.04,2.22 4.5,4.02 0,0.45 -1.35,0.45 -2.25,0.67" style="fill:#94999e"/>
   </g>
   <path d="m 127.21,128.87 294.63,0 0,163.69 -294.63,0 0,-163.69 z" style="fill:#204fa0"/>
   <g>
    <g style="clip-path:url(#clipPath5630)">
     <g transform="translate(621.2,66.182)">
      <path d="m -488.82,97.332 c -0.23,2.437 -1.77,3.828 -4.17,3.828 -2.66,0 -4.27,-2.328 -4.27,-6.828 0,-3.262 0.71,-6.337 4.61,-6.3 2.44,0 3.6,1.687 3.9,3.937 l 7.35,0 c -0.68,-6 -4.99,-9.637 -11.1,-9.637 -7.73,0 -12.37,4.688 -12.37,12.262 0,7.536 5.06,12.226 11.58,12.226 7.09,0 11.07,-3.49 11.7,-9.488 l -7.23,0 z" style="fill:#ffffff"/>
     </g>
    </g>
   </g>
   <g transform="translate(621.71,66.143)">
    <path d="m -470.12,95.905 c 1.76,0.112 2.85,-1.762 2.85,-4.275 0,-3.187 -1.09,-4.575 -2.89,-4.575 -1.72,0 -2.92,1.388 -2.92,4.575 0,1.913 0.67,4.275 2.96,4.275 m -9.71,-4.612 c 0,-5.813 4.24,-8.775 9.67,-8.775 5.44,0 9.64,2.925 9.6,9.15 0,5.25 -3.71,8.772 -9.67,8.772 -5.74,0 -9.6,-3.298 -9.6,-9.147" style="fill:#ffffff"/>
   </g>
   <g transform="translate(622.03,66.251)">
    <path d="m -458.26,99.858 6.19,0 0,-2.512 c 0.82,1.275 2.92,3.004 5.36,3.004 3.03,0 4.72,-1.279 5.51,-3.079 1.46,2.024 3.38,3.079 5.85,3.079 4.95,0 6.53,-2.742 6.53,-7.392 l 0,-10.012 -6.72,0 0,8.624 c 0,2.513 -0.45,3.488 -2.25,3.488 -1.99,0 -2.37,-1.725 -2.37,-3.75 l 0,-8.362 -6.75,-0.04 0,8.662 c 0,2.476 -0.49,3.488 -2.25,3.488 -1.99,0 -2.36,-1.725 -2.36,-3.75 l 0,-8.4 -6.71,0 0,16.95 z" style="fill:#ffffff"/>
   </g>
   <g transform="translate(622.9,66.252)">
    <path d="m -426.79,99.895 6.19,0 0,-2.511 c 0.83,1.275 2.92,2.996 5.36,2.996 3.04,0 4.73,-1.272 5.52,-3.071 1.46,2.023 3.37,3.071 5.85,3.071 4.94,0 6.52,-2.735 6.52,-7.383 l 0,-10.014 -6.71,0 0,8.624 c 0,2.513 -0.45,3.489 -2.25,3.489 -1.99,0 -2.36,-1.726 -2.36,-3.749 l 0,-8.364 -6.75,-0.04 0,8.66 c 0,2.477 -0.48,3.489 -2.25,3.489 -1.98,0 -2.36,-1.726 -2.36,-3.749 l 0,-8.4 -6.71,0 0,16.948 z" style="fill:#ffffff"/>
   </g>
   <g transform="translate(624.25,65.802)">
    <path d="m -377.26,83.463 -6.22,0 0,2.477 c -1.73,-2.326 -3.34,-2.964 -6.11,-3.001 -3.72,0 -6.08,2.286 -6.12,7.125 l 0,10.306 6.72,0 0,-9.183 c 0,-2.326 0.79,-3.076 2.4,-3.076 1.95,0 2.59,1.501 2.55,4.087 l 0,8.172 6.72,0 0,-16.947 z" style="fill:#ffffff"/>
   </g>
   <g transform="translate(624.34,66.254)">
    <path d="m -374.23,99.956 6.15,0 0,-2.625 c 1.5,2.025 3.15,3.109 5.7,3.109 4.46,0 6.57,-2.584 6.6,-7.234 l 0,-10.162 -6.71,-0.04 0,8.962 c 0,1.688 -0.45,3.188 -2.36,3.188 -2.06,0 -2.59,-1.35 -2.59,-3.488 l 0,-8.662 -6.71,0 0,16.95 z" style="fill:#ffffff"/>
   </g>
   <g transform="translate(624.92,66.44)">
    <path d="m -352.81,106.75 0,-4.8 6.72,0 0,4.8 -6.75,0 z m 0,-6.939 0,-16.95 6.76,0 0,16.95 -6.72,0 z" style="fill:#ffffff"/>
   </g>
   <g transform="translate(625.51,66.083)">
    <path d="m -331.45,93.715 c 0,0.75 -0.3,1.313 -0.71,1.763 -0.41,0.45 -1.01,0.675 -1.76,0.637 -2.51,0 -2.93,-2.587 -2.93,-4.612 0,-2.551 0.98,-4.237 2.97,-4.237 1.72,0 2.4,1.199 2.58,2.549 l 6.83,0 c -0.6,-5.137 -4.73,-7.049 -9.41,-7.049 -5.48,-0.04 -9.68,3.037 -9.68,8.774 0,5.776 4.05,9.11 9.64,9.11 4.54,0 8.81,-1.909 9.3,-6.935 l -6.83,0 z" style="fill:#ffffff"/>
   </g>
   <g transform="translate(626,65.893)">
    <path d="m -313.63,86.78 c -1.31,0 -2.14,0.6 -2.14,1.425 0,2.176 2.93,1.688 5.1,2.737 0.19,-2.324 -0.6,-4.162 -2.96,-4.162 m 10.62,-3.3 0,0.301 c -0.87,0.712 -0.91,1.199 -0.91,2.174 l 0,7.913 c 0,4.05 -0.52,7.012 -8.54,7.012 -6.68,0 -9.23,-2.099 -9.23,-5.7 l 6.49,0 c 0.15,1.463 1.38,1.65 2.36,1.65 0.67,0 2.17,-0.15 2.17,-1.388 0,-3.149 -12.07,0.301 -12.03,-7.387 0,-3.525 2.85,-5.099 6.03,-5.099 2.55,0 4.47,0.524 6.38,2.324 l 0.3,-1.837 6.98,0.04 z" style="fill:#ffffff"/>
   </g>
   <g transform="translate(626.65,65.805)">
    <path d="m -289.86,83.568 c -8.81,-0.488 -9.9,0.112 -9.9,5.962 l 0,7.086 -2.4,0 0,3.904 2.48,0 0,5.25 6.63,0 0,-5.25 3.23,0 0,-3.904 -3.23,0 0,-6.111 c 0,-1.574 0.23,-2.101 2.11,-2.101 l 1.08,0 0,-4.836 z" style="fill:#ffffff"/>
   </g>
   <g transform="translate(626.74,66.442)">
    <path d="m -286.36,106.81 0,-4.76 6.71,0 0,4.8 -6.71,0 z m 0,-6.933 0,-16.949 6.71,0.04 0,16.912 -6.75,0 z" style="fill:#ffffff"/>
   </g>
   <g transform="translate(627.27,66.149)">
    <path d="m -267.27,96.15 c 1.76,0.113 2.85,-1.762 2.85,-4.275 0,-3.186 -1.09,-4.573 -2.89,-4.573 -1.72,0 -2.92,1.387 -2.92,4.573 0,1.913 0.67,4.275 2.96,4.275 m -9.71,-4.612 c 0,-5.813 4.23,-8.775 9.67,-8.775 5.44,0 9.64,2.925 9.6,9.151 0,5.25 -3.71,8.776 -9.67,8.776 -5.74,0 -9.6,-3.301 -9.6,-9.152" style="fill:#ffffff"/>
   </g>
   <g transform="translate(627.59,66.258)">
    <path d="m -255.32,100.1 6.15,0 0,-2.627 c 1.5,2.026 3.15,3.117 5.7,3.117 4.46,0 6.56,-2.591 6.6,-7.241 l 0,-10.162 -6.71,-0.04 0,8.962 c 0,1.688 -0.45,3.188 -2.36,3.188 -2.07,0 -2.59,-1.35 -2.59,-3.488 l 0,-8.662 -6.71,0 0,16.953 z" style="fill:#ffffff"/>
   </g>
   <g transform="translate(626.17,67.258)">
    <path d="m -307.28,136.63 c -0.22,2.43 -1.76,3.82 -4.12,3.82 -2.7,0 -4.31,-2.29 -4.31,-6.79 0,-3.26 0.71,-6.33 4.57,-6.33 2.48,0 3.64,1.68 3.94,3.93 l 7.31,0 c -0.67,-6.03 -4.98,-9.63 -11.1,-9.63 -7.72,0 -12.37,4.72 -12.37,12.3 0,7.53 5.14,12.22 11.62,12.22 7.13,0 11.1,-3.52 11.7,-9.52 l -7.24,0 z" style="fill:#ffffff"/>
   </g>
   <g transform="translate(626.93,66.874)">
    <path d="m -279.69,122.6 -6.22,0 0,2.47 c -1.69,-2.32 -3.34,-2.96 -6.15,-2.92 -3.68,0 -6.04,2.25 -6.04,7.09 l 0,10.31 6.71,0 0,-9.15 c 0,-2.32 0.83,-3.08 2.44,-3.08 1.91,0 2.55,1.47 2.55,4.06 l 0,8.17 6.71,0 0,-16.95 z" style="fill:#ffffff"/>
   </g>
   <g transform="translate(627.02,67.495)">
    <path d="m -276.17,145.25 0,-23.25 6.71,0 0,23.29 -6.71,0 z" style="fill:#ffffff"/>
   </g>
   <g transform="translate(627.6,66.874)">
    <path d="m -255.26,122.58 c -8.81,-0.49 -9.9,0.15 -9.87,6 l 0,7.05 -2.4,0 0,3.9 2.48,0 0,5.29 6.64,0 0,-5.29 3.22,0 0,-3.9 -3.22,0 0,-6.11 c 0,-1.57 0.22,-2.1 2.1,-2.1 l 1.05,0 0,-4.84 z" style="fill:#ffffff"/>
   </g>
   <g transform="translate(628.17,66.873)">
    <path d="m -234.24,122.56 -6.22,0 0,2.48 c -1.72,-2.29 -3.34,-2.93 -6.11,-2.93 -3.71,0 -6.12,2.25 -6.12,7.09 l 0,10.31 6.71,0 0,-9.14 c 0,-2.33 0.83,-3.08 2.44,-3.08 1.91,0 2.55,1.46 2.55,4.09 l 0,8.13 6.71,0 0,-16.95 z" style="fill:#ffffff"/>
   </g>
   <g transform="translate(628.26,67.325)">
    <path d="m -231.04,139.05 6.11,0 0,-3.41 0.1,0 c 0.94,2.62 2.59,3.9 5.22,3.86 0.26,0 0.56,0 0.86,-0.1 l 0,-6.72 c -0.49,0.1 -0.94,0.19 -1.39,0.19 -2.77,0 -4.16,-1.31 -4.16,-4.95 l 0,-5.85 -6.71,0 0,16.95 z" style="fill:#ffffff"/>
   </g>
   <g>
    <g style="clip-path:url(#clipPath5630)">
     <g transform="translate(628.8,67.149)">
      <path d="m -211.19,132.65 c 0,1.8 1.12,2.92 3.15,2.92 1.57,0 2.96,-1.38 2.96,-2.92 l -6.11,0 z m 12.82,-3.45 c 0.11,6.15 -3.64,10.5 -9.94,10.5 -5.43,0 -9.6,-3.56 -9.6,-9.11 0,-5.7 4.17,-8.81 9.6,-8.81 3.98,0 8.25,1.38 9.42,5.58 l -6.45,0 c -0.49,-0.97 -1.47,-1.46 -2.52,-1.46 -1.79,0 -3.33,1.31 -3.33,3.34 l 12.82,0 z" style="fill:#ffffff"/>
     </g>
    </g>
   </g>
   <g transform="translate(622.33,68.969)">
    <path d="m -447.29,199.06 -4.65,-12.71 0,0 -4.72,12.71 -2.1,0 0,-14.4 1.38,0 0,12.82 0,0 4.76,-12.82 1.24,0 4.73,12.82 0.1,0 0,-12.82 1.35,0 0,14.4 -2.06,0 z" style="fill:#ffffff"/>
   </g>
   <g transform="translate(622.03,68.584)">
    <path d="m -458.48,185.02 0,14.43 2.1,0 4.73,-12.71 0,0 4.69,12.71 2.02,0 0,-14.43 -1.35,0 0,12.86 0,0 -4.72,-12.86 -1.28,0 -4.76,12.86 0,0 0,-12.86 -1.35,0 z" style="fill:none;stroke:#ffffff;stroke-width:0.0001"/>
   </g>
   <path d="m 180.23,266.2 1.31,0 0,1.8 -1.31,0 0,-1.8 z m 0.1,-12.6 1.16,0 0,10.38 -1.16,0 0,-10.38 z" style="fill:#ffffff"/>
   <g transform="translate(622.51,68.969)">
    <path d="m -440.96,199.05 -1.31,0 0,-1.8 1.31,0 0,1.8 z m 0,-4.05 -1.2,0 0,-10.39 1.2,0 0,10.39 z" style="fill:none;stroke:#ffffff;stroke-width:0.0001"/>
   </g>
   <g transform="translate(622.62,68.584)">
    <path d="m -436.87,185.02 -1.2,0 0,10.38 1.2,0 0,-1.46 c 0.98,1.02 1.91,1.73 3.34,1.73 1.27,0 2.4,-0.42 3.15,-1.47 0.52,-0.75 0.52,-1.53 0.52,-2.4 l 0,-6.78 -1.2,0 0,6.75 c 0,1.87 -0.75,2.81 -2.66,2.81 -1.5,0 -2.51,-0.94 -2.89,-2.03 -0.22,-0.63 -0.26,-1.23 -0.26,-1.95 l 0,-5.58 z" style="fill:#ffffff"/>
    <path d="m -436.87,185.02 -1.2,0 0,10.38 1.2,0 0,-1.46 c 0.98,1.02 1.91,1.73 3.34,1.73 1.27,0 2.4,-0.42 3.15,-1.47 0.52,-0.75 0.52,-1.53 0.52,-2.4 l 0,-6.78 -1.2,0 0,6.75 c 0,1.87 -0.75,2.81 -2.66,2.81 -1.5,0 -2.51,-0.94 -2.89,-2.03 -0.22,-0.63 -0.26,-1.23 -0.26,-1.95 l 0,-5.58 z" style="fill:none;stroke:#ffffff;stroke-width:0.0001"/>
   </g>
   <path d="m 195.79,266.2 1.31,0 0,1.8 -1.31,0 0,-1.8 z m 0,-12.6 1.2,0 0,10.38 -1.2,0 0,-10.38 z" style="fill:#ffffff"/>
   <g transform="translate(622.89,68.861)">
    <path d="m -427.02,195.1 1.19,0 0,-10.38 -1.19,0 0,10.38 z m -0.1,4.05 1.35,0 0,-1.79 -1.35,0 0,1.79 z" style="fill:none;stroke:#ffffff;stroke-width:0.0001"/>
   </g>
   <g transform="translate(623.02,68.671)">
    <path d="m -422.2,188.17 c 0.37,-1.8 1.31,-2.43 3.11,-2.43 1.73,0 2.55,0.9 2.55,1.91 0,3 -6.64,0.9 -6.64,4.95 0,1.76 1.35,3 3.64,3 2.25,0 3.71,-0.94 4.01,-3.26 l -1.23,0 c -0.23,1.57 -1.28,2.17 -2.78,2.17 -1.53,0 -2.36,-0.75 -2.36,-1.8 0,-2.81 6.64,-1.05 6.64,-5.02 0,-1.99 -1.77,-3.04 -4.2,-3.04 -2.48,0 -3.87,1.57 -3.98,3.52 l 1.24,0 z" style="fill:#ffffff"/>
    <path d="m -422.2,188.17 c 0.37,-1.8 1.31,-2.43 3.11,-2.43 1.73,0 2.55,0.9 2.55,1.91 0,3 -6.64,0.9 -6.64,4.95 0,1.76 1.35,3 3.64,3 2.25,0 3.71,-0.94 4.01,-3.26 l -1.23,0 c -0.23,1.57 -1.28,2.17 -2.78,2.17 -1.53,0 -2.36,-0.75 -2.36,-1.8 0,-2.81 6.64,-1.05 6.64,-5.02 0,-1.99 -1.77,-3.04 -4.2,-3.04 -2.48,0 -3.87,1.57 -3.98,3.52 l 1.24,0 z" style="fill:none;stroke:#ffffff;stroke-width:0.0001"/>
   </g>
   <g transform="translate(623.37,68.583)">
    <path d="m -409.59,184.98 c -0.27,-0.1 -0.83,-0.23 -1.39,-0.23 -1.16,0 -1.84,0.49 -1.84,2.07 l 0,7.57 -1.46,0 0,1.01 1.46,0 0,2.89 1.2,0 0,-2.89 1.95,0 0,-1.01 -1.95,0 0,-7.12 c 0,-1.02 0,-1.43 1.05,-1.43 0.3,0 0.64,0 0.98,0.12 l 0,-0.98 z" style="fill:#ffffff"/>
   </g>
   <g transform="translate(623.37,68.583)">
    <path d="m -409.59,184.98 c -0.27,-0.1 -0.83,-0.23 -1.39,-0.23 -1.16,0 -1.84,0.49 -1.84,2.07 l 0,7.57 -1.46,0 0,1.01 1.46,0 0,2.89 1.2,0 0,-2.89 1.95,0 0,-1.01 -1.95,0 0,-7.12 c 0,-1.02 0,-1.43 1.05,-1.43 0.3,0 0.64,0 0.98,0.12 l 0,-0.98 z" style="fill:none;stroke:#ffffff;stroke-width:0.0001"/>
   </g>
   <g transform="translate(623.44,68.742)">
    <path d="m -407,190.76 c 0.22,1.95 1.35,3.68 3.49,3.68 2.13,0 3.26,-1.65 3.26,-3.68 l -6.75,0 z m 3.71,5.59 1.05,0 -2.25,2.77 -1.54,0 2.74,-2.77 z m 4.35,-6.6 c 0,3.75 -1.72,5.74 -4.57,5.74 -2.97,0 -4.77,-2.48 -4.77,-5.48 0,-3.07 1.43,-5.44 4.77,-5.44 2.62,0 3.86,1.5 4.46,3.45 l -1.31,0 c -0.38,-1.49 -1.62,-2.36 -3.15,-2.36 -2.33,0 -3.53,1.88 -3.49,4.09 l 8.06,0 z" style="fill:#ffffff"/>
   </g>
   <g transform="translate(623.44,68.742)">
    <path d="m -407,190.76 c 0.22,1.95 1.35,3.68 3.49,3.68 2.13,0 3.26,-1.65 3.26,-3.68 l -6.75,0 z m 3.71,5.59 1.05,0 -2.25,2.77 -1.54,0 2.74,-2.77 z m 4.35,-6.6 c 0,3.75 -1.72,5.74 -4.57,5.74 -2.97,0 -4.77,-2.48 -4.77,-5.48 0,-3.07 1.43,-5.44 4.77,-5.44 2.62,0 3.86,1.5 4.46,3.45 l -1.31,0 c -0.38,-1.49 -1.62,-2.36 -3.15,-2.36 -2.33,0 -3.53,1.88 -3.49,4.09 l 8.06,0 z" style="fill:none;stroke:#ffffff;stroke-width:0.0001"/>
   </g>
   <g transform="translate(623.75,68.584)">
    <path d="m -395.67,185.02 -1.2,0 0,10.38 1.2,0 0,-1.95 0,0 c 0.68,1.65 1.65,2.22 3.38,2.22 l 0,-1.32 c -2.7,0.1 -3.42,-1.91 -3.42,-4.23 l 0,-5.1 z" style="fill:#ffffff"/>
   </g>
   <g transform="translate(623.75,68.584)">
    <path d="m -395.67,185.02 -1.2,0 0,10.38 1.2,0 0,-1.95 0,0 c 0.68,1.65 1.65,2.22 3.38,2.22 l 0,-1.32 c -2.7,0.1 -3.42,-1.91 -3.42,-4.23 l 0,-5.1 z" style="fill:none;stroke:#ffffff;stroke-width:0.0001"/>
   </g>
   <g transform="translate(623.91,68.742)">
    <path d="m -389.68,190.76 c 0.23,1.95 1.35,3.68 3.49,3.68 2.14,0 3.26,-1.65 3.26,-3.68 l -6.75,0 z m 8.06,-1.01 c 0,3.75 -1.72,5.74 -4.57,5.74 -2.96,0 -4.76,-2.48 -4.76,-5.48 0,-3.07 1.42,-5.44 4.76,-5.44 2.63,0 3.86,1.5 4.46,3.45 l -1.31,0 c -0.38,-1.49 -1.62,-2.36 -3.15,-2.36 -2.33,0 -3.52,1.88 -3.49,4.09 l 8.06,0 z" style="fill:#ffffff"/>
   </g>
   <g transform="translate(623.91,68.742)">
    <path d="m -389.68,190.76 c 0.23,1.95 1.35,3.68 3.49,3.68 2.14,0 3.26,-1.65 3.26,-3.68 l -6.75,0 z m 8.06,-1.01 c 0,3.75 -1.72,5.74 -4.57,5.74 -2.96,0 -4.76,-2.48 -4.76,-5.48 0,-3.07 1.42,-5.44 4.76,-5.44 2.63,0 3.86,1.5 4.46,3.45 l -1.31,0 c -0.38,-1.49 -1.62,-2.36 -3.15,-2.36 -2.33,0 -3.52,1.88 -3.49,4.09 l 8.06,0 z" style="fill:none;stroke:#ffffff;stroke-width:0.0001"/>
   </g>
  </g>
 </g>
</svg>
