<?xml version="1.0"?>
<svg xmlns="http://www.w3.org/2000/svg" xmlns:xlink="http://www.w3.org/1999/xlink" viewBox="0 0 716.000000 224.000000" width="358.000000mm" height="112.000000mm" version="1.1">
<a xlink:href="process.svg">
<rect x="1.000000" y="1.000000" width="715.000000" height="223.000000" rx="0" ry="0" style="stroke:none;fill:#cccccc;"/>
<rect x="0.000000" y="0.000000" width="715.000000" height="223.000000" rx="0" ry="0" style="stroke:none;fill:#ffffff;"/>
</a>
<text x="10.000000" y="7.000000" font-family="Arial" font-size="7"></text>
<a xlink:href="sub-0x7fd29968c3b0.svg">
<rect x="175.000000" y="173.000000" width="24.000000" height="24.000000" rx="0" ry="0" style="stroke:none;fill:#cccccc;"/>
<rect x="174.000000" y="172.000000" width="24.000000" height="24.000000" rx="0" ry="0" style="stroke:none;fill:#003366;"/>
</a>
<a xlink:href="sub-0x7fd29968c3b0.svg">
<text x="186.000000" y="186.000000" font-family="Arial" font-size="7" text-anchor="middle" fill="#FFFFFF">sub</text>
</a>
<circle cx="176.000000" cy="174.000000" r="1"/>
<line x1="171.000000" y1="179.000000" x2="174.000000" y2="180.000000"  transform="rotate(0.000000,174.000000,180.000000)" style="stroke: black; stroke-width:0.25;"/>
<line x1="171.000000" y1="181.000000" x2="174.000000" y2="180.000000"  transform="rotate(0.000000,174.000000,180.000000)" style="stroke: black; stroke-width:0.25;"/>
<line x1="171.000000" y1="187.000000" x2="174.000000" y2="188.000000"  transform="rotate(0.000000,174.000000,188.000000)" style="stroke: black; stroke-width:0.25;"/>
<line x1="171.000000" y1="189.000000" x2="174.000000" y2="188.000000"  transform="rotate(0.000000,174.000000,188.000000)" style="stroke: black; stroke-width:0.25;"/>
<a xlink:href="a1d-0x7fd299647c30.svg">
<rect x="215.000000" y="133.000000" width="24.000000" height="24.000000" rx="0" ry="0" style="stroke:none;fill:#cccccc;"/>
<rect x="214.000000" y="132.000000" width="24.000000" height="24.000000" rx="0" ry="0" style="stroke:none;fill:#003366;"/>
</a>
<a xlink:href="a1d-0x7fd299647c30.svg">
<text x="226.000000" y="146.000000" font-family="Arial" font-size="7" text-anchor="middle" fill="#FFFFFF">a1d</text>
</a>
<circle cx="236.000000" cy="154.000000" r="1"/>
<a xlink:href="a0d-0x7fd299646ad0.svg">
<rect x="215.000000" y="101.000000" width="24.000000" height="24.000000" rx="0" ry="0" style="stroke:none;fill:#cccccc;"/>
<rect x="214.000000" y="100.000000" width="24.000000" height="24.000000" rx="0" ry="0" style="stroke:none;fill:#003366;"/>
</a>
<a xlink:href="a0d-0x7fd299646ad0.svg">
<text x="226.000000" y="114.000000" font-family="Arial" font-size="7" text-anchor="middle" fill="#FFFFFF">a0d</text>
</a>
<circle cx="236.000000" cy="122.000000" r="1"/>
<rect x="175.000000" y="117.000000" width="24.000000" height="24.000000" rx="0" ry="0" style="stroke:none;fill:#cccccc;"/>
<rect x="174.000000" y="116.000000" width="24.000000" height="24.000000" rx="0" ry="0" style="stroke:none;fill:#4B71A1;"/>
<text x="186.000000" y="130.000000" font-family="Arial" font-size="7" text-anchor="middle" fill="#FFFFFF">/</text>
<circle cx="196.000000" cy="138.000000" r="1"/>
<line x1="201.000000" y1="131.000000" x2="198.000000" y2="132.000000"  transform="rotate(0.000000,198.000000,132.000000)" style="stroke: black; stroke-width:0.25;"/>
<line x1="201.000000" y1="133.000000" x2="198.000000" y2="132.000000"  transform="rotate(0.000000,198.000000,132.000000)" style="stroke: black; stroke-width:0.25;"/>
<line x1="201.000000" y1="123.000000" x2="198.000000" y2="124.000000"  transform="rotate(0.000000,198.000000,124.000000)" style="stroke: black; stroke-width:0.25;"/>
<line x1="201.000000" y1="125.000000" x2="198.000000" y2="124.000000"  transform="rotate(0.000000,198.000000,124.000000)" style="stroke: black; stroke-width:0.25;"/>
<rect x="135.000000" y="121.000000" width="24.000000" height="24.000000" rx="0" ry="0" style="stroke:none;fill:#cccccc;"/>
<rect x="134.000000" y="120.000000" width="24.000000" height="24.000000" rx="0" ry="0" style="stroke:none;fill:#4B71A1;"/>
<text x="146.000000" y="134.000000" font-family="Arial" font-size="7" text-anchor="middle" fill="#FFFFFF">*</text>
<circle cx="156.000000" cy="142.000000" r="1"/>
<line x1="161.000000" y1="135.000000" x2="158.000000" y2="136.000000"  transform="rotate(0.000000,158.000000,136.000000)" style="stroke: black; stroke-width:0.25;"/>
<line x1="161.000000" y1="137.000000" x2="158.000000" y2="136.000000"  transform="rotate(0.000000,158.000000,136.000000)" style="stroke: black; stroke-width:0.25;"/>
<line x1="161.000000" y1="127.000000" x2="158.000000" y2="128.000000"  transform="rotate(0.000000,158.000000,128.000000)" style="stroke: black; stroke-width:0.25;"/>
<line x1="161.000000" y1="129.000000" x2="158.000000" y2="128.000000"  transform="rotate(0.000000,158.000000,128.000000)" style="stroke: black; stroke-width:0.25;"/>
<rect x="255.000000" y="45.000000" width="24.000000" height="24.000000" rx="0" ry="0" style="stroke:none;fill:#cccccc;"/>
<rect x="254.000000" y="44.000000" width="24.000000" height="24.000000" rx="0" ry="0" style="stroke:none;fill:#f44800;"/>
<text x="266.000000" y="58.000000" font-family="Arial" font-size="7" text-anchor="middle" fill="#FFFFFF">1</text>
<circle cx="276.000000" cy="66.000000" r="1"/>
<rect x="215.000000" y="49.000000" width="24.000000" height="24.000000" rx="0" ry="0" style="stroke:none;fill:#cccccc;"/>
<rect x="214.000000" y="48.000000" width="24.000000" height="24.000000" rx="0" ry="0" style="stroke:none;fill:#4B71A1;"/>
<text x="226.000000" y="62.000000" font-family="Arial" font-size="7" text-anchor="middle" fill="#FFFFFF">@</text>
<circle cx="236.000000" cy="70.000000" r="1"/>
<line x1="241.000000" y1="63.000000" x2="238.000000" y2="64.000000"  transform="rotate(0.000000,238.000000,64.000000)" style="stroke: black; stroke-width:0.25;"/>
<line x1="241.000000" y1="65.000000" x2="238.000000" y2="64.000000"  transform="rotate(0.000000,238.000000,64.000000)" style="stroke: black; stroke-width:0.25;"/>
<line x1="241.000000" y1="55.000000" x2="238.000000" y2="56.000000"  transform="rotate(0.000000,238.000000,56.000000)" style="stroke: black; stroke-width:0.25;"/>
<line x1="241.000000" y1="57.000000" x2="238.000000" y2="56.000000"  transform="rotate(0.000000,238.000000,56.000000)" style="stroke: black; stroke-width:0.25;"/>
<a xlink:href="a2d-0x7fd2996462d0.svg">
<rect x="175.000000" y="61.000000" width="24.000000" height="24.000000" rx="0" ry="0" style="stroke:none;fill:#cccccc;"/>
<rect x="174.000000" y="60.000000" width="24.000000" height="24.000000" rx="0" ry="0" style="stroke:none;fill:#003366;"/>
</a>
<a xlink:href="a2d-0x7fd2996462d0.svg">
<text x="186.000000" y="74.000000" font-family="Arial" font-size="7" text-anchor="middle" fill="#FFFFFF">a2d</text>
</a>
<circle cx="196.000000" cy="82.000000" r="1"/>
<a xlink:href="a0d-0x7fd299646ad0.svg">
<rect x="175.000000" y="29.000000" width="24.000000" height="24.000000" rx="0" ry="0" style="stroke:none;fill:#cccccc;"/>
<rect x="174.000000" y="28.000000" width="24.000000" height="24.000000" rx="0" ry="0" style="stroke:none;fill:#003366;"/>
</a>
<a xlink:href="a0d-0x7fd299646ad0.svg">
<text x="186.000000" y="42.000000" font-family="Arial" font-size="7" text-anchor="middle" fill="#FFFFFF">a0d</text>
</a>
<circle cx="196.000000" cy="50.000000" r="1"/>
<rect x="135.000000" y="45.000000" width="24.000000" height="24.000000" rx="0" ry="0" style="stroke:none;fill:#cccccc;"/>
<rect x="134.000000" y="44.000000" width="24.000000" height="24.000000" rx="0" ry="0" style="stroke:none;fill:#4B71A1;"/>
<text x="146.000000" y="58.000000" font-family="Arial" font-size="7" text-anchor="middle" fill="#FFFFFF">/</text>
<circle cx="156.000000" cy="66.000000" r="1"/>
<line x1="161.000000" y1="59.000000" x2="158.000000" y2="60.000000"  transform="rotate(0.000000,158.000000,60.000000)" style="stroke: black; stroke-width:0.25;"/>
<line x1="161.000000" y1="61.000000" x2="158.000000" y2="60.000000"  transform="rotate(0.000000,158.000000,60.000000)" style="stroke: black; stroke-width:0.25;"/>
<line x1="161.000000" y1="51.000000" x2="158.000000" y2="52.000000"  transform="rotate(0.000000,158.000000,52.000000)" style="stroke: black; stroke-width:0.25;"/>
<line x1="161.000000" y1="53.000000" x2="158.000000" y2="52.000000"  transform="rotate(0.000000,158.000000,52.000000)" style="stroke: black; stroke-width:0.25;"/>
<rect x="95.000000" y="49.000000" width="24.000000" height="24.000000" rx="0" ry="0" style="stroke:none;fill:#cccccc;"/>
<rect x="94.000000" y="48.000000" width="24.000000" height="24.000000" rx="0" ry="0" style="stroke:none;fill:#4B71A1;"/>
<text x="106.000000" y="62.000000" font-family="Arial" font-size="7" text-anchor="middle" fill="#FFFFFF">*</text>
<circle cx="116.000000" cy="70.000000" r="1"/>
<line x1="121.000000" y1="63.000000" x2="118.000000" y2="64.000000"  transform="rotate(0.000000,118.000000,64.000000)" style="stroke: black; stroke-width:0.25;"/>
<line x1="121.000000" y1="65.000000" x2="118.000000" y2="64.000000"  transform="rotate(0.000000,118.000000,64.000000)" style="stroke: black; stroke-width:0.25;"/>
<line x1="121.000000" y1="55.000000" x2="118.000000" y2="56.000000"  transform="rotate(0.000000,118.000000,56.000000)" style="stroke: black; stroke-width:0.25;"/>
<line x1="121.000000" y1="57.000000" x2="118.000000" y2="56.000000"  transform="rotate(0.000000,118.000000,56.000000)" style="stroke: black; stroke-width:0.25;"/>
<line x1="326.000000" y1="184.000000" x2="326.000000" y2="180.000000"  style="stroke:black; stroke-linecap:round; stroke-width:0.25;"/>
<line x1="326.000000" y1="180.000000" x2="330.000000" y2="180.000000"  style="stroke:black; stroke-linecap:round; stroke-width:0.25;"/>
<line x1="330.000000" y1="180.000000" x2="330.000000" y2="184.000000"  style="stroke:black; stroke-linecap:round; stroke-width:0.25;"/>
<a xlink:href="b0d-0x7fd29964c200.svg">
<rect x="465.000000" y="33.000000" width="24.000000" height="24.000000" rx="0" ry="0" style="stroke:none;fill:#cccccc;"/>
<rect x="464.000000" y="32.000000" width="24.000000" height="24.000000" rx="0" ry="0" style="stroke:none;fill:#003366;"/>
</a>
<a xlink:href="b0d-0x7fd29964c200.svg">
<text x="476.000000" y="46.000000" font-family="Arial" font-size="7" text-anchor="middle" fill="#FFFFFF">b0d</text>
</a>
<circle cx="466.000000" cy="34.000000" r="1"/>
<a xlink:href="a0d-0x7fd299646ad0.svg">
<rect x="465.000000" y="65.000000" width="24.000000" height="24.000000" rx="0" ry="0" style="stroke:none;fill:#cccccc;"/>
<rect x="464.000000" y="64.000000" width="24.000000" height="24.000000" rx="0" ry="0" style="stroke:none;fill:#003366;"/>
</a>
<a xlink:href="a0d-0x7fd299646ad0.svg">
<text x="476.000000" y="78.000000" font-family="Arial" font-size="7" text-anchor="middle" fill="#FFFFFF">a0d</text>
</a>
<circle cx="466.000000" cy="66.000000" r="1"/>
<rect x="505.000000" y="49.000000" width="24.000000" height="24.000000" rx="0" ry="0" style="stroke:none;fill:#cccccc;"/>
<rect x="504.000000" y="48.000000" width="24.000000" height="24.000000" rx="0" ry="0" style="stroke:none;fill:#4B71A1;"/>
<text x="516.000000" y="62.000000" font-family="Arial" font-size="7" text-anchor="middle" fill="#FFFFFF">/</text>
<circle cx="506.000000" cy="50.000000" r="1"/>
<line x1="501.000000" y1="55.000000" x2="504.000000" y2="56.000000"  transform="rotate(0.000000,504.000000,56.000000)" style="stroke: black; stroke-width:0.25;"/>
<line x1="501.000000" y1="57.000000" x2="504.000000" y2="56.000000"  transform="rotate(0.000000,504.000000,56.000000)" style="stroke: black; stroke-width:0.25;"/>
<line x1="501.000000" y1="63.000000" x2="504.000000" y2="64.000000"  transform="rotate(0.000000,504.000000,64.000000)" style="stroke: black; stroke-width:0.25;"/>
<line x1="501.000000" y1="65.000000" x2="504.000000" y2="64.000000"  transform="rotate(0.000000,504.000000,64.000000)" style="stroke: black; stroke-width:0.25;"/>
<rect x="545.000000" y="45.000000" width="24.000000" height="24.000000" rx="0" ry="0" style="stroke:none;fill:#cccccc;"/>
<rect x="544.000000" y="44.000000" width="24.000000" height="24.000000" rx="0" ry="0" style="stroke:none;fill:#4B71A1;"/>
<text x="556.000000" y="58.000000" font-family="Arial" font-size="7" text-anchor="middle" fill="#FFFFFF">*</text>
<circle cx="546.000000" cy="46.000000" r="1"/>
<line x1="541.000000" y1="51.000000" x2="544.000000" y2="52.000000"  transform="rotate(0.000000,544.000000,52.000000)" style="stroke: black; stroke-width:0.25;"/>
<line x1="541.000000" y1="53.000000" x2="544.000000" y2="52.000000"  transform="rotate(0.000000,544.000000,52.000000)" style="stroke: black; stroke-width:0.25;"/>
<line x1="541.000000" y1="59.000000" x2="544.000000" y2="60.000000"  transform="rotate(0.000000,544.000000,60.000000)" style="stroke: black; stroke-width:0.25;"/>
<line x1="541.000000" y1="61.000000" x2="544.000000" y2="60.000000"  transform="rotate(0.000000,544.000000,60.000000)" style="stroke: black; stroke-width:0.25;"/>
<rect x="445.000000" y="105.000000" width="24.000000" height="24.000000" rx="0" ry="0" style="stroke:none;fill:#cccccc;"/>
<rect x="444.000000" y="104.000000" width="24.000000" height="24.000000" rx="0" ry="0" style="stroke:none;fill:#f44800;"/>
<text x="456.000000" y="118.000000" font-family="Arial" font-size="7" text-anchor="middle" fill="#FFFFFF">1</text>
<circle cx="446.000000" cy="106.000000" r="1"/>
<rect x="485.000000" y="101.000000" width="24.000000" height="24.000000" rx="0" ry="0" style="stroke:none;fill:#cccccc;"/>
<rect x="484.000000" y="100.000000" width="24.000000" height="24.000000" rx="0" ry="0" style="stroke:none;fill:#4B71A1;"/>
<text x="496.000000" y="114.000000" font-family="Arial" font-size="7" text-anchor="middle" fill="#FFFFFF">@</text>
<circle cx="486.000000" cy="102.000000" r="1"/>
<line x1="481.000000" y1="107.000000" x2="484.000000" y2="108.000000"  transform="rotate(0.000000,484.000000,108.000000)" style="stroke: black; stroke-width:0.25;"/>
<line x1="481.000000" y1="109.000000" x2="484.000000" y2="108.000000"  transform="rotate(0.000000,484.000000,108.000000)" style="stroke: black; stroke-width:0.25;"/>
<line x1="481.000000" y1="115.000000" x2="484.000000" y2="116.000000"  transform="rotate(0.000000,484.000000,116.000000)" style="stroke: black; stroke-width:0.25;"/>
<line x1="481.000000" y1="117.000000" x2="484.000000" y2="116.000000"  transform="rotate(0.000000,484.000000,116.000000)" style="stroke: black; stroke-width:0.25;"/>
<rect x="525.000000" y="105.000000" width="24.000000" height="24.000000" rx="0" ry="0" style="stroke:none;fill:#cccccc;"/>
<rect x="524.000000" y="104.000000" width="24.000000" height="24.000000" rx="0" ry="0" style="stroke:none;fill:#f44800;"/>
<text x="536.000000" y="118.000000" font-family="Arial" font-size="7" text-anchor="middle" fill="#FFFFFF">0</text>
<circle cx="526.000000" cy="106.000000" r="1"/>
<rect x="565.000000" y="101.000000" width="24.000000" height="24.000000" rx="0" ry="0" style="stroke:none;fill:#cccccc;"/>
<rect x="564.000000" y="100.000000" width="24.000000" height="24.000000" rx="0" ry="0" style="stroke:none;fill:#4B71A1;"/>
<text x="576.000000" y="114.000000" font-family="Arial" font-size="7" text-anchor="middle" fill="#FFFFFF">*</text>
<circle cx="566.000000" cy="102.000000" r="1"/>
<line x1="561.000000" y1="107.000000" x2="564.000000" y2="108.000000"  transform="rotate(0.000000,564.000000,108.000000)" style="stroke: black; stroke-width:0.25;"/>
<line x1="561.000000" y1="109.000000" x2="564.000000" y2="108.000000"  transform="rotate(0.000000,564.000000,108.000000)" style="stroke: black; stroke-width:0.25;"/>
<line x1="561.000000" y1="115.000000" x2="564.000000" y2="116.000000"  transform="rotate(0.000000,564.000000,116.000000)" style="stroke: black; stroke-width:0.25;"/>
<line x1="561.000000" y1="117.000000" x2="564.000000" y2="116.000000"  transform="rotate(0.000000,564.000000,116.000000)" style="stroke: black; stroke-width:0.25;"/>
<rect x="405.000000" y="145.000000" width="24.000000" height="24.000000" rx="0" ry="0" style="stroke:none;fill:#cccccc;"/>
<rect x="404.000000" y="144.000000" width="24.000000" height="24.000000" rx="0" ry="0" style="stroke:none;fill:#f44800;"/>
<text x="416.000000" y="158.000000" font-family="Arial" font-size="7" text-anchor="middle" fill="#FFFFFF">1</text>
<circle cx="406.000000" cy="146.000000" r="1"/>
<rect x="405.000000" y="177.000000" width="24.000000" height="24.000000" rx="0" ry="0" style="stroke:none;fill:#cccccc;"/>
<rect x="404.000000" y="176.000000" width="24.000000" height="24.000000" rx="0" ry="0" style="stroke:none;fill:#f44800;"/>
<text x="416.000000" y="190.000000" font-family="Arial" font-size="7" text-anchor="middle" fill="#FFFFFF">1</text>
<circle cx="406.000000" cy="178.000000" r="1"/>
<rect x="445.000000" y="161.000000" width="24.000000" height="24.000000" rx="0" ry="0" style="stroke:none;fill:#cccccc;"/>
<rect x="444.000000" y="160.000000" width="24.000000" height="24.000000" rx="0" ry="0" style="stroke:none;fill:#4B71A1;"/>
<text x="456.000000" y="174.000000" font-family="Arial" font-size="7" text-anchor="middle" fill="#FFFFFF">+</text>
<circle cx="446.000000" cy="162.000000" r="1"/>
<line x1="441.000000" y1="167.000000" x2="444.000000" y2="168.000000"  transform="rotate(0.000000,444.000000,168.000000)" style="stroke: black; stroke-width:0.25;"/>
<line x1="441.000000" y1="169.000000" x2="444.000000" y2="168.000000"  transform="rotate(0.000000,444.000000,168.000000)" style="stroke: black; stroke-width:0.25;"/>
<line x1="441.000000" y1="175.000000" x2="444.000000" y2="176.000000"  transform="rotate(0.000000,444.000000,176.000000)" style="stroke: black; stroke-width:0.25;"/>
<line x1="441.000000" y1="177.000000" x2="444.000000" y2="176.000000"  transform="rotate(0.000000,444.000000,176.000000)" style="stroke: black; stroke-width:0.25;"/>
<rect x="485.000000" y="157.000000" width="24.000000" height="24.000000" rx="0" ry="0" style="stroke:none;fill:#cccccc;"/>
<rect x="484.000000" y="156.000000" width="24.000000" height="24.000000" rx="0" ry="0" style="stroke:none;fill:#4B71A1;"/>
<text x="496.000000" y="170.000000" font-family="Arial" font-size="7" text-anchor="middle" fill="#FFFFFF">@</text>
<circle cx="486.000000" cy="158.000000" r="1"/>
<line x1="481.000000" y1="163.000000" x2="484.000000" y2="164.000000"  transform="rotate(0.000000,484.000000,164.000000)" style="stroke: black; stroke-width:0.25;"/>
<line x1="481.000000" y1="165.000000" x2="484.000000" y2="164.000000"  transform="rotate(0.000000,484.000000,164.000000)" style="stroke: black; stroke-width:0.25;"/>
<line x1="481.000000" y1="171.000000" x2="484.000000" y2="172.000000"  transform="rotate(0.000000,484.000000,172.000000)" style="stroke: black; stroke-width:0.25;"/>
<line x1="481.000000" y1="173.000000" x2="484.000000" y2="172.000000"  transform="rotate(0.000000,484.000000,172.000000)" style="stroke: black; stroke-width:0.25;"/>
<a xlink:href="b2d-0x7fd299649f70.svg">
<rect x="525.000000" y="145.000000" width="24.000000" height="24.000000" rx="0" ry="0" style="stroke:none;fill:#cccccc;"/>
<rect x="524.000000" y="144.000000" width="24.000000" height="24.000000" rx="0" ry="0" style="stroke:none;fill:#003366;"/>
</a>
<a xlink:href="b2d-0x7fd299649f70.svg">
<text x="536.000000" y="158.000000" font-family="Arial" font-size="7" text-anchor="middle" fill="#FFFFFF">b2d</text>
</a>
<circle cx="526.000000" cy="146.000000" r="1"/>
<a xlink:href="a0d-0x7fd299646ad0.svg">
<rect x="525.000000" y="177.000000" width="24.000000" height="24.000000" rx="0" ry="0" style="stroke:none;fill:#cccccc;"/>
<rect x="524.000000" y="176.000000" width="24.000000" height="24.000000" rx="0" ry="0" style="stroke:none;fill:#003366;"/>
</a>
<a xlink:href="a0d-0x7fd299646ad0.svg">
<text x="536.000000" y="190.000000" font-family="Arial" font-size="7" text-anchor="middle" fill="#FFFFFF">a0d</text>
</a>
<circle cx="526.000000" cy="178.000000" r="1"/>
<rect x="565.000000" y="161.000000" width="24.000000" height="24.000000" rx="0" ry="0" style="stroke:none;fill:#cccccc;"/>
<rect x="564.000000" y="160.000000" width="24.000000" height="24.000000" rx="0" ry="0" style="stroke:none;fill:#4B71A1;"/>
<text x="576.000000" y="174.000000" font-family="Arial" font-size="7" text-anchor="middle" fill="#FFFFFF">/</text>
<circle cx="566.000000" cy="162.000000" r="1"/>
<line x1="561.000000" y1="167.000000" x2="564.000000" y2="168.000000"  transform="rotate(0.000000,564.000000,168.000000)" style="stroke: black; stroke-width:0.25;"/>
<line x1="561.000000" y1="169.000000" x2="564.000000" y2="168.000000"  transform="rotate(0.000000,564.000000,168.000000)" style="stroke: black; stroke-width:0.25;"/>
<line x1="561.000000" y1="175.000000" x2="564.000000" y2="176.000000"  transform="rotate(0.000000,564.000000,176.000000)" style="stroke: black; stroke-width:0.25;"/>
<line x1="561.000000" y1="177.000000" x2="564.000000" y2="176.000000"  transform="rotate(0.000000,564.000000,176.000000)" style="stroke: black; stroke-width:0.25;"/>
<rect x="605.000000" y="157.000000" width="24.000000" height="24.000000" rx="0" ry="0" style="stroke:none;fill:#cccccc;"/>
<rect x="604.000000" y="156.000000" width="24.000000" height="24.000000" rx="0" ry="0" style="stroke:none;fill:#4B71A1;"/>
<text x="616.000000" y="170.000000" font-family="Arial" font-size="7" text-anchor="middle" fill="#FFFFFF">*</text>
<circle cx="606.000000" cy="158.000000" r="1"/>
<line x1="601.000000" y1="163.000000" x2="604.000000" y2="164.000000"  transform="rotate(0.000000,604.000000,164.000000)" style="stroke: black; stroke-width:0.25;"/>
<line x1="601.000000" y1="165.000000" x2="604.000000" y2="164.000000"  transform="rotate(0.000000,604.000000,164.000000)" style="stroke: black; stroke-width:0.25;"/>
<line x1="601.000000" y1="171.000000" x2="604.000000" y2="172.000000"  transform="rotate(0.000000,604.000000,172.000000)" style="stroke: black; stroke-width:0.25;"/>
<line x1="601.000000" y1="173.000000" x2="604.000000" y2="172.000000"  transform="rotate(0.000000,604.000000,172.000000)" style="stroke: black; stroke-width:0.25;"/>
<line x1="15.000000" y1="15.000000" x2="15.000000" y2="209.000000"  style="stroke: black; stroke-linecap:round; stroke-width:0.25; stroke-dasharray:3,3;"/>
<line x1="15.000000" y1="209.000000" x2="701.000000" y2="209.000000"  style="stroke: black; stroke-linecap:round; stroke-width:0.25; stroke-dasharray:3,3;"/>
<line x1="701.000000" y1="209.000000" x2="701.000000" y2="15.000000"  style="stroke: black; stroke-linecap:round; stroke-width:0.25; stroke-dasharray:3,3;"/>
<line x1="15.000000" y1="15.000000" x2="20.000000" y2="15.000000"  style="stroke: black; stroke-linecap:round; stroke-width:0.25; stroke-dasharray:3,3;"/>
<line x1="119.975000" y1="15.000000" x2="701.000000" y2="15.000000"  style="stroke: black; stroke-linecap:round; stroke-width:0.25; stroke-dasharray:3,3;"/>
<text x="20.000000" y="17.000000" font-family="Arial" font-size="7">bandpass(1)((...9f : *)) : +)</text>
<line x1="703.000000" y1="111.000000" x2="706.000000" y2="112.000000"  transform="rotate(0.000000,706.000000,112.000000)" style="stroke: black; stroke-width:0.25;"/>
<line x1="703.000000" y1="113.000000" x2="706.000000" y2="112.000000"  transform="rotate(0.000000,706.000000,112.000000)" style="stroke: black; stroke-width:0.25;"/>
<line x1="10.000000" y1="112.000000" x2="20.000000" y2="112.000000"  style="stroke:black; stroke-linecap:round; stroke-width:0.25;"/>
<line x1="20.000000" y1="112.000000" x2="24.000000" y2="112.000000"  style="stroke:black; stroke-linecap:round; stroke-width:0.25;"/>
<line x1="24.000000" y1="112.000000" x2="28.000000" y2="112.000000"  style="stroke:black; stroke-linecap:round; stroke-width:0.25;"/>
<line x1="28.000000" y1="112.000000" x2="36.000000" y2="112.000000"  style="stroke:black; stroke-linecap:round; stroke-width:0.25;"/>
<line x1="36.000000" y1="112.000000" x2="36.000000" y2="188.000000"  style="stroke:black; stroke-linecap:round; stroke-width:0.25;"/>
<line x1="36.000000" y1="188.000000" x2="36.000000" y2="188.000000"  style="stroke:black; stroke-linecap:round; stroke-width:0.25;"/>
<line x1="36.000000" y1="188.000000" x2="44.000000" y2="188.000000"  style="stroke:black; stroke-linecap:round; stroke-width:0.25;"/>
<line x1="44.000000" y1="96.000000" x2="44.000000" y2="96.000000"  style="stroke:black; stroke-linecap:round; stroke-width:0.25;"/>
<line x1="44.000000" y1="96.000000" x2="44.000000" y2="180.000000"  style="stroke:black; stroke-linecap:round; stroke-width:0.25;"/>
<line x1="44.000000" y1="180.000000" x2="44.000000" y2="180.000000"  style="stroke:black; stroke-linecap:round; stroke-width:0.25;"/>
<line x1="44.000000" y1="180.000000" x2="170.000000" y2="180.000000"  style="stroke:black; stroke-linecap:round; stroke-width:0.25;"/>
<line x1="44.000000" y1="188.000000" x2="170.000000" y2="188.000000"  style="stroke:black; stroke-linecap:round; stroke-width:0.25;"/>
<line x1="48.000000" y1="96.000000" x2="44.000000" y2="96.000000"  style="stroke:black; stroke-linecap:round; stroke-width:0.25;"/>
<line x1="52.000000" y1="96.000000" x2="48.000000" y2="96.000000"  style="stroke:black; stroke-linecap:round; stroke-width:0.25;"/>
<line x1="90.000000" y1="60.000000" x2="52.000000" y2="96.000000"  style="stroke:black; stroke-linecap:round; stroke-width:0.25;"/>
<line x1="90.000000" y1="132.000000" x2="52.000000" y2="96.000000"  style="stroke:black; stroke-linecap:round; stroke-width:0.25;"/>
<line x1="94.000000" y1="60.000000" x2="90.000000" y2="60.000000"  style="stroke:black; stroke-linecap:round; stroke-width:0.25;"/>
<line x1="122.000000" y1="56.000000" x2="118.000000" y2="56.000000"  style="stroke:black; stroke-linecap:round; stroke-width:0.25;"/>
<line x1="122.000000" y1="64.000000" x2="118.000000" y2="64.000000"  style="stroke:black; stroke-linecap:round; stroke-width:0.25;"/>
<line x1="122.000000" y1="64.000000" x2="122.000000" y2="64.000000"  style="stroke:black; stroke-linecap:round; stroke-width:0.25;"/>
<line x1="122.000000" y1="92.000000" x2="122.000000" y2="64.000000"  style="stroke:black; stroke-linecap:round; stroke-width:0.25;"/>
<line x1="130.000000" y1="56.000000" x2="122.000000" y2="56.000000"  style="stroke:black; stroke-linecap:round; stroke-width:0.25;"/>
<line x1="130.000000" y1="92.000000" x2="122.000000" y2="92.000000"  style="stroke:black; stroke-linecap:round; stroke-width:0.25;"/>
<line x1="130.000000" y1="132.000000" x2="90.000000" y2="132.000000"  style="stroke:black; stroke-linecap:round; stroke-width:0.25;"/>
<line x1="134.000000" y1="56.000000" x2="130.000000" y2="56.000000"  style="stroke:black; stroke-linecap:round; stroke-width:0.25;"/>
<line x1="134.000000" y1="132.000000" x2="130.000000" y2="132.000000"  style="stroke:black; stroke-linecap:round; stroke-width:0.25;"/>
<line x1="162.000000" y1="52.000000" x2="158.000000" y2="52.000000"  style="stroke:black; stroke-linecap:round; stroke-width:0.25;"/>
<line x1="162.000000" y1="60.000000" x2="158.000000" y2="60.000000"  style="stroke:black; stroke-linecap:round; stroke-width:0.25;"/>
<line x1="162.000000" y1="60.000000" x2="162.000000" y2="60.000000"  style="stroke:black; stroke-linecap:round; stroke-width:0.25;"/>
<line x1="162.000000" y1="72.000000" x2="162.000000" y2="60.000000"  style="stroke:black; stroke-linecap:round; stroke-width:0.25;"/>
<line x1="162.000000" y1="128.000000" x2="158.000000" y2="128.000000"  style="stroke:black; stroke-linecap:round; stroke-width:0.25;"/>
<line x1="162.000000" y1="136.000000" x2="158.000000" y2="136.000000"  style="stroke:black; stroke-linecap:round; stroke-width:0.25;"/>
<line x1="162.000000" y1="136.000000" x2="162.000000" y2="136.000000"  style="stroke:black; stroke-linecap:round; stroke-width:0.25;"/>
<line x1="162.000000" y1="164.000000" x2="162.000000" y2="136.000000"  style="stroke:black; stroke-linecap:round; stroke-width:0.25;"/>
<line x1="166.000000" y1="92.000000" x2="130.000000" y2="92.000000"  style="stroke:black; stroke-linecap:round; stroke-width:0.25;"/>
<line x1="170.000000" y1="40.000000" x2="170.000000" y2="40.000000"  style="stroke:black; stroke-linecap:round; stroke-width:0.25;"/>
<line x1="170.000000" y1="40.000000" x2="170.000000" y2="52.000000"  style="stroke:black; stroke-linecap:round; stroke-width:0.25;"/>
<line x1="170.000000" y1="52.000000" x2="162.000000" y2="52.000000"  style="stroke:black; stroke-linecap:round; stroke-width:0.25;"/>
<line x1="170.000000" y1="72.000000" x2="162.000000" y2="72.000000"  style="stroke:black; stroke-linecap:round; stroke-width:0.25;"/>
<line x1="170.000000" y1="128.000000" x2="162.000000" y2="128.000000"  style="stroke:black; stroke-linecap:round; stroke-width:0.25;"/>
<line x1="170.000000" y1="164.000000" x2="162.000000" y2="164.000000"  style="stroke:black; stroke-linecap:round; stroke-width:0.25;"/>
<line x1="170.000000" y1="180.000000" x2="174.000000" y2="180.000000"  style="stroke:black; stroke-linecap:round; stroke-width:0.25;"/>
<line x1="170.000000" y1="188.000000" x2="174.000000" y2="188.000000"  style="stroke:black; stroke-linecap:round; stroke-width:0.25;"/>
<line x1="174.000000" y1="40.000000" x2="170.000000" y2="40.000000"  style="stroke:black; stroke-linecap:round; stroke-width:0.25;"/>
<line x1="174.000000" y1="72.000000" x2="170.000000" y2="72.000000"  style="stroke:black; stroke-linecap:round; stroke-width:0.25;"/>
<line x1="174.000000" y1="128.000000" x2="170.000000" y2="128.000000"  style="stroke:black; stroke-linecap:round; stroke-width:0.25;"/>
<line x1="198.000000" y1="184.000000" x2="202.000000" y2="184.000000"  style="stroke:black; stroke-linecap:round; stroke-width:0.25;"/>
<line x1="202.000000" y1="92.000000" x2="166.000000" y2="92.000000"  style="stroke:black; stroke-linecap:round; stroke-width:0.25;"/>
<line x1="202.000000" y1="124.000000" x2="198.000000" y2="124.000000"  style="stroke:black; stroke-linecap:round; stroke-width:0.25;"/>
<line x1="202.000000" y1="132.000000" x2="198.000000" y2="132.000000"  style="stroke:black; stroke-linecap:round; stroke-width:0.25;"/>
<line x1="202.000000" y1="132.000000" x2="202.000000" y2="132.000000"  style="stroke:black; stroke-linecap:round; stroke-width:0.25;"/>
<line x1="202.000000" y1="144.000000" x2="202.000000" y2="132.000000"  style="stroke:black; stroke-linecap:round; stroke-width:0.25;"/>
<line x1="202.000000" y1="184.000000" x2="328.000000" y2="184.000000"  style="stroke:black; stroke-linecap:round; stroke-width:0.25;"/>
<line x1="206.000000" y1="164.000000" x2="170.000000" y2="164.000000"  style="stroke:black; stroke-linecap:round; stroke-width:0.25;"/>
<line x1="210.000000" y1="60.000000" x2="210.000000" y2="60.000000"  style="stroke:black; stroke-linecap:round; stroke-width:0.25;"/>
<line x1="210.000000" y1="60.000000" x2="210.000000" y2="92.000000"  style="stroke:black; stroke-linecap:round; stroke-width:0.25;"/>
<line x1="210.000000" y1="92.000000" x2="202.000000" y2="92.000000"  style="stroke:black; stroke-linecap:round; stroke-width:0.25;"/>
<line x1="210.000000" y1="112.000000" x2="210.000000" y2="112.000000"  style="stroke:black; stroke-linecap:round; stroke-width:0.25;"/>
<line x1="210.000000" y1="112.000000" x2="210.000000" y2="124.000000"  style="stroke:black; stroke-linecap:round; stroke-width:0.25;"/>
<line x1="210.000000" y1="124.000000" x2="202.000000" y2="124.000000"  style="stroke:black; stroke-linecap:round; stroke-width:0.25;"/>
<line x1="210.000000" y1="144.000000" x2="202.000000" y2="144.000000"  style="stroke:black; stroke-linecap:round; stroke-width:0.25;"/>
<line x1="214.000000" y1="60.000000" x2="210.000000" y2="60.000000"  style="stroke:black; stroke-linecap:round; stroke-width:0.25;"/>
<line x1="214.000000" y1="112.000000" x2="210.000000" y2="112.000000"  style="stroke:black; stroke-linecap:round; stroke-width:0.25;"/>
<line x1="214.000000" y1="144.000000" x2="210.000000" y2="144.000000"  style="stroke:black; stroke-linecap:round; stroke-width:0.25;"/>
<line x1="242.000000" y1="56.000000" x2="238.000000" y2="56.000000"  style="stroke:black; stroke-linecap:round; stroke-width:0.25;"/>
<line x1="242.000000" y1="64.000000" x2="238.000000" y2="64.000000"  style="stroke:black; stroke-linecap:round; stroke-width:0.25;"/>
<line x1="242.000000" y1="64.000000" x2="242.000000" y2="64.000000"  style="stroke:black; stroke-linecap:round; stroke-width:0.25;"/>
<line x1="242.000000" y1="76.000000" x2="242.000000" y2="64.000000"  style="stroke:black; stroke-linecap:round; stroke-width:0.25;"/>
<line x1="242.000000" y1="164.000000" x2="206.000000" y2="164.000000"  style="stroke:black; stroke-linecap:round; stroke-width:0.25;"/>
<line x1="250.000000" y1="56.000000" x2="242.000000" y2="56.000000"  style="stroke:black; stroke-linecap:round; stroke-width:0.25;"/>
<line x1="250.000000" y1="76.000000" x2="242.000000" y2="76.000000"  style="stroke:black; stroke-linecap:round; stroke-width:0.25;"/>
<line x1="254.000000" y1="56.000000" x2="250.000000" y2="56.000000"  style="stroke:black; stroke-linecap:round; stroke-width:0.25;"/>
<line x1="266.000000" y1="76.000000" x2="250.000000" y2="76.000000"  style="stroke:black; stroke-linecap:round; stroke-width:0.25;"/>
<line x1="282.000000" y1="76.000000" x2="266.000000" y2="76.000000"  style="stroke:black; stroke-linecap:round; stroke-width:0.25;"/>
<line x1="282.000000" y1="164.000000" x2="242.000000" y2="164.000000"  style="stroke:black; stroke-linecap:round; stroke-width:0.25;"/>
<line x1="320.000000" y1="96.000000" x2="282.000000" y2="76.000000"  style="stroke:black; stroke-linecap:round; stroke-width:0.25;"/>
<line x1="320.000000" y1="96.000000" x2="282.000000" y2="164.000000"  style="stroke:black; stroke-linecap:round; stroke-width:0.25;"/>
<line x1="324.000000" y1="96.000000" x2="320.000000" y2="96.000000"  style="stroke:black; stroke-linecap:round; stroke-width:0.25;"/>
<line x1="328.000000" y1="96.000000" x2="324.000000" y2="96.000000"  style="stroke:black; stroke-linecap:round; stroke-width:0.25;"/>
<line x1="328.000000" y1="96.000000" x2="328.000000" y2="96.000000"  style="stroke:black; stroke-linecap:round; stroke-width:0.25;"/>
<line x1="328.000000" y1="180.000000" x2="328.000000" y2="96.000000"  style="stroke:black; stroke-linecap:round; stroke-width:0.25;"/>
<line x1="328.000000" y1="184.000000" x2="330.000000" y2="184.000000"  style="stroke:black; stroke-linecap:round; stroke-width:0.25;"/>
<line x1="330.000000" y1="184.000000" x2="336.000000" y2="184.000000"  style="stroke:black; stroke-linecap:round; stroke-width:0.25;"/>
<line x1="336.000000" y1="112.000000" x2="344.000000" y2="112.000000"  style="stroke:black; stroke-linecap:round; stroke-width:0.25;"/>
<line x1="336.000000" y1="184.000000" x2="336.000000" y2="112.000000"  style="stroke:black; stroke-linecap:round; stroke-width:0.25;"/>
<line x1="336.000000" y1="184.000000" x2="336.000000" y2="184.000000"  style="stroke:black; stroke-linecap:round; stroke-width:0.25;"/>
<line x1="344.000000" y1="112.000000" x2="348.000000" y2="112.000000"  style="stroke:black; stroke-linecap:round; stroke-width:0.25;"/>
<line x1="348.000000" y1="112.000000" x2="352.000000" y2="112.000000"  style="stroke:black; stroke-linecap:round; stroke-width:0.25;"/>
<line x1="352.000000" y1="112.000000" x2="400.000000" y2="24.000000"  style="stroke:black; stroke-linecap:round; stroke-width:0.25;"/>
<line x1="352.000000" y1="112.000000" x2="400.000000" y2="96.000000"  style="stroke:black; stroke-linecap:round; stroke-width:0.25;"/>
<line x1="352.000000" y1="112.000000" x2="400.000000" y2="136.000000"  style="stroke:black; stroke-linecap:round; stroke-width:0.25;"/>
<line x1="400.000000" y1="24.000000" x2="460.000000" y2="24.000000"  style="stroke:black; stroke-linecap:round; stroke-width:0.25;"/>
<line x1="400.000000" y1="96.000000" x2="440.000000" y2="96.000000"  style="stroke:black; stroke-linecap:round; stroke-width:0.25;"/>
<line x1="400.000000" y1="136.000000" x2="436.000000" y2="136.000000"  style="stroke:black; stroke-linecap:round; stroke-width:0.25;"/>
<line x1="428.000000" y1="156.000000" x2="432.000000" y2="156.000000"  style="stroke:black; stroke-linecap:round; stroke-width:0.25;"/>
<line x1="428.000000" y1="188.000000" x2="432.000000" y2="188.000000"  style="stroke:black; stroke-linecap:round; stroke-width:0.25;"/>
<line x1="432.000000" y1="156.000000" x2="440.000000" y2="156.000000"  style="stroke:black; stroke-linecap:round; stroke-width:0.25;"/>
<line x1="432.000000" y1="176.000000" x2="440.000000" y2="176.000000"  style="stroke:black; stroke-linecap:round; stroke-width:0.25;"/>
<line x1="432.000000" y1="188.000000" x2="432.000000" y2="176.000000"  style="stroke:black; stroke-linecap:round; stroke-width:0.25;"/>
<line x1="432.000000" y1="188.000000" x2="432.000000" y2="188.000000"  style="stroke:black; stroke-linecap:round; stroke-width:0.25;"/>
<line x1="436.000000" y1="136.000000" x2="472.000000" y2="136.000000"  style="stroke:black; stroke-linecap:round; stroke-width:0.25;"/>
<line x1="440.000000" y1="96.000000" x2="456.000000" y2="96.000000"  style="stroke:black; stroke-linecap:round; stroke-width:0.25;"/>
<line x1="440.000000" y1="156.000000" x2="440.000000" y2="168.000000"  style="stroke:black; stroke-linecap:round; stroke-width:0.25;"/>
<line x1="440.000000" y1="168.000000" x2="440.000000" y2="168.000000"  style="stroke:black; stroke-linecap:round; stroke-width:0.25;"/>
<line x1="440.000000" y1="168.000000" x2="444.000000" y2="168.000000"  style="stroke:black; stroke-linecap:round; stroke-width:0.25;"/>
<line x1="440.000000" y1="176.000000" x2="444.000000" y2="176.000000"  style="stroke:black; stroke-linecap:round; stroke-width:0.25;"/>
<line x1="456.000000" y1="96.000000" x2="472.000000" y2="96.000000"  style="stroke:black; stroke-linecap:round; stroke-width:0.25;"/>
<line x1="460.000000" y1="24.000000" x2="496.000000" y2="24.000000"  style="stroke:black; stroke-linecap:round; stroke-width:0.25;"/>
<line x1="468.000000" y1="116.000000" x2="472.000000" y2="116.000000"  style="stroke:black; stroke-linecap:round; stroke-width:0.25;"/>
<line x1="468.000000" y1="172.000000" x2="472.000000" y2="172.000000"  style="stroke:black; stroke-linecap:round; stroke-width:0.25;"/>
<line x1="472.000000" y1="96.000000" x2="480.000000" y2="96.000000"  style="stroke:black; stroke-linecap:round; stroke-width:0.25;"/>
<line x1="472.000000" y1="116.000000" x2="480.000000" y2="116.000000"  style="stroke:black; stroke-linecap:round; stroke-width:0.25;"/>
<line x1="472.000000" y1="136.000000" x2="480.000000" y2="136.000000"  style="stroke:black; stroke-linecap:round; stroke-width:0.25;"/>
<line x1="472.000000" y1="172.000000" x2="480.000000" y2="172.000000"  style="stroke:black; stroke-linecap:round; stroke-width:0.25;"/>
<line x1="480.000000" y1="96.000000" x2="480.000000" y2="108.000000"  style="stroke:black; stroke-linecap:round; stroke-width:0.25;"/>
<line x1="480.000000" y1="108.000000" x2="480.000000" y2="108.000000"  style="stroke:black; stroke-linecap:round; stroke-width:0.25;"/>
<line x1="480.000000" y1="108.000000" x2="484.000000" y2="108.000000"  style="stroke:black; stroke-linecap:round; stroke-width:0.25;"/>
<line x1="480.000000" y1="116.000000" x2="484.000000" y2="116.000000"  style="stroke:black; stroke-linecap:round; stroke-width:0.25;"/>
<line x1="480.000000" y1="136.000000" x2="480.000000" y2="164.000000"  style="stroke:black; stroke-linecap:round; stroke-width:0.25;"/>
<line x1="480.000000" y1="164.000000" x2="480.000000" y2="164.000000"  style="stroke:black; stroke-linecap:round; stroke-width:0.25;"/>
<line x1="480.000000" y1="164.000000" x2="484.000000" y2="164.000000"  style="stroke:black; stroke-linecap:round; stroke-width:0.25;"/>
<line x1="480.000000" y1="172.000000" x2="484.000000" y2="172.000000"  style="stroke:black; stroke-linecap:round; stroke-width:0.25;"/>
<line x1="488.000000" y1="44.000000" x2="492.000000" y2="44.000000"  style="stroke:black; stroke-linecap:round; stroke-width:0.25;"/>
<line x1="488.000000" y1="76.000000" x2="492.000000" y2="76.000000"  style="stroke:black; stroke-linecap:round; stroke-width:0.25;"/>
<line x1="492.000000" y1="44.000000" x2="500.000000" y2="44.000000"  style="stroke:black; stroke-linecap:round; stroke-width:0.25;"/>
<line x1="492.000000" y1="64.000000" x2="500.000000" y2="64.000000"  style="stroke:black; stroke-linecap:round; stroke-width:0.25;"/>
<line x1="492.000000" y1="76.000000" x2="492.000000" y2="64.000000"  style="stroke:black; stroke-linecap:round; stroke-width:0.25;"/>
<line x1="492.000000" y1="76.000000" x2="492.000000" y2="76.000000"  style="stroke:black; stroke-linecap:round; stroke-width:0.25;"/>
<line x1="496.000000" y1="24.000000" x2="532.000000" y2="24.000000"  style="stroke:black; stroke-linecap:round; stroke-width:0.25;"/>
<line x1="500.000000" y1="44.000000" x2="500.000000" y2="56.000000"  style="stroke:black; stroke-linecap:round; stroke-width:0.25;"/>
<line x1="500.000000" y1="56.000000" x2="500.000000" y2="56.000000"  style="stroke:black; stroke-linecap:round; stroke-width:0.25;"/>
<line x1="500.000000" y1="56.000000" x2="504.000000" y2="56.000000"  style="stroke:black; stroke-linecap:round; stroke-width:0.25;"/>
<line x1="500.000000" y1="64.000000" x2="504.000000" y2="64.000000"  style="stroke:black; stroke-linecap:round; stroke-width:0.25;"/>
<line x1="508.000000" y1="112.000000" x2="512.000000" y2="112.000000"  style="stroke:black; stroke-linecap:round; stroke-width:0.25;"/>
<line x1="508.000000" y1="168.000000" x2="512.000000" y2="168.000000"  style="stroke:black; stroke-linecap:round; stroke-width:0.25;"/>
<line x1="512.000000" y1="96.000000" x2="520.000000" y2="96.000000"  style="stroke:black; stroke-linecap:round; stroke-width:0.25;"/>
<line x1="512.000000" y1="112.000000" x2="512.000000" y2="96.000000"  style="stroke:black; stroke-linecap:round; stroke-width:0.25;"/>
<line x1="512.000000" y1="112.000000" x2="512.000000" y2="112.000000"  style="stroke:black; stroke-linecap:round; stroke-width:0.25;"/>
<line x1="512.000000" y1="136.000000" x2="520.000000" y2="136.000000"  style="stroke:black; stroke-linecap:round; stroke-width:0.25;"/>
<line x1="512.000000" y1="168.000000" x2="512.000000" y2="136.000000"  style="stroke:black; stroke-linecap:round; stroke-width:0.25;"/>
<line x1="512.000000" y1="168.000000" x2="512.000000" y2="168.000000"  style="stroke:black; stroke-linecap:round; stroke-width:0.25;"/>
<line x1="520.000000" y1="96.000000" x2="536.000000" y2="96.000000"  style="stroke:black; stroke-linecap:round; stroke-width:0.25;"/>
<line x1="520.000000" y1="136.000000" x2="556.000000" y2="136.000000"  style="stroke:black; stroke-linecap:round; stroke-width:0.25;"/>
<line x1="528.000000" y1="60.000000" x2="532.000000" y2="60.000000"  style="stroke:black; stroke-linecap:round; stroke-width:0.25;"/>
<line x1="532.000000" y1="24.000000" x2="540.000000" y2="24.000000"  style="stroke:black; stroke-linecap:round; stroke-width:0.25;"/>
<line x1="532.000000" y1="60.000000" x2="540.000000" y2="60.000000"  style="stroke:black; stroke-linecap:round; stroke-width:0.25;"/>
<line x1="536.000000" y1="96.000000" x2="552.000000" y2="96.000000"  style="stroke:black; stroke-linecap:round; stroke-width:0.25;"/>
<line x1="540.000000" y1="24.000000" x2="540.000000" y2="52.000000"  style="stroke:black; stroke-linecap:round; stroke-width:0.25;"/>
<line x1="540.000000" y1="52.000000" x2="540.000000" y2="52.000000"  style="stroke:black; stroke-linecap:round; stroke-width:0.25;"/>
<line x1="540.000000" y1="52.000000" x2="544.000000" y2="52.000000"  style="stroke:black; stroke-linecap:round; stroke-width:0.25;"/>
<line x1="540.000000" y1="60.000000" x2="544.000000" y2="60.000000"  style="stroke:black; stroke-linecap:round; stroke-width:0.25;"/>
<line x1="548.000000" y1="116.000000" x2="552.000000" y2="116.000000"  style="stroke:black; stroke-linecap:round; stroke-width:0.25;"/>
<line x1="548.000000" y1="156.000000" x2="552.000000" y2="156.000000"  style="stroke:black; stroke-linecap:round; stroke-width:0.25;"/>
<line x1="548.000000" y1="188.000000" x2="552.000000" y2="188.000000"  style="stroke:black; stroke-linecap:round; stroke-width:0.25;"/>
<line x1="552.000000" y1="96.000000" x2="560.000000" y2="96.000000"  style="stroke:black; stroke-linecap:round; stroke-width:0.25;"/>
<line x1="552.000000" y1="116.000000" x2="560.000000" y2="116.000000"  style="stroke:black; stroke-linecap:round; stroke-width:0.25;"/>
<line x1="552.000000" y1="156.000000" x2="560.000000" y2="156.000000"  style="stroke:black; stroke-linecap:round; stroke-width:0.25;"/>
<line x1="552.000000" y1="176.000000" x2="560.000000" y2="176.000000"  style="stroke:black; stroke-linecap:round; stroke-width:0.25;"/>
<line x1="552.000000" y1="188.000000" x2="552.000000" y2="176.000000"  style="stroke:black; stroke-linecap:round; stroke-width:0.25;"/>
<line x1="552.000000" y1="188.000000" x2="552.000000" y2="188.000000"  style="stroke:black; stroke-linecap:round; stroke-width:0.25;"/>
<line x1="556.000000" y1="136.000000" x2="592.000000" y2="136.000000"  style="stroke:black; stroke-linecap:round; stroke-width:0.25;"/>
<line x1="560.000000" y1="96.000000" x2="560.000000" y2="108.000000"  style="stroke:black; stroke-linecap:round; stroke-width:0.25;"/>
<line x1="560.000000" y1="108.000000" x2="560.000000" y2="108.000000"  style="stroke:black; stroke-linecap:round; stroke-width:0.25;"/>
<line x1="560.000000" y1="108.000000" x2="564.000000" y2="108.000000"  style="stroke:black; stroke-linecap:round; stroke-width:0.25;"/>
<line x1="560.000000" y1="116.000000" x2="564.000000" y2="116.000000"  style="stroke:black; stroke-linecap:round; stroke-width:0.25;"/>
<line x1="560.000000" y1="156.000000" x2="560.000000" y2="168.000000"  style="stroke:black; stroke-linecap:round; stroke-width:0.25;"/>
<line x1="560.000000" y1="168.000000" x2="560.000000" y2="168.000000"  style="stroke:black; stroke-linecap:round; stroke-width:0.25;"/>
<line x1="560.000000" y1="168.000000" x2="564.000000" y2="168.000000"  style="stroke:black; stroke-linecap:round; stroke-width:0.25;"/>
<line x1="560.000000" y1="176.000000" x2="564.000000" y2="176.000000"  style="stroke:black; stroke-linecap:round; stroke-width:0.25;"/>
<line x1="568.000000" y1="56.000000" x2="572.000000" y2="56.000000"  style="stroke:black; stroke-linecap:round; stroke-width:0.25;"/>
<line x1="572.000000" y1="56.000000" x2="632.000000" y2="56.000000"  style="stroke:black; stroke-linecap:round; stroke-width:0.25;"/>
<line x1="588.000000" y1="112.000000" x2="592.000000" y2="112.000000"  style="stroke:black; stroke-linecap:round; stroke-width:0.25;"/>
<line x1="588.000000" y1="172.000000" x2="592.000000" y2="172.000000"  style="stroke:black; stroke-linecap:round; stroke-width:0.25;"/>
<line x1="592.000000" y1="112.000000" x2="632.000000" y2="112.000000"  style="stroke:black; stroke-linecap:round; stroke-width:0.25;"/>
<line x1="592.000000" y1="136.000000" x2="600.000000" y2="136.000000"  style="stroke:black; stroke-linecap:round; stroke-width:0.25;"/>
<line x1="592.000000" y1="172.000000" x2="600.000000" y2="172.000000"  style="stroke:black; stroke-linecap:round; stroke-width:0.25;"/>
<line x1="600.000000" y1="136.000000" x2="600.000000" y2="164.000000"  style="stroke:black; stroke-linecap:round; stroke-width:0.25;"/>
<line x1="600.000000" y1="164.000000" x2="600.000000" y2="164.000000"  style="stroke:black; stroke-linecap:round; stroke-width:0.25;"/>
<line x1="600.000000" y1="164.000000" x2="604.000000" y2="164.000000"  style="stroke:black; stroke-linecap:round; stroke-width:0.25;"/>
<line x1="600.000000" y1="172.000000" x2="604.000000" y2="172.000000"  style="stroke:black; stroke-linecap:round; stroke-width:0.25;"/>
<line x1="628.000000" y1="168.000000" x2="632.000000" y2="168.000000"  style="stroke:black; stroke-linecap:round; stroke-width:0.25;"/>
<line x1="632.000000" y1="56.000000" x2="680.000000" y2="112.000000"  style="stroke:black; stroke-linecap:round; stroke-width:0.25;"/>
<line x1="632.000000" y1="112.000000" x2="680.000000" y2="112.000000"  style="stroke:black; stroke-linecap:round; stroke-width:0.25;"/>
<line x1="632.000000" y1="168.000000" x2="680.000000" y2="112.000000"  style="stroke:black; stroke-linecap:round; stroke-width:0.25;"/>
<line x1="680.000000" y1="112.000000" x2="684.000000" y2="112.000000"  style="stroke:black; stroke-linecap:round; stroke-width:0.25;"/>
<line x1="684.000000" y1="112.000000" x2="688.000000" y2="112.000000"  style="stroke:black; stroke-linecap:round; stroke-width:0.25;"/>
<line x1="688.000000" y1="112.000000" x2="688.000000" y2="112.000000"  style="stroke:black; stroke-linecap:round; stroke-width:0.25;"/>
<line x1="688.000000" y1="112.000000" x2="692.000000" y2="112.000000"  style="stroke:black; stroke-linecap:round; stroke-width:0.25;"/>
<line x1="692.000000" y1="112.000000" x2="696.000000" y2="112.000000"  style="stroke:black; stroke-linecap:round; stroke-width:0.25;"/>
<line x1="696.000000" y1="112.000000" x2="706.000000" y2="112.000000"  style="stroke:black; stroke-linecap:round; stroke-width:0.25;"/>
</svg>
