<?xml version="1.0"?>
<svg xmlns="http://www.w3.org/2000/svg" xmlns:xlink="http://www.w3.org/1999/xlink" viewBox="0 0 464.300000 124.000000" width="232.150000mm" height="62.000000mm" version="1.1">
<a xlink:href="n60-0x7f82e4701620.svg">
<rect x="1.000000" y="1.000000" width="463.300000" height="123.000000" rx="0" ry="0" style="stroke:none;fill:#cccccc;"/>
<rect x="0.000000" y="0.000000" width="463.300000" height="123.000000" rx="0" ry="0" style="stroke:none;fill:#ffffff;"/>
</a>
<text x="10.000000" y="7.000000" font-family="Arial" font-size="7"></text>
<rect x="35.000000" y="35.000000" width="348.300000" height="24.000000" rx="0" ry="0" style="stroke:none;fill:#cccccc;"/>
<rect x="34.000000" y="34.000000" width="348.300000" height="24.000000" rx="0" ry="0" style="stroke:none;fill:#477881;"/>
<text x="208.150000" y="48.000000" font-family="Arial" font-size="7" text-anchor="middle" fill="#FFFFFF">hslider(h:Reverb/Reverberation Room Size (InstrReverb), 0.72f, 0.4f, 2.0f, 0.01f)</text>
<circle cx="36.000000" cy="36.000000" r="1"/>
<line x1="25.000000" y1="25.000000" x2="25.000000" y2="67.000000"  style="stroke: black; stroke-linecap:round; stroke-width:0.25; stroke-dasharray:3,3;"/>
<line x1="25.000000" y1="67.000000" x2="391.300000" y2="67.000000"  style="stroke: black; stroke-linecap:round; stroke-width:0.25; stroke-dasharray:3,3;"/>
<line x1="391.300000" y1="67.000000" x2="391.300000" y2="25.000000"  style="stroke: black; stroke-linecap:round; stroke-width:0.25; stroke-dasharray:3,3;"/>
<line x1="25.000000" y1="25.000000" x2="30.000000" y2="25.000000"  style="stroke: black; stroke-linecap:round; stroke-width:0.25; stroke-dasharray:3,3;"/>
<line x1="62.250000" y1="25.000000" x2="391.300000" y2="25.000000"  style="stroke: black; stroke-linecap:round; stroke-width:0.25; stroke-dasharray:3,3;"/>
<text x="30.000000" y="27.000000" font-family="Arial" font-size="7">roomSize</text>
<rect x="197.150000" y="77.000000" width="24.000000" height="24.000000" rx="0" ry="0" style="stroke:none;fill:#cccccc;"/>
<rect x="196.150000" y="76.000000" width="24.000000" height="24.000000" rx="0" ry="0" style="stroke:none;fill:#f44800;"/>
<text x="208.150000" y="90.000000" font-family="Arial" font-size="7" text-anchor="middle" fill="#FFFFFF">2</text>
<circle cx="198.150000" cy="78.000000" r="1"/>
<rect x="409.300000" y="51.000000" width="24.000000" height="24.000000" rx="0" ry="0" style="stroke:none;fill:#cccccc;"/>
<rect x="408.300000" y="50.000000" width="24.000000" height="24.000000" rx="0" ry="0" style="stroke:none;fill:#4B71A1;"/>
<text x="420.300000" y="64.000000" font-family="Arial" font-size="7" text-anchor="middle" fill="#FFFFFF">*</text>
<circle cx="410.300000" cy="52.000000" r="1"/>
<line x1="405.300000" y1="57.000000" x2="408.300000" y2="58.000000"  transform="rotate(0.000000,408.300000,58.000000)" style="stroke: black; stroke-width:0.25;"/>
<line x1="405.300000" y1="59.000000" x2="408.300000" y2="58.000000"  transform="rotate(0.000000,408.300000,58.000000)" style="stroke: black; stroke-width:0.25;"/>
<line x1="405.300000" y1="65.000000" x2="408.300000" y2="66.000000"  transform="rotate(0.000000,408.300000,66.000000)" style="stroke: black; stroke-width:0.25;"/>
<line x1="405.300000" y1="67.000000" x2="408.300000" y2="66.000000"  transform="rotate(0.000000,408.300000,66.000000)" style="stroke: black; stroke-width:0.25;"/>
<line x1="15.000000" y1="15.000000" x2="15.000000" y2="109.000000"  style="stroke: black; stroke-linecap:round; stroke-width:0.25; stroke-dasharray:3,3;"/>
<line x1="15.000000" y1="109.000000" x2="449.300000" y2="109.000000"  style="stroke: black; stroke-linecap:round; stroke-width:0.25; stroke-dasharray:3,3;"/>
<line x1="449.300000" y1="109.000000" x2="449.300000" y2="15.000000"  style="stroke: black; stroke-linecap:round; stroke-width:0.25; stroke-dasharray:3,3;"/>
<line x1="15.000000" y1="15.000000" x2="20.000000" y2="15.000000"  style="stroke: black; stroke-linecap:round; stroke-width:0.25; stroke-dasharray:3,3;"/>
<line x1="45.800000" y1="15.000000" x2="449.300000" y2="15.000000"  style="stroke: black; stroke-linecap:round; stroke-width:0.25; stroke-dasharray:3,3;"/>
<text x="20.000000" y="17.000000" font-family="Arial" font-size="7">dur(1)</text>
<line x1="451.300000" y1="61.000000" x2="454.300000" y2="62.000000"  transform="rotate(0.000000,454.300000,62.000000)" style="stroke: black; stroke-width:0.25;"/>
<line x1="451.300000" y1="63.000000" x2="454.300000" y2="62.000000"  transform="rotate(0.000000,454.300000,62.000000)" style="stroke: black; stroke-width:0.25;"/>
<line x1="220.150000" y1="88.000000" x2="224.150000" y2="88.000000"  style="stroke:black; stroke-linecap:round; stroke-width:0.25;"/>
<line x1="224.150000" y1="88.000000" x2="396.300000" y2="88.000000"  style="stroke:black; stroke-linecap:round; stroke-width:0.25;"/>
<line x1="382.300000" y1="46.000000" x2="386.300000" y2="46.000000"  style="stroke:black; stroke-linecap:round; stroke-width:0.25;"/>
<line x1="386.300000" y1="46.000000" x2="396.300000" y2="46.000000"  style="stroke:black; stroke-linecap:round; stroke-width:0.25;"/>
<line x1="396.300000" y1="46.000000" x2="404.300000" y2="46.000000"  style="stroke:black; stroke-linecap:round; stroke-width:0.25;"/>
<line x1="396.300000" y1="66.000000" x2="404.300000" y2="66.000000"  style="stroke:black; stroke-linecap:round; stroke-width:0.25;"/>
<line x1="396.300000" y1="88.000000" x2="396.300000" y2="66.000000"  style="stroke:black; stroke-linecap:round; stroke-width:0.25;"/>
<line x1="396.300000" y1="88.000000" x2="396.300000" y2="88.000000"  style="stroke:black; stroke-linecap:round; stroke-width:0.25;"/>
<line x1="404.300000" y1="46.000000" x2="404.300000" y2="58.000000"  style="stroke:black; stroke-linecap:round; stroke-width:0.25;"/>
<line x1="404.300000" y1="58.000000" x2="404.300000" y2="58.000000"  style="stroke:black; stroke-linecap:round; stroke-width:0.25;"/>
<line x1="404.300000" y1="58.000000" x2="408.300000" y2="58.000000"  style="stroke:black; stroke-linecap:round; stroke-width:0.25;"/>
<line x1="404.300000" y1="66.000000" x2="408.300000" y2="66.000000"  style="stroke:black; stroke-linecap:round; stroke-width:0.25;"/>
<line x1="432.300000" y1="62.000000" x2="436.300000" y2="62.000000"  style="stroke:black; stroke-linecap:round; stroke-width:0.25;"/>
<line x1="436.300000" y1="62.000000" x2="436.300000" y2="62.000000"  style="stroke:black; stroke-linecap:round; stroke-width:0.25;"/>
<line x1="436.300000" y1="62.000000" x2="440.300000" y2="62.000000"  style="stroke:black; stroke-linecap:round; stroke-width:0.25;"/>
<line x1="440.300000" y1="62.000000" x2="444.300000" y2="62.000000"  style="stroke:black; stroke-linecap:round; stroke-width:0.25;"/>
<line x1="444.300000" y1="62.000000" x2="454.300000" y2="62.000000"  style="stroke:black; stroke-linecap:round; stroke-width:0.25;"/>
</svg>
