<?xml version="1.0"?>
<svg xmlns="http://www.w3.org/2000/svg" xmlns:xlink="http://www.w3.org/1999/xlink" viewBox="0 0 381.900000 240.000000" width="190.950000mm" height="120.000000mm" version="1.1">
<a xlink:href="embouchureDelay-0x7fde6d1e0d10.svg">
<rect x="1.000000" y="1.000000" width="380.900000" height="239.000000" rx="0" ry="0" style="stroke:none;fill:#cccccc;"/>
<rect x="0.000000" y="0.000000" width="380.900000" height="239.000000" rx="0" ry="0" style="stroke:none;fill:#ffffff;"/>
</a>
<text x="10.000000" y="7.000000" font-family="Arial" font-size="7"></text>
<rect x="155.950000" y="25.000000" width="24.000000" height="24.000000" rx="0" ry="0" style="stroke:none;fill:#cccccc;"/>
<rect x="154.950000" y="24.000000" width="24.000000" height="24.000000" rx="0" ry="0" style="stroke:none;fill:#47945E;"/>
<text x="166.950000" y="38.000000" font-family="Arial" font-size="7" text-anchor="middle" fill="#FFFFFF">x</text>
<circle cx="156.950000" cy="26.000000" r="1"/>
<a xlink:href="embouchureDelayL-0x7fde6c4aecf0.svg">
<rect x="25.000000" y="57.000000" width="141.900000" height="24.000000" rx="0" ry="0" style="stroke:none;fill:#cccccc;"/>
<rect x="24.000000" y="56.000000" width="141.900000" height="24.000000" rx="0" ry="0" style="stroke:none;fill:#003366;"/>
</a>
<a xlink:href="embouchureDelayL-0x7fde6c4aecf0.svg">
<text x="94.950000" y="70.000000" font-family="Arial" font-size="7" text-anchor="middle" fill="#FFFFFF">embouchureDelayLength(1174.64f)</text>
</a>
<circle cx="26.000000" cy="58.000000" r="1"/>
<rect x="174.900000" y="57.000000" width="24.000000" height="24.000000" rx="0" ry="0" style="stroke:none;fill:#cccccc;"/>
<rect x="173.900000" y="56.000000" width="24.000000" height="24.000000" rx="0" ry="0" style="stroke:none;fill:#4B71A1;"/>
<text x="185.900000" y="70.000000" font-family="Arial" font-size="7" text-anchor="middle" fill="#FFFFFF">int</text>
<circle cx="175.900000" cy="58.000000" r="1"/>
<line x1="170.900000" y1="67.000000" x2="173.900000" y2="68.000000"  transform="rotate(0.000000,173.900000,68.000000)" style="stroke: black; stroke-width:0.25;"/>
<line x1="170.900000" y1="69.000000" x2="173.900000" y2="68.000000"  transform="rotate(0.000000,173.900000,68.000000)" style="stroke: black; stroke-width:0.25;"/>
<rect x="99.950000" y="99.000000" width="24.000000" height="24.000000" rx="0" ry="0" style="stroke:none;fill:#cccccc;"/>
<rect x="98.950000" y="98.000000" width="24.000000" height="24.000000" rx="0" ry="0" style="stroke:none;fill:#f44800;"/>
<text x="110.950000" y="112.000000" font-family="Arial" font-size="7" text-anchor="middle" fill="#FFFFFF">1</text>
<circle cx="100.950000" cy="100.000000" r="1"/>
<line x1="89.950000" y1="89.000000" x2="89.950000" y2="131.000000"  style="stroke: black; stroke-linecap:round; stroke-width:0.25; stroke-dasharray:3,3;"/>
<line x1="89.950000" y1="131.000000" x2="131.950000" y2="131.000000"  style="stroke: black; stroke-linecap:round; stroke-width:0.25; stroke-dasharray:3,3;"/>
<line x1="131.950000" y1="131.000000" x2="131.950000" y2="89.000000"  style="stroke: black; stroke-linecap:round; stroke-width:0.25; stroke-dasharray:3,3;"/>
<line x1="89.950000" y1="89.000000" x2="94.950000" y2="89.000000"  style="stroke: black; stroke-linecap:round; stroke-width:0.25; stroke-dasharray:3,3;"/>
<line x1="131.950000" y1="89.000000" x2="131.950000" y2="89.000000"  style="stroke: black; stroke-linecap:round; stroke-width:0.25; stroke-dasharray:3,3;"/>
<text x="94.950000" y="91.000000" font-family="Arial" font-size="7">env1Release</text>
<rect x="214.900000" y="83.000000" width="24.000000" height="24.000000" rx="0" ry="0" style="stroke:none;fill:#cccccc;"/>
<rect x="213.900000" y="82.000000" width="24.000000" height="24.000000" rx="0" ry="0" style="stroke:none;fill:#4B71A1;"/>
<text x="225.900000" y="96.000000" font-family="Arial" font-size="7" text-anchor="middle" fill="#FFFFFF">+</text>
<circle cx="215.900000" cy="84.000000" r="1"/>
<line x1="210.900000" y1="89.000000" x2="213.900000" y2="90.000000"  transform="rotate(0.000000,213.900000,90.000000)" style="stroke: black; stroke-width:0.25;"/>
<line x1="210.900000" y1="91.000000" x2="213.900000" y2="90.000000"  transform="rotate(0.000000,213.900000,90.000000)" style="stroke: black; stroke-width:0.25;"/>
<line x1="210.900000" y1="97.000000" x2="213.900000" y2="98.000000"  transform="rotate(0.000000,213.900000,98.000000)" style="stroke: black; stroke-width:0.25;"/>
<line x1="210.900000" y1="99.000000" x2="213.900000" y2="98.000000"  transform="rotate(0.000000,213.900000,98.000000)" style="stroke: black; stroke-width:0.25;"/>
<rect x="246.900000" y="83.000000" width="24.000000" height="24.000000" rx="0" ry="0" style="stroke:none;fill:#cccccc;"/>
<rect x="245.900000" y="82.000000" width="24.000000" height="24.000000" rx="0" ry="0" style="stroke:none;fill:#4B71A1;"/>
<text x="257.900000" y="96.000000" font-family="Arial" font-size="7" text-anchor="middle" fill="#FFFFFF">int</text>
<circle cx="247.900000" cy="84.000000" r="1"/>
<line x1="242.900000" y1="93.000000" x2="245.900000" y2="94.000000"  transform="rotate(0.000000,245.900000,94.000000)" style="stroke: black; stroke-width:0.25;"/>
<line x1="242.900000" y1="95.000000" x2="245.900000" y2="94.000000"  transform="rotate(0.000000,245.900000,94.000000)" style="stroke: black; stroke-width:0.25;"/>
<rect x="115.050000" y="141.000000" width="25.800000" height="24.000000" rx="0" ry="0" style="stroke:none;fill:#cccccc;"/>
<rect x="114.050000" y="140.000000" width="25.800000" height="24.000000" rx="0" ry="0" style="stroke:none;fill:#f44800;"/>
<text x="126.950000" y="154.000000" font-family="Arial" font-size="7" text-anchor="middle" fill="#FFFFFF">4096</text>
<circle cx="116.050000" cy="142.000000" r="1"/>
<rect x="115.950000" y="183.000000" width="24.000000" height="24.000000" rx="0" ry="0" style="stroke:none;fill:#cccccc;"/>
<rect x="114.950000" y="182.000000" width="24.000000" height="24.000000" rx="0" ry="0" style="stroke:none;fill:#f44800;"/>
<text x="126.950000" y="196.000000" font-family="Arial" font-size="7" text-anchor="middle" fill="#FFFFFF">1</text>
<circle cx="116.950000" cy="184.000000" r="1"/>
<line x1="105.950000" y1="173.000000" x2="105.950000" y2="215.000000"  style="stroke: black; stroke-linecap:round; stroke-width:0.25; stroke-dasharray:3,3;"/>
<line x1="105.950000" y1="215.000000" x2="147.950000" y2="215.000000"  style="stroke: black; stroke-linecap:round; stroke-width:0.25; stroke-dasharray:3,3;"/>
<line x1="147.950000" y1="215.000000" x2="147.950000" y2="173.000000"  style="stroke: black; stroke-linecap:round; stroke-width:0.25; stroke-dasharray:3,3;"/>
<line x1="105.950000" y1="173.000000" x2="110.950000" y2="173.000000"  style="stroke: black; stroke-linecap:round; stroke-width:0.25; stroke-dasharray:3,3;"/>
<line x1="147.950000" y1="173.000000" x2="147.950000" y2="173.000000"  style="stroke: black; stroke-linecap:round; stroke-width:0.25; stroke-dasharray:3,3;"/>
<text x="110.950000" y="175.000000" font-family="Arial" font-size="7">env1Release</text>
<rect x="165.950000" y="167.000000" width="24.000000" height="24.000000" rx="0" ry="0" style="stroke:none;fill:#cccccc;"/>
<rect x="164.950000" y="166.000000" width="24.000000" height="24.000000" rx="0" ry="0" style="stroke:none;fill:#4B71A1;"/>
<text x="176.950000" y="180.000000" font-family="Arial" font-size="7" text-anchor="middle" fill="#FFFFFF">-</text>
<circle cx="166.950000" cy="168.000000" r="1"/>
<line x1="161.950000" y1="173.000000" x2="164.950000" y2="174.000000"  transform="rotate(0.000000,164.950000,174.000000)" style="stroke: black; stroke-width:0.25;"/>
<line x1="161.950000" y1="175.000000" x2="164.950000" y2="174.000000"  transform="rotate(0.000000,164.950000,174.000000)" style="stroke: black; stroke-width:0.25;"/>
<line x1="161.950000" y1="181.000000" x2="164.950000" y2="182.000000"  transform="rotate(0.000000,164.950000,182.000000)" style="stroke: black; stroke-width:0.25;"/>
<line x1="161.950000" y1="183.000000" x2="164.950000" y2="182.000000"  transform="rotate(0.000000,164.950000,182.000000)" style="stroke: black; stroke-width:0.25;"/>
<rect x="286.900000" y="125.000000" width="24.000000" height="24.000000" rx="0" ry="0" style="stroke:none;fill:#cccccc;"/>
<rect x="285.900000" y="124.000000" width="24.000000" height="24.000000" rx="0" ry="0" style="stroke:none;fill:#4B71A1;"/>
<text x="297.900000" y="138.000000" font-family="Arial" font-size="7" text-anchor="middle" fill="#FFFFFF">&amp;</text>
<circle cx="287.900000" cy="126.000000" r="1"/>
<line x1="282.900000" y1="131.000000" x2="285.900000" y2="132.000000"  transform="rotate(0.000000,285.900000,132.000000)" style="stroke: black; stroke-width:0.25;"/>
<line x1="282.900000" y1="133.000000" x2="285.900000" y2="132.000000"  transform="rotate(0.000000,285.900000,132.000000)" style="stroke: black; stroke-width:0.25;"/>
<line x1="282.900000" y1="139.000000" x2="285.900000" y2="140.000000"  transform="rotate(0.000000,285.900000,140.000000)" style="stroke: black; stroke-width:0.25;"/>
<line x1="282.900000" y1="141.000000" x2="285.900000" y2="140.000000"  transform="rotate(0.000000,285.900000,140.000000)" style="stroke: black; stroke-width:0.25;"/>
<rect x="326.900000" y="109.000000" width="24.000000" height="24.000000" rx="0" ry="0" style="stroke:none;fill:#cccccc;"/>
<rect x="325.900000" y="108.000000" width="24.000000" height="24.000000" rx="0" ry="0" style="stroke:none;fill:#4B71A1;"/>
<text x="337.900000" y="122.000000" font-family="Arial" font-size="7" text-anchor="middle" fill="#FFFFFF">@</text>
<circle cx="327.900000" cy="110.000000" r="1"/>
<line x1="322.900000" y1="115.000000" x2="325.900000" y2="116.000000"  transform="rotate(0.000000,325.900000,116.000000)" style="stroke: black; stroke-width:0.25;"/>
<line x1="322.900000" y1="117.000000" x2="325.900000" y2="116.000000"  transform="rotate(0.000000,325.900000,116.000000)" style="stroke: black; stroke-width:0.25;"/>
<line x1="322.900000" y1="123.000000" x2="325.900000" y2="124.000000"  transform="rotate(0.000000,325.900000,124.000000)" style="stroke: black; stroke-width:0.25;"/>
<line x1="322.900000" y1="125.000000" x2="325.900000" y2="124.000000"  transform="rotate(0.000000,325.900000,124.000000)" style="stroke: black; stroke-width:0.25;"/>
<line x1="15.000000" y1="15.000000" x2="15.000000" y2="225.000000"  style="stroke: black; stroke-linecap:round; stroke-width:0.25; stroke-dasharray:3,3;"/>
<line x1="15.000000" y1="225.000000" x2="366.900000" y2="225.000000"  style="stroke: black; stroke-linecap:round; stroke-width:0.25; stroke-dasharray:3,3;"/>
<line x1="366.900000" y1="225.000000" x2="366.900000" y2="15.000000"  style="stroke: black; stroke-linecap:round; stroke-width:0.25; stroke-dasharray:3,3;"/>
<line x1="15.000000" y1="15.000000" x2="20.000000" y2="15.000000"  style="stroke: black; stroke-linecap:round; stroke-width:0.25; stroke-dasharray:3,3;"/>
<line x1="139.325000" y1="15.000000" x2="366.900000" y2="15.000000"  style="stroke: black; stroke-linecap:round; stroke-width:0.25; stroke-dasharray:3,3;"/>
<text x="20.000000" y="17.000000" font-family="Arial" font-size="7">delay(4096)((...: int),1 : +)(x558)</text>
<line x1="368.900000" y1="119.000000" x2="371.900000" y2="120.000000"  transform="rotate(0.000000,371.900000,120.000000)" style="stroke: black; stroke-width:0.25;"/>
<line x1="368.900000" y1="121.000000" x2="371.900000" y2="120.000000"  transform="rotate(0.000000,371.900000,120.000000)" style="stroke: black; stroke-width:0.25;"/>
<line x1="122.950000" y1="110.000000" x2="126.950000" y2="110.000000"  style="stroke:black; stroke-linecap:round; stroke-width:0.25;"/>
<line x1="126.950000" y1="110.000000" x2="136.950000" y2="110.000000"  style="stroke:black; stroke-linecap:round; stroke-width:0.25;"/>
<line x1="136.950000" y1="110.000000" x2="201.900000" y2="110.000000"  style="stroke:black; stroke-linecap:round; stroke-width:0.25;"/>
<line x1="138.950000" y1="194.000000" x2="142.950000" y2="194.000000"  style="stroke:black; stroke-linecap:round; stroke-width:0.25;"/>
<line x1="139.850000" y1="152.000000" x2="143.850000" y2="152.000000"  style="stroke:black; stroke-linecap:round; stroke-width:0.25;"/>
<line x1="142.950000" y1="194.000000" x2="152.950000" y2="194.000000"  style="stroke:black; stroke-linecap:round; stroke-width:0.25;"/>
<line x1="143.850000" y1="152.000000" x2="152.950000" y2="152.000000"  style="stroke:black; stroke-linecap:round; stroke-width:0.25;"/>
<line x1="152.950000" y1="182.000000" x2="160.950000" y2="182.000000"  style="stroke:black; stroke-linecap:round; stroke-width:0.25;"/>
<line x1="152.950000" y1="194.000000" x2="152.950000" y2="182.000000"  style="stroke:black; stroke-linecap:round; stroke-width:0.25;"/>
<line x1="152.950000" y1="194.000000" x2="152.950000" y2="194.000000"  style="stroke:black; stroke-linecap:round; stroke-width:0.25;"/>
<line x1="152.950000" y1="152.000000" x2="160.950000" y2="152.000000"  style="stroke:black; stroke-linecap:round; stroke-width:0.25;"/>
<line x1="160.950000" y1="174.000000" x2="164.950000" y2="174.000000"  style="stroke:black; stroke-linecap:round; stroke-width:0.25;"/>
<line x1="160.950000" y1="182.000000" x2="164.950000" y2="182.000000"  style="stroke:black; stroke-linecap:round; stroke-width:0.25;"/>
<line x1="160.950000" y1="152.000000" x2="160.950000" y2="174.000000"  style="stroke:black; stroke-linecap:round; stroke-width:0.25;"/>
<line x1="160.950000" y1="174.000000" x2="160.950000" y2="174.000000"  style="stroke:black; stroke-linecap:round; stroke-width:0.25;"/>
<line x1="165.900000" y1="68.000000" x2="169.900000" y2="68.000000"  style="stroke:black; stroke-linecap:round; stroke-width:0.25;"/>
<line x1="169.900000" y1="68.000000" x2="169.900000" y2="68.000000"  style="stroke:black; stroke-linecap:round; stroke-width:0.25;"/>
<line x1="169.900000" y1="68.000000" x2="173.900000" y2="68.000000"  style="stroke:black; stroke-linecap:round; stroke-width:0.25;"/>
<line x1="178.950000" y1="36.000000" x2="182.950000" y2="36.000000"  style="stroke:black; stroke-linecap:round; stroke-width:0.25;"/>
<line x1="182.950000" y1="36.000000" x2="313.900000" y2="36.000000"  style="stroke:black; stroke-linecap:round; stroke-width:0.25;"/>
<line x1="188.950000" y1="178.000000" x2="192.950000" y2="178.000000"  style="stroke:black; stroke-linecap:round; stroke-width:0.25;"/>
<line x1="192.950000" y1="178.000000" x2="273.900000" y2="178.000000"  style="stroke:black; stroke-linecap:round; stroke-width:0.25;"/>
<line x1="197.900000" y1="68.000000" x2="201.900000" y2="68.000000"  style="stroke:black; stroke-linecap:round; stroke-width:0.25;"/>
<line x1="201.900000" y1="98.000000" x2="209.900000" y2="98.000000"  style="stroke:black; stroke-linecap:round; stroke-width:0.25;"/>
<line x1="201.900000" y1="110.000000" x2="201.900000" y2="98.000000"  style="stroke:black; stroke-linecap:round; stroke-width:0.25;"/>
<line x1="201.900000" y1="110.000000" x2="201.900000" y2="110.000000"  style="stroke:black; stroke-linecap:round; stroke-width:0.25;"/>
<line x1="201.900000" y1="68.000000" x2="209.900000" y2="68.000000"  style="stroke:black; stroke-linecap:round; stroke-width:0.25;"/>
<line x1="209.900000" y1="68.000000" x2="209.900000" y2="90.000000"  style="stroke:black; stroke-linecap:round; stroke-width:0.25;"/>
<line x1="209.900000" y1="90.000000" x2="209.900000" y2="90.000000"  style="stroke:black; stroke-linecap:round; stroke-width:0.25;"/>
<line x1="209.900000" y1="90.000000" x2="213.900000" y2="90.000000"  style="stroke:black; stroke-linecap:round; stroke-width:0.25;"/>
<line x1="209.900000" y1="98.000000" x2="213.900000" y2="98.000000"  style="stroke:black; stroke-linecap:round; stroke-width:0.25;"/>
<line x1="237.900000" y1="94.000000" x2="241.900000" y2="94.000000"  style="stroke:black; stroke-linecap:round; stroke-width:0.25;"/>
<line x1="241.900000" y1="94.000000" x2="241.900000" y2="94.000000"  style="stroke:black; stroke-linecap:round; stroke-width:0.25;"/>
<line x1="241.900000" y1="94.000000" x2="245.900000" y2="94.000000"  style="stroke:black; stroke-linecap:round; stroke-width:0.25;"/>
<line x1="269.900000" y1="94.000000" x2="273.900000" y2="94.000000"  style="stroke:black; stroke-linecap:round; stroke-width:0.25;"/>
<line x1="273.900000" y1="94.000000" x2="281.900000" y2="94.000000"  style="stroke:black; stroke-linecap:round; stroke-width:0.25;"/>
<line x1="273.900000" y1="140.000000" x2="281.900000" y2="140.000000"  style="stroke:black; stroke-linecap:round; stroke-width:0.25;"/>
<line x1="273.900000" y1="178.000000" x2="273.900000" y2="140.000000"  style="stroke:black; stroke-linecap:round; stroke-width:0.25;"/>
<line x1="273.900000" y1="178.000000" x2="273.900000" y2="178.000000"  style="stroke:black; stroke-linecap:round; stroke-width:0.25;"/>
<line x1="281.900000" y1="94.000000" x2="281.900000" y2="132.000000"  style="stroke:black; stroke-linecap:round; stroke-width:0.25;"/>
<line x1="281.900000" y1="132.000000" x2="281.900000" y2="132.000000"  style="stroke:black; stroke-linecap:round; stroke-width:0.25;"/>
<line x1="281.900000" y1="132.000000" x2="285.900000" y2="132.000000"  style="stroke:black; stroke-linecap:round; stroke-width:0.25;"/>
<line x1="281.900000" y1="140.000000" x2="285.900000" y2="140.000000"  style="stroke:black; stroke-linecap:round; stroke-width:0.25;"/>
<line x1="309.900000" y1="136.000000" x2="313.900000" y2="136.000000"  style="stroke:black; stroke-linecap:round; stroke-width:0.25;"/>
<line x1="313.900000" y1="36.000000" x2="321.900000" y2="36.000000"  style="stroke:black; stroke-linecap:round; stroke-width:0.25;"/>
<line x1="313.900000" y1="124.000000" x2="321.900000" y2="124.000000"  style="stroke:black; stroke-linecap:round; stroke-width:0.25;"/>
<line x1="313.900000" y1="136.000000" x2="313.900000" y2="124.000000"  style="stroke:black; stroke-linecap:round; stroke-width:0.25;"/>
<line x1="313.900000" y1="136.000000" x2="313.900000" y2="136.000000"  style="stroke:black; stroke-linecap:round; stroke-width:0.25;"/>
<line x1="321.900000" y1="36.000000" x2="321.900000" y2="116.000000"  style="stroke:black; stroke-linecap:round; stroke-width:0.25;"/>
<line x1="321.900000" y1="116.000000" x2="321.900000" y2="116.000000"  style="stroke:black; stroke-linecap:round; stroke-width:0.25;"/>
<line x1="321.900000" y1="116.000000" x2="325.900000" y2="116.000000"  style="stroke:black; stroke-linecap:round; stroke-width:0.25;"/>
<line x1="321.900000" y1="124.000000" x2="325.900000" y2="124.000000"  style="stroke:black; stroke-linecap:round; stroke-width:0.25;"/>
<line x1="349.900000" y1="120.000000" x2="353.900000" y2="120.000000"  style="stroke:black; stroke-linecap:round; stroke-width:0.25;"/>
<line x1="353.900000" y1="120.000000" x2="353.900000" y2="120.000000"  style="stroke:black; stroke-linecap:round; stroke-width:0.25;"/>
<line x1="353.900000" y1="120.000000" x2="357.900000" y2="120.000000"  style="stroke:black; stroke-linecap:round; stroke-width:0.25;"/>
<line x1="357.900000" y1="120.000000" x2="361.900000" y2="120.000000"  style="stroke:black; stroke-linecap:round; stroke-width:0.25;"/>
<line x1="361.900000" y1="120.000000" x2="371.900000" y2="120.000000"  style="stroke:black; stroke-linecap:round; stroke-width:0.25;"/>
</svg>
