<?xml version="1.0"?>
<svg xmlns="http://www.w3.org/2000/svg" xmlns:xlink="http://www.w3.org/1999/xlink" viewBox="0 0 269.900000 104.000000" width="134.950000mm" height="52.000000mm" version="1.1">
<a xlink:href="embouchureDelay-0x7fde6d1e0d10.svg">
<rect x="1.000000" y="1.000000" width="268.900000" height="103.000000" rx="0" ry="0" style="stroke:none;fill:#cccccc;"/>
<rect x="0.000000" y="0.000000" width="268.900000" height="103.000000" rx="0" ry="0" style="stroke:none;fill:#ffffff;"/>
</a>
<text x="10.000000" y="7.000000" font-family="Arial" font-size="7"></text>
<a xlink:href="embouchureDelayL-0x7fde6c4aecf0.svg">
<rect x="41.000000" y="25.000000" width="141.900000" height="24.000000" rx="0" ry="0" style="stroke:none;fill:#cccccc;"/>
<rect x="40.000000" y="24.000000" width="141.900000" height="24.000000" rx="0" ry="0" style="stroke:none;fill:#003366;"/>
</a>
<a xlink:href="embouchureDelayL-0x7fde6c4aecf0.svg">
<text x="110.950000" y="38.000000" font-family="Arial" font-size="7" text-anchor="middle" fill="#FFFFFF">embouchureDelayLength(1174.64f)</text>
</a>
<circle cx="42.000000" cy="26.000000" r="1"/>
<a xlink:href="embouchureDelayL-0x7fde6c4aecf0.svg">
<rect x="25.000000" y="57.000000" width="141.900000" height="24.000000" rx="0" ry="0" style="stroke:none;fill:#cccccc;"/>
<rect x="24.000000" y="56.000000" width="141.900000" height="24.000000" rx="0" ry="0" style="stroke:none;fill:#003366;"/>
</a>
<a xlink:href="embouchureDelayL-0x7fde6c4aecf0.svg">
<text x="94.950000" y="70.000000" font-family="Arial" font-size="7" text-anchor="middle" fill="#FFFFFF">embouchureDelayLength(1174.64f)</text>
</a>
<circle cx="26.000000" cy="58.000000" r="1"/>
<rect x="174.900000" y="57.000000" width="24.000000" height="24.000000" rx="0" ry="0" style="stroke:none;fill:#cccccc;"/>
<rect x="173.900000" y="56.000000" width="24.000000" height="24.000000" rx="0" ry="0" style="stroke:none;fill:#4B71A1;"/>
<text x="185.900000" y="70.000000" font-family="Arial" font-size="7" text-anchor="middle" fill="#FFFFFF">int</text>
<circle cx="175.900000" cy="58.000000" r="1"/>
<line x1="170.900000" y1="67.000000" x2="173.900000" y2="68.000000"  transform="rotate(0.000000,173.900000,68.000000)" style="stroke: black; stroke-width:0.25;"/>
<line x1="170.900000" y1="69.000000" x2="173.900000" y2="68.000000"  transform="rotate(0.000000,173.900000,68.000000)" style="stroke: black; stroke-width:0.25;"/>
<rect x="214.900000" y="41.000000" width="24.000000" height="24.000000" rx="0" ry="0" style="stroke:none;fill:#cccccc;"/>
<rect x="213.900000" y="40.000000" width="24.000000" height="24.000000" rx="0" ry="0" style="stroke:none;fill:#4B71A1;"/>
<text x="225.900000" y="54.000000" font-family="Arial" font-size="7" text-anchor="middle" fill="#FFFFFF">-</text>
<circle cx="215.900000" cy="42.000000" r="1"/>
<line x1="210.900000" y1="47.000000" x2="213.900000" y2="48.000000"  transform="rotate(0.000000,213.900000,48.000000)" style="stroke: black; stroke-width:0.25;"/>
<line x1="210.900000" y1="49.000000" x2="213.900000" y2="48.000000"  transform="rotate(0.000000,213.900000,48.000000)" style="stroke: black; stroke-width:0.25;"/>
<line x1="210.900000" y1="55.000000" x2="213.900000" y2="56.000000"  transform="rotate(0.000000,213.900000,56.000000)" style="stroke: black; stroke-width:0.25;"/>
<line x1="210.900000" y1="57.000000" x2="213.900000" y2="56.000000"  transform="rotate(0.000000,213.900000,56.000000)" style="stroke: black; stroke-width:0.25;"/>
<line x1="15.000000" y1="15.000000" x2="15.000000" y2="89.000000"  style="stroke: black; stroke-linecap:round; stroke-width:0.25; stroke-dasharray:3,3;"/>
<line x1="15.000000" y1="89.000000" x2="254.900000" y2="89.000000"  style="stroke: black; stroke-linecap:round; stroke-width:0.25; stroke-dasharray:3,3;"/>
<line x1="254.900000" y1="89.000000" x2="254.900000" y2="15.000000"  style="stroke: black; stroke-linecap:round; stroke-width:0.25; stroke-dasharray:3,3;"/>
<line x1="15.000000" y1="15.000000" x2="20.000000" y2="15.000000"  style="stroke: black; stroke-linecap:round; stroke-width:0.25; stroke-dasharray:3,3;"/>
<line x1="119.975000" y1="15.000000" x2="254.900000" y2="15.000000"  style="stroke: black; stroke-linecap:round; stroke-width:0.25; stroke-dasharray:3,3;"/>
<text x="20.000000" y="17.000000" font-family="Arial" font-size="7">frac((((19200...2 : /),2 : -)</text>
<line x1="256.900000" y1="51.000000" x2="259.900000" y2="52.000000"  transform="rotate(0.000000,259.900000,52.000000)" style="stroke: black; stroke-width:0.25;"/>
<line x1="256.900000" y1="53.000000" x2="259.900000" y2="52.000000"  transform="rotate(0.000000,259.900000,52.000000)" style="stroke: black; stroke-width:0.25;"/>
<line x1="165.900000" y1="68.000000" x2="169.900000" y2="68.000000"  style="stroke:black; stroke-linecap:round; stroke-width:0.25;"/>
<line x1="169.900000" y1="68.000000" x2="169.900000" y2="68.000000"  style="stroke:black; stroke-linecap:round; stroke-width:0.25;"/>
<line x1="169.900000" y1="68.000000" x2="173.900000" y2="68.000000"  style="stroke:black; stroke-linecap:round; stroke-width:0.25;"/>
<line x1="181.900000" y1="36.000000" x2="185.900000" y2="36.000000"  style="stroke:black; stroke-linecap:round; stroke-width:0.25;"/>
<line x1="185.900000" y1="36.000000" x2="201.900000" y2="36.000000"  style="stroke:black; stroke-linecap:round; stroke-width:0.25;"/>
<line x1="197.900000" y1="68.000000" x2="201.900000" y2="68.000000"  style="stroke:black; stroke-linecap:round; stroke-width:0.25;"/>
<line x1="201.900000" y1="36.000000" x2="209.900000" y2="36.000000"  style="stroke:black; stroke-linecap:round; stroke-width:0.25;"/>
<line x1="201.900000" y1="56.000000" x2="209.900000" y2="56.000000"  style="stroke:black; stroke-linecap:round; stroke-width:0.25;"/>
<line x1="201.900000" y1="68.000000" x2="201.900000" y2="56.000000"  style="stroke:black; stroke-linecap:round; stroke-width:0.25;"/>
<line x1="201.900000" y1="68.000000" x2="201.900000" y2="68.000000"  style="stroke:black; stroke-linecap:round; stroke-width:0.25;"/>
<line x1="209.900000" y1="36.000000" x2="209.900000" y2="48.000000"  style="stroke:black; stroke-linecap:round; stroke-width:0.25;"/>
<line x1="209.900000" y1="48.000000" x2="209.900000" y2="48.000000"  style="stroke:black; stroke-linecap:round; stroke-width:0.25;"/>
<line x1="209.900000" y1="48.000000" x2="213.900000" y2="48.000000"  style="stroke:black; stroke-linecap:round; stroke-width:0.25;"/>
<line x1="209.900000" y1="56.000000" x2="213.900000" y2="56.000000"  style="stroke:black; stroke-linecap:round; stroke-width:0.25;"/>
<line x1="237.900000" y1="52.000000" x2="241.900000" y2="52.000000"  style="stroke:black; stroke-linecap:round; stroke-width:0.25;"/>
<line x1="241.900000" y1="52.000000" x2="241.900000" y2="52.000000"  style="stroke:black; stroke-linecap:round; stroke-width:0.25;"/>
<line x1="241.900000" y1="52.000000" x2="245.900000" y2="52.000000"  style="stroke:black; stroke-linecap:round; stroke-width:0.25;"/>
<line x1="245.900000" y1="52.000000" x2="249.900000" y2="52.000000"  style="stroke:black; stroke-linecap:round; stroke-width:0.25;"/>
<line x1="249.900000" y1="52.000000" x2="259.900000" y2="52.000000"  style="stroke:black; stroke-linecap:round; stroke-width:0.25;"/>
</svg>
