<?xml version="1.0"?>
<svg xmlns="http://www.w3.org/2000/svg" xmlns:xlink="http://www.w3.org/1999/xlink" viewBox="0 0 774.200000 180.000000" width="387.100000mm" height="90.000000mm" version="1.1">
<rect x="1.000000" y="1.000000" width="773.200000" height="179.000000" rx="0" ry="0" style="stroke:none;fill:#cccccc;"/>
<rect x="0.000000" y="0.000000" width="773.200000" height="179.000000" rx="0" ry="0" style="stroke:none;fill:#ffffff;"/>
<text x="10.000000" y="7.000000" font-family="Arial" font-size="7"></text>
<rect x="43.000000" y="99.000000" width="25.800000" height="24.000000" rx="0" ry="0" style="stroke:none;fill:#cccccc;"/>
<rect x="42.000000" y="98.000000" width="25.800000" height="24.000000" rx="0" ry="0" style="stroke:none;fill:#f44800;"/>
<text x="54.900000" y="112.000000" font-family="Arial" font-size="7" text-anchor="middle" fill="#FFFFFF">0.85</text>
<circle cx="44.000000" cy="100.000000" r="1"/>
<rect x="84.800000" y="95.000000" width="24.000000" height="24.000000" rx="0" ry="0" style="stroke:none;fill:#cccccc;"/>
<rect x="83.800000" y="94.000000" width="24.000000" height="24.000000" rx="0" ry="0" style="stroke:none;fill:#4B71A1;"/>
<text x="95.800000" y="108.000000" font-family="Arial" font-size="7" text-anchor="middle" fill="#FFFFFF">*</text>
<circle cx="85.800000" cy="96.000000" r="1"/>
<line x1="80.800000" y1="101.000000" x2="83.800000" y2="102.000000"  transform="rotate(0.000000,83.800000,102.000000)" style="stroke: black; stroke-width:0.25;"/>
<line x1="80.800000" y1="103.000000" x2="83.800000" y2="102.000000"  transform="rotate(0.000000,83.800000,102.000000)" style="stroke: black; stroke-width:0.25;"/>
<line x1="80.800000" y1="109.000000" x2="83.800000" y2="110.000000"  transform="rotate(0.000000,83.800000,110.000000)" style="stroke: black; stroke-width:0.25;"/>
<line x1="80.800000" y1="111.000000" x2="83.800000" y2="110.000000"  transform="rotate(0.000000,83.800000,110.000000)" style="stroke: black; stroke-width:0.25;"/>
<line x1="33.000000" y1="81.000000" x2="33.000000" y2="131.000000"  style="stroke: black; stroke-linecap:round; stroke-width:0.25; stroke-dasharray:3,3;"/>
<line x1="33.000000" y1="131.000000" x2="116.800000" y2="131.000000"  style="stroke: black; stroke-linecap:round; stroke-width:0.25; stroke-dasharray:3,3;"/>
<line x1="116.800000" y1="131.000000" x2="116.800000" y2="81.000000"  style="stroke: black; stroke-linecap:round; stroke-width:0.25; stroke-dasharray:3,3;"/>
<line x1="33.000000" y1="81.000000" x2="38.000000" y2="81.000000"  style="stroke: black; stroke-linecap:round; stroke-width:0.25; stroke-dasharray:3,3;"/>
<line x1="83.150000" y1="81.000000" x2="116.800000" y2="81.000000"  style="stroke: black; stroke-linecap:round; stroke-width:0.25; stroke-dasharray:3,3;"/>
<text x="38.000000" y="83.000000" font-family="Arial" font-size="7">borePressure</text>
<a xlink:href="deltaPressure-0x7f99bbd1a1c0.svg">
<rect x="168.800000" y="91.000000" width="64.500000" height="24.000000" rx="0" ry="0" style="stroke:none;fill:#cccccc;"/>
<rect x="167.800000" y="90.000000" width="64.500000" height="24.000000" rx="0" ry="0" style="stroke:none;fill:#003366;"/>
</a>
<a xlink:href="deltaPressure-0x7f99bbd1a1c0.svg">
<text x="200.050000" y="104.000000" font-family="Arial" font-size="7" text-anchor="middle" fill="#FFFFFF">deltaPressure</text>
</a>
<circle cx="169.800000" cy="92.000000" r="1"/>
<line x1="164.800000" y1="101.000000" x2="167.800000" y2="102.000000"  transform="rotate(0.000000,167.800000,102.000000)" style="stroke: black; stroke-width:0.25;"/>
<line x1="164.800000" y1="103.000000" x2="167.800000" y2="102.000000"  transform="rotate(0.000000,167.800000,102.000000)" style="stroke: black; stroke-width:0.25;"/>
<a xlink:href="lipFilter-0x7f99bbd21540.svg">
<rect x="249.300000" y="91.000000" width="38.700000" height="24.000000" rx="0" ry="0" style="stroke:none;fill:#cccccc;"/>
<rect x="248.300000" y="90.000000" width="38.700000" height="24.000000" rx="0" ry="0" style="stroke:none;fill:#003366;"/>
</a>
<a xlink:href="lipFilter-0x7f99bbd21540.svg">
<text x="267.650000" y="104.000000" font-family="Arial" font-size="7" text-anchor="middle" fill="#FFFFFF">lipFilter</text>
</a>
<circle cx="250.300000" cy="92.000000" r="1"/>
<line x1="245.300000" y1="101.000000" x2="248.300000" y2="102.000000"  transform="rotate(0.000000,248.300000,102.000000)" style="stroke: black; stroke-width:0.25;"/>
<line x1="245.300000" y1="103.000000" x2="248.300000" y2="102.000000"  transform="rotate(0.000000,248.300000,102.000000)" style="stroke: black; stroke-width:0.25;"/>
<a xlink:href="mouthPressure-0x7f99be119200.svg">
<rect x="329.000000" y="65.000000" width="64.500000" height="24.000000" rx="0" ry="0" style="stroke:none;fill:#cccccc;"/>
<rect x="328.000000" y="64.000000" width="64.500000" height="24.000000" rx="0" ry="0" style="stroke:none;fill:#003366;"/>
</a>
<a xlink:href="mouthPressure-0x7f99be119200.svg">
<text x="360.250000" y="78.000000" font-family="Arial" font-size="7" text-anchor="middle" fill="#FFFFFF">mouthPressure</text>
</a>
<circle cx="330.000000" cy="66.000000" r="1"/>
<rect x="409.500000" y="61.000000" width="24.000000" height="24.000000" rx="0" ry="0" style="stroke:none;fill:#cccccc;"/>
<rect x="408.500000" y="60.000000" width="24.000000" height="24.000000" rx="0" ry="0" style="stroke:none;fill:#4B71A1;"/>
<text x="420.500000" y="74.000000" font-family="Arial" font-size="7" text-anchor="middle" fill="#FFFFFF">*</text>
<circle cx="410.500000" cy="62.000000" r="1"/>
<line x1="405.500000" y1="67.000000" x2="408.500000" y2="68.000000"  transform="rotate(0.000000,408.500000,68.000000)" style="stroke: black; stroke-width:0.25;"/>
<line x1="405.500000" y1="69.000000" x2="408.500000" y2="68.000000"  transform="rotate(0.000000,408.500000,68.000000)" style="stroke: black; stroke-width:0.25;"/>
<line x1="405.500000" y1="75.000000" x2="408.500000" y2="76.000000"  transform="rotate(0.000000,408.500000,76.000000)" style="stroke: black; stroke-width:0.25;"/>
<line x1="405.500000" y1="77.000000" x2="408.500000" y2="76.000000"  transform="rotate(0.000000,408.500000,76.000000)" style="stroke: black; stroke-width:0.25;"/>
<rect x="349.250000" y="107.000000" width="24.000000" height="24.000000" rx="0" ry="0" style="stroke:none;fill:#cccccc;"/>
<rect x="348.250000" y="106.000000" width="24.000000" height="24.000000" rx="0" ry="0" style="stroke:none;fill:#f44800;"/>
<text x="360.250000" y="120.000000" font-family="Arial" font-size="7" text-anchor="middle" fill="#FFFFFF">1</text>
<circle cx="350.250000" cy="108.000000" r="1"/>
<line x1="339.250000" y1="97.000000" x2="339.250000" y2="139.000000"  style="stroke: black; stroke-linecap:round; stroke-width:0.25; stroke-dasharray:3,3;"/>
<line x1="339.250000" y1="139.000000" x2="381.250000" y2="139.000000"  style="stroke: black; stroke-linecap:round; stroke-width:0.25; stroke-dasharray:3,3;"/>
<line x1="381.250000" y1="139.000000" x2="381.250000" y2="97.000000"  style="stroke: black; stroke-linecap:round; stroke-width:0.25; stroke-dasharray:3,3;"/>
<line x1="339.250000" y1="97.000000" x2="344.250000" y2="97.000000"  style="stroke: black; stroke-linecap:round; stroke-width:0.25; stroke-dasharray:3,3;"/>
<line x1="357.150000" y1="97.000000" x2="381.250000" y2="97.000000"  style="stroke: black; stroke-linecap:round; stroke-width:0.25; stroke-dasharray:3,3;"/>
<text x="344.250000" y="99.000000" font-family="Arial" font-size="7">b0</text>
<rect x="399.250000" y="111.000000" width="24.000000" height="24.000000" rx="0" ry="0" style="stroke:none;fill:#cccccc;"/>
<rect x="398.250000" y="110.000000" width="24.000000" height="24.000000" rx="0" ry="0" style="stroke:none;fill:#4B71A1;"/>
<text x="410.250000" y="124.000000" font-family="Arial" font-size="7" text-anchor="middle" fill="#FFFFFF">-</text>
<circle cx="400.250000" cy="112.000000" r="1"/>
<line x1="395.250000" y1="117.000000" x2="398.250000" y2="118.000000"  transform="rotate(0.000000,398.250000,118.000000)" style="stroke: black; stroke-width:0.25;"/>
<line x1="395.250000" y1="119.000000" x2="398.250000" y2="118.000000"  transform="rotate(0.000000,398.250000,118.000000)" style="stroke: black; stroke-width:0.25;"/>
<line x1="395.250000" y1="125.000000" x2="398.250000" y2="126.000000"  transform="rotate(0.000000,398.250000,126.000000)" style="stroke: black; stroke-width:0.25;"/>
<line x1="395.250000" y1="127.000000" x2="398.250000" y2="126.000000"  transform="rotate(0.000000,398.250000,126.000000)" style="stroke: black; stroke-width:0.25;"/>
<rect x="457.500000" y="99.000000" width="24.000000" height="24.000000" rx="0" ry="0" style="stroke:none;fill:#cccccc;"/>
<rect x="456.500000" y="98.000000" width="24.000000" height="24.000000" rx="0" ry="0" style="stroke:none;fill:#4B71A1;"/>
<text x="468.500000" y="112.000000" font-family="Arial" font-size="7" text-anchor="middle" fill="#FFFFFF">*</text>
<circle cx="458.500000" cy="100.000000" r="1"/>
<line x1="453.500000" y1="105.000000" x2="456.500000" y2="106.000000"  transform="rotate(0.000000,456.500000,106.000000)" style="stroke: black; stroke-width:0.25;"/>
<line x1="453.500000" y1="107.000000" x2="456.500000" y2="106.000000"  transform="rotate(0.000000,456.500000,106.000000)" style="stroke: black; stroke-width:0.25;"/>
<line x1="453.500000" y1="113.000000" x2="456.500000" y2="114.000000"  transform="rotate(0.000000,456.500000,114.000000)" style="stroke: black; stroke-width:0.25;"/>
<line x1="453.500000" y1="115.000000" x2="456.500000" y2="114.000000"  transform="rotate(0.000000,456.500000,114.000000)" style="stroke: black; stroke-width:0.25;"/>
<rect x="524.500000" y="95.000000" width="24.000000" height="24.000000" rx="0" ry="0" style="stroke:none;fill:#cccccc;"/>
<rect x="523.500000" y="94.000000" width="24.000000" height="24.000000" rx="0" ry="0" style="stroke:none;fill:#4B71A1;"/>
<text x="535.500000" y="108.000000" font-family="Arial" font-size="7" text-anchor="middle" fill="#FFFFFF">+</text>
<circle cx="525.500000" cy="96.000000" r="1"/>
<line x1="520.500000" y1="101.000000" x2="523.500000" y2="102.000000"  transform="rotate(0.000000,523.500000,102.000000)" style="stroke: black; stroke-width:0.25;"/>
<line x1="520.500000" y1="103.000000" x2="523.500000" y2="102.000000"  transform="rotate(0.000000,523.500000,102.000000)" style="stroke: black; stroke-width:0.25;"/>
<line x1="520.500000" y1="109.000000" x2="523.500000" y2="110.000000"  transform="rotate(0.000000,523.500000,110.000000)" style="stroke: black; stroke-width:0.25;"/>
<line x1="520.500000" y1="111.000000" x2="523.500000" y2="110.000000"  transform="rotate(0.000000,523.500000,110.000000)" style="stroke: black; stroke-width:0.25;"/>
<a xlink:href="dcblocker-0x7f99be126e60.svg">
<rect x="556.500000" y="95.000000" width="38.700000" height="24.000000" rx="0" ry="0" style="stroke:none;fill:#cccccc;"/>
<rect x="555.500000" y="94.000000" width="38.700000" height="24.000000" rx="0" ry="0" style="stroke:none;fill:#003366;"/>
</a>
<a xlink:href="dcblocker-0x7f99be126e60.svg">
<text x="574.850000" y="108.000000" font-family="Arial" font-size="7" text-anchor="middle" fill="#FFFFFF">dcblocker</text>
</a>
<circle cx="557.500000" cy="96.000000" r="1"/>
<line x1="552.500000" y1="105.000000" x2="555.500000" y2="106.000000"  transform="rotate(0.000000,555.500000,106.000000)" style="stroke: black; stroke-width:0.25;"/>
<line x1="552.500000" y1="107.000000" x2="555.500000" y2="106.000000"  transform="rotate(0.000000,555.500000,106.000000)" style="stroke: black; stroke-width:0.25;"/>
<a xlink:href="boreDelay-0x7f99bbd37680.svg">
<rect x="294.750000" y="25.000000" width="38.700000" height="24.000000" rx="0" ry="0" style="stroke:none;fill:#cccccc;"/>
<rect x="293.750000" y="24.000000" width="38.700000" height="24.000000" rx="0" ry="0" style="stroke:none;fill:#003366;"/>
</a>
<a xlink:href="boreDelay-0x7f99bbd37680.svg">
<text x="313.100000" y="38.000000" font-family="Arial" font-size="7" text-anchor="middle" fill="#FFFFFF">boreDelay</text>
</a>
<circle cx="330.450000" cy="46.000000" r="1"/>
<line x1="335.450000" y1="35.000000" x2="332.450000" y2="36.000000"  transform="rotate(0.000000,332.450000,36.000000)" style="stroke: black; stroke-width:0.25;"/>
<line x1="335.450000" y1="37.000000" x2="332.450000" y2="36.000000"  transform="rotate(0.000000,332.450000,36.000000)" style="stroke: black; stroke-width:0.25;"/>
<line x1="596.200000" y1="106.000000" x2="596.200000" y2="102.000000"  style="stroke:black; stroke-linecap:round; stroke-width:0.25;"/>
<line x1="596.200000" y1="102.000000" x2="600.200000" y2="102.000000"  style="stroke:black; stroke-linecap:round; stroke-width:0.25;"/>
<line x1="600.200000" y1="102.000000" x2="600.200000" y2="106.000000"  style="stroke:black; stroke-linecap:round; stroke-width:0.25;"/>
<rect x="629.200000" y="67.000000" width="24.000000" height="24.000000" rx="0" ry="0" style="stroke:none;fill:#cccccc;"/>
<rect x="628.200000" y="66.000000" width="24.000000" height="24.000000" rx="0" ry="0" style="stroke:none;fill:#f44800;"/>
<text x="640.200000" y="80.000000" font-family="Arial" font-size="7" text-anchor="middle" fill="#FFFFFF">0.8</text>
<circle cx="630.200000" cy="68.000000" r="1"/>
<line x1="619.200000" y1="57.000000" x2="619.200000" y2="99.000000"  style="stroke: black; stroke-linecap:round; stroke-width:0.25; stroke-dasharray:3,3;"/>
<line x1="619.200000" y1="99.000000" x2="661.200000" y2="99.000000"  style="stroke: black; stroke-linecap:round; stroke-width:0.25; stroke-dasharray:3,3;"/>
<line x1="661.200000" y1="99.000000" x2="661.200000" y2="57.000000"  style="stroke: black; stroke-linecap:round; stroke-width:0.25; stroke-dasharray:3,3;"/>
<line x1="619.200000" y1="57.000000" x2="624.200000" y2="57.000000"  style="stroke: black; stroke-linecap:round; stroke-width:0.25; stroke-dasharray:3,3;"/>
<line x1="643.550000" y1="57.000000" x2="661.200000" y2="57.000000"  style="stroke: black; stroke-linecap:round; stroke-width:0.25; stroke-dasharray:3,3;"/>
<text x="624.200000" y="59.000000" font-family="Arial" font-size="7">gain</text>
<rect x="679.200000" y="63.000000" width="24.000000" height="24.000000" rx="0" ry="0" style="stroke:none;fill:#cccccc;"/>
<rect x="678.200000" y="62.000000" width="24.000000" height="24.000000" rx="0" ry="0" style="stroke:none;fill:#4B71A1;"/>
<text x="690.200000" y="76.000000" font-family="Arial" font-size="7" text-anchor="middle" fill="#FFFFFF">*</text>
<circle cx="680.200000" cy="64.000000" r="1"/>
<line x1="675.200000" y1="69.000000" x2="678.200000" y2="70.000000"  transform="rotate(0.000000,678.200000,70.000000)" style="stroke: black; stroke-width:0.25;"/>
<line x1="675.200000" y1="71.000000" x2="678.200000" y2="70.000000"  transform="rotate(0.000000,678.200000,70.000000)" style="stroke: black; stroke-width:0.25;"/>
<line x1="675.200000" y1="77.000000" x2="678.200000" y2="78.000000"  transform="rotate(0.000000,678.200000,78.000000)" style="stroke: black; stroke-width:0.25;"/>
<line x1="675.200000" y1="79.000000" x2="678.200000" y2="78.000000"  transform="rotate(0.000000,678.200000,78.000000)" style="stroke: black; stroke-width:0.25;"/>
<rect x="649.200000" y="109.000000" width="24.000000" height="24.000000" rx="0" ry="0" style="stroke:none;fill:#cccccc;"/>
<rect x="648.200000" y="108.000000" width="24.000000" height="24.000000" rx="0" ry="0" style="stroke:none;fill:#f44800;"/>
<text x="660.200000" y="122.000000" font-family="Arial" font-size="7" text-anchor="middle" fill="#FFFFFF">2</text>
<circle cx="650.200000" cy="110.000000" r="1"/>
<rect x="719.200000" y="79.000000" width="24.000000" height="24.000000" rx="0" ry="0" style="stroke:none;fill:#cccccc;"/>
<rect x="718.200000" y="78.000000" width="24.000000" height="24.000000" rx="0" ry="0" style="stroke:none;fill:#4B71A1;"/>
<text x="730.200000" y="92.000000" font-family="Arial" font-size="7" text-anchor="middle" fill="#FFFFFF">*</text>
<circle cx="720.200000" cy="80.000000" r="1"/>
<line x1="715.200000" y1="85.000000" x2="718.200000" y2="86.000000"  transform="rotate(0.000000,718.200000,86.000000)" style="stroke: black; stroke-width:0.25;"/>
<line x1="715.200000" y1="87.000000" x2="718.200000" y2="86.000000"  transform="rotate(0.000000,718.200000,86.000000)" style="stroke: black; stroke-width:0.25;"/>
<line x1="715.200000" y1="93.000000" x2="718.200000" y2="94.000000"  transform="rotate(0.000000,718.200000,94.000000)" style="stroke: black; stroke-width:0.25;"/>
<line x1="715.200000" y1="95.000000" x2="718.200000" y2="94.000000"  transform="rotate(0.000000,718.200000,94.000000)" style="stroke: black; stroke-width:0.25;"/>
<line x1="15.000000" y1="15.000000" x2="15.000000" y2="165.000000"  style="stroke: black; stroke-linecap:round; stroke-width:0.25; stroke-dasharray:3,3;"/>
<line x1="15.000000" y1="165.000000" x2="759.200000" y2="165.000000"  style="stroke: black; stroke-linecap:round; stroke-width:0.25; stroke-dasharray:3,3;"/>
<line x1="759.200000" y1="165.000000" x2="759.200000" y2="15.000000"  style="stroke: black; stroke-linecap:round; stroke-width:0.25; stroke-dasharray:3,3;"/>
<line x1="15.000000" y1="15.000000" x2="20.000000" y2="15.000000"  style="stroke: black; stroke-linecap:round; stroke-width:0.25; stroke-dasharray:3,3;"/>
<line x1="49.025000" y1="15.000000" x2="759.200000" y2="15.000000"  style="stroke: black; stroke-linecap:round; stroke-width:0.25; stroke-dasharray:3,3;"/>
<text x="20.000000" y="17.000000" font-family="Arial" font-size="7">process</text>
<line x1="761.200000" y1="89.000000" x2="764.200000" y2="90.000000"  transform="rotate(0.000000,764.200000,90.000000)" style="stroke: black; stroke-width:0.25;"/>
<line x1="761.200000" y1="91.000000" x2="764.200000" y2="90.000000"  transform="rotate(0.000000,764.200000,90.000000)" style="stroke: black; stroke-width:0.25;"/>
<line x1="28.000000" y1="36.000000" x2="28.000000" y2="36.000000"  style="stroke:black; stroke-linecap:round; stroke-width:0.25;"/>
<line x1="28.000000" y1="36.000000" x2="28.000000" y2="90.000000"  style="stroke:black; stroke-linecap:round; stroke-width:0.25;"/>
<line x1="28.000000" y1="90.000000" x2="28.000000" y2="90.000000"  style="stroke:black; stroke-linecap:round; stroke-width:0.25;"/>
<line x1="28.000000" y1="90.000000" x2="38.000000" y2="90.000000"  style="stroke:black; stroke-linecap:round; stroke-width:0.25;"/>
<line x1="38.000000" y1="90.000000" x2="54.900000" y2="90.000000"  style="stroke:black; stroke-linecap:round; stroke-width:0.25;"/>
<line x1="54.900000" y1="90.000000" x2="71.800000" y2="90.000000"  style="stroke:black; stroke-linecap:round; stroke-width:0.25;"/>
<line x1="67.800000" y1="110.000000" x2="71.800000" y2="110.000000"  style="stroke:black; stroke-linecap:round; stroke-width:0.25;"/>
<line x1="71.800000" y1="90.000000" x2="79.800000" y2="90.000000"  style="stroke:black; stroke-linecap:round; stroke-width:0.25;"/>
<line x1="71.800000" y1="110.000000" x2="79.800000" y2="110.000000"  style="stroke:black; stroke-linecap:round; stroke-width:0.25;"/>
<line x1="79.800000" y1="90.000000" x2="79.800000" y2="102.000000"  style="stroke:black; stroke-linecap:round; stroke-width:0.25;"/>
<line x1="79.800000" y1="102.000000" x2="79.800000" y2="102.000000"  style="stroke:black; stroke-linecap:round; stroke-width:0.25;"/>
<line x1="79.800000" y1="102.000000" x2="83.800000" y2="102.000000"  style="stroke:black; stroke-linecap:round; stroke-width:0.25;"/>
<line x1="79.800000" y1="110.000000" x2="83.800000" y2="110.000000"  style="stroke:black; stroke-linecap:round; stroke-width:0.25;"/>
<line x1="107.800000" y1="106.000000" x2="111.800000" y2="106.000000"  style="stroke:black; stroke-linecap:round; stroke-width:0.25;"/>
<line x1="111.800000" y1="106.000000" x2="121.800000" y2="106.000000"  style="stroke:black; stroke-linecap:round; stroke-width:0.25;"/>
<line x1="121.800000" y1="106.000000" x2="163.800000" y2="102.000000"  style="stroke:black; stroke-linecap:round; stroke-width:0.25;"/>
<line x1="121.800000" y1="106.000000" x2="163.800000" y2="122.000000"  style="stroke:black; stroke-linecap:round; stroke-width:0.25;"/>
<line x1="163.800000" y1="102.000000" x2="167.800000" y2="102.000000"  style="stroke:black; stroke-linecap:round; stroke-width:0.25;"/>
<line x1="163.800000" y1="122.000000" x2="200.050000" y2="122.000000"  style="stroke:black; stroke-linecap:round; stroke-width:0.25;"/>
<line x1="200.050000" y1="122.000000" x2="236.300000" y2="122.000000"  style="stroke:black; stroke-linecap:round; stroke-width:0.25;"/>
<line x1="232.300000" y1="102.000000" x2="236.300000" y2="102.000000"  style="stroke:black; stroke-linecap:round; stroke-width:0.25;"/>
<line x1="236.300000" y1="102.000000" x2="244.300000" y2="102.000000"  style="stroke:black; stroke-linecap:round; stroke-width:0.25;"/>
<line x1="236.300000" y1="122.000000" x2="244.300000" y2="122.000000"  style="stroke:black; stroke-linecap:round; stroke-width:0.25;"/>
<line x1="244.300000" y1="156.000000" x2="340.400000" y2="156.000000"  style="stroke:black; stroke-linecap:round; stroke-width:0.25;"/>
<line x1="244.300000" y1="102.000000" x2="248.300000" y2="102.000000"  style="stroke:black; stroke-linecap:round; stroke-width:0.25;"/>
<line x1="244.300000" y1="122.000000" x2="244.300000" y2="156.000000"  style="stroke:black; stroke-linecap:round; stroke-width:0.25;"/>
<line x1="244.300000" y1="156.000000" x2="244.300000" y2="156.000000"  style="stroke:black; stroke-linecap:round; stroke-width:0.25;"/>
<line x1="287.000000" y1="102.000000" x2="291.000000" y2="102.000000"  style="stroke:black; stroke-linecap:round; stroke-width:0.25;"/>
<line x1="289.750000" y1="36.000000" x2="28.000000" y2="36.000000"  style="stroke:black; stroke-linecap:round; stroke-width:0.25;"/>
<line x1="291.000000" y1="102.000000" x2="324.000000" y2="56.000000"  style="stroke:black; stroke-linecap:round; stroke-width:0.25;"/>
<line x1="291.000000" y1="102.000000" x2="324.000000" y2="148.000000"  style="stroke:black; stroke-linecap:round; stroke-width:0.25;"/>
<line x1="293.750000" y1="36.000000" x2="289.750000" y2="36.000000"  style="stroke:black; stroke-linecap:round; stroke-width:0.25;"/>
<line x1="324.000000" y1="56.000000" x2="360.250000" y2="56.000000"  style="stroke:black; stroke-linecap:round; stroke-width:0.25;"/>
<line x1="324.000000" y1="148.000000" x2="334.250000" y2="148.000000"  style="stroke:black; stroke-linecap:round; stroke-width:0.25;"/>
<line x1="334.250000" y1="148.000000" x2="360.250000" y2="148.000000"  style="stroke:black; stroke-linecap:round; stroke-width:0.25;"/>
<line x1="336.450000" y1="36.000000" x2="332.450000" y2="36.000000"  style="stroke:black; stroke-linecap:round; stroke-width:0.25;"/>
<line x1="340.400000" y1="156.000000" x2="436.500000" y2="156.000000"  style="stroke:black; stroke-linecap:round; stroke-width:0.25;"/>
<line x1="360.250000" y1="56.000000" x2="396.500000" y2="56.000000"  style="stroke:black; stroke-linecap:round; stroke-width:0.25;"/>
<line x1="360.250000" y1="148.000000" x2="386.250000" y2="148.000000"  style="stroke:black; stroke-linecap:round; stroke-width:0.25;"/>
<line x1="372.250000" y1="118.000000" x2="376.250000" y2="118.000000"  style="stroke:black; stroke-linecap:round; stroke-width:0.25;"/>
<line x1="376.250000" y1="118.000000" x2="386.250000" y2="118.000000"  style="stroke:black; stroke-linecap:round; stroke-width:0.25;"/>
<line x1="386.250000" y1="118.000000" x2="394.250000" y2="118.000000"  style="stroke:black; stroke-linecap:round; stroke-width:0.25;"/>
<line x1="386.250000" y1="126.000000" x2="394.250000" y2="126.000000"  style="stroke:black; stroke-linecap:round; stroke-width:0.25;"/>
<line x1="386.250000" y1="148.000000" x2="386.250000" y2="126.000000"  style="stroke:black; stroke-linecap:round; stroke-width:0.25;"/>
<line x1="386.250000" y1="148.000000" x2="386.250000" y2="148.000000"  style="stroke:black; stroke-linecap:round; stroke-width:0.25;"/>
<line x1="392.500000" y1="76.000000" x2="396.500000" y2="76.000000"  style="stroke:black; stroke-linecap:round; stroke-width:0.25;"/>
<line x1="394.250000" y1="118.000000" x2="398.250000" y2="118.000000"  style="stroke:black; stroke-linecap:round; stroke-width:0.25;"/>
<line x1="394.250000" y1="126.000000" x2="398.250000" y2="126.000000"  style="stroke:black; stroke-linecap:round; stroke-width:0.25;"/>
<line x1="396.500000" y1="56.000000" x2="404.500000" y2="56.000000"  style="stroke:black; stroke-linecap:round; stroke-width:0.25;"/>
<line x1="396.500000" y1="76.000000" x2="404.500000" y2="76.000000"  style="stroke:black; stroke-linecap:round; stroke-width:0.25;"/>
<line x1="404.500000" y1="56.000000" x2="404.500000" y2="68.000000"  style="stroke:black; stroke-linecap:round; stroke-width:0.25;"/>
<line x1="404.500000" y1="68.000000" x2="404.500000" y2="68.000000"  style="stroke:black; stroke-linecap:round; stroke-width:0.25;"/>
<line x1="404.500000" y1="68.000000" x2="408.500000" y2="68.000000"  style="stroke:black; stroke-linecap:round; stroke-width:0.25;"/>
<line x1="404.500000" y1="76.000000" x2="408.500000" y2="76.000000"  style="stroke:black; stroke-linecap:round; stroke-width:0.25;"/>
<line x1="422.250000" y1="122.000000" x2="426.250000" y2="122.000000"  style="stroke:black; stroke-linecap:round; stroke-width:0.25;"/>
<line x1="426.250000" y1="122.000000" x2="436.500000" y2="122.000000"  style="stroke:black; stroke-linecap:round; stroke-width:0.25;"/>
<line x1="432.500000" y1="72.000000" x2="436.500000" y2="72.000000"  style="stroke:black; stroke-linecap:round; stroke-width:0.25;"/>
<line x1="436.500000" y1="72.000000" x2="452.500000" y2="72.000000"  style="stroke:black; stroke-linecap:round; stroke-width:0.25;"/>
<line x1="436.500000" y1="106.000000" x2="452.500000" y2="106.000000"  style="stroke:black; stroke-linecap:round; stroke-width:0.25;"/>
<line x1="436.500000" y1="122.000000" x2="436.500000" y2="106.000000"  style="stroke:black; stroke-linecap:round; stroke-width:0.25;"/>
<line x1="436.500000" y1="122.000000" x2="436.500000" y2="122.000000"  style="stroke:black; stroke-linecap:round; stroke-width:0.25;"/>
<line x1="436.500000" y1="156.000000" x2="444.500000" y2="156.000000"  style="stroke:black; stroke-linecap:round; stroke-width:0.25;"/>
<line x1="444.500000" y1="114.000000" x2="452.500000" y2="114.000000"  style="stroke:black; stroke-linecap:round; stroke-width:0.25;"/>
<line x1="444.500000" y1="156.000000" x2="444.500000" y2="114.000000"  style="stroke:black; stroke-linecap:round; stroke-width:0.25;"/>
<line x1="452.500000" y1="72.000000" x2="452.500000" y2="90.000000"  style="stroke:black; stroke-linecap:round; stroke-width:0.25;"/>
<line x1="452.500000" y1="90.000000" x2="452.500000" y2="90.000000"  style="stroke:black; stroke-linecap:round; stroke-width:0.25;"/>
<line x1="452.500000" y1="90.000000" x2="468.500000" y2="90.000000"  style="stroke:black; stroke-linecap:round; stroke-width:0.25;"/>
<line x1="452.500000" y1="106.000000" x2="456.500000" y2="106.000000"  style="stroke:black; stroke-linecap:round; stroke-width:0.25;"/>
<line x1="452.500000" y1="114.000000" x2="456.500000" y2="114.000000"  style="stroke:black; stroke-linecap:round; stroke-width:0.25;"/>
<line x1="468.500000" y1="90.000000" x2="484.500000" y2="90.000000"  style="stroke:black; stroke-linecap:round; stroke-width:0.25;"/>
<line x1="480.500000" y1="110.000000" x2="484.500000" y2="110.000000"  style="stroke:black; stroke-linecap:round; stroke-width:0.25;"/>
<line x1="484.500000" y1="90.000000" x2="519.500000" y2="102.000000"  style="stroke:black; stroke-linecap:round; stroke-width:0.25;"/>
<line x1="484.500000" y1="110.000000" x2="519.500000" y2="110.000000"  style="stroke:black; stroke-linecap:round; stroke-width:0.25;"/>
<line x1="519.500000" y1="102.000000" x2="523.500000" y2="102.000000"  style="stroke:black; stroke-linecap:round; stroke-width:0.25;"/>
<line x1="519.500000" y1="110.000000" x2="523.500000" y2="110.000000"  style="stroke:black; stroke-linecap:round; stroke-width:0.25;"/>
<line x1="547.500000" y1="106.000000" x2="551.500000" y2="106.000000"  style="stroke:black; stroke-linecap:round; stroke-width:0.25;"/>
<line x1="551.500000" y1="106.000000" x2="551.500000" y2="106.000000"  style="stroke:black; stroke-linecap:round; stroke-width:0.25;"/>
<line x1="551.500000" y1="106.000000" x2="555.500000" y2="106.000000"  style="stroke:black; stroke-linecap:round; stroke-width:0.25;"/>
<line x1="594.200000" y1="106.000000" x2="598.200000" y2="106.000000"  style="stroke:black; stroke-linecap:round; stroke-width:0.25;"/>
<line x1="598.200000" y1="36.000000" x2="336.450000" y2="36.000000"  style="stroke:black; stroke-linecap:round; stroke-width:0.25;"/>
<line x1="598.200000" y1="36.000000" x2="598.200000" y2="36.000000"  style="stroke:black; stroke-linecap:round; stroke-width:0.25;"/>
<line x1="598.200000" y1="102.000000" x2="598.200000" y2="36.000000"  style="stroke:black; stroke-linecap:round; stroke-width:0.25;"/>
<line x1="598.200000" y1="106.000000" x2="600.200000" y2="106.000000"  style="stroke:black; stroke-linecap:round; stroke-width:0.25;"/>
<line x1="600.200000" y1="106.000000" x2="606.200000" y2="106.000000"  style="stroke:black; stroke-linecap:round; stroke-width:0.25;"/>
<line x1="606.200000" y1="48.000000" x2="614.200000" y2="48.000000"  style="stroke:black; stroke-linecap:round; stroke-width:0.25;"/>
<line x1="606.200000" y1="106.000000" x2="606.200000" y2="48.000000"  style="stroke:black; stroke-linecap:round; stroke-width:0.25;"/>
<line x1="606.200000" y1="106.000000" x2="606.200000" y2="106.000000"  style="stroke:black; stroke-linecap:round; stroke-width:0.25;"/>
<line x1="614.200000" y1="48.000000" x2="640.200000" y2="48.000000"  style="stroke:black; stroke-linecap:round; stroke-width:0.25;"/>
<line x1="640.200000" y1="48.000000" x2="666.200000" y2="48.000000"  style="stroke:black; stroke-linecap:round; stroke-width:0.25;"/>
<line x1="652.200000" y1="78.000000" x2="656.200000" y2="78.000000"  style="stroke:black; stroke-linecap:round; stroke-width:0.25;"/>
<line x1="656.200000" y1="78.000000" x2="666.200000" y2="78.000000"  style="stroke:black; stroke-linecap:round; stroke-width:0.25;"/>
<line x1="666.200000" y1="48.000000" x2="674.200000" y2="48.000000"  style="stroke:black; stroke-linecap:round; stroke-width:0.25;"/>
<line x1="666.200000" y1="78.000000" x2="674.200000" y2="78.000000"  style="stroke:black; stroke-linecap:round; stroke-width:0.25;"/>
<line x1="672.200000" y1="120.000000" x2="676.200000" y2="120.000000"  style="stroke:black; stroke-linecap:round; stroke-width:0.25;"/>
<line x1="674.200000" y1="48.000000" x2="674.200000" y2="70.000000"  style="stroke:black; stroke-linecap:round; stroke-width:0.25;"/>
<line x1="674.200000" y1="70.000000" x2="674.200000" y2="70.000000"  style="stroke:black; stroke-linecap:round; stroke-width:0.25;"/>
<line x1="674.200000" y1="70.000000" x2="678.200000" y2="70.000000"  style="stroke:black; stroke-linecap:round; stroke-width:0.25;"/>
<line x1="674.200000" y1="78.000000" x2="678.200000" y2="78.000000"  style="stroke:black; stroke-linecap:round; stroke-width:0.25;"/>
<line x1="676.200000" y1="120.000000" x2="706.200000" y2="120.000000"  style="stroke:black; stroke-linecap:round; stroke-width:0.25;"/>
<line x1="702.200000" y1="74.000000" x2="706.200000" y2="74.000000"  style="stroke:black; stroke-linecap:round; stroke-width:0.25;"/>
<line x1="706.200000" y1="74.000000" x2="714.200000" y2="74.000000"  style="stroke:black; stroke-linecap:round; stroke-width:0.25;"/>
<line x1="706.200000" y1="94.000000" x2="714.200000" y2="94.000000"  style="stroke:black; stroke-linecap:round; stroke-width:0.25;"/>
<line x1="706.200000" y1="120.000000" x2="706.200000" y2="94.000000"  style="stroke:black; stroke-linecap:round; stroke-width:0.25;"/>
<line x1="706.200000" y1="120.000000" x2="706.200000" y2="120.000000"  style="stroke:black; stroke-linecap:round; stroke-width:0.25;"/>
<line x1="714.200000" y1="74.000000" x2="714.200000" y2="86.000000"  style="stroke:black; stroke-linecap:round; stroke-width:0.25;"/>
<line x1="714.200000" y1="86.000000" x2="714.200000" y2="86.000000"  style="stroke:black; stroke-linecap:round; stroke-width:0.25;"/>
<line x1="714.200000" y1="86.000000" x2="718.200000" y2="86.000000"  style="stroke:black; stroke-linecap:round; stroke-width:0.25;"/>
<line x1="714.200000" y1="94.000000" x2="718.200000" y2="94.000000"  style="stroke:black; stroke-linecap:round; stroke-width:0.25;"/>
<line x1="742.200000" y1="90.000000" x2="746.200000" y2="90.000000"  style="stroke:black; stroke-linecap:round; stroke-width:0.25;"/>
<line x1="746.200000" y1="90.000000" x2="746.200000" y2="90.000000"  style="stroke:black; stroke-linecap:round; stroke-width:0.25;"/>
<line x1="746.200000" y1="90.000000" x2="750.200000" y2="90.000000"  style="stroke:black; stroke-linecap:round; stroke-width:0.25;"/>
<line x1="750.200000" y1="90.000000" x2="754.200000" y2="90.000000"  style="stroke:black; stroke-linecap:round; stroke-width:0.25;"/>
<line x1="754.200000" y1="90.000000" x2="764.200000" y2="90.000000"  style="stroke:black; stroke-linecap:round; stroke-width:0.25;"/>
</svg>
