<?xml version="1.0"?>
<svg xmlns="http://www.w3.org/2000/svg" xmlns:xlink="http://www.w3.org/1999/xlink" viewBox="0 0 461.500000 220.000000" width="230.750000mm" height="110.000000mm" version="1.1">
<a xlink:href="resonator-0x7f93a8cd7bc0.svg">
<rect x="1.000000" y="1.000000" width="460.500000" height="219.000000" rx="0" ry="0" style="stroke:none;fill:#cccccc;"/>
<rect x="0.000000" y="0.000000" width="460.500000" height="219.000000" rx="0" ry="0" style="stroke:none;fill:#ffffff;"/>
</a>
<text x="10.000000" y="7.000000" font-family="Arial" font-size="7"></text>
<rect x="33.000000" y="99.000000" width="24.000000" height="24.000000" rx="0" ry="0" style="stroke:none;fill:#cccccc;"/>
<rect x="32.000000" y="98.000000" width="24.000000" height="24.000000" rx="0" ry="0" style="stroke:none;fill:#47945E;"/>
<text x="44.000000" y="112.000000" font-family="Arial" font-size="7" text-anchor="middle" fill="#FFFFFF">x</text>
<circle cx="34.000000" cy="100.000000" r="1"/>
<line x1="29.000000" y1="109.000000" x2="32.000000" y2="110.000000"  transform="rotate(0.000000,32.000000,110.000000)" style="stroke: black; stroke-width:0.25;"/>
<line x1="29.000000" y1="111.000000" x2="32.000000" y2="110.000000"  transform="rotate(0.000000,32.000000,110.000000)" style="stroke: black; stroke-width:0.25;"/>
<rect x="215.750000" y="25.000000" width="24.000000" height="24.000000" rx="0" ry="0" style="stroke:none;fill:#cccccc;"/>
<rect x="214.750000" y="24.000000" width="24.000000" height="24.000000" rx="0" ry="0" style="stroke:none;fill:#47945E;"/>
<text x="226.750000" y="38.000000" font-family="Arial" font-size="7" text-anchor="middle" fill="#FFFFFF">x</text>
<circle cx="216.750000" cy="26.000000" r="1"/>
<rect x="75.000000" y="67.000000" width="193.500000" height="24.000000" rx="0" ry="0" style="stroke:none;fill:#cccccc;"/>
<rect x="74.000000" y="66.000000" width="193.500000" height="24.000000" rx="0" ry="0" style="stroke:none;fill:#477881;"/>
<text x="170.750000" y="80.000000" font-family="Arial" font-size="7" text-anchor="middle" fill="#FFFFFF">hslider(duration, 128.0f, 2.0f, 512.0f, 1.0f)</text>
<circle cx="76.000000" cy="68.000000" r="1"/>
<line x1="65.000000" y1="57.000000" x2="65.000000" y2="99.000000"  style="stroke: black; stroke-linecap:round; stroke-width:0.25; stroke-dasharray:3,3;"/>
<line x1="65.000000" y1="99.000000" x2="276.500000" y2="99.000000"  style="stroke: black; stroke-linecap:round; stroke-width:0.25; stroke-dasharray:3,3;"/>
<line x1="276.500000" y1="99.000000" x2="276.500000" y2="57.000000"  style="stroke: black; stroke-linecap:round; stroke-width:0.25; stroke-dasharray:3,3;"/>
<line x1="65.000000" y1="57.000000" x2="70.000000" y2="57.000000"  style="stroke: black; stroke-linecap:round; stroke-width:0.25; stroke-dasharray:3,3;"/>
<line x1="86.125000" y1="57.000000" x2="276.500000" y2="57.000000"  style="stroke: black; stroke-linecap:round; stroke-width:0.25; stroke-dasharray:3,3;"/>
<text x="70.000000" y="59.000000" font-family="Arial" font-size="7">dur</text>
<rect x="159.750000" y="109.000000" width="24.000000" height="24.000000" rx="0" ry="0" style="stroke:none;fill:#cccccc;"/>
<rect x="158.750000" y="108.000000" width="24.000000" height="24.000000" rx="0" ry="0" style="stroke:none;fill:#f44800;"/>
<text x="170.750000" y="122.000000" font-family="Arial" font-size="7" text-anchor="middle" fill="#FFFFFF">1.5</text>
<circle cx="160.750000" cy="110.000000" r="1"/>
<rect x="294.500000" y="83.000000" width="24.000000" height="24.000000" rx="0" ry="0" style="stroke:none;fill:#cccccc;"/>
<rect x="293.500000" y="82.000000" width="24.000000" height="24.000000" rx="0" ry="0" style="stroke:none;fill:#4B71A1;"/>
<text x="305.500000" y="96.000000" font-family="Arial" font-size="7" text-anchor="middle" fill="#FFFFFF">-</text>
<circle cx="295.500000" cy="84.000000" r="1"/>
<line x1="290.500000" y1="89.000000" x2="293.500000" y2="90.000000"  transform="rotate(0.000000,293.500000,90.000000)" style="stroke: black; stroke-width:0.25;"/>
<line x1="290.500000" y1="91.000000" x2="293.500000" y2="90.000000"  transform="rotate(0.000000,293.500000,90.000000)" style="stroke: black; stroke-width:0.25;"/>
<line x1="290.500000" y1="97.000000" x2="293.500000" y2="98.000000"  transform="rotate(0.000000,293.500000,98.000000)" style="stroke: black; stroke-width:0.25;"/>
<line x1="290.500000" y1="99.000000" x2="293.500000" y2="98.000000"  transform="rotate(0.000000,293.500000,98.000000)" style="stroke: black; stroke-width:0.25;"/>
<rect x="326.500000" y="83.000000" width="24.000000" height="24.000000" rx="0" ry="0" style="stroke:none;fill:#cccccc;"/>
<rect x="325.500000" y="82.000000" width="24.000000" height="24.000000" rx="0" ry="0" style="stroke:none;fill:#4B71A1;"/>
<text x="337.500000" y="96.000000" font-family="Arial" font-size="7" text-anchor="middle" fill="#FFFFFF">int</text>
<circle cx="327.500000" cy="84.000000" r="1"/>
<line x1="322.500000" y1="93.000000" x2="325.500000" y2="94.000000"  transform="rotate(0.000000,325.500000,94.000000)" style="stroke: black; stroke-width:0.25;"/>
<line x1="322.500000" y1="95.000000" x2="325.500000" y2="94.000000"  transform="rotate(0.000000,325.500000,94.000000)" style="stroke: black; stroke-width:0.25;"/>
<rect x="174.850000" y="141.000000" width="25.800000" height="24.000000" rx="0" ry="0" style="stroke:none;fill:#cccccc;"/>
<rect x="173.850000" y="140.000000" width="25.800000" height="24.000000" rx="0" ry="0" style="stroke:none;fill:#f44800;"/>
<text x="186.750000" y="154.000000" font-family="Arial" font-size="7" text-anchor="middle" fill="#FFFFFF">4096</text>
<circle cx="175.850000" cy="142.000000" r="1"/>
<rect x="175.750000" y="173.000000" width="24.000000" height="24.000000" rx="0" ry="0" style="stroke:none;fill:#cccccc;"/>
<rect x="174.750000" y="172.000000" width="24.000000" height="24.000000" rx="0" ry="0" style="stroke:none;fill:#f44800;"/>
<text x="186.750000" y="186.000000" font-family="Arial" font-size="7" text-anchor="middle" fill="#FFFFFF">1</text>
<circle cx="176.750000" cy="174.000000" r="1"/>
<rect x="216.650000" y="157.000000" width="24.000000" height="24.000000" rx="0" ry="0" style="stroke:none;fill:#cccccc;"/>
<rect x="215.650000" y="156.000000" width="24.000000" height="24.000000" rx="0" ry="0" style="stroke:none;fill:#4B71A1;"/>
<text x="227.650000" y="170.000000" font-family="Arial" font-size="7" text-anchor="middle" fill="#FFFFFF">-</text>
<circle cx="217.650000" cy="158.000000" r="1"/>
<line x1="212.650000" y1="163.000000" x2="215.650000" y2="164.000000"  transform="rotate(0.000000,215.650000,164.000000)" style="stroke: black; stroke-width:0.25;"/>
<line x1="212.650000" y1="165.000000" x2="215.650000" y2="164.000000"  transform="rotate(0.000000,215.650000,164.000000)" style="stroke: black; stroke-width:0.25;"/>
<line x1="212.650000" y1="171.000000" x2="215.650000" y2="172.000000"  transform="rotate(0.000000,215.650000,172.000000)" style="stroke: black; stroke-width:0.25;"/>
<line x1="212.650000" y1="173.000000" x2="215.650000" y2="172.000000"  transform="rotate(0.000000,215.650000,172.000000)" style="stroke: black; stroke-width:0.25;"/>
<rect x="366.500000" y="115.000000" width="24.000000" height="24.000000" rx="0" ry="0" style="stroke:none;fill:#cccccc;"/>
<rect x="365.500000" y="114.000000" width="24.000000" height="24.000000" rx="0" ry="0" style="stroke:none;fill:#4B71A1;"/>
<text x="377.500000" y="128.000000" font-family="Arial" font-size="7" text-anchor="middle" fill="#FFFFFF">&amp;</text>
<circle cx="367.500000" cy="116.000000" r="1"/>
<line x1="362.500000" y1="121.000000" x2="365.500000" y2="122.000000"  transform="rotate(0.000000,365.500000,122.000000)" style="stroke: black; stroke-width:0.25;"/>
<line x1="362.500000" y1="123.000000" x2="365.500000" y2="122.000000"  transform="rotate(0.000000,365.500000,122.000000)" style="stroke: black; stroke-width:0.25;"/>
<line x1="362.500000" y1="129.000000" x2="365.500000" y2="130.000000"  transform="rotate(0.000000,365.500000,130.000000)" style="stroke: black; stroke-width:0.25;"/>
<line x1="362.500000" y1="131.000000" x2="365.500000" y2="130.000000"  transform="rotate(0.000000,365.500000,130.000000)" style="stroke: black; stroke-width:0.25;"/>
<rect x="406.500000" y="99.000000" width="24.000000" height="24.000000" rx="0" ry="0" style="stroke:none;fill:#cccccc;"/>
<rect x="405.500000" y="98.000000" width="24.000000" height="24.000000" rx="0" ry="0" style="stroke:none;fill:#4B71A1;"/>
<text x="417.500000" y="112.000000" font-family="Arial" font-size="7" text-anchor="middle" fill="#FFFFFF">@</text>
<circle cx="407.500000" cy="100.000000" r="1"/>
<line x1="402.500000" y1="105.000000" x2="405.500000" y2="106.000000"  transform="rotate(0.000000,405.500000,106.000000)" style="stroke: black; stroke-width:0.25;"/>
<line x1="402.500000" y1="107.000000" x2="405.500000" y2="106.000000"  transform="rotate(0.000000,405.500000,106.000000)" style="stroke: black; stroke-width:0.25;"/>
<line x1="402.500000" y1="113.000000" x2="405.500000" y2="114.000000"  transform="rotate(0.000000,405.500000,114.000000)" style="stroke: black; stroke-width:0.25;"/>
<line x1="402.500000" y1="115.000000" x2="405.500000" y2="114.000000"  transform="rotate(0.000000,405.500000,114.000000)" style="stroke: black; stroke-width:0.25;"/>
<line x1="15.000000" y1="15.000000" x2="15.000000" y2="205.000000"  style="stroke: black; stroke-linecap:round; stroke-width:0.25; stroke-dasharray:3,3;"/>
<line x1="15.000000" y1="205.000000" x2="446.500000" y2="205.000000"  style="stroke: black; stroke-linecap:round; stroke-width:0.25; stroke-dasharray:3,3;"/>
<line x1="446.500000" y1="205.000000" x2="446.500000" y2="15.000000"  style="stroke: black; stroke-linecap:round; stroke-width:0.25; stroke-dasharray:3,3;"/>
<line x1="15.000000" y1="15.000000" x2="20.000000" y2="15.000000"  style="stroke: black; stroke-linecap:round; stroke-width:0.25; stroke-dasharray:3,3;"/>
<line x1="119.975000" y1="15.000000" x2="446.500000" y2="15.000000"  style="stroke: black; stroke-linecap:round; stroke-width:0.25; stroke-dasharray:3,3;"/>
<text x="20.000000" y="17.000000" font-family="Arial" font-size="7">delay(4096)(h...0f),1.5f : -)</text>
<line x1="448.500000" y1="109.000000" x2="451.500000" y2="110.000000"  transform="rotate(0.000000,451.500000,110.000000)" style="stroke: black; stroke-width:0.25;"/>
<line x1="448.500000" y1="111.000000" x2="451.500000" y2="110.000000"  transform="rotate(0.000000,451.500000,110.000000)" style="stroke: black; stroke-width:0.25;"/>
<line x1="10.000000" y1="110.000000" x2="20.000000" y2="110.000000"  style="stroke:black; stroke-linecap:round; stroke-width:0.25;"/>
<line x1="20.000000" y1="110.000000" x2="24.000000" y2="110.000000"  style="stroke:black; stroke-linecap:round; stroke-width:0.25;"/>
<line x1="24.000000" y1="110.000000" x2="28.000000" y2="110.000000"  style="stroke:black; stroke-linecap:round; stroke-width:0.25;"/>
<line x1="28.000000" y1="110.000000" x2="28.000000" y2="110.000000"  style="stroke:black; stroke-linecap:round; stroke-width:0.25;"/>
<line x1="28.000000" y1="110.000000" x2="32.000000" y2="110.000000"  style="stroke:black; stroke-linecap:round; stroke-width:0.25;"/>
<line x1="182.750000" y1="120.000000" x2="186.750000" y2="120.000000"  style="stroke:black; stroke-linecap:round; stroke-width:0.25;"/>
<line x1="186.750000" y1="120.000000" x2="281.500000" y2="120.000000"  style="stroke:black; stroke-linecap:round; stroke-width:0.25;"/>
<line x1="198.750000" y1="184.000000" x2="202.750000" y2="184.000000"  style="stroke:black; stroke-linecap:round; stroke-width:0.25;"/>
<line x1="199.650000" y1="152.000000" x2="203.650000" y2="152.000000"  style="stroke:black; stroke-linecap:round; stroke-width:0.25;"/>
<line x1="202.750000" y1="184.000000" x2="203.650000" y2="184.000000"  style="stroke:black; stroke-linecap:round; stroke-width:0.25;"/>
<line x1="203.650000" y1="152.000000" x2="211.650000" y2="152.000000"  style="stroke:black; stroke-linecap:round; stroke-width:0.25;"/>
<line x1="203.650000" y1="172.000000" x2="211.650000" y2="172.000000"  style="stroke:black; stroke-linecap:round; stroke-width:0.25;"/>
<line x1="203.650000" y1="184.000000" x2="203.650000" y2="172.000000"  style="stroke:black; stroke-linecap:round; stroke-width:0.25;"/>
<line x1="203.650000" y1="184.000000" x2="203.650000" y2="184.000000"  style="stroke:black; stroke-linecap:round; stroke-width:0.25;"/>
<line x1="211.650000" y1="152.000000" x2="211.650000" y2="164.000000"  style="stroke:black; stroke-linecap:round; stroke-width:0.25;"/>
<line x1="211.650000" y1="164.000000" x2="211.650000" y2="164.000000"  style="stroke:black; stroke-linecap:round; stroke-width:0.25;"/>
<line x1="211.650000" y1="164.000000" x2="215.650000" y2="164.000000"  style="stroke:black; stroke-linecap:round; stroke-width:0.25;"/>
<line x1="211.650000" y1="172.000000" x2="215.650000" y2="172.000000"  style="stroke:black; stroke-linecap:round; stroke-width:0.25;"/>
<line x1="238.750000" y1="36.000000" x2="242.750000" y2="36.000000"  style="stroke:black; stroke-linecap:round; stroke-width:0.25;"/>
<line x1="239.650000" y1="168.000000" x2="243.650000" y2="168.000000"  style="stroke:black; stroke-linecap:round; stroke-width:0.25;"/>
<line x1="242.750000" y1="36.000000" x2="393.500000" y2="36.000000"  style="stroke:black; stroke-linecap:round; stroke-width:0.25;"/>
<line x1="243.650000" y1="168.000000" x2="353.500000" y2="168.000000"  style="stroke:black; stroke-linecap:round; stroke-width:0.25;"/>
<line x1="267.500000" y1="78.000000" x2="271.500000" y2="78.000000"  style="stroke:black; stroke-linecap:round; stroke-width:0.25;"/>
<line x1="271.500000" y1="78.000000" x2="281.500000" y2="78.000000"  style="stroke:black; stroke-linecap:round; stroke-width:0.25;"/>
<line x1="281.500000" y1="78.000000" x2="289.500000" y2="78.000000"  style="stroke:black; stroke-linecap:round; stroke-width:0.25;"/>
<line x1="281.500000" y1="98.000000" x2="289.500000" y2="98.000000"  style="stroke:black; stroke-linecap:round; stroke-width:0.25;"/>
<line x1="281.500000" y1="120.000000" x2="281.500000" y2="98.000000"  style="stroke:black; stroke-linecap:round; stroke-width:0.25;"/>
<line x1="281.500000" y1="120.000000" x2="281.500000" y2="120.000000"  style="stroke:black; stroke-linecap:round; stroke-width:0.25;"/>
<line x1="289.500000" y1="78.000000" x2="289.500000" y2="90.000000"  style="stroke:black; stroke-linecap:round; stroke-width:0.25;"/>
<line x1="289.500000" y1="90.000000" x2="289.500000" y2="90.000000"  style="stroke:black; stroke-linecap:round; stroke-width:0.25;"/>
<line x1="289.500000" y1="90.000000" x2="293.500000" y2="90.000000"  style="stroke:black; stroke-linecap:round; stroke-width:0.25;"/>
<line x1="289.500000" y1="98.000000" x2="293.500000" y2="98.000000"  style="stroke:black; stroke-linecap:round; stroke-width:0.25;"/>
<line x1="317.500000" y1="94.000000" x2="321.500000" y2="94.000000"  style="stroke:black; stroke-linecap:round; stroke-width:0.25;"/>
<line x1="321.500000" y1="94.000000" x2="321.500000" y2="94.000000"  style="stroke:black; stroke-linecap:round; stroke-width:0.25;"/>
<line x1="321.500000" y1="94.000000" x2="325.500000" y2="94.000000"  style="stroke:black; stroke-linecap:round; stroke-width:0.25;"/>
<line x1="349.500000" y1="94.000000" x2="353.500000" y2="94.000000"  style="stroke:black; stroke-linecap:round; stroke-width:0.25;"/>
<line x1="353.500000" y1="94.000000" x2="361.500000" y2="94.000000"  style="stroke:black; stroke-linecap:round; stroke-width:0.25;"/>
<line x1="353.500000" y1="130.000000" x2="361.500000" y2="130.000000"  style="stroke:black; stroke-linecap:round; stroke-width:0.25;"/>
<line x1="353.500000" y1="168.000000" x2="353.500000" y2="130.000000"  style="stroke:black; stroke-linecap:round; stroke-width:0.25;"/>
<line x1="353.500000" y1="168.000000" x2="353.500000" y2="168.000000"  style="stroke:black; stroke-linecap:round; stroke-width:0.25;"/>
<line x1="361.500000" y1="94.000000" x2="361.500000" y2="122.000000"  style="stroke:black; stroke-linecap:round; stroke-width:0.25;"/>
<line x1="361.500000" y1="122.000000" x2="361.500000" y2="122.000000"  style="stroke:black; stroke-linecap:round; stroke-width:0.25;"/>
<line x1="361.500000" y1="122.000000" x2="365.500000" y2="122.000000"  style="stroke:black; stroke-linecap:round; stroke-width:0.25;"/>
<line x1="361.500000" y1="130.000000" x2="365.500000" y2="130.000000"  style="stroke:black; stroke-linecap:round; stroke-width:0.25;"/>
<line x1="389.500000" y1="126.000000" x2="393.500000" y2="126.000000"  style="stroke:black; stroke-linecap:round; stroke-width:0.25;"/>
<line x1="393.500000" y1="36.000000" x2="401.500000" y2="36.000000"  style="stroke:black; stroke-linecap:round; stroke-width:0.25;"/>
<line x1="393.500000" y1="114.000000" x2="401.500000" y2="114.000000"  style="stroke:black; stroke-linecap:round; stroke-width:0.25;"/>
<line x1="393.500000" y1="126.000000" x2="393.500000" y2="114.000000"  style="stroke:black; stroke-linecap:round; stroke-width:0.25;"/>
<line x1="393.500000" y1="126.000000" x2="393.500000" y2="126.000000"  style="stroke:black; stroke-linecap:round; stroke-width:0.25;"/>
<line x1="401.500000" y1="36.000000" x2="401.500000" y2="106.000000"  style="stroke:black; stroke-linecap:round; stroke-width:0.25;"/>
<line x1="401.500000" y1="106.000000" x2="401.500000" y2="106.000000"  style="stroke:black; stroke-linecap:round; stroke-width:0.25;"/>
<line x1="401.500000" y1="106.000000" x2="405.500000" y2="106.000000"  style="stroke:black; stroke-linecap:round; stroke-width:0.25;"/>
<line x1="401.500000" y1="114.000000" x2="405.500000" y2="114.000000"  style="stroke:black; stroke-linecap:round; stroke-width:0.25;"/>
<line x1="429.500000" y1="110.000000" x2="433.500000" y2="110.000000"  style="stroke:black; stroke-linecap:round; stroke-width:0.25;"/>
<line x1="433.500000" y1="110.000000" x2="433.500000" y2="110.000000"  style="stroke:black; stroke-linecap:round; stroke-width:0.25;"/>
<line x1="433.500000" y1="110.000000" x2="437.500000" y2="110.000000"  style="stroke:black; stroke-linecap:round; stroke-width:0.25;"/>
<line x1="437.500000" y1="110.000000" x2="441.500000" y2="110.000000"  style="stroke:black; stroke-linecap:round; stroke-width:0.25;"/>
<line x1="441.500000" y1="110.000000" x2="451.500000" y2="110.000000"  style="stroke:black; stroke-linecap:round; stroke-width:0.25;"/>
</svg>
