<?xml version="1.0"?>
<svg xmlns="http://www.w3.org/2000/svg" xmlns:xlink="http://www.w3.org/1999/xlink" viewBox="0 0 330.300000 240.000000" width="165.150000mm" height="120.000000mm" version="1.1">
<a xlink:href="embouchureDelay-0x7fd173ef7a40.svg">
<rect x="1.000000" y="1.000000" width="329.300000" height="239.000000" rx="0" ry="0" style="stroke:none;fill:#cccccc;"/>
<rect x="0.000000" y="0.000000" width="329.300000" height="239.000000" rx="0" ry="0" style="stroke:none;fill:#ffffff;"/>
</a>
<text x="10.000000" y="7.000000" font-family="Arial" font-size="7"></text>
<rect x="130.150000" y="25.000000" width="24.000000" height="24.000000" rx="0" ry="0" style="stroke:none;fill:#cccccc;"/>
<rect x="129.150000" y="24.000000" width="24.000000" height="24.000000" rx="0" ry="0" style="stroke:none;fill:#47945E;"/>
<text x="141.150000" y="38.000000" font-family="Arial" font-size="7" text-anchor="middle" fill="#FFFFFF">x</text>
<circle cx="131.150000" cy="26.000000" r="1"/>
<a xlink:href="embouchureDelayL-0x7fd171479f00.svg">
<rect x="25.000000" y="57.000000" width="90.300000" height="24.000000" rx="0" ry="0" style="stroke:none;fill:#cccccc;"/>
<rect x="24.000000" y="56.000000" width="90.300000" height="24.000000" rx="0" ry="0" style="stroke:none;fill:#003366;"/>
</a>
<a xlink:href="embouchureDelayL-0x7fd171479f00.svg">
<text x="69.150000" y="70.000000" font-family="Arial" font-size="7" text-anchor="middle" fill="#FFFFFF">embouchureDelayLength</text>
</a>
<circle cx="26.000000" cy="58.000000" r="1"/>
<rect x="123.300000" y="57.000000" width="24.000000" height="24.000000" rx="0" ry="0" style="stroke:none;fill:#cccccc;"/>
<rect x="122.300000" y="56.000000" width="24.000000" height="24.000000" rx="0" ry="0" style="stroke:none;fill:#4B71A1;"/>
<text x="134.300000" y="70.000000" font-family="Arial" font-size="7" text-anchor="middle" fill="#FFFFFF">int</text>
<circle cx="124.300000" cy="58.000000" r="1"/>
<line x1="119.300000" y1="67.000000" x2="122.300000" y2="68.000000"  transform="rotate(0.000000,122.300000,68.000000)" style="stroke: black; stroke-width:0.25;"/>
<line x1="119.300000" y1="69.000000" x2="122.300000" y2="68.000000"  transform="rotate(0.000000,122.300000,68.000000)" style="stroke: black; stroke-width:0.25;"/>
<rect x="74.150000" y="99.000000" width="24.000000" height="24.000000" rx="0" ry="0" style="stroke:none;fill:#cccccc;"/>
<rect x="73.150000" y="98.000000" width="24.000000" height="24.000000" rx="0" ry="0" style="stroke:none;fill:#f44800;"/>
<text x="85.150000" y="112.000000" font-family="Arial" font-size="7" text-anchor="middle" fill="#FFFFFF">1</text>
<circle cx="75.150000" cy="100.000000" r="1"/>
<line x1="64.150000" y1="89.000000" x2="64.150000" y2="131.000000"  style="stroke: black; stroke-linecap:round; stroke-width:0.25; stroke-dasharray:3,3;"/>
<line x1="64.150000" y1="131.000000" x2="106.150000" y2="131.000000"  style="stroke: black; stroke-linecap:round; stroke-width:0.25; stroke-dasharray:3,3;"/>
<line x1="106.150000" y1="131.000000" x2="106.150000" y2="89.000000"  style="stroke: black; stroke-linecap:round; stroke-width:0.25; stroke-dasharray:3,3;"/>
<line x1="64.150000" y1="89.000000" x2="69.150000" y2="89.000000"  style="stroke: black; stroke-linecap:round; stroke-width:0.25; stroke-dasharray:3,3;"/>
<line x1="88.500000" y1="89.000000" x2="106.150000" y2="89.000000"  style="stroke: black; stroke-linecap:round; stroke-width:0.25; stroke-dasharray:3,3;"/>
<text x="69.150000" y="91.000000" font-family="Arial" font-size="7">gain</text>
<rect x="163.300000" y="83.000000" width="24.000000" height="24.000000" rx="0" ry="0" style="stroke:none;fill:#cccccc;"/>
<rect x="162.300000" y="82.000000" width="24.000000" height="24.000000" rx="0" ry="0" style="stroke:none;fill:#4B71A1;"/>
<text x="174.300000" y="96.000000" font-family="Arial" font-size="7" text-anchor="middle" fill="#FFFFFF">+</text>
<circle cx="164.300000" cy="84.000000" r="1"/>
<line x1="159.300000" y1="89.000000" x2="162.300000" y2="90.000000"  transform="rotate(0.000000,162.300000,90.000000)" style="stroke: black; stroke-width:0.25;"/>
<line x1="159.300000" y1="91.000000" x2="162.300000" y2="90.000000"  transform="rotate(0.000000,162.300000,90.000000)" style="stroke: black; stroke-width:0.25;"/>
<line x1="159.300000" y1="97.000000" x2="162.300000" y2="98.000000"  transform="rotate(0.000000,162.300000,98.000000)" style="stroke: black; stroke-width:0.25;"/>
<line x1="159.300000" y1="99.000000" x2="162.300000" y2="98.000000"  transform="rotate(0.000000,162.300000,98.000000)" style="stroke: black; stroke-width:0.25;"/>
<rect x="195.300000" y="83.000000" width="24.000000" height="24.000000" rx="0" ry="0" style="stroke:none;fill:#cccccc;"/>
<rect x="194.300000" y="82.000000" width="24.000000" height="24.000000" rx="0" ry="0" style="stroke:none;fill:#4B71A1;"/>
<text x="206.300000" y="96.000000" font-family="Arial" font-size="7" text-anchor="middle" fill="#FFFFFF">int</text>
<circle cx="196.300000" cy="84.000000" r="1"/>
<line x1="191.300000" y1="93.000000" x2="194.300000" y2="94.000000"  transform="rotate(0.000000,194.300000,94.000000)" style="stroke: black; stroke-width:0.25;"/>
<line x1="191.300000" y1="95.000000" x2="194.300000" y2="94.000000"  transform="rotate(0.000000,194.300000,94.000000)" style="stroke: black; stroke-width:0.25;"/>
<rect x="89.250000" y="141.000000" width="25.800000" height="24.000000" rx="0" ry="0" style="stroke:none;fill:#cccccc;"/>
<rect x="88.250000" y="140.000000" width="25.800000" height="24.000000" rx="0" ry="0" style="stroke:none;fill:#f44800;"/>
<text x="101.150000" y="154.000000" font-family="Arial" font-size="7" text-anchor="middle" fill="#FFFFFF">4096</text>
<circle cx="90.250000" cy="142.000000" r="1"/>
<rect x="90.150000" y="183.000000" width="24.000000" height="24.000000" rx="0" ry="0" style="stroke:none;fill:#cccccc;"/>
<rect x="89.150000" y="182.000000" width="24.000000" height="24.000000" rx="0" ry="0" style="stroke:none;fill:#f44800;"/>
<text x="101.150000" y="196.000000" font-family="Arial" font-size="7" text-anchor="middle" fill="#FFFFFF">1</text>
<circle cx="91.150000" cy="184.000000" r="1"/>
<line x1="80.150000" y1="173.000000" x2="80.150000" y2="215.000000"  style="stroke: black; stroke-linecap:round; stroke-width:0.25; stroke-dasharray:3,3;"/>
<line x1="80.150000" y1="215.000000" x2="122.150000" y2="215.000000"  style="stroke: black; stroke-linecap:round; stroke-width:0.25; stroke-dasharray:3,3;"/>
<line x1="122.150000" y1="215.000000" x2="122.150000" y2="173.000000"  style="stroke: black; stroke-linecap:round; stroke-width:0.25; stroke-dasharray:3,3;"/>
<line x1="80.150000" y1="173.000000" x2="85.150000" y2="173.000000"  style="stroke: black; stroke-linecap:round; stroke-width:0.25; stroke-dasharray:3,3;"/>
<line x1="104.500000" y1="173.000000" x2="122.150000" y2="173.000000"  style="stroke: black; stroke-linecap:round; stroke-width:0.25; stroke-dasharray:3,3;"/>
<text x="85.150000" y="175.000000" font-family="Arial" font-size="7">gain</text>
<rect x="140.150000" y="167.000000" width="24.000000" height="24.000000" rx="0" ry="0" style="stroke:none;fill:#cccccc;"/>
<rect x="139.150000" y="166.000000" width="24.000000" height="24.000000" rx="0" ry="0" style="stroke:none;fill:#4B71A1;"/>
<text x="151.150000" y="180.000000" font-family="Arial" font-size="7" text-anchor="middle" fill="#FFFFFF">-</text>
<circle cx="141.150000" cy="168.000000" r="1"/>
<line x1="136.150000" y1="173.000000" x2="139.150000" y2="174.000000"  transform="rotate(0.000000,139.150000,174.000000)" style="stroke: black; stroke-width:0.25;"/>
<line x1="136.150000" y1="175.000000" x2="139.150000" y2="174.000000"  transform="rotate(0.000000,139.150000,174.000000)" style="stroke: black; stroke-width:0.25;"/>
<line x1="136.150000" y1="181.000000" x2="139.150000" y2="182.000000"  transform="rotate(0.000000,139.150000,182.000000)" style="stroke: black; stroke-width:0.25;"/>
<line x1="136.150000" y1="183.000000" x2="139.150000" y2="182.000000"  transform="rotate(0.000000,139.150000,182.000000)" style="stroke: black; stroke-width:0.25;"/>
<rect x="235.300000" y="125.000000" width="24.000000" height="24.000000" rx="0" ry="0" style="stroke:none;fill:#cccccc;"/>
<rect x="234.300000" y="124.000000" width="24.000000" height="24.000000" rx="0" ry="0" style="stroke:none;fill:#4B71A1;"/>
<text x="246.300000" y="138.000000" font-family="Arial" font-size="7" text-anchor="middle" fill="#FFFFFF">&amp;</text>
<circle cx="236.300000" cy="126.000000" r="1"/>
<line x1="231.300000" y1="131.000000" x2="234.300000" y2="132.000000"  transform="rotate(0.000000,234.300000,132.000000)" style="stroke: black; stroke-width:0.25;"/>
<line x1="231.300000" y1="133.000000" x2="234.300000" y2="132.000000"  transform="rotate(0.000000,234.300000,132.000000)" style="stroke: black; stroke-width:0.25;"/>
<line x1="231.300000" y1="139.000000" x2="234.300000" y2="140.000000"  transform="rotate(0.000000,234.300000,140.000000)" style="stroke: black; stroke-width:0.25;"/>
<line x1="231.300000" y1="141.000000" x2="234.300000" y2="140.000000"  transform="rotate(0.000000,234.300000,140.000000)" style="stroke: black; stroke-width:0.25;"/>
<rect x="275.300000" y="109.000000" width="24.000000" height="24.000000" rx="0" ry="0" style="stroke:none;fill:#cccccc;"/>
<rect x="274.300000" y="108.000000" width="24.000000" height="24.000000" rx="0" ry="0" style="stroke:none;fill:#4B71A1;"/>
<text x="286.300000" y="122.000000" font-family="Arial" font-size="7" text-anchor="middle" fill="#FFFFFF">@</text>
<circle cx="276.300000" cy="110.000000" r="1"/>
<line x1="271.300000" y1="115.000000" x2="274.300000" y2="116.000000"  transform="rotate(0.000000,274.300000,116.000000)" style="stroke: black; stroke-width:0.25;"/>
<line x1="271.300000" y1="117.000000" x2="274.300000" y2="116.000000"  transform="rotate(0.000000,274.300000,116.000000)" style="stroke: black; stroke-width:0.25;"/>
<line x1="271.300000" y1="123.000000" x2="274.300000" y2="124.000000"  transform="rotate(0.000000,274.300000,124.000000)" style="stroke: black; stroke-width:0.25;"/>
<line x1="271.300000" y1="125.000000" x2="274.300000" y2="124.000000"  transform="rotate(0.000000,274.300000,124.000000)" style="stroke: black; stroke-width:0.25;"/>
<line x1="15.000000" y1="15.000000" x2="15.000000" y2="225.000000"  style="stroke: black; stroke-linecap:round; stroke-width:0.25; stroke-dasharray:3,3;"/>
<line x1="15.000000" y1="225.000000" x2="315.300000" y2="225.000000"  style="stroke: black; stroke-linecap:round; stroke-width:0.25; stroke-dasharray:3,3;"/>
<line x1="315.300000" y1="225.000000" x2="315.300000" y2="15.000000"  style="stroke: black; stroke-linecap:round; stroke-width:0.25; stroke-dasharray:3,3;"/>
<line x1="15.000000" y1="15.000000" x2="20.000000" y2="15.000000"  style="stroke: black; stroke-linecap:round; stroke-width:0.25; stroke-dasharray:3,3;"/>
<line x1="136.100000" y1="15.000000" x2="315.300000" y2="15.000000"  style="stroke: black; stroke-linecap:round; stroke-width:0.25; stroke-dasharray:3,3;"/>
<text x="20.000000" y="17.000000" font-family="Arial" font-size="7">delay(4096)((...: int),1 : +)(x14)</text>
<line x1="317.300000" y1="119.000000" x2="320.300000" y2="120.000000"  transform="rotate(0.000000,320.300000,120.000000)" style="stroke: black; stroke-width:0.25;"/>
<line x1="317.300000" y1="121.000000" x2="320.300000" y2="120.000000"  transform="rotate(0.000000,320.300000,120.000000)" style="stroke: black; stroke-width:0.25;"/>
<line x1="97.150000" y1="110.000000" x2="101.150000" y2="110.000000"  style="stroke:black; stroke-linecap:round; stroke-width:0.25;"/>
<line x1="101.150000" y1="110.000000" x2="111.150000" y2="110.000000"  style="stroke:black; stroke-linecap:round; stroke-width:0.25;"/>
<line x1="111.150000" y1="110.000000" x2="150.300000" y2="110.000000"  style="stroke:black; stroke-linecap:round; stroke-width:0.25;"/>
<line x1="113.150000" y1="194.000000" x2="117.150000" y2="194.000000"  style="stroke:black; stroke-linecap:round; stroke-width:0.25;"/>
<line x1="114.050000" y1="152.000000" x2="118.050000" y2="152.000000"  style="stroke:black; stroke-linecap:round; stroke-width:0.25;"/>
<line x1="114.300000" y1="68.000000" x2="118.300000" y2="68.000000"  style="stroke:black; stroke-linecap:round; stroke-width:0.25;"/>
<line x1="117.150000" y1="194.000000" x2="127.150000" y2="194.000000"  style="stroke:black; stroke-linecap:round; stroke-width:0.25;"/>
<line x1="118.050000" y1="152.000000" x2="127.150000" y2="152.000000"  style="stroke:black; stroke-linecap:round; stroke-width:0.25;"/>
<line x1="118.300000" y1="68.000000" x2="118.300000" y2="68.000000"  style="stroke:black; stroke-linecap:round; stroke-width:0.25;"/>
<line x1="118.300000" y1="68.000000" x2="122.300000" y2="68.000000"  style="stroke:black; stroke-linecap:round; stroke-width:0.25;"/>
<line x1="127.150000" y1="152.000000" x2="135.150000" y2="152.000000"  style="stroke:black; stroke-linecap:round; stroke-width:0.25;"/>
<line x1="127.150000" y1="182.000000" x2="135.150000" y2="182.000000"  style="stroke:black; stroke-linecap:round; stroke-width:0.25;"/>
<line x1="127.150000" y1="194.000000" x2="127.150000" y2="182.000000"  style="stroke:black; stroke-linecap:round; stroke-width:0.25;"/>
<line x1="127.150000" y1="194.000000" x2="127.150000" y2="194.000000"  style="stroke:black; stroke-linecap:round; stroke-width:0.25;"/>
<line x1="135.150000" y1="152.000000" x2="135.150000" y2="174.000000"  style="stroke:black; stroke-linecap:round; stroke-width:0.25;"/>
<line x1="135.150000" y1="174.000000" x2="135.150000" y2="174.000000"  style="stroke:black; stroke-linecap:round; stroke-width:0.25;"/>
<line x1="135.150000" y1="174.000000" x2="139.150000" y2="174.000000"  style="stroke:black; stroke-linecap:round; stroke-width:0.25;"/>
<line x1="135.150000" y1="182.000000" x2="139.150000" y2="182.000000"  style="stroke:black; stroke-linecap:round; stroke-width:0.25;"/>
<line x1="146.300000" y1="68.000000" x2="150.300000" y2="68.000000"  style="stroke:black; stroke-linecap:round; stroke-width:0.25;"/>
<line x1="150.300000" y1="68.000000" x2="158.300000" y2="68.000000"  style="stroke:black; stroke-linecap:round; stroke-width:0.25;"/>
<line x1="150.300000" y1="98.000000" x2="158.300000" y2="98.000000"  style="stroke:black; stroke-linecap:round; stroke-width:0.25;"/>
<line x1="150.300000" y1="110.000000" x2="150.300000" y2="98.000000"  style="stroke:black; stroke-linecap:round; stroke-width:0.25;"/>
<line x1="150.300000" y1="110.000000" x2="150.300000" y2="110.000000"  style="stroke:black; stroke-linecap:round; stroke-width:0.25;"/>
<line x1="153.150000" y1="36.000000" x2="157.150000" y2="36.000000"  style="stroke:black; stroke-linecap:round; stroke-width:0.25;"/>
<line x1="157.150000" y1="36.000000" x2="262.300000" y2="36.000000"  style="stroke:black; stroke-linecap:round; stroke-width:0.25;"/>
<line x1="158.300000" y1="68.000000" x2="158.300000" y2="90.000000"  style="stroke:black; stroke-linecap:round; stroke-width:0.25;"/>
<line x1="158.300000" y1="90.000000" x2="158.300000" y2="90.000000"  style="stroke:black; stroke-linecap:round; stroke-width:0.25;"/>
<line x1="158.300000" y1="90.000000" x2="162.300000" y2="90.000000"  style="stroke:black; stroke-linecap:round; stroke-width:0.25;"/>
<line x1="158.300000" y1="98.000000" x2="162.300000" y2="98.000000"  style="stroke:black; stroke-linecap:round; stroke-width:0.25;"/>
<line x1="163.150000" y1="178.000000" x2="167.150000" y2="178.000000"  style="stroke:black; stroke-linecap:round; stroke-width:0.25;"/>
<line x1="167.150000" y1="178.000000" x2="222.300000" y2="178.000000"  style="stroke:black; stroke-linecap:round; stroke-width:0.25;"/>
<line x1="186.300000" y1="94.000000" x2="190.300000" y2="94.000000"  style="stroke:black; stroke-linecap:round; stroke-width:0.25;"/>
<line x1="190.300000" y1="94.000000" x2="190.300000" y2="94.000000"  style="stroke:black; stroke-linecap:round; stroke-width:0.25;"/>
<line x1="190.300000" y1="94.000000" x2="194.300000" y2="94.000000"  style="stroke:black; stroke-linecap:round; stroke-width:0.25;"/>
<line x1="218.300000" y1="94.000000" x2="222.300000" y2="94.000000"  style="stroke:black; stroke-linecap:round; stroke-width:0.25;"/>
<line x1="222.300000" y1="94.000000" x2="230.300000" y2="94.000000"  style="stroke:black; stroke-linecap:round; stroke-width:0.25;"/>
<line x1="222.300000" y1="140.000000" x2="230.300000" y2="140.000000"  style="stroke:black; stroke-linecap:round; stroke-width:0.25;"/>
<line x1="222.300000" y1="178.000000" x2="222.300000" y2="140.000000"  style="stroke:black; stroke-linecap:round; stroke-width:0.25;"/>
<line x1="222.300000" y1="178.000000" x2="222.300000" y2="178.000000"  style="stroke:black; stroke-linecap:round; stroke-width:0.25;"/>
<line x1="230.300000" y1="94.000000" x2="230.300000" y2="132.000000"  style="stroke:black; stroke-linecap:round; stroke-width:0.25;"/>
<line x1="230.300000" y1="132.000000" x2="230.300000" y2="132.000000"  style="stroke:black; stroke-linecap:round; stroke-width:0.25;"/>
<line x1="230.300000" y1="132.000000" x2="234.300000" y2="132.000000"  style="stroke:black; stroke-linecap:round; stroke-width:0.25;"/>
<line x1="230.300000" y1="140.000000" x2="234.300000" y2="140.000000"  style="stroke:black; stroke-linecap:round; stroke-width:0.25;"/>
<line x1="258.300000" y1="136.000000" x2="262.300000" y2="136.000000"  style="stroke:black; stroke-linecap:round; stroke-width:0.25;"/>
<line x1="262.300000" y1="36.000000" x2="270.300000" y2="36.000000"  style="stroke:black; stroke-linecap:round; stroke-width:0.25;"/>
<line x1="262.300000" y1="124.000000" x2="270.300000" y2="124.000000"  style="stroke:black; stroke-linecap:round; stroke-width:0.25;"/>
<line x1="262.300000" y1="136.000000" x2="262.300000" y2="124.000000"  style="stroke:black; stroke-linecap:round; stroke-width:0.25;"/>
<line x1="262.300000" y1="136.000000" x2="262.300000" y2="136.000000"  style="stroke:black; stroke-linecap:round; stroke-width:0.25;"/>
<line x1="270.300000" y1="36.000000" x2="270.300000" y2="116.000000"  style="stroke:black; stroke-linecap:round; stroke-width:0.25;"/>
<line x1="270.300000" y1="116.000000" x2="270.300000" y2="116.000000"  style="stroke:black; stroke-linecap:round; stroke-width:0.25;"/>
<line x1="270.300000" y1="116.000000" x2="274.300000" y2="116.000000"  style="stroke:black; stroke-linecap:round; stroke-width:0.25;"/>
<line x1="270.300000" y1="124.000000" x2="274.300000" y2="124.000000"  style="stroke:black; stroke-linecap:round; stroke-width:0.25;"/>
<line x1="298.300000" y1="120.000000" x2="302.300000" y2="120.000000"  style="stroke:black; stroke-linecap:round; stroke-width:0.25;"/>
<line x1="302.300000" y1="120.000000" x2="302.300000" y2="120.000000"  style="stroke:black; stroke-linecap:round; stroke-width:0.25;"/>
<line x1="302.300000" y1="120.000000" x2="306.300000" y2="120.000000"  style="stroke:black; stroke-linecap:round; stroke-width:0.25;"/>
<line x1="306.300000" y1="120.000000" x2="310.300000" y2="120.000000"  style="stroke:black; stroke-linecap:round; stroke-width:0.25;"/>
<line x1="310.300000" y1="120.000000" x2="320.300000" y2="120.000000"  style="stroke:black; stroke-linecap:round; stroke-width:0.25;"/>
</svg>
