<?xml version="1.0"?>
<svg xmlns="http://www.w3.org/2000/svg" xmlns:xlink="http://www.w3.org/1999/xlink" viewBox="0 0 183.200000 72.000000" width="91.600000mm" height="36.000000mm" version="1.1">
<rect x="1.000000" y="1.000000" width="182.200000" height="71.000000" rx="0" ry="0" style="stroke:none;fill:#cccccc;"/>
<rect x="0.000000" y="0.000000" width="182.200000" height="71.000000" rx="0" ry="0" style="stroke:none;fill:#ffffff;"/>
<text x="10.000000" y="7.000000" font-family="Arial" font-size="7"></text>
<a xlink:href="flute-0x7f85ce089460.svg">
<rect x="25.000000" y="25.000000" width="25.800000" height="24.000000" rx="0" ry="0" style="stroke:none;fill:#cccccc;"/>
<rect x="24.000000" y="24.000000" width="25.800000" height="24.000000" rx="0" ry="0" style="stroke:none;fill:#003366;"/>
</a>
<a xlink:href="flute-0x7f85ce089460.svg">
<text x="36.900000" y="38.000000" font-family="Arial" font-size="7" text-anchor="middle" fill="#FFFFFF">flute</text>
</a>
<circle cx="26.000000" cy="26.000000" r="1"/>
<a xlink:href="instrReverbFlute-0x7f85ce5a11b0.svg">
<rect x="74.800000" y="25.000000" width="77.400000" height="24.000000" rx="0" ry="0" style="stroke:none;fill:#cccccc;"/>
<rect x="73.800000" y="24.000000" width="77.400000" height="24.000000" rx="0" ry="0" style="stroke:none;fill:#003366;"/>
</a>
<a xlink:href="instrReverbFlute-0x7f85ce5a11b0.svg">
<text x="112.500000" y="38.000000" font-family="Arial" font-size="7" text-anchor="middle" fill="#FFFFFF">instrReverbFlute</text>
</a>
<circle cx="75.800000" cy="26.000000" r="1"/>
<line x1="70.800000" y1="31.000000" x2="73.800000" y2="32.000000"  transform="rotate(0.000000,73.800000,32.000000)" style="stroke: black; stroke-width:0.25;"/>
<line x1="70.800000" y1="33.000000" x2="73.800000" y2="32.000000"  transform="rotate(0.000000,73.800000,32.000000)" style="stroke: black; stroke-width:0.25;"/>
<line x1="70.800000" y1="39.000000" x2="73.800000" y2="40.000000"  transform="rotate(0.000000,73.800000,40.000000)" style="stroke: black; stroke-width:0.25;"/>
<line x1="70.800000" y1="41.000000" x2="73.800000" y2="40.000000"  transform="rotate(0.000000,73.800000,40.000000)" style="stroke: black; stroke-width:0.25;"/>
<line x1="15.000000" y1="15.000000" x2="15.000000" y2="57.000000"  style="stroke: black; stroke-linecap:round; stroke-width:0.25; stroke-dasharray:3,3;"/>
<line x1="15.000000" y1="57.000000" x2="168.200000" y2="57.000000"  style="stroke: black; stroke-linecap:round; stroke-width:0.25; stroke-dasharray:3,3;"/>
<line x1="168.200000" y1="57.000000" x2="168.200000" y2="15.000000"  style="stroke: black; stroke-linecap:round; stroke-width:0.25; stroke-dasharray:3,3;"/>
<line x1="15.000000" y1="15.000000" x2="20.000000" y2="15.000000"  style="stroke: black; stroke-linecap:round; stroke-width:0.25; stroke-dasharray:3,3;"/>
<line x1="49.025000" y1="15.000000" x2="168.200000" y2="15.000000"  style="stroke: black; stroke-linecap:round; stroke-width:0.25; stroke-dasharray:3,3;"/>
<text x="20.000000" y="17.000000" font-family="Arial" font-size="7">process</text>
<line x1="170.200000" y1="31.000000" x2="173.200000" y2="32.000000"  transform="rotate(0.000000,173.200000,32.000000)" style="stroke: black; stroke-width:0.25;"/>
<line x1="170.200000" y1="33.000000" x2="173.200000" y2="32.000000"  transform="rotate(0.000000,173.200000,32.000000)" style="stroke: black; stroke-width:0.25;"/>
<line x1="170.200000" y1="39.000000" x2="173.200000" y2="40.000000"  transform="rotate(0.000000,173.200000,40.000000)" style="stroke: black; stroke-width:0.25;"/>
<line x1="170.200000" y1="41.000000" x2="173.200000" y2="40.000000"  transform="rotate(0.000000,173.200000,40.000000)" style="stroke: black; stroke-width:0.25;"/>
<line x1="49.800000" y1="36.000000" x2="53.800000" y2="36.000000"  style="stroke:black; stroke-linecap:round; stroke-width:0.25;"/>
<line x1="53.800000" y1="36.000000" x2="69.800000" y2="32.000000"  style="stroke:black; stroke-linecap:round; stroke-width:0.25;"/>
<line x1="53.800000" y1="36.000000" x2="69.800000" y2="40.000000"  style="stroke:black; stroke-linecap:round; stroke-width:0.25;"/>
<line x1="69.800000" y1="32.000000" x2="73.800000" y2="32.000000"  style="stroke:black; stroke-linecap:round; stroke-width:0.25;"/>
<line x1="69.800000" y1="40.000000" x2="73.800000" y2="40.000000"  style="stroke:black; stroke-linecap:round; stroke-width:0.25;"/>
<line x1="151.200000" y1="32.000000" x2="155.200000" y2="32.000000"  style="stroke:black; stroke-linecap:round; stroke-width:0.25;"/>
<line x1="151.200000" y1="40.000000" x2="155.200000" y2="40.000000"  style="stroke:black; stroke-linecap:round; stroke-width:0.25;"/>
<line x1="155.200000" y1="32.000000" x2="155.200000" y2="32.000000"  style="stroke:black; stroke-linecap:round; stroke-width:0.25;"/>
<line x1="155.200000" y1="32.000000" x2="159.200000" y2="32.000000"  style="stroke:black; stroke-linecap:round; stroke-width:0.25;"/>
<line x1="155.200000" y1="40.000000" x2="155.200000" y2="40.000000"  style="stroke:black; stroke-linecap:round; stroke-width:0.25;"/>
<line x1="155.200000" y1="40.000000" x2="159.200000" y2="40.000000"  style="stroke:black; stroke-linecap:round; stroke-width:0.25;"/>
<line x1="159.200000" y1="32.000000" x2="163.200000" y2="32.000000"  style="stroke:black; stroke-linecap:round; stroke-width:0.25;"/>
<line x1="159.200000" y1="40.000000" x2="163.200000" y2="40.000000"  style="stroke:black; stroke-linecap:round; stroke-width:0.25;"/>
<line x1="163.200000" y1="32.000000" x2="173.200000" y2="32.000000"  style="stroke:black; stroke-linecap:round; stroke-width:0.25;"/>
<line x1="163.200000" y1="40.000000" x2="173.200000" y2="40.000000"  style="stroke:black; stroke-linecap:round; stroke-width:0.25;"/>
</svg>
