<?xml version="1.0"?>
<svg xmlns="http://www.w3.org/2000/svg" xmlns:xlink="http://www.w3.org/1999/xlink" viewBox="0 0 260.000000 428.000000" width="130.000000mm" height="214.000000mm" version="1.1">
<a xlink:href="c-0x7fd173cbeba0.svg">
<rect x="1.000000" y="1.000000" width="259.000000" height="427.000000" rx="0" ry="0" style="stroke:none;fill:#cccccc;"/>
<rect x="0.000000" y="0.000000" width="259.000000" height="427.000000" rx="0" ry="0" style="stroke:none;fill:#ffffff;"/>
</a>
<text x="10.000000" y="7.000000" font-family="Arial" font-size="7"></text>
<a xlink:href="tsignorm-0x7fd173cbc980.svg">
<rect x="34.750000" y="25.000000" width="64.500000" height="24.000000" rx="0" ry="0" style="stroke:none;fill:#cccccc;"/>
<rect x="33.750000" y="24.000000" width="64.500000" height="24.000000" rx="0" ry="0" style="stroke:none;fill:#003366;"/>
</a>
<a xlink:href="tsignorm-0x7fd173cbc980.svg">
<text x="66.000000" y="38.000000" font-family="Arial" font-size="7" text-anchor="middle" fill="#FFFFFF">tsignorm(x16)</text>
</a>
<circle cx="35.750000" cy="26.000000" r="1"/>
<rect x="35.000000" y="67.000000" width="24.000000" height="24.000000" rx="0" ry="0" style="stroke:none;fill:#cccccc;"/>
<rect x="34.000000" y="66.000000" width="24.000000" height="24.000000" rx="0" ry="0" style="stroke:none;fill:#f44800;"/>
<text x="46.000000" y="80.000000" font-family="Arial" font-size="7" text-anchor="middle" fill="#FFFFFF">0</text>
<circle cx="36.000000" cy="68.000000" r="1"/>
<line x1="25.000000" y1="57.000000" x2="25.000000" y2="99.000000"  style="stroke: black; stroke-linecap:round; stroke-width:0.25; stroke-dasharray:3,3;"/>
<line x1="25.000000" y1="99.000000" x2="67.000000" y2="99.000000"  style="stroke: black; stroke-linecap:round; stroke-width:0.25; stroke-dasharray:3,3;"/>
<line x1="67.000000" y1="99.000000" x2="67.000000" y2="57.000000"  style="stroke: black; stroke-linecap:round; stroke-width:0.25; stroke-dasharray:3,3;"/>
<line x1="25.000000" y1="57.000000" x2="30.000000" y2="57.000000"  style="stroke: black; stroke-linecap:round; stroke-width:0.25; stroke-dasharray:3,3;"/>
<line x1="67.000000" y1="57.000000" x2="67.000000" y2="57.000000"  style="stroke: black; stroke-linecap:round; stroke-width:0.25; stroke-dasharray:3,3;"/>
<text x="30.000000" y="59.000000" font-family="Arial" font-size="7">pressureEnvelope</text>
<rect x="35.000000" y="119.000000" width="24.000000" height="24.000000" rx="0" ry="0" style="stroke:none;fill:#cccccc;"/>
<rect x="34.000000" y="118.000000" width="24.000000" height="24.000000" rx="0" ry="0" style="stroke:none;fill:#f44800;"/>
<text x="46.000000" y="132.000000" font-family="Arial" font-size="7" text-anchor="middle" fill="#FFFFFF">0</text>
<circle cx="36.000000" cy="120.000000" r="1"/>
<line x1="25.000000" y1="109.000000" x2="25.000000" y2="151.000000"  style="stroke: black; stroke-linecap:round; stroke-width:0.25; stroke-dasharray:3,3;"/>
<line x1="25.000000" y1="151.000000" x2="67.000000" y2="151.000000"  style="stroke: black; stroke-linecap:round; stroke-width:0.25; stroke-dasharray:3,3;"/>
<line x1="67.000000" y1="151.000000" x2="67.000000" y2="109.000000"  style="stroke: black; stroke-linecap:round; stroke-width:0.25; stroke-dasharray:3,3;"/>
<line x1="25.000000" y1="109.000000" x2="30.000000" y2="109.000000"  style="stroke: black; stroke-linecap:round; stroke-width:0.25; stroke-dasharray:3,3;"/>
<line x1="67.000000" y1="109.000000" x2="67.000000" y2="109.000000"  style="stroke: black; stroke-linecap:round; stroke-width:0.25; stroke-dasharray:3,3;"/>
<text x="30.000000" y="111.000000" font-family="Arial" font-size="7">pressureEnvelope</text>
<rect x="85.000000" y="93.000000" width="24.000000" height="24.000000" rx="0" ry="0" style="stroke:none;fill:#cccccc;"/>
<rect x="84.000000" y="92.000000" width="24.000000" height="24.000000" rx="0" ry="0" style="stroke:none;fill:#4B71A1;"/>
<text x="96.000000" y="106.000000" font-family="Arial" font-size="7" text-anchor="middle" fill="#FFFFFF">==</text>
<circle cx="86.000000" cy="94.000000" r="1"/>
<line x1="81.000000" y1="99.000000" x2="84.000000" y2="100.000000"  transform="rotate(0.000000,84.000000,100.000000)" style="stroke: black; stroke-width:0.25;"/>
<line x1="81.000000" y1="101.000000" x2="84.000000" y2="100.000000"  transform="rotate(0.000000,84.000000,100.000000)" style="stroke: black; stroke-width:0.25;"/>
<line x1="81.000000" y1="107.000000" x2="84.000000" y2="108.000000"  transform="rotate(0.000000,84.000000,108.000000)" style="stroke: black; stroke-width:0.25;"/>
<line x1="81.000000" y1="109.000000" x2="84.000000" y2="108.000000"  transform="rotate(0.000000,84.000000,108.000000)" style="stroke: black; stroke-width:0.25;"/>
<rect x="125.000000" y="77.000000" width="24.000000" height="24.000000" rx="0" ry="0" style="stroke:none;fill:#cccccc;"/>
<rect x="124.000000" y="76.000000" width="24.000000" height="24.000000" rx="0" ry="0" style="stroke:none;fill:#4B71A1;"/>
<text x="136.000000" y="90.000000" font-family="Arial" font-size="7" text-anchor="middle" fill="#FFFFFF">*</text>
<circle cx="126.000000" cy="78.000000" r="1"/>
<line x1="121.000000" y1="83.000000" x2="124.000000" y2="84.000000"  transform="rotate(0.000000,124.000000,84.000000)" style="stroke: black; stroke-width:0.25;"/>
<line x1="121.000000" y1="85.000000" x2="124.000000" y2="84.000000"  transform="rotate(0.000000,124.000000,84.000000)" style="stroke: black; stroke-width:0.25;"/>
<line x1="121.000000" y1="91.000000" x2="124.000000" y2="92.000000"  transform="rotate(0.000000,124.000000,92.000000)" style="stroke: black; stroke-width:0.25;"/>
<line x1="121.000000" y1="93.000000" x2="124.000000" y2="92.000000"  transform="rotate(0.000000,124.000000,92.000000)" style="stroke: black; stroke-width:0.25;"/>
<a xlink:href="tsigav-0x7fd173cbce60.svg">
<rect x="41.200000" y="161.000000" width="51.600000" height="24.000000" rx="0" ry="0" style="stroke:none;fill:#cccccc;"/>
<rect x="40.200000" y="160.000000" width="51.600000" height="24.000000" rx="0" ry="0" style="stroke:none;fill:#003366;"/>
</a>
<a xlink:href="tsigav-0x7fd173cbce60.svg">
<text x="66.000000" y="174.000000" font-family="Arial" font-size="7" text-anchor="middle" fill="#FFFFFF">tsigav(x16)</text>
</a>
<circle cx="42.200000" cy="162.000000" r="1"/>
<rect x="35.000000" y="203.000000" width="24.000000" height="24.000000" rx="0" ry="0" style="stroke:none;fill:#cccccc;"/>
<rect x="34.000000" y="202.000000" width="24.000000" height="24.000000" rx="0" ry="0" style="stroke:none;fill:#f44800;"/>
<text x="46.000000" y="216.000000" font-family="Arial" font-size="7" text-anchor="middle" fill="#FFFFFF">0</text>
<circle cx="36.000000" cy="204.000000" r="1"/>
<line x1="25.000000" y1="193.000000" x2="25.000000" y2="235.000000"  style="stroke: black; stroke-linecap:round; stroke-width:0.25; stroke-dasharray:3,3;"/>
<line x1="25.000000" y1="235.000000" x2="67.000000" y2="235.000000"  style="stroke: black; stroke-linecap:round; stroke-width:0.25; stroke-dasharray:3,3;"/>
<line x1="67.000000" y1="235.000000" x2="67.000000" y2="193.000000"  style="stroke: black; stroke-linecap:round; stroke-width:0.25; stroke-dasharray:3,3;"/>
<line x1="25.000000" y1="193.000000" x2="30.000000" y2="193.000000"  style="stroke: black; stroke-linecap:round; stroke-width:0.25; stroke-dasharray:3,3;"/>
<line x1="67.000000" y1="193.000000" x2="67.000000" y2="193.000000"  style="stroke: black; stroke-linecap:round; stroke-width:0.25; stroke-dasharray:3,3;"/>
<text x="30.000000" y="195.000000" font-family="Arial" font-size="7">pressureEnvelope</text>
<rect x="35.000000" y="255.000000" width="24.000000" height="24.000000" rx="0" ry="0" style="stroke:none;fill:#cccccc;"/>
<rect x="34.000000" y="254.000000" width="24.000000" height="24.000000" rx="0" ry="0" style="stroke:none;fill:#f44800;"/>
<text x="46.000000" y="268.000000" font-family="Arial" font-size="7" text-anchor="middle" fill="#FFFFFF">1</text>
<circle cx="36.000000" cy="256.000000" r="1"/>
<line x1="25.000000" y1="245.000000" x2="25.000000" y2="287.000000"  style="stroke: black; stroke-linecap:round; stroke-width:0.25; stroke-dasharray:3,3;"/>
<line x1="25.000000" y1="287.000000" x2="67.000000" y2="287.000000"  style="stroke: black; stroke-linecap:round; stroke-width:0.25; stroke-dasharray:3,3;"/>
<line x1="67.000000" y1="287.000000" x2="67.000000" y2="245.000000"  style="stroke: black; stroke-linecap:round; stroke-width:0.25; stroke-dasharray:3,3;"/>
<line x1="25.000000" y1="245.000000" x2="30.000000" y2="245.000000"  style="stroke: black; stroke-linecap:round; stroke-width:0.25; stroke-dasharray:3,3;"/>
<line x1="49.350000" y1="245.000000" x2="67.000000" y2="245.000000"  style="stroke: black; stroke-linecap:round; stroke-width:0.25; stroke-dasharray:3,3;"/>
<text x="30.000000" y="247.000000" font-family="Arial" font-size="7">gain</text>
<rect x="85.000000" y="229.000000" width="24.000000" height="24.000000" rx="0" ry="0" style="stroke:none;fill:#cccccc;"/>
<rect x="84.000000" y="228.000000" width="24.000000" height="24.000000" rx="0" ry="0" style="stroke:none;fill:#4B71A1;"/>
<text x="96.000000" y="242.000000" font-family="Arial" font-size="7" text-anchor="middle" fill="#FFFFFF">==</text>
<circle cx="86.000000" cy="230.000000" r="1"/>
<line x1="81.000000" y1="235.000000" x2="84.000000" y2="236.000000"  transform="rotate(0.000000,84.000000,236.000000)" style="stroke: black; stroke-width:0.25;"/>
<line x1="81.000000" y1="237.000000" x2="84.000000" y2="236.000000"  transform="rotate(0.000000,84.000000,236.000000)" style="stroke: black; stroke-width:0.25;"/>
<line x1="81.000000" y1="243.000000" x2="84.000000" y2="244.000000"  transform="rotate(0.000000,84.000000,244.000000)" style="stroke: black; stroke-width:0.25;"/>
<line x1="81.000000" y1="245.000000" x2="84.000000" y2="244.000000"  transform="rotate(0.000000,84.000000,244.000000)" style="stroke: black; stroke-width:0.25;"/>
<rect x="125.000000" y="213.000000" width="24.000000" height="24.000000" rx="0" ry="0" style="stroke:none;fill:#cccccc;"/>
<rect x="124.000000" y="212.000000" width="24.000000" height="24.000000" rx="0" ry="0" style="stroke:none;fill:#4B71A1;"/>
<text x="136.000000" y="226.000000" font-family="Arial" font-size="7" text-anchor="middle" fill="#FFFFFF">*</text>
<circle cx="126.000000" cy="214.000000" r="1"/>
<line x1="121.000000" y1="219.000000" x2="124.000000" y2="220.000000"  transform="rotate(0.000000,124.000000,220.000000)" style="stroke: black; stroke-width:0.25;"/>
<line x1="121.000000" y1="221.000000" x2="124.000000" y2="220.000000"  transform="rotate(0.000000,124.000000,220.000000)" style="stroke: black; stroke-width:0.25;"/>
<line x1="121.000000" y1="227.000000" x2="124.000000" y2="228.000000"  transform="rotate(0.000000,124.000000,228.000000)" style="stroke: black; stroke-width:0.25;"/>
<line x1="121.000000" y1="229.000000" x2="124.000000" y2="228.000000"  transform="rotate(0.000000,124.000000,228.000000)" style="stroke: black; stroke-width:0.25;"/>
<rect x="165.000000" y="145.000000" width="24.000000" height="24.000000" rx="0" ry="0" style="stroke:none;fill:#cccccc;"/>
<rect x="164.000000" y="144.000000" width="24.000000" height="24.000000" rx="0" ry="0" style="stroke:none;fill:#4B71A1;"/>
<text x="176.000000" y="158.000000" font-family="Arial" font-size="7" text-anchor="middle" fill="#FFFFFF">+</text>
<circle cx="166.000000" cy="146.000000" r="1"/>
<line x1="161.000000" y1="151.000000" x2="164.000000" y2="152.000000"  transform="rotate(0.000000,164.000000,152.000000)" style="stroke: black; stroke-width:0.25;"/>
<line x1="161.000000" y1="153.000000" x2="164.000000" y2="152.000000"  transform="rotate(0.000000,164.000000,152.000000)" style="stroke: black; stroke-width:0.25;"/>
<line x1="161.000000" y1="159.000000" x2="164.000000" y2="160.000000"  transform="rotate(0.000000,164.000000,160.000000)" style="stroke: black; stroke-width:0.25;"/>
<line x1="161.000000" y1="161.000000" x2="164.000000" y2="160.000000"  transform="rotate(0.000000,164.000000,160.000000)" style="stroke: black; stroke-width:0.25;"/>
<a xlink:href="tsigsquared-0x7fd173cbd450.svg">
<rect x="48.300000" y="297.000000" width="77.400000" height="24.000000" rx="0" ry="0" style="stroke:none;fill:#cccccc;"/>
<rect x="47.300000" y="296.000000" width="77.400000" height="24.000000" rx="0" ry="0" style="stroke:none;fill:#003366;"/>
</a>
<a xlink:href="tsigsquared-0x7fd173cbd450.svg">
<text x="86.000000" y="310.000000" font-family="Arial" font-size="7" text-anchor="middle" fill="#FFFFFF">tsigsquared(x16)</text>
</a>
<circle cx="49.300000" cy="298.000000" r="1"/>
<rect x="55.000000" y="339.000000" width="24.000000" height="24.000000" rx="0" ry="0" style="stroke:none;fill:#cccccc;"/>
<rect x="54.000000" y="338.000000" width="24.000000" height="24.000000" rx="0" ry="0" style="stroke:none;fill:#f44800;"/>
<text x="66.000000" y="352.000000" font-family="Arial" font-size="7" text-anchor="middle" fill="#FFFFFF">0</text>
<circle cx="56.000000" cy="340.000000" r="1"/>
<line x1="45.000000" y1="329.000000" x2="45.000000" y2="371.000000"  style="stroke: black; stroke-linecap:round; stroke-width:0.25; stroke-dasharray:3,3;"/>
<line x1="45.000000" y1="371.000000" x2="87.000000" y2="371.000000"  style="stroke: black; stroke-linecap:round; stroke-width:0.25; stroke-dasharray:3,3;"/>
<line x1="87.000000" y1="371.000000" x2="87.000000" y2="329.000000"  style="stroke: black; stroke-linecap:round; stroke-width:0.25; stroke-dasharray:3,3;"/>
<line x1="45.000000" y1="329.000000" x2="50.000000" y2="329.000000"  style="stroke: black; stroke-linecap:round; stroke-width:0.25; stroke-dasharray:3,3;"/>
<line x1="87.000000" y1="329.000000" x2="87.000000" y2="329.000000"  style="stroke: black; stroke-linecap:round; stroke-width:0.25; stroke-dasharray:3,3;"/>
<text x="50.000000" y="331.000000" font-family="Arial" font-size="7">pressureEnvelope</text>
<rect x="55.000000" y="381.000000" width="24.000000" height="24.000000" rx="0" ry="0" style="stroke:none;fill:#cccccc;"/>
<rect x="54.000000" y="380.000000" width="24.000000" height="24.000000" rx="0" ry="0" style="stroke:none;fill:#f44800;"/>
<text x="66.000000" y="394.000000" font-family="Arial" font-size="7" text-anchor="middle" fill="#FFFFFF">2</text>
<circle cx="56.000000" cy="382.000000" r="1"/>
<rect x="105.000000" y="355.000000" width="24.000000" height="24.000000" rx="0" ry="0" style="stroke:none;fill:#cccccc;"/>
<rect x="104.000000" y="354.000000" width="24.000000" height="24.000000" rx="0" ry="0" style="stroke:none;fill:#4B71A1;"/>
<text x="116.000000" y="368.000000" font-family="Arial" font-size="7" text-anchor="middle" fill="#FFFFFF">==</text>
<circle cx="106.000000" cy="356.000000" r="1"/>
<line x1="101.000000" y1="361.000000" x2="104.000000" y2="362.000000"  transform="rotate(0.000000,104.000000,362.000000)" style="stroke: black; stroke-width:0.25;"/>
<line x1="101.000000" y1="363.000000" x2="104.000000" y2="362.000000"  transform="rotate(0.000000,104.000000,362.000000)" style="stroke: black; stroke-width:0.25;"/>
<line x1="101.000000" y1="369.000000" x2="104.000000" y2="370.000000"  transform="rotate(0.000000,104.000000,370.000000)" style="stroke: black; stroke-width:0.25;"/>
<line x1="101.000000" y1="371.000000" x2="104.000000" y2="370.000000"  transform="rotate(0.000000,104.000000,370.000000)" style="stroke: black; stroke-width:0.25;"/>
<rect x="145.000000" y="339.000000" width="24.000000" height="24.000000" rx="0" ry="0" style="stroke:none;fill:#cccccc;"/>
<rect x="144.000000" y="338.000000" width="24.000000" height="24.000000" rx="0" ry="0" style="stroke:none;fill:#4B71A1;"/>
<text x="156.000000" y="352.000000" font-family="Arial" font-size="7" text-anchor="middle" fill="#FFFFFF">*</text>
<circle cx="146.000000" cy="340.000000" r="1"/>
<line x1="141.000000" y1="345.000000" x2="144.000000" y2="346.000000"  transform="rotate(0.000000,144.000000,346.000000)" style="stroke: black; stroke-width:0.25;"/>
<line x1="141.000000" y1="347.000000" x2="144.000000" y2="346.000000"  transform="rotate(0.000000,144.000000,346.000000)" style="stroke: black; stroke-width:0.25;"/>
<line x1="141.000000" y1="353.000000" x2="144.000000" y2="354.000000"  transform="rotate(0.000000,144.000000,354.000000)" style="stroke: black; stroke-width:0.25;"/>
<line x1="141.000000" y1="355.000000" x2="144.000000" y2="354.000000"  transform="rotate(0.000000,144.000000,354.000000)" style="stroke: black; stroke-width:0.25;"/>
<rect x="205.000000" y="203.000000" width="24.000000" height="24.000000" rx="0" ry="0" style="stroke:none;fill:#cccccc;"/>
<rect x="204.000000" y="202.000000" width="24.000000" height="24.000000" rx="0" ry="0" style="stroke:none;fill:#4B71A1;"/>
<text x="216.000000" y="216.000000" font-family="Arial" font-size="7" text-anchor="middle" fill="#FFFFFF">+</text>
<circle cx="206.000000" cy="204.000000" r="1"/>
<line x1="201.000000" y1="209.000000" x2="204.000000" y2="210.000000"  transform="rotate(0.000000,204.000000,210.000000)" style="stroke: black; stroke-width:0.25;"/>
<line x1="201.000000" y1="211.000000" x2="204.000000" y2="210.000000"  transform="rotate(0.000000,204.000000,210.000000)" style="stroke: black; stroke-width:0.25;"/>
<line x1="201.000000" y1="217.000000" x2="204.000000" y2="218.000000"  transform="rotate(0.000000,204.000000,218.000000)" style="stroke: black; stroke-width:0.25;"/>
<line x1="201.000000" y1="219.000000" x2="204.000000" y2="218.000000"  transform="rotate(0.000000,204.000000,218.000000)" style="stroke: black; stroke-width:0.25;"/>
<line x1="15.000000" y1="15.000000" x2="15.000000" y2="413.000000"  style="stroke: black; stroke-linecap:round; stroke-width:0.25; stroke-dasharray:3,3;"/>
<line x1="15.000000" y1="413.000000" x2="245.000000" y2="413.000000"  style="stroke: black; stroke-linecap:round; stroke-width:0.25; stroke-dasharray:3,3;"/>
<line x1="245.000000" y1="413.000000" x2="245.000000" y2="15.000000"  style="stroke: black; stroke-linecap:round; stroke-width:0.25; stroke-dasharray:3,3;"/>
<line x1="15.000000" y1="15.000000" x2="20.000000" y2="15.000000"  style="stroke: black; stroke-linecap:round; stroke-width:0.25; stroke-dasharray:3,3;"/>
<line x1="55.475000" y1="15.000000" x2="245.000000" y2="15.000000"  style="stroke: black; stroke-linecap:round; stroke-width:0.25; stroke-dasharray:3,3;"/>
<text x="20.000000" y="17.000000" font-family="Arial" font-size="7">tsig(x16)</text>
<line x1="247.000000" y1="213.000000" x2="250.000000" y2="214.000000"  transform="rotate(0.000000,250.000000,214.000000)" style="stroke: black; stroke-width:0.25;"/>
<line x1="247.000000" y1="215.000000" x2="250.000000" y2="214.000000"  transform="rotate(0.000000,250.000000,214.000000)" style="stroke: black; stroke-width:0.25;"/>
<line x1="58.000000" y1="78.000000" x2="62.000000" y2="78.000000"  style="stroke:black; stroke-linecap:round; stroke-width:0.25;"/>
<line x1="58.000000" y1="130.000000" x2="62.000000" y2="130.000000"  style="stroke:black; stroke-linecap:round; stroke-width:0.25;"/>
<line x1="58.000000" y1="214.000000" x2="62.000000" y2="214.000000"  style="stroke:black; stroke-linecap:round; stroke-width:0.25;"/>
<line x1="58.000000" y1="266.000000" x2="62.000000" y2="266.000000"  style="stroke:black; stroke-linecap:round; stroke-width:0.25;"/>
<line x1="62.000000" y1="78.000000" x2="72.000000" y2="78.000000"  style="stroke:black; stroke-linecap:round; stroke-width:0.25;"/>
<line x1="62.000000" y1="130.000000" x2="72.000000" y2="130.000000"  style="stroke:black; stroke-linecap:round; stroke-width:0.25;"/>
<line x1="62.000000" y1="214.000000" x2="72.000000" y2="214.000000"  style="stroke:black; stroke-linecap:round; stroke-width:0.25;"/>
<line x1="62.000000" y1="266.000000" x2="72.000000" y2="266.000000"  style="stroke:black; stroke-linecap:round; stroke-width:0.25;"/>
<line x1="72.000000" y1="78.000000" x2="80.000000" y2="78.000000"  style="stroke:black; stroke-linecap:round; stroke-width:0.25;"/>
<line x1="72.000000" y1="108.000000" x2="80.000000" y2="108.000000"  style="stroke:black; stroke-linecap:round; stroke-width:0.25;"/>
<line x1="72.000000" y1="130.000000" x2="72.000000" y2="108.000000"  style="stroke:black; stroke-linecap:round; stroke-width:0.25;"/>
<line x1="72.000000" y1="130.000000" x2="72.000000" y2="130.000000"  style="stroke:black; stroke-linecap:round; stroke-width:0.25;"/>
<line x1="72.000000" y1="214.000000" x2="80.000000" y2="214.000000"  style="stroke:black; stroke-linecap:round; stroke-width:0.25;"/>
<line x1="72.000000" y1="244.000000" x2="80.000000" y2="244.000000"  style="stroke:black; stroke-linecap:round; stroke-width:0.25;"/>
<line x1="72.000000" y1="266.000000" x2="72.000000" y2="244.000000"  style="stroke:black; stroke-linecap:round; stroke-width:0.25;"/>
<line x1="72.000000" y1="266.000000" x2="72.000000" y2="266.000000"  style="stroke:black; stroke-linecap:round; stroke-width:0.25;"/>
<line x1="78.000000" y1="350.000000" x2="82.000000" y2="350.000000"  style="stroke:black; stroke-linecap:round; stroke-width:0.25;"/>
<line x1="78.000000" y1="392.000000" x2="82.000000" y2="392.000000"  style="stroke:black; stroke-linecap:round; stroke-width:0.25;"/>
<line x1="80.000000" y1="78.000000" x2="80.000000" y2="100.000000"  style="stroke:black; stroke-linecap:round; stroke-width:0.25;"/>
<line x1="80.000000" y1="100.000000" x2="80.000000" y2="100.000000"  style="stroke:black; stroke-linecap:round; stroke-width:0.25;"/>
<line x1="80.000000" y1="100.000000" x2="84.000000" y2="100.000000"  style="stroke:black; stroke-linecap:round; stroke-width:0.25;"/>
<line x1="80.000000" y1="108.000000" x2="84.000000" y2="108.000000"  style="stroke:black; stroke-linecap:round; stroke-width:0.25;"/>
<line x1="80.000000" y1="214.000000" x2="80.000000" y2="236.000000"  style="stroke:black; stroke-linecap:round; stroke-width:0.25;"/>
<line x1="80.000000" y1="236.000000" x2="80.000000" y2="236.000000"  style="stroke:black; stroke-linecap:round; stroke-width:0.25;"/>
<line x1="80.000000" y1="236.000000" x2="84.000000" y2="236.000000"  style="stroke:black; stroke-linecap:round; stroke-width:0.25;"/>
<line x1="80.000000" y1="244.000000" x2="84.000000" y2="244.000000"  style="stroke:black; stroke-linecap:round; stroke-width:0.25;"/>
<line x1="82.000000" y1="350.000000" x2="92.000000" y2="350.000000"  style="stroke:black; stroke-linecap:round; stroke-width:0.25;"/>
<line x1="82.000000" y1="392.000000" x2="92.000000" y2="392.000000"  style="stroke:black; stroke-linecap:round; stroke-width:0.25;"/>
<line x1="91.800000" y1="172.000000" x2="95.800000" y2="172.000000"  style="stroke:black; stroke-linecap:round; stroke-width:0.25;"/>
<line x1="92.000000" y1="350.000000" x2="100.000000" y2="350.000000"  style="stroke:black; stroke-linecap:round; stroke-width:0.25;"/>
<line x1="92.000000" y1="370.000000" x2="100.000000" y2="370.000000"  style="stroke:black; stroke-linecap:round; stroke-width:0.25;"/>
<line x1="92.000000" y1="392.000000" x2="92.000000" y2="370.000000"  style="stroke:black; stroke-linecap:round; stroke-width:0.25;"/>
<line x1="92.000000" y1="392.000000" x2="92.000000" y2="392.000000"  style="stroke:black; stroke-linecap:round; stroke-width:0.25;"/>
<line x1="95.800000" y1="172.000000" x2="112.000000" y2="172.000000"  style="stroke:black; stroke-linecap:round; stroke-width:0.25;"/>
<line x1="98.250000" y1="36.000000" x2="102.250000" y2="36.000000"  style="stroke:black; stroke-linecap:round; stroke-width:0.25;"/>
<line x1="100.000000" y1="350.000000" x2="100.000000" y2="362.000000"  style="stroke:black; stroke-linecap:round; stroke-width:0.25;"/>
<line x1="100.000000" y1="362.000000" x2="100.000000" y2="362.000000"  style="stroke:black; stroke-linecap:round; stroke-width:0.25;"/>
<line x1="100.000000" y1="362.000000" x2="104.000000" y2="362.000000"  style="stroke:black; stroke-linecap:round; stroke-width:0.25;"/>
<line x1="100.000000" y1="370.000000" x2="104.000000" y2="370.000000"  style="stroke:black; stroke-linecap:round; stroke-width:0.25;"/>
<line x1="102.250000" y1="36.000000" x2="112.000000" y2="36.000000"  style="stroke:black; stroke-linecap:round; stroke-width:0.25;"/>
<line x1="108.000000" y1="104.000000" x2="112.000000" y2="104.000000"  style="stroke:black; stroke-linecap:round; stroke-width:0.25;"/>
<line x1="108.000000" y1="240.000000" x2="112.000000" y2="240.000000"  style="stroke:black; stroke-linecap:round; stroke-width:0.25;"/>
<line x1="112.000000" y1="36.000000" x2="120.000000" y2="36.000000"  style="stroke:black; stroke-linecap:round; stroke-width:0.25;"/>
<line x1="112.000000" y1="92.000000" x2="120.000000" y2="92.000000"  style="stroke:black; stroke-linecap:round; stroke-width:0.25;"/>
<line x1="112.000000" y1="104.000000" x2="112.000000" y2="92.000000"  style="stroke:black; stroke-linecap:round; stroke-width:0.25;"/>
<line x1="112.000000" y1="104.000000" x2="112.000000" y2="104.000000"  style="stroke:black; stroke-linecap:round; stroke-width:0.25;"/>
<line x1="112.000000" y1="172.000000" x2="120.000000" y2="172.000000"  style="stroke:black; stroke-linecap:round; stroke-width:0.25;"/>
<line x1="112.000000" y1="228.000000" x2="120.000000" y2="228.000000"  style="stroke:black; stroke-linecap:round; stroke-width:0.25;"/>
<line x1="112.000000" y1="240.000000" x2="112.000000" y2="228.000000"  style="stroke:black; stroke-linecap:round; stroke-width:0.25;"/>
<line x1="112.000000" y1="240.000000" x2="112.000000" y2="240.000000"  style="stroke:black; stroke-linecap:round; stroke-width:0.25;"/>
<line x1="120.000000" y1="36.000000" x2="120.000000" y2="84.000000"  style="stroke:black; stroke-linecap:round; stroke-width:0.25;"/>
<line x1="120.000000" y1="84.000000" x2="120.000000" y2="84.000000"  style="stroke:black; stroke-linecap:round; stroke-width:0.25;"/>
<line x1="120.000000" y1="84.000000" x2="124.000000" y2="84.000000"  style="stroke:black; stroke-linecap:round; stroke-width:0.25;"/>
<line x1="120.000000" y1="92.000000" x2="124.000000" y2="92.000000"  style="stroke:black; stroke-linecap:round; stroke-width:0.25;"/>
<line x1="120.000000" y1="172.000000" x2="120.000000" y2="220.000000"  style="stroke:black; stroke-linecap:round; stroke-width:0.25;"/>
<line x1="120.000000" y1="220.000000" x2="120.000000" y2="220.000000"  style="stroke:black; stroke-linecap:round; stroke-width:0.25;"/>
<line x1="120.000000" y1="220.000000" x2="124.000000" y2="220.000000"  style="stroke:black; stroke-linecap:round; stroke-width:0.25;"/>
<line x1="120.000000" y1="228.000000" x2="124.000000" y2="228.000000"  style="stroke:black; stroke-linecap:round; stroke-width:0.25;"/>
<line x1="124.700000" y1="308.000000" x2="128.700000" y2="308.000000"  style="stroke:black; stroke-linecap:round; stroke-width:0.25;"/>
<line x1="128.000000" y1="366.000000" x2="132.000000" y2="366.000000"  style="stroke:black; stroke-linecap:round; stroke-width:0.25;"/>
<line x1="128.700000" y1="308.000000" x2="132.000000" y2="308.000000"  style="stroke:black; stroke-linecap:round; stroke-width:0.25;"/>
<line x1="132.000000" y1="308.000000" x2="140.000000" y2="308.000000"  style="stroke:black; stroke-linecap:round; stroke-width:0.25;"/>
<line x1="132.000000" y1="354.000000" x2="140.000000" y2="354.000000"  style="stroke:black; stroke-linecap:round; stroke-width:0.25;"/>
<line x1="132.000000" y1="366.000000" x2="132.000000" y2="354.000000"  style="stroke:black; stroke-linecap:round; stroke-width:0.25;"/>
<line x1="132.000000" y1="366.000000" x2="132.000000" y2="366.000000"  style="stroke:black; stroke-linecap:round; stroke-width:0.25;"/>
<line x1="140.000000" y1="308.000000" x2="140.000000" y2="346.000000"  style="stroke:black; stroke-linecap:round; stroke-width:0.25;"/>
<line x1="140.000000" y1="346.000000" x2="140.000000" y2="346.000000"  style="stroke:black; stroke-linecap:round; stroke-width:0.25;"/>
<line x1="140.000000" y1="346.000000" x2="144.000000" y2="346.000000"  style="stroke:black; stroke-linecap:round; stroke-width:0.25;"/>
<line x1="140.000000" y1="354.000000" x2="144.000000" y2="354.000000"  style="stroke:black; stroke-linecap:round; stroke-width:0.25;"/>
<line x1="148.000000" y1="88.000000" x2="152.000000" y2="88.000000"  style="stroke:black; stroke-linecap:round; stroke-width:0.25;"/>
<line x1="148.000000" y1="224.000000" x2="152.000000" y2="224.000000"  style="stroke:black; stroke-linecap:round; stroke-width:0.25;"/>
<line x1="152.000000" y1="88.000000" x2="160.000000" y2="88.000000"  style="stroke:black; stroke-linecap:round; stroke-width:0.25;"/>
<line x1="152.000000" y1="160.000000" x2="160.000000" y2="160.000000"  style="stroke:black; stroke-linecap:round; stroke-width:0.25;"/>
<line x1="152.000000" y1="224.000000" x2="152.000000" y2="160.000000"  style="stroke:black; stroke-linecap:round; stroke-width:0.25;"/>
<line x1="152.000000" y1="224.000000" x2="152.000000" y2="224.000000"  style="stroke:black; stroke-linecap:round; stroke-width:0.25;"/>
<line x1="160.000000" y1="88.000000" x2="160.000000" y2="152.000000"  style="stroke:black; stroke-linecap:round; stroke-width:0.25;"/>
<line x1="160.000000" y1="152.000000" x2="160.000000" y2="152.000000"  style="stroke:black; stroke-linecap:round; stroke-width:0.25;"/>
<line x1="160.000000" y1="152.000000" x2="164.000000" y2="152.000000"  style="stroke:black; stroke-linecap:round; stroke-width:0.25;"/>
<line x1="160.000000" y1="160.000000" x2="164.000000" y2="160.000000"  style="stroke:black; stroke-linecap:round; stroke-width:0.25;"/>
<line x1="168.000000" y1="350.000000" x2="172.000000" y2="350.000000"  style="stroke:black; stroke-linecap:round; stroke-width:0.25;"/>
<line x1="172.000000" y1="350.000000" x2="192.000000" y2="350.000000"  style="stroke:black; stroke-linecap:round; stroke-width:0.25;"/>
<line x1="188.000000" y1="156.000000" x2="192.000000" y2="156.000000"  style="stroke:black; stroke-linecap:round; stroke-width:0.25;"/>
<line x1="192.000000" y1="156.000000" x2="200.000000" y2="156.000000"  style="stroke:black; stroke-linecap:round; stroke-width:0.25;"/>
<line x1="192.000000" y1="218.000000" x2="200.000000" y2="218.000000"  style="stroke:black; stroke-linecap:round; stroke-width:0.25;"/>
<line x1="192.000000" y1="350.000000" x2="192.000000" y2="218.000000"  style="stroke:black; stroke-linecap:round; stroke-width:0.25;"/>
<line x1="192.000000" y1="350.000000" x2="192.000000" y2="350.000000"  style="stroke:black; stroke-linecap:round; stroke-width:0.25;"/>
<line x1="200.000000" y1="156.000000" x2="200.000000" y2="210.000000"  style="stroke:black; stroke-linecap:round; stroke-width:0.25;"/>
<line x1="200.000000" y1="210.000000" x2="200.000000" y2="210.000000"  style="stroke:black; stroke-linecap:round; stroke-width:0.25;"/>
<line x1="200.000000" y1="210.000000" x2="204.000000" y2="210.000000"  style="stroke:black; stroke-linecap:round; stroke-width:0.25;"/>
<line x1="200.000000" y1="218.000000" x2="204.000000" y2="218.000000"  style="stroke:black; stroke-linecap:round; stroke-width:0.25;"/>
<line x1="228.000000" y1="214.000000" x2="232.000000" y2="214.000000"  style="stroke:black; stroke-linecap:round; stroke-width:0.25;"/>
<line x1="232.000000" y1="214.000000" x2="232.000000" y2="214.000000"  style="stroke:black; stroke-linecap:round; stroke-width:0.25;"/>
<line x1="232.000000" y1="214.000000" x2="236.000000" y2="214.000000"  style="stroke:black; stroke-linecap:round; stroke-width:0.25;"/>
<line x1="236.000000" y1="214.000000" x2="240.000000" y2="214.000000"  style="stroke:black; stroke-linecap:round; stroke-width:0.25;"/>
<line x1="240.000000" y1="214.000000" x2="250.000000" y2="214.000000"  style="stroke:black; stroke-linecap:round; stroke-width:0.25;"/>
</svg>
