<?xml version="1.0"?>
<svg xmlns="http://www.w3.org/2000/svg" xmlns:xlink="http://www.w3.org/1999/xlink" viewBox="0 0 1816.100000 80.000000" width="908.050000mm" height="40.000000mm" version="1.1">
<a xlink:href="freqEnv-0x7fb58cea7580.svg">
<rect x="1.000000" y="1.000000" width="1815.100000" height="79.000000" rx="0" ry="0" style="stroke:none;fill:#cccccc;"/>
<rect x="0.000000" y="0.000000" width="1815.100000" height="79.000000" rx="0" ry="0" style="stroke:none;fill:#ffffff;"/>
</a>
<text x="10.000000" y="7.000000" font-family="Arial" font-size="7"></text>
<a xlink:href="start-0x7fb58d029220.svg">
<rect x="33.000000" y="25.000000" width="51.600000" height="32.000000" rx="0" ry="0" style="stroke:none;fill:#cccccc;"/>
<rect x="32.000000" y="24.000000" width="51.600000" height="32.000000" rx="0" ry="0" style="stroke:none;fill:#003366;"/>
</a>
<a xlink:href="start-0x7fb58d029220.svg">
<text x="57.800000" y="42.000000" font-family="Arial" font-size="7" text-anchor="middle" fill="#FFFFFF">start(0)(0)</text>
</a>
<circle cx="34.000000" cy="26.000000" r="1"/>
<line x1="29.000000" y1="39.000000" x2="32.000000" y2="40.000000"  transform="rotate(0.000000,32.000000,40.000000)" style="stroke: black; stroke-width:0.25;"/>
<line x1="29.000000" y1="41.000000" x2="32.000000" y2="40.000000"  transform="rotate(0.000000,32.000000,40.000000)" style="stroke: black; stroke-width:0.25;"/>
<a xlink:href="point-0x7fb58cf88da0.svg">
<rect x="92.600000" y="25.000000" width="154.800000" height="32.000000" rx="0" ry="0" style="stroke:none;fill:#cccccc;"/>
<rect x="91.600000" y="24.000000" width="154.800000" height="32.000000" rx="0" ry="0" style="stroke:none;fill:#003366;"/>
</a>
<a xlink:href="point-0x7fb58cf88da0.svg">
<text x="169.000000" y="42.000000" font-family="Arial" font-size="7" text-anchor="middle" fill="#FFFFFF">point(((147.7...000 : /) : *)(1.0f)</text>
</a>
<circle cx="93.600000" cy="26.000000" r="1"/>
<line x1="88.600000" y1="27.000000" x2="91.600000" y2="28.000000"  transform="rotate(0.000000,91.600000,28.000000)" style="stroke: black; stroke-width:0.25;"/>
<line x1="88.600000" y1="29.000000" x2="91.600000" y2="28.000000"  transform="rotate(0.000000,91.600000,28.000000)" style="stroke: black; stroke-width:0.25;"/>
<line x1="88.600000" y1="35.000000" x2="91.600000" y2="36.000000"  transform="rotate(0.000000,91.600000,36.000000)" style="stroke: black; stroke-width:0.25;"/>
<line x1="88.600000" y1="37.000000" x2="91.600000" y2="36.000000"  transform="rotate(0.000000,91.600000,36.000000)" style="stroke: black; stroke-width:0.25;"/>
<line x1="88.600000" y1="43.000000" x2="91.600000" y2="44.000000"  transform="rotate(0.000000,91.600000,44.000000)" style="stroke: black; stroke-width:0.25;"/>
<line x1="88.600000" y1="45.000000" x2="91.600000" y2="44.000000"  transform="rotate(0.000000,91.600000,44.000000)" style="stroke: black; stroke-width:0.25;"/>
<line x1="88.600000" y1="51.000000" x2="91.600000" y2="52.000000"  transform="rotate(0.000000,91.600000,52.000000)" style="stroke: black; stroke-width:0.25;"/>
<line x1="88.600000" y1="53.000000" x2="91.600000" y2="52.000000"  transform="rotate(0.000000,91.600000,52.000000)" style="stroke: black; stroke-width:0.25;"/>
<a xlink:href="point-0x7fb58ce50cd0.svg">
<rect x="255.400000" y="25.000000" width="154.800000" height="32.000000" rx="0" ry="0" style="stroke:none;fill:#cccccc;"/>
<rect x="254.400000" y="24.000000" width="154.800000" height="32.000000" rx="0" ry="0" style="stroke:none;fill:#003366;"/>
</a>
<a xlink:href="point-0x7fb58ce50cd0.svg">
<text x="331.800000" y="42.000000" font-family="Arial" font-size="7" text-anchor="middle" fill="#FFFFFF">point(((193.2...000 : /) : *)(0.0f)</text>
</a>
<circle cx="256.400000" cy="26.000000" r="1"/>
<line x1="251.400000" y1="27.000000" x2="254.400000" y2="28.000000"  transform="rotate(0.000000,254.400000,28.000000)" style="stroke: black; stroke-width:0.25;"/>
<line x1="251.400000" y1="29.000000" x2="254.400000" y2="28.000000"  transform="rotate(0.000000,254.400000,28.000000)" style="stroke: black; stroke-width:0.25;"/>
<line x1="251.400000" y1="35.000000" x2="254.400000" y2="36.000000"  transform="rotate(0.000000,254.400000,36.000000)" style="stroke: black; stroke-width:0.25;"/>
<line x1="251.400000" y1="37.000000" x2="254.400000" y2="36.000000"  transform="rotate(0.000000,254.400000,36.000000)" style="stroke: black; stroke-width:0.25;"/>
<line x1="251.400000" y1="43.000000" x2="254.400000" y2="44.000000"  transform="rotate(0.000000,254.400000,44.000000)" style="stroke: black; stroke-width:0.25;"/>
<line x1="251.400000" y1="45.000000" x2="254.400000" y2="44.000000"  transform="rotate(0.000000,254.400000,44.000000)" style="stroke: black; stroke-width:0.25;"/>
<line x1="251.400000" y1="51.000000" x2="254.400000" y2="52.000000"  transform="rotate(0.000000,254.400000,52.000000)" style="stroke: black; stroke-width:0.25;"/>
<line x1="251.400000" y1="53.000000" x2="254.400000" y2="52.000000"  transform="rotate(0.000000,254.400000,52.000000)" style="stroke: black; stroke-width:0.25;"/>
<a xlink:href="point-0x7fb58cdcac40.svg">
<rect x="418.200000" y="25.000000" width="129.000000" height="32.000000" rx="0" ry="0" style="stroke:none;fill:#cccccc;"/>
<rect x="417.200000" y="24.000000" width="129.000000" height="32.000000" rx="0" ry="0" style="stroke:none;fill:#003366;"/>
</a>
<a xlink:href="point-0x7fb58cdcac40.svg">
<text x="481.700000" y="42.000000" font-family="Arial" font-size="7" text-anchor="middle" fill="#FFFFFF">point(((318.2...: _,1000 : /)</text>
</a>
<circle cx="419.200000" cy="26.000000" r="1"/>
<line x1="414.200000" y1="27.000000" x2="417.200000" y2="28.000000"  transform="rotate(0.000000,417.200000,28.000000)" style="stroke: black; stroke-width:0.25;"/>
<line x1="414.200000" y1="29.000000" x2="417.200000" y2="28.000000"  transform="rotate(0.000000,417.200000,28.000000)" style="stroke: black; stroke-width:0.25;"/>
<line x1="414.200000" y1="35.000000" x2="417.200000" y2="36.000000"  transform="rotate(0.000000,417.200000,36.000000)" style="stroke: black; stroke-width:0.25;"/>
<line x1="414.200000" y1="37.000000" x2="417.200000" y2="36.000000"  transform="rotate(0.000000,417.200000,36.000000)" style="stroke: black; stroke-width:0.25;"/>
<line x1="414.200000" y1="43.000000" x2="417.200000" y2="44.000000"  transform="rotate(0.000000,417.200000,44.000000)" style="stroke: black; stroke-width:0.25;"/>
<line x1="414.200000" y1="45.000000" x2="417.200000" y2="44.000000"  transform="rotate(0.000000,417.200000,44.000000)" style="stroke: black; stroke-width:0.25;"/>
<line x1="414.200000" y1="51.000000" x2="417.200000" y2="52.000000"  transform="rotate(0.000000,417.200000,52.000000)" style="stroke: black; stroke-width:0.25;"/>
<line x1="414.200000" y1="53.000000" x2="417.200000" y2="52.000000"  transform="rotate(0.000000,417.200000,52.000000)" style="stroke: black; stroke-width:0.25;"/>
<a xlink:href="point-0x7fb58ce65d00.svg">
<rect x="555.200000" y="25.000000" width="154.800000" height="32.000000" rx="0" ry="0" style="stroke:none;fill:#cccccc;"/>
<rect x="554.200000" y="24.000000" width="154.800000" height="32.000000" rx="0" ry="0" style="stroke:none;fill:#003366;"/>
</a>
<a xlink:href="point-0x7fb58ce65d00.svg">
<text x="631.600000" y="42.000000" font-family="Arial" font-size="7" text-anchor="middle" fill="#FFFFFF">point(((431.8...000 : /) : *)(0.0f)</text>
</a>
<circle cx="556.200000" cy="26.000000" r="1"/>
<line x1="551.200000" y1="27.000000" x2="554.200000" y2="28.000000"  transform="rotate(0.000000,554.200000,28.000000)" style="stroke: black; stroke-width:0.25;"/>
<line x1="551.200000" y1="29.000000" x2="554.200000" y2="28.000000"  transform="rotate(0.000000,554.200000,28.000000)" style="stroke: black; stroke-width:0.25;"/>
<line x1="551.200000" y1="35.000000" x2="554.200000" y2="36.000000"  transform="rotate(0.000000,554.200000,36.000000)" style="stroke: black; stroke-width:0.25;"/>
<line x1="551.200000" y1="37.000000" x2="554.200000" y2="36.000000"  transform="rotate(0.000000,554.200000,36.000000)" style="stroke: black; stroke-width:0.25;"/>
<line x1="551.200000" y1="43.000000" x2="554.200000" y2="44.000000"  transform="rotate(0.000000,554.200000,44.000000)" style="stroke: black; stroke-width:0.25;"/>
<line x1="551.200000" y1="45.000000" x2="554.200000" y2="44.000000"  transform="rotate(0.000000,554.200000,44.000000)" style="stroke: black; stroke-width:0.25;"/>
<line x1="551.200000" y1="51.000000" x2="554.200000" y2="52.000000"  transform="rotate(0.000000,554.200000,52.000000)" style="stroke: black; stroke-width:0.25;"/>
<line x1="551.200000" y1="53.000000" x2="554.200000" y2="52.000000"  transform="rotate(0.000000,554.200000,52.000000)" style="stroke: black; stroke-width:0.25;"/>
<a xlink:href="point-0x7fb58cfaa770.svg">
<rect x="718.000000" y="25.000000" width="167.700000" height="32.000000" rx="0" ry="0" style="stroke:none;fill:#cccccc;"/>
<rect x="717.000000" y="24.000000" width="167.700000" height="32.000000" rx="0" ry="0" style="stroke:none;fill:#003366;"/>
</a>
<a xlink:href="point-0x7fb58cfaa770.svg">
<text x="800.850000" y="42.000000" font-family="Arial" font-size="7" text-anchor="middle" fill="#FFFFFF">point(((488.7...000 : /) : *)(0.434f)</text>
</a>
<circle cx="719.000000" cy="26.000000" r="1"/>
<line x1="714.000000" y1="27.000000" x2="717.000000" y2="28.000000"  transform="rotate(0.000000,717.000000,28.000000)" style="stroke: black; stroke-width:0.25;"/>
<line x1="714.000000" y1="29.000000" x2="717.000000" y2="28.000000"  transform="rotate(0.000000,717.000000,28.000000)" style="stroke: black; stroke-width:0.25;"/>
<line x1="714.000000" y1="35.000000" x2="717.000000" y2="36.000000"  transform="rotate(0.000000,717.000000,36.000000)" style="stroke: black; stroke-width:0.25;"/>
<line x1="714.000000" y1="37.000000" x2="717.000000" y2="36.000000"  transform="rotate(0.000000,717.000000,36.000000)" style="stroke: black; stroke-width:0.25;"/>
<line x1="714.000000" y1="43.000000" x2="717.000000" y2="44.000000"  transform="rotate(0.000000,717.000000,44.000000)" style="stroke: black; stroke-width:0.25;"/>
<line x1="714.000000" y1="45.000000" x2="717.000000" y2="44.000000"  transform="rotate(0.000000,717.000000,44.000000)" style="stroke: black; stroke-width:0.25;"/>
<line x1="714.000000" y1="51.000000" x2="717.000000" y2="52.000000"  transform="rotate(0.000000,717.000000,52.000000)" style="stroke: black; stroke-width:0.25;"/>
<line x1="714.000000" y1="53.000000" x2="717.000000" y2="52.000000"  transform="rotate(0.000000,717.000000,52.000000)" style="stroke: black; stroke-width:0.25;"/>
<a xlink:href="point-0x7fb58cfbac50.svg">
<rect x="893.700000" y="25.000000" width="129.000000" height="32.000000" rx="0" ry="0" style="stroke:none;fill:#cccccc;"/>
<rect x="892.700000" y="24.000000" width="129.000000" height="32.000000" rx="0" ry="0" style="stroke:none;fill:#003366;"/>
</a>
<a xlink:href="point-0x7fb58cfbac50.svg">
<text x="957.200000" y="42.000000" font-family="Arial" font-size="7" text-anchor="middle" fill="#FFFFFF">point(((613.7...: _,1000 : /)</text>
</a>
<circle cx="894.700000" cy="26.000000" r="1"/>
<line x1="889.700000" y1="27.000000" x2="892.700000" y2="28.000000"  transform="rotate(0.000000,892.700000,28.000000)" style="stroke: black; stroke-width:0.25;"/>
<line x1="889.700000" y1="29.000000" x2="892.700000" y2="28.000000"  transform="rotate(0.000000,892.700000,28.000000)" style="stroke: black; stroke-width:0.25;"/>
<line x1="889.700000" y1="35.000000" x2="892.700000" y2="36.000000"  transform="rotate(0.000000,892.700000,36.000000)" style="stroke: black; stroke-width:0.25;"/>
<line x1="889.700000" y1="37.000000" x2="892.700000" y2="36.000000"  transform="rotate(0.000000,892.700000,36.000000)" style="stroke: black; stroke-width:0.25;"/>
<line x1="889.700000" y1="43.000000" x2="892.700000" y2="44.000000"  transform="rotate(0.000000,892.700000,44.000000)" style="stroke: black; stroke-width:0.25;"/>
<line x1="889.700000" y1="45.000000" x2="892.700000" y2="44.000000"  transform="rotate(0.000000,892.700000,44.000000)" style="stroke: black; stroke-width:0.25;"/>
<line x1="889.700000" y1="51.000000" x2="892.700000" y2="52.000000"  transform="rotate(0.000000,892.700000,52.000000)" style="stroke: black; stroke-width:0.25;"/>
<line x1="889.700000" y1="53.000000" x2="892.700000" y2="52.000000"  transform="rotate(0.000000,892.700000,52.000000)" style="stroke: black; stroke-width:0.25;"/>
<a xlink:href="point-0x7fb58ce7bca0.svg">
<rect x="1030.700000" y="25.000000" width="154.800000" height="32.000000" rx="0" ry="0" style="stroke:none;fill:#cccccc;"/>
<rect x="1029.700000" y="24.000000" width="154.800000" height="32.000000" rx="0" ry="0" style="stroke:none;fill:#003366;"/>
</a>
<a xlink:href="point-0x7fb58ce7bca0.svg">
<text x="1107.100000" y="42.000000" font-family="Arial" font-size="7" text-anchor="middle" fill="#FFFFFF">point(((659.1...000 : /) : *)(1.0f)</text>
</a>
<circle cx="1031.700000" cy="26.000000" r="1"/>
<line x1="1026.700000" y1="27.000000" x2="1029.700000" y2="28.000000"  transform="rotate(0.000000,1029.700000,28.000000)" style="stroke: black; stroke-width:0.25;"/>
<line x1="1026.700000" y1="29.000000" x2="1029.700000" y2="28.000000"  transform="rotate(0.000000,1029.700000,28.000000)" style="stroke: black; stroke-width:0.25;"/>
<line x1="1026.700000" y1="35.000000" x2="1029.700000" y2="36.000000"  transform="rotate(0.000000,1029.700000,36.000000)" style="stroke: black; stroke-width:0.25;"/>
<line x1="1026.700000" y1="37.000000" x2="1029.700000" y2="36.000000"  transform="rotate(0.000000,1029.700000,36.000000)" style="stroke: black; stroke-width:0.25;"/>
<line x1="1026.700000" y1="43.000000" x2="1029.700000" y2="44.000000"  transform="rotate(0.000000,1029.700000,44.000000)" style="stroke: black; stroke-width:0.25;"/>
<line x1="1026.700000" y1="45.000000" x2="1029.700000" y2="44.000000"  transform="rotate(0.000000,1029.700000,44.000000)" style="stroke: black; stroke-width:0.25;"/>
<line x1="1026.700000" y1="51.000000" x2="1029.700000" y2="52.000000"  transform="rotate(0.000000,1029.700000,52.000000)" style="stroke: black; stroke-width:0.25;"/>
<line x1="1026.700000" y1="53.000000" x2="1029.700000" y2="52.000000"  transform="rotate(0.000000,1029.700000,52.000000)" style="stroke: black; stroke-width:0.25;"/>
<a xlink:href="point-0x7fb58d117ed0.svg">
<rect x="1193.500000" y="25.000000" width="129.000000" height="32.000000" rx="0" ry="0" style="stroke:none;fill:#cccccc;"/>
<rect x="1192.500000" y="24.000000" width="129.000000" height="32.000000" rx="0" ry="0" style="stroke:none;fill:#003366;"/>
</a>
<a xlink:href="point-0x7fb58d117ed0.svg">
<text x="1257.000000" y="42.000000" font-family="Arial" font-size="7" text-anchor="middle" fill="#FFFFFF">point(((716.0...: _,1000 : /)</text>
</a>
<circle cx="1194.500000" cy="26.000000" r="1"/>
<line x1="1189.500000" y1="27.000000" x2="1192.500000" y2="28.000000"  transform="rotate(0.000000,1192.500000,28.000000)" style="stroke: black; stroke-width:0.25;"/>
<line x1="1189.500000" y1="29.000000" x2="1192.500000" y2="28.000000"  transform="rotate(0.000000,1192.500000,28.000000)" style="stroke: black; stroke-width:0.25;"/>
<line x1="1189.500000" y1="35.000000" x2="1192.500000" y2="36.000000"  transform="rotate(0.000000,1192.500000,36.000000)" style="stroke: black; stroke-width:0.25;"/>
<line x1="1189.500000" y1="37.000000" x2="1192.500000" y2="36.000000"  transform="rotate(0.000000,1192.500000,36.000000)" style="stroke: black; stroke-width:0.25;"/>
<line x1="1189.500000" y1="43.000000" x2="1192.500000" y2="44.000000"  transform="rotate(0.000000,1192.500000,44.000000)" style="stroke: black; stroke-width:0.25;"/>
<line x1="1189.500000" y1="45.000000" x2="1192.500000" y2="44.000000"  transform="rotate(0.000000,1192.500000,44.000000)" style="stroke: black; stroke-width:0.25;"/>
<line x1="1189.500000" y1="51.000000" x2="1192.500000" y2="52.000000"  transform="rotate(0.000000,1192.500000,52.000000)" style="stroke: black; stroke-width:0.25;"/>
<line x1="1189.500000" y1="53.000000" x2="1192.500000" y2="52.000000"  transform="rotate(0.000000,1192.500000,52.000000)" style="stroke: black; stroke-width:0.25;"/>
<a xlink:href="point-0x7fb58d0893e0.svg">
<rect x="1330.500000" y="25.000000" width="154.800000" height="32.000000" rx="0" ry="0" style="stroke:none;fill:#cccccc;"/>
<rect x="1329.500000" y="24.000000" width="154.800000" height="32.000000" rx="0" ry="0" style="stroke:none;fill:#003366;"/>
</a>
<a xlink:href="point-0x7fb58d0893e0.svg">
<text x="1406.900000" y="42.000000" font-family="Arial" font-size="7" text-anchor="middle" fill="#FFFFFF">point(((806.9...000 : /) : *)(1.0f)</text>
</a>
<circle cx="1331.500000" cy="26.000000" r="1"/>
<line x1="1326.500000" y1="27.000000" x2="1329.500000" y2="28.000000"  transform="rotate(0.000000,1329.500000,28.000000)" style="stroke: black; stroke-width:0.25;"/>
<line x1="1326.500000" y1="29.000000" x2="1329.500000" y2="28.000000"  transform="rotate(0.000000,1329.500000,28.000000)" style="stroke: black; stroke-width:0.25;"/>
<line x1="1326.500000" y1="35.000000" x2="1329.500000" y2="36.000000"  transform="rotate(0.000000,1329.500000,36.000000)" style="stroke: black; stroke-width:0.25;"/>
<line x1="1326.500000" y1="37.000000" x2="1329.500000" y2="36.000000"  transform="rotate(0.000000,1329.500000,36.000000)" style="stroke: black; stroke-width:0.25;"/>
<line x1="1326.500000" y1="43.000000" x2="1329.500000" y2="44.000000"  transform="rotate(0.000000,1329.500000,44.000000)" style="stroke: black; stroke-width:0.25;"/>
<line x1="1326.500000" y1="45.000000" x2="1329.500000" y2="44.000000"  transform="rotate(0.000000,1329.500000,44.000000)" style="stroke: black; stroke-width:0.25;"/>
<line x1="1326.500000" y1="51.000000" x2="1329.500000" y2="52.000000"  transform="rotate(0.000000,1329.500000,52.000000)" style="stroke: black; stroke-width:0.25;"/>
<line x1="1326.500000" y1="53.000000" x2="1329.500000" y2="52.000000"  transform="rotate(0.000000,1329.500000,52.000000)" style="stroke: black; stroke-width:0.25;"/>
<a xlink:href="point-0x7fb58d1212c0.svg">
<rect x="1493.300000" y="25.000000" width="129.000000" height="32.000000" rx="0" ry="0" style="stroke:none;fill:#cccccc;"/>
<rect x="1492.300000" y="24.000000" width="129.000000" height="32.000000" rx="0" ry="0" style="stroke:none;fill:#003366;"/>
</a>
<a xlink:href="point-0x7fb58d1212c0.svg">
<text x="1556.800000" y="42.000000" font-family="Arial" font-size="7" text-anchor="middle" fill="#FFFFFF">point(((829.6...: _,1000 : /)</text>
</a>
<circle cx="1494.300000" cy="26.000000" r="1"/>
<line x1="1489.300000" y1="27.000000" x2="1492.300000" y2="28.000000"  transform="rotate(0.000000,1492.300000,28.000000)" style="stroke: black; stroke-width:0.25;"/>
<line x1="1489.300000" y1="29.000000" x2="1492.300000" y2="28.000000"  transform="rotate(0.000000,1492.300000,28.000000)" style="stroke: black; stroke-width:0.25;"/>
<line x1="1489.300000" y1="35.000000" x2="1492.300000" y2="36.000000"  transform="rotate(0.000000,1492.300000,36.000000)" style="stroke: black; stroke-width:0.25;"/>
<line x1="1489.300000" y1="37.000000" x2="1492.300000" y2="36.000000"  transform="rotate(0.000000,1492.300000,36.000000)" style="stroke: black; stroke-width:0.25;"/>
<line x1="1489.300000" y1="43.000000" x2="1492.300000" y2="44.000000"  transform="rotate(0.000000,1492.300000,44.000000)" style="stroke: black; stroke-width:0.25;"/>
<line x1="1489.300000" y1="45.000000" x2="1492.300000" y2="44.000000"  transform="rotate(0.000000,1492.300000,44.000000)" style="stroke: black; stroke-width:0.25;"/>
<line x1="1489.300000" y1="51.000000" x2="1492.300000" y2="52.000000"  transform="rotate(0.000000,1492.300000,52.000000)" style="stroke: black; stroke-width:0.25;"/>
<line x1="1489.300000" y1="53.000000" x2="1492.300000" y2="52.000000"  transform="rotate(0.000000,1492.300000,52.000000)" style="stroke: black; stroke-width:0.25;"/>
<a xlink:href="end-0x7fb58cea6ae0.svg">
<rect x="1630.300000" y="25.000000" width="154.800000" height="32.000000" rx="0" ry="0" style="stroke:none;fill:#cccccc;"/>
<rect x="1629.300000" y="24.000000" width="154.800000" height="32.000000" rx="0" ry="0" style="stroke:none;fill:#003366;"/>
</a>
<a xlink:href="end-0x7fb58cea6ae0.svg">
<text x="1706.700000" y="42.000000" font-family="Arial" font-size="7" text-anchor="middle" fill="#FFFFFF">end(((943.333...000 : /) : *)(0.0f)</text>
</a>
<circle cx="1631.300000" cy="26.000000" r="1"/>
<line x1="1626.300000" y1="27.000000" x2="1629.300000" y2="28.000000"  transform="rotate(0.000000,1629.300000,28.000000)" style="stroke: black; stroke-width:0.25;"/>
<line x1="1626.300000" y1="29.000000" x2="1629.300000" y2="28.000000"  transform="rotate(0.000000,1629.300000,28.000000)" style="stroke: black; stroke-width:0.25;"/>
<line x1="1626.300000" y1="35.000000" x2="1629.300000" y2="36.000000"  transform="rotate(0.000000,1629.300000,36.000000)" style="stroke: black; stroke-width:0.25;"/>
<line x1="1626.300000" y1="37.000000" x2="1629.300000" y2="36.000000"  transform="rotate(0.000000,1629.300000,36.000000)" style="stroke: black; stroke-width:0.25;"/>
<line x1="1626.300000" y1="43.000000" x2="1629.300000" y2="44.000000"  transform="rotate(0.000000,1629.300000,44.000000)" style="stroke: black; stroke-width:0.25;"/>
<line x1="1626.300000" y1="45.000000" x2="1629.300000" y2="44.000000"  transform="rotate(0.000000,1629.300000,44.000000)" style="stroke: black; stroke-width:0.25;"/>
<line x1="1626.300000" y1="51.000000" x2="1629.300000" y2="52.000000"  transform="rotate(0.000000,1629.300000,52.000000)" style="stroke: black; stroke-width:0.25;"/>
<line x1="1626.300000" y1="53.000000" x2="1629.300000" y2="52.000000"  transform="rotate(0.000000,1629.300000,52.000000)" style="stroke: black; stroke-width:0.25;"/>
<line x1="15.000000" y1="15.000000" x2="15.000000" y2="65.000000"  style="stroke: black; stroke-linecap:round; stroke-width:0.25; stroke-dasharray:3,3;"/>
<line x1="15.000000" y1="65.000000" x2="1801.100000" y2="65.000000"  style="stroke: black; stroke-linecap:round; stroke-width:0.25; stroke-dasharray:3,3;"/>
<line x1="1801.100000" y1="65.000000" x2="1801.100000" y2="15.000000"  style="stroke: black; stroke-linecap:round; stroke-width:0.25; stroke-dasharray:3,3;"/>
<line x1="15.000000" y1="15.000000" x2="20.000000" y2="15.000000"  style="stroke: black; stroke-linecap:round; stroke-width:0.25; stroke-dasharray:3,3;"/>
<line x1="58.700000" y1="15.000000" x2="1801.100000" y2="15.000000"  style="stroke: black; stroke-linecap:round; stroke-width:0.25; stroke-dasharray:3,3;"/>
<text x="20.000000" y="17.000000" font-family="Arial" font-size="7">freqEnvbpf</text>
<line x1="1803.100000" y1="39.000000" x2="1806.100000" y2="40.000000"  transform="rotate(0.000000,1806.100000,40.000000)" style="stroke: black; stroke-width:0.25;"/>
<line x1="1803.100000" y1="41.000000" x2="1806.100000" y2="40.000000"  transform="rotate(0.000000,1806.100000,40.000000)" style="stroke: black; stroke-width:0.25;"/>
<line x1="10.000000" y1="40.000000" x2="20.000000" y2="40.000000"  style="stroke:black; stroke-linecap:round; stroke-width:0.25;"/>
<line x1="20.000000" y1="40.000000" x2="24.000000" y2="40.000000"  style="stroke:black; stroke-linecap:round; stroke-width:0.25;"/>
<line x1="24.000000" y1="40.000000" x2="28.000000" y2="40.000000"  style="stroke:black; stroke-linecap:round; stroke-width:0.25;"/>
<line x1="28.000000" y1="40.000000" x2="28.000000" y2="40.000000"  style="stroke:black; stroke-linecap:round; stroke-width:0.25;"/>
<line x1="28.000000" y1="40.000000" x2="32.000000" y2="40.000000"  style="stroke:black; stroke-linecap:round; stroke-width:0.25;"/>
<line x1="83.600000" y1="28.000000" x2="87.600000" y2="28.000000"  style="stroke:black; stroke-linecap:round; stroke-width:0.25;"/>
<line x1="83.600000" y1="36.000000" x2="87.600000" y2="36.000000"  style="stroke:black; stroke-linecap:round; stroke-width:0.25;"/>
<line x1="83.600000" y1="44.000000" x2="87.600000" y2="44.000000"  style="stroke:black; stroke-linecap:round; stroke-width:0.25;"/>
<line x1="83.600000" y1="52.000000" x2="87.600000" y2="52.000000"  style="stroke:black; stroke-linecap:round; stroke-width:0.25;"/>
<line x1="87.600000" y1="28.000000" x2="87.600000" y2="28.000000"  style="stroke:black; stroke-linecap:round; stroke-width:0.25;"/>
<line x1="87.600000" y1="28.000000" x2="91.600000" y2="28.000000"  style="stroke:black; stroke-linecap:round; stroke-width:0.25;"/>
<line x1="87.600000" y1="36.000000" x2="87.600000" y2="36.000000"  style="stroke:black; stroke-linecap:round; stroke-width:0.25;"/>
<line x1="87.600000" y1="36.000000" x2="91.600000" y2="36.000000"  style="stroke:black; stroke-linecap:round; stroke-width:0.25;"/>
<line x1="87.600000" y1="44.000000" x2="87.600000" y2="44.000000"  style="stroke:black; stroke-linecap:round; stroke-width:0.25;"/>
<line x1="87.600000" y1="44.000000" x2="91.600000" y2="44.000000"  style="stroke:black; stroke-linecap:round; stroke-width:0.25;"/>
<line x1="87.600000" y1="52.000000" x2="87.600000" y2="52.000000"  style="stroke:black; stroke-linecap:round; stroke-width:0.25;"/>
<line x1="87.600000" y1="52.000000" x2="91.600000" y2="52.000000"  style="stroke:black; stroke-linecap:round; stroke-width:0.25;"/>
<line x1="246.400000" y1="28.000000" x2="250.400000" y2="28.000000"  style="stroke:black; stroke-linecap:round; stroke-width:0.25;"/>
<line x1="246.400000" y1="36.000000" x2="250.400000" y2="36.000000"  style="stroke:black; stroke-linecap:round; stroke-width:0.25;"/>
<line x1="246.400000" y1="44.000000" x2="250.400000" y2="44.000000"  style="stroke:black; stroke-linecap:round; stroke-width:0.25;"/>
<line x1="246.400000" y1="52.000000" x2="250.400000" y2="52.000000"  style="stroke:black; stroke-linecap:round; stroke-width:0.25;"/>
<line x1="250.400000" y1="28.000000" x2="250.400000" y2="28.000000"  style="stroke:black; stroke-linecap:round; stroke-width:0.25;"/>
<line x1="250.400000" y1="28.000000" x2="254.400000" y2="28.000000"  style="stroke:black; stroke-linecap:round; stroke-width:0.25;"/>
<line x1="250.400000" y1="36.000000" x2="250.400000" y2="36.000000"  style="stroke:black; stroke-linecap:round; stroke-width:0.25;"/>
<line x1="250.400000" y1="36.000000" x2="254.400000" y2="36.000000"  style="stroke:black; stroke-linecap:round; stroke-width:0.25;"/>
<line x1="250.400000" y1="44.000000" x2="250.400000" y2="44.000000"  style="stroke:black; stroke-linecap:round; stroke-width:0.25;"/>
<line x1="250.400000" y1="44.000000" x2="254.400000" y2="44.000000"  style="stroke:black; stroke-linecap:round; stroke-width:0.25;"/>
<line x1="250.400000" y1="52.000000" x2="250.400000" y2="52.000000"  style="stroke:black; stroke-linecap:round; stroke-width:0.25;"/>
<line x1="250.400000" y1="52.000000" x2="254.400000" y2="52.000000"  style="stroke:black; stroke-linecap:round; stroke-width:0.25;"/>
<line x1="409.200000" y1="28.000000" x2="413.200000" y2="28.000000"  style="stroke:black; stroke-linecap:round; stroke-width:0.25;"/>
<line x1="409.200000" y1="36.000000" x2="413.200000" y2="36.000000"  style="stroke:black; stroke-linecap:round; stroke-width:0.25;"/>
<line x1="409.200000" y1="44.000000" x2="413.200000" y2="44.000000"  style="stroke:black; stroke-linecap:round; stroke-width:0.25;"/>
<line x1="409.200000" y1="52.000000" x2="413.200000" y2="52.000000"  style="stroke:black; stroke-linecap:round; stroke-width:0.25;"/>
<line x1="413.200000" y1="28.000000" x2="413.200000" y2="28.000000"  style="stroke:black; stroke-linecap:round; stroke-width:0.25;"/>
<line x1="413.200000" y1="28.000000" x2="417.200000" y2="28.000000"  style="stroke:black; stroke-linecap:round; stroke-width:0.25;"/>
<line x1="413.200000" y1="36.000000" x2="413.200000" y2="36.000000"  style="stroke:black; stroke-linecap:round; stroke-width:0.25;"/>
<line x1="413.200000" y1="36.000000" x2="417.200000" y2="36.000000"  style="stroke:black; stroke-linecap:round; stroke-width:0.25;"/>
<line x1="413.200000" y1="44.000000" x2="413.200000" y2="44.000000"  style="stroke:black; stroke-linecap:round; stroke-width:0.25;"/>
<line x1="413.200000" y1="44.000000" x2="417.200000" y2="44.000000"  style="stroke:black; stroke-linecap:round; stroke-width:0.25;"/>
<line x1="413.200000" y1="52.000000" x2="413.200000" y2="52.000000"  style="stroke:black; stroke-linecap:round; stroke-width:0.25;"/>
<line x1="413.200000" y1="52.000000" x2="417.200000" y2="52.000000"  style="stroke:black; stroke-linecap:round; stroke-width:0.25;"/>
<line x1="546.200000" y1="28.000000" x2="550.200000" y2="28.000000"  style="stroke:black; stroke-linecap:round; stroke-width:0.25;"/>
<line x1="546.200000" y1="36.000000" x2="550.200000" y2="36.000000"  style="stroke:black; stroke-linecap:round; stroke-width:0.25;"/>
<line x1="546.200000" y1="44.000000" x2="550.200000" y2="44.000000"  style="stroke:black; stroke-linecap:round; stroke-width:0.25;"/>
<line x1="546.200000" y1="52.000000" x2="550.200000" y2="52.000000"  style="stroke:black; stroke-linecap:round; stroke-width:0.25;"/>
<line x1="550.200000" y1="28.000000" x2="550.200000" y2="28.000000"  style="stroke:black; stroke-linecap:round; stroke-width:0.25;"/>
<line x1="550.200000" y1="28.000000" x2="554.200000" y2="28.000000"  style="stroke:black; stroke-linecap:round; stroke-width:0.25;"/>
<line x1="550.200000" y1="36.000000" x2="550.200000" y2="36.000000"  style="stroke:black; stroke-linecap:round; stroke-width:0.25;"/>
<line x1="550.200000" y1="36.000000" x2="554.200000" y2="36.000000"  style="stroke:black; stroke-linecap:round; stroke-width:0.25;"/>
<line x1="550.200000" y1="44.000000" x2="550.200000" y2="44.000000"  style="stroke:black; stroke-linecap:round; stroke-width:0.25;"/>
<line x1="550.200000" y1="44.000000" x2="554.200000" y2="44.000000"  style="stroke:black; stroke-linecap:round; stroke-width:0.25;"/>
<line x1="550.200000" y1="52.000000" x2="550.200000" y2="52.000000"  style="stroke:black; stroke-linecap:round; stroke-width:0.25;"/>
<line x1="550.200000" y1="52.000000" x2="554.200000" y2="52.000000"  style="stroke:black; stroke-linecap:round; stroke-width:0.25;"/>
<line x1="709.000000" y1="28.000000" x2="713.000000" y2="28.000000"  style="stroke:black; stroke-linecap:round; stroke-width:0.25;"/>
<line x1="709.000000" y1="36.000000" x2="713.000000" y2="36.000000"  style="stroke:black; stroke-linecap:round; stroke-width:0.25;"/>
<line x1="709.000000" y1="44.000000" x2="713.000000" y2="44.000000"  style="stroke:black; stroke-linecap:round; stroke-width:0.25;"/>
<line x1="709.000000" y1="52.000000" x2="713.000000" y2="52.000000"  style="stroke:black; stroke-linecap:round; stroke-width:0.25;"/>
<line x1="713.000000" y1="28.000000" x2="713.000000" y2="28.000000"  style="stroke:black; stroke-linecap:round; stroke-width:0.25;"/>
<line x1="713.000000" y1="28.000000" x2="717.000000" y2="28.000000"  style="stroke:black; stroke-linecap:round; stroke-width:0.25;"/>
<line x1="713.000000" y1="36.000000" x2="713.000000" y2="36.000000"  style="stroke:black; stroke-linecap:round; stroke-width:0.25;"/>
<line x1="713.000000" y1="36.000000" x2="717.000000" y2="36.000000"  style="stroke:black; stroke-linecap:round; stroke-width:0.25;"/>
<line x1="713.000000" y1="44.000000" x2="713.000000" y2="44.000000"  style="stroke:black; stroke-linecap:round; stroke-width:0.25;"/>
<line x1="713.000000" y1="44.000000" x2="717.000000" y2="44.000000"  style="stroke:black; stroke-linecap:round; stroke-width:0.25;"/>
<line x1="713.000000" y1="52.000000" x2="713.000000" y2="52.000000"  style="stroke:black; stroke-linecap:round; stroke-width:0.25;"/>
<line x1="713.000000" y1="52.000000" x2="717.000000" y2="52.000000"  style="stroke:black; stroke-linecap:round; stroke-width:0.25;"/>
<line x1="884.700000" y1="28.000000" x2="888.700000" y2="28.000000"  style="stroke:black; stroke-linecap:round; stroke-width:0.25;"/>
<line x1="884.700000" y1="36.000000" x2="888.700000" y2="36.000000"  style="stroke:black; stroke-linecap:round; stroke-width:0.25;"/>
<line x1="884.700000" y1="44.000000" x2="888.700000" y2="44.000000"  style="stroke:black; stroke-linecap:round; stroke-width:0.25;"/>
<line x1="884.700000" y1="52.000000" x2="888.700000" y2="52.000000"  style="stroke:black; stroke-linecap:round; stroke-width:0.25;"/>
<line x1="888.700000" y1="28.000000" x2="888.700000" y2="28.000000"  style="stroke:black; stroke-linecap:round; stroke-width:0.25;"/>
<line x1="888.700000" y1="28.000000" x2="892.700000" y2="28.000000"  style="stroke:black; stroke-linecap:round; stroke-width:0.25;"/>
<line x1="888.700000" y1="36.000000" x2="888.700000" y2="36.000000"  style="stroke:black; stroke-linecap:round; stroke-width:0.25;"/>
<line x1="888.700000" y1="36.000000" x2="892.700000" y2="36.000000"  style="stroke:black; stroke-linecap:round; stroke-width:0.25;"/>
<line x1="888.700000" y1="44.000000" x2="888.700000" y2="44.000000"  style="stroke:black; stroke-linecap:round; stroke-width:0.25;"/>
<line x1="888.700000" y1="44.000000" x2="892.700000" y2="44.000000"  style="stroke:black; stroke-linecap:round; stroke-width:0.25;"/>
<line x1="888.700000" y1="52.000000" x2="888.700000" y2="52.000000"  style="stroke:black; stroke-linecap:round; stroke-width:0.25;"/>
<line x1="888.700000" y1="52.000000" x2="892.700000" y2="52.000000"  style="stroke:black; stroke-linecap:round; stroke-width:0.25;"/>
<line x1="1021.700000" y1="28.000000" x2="1025.700000" y2="28.000000"  style="stroke:black; stroke-linecap:round; stroke-width:0.25;"/>
<line x1="1021.700000" y1="36.000000" x2="1025.700000" y2="36.000000"  style="stroke:black; stroke-linecap:round; stroke-width:0.25;"/>
<line x1="1021.700000" y1="44.000000" x2="1025.700000" y2="44.000000"  style="stroke:black; stroke-linecap:round; stroke-width:0.25;"/>
<line x1="1021.700000" y1="52.000000" x2="1025.700000" y2="52.000000"  style="stroke:black; stroke-linecap:round; stroke-width:0.25;"/>
<line x1="1025.700000" y1="28.000000" x2="1025.700000" y2="28.000000"  style="stroke:black; stroke-linecap:round; stroke-width:0.25;"/>
<line x1="1025.700000" y1="28.000000" x2="1029.700000" y2="28.000000"  style="stroke:black; stroke-linecap:round; stroke-width:0.25;"/>
<line x1="1025.700000" y1="36.000000" x2="1025.700000" y2="36.000000"  style="stroke:black; stroke-linecap:round; stroke-width:0.25;"/>
<line x1="1025.700000" y1="36.000000" x2="1029.700000" y2="36.000000"  style="stroke:black; stroke-linecap:round; stroke-width:0.25;"/>
<line x1="1025.700000" y1="44.000000" x2="1025.700000" y2="44.000000"  style="stroke:black; stroke-linecap:round; stroke-width:0.25;"/>
<line x1="1025.700000" y1="44.000000" x2="1029.700000" y2="44.000000"  style="stroke:black; stroke-linecap:round; stroke-width:0.25;"/>
<line x1="1025.700000" y1="52.000000" x2="1025.700000" y2="52.000000"  style="stroke:black; stroke-linecap:round; stroke-width:0.25;"/>
<line x1="1025.700000" y1="52.000000" x2="1029.700000" y2="52.000000"  style="stroke:black; stroke-linecap:round; stroke-width:0.25;"/>
<line x1="1184.500000" y1="28.000000" x2="1188.500000" y2="28.000000"  style="stroke:black; stroke-linecap:round; stroke-width:0.25;"/>
<line x1="1184.500000" y1="36.000000" x2="1188.500000" y2="36.000000"  style="stroke:black; stroke-linecap:round; stroke-width:0.25;"/>
<line x1="1184.500000" y1="44.000000" x2="1188.500000" y2="44.000000"  style="stroke:black; stroke-linecap:round; stroke-width:0.25;"/>
<line x1="1184.500000" y1="52.000000" x2="1188.500000" y2="52.000000"  style="stroke:black; stroke-linecap:round; stroke-width:0.25;"/>
<line x1="1188.500000" y1="28.000000" x2="1188.500000" y2="28.000000"  style="stroke:black; stroke-linecap:round; stroke-width:0.25;"/>
<line x1="1188.500000" y1="28.000000" x2="1192.500000" y2="28.000000"  style="stroke:black; stroke-linecap:round; stroke-width:0.25;"/>
<line x1="1188.500000" y1="36.000000" x2="1188.500000" y2="36.000000"  style="stroke:black; stroke-linecap:round; stroke-width:0.25;"/>
<line x1="1188.500000" y1="36.000000" x2="1192.500000" y2="36.000000"  style="stroke:black; stroke-linecap:round; stroke-width:0.25;"/>
<line x1="1188.500000" y1="44.000000" x2="1188.500000" y2="44.000000"  style="stroke:black; stroke-linecap:round; stroke-width:0.25;"/>
<line x1="1188.500000" y1="44.000000" x2="1192.500000" y2="44.000000"  style="stroke:black; stroke-linecap:round; stroke-width:0.25;"/>
<line x1="1188.500000" y1="52.000000" x2="1188.500000" y2="52.000000"  style="stroke:black; stroke-linecap:round; stroke-width:0.25;"/>
<line x1="1188.500000" y1="52.000000" x2="1192.500000" y2="52.000000"  style="stroke:black; stroke-linecap:round; stroke-width:0.25;"/>
<line x1="1321.500000" y1="28.000000" x2="1325.500000" y2="28.000000"  style="stroke:black; stroke-linecap:round; stroke-width:0.25;"/>
<line x1="1321.500000" y1="36.000000" x2="1325.500000" y2="36.000000"  style="stroke:black; stroke-linecap:round; stroke-width:0.25;"/>
<line x1="1321.500000" y1="44.000000" x2="1325.500000" y2="44.000000"  style="stroke:black; stroke-linecap:round; stroke-width:0.25;"/>
<line x1="1321.500000" y1="52.000000" x2="1325.500000" y2="52.000000"  style="stroke:black; stroke-linecap:round; stroke-width:0.25;"/>
<line x1="1325.500000" y1="28.000000" x2="1325.500000" y2="28.000000"  style="stroke:black; stroke-linecap:round; stroke-width:0.25;"/>
<line x1="1325.500000" y1="28.000000" x2="1329.500000" y2="28.000000"  style="stroke:black; stroke-linecap:round; stroke-width:0.25;"/>
<line x1="1325.500000" y1="36.000000" x2="1325.500000" y2="36.000000"  style="stroke:black; stroke-linecap:round; stroke-width:0.25;"/>
<line x1="1325.500000" y1="36.000000" x2="1329.500000" y2="36.000000"  style="stroke:black; stroke-linecap:round; stroke-width:0.25;"/>
<line x1="1325.500000" y1="44.000000" x2="1325.500000" y2="44.000000"  style="stroke:black; stroke-linecap:round; stroke-width:0.25;"/>
<line x1="1325.500000" y1="44.000000" x2="1329.500000" y2="44.000000"  style="stroke:black; stroke-linecap:round; stroke-width:0.25;"/>
<line x1="1325.500000" y1="52.000000" x2="1325.500000" y2="52.000000"  style="stroke:black; stroke-linecap:round; stroke-width:0.25;"/>
<line x1="1325.500000" y1="52.000000" x2="1329.500000" y2="52.000000"  style="stroke:black; stroke-linecap:round; stroke-width:0.25;"/>
<line x1="1484.300000" y1="28.000000" x2="1488.300000" y2="28.000000"  style="stroke:black; stroke-linecap:round; stroke-width:0.25;"/>
<line x1="1484.300000" y1="36.000000" x2="1488.300000" y2="36.000000"  style="stroke:black; stroke-linecap:round; stroke-width:0.25;"/>
<line x1="1484.300000" y1="44.000000" x2="1488.300000" y2="44.000000"  style="stroke:black; stroke-linecap:round; stroke-width:0.25;"/>
<line x1="1484.300000" y1="52.000000" x2="1488.300000" y2="52.000000"  style="stroke:black; stroke-linecap:round; stroke-width:0.25;"/>
<line x1="1488.300000" y1="28.000000" x2="1488.300000" y2="28.000000"  style="stroke:black; stroke-linecap:round; stroke-width:0.25;"/>
<line x1="1488.300000" y1="28.000000" x2="1492.300000" y2="28.000000"  style="stroke:black; stroke-linecap:round; stroke-width:0.25;"/>
<line x1="1488.300000" y1="36.000000" x2="1488.300000" y2="36.000000"  style="stroke:black; stroke-linecap:round; stroke-width:0.25;"/>
<line x1="1488.300000" y1="36.000000" x2="1492.300000" y2="36.000000"  style="stroke:black; stroke-linecap:round; stroke-width:0.25;"/>
<line x1="1488.300000" y1="44.000000" x2="1488.300000" y2="44.000000"  style="stroke:black; stroke-linecap:round; stroke-width:0.25;"/>
<line x1="1488.300000" y1="44.000000" x2="1492.300000" y2="44.000000"  style="stroke:black; stroke-linecap:round; stroke-width:0.25;"/>
<line x1="1488.300000" y1="52.000000" x2="1488.300000" y2="52.000000"  style="stroke:black; stroke-linecap:round; stroke-width:0.25;"/>
<line x1="1488.300000" y1="52.000000" x2="1492.300000" y2="52.000000"  style="stroke:black; stroke-linecap:round; stroke-width:0.25;"/>
<line x1="1621.300000" y1="28.000000" x2="1625.300000" y2="28.000000"  style="stroke:black; stroke-linecap:round; stroke-width:0.25;"/>
<line x1="1621.300000" y1="36.000000" x2="1625.300000" y2="36.000000"  style="stroke:black; stroke-linecap:round; stroke-width:0.25;"/>
<line x1="1621.300000" y1="44.000000" x2="1625.300000" y2="44.000000"  style="stroke:black; stroke-linecap:round; stroke-width:0.25;"/>
<line x1="1621.300000" y1="52.000000" x2="1625.300000" y2="52.000000"  style="stroke:black; stroke-linecap:round; stroke-width:0.25;"/>
<line x1="1625.300000" y1="28.000000" x2="1625.300000" y2="28.000000"  style="stroke:black; stroke-linecap:round; stroke-width:0.25;"/>
<line x1="1625.300000" y1="28.000000" x2="1629.300000" y2="28.000000"  style="stroke:black; stroke-linecap:round; stroke-width:0.25;"/>
<line x1="1625.300000" y1="36.000000" x2="1625.300000" y2="36.000000"  style="stroke:black; stroke-linecap:round; stroke-width:0.25;"/>
<line x1="1625.300000" y1="36.000000" x2="1629.300000" y2="36.000000"  style="stroke:black; stroke-linecap:round; stroke-width:0.25;"/>
<line x1="1625.300000" y1="44.000000" x2="1625.300000" y2="44.000000"  style="stroke:black; stroke-linecap:round; stroke-width:0.25;"/>
<line x1="1625.300000" y1="44.000000" x2="1629.300000" y2="44.000000"  style="stroke:black; stroke-linecap:round; stroke-width:0.25;"/>
<line x1="1625.300000" y1="52.000000" x2="1625.300000" y2="52.000000"  style="stroke:black; stroke-linecap:round; stroke-width:0.25;"/>
<line x1="1625.300000" y1="52.000000" x2="1629.300000" y2="52.000000"  style="stroke:black; stroke-linecap:round; stroke-width:0.25;"/>
<line x1="1784.100000" y1="40.000000" x2="1788.100000" y2="40.000000"  style="stroke:black; stroke-linecap:round; stroke-width:0.25;"/>
<line x1="1788.100000" y1="40.000000" x2="1788.100000" y2="40.000000"  style="stroke:black; stroke-linecap:round; stroke-width:0.25;"/>
<line x1="1788.100000" y1="40.000000" x2="1792.100000" y2="40.000000"  style="stroke:black; stroke-linecap:round; stroke-width:0.25;"/>
<line x1="1792.100000" y1="40.000000" x2="1796.100000" y2="40.000000"  style="stroke:black; stroke-linecap:round; stroke-width:0.25;"/>
<line x1="1796.100000" y1="40.000000" x2="1806.100000" y2="40.000000"  style="stroke:black; stroke-linecap:round; stroke-width:0.25;"/>
</svg>
