<?xml version="1.0"?>
<svg xmlns="http://www.w3.org/2000/svg" xmlns:xlink="http://www.w3.org/1999/xlink" viewBox="0 0 516.700000 100.000000" width="258.350000mm" height="50.000000mm" version="1.1">
<a xlink:href="flow-0x7fd173ee6da0.svg">
<rect x="1.000000" y="1.000000" width="515.700000" height="99.000000" rx="0" ry="0" style="stroke:none;fill:#cccccc;"/>
<rect x="0.000000" y="0.000000" width="515.700000" height="99.000000" rx="0" ry="0" style="stroke:none;fill:#ffffff;"/>
</a>
<text x="10.000000" y="7.000000" font-family="Arial" font-size="7"></text>
<rect x="25.000000" y="39.000000" width="206.400000" height="24.000000" rx="0" ry="0" style="stroke:none;fill:#cccccc;"/>
<rect x="24.000000" y="38.000000" width="206.400000" height="24.000000" rx="0" ry="0" style="stroke:none;fill:#477881;"/>
<text x="127.200000" y="52.000000" font-family="Arial" font-size="7" text-anchor="middle" fill="#FFFFFF">hslider(Breath Noise, 0.02f, 0.01f, 0.2f, 0.01f)</text>
<circle cx="26.000000" cy="40.000000" r="1"/>
<a xlink:href="smooth-0x7fd17145f300.svg">
<rect x="239.400000" y="39.000000" width="64.500000" height="24.000000" rx="0" ry="0" style="stroke:none;fill:#cccccc;"/>
<rect x="238.400000" y="38.000000" width="64.500000" height="24.000000" rx="0" ry="0" style="stroke:none;fill:#003366;"/>
</a>
<a xlink:href="smooth-0x7fd17145f300.svg">
<text x="270.650000" y="52.000000" font-family="Arial" font-size="7" text-anchor="middle" fill="#FFFFFF">smooth(0.999f)</text>
</a>
<circle cx="240.400000" cy="40.000000" r="1"/>
<line x1="235.400000" y1="49.000000" x2="238.400000" y2="50.000000"  transform="rotate(0.000000,238.400000,50.000000)" style="stroke: black; stroke-width:0.25;"/>
<line x1="235.400000" y1="51.000000" x2="238.400000" y2="50.000000"  transform="rotate(0.000000,238.400000,50.000000)" style="stroke: black; stroke-width:0.25;"/>
<rect x="329.900000" y="35.000000" width="24.000000" height="24.000000" rx="0" ry="0" style="stroke:none;fill:#cccccc;"/>
<rect x="328.900000" y="34.000000" width="24.000000" height="24.000000" rx="0" ry="0" style="stroke:none;fill:#f44800;"/>
<text x="340.900000" y="48.000000" font-family="Arial" font-size="7" text-anchor="middle" fill="#FFFFFF">0.2</text>
<circle cx="330.900000" cy="36.000000" r="1"/>
<line x1="319.900000" y1="25.000000" x2="319.900000" y2="67.000000"  style="stroke: black; stroke-linecap:round; stroke-width:0.25; stroke-dasharray:3,3;"/>
<line x1="319.900000" y1="67.000000" x2="361.900000" y2="67.000000"  style="stroke: black; stroke-linecap:round; stroke-width:0.25; stroke-dasharray:3,3;"/>
<line x1="361.900000" y1="67.000000" x2="361.900000" y2="25.000000"  style="stroke: black; stroke-linecap:round; stroke-width:0.25; stroke-dasharray:3,3;"/>
<line x1="319.900000" y1="25.000000" x2="324.900000" y2="25.000000"  style="stroke: black; stroke-linecap:round; stroke-width:0.25; stroke-dasharray:3,3;"/>
<line x1="360.375000" y1="25.000000" x2="361.900000" y2="25.000000"  style="stroke: black; stroke-linecap:round; stroke-width:0.25; stroke-dasharray:3,3;"/>
<text x="324.900000" y="27.000000" font-family="Arial" font-size="7">env1Decay</text>
<rect x="379.900000" y="39.000000" width="24.000000" height="24.000000" rx="0" ry="0" style="stroke:none;fill:#cccccc;"/>
<rect x="378.900000" y="38.000000" width="24.000000" height="24.000000" rx="0" ry="0" style="stroke:none;fill:#4B71A1;"/>
<text x="390.900000" y="52.000000" font-family="Arial" font-size="7" text-anchor="middle" fill="#FFFFFF">min</text>
<circle cx="380.900000" cy="40.000000" r="1"/>
<line x1="375.900000" y1="45.000000" x2="378.900000" y2="46.000000"  transform="rotate(0.000000,378.900000,46.000000)" style="stroke: black; stroke-width:0.25;"/>
<line x1="375.900000" y1="47.000000" x2="378.900000" y2="46.000000"  transform="rotate(0.000000,378.900000,46.000000)" style="stroke: black; stroke-width:0.25;"/>
<line x1="375.900000" y1="53.000000" x2="378.900000" y2="54.000000"  transform="rotate(0.000000,378.900000,54.000000)" style="stroke: black; stroke-width:0.25;"/>
<line x1="375.900000" y1="55.000000" x2="378.900000" y2="54.000000"  transform="rotate(0.000000,378.900000,54.000000)" style="stroke: black; stroke-width:0.25;"/>
<rect x="419.900000" y="35.000000" width="25.800000" height="24.000000" rx="0" ry="0" style="stroke:none;fill:#cccccc;"/>
<rect x="418.900000" y="34.000000" width="25.800000" height="24.000000" rx="0" ry="0" style="stroke:none;fill:#f44800;"/>
<text x="431.800000" y="48.000000" font-family="Arial" font-size="7" text-anchor="middle" fill="#FFFFFF">0.01</text>
<circle cx="420.900000" cy="36.000000" r="1"/>
<rect x="461.700000" y="39.000000" width="24.000000" height="24.000000" rx="0" ry="0" style="stroke:none;fill:#cccccc;"/>
<rect x="460.700000" y="38.000000" width="24.000000" height="24.000000" rx="0" ry="0" style="stroke:none;fill:#4B71A1;"/>
<text x="472.700000" y="52.000000" font-family="Arial" font-size="7" text-anchor="middle" fill="#FFFFFF">max</text>
<circle cx="462.700000" cy="40.000000" r="1"/>
<line x1="457.700000" y1="45.000000" x2="460.700000" y2="46.000000"  transform="rotate(0.000000,460.700000,46.000000)" style="stroke: black; stroke-width:0.25;"/>
<line x1="457.700000" y1="47.000000" x2="460.700000" y2="46.000000"  transform="rotate(0.000000,460.700000,46.000000)" style="stroke: black; stroke-width:0.25;"/>
<line x1="457.700000" y1="53.000000" x2="460.700000" y2="54.000000"  transform="rotate(0.000000,460.700000,54.000000)" style="stroke: black; stroke-width:0.25;"/>
<line x1="457.700000" y1="55.000000" x2="460.700000" y2="54.000000"  transform="rotate(0.000000,460.700000,54.000000)" style="stroke: black; stroke-width:0.25;"/>
<line x1="15.000000" y1="15.000000" x2="15.000000" y2="85.000000"  style="stroke: black; stroke-linecap:round; stroke-width:0.25; stroke-dasharray:3,3;"/>
<line x1="15.000000" y1="85.000000" x2="501.700000" y2="85.000000"  style="stroke: black; stroke-linecap:round; stroke-width:0.25; stroke-dasharray:3,3;"/>
<line x1="501.700000" y1="85.000000" x2="501.700000" y2="15.000000"  style="stroke: black; stroke-linecap:round; stroke-width:0.25; stroke-dasharray:3,3;"/>
<line x1="15.000000" y1="15.000000" x2="20.000000" y2="15.000000"  style="stroke: black; stroke-linecap:round; stroke-width:0.25; stroke-dasharray:3,3;"/>
<line x1="55.475000" y1="15.000000" x2="501.700000" y2="15.000000"  style="stroke: black; stroke-linecap:round; stroke-width:0.25; stroke-dasharray:3,3;"/>
<text x="20.000000" y="17.000000" font-family="Arial" font-size="7">breathAmp</text>
<line x1="503.700000" y1="49.000000" x2="506.700000" y2="50.000000"  transform="rotate(0.000000,506.700000,50.000000)" style="stroke: black; stroke-width:0.25;"/>
<line x1="503.700000" y1="51.000000" x2="506.700000" y2="50.000000"  transform="rotate(0.000000,506.700000,50.000000)" style="stroke: black; stroke-width:0.25;"/>
<line x1="230.400000" y1="50.000000" x2="234.400000" y2="50.000000"  style="stroke:black; stroke-linecap:round; stroke-width:0.25;"/>
<line x1="234.400000" y1="50.000000" x2="234.400000" y2="50.000000"  style="stroke:black; stroke-linecap:round; stroke-width:0.25;"/>
<line x1="234.400000" y1="50.000000" x2="238.400000" y2="50.000000"  style="stroke:black; stroke-linecap:round; stroke-width:0.25;"/>
<line x1="302.900000" y1="50.000000" x2="306.900000" y2="50.000000"  style="stroke:black; stroke-linecap:round; stroke-width:0.25;"/>
<line x1="306.900000" y1="50.000000" x2="314.900000" y2="50.000000"  style="stroke:black; stroke-linecap:round; stroke-width:0.25;"/>
<line x1="314.900000" y1="50.000000" x2="314.900000" y2="76.000000"  style="stroke:black; stroke-linecap:round; stroke-width:0.25;"/>
<line x1="314.900000" y1="76.000000" x2="314.900000" y2="76.000000"  style="stroke:black; stroke-linecap:round; stroke-width:0.25;"/>
<line x1="314.900000" y1="76.000000" x2="340.900000" y2="76.000000"  style="stroke:black; stroke-linecap:round; stroke-width:0.25;"/>
<line x1="340.900000" y1="76.000000" x2="366.900000" y2="76.000000"  style="stroke:black; stroke-linecap:round; stroke-width:0.25;"/>
<line x1="352.900000" y1="46.000000" x2="356.900000" y2="46.000000"  style="stroke:black; stroke-linecap:round; stroke-width:0.25;"/>
<line x1="356.900000" y1="46.000000" x2="366.900000" y2="46.000000"  style="stroke:black; stroke-linecap:round; stroke-width:0.25;"/>
<line x1="366.900000" y1="46.000000" x2="374.900000" y2="46.000000"  style="stroke:black; stroke-linecap:round; stroke-width:0.25;"/>
<line x1="366.900000" y1="54.000000" x2="374.900000" y2="54.000000"  style="stroke:black; stroke-linecap:round; stroke-width:0.25;"/>
<line x1="366.900000" y1="76.000000" x2="366.900000" y2="54.000000"  style="stroke:black; stroke-linecap:round; stroke-width:0.25;"/>
<line x1="366.900000" y1="76.000000" x2="366.900000" y2="76.000000"  style="stroke:black; stroke-linecap:round; stroke-width:0.25;"/>
<line x1="374.900000" y1="46.000000" x2="378.900000" y2="46.000000"  style="stroke:black; stroke-linecap:round; stroke-width:0.25;"/>
<line x1="374.900000" y1="54.000000" x2="378.900000" y2="54.000000"  style="stroke:black; stroke-linecap:round; stroke-width:0.25;"/>
<line x1="402.900000" y1="50.000000" x2="406.900000" y2="50.000000"  style="stroke:black; stroke-linecap:round; stroke-width:0.25;"/>
<line x1="406.900000" y1="50.000000" x2="414.900000" y2="50.000000"  style="stroke:black; stroke-linecap:round; stroke-width:0.25;"/>
<line x1="414.900000" y1="50.000000" x2="414.900000" y2="66.000000"  style="stroke:black; stroke-linecap:round; stroke-width:0.25;"/>
<line x1="414.900000" y1="66.000000" x2="414.900000" y2="66.000000"  style="stroke:black; stroke-linecap:round; stroke-width:0.25;"/>
<line x1="414.900000" y1="66.000000" x2="431.800000" y2="66.000000"  style="stroke:black; stroke-linecap:round; stroke-width:0.25;"/>
<line x1="431.800000" y1="66.000000" x2="448.700000" y2="66.000000"  style="stroke:black; stroke-linecap:round; stroke-width:0.25;"/>
<line x1="444.700000" y1="46.000000" x2="448.700000" y2="46.000000"  style="stroke:black; stroke-linecap:round; stroke-width:0.25;"/>
<line x1="448.700000" y1="54.000000" x2="456.700000" y2="54.000000"  style="stroke:black; stroke-linecap:round; stroke-width:0.25;"/>
<line x1="448.700000" y1="66.000000" x2="448.700000" y2="54.000000"  style="stroke:black; stroke-linecap:round; stroke-width:0.25;"/>
<line x1="448.700000" y1="66.000000" x2="448.700000" y2="66.000000"  style="stroke:black; stroke-linecap:round; stroke-width:0.25;"/>
<line x1="448.700000" y1="46.000000" x2="456.700000" y2="46.000000"  style="stroke:black; stroke-linecap:round; stroke-width:0.25;"/>
<line x1="456.700000" y1="46.000000" x2="460.700000" y2="46.000000"  style="stroke:black; stroke-linecap:round; stroke-width:0.25;"/>
<line x1="456.700000" y1="54.000000" x2="460.700000" y2="54.000000"  style="stroke:black; stroke-linecap:round; stroke-width:0.25;"/>
<line x1="484.700000" y1="50.000000" x2="488.700000" y2="50.000000"  style="stroke:black; stroke-linecap:round; stroke-width:0.25;"/>
<line x1="488.700000" y1="50.000000" x2="488.700000" y2="50.000000"  style="stroke:black; stroke-linecap:round; stroke-width:0.25;"/>
<line x1="488.700000" y1="50.000000" x2="492.700000" y2="50.000000"  style="stroke:black; stroke-linecap:round; stroke-width:0.25;"/>
<line x1="492.700000" y1="50.000000" x2="496.700000" y2="50.000000"  style="stroke:black; stroke-linecap:round; stroke-width:0.25;"/>
<line x1="496.700000" y1="50.000000" x2="506.700000" y2="50.000000"  style="stroke:black; stroke-linecap:round; stroke-width:0.25;"/>
</svg>
