<?xml version="1.0"?>
<svg xmlns="http://www.w3.org/2000/svg" xmlns:xlink="http://www.w3.org/1999/xlink" viewBox="0 0 559.400000 80.000000" width="279.700000mm" height="40.000000mm" version="1.1">
<a xlink:href="fxctrl-0x7f81c9f67860.svg">
<rect x="1.000000" y="1.000000" width="558.400000" height="79.000000" rx="0" ry="0" style="stroke:none;fill:#cccccc;"/>
<rect x="0.000000" y="0.000000" width="558.400000" height="79.000000" rx="0" ry="0" style="stroke:none;fill:#ffffff;"/>
</a>
<text x="10.000000" y="7.000000" font-family="Arial" font-size="7"></text>
<rect x="25.000000" y="29.000000" width="270.900000" height="24.000000" rx="0" ry="0" style="stroke:none;fill:#cccccc;"/>
<rect x="24.000000" y="28.000000" width="270.900000" height="24.000000" rx="0" ry="0" style="stroke:none;fill:#477881;"/>
<text x="159.450000" y="42.000000" font-family="Arial" font-size="7" text-anchor="middle" fill="#FFFFFF">hslider(Reverberation Intensity, 0.3333f, 0.1f, 0.9f, 0.025f)</text>
<circle cx="26.000000" cy="30.000000" r="1"/>
<a xlink:href="smooth-0x7f81c9ea9dd0.svg">
<rect x="303.900000" y="29.000000" width="64.500000" height="24.000000" rx="0" ry="0" style="stroke:none;fill:#cccccc;"/>
<rect x="302.900000" y="28.000000" width="64.500000" height="24.000000" rx="0" ry="0" style="stroke:none;fill:#003366;"/>
</a>
<a xlink:href="smooth-0x7f81c9ea9dd0.svg">
<text x="335.150000" y="42.000000" font-family="Arial" font-size="7" text-anchor="middle" fill="#FFFFFF">smooth(0.999f)</text>
</a>
<circle cx="304.900000" cy="30.000000" r="1"/>
<line x1="299.900000" y1="39.000000" x2="302.900000" y2="40.000000"  transform="rotate(0.000000,302.900000,40.000000)" style="stroke: black; stroke-width:0.25;"/>
<line x1="299.900000" y1="41.000000" x2="302.900000" y2="40.000000"  transform="rotate(0.000000,302.900000,40.000000)" style="stroke: black; stroke-width:0.25;"/>
<rect x="384.400000" y="25.000000" width="24.000000" height="24.000000" rx="0" ry="0" style="stroke:none;fill:#cccccc;"/>
<rect x="383.400000" y="24.000000" width="24.000000" height="24.000000" rx="0" ry="0" style="stroke:none;fill:#f44800;"/>
<text x="395.400000" y="38.000000" font-family="Arial" font-size="7" text-anchor="middle" fill="#FFFFFF">0.9</text>
<circle cx="385.400000" cy="26.000000" r="1"/>
<rect x="424.400000" y="29.000000" width="24.000000" height="24.000000" rx="0" ry="0" style="stroke:none;fill:#cccccc;"/>
<rect x="423.400000" y="28.000000" width="24.000000" height="24.000000" rx="0" ry="0" style="stroke:none;fill:#4B71A1;"/>
<text x="435.400000" y="42.000000" font-family="Arial" font-size="7" text-anchor="middle" fill="#FFFFFF">min</text>
<circle cx="425.400000" cy="30.000000" r="1"/>
<line x1="420.400000" y1="35.000000" x2="423.400000" y2="36.000000"  transform="rotate(0.000000,423.400000,36.000000)" style="stroke: black; stroke-width:0.25;"/>
<line x1="420.400000" y1="37.000000" x2="423.400000" y2="36.000000"  transform="rotate(0.000000,423.400000,36.000000)" style="stroke: black; stroke-width:0.25;"/>
<line x1="420.400000" y1="43.000000" x2="423.400000" y2="44.000000"  transform="rotate(0.000000,423.400000,44.000000)" style="stroke: black; stroke-width:0.25;"/>
<line x1="420.400000" y1="45.000000" x2="423.400000" y2="44.000000"  transform="rotate(0.000000,423.400000,44.000000)" style="stroke: black; stroke-width:0.25;"/>
<rect x="464.400000" y="25.000000" width="24.000000" height="24.000000" rx="0" ry="0" style="stroke:none;fill:#cccccc;"/>
<rect x="463.400000" y="24.000000" width="24.000000" height="24.000000" rx="0" ry="0" style="stroke:none;fill:#f44800;"/>
<text x="475.400000" y="38.000000" font-family="Arial" font-size="7" text-anchor="middle" fill="#FFFFFF">0.1</text>
<circle cx="465.400000" cy="26.000000" r="1"/>
<rect x="504.400000" y="29.000000" width="24.000000" height="24.000000" rx="0" ry="0" style="stroke:none;fill:#cccccc;"/>
<rect x="503.400000" y="28.000000" width="24.000000" height="24.000000" rx="0" ry="0" style="stroke:none;fill:#4B71A1;"/>
<text x="515.400000" y="42.000000" font-family="Arial" font-size="7" text-anchor="middle" fill="#FFFFFF">max</text>
<circle cx="505.400000" cy="30.000000" r="1"/>
<line x1="500.400000" y1="35.000000" x2="503.400000" y2="36.000000"  transform="rotate(0.000000,503.400000,36.000000)" style="stroke: black; stroke-width:0.25;"/>
<line x1="500.400000" y1="37.000000" x2="503.400000" y2="36.000000"  transform="rotate(0.000000,503.400000,36.000000)" style="stroke: black; stroke-width:0.25;"/>
<line x1="500.400000" y1="43.000000" x2="503.400000" y2="44.000000"  transform="rotate(0.000000,503.400000,44.000000)" style="stroke: black; stroke-width:0.25;"/>
<line x1="500.400000" y1="45.000000" x2="503.400000" y2="44.000000"  transform="rotate(0.000000,503.400000,44.000000)" style="stroke: black; stroke-width:0.25;"/>
<line x1="15.000000" y1="15.000000" x2="15.000000" y2="65.000000"  style="stroke: black; stroke-linecap:round; stroke-width:0.25; stroke-dasharray:3,3;"/>
<line x1="15.000000" y1="65.000000" x2="544.400000" y2="65.000000"  style="stroke: black; stroke-linecap:round; stroke-width:0.25; stroke-dasharray:3,3;"/>
<line x1="544.400000" y1="65.000000" x2="544.400000" y2="15.000000"  style="stroke: black; stroke-linecap:round; stroke-width:0.25; stroke-dasharray:3,3;"/>
<line x1="15.000000" y1="15.000000" x2="20.000000" y2="15.000000"  style="stroke: black; stroke-linecap:round; stroke-width:0.25; stroke-dasharray:3,3;"/>
<line x1="55.475000" y1="15.000000" x2="544.400000" y2="15.000000"  style="stroke: black; stroke-linecap:round; stroke-width:0.25; stroke-dasharray:3,3;"/>
<text x="20.000000" y="17.000000" font-family="Arial" font-size="7">wetSlider</text>
<line x1="546.400000" y1="39.000000" x2="549.400000" y2="40.000000"  transform="rotate(0.000000,549.400000,40.000000)" style="stroke: black; stroke-width:0.25;"/>
<line x1="546.400000" y1="41.000000" x2="549.400000" y2="40.000000"  transform="rotate(0.000000,549.400000,40.000000)" style="stroke: black; stroke-width:0.25;"/>
<line x1="294.900000" y1="40.000000" x2="298.900000" y2="40.000000"  style="stroke:black; stroke-linecap:round; stroke-width:0.25;"/>
<line x1="298.900000" y1="40.000000" x2="298.900000" y2="40.000000"  style="stroke:black; stroke-linecap:round; stroke-width:0.25;"/>
<line x1="298.900000" y1="40.000000" x2="302.900000" y2="40.000000"  style="stroke:black; stroke-linecap:round; stroke-width:0.25;"/>
<line x1="367.400000" y1="40.000000" x2="371.400000" y2="40.000000"  style="stroke:black; stroke-linecap:round; stroke-width:0.25;"/>
<line x1="371.400000" y1="40.000000" x2="379.400000" y2="40.000000"  style="stroke:black; stroke-linecap:round; stroke-width:0.25;"/>
<line x1="379.400000" y1="40.000000" x2="379.400000" y2="56.000000"  style="stroke:black; stroke-linecap:round; stroke-width:0.25;"/>
<line x1="379.400000" y1="56.000000" x2="379.400000" y2="56.000000"  style="stroke:black; stroke-linecap:round; stroke-width:0.25;"/>
<line x1="379.400000" y1="56.000000" x2="395.400000" y2="56.000000"  style="stroke:black; stroke-linecap:round; stroke-width:0.25;"/>
<line x1="395.400000" y1="56.000000" x2="411.400000" y2="56.000000"  style="stroke:black; stroke-linecap:round; stroke-width:0.25;"/>
<line x1="407.400000" y1="36.000000" x2="411.400000" y2="36.000000"  style="stroke:black; stroke-linecap:round; stroke-width:0.25;"/>
<line x1="411.400000" y1="36.000000" x2="419.400000" y2="36.000000"  style="stroke:black; stroke-linecap:round; stroke-width:0.25;"/>
<line x1="411.400000" y1="44.000000" x2="419.400000" y2="44.000000"  style="stroke:black; stroke-linecap:round; stroke-width:0.25;"/>
<line x1="411.400000" y1="56.000000" x2="411.400000" y2="44.000000"  style="stroke:black; stroke-linecap:round; stroke-width:0.25;"/>
<line x1="411.400000" y1="56.000000" x2="411.400000" y2="56.000000"  style="stroke:black; stroke-linecap:round; stroke-width:0.25;"/>
<line x1="419.400000" y1="36.000000" x2="423.400000" y2="36.000000"  style="stroke:black; stroke-linecap:round; stroke-width:0.25;"/>
<line x1="419.400000" y1="44.000000" x2="423.400000" y2="44.000000"  style="stroke:black; stroke-linecap:round; stroke-width:0.25;"/>
<line x1="447.400000" y1="40.000000" x2="451.400000" y2="40.000000"  style="stroke:black; stroke-linecap:round; stroke-width:0.25;"/>
<line x1="451.400000" y1="40.000000" x2="459.400000" y2="40.000000"  style="stroke:black; stroke-linecap:round; stroke-width:0.25;"/>
<line x1="459.400000" y1="40.000000" x2="459.400000" y2="56.000000"  style="stroke:black; stroke-linecap:round; stroke-width:0.25;"/>
<line x1="459.400000" y1="56.000000" x2="459.400000" y2="56.000000"  style="stroke:black; stroke-linecap:round; stroke-width:0.25;"/>
<line x1="459.400000" y1="56.000000" x2="475.400000" y2="56.000000"  style="stroke:black; stroke-linecap:round; stroke-width:0.25;"/>
<line x1="475.400000" y1="56.000000" x2="491.400000" y2="56.000000"  style="stroke:black; stroke-linecap:round; stroke-width:0.25;"/>
<line x1="487.400000" y1="36.000000" x2="491.400000" y2="36.000000"  style="stroke:black; stroke-linecap:round; stroke-width:0.25;"/>
<line x1="491.400000" y1="36.000000" x2="499.400000" y2="36.000000"  style="stroke:black; stroke-linecap:round; stroke-width:0.25;"/>
<line x1="491.400000" y1="44.000000" x2="499.400000" y2="44.000000"  style="stroke:black; stroke-linecap:round; stroke-width:0.25;"/>
<line x1="491.400000" y1="56.000000" x2="491.400000" y2="44.000000"  style="stroke:black; stroke-linecap:round; stroke-width:0.25;"/>
<line x1="491.400000" y1="56.000000" x2="491.400000" y2="56.000000"  style="stroke:black; stroke-linecap:round; stroke-width:0.25;"/>
<line x1="499.400000" y1="36.000000" x2="503.400000" y2="36.000000"  style="stroke:black; stroke-linecap:round; stroke-width:0.25;"/>
<line x1="499.400000" y1="44.000000" x2="503.400000" y2="44.000000"  style="stroke:black; stroke-linecap:round; stroke-width:0.25;"/>
<line x1="527.400000" y1="40.000000" x2="531.400000" y2="40.000000"  style="stroke:black; stroke-linecap:round; stroke-width:0.25;"/>
<line x1="531.400000" y1="40.000000" x2="531.400000" y2="40.000000"  style="stroke:black; stroke-linecap:round; stroke-width:0.25;"/>
<line x1="531.400000" y1="40.000000" x2="535.400000" y2="40.000000"  style="stroke:black; stroke-linecap:round; stroke-width:0.25;"/>
<line x1="535.400000" y1="40.000000" x2="539.400000" y2="40.000000"  style="stroke:black; stroke-linecap:round; stroke-width:0.25;"/>
<line x1="539.400000" y1="40.000000" x2="549.400000" y2="40.000000"  style="stroke:black; stroke-linecap:round; stroke-width:0.25;"/>
</svg>
