<?xml version="1.0"?>
<svg xmlns="http://www.w3.org/2000/svg" xmlns:xlink="http://www.w3.org/1999/xlink" viewBox="0 0 394.300000 152.000000" width="197.150000mm" height="76.000000mm" version="1.1">
<a xlink:href="monoReverb-0x7f81c9f43940.svg">
<rect x="1.000000" y="1.000000" width="393.300000" height="151.000000" rx="0" ry="0" style="stroke:none;fill:#cccccc;"/>
<rect x="0.000000" y="0.000000" width="393.300000" height="151.000000" rx="0" ry="0" style="stroke:none;fill:#ffffff;"/>
</a>
<text x="10.000000" y="7.000000" font-family="Arial" font-size="7"></text>
<rect x="145.250000" y="101.000000" width="24.000000" height="24.000000" rx="0" ry="0" style="stroke:none;fill:#cccccc;"/>
<rect x="144.250000" y="100.000000" width="24.000000" height="24.000000" rx="0" ry="0" style="stroke:none;fill:#4B71A1;"/>
<text x="156.250000" y="114.000000" font-family="Arial" font-size="7" text-anchor="middle" fill="#FFFFFF">+</text>
<circle cx="146.250000" cy="102.000000" r="1"/>
<line x1="141.250000" y1="107.000000" x2="144.250000" y2="108.000000"  transform="rotate(0.000000,144.250000,108.000000)" style="stroke: black; stroke-width:0.25;"/>
<line x1="141.250000" y1="109.000000" x2="144.250000" y2="108.000000"  transform="rotate(0.000000,144.250000,108.000000)" style="stroke: black; stroke-width:0.25;"/>
<line x1="141.250000" y1="115.000000" x2="144.250000" y2="116.000000"  transform="rotate(0.000000,144.250000,116.000000)" style="stroke: black; stroke-width:0.25;"/>
<line x1="141.250000" y1="117.000000" x2="144.250000" y2="116.000000"  transform="rotate(0.000000,144.250000,116.000000)" style="stroke: black; stroke-width:0.25;"/>
<rect x="185.250000" y="105.000000" width="25.800000" height="24.000000" rx="0" ry="0" style="stroke:none;fill:#cccccc;"/>
<rect x="184.250000" y="104.000000" width="25.800000" height="24.000000" rx="0" ry="0" style="stroke:none;fill:#f44800;"/>
<text x="197.150000" y="118.000000" font-family="Arial" font-size="7" text-anchor="middle" fill="#FFFFFF">1139</text>
<circle cx="186.250000" cy="106.000000" r="1"/>
<rect x="227.050000" y="101.000000" width="24.000000" height="24.000000" rx="0" ry="0" style="stroke:none;fill:#cccccc;"/>
<rect x="226.050000" y="100.000000" width="24.000000" height="24.000000" rx="0" ry="0" style="stroke:none;fill:#4B71A1;"/>
<text x="238.050000" y="114.000000" font-family="Arial" font-size="7" text-anchor="middle" fill="#FFFFFF">@</text>
<circle cx="228.050000" cy="102.000000" r="1"/>
<line x1="223.050000" y1="107.000000" x2="226.050000" y2="108.000000"  transform="rotate(0.000000,226.050000,108.000000)" style="stroke: black; stroke-width:0.25;"/>
<line x1="223.050000" y1="109.000000" x2="226.050000" y2="108.000000"  transform="rotate(0.000000,226.050000,108.000000)" style="stroke: black; stroke-width:0.25;"/>
<line x1="223.050000" y1="115.000000" x2="226.050000" y2="116.000000"  transform="rotate(0.000000,226.050000,116.000000)" style="stroke: black; stroke-width:0.25;"/>
<line x1="223.050000" y1="117.000000" x2="226.050000" y2="116.000000"  transform="rotate(0.000000,226.050000,116.000000)" style="stroke: black; stroke-width:0.25;"/>
<rect x="322.400000" y="57.000000" width="24.000000" height="24.000000" rx="0" ry="0" style="stroke:none;fill:#cccccc;"/>
<rect x="321.400000" y="56.000000" width="24.000000" height="24.000000" rx="0" ry="0" style="stroke:none;fill:#f44800;"/>
<text x="333.400000" y="70.000000" font-family="Arial" font-size="7" text-anchor="middle" fill="#FFFFFF">1</text>
<circle cx="343.400000" cy="78.000000" r="1"/>
<rect x="321.500000" y="25.000000" width="25.800000" height="24.000000" rx="0" ry="0" style="stroke:none;fill:#cccccc;"/>
<rect x="320.500000" y="24.000000" width="25.800000" height="24.000000" rx="0" ry="0" style="stroke:none;fill:#f44800;"/>
<text x="333.400000" y="38.000000" font-family="Arial" font-size="7" text-anchor="middle" fill="#FFFFFF">0.28</text>
<circle cx="344.300000" cy="46.000000" r="1"/>
<rect x="281.500000" y="41.000000" width="24.000000" height="24.000000" rx="0" ry="0" style="stroke:none;fill:#cccccc;"/>
<rect x="280.500000" y="40.000000" width="24.000000" height="24.000000" rx="0" ry="0" style="stroke:none;fill:#4B71A1;"/>
<text x="292.500000" y="54.000000" font-family="Arial" font-size="7" text-anchor="middle" fill="#FFFFFF">-</text>
<circle cx="302.500000" cy="62.000000" r="1"/>
<line x1="307.500000" y1="55.000000" x2="304.500000" y2="56.000000"  transform="rotate(0.000000,304.500000,56.000000)" style="stroke: black; stroke-width:0.25;"/>
<line x1="307.500000" y1="57.000000" x2="304.500000" y2="56.000000"  transform="rotate(0.000000,304.500000,56.000000)" style="stroke: black; stroke-width:0.25;"/>
<line x1="307.500000" y1="47.000000" x2="304.500000" y2="48.000000"  transform="rotate(0.000000,304.500000,48.000000)" style="stroke: black; stroke-width:0.25;"/>
<line x1="307.500000" y1="49.000000" x2="304.500000" y2="48.000000"  transform="rotate(0.000000,304.500000,48.000000)" style="stroke: black; stroke-width:0.25;"/>
<rect x="241.500000" y="45.000000" width="24.000000" height="24.000000" rx="0" ry="0" style="stroke:none;fill:#cccccc;"/>
<rect x="240.500000" y="44.000000" width="24.000000" height="24.000000" rx="0" ry="0" style="stroke:none;fill:#4B71A1;"/>
<text x="252.500000" y="58.000000" font-family="Arial" font-size="7" text-anchor="middle" fill="#FFFFFF">*</text>
<circle cx="262.500000" cy="66.000000" r="1"/>
<line x1="267.500000" y1="59.000000" x2="264.500000" y2="60.000000"  transform="rotate(0.000000,264.500000,60.000000)" style="stroke: black; stroke-width:0.25;"/>
<line x1="267.500000" y1="61.000000" x2="264.500000" y2="60.000000"  transform="rotate(0.000000,264.500000,60.000000)" style="stroke: black; stroke-width:0.25;"/>
<line x1="267.500000" y1="51.000000" x2="264.500000" y2="52.000000"  transform="rotate(0.000000,264.500000,52.000000)" style="stroke: black; stroke-width:0.25;"/>
<line x1="267.500000" y1="53.000000" x2="264.500000" y2="52.000000"  transform="rotate(0.000000,264.500000,52.000000)" style="stroke: black; stroke-width:0.25;"/>
<rect x="172.600000" y="25.000000" width="24.000000" height="24.000000" rx="0" ry="0" style="stroke:none;fill:#cccccc;"/>
<rect x="171.600000" y="24.000000" width="24.000000" height="24.000000" rx="0" ry="0" style="stroke:none;fill:#4B71A1;"/>
<text x="183.600000" y="38.000000" font-family="Arial" font-size="7" text-anchor="middle" fill="#FFFFFF">+</text>
<circle cx="193.600000" cy="46.000000" r="1"/>
<line x1="198.600000" y1="39.000000" x2="195.600000" y2="40.000000"  transform="rotate(0.000000,195.600000,40.000000)" style="stroke: black; stroke-width:0.25;"/>
<line x1="198.600000" y1="41.000000" x2="195.600000" y2="40.000000"  transform="rotate(0.000000,195.600000,40.000000)" style="stroke: black; stroke-width:0.25;"/>
<line x1="198.600000" y1="31.000000" x2="195.600000" y2="32.000000"  transform="rotate(0.000000,195.600000,32.000000)" style="stroke: black; stroke-width:0.25;"/>
<line x1="198.600000" y1="33.000000" x2="195.600000" y2="32.000000"  transform="rotate(0.000000,195.600000,32.000000)" style="stroke: black; stroke-width:0.25;"/>
<rect x="151.700000" y="65.000000" width="25.800000" height="24.000000" rx="0" ry="0" style="stroke:none;fill:#cccccc;"/>
<rect x="150.700000" y="64.000000" width="25.800000" height="24.000000" rx="0" ry="0" style="stroke:none;fill:#f44800;"/>
<text x="163.600000" y="78.000000" font-family="Arial" font-size="7" text-anchor="middle" fill="#FFFFFF">0.28</text>
<circle cx="152.700000" cy="66.000000" r="1"/>
<rect x="193.500000" y="61.000000" width="24.000000" height="24.000000" rx="0" ry="0" style="stroke:none;fill:#cccccc;"/>
<rect x="192.500000" y="60.000000" width="24.000000" height="24.000000" rx="0" ry="0" style="stroke:none;fill:#4B71A1;"/>
<text x="204.500000" y="74.000000" font-family="Arial" font-size="7" text-anchor="middle" fill="#FFFFFF">*</text>
<circle cx="194.500000" cy="62.000000" r="1"/>
<line x1="189.500000" y1="67.000000" x2="192.500000" y2="68.000000"  transform="rotate(0.000000,192.500000,68.000000)" style="stroke: black; stroke-width:0.25;"/>
<line x1="189.500000" y1="69.000000" x2="192.500000" y2="68.000000"  transform="rotate(0.000000,192.500000,68.000000)" style="stroke: black; stroke-width:0.25;"/>
<line x1="189.500000" y1="75.000000" x2="192.500000" y2="76.000000"  transform="rotate(0.000000,192.500000,76.000000)" style="stroke: black; stroke-width:0.25;"/>
<line x1="189.500000" y1="77.000000" x2="192.500000" y2="76.000000"  transform="rotate(0.000000,192.500000,76.000000)" style="stroke: black; stroke-width:0.25;"/>
<line x1="148.700000" y1="36.000000" x2="148.700000" y2="40.000000"  style="stroke:black; stroke-linecap:round; stroke-width:0.25;"/>
<line x1="148.700000" y1="40.000000" x2="144.700000" y2="40.000000"  style="stroke:black; stroke-linecap:round; stroke-width:0.25;"/>
<line x1="144.700000" y1="40.000000" x2="144.700000" y2="36.000000"  style="stroke:black; stroke-linecap:round; stroke-width:0.25;"/>
<a xlink:href="combfeed-0x7f81c9eabdb0.svg">
<rect x="89.000000" y="41.000000" width="38.700000" height="24.000000" rx="0" ry="0" style="stroke:none;fill:#cccccc;"/>
<rect x="88.000000" y="40.000000" width="38.700000" height="24.000000" rx="0" ry="0" style="stroke:none;fill:#003366;"/>
</a>
<a xlink:href="combfeed-0x7f81c9eabdb0.svg">
<text x="107.350000" y="54.000000" font-family="Arial" font-size="7" text-anchor="middle" fill="#FFFFFF">combfeed</text>
</a>
<circle cx="124.700000" cy="62.000000" r="1"/>
<rect x="49.000000" y="45.000000" width="24.000000" height="24.000000" rx="0" ry="0" style="stroke:none;fill:#cccccc;"/>
<rect x="48.000000" y="44.000000" width="24.000000" height="24.000000" rx="0" ry="0" style="stroke:none;fill:#4B71A1;"/>
<text x="60.000000" y="58.000000" font-family="Arial" font-size="7" text-anchor="middle" fill="#FFFFFF">*</text>
<circle cx="70.000000" cy="66.000000" r="1"/>
<line x1="75.000000" y1="59.000000" x2="72.000000" y2="60.000000"  transform="rotate(0.000000,72.000000,60.000000)" style="stroke: black; stroke-width:0.25;"/>
<line x1="75.000000" y1="61.000000" x2="72.000000" y2="60.000000"  transform="rotate(0.000000,72.000000,60.000000)" style="stroke: black; stroke-width:0.25;"/>
<line x1="75.000000" y1="51.000000" x2="72.000000" y2="52.000000"  transform="rotate(0.000000,72.000000,52.000000)" style="stroke: black; stroke-width:0.25;"/>
<line x1="75.000000" y1="53.000000" x2="72.000000" y2="52.000000"  transform="rotate(0.000000,72.000000,52.000000)" style="stroke: black; stroke-width:0.25;"/>
<line x1="348.300000" y1="112.000000" x2="348.300000" y2="108.000000"  style="stroke:black; stroke-linecap:round; stroke-width:0.25;"/>
<line x1="348.300000" y1="108.000000" x2="352.300000" y2="108.000000"  style="stroke:black; stroke-linecap:round; stroke-width:0.25;"/>
<line x1="352.300000" y1="108.000000" x2="352.300000" y2="112.000000"  style="stroke:black; stroke-linecap:round; stroke-width:0.25;"/>
<line x1="15.000000" y1="15.000000" x2="15.000000" y2="137.000000"  style="stroke: black; stroke-linecap:round; stroke-width:0.25; stroke-dasharray:3,3;"/>
<line x1="15.000000" y1="137.000000" x2="379.300000" y2="137.000000"  style="stroke: black; stroke-linecap:round; stroke-width:0.25; stroke-dasharray:3,3;"/>
<line x1="379.300000" y1="137.000000" x2="379.300000" y2="15.000000"  style="stroke: black; stroke-linecap:round; stroke-width:0.25; stroke-dasharray:3,3;"/>
<line x1="15.000000" y1="15.000000" x2="20.000000" y2="15.000000"  style="stroke: black; stroke-linecap:round; stroke-width:0.25; stroke-dasharray:3,3;"/>
<line x1="119.975000" y1="15.000000" x2="379.300000" y2="15.000000"  style="stroke: black; stroke-linecap:round; stroke-width:0.25; stroke-dasharray:3,3;"/>
<text x="20.000000" y="17.000000" font-family="Arial" font-size="7">comb(1139)(hs...99999999997f)</text>
<line x1="381.300000" y1="75.000000" x2="384.300000" y2="76.000000"  transform="rotate(0.000000,384.300000,76.000000)" style="stroke: black; stroke-width:0.25;"/>
<line x1="381.300000" y1="77.000000" x2="384.300000" y2="76.000000"  transform="rotate(0.000000,384.300000,76.000000)" style="stroke: black; stroke-width:0.25;"/>
<line x1="10.000000" y1="76.000000" x2="20.000000" y2="76.000000"  style="stroke:black; stroke-linecap:round; stroke-width:0.25;"/>
<line x1="20.000000" y1="76.000000" x2="24.000000" y2="76.000000"  style="stroke:black; stroke-linecap:round; stroke-width:0.25;"/>
<line x1="24.000000" y1="76.000000" x2="28.000000" y2="76.000000"  style="stroke:black; stroke-linecap:round; stroke-width:0.25;"/>
<line x1="28.000000" y1="76.000000" x2="36.000000" y2="76.000000"  style="stroke:black; stroke-linecap:round; stroke-width:0.25;"/>
<line x1="36.000000" y1="76.000000" x2="36.000000" y2="116.000000"  style="stroke:black; stroke-linecap:round; stroke-width:0.25;"/>
<line x1="36.000000" y1="116.000000" x2="36.000000" y2="116.000000"  style="stroke:black; stroke-linecap:round; stroke-width:0.25;"/>
<line x1="36.000000" y1="116.000000" x2="44.000000" y2="116.000000"  style="stroke:black; stroke-linecap:round; stroke-width:0.25;"/>
<line x1="44.000000" y1="56.000000" x2="44.000000" y2="56.000000"  style="stroke:black; stroke-linecap:round; stroke-width:0.25;"/>
<line x1="44.000000" y1="56.000000" x2="44.000000" y2="108.000000"  style="stroke:black; stroke-linecap:round; stroke-width:0.25;"/>
<line x1="44.000000" y1="108.000000" x2="44.000000" y2="108.000000"  style="stroke:black; stroke-linecap:round; stroke-width:0.25;"/>
<line x1="44.000000" y1="108.000000" x2="140.250000" y2="108.000000"  style="stroke:black; stroke-linecap:round; stroke-width:0.25;"/>
<line x1="44.000000" y1="116.000000" x2="140.250000" y2="116.000000"  style="stroke:black; stroke-linecap:round; stroke-width:0.25;"/>
<line x1="48.000000" y1="56.000000" x2="44.000000" y2="56.000000"  style="stroke:black; stroke-linecap:round; stroke-width:0.25;"/>
<line x1="76.000000" y1="52.000000" x2="72.000000" y2="52.000000"  style="stroke:black; stroke-linecap:round; stroke-width:0.25;"/>
<line x1="76.000000" y1="60.000000" x2="72.000000" y2="60.000000"  style="stroke:black; stroke-linecap:round; stroke-width:0.25;"/>
<line x1="76.000000" y1="60.000000" x2="76.000000" y2="60.000000"  style="stroke:black; stroke-linecap:round; stroke-width:0.25;"/>
<line x1="76.000000" y1="72.000000" x2="76.000000" y2="60.000000"  style="stroke:black; stroke-linecap:round; stroke-width:0.25;"/>
<line x1="84.000000" y1="52.000000" x2="76.000000" y2="52.000000"  style="stroke:black; stroke-linecap:round; stroke-width:0.25;"/>
<line x1="84.000000" y1="72.000000" x2="76.000000" y2="72.000000"  style="stroke:black; stroke-linecap:round; stroke-width:0.25;"/>
<line x1="88.000000" y1="52.000000" x2="84.000000" y2="52.000000"  style="stroke:black; stroke-linecap:round; stroke-width:0.25;"/>
<line x1="107.350000" y1="72.000000" x2="84.000000" y2="72.000000"  style="stroke:black; stroke-linecap:round; stroke-width:0.25;"/>
<line x1="130.700000" y1="72.000000" x2="107.350000" y2="72.000000"  style="stroke:black; stroke-linecap:round; stroke-width:0.25;"/>
<line x1="138.700000" y1="36.000000" x2="138.700000" y2="36.000000"  style="stroke:black; stroke-linecap:round; stroke-width:0.25;"/>
<line x1="138.700000" y1="36.000000" x2="138.700000" y2="72.000000"  style="stroke:black; stroke-linecap:round; stroke-width:0.25;"/>
<line x1="138.700000" y1="72.000000" x2="130.700000" y2="72.000000"  style="stroke:black; stroke-linecap:round; stroke-width:0.25;"/>
<line x1="140.250000" y1="108.000000" x2="144.250000" y2="108.000000"  style="stroke:black; stroke-linecap:round; stroke-width:0.25;"/>
<line x1="140.250000" y1="116.000000" x2="144.250000" y2="116.000000"  style="stroke:black; stroke-linecap:round; stroke-width:0.25;"/>
<line x1="144.700000" y1="36.000000" x2="138.700000" y2="36.000000"  style="stroke:black; stroke-linecap:round; stroke-width:0.25;"/>
<line x1="146.700000" y1="36.000000" x2="144.700000" y2="36.000000"  style="stroke:black; stroke-linecap:round; stroke-width:0.25;"/>
<line x1="146.700000" y1="40.000000" x2="146.700000" y2="56.000000"  style="stroke:black; stroke-linecap:round; stroke-width:0.25;"/>
<line x1="146.700000" y1="56.000000" x2="146.700000" y2="56.000000"  style="stroke:black; stroke-linecap:round; stroke-width:0.25;"/>
<line x1="146.700000" y1="56.000000" x2="163.600000" y2="56.000000"  style="stroke:black; stroke-linecap:round; stroke-width:0.25;"/>
<line x1="163.600000" y1="56.000000" x2="180.500000" y2="56.000000"  style="stroke:black; stroke-linecap:round; stroke-width:0.25;"/>
<line x1="167.600000" y1="36.000000" x2="146.700000" y2="36.000000"  style="stroke:black; stroke-linecap:round; stroke-width:0.25;"/>
<line x1="168.250000" y1="112.000000" x2="172.250000" y2="112.000000"  style="stroke:black; stroke-linecap:round; stroke-width:0.25;"/>
<line x1="171.600000" y1="36.000000" x2="167.600000" y2="36.000000"  style="stroke:black; stroke-linecap:round; stroke-width:0.25;"/>
<line x1="172.250000" y1="96.000000" x2="180.250000" y2="96.000000"  style="stroke:black; stroke-linecap:round; stroke-width:0.25;"/>
<line x1="172.250000" y1="112.000000" x2="172.250000" y2="96.000000"  style="stroke:black; stroke-linecap:round; stroke-width:0.25;"/>
<line x1="172.250000" y1="112.000000" x2="172.250000" y2="112.000000"  style="stroke:black; stroke-linecap:round; stroke-width:0.25;"/>
<line x1="176.500000" y1="76.000000" x2="180.500000" y2="76.000000"  style="stroke:black; stroke-linecap:round; stroke-width:0.25;"/>
<line x1="180.250000" y1="96.000000" x2="197.150000" y2="96.000000"  style="stroke:black; stroke-linecap:round; stroke-width:0.25;"/>
<line x1="180.500000" y1="56.000000" x2="188.500000" y2="56.000000"  style="stroke:black; stroke-linecap:round; stroke-width:0.25;"/>
<line x1="180.500000" y1="76.000000" x2="188.500000" y2="76.000000"  style="stroke:black; stroke-linecap:round; stroke-width:0.25;"/>
<line x1="188.500000" y1="56.000000" x2="188.500000" y2="68.000000"  style="stroke:black; stroke-linecap:round; stroke-width:0.25;"/>
<line x1="188.500000" y1="68.000000" x2="188.500000" y2="68.000000"  style="stroke:black; stroke-linecap:round; stroke-width:0.25;"/>
<line x1="188.500000" y1="68.000000" x2="192.500000" y2="68.000000"  style="stroke:black; stroke-linecap:round; stroke-width:0.25;"/>
<line x1="188.500000" y1="76.000000" x2="192.500000" y2="76.000000"  style="stroke:black; stroke-linecap:round; stroke-width:0.25;"/>
<line x1="197.150000" y1="96.000000" x2="214.050000" y2="96.000000"  style="stroke:black; stroke-linecap:round; stroke-width:0.25;"/>
<line x1="199.600000" y1="32.000000" x2="195.600000" y2="32.000000"  style="stroke:black; stroke-linecap:round; stroke-width:0.25;"/>
<line x1="199.600000" y1="40.000000" x2="195.600000" y2="40.000000"  style="stroke:black; stroke-linecap:round; stroke-width:0.25;"/>
<line x1="210.050000" y1="116.000000" x2="214.050000" y2="116.000000"  style="stroke:black; stroke-linecap:round; stroke-width:0.25;"/>
<line x1="214.050000" y1="96.000000" x2="222.050000" y2="96.000000"  style="stroke:black; stroke-linecap:round; stroke-width:0.25;"/>
<line x1="214.050000" y1="116.000000" x2="222.050000" y2="116.000000"  style="stroke:black; stroke-linecap:round; stroke-width:0.25;"/>
<line x1="216.500000" y1="72.000000" x2="220.500000" y2="72.000000"  style="stroke:black; stroke-linecap:round; stroke-width:0.25;"/>
<line x1="220.500000" y1="32.000000" x2="199.600000" y2="32.000000"  style="stroke:black; stroke-linecap:round; stroke-width:0.25;"/>
<line x1="220.500000" y1="40.000000" x2="199.600000" y2="40.000000"  style="stroke:black; stroke-linecap:round; stroke-width:0.25;"/>
<line x1="220.500000" y1="40.000000" x2="220.500000" y2="40.000000"  style="stroke:black; stroke-linecap:round; stroke-width:0.25;"/>
<line x1="220.500000" y1="72.000000" x2="220.500000" y2="40.000000"  style="stroke:black; stroke-linecap:round; stroke-width:0.25;"/>
<line x1="220.500000" y1="72.000000" x2="220.500000" y2="72.000000"  style="stroke:black; stroke-linecap:round; stroke-width:0.25;"/>
<line x1="222.050000" y1="96.000000" x2="222.050000" y2="108.000000"  style="stroke:black; stroke-linecap:round; stroke-width:0.25;"/>
<line x1="222.050000" y1="108.000000" x2="222.050000" y2="108.000000"  style="stroke:black; stroke-linecap:round; stroke-width:0.25;"/>
<line x1="222.050000" y1="108.000000" x2="226.050000" y2="108.000000"  style="stroke:black; stroke-linecap:round; stroke-width:0.25;"/>
<line x1="222.050000" y1="116.000000" x2="226.050000" y2="116.000000"  style="stroke:black; stroke-linecap:round; stroke-width:0.25;"/>
<line x1="228.500000" y1="32.000000" x2="220.500000" y2="32.000000"  style="stroke:black; stroke-linecap:round; stroke-width:0.25;"/>
<line x1="228.500000" y1="32.000000" x2="228.500000" y2="32.000000"  style="stroke:black; stroke-linecap:round; stroke-width:0.25;"/>
<line x1="228.500000" y1="56.000000" x2="228.500000" y2="32.000000"  style="stroke:black; stroke-linecap:round; stroke-width:0.25;"/>
<line x1="236.500000" y1="56.000000" x2="228.500000" y2="56.000000"  style="stroke:black; stroke-linecap:round; stroke-width:0.25;"/>
<line x1="240.500000" y1="56.000000" x2="236.500000" y2="56.000000"  style="stroke:black; stroke-linecap:round; stroke-width:0.25;"/>
<line x1="250.050000" y1="112.000000" x2="254.050000" y2="112.000000"  style="stroke:black; stroke-linecap:round; stroke-width:0.25;"/>
<line x1="254.050000" y1="112.000000" x2="350.300000" y2="112.000000"  style="stroke:black; stroke-linecap:round; stroke-width:0.25;"/>
<line x1="268.500000" y1="52.000000" x2="264.500000" y2="52.000000"  style="stroke:black; stroke-linecap:round; stroke-width:0.25;"/>
<line x1="268.500000" y1="60.000000" x2="264.500000" y2="60.000000"  style="stroke:black; stroke-linecap:round; stroke-width:0.25;"/>
<line x1="268.500000" y1="60.000000" x2="268.500000" y2="60.000000"  style="stroke:black; stroke-linecap:round; stroke-width:0.25;"/>
<line x1="268.500000" y1="88.000000" x2="268.500000" y2="60.000000"  style="stroke:black; stroke-linecap:round; stroke-width:0.25;"/>
<line x1="276.500000" y1="52.000000" x2="268.500000" y2="52.000000"  style="stroke:black; stroke-linecap:round; stroke-width:0.25;"/>
<line x1="276.500000" y1="88.000000" x2="268.500000" y2="88.000000"  style="stroke:black; stroke-linecap:round; stroke-width:0.25;"/>
<line x1="280.500000" y1="52.000000" x2="276.500000" y2="52.000000"  style="stroke:black; stroke-linecap:round; stroke-width:0.25;"/>
<line x1="308.500000" y1="48.000000" x2="304.500000" y2="48.000000"  style="stroke:black; stroke-linecap:round; stroke-width:0.25;"/>
<line x1="308.500000" y1="56.000000" x2="304.500000" y2="56.000000"  style="stroke:black; stroke-linecap:round; stroke-width:0.25;"/>
<line x1="308.500000" y1="56.000000" x2="308.500000" y2="56.000000"  style="stroke:black; stroke-linecap:round; stroke-width:0.25;"/>
<line x1="308.500000" y1="68.000000" x2="308.500000" y2="56.000000"  style="stroke:black; stroke-linecap:round; stroke-width:0.25;"/>
<line x1="313.400000" y1="88.000000" x2="276.500000" y2="88.000000"  style="stroke:black; stroke-linecap:round; stroke-width:0.25;"/>
<line x1="316.500000" y1="36.000000" x2="316.500000" y2="36.000000"  style="stroke:black; stroke-linecap:round; stroke-width:0.25;"/>
<line x1="316.500000" y1="36.000000" x2="316.500000" y2="48.000000"  style="stroke:black; stroke-linecap:round; stroke-width:0.25;"/>
<line x1="316.500000" y1="48.000000" x2="308.500000" y2="48.000000"  style="stroke:black; stroke-linecap:round; stroke-width:0.25;"/>
<line x1="316.500000" y1="68.000000" x2="308.500000" y2="68.000000"  style="stroke:black; stroke-linecap:round; stroke-width:0.25;"/>
<line x1="317.400000" y1="68.000000" x2="316.500000" y2="68.000000"  style="stroke:black; stroke-linecap:round; stroke-width:0.25;"/>
<line x1="320.500000" y1="36.000000" x2="316.500000" y2="36.000000"  style="stroke:black; stroke-linecap:round; stroke-width:0.25;"/>
<line x1="321.400000" y1="68.000000" x2="317.400000" y2="68.000000"  style="stroke:black; stroke-linecap:round; stroke-width:0.25;"/>
<line x1="350.300000" y1="88.000000" x2="313.400000" y2="88.000000"  style="stroke:black; stroke-linecap:round; stroke-width:0.25;"/>
<line x1="350.300000" y1="88.000000" x2="350.300000" y2="88.000000"  style="stroke:black; stroke-linecap:round; stroke-width:0.25;"/>
<line x1="350.300000" y1="108.000000" x2="350.300000" y2="88.000000"  style="stroke:black; stroke-linecap:round; stroke-width:0.25;"/>
<line x1="350.300000" y1="112.000000" x2="352.300000" y2="112.000000"  style="stroke:black; stroke-linecap:round; stroke-width:0.25;"/>
<line x1="352.300000" y1="112.000000" x2="358.300000" y2="112.000000"  style="stroke:black; stroke-linecap:round; stroke-width:0.25;"/>
<line x1="358.300000" y1="76.000000" x2="366.300000" y2="76.000000"  style="stroke:black; stroke-linecap:round; stroke-width:0.25;"/>
<line x1="358.300000" y1="112.000000" x2="358.300000" y2="76.000000"  style="stroke:black; stroke-linecap:round; stroke-width:0.25;"/>
<line x1="358.300000" y1="112.000000" x2="358.300000" y2="112.000000"  style="stroke:black; stroke-linecap:round; stroke-width:0.25;"/>
<line x1="366.300000" y1="76.000000" x2="370.300000" y2="76.000000"  style="stroke:black; stroke-linecap:round; stroke-width:0.25;"/>
<line x1="370.300000" y1="76.000000" x2="374.300000" y2="76.000000"  style="stroke:black; stroke-linecap:round; stroke-width:0.25;"/>
<line x1="374.300000" y1="76.000000" x2="384.300000" y2="76.000000"  style="stroke:black; stroke-linecap:round; stroke-width:0.25;"/>
</svg>
