<?xml version="1.0"?>
<svg xmlns="http://www.w3.org/2000/svg" xmlns:xlink="http://www.w3.org/1999/xlink" viewBox="0 0 509.600000 80.000000" width="254.800000mm" height="40.000000mm" version="1.1">
<a xlink:href="echo-0x7f80d85b0c50.svg">
<rect x="1.000000" y="1.000000" width="508.600000" height="79.000000" rx="0" ry="0" style="stroke:none;fill:#cccccc;"/>
<rect x="0.000000" y="0.000000" width="508.600000" height="79.000000" rx="0" ry="0" style="stroke:none;fill:#ffffff;"/>
</a>
<text x="10.000000" y="7.000000" font-family="Arial" font-size="7"></text>
<rect x="25.000000" y="29.000000" width="219.300000" height="24.000000" rx="0" ry="0" style="stroke:none;fill:#cccccc;"/>
<rect x="24.000000" y="28.000000" width="219.300000" height="24.000000" rx="0" ry="0" style="stroke:none;fill:#477881;"/>
<text x="133.650000" y="42.000000" font-family="Arial" font-size="7" text-anchor="middle" fill="#FFFFFF">hslider(Echo Intensity, 0.1f, 0.01f, 0.9f, 0.01f)</text>
<circle cx="26.000000" cy="30.000000" r="1"/>
<a xlink:href="smooth-0x7f80d8790830.svg">
<rect x="252.300000" y="29.000000" width="64.500000" height="24.000000" rx="0" ry="0" style="stroke:none;fill:#cccccc;"/>
<rect x="251.300000" y="28.000000" width="64.500000" height="24.000000" rx="0" ry="0" style="stroke:none;fill:#003366;"/>
</a>
<a xlink:href="smooth-0x7f80d8790830.svg">
<text x="283.550000" y="42.000000" font-family="Arial" font-size="7" text-anchor="middle" fill="#FFFFFF">smooth(0.999f)</text>
</a>
<circle cx="253.300000" cy="30.000000" r="1"/>
<line x1="248.300000" y1="39.000000" x2="251.300000" y2="40.000000"  transform="rotate(0.000000,251.300000,40.000000)" style="stroke: black; stroke-width:0.25;"/>
<line x1="248.300000" y1="41.000000" x2="251.300000" y2="40.000000"  transform="rotate(0.000000,251.300000,40.000000)" style="stroke: black; stroke-width:0.25;"/>
<rect x="332.800000" y="25.000000" width="24.000000" height="24.000000" rx="0" ry="0" style="stroke:none;fill:#cccccc;"/>
<rect x="331.800000" y="24.000000" width="24.000000" height="24.000000" rx="0" ry="0" style="stroke:none;fill:#f44800;"/>
<text x="343.800000" y="38.000000" font-family="Arial" font-size="7" text-anchor="middle" fill="#FFFFFF">0.9</text>
<circle cx="333.800000" cy="26.000000" r="1"/>
<rect x="372.800000" y="29.000000" width="24.000000" height="24.000000" rx="0" ry="0" style="stroke:none;fill:#cccccc;"/>
<rect x="371.800000" y="28.000000" width="24.000000" height="24.000000" rx="0" ry="0" style="stroke:none;fill:#4B71A1;"/>
<text x="383.800000" y="42.000000" font-family="Arial" font-size="7" text-anchor="middle" fill="#FFFFFF">min</text>
<circle cx="373.800000" cy="30.000000" r="1"/>
<line x1="368.800000" y1="35.000000" x2="371.800000" y2="36.000000"  transform="rotate(0.000000,371.800000,36.000000)" style="stroke: black; stroke-width:0.25;"/>
<line x1="368.800000" y1="37.000000" x2="371.800000" y2="36.000000"  transform="rotate(0.000000,371.800000,36.000000)" style="stroke: black; stroke-width:0.25;"/>
<line x1="368.800000" y1="43.000000" x2="371.800000" y2="44.000000"  transform="rotate(0.000000,371.800000,44.000000)" style="stroke: black; stroke-width:0.25;"/>
<line x1="368.800000" y1="45.000000" x2="371.800000" y2="44.000000"  transform="rotate(0.000000,371.800000,44.000000)" style="stroke: black; stroke-width:0.25;"/>
<rect x="412.800000" y="25.000000" width="25.800000" height="24.000000" rx="0" ry="0" style="stroke:none;fill:#cccccc;"/>
<rect x="411.800000" y="24.000000" width="25.800000" height="24.000000" rx="0" ry="0" style="stroke:none;fill:#f44800;"/>
<text x="424.700000" y="38.000000" font-family="Arial" font-size="7" text-anchor="middle" fill="#FFFFFF">0.01</text>
<circle cx="413.800000" cy="26.000000" r="1"/>
<rect x="454.600000" y="29.000000" width="24.000000" height="24.000000" rx="0" ry="0" style="stroke:none;fill:#cccccc;"/>
<rect x="453.600000" y="28.000000" width="24.000000" height="24.000000" rx="0" ry="0" style="stroke:none;fill:#4B71A1;"/>
<text x="465.600000" y="42.000000" font-family="Arial" font-size="7" text-anchor="middle" fill="#FFFFFF">max</text>
<circle cx="455.600000" cy="30.000000" r="1"/>
<line x1="450.600000" y1="35.000000" x2="453.600000" y2="36.000000"  transform="rotate(0.000000,453.600000,36.000000)" style="stroke: black; stroke-width:0.25;"/>
<line x1="450.600000" y1="37.000000" x2="453.600000" y2="36.000000"  transform="rotate(0.000000,453.600000,36.000000)" style="stroke: black; stroke-width:0.25;"/>
<line x1="450.600000" y1="43.000000" x2="453.600000" y2="44.000000"  transform="rotate(0.000000,453.600000,44.000000)" style="stroke: black; stroke-width:0.25;"/>
<line x1="450.600000" y1="45.000000" x2="453.600000" y2="44.000000"  transform="rotate(0.000000,453.600000,44.000000)" style="stroke: black; stroke-width:0.25;"/>
<line x1="15.000000" y1="15.000000" x2="15.000000" y2="65.000000"  style="stroke: black; stroke-linecap:round; stroke-width:0.25; stroke-dasharray:3,3;"/>
<line x1="15.000000" y1="65.000000" x2="494.600000" y2="65.000000"  style="stroke: black; stroke-linecap:round; stroke-width:0.25; stroke-dasharray:3,3;"/>
<line x1="494.600000" y1="65.000000" x2="494.600000" y2="15.000000"  style="stroke: black; stroke-linecap:round; stroke-width:0.25; stroke-dasharray:3,3;"/>
<line x1="15.000000" y1="15.000000" x2="20.000000" y2="15.000000"  style="stroke: black; stroke-linecap:round; stroke-width:0.25; stroke-dasharray:3,3;"/>
<line x1="52.250000" y1="15.000000" x2="494.600000" y2="15.000000"  style="stroke: black; stroke-linecap:round; stroke-width:0.25; stroke-dasharray:3,3;"/>
<text x="20.000000" y="17.000000" font-family="Arial" font-size="7">feedback</text>
<line x1="496.600000" y1="39.000000" x2="499.600000" y2="40.000000"  transform="rotate(0.000000,499.600000,40.000000)" style="stroke: black; stroke-width:0.25;"/>
<line x1="496.600000" y1="41.000000" x2="499.600000" y2="40.000000"  transform="rotate(0.000000,499.600000,40.000000)" style="stroke: black; stroke-width:0.25;"/>
<line x1="243.300000" y1="40.000000" x2="247.300000" y2="40.000000"  style="stroke:black; stroke-linecap:round; stroke-width:0.25;"/>
<line x1="247.300000" y1="40.000000" x2="247.300000" y2="40.000000"  style="stroke:black; stroke-linecap:round; stroke-width:0.25;"/>
<line x1="247.300000" y1="40.000000" x2="251.300000" y2="40.000000"  style="stroke:black; stroke-linecap:round; stroke-width:0.25;"/>
<line x1="315.800000" y1="40.000000" x2="319.800000" y2="40.000000"  style="stroke:black; stroke-linecap:round; stroke-width:0.25;"/>
<line x1="319.800000" y1="40.000000" x2="327.800000" y2="40.000000"  style="stroke:black; stroke-linecap:round; stroke-width:0.25;"/>
<line x1="327.800000" y1="40.000000" x2="327.800000" y2="56.000000"  style="stroke:black; stroke-linecap:round; stroke-width:0.25;"/>
<line x1="327.800000" y1="56.000000" x2="327.800000" y2="56.000000"  style="stroke:black; stroke-linecap:round; stroke-width:0.25;"/>
<line x1="327.800000" y1="56.000000" x2="343.800000" y2="56.000000"  style="stroke:black; stroke-linecap:round; stroke-width:0.25;"/>
<line x1="343.800000" y1="56.000000" x2="359.800000" y2="56.000000"  style="stroke:black; stroke-linecap:round; stroke-width:0.25;"/>
<line x1="355.800000" y1="36.000000" x2="359.800000" y2="36.000000"  style="stroke:black; stroke-linecap:round; stroke-width:0.25;"/>
<line x1="359.800000" y1="36.000000" x2="367.800000" y2="36.000000"  style="stroke:black; stroke-linecap:round; stroke-width:0.25;"/>
<line x1="359.800000" y1="44.000000" x2="367.800000" y2="44.000000"  style="stroke:black; stroke-linecap:round; stroke-width:0.25;"/>
<line x1="359.800000" y1="56.000000" x2="359.800000" y2="44.000000"  style="stroke:black; stroke-linecap:round; stroke-width:0.25;"/>
<line x1="359.800000" y1="56.000000" x2="359.800000" y2="56.000000"  style="stroke:black; stroke-linecap:round; stroke-width:0.25;"/>
<line x1="367.800000" y1="36.000000" x2="371.800000" y2="36.000000"  style="stroke:black; stroke-linecap:round; stroke-width:0.25;"/>
<line x1="367.800000" y1="44.000000" x2="371.800000" y2="44.000000"  style="stroke:black; stroke-linecap:round; stroke-width:0.25;"/>
<line x1="395.800000" y1="40.000000" x2="399.800000" y2="40.000000"  style="stroke:black; stroke-linecap:round; stroke-width:0.25;"/>
<line x1="399.800000" y1="40.000000" x2="407.800000" y2="40.000000"  style="stroke:black; stroke-linecap:round; stroke-width:0.25;"/>
<line x1="407.800000" y1="40.000000" x2="407.800000" y2="56.000000"  style="stroke:black; stroke-linecap:round; stroke-width:0.25;"/>
<line x1="407.800000" y1="56.000000" x2="407.800000" y2="56.000000"  style="stroke:black; stroke-linecap:round; stroke-width:0.25;"/>
<line x1="407.800000" y1="56.000000" x2="424.700000" y2="56.000000"  style="stroke:black; stroke-linecap:round; stroke-width:0.25;"/>
<line x1="424.700000" y1="56.000000" x2="441.600000" y2="56.000000"  style="stroke:black; stroke-linecap:round; stroke-width:0.25;"/>
<line x1="437.600000" y1="36.000000" x2="441.600000" y2="36.000000"  style="stroke:black; stroke-linecap:round; stroke-width:0.25;"/>
<line x1="441.600000" y1="44.000000" x2="449.600000" y2="44.000000"  style="stroke:black; stroke-linecap:round; stroke-width:0.25;"/>
<line x1="441.600000" y1="56.000000" x2="441.600000" y2="44.000000"  style="stroke:black; stroke-linecap:round; stroke-width:0.25;"/>
<line x1="441.600000" y1="56.000000" x2="441.600000" y2="56.000000"  style="stroke:black; stroke-linecap:round; stroke-width:0.25;"/>
<line x1="441.600000" y1="36.000000" x2="449.600000" y2="36.000000"  style="stroke:black; stroke-linecap:round; stroke-width:0.25;"/>
<line x1="449.600000" y1="36.000000" x2="453.600000" y2="36.000000"  style="stroke:black; stroke-linecap:round; stroke-width:0.25;"/>
<line x1="449.600000" y1="44.000000" x2="453.600000" y2="44.000000"  style="stroke:black; stroke-linecap:round; stroke-width:0.25;"/>
<line x1="477.600000" y1="40.000000" x2="481.600000" y2="40.000000"  style="stroke:black; stroke-linecap:round; stroke-width:0.25;"/>
<line x1="481.600000" y1="40.000000" x2="481.600000" y2="40.000000"  style="stroke:black; stroke-linecap:round; stroke-width:0.25;"/>
<line x1="481.600000" y1="40.000000" x2="485.600000" y2="40.000000"  style="stroke:black; stroke-linecap:round; stroke-width:0.25;"/>
<line x1="485.600000" y1="40.000000" x2="489.600000" y2="40.000000"  style="stroke:black; stroke-linecap:round; stroke-width:0.25;"/>
<line x1="489.600000" y1="40.000000" x2="499.600000" y2="40.000000"  style="stroke:black; stroke-linecap:round; stroke-width:0.25;"/>
</svg>
