<?xml version="1.0"?>
<svg xmlns="http://www.w3.org/2000/svg" xmlns:xlink="http://www.w3.org/1999/xlink" viewBox="0 0 469.100000 80.000000" width="234.550000mm" height="40.000000mm" version="1.1">
<a xlink:href="octave-0x7f80d876f9c0.svg">
<rect x="1.000000" y="1.000000" width="468.100000" height="79.000000" rx="0" ry="0" style="stroke:none;fill:#cccccc;"/>
<rect x="0.000000" y="0.000000" width="468.100000" height="79.000000" rx="0" ry="0" style="stroke:none;fill:#ffffff;"/>
</a>
<text x="10.000000" y="7.000000" font-family="Arial" font-size="7"></text>
<rect x="25.000000" y="29.000000" width="180.600000" height="24.000000" rx="0" ry="0" style="stroke:none;fill:#cccccc;"/>
<rect x="24.000000" y="28.000000" width="180.600000" height="24.000000" rx="0" ry="0" style="stroke:none;fill:#477881;"/>
<text x="114.300000" y="42.000000" font-family="Arial" font-size="7" text-anchor="middle" fill="#FFFFFF">hslider(Hight, 5.0f, 1.0f, 1e+01f, 0.3f)</text>
<circle cx="26.000000" cy="30.000000" r="1"/>
<a xlink:href="smooth-0x7f80d876e830.svg">
<rect x="213.600000" y="29.000000" width="64.500000" height="24.000000" rx="0" ry="0" style="stroke:none;fill:#cccccc;"/>
<rect x="212.600000" y="28.000000" width="64.500000" height="24.000000" rx="0" ry="0" style="stroke:none;fill:#003366;"/>
</a>
<a xlink:href="smooth-0x7f80d876e830.svg">
<text x="244.850000" y="42.000000" font-family="Arial" font-size="7" text-anchor="middle" fill="#FFFFFF">smooth(0.99f)</text>
</a>
<circle cx="214.600000" cy="30.000000" r="1"/>
<line x1="209.600000" y1="39.000000" x2="212.600000" y2="40.000000"  transform="rotate(0.000000,212.600000,40.000000)" style="stroke: black; stroke-width:0.25;"/>
<line x1="209.600000" y1="41.000000" x2="212.600000" y2="40.000000"  transform="rotate(0.000000,212.600000,40.000000)" style="stroke: black; stroke-width:0.25;"/>
<rect x="294.100000" y="25.000000" width="24.000000" height="24.000000" rx="0" ry="0" style="stroke:none;fill:#cccccc;"/>
<rect x="293.100000" y="24.000000" width="24.000000" height="24.000000" rx="0" ry="0" style="stroke:none;fill:#f44800;"/>
<text x="305.100000" y="38.000000" font-family="Arial" font-size="7" text-anchor="middle" fill="#FFFFFF">12</text>
<circle cx="295.100000" cy="26.000000" r="1"/>
<rect x="334.100000" y="29.000000" width="24.000000" height="24.000000" rx="0" ry="0" style="stroke:none;fill:#cccccc;"/>
<rect x="333.100000" y="28.000000" width="24.000000" height="24.000000" rx="0" ry="0" style="stroke:none;fill:#4B71A1;"/>
<text x="345.100000" y="42.000000" font-family="Arial" font-size="7" text-anchor="middle" fill="#FFFFFF">min</text>
<circle cx="335.100000" cy="30.000000" r="1"/>
<line x1="330.100000" y1="35.000000" x2="333.100000" y2="36.000000"  transform="rotate(0.000000,333.100000,36.000000)" style="stroke: black; stroke-width:0.25;"/>
<line x1="330.100000" y1="37.000000" x2="333.100000" y2="36.000000"  transform="rotate(0.000000,333.100000,36.000000)" style="stroke: black; stroke-width:0.25;"/>
<line x1="330.100000" y1="43.000000" x2="333.100000" y2="44.000000"  transform="rotate(0.000000,333.100000,44.000000)" style="stroke: black; stroke-width:0.25;"/>
<line x1="330.100000" y1="45.000000" x2="333.100000" y2="44.000000"  transform="rotate(0.000000,333.100000,44.000000)" style="stroke: black; stroke-width:0.25;"/>
<rect x="374.100000" y="25.000000" width="24.000000" height="24.000000" rx="0" ry="0" style="stroke:none;fill:#cccccc;"/>
<rect x="373.100000" y="24.000000" width="24.000000" height="24.000000" rx="0" ry="0" style="stroke:none;fill:#f44800;"/>
<text x="385.100000" y="38.000000" font-family="Arial" font-size="7" text-anchor="middle" fill="#FFFFFF">1</text>
<circle cx="375.100000" cy="26.000000" r="1"/>
<rect x="414.100000" y="29.000000" width="24.000000" height="24.000000" rx="0" ry="0" style="stroke:none;fill:#cccccc;"/>
<rect x="413.100000" y="28.000000" width="24.000000" height="24.000000" rx="0" ry="0" style="stroke:none;fill:#4B71A1;"/>
<text x="425.100000" y="42.000000" font-family="Arial" font-size="7" text-anchor="middle" fill="#FFFFFF">max</text>
<circle cx="415.100000" cy="30.000000" r="1"/>
<line x1="410.100000" y1="35.000000" x2="413.100000" y2="36.000000"  transform="rotate(0.000000,413.100000,36.000000)" style="stroke: black; stroke-width:0.25;"/>
<line x1="410.100000" y1="37.000000" x2="413.100000" y2="36.000000"  transform="rotate(0.000000,413.100000,36.000000)" style="stroke: black; stroke-width:0.25;"/>
<line x1="410.100000" y1="43.000000" x2="413.100000" y2="44.000000"  transform="rotate(0.000000,413.100000,44.000000)" style="stroke: black; stroke-width:0.25;"/>
<line x1="410.100000" y1="45.000000" x2="413.100000" y2="44.000000"  transform="rotate(0.000000,413.100000,44.000000)" style="stroke: black; stroke-width:0.25;"/>
<line x1="15.000000" y1="15.000000" x2="15.000000" y2="65.000000"  style="stroke: black; stroke-linecap:round; stroke-width:0.25; stroke-dasharray:3,3;"/>
<line x1="15.000000" y1="65.000000" x2="454.100000" y2="65.000000"  style="stroke: black; stroke-linecap:round; stroke-width:0.25; stroke-dasharray:3,3;"/>
<line x1="454.100000" y1="65.000000" x2="454.100000" y2="15.000000"  style="stroke: black; stroke-linecap:round; stroke-width:0.25; stroke-dasharray:3,3;"/>
<line x1="15.000000" y1="15.000000" x2="20.000000" y2="15.000000"  style="stroke: black; stroke-linecap:round; stroke-width:0.25; stroke-dasharray:3,3;"/>
<line x1="42.575000" y1="15.000000" x2="454.100000" y2="15.000000"  style="stroke: black; stroke-linecap:round; stroke-width:0.25; stroke-dasharray:3,3;"/>
<text x="20.000000" y="17.000000" font-family="Arial" font-size="7">hight</text>
<line x1="456.100000" y1="39.000000" x2="459.100000" y2="40.000000"  transform="rotate(0.000000,459.100000,40.000000)" style="stroke: black; stroke-width:0.25;"/>
<line x1="456.100000" y1="41.000000" x2="459.100000" y2="40.000000"  transform="rotate(0.000000,459.100000,40.000000)" style="stroke: black; stroke-width:0.25;"/>
<line x1="204.600000" y1="40.000000" x2="208.600000" y2="40.000000"  style="stroke:black; stroke-linecap:round; stroke-width:0.25;"/>
<line x1="208.600000" y1="40.000000" x2="208.600000" y2="40.000000"  style="stroke:black; stroke-linecap:round; stroke-width:0.25;"/>
<line x1="208.600000" y1="40.000000" x2="212.600000" y2="40.000000"  style="stroke:black; stroke-linecap:round; stroke-width:0.25;"/>
<line x1="277.100000" y1="40.000000" x2="281.100000" y2="40.000000"  style="stroke:black; stroke-linecap:round; stroke-width:0.25;"/>
<line x1="281.100000" y1="40.000000" x2="289.100000" y2="40.000000"  style="stroke:black; stroke-linecap:round; stroke-width:0.25;"/>
<line x1="289.100000" y1="40.000000" x2="289.100000" y2="56.000000"  style="stroke:black; stroke-linecap:round; stroke-width:0.25;"/>
<line x1="289.100000" y1="56.000000" x2="289.100000" y2="56.000000"  style="stroke:black; stroke-linecap:round; stroke-width:0.25;"/>
<line x1="289.100000" y1="56.000000" x2="305.100000" y2="56.000000"  style="stroke:black; stroke-linecap:round; stroke-width:0.25;"/>
<line x1="305.100000" y1="56.000000" x2="321.100000" y2="56.000000"  style="stroke:black; stroke-linecap:round; stroke-width:0.25;"/>
<line x1="317.100000" y1="36.000000" x2="321.100000" y2="36.000000"  style="stroke:black; stroke-linecap:round; stroke-width:0.25;"/>
<line x1="321.100000" y1="36.000000" x2="329.100000" y2="36.000000"  style="stroke:black; stroke-linecap:round; stroke-width:0.25;"/>
<line x1="321.100000" y1="44.000000" x2="329.100000" y2="44.000000"  style="stroke:black; stroke-linecap:round; stroke-width:0.25;"/>
<line x1="321.100000" y1="56.000000" x2="321.100000" y2="44.000000"  style="stroke:black; stroke-linecap:round; stroke-width:0.25;"/>
<line x1="321.100000" y1="56.000000" x2="321.100000" y2="56.000000"  style="stroke:black; stroke-linecap:round; stroke-width:0.25;"/>
<line x1="329.100000" y1="36.000000" x2="333.100000" y2="36.000000"  style="stroke:black; stroke-linecap:round; stroke-width:0.25;"/>
<line x1="329.100000" y1="44.000000" x2="333.100000" y2="44.000000"  style="stroke:black; stroke-linecap:round; stroke-width:0.25;"/>
<line x1="357.100000" y1="40.000000" x2="361.100000" y2="40.000000"  style="stroke:black; stroke-linecap:round; stroke-width:0.25;"/>
<line x1="361.100000" y1="40.000000" x2="369.100000" y2="40.000000"  style="stroke:black; stroke-linecap:round; stroke-width:0.25;"/>
<line x1="369.100000" y1="40.000000" x2="369.100000" y2="56.000000"  style="stroke:black; stroke-linecap:round; stroke-width:0.25;"/>
<line x1="369.100000" y1="56.000000" x2="369.100000" y2="56.000000"  style="stroke:black; stroke-linecap:round; stroke-width:0.25;"/>
<line x1="369.100000" y1="56.000000" x2="385.100000" y2="56.000000"  style="stroke:black; stroke-linecap:round; stroke-width:0.25;"/>
<line x1="385.100000" y1="56.000000" x2="401.100000" y2="56.000000"  style="stroke:black; stroke-linecap:round; stroke-width:0.25;"/>
<line x1="397.100000" y1="36.000000" x2="401.100000" y2="36.000000"  style="stroke:black; stroke-linecap:round; stroke-width:0.25;"/>
<line x1="401.100000" y1="36.000000" x2="409.100000" y2="36.000000"  style="stroke:black; stroke-linecap:round; stroke-width:0.25;"/>
<line x1="401.100000" y1="44.000000" x2="409.100000" y2="44.000000"  style="stroke:black; stroke-linecap:round; stroke-width:0.25;"/>
<line x1="401.100000" y1="56.000000" x2="401.100000" y2="44.000000"  style="stroke:black; stroke-linecap:round; stroke-width:0.25;"/>
<line x1="401.100000" y1="56.000000" x2="401.100000" y2="56.000000"  style="stroke:black; stroke-linecap:round; stroke-width:0.25;"/>
<line x1="409.100000" y1="36.000000" x2="413.100000" y2="36.000000"  style="stroke:black; stroke-linecap:round; stroke-width:0.25;"/>
<line x1="409.100000" y1="44.000000" x2="413.100000" y2="44.000000"  style="stroke:black; stroke-linecap:round; stroke-width:0.25;"/>
<line x1="437.100000" y1="40.000000" x2="441.100000" y2="40.000000"  style="stroke:black; stroke-linecap:round; stroke-width:0.25;"/>
<line x1="441.100000" y1="40.000000" x2="441.100000" y2="40.000000"  style="stroke:black; stroke-linecap:round; stroke-width:0.25;"/>
<line x1="441.100000" y1="40.000000" x2="445.100000" y2="40.000000"  style="stroke:black; stroke-linecap:round; stroke-width:0.25;"/>
<line x1="445.100000" y1="40.000000" x2="449.100000" y2="40.000000"  style="stroke:black; stroke-linecap:round; stroke-width:0.25;"/>
<line x1="449.100000" y1="40.000000" x2="459.100000" y2="40.000000"  style="stroke:black; stroke-linecap:round; stroke-width:0.25;"/>
</svg>
