<?xml version="1.0"?>
<svg xmlns="http://www.w3.org/2000/svg" xmlns:xlink="http://www.w3.org/1999/xlink" viewBox="0 0 416.800000 180.000000" width="208.400000mm" height="90.000000mm" version="1.1">
<rect x="1.000000" y="1.000000" width="415.800000" height="179.000000" rx="0" ry="0" style="stroke:none;fill:#cccccc;"/>
<rect x="0.000000" y="0.000000" width="415.800000" height="179.000000" rx="0" ry="0" style="stroke:none;fill:#ffffff;"/>
<text x="10.000000" y="7.000000" font-family="Arial" font-size="7"></text>
<a xlink:href="h-0x7fa2f4eaacf0.svg">
<rect x="35.000000" y="79.000000" width="24.000000" height="24.000000" rx="0" ry="0" style="stroke:none;fill:#cccccc;"/>
<rect x="34.000000" y="78.000000" width="24.000000" height="24.000000" rx="0" ry="0" style="stroke:none;fill:#003366;"/>
</a>
<a xlink:href="h-0x7fa2f4eaacf0.svg">
<text x="46.000000" y="92.000000" font-family="Arial" font-size="7" text-anchor="middle" fill="#FFFFFF">h</text>
</a>
<circle cx="36.000000" cy="80.000000" r="1"/>
<a xlink:href="harpe-0x7fa2f50c1910.svg">
<rect x="67.000000" y="79.000000" width="90.300000" height="24.000000" rx="0" ry="0" style="stroke:none;fill:#cccccc;"/>
<rect x="66.000000" y="78.000000" width="90.300000" height="24.000000" rx="0" ry="0" style="stroke:none;fill:#003366;"/>
</a>
<a xlink:href="harpe-0x7fa2f50c1910.svg">
<text x="111.150000" y="92.000000" font-family="Arial" font-size="7" text-anchor="middle" fill="#FFFFFF">harpe(0.5f)(21)(48)</text>
</a>
<circle cx="68.000000" cy="80.000000" r="1"/>
<line x1="63.000000" y1="89.000000" x2="66.000000" y2="90.000000"  transform="rotate(0.000000,66.000000,90.000000)" style="stroke: black; stroke-width:0.25;"/>
<line x1="63.000000" y1="91.000000" x2="66.000000" y2="90.000000"  transform="rotate(0.000000,66.000000,90.000000)" style="stroke: black; stroke-width:0.25;"/>
<a xlink:href="instrReverbHarp-0x7fa2f51e7720.svg">
<rect x="203.300000" y="79.000000" width="64.500000" height="24.000000" rx="0" ry="0" style="stroke:none;fill:#cccccc;"/>
<rect x="202.300000" y="78.000000" width="64.500000" height="24.000000" rx="0" ry="0" style="stroke:none;fill:#003366;"/>
</a>
<a xlink:href="instrReverbHarp-0x7fa2f51e7720.svg">
<text x="234.550000" y="92.000000" font-family="Arial" font-size="7" text-anchor="middle" fill="#FFFFFF">instrReverbHarp</text>
</a>
<circle cx="204.300000" cy="80.000000" r="1"/>
<line x1="199.300000" y1="85.000000" x2="202.300000" y2="86.000000"  transform="rotate(0.000000,202.300000,86.000000)" style="stroke: black; stroke-width:0.25;"/>
<line x1="199.300000" y1="87.000000" x2="202.300000" y2="86.000000"  transform="rotate(0.000000,202.300000,86.000000)" style="stroke: black; stroke-width:0.25;"/>
<line x1="199.300000" y1="93.000000" x2="202.300000" y2="94.000000"  transform="rotate(0.000000,202.300000,94.000000)" style="stroke: black; stroke-width:0.25;"/>
<line x1="199.300000" y1="95.000000" x2="202.300000" y2="94.000000"  transform="rotate(0.000000,202.300000,94.000000)" style="stroke: black; stroke-width:0.25;"/>
<rect x="293.800000" y="53.000000" width="24.000000" height="24.000000" rx="0" ry="0" style="stroke:none;fill:#cccccc;"/>
<rect x="292.800000" y="52.000000" width="24.000000" height="24.000000" rx="0" ry="0" style="stroke:none;fill:#f44800;"/>
<text x="304.800000" y="66.000000" font-family="Arial" font-size="7" text-anchor="middle" fill="#FFFFFF">0.9</text>
<circle cx="294.800000" cy="54.000000" r="1"/>
<line x1="283.800000" y1="43.000000" x2="283.800000" y2="85.000000"  style="stroke: black; stroke-linecap:round; stroke-width:0.25; stroke-dasharray:3,3;"/>
<line x1="283.800000" y1="85.000000" x2="325.800000" y2="85.000000"  style="stroke: black; stroke-linecap:round; stroke-width:0.25; stroke-dasharray:3,3;"/>
<line x1="325.800000" y1="85.000000" x2="325.800000" y2="43.000000"  style="stroke: black; stroke-linecap:round; stroke-width:0.25; stroke-dasharray:3,3;"/>
<line x1="283.800000" y1="43.000000" x2="288.800000" y2="43.000000"  style="stroke: black; stroke-linecap:round; stroke-width:0.25; stroke-dasharray:3,3;"/>
<line x1="298.475000" y1="43.000000" x2="325.800000" y2="43.000000"  style="stroke: black; stroke-linecap:round; stroke-width:0.25; stroke-dasharray:3,3;"/>
<text x="288.800000" y="45.000000" font-family="Arial" font-size="7">l</text>
<rect x="343.800000" y="49.000000" width="24.000000" height="24.000000" rx="0" ry="0" style="stroke:none;fill:#cccccc;"/>
<rect x="342.800000" y="48.000000" width="24.000000" height="24.000000" rx="0" ry="0" style="stroke:none;fill:#4B71A1;"/>
<text x="354.800000" y="62.000000" font-family="Arial" font-size="7" text-anchor="middle" fill="#FFFFFF">*</text>
<circle cx="344.800000" cy="50.000000" r="1"/>
<line x1="339.800000" y1="55.000000" x2="342.800000" y2="56.000000"  transform="rotate(0.000000,342.800000,56.000000)" style="stroke: black; stroke-width:0.25;"/>
<line x1="339.800000" y1="57.000000" x2="342.800000" y2="56.000000"  transform="rotate(0.000000,342.800000,56.000000)" style="stroke: black; stroke-width:0.25;"/>
<line x1="339.800000" y1="63.000000" x2="342.800000" y2="64.000000"  transform="rotate(0.000000,342.800000,64.000000)" style="stroke: black; stroke-width:0.25;"/>
<line x1="339.800000" y1="65.000000" x2="342.800000" y2="64.000000"  transform="rotate(0.000000,342.800000,64.000000)" style="stroke: black; stroke-width:0.25;"/>
<rect x="293.800000" y="113.000000" width="24.000000" height="24.000000" rx="0" ry="0" style="stroke:none;fill:#cccccc;"/>
<rect x="292.800000" y="112.000000" width="24.000000" height="24.000000" rx="0" ry="0" style="stroke:none;fill:#f44800;"/>
<text x="304.800000" y="126.000000" font-family="Arial" font-size="7" text-anchor="middle" fill="#FFFFFF">0.9</text>
<circle cx="294.800000" cy="114.000000" r="1"/>
<line x1="283.800000" y1="103.000000" x2="283.800000" y2="145.000000"  style="stroke: black; stroke-linecap:round; stroke-width:0.25; stroke-dasharray:3,3;"/>
<line x1="283.800000" y1="145.000000" x2="325.800000" y2="145.000000"  style="stroke: black; stroke-linecap:round; stroke-width:0.25; stroke-dasharray:3,3;"/>
<line x1="325.800000" y1="145.000000" x2="325.800000" y2="103.000000"  style="stroke: black; stroke-linecap:round; stroke-width:0.25; stroke-dasharray:3,3;"/>
<line x1="283.800000" y1="103.000000" x2="288.800000" y2="103.000000"  style="stroke: black; stroke-linecap:round; stroke-width:0.25; stroke-dasharray:3,3;"/>
<line x1="298.475000" y1="103.000000" x2="325.800000" y2="103.000000"  style="stroke: black; stroke-linecap:round; stroke-width:0.25; stroke-dasharray:3,3;"/>
<text x="288.800000" y="105.000000" font-family="Arial" font-size="7">l</text>
<rect x="343.800000" y="109.000000" width="24.000000" height="24.000000" rx="0" ry="0" style="stroke:none;fill:#cccccc;"/>
<rect x="342.800000" y="108.000000" width="24.000000" height="24.000000" rx="0" ry="0" style="stroke:none;fill:#4B71A1;"/>
<text x="354.800000" y="122.000000" font-family="Arial" font-size="7" text-anchor="middle" fill="#FFFFFF">*</text>
<circle cx="344.800000" cy="110.000000" r="1"/>
<line x1="339.800000" y1="115.000000" x2="342.800000" y2="116.000000"  transform="rotate(0.000000,342.800000,116.000000)" style="stroke: black; stroke-width:0.25;"/>
<line x1="339.800000" y1="117.000000" x2="342.800000" y2="116.000000"  transform="rotate(0.000000,342.800000,116.000000)" style="stroke: black; stroke-width:0.25;"/>
<line x1="339.800000" y1="123.000000" x2="342.800000" y2="124.000000"  transform="rotate(0.000000,342.800000,124.000000)" style="stroke: black; stroke-width:0.25;"/>
<line x1="339.800000" y1="125.000000" x2="342.800000" y2="124.000000"  transform="rotate(0.000000,342.800000,124.000000)" style="stroke: black; stroke-width:0.25;"/>
<line x1="25.000000" y1="25.000000" x2="25.000000" y2="155.000000"  style="stroke: black; stroke-linecap:round; stroke-width:0.25; stroke-dasharray:3,3;"/>
<line x1="25.000000" y1="155.000000" x2="375.800000" y2="155.000000"  style="stroke: black; stroke-linecap:round; stroke-width:0.25; stroke-dasharray:3,3;"/>
<line x1="375.800000" y1="155.000000" x2="375.800000" y2="25.000000"  style="stroke: black; stroke-linecap:round; stroke-width:0.25; stroke-dasharray:3,3;"/>
<line x1="25.000000" y1="25.000000" x2="30.000000" y2="25.000000"  style="stroke: black; stroke-linecap:round; stroke-width:0.25; stroke-dasharray:3,3;"/>
<line x1="75.150000" y1="25.000000" x2="375.800000" y2="25.000000"  style="stroke: black; stroke-linecap:round; stroke-width:0.25; stroke-dasharray:3,3;"/>
<text x="30.000000" y="27.000000" font-family="Arial" font-size="7">vgroup(Harp)</text>
<line x1="15.000000" y1="15.000000" x2="15.000000" y2="165.000000"  style="stroke: black; stroke-linecap:round; stroke-width:0.25; stroke-dasharray:3,3;"/>
<line x1="15.000000" y1="165.000000" x2="401.800000" y2="165.000000"  style="stroke: black; stroke-linecap:round; stroke-width:0.25; stroke-dasharray:3,3;"/>
<line x1="401.800000" y1="165.000000" x2="401.800000" y2="15.000000"  style="stroke: black; stroke-linecap:round; stroke-width:0.25; stroke-dasharray:3,3;"/>
<line x1="15.000000" y1="15.000000" x2="20.000000" y2="15.000000"  style="stroke: black; stroke-linecap:round; stroke-width:0.25; stroke-dasharray:3,3;"/>
<line x1="49.025000" y1="15.000000" x2="401.800000" y2="15.000000"  style="stroke: black; stroke-linecap:round; stroke-width:0.25; stroke-dasharray:3,3;"/>
<text x="20.000000" y="17.000000" font-family="Arial" font-size="7">process</text>
<line x1="403.800000" y1="85.000000" x2="406.800000" y2="86.000000"  transform="rotate(0.000000,406.800000,86.000000)" style="stroke: black; stroke-width:0.25;"/>
<line x1="403.800000" y1="87.000000" x2="406.800000" y2="86.000000"  transform="rotate(0.000000,406.800000,86.000000)" style="stroke: black; stroke-width:0.25;"/>
<line x1="403.800000" y1="93.000000" x2="406.800000" y2="94.000000"  transform="rotate(0.000000,406.800000,94.000000)" style="stroke: black; stroke-width:0.25;"/>
<line x1="403.800000" y1="95.000000" x2="406.800000" y2="94.000000"  transform="rotate(0.000000,406.800000,94.000000)" style="stroke: black; stroke-width:0.25;"/>
<line x1="58.000000" y1="90.000000" x2="62.000000" y2="90.000000"  style="stroke:black; stroke-linecap:round; stroke-width:0.25;"/>
<line x1="62.000000" y1="90.000000" x2="62.000000" y2="90.000000"  style="stroke:black; stroke-linecap:round; stroke-width:0.25;"/>
<line x1="62.000000" y1="90.000000" x2="66.000000" y2="90.000000"  style="stroke:black; stroke-linecap:round; stroke-width:0.25;"/>
<line x1="156.300000" y1="86.000000" x2="160.300000" y2="86.000000"  style="stroke:black; stroke-linecap:round; stroke-width:0.25;"/>
<line x1="156.300000" y1="94.000000" x2="160.300000" y2="94.000000"  style="stroke:black; stroke-linecap:round; stroke-width:0.25;"/>
<line x1="160.300000" y1="86.000000" x2="198.300000" y2="86.000000"  style="stroke:black; stroke-linecap:round; stroke-width:0.25;"/>
<line x1="160.300000" y1="94.000000" x2="198.300000" y2="94.000000"  style="stroke:black; stroke-linecap:round; stroke-width:0.25;"/>
<line x1="198.300000" y1="86.000000" x2="202.300000" y2="86.000000"  style="stroke:black; stroke-linecap:round; stroke-width:0.25;"/>
<line x1="198.300000" y1="94.000000" x2="202.300000" y2="94.000000"  style="stroke:black; stroke-linecap:round; stroke-width:0.25;"/>
<line x1="266.800000" y1="86.000000" x2="270.800000" y2="86.000000"  style="stroke:black; stroke-linecap:round; stroke-width:0.25;"/>
<line x1="266.800000" y1="94.000000" x2="270.800000" y2="94.000000"  style="stroke:black; stroke-linecap:round; stroke-width:0.25;"/>
<line x1="270.800000" y1="34.000000" x2="278.800000" y2="34.000000"  style="stroke:black; stroke-linecap:round; stroke-width:0.25;"/>
<line x1="270.800000" y1="86.000000" x2="270.800000" y2="34.000000"  style="stroke:black; stroke-linecap:round; stroke-width:0.25;"/>
<line x1="270.800000" y1="86.000000" x2="270.800000" y2="86.000000"  style="stroke:black; stroke-linecap:round; stroke-width:0.25;"/>
<line x1="270.800000" y1="94.000000" x2="278.800000" y2="94.000000"  style="stroke:black; stroke-linecap:round; stroke-width:0.25;"/>
<line x1="278.800000" y1="34.000000" x2="304.800000" y2="34.000000"  style="stroke:black; stroke-linecap:round; stroke-width:0.25;"/>
<line x1="278.800000" y1="94.000000" x2="304.800000" y2="94.000000"  style="stroke:black; stroke-linecap:round; stroke-width:0.25;"/>
<line x1="304.800000" y1="34.000000" x2="330.800000" y2="34.000000"  style="stroke:black; stroke-linecap:round; stroke-width:0.25;"/>
<line x1="304.800000" y1="94.000000" x2="330.800000" y2="94.000000"  style="stroke:black; stroke-linecap:round; stroke-width:0.25;"/>
<line x1="316.800000" y1="64.000000" x2="320.800000" y2="64.000000"  style="stroke:black; stroke-linecap:round; stroke-width:0.25;"/>
<line x1="316.800000" y1="124.000000" x2="320.800000" y2="124.000000"  style="stroke:black; stroke-linecap:round; stroke-width:0.25;"/>
<line x1="320.800000" y1="64.000000" x2="330.800000" y2="64.000000"  style="stroke:black; stroke-linecap:round; stroke-width:0.25;"/>
<line x1="320.800000" y1="124.000000" x2="330.800000" y2="124.000000"  style="stroke:black; stroke-linecap:round; stroke-width:0.25;"/>
<line x1="330.800000" y1="34.000000" x2="338.800000" y2="34.000000"  style="stroke:black; stroke-linecap:round; stroke-width:0.25;"/>
<line x1="330.800000" y1="64.000000" x2="338.800000" y2="64.000000"  style="stroke:black; stroke-linecap:round; stroke-width:0.25;"/>
<line x1="330.800000" y1="94.000000" x2="338.800000" y2="94.000000"  style="stroke:black; stroke-linecap:round; stroke-width:0.25;"/>
<line x1="330.800000" y1="124.000000" x2="338.800000" y2="124.000000"  style="stroke:black; stroke-linecap:round; stroke-width:0.25;"/>
<line x1="338.800000" y1="34.000000" x2="338.800000" y2="56.000000"  style="stroke:black; stroke-linecap:round; stroke-width:0.25;"/>
<line x1="338.800000" y1="56.000000" x2="338.800000" y2="56.000000"  style="stroke:black; stroke-linecap:round; stroke-width:0.25;"/>
<line x1="338.800000" y1="56.000000" x2="342.800000" y2="56.000000"  style="stroke:black; stroke-linecap:round; stroke-width:0.25;"/>
<line x1="338.800000" y1="64.000000" x2="342.800000" y2="64.000000"  style="stroke:black; stroke-linecap:round; stroke-width:0.25;"/>
<line x1="338.800000" y1="94.000000" x2="338.800000" y2="116.000000"  style="stroke:black; stroke-linecap:round; stroke-width:0.25;"/>
<line x1="338.800000" y1="116.000000" x2="338.800000" y2="116.000000"  style="stroke:black; stroke-linecap:round; stroke-width:0.25;"/>
<line x1="338.800000" y1="116.000000" x2="342.800000" y2="116.000000"  style="stroke:black; stroke-linecap:round; stroke-width:0.25;"/>
<line x1="338.800000" y1="124.000000" x2="342.800000" y2="124.000000"  style="stroke:black; stroke-linecap:round; stroke-width:0.25;"/>
<line x1="366.800000" y1="60.000000" x2="370.800000" y2="60.000000"  style="stroke:black; stroke-linecap:round; stroke-width:0.25;"/>
<line x1="366.800000" y1="120.000000" x2="370.800000" y2="120.000000"  style="stroke:black; stroke-linecap:round; stroke-width:0.25;"/>
<line x1="370.800000" y1="60.000000" x2="380.800000" y2="60.000000"  style="stroke:black; stroke-linecap:round; stroke-width:0.25;"/>
<line x1="370.800000" y1="120.000000" x2="380.800000" y2="120.000000"  style="stroke:black; stroke-linecap:round; stroke-width:0.25;"/>
<line x1="380.800000" y1="60.000000" x2="388.800000" y2="60.000000"  style="stroke:black; stroke-linecap:round; stroke-width:0.25;"/>
<line x1="380.800000" y1="94.000000" x2="388.800000" y2="94.000000"  style="stroke:black; stroke-linecap:round; stroke-width:0.25;"/>
<line x1="380.800000" y1="120.000000" x2="380.800000" y2="94.000000"  style="stroke:black; stroke-linecap:round; stroke-width:0.25;"/>
<line x1="380.800000" y1="120.000000" x2="380.800000" y2="120.000000"  style="stroke:black; stroke-linecap:round; stroke-width:0.25;"/>
<line x1="388.800000" y1="60.000000" x2="388.800000" y2="86.000000"  style="stroke:black; stroke-linecap:round; stroke-width:0.25;"/>
<line x1="388.800000" y1="86.000000" x2="388.800000" y2="86.000000"  style="stroke:black; stroke-linecap:round; stroke-width:0.25;"/>
<line x1="388.800000" y1="86.000000" x2="392.800000" y2="86.000000"  style="stroke:black; stroke-linecap:round; stroke-width:0.25;"/>
<line x1="388.800000" y1="94.000000" x2="392.800000" y2="94.000000"  style="stroke:black; stroke-linecap:round; stroke-width:0.25;"/>
<line x1="392.800000" y1="86.000000" x2="396.800000" y2="86.000000"  style="stroke:black; stroke-linecap:round; stroke-width:0.25;"/>
<line x1="392.800000" y1="94.000000" x2="396.800000" y2="94.000000"  style="stroke:black; stroke-linecap:round; stroke-width:0.25;"/>
<line x1="396.800000" y1="86.000000" x2="406.800000" y2="86.000000"  style="stroke:black; stroke-linecap:round; stroke-width:0.25;"/>
<line x1="396.800000" y1="94.000000" x2="406.800000" y2="94.000000"  style="stroke:black; stroke-linecap:round; stroke-width:0.25;"/>
</svg>
