<?xml version="1.0"?>
<svg xmlns="http://www.w3.org/2000/svg" xmlns:xlink="http://www.w3.org/1999/xlink" viewBox="0 0 456.200000 636.000000" width="228.100000mm" height="318.000000mm" version="1.1">
<a xlink:href="h-0x7fc1a6bf91a0.svg">
<rect x="1.000000" y="1.000000" width="455.200000" height="635.000000" rx="0" ry="0" style="stroke:none;fill:#cccccc;"/>
<rect x="0.000000" y="0.000000" width="455.200000" height="635.000000" rx="0" ry="0" style="stroke:none;fill:#ffffff;"/>
</a>
<text x="10.000000" y="7.000000" font-family="Arial" font-size="7"></text>
<rect x="181.750000" y="25.000000" width="24.000000" height="24.000000" rx="0" ry="0" style="stroke:none;fill:#cccccc;"/>
<rect x="180.750000" y="24.000000" width="24.000000" height="24.000000" rx="0" ry="0" style="stroke:none;fill:#f44800;"/>
<text x="192.750000" y="38.000000" font-family="Arial" font-size="7" text-anchor="middle" fill="#FFFFFF">4</text>
<circle cx="182.750000" cy="26.000000" r="1"/>
<rect x="181.750000" y="57.000000" width="24.000000" height="24.000000" rx="0" ry="0" style="stroke:none;fill:#cccccc;"/>
<rect x="180.750000" y="56.000000" width="24.000000" height="24.000000" rx="0" ry="0" style="stroke:none;fill:#f44800;"/>
<text x="192.750000" y="70.000000" font-family="Arial" font-size="7" text-anchor="middle" fill="#FFFFFF">1</text>
<circle cx="182.750000" cy="58.000000" r="1"/>
<rect x="70.400000" y="89.000000" width="24.000000" height="24.000000" rx="0" ry="0" style="stroke:none;fill:#cccccc;"/>
<rect x="69.400000" y="88.000000" width="24.000000" height="24.000000" rx="0" ry="0" style="stroke:none;fill:#f44800;"/>
<text x="81.400000" y="102.000000" font-family="Arial" font-size="7" text-anchor="middle" fill="#FFFFFF">0</text>
<circle cx="71.400000" cy="90.000000" r="1"/>
<rect x="70.400000" y="121.000000" width="24.000000" height="24.000000" rx="0" ry="0" style="stroke:none;fill:#cccccc;"/>
<rect x="69.400000" y="120.000000" width="24.000000" height="24.000000" rx="0" ry="0" style="stroke:none;fill:#f44800;"/>
<text x="81.400000" y="134.000000" font-family="Arial" font-size="7" text-anchor="middle" fill="#FFFFFF">4</text>
<circle cx="71.400000" cy="122.000000" r="1"/>
<rect x="110.400000" y="105.000000" width="24.000000" height="24.000000" rx="0" ry="0" style="stroke:none;fill:#cccccc;"/>
<rect x="109.400000" y="104.000000" width="24.000000" height="24.000000" rx="0" ry="0" style="stroke:none;fill:#4B71A1;"/>
<text x="121.400000" y="118.000000" font-family="Arial" font-size="7" text-anchor="middle" fill="#FFFFFF">&lt;</text>
<circle cx="111.400000" cy="106.000000" r="1"/>
<line x1="106.400000" y1="111.000000" x2="109.400000" y2="112.000000"  transform="rotate(0.000000,109.400000,112.000000)" style="stroke: black; stroke-width:0.25;"/>
<line x1="106.400000" y1="113.000000" x2="109.400000" y2="112.000000"  transform="rotate(0.000000,109.400000,112.000000)" style="stroke: black; stroke-width:0.25;"/>
<line x1="106.400000" y1="119.000000" x2="109.400000" y2="120.000000"  transform="rotate(0.000000,109.400000,120.000000)" style="stroke: black; stroke-width:0.25;"/>
<line x1="106.400000" y1="121.000000" x2="109.400000" y2="120.000000"  transform="rotate(0.000000,109.400000,120.000000)" style="stroke: black; stroke-width:0.25;"/>
<rect x="90.400000" y="153.000000" width="24.000000" height="24.000000" rx="0" ry="0" style="stroke:none;fill:#cccccc;"/>
<rect x="89.400000" y="152.000000" width="24.000000" height="24.000000" rx="0" ry="0" style="stroke:none;fill:#f44800;"/>
<text x="101.400000" y="166.000000" font-family="Arial" font-size="7" text-anchor="middle" fill="#FFFFFF">1</text>
<circle cx="91.400000" cy="154.000000" r="1"/>
<a xlink:href="fac-0x7fc1a6bcbbf0.svg">
<rect x="25.000000" y="185.000000" width="154.800000" height="24.000000" rx="0" ry="0" style="stroke:none;fill:#cccccc;"/>
<rect x="24.000000" y="184.000000" width="154.800000" height="24.000000" rx="0" ry="0" style="stroke:none;fill:#003366;"/>
</a>
<a xlink:href="fac-0x7fc1a6bcbbf0.svg">
<text x="101.400000" y="198.000000" font-family="Arial" font-size="7" text-anchor="middle" fill="#FFFFFF">fac(((4,1.000...or) : -) : +)(4)(0)</text>
</a>
<circle cx="26.000000" cy="186.000000" r="1"/>
<rect x="203.800000" y="137.000000" width="38.700000" height="24.000000" rx="0" ry="0" style="stroke:none;fill:#cccccc;"/>
<rect x="202.800000" y="136.000000" width="38.700000" height="24.000000" rx="0" ry="0" style="stroke:none;fill:#4B71A1;"/>
<text x="222.150000" y="150.000000" font-family="Arial" font-size="7" text-anchor="middle" fill="#FFFFFF">select2</text>
<circle cx="204.800000" cy="138.000000" r="1"/>
<line x1="199.800000" y1="139.000000" x2="202.800000" y2="140.000000"  transform="rotate(0.000000,202.800000,140.000000)" style="stroke: black; stroke-width:0.25;"/>
<line x1="199.800000" y1="141.000000" x2="202.800000" y2="140.000000"  transform="rotate(0.000000,202.800000,140.000000)" style="stroke: black; stroke-width:0.25;"/>
<line x1="199.800000" y1="147.000000" x2="202.800000" y2="148.000000"  transform="rotate(0.000000,202.800000,148.000000)" style="stroke: black; stroke-width:0.25;"/>
<line x1="199.800000" y1="149.000000" x2="202.800000" y2="148.000000"  transform="rotate(0.000000,202.800000,148.000000)" style="stroke: black; stroke-width:0.25;"/>
<line x1="199.800000" y1="155.000000" x2="202.800000" y2="156.000000"  transform="rotate(0.000000,202.800000,156.000000)" style="stroke: black; stroke-width:0.25;"/>
<line x1="199.800000" y1="157.000000" x2="202.800000" y2="156.000000"  transform="rotate(0.000000,202.800000,156.000000)" style="stroke: black; stroke-width:0.25;"/>
<rect x="70.400000" y="217.000000" width="24.000000" height="24.000000" rx="0" ry="0" style="stroke:none;fill:#cccccc;"/>
<rect x="69.400000" y="216.000000" width="24.000000" height="24.000000" rx="0" ry="0" style="stroke:none;fill:#f44800;"/>
<text x="81.400000" y="230.000000" font-family="Arial" font-size="7" text-anchor="middle" fill="#FFFFFF">1</text>
<circle cx="71.400000" cy="218.000000" r="1"/>
<rect x="70.400000" y="249.000000" width="24.000000" height="24.000000" rx="0" ry="0" style="stroke:none;fill:#cccccc;"/>
<rect x="69.400000" y="248.000000" width="24.000000" height="24.000000" rx="0" ry="0" style="stroke:none;fill:#f44800;"/>
<text x="81.400000" y="262.000000" font-family="Arial" font-size="7" text-anchor="middle" fill="#FFFFFF">4</text>
<circle cx="71.400000" cy="250.000000" r="1"/>
<rect x="110.400000" y="233.000000" width="24.000000" height="24.000000" rx="0" ry="0" style="stroke:none;fill:#cccccc;"/>
<rect x="109.400000" y="232.000000" width="24.000000" height="24.000000" rx="0" ry="0" style="stroke:none;fill:#4B71A1;"/>
<text x="121.400000" y="246.000000" font-family="Arial" font-size="7" text-anchor="middle" fill="#FFFFFF">&lt;</text>
<circle cx="111.400000" cy="234.000000" r="1"/>
<line x1="106.400000" y1="239.000000" x2="109.400000" y2="240.000000"  transform="rotate(0.000000,109.400000,240.000000)" style="stroke: black; stroke-width:0.25;"/>
<line x1="106.400000" y1="241.000000" x2="109.400000" y2="240.000000"  transform="rotate(0.000000,109.400000,240.000000)" style="stroke: black; stroke-width:0.25;"/>
<line x1="106.400000" y1="247.000000" x2="109.400000" y2="248.000000"  transform="rotate(0.000000,109.400000,248.000000)" style="stroke: black; stroke-width:0.25;"/>
<line x1="106.400000" y1="249.000000" x2="109.400000" y2="248.000000"  transform="rotate(0.000000,109.400000,248.000000)" style="stroke: black; stroke-width:0.25;"/>
<rect x="90.400000" y="281.000000" width="24.000000" height="24.000000" rx="0" ry="0" style="stroke:none;fill:#cccccc;"/>
<rect x="89.400000" y="280.000000" width="24.000000" height="24.000000" rx="0" ry="0" style="stroke:none;fill:#f44800;"/>
<text x="101.400000" y="294.000000" font-family="Arial" font-size="7" text-anchor="middle" fill="#FFFFFF">1</text>
<circle cx="91.400000" cy="282.000000" r="1"/>
<a xlink:href="fac-0x7fc1a6bd2fc0.svg">
<rect x="25.000000" y="313.000000" width="154.800000" height="24.000000" rx="0" ry="0" style="stroke:none;fill:#cccccc;"/>
<rect x="24.000000" y="312.000000" width="154.800000" height="24.000000" rx="0" ry="0" style="stroke:none;fill:#003366;"/>
</a>
<a xlink:href="fac-0x7fc1a6bd2fc0.svg">
<text x="101.400000" y="326.000000" font-family="Arial" font-size="7" text-anchor="middle" fill="#FFFFFF">fac(((4,1.000...or) : -) : +)(4)(1)</text>
</a>
<circle cx="26.000000" cy="314.000000" r="1"/>
<rect x="203.800000" y="265.000000" width="38.700000" height="24.000000" rx="0" ry="0" style="stroke:none;fill:#cccccc;"/>
<rect x="202.800000" y="264.000000" width="38.700000" height="24.000000" rx="0" ry="0" style="stroke:none;fill:#4B71A1;"/>
<text x="222.150000" y="278.000000" font-family="Arial" font-size="7" text-anchor="middle" fill="#FFFFFF">select2</text>
<circle cx="204.800000" cy="266.000000" r="1"/>
<line x1="199.800000" y1="267.000000" x2="202.800000" y2="268.000000"  transform="rotate(0.000000,202.800000,268.000000)" style="stroke: black; stroke-width:0.25;"/>
<line x1="199.800000" y1="269.000000" x2="202.800000" y2="268.000000"  transform="rotate(0.000000,202.800000,268.000000)" style="stroke: black; stroke-width:0.25;"/>
<line x1="199.800000" y1="275.000000" x2="202.800000" y2="276.000000"  transform="rotate(0.000000,202.800000,276.000000)" style="stroke: black; stroke-width:0.25;"/>
<line x1="199.800000" y1="277.000000" x2="202.800000" y2="276.000000"  transform="rotate(0.000000,202.800000,276.000000)" style="stroke: black; stroke-width:0.25;"/>
<line x1="199.800000" y1="283.000000" x2="202.800000" y2="284.000000"  transform="rotate(0.000000,202.800000,284.000000)" style="stroke: black; stroke-width:0.25;"/>
<line x1="199.800000" y1="285.000000" x2="202.800000" y2="284.000000"  transform="rotate(0.000000,202.800000,284.000000)" style="stroke: black; stroke-width:0.25;"/>
<rect x="258.500000" y="201.000000" width="24.000000" height="24.000000" rx="0" ry="0" style="stroke:none;fill:#cccccc;"/>
<rect x="257.500000" y="200.000000" width="24.000000" height="24.000000" rx="0" ry="0" style="stroke:none;fill:#4B71A1;"/>
<text x="269.500000" y="214.000000" font-family="Arial" font-size="7" text-anchor="middle" fill="#FFFFFF">*</text>
<circle cx="259.500000" cy="202.000000" r="1"/>
<line x1="254.500000" y1="207.000000" x2="257.500000" y2="208.000000"  transform="rotate(0.000000,257.500000,208.000000)" style="stroke: black; stroke-width:0.25;"/>
<line x1="254.500000" y1="209.000000" x2="257.500000" y2="208.000000"  transform="rotate(0.000000,257.500000,208.000000)" style="stroke: black; stroke-width:0.25;"/>
<line x1="254.500000" y1="215.000000" x2="257.500000" y2="216.000000"  transform="rotate(0.000000,257.500000,216.000000)" style="stroke: black; stroke-width:0.25;"/>
<line x1="254.500000" y1="217.000000" x2="257.500000" y2="216.000000"  transform="rotate(0.000000,257.500000,216.000000)" style="stroke: black; stroke-width:0.25;"/>
<rect x="90.400000" y="345.000000" width="24.000000" height="24.000000" rx="0" ry="0" style="stroke:none;fill:#cccccc;"/>
<rect x="89.400000" y="344.000000" width="24.000000" height="24.000000" rx="0" ry="0" style="stroke:none;fill:#f44800;"/>
<text x="101.400000" y="358.000000" font-family="Arial" font-size="7" text-anchor="middle" fill="#FFFFFF">2</text>
<circle cx="91.400000" cy="346.000000" r="1"/>
<rect x="90.400000" y="377.000000" width="24.000000" height="24.000000" rx="0" ry="0" style="stroke:none;fill:#cccccc;"/>
<rect x="89.400000" y="376.000000" width="24.000000" height="24.000000" rx="0" ry="0" style="stroke:none;fill:#f44800;"/>
<text x="101.400000" y="390.000000" font-family="Arial" font-size="7" text-anchor="middle" fill="#FFFFFF">4</text>
<circle cx="91.400000" cy="378.000000" r="1"/>
<rect x="130.400000" y="361.000000" width="24.000000" height="24.000000" rx="0" ry="0" style="stroke:none;fill:#cccccc;"/>
<rect x="129.400000" y="360.000000" width="24.000000" height="24.000000" rx="0" ry="0" style="stroke:none;fill:#4B71A1;"/>
<text x="141.400000" y="374.000000" font-family="Arial" font-size="7" text-anchor="middle" fill="#FFFFFF">&lt;</text>
<circle cx="131.400000" cy="362.000000" r="1"/>
<line x1="126.400000" y1="367.000000" x2="129.400000" y2="368.000000"  transform="rotate(0.000000,129.400000,368.000000)" style="stroke: black; stroke-width:0.25;"/>
<line x1="126.400000" y1="369.000000" x2="129.400000" y2="368.000000"  transform="rotate(0.000000,129.400000,368.000000)" style="stroke: black; stroke-width:0.25;"/>
<line x1="126.400000" y1="375.000000" x2="129.400000" y2="376.000000"  transform="rotate(0.000000,129.400000,376.000000)" style="stroke: black; stroke-width:0.25;"/>
<line x1="126.400000" y1="377.000000" x2="129.400000" y2="376.000000"  transform="rotate(0.000000,129.400000,376.000000)" style="stroke: black; stroke-width:0.25;"/>
<rect x="110.400000" y="409.000000" width="24.000000" height="24.000000" rx="0" ry="0" style="stroke:none;fill:#cccccc;"/>
<rect x="109.400000" y="408.000000" width="24.000000" height="24.000000" rx="0" ry="0" style="stroke:none;fill:#f44800;"/>
<text x="121.400000" y="422.000000" font-family="Arial" font-size="7" text-anchor="middle" fill="#FFFFFF">1</text>
<circle cx="111.400000" cy="410.000000" r="1"/>
<a xlink:href="fac-0x7fc1a6bda4f0.svg">
<rect x="45.000000" y="441.000000" width="154.800000" height="24.000000" rx="0" ry="0" style="stroke:none;fill:#cccccc;"/>
<rect x="44.000000" y="440.000000" width="154.800000" height="24.000000" rx="0" ry="0" style="stroke:none;fill:#003366;"/>
</a>
<a xlink:href="fac-0x7fc1a6bda4f0.svg">
<text x="121.400000" y="454.000000" font-family="Arial" font-size="7" text-anchor="middle" fill="#FFFFFF">fac(((4,1.000...or) : -) : +)(4)(2)</text>
</a>
<circle cx="46.000000" cy="442.000000" r="1"/>
<rect x="223.800000" y="393.000000" width="38.700000" height="24.000000" rx="0" ry="0" style="stroke:none;fill:#cccccc;"/>
<rect x="222.800000" y="392.000000" width="38.700000" height="24.000000" rx="0" ry="0" style="stroke:none;fill:#4B71A1;"/>
<text x="242.150000" y="406.000000" font-family="Arial" font-size="7" text-anchor="middle" fill="#FFFFFF">select2</text>
<circle cx="224.800000" cy="394.000000" r="1"/>
<line x1="219.800000" y1="395.000000" x2="222.800000" y2="396.000000"  transform="rotate(0.000000,222.800000,396.000000)" style="stroke: black; stroke-width:0.25;"/>
<line x1="219.800000" y1="397.000000" x2="222.800000" y2="396.000000"  transform="rotate(0.000000,222.800000,396.000000)" style="stroke: black; stroke-width:0.25;"/>
<line x1="219.800000" y1="403.000000" x2="222.800000" y2="404.000000"  transform="rotate(0.000000,222.800000,404.000000)" style="stroke: black; stroke-width:0.25;"/>
<line x1="219.800000" y1="405.000000" x2="222.800000" y2="404.000000"  transform="rotate(0.000000,222.800000,404.000000)" style="stroke: black; stroke-width:0.25;"/>
<line x1="219.800000" y1="411.000000" x2="222.800000" y2="412.000000"  transform="rotate(0.000000,222.800000,412.000000)" style="stroke: black; stroke-width:0.25;"/>
<line x1="219.800000" y1="413.000000" x2="222.800000" y2="412.000000"  transform="rotate(0.000000,222.800000,412.000000)" style="stroke: black; stroke-width:0.25;"/>
<rect x="298.500000" y="265.000000" width="24.000000" height="24.000000" rx="0" ry="0" style="stroke:none;fill:#cccccc;"/>
<rect x="297.500000" y="264.000000" width="24.000000" height="24.000000" rx="0" ry="0" style="stroke:none;fill:#4B71A1;"/>
<text x="309.500000" y="278.000000" font-family="Arial" font-size="7" text-anchor="middle" fill="#FFFFFF">*</text>
<circle cx="299.500000" cy="266.000000" r="1"/>
<line x1="294.500000" y1="271.000000" x2="297.500000" y2="272.000000"  transform="rotate(0.000000,297.500000,272.000000)" style="stroke: black; stroke-width:0.25;"/>
<line x1="294.500000" y1="273.000000" x2="297.500000" y2="272.000000"  transform="rotate(0.000000,297.500000,272.000000)" style="stroke: black; stroke-width:0.25;"/>
<line x1="294.500000" y1="279.000000" x2="297.500000" y2="280.000000"  transform="rotate(0.000000,297.500000,280.000000)" style="stroke: black; stroke-width:0.25;"/>
<line x1="294.500000" y1="281.000000" x2="297.500000" y2="280.000000"  transform="rotate(0.000000,297.500000,280.000000)" style="stroke: black; stroke-width:0.25;"/>
<rect x="110.400000" y="483.000000" width="24.000000" height="24.000000" rx="0" ry="0" style="stroke:none;fill:#cccccc;"/>
<rect x="109.400000" y="482.000000" width="24.000000" height="24.000000" rx="0" ry="0" style="stroke:none;fill:#f44800;"/>
<text x="121.400000" y="496.000000" font-family="Arial" font-size="7" text-anchor="middle" fill="#FFFFFF">3</text>
<circle cx="111.400000" cy="484.000000" r="1"/>
<line x1="100.400000" y1="473.000000" x2="100.400000" y2="515.000000"  style="stroke: black; stroke-linecap:round; stroke-width:0.25; stroke-dasharray:3,3;"/>
<line x1="100.400000" y1="515.000000" x2="142.400000" y2="515.000000"  style="stroke: black; stroke-linecap:round; stroke-width:0.25; stroke-dasharray:3,3;"/>
<line x1="142.400000" y1="515.000000" x2="142.400000" y2="473.000000"  style="stroke: black; stroke-linecap:round; stroke-width:0.25; stroke-dasharray:3,3;"/>
<line x1="100.400000" y1="473.000000" x2="105.400000" y2="473.000000"  style="stroke: black; stroke-linecap:round; stroke-width:0.25; stroke-dasharray:3,3;"/>
<line x1="142.400000" y1="473.000000" x2="142.400000" y2="473.000000"  style="stroke: black; stroke-linecap:round; stroke-width:0.25; stroke-dasharray:3,3;"/>
<text x="105.400000" y="475.000000" font-family="Arial" font-size="7">maxStringLength</text>
<rect x="110.400000" y="525.000000" width="24.000000" height="24.000000" rx="0" ry="0" style="stroke:none;fill:#cccccc;"/>
<rect x="109.400000" y="524.000000" width="24.000000" height="24.000000" rx="0" ry="0" style="stroke:none;fill:#f44800;"/>
<text x="121.400000" y="538.000000" font-family="Arial" font-size="7" text-anchor="middle" fill="#FFFFFF">4</text>
<circle cx="111.400000" cy="526.000000" r="1"/>
<rect x="160.400000" y="499.000000" width="24.000000" height="24.000000" rx="0" ry="0" style="stroke:none;fill:#cccccc;"/>
<rect x="159.400000" y="498.000000" width="24.000000" height="24.000000" rx="0" ry="0" style="stroke:none;fill:#4B71A1;"/>
<text x="171.400000" y="512.000000" font-family="Arial" font-size="7" text-anchor="middle" fill="#FFFFFF">&lt;</text>
<circle cx="161.400000" cy="500.000000" r="1"/>
<line x1="156.400000" y1="505.000000" x2="159.400000" y2="506.000000"  transform="rotate(0.000000,159.400000,506.000000)" style="stroke: black; stroke-width:0.25;"/>
<line x1="156.400000" y1="507.000000" x2="159.400000" y2="506.000000"  transform="rotate(0.000000,159.400000,506.000000)" style="stroke: black; stroke-width:0.25;"/>
<line x1="156.400000" y1="513.000000" x2="159.400000" y2="514.000000"  transform="rotate(0.000000,159.400000,514.000000)" style="stroke: black; stroke-width:0.25;"/>
<line x1="156.400000" y1="515.000000" x2="159.400000" y2="514.000000"  transform="rotate(0.000000,159.400000,514.000000)" style="stroke: black; stroke-width:0.25;"/>
<rect x="130.400000" y="557.000000" width="24.000000" height="24.000000" rx="0" ry="0" style="stroke:none;fill:#cccccc;"/>
<rect x="129.400000" y="556.000000" width="24.000000" height="24.000000" rx="0" ry="0" style="stroke:none;fill:#f44800;"/>
<text x="141.400000" y="570.000000" font-family="Arial" font-size="7" text-anchor="middle" fill="#FFFFFF">1</text>
<circle cx="131.400000" cy="558.000000" r="1"/>
<a xlink:href="fac-0x7fc1a6be1d40.svg">
<rect x="65.000000" y="589.000000" width="154.800000" height="24.000000" rx="0" ry="0" style="stroke:none;fill:#cccccc;"/>
<rect x="64.000000" y="588.000000" width="154.800000" height="24.000000" rx="0" ry="0" style="stroke:none;fill:#003366;"/>
</a>
<a xlink:href="fac-0x7fc1a6be1d40.svg">
<text x="141.400000" y="602.000000" font-family="Arial" font-size="7" text-anchor="middle" fill="#FFFFFF">fac(((4,1.000...or) : -) : +)(4)(3)</text>
</a>
<circle cx="66.000000" cy="590.000000" r="1"/>
<rect x="243.800000" y="531.000000" width="38.700000" height="24.000000" rx="0" ry="0" style="stroke:none;fill:#cccccc;"/>
<rect x="242.800000" y="530.000000" width="38.700000" height="24.000000" rx="0" ry="0" style="stroke:none;fill:#4B71A1;"/>
<text x="262.150000" y="544.000000" font-family="Arial" font-size="7" text-anchor="middle" fill="#FFFFFF">select2</text>
<circle cx="244.800000" cy="532.000000" r="1"/>
<line x1="239.800000" y1="533.000000" x2="242.800000" y2="534.000000"  transform="rotate(0.000000,242.800000,534.000000)" style="stroke: black; stroke-width:0.25;"/>
<line x1="239.800000" y1="535.000000" x2="242.800000" y2="534.000000"  transform="rotate(0.000000,242.800000,534.000000)" style="stroke: black; stroke-width:0.25;"/>
<line x1="239.800000" y1="541.000000" x2="242.800000" y2="542.000000"  transform="rotate(0.000000,242.800000,542.000000)" style="stroke: black; stroke-width:0.25;"/>
<line x1="239.800000" y1="543.000000" x2="242.800000" y2="542.000000"  transform="rotate(0.000000,242.800000,542.000000)" style="stroke: black; stroke-width:0.25;"/>
<line x1="239.800000" y1="549.000000" x2="242.800000" y2="550.000000"  transform="rotate(0.000000,242.800000,550.000000)" style="stroke: black; stroke-width:0.25;"/>
<line x1="239.800000" y1="551.000000" x2="242.800000" y2="550.000000"  transform="rotate(0.000000,242.800000,550.000000)" style="stroke: black; stroke-width:0.25;"/>
<rect x="338.500000" y="339.000000" width="24.000000" height="24.000000" rx="0" ry="0" style="stroke:none;fill:#cccccc;"/>
<rect x="337.500000" y="338.000000" width="24.000000" height="24.000000" rx="0" ry="0" style="stroke:none;fill:#4B71A1;"/>
<text x="349.500000" y="352.000000" font-family="Arial" font-size="7" text-anchor="middle" fill="#FFFFFF">*</text>
<circle cx="339.500000" cy="340.000000" r="1"/>
<line x1="334.500000" y1="345.000000" x2="337.500000" y2="346.000000"  transform="rotate(0.000000,337.500000,346.000000)" style="stroke: black; stroke-width:0.25;"/>
<line x1="334.500000" y1="347.000000" x2="337.500000" y2="346.000000"  transform="rotate(0.000000,337.500000,346.000000)" style="stroke: black; stroke-width:0.25;"/>
<line x1="334.500000" y1="353.000000" x2="337.500000" y2="354.000000"  transform="rotate(0.000000,337.500000,354.000000)" style="stroke: black; stroke-width:0.25;"/>
<line x1="334.500000" y1="355.000000" x2="337.500000" y2="354.000000"  transform="rotate(0.000000,337.500000,354.000000)" style="stroke: black; stroke-width:0.25;"/>
<rect x="386.500000" y="307.000000" width="38.700000" height="24.000000" rx="0" ry="0" style="stroke:none;fill:#cccccc;"/>
<rect x="385.500000" y="306.000000" width="38.700000" height="24.000000" rx="0" ry="0" style="stroke:none;fill:#4B71A1;"/>
<text x="404.850000" y="320.000000" font-family="Arial" font-size="7" text-anchor="middle" fill="#FFFFFF">select2</text>
<circle cx="387.500000" cy="308.000000" r="1"/>
<line x1="382.500000" y1="309.000000" x2="385.500000" y2="310.000000"  transform="rotate(0.000000,385.500000,310.000000)" style="stroke: black; stroke-width:0.25;"/>
<line x1="382.500000" y1="311.000000" x2="385.500000" y2="310.000000"  transform="rotate(0.000000,385.500000,310.000000)" style="stroke: black; stroke-width:0.25;"/>
<line x1="382.500000" y1="317.000000" x2="385.500000" y2="318.000000"  transform="rotate(0.000000,385.500000,318.000000)" style="stroke: black; stroke-width:0.25;"/>
<line x1="382.500000" y1="319.000000" x2="385.500000" y2="318.000000"  transform="rotate(0.000000,385.500000,318.000000)" style="stroke: black; stroke-width:0.25;"/>
<line x1="382.500000" y1="325.000000" x2="385.500000" y2="326.000000"  transform="rotate(0.000000,385.500000,326.000000)" style="stroke: black; stroke-width:0.25;"/>
<line x1="382.500000" y1="327.000000" x2="385.500000" y2="326.000000"  transform="rotate(0.000000,385.500000,326.000000)" style="stroke: black; stroke-width:0.25;"/>
<line x1="15.000000" y1="15.000000" x2="15.000000" y2="621.000000"  style="stroke: black; stroke-linecap:round; stroke-width:0.25; stroke-dasharray:3,3;"/>
<line x1="15.000000" y1="621.000000" x2="441.200000" y2="621.000000"  style="stroke: black; stroke-linecap:round; stroke-width:0.25; stroke-dasharray:3,3;"/>
<line x1="441.200000" y1="621.000000" x2="441.200000" y2="15.000000"  style="stroke: black; stroke-linecap:round; stroke-width:0.25; stroke-dasharray:3,3;"/>
<line x1="15.000000" y1="15.000000" x2="20.000000" y2="15.000000"  style="stroke: black; stroke-linecap:round; stroke-width:0.25; stroke-dasharray:3,3;"/>
<line x1="129.650000" y1="15.000000" x2="441.200000" y2="15.000000"  style="stroke: black; stroke-linecap:round; stroke-width:0.25; stroke-dasharray:3,3;"/>
<text x="20.000000" y="17.000000" font-family="Arial" font-size="7">facs1(4)(((4,...or) : -) : +)(4)</text>
<line x1="443.200000" y1="317.000000" x2="446.200000" y2="318.000000"  transform="rotate(0.000000,446.200000,318.000000)" style="stroke: black; stroke-width:0.25;"/>
<line x1="443.200000" y1="319.000000" x2="446.200000" y2="318.000000"  transform="rotate(0.000000,446.200000,318.000000)" style="stroke: black; stroke-width:0.25;"/>
<line x1="93.400000" y1="100.000000" x2="97.400000" y2="100.000000"  style="stroke:black; stroke-linecap:round; stroke-width:0.25;"/>
<line x1="93.400000" y1="132.000000" x2="97.400000" y2="132.000000"  style="stroke:black; stroke-linecap:round; stroke-width:0.25;"/>
<line x1="93.400000" y1="228.000000" x2="97.400000" y2="228.000000"  style="stroke:black; stroke-linecap:round; stroke-width:0.25;"/>
<line x1="93.400000" y1="260.000000" x2="97.400000" y2="260.000000"  style="stroke:black; stroke-linecap:round; stroke-width:0.25;"/>
<line x1="97.400000" y1="100.000000" x2="105.400000" y2="100.000000"  style="stroke:black; stroke-linecap:round; stroke-width:0.25;"/>
<line x1="97.400000" y1="120.000000" x2="105.400000" y2="120.000000"  style="stroke:black; stroke-linecap:round; stroke-width:0.25;"/>
<line x1="97.400000" y1="132.000000" x2="97.400000" y2="120.000000"  style="stroke:black; stroke-linecap:round; stroke-width:0.25;"/>
<line x1="97.400000" y1="132.000000" x2="97.400000" y2="132.000000"  style="stroke:black; stroke-linecap:round; stroke-width:0.25;"/>
<line x1="97.400000" y1="228.000000" x2="105.400000" y2="228.000000"  style="stroke:black; stroke-linecap:round; stroke-width:0.25;"/>
<line x1="97.400000" y1="248.000000" x2="105.400000" y2="248.000000"  style="stroke:black; stroke-linecap:round; stroke-width:0.25;"/>
<line x1="97.400000" y1="260.000000" x2="97.400000" y2="248.000000"  style="stroke:black; stroke-linecap:round; stroke-width:0.25;"/>
<line x1="97.400000" y1="260.000000" x2="97.400000" y2="260.000000"  style="stroke:black; stroke-linecap:round; stroke-width:0.25;"/>
<line x1="105.400000" y1="100.000000" x2="105.400000" y2="112.000000"  style="stroke:black; stroke-linecap:round; stroke-width:0.25;"/>
<line x1="105.400000" y1="112.000000" x2="105.400000" y2="112.000000"  style="stroke:black; stroke-linecap:round; stroke-width:0.25;"/>
<line x1="105.400000" y1="112.000000" x2="109.400000" y2="112.000000"  style="stroke:black; stroke-linecap:round; stroke-width:0.25;"/>
<line x1="105.400000" y1="120.000000" x2="109.400000" y2="120.000000"  style="stroke:black; stroke-linecap:round; stroke-width:0.25;"/>
<line x1="105.400000" y1="228.000000" x2="105.400000" y2="240.000000"  style="stroke:black; stroke-linecap:round; stroke-width:0.25;"/>
<line x1="105.400000" y1="240.000000" x2="105.400000" y2="240.000000"  style="stroke:black; stroke-linecap:round; stroke-width:0.25;"/>
<line x1="105.400000" y1="240.000000" x2="109.400000" y2="240.000000"  style="stroke:black; stroke-linecap:round; stroke-width:0.25;"/>
<line x1="105.400000" y1="248.000000" x2="109.400000" y2="248.000000"  style="stroke:black; stroke-linecap:round; stroke-width:0.25;"/>
<line x1="113.400000" y1="164.000000" x2="117.400000" y2="164.000000"  style="stroke:black; stroke-linecap:round; stroke-width:0.25;"/>
<line x1="113.400000" y1="292.000000" x2="117.400000" y2="292.000000"  style="stroke:black; stroke-linecap:round; stroke-width:0.25;"/>
<line x1="113.400000" y1="356.000000" x2="117.400000" y2="356.000000"  style="stroke:black; stroke-linecap:round; stroke-width:0.25;"/>
<line x1="113.400000" y1="388.000000" x2="117.400000" y2="388.000000"  style="stroke:black; stroke-linecap:round; stroke-width:0.25;"/>
<line x1="117.400000" y1="164.000000" x2="182.800000" y2="164.000000"  style="stroke:black; stroke-linecap:round; stroke-width:0.25;"/>
<line x1="117.400000" y1="292.000000" x2="182.800000" y2="292.000000"  style="stroke:black; stroke-linecap:round; stroke-width:0.25;"/>
<line x1="117.400000" y1="356.000000" x2="125.400000" y2="356.000000"  style="stroke:black; stroke-linecap:round; stroke-width:0.25;"/>
<line x1="117.400000" y1="376.000000" x2="125.400000" y2="376.000000"  style="stroke:black; stroke-linecap:round; stroke-width:0.25;"/>
<line x1="117.400000" y1="388.000000" x2="117.400000" y2="376.000000"  style="stroke:black; stroke-linecap:round; stroke-width:0.25;"/>
<line x1="117.400000" y1="388.000000" x2="117.400000" y2="388.000000"  style="stroke:black; stroke-linecap:round; stroke-width:0.25;"/>
<line x1="125.400000" y1="356.000000" x2="125.400000" y2="368.000000"  style="stroke:black; stroke-linecap:round; stroke-width:0.25;"/>
<line x1="125.400000" y1="368.000000" x2="125.400000" y2="368.000000"  style="stroke:black; stroke-linecap:round; stroke-width:0.25;"/>
<line x1="125.400000" y1="368.000000" x2="129.400000" y2="368.000000"  style="stroke:black; stroke-linecap:round; stroke-width:0.25;"/>
<line x1="125.400000" y1="376.000000" x2="129.400000" y2="376.000000"  style="stroke:black; stroke-linecap:round; stroke-width:0.25;"/>
<line x1="133.400000" y1="116.000000" x2="137.400000" y2="116.000000"  style="stroke:black; stroke-linecap:round; stroke-width:0.25;"/>
<line x1="133.400000" y1="244.000000" x2="137.400000" y2="244.000000"  style="stroke:black; stroke-linecap:round; stroke-width:0.25;"/>
<line x1="133.400000" y1="420.000000" x2="137.400000" y2="420.000000"  style="stroke:black; stroke-linecap:round; stroke-width:0.25;"/>
<line x1="133.400000" y1="494.000000" x2="137.400000" y2="494.000000"  style="stroke:black; stroke-linecap:round; stroke-width:0.25;"/>
<line x1="133.400000" y1="536.000000" x2="137.400000" y2="536.000000"  style="stroke:black; stroke-linecap:round; stroke-width:0.25;"/>
<line x1="137.400000" y1="116.000000" x2="182.800000" y2="116.000000"  style="stroke:black; stroke-linecap:round; stroke-width:0.25;"/>
<line x1="137.400000" y1="244.000000" x2="182.800000" y2="244.000000"  style="stroke:black; stroke-linecap:round; stroke-width:0.25;"/>
<line x1="137.400000" y1="420.000000" x2="202.800000" y2="420.000000"  style="stroke:black; stroke-linecap:round; stroke-width:0.25;"/>
<line x1="137.400000" y1="494.000000" x2="147.400000" y2="494.000000"  style="stroke:black; stroke-linecap:round; stroke-width:0.25;"/>
<line x1="137.400000" y1="536.000000" x2="147.400000" y2="536.000000"  style="stroke:black; stroke-linecap:round; stroke-width:0.25;"/>
<line x1="147.400000" y1="494.000000" x2="155.400000" y2="494.000000"  style="stroke:black; stroke-linecap:round; stroke-width:0.25;"/>
<line x1="147.400000" y1="514.000000" x2="155.400000" y2="514.000000"  style="stroke:black; stroke-linecap:round; stroke-width:0.25;"/>
<line x1="147.400000" y1="536.000000" x2="147.400000" y2="514.000000"  style="stroke:black; stroke-linecap:round; stroke-width:0.25;"/>
<line x1="147.400000" y1="536.000000" x2="147.400000" y2="536.000000"  style="stroke:black; stroke-linecap:round; stroke-width:0.25;"/>
<line x1="153.400000" y1="372.000000" x2="157.400000" y2="372.000000"  style="stroke:black; stroke-linecap:round; stroke-width:0.25;"/>
<line x1="153.400000" y1="568.000000" x2="157.400000" y2="568.000000"  style="stroke:black; stroke-linecap:round; stroke-width:0.25;"/>
<line x1="155.400000" y1="494.000000" x2="155.400000" y2="506.000000"  style="stroke:black; stroke-linecap:round; stroke-width:0.25;"/>
<line x1="155.400000" y1="506.000000" x2="155.400000" y2="506.000000"  style="stroke:black; stroke-linecap:round; stroke-width:0.25;"/>
<line x1="155.400000" y1="506.000000" x2="159.400000" y2="506.000000"  style="stroke:black; stroke-linecap:round; stroke-width:0.25;"/>
<line x1="155.400000" y1="514.000000" x2="159.400000" y2="514.000000"  style="stroke:black; stroke-linecap:round; stroke-width:0.25;"/>
<line x1="157.400000" y1="372.000000" x2="202.800000" y2="372.000000"  style="stroke:black; stroke-linecap:round; stroke-width:0.25;"/>
<line x1="157.400000" y1="568.000000" x2="222.800000" y2="568.000000"  style="stroke:black; stroke-linecap:round; stroke-width:0.25;"/>
<line x1="178.800000" y1="196.000000" x2="182.800000" y2="196.000000"  style="stroke:black; stroke-linecap:round; stroke-width:0.25;"/>
<line x1="178.800000" y1="324.000000" x2="182.800000" y2="324.000000"  style="stroke:black; stroke-linecap:round; stroke-width:0.25;"/>
<line x1="182.800000" y1="116.000000" x2="198.800000" y2="116.000000"  style="stroke:black; stroke-linecap:round; stroke-width:0.25;"/>
<line x1="182.800000" y1="244.000000" x2="198.800000" y2="244.000000"  style="stroke:black; stroke-linecap:round; stroke-width:0.25;"/>
<line x1="182.800000" y1="148.000000" x2="198.800000" y2="148.000000"  style="stroke:black; stroke-linecap:round; stroke-width:0.25;"/>
<line x1="182.800000" y1="164.000000" x2="182.800000" y2="148.000000"  style="stroke:black; stroke-linecap:round; stroke-width:0.25;"/>
<line x1="182.800000" y1="164.000000" x2="182.800000" y2="164.000000"  style="stroke:black; stroke-linecap:round; stroke-width:0.25;"/>
<line x1="182.800000" y1="196.000000" x2="190.800000" y2="196.000000"  style="stroke:black; stroke-linecap:round; stroke-width:0.25;"/>
<line x1="182.800000" y1="276.000000" x2="198.800000" y2="276.000000"  style="stroke:black; stroke-linecap:round; stroke-width:0.25;"/>
<line x1="182.800000" y1="292.000000" x2="182.800000" y2="276.000000"  style="stroke:black; stroke-linecap:round; stroke-width:0.25;"/>
<line x1="182.800000" y1="292.000000" x2="182.800000" y2="292.000000"  style="stroke:black; stroke-linecap:round; stroke-width:0.25;"/>
<line x1="182.800000" y1="324.000000" x2="190.800000" y2="324.000000"  style="stroke:black; stroke-linecap:round; stroke-width:0.25;"/>
<line x1="183.400000" y1="510.000000" x2="187.400000" y2="510.000000"  style="stroke:black; stroke-linecap:round; stroke-width:0.25;"/>
<line x1="187.400000" y1="510.000000" x2="222.800000" y2="510.000000"  style="stroke:black; stroke-linecap:round; stroke-width:0.25;"/>
<line x1="190.800000" y1="156.000000" x2="198.800000" y2="156.000000"  style="stroke:black; stroke-linecap:round; stroke-width:0.25;"/>
<line x1="190.800000" y1="196.000000" x2="190.800000" y2="156.000000"  style="stroke:black; stroke-linecap:round; stroke-width:0.25;"/>
<line x1="190.800000" y1="284.000000" x2="198.800000" y2="284.000000"  style="stroke:black; stroke-linecap:round; stroke-width:0.25;"/>
<line x1="190.800000" y1="324.000000" x2="190.800000" y2="284.000000"  style="stroke:black; stroke-linecap:round; stroke-width:0.25;"/>
<line x1="198.800000" y1="116.000000" x2="198.800000" y2="140.000000"  style="stroke:black; stroke-linecap:round; stroke-width:0.25;"/>
<line x1="198.800000" y1="140.000000" x2="198.800000" y2="140.000000"  style="stroke:black; stroke-linecap:round; stroke-width:0.25;"/>
<line x1="198.800000" y1="244.000000" x2="198.800000" y2="268.000000"  style="stroke:black; stroke-linecap:round; stroke-width:0.25;"/>
<line x1="198.800000" y1="268.000000" x2="198.800000" y2="268.000000"  style="stroke:black; stroke-linecap:round; stroke-width:0.25;"/>
<line x1="198.800000" y1="140.000000" x2="202.800000" y2="140.000000"  style="stroke:black; stroke-linecap:round; stroke-width:0.25;"/>
<line x1="198.800000" y1="148.000000" x2="202.800000" y2="148.000000"  style="stroke:black; stroke-linecap:round; stroke-width:0.25;"/>
<line x1="198.800000" y1="156.000000" x2="202.800000" y2="156.000000"  style="stroke:black; stroke-linecap:round; stroke-width:0.25;"/>
<line x1="198.800000" y1="268.000000" x2="202.800000" y2="268.000000"  style="stroke:black; stroke-linecap:round; stroke-width:0.25;"/>
<line x1="198.800000" y1="276.000000" x2="202.800000" y2="276.000000"  style="stroke:black; stroke-linecap:round; stroke-width:0.25;"/>
<line x1="198.800000" y1="284.000000" x2="202.800000" y2="284.000000"  style="stroke:black; stroke-linecap:round; stroke-width:0.25;"/>
<line x1="198.800000" y1="452.000000" x2="202.800000" y2="452.000000"  style="stroke:black; stroke-linecap:round; stroke-width:0.25;"/>
<line x1="202.800000" y1="372.000000" x2="218.800000" y2="372.000000"  style="stroke:black; stroke-linecap:round; stroke-width:0.25;"/>
<line x1="202.800000" y1="404.000000" x2="218.800000" y2="404.000000"  style="stroke:black; stroke-linecap:round; stroke-width:0.25;"/>
<line x1="202.800000" y1="420.000000" x2="202.800000" y2="404.000000"  style="stroke:black; stroke-linecap:round; stroke-width:0.25;"/>
<line x1="202.800000" y1="420.000000" x2="202.800000" y2="420.000000"  style="stroke:black; stroke-linecap:round; stroke-width:0.25;"/>
<line x1="202.800000" y1="452.000000" x2="210.800000" y2="452.000000"  style="stroke:black; stroke-linecap:round; stroke-width:0.25;"/>
<line x1="204.750000" y1="36.000000" x2="208.750000" y2="36.000000"  style="stroke:black; stroke-linecap:round; stroke-width:0.25;"/>
<line x1="204.750000" y1="68.000000" x2="208.750000" y2="68.000000"  style="stroke:black; stroke-linecap:round; stroke-width:0.25;"/>
<line x1="208.750000" y1="36.000000" x2="365.500000" y2="36.000000"  style="stroke:black; stroke-linecap:round; stroke-width:0.25;"/>
<line x1="208.750000" y1="68.000000" x2="365.500000" y2="68.000000"  style="stroke:black; stroke-linecap:round; stroke-width:0.25;"/>
<line x1="210.800000" y1="412.000000" x2="218.800000" y2="412.000000"  style="stroke:black; stroke-linecap:round; stroke-width:0.25;"/>
<line x1="210.800000" y1="452.000000" x2="210.800000" y2="412.000000"  style="stroke:black; stroke-linecap:round; stroke-width:0.25;"/>
<line x1="218.800000" y1="372.000000" x2="218.800000" y2="396.000000"  style="stroke:black; stroke-linecap:round; stroke-width:0.25;"/>
<line x1="218.800000" y1="396.000000" x2="218.800000" y2="396.000000"  style="stroke:black; stroke-linecap:round; stroke-width:0.25;"/>
<line x1="218.800000" y1="396.000000" x2="222.800000" y2="396.000000"  style="stroke:black; stroke-linecap:round; stroke-width:0.25;"/>
<line x1="218.800000" y1="404.000000" x2="222.800000" y2="404.000000"  style="stroke:black; stroke-linecap:round; stroke-width:0.25;"/>
<line x1="218.800000" y1="412.000000" x2="222.800000" y2="412.000000"  style="stroke:black; stroke-linecap:round; stroke-width:0.25;"/>
<line x1="218.800000" y1="600.000000" x2="222.800000" y2="600.000000"  style="stroke:black; stroke-linecap:round; stroke-width:0.25;"/>
<line x1="222.800000" y1="510.000000" x2="238.800000" y2="510.000000"  style="stroke:black; stroke-linecap:round; stroke-width:0.25;"/>
<line x1="222.800000" y1="542.000000" x2="238.800000" y2="542.000000"  style="stroke:black; stroke-linecap:round; stroke-width:0.25;"/>
<line x1="222.800000" y1="568.000000" x2="222.800000" y2="542.000000"  style="stroke:black; stroke-linecap:round; stroke-width:0.25;"/>
<line x1="222.800000" y1="568.000000" x2="222.800000" y2="568.000000"  style="stroke:black; stroke-linecap:round; stroke-width:0.25;"/>
<line x1="222.800000" y1="600.000000" x2="230.800000" y2="600.000000"  style="stroke:black; stroke-linecap:round; stroke-width:0.25;"/>
<line x1="230.800000" y1="550.000000" x2="238.800000" y2="550.000000"  style="stroke:black; stroke-linecap:round; stroke-width:0.25;"/>
<line x1="230.800000" y1="600.000000" x2="230.800000" y2="550.000000"  style="stroke:black; stroke-linecap:round; stroke-width:0.25;"/>
<line x1="238.800000" y1="510.000000" x2="238.800000" y2="534.000000"  style="stroke:black; stroke-linecap:round; stroke-width:0.25;"/>
<line x1="238.800000" y1="534.000000" x2="238.800000" y2="534.000000"  style="stroke:black; stroke-linecap:round; stroke-width:0.25;"/>
<line x1="238.800000" y1="534.000000" x2="242.800000" y2="534.000000"  style="stroke:black; stroke-linecap:round; stroke-width:0.25;"/>
<line x1="238.800000" y1="542.000000" x2="242.800000" y2="542.000000"  style="stroke:black; stroke-linecap:round; stroke-width:0.25;"/>
<line x1="238.800000" y1="550.000000" x2="242.800000" y2="550.000000"  style="stroke:black; stroke-linecap:round; stroke-width:0.25;"/>
<line x1="241.500000" y1="148.000000" x2="245.500000" y2="148.000000"  style="stroke:black; stroke-linecap:round; stroke-width:0.25;"/>
<line x1="241.500000" y1="276.000000" x2="245.500000" y2="276.000000"  style="stroke:black; stroke-linecap:round; stroke-width:0.25;"/>
<line x1="245.500000" y1="148.000000" x2="253.500000" y2="148.000000"  style="stroke:black; stroke-linecap:round; stroke-width:0.25;"/>
<line x1="245.500000" y1="216.000000" x2="253.500000" y2="216.000000"  style="stroke:black; stroke-linecap:round; stroke-width:0.25;"/>
<line x1="245.500000" y1="276.000000" x2="245.500000" y2="216.000000"  style="stroke:black; stroke-linecap:round; stroke-width:0.25;"/>
<line x1="245.500000" y1="276.000000" x2="245.500000" y2="276.000000"  style="stroke:black; stroke-linecap:round; stroke-width:0.25;"/>
<line x1="253.500000" y1="148.000000" x2="253.500000" y2="208.000000"  style="stroke:black; stroke-linecap:round; stroke-width:0.25;"/>
<line x1="253.500000" y1="208.000000" x2="253.500000" y2="208.000000"  style="stroke:black; stroke-linecap:round; stroke-width:0.25;"/>
<line x1="253.500000" y1="208.000000" x2="257.500000" y2="208.000000"  style="stroke:black; stroke-linecap:round; stroke-width:0.25;"/>
<line x1="253.500000" y1="216.000000" x2="257.500000" y2="216.000000"  style="stroke:black; stroke-linecap:round; stroke-width:0.25;"/>
<line x1="261.500000" y1="404.000000" x2="265.500000" y2="404.000000"  style="stroke:black; stroke-linecap:round; stroke-width:0.25;"/>
<line x1="265.500000" y1="404.000000" x2="285.500000" y2="404.000000"  style="stroke:black; stroke-linecap:round; stroke-width:0.25;"/>
<line x1="281.500000" y1="212.000000" x2="285.500000" y2="212.000000"  style="stroke:black; stroke-linecap:round; stroke-width:0.25;"/>
<line x1="281.500000" y1="542.000000" x2="285.500000" y2="542.000000"  style="stroke:black; stroke-linecap:round; stroke-width:0.25;"/>
<line x1="285.500000" y1="212.000000" x2="293.500000" y2="212.000000"  style="stroke:black; stroke-linecap:round; stroke-width:0.25;"/>
<line x1="285.500000" y1="280.000000" x2="293.500000" y2="280.000000"  style="stroke:black; stroke-linecap:round; stroke-width:0.25;"/>
<line x1="285.500000" y1="404.000000" x2="285.500000" y2="280.000000"  style="stroke:black; stroke-linecap:round; stroke-width:0.25;"/>
<line x1="285.500000" y1="404.000000" x2="285.500000" y2="404.000000"  style="stroke:black; stroke-linecap:round; stroke-width:0.25;"/>
<line x1="285.500000" y1="542.000000" x2="325.500000" y2="542.000000"  style="stroke:black; stroke-linecap:round; stroke-width:0.25;"/>
<line x1="293.500000" y1="212.000000" x2="293.500000" y2="272.000000"  style="stroke:black; stroke-linecap:round; stroke-width:0.25;"/>
<line x1="293.500000" y1="272.000000" x2="293.500000" y2="272.000000"  style="stroke:black; stroke-linecap:round; stroke-width:0.25;"/>
<line x1="293.500000" y1="272.000000" x2="297.500000" y2="272.000000"  style="stroke:black; stroke-linecap:round; stroke-width:0.25;"/>
<line x1="293.500000" y1="280.000000" x2="297.500000" y2="280.000000"  style="stroke:black; stroke-linecap:round; stroke-width:0.25;"/>
<line x1="321.500000" y1="276.000000" x2="325.500000" y2="276.000000"  style="stroke:black; stroke-linecap:round; stroke-width:0.25;"/>
<line x1="325.500000" y1="276.000000" x2="333.500000" y2="276.000000"  style="stroke:black; stroke-linecap:round; stroke-width:0.25;"/>
<line x1="325.500000" y1="354.000000" x2="333.500000" y2="354.000000"  style="stroke:black; stroke-linecap:round; stroke-width:0.25;"/>
<line x1="325.500000" y1="542.000000" x2="325.500000" y2="354.000000"  style="stroke:black; stroke-linecap:round; stroke-width:0.25;"/>
<line x1="325.500000" y1="542.000000" x2="325.500000" y2="542.000000"  style="stroke:black; stroke-linecap:round; stroke-width:0.25;"/>
<line x1="333.500000" y1="276.000000" x2="333.500000" y2="346.000000"  style="stroke:black; stroke-linecap:round; stroke-width:0.25;"/>
<line x1="333.500000" y1="346.000000" x2="333.500000" y2="346.000000"  style="stroke:black; stroke-linecap:round; stroke-width:0.25;"/>
<line x1="333.500000" y1="346.000000" x2="337.500000" y2="346.000000"  style="stroke:black; stroke-linecap:round; stroke-width:0.25;"/>
<line x1="333.500000" y1="354.000000" x2="337.500000" y2="354.000000"  style="stroke:black; stroke-linecap:round; stroke-width:0.25;"/>
<line x1="361.500000" y1="350.000000" x2="365.500000" y2="350.000000"  style="stroke:black; stroke-linecap:round; stroke-width:0.25;"/>
<line x1="365.500000" y1="36.000000" x2="381.500000" y2="36.000000"  style="stroke:black; stroke-linecap:round; stroke-width:0.25;"/>
<line x1="365.500000" y1="68.000000" x2="373.500000" y2="68.000000"  style="stroke:black; stroke-linecap:round; stroke-width:0.25;"/>
<line x1="365.500000" y1="326.000000" x2="381.500000" y2="326.000000"  style="stroke:black; stroke-linecap:round; stroke-width:0.25;"/>
<line x1="365.500000" y1="350.000000" x2="365.500000" y2="326.000000"  style="stroke:black; stroke-linecap:round; stroke-width:0.25;"/>
<line x1="365.500000" y1="350.000000" x2="365.500000" y2="350.000000"  style="stroke:black; stroke-linecap:round; stroke-width:0.25;"/>
<line x1="373.500000" y1="68.000000" x2="373.500000" y2="318.000000"  style="stroke:black; stroke-linecap:round; stroke-width:0.25;"/>
<line x1="373.500000" y1="318.000000" x2="381.500000" y2="318.000000"  style="stroke:black; stroke-linecap:round; stroke-width:0.25;"/>
<line x1="381.500000" y1="36.000000" x2="381.500000" y2="310.000000"  style="stroke:black; stroke-linecap:round; stroke-width:0.25;"/>
<line x1="381.500000" y1="310.000000" x2="381.500000" y2="310.000000"  style="stroke:black; stroke-linecap:round; stroke-width:0.25;"/>
<line x1="381.500000" y1="310.000000" x2="385.500000" y2="310.000000"  style="stroke:black; stroke-linecap:round; stroke-width:0.25;"/>
<line x1="381.500000" y1="318.000000" x2="385.500000" y2="318.000000"  style="stroke:black; stroke-linecap:round; stroke-width:0.25;"/>
<line x1="381.500000" y1="326.000000" x2="385.500000" y2="326.000000"  style="stroke:black; stroke-linecap:round; stroke-width:0.25;"/>
<line x1="424.200000" y1="318.000000" x2="428.200000" y2="318.000000"  style="stroke:black; stroke-linecap:round; stroke-width:0.25;"/>
<line x1="428.200000" y1="318.000000" x2="428.200000" y2="318.000000"  style="stroke:black; stroke-linecap:round; stroke-width:0.25;"/>
<line x1="428.200000" y1="318.000000" x2="432.200000" y2="318.000000"  style="stroke:black; stroke-linecap:round; stroke-width:0.25;"/>
<line x1="432.200000" y1="318.000000" x2="436.200000" y2="318.000000"  style="stroke:black; stroke-linecap:round; stroke-width:0.25;"/>
<line x1="436.200000" y1="318.000000" x2="446.200000" y2="318.000000"  style="stroke:black; stroke-linecap:round; stroke-width:0.25;"/>
</svg>
