<?xml version="1.0"?>
<svg xmlns="http://www.w3.org/2000/svg" xmlns:xlink="http://www.w3.org/1999/xlink" viewBox="0 0 599.000000 100.000000" width="299.500000mm" height="50.000000mm" version="1.1">
<a xlink:href="dur-0x7fbe48c9aa30.svg">
<rect x="1.000000" y="1.000000" width="598.000000" height="99.000000" rx="0" ry="0" style="stroke:none;fill:#cccccc;"/>
<rect x="0.000000" y="0.000000" width="598.000000" height="99.000000" rx="0" ry="0" style="stroke:none;fill:#ffffff;"/>
</a>
<text x="10.000000" y="7.000000" font-family="Arial" font-size="7"></text>
<rect x="25.000000" y="39.000000" width="361.200000" height="24.000000" rx="0" ry="0" style="stroke:none;fill:#cccccc;"/>
<rect x="24.000000" y="38.000000" width="361.200000" height="24.000000" rx="0" ry="0" style="stroke:none;fill:#477881;"/>
<text x="204.600000" y="52.000000" font-family="Arial" font-size="7" text-anchor="middle" fill="#FFFFFF">hslider(h:Reverb/Reverberation Room Size (InstrReverb), 0.72f, 0.05f, 2.0f, 0.01f)</text>
<circle cx="26.000000" cy="40.000000" r="1"/>
<rect x="412.200000" y="35.000000" width="24.000000" height="24.000000" rx="0" ry="0" style="stroke:none;fill:#cccccc;"/>
<rect x="411.200000" y="34.000000" width="24.000000" height="24.000000" rx="0" ry="0" style="stroke:none;fill:#f44800;"/>
<text x="423.200000" y="48.000000" font-family="Arial" font-size="7" text-anchor="middle" fill="#FFFFFF">2</text>
<circle cx="413.200000" cy="36.000000" r="1"/>
<line x1="402.200000" y1="25.000000" x2="402.200000" y2="67.000000"  style="stroke: black; stroke-linecap:round; stroke-width:0.25; stroke-dasharray:3,3;"/>
<line x1="402.200000" y1="67.000000" x2="444.200000" y2="67.000000"  style="stroke: black; stroke-linecap:round; stroke-width:0.25; stroke-dasharray:3,3;"/>
<line x1="444.200000" y1="67.000000" x2="444.200000" y2="25.000000"  style="stroke: black; stroke-linecap:round; stroke-width:0.25; stroke-dasharray:3,3;"/>
<line x1="402.200000" y1="25.000000" x2="407.200000" y2="25.000000"  style="stroke: black; stroke-linecap:round; stroke-width:0.25; stroke-dasharray:3,3;"/>
<line x1="423.325000" y1="25.000000" x2="444.200000" y2="25.000000"  style="stroke: black; stroke-linecap:round; stroke-width:0.25; stroke-dasharray:3,3;"/>
<text x="407.200000" y="27.000000" font-family="Arial" font-size="7">vol</text>
<rect x="462.200000" y="39.000000" width="24.000000" height="24.000000" rx="0" ry="0" style="stroke:none;fill:#cccccc;"/>
<rect x="461.200000" y="38.000000" width="24.000000" height="24.000000" rx="0" ry="0" style="stroke:none;fill:#4B71A1;"/>
<text x="473.200000" y="52.000000" font-family="Arial" font-size="7" text-anchor="middle" fill="#FFFFFF">min</text>
<circle cx="463.200000" cy="40.000000" r="1"/>
<line x1="458.200000" y1="45.000000" x2="461.200000" y2="46.000000"  transform="rotate(0.000000,461.200000,46.000000)" style="stroke: black; stroke-width:0.25;"/>
<line x1="458.200000" y1="47.000000" x2="461.200000" y2="46.000000"  transform="rotate(0.000000,461.200000,46.000000)" style="stroke: black; stroke-width:0.25;"/>
<line x1="458.200000" y1="53.000000" x2="461.200000" y2="54.000000"  transform="rotate(0.000000,461.200000,54.000000)" style="stroke: black; stroke-width:0.25;"/>
<line x1="458.200000" y1="55.000000" x2="461.200000" y2="54.000000"  transform="rotate(0.000000,461.200000,54.000000)" style="stroke: black; stroke-width:0.25;"/>
<rect x="502.200000" y="35.000000" width="25.800000" height="24.000000" rx="0" ry="0" style="stroke:none;fill:#cccccc;"/>
<rect x="501.200000" y="34.000000" width="25.800000" height="24.000000" rx="0" ry="0" style="stroke:none;fill:#f44800;"/>
<text x="514.100000" y="48.000000" font-family="Arial" font-size="7" text-anchor="middle" fill="#FFFFFF">0.05</text>
<circle cx="503.200000" cy="36.000000" r="1"/>
<rect x="544.000000" y="39.000000" width="24.000000" height="24.000000" rx="0" ry="0" style="stroke:none;fill:#cccccc;"/>
<rect x="543.000000" y="38.000000" width="24.000000" height="24.000000" rx="0" ry="0" style="stroke:none;fill:#4B71A1;"/>
<text x="555.000000" y="52.000000" font-family="Arial" font-size="7" text-anchor="middle" fill="#FFFFFF">max</text>
<circle cx="545.000000" cy="40.000000" r="1"/>
<line x1="540.000000" y1="45.000000" x2="543.000000" y2="46.000000"  transform="rotate(0.000000,543.000000,46.000000)" style="stroke: black; stroke-width:0.25;"/>
<line x1="540.000000" y1="47.000000" x2="543.000000" y2="46.000000"  transform="rotate(0.000000,543.000000,46.000000)" style="stroke: black; stroke-width:0.25;"/>
<line x1="540.000000" y1="53.000000" x2="543.000000" y2="54.000000"  transform="rotate(0.000000,543.000000,54.000000)" style="stroke: black; stroke-width:0.25;"/>
<line x1="540.000000" y1="55.000000" x2="543.000000" y2="54.000000"  transform="rotate(0.000000,543.000000,54.000000)" style="stroke: black; stroke-width:0.25;"/>
<line x1="15.000000" y1="15.000000" x2="15.000000" y2="85.000000"  style="stroke: black; stroke-linecap:round; stroke-width:0.25; stroke-dasharray:3,3;"/>
<line x1="15.000000" y1="85.000000" x2="584.000000" y2="85.000000"  style="stroke: black; stroke-linecap:round; stroke-width:0.25; stroke-dasharray:3,3;"/>
<line x1="584.000000" y1="85.000000" x2="584.000000" y2="15.000000"  style="stroke: black; stroke-linecap:round; stroke-width:0.25; stroke-dasharray:3,3;"/>
<line x1="15.000000" y1="15.000000" x2="20.000000" y2="15.000000"  style="stroke: black; stroke-linecap:round; stroke-width:0.25; stroke-dasharray:3,3;"/>
<line x1="52.250000" y1="15.000000" x2="584.000000" y2="15.000000"  style="stroke: black; stroke-linecap:round; stroke-width:0.25; stroke-dasharray:3,3;"/>
<text x="20.000000" y="17.000000" font-family="Arial" font-size="7">roomSize</text>
<line x1="586.000000" y1="49.000000" x2="589.000000" y2="50.000000"  transform="rotate(0.000000,589.000000,50.000000)" style="stroke: black; stroke-width:0.25;"/>
<line x1="586.000000" y1="51.000000" x2="589.000000" y2="50.000000"  transform="rotate(0.000000,589.000000,50.000000)" style="stroke: black; stroke-width:0.25;"/>
<line x1="385.200000" y1="50.000000" x2="389.200000" y2="50.000000"  style="stroke:black; stroke-linecap:round; stroke-width:0.25;"/>
<line x1="389.200000" y1="50.000000" x2="397.200000" y2="50.000000"  style="stroke:black; stroke-linecap:round; stroke-width:0.25;"/>
<line x1="397.200000" y1="50.000000" x2="397.200000" y2="76.000000"  style="stroke:black; stroke-linecap:round; stroke-width:0.25;"/>
<line x1="397.200000" y1="76.000000" x2="397.200000" y2="76.000000"  style="stroke:black; stroke-linecap:round; stroke-width:0.25;"/>
<line x1="397.200000" y1="76.000000" x2="423.200000" y2="76.000000"  style="stroke:black; stroke-linecap:round; stroke-width:0.25;"/>
<line x1="423.200000" y1="76.000000" x2="449.200000" y2="76.000000"  style="stroke:black; stroke-linecap:round; stroke-width:0.25;"/>
<line x1="435.200000" y1="46.000000" x2="439.200000" y2="46.000000"  style="stroke:black; stroke-linecap:round; stroke-width:0.25;"/>
<line x1="439.200000" y1="46.000000" x2="449.200000" y2="46.000000"  style="stroke:black; stroke-linecap:round; stroke-width:0.25;"/>
<line x1="449.200000" y1="46.000000" x2="457.200000" y2="46.000000"  style="stroke:black; stroke-linecap:round; stroke-width:0.25;"/>
<line x1="449.200000" y1="54.000000" x2="457.200000" y2="54.000000"  style="stroke:black; stroke-linecap:round; stroke-width:0.25;"/>
<line x1="449.200000" y1="76.000000" x2="449.200000" y2="54.000000"  style="stroke:black; stroke-linecap:round; stroke-width:0.25;"/>
<line x1="449.200000" y1="76.000000" x2="449.200000" y2="76.000000"  style="stroke:black; stroke-linecap:round; stroke-width:0.25;"/>
<line x1="457.200000" y1="46.000000" x2="461.200000" y2="46.000000"  style="stroke:black; stroke-linecap:round; stroke-width:0.25;"/>
<line x1="457.200000" y1="54.000000" x2="461.200000" y2="54.000000"  style="stroke:black; stroke-linecap:round; stroke-width:0.25;"/>
<line x1="485.200000" y1="50.000000" x2="489.200000" y2="50.000000"  style="stroke:black; stroke-linecap:round; stroke-width:0.25;"/>
<line x1="489.200000" y1="50.000000" x2="497.200000" y2="50.000000"  style="stroke:black; stroke-linecap:round; stroke-width:0.25;"/>
<line x1="497.200000" y1="50.000000" x2="497.200000" y2="66.000000"  style="stroke:black; stroke-linecap:round; stroke-width:0.25;"/>
<line x1="497.200000" y1="66.000000" x2="497.200000" y2="66.000000"  style="stroke:black; stroke-linecap:round; stroke-width:0.25;"/>
<line x1="497.200000" y1="66.000000" x2="514.100000" y2="66.000000"  style="stroke:black; stroke-linecap:round; stroke-width:0.25;"/>
<line x1="514.100000" y1="66.000000" x2="531.000000" y2="66.000000"  style="stroke:black; stroke-linecap:round; stroke-width:0.25;"/>
<line x1="527.000000" y1="46.000000" x2="531.000000" y2="46.000000"  style="stroke:black; stroke-linecap:round; stroke-width:0.25;"/>
<line x1="531.000000" y1="46.000000" x2="539.000000" y2="46.000000"  style="stroke:black; stroke-linecap:round; stroke-width:0.25;"/>
<line x1="531.000000" y1="54.000000" x2="539.000000" y2="54.000000"  style="stroke:black; stroke-linecap:round; stroke-width:0.25;"/>
<line x1="531.000000" y1="66.000000" x2="531.000000" y2="54.000000"  style="stroke:black; stroke-linecap:round; stroke-width:0.25;"/>
<line x1="531.000000" y1="66.000000" x2="531.000000" y2="66.000000"  style="stroke:black; stroke-linecap:round; stroke-width:0.25;"/>
<line x1="539.000000" y1="46.000000" x2="543.000000" y2="46.000000"  style="stroke:black; stroke-linecap:round; stroke-width:0.25;"/>
<line x1="539.000000" y1="54.000000" x2="543.000000" y2="54.000000"  style="stroke:black; stroke-linecap:round; stroke-width:0.25;"/>
<line x1="567.000000" y1="50.000000" x2="571.000000" y2="50.000000"  style="stroke:black; stroke-linecap:round; stroke-width:0.25;"/>
<line x1="571.000000" y1="50.000000" x2="571.000000" y2="50.000000"  style="stroke:black; stroke-linecap:round; stroke-width:0.25;"/>
<line x1="571.000000" y1="50.000000" x2="575.000000" y2="50.000000"  style="stroke:black; stroke-linecap:round; stroke-width:0.25;"/>
<line x1="575.000000" y1="50.000000" x2="579.000000" y2="50.000000"  style="stroke:black; stroke-linecap:round; stroke-width:0.25;"/>
<line x1="579.000000" y1="50.000000" x2="589.000000" y2="50.000000"  style="stroke:black; stroke-linecap:round; stroke-width:0.25;"/>
</svg>
