<?xml version="1.0"?>
<svg xmlns="http://www.w3.org/2000/svg" xmlns:xlink="http://www.w3.org/1999/xlink" viewBox="0 0 337.000000 272.000000" width="168.500000mm" height="136.000000mm" version="1.1">
<a xlink:href="conv2-0x7fb0facfa780.svg">
<rect x="1.000000" y="1.000000" width="336.000000" height="271.000000" rx="0" ry="0" style="stroke:none;fill:#cccccc;"/>
<rect x="0.000000" y="0.000000" width="336.000000" height="271.000000" rx="0" ry="0" style="stroke:none;fill:#ffffff;"/>
</a>
<text x="10.000000" y="7.000000" font-family="Arial" font-size="7"></text>
<rect x="113.500000" y="25.000000" width="24.000000" height="24.000000" rx="0" ry="0" style="stroke:none;fill:#cccccc;"/>
<rect x="112.500000" y="24.000000" width="24.000000" height="24.000000" rx="0" ry="0" style="stroke:none;fill:#f44800;"/>
<text x="124.500000" y="38.000000" font-family="Arial" font-size="7" text-anchor="middle" fill="#FFFFFF">-2</text>
<circle cx="114.500000" cy="26.000000" r="1"/>
<rect x="112.600000" y="57.000000" width="25.800000" height="24.000000" rx="0" ry="0" style="stroke:none;fill:#cccccc;"/>
<rect x="111.600000" y="56.000000" width="25.800000" height="24.000000" rx="0" ry="0" style="stroke:none;fill:#f44800;"/>
<text x="124.500000" y="70.000000" font-family="Arial" font-size="7" text-anchor="middle" fill="#FFFFFF">0.997</text>
<circle cx="113.600000" cy="58.000000" r="1"/>
<rect x="154.400000" y="41.000000" width="24.000000" height="24.000000" rx="0" ry="0" style="stroke:none;fill:#cccccc;"/>
<rect x="153.400000" y="40.000000" width="24.000000" height="24.000000" rx="0" ry="0" style="stroke:none;fill:#4B71A1;"/>
<text x="165.400000" y="54.000000" font-family="Arial" font-size="7" text-anchor="middle" fill="#FFFFFF">*</text>
<circle cx="155.400000" cy="42.000000" r="1"/>
<line x1="150.400000" y1="47.000000" x2="153.400000" y2="48.000000"  transform="rotate(0.000000,153.400000,48.000000)" style="stroke: black; stroke-width:0.25;"/>
<line x1="150.400000" y1="49.000000" x2="153.400000" y2="48.000000"  transform="rotate(0.000000,153.400000,48.000000)" style="stroke: black; stroke-width:0.25;"/>
<line x1="150.400000" y1="55.000000" x2="153.400000" y2="56.000000"  transform="rotate(0.000000,153.400000,56.000000)" style="stroke: black; stroke-width:0.25;"/>
<line x1="150.400000" y1="57.000000" x2="153.400000" y2="56.000000"  transform="rotate(0.000000,153.400000,56.000000)" style="stroke: black; stroke-width:0.25;"/>
<rect x="50.150000" y="99.000000" width="38.700000" height="24.000000" rx="0" ry="0" style="stroke:none;fill:#cccccc;"/>
<rect x="49.150000" y="98.000000" width="38.700000" height="24.000000" rx="0" ry="0" style="stroke:none;fill:#f44800;"/>
<text x="68.500000" y="112.000000" font-family="Arial" font-size="7" text-anchor="middle" fill="#FFFFFF">3.14159</text>
<circle cx="51.150000" cy="100.000000" r="1"/>
<line x1="40.150000" y1="89.000000" x2="40.150000" y2="131.000000"  style="stroke: black; stroke-linecap:round; stroke-width:0.25; stroke-dasharray:3,3;"/>
<line x1="40.150000" y1="131.000000" x2="96.850000" y2="131.000000"  style="stroke: black; stroke-linecap:round; stroke-width:0.25; stroke-dasharray:3,3;"/>
<line x1="96.850000" y1="131.000000" x2="96.850000" y2="89.000000"  style="stroke: black; stroke-linecap:round; stroke-width:0.25; stroke-dasharray:3,3;"/>
<line x1="40.150000" y1="89.000000" x2="45.150000" y2="89.000000"  style="stroke: black; stroke-linecap:round; stroke-width:0.25; stroke-dasharray:3,3;"/>
<line x1="58.050000" y1="89.000000" x2="96.850000" y2="89.000000"  style="stroke: black; stroke-linecap:round; stroke-width:0.25; stroke-dasharray:3,3;"/>
<text x="45.150000" y="91.000000" font-family="Arial" font-size="7">PI</text>
<rect x="57.500000" y="151.000000" width="24.000000" height="24.000000" rx="0" ry="0" style="stroke:none;fill:#cccccc;"/>
<rect x="56.500000" y="150.000000" width="24.000000" height="24.000000" rx="0" ry="0" style="stroke:none;fill:#f44800;"/>
<text x="68.500000" y="164.000000" font-family="Arial" font-size="7" text-anchor="middle" fill="#FFFFFF">2</text>
<circle cx="58.500000" cy="152.000000" r="1"/>
<line x1="47.500000" y1="141.000000" x2="47.500000" y2="183.000000"  style="stroke: black; stroke-linecap:round; stroke-width:0.25; stroke-dasharray:3,3;"/>
<line x1="47.500000" y1="183.000000" x2="89.500000" y2="183.000000"  style="stroke: black; stroke-linecap:round; stroke-width:0.25; stroke-dasharray:3,3;"/>
<line x1="89.500000" y1="183.000000" x2="89.500000" y2="141.000000"  style="stroke: black; stroke-linecap:round; stroke-width:0.25; stroke-dasharray:3,3;"/>
<line x1="47.500000" y1="141.000000" x2="52.500000" y2="141.000000"  style="stroke: black; stroke-linecap:round; stroke-width:0.25; stroke-dasharray:3,3;"/>
<line x1="89.500000" y1="141.000000" x2="89.500000" y2="141.000000"  style="stroke: black; stroke-linecap:round; stroke-width:0.25; stroke-dasharray:3,3;"/>
<text x="52.500000" y="143.000000" font-family="Arial" font-size="7">envelopeRelease</text>
<rect x="114.850000" y="125.000000" width="24.000000" height="24.000000" rx="0" ry="0" style="stroke:none;fill:#cccccc;"/>
<rect x="113.850000" y="124.000000" width="24.000000" height="24.000000" rx="0" ry="0" style="stroke:none;fill:#4B71A1;"/>
<text x="125.850000" y="138.000000" font-family="Arial" font-size="7" text-anchor="middle" fill="#FFFFFF">*</text>
<circle cx="115.850000" cy="126.000000" r="1"/>
<line x1="110.850000" y1="131.000000" x2="113.850000" y2="132.000000"  transform="rotate(0.000000,113.850000,132.000000)" style="stroke: black; stroke-width:0.25;"/>
<line x1="110.850000" y1="133.000000" x2="113.850000" y2="132.000000"  transform="rotate(0.000000,113.850000,132.000000)" style="stroke: black; stroke-width:0.25;"/>
<line x1="110.850000" y1="139.000000" x2="113.850000" y2="140.000000"  transform="rotate(0.000000,113.850000,140.000000)" style="stroke: black; stroke-width:0.25;"/>
<line x1="110.850000" y1="141.000000" x2="113.850000" y2="140.000000"  transform="rotate(0.000000,113.850000,140.000000)" style="stroke: black; stroke-width:0.25;"/>
<a xlink:href="lipFilterFreq-0x7fb0fa8bc410.svg">
<rect x="25.000000" y="193.000000" width="129.000000" height="24.000000" rx="0" ry="0" style="stroke:none;fill:#cccccc;"/>
<rect x="24.000000" y="192.000000" width="129.000000" height="24.000000" rx="0" ry="0" style="stroke:none;fill:#003366;"/>
</a>
<a xlink:href="lipFilterFreq-0x7fb0fa8bc410.svg">
<text x="88.500000" y="206.000000" font-family="Arial" font-size="7" text-anchor="middle" fill="#FFFFFF">lipFilterFreq...,0.999f : *))</text>
</a>
<circle cx="26.000000" cy="194.000000" r="1"/>
<rect x="170.000000" y="141.000000" width="24.000000" height="24.000000" rx="0" ry="0" style="stroke:none;fill:#cccccc;"/>
<rect x="169.000000" y="140.000000" width="24.000000" height="24.000000" rx="0" ry="0" style="stroke:none;fill:#4B71A1;"/>
<text x="181.000000" y="154.000000" font-family="Arial" font-size="7" text-anchor="middle" fill="#FFFFFF">*</text>
<circle cx="171.000000" cy="142.000000" r="1"/>
<line x1="166.000000" y1="147.000000" x2="169.000000" y2="148.000000"  transform="rotate(0.000000,169.000000,148.000000)" style="stroke: black; stroke-width:0.25;"/>
<line x1="166.000000" y1="149.000000" x2="169.000000" y2="148.000000"  transform="rotate(0.000000,169.000000,148.000000)" style="stroke: black; stroke-width:0.25;"/>
<line x1="166.000000" y1="155.000000" x2="169.000000" y2="156.000000"  transform="rotate(0.000000,169.000000,156.000000)" style="stroke: black; stroke-width:0.25;"/>
<line x1="166.000000" y1="157.000000" x2="169.000000" y2="156.000000"  transform="rotate(0.000000,169.000000,156.000000)" style="stroke: black; stroke-width:0.25;"/>
<a xlink:href="samplingfreq-0x7fb0fa910b10.svg">
<rect x="83.700000" y="225.000000" width="51.600000" height="24.000000" rx="0" ry="0" style="stroke:none;fill:#cccccc;"/>
<rect x="82.700000" y="224.000000" width="51.600000" height="24.000000" rx="0" ry="0" style="stroke:none;fill:#003366;"/>
</a>
<a xlink:href="samplingfreq-0x7fb0fa910b10.svg">
<text x="108.500000" y="238.000000" font-family="Arial" font-size="7" text-anchor="middle" fill="#FFFFFF">samplingfreq</text>
</a>
<circle cx="84.700000" cy="226.000000" r="1"/>
<rect x="210.000000" y="157.000000" width="24.000000" height="24.000000" rx="0" ry="0" style="stroke:none;fill:#cccccc;"/>
<rect x="209.000000" y="156.000000" width="24.000000" height="24.000000" rx="0" ry="0" style="stroke:none;fill:#4B71A1;"/>
<text x="221.000000" y="170.000000" font-family="Arial" font-size="7" text-anchor="middle" fill="#FFFFFF">/</text>
<circle cx="211.000000" cy="158.000000" r="1"/>
<line x1="206.000000" y1="163.000000" x2="209.000000" y2="164.000000"  transform="rotate(0.000000,209.000000,164.000000)" style="stroke: black; stroke-width:0.25;"/>
<line x1="206.000000" y1="165.000000" x2="209.000000" y2="164.000000"  transform="rotate(0.000000,209.000000,164.000000)" style="stroke: black; stroke-width:0.25;"/>
<line x1="206.000000" y1="171.000000" x2="209.000000" y2="172.000000"  transform="rotate(0.000000,209.000000,172.000000)" style="stroke: black; stroke-width:0.25;"/>
<line x1="206.000000" y1="173.000000" x2="209.000000" y2="172.000000"  transform="rotate(0.000000,209.000000,172.000000)" style="stroke: black; stroke-width:0.25;"/>
<rect x="242.000000" y="157.000000" width="24.000000" height="24.000000" rx="0" ry="0" style="stroke:none;fill:#cccccc;"/>
<rect x="241.000000" y="156.000000" width="24.000000" height="24.000000" rx="0" ry="0" style="stroke:none;fill:#4B71A1;"/>
<text x="253.000000" y="170.000000" font-family="Arial" font-size="7" text-anchor="middle" fill="#FFFFFF">cos</text>
<circle cx="243.000000" cy="158.000000" r="1"/>
<line x1="238.000000" y1="167.000000" x2="241.000000" y2="168.000000"  transform="rotate(0.000000,241.000000,168.000000)" style="stroke: black; stroke-width:0.25;"/>
<line x1="238.000000" y1="169.000000" x2="241.000000" y2="168.000000"  transform="rotate(0.000000,241.000000,168.000000)" style="stroke: black; stroke-width:0.25;"/>
<rect x="282.000000" y="125.000000" width="24.000000" height="24.000000" rx="0" ry="0" style="stroke:none;fill:#cccccc;"/>
<rect x="281.000000" y="124.000000" width="24.000000" height="24.000000" rx="0" ry="0" style="stroke:none;fill:#4B71A1;"/>
<text x="293.000000" y="138.000000" font-family="Arial" font-size="7" text-anchor="middle" fill="#FFFFFF">*</text>
<circle cx="283.000000" cy="126.000000" r="1"/>
<line x1="278.000000" y1="131.000000" x2="281.000000" y2="132.000000"  transform="rotate(0.000000,281.000000,132.000000)" style="stroke: black; stroke-width:0.25;"/>
<line x1="278.000000" y1="133.000000" x2="281.000000" y2="132.000000"  transform="rotate(0.000000,281.000000,132.000000)" style="stroke: black; stroke-width:0.25;"/>
<line x1="278.000000" y1="139.000000" x2="281.000000" y2="140.000000"  transform="rotate(0.000000,281.000000,140.000000)" style="stroke: black; stroke-width:0.25;"/>
<line x1="278.000000" y1="141.000000" x2="281.000000" y2="140.000000"  transform="rotate(0.000000,281.000000,140.000000)" style="stroke: black; stroke-width:0.25;"/>
<line x1="15.000000" y1="15.000000" x2="15.000000" y2="257.000000"  style="stroke: black; stroke-linecap:round; stroke-width:0.25; stroke-dasharray:3,3;"/>
<line x1="15.000000" y1="257.000000" x2="322.000000" y2="257.000000"  style="stroke: black; stroke-linecap:round; stroke-width:0.25; stroke-dasharray:3,3;"/>
<line x1="322.000000" y1="257.000000" x2="322.000000" y2="15.000000"  style="stroke: black; stroke-linecap:round; stroke-width:0.25; stroke-dasharray:3,3;"/>
<line x1="15.000000" y1="15.000000" x2="20.000000" y2="15.000000"  style="stroke: black; stroke-linecap:round; stroke-width:0.25; stroke-dasharray:3,3;"/>
<line x1="32.900000" y1="15.000000" x2="322.000000" y2="15.000000"  style="stroke: black; stroke-linecap:round; stroke-width:0.25; stroke-dasharray:3,3;"/>
<text x="20.000000" y="17.000000" font-family="Arial" font-size="7">a1</text>
<line x1="324.000000" y1="135.000000" x2="327.000000" y2="136.000000"  transform="rotate(0.000000,327.000000,136.000000)" style="stroke: black; stroke-width:0.25;"/>
<line x1="324.000000" y1="137.000000" x2="327.000000" y2="136.000000"  transform="rotate(0.000000,327.000000,136.000000)" style="stroke: black; stroke-width:0.25;"/>
<line x1="80.500000" y1="162.000000" x2="84.500000" y2="162.000000"  style="stroke:black; stroke-linecap:round; stroke-width:0.25;"/>
<line x1="84.500000" y1="162.000000" x2="94.500000" y2="162.000000"  style="stroke:black; stroke-linecap:round; stroke-width:0.25;"/>
<line x1="87.850000" y1="110.000000" x2="91.850000" y2="110.000000"  style="stroke:black; stroke-linecap:round; stroke-width:0.25;"/>
<line x1="91.850000" y1="110.000000" x2="101.850000" y2="110.000000"  style="stroke:black; stroke-linecap:round; stroke-width:0.25;"/>
<line x1="94.500000" y1="162.000000" x2="101.850000" y2="162.000000"  style="stroke:black; stroke-linecap:round; stroke-width:0.25;"/>
<line x1="101.850000" y1="110.000000" x2="109.850000" y2="110.000000"  style="stroke:black; stroke-linecap:round; stroke-width:0.25;"/>
<line x1="101.850000" y1="140.000000" x2="109.850000" y2="140.000000"  style="stroke:black; stroke-linecap:round; stroke-width:0.25;"/>
<line x1="101.850000" y1="162.000000" x2="101.850000" y2="140.000000"  style="stroke:black; stroke-linecap:round; stroke-width:0.25;"/>
<line x1="101.850000" y1="162.000000" x2="101.850000" y2="162.000000"  style="stroke:black; stroke-linecap:round; stroke-width:0.25;"/>
<line x1="109.850000" y1="110.000000" x2="109.850000" y2="132.000000"  style="stroke:black; stroke-linecap:round; stroke-width:0.25;"/>
<line x1="109.850000" y1="132.000000" x2="109.850000" y2="132.000000"  style="stroke:black; stroke-linecap:round; stroke-width:0.25;"/>
<line x1="109.850000" y1="132.000000" x2="113.850000" y2="132.000000"  style="stroke:black; stroke-linecap:round; stroke-width:0.25;"/>
<line x1="109.850000" y1="140.000000" x2="113.850000" y2="140.000000"  style="stroke:black; stroke-linecap:round; stroke-width:0.25;"/>
<line x1="134.300000" y1="236.000000" x2="138.300000" y2="236.000000"  style="stroke:black; stroke-linecap:round; stroke-width:0.25;"/>
<line x1="136.500000" y1="36.000000" x2="140.500000" y2="36.000000"  style="stroke:black; stroke-linecap:round; stroke-width:0.25;"/>
<line x1="137.400000" y1="68.000000" x2="141.400000" y2="68.000000"  style="stroke:black; stroke-linecap:round; stroke-width:0.25;"/>
<line x1="137.850000" y1="136.000000" x2="141.850000" y2="136.000000"  style="stroke:black; stroke-linecap:round; stroke-width:0.25;"/>
<line x1="138.300000" y1="236.000000" x2="197.000000" y2="236.000000"  style="stroke:black; stroke-linecap:round; stroke-width:0.25;"/>
<line x1="140.500000" y1="36.000000" x2="141.400000" y2="36.000000"  style="stroke:black; stroke-linecap:round; stroke-width:0.25;"/>
<line x1="141.400000" y1="56.000000" x2="149.400000" y2="56.000000"  style="stroke:black; stroke-linecap:round; stroke-width:0.25;"/>
<line x1="141.400000" y1="68.000000" x2="141.400000" y2="56.000000"  style="stroke:black; stroke-linecap:round; stroke-width:0.25;"/>
<line x1="141.400000" y1="68.000000" x2="141.400000" y2="68.000000"  style="stroke:black; stroke-linecap:round; stroke-width:0.25;"/>
<line x1="141.400000" y1="36.000000" x2="149.400000" y2="36.000000"  style="stroke:black; stroke-linecap:round; stroke-width:0.25;"/>
<line x1="141.850000" y1="136.000000" x2="157.000000" y2="136.000000"  style="stroke:black; stroke-linecap:round; stroke-width:0.25;"/>
<line x1="149.400000" y1="48.000000" x2="153.400000" y2="48.000000"  style="stroke:black; stroke-linecap:round; stroke-width:0.25;"/>
<line x1="149.400000" y1="56.000000" x2="153.400000" y2="56.000000"  style="stroke:black; stroke-linecap:round; stroke-width:0.25;"/>
<line x1="149.400000" y1="36.000000" x2="149.400000" y2="48.000000"  style="stroke:black; stroke-linecap:round; stroke-width:0.25;"/>
<line x1="149.400000" y1="48.000000" x2="149.400000" y2="48.000000"  style="stroke:black; stroke-linecap:round; stroke-width:0.25;"/>
<line x1="153.000000" y1="204.000000" x2="157.000000" y2="204.000000"  style="stroke:black; stroke-linecap:round; stroke-width:0.25;"/>
<line x1="157.000000" y1="136.000000" x2="165.000000" y2="136.000000"  style="stroke:black; stroke-linecap:round; stroke-width:0.25;"/>
<line x1="157.000000" y1="156.000000" x2="165.000000" y2="156.000000"  style="stroke:black; stroke-linecap:round; stroke-width:0.25;"/>
<line x1="157.000000" y1="204.000000" x2="157.000000" y2="156.000000"  style="stroke:black; stroke-linecap:round; stroke-width:0.25;"/>
<line x1="157.000000" y1="204.000000" x2="157.000000" y2="204.000000"  style="stroke:black; stroke-linecap:round; stroke-width:0.25;"/>
<line x1="165.000000" y1="136.000000" x2="165.000000" y2="148.000000"  style="stroke:black; stroke-linecap:round; stroke-width:0.25;"/>
<line x1="165.000000" y1="148.000000" x2="165.000000" y2="148.000000"  style="stroke:black; stroke-linecap:round; stroke-width:0.25;"/>
<line x1="165.000000" y1="148.000000" x2="169.000000" y2="148.000000"  style="stroke:black; stroke-linecap:round; stroke-width:0.25;"/>
<line x1="165.000000" y1="156.000000" x2="169.000000" y2="156.000000"  style="stroke:black; stroke-linecap:round; stroke-width:0.25;"/>
<line x1="177.400000" y1="52.000000" x2="181.400000" y2="52.000000"  style="stroke:black; stroke-linecap:round; stroke-width:0.25;"/>
<line x1="181.400000" y1="52.000000" x2="269.000000" y2="52.000000"  style="stroke:black; stroke-linecap:round; stroke-width:0.25;"/>
<line x1="193.000000" y1="152.000000" x2="197.000000" y2="152.000000"  style="stroke:black; stroke-linecap:round; stroke-width:0.25;"/>
<line x1="197.000000" y1="152.000000" x2="205.000000" y2="152.000000"  style="stroke:black; stroke-linecap:round; stroke-width:0.25;"/>
<line x1="197.000000" y1="172.000000" x2="205.000000" y2="172.000000"  style="stroke:black; stroke-linecap:round; stroke-width:0.25;"/>
<line x1="197.000000" y1="236.000000" x2="197.000000" y2="172.000000"  style="stroke:black; stroke-linecap:round; stroke-width:0.25;"/>
<line x1="197.000000" y1="236.000000" x2="197.000000" y2="236.000000"  style="stroke:black; stroke-linecap:round; stroke-width:0.25;"/>
<line x1="205.000000" y1="152.000000" x2="205.000000" y2="164.000000"  style="stroke:black; stroke-linecap:round; stroke-width:0.25;"/>
<line x1="205.000000" y1="164.000000" x2="205.000000" y2="164.000000"  style="stroke:black; stroke-linecap:round; stroke-width:0.25;"/>
<line x1="205.000000" y1="164.000000" x2="209.000000" y2="164.000000"  style="stroke:black; stroke-linecap:round; stroke-width:0.25;"/>
<line x1="205.000000" y1="172.000000" x2="209.000000" y2="172.000000"  style="stroke:black; stroke-linecap:round; stroke-width:0.25;"/>
<line x1="233.000000" y1="168.000000" x2="237.000000" y2="168.000000"  style="stroke:black; stroke-linecap:round; stroke-width:0.25;"/>
<line x1="237.000000" y1="168.000000" x2="237.000000" y2="168.000000"  style="stroke:black; stroke-linecap:round; stroke-width:0.25;"/>
<line x1="237.000000" y1="168.000000" x2="241.000000" y2="168.000000"  style="stroke:black; stroke-linecap:round; stroke-width:0.25;"/>
<line x1="265.000000" y1="168.000000" x2="269.000000" y2="168.000000"  style="stroke:black; stroke-linecap:round; stroke-width:0.25;"/>
<line x1="269.000000" y1="52.000000" x2="277.000000" y2="52.000000"  style="stroke:black; stroke-linecap:round; stroke-width:0.25;"/>
<line x1="269.000000" y1="140.000000" x2="277.000000" y2="140.000000"  style="stroke:black; stroke-linecap:round; stroke-width:0.25;"/>
<line x1="269.000000" y1="168.000000" x2="269.000000" y2="140.000000"  style="stroke:black; stroke-linecap:round; stroke-width:0.25;"/>
<line x1="269.000000" y1="168.000000" x2="269.000000" y2="168.000000"  style="stroke:black; stroke-linecap:round; stroke-width:0.25;"/>
<line x1="277.000000" y1="52.000000" x2="277.000000" y2="132.000000"  style="stroke:black; stroke-linecap:round; stroke-width:0.25;"/>
<line x1="277.000000" y1="132.000000" x2="277.000000" y2="132.000000"  style="stroke:black; stroke-linecap:round; stroke-width:0.25;"/>
<line x1="277.000000" y1="132.000000" x2="281.000000" y2="132.000000"  style="stroke:black; stroke-linecap:round; stroke-width:0.25;"/>
<line x1="277.000000" y1="140.000000" x2="281.000000" y2="140.000000"  style="stroke:black; stroke-linecap:round; stroke-width:0.25;"/>
<line x1="305.000000" y1="136.000000" x2="309.000000" y2="136.000000"  style="stroke:black; stroke-linecap:round; stroke-width:0.25;"/>
<line x1="309.000000" y1="136.000000" x2="309.000000" y2="136.000000"  style="stroke:black; stroke-linecap:round; stroke-width:0.25;"/>
<line x1="309.000000" y1="136.000000" x2="313.000000" y2="136.000000"  style="stroke:black; stroke-linecap:round; stroke-width:0.25;"/>
<line x1="313.000000" y1="136.000000" x2="317.000000" y2="136.000000"  style="stroke:black; stroke-linecap:round; stroke-width:0.25;"/>
<line x1="317.000000" y1="136.000000" x2="327.000000" y2="136.000000"  style="stroke:black; stroke-linecap:round; stroke-width:0.25;"/>
</svg>
