<?xml version="1.0"?>
<svg xmlns="http://www.w3.org/2000/svg" xmlns:xlink="http://www.w3.org/1999/xlink" viewBox="0 0 436.000000 80.000000" width="218.000000mm" height="40.000000mm" version="1.1">
<a xlink:href="brass-0x7fb0fad13e50.svg">
<rect x="1.000000" y="1.000000" width="435.000000" height="79.000000" rx="0" ry="0" style="stroke:none;fill:#cccccc;"/>
<rect x="0.000000" y="0.000000" width="435.000000" height="79.000000" rx="0" ry="0" style="stroke:none;fill:#ffffff;"/>
</a>
<text x="10.000000" y="7.000000" font-family="Arial" font-size="7"></text>
<rect x="41.000000" y="33.000000" width="25.800000" height="24.000000" rx="0" ry="0" style="stroke:none;fill:#cccccc;"/>
<rect x="40.000000" y="32.000000" width="25.800000" height="24.000000" rx="0" ry="0" style="stroke:none;fill:#f44800;"/>
<text x="52.900000" y="46.000000" font-family="Arial" font-size="7" text-anchor="middle" fill="#FFFFFF">0.03</text>
<circle cx="42.000000" cy="34.000000" r="1"/>
<rect x="82.800000" y="29.000000" width="24.000000" height="24.000000" rx="0" ry="0" style="stroke:none;fill:#cccccc;"/>
<rect x="81.800000" y="28.000000" width="24.000000" height="24.000000" rx="0" ry="0" style="stroke:none;fill:#4B71A1;"/>
<text x="93.800000" y="42.000000" font-family="Arial" font-size="7" text-anchor="middle" fill="#FFFFFF">*</text>
<circle cx="83.800000" cy="30.000000" r="1"/>
<line x1="78.800000" y1="35.000000" x2="81.800000" y2="36.000000"  transform="rotate(0.000000,81.800000,36.000000)" style="stroke: black; stroke-width:0.25;"/>
<line x1="78.800000" y1="37.000000" x2="81.800000" y2="36.000000"  transform="rotate(0.000000,81.800000,36.000000)" style="stroke: black; stroke-width:0.25;"/>
<line x1="78.800000" y1="43.000000" x2="81.800000" y2="44.000000"  transform="rotate(0.000000,81.800000,44.000000)" style="stroke: black; stroke-width:0.25;"/>
<line x1="78.800000" y1="45.000000" x2="81.800000" y2="44.000000"  transform="rotate(0.000000,81.800000,44.000000)" style="stroke: black; stroke-width:0.25;"/>
<a xlink:href="bandPassH-0x7fb0fad01e80.svg">
<rect x="114.800000" y="29.000000" width="167.700000" height="24.000000" rx="0" ry="0" style="stroke:none;fill:#cccccc;"/>
<rect x="113.800000" y="28.000000" width="167.700000" height="24.000000" rx="0" ry="0" style="stroke:none;fill:#003366;"/>
</a>
<a xlink:href="bandPassH-0x7fb0fad01e80.svg">
<text x="197.650000" y="42.000000" font-family="Arial" font-size="7" text-anchor="middle" fill="#FFFFFF">bandPassH((hs...) : pow) : *)(0.997f)</text>
</a>
<circle cx="115.800000" cy="30.000000" r="1"/>
<line x1="110.800000" y1="39.000000" x2="113.800000" y2="40.000000"  transform="rotate(0.000000,113.800000,40.000000)" style="stroke: black; stroke-width:0.25;"/>
<line x1="110.800000" y1="41.000000" x2="113.800000" y2="40.000000"  transform="rotate(0.000000,113.800000,40.000000)" style="stroke: black; stroke-width:0.25;"/>
<rect x="308.500000" y="29.000000" width="24.000000" height="24.000000" rx="0" ry="0" style="stroke:none;fill:#cccccc;"/>
<rect x="307.500000" y="28.000000" width="24.000000" height="24.000000" rx="0" ry="0" style="stroke:none;fill:#4B71A1;"/>
<text x="319.500000" y="42.000000" font-family="Arial" font-size="7" text-anchor="middle" fill="#FFFFFF">*</text>
<circle cx="309.500000" cy="30.000000" r="1"/>
<line x1="304.500000" y1="35.000000" x2="307.500000" y2="36.000000"  transform="rotate(0.000000,307.500000,36.000000)" style="stroke: black; stroke-width:0.25;"/>
<line x1="304.500000" y1="37.000000" x2="307.500000" y2="36.000000"  transform="rotate(0.000000,307.500000,36.000000)" style="stroke: black; stroke-width:0.25;"/>
<line x1="304.500000" y1="43.000000" x2="307.500000" y2="44.000000"  transform="rotate(0.000000,307.500000,44.000000)" style="stroke: black; stroke-width:0.25;"/>
<line x1="304.500000" y1="45.000000" x2="307.500000" y2="44.000000"  transform="rotate(0.000000,307.500000,44.000000)" style="stroke: black; stroke-width:0.25;"/>
<a xlink:href="saturationPos-0x7fb0fac9b000.svg">
<rect x="340.500000" y="29.000000" width="64.500000" height="24.000000" rx="0" ry="0" style="stroke:none;fill:#cccccc;"/>
<rect x="339.500000" y="28.000000" width="64.500000" height="24.000000" rx="0" ry="0" style="stroke:none;fill:#003366;"/>
</a>
<a xlink:href="saturationPos-0x7fb0fac9b000.svg">
<text x="371.750000" y="42.000000" font-family="Arial" font-size="7" text-anchor="middle" fill="#FFFFFF">saturationPos</text>
</a>
<circle cx="341.500000" cy="30.000000" r="1"/>
<line x1="336.500000" y1="39.000000" x2="339.500000" y2="40.000000"  transform="rotate(0.000000,339.500000,40.000000)" style="stroke: black; stroke-width:0.25;"/>
<line x1="336.500000" y1="41.000000" x2="339.500000" y2="40.000000"  transform="rotate(0.000000,339.500000,40.000000)" style="stroke: black; stroke-width:0.25;"/>
<line x1="15.000000" y1="15.000000" x2="15.000000" y2="65.000000"  style="stroke: black; stroke-linecap:round; stroke-width:0.25; stroke-dasharray:3,3;"/>
<line x1="15.000000" y1="65.000000" x2="421.000000" y2="65.000000"  style="stroke: black; stroke-linecap:round; stroke-width:0.25; stroke-dasharray:3,3;"/>
<line x1="421.000000" y1="65.000000" x2="421.000000" y2="15.000000"  style="stroke: black; stroke-linecap:round; stroke-width:0.25; stroke-dasharray:3,3;"/>
<line x1="15.000000" y1="15.000000" x2="20.000000" y2="15.000000"  style="stroke: black; stroke-linecap:round; stroke-width:0.25; stroke-dasharray:3,3;"/>
<line x1="119.975000" y1="15.000000" x2="421.000000" y2="15.000000"  style="stroke: black; stroke-linecap:round; stroke-width:0.25; stroke-dasharray:3,3;"/>
<text x="20.000000" y="17.000000" font-family="Arial" font-size="7">lipFilter(hsl...,0.999f : *))</text>
<line x1="423.000000" y1="39.000000" x2="426.000000" y2="40.000000"  transform="rotate(0.000000,426.000000,40.000000)" style="stroke: black; stroke-width:0.25;"/>
<line x1="423.000000" y1="41.000000" x2="426.000000" y2="40.000000"  transform="rotate(0.000000,426.000000,40.000000)" style="stroke: black; stroke-width:0.25;"/>
<line x1="10.000000" y1="40.000000" x2="20.000000" y2="40.000000"  style="stroke:black; stroke-linecap:round; stroke-width:0.25;"/>
<line x1="20.000000" y1="40.000000" x2="24.000000" y2="40.000000"  style="stroke:black; stroke-linecap:round; stroke-width:0.25;"/>
<line x1="24.000000" y1="40.000000" x2="28.000000" y2="40.000000"  style="stroke:black; stroke-linecap:round; stroke-width:0.25;"/>
<line x1="28.000000" y1="24.000000" x2="36.000000" y2="24.000000"  style="stroke:black; stroke-linecap:round; stroke-width:0.25;"/>
<line x1="28.000000" y1="40.000000" x2="28.000000" y2="24.000000"  style="stroke:black; stroke-linecap:round; stroke-width:0.25;"/>
<line x1="28.000000" y1="40.000000" x2="28.000000" y2="40.000000"  style="stroke:black; stroke-linecap:round; stroke-width:0.25;"/>
<line x1="36.000000" y1="24.000000" x2="52.900000" y2="24.000000"  style="stroke:black; stroke-linecap:round; stroke-width:0.25;"/>
<line x1="52.900000" y1="24.000000" x2="69.800000" y2="24.000000"  style="stroke:black; stroke-linecap:round; stroke-width:0.25;"/>
<line x1="65.800000" y1="44.000000" x2="69.800000" y2="44.000000"  style="stroke:black; stroke-linecap:round; stroke-width:0.25;"/>
<line x1="69.800000" y1="24.000000" x2="77.800000" y2="24.000000"  style="stroke:black; stroke-linecap:round; stroke-width:0.25;"/>
<line x1="69.800000" y1="44.000000" x2="77.800000" y2="44.000000"  style="stroke:black; stroke-linecap:round; stroke-width:0.25;"/>
<line x1="77.800000" y1="24.000000" x2="77.800000" y2="36.000000"  style="stroke:black; stroke-linecap:round; stroke-width:0.25;"/>
<line x1="77.800000" y1="36.000000" x2="77.800000" y2="36.000000"  style="stroke:black; stroke-linecap:round; stroke-width:0.25;"/>
<line x1="77.800000" y1="36.000000" x2="81.800000" y2="36.000000"  style="stroke:black; stroke-linecap:round; stroke-width:0.25;"/>
<line x1="77.800000" y1="44.000000" x2="81.800000" y2="44.000000"  style="stroke:black; stroke-linecap:round; stroke-width:0.25;"/>
<line x1="105.800000" y1="40.000000" x2="109.800000" y2="40.000000"  style="stroke:black; stroke-linecap:round; stroke-width:0.25;"/>
<line x1="109.800000" y1="40.000000" x2="109.800000" y2="40.000000"  style="stroke:black; stroke-linecap:round; stroke-width:0.25;"/>
<line x1="109.800000" y1="40.000000" x2="113.800000" y2="40.000000"  style="stroke:black; stroke-linecap:round; stroke-width:0.25;"/>
<line x1="281.500000" y1="40.000000" x2="285.500000" y2="40.000000"  style="stroke:black; stroke-linecap:round; stroke-width:0.25;"/>
<line x1="285.500000" y1="40.000000" x2="303.500000" y2="36.000000"  style="stroke:black; stroke-linecap:round; stroke-width:0.25;"/>
<line x1="285.500000" y1="40.000000" x2="303.500000" y2="44.000000"  style="stroke:black; stroke-linecap:round; stroke-width:0.25;"/>
<line x1="303.500000" y1="36.000000" x2="307.500000" y2="36.000000"  style="stroke:black; stroke-linecap:round; stroke-width:0.25;"/>
<line x1="303.500000" y1="44.000000" x2="307.500000" y2="44.000000"  style="stroke:black; stroke-linecap:round; stroke-width:0.25;"/>
<line x1="331.500000" y1="40.000000" x2="335.500000" y2="40.000000"  style="stroke:black; stroke-linecap:round; stroke-width:0.25;"/>
<line x1="335.500000" y1="40.000000" x2="335.500000" y2="40.000000"  style="stroke:black; stroke-linecap:round; stroke-width:0.25;"/>
<line x1="335.500000" y1="40.000000" x2="339.500000" y2="40.000000"  style="stroke:black; stroke-linecap:round; stroke-width:0.25;"/>
<line x1="404.000000" y1="40.000000" x2="408.000000" y2="40.000000"  style="stroke:black; stroke-linecap:round; stroke-width:0.25;"/>
<line x1="408.000000" y1="40.000000" x2="408.000000" y2="40.000000"  style="stroke:black; stroke-linecap:round; stroke-width:0.25;"/>
<line x1="408.000000" y1="40.000000" x2="412.000000" y2="40.000000"  style="stroke:black; stroke-linecap:round; stroke-width:0.25;"/>
<line x1="412.000000" y1="40.000000" x2="416.000000" y2="40.000000"  style="stroke:black; stroke-linecap:round; stroke-width:0.25;"/>
<line x1="416.000000" y1="40.000000" x2="426.000000" y2="40.000000"  style="stroke:black; stroke-linecap:round; stroke-width:0.25;"/>
</svg>
