<?xml version="1.0"?>
<svg xmlns="http://www.w3.org/2000/svg" xmlns:xlink="http://www.w3.org/1999/xlink" viewBox="0 0 516.800000 260.000000" width="258.400000mm" height="130.000000mm" version="1.1">
<a xlink:href="a1-0x7fb0f853be30.svg">
<rect x="1.000000" y="1.000000" width="515.800000" height="259.000000" rx="0" ry="0" style="stroke:none;fill:#cccccc;"/>
<rect x="0.000000" y="0.000000" width="515.800000" height="259.000000" rx="0" ry="0" style="stroke:none;fill:#ffffff;"/>
</a>
<text x="10.000000" y="7.000000" font-family="Arial" font-size="7"></text>
<rect x="25.000000" y="25.000000" width="348.300000" height="24.000000" rx="0" ry="0" style="stroke:none;fill:#cccccc;"/>
<rect x="24.000000" y="24.000000" width="348.300000" height="24.000000" rx="0" ry="0" style="stroke:none;fill:#477881;"/>
<text x="198.150000" y="38.000000" font-family="Arial" font-size="7" text-anchor="middle" fill="#FFFFFF">hslider(h:Instrument/v:Frequencies/Frequency 3, 587.32f, 5.5e+02f, 7e+02f, 0.01f)</text>
<circle cx="26.000000" cy="26.000000" r="1"/>
<a xlink:href="smooth-0x7fb0fa926440.svg">
<rect x="381.300000" y="25.000000" width="64.500000" height="24.000000" rx="0" ry="0" style="stroke:none;fill:#cccccc;"/>
<rect x="380.300000" y="24.000000" width="64.500000" height="24.000000" rx="0" ry="0" style="stroke:none;fill:#003366;"/>
</a>
<a xlink:href="smooth-0x7fb0fa926440.svg">
<text x="412.550000" y="38.000000" font-family="Arial" font-size="7" text-anchor="middle" fill="#FFFFFF">smooth(0.999f)</text>
</a>
<circle cx="382.300000" cy="26.000000" r="1"/>
<line x1="377.300000" y1="35.000000" x2="380.300000" y2="36.000000"  transform="rotate(0.000000,380.300000,36.000000)" style="stroke: black; stroke-width:0.25;"/>
<line x1="377.300000" y1="37.000000" x2="380.300000" y2="36.000000"  transform="rotate(0.000000,380.300000,36.000000)" style="stroke: black; stroke-width:0.25;"/>
<rect x="203.400000" y="57.000000" width="24.000000" height="24.000000" rx="0" ry="0" style="stroke:none;fill:#cccccc;"/>
<rect x="202.400000" y="56.000000" width="24.000000" height="24.000000" rx="0" ry="0" style="stroke:none;fill:#f44800;"/>
<text x="214.400000" y="70.000000" font-family="Arial" font-size="7" text-anchor="middle" fill="#FFFFFF">4</text>
<circle cx="204.400000" cy="58.000000" r="1"/>
<rect x="163.400000" y="99.000000" width="24.000000" height="24.000000" rx="0" ry="0" style="stroke:none;fill:#cccccc;"/>
<rect x="162.400000" y="98.000000" width="24.000000" height="24.000000" rx="0" ry="0" style="stroke:none;fill:#f44800;"/>
<text x="174.400000" y="112.000000" font-family="Arial" font-size="7" text-anchor="middle" fill="#FFFFFF">2</text>
<circle cx="164.400000" cy="100.000000" r="1"/>
<line x1="153.400000" y1="89.000000" x2="153.400000" y2="131.000000"  style="stroke: black; stroke-linecap:round; stroke-width:0.25; stroke-dasharray:3,3;"/>
<line x1="153.400000" y1="131.000000" x2="195.400000" y2="131.000000"  style="stroke: black; stroke-linecap:round; stroke-width:0.25; stroke-dasharray:3,3;"/>
<line x1="195.400000" y1="131.000000" x2="195.400000" y2="89.000000"  style="stroke: black; stroke-linecap:round; stroke-width:0.25; stroke-dasharray:3,3;"/>
<line x1="153.400000" y1="89.000000" x2="158.400000" y2="89.000000"  style="stroke: black; stroke-linecap:round; stroke-width:0.25; stroke-dasharray:3,3;"/>
<line x1="195.400000" y1="89.000000" x2="195.400000" y2="89.000000"  style="stroke: black; stroke-linecap:round; stroke-width:0.25; stroke-dasharray:3,3;"/>
<text x="158.400000" y="91.000000" font-family="Arial" font-size="7">envelopeRelease</text>
<rect x="162.500000" y="151.000000" width="25.800000" height="24.000000" rx="0" ry="0" style="stroke:none;fill:#cccccc;"/>
<rect x="161.500000" y="150.000000" width="25.800000" height="24.000000" rx="0" ry="0" style="stroke:none;fill:#f44800;"/>
<text x="174.400000" y="164.000000" font-family="Arial" font-size="7" text-anchor="middle" fill="#FFFFFF">0.78</text>
<circle cx="163.500000" cy="152.000000" r="1"/>
<line x1="152.500000" y1="141.000000" x2="152.500000" y2="183.000000"  style="stroke: black; stroke-linecap:round; stroke-width:0.25; stroke-dasharray:3,3;"/>
<line x1="152.500000" y1="183.000000" x2="196.300000" y2="183.000000"  style="stroke: black; stroke-linecap:round; stroke-width:0.25; stroke-dasharray:3,3;"/>
<line x1="196.300000" y1="183.000000" x2="196.300000" y2="141.000000"  style="stroke: black; stroke-linecap:round; stroke-width:0.25; stroke-dasharray:3,3;"/>
<line x1="152.500000" y1="141.000000" x2="157.500000" y2="141.000000"  style="stroke: black; stroke-linecap:round; stroke-width:0.25; stroke-dasharray:3,3;"/>
<line x1="196.200000" y1="141.000000" x2="196.300000" y2="141.000000"  style="stroke: black; stroke-linecap:round; stroke-width:0.25; stroke-dasharray:3,3;"/>
<text x="157.500000" y="143.000000" font-family="Arial" font-size="7">lipTension</text>
<rect x="214.300000" y="125.000000" width="24.000000" height="24.000000" rx="0" ry="0" style="stroke:none;fill:#cccccc;"/>
<rect x="213.300000" y="124.000000" width="24.000000" height="24.000000" rx="0" ry="0" style="stroke:none;fill:#4B71A1;"/>
<text x="225.300000" y="138.000000" font-family="Arial" font-size="7" text-anchor="middle" fill="#FFFFFF">*</text>
<circle cx="215.300000" cy="126.000000" r="1"/>
<line x1="210.300000" y1="131.000000" x2="213.300000" y2="132.000000"  transform="rotate(0.000000,213.300000,132.000000)" style="stroke: black; stroke-width:0.25;"/>
<line x1="210.300000" y1="133.000000" x2="213.300000" y2="132.000000"  transform="rotate(0.000000,213.300000,132.000000)" style="stroke: black; stroke-width:0.25;"/>
<line x1="210.300000" y1="139.000000" x2="213.300000" y2="140.000000"  transform="rotate(0.000000,213.300000,140.000000)" style="stroke: black; stroke-width:0.25;"/>
<line x1="210.300000" y1="141.000000" x2="213.300000" y2="140.000000"  transform="rotate(0.000000,213.300000,140.000000)" style="stroke: black; stroke-width:0.25;"/>
<rect x="183.400000" y="203.000000" width="24.000000" height="24.000000" rx="0" ry="0" style="stroke:none;fill:#cccccc;"/>
<rect x="182.400000" y="202.000000" width="24.000000" height="24.000000" rx="0" ry="0" style="stroke:none;fill:#f44800;"/>
<text x="194.400000" y="216.000000" font-family="Arial" font-size="7" text-anchor="middle" fill="#FFFFFF">1</text>
<circle cx="184.400000" cy="204.000000" r="1"/>
<line x1="173.400000" y1="193.000000" x2="173.400000" y2="235.000000"  style="stroke: black; stroke-linecap:round; stroke-width:0.25; stroke-dasharray:3,3;"/>
<line x1="173.400000" y1="235.000000" x2="215.400000" y2="235.000000"  style="stroke: black; stroke-linecap:round; stroke-width:0.25; stroke-dasharray:3,3;"/>
<line x1="215.400000" y1="235.000000" x2="215.400000" y2="193.000000"  style="stroke: black; stroke-linecap:round; stroke-width:0.25; stroke-dasharray:3,3;"/>
<line x1="173.400000" y1="193.000000" x2="178.400000" y2="193.000000"  style="stroke: black; stroke-linecap:round; stroke-width:0.25; stroke-dasharray:3,3;"/>
<line x1="191.300000" y1="193.000000" x2="215.400000" y2="193.000000"  style="stroke: black; stroke-linecap:round; stroke-width:0.25; stroke-dasharray:3,3;"/>
<text x="178.400000" y="195.000000" font-family="Arial" font-size="7">b0</text>
<rect x="254.300000" y="151.000000" width="24.000000" height="24.000000" rx="0" ry="0" style="stroke:none;fill:#cccccc;"/>
<rect x="253.300000" y="150.000000" width="24.000000" height="24.000000" rx="0" ry="0" style="stroke:none;fill:#4B71A1;"/>
<text x="265.300000" y="164.000000" font-family="Arial" font-size="7" text-anchor="middle" fill="#FFFFFF">-</text>
<circle cx="255.300000" cy="152.000000" r="1"/>
<line x1="250.300000" y1="157.000000" x2="253.300000" y2="158.000000"  transform="rotate(0.000000,253.300000,158.000000)" style="stroke: black; stroke-width:0.25;"/>
<line x1="250.300000" y1="159.000000" x2="253.300000" y2="158.000000"  transform="rotate(0.000000,253.300000,158.000000)" style="stroke: black; stroke-width:0.25;"/>
<line x1="250.300000" y1="165.000000" x2="253.300000" y2="166.000000"  transform="rotate(0.000000,253.300000,166.000000)" style="stroke: black; stroke-width:0.25;"/>
<line x1="250.300000" y1="167.000000" x2="253.300000" y2="166.000000"  transform="rotate(0.000000,253.300000,166.000000)" style="stroke: black; stroke-width:0.25;"/>
<rect x="294.300000" y="135.000000" width="24.000000" height="24.000000" rx="0" ry="0" style="stroke:none;fill:#cccccc;"/>
<rect x="293.300000" y="134.000000" width="24.000000" height="24.000000" rx="0" ry="0" style="stroke:none;fill:#4B71A1;"/>
<text x="305.300000" y="148.000000" font-family="Arial" font-size="7" text-anchor="middle" fill="#FFFFFF">pow</text>
<circle cx="295.300000" cy="136.000000" r="1"/>
<line x1="290.300000" y1="141.000000" x2="293.300000" y2="142.000000"  transform="rotate(0.000000,293.300000,142.000000)" style="stroke: black; stroke-width:0.25;"/>
<line x1="290.300000" y1="143.000000" x2="293.300000" y2="142.000000"  transform="rotate(0.000000,293.300000,142.000000)" style="stroke: black; stroke-width:0.25;"/>
<line x1="290.300000" y1="149.000000" x2="293.300000" y2="150.000000"  transform="rotate(0.000000,293.300000,150.000000)" style="stroke: black; stroke-width:0.25;"/>
<line x1="290.300000" y1="151.000000" x2="293.300000" y2="150.000000"  transform="rotate(0.000000,293.300000,150.000000)" style="stroke: black; stroke-width:0.25;"/>
<rect x="461.800000" y="119.000000" width="24.000000" height="24.000000" rx="0" ry="0" style="stroke:none;fill:#cccccc;"/>
<rect x="460.800000" y="118.000000" width="24.000000" height="24.000000" rx="0" ry="0" style="stroke:none;fill:#4B71A1;"/>
<text x="472.800000" y="132.000000" font-family="Arial" font-size="7" text-anchor="middle" fill="#FFFFFF">*</text>
<circle cx="462.800000" cy="120.000000" r="1"/>
<line x1="457.800000" y1="125.000000" x2="460.800000" y2="126.000000"  transform="rotate(0.000000,460.800000,126.000000)" style="stroke: black; stroke-width:0.25;"/>
<line x1="457.800000" y1="127.000000" x2="460.800000" y2="126.000000"  transform="rotate(0.000000,460.800000,126.000000)" style="stroke: black; stroke-width:0.25;"/>
<line x1="457.800000" y1="133.000000" x2="460.800000" y2="134.000000"  transform="rotate(0.000000,460.800000,134.000000)" style="stroke: black; stroke-width:0.25;"/>
<line x1="457.800000" y1="135.000000" x2="460.800000" y2="134.000000"  transform="rotate(0.000000,460.800000,134.000000)" style="stroke: black; stroke-width:0.25;"/>
<line x1="15.000000" y1="15.000000" x2="15.000000" y2="245.000000"  style="stroke: black; stroke-linecap:round; stroke-width:0.25; stroke-dasharray:3,3;"/>
<line x1="15.000000" y1="245.000000" x2="501.800000" y2="245.000000"  style="stroke: black; stroke-linecap:round; stroke-width:0.25; stroke-dasharray:3,3;"/>
<line x1="501.800000" y1="245.000000" x2="501.800000" y2="15.000000"  style="stroke: black; stroke-linecap:round; stroke-width:0.25; stroke-dasharray:3,3;"/>
<line x1="15.000000" y1="15.000000" x2="20.000000" y2="15.000000"  style="stroke: black; stroke-linecap:round; stroke-width:0.25; stroke-dasharray:3,3;"/>
<line x1="119.975000" y1="15.000000" x2="501.800000" y2="15.000000"  style="stroke: black; stroke-linecap:round; stroke-width:0.25; stroke-dasharray:3,3;"/>
<text x="20.000000" y="17.000000" font-family="Arial" font-size="7">lipFilterFreq...,0.999f : *))</text>
<line x1="503.800000" y1="129.000000" x2="506.800000" y2="130.000000"  transform="rotate(0.000000,506.800000,130.000000)" style="stroke: black; stroke-width:0.25;"/>
<line x1="503.800000" y1="131.000000" x2="506.800000" y2="130.000000"  transform="rotate(0.000000,506.800000,130.000000)" style="stroke: black; stroke-width:0.25;"/>
<line x1="186.400000" y1="110.000000" x2="190.400000" y2="110.000000"  style="stroke:black; stroke-linecap:round; stroke-width:0.25;"/>
<line x1="187.300000" y1="162.000000" x2="191.300000" y2="162.000000"  style="stroke:black; stroke-linecap:round; stroke-width:0.25;"/>
<line x1="190.400000" y1="110.000000" x2="200.400000" y2="110.000000"  style="stroke:black; stroke-linecap:round; stroke-width:0.25;"/>
<line x1="191.300000" y1="162.000000" x2="201.300000" y2="162.000000"  style="stroke:black; stroke-linecap:round; stroke-width:0.25;"/>
<line x1="200.400000" y1="110.000000" x2="201.300000" y2="110.000000"  style="stroke:black; stroke-linecap:round; stroke-width:0.25;"/>
<line x1="201.300000" y1="110.000000" x2="209.300000" y2="110.000000"  style="stroke:black; stroke-linecap:round; stroke-width:0.25;"/>
<line x1="201.300000" y1="140.000000" x2="209.300000" y2="140.000000"  style="stroke:black; stroke-linecap:round; stroke-width:0.25;"/>
<line x1="201.300000" y1="162.000000" x2="201.300000" y2="140.000000"  style="stroke:black; stroke-linecap:round; stroke-width:0.25;"/>
<line x1="201.300000" y1="162.000000" x2="201.300000" y2="162.000000"  style="stroke:black; stroke-linecap:round; stroke-width:0.25;"/>
<line x1="206.400000" y1="214.000000" x2="210.400000" y2="214.000000"  style="stroke:black; stroke-linecap:round; stroke-width:0.25;"/>
<line x1="209.300000" y1="110.000000" x2="209.300000" y2="132.000000"  style="stroke:black; stroke-linecap:round; stroke-width:0.25;"/>
<line x1="209.300000" y1="132.000000" x2="209.300000" y2="132.000000"  style="stroke:black; stroke-linecap:round; stroke-width:0.25;"/>
<line x1="209.300000" y1="132.000000" x2="213.300000" y2="132.000000"  style="stroke:black; stroke-linecap:round; stroke-width:0.25;"/>
<line x1="209.300000" y1="140.000000" x2="213.300000" y2="140.000000"  style="stroke:black; stroke-linecap:round; stroke-width:0.25;"/>
<line x1="210.400000" y1="214.000000" x2="220.400000" y2="214.000000"  style="stroke:black; stroke-linecap:round; stroke-width:0.25;"/>
<line x1="220.400000" y1="214.000000" x2="241.300000" y2="214.000000"  style="stroke:black; stroke-linecap:round; stroke-width:0.25;"/>
<line x1="226.400000" y1="68.000000" x2="230.400000" y2="68.000000"  style="stroke:black; stroke-linecap:round; stroke-width:0.25;"/>
<line x1="230.400000" y1="68.000000" x2="281.300000" y2="68.000000"  style="stroke:black; stroke-linecap:round; stroke-width:0.25;"/>
<line x1="237.300000" y1="136.000000" x2="241.300000" y2="136.000000"  style="stroke:black; stroke-linecap:round; stroke-width:0.25;"/>
<line x1="241.300000" y1="136.000000" x2="249.300000" y2="136.000000"  style="stroke:black; stroke-linecap:round; stroke-width:0.25;"/>
<line x1="241.300000" y1="166.000000" x2="249.300000" y2="166.000000"  style="stroke:black; stroke-linecap:round; stroke-width:0.25;"/>
<line x1="241.300000" y1="214.000000" x2="241.300000" y2="166.000000"  style="stroke:black; stroke-linecap:round; stroke-width:0.25;"/>
<line x1="241.300000" y1="214.000000" x2="241.300000" y2="214.000000"  style="stroke:black; stroke-linecap:round; stroke-width:0.25;"/>
<line x1="249.300000" y1="136.000000" x2="249.300000" y2="158.000000"  style="stroke:black; stroke-linecap:round; stroke-width:0.25;"/>
<line x1="249.300000" y1="158.000000" x2="249.300000" y2="158.000000"  style="stroke:black; stroke-linecap:round; stroke-width:0.25;"/>
<line x1="249.300000" y1="158.000000" x2="253.300000" y2="158.000000"  style="stroke:black; stroke-linecap:round; stroke-width:0.25;"/>
<line x1="249.300000" y1="166.000000" x2="253.300000" y2="166.000000"  style="stroke:black; stroke-linecap:round; stroke-width:0.25;"/>
<line x1="277.300000" y1="162.000000" x2="281.300000" y2="162.000000"  style="stroke:black; stroke-linecap:round; stroke-width:0.25;"/>
<line x1="281.300000" y1="68.000000" x2="289.300000" y2="68.000000"  style="stroke:black; stroke-linecap:round; stroke-width:0.25;"/>
<line x1="281.300000" y1="150.000000" x2="289.300000" y2="150.000000"  style="stroke:black; stroke-linecap:round; stroke-width:0.25;"/>
<line x1="281.300000" y1="162.000000" x2="281.300000" y2="150.000000"  style="stroke:black; stroke-linecap:round; stroke-width:0.25;"/>
<line x1="281.300000" y1="162.000000" x2="281.300000" y2="162.000000"  style="stroke:black; stroke-linecap:round; stroke-width:0.25;"/>
<line x1="289.300000" y1="68.000000" x2="289.300000" y2="142.000000"  style="stroke:black; stroke-linecap:round; stroke-width:0.25;"/>
<line x1="289.300000" y1="142.000000" x2="289.300000" y2="142.000000"  style="stroke:black; stroke-linecap:round; stroke-width:0.25;"/>
<line x1="289.300000" y1="142.000000" x2="293.300000" y2="142.000000"  style="stroke:black; stroke-linecap:round; stroke-width:0.25;"/>
<line x1="289.300000" y1="150.000000" x2="293.300000" y2="150.000000"  style="stroke:black; stroke-linecap:round; stroke-width:0.25;"/>
<line x1="317.300000" y1="146.000000" x2="321.300000" y2="146.000000"  style="stroke:black; stroke-linecap:round; stroke-width:0.25;"/>
<line x1="321.300000" y1="146.000000" x2="448.800000" y2="146.000000"  style="stroke:black; stroke-linecap:round; stroke-width:0.25;"/>
<line x1="372.300000" y1="36.000000" x2="376.300000" y2="36.000000"  style="stroke:black; stroke-linecap:round; stroke-width:0.25;"/>
<line x1="376.300000" y1="36.000000" x2="376.300000" y2="36.000000"  style="stroke:black; stroke-linecap:round; stroke-width:0.25;"/>
<line x1="376.300000" y1="36.000000" x2="380.300000" y2="36.000000"  style="stroke:black; stroke-linecap:round; stroke-width:0.25;"/>
<line x1="444.800000" y1="36.000000" x2="448.800000" y2="36.000000"  style="stroke:black; stroke-linecap:round; stroke-width:0.25;"/>
<line x1="448.800000" y1="36.000000" x2="456.800000" y2="36.000000"  style="stroke:black; stroke-linecap:round; stroke-width:0.25;"/>
<line x1="448.800000" y1="134.000000" x2="456.800000" y2="134.000000"  style="stroke:black; stroke-linecap:round; stroke-width:0.25;"/>
<line x1="448.800000" y1="146.000000" x2="448.800000" y2="134.000000"  style="stroke:black; stroke-linecap:round; stroke-width:0.25;"/>
<line x1="448.800000" y1="146.000000" x2="448.800000" y2="146.000000"  style="stroke:black; stroke-linecap:round; stroke-width:0.25;"/>
<line x1="456.800000" y1="36.000000" x2="456.800000" y2="126.000000"  style="stroke:black; stroke-linecap:round; stroke-width:0.25;"/>
<line x1="456.800000" y1="126.000000" x2="456.800000" y2="126.000000"  style="stroke:black; stroke-linecap:round; stroke-width:0.25;"/>
<line x1="456.800000" y1="126.000000" x2="460.800000" y2="126.000000"  style="stroke:black; stroke-linecap:round; stroke-width:0.25;"/>
<line x1="456.800000" y1="134.000000" x2="460.800000" y2="134.000000"  style="stroke:black; stroke-linecap:round; stroke-width:0.25;"/>
<line x1="484.800000" y1="130.000000" x2="488.800000" y2="130.000000"  style="stroke:black; stroke-linecap:round; stroke-width:0.25;"/>
<line x1="488.800000" y1="130.000000" x2="488.800000" y2="130.000000"  style="stroke:black; stroke-linecap:round; stroke-width:0.25;"/>
<line x1="488.800000" y1="130.000000" x2="492.800000" y2="130.000000"  style="stroke:black; stroke-linecap:round; stroke-width:0.25;"/>
<line x1="492.800000" y1="130.000000" x2="496.800000" y2="130.000000"  style="stroke:black; stroke-linecap:round; stroke-width:0.25;"/>
<line x1="496.800000" y1="130.000000" x2="506.800000" y2="130.000000"  style="stroke:black; stroke-linecap:round; stroke-width:0.25;"/>
</svg>
