<?xml version="1.0"?>
<svg xmlns="http://www.w3.org/2000/svg" xmlns:xlink="http://www.w3.org/1999/xlink" viewBox="0 0 529.700000 260.000000" width="264.850000mm" height="130.000000mm" version="1.1">
<a xlink:href="a1-0x7fb0faa34ee0.svg">
<rect x="1.000000" y="1.000000" width="528.700000" height="259.000000" rx="0" ry="0" style="stroke:none;fill:#cccccc;"/>
<rect x="0.000000" y="0.000000" width="528.700000" height="259.000000" rx="0" ry="0" style="stroke:none;fill:#ffffff;"/>
</a>
<text x="10.000000" y="7.000000" font-family="Arial" font-size="7"></text>
<rect x="25.000000" y="25.000000" width="361.200000" height="24.000000" rx="0" ry="0" style="stroke:none;fill:#cccccc;"/>
<rect x="24.000000" y="24.000000" width="361.200000" height="24.000000" rx="0" ry="0" style="stroke:none;fill:#477881;"/>
<text x="204.600000" y="38.000000" font-family="Arial" font-size="7" text-anchor="middle" fill="#FFFFFF">hslider(h:Instrument/v:Frequencies/Frequency 2, 4.4e+02f, 3.8e+02f, 5.5e+02f, 0.01f)</text>
<circle cx="26.000000" cy="26.000000" r="1"/>
<a xlink:href="smooth-0x7fb0fa926440.svg">
<rect x="394.200000" y="25.000000" width="64.500000" height="24.000000" rx="0" ry="0" style="stroke:none;fill:#cccccc;"/>
<rect x="393.200000" y="24.000000" width="64.500000" height="24.000000" rx="0" ry="0" style="stroke:none;fill:#003366;"/>
</a>
<a xlink:href="smooth-0x7fb0fa926440.svg">
<text x="425.450000" y="38.000000" font-family="Arial" font-size="7" text-anchor="middle" fill="#FFFFFF">smooth(0.999f)</text>
</a>
<circle cx="395.200000" cy="26.000000" r="1"/>
<line x1="390.200000" y1="35.000000" x2="393.200000" y2="36.000000"  transform="rotate(0.000000,393.200000,36.000000)" style="stroke: black; stroke-width:0.25;"/>
<line x1="390.200000" y1="37.000000" x2="393.200000" y2="36.000000"  transform="rotate(0.000000,393.200000,36.000000)" style="stroke: black; stroke-width:0.25;"/>
<rect x="209.850000" y="57.000000" width="24.000000" height="24.000000" rx="0" ry="0" style="stroke:none;fill:#cccccc;"/>
<rect x="208.850000" y="56.000000" width="24.000000" height="24.000000" rx="0" ry="0" style="stroke:none;fill:#f44800;"/>
<text x="220.850000" y="70.000000" font-family="Arial" font-size="7" text-anchor="middle" fill="#FFFFFF">4</text>
<circle cx="210.850000" cy="58.000000" r="1"/>
<rect x="169.850000" y="99.000000" width="24.000000" height="24.000000" rx="0" ry="0" style="stroke:none;fill:#cccccc;"/>
<rect x="168.850000" y="98.000000" width="24.000000" height="24.000000" rx="0" ry="0" style="stroke:none;fill:#f44800;"/>
<text x="180.850000" y="112.000000" font-family="Arial" font-size="7" text-anchor="middle" fill="#FFFFFF">2</text>
<circle cx="170.850000" cy="100.000000" r="1"/>
<line x1="159.850000" y1="89.000000" x2="159.850000" y2="131.000000"  style="stroke: black; stroke-linecap:round; stroke-width:0.25; stroke-dasharray:3,3;"/>
<line x1="159.850000" y1="131.000000" x2="201.850000" y2="131.000000"  style="stroke: black; stroke-linecap:round; stroke-width:0.25; stroke-dasharray:3,3;"/>
<line x1="201.850000" y1="131.000000" x2="201.850000" y2="89.000000"  style="stroke: black; stroke-linecap:round; stroke-width:0.25; stroke-dasharray:3,3;"/>
<line x1="159.850000" y1="89.000000" x2="164.850000" y2="89.000000"  style="stroke: black; stroke-linecap:round; stroke-width:0.25; stroke-dasharray:3,3;"/>
<line x1="201.850000" y1="89.000000" x2="201.850000" y2="89.000000"  style="stroke: black; stroke-linecap:round; stroke-width:0.25; stroke-dasharray:3,3;"/>
<text x="164.850000" y="91.000000" font-family="Arial" font-size="7">envelopeRelease</text>
<rect x="168.950000" y="151.000000" width="25.800000" height="24.000000" rx="0" ry="0" style="stroke:none;fill:#cccccc;"/>
<rect x="167.950000" y="150.000000" width="25.800000" height="24.000000" rx="0" ry="0" style="stroke:none;fill:#f44800;"/>
<text x="180.850000" y="164.000000" font-family="Arial" font-size="7" text-anchor="middle" fill="#FFFFFF">0.78</text>
<circle cx="169.950000" cy="152.000000" r="1"/>
<line x1="158.950000" y1="141.000000" x2="158.950000" y2="183.000000"  style="stroke: black; stroke-linecap:round; stroke-width:0.25; stroke-dasharray:3,3;"/>
<line x1="158.950000" y1="183.000000" x2="202.750000" y2="183.000000"  style="stroke: black; stroke-linecap:round; stroke-width:0.25; stroke-dasharray:3,3;"/>
<line x1="202.750000" y1="183.000000" x2="202.750000" y2="141.000000"  style="stroke: black; stroke-linecap:round; stroke-width:0.25; stroke-dasharray:3,3;"/>
<line x1="158.950000" y1="141.000000" x2="163.950000" y2="141.000000"  style="stroke: black; stroke-linecap:round; stroke-width:0.25; stroke-dasharray:3,3;"/>
<line x1="202.650000" y1="141.000000" x2="202.750000" y2="141.000000"  style="stroke: black; stroke-linecap:round; stroke-width:0.25; stroke-dasharray:3,3;"/>
<text x="163.950000" y="143.000000" font-family="Arial" font-size="7">lipTension</text>
<rect x="220.750000" y="125.000000" width="24.000000" height="24.000000" rx="0" ry="0" style="stroke:none;fill:#cccccc;"/>
<rect x="219.750000" y="124.000000" width="24.000000" height="24.000000" rx="0" ry="0" style="stroke:none;fill:#4B71A1;"/>
<text x="231.750000" y="138.000000" font-family="Arial" font-size="7" text-anchor="middle" fill="#FFFFFF">*</text>
<circle cx="221.750000" cy="126.000000" r="1"/>
<line x1="216.750000" y1="131.000000" x2="219.750000" y2="132.000000"  transform="rotate(0.000000,219.750000,132.000000)" style="stroke: black; stroke-width:0.25;"/>
<line x1="216.750000" y1="133.000000" x2="219.750000" y2="132.000000"  transform="rotate(0.000000,219.750000,132.000000)" style="stroke: black; stroke-width:0.25;"/>
<line x1="216.750000" y1="139.000000" x2="219.750000" y2="140.000000"  transform="rotate(0.000000,219.750000,140.000000)" style="stroke: black; stroke-width:0.25;"/>
<line x1="216.750000" y1="141.000000" x2="219.750000" y2="140.000000"  transform="rotate(0.000000,219.750000,140.000000)" style="stroke: black; stroke-width:0.25;"/>
<rect x="189.850000" y="203.000000" width="24.000000" height="24.000000" rx="0" ry="0" style="stroke:none;fill:#cccccc;"/>
<rect x="188.850000" y="202.000000" width="24.000000" height="24.000000" rx="0" ry="0" style="stroke:none;fill:#f44800;"/>
<text x="200.850000" y="216.000000" font-family="Arial" font-size="7" text-anchor="middle" fill="#FFFFFF">1</text>
<circle cx="190.850000" cy="204.000000" r="1"/>
<line x1="179.850000" y1="193.000000" x2="179.850000" y2="235.000000"  style="stroke: black; stroke-linecap:round; stroke-width:0.25; stroke-dasharray:3,3;"/>
<line x1="179.850000" y1="235.000000" x2="221.850000" y2="235.000000"  style="stroke: black; stroke-linecap:round; stroke-width:0.25; stroke-dasharray:3,3;"/>
<line x1="221.850000" y1="235.000000" x2="221.850000" y2="193.000000"  style="stroke: black; stroke-linecap:round; stroke-width:0.25; stroke-dasharray:3,3;"/>
<line x1="179.850000" y1="193.000000" x2="184.850000" y2="193.000000"  style="stroke: black; stroke-linecap:round; stroke-width:0.25; stroke-dasharray:3,3;"/>
<line x1="197.750000" y1="193.000000" x2="221.850000" y2="193.000000"  style="stroke: black; stroke-linecap:round; stroke-width:0.25; stroke-dasharray:3,3;"/>
<text x="184.850000" y="195.000000" font-family="Arial" font-size="7">b0</text>
<rect x="260.750000" y="151.000000" width="24.000000" height="24.000000" rx="0" ry="0" style="stroke:none;fill:#cccccc;"/>
<rect x="259.750000" y="150.000000" width="24.000000" height="24.000000" rx="0" ry="0" style="stroke:none;fill:#4B71A1;"/>
<text x="271.750000" y="164.000000" font-family="Arial" font-size="7" text-anchor="middle" fill="#FFFFFF">-</text>
<circle cx="261.750000" cy="152.000000" r="1"/>
<line x1="256.750000" y1="157.000000" x2="259.750000" y2="158.000000"  transform="rotate(0.000000,259.750000,158.000000)" style="stroke: black; stroke-width:0.25;"/>
<line x1="256.750000" y1="159.000000" x2="259.750000" y2="158.000000"  transform="rotate(0.000000,259.750000,158.000000)" style="stroke: black; stroke-width:0.25;"/>
<line x1="256.750000" y1="165.000000" x2="259.750000" y2="166.000000"  transform="rotate(0.000000,259.750000,166.000000)" style="stroke: black; stroke-width:0.25;"/>
<line x1="256.750000" y1="167.000000" x2="259.750000" y2="166.000000"  transform="rotate(0.000000,259.750000,166.000000)" style="stroke: black; stroke-width:0.25;"/>
<rect x="300.750000" y="135.000000" width="24.000000" height="24.000000" rx="0" ry="0" style="stroke:none;fill:#cccccc;"/>
<rect x="299.750000" y="134.000000" width="24.000000" height="24.000000" rx="0" ry="0" style="stroke:none;fill:#4B71A1;"/>
<text x="311.750000" y="148.000000" font-family="Arial" font-size="7" text-anchor="middle" fill="#FFFFFF">pow</text>
<circle cx="301.750000" cy="136.000000" r="1"/>
<line x1="296.750000" y1="141.000000" x2="299.750000" y2="142.000000"  transform="rotate(0.000000,299.750000,142.000000)" style="stroke: black; stroke-width:0.25;"/>
<line x1="296.750000" y1="143.000000" x2="299.750000" y2="142.000000"  transform="rotate(0.000000,299.750000,142.000000)" style="stroke: black; stroke-width:0.25;"/>
<line x1="296.750000" y1="149.000000" x2="299.750000" y2="150.000000"  transform="rotate(0.000000,299.750000,150.000000)" style="stroke: black; stroke-width:0.25;"/>
<line x1="296.750000" y1="151.000000" x2="299.750000" y2="150.000000"  transform="rotate(0.000000,299.750000,150.000000)" style="stroke: black; stroke-width:0.25;"/>
<rect x="474.700000" y="119.000000" width="24.000000" height="24.000000" rx="0" ry="0" style="stroke:none;fill:#cccccc;"/>
<rect x="473.700000" y="118.000000" width="24.000000" height="24.000000" rx="0" ry="0" style="stroke:none;fill:#4B71A1;"/>
<text x="485.700000" y="132.000000" font-family="Arial" font-size="7" text-anchor="middle" fill="#FFFFFF">*</text>
<circle cx="475.700000" cy="120.000000" r="1"/>
<line x1="470.700000" y1="125.000000" x2="473.700000" y2="126.000000"  transform="rotate(0.000000,473.700000,126.000000)" style="stroke: black; stroke-width:0.25;"/>
<line x1="470.700000" y1="127.000000" x2="473.700000" y2="126.000000"  transform="rotate(0.000000,473.700000,126.000000)" style="stroke: black; stroke-width:0.25;"/>
<line x1="470.700000" y1="133.000000" x2="473.700000" y2="134.000000"  transform="rotate(0.000000,473.700000,134.000000)" style="stroke: black; stroke-width:0.25;"/>
<line x1="470.700000" y1="135.000000" x2="473.700000" y2="134.000000"  transform="rotate(0.000000,473.700000,134.000000)" style="stroke: black; stroke-width:0.25;"/>
<line x1="15.000000" y1="15.000000" x2="15.000000" y2="245.000000"  style="stroke: black; stroke-linecap:round; stroke-width:0.25; stroke-dasharray:3,3;"/>
<line x1="15.000000" y1="245.000000" x2="514.700000" y2="245.000000"  style="stroke: black; stroke-linecap:round; stroke-width:0.25; stroke-dasharray:3,3;"/>
<line x1="514.700000" y1="245.000000" x2="514.700000" y2="15.000000"  style="stroke: black; stroke-linecap:round; stroke-width:0.25; stroke-dasharray:3,3;"/>
<line x1="15.000000" y1="15.000000" x2="20.000000" y2="15.000000"  style="stroke: black; stroke-linecap:round; stroke-width:0.25; stroke-dasharray:3,3;"/>
<line x1="119.975000" y1="15.000000" x2="514.700000" y2="15.000000"  style="stroke: black; stroke-linecap:round; stroke-width:0.25; stroke-dasharray:3,3;"/>
<text x="20.000000" y="17.000000" font-family="Arial" font-size="7">lipFilterFreq...,0.999f : *))</text>
<line x1="516.700000" y1="129.000000" x2="519.700000" y2="130.000000"  transform="rotate(0.000000,519.700000,130.000000)" style="stroke: black; stroke-width:0.25;"/>
<line x1="516.700000" y1="131.000000" x2="519.700000" y2="130.000000"  transform="rotate(0.000000,519.700000,130.000000)" style="stroke: black; stroke-width:0.25;"/>
<line x1="192.850000" y1="110.000000" x2="196.850000" y2="110.000000"  style="stroke:black; stroke-linecap:round; stroke-width:0.25;"/>
<line x1="193.750000" y1="162.000000" x2="197.750000" y2="162.000000"  style="stroke:black; stroke-linecap:round; stroke-width:0.25;"/>
<line x1="196.850000" y1="110.000000" x2="206.850000" y2="110.000000"  style="stroke:black; stroke-linecap:round; stroke-width:0.25;"/>
<line x1="197.750000" y1="162.000000" x2="207.750000" y2="162.000000"  style="stroke:black; stroke-linecap:round; stroke-width:0.25;"/>
<line x1="206.850000" y1="110.000000" x2="207.750000" y2="110.000000"  style="stroke:black; stroke-linecap:round; stroke-width:0.25;"/>
<line x1="207.750000" y1="110.000000" x2="215.750000" y2="110.000000"  style="stroke:black; stroke-linecap:round; stroke-width:0.25;"/>
<line x1="207.750000" y1="140.000000" x2="215.750000" y2="140.000000"  style="stroke:black; stroke-linecap:round; stroke-width:0.25;"/>
<line x1="207.750000" y1="162.000000" x2="207.750000" y2="140.000000"  style="stroke:black; stroke-linecap:round; stroke-width:0.25;"/>
<line x1="207.750000" y1="162.000000" x2="207.750000" y2="162.000000"  style="stroke:black; stroke-linecap:round; stroke-width:0.25;"/>
<line x1="212.850000" y1="214.000000" x2="216.850000" y2="214.000000"  style="stroke:black; stroke-linecap:round; stroke-width:0.25;"/>
<line x1="215.750000" y1="110.000000" x2="215.750000" y2="132.000000"  style="stroke:black; stroke-linecap:round; stroke-width:0.25;"/>
<line x1="215.750000" y1="132.000000" x2="215.750000" y2="132.000000"  style="stroke:black; stroke-linecap:round; stroke-width:0.25;"/>
<line x1="215.750000" y1="132.000000" x2="219.750000" y2="132.000000"  style="stroke:black; stroke-linecap:round; stroke-width:0.25;"/>
<line x1="215.750000" y1="140.000000" x2="219.750000" y2="140.000000"  style="stroke:black; stroke-linecap:round; stroke-width:0.25;"/>
<line x1="216.850000" y1="214.000000" x2="226.850000" y2="214.000000"  style="stroke:black; stroke-linecap:round; stroke-width:0.25;"/>
<line x1="226.850000" y1="214.000000" x2="247.750000" y2="214.000000"  style="stroke:black; stroke-linecap:round; stroke-width:0.25;"/>
<line x1="232.850000" y1="68.000000" x2="236.850000" y2="68.000000"  style="stroke:black; stroke-linecap:round; stroke-width:0.25;"/>
<line x1="236.850000" y1="68.000000" x2="287.750000" y2="68.000000"  style="stroke:black; stroke-linecap:round; stroke-width:0.25;"/>
<line x1="243.750000" y1="136.000000" x2="247.750000" y2="136.000000"  style="stroke:black; stroke-linecap:round; stroke-width:0.25;"/>
<line x1="247.750000" y1="136.000000" x2="255.750000" y2="136.000000"  style="stroke:black; stroke-linecap:round; stroke-width:0.25;"/>
<line x1="247.750000" y1="166.000000" x2="255.750000" y2="166.000000"  style="stroke:black; stroke-linecap:round; stroke-width:0.25;"/>
<line x1="247.750000" y1="214.000000" x2="247.750000" y2="166.000000"  style="stroke:black; stroke-linecap:round; stroke-width:0.25;"/>
<line x1="247.750000" y1="214.000000" x2="247.750000" y2="214.000000"  style="stroke:black; stroke-linecap:round; stroke-width:0.25;"/>
<line x1="255.750000" y1="136.000000" x2="255.750000" y2="158.000000"  style="stroke:black; stroke-linecap:round; stroke-width:0.25;"/>
<line x1="255.750000" y1="158.000000" x2="255.750000" y2="158.000000"  style="stroke:black; stroke-linecap:round; stroke-width:0.25;"/>
<line x1="255.750000" y1="158.000000" x2="259.750000" y2="158.000000"  style="stroke:black; stroke-linecap:round; stroke-width:0.25;"/>
<line x1="255.750000" y1="166.000000" x2="259.750000" y2="166.000000"  style="stroke:black; stroke-linecap:round; stroke-width:0.25;"/>
<line x1="283.750000" y1="162.000000" x2="287.750000" y2="162.000000"  style="stroke:black; stroke-linecap:round; stroke-width:0.25;"/>
<line x1="287.750000" y1="68.000000" x2="295.750000" y2="68.000000"  style="stroke:black; stroke-linecap:round; stroke-width:0.25;"/>
<line x1="287.750000" y1="150.000000" x2="295.750000" y2="150.000000"  style="stroke:black; stroke-linecap:round; stroke-width:0.25;"/>
<line x1="287.750000" y1="162.000000" x2="287.750000" y2="150.000000"  style="stroke:black; stroke-linecap:round; stroke-width:0.25;"/>
<line x1="287.750000" y1="162.000000" x2="287.750000" y2="162.000000"  style="stroke:black; stroke-linecap:round; stroke-width:0.25;"/>
<line x1="295.750000" y1="68.000000" x2="295.750000" y2="142.000000"  style="stroke:black; stroke-linecap:round; stroke-width:0.25;"/>
<line x1="295.750000" y1="142.000000" x2="295.750000" y2="142.000000"  style="stroke:black; stroke-linecap:round; stroke-width:0.25;"/>
<line x1="295.750000" y1="142.000000" x2="299.750000" y2="142.000000"  style="stroke:black; stroke-linecap:round; stroke-width:0.25;"/>
<line x1="295.750000" y1="150.000000" x2="299.750000" y2="150.000000"  style="stroke:black; stroke-linecap:round; stroke-width:0.25;"/>
<line x1="323.750000" y1="146.000000" x2="327.750000" y2="146.000000"  style="stroke:black; stroke-linecap:round; stroke-width:0.25;"/>
<line x1="327.750000" y1="146.000000" x2="461.700000" y2="146.000000"  style="stroke:black; stroke-linecap:round; stroke-width:0.25;"/>
<line x1="385.200000" y1="36.000000" x2="389.200000" y2="36.000000"  style="stroke:black; stroke-linecap:round; stroke-width:0.25;"/>
<line x1="389.200000" y1="36.000000" x2="389.200000" y2="36.000000"  style="stroke:black; stroke-linecap:round; stroke-width:0.25;"/>
<line x1="389.200000" y1="36.000000" x2="393.200000" y2="36.000000"  style="stroke:black; stroke-linecap:round; stroke-width:0.25;"/>
<line x1="457.700000" y1="36.000000" x2="461.700000" y2="36.000000"  style="stroke:black; stroke-linecap:round; stroke-width:0.25;"/>
<line x1="461.700000" y1="36.000000" x2="469.700000" y2="36.000000"  style="stroke:black; stroke-linecap:round; stroke-width:0.25;"/>
<line x1="461.700000" y1="134.000000" x2="469.700000" y2="134.000000"  style="stroke:black; stroke-linecap:round; stroke-width:0.25;"/>
<line x1="461.700000" y1="146.000000" x2="461.700000" y2="134.000000"  style="stroke:black; stroke-linecap:round; stroke-width:0.25;"/>
<line x1="461.700000" y1="146.000000" x2="461.700000" y2="146.000000"  style="stroke:black; stroke-linecap:round; stroke-width:0.25;"/>
<line x1="469.700000" y1="36.000000" x2="469.700000" y2="126.000000"  style="stroke:black; stroke-linecap:round; stroke-width:0.25;"/>
<line x1="469.700000" y1="126.000000" x2="469.700000" y2="126.000000"  style="stroke:black; stroke-linecap:round; stroke-width:0.25;"/>
<line x1="469.700000" y1="126.000000" x2="473.700000" y2="126.000000"  style="stroke:black; stroke-linecap:round; stroke-width:0.25;"/>
<line x1="469.700000" y1="134.000000" x2="473.700000" y2="134.000000"  style="stroke:black; stroke-linecap:round; stroke-width:0.25;"/>
<line x1="497.700000" y1="130.000000" x2="501.700000" y2="130.000000"  style="stroke:black; stroke-linecap:round; stroke-width:0.25;"/>
<line x1="501.700000" y1="130.000000" x2="501.700000" y2="130.000000"  style="stroke:black; stroke-linecap:round; stroke-width:0.25;"/>
<line x1="501.700000" y1="130.000000" x2="505.700000" y2="130.000000"  style="stroke:black; stroke-linecap:round; stroke-width:0.25;"/>
<line x1="505.700000" y1="130.000000" x2="509.700000" y2="130.000000"  style="stroke:black; stroke-linecap:round; stroke-width:0.25;"/>
<line x1="509.700000" y1="130.000000" x2="519.700000" y2="130.000000"  style="stroke:black; stroke-linecap:round; stroke-width:0.25;"/>
</svg>
